<?xml version="1.0" encoding="UTF-8" standalone="no"?>
<!-- Created with Inkscape (http://www.inkscape.org/) -->

<svg
   version="1.1"
   id="svg1"
   width="280.08932"
   height="184.06799"
   viewBox="0 0 280.08932 184.06799"
   sodipodi:docname="main.pdf"
   xmlns:inkscape="http://www.inkscape.org/namespaces/inkscape"
   xmlns:sodipodi="http://sodipodi.sourceforge.net/DTD/sodipodi-0.dtd"
   xmlns="http://www.w3.org/2000/svg"
   xmlns:svg="http://www.w3.org/2000/svg">
  <defs
     id="defs1" />
  <sodipodi:namedview
     id="namedview1"
     pagecolor="#ffffff"
     bordercolor="#000000"
     borderopacity="0.25"
     inkscape:showpageshadow="2"
     inkscape:pageopacity="0.0"
     inkscape:pagecheckerboard="0"
     inkscape:deskcolor="#d1d1d1">
    <inkscape:page
       x="0"
       y="0"
       inkscape:label="1"
       id="page1"
       width="280.08932"
       height="184.06799"
       margin="0"
       bleed="0" />
  </sodipodi:namedview>
  <g
     id="g1"
     inkscape:groupmode="layer"
     inkscape:label="1">
    <path
       id="path1"
       d="M 0,0 H 210.067 V 138.051 H 0 Z"
       style="fill:#ffffff;fill-opacity:1;fill-rule:nonzero;stroke:none"
       transform="matrix(1.3333333,0,0,-1.3333333,0,184.068)" />
    <path
       id="path2"
       d="M -48.77895,-116.38524 V 20.66724 h 209.06923 v -137.05248 z"
       style="fill:#ffffff;fill-opacity:1;fill-rule:nonzero;stroke:none"
       transform="matrix(1.3333333,0,0,-1.3333333,65.704,28.222667)" />
    <path
       id="path3"
       d="m 4.0904687,-4.1610938 c -0.5976562,-0.3398437 -0.9375,-0.4335937 -1.5351562,-0.4335937 -1.3945313,0 -2.19140625,1.2070312 -2.19140625,2.3789062 0,1.24218755 0.90234375,2.32031255 2.14453125,2.32031255 0.5390625,0 1.0898437,-0.140625 1.6289062,-0.50390625 L 4.07875,-1.0673438 c -0.515625,0.39843755 -1.0546875,0.53906255 -1.5585938,0.53906255 -0.8203125,0 -1.3828125,-0.71484375 -1.3828125,-1.69921875 0,-0.7734375 0.3632813,-1.7226563 1.4179688,-1.7226563 0.5273437,0 0.8671875,0.070312 1.40625,0.4335938 z M 5.9859766,-6.915 h -0.75 v 6.9140625 h 0.75 z m 3.6210937,4.2070312 1.6757817,-1.7109375 h -0.902344 l -2.0156252,2.0625 V -6.915 H 7.6383203 v 6.9140625 h 0.6914063 v -1.40625 L 9.1266016,-2.2275 10.685195,-9.375e-4 h 0.808594 z m 0,0"
       style="fill:#000000;fill-opacity:1;fill-rule:nonzero;stroke:none"
       aria-label="clk"
       transform="matrix(1.3333333,0,0,1.3333333,40.686667,28.22)" />
    <path
       id="path4"
       d="M 0,0.00255 H 14.1693 V 10.62952 H 28.33861 V 0.00255 H 42.50792 V 10.62952 H 56.67723 V 0.00255 h 14.1693 V 10.62952 H 85.01584 V 0.00255 h 14.16931 v 10.62697 h 14.16931 V 0.00255 h 14.1693 v 10.62697 h 14.16931 V 0.00255 h 14.16931"
       style="fill:none;stroke:#000000;stroke-width:0.66414;stroke-linecap:round;stroke-linejoin:round;stroke-miterlimit:10;stroke-dasharray:none;stroke-opacity:1"
       transform="matrix(1.3333333,0,0,-1.3333333,65.704,28.222667)" />
    <path
       id="path5"
       d="m 1.5594609,-2.1319375 c 0,-0.9960938 0.7265625,-1.7109375 1.6992188,-1.734375 v -0.6679688 c -0.890625,0.011719 -1.4296875,0.5039063 -1.7460938,0.9609375 V -4.4874063 H 0.82117969 V 8.75e-4 H 1.5594609 Z m 6.1699219,-4.78125 h -0.75 V -3.9835 c -0.5273437,-0.4335938 -1.078125,-0.5507813 -1.453125,-0.5507813 -0.984375,0 -1.7578125,1.0429688 -1.7578125,2.3203125 0,1.31250005 0.7617188,2.32031255 1.7109375,2.32031255 0.328125,0 0.9140625,-0.08203125 1.4765625,-0.62109375 V 8.75e-4 h 0.7734375 z m -0.7734375,5.53125 c 0,0.140625 -0.011719,0.3164062 -0.328125,0.609375 -0.234375,0.19921875 -0.4804687,0.26953125 -0.7382812,0.26953125 -0.6210938,0 -1.3476563,-0.45703125 -1.3476563,-1.69921875 0,-1.3125 0.8554688,-1.7226563 1.4414063,-1.7226563 0.4453125,0 0.75,0.234375 0.9726562,0.5507813 z M 11.529187,-6.749125 H 11.329969 C 10.744031,-6.13975 9.912,-6.1163125 9.44325,-6.092875 v 0.5742187 c 0.328125,-0.011719 0.808594,-0.023437 1.300781,-0.234375 v 5.17968755 H 9.5018437 V 8.75e-4 h 3.2695313 v -0.57421875 h -1.242188 z m 0,0"
       style="fill:#000000;fill-opacity:1;fill-rule:nonzero;stroke:none"
       aria-label="rd1"
       transform="matrix(1.3333333,0,0,1.3333333,8.784,56.561333)" />
    <path
       id="path6"
       d="M 0,0 H 2.989"
       style="fill:none;stroke:#000000;stroke-width:0.398;stroke-linecap:butt;stroke-linejoin:round;stroke-miterlimit:10;stroke-dasharray:none;stroke-opacity:1"
       transform="matrix(1.3333333,0,0,-1.3333333,27.625333,56.296)" />
    <path
       id="path7"
       d="m 3.9726875,-2.8819375 c 0,-1.0078125 -0.7265625,-1.7109375 -1.640625,-1.7109375 -0.6445313,0 -1.1015625,0.1640625 -1.5703125,0.4335937 l 0.0703125,0.65625 c 0.515625,-0.375 1.0078125,-0.5039062 1.5,-0.5039062 0.46875,0 0.8671875,0.3984375 0.8671875,1.1367187 v 0.4335938 c -1.5,0.011719 -2.765625,0.4335937 -2.765625,1.3125 0,0.421875 0.26953125,1.23046875 1.1367187,1.23046875 0.140625,0 1.078125,-0.01171875 1.6523438,-0.46875 V 8.75e-4 h 0.75 z M 3.19925,-1.311625 c 0,0.1875 0,0.43359375 -0.3398438,0.62109375 -0.2929687,0.1875 -0.6679687,0.1875 -0.7734375,0.1875 -0.4804687,0 -0.9257812,-0.22265625 -0.9257812,-0.64453125 0,-0.6914063 1.6054687,-0.7617188 2.0390625,-0.7851563 z m 5.9121094,-5.6015625 h -0.75 V -3.9835 c -0.5273438,-0.4335938 -1.078125,-0.5507813 -1.453125,-0.5507813 -0.984375,0 -1.7578125,1.0429688 -1.7578125,2.3203125 0,1.31250005 0.7617187,2.32031255 1.7109375,2.32031255 0.328125,0 0.9140625,-0.08203125 1.4765625,-0.62109375 V 8.75e-4 h 0.7734375 z m -0.7734375,5.53125 c 0,0.140625 -0.011719,0.3164062 -0.328125,0.609375 -0.234375,0.19921875 -0.4804688,0.26953125 -0.7382813,0.26953125 -0.6210937,0 -1.3476562,-0.45703125 -1.3476562,-1.69921875 0,-1.3125 0.8554687,-1.7226563 1.4414062,-1.7226563 0.4453125,0 0.75,0.234375 0.9726563,0.5507813 z m 5.9208981,-5.53125 h -0.75 V -3.9835 c -0.527343,-0.4335938 -1.078125,-0.5507813 -1.453125,-0.5507813 -0.984375,0 -1.757812,1.0429688 -1.757812,2.3203125 0,1.31250005 0.761719,2.32031255 1.710937,2.32031255 0.328125,0 0.914063,-0.08203125 1.476563,-0.62109375 V 8.75e-4 h 0.773437 z m -0.773437,5.53125 c 0,0.140625 -0.01172,0.3164062 -0.328125,0.609375 -0.234375,0.19921875 -0.480469,0.26953125 -0.738281,0.26953125 -0.621094,0 -1.347657,-0.45703125 -1.347657,-1.69921875 0,-1.3125 0.855469,-1.7226563 1.441407,-1.7226563 0.445312,0 0.75,0.234375 0.972656,0.5507813 z m 3.155273,-0.75 c 0,-0.9960938 0.726563,-1.7109375 1.699219,-1.734375 v -0.6679688 c -0.890625,0.011719 -1.429688,0.5039063 -1.746094,0.9609375 V -4.4874063 H 15.902375 V 8.75e-4 h 0.738281 z m 0,0"
       style="fill:#000000;fill-opacity:1;fill-rule:nonzero;stroke:none"
       aria-label="addr"
       transform="matrix(1.3333333,0,0,1.3333333,31.609333,56.561333)" />
    <path
       id="path8"
       d="m 0,-10.62573 21.25395,-6.4e-4 1.77115,-5.3135 -1.77115,-5.31349 L 0,-21.25269"
       style="fill:none;stroke:#000000;stroke-width:0.66414;stroke-linecap:round;stroke-linejoin:round;stroke-miterlimit:10;stroke-dasharray:none;stroke-opacity:1"
       transform="matrix(1.3333333,0,0,-1.3333333,65.704,28.222667)" />
    <path
       id="path9"
       d="m 23.0251,-15.93858 1.77116,5.31349 53.13492,-6.4e-4 1.77115,-5.31349 -1.77115,-5.3135 -53.13492,0.0013 -1.77116,5.31348"
       style="fill:none;stroke:#000000;stroke-width:0.66414;stroke-linecap:round;stroke-linejoin:round;stroke-miterlimit:10;stroke-dasharray:none;stroke-opacity:1"
       transform="matrix(1.3333333,0,0,-1.3333333,65.704,28.222667)" />
    <path
       id="path10"
       d="m 3.9641536,-2.870026 c 0,-1.015625 -0.7226562,-1.71875 -1.640625,-1.71875 -0.6445312,0 -1.09375,0.15625 -1.56249995,0.4296875 l 0.0585938,0.6445312 C 1.3469661,-3.8661198 1.8352474,-4.0028385 2.3235287,-4.0028385 c 0.46875,0 0.8789063,0.390625 0.8789063,1.1328125 v 0.4296875 c -1.5039063,0.019531 -2.77343755,0.4296875 -2.77343755,1.3085937 0,0.42968751 0.2734375,1.25000001 1.15234375,1.25000001 0.1367188,0 1.0742188,-0.01953125 1.640625,-0.46875 v 0.3515625 h 0.7421875 z m -0.7617187,1.5625 c 0,0.1757812 0,0.42968746 -0.3515625,0.62499996 -0.2734375,0.17578125 -0.6640625,0.1953125 -0.7617188,0.1953125 -0.4882812,0 -0.9375,-0.234375 -0.9375,-0.66406246 0,-0.6835938 1.6210938,-0.7617188 2.0507813,-0.78125 z M 9.1057552,-6.9129948 H 8.3635677 v 2.9296875 c -0.5273437,-0.4296875 -1.09375,-0.546875 -1.4453125,-0.546875 -0.9960937,0 -1.7773437,1.0351563 -1.7773437,2.3242188 0,1.30859371 0.78125,2.32421871 1.71875,2.32421871 0.3320312,0 0.9179687,-0.09765625 1.484375,-0.64453125 V 0.00106771 H 9.1057552 Z M 8.3440365,-1.385651 c 0,0.1367187 -0.019531,0.3125 -0.3320313,0.60546871 -0.234375,0.1953125 -0.4882812,0.29296875 -0.7421875,0.29296875 -0.625,0 -1.3476562,-0.46875 -1.3476562,-1.71874996 0,-1.3085938 0.859375,-1.71875 1.4453125,-1.71875 0.4492187,0 0.7421875,0.234375 0.9765625,0.546875 z M 14.25224,-6.9129948 h -0.742188 v 2.9296875 c -0.527344,-0.4296875 -1.09375,-0.546875 -1.445312,-0.546875 -0.996094,0 -1.777344,1.0351563 -1.777344,2.3242188 0,1.30859371 0.78125,2.32421871 1.71875,2.32421871 0.332031,0 0.917969,-0.09765625 1.484375,-0.64453125 v 0.52734375 h 0.761719 z m -0.761719,5.5273438 c 0,0.1367187 -0.01953,0.3125 -0.332031,0.60546871 -0.234375,0.1953125 -0.488282,0.29296875 -0.742188,0.29296875 -0.625,0 -1.347656,-0.46875 -1.347656,-1.71874996 0,-1.3085938 0.859375,-1.71875 1.445312,-1.71875 0.449219,0 0.742188,0.234375 0.976563,0.546875 z m 3.154297,-0.7421875 c 0,-0.9960938 0.722656,-1.71875 1.699218,-1.7382813 v -0.6640625 c -0.898437,0 -1.445312,0.4882813 -1.738281,0.9570313 V -4.4715885 H 15.90263 v 4.47265621 h 0.742188 z m 6.391601,-1.1132813 c 0,-0.8007812 -0.03906,-1.71875 -0.449218,-2.5195312 -0.410157,-0.7617188 -1.09375,-0.9960938 -1.621094,-0.9960938 -0.585938,0 -1.269531,0.2734375 -1.679688,1.1523438 -0.332031,0.7421875 -0.390625,1.5625 -0.390625,2.3632812 0,0.78125 0.03906,1.5039063 0.351563,2.2265625 0.390625,0.95703126 1.152344,1.23046876 1.71875,1.23046876 0.722656,0 1.347656,-0.41015625 1.679687,-1.09375 0.292969,-0.64453126 0.390625,-1.30859376 0.390625,-2.36328126 z m -2.070312,2.85156251 c -0.507813,0 -0.917969,-0.37109375 -1.113281,-1.09375001 -0.15625,-0.5664062 -0.175782,-1.1132812 -0.175782,-1.875 0,-0.6445312 0,-1.2304687 0.175782,-1.7773437 0.05859,-0.1953125 0.3125,-1.015625 1.113281,-1.015625 0.78125,0 1.035156,0.7617187 1.113281,0.9375 0.175781,0.5664062 0.175781,1.2304687 0.175781,1.8554687 0,0.6445313 0,1.2695313 -0.175781,1.9140625 -0.253906,0.89843751 -0.78125,1.05468751 -1.113281,1.05468751 z m 0,0"
       style="fill:#000000;fill-opacity:1;fill-rule:nonzero;stroke:none"
       aria-label="addr0"
       transform="matrix(0.8,0,0,0.8,124.80133,52.241333)" />
    <path
       id="path11"
       d="m 79.70233,-15.9373 1.77117,5.31347 74.38888,-0.0013 m 0,-10.627 -74.38888,0.0013 -1.77117,5.31348"
       style="fill:none;stroke:#000000;stroke-width:0.66414;stroke-linecap:round;stroke-linejoin:round;stroke-miterlimit:10;stroke-dasharray:none;stroke-opacity:1"
       transform="matrix(1.3333333,0,0,-1.3333333,65.704,28.222667)" />
    <path
       id="path12"
       d="m 3.9653385,-2.8732422 c 0,-1.015625 -0.7226562,-1.71875 -1.640625,-1.71875 -0.6445312,0 -1.09375,0.15625 -1.56249996,0.4296875 l 0.0585938,0.6445313 C 1.348151,-3.8693359 1.8364323,-4.0060547 2.3247135,-4.0060547 c 0.46875,0 0.8789063,0.390625 0.8789063,1.1328125 v 0.4296875 c -1.5039063,0.019531 -2.77343751,0.4296875 -2.77343751,1.3085938 0,0.42968746 0.2734375,1.24999996 1.15234371,1.24999996 0.1367188,0 1.0742188,-0.01953125 1.640625,-0.46875 v 0.3515625 h 0.7421875 z m -0.7617187,1.5625 c 0,0.1757813 0,0.42968751 -0.3515625,0.62500001 -0.2734375,0.17578125 -0.6640625,0.1953125 -0.7617188,0.1953125 -0.4882812,0 -0.9375,-0.234375 -0.9375,-0.66406251 0,-0.6835937 1.6210938,-0.7617187 2.0507813,-0.78125 z M 9.1020573,-6.9162109 H 8.3598698 v 2.9296875 c -0.5273438,-0.4296875 -1.09375,-0.546875 -1.4453125,-0.546875 -0.9960938,0 -1.7773438,1.0351562 -1.7773438,2.3242187 0,1.30859376 0.78125,2.32421876 1.71875,2.32421876 0.3320313,0 0.9179688,-0.09765625 1.484375,-0.64453125 v 0.52734375 h 0.7617188 z m -0.7617188,5.5273437 c 0,0.1367188 -0.019531,0.3125 -0.3320312,0.60546876 -0.234375,0.1953125 -0.4882813,0.29296875 -0.7421875,0.29296875 -0.625,0 -1.3476563,-0.46875 -1.3476563,-1.71875001 0,-1.3085937 0.859375,-1.71875 1.4453125,-1.71875 0.4492188,0 0.7421875,0.234375 0.9765625,0.546875 z m 5.9130855,-5.5273437 h -0.742187 v 2.9296875 c -0.527344,-0.4296875 -1.09375,-0.546875 -1.445313,-0.546875 -0.996093,0 -1.777343,1.0351562 -1.777343,2.3242187 0,1.30859376 0.78125,2.32421876 1.71875,2.32421876 0.332031,0 0.917968,-0.09765625 1.484375,-0.64453125 v 0.52734375 h 0.761718 z m -0.761718,5.5273437 c 0,0.1367188 -0.01953,0.3125 -0.332032,0.60546876 -0.234375,0.1953125 -0.488281,0.29296875 -0.742187,0.29296875 -0.625,0 -1.347656,-0.46875 -1.347656,-1.71875001 0,-1.3085937 0.859375,-1.71875 1.445312,-1.71875 0.449219,0 0.742188,0.234375 0.976563,0.546875 z m 3.154297,-0.7421875 c 0,-0.9960937 0.722656,-1.71875 1.699218,-1.7382812 v -0.6640625 c -0.898437,0 -1.445312,0.4882812 -1.738281,0.9570312 v -0.8984375 h -0.703125 v 4.47265626 h 0.742188 z m 3.579101,0.2539063 -1.25,1.23046871 v 0.64453125 h 3.984375 v -0.703125 h -1.816406 c -0.117188,0 -0.234375,0 -0.351563,0 h -1.09375 c 0.332032,-0.2734375 1.074219,-1.01562496 1.386719,-1.30859376 0.195313,-0.1757812 0.703125,-0.6054687 0.878906,-0.78125 0.449219,-0.4492187 0.996094,-0.9765625 0.996094,-1.8164062 0,-1.1523438 -0.800781,-2.1484375 -2.128906,-2.1484375 -1.132813,0 -1.679688,0.78125 -1.933594,1.640625 0.136719,0.1757812 0.175781,0.234375 0.195313,0.2539062 0.01953,0.019531 0.117187,0.15625 0.214843,0.2929688 0.214844,-0.7617188 0.488282,-1.5429688 1.386719,-1.5429688 0.9375,0 1.445313,0.7421875 1.445313,1.5234375 0,0.8398438 -0.566407,1.40625 -1.152344,2.0117188 z m 0,0"
       style="fill:#000000;fill-opacity:1;fill-rule:nonzero;stroke:none"
       aria-label="addr2"
       transform="matrix(0.8,0,0,0.8,214.53867,52.24)" />
    <path
       id="path13"
       d="m 1.5575234,-2.133125 c 0,-0.9960938 0.7265625,-1.7109375 1.6992188,-1.734375 V -4.5354688 C 2.3661172,-4.52375 1.8270547,-4.0315625 1.5106484,-3.5745313 V -4.4885938 H 0.81924219 V -3.125e-4 H 1.5575234 Z m 6.1699219,-4.78125 h -0.75 v 2.9296875 c -0.5273437,-0.4335938 -1.078125,-0.5507813 -1.453125,-0.5507813 -0.984375,0 -1.7578125,1.0429688 -1.7578125,2.3203125 0,1.31250005 0.7617188,2.32031255 1.7109375,2.32031255 0.328125,0 0.9140625,-0.08203125 1.4765625,-0.62109375 v 0.515625 h 0.7734375 z m -0.7734375,5.53125 c 0,0.140625 -0.011719,0.3164062 -0.328125,0.609375 -0.234375,0.19921875 -0.4804687,0.26953125 -0.7382812,0.26953125 -0.6210938,0 -1.3476563,-0.45703125 -1.3476563,-1.69921875 0,-1.3125 0.8554688,-1.7226563 1.4414063,-1.7226563 0.4453125,0 0.75,0.234375 0.9726562,0.5507813 z M 11.52725,-6.7503125 h -0.199219 c -0.585937,0.609375 -1.4179685,0.6328125 -1.8867185,0.65625 v 0.5742187 c 0.328125,-0.011719 0.8085935,-0.023437 1.3007815,-0.234375 v 5.17968755 H 9.4999062 V -3.125e-4 H 12.769437 V -0.57453125 H 11.52725 Z m 0,0"
       style="fill:#000000;fill-opacity:1;fill-rule:nonzero;stroke:none"
       aria-label="rd1"
       transform="matrix(1.3333333,0,0,1.3333333,9.0053333,84.906667)" />
    <path
       id="path14"
       d="M 0,0 H 2.989"
       style="fill:none;stroke:#000000;stroke-width:0.398;stroke-linecap:butt;stroke-linejoin:round;stroke-miterlimit:10;stroke-dasharray:none;stroke-opacity:1"
       transform="matrix(1.3333333,0,0,-1.3333333,27.846667,84.641333)" />
    <path
       id="path15"
       d="m 4.3252422,-6.914375 h -0.75 v 2.9296875 c -0.5273438,-0.4335938 -1.078125,-0.5507813 -1.453125,-0.5507813 -0.984375,0 -1.75781251,1.0429688 -1.75781251,2.3203125 0,1.31250005 0.76171871,2.32031255 1.71093751,2.32031255 0.328125,0 0.9140625,-0.08203125 1.4765625,-0.62109375 v 0.515625 h 0.7734375 z m -0.7734375,5.53125 c 0,0.140625 -0.011719,0.3164062 -0.328125,0.609375 -0.234375,0.19921875 -0.4804688,0.26953125 -0.7382813,0.26953125 -0.6210937,0 -1.3476562,-0.45703125 -1.3476562,-1.69921875 0,-1.3125 0.8554687,-1.7226563 1.4414062,-1.7226563 0.4453125,0 0.75,0.234375 0.9726563,0.5507813 z m 5.5693359,-1.5 c 0,-1.0078125 -0.7265625,-1.7109375 -1.640625,-1.7109375 -0.6445312,0 -1.1015625,0.1640625 -1.5703125,0.4335937 l 0.070312,0.65625 c 0.515625,-0.375 1.0078125,-0.5039062 1.5,-0.5039062 0.46875,0 0.8671875,0.3984375 0.8671875,1.1367187 v 0.4335938 c -1.5,0.011719 -2.765625,0.4335937 -2.765625,1.3125 0,0.421875 0.2695313,1.23046875 1.1367188,1.23046875 0.140625,0 1.078125,-0.01171875 1.6523437,-0.46875 V -3.125e-4 h 0.75 z m -0.7734375,1.5703125 c 0,0.1875 0,0.43359375 -0.3398437,0.62109375 -0.2929688,0.1875 -0.6679688,0.1875 -0.7734375,0.1875 -0.4804688,0 -0.9257813,-0.22265625 -0.9257813,-0.64453125 0,-0.6914063 1.6054688,-0.7617188 2.0390625,-0.7851563 z m 3.3339839,-2.53125 h 1.40625 v -0.5742188 h -1.40625 v -1.265625 h -0.691406 v 1.265625 h -0.867187 v 0.5742188 h 0.84375 v 2.6601562 c 0,0.5976563 0.128906,1.28906255 0.820312,1.28906255 0.703125,0 1.207031,-0.24609375 1.453125,-0.375 l -0.152344,-0.5859375 c -0.257812,0.2109375 -0.585937,0.328125 -0.902343,0.328125 -0.363282,0 -0.503907,-0.3046875 -0.503907,-0.83203125 z m 5.824219,0.9609375 c 0,-1.0078125 -0.726562,-1.7109375 -1.640625,-1.7109375 -0.644531,0 -1.101562,0.1640625 -1.570312,0.4335937 l 0.07031,0.65625 c 0.515625,-0.375 1.007813,-0.5039062 1.5,-0.5039062 0.46875,0 0.867188,0.3984375 0.867188,1.1367187 v 0.4335938 c -1.5,0.011719 -2.765625,0.4335937 -2.765625,1.3125 0,0.421875 0.269531,1.23046875 1.136718,1.23046875 0.140625,0 1.078125,-0.01171875 1.652344,-0.46875 V -3.125e-4 h 0.75 z m -0.773437,1.5703125 c 0,0.1875 0,0.43359375 -0.339844,0.62109375 -0.292969,0.1875 -0.667969,0.1875 -0.773438,0.1875 -0.480468,0 -0.925781,-0.22265625 -0.925781,-0.64453125 0,-0.6914063 1.605469,-0.7617188 2.039063,-0.7851563 z m 0,0"
       style="fill:#000000;fill-opacity:1;fill-rule:nonzero;stroke:none"
       aria-label="data"
       transform="matrix(1.3333333,0,0,1.3333333,31.830667,84.906667)" />
    <path
       id="path16"
       d="m 0,-31.88489 42.50792,-6.2e-4 1.77115,-5.31349 -1.77115,-5.31351 L 0,-42.51184"
       style="fill:none;stroke:#000000;stroke-width:0.66414;stroke-linecap:round;stroke-linejoin:round;stroke-miterlimit:10;stroke-dasharray:none;stroke-opacity:1"
       transform="matrix(1.3333333,0,0,-1.3333333,65.704,28.222667)" />
    <path
       id="path17"
       d="m 44.27907,-37.19772 1.77115,5.31347 53.13493,-6.4e-4 1.77115,-5.31347 -1.77115,-5.31351 -53.13493,0.0013 -1.77115,5.31348"
       style="fill:none;stroke:#000000;stroke-width:0.66414;stroke-linecap:round;stroke-linejoin:round;stroke-miterlimit:10;stroke-dasharray:none;stroke-opacity:1"
       transform="matrix(1.3333333,0,0,-1.3333333,65.704,28.222667)" />
    <path
       id="path18"
       d="M 4.3185286,-6.914974 H 3.5763411 v 2.9296875 c -0.5273437,-0.4296875 -1.09375,-0.546875 -1.4453125,-0.546875 -0.9960937,0 -1.7773437,1.0351563 -1.7773437,2.3242188 0,1.30859374 0.78125,2.32421874 1.71875,2.32421874 0.3320312,0 0.9179687,-0.09765625 1.484375,-0.64453125 v 0.52734375167 h 0.7617187 z m -0.7617187,5.5273438 c 0,0.1367187 -0.019531,0.3125 -0.3320313,0.60546874 -0.234375,0.1953125 -0.4882812,0.29296875 -0.7421875,0.29296875 -0.625,0 -1.3476562,-0.46875 -1.3476562,-1.71874999 0,-1.3085938 0.859375,-1.71875 1.4453125,-1.71875 0.4492187,0 0.7421875,0.234375 0.9765625,0.546875 z m 5.5566406,-1.484375 c 0,-1.015625 -0.7226562,-1.71875 -1.640625,-1.71875 -0.6445312,0 -1.09375,0.15625 -1.5625,0.4296875 l 0.058594,0.6445312 c 0.5273437,-0.3515625 1.015625,-0.4882812 1.5039062,-0.4882812 0.46875,0 0.8789063,0.390625 0.8789063,1.1328125 v 0.4296875 c -1.5039063,0.019531 -2.7734375,0.4296875 -2.7734375,1.3085937 0,0.42968754 0.2734375,1.25000004 1.1523437,1.25000004 0.1367188,0 1.0742188,-0.01953125 1.640625,-0.46875 v 0.35156250167 h 0.7421875 z m -0.7617187,1.5625 c 0,0.1757812 0,0.42968749 -0.3515625,0.62499999 -0.2734375,0.17578125 -0.6640625,0.1953125 -0.7617188,0.1953125 -0.4882812,0 -0.9375,-0.234375 -0.9375,-0.66406249 0,-0.6835938 1.6210938,-0.7617188 2.0507813,-0.78125 z m 3.3203122,-2.5390625 h 1.40625 V -4.414974 h -1.40625 v -1.2695312 h -0.683593 v 1.2695312 h -0.859375 v 0.5664063 h 0.839843 v 2.65625 c 0,0.60546874 0.136719,1.30859374 0.820313,1.30859374 0.703125,0 1.210937,-0.25390625 1.445312,-0.390625 l -0.15625,-0.5859375 c -0.253906,0.21484375 -0.566406,0.33203125 -0.898437,0.33203125 -0.371094,0 -0.507813,-0.29296875 -0.507813,-0.82031249 z m 5.825196,0.9765625 c 0,-1.015625 -0.722657,-1.71875 -1.640625,-1.71875 -0.644532,0 -1.09375,0.15625 -1.5625,0.4296875 l 0.05859,0.6445312 c 0.527344,-0.3515625 1.015625,-0.4882812 1.503907,-0.4882812 0.46875,0 0.878906,0.390625 0.878906,1.1328125 v 0.4296875 c -1.503906,0.019531 -2.773438,0.4296875 -2.773438,1.3085937 0,0.42968754 0.273438,1.25000004 1.152344,1.25000004 0.136719,0 1.074219,-0.01953125 1.640625,-0.46875 v 0.35156250167 h 0.742188 z m -0.761719,1.5625 c 0,0.1757812 0,0.42968749 -0.351563,0.62499999 -0.273437,0.17578125 -0.664062,0.1953125 -0.761718,0.1953125 -0.488282,0 -0.9375,-0.234375 -0.9375,-0.66406249 0,-0.6835938 1.621093,-0.7617188 2.050781,-0.78125 z m 6.137695,-1.9335938 c 0,-0.8007812 -0.03906,-1.71875 -0.449219,-2.5195312 -0.410156,-0.7617188 -1.09375,-0.9960938 -1.621093,-0.9960938 -0.585938,0 -1.269532,0.2734375 -1.679688,1.1523438 -0.332031,0.7421875 -0.390625,1.5625 -0.390625,2.3632812 0,0.78125 0.03906,1.5039063 0.351563,2.2265625 0.390625,0.95703129 1.152343,1.23046879 1.71875,1.23046879 0.722656,0 1.347656,-0.41015625 1.679687,-1.09375 C 22.77556,-1.524349 22.873216,-2.1884115 22.873216,-3.243099 Z m -2.070312,2.85156254 c -0.507813,0 -0.917969,-0.37109375 -1.113282,-1.09375004 -0.15625,-0.5664062 -0.175781,-1.1132812 -0.175781,-1.875 0,-0.6445312 0,-1.2304687 0.175781,-1.7773437 0.05859,-0.1953125 0.3125,-1.015625 1.113282,-1.015625 0.78125,0 1.035156,0.7617187 1.113281,0.9375 0.175781,0.5664062 0.175781,1.2304687 0.175781,1.8554687 0,0.6445313 0,1.2695313 -0.175781,1.9140625 -0.253906,0.89843754 -0.78125,1.05468754 -1.113281,1.05468754 z m 0,0"
       style="fill:#000000;fill-opacity:1;fill-rule:nonzero;stroke:none"
       aria-label="data0"
       transform="matrix(0.8,0,0,0.8,153.20533,80.586667)" />
    <path
       id="path19"
       d="m 100.9563,-37.19646 1.77115,5.31349 53.13493,-0.0013 m 0,-10.62698 -53.13493,0.0013 -1.77115,5.31346"
       style="fill:none;stroke:#000000;stroke-width:0.66414;stroke-linecap:round;stroke-linejoin:round;stroke-miterlimit:10;stroke-dasharray:none;stroke-opacity:1"
       transform="matrix(1.3333333,0,0,-1.3333333,65.704,28.222667)" />
    <g
       id="g19"
       aria-label="data2&#10;new"
       transform="matrix(0.8,0,0,0.8,223.70267,79.986667)">
      <path
         id="path20"
         d="M 4.3169792,-6.9120443 H 3.5747917 v 2.9296875 c -0.5273438,-0.4296875 -1.09375,-0.546875 -1.4453125,-0.546875 -0.9960938,0 -1.77734378,1.0351563 -1.77734378,2.3242188 0,1.30859373 0.78124998,2.32421873 1.71874998,2.32421873 0.3320313,0 0.9179688,-0.09765625 1.484375,-0.64453125 v 0.52734375 h 0.7617188 z m -0.7617188,5.5273438 c 0,0.1367187 -0.019531,0.3125 -0.3320312,0.60546873 -0.234375,0.1953125 -0.4882813,0.29296875 -0.7421875,0.29296875 -0.625,0 -1.3476563,-0.46875 -1.3476563,-1.71874998 0,-1.3085938 0.859375,-1.71875 1.4453125,-1.71875 0.4492188,0 0.7421875,0.234375 0.9765625,0.546875 z m 5.5566406,-1.484375 c 0,-1.015625 -0.7226562,-1.71875 -1.640625,-1.71875 -0.6445312,0 -1.09375,0.15625 -1.5625,0.4296875 l 0.058594,0.6445312 c 0.5273437,-0.3515625 1.015625,-0.4882812 1.5039062,-0.4882812 0.46875,0 0.8789063,0.390625 0.8789063,1.1328125 v 0.4296875 c -1.5039063,0.019531 -2.7734375,0.4296875 -2.7734375,1.3085937 0,0.42968753 0.2734375,1.25000003 1.1523437,1.25000003 0.1367188,0 1.0742188,-0.01953125 1.640625,-0.46875 v 0.3515625 H 9.111901 Z m -0.7617187,1.5625 c 0,0.1757812 0,0.42968748 -0.3515625,0.62499998 -0.2734375,0.17578125 -0.6640625,0.1953125 -0.7617188,0.1953125 -0.4882812,0 -0.9375,-0.234375 -0.9375,-0.66406248 0,-0.6835938 1.6210938,-0.7617188 2.0507813,-0.78125 z M 11.675378,-3.845638 h 1.40625 v -0.5664063 h -1.40625 v -1.2695312 h -0.683594 v 1.2695312 h -0.859375 v 0.5664063 h 0.839844 v 2.65625 c 0,0.60546873 0.136718,1.30859373 0.820312,1.30859373 0.703125,0 1.210938,-0.25390625 1.445313,-0.390625 l -0.15625,-0.5859375 c -0.253907,0.21484375 -0.566407,0.33203125 -0.898438,0.33203125 -0.371094,0 -0.507812,-0.29296875 -0.507812,-0.82031248 z m 5.820312,0.9765625 c 0,-1.015625 -0.722656,-1.71875 -1.640625,-1.71875 -0.644531,0 -1.09375,0.15625 -1.5625,0.4296875 l 0.05859,0.6445312 c 0.527344,-0.3515625 1.015625,-0.4882812 1.503906,-0.4882812 0.46875,0 0.878906,0.390625 0.878906,1.1328125 v 0.4296875 c -1.503906,0.019531 -2.773437,0.4296875 -2.773437,1.3085937 0,0.42968753 0.273437,1.25000003 1.152344,1.25000003 0.136718,0 1.074218,-0.01953125 1.640625,-0.46875 v 0.3515625 h 0.742187 z m -0.761719,1.5625 c 0,0.1757812 0,0.42968748 -0.351562,0.62499998 -0.273438,0.17578125 -0.664063,0.1953125 -0.761719,0.1953125 -0.488281,0 -0.9375,-0.234375 -0.9375,-0.66406248 0,-0.6835938 1.621094,-0.7617188 2.050781,-0.78125 z m 3.325196,-0.5664063 -1.25,1.23046878 v 0.64453125 h 3.984375 v -0.703125 h -1.816407 c -0.117187,0 -0.234375,0 -0.351562,0 h -1.09375 c 0.332031,-0.2734375 1.074219,-1.01562503 1.386719,-1.30859373 0.195312,-0.1757813 0.703125,-0.6054688 0.878906,-0.78125 0.449219,-0.4492188 0.996094,-0.9765625 0.996094,-1.8164063 0,-1.1523437 -0.800782,-2.1484375 -2.128907,-2.1484375 -1.132812,0 -1.679687,0.78125 -1.933593,1.640625 0.136718,0.1757813 0.175781,0.234375 0.195312,0.2539063 0.01953,0.019531 0.117188,0.15625 0.214844,0.2929687 0.214844,-0.7617187 0.488281,-1.5429687 1.386719,-1.5429687 0.9375,0 1.445312,0.7421875 1.445312,1.5234375 0,0.8398437 -0.566406,1.40625 -1.152344,2.0117187 z m 0,0"
         style="fill:#000000;fill-opacity:1;fill-rule:nonzero;stroke:none" />
      <path
         id="path21"
         d="m 26.543542,-0.57415365 c 0,-0.54687495 -0.15625,-1.09374995 -1.015625,-1.09374995 -0.390625,0 -0.78125,0.15625 -1.09375,0.5273437 v -0.5078125 h -0.546875 v 3.1445313 h 0.605468 v -1.6992188 c 0,-0.44921875 0.195313,-1.015625 0.722657,-1.015625 0.722656,0 0.722656,0.48828125 0.722656,0.703125 v 2.0117188 h 0.605469 z m 3.59375,1.30859375 c -0.390625,0.2734375 -0.839844,0.3710938 -1.132813,0.3710938 -0.605469,0 -1.074219,-0.4882813 -1.09375,-1.13281255 h 2.285156 c 0,-0.33203125 -0.03906,-0.80078125 -0.3125,-1.19140625 -0.234375,-0.3515625 -0.664062,-0.4882812 -0.996093,-0.4882812 -0.859375,0 -1.523438,0.74218745 -1.523438,1.64062495 0,0.87890625 0.703125,1.64062505 1.621094,1.64062505 0.410156,0 0.820312,-0.1171875 1.191406,-0.3515625 z m -2.1875,-1.19140625 c 0.175781,-0.54687495 0.585937,-0.78124995 0.9375,-0.78124995 0.292968,0 0.761718,0.1367187 0.878906,0.78124995 z m 7.412109,-1.15234375 h -0.527344 c -0.07813,0.1953125 -0.46875,1.38671875 -0.683593,2.109375 -0.05859,0.1953125 -0.117188,0.4296875 -0.136719,0.5859375 h -0.01953 c -0.03906,-0.29296875 -0.273438,-1.03515625 -0.292969,-1.09375 L 33.193933,-1.6093099 H 32.66659 c -0.214844,0.6054688 -0.742188,2.16796875 -0.78125,2.6757813 h -0.01953 c -0.05859,-0.4882813 -0.566406,-2.03125005 -0.683593,-2.3632813 -0.05859,-0.1757812 -0.05859,-0.1757812 -0.07813,-0.3125 h -0.585938 l 1.015625,3.1054688 h 0.585938 c 0.01953,-0.019531 0.195312,-0.58593755 0.449218,-1.3476563 0.09766,-0.3515625 0.3125,-1.015625 0.351563,-1.328125 0.01953,0.1367188 0.05859,0.29296875 0.117187,0.46875 0.03906,0.17578125 0.09766,0.37109375 0.136719,0.52734375 l 0.546875,1.67968755 h 0.625 z m 0,0"
         style="fill:#000000;fill-opacity:1;fill-rule:nonzero;stroke:none" />
    </g>
    <path
       id="path22"
       d="M 6.65525,-4.4185391 H 5.9286875 l -0.6445313,2.109375 C 5.1786875,-1.9576016 4.8857187,-0.96150781 4.827125,-0.53963281 H 4.8154062 C 4.78025,-0.84432031 4.5341562,-1.7349453 4.358375,-2.2974453 L 3.7138437,-4.4185391 H 3.0224375 l -0.5742188,1.8632813 c -0.1054687,0.3515625 -0.4453125,1.5 -0.4921875,2.00390624 C 1.8974375,-1.0318203 1.5693125,-2.1568203 1.4169687,-2.6958828 L 0.90134375,-4.4185391 H 0.139625 L 1.499,-5.703125e-4 H 2.295875 C 2.34275,-0.16463281 2.6943125,-1.2779141 2.90525,-2.0513516 3.045875,-2.5083828 3.327125,-3.4927578 3.3505625,-3.8677578 h 0.011719 c 0.023437,0.28125 0.1875,0.9726562 0.328125,1.3945312 L 4.416969,-5.703125e-4 h 0.8671875 z m 1.7109375,2.2851563 c 0,-0.9960938 0.7265625,-1.7109375 1.6992185,-1.734375 v -0.6679688 c -0.8906248,0.011719 -1.4296873,0.5039063 -1.7460935,0.9609375 V -4.4888516 H 7.6279062 v 4.4882812875 h 0.7382813 z m 3.5800785,0.2578125 -1.230469,1.24218749 v 0.6328124975 h 3.972656 V -0.70369531 h -1.816406 c -0.117188,0 -0.234375,0 -0.363281,0 h -1.078125 c 0.316406,-0.26953125 1.078125,-1.01953129 1.382812,-1.31249999 0.1875,-0.1757813 0.691406,-0.5976563 0.890625,-0.7734375 0.445313,-0.4453125 0.984375,-0.9726563 0.984375,-1.828125 0,-1.1367188 -0.808594,-2.1328125 -2.121094,-2.1328125 -1.136718,0 -1.699218,0.7734375 -1.933593,1.6289062 0.117187,0.1757813 0.164062,0.234375 0.1875,0.2578125 0.02344,0.023437 0.117187,0.1523438 0.222656,0.2929688 0.199219,-0.7734375 0.46875,-1.546875 1.382812,-1.546875 0.9375,0 1.441407,0.75 1.441407,1.5234375 0,0.84375 -0.5625,1.4179687 -1.160157,2.015625 z m 0,0"
       style="fill:#000000;fill-opacity:1;fill-rule:nonzero;stroke:none"
       aria-label="wr2"
       transform="matrix(1.3333333,0,0,1.3333333,36.001333,113.25467)" />
    <path
       id="path23"
       d="m 0,-63.77484 h 21.25395 l 1.77115,10.62697 h 26.56748 l 1.77114,-10.62697 h 40.73676 l 1.77115,10.62697 h 26.56747 l 1.77115,-10.62697 h 33.6521"
       style="fill:none;stroke:#000000;stroke-width:0.66414;stroke-linecap:round;stroke-linejoin:round;stroke-miterlimit:10;stroke-dasharray:none;stroke-opacity:1"
       transform="matrix(1.3333333,0,0,-1.3333333,65.704,28.222667)" />
    <path
       id="path24"
       d="M 6.6559844,-4.4188672 H 5.9294219 l -0.6445313,2.109375 C 5.1794219,-1.9579297 4.8864531,-0.96183594 4.8278594,-0.53996094 H 4.8161406 C 4.7809844,-0.84464844 4.5348906,-1.7352734 4.3591094,-2.2977734 L 3.7145781,-4.4188672 H 3.0231719 l -0.5742188,1.8632813 c -0.1054687,0.3515625 -0.4453125,1.5 -0.4921875,2.00390621 C 1.8981719,-1.0321484 1.5700469,-2.1571484 1.4177031,-2.6962109 L 0.90207812,-4.4188672 H 0.14035937 L 1.4997344,-8.984375e-4 h 0.796875 C 2.3434844,-0.16496094 2.6950469,-1.2782422 2.9059844,-2.0516797 c 0.140625,-0.4570312 0.421875,-1.4414062 0.4453125,-1.8164062 h 0.011719 c 0.023437,0.28125 0.1875,0.9726562 0.328125,1.3945312 l 0.7265625,2.4726562625 h 0.8671875 z m 1.7109375,2.2851563 c 0,-0.9960938 0.7265625,-1.7109375 1.6992191,-1.734375 v -0.6679688 c -0.8906254,0.011719 -1.4296879,0.5039063 -1.7460941,0.9609375 V -4.4891797 H 7.6286406 V -8.984375e-4 H 8.3669219 Z M 11.947,-1.8758984 10.716531,-0.63371094 v 0.6328125025 h 3.972656 V -0.70402344 h -1.816406 c -0.117187,0 -0.234375,0 -0.363281,0 h -1.078125 c 0.316406,-0.26953125 1.078125,-1.01953126 1.382812,-1.31249996 0.1875,-0.1757813 0.691407,-0.5976563 0.890625,-0.7734375 0.445313,-0.4453125 0.984375,-0.9726563 0.984375,-1.828125 0,-1.1367188 -0.808593,-2.1328125 -2.121093,-2.1328125 -1.136719,0 -1.699219,0.7734375 -1.933594,1.6289062 0.117187,0.1757813 0.164062,0.234375 0.1875,0.2578125 0.02344,0.023437 0.117187,0.1523438 0.222656,0.2929688 0.199219,-0.7734375 0.46875,-1.546875 1.382813,-1.546875 0.9375,0 1.441406,0.75 1.441406,1.5234375 0,0.84375 -0.5625,1.4179687 -1.160156,2.015625 z m 0,0"
       style="fill:#000000;fill-opacity:1;fill-rule:nonzero;stroke:none"
       aria-label="wr2"
       transform="matrix(1.3333333,0,0,1.3333333,6.5706667,141.60667)" />
    <path
       id="path25"
       d="M 0,0 H 2.989"
       style="fill:none;stroke:#000000;stroke-width:0.398;stroke-linecap:butt;stroke-linejoin:round;stroke-miterlimit:10;stroke-dasharray:none;stroke-opacity:1"
       transform="matrix(1.3333333,0,0,-1.3333333,27.625333,141.34133)" />
    <path
       id="path26"
       d="m 3.9726875,-2.8837109 c 0,-1.0078125 -0.7265625,-1.7109375 -1.640625,-1.7109375 -0.6445313,0 -1.1015625,0.1640625 -1.5703125,0.4335937 l 0.0703125,0.65625 c 0.515625,-0.375 1.0078125,-0.5039062 1.5,-0.5039062 0.46875,0 0.8671875,0.3984375 0.8671875,1.1367187 v 0.4335938 c -1.5,0.011719 -2.765625,0.4335937 -2.765625,1.3125 0,0.42187496 0.26953125,1.23046871 1.1367187,1.23046871 0.140625,0 1.078125,-0.01171875 1.6523438,-0.46875 v 0.3632812525 h 0.75 z M 3.19925,-1.3133984 c 0,0.1875 0,0.43359371 -0.3398438,0.62109371 -0.2929687,0.1875 -0.6679687,0.1875 -0.7734375,0.1875 -0.4804687,0 -0.9257812,-0.22265625 -0.9257812,-0.64453121 0,-0.6914063 1.6054687,-0.7617188 2.0390625,-0.7851563 z m 5.9121094,-5.6015625 h -0.75 v 2.9296875 c -0.5273438,-0.4335938 -1.078125,-0.5507813 -1.453125,-0.5507813 -0.984375,0 -1.7578125,1.0429688 -1.7578125,2.3203125 0,1.31250001 0.7617187,2.32031251 1.7109375,2.32031251 0.328125,0 0.9140625,-0.08203125 1.4765625,-0.62109375 v 0.5156250025 h 0.7734375 z m -0.7734375,5.53125 c 0,0.140625 -0.011719,0.3164062 -0.328125,0.60937496 -0.234375,0.19921875 -0.4804688,0.26953125 -0.7382813,0.26953125 -0.6210937,0 -1.3476562,-0.45703125 -1.3476562,-1.69921871 0,-1.3125 0.8554687,-1.7226563 1.4414062,-1.7226563 0.4453125,0 0.75,0.234375 0.9726563,0.5507813 z m 5.9208981,-5.53125 h -0.75 v 2.9296875 c -0.527343,-0.4335938 -1.078125,-0.5507813 -1.453125,-0.5507813 -0.984375,0 -1.757812,1.0429688 -1.757812,2.3203125 0,1.31250001 0.761719,2.32031251 1.710937,2.32031251 0.328125,0 0.914063,-0.08203125 1.476563,-0.62109375 v 0.5156250025 h 0.773437 z m -0.773437,5.53125 c 0,0.140625 -0.01172,0.3164062 -0.328125,0.60937496 -0.234375,0.19921875 -0.480469,0.26953125 -0.738281,0.26953125 -0.621094,0 -1.347657,-0.45703125 -1.347657,-1.69921871 0,-1.3125 0.855469,-1.7226563 1.441407,-1.7226563 0.445312,0 0.75,0.234375 0.972656,0.5507813 z m 3.155273,-0.75 c 0,-0.9960938 0.726563,-1.7109375 1.699219,-1.734375 v -0.6679688 c -0.890625,0.011719 -1.429688,0.5039063 -1.746094,0.9609375 v -0.9140625 h -0.691406 v 4.4882812625 h 0.738281 z m 0,0"
       style="fill:#000000;fill-opacity:1;fill-rule:nonzero;stroke:none"
       aria-label="addr"
       transform="matrix(1.3333333,0,0,1.3333333,31.609333,141.60667)" />
    <path
       id="path27"
       d="m 0,-74.41092 21.25395,-6.4e-4 1.77115,-5.31349 -1.77115,-5.31351 L 0,-85.03789"
       style="fill:none;stroke:#000000;stroke-width:0.66414;stroke-linecap:round;stroke-linejoin:round;stroke-miterlimit:10;stroke-dasharray:none;stroke-opacity:1"
       transform="matrix(1.3333333,0,0,-1.3333333,65.704,28.222667)" />
    <path
       id="path28"
       d="m 23.0251,-79.72377 1.77116,5.31347 24.79632,-6.2e-4 1.77114,-5.31349 -1.77114,-5.31351 -24.79632,0.0013 -1.77116,5.31347"
       style="fill:none;stroke:#000000;stroke-width:0.66414;stroke-linecap:round;stroke-linejoin:round;stroke-miterlimit:10;stroke-dasharray:none;stroke-opacity:1"
       transform="matrix(1.3333333,0,0,-1.3333333,65.704,28.222667)" />
    <path
       id="path29"
       d="m 3.9658724,-2.8729818 c 0,-1.015625 -0.7226563,-1.71875 -1.640625,-1.71875 -0.6445313,0 -1.09375,0.15625 -1.5625,0.4296875 l 0.0585938,0.6445313 c 0.5273437,-0.3515625 1.0156249,-0.4882813 1.5039062,-0.4882813 0.46875,0 0.8789062,0.390625 0.8789062,1.1328125 v 0.4296875 c -1.5039062,0.019531 -2.77343745,0.4296875 -2.77343745,1.3085938 0,0.42968748 0.2734375,1.24999998 1.15234375,1.24999998 0.1367187,0 1.0742187,-0.01953125 1.640625,-0.46875 v 0.3515625 h 0.7421875 z m -0.7617188,1.5625 c 0,0.1757813 0,0.42968753 -0.3515625,0.62500003 -0.2734375,0.17578125 -0.6640625,0.1953125 -0.7617187,0.1953125 -0.4882813,0 -0.9375,-0.234375 -0.9375,-0.66406253 0,-0.6835937 1.6210937,-0.7617187 2.0507812,-0.78125 z M 9.1025911,-6.9159505 H 8.3604036 v 2.9296875 c -0.5273437,-0.4296875 -1.09375,-0.546875 -1.4453125,-0.546875 -0.9960937,0 -1.7773437,1.0351562 -1.7773437,2.3242187 0,1.30859378 0.78125,2.32421878 1.71875,2.32421878 0.3320312,0 0.9179687,-0.09765625 1.484375,-0.64453125 v 0.52734375 h 0.7617187 z m -0.7617187,5.5273437 c 0,0.1367188 -0.019531,0.3125 -0.3320313,0.60546878 -0.234375,0.1953125 -0.4882812,0.29296875 -0.7421875,0.29296875 -0.625,0 -1.3476562,-0.46875 -1.3476562,-1.71875003 0,-1.3085937 0.859375,-1.71875 1.4453125,-1.71875 0.4492187,0 0.7421875,0.234375 0.9765625,0.546875 z m 5.9130856,-5.5273437 h -0.742187 v 2.9296875 c -0.527344,-0.4296875 -1.09375,-0.546875 -1.445313,-0.546875 -0.996093,0 -1.777343,1.0351562 -1.777343,2.3242187 0,1.30859378 0.78125,2.32421878 1.71875,2.32421878 0.332031,0 0.917968,-0.09765625 1.484375,-0.64453125 v 0.52734375 h 0.761718 z m -0.761718,5.5273437 c 0,0.1367188 -0.01953,0.3125 -0.332032,0.60546878 -0.234375,0.1953125 -0.488281,0.29296875 -0.742187,0.29296875 -0.625,0 -1.347656,-0.46875 -1.347656,-1.71875003 0,-1.3085937 0.859375,-1.71875 1.445312,-1.71875 0.449219,0 0.742188,0.234375 0.976563,0.546875 z m 3.154296,-0.7421875 c 0,-0.9960937 0.722657,-1.71875 1.699219,-1.7382812 V -4.533138 c -0.898437,0 -1.445312,0.4882812 -1.738281,0.9570312 v -0.8984375 h -0.703125 v 4.47265628 h 0.742187 z m 4.809571,-4.6289062 h -0.195313 c -0.585937,0.6054687 -1.40625,0.6445312 -1.894531,0.6640625 v 0.5664062 c 0.332031,0 0.820313,-0.019531 1.308594,-0.234375 v 5.17578128 h -1.25 v 0.5859375 h 3.28125 v -0.5859375 h -1.25 z m 0,0"
       style="fill:#000000;fill-opacity:1;fill-rule:nonzero;stroke:none"
       aria-label="addr1"
       transform="matrix(0.8,0,0,0.8,105.90933,137.28667)" />
    <path
       id="path30"
       d="m 51.36372,-79.72313 1.77115,5.31348 38.96563,-6.5e-4 1.77114,-5.31347 -1.77114,-5.31351 -38.96563,0.0013 -1.77115,5.31346"
       style="fill:none;stroke:#000000;stroke-width:0.66414;stroke-linecap:round;stroke-linejoin:round;stroke-miterlimit:10;stroke-dasharray:none;stroke-opacity:1"
       transform="matrix(1.3333333,0,0,-1.3333333,65.704,28.222667)" />
    <path
       id="path31"
       d="m 93.87164,-79.7225 1.77115,5.31349 24.79633,-6.4e-4 1.77115,-5.31348 -1.77115,-5.31351 -24.79633,0.0013 -1.77115,5.31346"
       style="fill:none;stroke:#000000;stroke-width:0.66414;stroke-linecap:round;stroke-linejoin:round;stroke-miterlimit:10;stroke-dasharray:none;stroke-opacity:1"
       transform="matrix(1.3333333,0,0,-1.3333333,65.704,28.222667)" />
    <path
       id="path32"
       d="m 3.9670443,-2.8713151 c 0,-1.015625 -0.7226563,-1.71875 -1.640625,-1.71875 -0.6445313,0 -1.09375,0.15625 -1.56250003,0.4296875 l 0.0585938,0.6445312 C 1.3498568,-3.8674089 1.838138,-4.0041276 2.3264193,-4.0041276 c 0.46875,0 0.8789062,0.390625 0.8789062,1.1328125 v 0.4296875 c -1.5039062,0.019531 -2.77343748,0.4296875 -2.77343748,1.3085937 0,0.42968755 0.2734375,1.25000005 1.15234378,1.25000005 0.1367187,0 1.0742187,-0.01953125 1.640625,-0.46875 v 0.35156249583 h 0.7421875 z m -0.7617188,1.5625 c 0,0.1757812 0,0.4296875 -0.3515625,0.625 -0.2734375,0.17578125 -0.6640625,0.1953125 -0.7617187,0.1953125 -0.4882813,0 -0.9375,-0.234375 -0.9375,-0.6640625 0,-0.6835938 1.6210937,-0.7617188 2.0507812,-0.78125 z M 9.103763,-6.9142839 H 8.3615755 v 2.9296875 c -0.5273437,-0.4296875 -1.09375,-0.546875 -1.4453125,-0.546875 -0.9960937,0 -1.7773437,1.0351563 -1.7773437,2.3242188 0,1.30859375 0.78125,2.32421875 1.71875,2.32421875 0.3320312,0 0.9179687,-0.09765625 1.484375,-0.64453125 V -2.2135417e-4 H 9.103763 Z m -0.7617187,5.5273438 c 0,0.1367187 -0.019531,0.3125 -0.3320313,0.60546875 -0.234375,0.1953125 -0.4882812,0.29296875 -0.7421875,0.29296875 -0.625,0 -1.3476562,-0.46875 -1.3476562,-1.71875 0,-1.3085938 0.859375,-1.71875 1.4453125,-1.71875 0.4492187,0 0.7421875,0.234375 0.9765625,0.546875 z M 14.250247,-6.9142839 H 13.50806 v 2.9296875 c -0.527344,-0.4296875 -1.09375,-0.546875 -1.445313,-0.546875 -0.996093,0 -1.777343,1.0351563 -1.777343,2.3242188 0,1.30859375 0.78125,2.32421875 1.71875,2.32421875 0.332031,0 0.917968,-0.09765625 1.484375,-0.64453125 v 0.52734374583 h 0.761718 z m -0.761718,5.5273438 c 0,0.1367187 -0.01953,0.3125 -0.332032,0.60546875 -0.234375,0.1953125 -0.488281,0.29296875 -0.742187,0.29296875 -0.625,0 -1.347656,-0.46875 -1.347656,-1.71875 0,-1.3085938 0.859375,-1.71875 1.445312,-1.71875 0.449219,0 0.742188,0.234375 0.976563,0.546875 z m 3.159179,-0.7421875 c 0,-0.9960938 0.722657,-1.71875 1.699219,-1.7382813 v -0.6640625 c -0.898437,0 -1.445312,0.4882813 -1.738281,0.9570313 v -0.8984375 h -0.703125 v 4.47265624583 h 0.742187 z m 3.579102,0.2539062 -1.25,1.2304688 v 0.64453124583 h 3.984375 V -0.70334635 h -1.816406 c -0.117188,0 -0.234375,0 -0.351563,0 h -1.09375 c 0.332031,-0.2734375 1.074219,-1.01562505 1.386719,-1.30859375 0.195312,-0.1757813 0.703125,-0.6054688 0.878906,-0.78125 0.449219,-0.4492188 0.996094,-0.9765625 0.996094,-1.8164063 0,-1.1523437 -0.800781,-2.1484375 -2.128906,-2.1484375 -1.132813,0 -1.679688,0.78125 -1.933594,1.640625 0.136719,0.1757813 0.175781,0.234375 0.195312,0.2539063 0.01953,0.019531 0.117188,0.15625 0.214844,0.2929687 0.214844,-0.7617187 0.488281,-1.5429687 1.386719,-1.5429687 0.9375,0 1.445312,0.7421875 1.445312,1.5234375 0,0.8398437 -0.566406,1.40625 -1.152343,2.0117187 z m 0,0"
       style="fill:#000000;fill-opacity:1;fill-rule:nonzero;stroke:none"
       aria-label="addr2"
       transform="matrix(0.8,0,0,0.8,200.36933,137.28533)" />
    <path
       id="path33"
       d="m 122.21027,-79.72122 1.77114,5.31349 31.88097,-0.0013 m 0,-10.62699 -31.88097,0.0013 -1.77114,5.31346"
       style="fill:none;stroke:#000000;stroke-width:0.66414;stroke-linecap:round;stroke-linejoin:round;stroke-miterlimit:10;stroke-dasharray:none;stroke-opacity:1"
       transform="matrix(1.3333333,0,0,-1.3333333,65.704,28.222667)" />
    <path
       id="path34"
       d="M 6.6569766,-4.4192656 H 5.9304141 l -0.6445313,2.109375 C 5.1804141,-1.9583281 4.8874453,-0.96223438 4.8288516,-0.54035938 H 4.8171328 C 4.7819766,-0.84504688 4.5358828,-1.7356719 4.3601016,-2.2981719 L 3.7155703,-4.4192656 H 3.0241641 l -0.5742188,1.8632812 c -0.1054687,0.3515625 -0.4453125,1.5 -0.4921875,2.00390627 C 1.8991641,-1.0325469 1.5710391,-2.1575469 1.4186953,-2.6966094 L 0.90307031,-4.4192656 H 0.14135156 l 1.35937504,4.41796872 h 0.796875 c 0.046875,-0.1640625 0.3984375,-1.27734372 0.609375,-2.05078122 0.140625,-0.4570313 0.421875,-1.4414063 0.4453125,-1.8164063 h 0.011719 c 0.023437,0.28125 0.1875,0.9726563 0.328125,1.3945313 l 0.7265625,2.47265622 h 0.8671875 z m 1.7080078,2.2851562 c 0,-0.9960937 0.7265625,-1.7109375 1.6992186,-1.734375 v -0.6679687 c -0.8906249,0.011719 -1.4296874,0.5039062 -1.7460936,0.9609375 V -4.4895781 H 7.6267031 v 4.48828122 h 0.7382813 z m 3.5800776,0.2578125 -1.230468,1.24218752 v 0.6328125 h 3.972656 v -0.703125 h -1.816406 c -0.117188,0 -0.234375,0 -0.363282,0 h -1.078125 c 0.316407,-0.26953125 1.078125,-1.01953122 1.382813,-1.31250002 0.1875,-0.1757812 0.691406,-0.5976562 0.890625,-0.7734375 0.445312,-0.4453125 0.984375,-0.9726562 0.984375,-1.828125 0,-1.1367187 -0.808594,-2.1328125 -2.121094,-2.1328125 -1.136719,0 -1.699219,0.7734375 -1.933594,1.6289063 0.117188,0.1757812 0.164063,0.234375 0.1875,0.2578125 0.02344,0.023437 0.117188,0.1523437 0.222657,0.2929687 0.199218,-0.7734375 0.46875,-1.546875 1.382812,-1.546875 0.9375,0 1.441406,0.75 1.441406,1.5234375 0,0.84375 -0.5625,1.4179688 -1.160156,2.015625 z m 0,0"
       style="fill:#000000;fill-opacity:1;fill-rule:nonzero;stroke:none"
       aria-label="wr2"
       transform="matrix(1.3333333,0,0,1.3333333,6.792,169.96267)" />
    <path
       id="path35"
       d="M 0,0 H 2.989"
       style="fill:none;stroke:#000000;stroke-width:0.398;stroke-linecap:butt;stroke-linejoin:round;stroke-miterlimit:10;stroke-dasharray:none;stroke-opacity:1"
       transform="matrix(1.3333333,0,0,-1.3333333,27.846667,169.69733)" />
    <path
       id="path36"
       d="m 4.3252422,-6.9153594 h -0.75 v 2.9296875 c -0.5273438,-0.4335937 -1.078125,-0.5507812 -1.453125,-0.5507812 -0.984375,0 -1.75781251,1.0429687 -1.75781251,2.3203125 0,1.31249997 0.76171871,2.32031247 1.71093751,2.32031247 0.328125,0 0.9140625,-0.08203125 1.4765625,-0.62109375 v 0.515625 h 0.7734375 z m -0.7734375,5.53125 c 0,0.140625 -0.011719,0.3164063 -0.328125,0.60937502 -0.234375,0.19921875 -0.4804688,0.26953125 -0.7382813,0.26953125 -0.6210937,0 -1.3476562,-0.45703125 -1.3476562,-1.69921877 0,-1.3125 0.8554687,-1.7226562 1.4414062,-1.7226562 0.4453125,0 0.75,0.234375 0.9726563,0.5507812 z m 5.5693359,-1.5 c 0,-1.0078125 -0.7265625,-1.7109375 -1.640625,-1.7109375 -0.6445312,0 -1.1015625,0.1640625 -1.5703125,0.4335938 l 0.070312,0.65625 c 0.515625,-0.375 1.0078125,-0.5039063 1.5,-0.5039063 0.46875,0 0.8671875,0.3984375 0.8671875,1.1367188 v 0.4335937 c -1.5,0.011719 -2.765625,0.4335938 -2.765625,1.3125 0,0.42187502 0.2695313,1.23046877 1.1367188,1.23046877 0.140625,0 1.078125,-0.01171875 1.6523437,-0.46875 v 0.36328125 h 0.75 z m -0.7734375,1.5703125 c 0,0.1875 0,0.43359377 -0.3398437,0.62109377 -0.2929688,0.1875 -0.6679688,0.1875 -0.7734375,0.1875 -0.4804688,0 -0.9257813,-0.22265625 -0.9257813,-0.64453127 0,-0.6914062 1.6054688,-0.7617187 2.0390625,-0.7851562 z m 3.3339839,-2.53125 h 1.40625 v -0.5742187 h -1.40625 v -1.265625 h -0.691406 v 1.265625 h -0.867187 v 0.5742187 h 0.84375 v 2.6601563 c 0,0.59765622 0.128906,1.28906247 0.820312,1.28906247 0.703125,0 1.207031,-0.24609375 1.453125,-0.375 l -0.152344,-0.5859375 c -0.257812,0.2109375 -0.585937,0.328125 -0.902343,0.328125 -0.363282,0 -0.503907,-0.3046875 -0.503907,-0.83203127 z m 5.824219,0.9609375 c 0,-1.0078125 -0.726562,-1.7109375 -1.640625,-1.7109375 -0.644531,0 -1.101562,0.1640625 -1.570312,0.4335938 l 0.07031,0.65625 c 0.515625,-0.375 1.007813,-0.5039063 1.5,-0.5039063 0.46875,0 0.867188,0.3984375 0.867188,1.1367188 v 0.4335937 c -1.5,0.011719 -2.765625,0.4335938 -2.765625,1.3125 0,0.42187502 0.269531,1.23046877 1.136718,1.23046877 0.140625,0 1.078125,-0.01171875 1.652344,-0.46875 v 0.36328125 h 0.75 z m -0.773437,1.5703125 c 0,0.1875 0,0.43359377 -0.339844,0.62109377 -0.292969,0.1875 -0.667969,0.1875 -0.773438,0.1875 -0.480468,0 -0.925781,-0.22265625 -0.925781,-0.64453127 0,-0.6914062 1.605469,-0.7617187 2.039063,-0.7851562 z m 0,0"
       style="fill:#000000;fill-opacity:1;fill-rule:nonzero;stroke:none"
       aria-label="data"
       transform="matrix(1.3333333,0,0,1.3333333,31.830667,169.96267)" />
    <path
       id="path37"
       d="m 0,-95.67784 21.25395,-6.4e-4 1.77115,-5.31348 -1.77115,-5.31351 L 0,-106.3048"
       style="fill:none;stroke:#000000;stroke-width:0.66414;stroke-linecap:round;stroke-linejoin:round;stroke-miterlimit:10;stroke-dasharray:none;stroke-opacity:1"
       transform="matrix(1.3333333,0,0,-1.3333333,65.704,28.222667)" />
    <path
       id="path38"
       d="m 23.0251,-100.99069 1.77116,5.31349 24.79632,-6.4e-4 1.77114,-5.31349 -1.77114,-5.31349 -24.79632,0.001 -1.77116,5.31348"
       style="fill:none;stroke:#000000;stroke-width:0.66414;stroke-linecap:round;stroke-linejoin:round;stroke-miterlimit:10;stroke-dasharray:none;stroke-opacity:1"
       transform="matrix(1.3333333,0,0,-1.3333333,65.704,28.222667)" />
    <path
       id="path39"
       d="M 4.3171094,-6.9117318 H 3.5749219 v 2.9296875 c -0.5273438,-0.4296875 -1.09375,-0.546875 -1.4453125,-0.546875 -0.9960938,0 -1.77734377,1.0351563 -1.77734377,2.3242188 0,1.30859373 0.78124997,2.32421873 1.71874997,2.32421873 0.3320313,0 0.9179688,-0.09765625 1.484375,-0.64453125 V 0.00233073 H 4.3171094 Z M 3.5553906,-1.384388 c 0,0.1367187 -0.019531,0.3125 -0.3320312,0.60546873 -0.234375,0.1953125 -0.4882813,0.29296875 -0.7421875,0.29296875 -0.625,0 -1.3476563,-0.46875 -1.3476563,-1.71874998 0,-1.3085938 0.859375,-1.71875 1.4453125,-1.71875 0.4492188,0 0.7421875,0.234375 0.9765625,0.546875 z m 5.5566407,-1.484375 c 0,-1.015625 -0.7226563,-1.71875 -1.640625,-1.71875 -0.6445313,0 -1.09375,0.15625 -1.5625,0.4296875 L 5.9675,-3.5132943 c 0.5273438,-0.3515625 1.015625,-0.4882812 1.5039063,-0.4882812 0.46875,0 0.8789062,0.390625 0.8789062,1.1328125 v 0.4296875 c -1.5039062,0.019531 -2.7734375,0.4296875 -2.7734375,1.3085937 0,0.42968753 0.2734375,1.25000003 1.1523438,1.25000003 0.1367187,0 1.0742187,-0.01953125 1.640625,-0.46875 v 0.3515625 h 0.7421875 z m -0.7617188,1.5625 c 0,0.1757812 0,0.42968748 -0.3515625,0.62499998 -0.2734375,0.17578125 -0.6640625,0.1953125 -0.7617187,0.1953125 -0.4882813,0 -0.9375,-0.234375 -0.9375,-0.66406248 0,-0.6835938 1.6210937,-0.7617188 2.0507812,-0.78125 z m 3.3251955,-2.5390625 h 1.40625 v -0.5664063 h -1.40625 V -5.681263 h -0.683594 v 1.2695312 h -0.859375 v 0.5664063 h 0.839844 v 2.65625 c 0,0.60546873 0.136719,1.30859373 0.820312,1.30859373 0.703125,0 1.210938,-0.25390625 1.445313,-0.390625 l -0.15625,-0.5859375 c -0.253906,0.21484375 -0.566406,0.33203125 -0.898438,0.33203125 -0.371093,0 -0.507812,-0.29296875 -0.507812,-0.82031248 z m 5.820312,0.9765625 c 0,-1.015625 -0.722656,-1.71875 -1.640625,-1.71875 -0.644531,0 -1.09375,0.15625 -1.5625,0.4296875 l 0.05859,0.6445312 c 0.527344,-0.3515625 1.015625,-0.4882812 1.503906,-0.4882812 0.46875,0 0.878907,0.390625 0.878907,1.1328125 v 0.4296875 c -1.503907,0.019531 -2.773438,0.4296875 -2.773438,1.3085937 0,0.42968753 0.273438,1.25000003 1.152344,1.25000003 0.136719,0 1.074219,-0.01953125 1.640625,-0.46875 v 0.3515625 h 0.742187 z m -0.761718,1.5625 c 0,0.1757812 0,0.42968748 -0.351563,0.62499998 -0.273437,0.17578125 -0.664062,0.1953125 -0.761719,0.1953125 -0.488281,0 -0.9375,-0.234375 -0.9375,-0.66406248 0,-0.6835938 1.621094,-0.7617188 2.050782,-0.78125 z m 4.555664,-5.4492188 h -0.195313 c -0.585937,0.6054688 -1.40625,0.6445313 -1.894531,0.6640625 v 0.5664063 c 0.332031,0 0.820312,-0.019531 1.308594,-0.234375 v 5.17578123 h -1.25 v 0.5859375 h 3.28125 v -0.5859375 h -1.25 z m 0,0"
       style="fill:#000000;fill-opacity:1;fill-rule:nonzero;stroke:none"
       aria-label="data1"
       transform="matrix(0.8,0,0,0.8,105.976,165.64267)" />
    <path
       id="path40"
       d="m 51.36372,-100.99005 1.77115,5.31349 38.96563,-6.4e-4 1.77114,-5.31349 -1.77114,-5.31349 -38.96563,0.001 -1.77115,5.31348"
       style="fill:none;stroke:#000000;stroke-width:0.66414;stroke-linecap:round;stroke-linejoin:round;stroke-miterlimit:10;stroke-dasharray:none;stroke-opacity:1"
       transform="matrix(1.3333333,0,0,-1.3333333,65.704,28.222667)" />
    <path
       id="path41"
       d="m 93.87164,-100.98941 1.77115,5.31349 24.79633,-6.4e-4 1.77115,-5.31349 -1.77115,-5.31349 -24.79633,0.001 -1.77115,5.31348"
       style="fill:none;stroke:#000000;stroke-width:0.66414;stroke-linecap:round;stroke-linejoin:round;stroke-miterlimit:10;stroke-dasharray:none;stroke-opacity:1"
       transform="matrix(1.3333333,0,0,-1.3333333,65.704,28.222667)" />
    <g
       id="g41"
       aria-label="data2&#10;new"
       transform="matrix(0.8,0,0,0.8,195.36533,165.04267)">
      <path
         id="path42"
         d="M 4.318724,-6.9136849 H 3.5765365 v 2.9296875 c -0.5273438,-0.4296875 -1.09375,-0.546875 -1.4453125,-0.546875 -0.9960938,0 -1.77734379,1.0351563 -1.77734379,2.3242188 0,1.3085937 0.78124999,2.3242187 1.71874999,2.3242187 0.3320313,0 0.9179688,-0.09765625 1.484375,-0.64453125 V 3.7760417e-4 H 4.318724 Z m -0.7617188,5.5273438 c 0,0.1367187 -0.019531,0.3125 -0.3320312,0.6054687 -0.234375,0.1953125 -0.4882813,0.29296875 -0.7421875,0.29296875 -0.625,0 -1.3476563,-0.46875 -1.3476563,-1.71874995 0,-1.3085938 0.859375,-1.71875 1.4453125,-1.71875 0.4492188,0 0.7421875,0.234375 0.9765625,0.546875 z m 5.5566406,-1.484375 c 0,-1.015625 -0.7226562,-1.71875 -1.640625,-1.71875 -0.6445312,0 -1.09375,0.15625 -1.5625,0.4296875 l 0.058594,0.6445312 c 0.5273437,-0.3515625 1.015625,-0.4882812 1.5039062,-0.4882812 0.46875,0 0.8789063,0.390625 0.8789063,1.1328125 v 0.4296875 c -1.5039063,0.019531 -2.7734375,0.4296875 -2.7734375,1.3085937 0,0.4296875 0.2734375,1.25 1.1523437,1.25 0.1367188,0 1.0742188,-0.01953125 1.640625,-0.46875 V 3.7760417e-4 H 9.113646 Z m -0.7617187,1.5625 c 0,0.1757812 0,0.42968745 -0.3515625,0.62499995 -0.2734375,0.17578125 -0.6640625,0.1953125 -0.7617188,0.1953125 -0.4882812,0 -0.9375,-0.234375 -0.9375,-0.66406245 0,-0.6835938 1.6210938,-0.7617188 2.0507813,-0.78125 z M 11.67224,-3.8472786 h 1.40625 v -0.5664063 h -1.40625 v -1.2695312 h -0.683594 v 1.2695312 h -0.859375 v 0.5664063 h 0.839844 v 2.65625 c 0,0.6054687 0.136718,1.3085937 0.820312,1.3085937 0.703125,0 1.210938,-0.25390625 1.445313,-0.390625 l -0.15625,-0.5859375 c -0.253907,0.21484375 -0.566407,0.33203125 -0.898438,0.33203125 -0.371094,0 -0.507812,-0.29296875 -0.507812,-0.82031245 z m 5.825195,0.9765625 c 0,-1.015625 -0.722656,-1.71875 -1.640625,-1.71875 -0.644531,0 -1.09375,0.15625 -1.5625,0.4296875 l 0.05859,0.6445312 c 0.527343,-0.3515625 1.015625,-0.4882812 1.503906,-0.4882812 0.46875,0 0.878906,0.390625 0.878906,1.1328125 v 0.4296875 c -1.503906,0.019531 -2.773437,0.4296875 -2.773437,1.3085937 0,0.4296875 0.273437,1.25 1.152343,1.25 0.136719,0 1.074219,-0.01953125 1.640625,-0.46875 V 3.7760417e-4 h 0.742188 z m -0.761719,1.5625 c 0,0.1757812 0,0.42968745 -0.351562,0.62499995 -0.273438,0.17578125 -0.664063,0.1953125 -0.761719,0.1953125 -0.488281,0 -0.9375,-0.234375 -0.9375,-0.66406245 0,-0.6835938 1.621094,-0.7617188 2.050781,-0.78125 z m 3.325195,-0.5664063 -1.25,1.23046875 V 3.7760417e-4 h 3.984375 V -0.7027474 H 20.97888 c -0.117187,0 -0.234375,0 -0.351562,0 h -1.09375 c 0.332031,-0.2734375 1.074218,-1.015625 1.386718,-1.3085937 0.195313,-0.1757813 0.703125,-0.6054688 0.878907,-0.78125 0.449218,-0.4492188 0.996093,-0.9765625 0.996093,-1.8164063 0,-1.1523437 -0.800781,-2.1484375 -2.128906,-2.1484375 -1.132812,0 -1.679687,0.78125 -1.933594,1.640625 0.136719,0.1757813 0.175782,0.234375 0.195313,0.2539063 0.01953,0.019531 0.117187,0.15625 0.214844,0.2929687 0.214843,-0.7617187 0.488281,-1.5429687 1.386718,-1.5429687 0.9375,0 1.445313,0.7421875 1.445313,1.5234375 0,0.8398437 -0.566406,1.40625 -1.152344,2.0117187 z m 0,0"
         style="fill:#000000;fill-opacity:1;fill-rule:nonzero;stroke:none" />
      <path
         id="path43"
         d="m 26.545286,-0.57579427 c 0,-0.54687503 -0.15625,-1.09375003 -1.015625,-1.09375003 -0.390625,0 -0.78125,0.15625 -1.09375,0.5273438 V -1.650013 h -0.546875 v 3.1445312 h 0.605469 v -1.69921872 c 0,-0.44921875 0.195313,-1.01562498 0.722656,-1.01562498 0.722657,0 0.722657,0.48828123 0.722657,0.70312498 V 1.4945182 h 0.605468 z m 3.588868,1.30859375 C 29.743529,1.006237 29.29431,1.1038932 29.001341,1.1038932 c -0.605469,0 -1.074219,-0.48828122 -1.09375,-1.13281247 h 2.285156 c 0,-0.33203125 -0.03906,-0.80078125 -0.3125,-1.19140623 -0.234375,-0.3515625 -0.664062,-0.4882813 -0.996093,-0.4882813 -0.859375,0 -1.523438,0.74218753 -1.523438,1.64062503 0,0.87890625 0.703125,1.64062497 1.621094,1.64062497 0.410156,0 0.820312,-0.1171875 1.191406,-0.3515625 z m -2.1875,-1.19140625 c 0.175781,-0.54687503 0.585937,-0.78125003 0.9375,-0.78125003 0.292968,0 0.761718,0.1367188 0.878906,0.78125003 z m 7.416992,-1.15234373 h -0.527344 c -0.07813,0.1953125 -0.46875,1.38671873 -0.683594,2.10937498 -0.05859,0.1953125 -0.117187,0.4296875 -0.136718,0.58593752 H 33.99646 C 33.957396,0.79139323 33.723021,0.04920573 33.70349,-0.00938802 L 33.195677,-1.6109505 h -0.527344 c -0.214843,0.6054687 -0.742187,2.16796873 -0.78125,2.6757812 h -0.01953 c -0.05859,-0.48828122 -0.566406,-2.03124997 -0.683594,-2.3632812 -0.05859,-0.1757813 -0.05859,-0.1757813 -0.07813,-0.3125 h -0.585937 l 1.015625,3.1054687 h 0.585937 c 0.01953,-0.019531 0.195313,-0.58593747 0.449219,-1.34765622 0.09766,-0.3515625 0.3125,-1.015625 0.351563,-1.32812498 0.01953,0.1367187 0.05859,0.29296873 0.117187,0.46874998 0.03906,0.17578125 0.09766,0.37109375 0.136719,0.52734375 l 0.546875,1.67968747 h 0.625 z m 0,0"
         style="fill:#000000;fill-opacity:1;fill-rule:nonzero;stroke:none" />
    </g>
    <path
       id="path44"
       d="m 122.21027,-100.98813 1.77114,5.31348 31.88097,-0.0013 m 0,-10.627 -31.88097,10e-4 -1.77114,5.31347"
       style="fill:none;stroke:#000000;stroke-width:0.66414;stroke-linecap:round;stroke-linejoin:round;stroke-miterlimit:10;stroke-dasharray:none;stroke-opacity:1"
       transform="matrix(1.3333333,0,0,-1.3333333,65.704,28.222667)" />
    <path
       id="path45"
       d="m 14.1693,15.94044 v -127.5989 m 28.33862,127.5989 v -127.5989 m 28.33861,127.5989 v -127.5989 m 28.33862,127.5989 v -127.5989 m 28.33861,127.5989 v -127.5989"
       style="fill:none;stroke:#808080;stroke-width:0.59776;stroke-linecap:round;stroke-linejoin:round;stroke-miterlimit:10;stroke-dasharray:none;stroke-opacity:0.5"
       transform="matrix(1.3333333,0,0,-1.3333333,65.704,28.222667)" />
    <path
       id="path46"
       d="m 42.50792,15.94044 v -127.5989 m 56.67723,127.5989 v -127.5989"
       style="fill:none;stroke:#ff0000;stroke-width:0.49815;stroke-linecap:round;stroke-linejoin:round;stroke-miterlimit:10;stroke-dasharray:2.98883, 2.98883;stroke-dashoffset:0;stroke-opacity:0.75"
       transform="matrix(1.3333333,0,0,-1.3333333,65.704,28.222667)" />
  </g>
</svg>
