<?xml version="1.0" encoding="UTF-8" standalone="no"?>
<!-- Created with Inkscape (http://www.inkscape.org/) -->

<svg
   version="1.1"
   id="svg1"
   width="277.87466"
   height="127.33867"
   viewBox="0 0 277.87466 127.33867"
   sodipodi:docname="main.pdf"
   xmlns:inkscape="http://www.inkscape.org/namespaces/inkscape"
   xmlns:sodipodi="http://sodipodi.sourceforge.net/DTD/sodipodi-0.dtd"
   xmlns="http://www.w3.org/2000/svg"
   xmlns:svg="http://www.w3.org/2000/svg">
  <defs
     id="defs1" />
  <sodipodi:namedview
     id="namedview1"
     pagecolor="#ffffff"
     bordercolor="#000000"
     borderopacity="0.25"
     inkscape:showpageshadow="2"
     inkscape:pageopacity="0.0"
     inkscape:pagecheckerboard="0"
     inkscape:deskcolor="#d1d1d1">
    <inkscape:page
       x="0"
       y="0"
       inkscape:label="1"
       id="page1"
       width="277.87466"
       height="127.33867"
       margin="0"
       bleed="0" />
  </sodipodi:namedview>
  <g
     id="g1"
     inkscape:groupmode="layer"
     inkscape:label="1">
    <path
       id="path1"
       d="M 0,0 H 208.406 V 95.504 H 0 Z"
       style="fill:#ffffff;fill-opacity:1;fill-rule:nonzero;stroke:none"
       transform="matrix(1.3333333,0,0,-1.3333333,0,127.33867)" />
    <path
       id="path2"
       d="M -47.11847,-73.83847 V 20.66724 H 160.29028 V -73.83847 Z"
       style="fill:#ffffff;fill-opacity:1;fill-rule:nonzero;stroke:none"
       transform="matrix(1.3333333,0,0,-1.3333333,63.490667,28.221333)" />
    <path
       id="path3"
       d="m 4.0893359,-4.1600938 c -0.5976562,-0.3398437 -0.9375,-0.4335937 -1.5351562,-0.4335937 -1.3945313,0 -2.19140626,1.2070312 -2.19140626,2.3789062 0,1.24218755 0.90234376,2.32031255 2.14453126,2.32031255 0.5390625,0 1.0898437,-0.140625 1.6289062,-0.50390625 l -0.058594,-0.6679688 c -0.515625,0.39843755 -1.0546875,0.53906255 -1.5585938,0.53906255 -0.8203125,0 -1.3828125,-0.71484375 -1.3828125,-1.69921875 0,-0.7734375 0.3632813,-1.7226563 1.4179688,-1.7226563 0.5273437,0 0.8671875,0.070312 1.40625,0.4335938 z M 5.9848437,-6.914 h -0.75 V 6.25e-5 h 0.75 z m 3.6240235,4.2070312 1.6757808,-1.7109375 h -0.902343 l -2.0156253,2.0625 V -6.914 H 7.6401172 V 6.25e-5 h 0.6914062 v -1.40625 L 9.1283984,-2.2265 10.686992,6.25e-5 h 0.808594 z m 0,0"
       style="fill:#000000;fill-opacity:1;fill-rule:nonzero;stroke:none"
       aria-label="clk"
       transform="matrix(1.3333333,0,0,1.3333333,38.473333,28.218667)" />
    <path
       id="path4"
       d="M 0,0.00255 H 14.1693 V 10.62952 H 28.33861 V 0.00255 H 42.50792 V 10.62952 H 56.67723 V 0.00255 h 14.1693 V 10.62952 H 85.01584 V 0.00255 h 14.16931 v 10.62697 h 14.16931 V 0.00255 h 14.1693 v 10.62697 h 14.16931 V 0.00255 h 14.16931"
       style="fill:none;stroke:#000000;stroke-width:0.66414;stroke-linecap:round;stroke-linejoin:round;stroke-miterlimit:10;stroke-dasharray:none;stroke-opacity:1"
       transform="matrix(1.3333333,0,0,-1.3333333,63.490667,28.221333)" />
    <path
       id="path5"
       d="m 1.5583281,-2.1338672 c 0,-0.9960937 0.7265625,-1.7109375 1.6992188,-1.734375 v -0.6679687 c -0.890625,0.011719 -1.4296875,0.5039062 -1.7460938,0.9609375 V -4.4893359 H 0.82004687 v 4.48828121 H 1.5583281 Z m 6.1699219,-4.78125 h -0.75 v 2.9296875 C 6.4509062,-4.4190234 5.900125,-4.5362109 5.525125,-4.5362109 c -0.984375,0 -1.7578125,1.0429687 -1.7578125,2.3203125 0,1.31249996 0.7617187,2.32031246 1.7109375,2.32031246 0.328125,0 0.9140625,-0.08203125 1.4765625,-0.62109375 v 0.515625 H 7.72825 Z m -0.7734375,5.53125 c 0,0.140625 -0.011719,0.3164063 -0.328125,0.60937501 -0.234375,0.19921875 -0.4804688,0.26953125 -0.7382813,0.26953125 -0.6210937,0 -1.3476562,-0.45703125 -1.3476562,-1.69921876 0,-1.3125 0.8554687,-1.7226562 1.4414062,-1.7226562 0.4453125,0 0.75,0.234375 0.9726563,0.5507812 z m 4.5732425,-5.3671875 h -0.199219 c -0.585938,0.609375 -1.4179688,0.6328125 -1.8867188,0.65625 v 0.5742188 c 0.328125,-0.011719 0.8085938,-0.023437 1.3007808,-0.234375 v 5.17968746 H 9.5007109 v 0.57421875 h 3.2695311 v -0.57421875 h -1.242187 z m 0,0"
       style="fill:#000000;fill-opacity:1;fill-rule:nonzero;stroke:none"
       aria-label="rd1"
       transform="matrix(1.3333333,0,0,1.3333333,6.5706667,56.56)" />
    <path
       id="path6"
       d="M 0,0 H 2.989"
       style="fill:none;stroke:#000000;stroke-width:0.398;stroke-linecap:butt;stroke-linejoin:round;stroke-miterlimit:10;stroke-dasharray:none;stroke-opacity:1"
       transform="matrix(1.3333333,0,0,-1.3333333,25.410667,56.294667)" />
    <path
       id="path7"
       d="m 3.9715547,-2.8838672 c 0,-1.0078125 -0.7265625,-1.7109375 -1.640625,-1.7109375 -0.6445313,0 -1.1015625,0.1640625 -1.57031251,0.4335938 l 0.0703125,0.65625 c 0.51562501,-0.375 1.00781251,-0.5039063 1.50000001,-0.5039063 0.46875,0 0.8671875,0.3984375 0.8671875,1.1367188 v 0.4335937 c -1.5,0.011719 -2.76562501,0.4335938 -2.76562501,1.3125 0,0.42187501 0.26953125,1.23046876 1.13671871,1.23046876 0.140625,0 1.078125,-0.01171875 1.6523438,-0.46875 v 0.36328125 h 0.75 z m -0.7734375,1.5703125 c 0,0.1875 0,0.43359376 -0.3398438,0.62109376 -0.2929687,0.1875 -0.6679687,0.1875 -0.7734375,0.1875 -0.4804687,0 -0.9257812,-0.22265625 -0.9257812,-0.64453126 0,-0.6914062 1.6054687,-0.7617187 2.0390625,-0.7851562 z m 5.915039,-5.6015625 h -0.75 v 2.9296875 c -0.5273437,-0.4335937 -1.078125,-0.5507812 -1.453125,-0.5507812 -0.984375,0 -1.7578125,1.0429687 -1.7578125,2.3203125 0,1.31249996 0.7617188,2.32031246 1.7109375,2.32031246 0.328125,0 0.9140625,-0.08203125 1.4765625,-0.62109375 v 0.515625 h 0.7734375 z m -0.7734375,5.53125 c 0,0.140625 -0.011719,0.3164063 -0.328125,0.60937501 -0.234375,0.19921875 -0.4804687,0.26953125 -0.7382812,0.26953125 -0.6210938,0 -1.3476563,-0.45703125 -1.3476563,-1.69921876 0,-1.3125 0.8554688,-1.7226562 1.4414063,-1.7226562 0.4453125,0 0.75,0.234375 0.9726562,0.5507812 z m 5.9208983,-5.53125 h -0.75 v 2.9296875 c -0.527344,-0.4335937 -1.078125,-0.5507812 -1.453125,-0.5507812 -0.984375,0 -1.757812,1.0429687 -1.757812,2.3203125 0,1.31249996 0.761718,2.32031246 1.710937,2.32031246 0.328125,0 0.914063,-0.08203125 1.476563,-0.62109375 v 0.515625 h 0.773437 z m -0.773437,5.53125 c 0,0.140625 -0.01172,0.3164063 -0.328125,0.60937501 -0.234375,0.19921875 -0.480469,0.26953125 -0.738282,0.26953125 -0.621093,0 -1.347656,-0.45703125 -1.347656,-1.69921876 0,-1.3125 0.855469,-1.7226562 1.441406,-1.7226562 0.445313,0 0.75,0.234375 0.972657,0.5507812 z m 3.155273,-0.75 c 0,-0.9960937 0.726563,-1.7109375 1.699219,-1.734375 v -0.6679687 c -0.890625,0.011719 -1.429688,0.5039062 -1.746094,0.9609375 v -0.9140625 h -0.691406 v 4.48828121 h 0.738281 z m 0,0"
       style="fill:#000000;fill-opacity:1;fill-rule:nonzero;stroke:none"
       aria-label="addr"
       transform="matrix(1.3333333,0,0,1.3333333,29.396,56.56)" />
    <path
       id="path8"
       d="m 0,-10.62573 21.25395,-6.4e-4 1.77115,-5.3135 -1.77115,-5.31349 L 0,-21.25269"
       style="fill:none;stroke:#000000;stroke-width:0.66414;stroke-linecap:round;stroke-linejoin:round;stroke-miterlimit:10;stroke-dasharray:none;stroke-opacity:1"
       transform="matrix(1.3333333,0,0,-1.3333333,63.490667,28.221333)" />
    <path
       id="path9"
       d="m 23.0251,-15.93858 1.77116,5.31349 53.13492,-6.4e-4 1.77115,-5.31349 -1.77115,-5.3135 -53.13492,0.0013 -1.77116,5.31348"
       style="fill:none;stroke:#000000;stroke-width:0.66414;stroke-linecap:round;stroke-linejoin:round;stroke-miterlimit:10;stroke-dasharray:none;stroke-opacity:1"
       transform="matrix(1.3333333,0,0,-1.3333333,63.490667,28.221333)" />
    <path
       id="path10"
       d="m 3.9671484,-2.8732422 c 0,-1.015625 -0.7226562,-1.71875 -1.640625,-1.71875 -0.6445312,0 -1.09375,0.15625 -1.56249996,0.4296875 l 0.0585938,0.6445313 C 1.3499609,-3.8693359 1.8382422,-4.0060547 2.3265234,-4.0060547 c 0.46875,0 0.8789063,0.390625 0.8789063,1.1328125 v 0.4296875 c -1.5039063,0.019531 -2.77343751,0.4296875 -2.77343751,1.3085938 0,0.42968746 0.2734375,1.24999996 1.15234371,1.24999996 0.1367188,0 1.0742188,-0.01953125 1.640625,-0.46875 v 0.3515625 h 0.7421875 z m -0.7617187,1.5625 c 0,0.1757813 0,0.42968751 -0.3515625,0.62500001 -0.2734375,0.17578125 -0.6640625,0.1953125 -0.7617188,0.1953125 -0.4882812,0 -0.9375,-0.234375 -0.9375,-0.66406251 0,-0.6835937 1.6210938,-0.7617187 2.0507813,-0.78125 z M 9.1038672,-6.9162109 H 8.3616797 v 2.9296875 c -0.5273438,-0.4296875 -1.09375,-0.546875 -1.4453125,-0.546875 -0.9960938,0 -1.7773438,1.0351562 -1.7773438,2.3242187 0,1.30859376 0.78125,2.32421876 1.71875,2.32421876 0.3320313,0 0.9179688,-0.09765625 1.484375,-0.64453125 v 0.52734375 h 0.7617188 z m -0.7617188,5.5273437 c 0,0.1367188 -0.019531,0.3125 -0.3320312,0.60546876 -0.234375,0.1953125 -0.4882813,0.29296875 -0.7421875,0.29296875 -0.625,0 -1.3476563,-0.46875 -1.3476563,-1.71875001 0,-1.3085937 0.859375,-1.71875 1.4453125,-1.71875 0.4492188,0 0.7421875,0.234375 0.9765625,0.546875 z m 5.9082036,-5.5273437 h -0.742188 v 2.9296875 c -0.527344,-0.4296875 -1.09375,-0.546875 -1.445312,-0.546875 -0.996094,0 -1.777344,1.0351562 -1.777344,2.3242187 0,1.30859376 0.78125,2.32421876 1.71875,2.32421876 0.332031,0 0.917969,-0.09765625 1.484375,-0.64453125 v 0.52734375 h 0.761719 z m -0.761719,5.5273437 c 0,0.1367188 -0.01953,0.3125 -0.332031,0.60546876 -0.234375,0.1953125 -0.488282,0.29296875 -0.742188,0.29296875 -0.625,0 -1.347656,-0.46875 -1.347656,-1.71875001 0,-1.3085937 0.859375,-1.71875 1.445312,-1.71875 0.449219,0 0.742188,0.234375 0.976563,0.546875 z m 3.15918,-0.7421875 c 0,-0.9960937 0.722656,-1.71875 1.699218,-1.7382812 v -0.6640625 c -0.898437,0 -1.445312,0.4882812 -1.738281,0.9570312 v -0.8984375 h -0.703125 v 4.47265626 h 0.742188 z m 6.391601,-1.1132812 c 0,-0.8007813 -0.03906,-1.71875 -0.449219,-2.5195313 -0.410156,-0.7617187 -1.09375,-0.9960937 -1.621093,-0.9960937 -0.585938,0 -1.269532,0.2734375 -1.679688,1.1523437 -0.332031,0.7421875 -0.390625,1.5625 -0.390625,2.3632813 0,0.78125 0.03906,1.5039062 0.351563,2.2265625 0.390625,0.95703121 1.152343,1.23046871 1.71875,1.23046871 0.722656,0 1.347656,-0.41015625 1.679687,-1.09375 0.292969,-0.64453121 0.390625,-1.30859371 0.390625,-2.36328121 z m -2.070312,2.85156246 c -0.507813,0 -0.917969,-0.37109375 -1.113282,-1.09374996 -0.15625,-0.5664063 -0.175781,-1.1132813 -0.175781,-1.875 0,-0.6445313 0,-1.2304688 0.175781,-1.7773438 0.05859,-0.1953125 0.3125,-1.015625 1.113282,-1.015625 0.78125,0 1.035156,0.7617188 1.113281,0.9375 0.175781,0.5664063 0.175781,1.2304688 0.175781,1.8554688 0,0.6445312 0,1.2695312 -0.175781,1.9140625 -0.253906,0.89843746 -0.78125,1.05468746 -1.113281,1.05468746 z m 0,0"
       style="fill:#000000;fill-opacity:1;fill-rule:nonzero;stroke:none"
       aria-label="addr0"
       transform="matrix(0.8,0,0,0.8,122.588,52.24)" />
    <path
       id="path11"
       d="m 79.70233,-15.9373 1.77117,5.31347 74.38888,-0.0013 m 0,-10.627 -74.38888,0.0013 -1.77117,5.31348"
       style="fill:none;stroke:#000000;stroke-width:0.66414;stroke-linecap:round;stroke-linejoin:round;stroke-miterlimit:10;stroke-dasharray:none;stroke-opacity:1"
       transform="matrix(1.3333333,0,0,-1.3333333,63.490667,28.221333)" />
    <path
       id="path12"
       d="m 3.9634505,-2.8715755 c 0,-1.015625 -0.7226562,-1.71875 -1.640625,-1.71875 -0.6445312,0 -1.09375,0.15625 -1.56249998,0.4296875 l 0.0585938,0.6445312 C 1.346263,-3.8676693 1.8345443,-4.004388 2.3228255,-4.004388 c 0.46875,0 0.8789063,0.390625 0.8789063,1.1328125 v 0.4296875 c -1.5039063,0.019531 -2.77343753,0.4296875 -2.77343753,1.3085937 0,0.42968753 0.2734375,1.25000003 1.15234373,1.25000003 0.1367188,0 1.0742188,-0.01953125 1.640625,-0.46875 v 0.35156249917 h 0.7421875 z m -0.7617187,1.5625 c 0,0.1757812 0,0.42968748 -0.3515625,0.62499998 -0.2734375,0.17578125 -0.6640625,0.1953125 -0.7617188,0.1953125 -0.4882812,0 -0.9375,-0.234375 -0.9375,-0.66406248 0,-0.6835938 1.6210938,-0.7617188 2.0507813,-0.78125 z M 9.1050521,-6.9145443 H 8.3628646 v 2.9296875 c -0.5273438,-0.4296875 -1.09375,-0.546875 -1.4453125,-0.546875 -0.9960938,0 -1.7773438,1.0351563 -1.7773438,2.3242188 0,1.30859373 0.78125,2.32421873 1.71875,2.32421873 0.3320313,0 0.9179688,-0.09765625 1.484375,-0.64453125 v 0.52734374917 h 0.7617188 z m -0.7617188,5.5273438 c 0,0.1367187 -0.019531,0.3125 -0.3320312,0.60546873 -0.234375,0.1953125 -0.4882813,0.29296875 -0.7421875,0.29296875 -0.625,0 -1.3476563,-0.46875 -1.3476563,-1.71874998 0,-1.3085938 0.859375,-1.71875 1.4453125,-1.71875 0.4492188,0 0.7421875,0.234375 0.9765625,0.546875 z m 5.9082027,-5.5273438 h -0.742187 v 2.9296875 c -0.527344,-0.4296875 -1.09375,-0.546875 -1.445313,-0.546875 -0.996093,0 -1.777343,1.0351563 -1.777343,2.3242188 0,1.30859373 0.78125,2.32421873 1.71875,2.32421873 0.332031,0 0.917968,-0.09765625 1.484375,-0.64453125 v 0.52734374917 h 0.761718 z m -0.761718,5.5273438 c 0,0.1367187 -0.01953,0.3125 -0.332032,0.60546873 -0.234375,0.1953125 -0.488281,0.29296875 -0.742187,0.29296875 -0.625,0 -1.347656,-0.46875 -1.347656,-1.71874998 0,-1.3085938 0.859375,-1.71875 1.445312,-1.71875 0.449219,0 0.742188,0.234375 0.976563,0.546875 z m 3.154297,-0.7421875 c 0,-0.9960938 0.722656,-1.71875 1.699218,-1.7382813 v -0.6640625 c -0.898437,0 -1.445312,0.4882813 -1.738281,0.9570313 V -4.473138 h -0.703125 v 4.47265622917 h 0.742188 z m 4.814453,-4.6289063 h -0.195313 c -0.585937,0.6054688 -1.40625,0.6445313 -1.894531,0.6640625 v 0.5664063 c 0.332031,0 0.820312,-0.019531 1.308594,-0.234375 v 5.17578123 h -1.25 v 0.58593749917 h 3.28125 V -0.58641927 h -1.25 z m 0,0"
       style="fill:#000000;fill-opacity:1;fill-rule:nonzero;stroke:none"
       aria-label="addr1"
       transform="matrix(0.8,0,0,0.8,212.32533,52.238667)" />
    <path
       id="path13"
       d="m 1.5575937,-2.132125 c 0,-0.9960938 0.7265625,-1.7109375 1.6992188,-1.734375 V -4.5344688 C 2.3661875,-4.52275 1.827125,-4.0305625 1.5107187,-3.5735313 V -4.4875938 H 0.8193125 V 6.875e-4 h 0.7382812 z m 6.1699219,-4.78125 h -0.75 v 2.9296875 c -0.5273437,-0.4335938 -1.078125,-0.5507813 -1.453125,-0.5507813 -0.984375,0 -1.7578125,1.0429688 -1.7578125,2.3203125 0,1.31250005 0.7617188,2.32031255 1.7109375,2.32031255 0.328125,0 0.9140625,-0.08203125 1.4765625,-0.62109375 v 0.515625 h 0.7734375 z m -0.7734375,5.53125 c 0,0.140625 -0.011719,0.3164062 -0.328125,0.609375 -0.234375,0.19921875 -0.4804687,0.26953125 -0.7382812,0.26953125 -0.6210938,0 -1.3476563,-0.45703125 -1.3476563,-1.69921875 0,-1.3125 0.8554688,-1.7226563 1.4414063,-1.7226563 0.4453125,0 0.75,0.234375 0.9726562,0.5507813 z M 11.52732,-6.7493125 h -0.199218 c -0.585938,0.609375 -1.4179692,0.6328125 -1.8867192,0.65625 v 0.5742187 c 0.328125,-0.011719 0.8085942,-0.023437 1.3007812,-0.234375 v 5.17968755 H 9.4999766 V 6.875e-4 H 12.769508 V -0.57353125 H 11.52732 Z m 0,0"
       style="fill:#000000;fill-opacity:1;fill-rule:nonzero;stroke:none"
       aria-label="rd1"
       transform="matrix(1.3333333,0,0,1.3333333,36.001333,84.905333)" />
    <path
       id="path14"
       d="m 0,-42.51312 h 21.25395 l 1.77115,10.62698 h 26.56748 l 1.77114,-10.62698 h 26.56745 l 1.77115,10.62698 h 26.56747 l 1.77115,-10.62698 h 47.82141"
       style="fill:none;stroke:#000000;stroke-width:0.66414;stroke-linecap:round;stroke-linejoin:round;stroke-miterlimit:10;stroke-dasharray:none;stroke-opacity:1"
       transform="matrix(1.3333333,0,0,-1.3333333,63.490667,28.221333)" />
    <path
       id="path15"
       d="m 1.5593203,-2.1323828 c 0,-0.9960938 0.7265625,-1.7109375 1.6992188,-1.734375 v -0.6679688 c -0.890625,0.011719 -1.4296875,0.5039063 -1.7460938,0.9609375 V -4.4878516 H 0.82103906 V 4.296875e-4 H 1.5593203 Z m 6.1699219,-4.78125 h -0.75 v 2.9296875 c -0.5273438,-0.4335938 -1.078125,-0.5507813 -1.453125,-0.5507813 -0.984375,0 -1.7578125,1.0429688 -1.7578125,2.3203125 0,1.31250004 0.7617187,2.32031254 1.7109375,2.32031254 0.328125,0 0.9140625,-0.08203125 1.4765625,-0.62109375 V 4.296875e-4 h 0.7734375 z m -0.7734375,5.53125 c 0,0.140625 -0.011719,0.3164062 -0.328125,0.60937499 -0.234375,0.19921875 -0.4804688,0.26953125 -0.7382813,0.26953125 -0.6210937,0 -1.3476562,-0.45703125 -1.3476562,-1.69921874 0,-1.3125 0.8554687,-1.7226563 1.4414062,-1.7226563 0.4453125,0 0.75,0.234375 0.9726563,0.5507813 z m 4.5732423,-5.3671875 h -0.199219 c -0.585937,0.609375 -1.4179686,0.6328125 -1.8867186,0.65625 v 0.5742187 c 0.328125,-0.011719 0.8085936,-0.023437 1.3007816,-0.234375 v 5.17968754 H 9.5017031 V 4.296875e-4 H 12.771234 V -0.57378906 h -1.242187 z m 0,0"
       style="fill:#000000;fill-opacity:1;fill-rule:nonzero;stroke:none"
       aria-label="rd1"
       transform="matrix(1.3333333,0,0,1.3333333,6.792,113.25333)" />
    <path
       id="path16"
       d="M 0,0 H 2.989"
       style="fill:none;stroke:#000000;stroke-width:0.398;stroke-linecap:butt;stroke-linejoin:round;stroke-miterlimit:10;stroke-dasharray:none;stroke-opacity:1"
       transform="matrix(1.3333333,0,0,-1.3333333,25.632,112.988)" />
    <path
       id="path17"
       d="m 4.3241094,-6.9136328 h -0.75 v 2.9296875 c -0.5273438,-0.4335938 -1.078125,-0.5507813 -1.453125,-0.5507813 -0.984375,0 -1.75781253,1.0429688 -1.75781253,2.3203125 0,1.31250004 0.76171873,2.32031254 1.71093753,2.32031254 0.328125,0 0.9140625,-0.08203125 1.4765625,-0.62109375 V 4.296875e-4 h 0.7734375 z m -0.7734375,5.53125 c 0,0.140625 -0.011719,0.3164062 -0.328125,0.60937499 -0.234375,0.19921875 -0.4804688,0.26953125 -0.7382813,0.26953125 -0.6210937,0 -1.3476562,-0.45703125 -1.3476562,-1.69921874 0,-1.3125 0.8554687,-1.7226563 1.4414062,-1.7226563 0.4453125,0 0.75,0.234375 0.9726563,0.5507813 z m 5.5693359,-1.5 c 0,-1.0078125 -0.7265625,-1.7109375 -1.640625,-1.7109375 -0.6445312,0 -1.1015625,0.1640625 -1.5703125,0.4335937 l 0.070312,0.65625 c 0.515625,-0.375 1.0078125,-0.5039062 1.5,-0.5039062 0.46875,0 0.8671875,0.3984375 0.8671875,1.1367187 v 0.4335938 c -1.5,0.011719 -2.765625,0.4335937 -2.765625,1.3125 0,0.42187499 0.2695313,1.23046874 1.1367188,1.23046874 0.140625,0 1.078125,-0.01171875 1.6523437,-0.46875 V 4.296875e-4 h 0.75 z m -0.7734375,1.5703125 c 0,0.1875 0,0.43359374 -0.3398437,0.62109374 -0.2929688,0.1875 -0.6679688,0.1875 -0.7734375,0.1875 -0.4804688,0 -0.9257813,-0.22265625 -0.9257813,-0.64453124 0,-0.6914063 1.6054688,-0.7617188 2.0390625,-0.7851563 z m 3.3339847,-2.53125 h 1.40625 v -0.5742188 h -1.40625 v -1.265625 h -0.691407 v 1.265625 h -0.867187 v 0.5742188 h 0.84375 v 2.6601562 c 0,0.59765629 0.128906,1.28906254 0.820312,1.28906254 0.703125,0 1.207032,-0.24609375 1.453125,-0.375 l -0.152343,-0.5859375 c -0.257813,0.2109375 -0.585938,0.328125 -0.902344,0.328125 -0.363281,0 -0.503906,-0.3046875 -0.503906,-0.83203124 z m 5.824218,0.9609375 c 0,-1.0078125 -0.726562,-1.7109375 -1.640625,-1.7109375 -0.644531,0 -1.101562,0.1640625 -1.570312,0.4335937 l 0.07031,0.65625 c 0.515625,-0.375 1.007813,-0.5039062 1.5,-0.5039062 0.46875,0 0.867188,0.3984375 0.867188,1.1367187 v 0.4335938 c -1.5,0.011719 -2.765625,0.4335937 -2.765625,1.3125 0,0.42187499 0.269531,1.23046874 1.136719,1.23046874 0.140625,0 1.078125,-0.01171875 1.652343,-0.46875 V 4.296875e-4 h 0.75 z m -0.773437,1.5703125 c 0,0.1875 0,0.43359374 -0.339844,0.62109374 -0.292969,0.1875 -0.667969,0.1875 -0.773437,0.1875 -0.480469,0 -0.925782,-0.22265625 -0.925782,-0.64453124 0,-0.6914063 1.605469,-0.7617188 2.039063,-0.7851563 z m 0,0"
       style="fill:#000000;fill-opacity:1;fill-rule:nonzero;stroke:none"
       aria-label="data"
       transform="matrix(1.3333333,0,0,1.3333333,29.617333,113.25333)" />
    <path
       id="path18"
       d="m 0,-53.14656 42.50792,-6.7e-4 1.77115,-5.31348 L 42.50792,-63.7742 0,-63.77353"
       style="fill:none;stroke:#000000;stroke-width:0.66414;stroke-linecap:round;stroke-linejoin:round;stroke-miterlimit:10;stroke-dasharray:none;stroke-opacity:1"
       transform="matrix(1.3333333,0,0,-1.3333333,63.490667,28.221333)" />
    <path
       id="path19"
       d="m 44.27907,-58.45938 1.77115,5.31348 53.13493,-6.6e-4 1.77115,-5.31349 -1.77115,-5.31351 -53.13493,0.0014 -1.77115,5.31348"
       style="fill:none;stroke:#000000;stroke-width:0.66414;stroke-linecap:round;stroke-linejoin:round;stroke-miterlimit:10;stroke-dasharray:none;stroke-opacity:1"
       transform="matrix(1.3333333,0,0,-1.3333333,63.490667,28.221333)" />
    <path
       id="path20"
       d="M 4.3166406,-6.913737 H 3.5744531 v 2.9296875 c -0.5273437,-0.4296875 -1.09375,-0.546875 -1.4453125,-0.546875 -0.9960937,0 -1.77734372,1.0351563 -1.77734372,2.3242188 0,1.30859372 0.78125002,2.32421872 1.71875002,2.32421872 0.3320312,0 0.9179687,-0.09765625 1.484375,-0.64453125 V 3.2552083e-4 h 0.7617187 z m -0.7617187,5.5273438 c 0,0.1367187 -0.019531,0.3125 -0.3320313,0.60546872 -0.234375,0.1953125 -0.4882812,0.29296875 -0.7421875,0.29296875 -0.625,0 -1.3476562,-0.46875 -1.3476562,-1.71874997 0,-1.3085938 0.859375,-1.71875 1.4453125,-1.71875 0.4492187,0 0.7421875,0.234375 0.9765625,0.546875 z m 5.5566406,-1.484375 c 0,-1.015625 -0.7226562,-1.71875 -1.640625,-1.71875 -0.6445312,0 -1.09375,0.15625 -1.5625,0.4296875 l 0.058594,0.6445312 c 0.5273437,-0.3515625 1.015625,-0.4882812 1.5039062,-0.4882812 0.46875,0 0.8789063,0.390625 0.8789063,1.1328125 v 0.4296875 c -1.5039063,0.019531 -2.7734375,0.4296875 -2.7734375,1.3085937 0,0.42968752 0.2734375,1.25000002 1.1523437,1.25000002 0.1367188,0 1.0742188,-0.01953125 1.640625,-0.46875 V 3.2552083e-4 h 0.7421875 z m -0.7617187,1.5625 c 0,0.1757812 0,0.42968747 -0.3515625,0.62499997 -0.2734375,0.17578125 -0.6640625,0.1953125 -0.7617188,0.1953125 -0.4882812,0 -0.9375,-0.234375 -0.9375,-0.66406247 0,-0.6835938 1.6210938,-0.7617188 2.0507813,-0.78125 z m 3.3251952,-2.5390625 h 1.40625 V -4.413737 h -1.40625 V -5.6832682 H 10.991445 V -4.413737 H 10.13207 v 0.5664063 h 0.839844 v 2.65625 c 0,0.60546872 0.136719,1.30859372 0.820313,1.30859372 0.703125,0 1.210937,-0.25390625 1.445312,-0.390625 l -0.15625,-0.5859375 c -0.253906,0.21484375 -0.566406,0.33203125 -0.898437,0.33203125 -0.371094,0 -0.507813,-0.29296875 -0.507813,-0.82031247 z m 5.825195,0.9765625 c 0,-1.015625 -0.722656,-1.71875 -1.640625,-1.71875 -0.644531,0 -1.09375,0.15625 -1.5625,0.4296875 l 0.05859,0.6445312 c 0.527344,-0.3515625 1.015625,-0.4882812 1.503906,-0.4882812 0.46875,0 0.878907,0.390625 0.878907,1.1328125 v 0.4296875 c -1.503907,0.019531 -2.773438,0.4296875 -2.773438,1.3085937 0,0.42968752 0.273438,1.25000002 1.152344,1.25000002 0.136719,0 1.074219,-0.01953125 1.640625,-0.46875 V 3.2552083e-4 h 0.742187 z m -0.761718,1.5625 c 0,0.1757812 0,0.42968747 -0.351563,0.62499997 -0.273437,0.17578125 -0.664062,0.1953125 -0.761719,0.1953125 -0.488281,0 -0.9375,-0.234375 -0.9375,-0.66406247 0,-0.6835938 1.621094,-0.7617188 2.050782,-0.78125 z m 6.132812,-1.9335938 c 0,-0.8007812 -0.03906,-1.71875 -0.449219,-2.5195312 -0.410156,-0.7617188 -1.09375,-0.9960938 -1.621093,-0.9960938 -0.585938,0 -1.269532,0.2734375 -1.679688,1.1523438 -0.332031,0.7421875 -0.390625,1.5625 -0.390625,2.3632812 0,0.78125 0.03906,1.5039063 0.351563,2.2265625 0.390625,0.95703127 1.152343,1.23046877 1.71875,1.23046877 0.722656,0 1.347656,-0.41015625 1.679687,-1.09375 0.292969,-0.64453127 0.390625,-1.30859377 0.390625,-2.36328127 z m -2.070312,2.85156252 c -0.507813,0 -0.917969,-0.37109375 -1.113282,-1.09375002 -0.15625,-0.5664062 -0.175781,-1.1132812 -0.175781,-1.875 0,-0.6445312 0,-1.2304687 0.175781,-1.7773437 0.05859,-0.1953125 0.3125,-1.015625 1.113282,-1.015625 0.78125,0 1.035156,0.7617187 1.113281,0.9375 0.175781,0.5664062 0.175781,1.2304687 0.175781,1.8554687 0,0.6445313 0,1.2695313 -0.175781,1.9140625 -0.253906,0.89843752 -0.78125,1.05468752 -1.113281,1.05468752 z m 0,0"
       style="fill:#000000;fill-opacity:1;fill-rule:nonzero;stroke:none"
       aria-label="data0"
       transform="matrix(0.8,0,0,0.8,150.992,108.93333)" />
    <path
       id="path21"
       d="m 100.9563,-58.45805 1.77115,5.31346 53.13493,-0.0013 m 0,-10.62699 -53.13493,0.0013 -1.77115,5.3135"
       style="fill:none;stroke:#000000;stroke-width:0.66414;stroke-linecap:round;stroke-linejoin:round;stroke-miterlimit:10;stroke-dasharray:none;stroke-opacity:1"
       transform="matrix(1.3333333,0,0,-1.3333333,63.490667,28.221333)" />
    <path
       id="path22"
       d="M 4.3178646,-6.9120703 H 3.5756771 v 2.9296875 c -0.5273438,-0.4296875 -1.09375,-0.546875 -1.4453125,-0.546875 -0.9960938,0 -1.77734377,1.0351562 -1.77734377,2.3242187 0,1.30859379 0.78124997,2.32421879 1.71874997,2.32421879 0.3320313,0 0.9179688,-0.09765625 1.484375,-0.64453125 v 0.52734375 h 0.7617188 z m -0.7617188,5.5273437 c 0,0.1367188 -0.019531,0.3125 -0.3320312,0.60546879 -0.234375,0.1953125 -0.4882813,0.29296875 -0.7421875,0.29296875 -0.625,0 -1.3476563,-0.46875 -1.3476563,-1.71875004 0,-1.3085937 0.859375,-1.71875 1.4453125,-1.71875 0.4492188,0 0.7421875,0.234375 0.9765625,0.546875 z m 5.5566407,-1.484375 c 0,-1.015625 -0.7226563,-1.71875 -1.640625,-1.71875 -0.6445313,0 -1.09375,0.15625 -1.5625,0.4296875 l 0.058594,0.6445313 c 0.5273438,-0.3515625 1.015625,-0.4882813 1.5039063,-0.4882813 0.46875,0 0.8789062,0.390625 0.8789062,1.1328125 v 0.4296875 c -1.5039062,0.019531 -2.7734375,0.4296875 -2.7734375,1.3085938 0,0.42968749 0.2734375,1.24999999 1.1523438,1.24999999 0.1367187,0 1.0742187,-0.01953125 1.640625,-0.46875 v 0.3515625 h 0.7421875 z m -0.7617188,1.5625 c 0,0.1757813 0,0.42968754 -0.3515625,0.62500004 -0.2734375,0.17578125 -0.6640625,0.1953125 -0.7617187,0.1953125 -0.4882813,0 -0.9375,-0.234375 -0.9375,-0.66406254 0,-0.6835937 1.6210937,-0.7617187 2.0507812,-0.78125 z m 3.3251953,-2.5390625 h 1.40625 v -0.5664062 h -1.40625 v -1.2695313 h -0.683594 v 1.2695313 h -0.859375 v 0.5664062 h 0.839844 v 2.65625 c 0,0.60546879 0.136719,1.30859379 0.820313,1.30859379 0.703125,0 1.210937,-0.25390625 1.445312,-0.390625 l -0.15625,-0.5859375 c -0.253906,0.21484375 -0.566406,0.33203125 -0.898437,0.33203125 -0.371094,0 -0.507813,-0.29296875 -0.507813,-0.82031254 z m 5.820313,0.9765625 c 0,-1.015625 -0.722657,-1.71875 -1.640625,-1.71875 -0.644532,0 -1.09375,0.15625 -1.5625,0.4296875 l 0.05859,0.6445313 c 0.527344,-0.3515625 1.015625,-0.4882813 1.503907,-0.4882813 0.46875,0 0.878906,0.390625 0.878906,1.1328125 v 0.4296875 c -1.503906,0.019531 -2.773438,0.4296875 -2.773438,1.3085938 0,0.42968749 0.273438,1.24999999 1.152344,1.24999999 0.136719,0 1.074219,-0.01953125 1.640625,-0.46875 v 0.3515625 h 0.742188 z m -0.761719,1.5625 c 0,0.1757813 0,0.42968754 -0.351563,0.62500004 -0.273437,0.17578125 -0.664062,0.1953125 -0.761718,0.1953125 -0.488282,0 -0.9375,-0.234375 -0.9375,-0.66406254 0,-0.6835937 1.621093,-0.7617187 2.050781,-0.78125 z m 4.555664,-5.4492187 h -0.195313 c -0.585937,0.6054687 -1.40625,0.6445312 -1.894531,0.6640625 v 0.5664062 c 0.332031,0 0.820313,-0.019531 1.308594,-0.234375 v 5.17578129 h -1.25 v 0.5859375 h 3.28125 v -0.5859375 h -1.25 z m 0,0"
       style="fill:#000000;fill-opacity:1;fill-rule:nonzero;stroke:none"
       aria-label="data1"
       transform="matrix(0.8,0,0,0.8,226.56133,108.932)" />
    <path
       id="path23"
       d="m 14.1693,15.94044 v -85.05212 m 28.33862,85.05212 v -85.05212 m 28.33861,85.05212 v -85.05212 m 28.33862,85.05212 v -85.05212 m 28.33861,85.05212 v -85.05212"
       style="fill:none;stroke:#808080;stroke-width:0.59776;stroke-linecap:round;stroke-linejoin:round;stroke-miterlimit:10;stroke-dasharray:none;stroke-opacity:0.5"
       transform="matrix(1.3333333,0,0,-1.3333333,63.490667,28.221333)" />
    <path
       id="path24"
       d="M 42.50792,15.94044 V -69.11168 M 99.18515,15.94044 V -69.11168"
       style="fill:none;stroke:#ff0000;stroke-width:0.49815;stroke-linecap:round;stroke-linejoin:round;stroke-miterlimit:10;stroke-dasharray:2.98883, 2.98883;stroke-dashoffset:0;stroke-opacity:0.75"
       transform="matrix(1.3333333,0,0,-1.3333333,63.490667,28.221333)" />
  </g>
</svg>
