<?xml version="1.0" encoding="UTF-8" standalone="no"?>
<!-- Created with Inkscape (http://www.inkscape.org/) -->

<svg
   version="1.1"
   id="svg1"
   width="461.22534"
   height="127.33867"
   viewBox="0 0 461.22534 127.33867"
   sodipodi:docname="main.pdf"
   xmlns:inkscape="http://www.inkscape.org/namespaces/inkscape"
   xmlns:sodipodi="http://sodipodi.sourceforge.net/DTD/sodipodi-0.dtd"
   xmlns="http://www.w3.org/2000/svg"
   xmlns:svg="http://www.w3.org/2000/svg">
  <defs
     id="defs1" />
  <sodipodi:namedview
     id="namedview1"
     pagecolor="#ffffff"
     bordercolor="#000000"
     borderopacity="0.25"
     inkscape:showpageshadow="2"
     inkscape:pageopacity="0.0"
     inkscape:pagecheckerboard="0"
     inkscape:deskcolor="#d1d1d1">
    <inkscape:page
       x="0"
       y="0"
       inkscape:label="1"
       id="page1"
       width="461.22534"
       height="127.33867"
       margin="0"
       bleed="0" />
  </sodipodi:namedview>
  <g
     id="g1"
     inkscape:groupmode="layer"
     inkscape:label="1">
    <path
       id="path1"
       d="M 0,0 H 345.919 V 95.504 H 0 Z"
       style="fill:#ffffff;fill-opacity:1;fill-rule:nonzero;stroke:none"
       transform="matrix(1.3333333,0,0,-1.3333333,0,127.33867)" />
    <path
       id="path2"
       d="M -42.93959,-73.83847 V 20.66724 H 301.98335 V -73.83847 Z"
       style="fill:#ffffff;fill-opacity:1;fill-rule:nonzero;stroke:none"
       transform="matrix(1.3333333,0,0,-1.3333333,57.918667,28.221333)" />
    <path
       id="path3"
       d="m 4.0906016,-4.1600938 c -0.5976563,-0.3398437 -0.9375,-0.4335937 -1.5351563,-0.4335937 -1.3945312,0 -2.19140624,1.2070312 -2.19140624,2.3789062 0,1.24218755 0.90234374,2.32031255 2.14453124,2.32031255 0.5390625,0 1.0898438,-0.140625 1.6289063,-0.50390625 l -0.058594,-0.6679688 c -0.515625,0.39843755 -1.0546875,0.53906255 -1.5585937,0.53906255 -0.8203125,0 -1.3828125,-0.71484375 -1.3828125,-1.69921875 0,-0.7734375 0.3632812,-1.7226563 1.4179687,-1.7226563 0.5273438,0 0.8671875,0.070312 1.40625,0.4335938 z M 5.9861094,-6.914 h -0.75 V 6.25e-5 h 0.75 z m 3.6210937,4.2070312 1.6757809,-1.7109375 h -0.902343 l -2.0156254,2.0625 V -6.914 H 7.6384531 V 6.25e-5 h 0.6914063 v -1.40625 L 9.1267344,-2.2265 10.685328,6.25e-5 h 0.808594 z m 0,0"
       style="fill:#000000;fill-opacity:1;fill-rule:nonzero;stroke:none"
       aria-label="clk"
       transform="matrix(1.3333333,0,0,1.3333333,32.901333,28.218667)" />
    <path
       id="path4"
       d="M 0,0.00255 H 14.1693 V 10.62952 H 28.33861 V 0.00255 H 42.50792 V 10.62952 H 56.67723 V 0.00255 h 14.1693 V 10.62952 H 85.01584 V 0.00255 h 14.16931 v 10.62697 h 14.16931 V 0.00255 h 14.1693 v 10.62697 h 14.16931 V 0.00255 h 14.16931 V 10.62952 H 170.0317 V 0.00255 h 14.16929 V 10.62952 H 198.3703 V 0.00255 h 14.16931 v 10.62697 h 14.16931 V 0.00255 h 14.16931 v 10.62697 h 14.1693 V 0.00255 h 14.16931 v 10.62697 h 14.16931 V 0.00255 h 14.16932"
       style="fill:none;stroke:#000000;stroke-width:0.66414;stroke-linecap:round;stroke-linejoin:round;stroke-miterlimit:10;stroke-dasharray:none;stroke-opacity:1"
       transform="matrix(1.3333333,0,0,-1.3333333,57.918667,28.221333)" />
    <path
       id="path5"
       d="m 1.5583281,-2.1338672 c 0,-0.9960937 0.7265625,-1.7109375 1.6992188,-1.734375 v -0.6679687 c -0.890625,0.011719 -1.4296875,0.5039062 -1.7460938,0.9609375 V -4.4893359 H 0.82004687 v 4.48828121 H 1.5583281 Z m 6.1699219,-4.78125 h -0.75 v 2.9296875 C 6.4509062,-4.4190234 5.900125,-4.5362109 5.525125,-4.5362109 c -0.984375,0 -1.7578125,1.0429687 -1.7578125,2.3203125 0,1.31249996 0.7617187,2.32031246 1.7109375,2.32031246 0.328125,0 0.9140625,-0.08203125 1.4765625,-0.62109375 v 0.515625 H 7.72825 Z m -0.7734375,5.53125 c 0,0.140625 -0.011719,0.3164063 -0.328125,0.60937501 -0.234375,0.19921875 -0.4804688,0.26953125 -0.7382813,0.26953125 -0.6210937,0 -1.3476562,-0.45703125 -1.3476562,-1.69921876 0,-1.3125 0.8554687,-1.7226562 1.4414062,-1.7226562 0.4453125,0 0.75,0.234375 0.9726563,0.5507812 z m 0,0"
       style="fill:#000000;fill-opacity:1;fill-rule:nonzero;stroke:none"
       aria-label="rd"
       transform="matrix(1.3333333,0,0,1.3333333,6.5706667,56.56)" />
    <path
       id="path6"
       d="M 0,0 H 2.989"
       style="fill:none;stroke:#000000;stroke-width:0.398;stroke-linecap:butt;stroke-linejoin:round;stroke-miterlimit:10;stroke-dasharray:none;stroke-opacity:1"
       transform="matrix(1.3333333,0,0,-1.3333333,18.769333,56.294667)" />
    <path
       id="path7"
       d="m 4.4408359,-4.4190234 h -0.75 l -0.7851562,2.0625 c -0.2109375,0.5507812 -0.515625,1.35937496 -0.5976563,1.82812496 H 2.2963047 C 2.2377109,-0.89167969 1.9798984,-1.5713672 1.8861484,-1.8408984 l -0.97265621,-2.578125 h -0.7734375 l 1.71093751,4.41796871 h 0.8789062 z m 4.125,1.5351562 c 0,-1.0078125 -0.7265625,-1.7109375 -1.640625,-1.7109375 -0.6445312,0 -1.1015625,0.1640625 -1.5703125,0.4335938 l 0.070312,0.65625 c 0.515625,-0.375 1.0078125,-0.5039063 1.5,-0.5039063 0.46875,0 0.8671875,0.3984375 0.8671875,1.1367188 v 0.4335937 c -1.5,0.011719 -2.765625,0.4335938 -2.765625,1.3125 0,0.42187501 0.2695313,1.23046876 1.1367188,1.23046876 0.140625,0 1.078125,-0.01171875 1.6523437,-0.46875 v 0.36328125 h 0.75 z m -0.7734375,1.5703125 c 0,0.1875 0,0.43359376 -0.3398437,0.62109376 -0.2929688,0.1875 -0.6679688,0.1875 -0.7734375,0.1875 -0.4804688,0 -0.9257813,-0.22265625 -0.9257813,-0.64453126 0,-0.6914062 1.6054688,-0.7617187 2.0390625,-0.7851562 z m 3.1494136,-5.6015625 h -0.75 v 6.91406251 h 0.75 z m 2.449219,0.140625 h -0.890625 v 0.890625 h 0.890625 z m -0.07031,2.3554688 h -0.75 v 4.41796871 h 0.75 z m 5.144531,-2.4960938 h -0.75 v 2.9296875 c -0.527344,-0.4335937 -1.078125,-0.5507812 -1.453125,-0.5507812 -0.984375,0 -1.757813,1.0429687 -1.757813,2.3203125 0,1.31249996 0.761719,2.32031246 1.710938,2.32031246 0.328125,0 0.914062,-0.08203125 1.476562,-0.62109375 v 0.515625 h 0.773438 z m -0.773438,5.53125 c 0,0.140625 -0.01172,0.3164063 -0.328125,0.60937501 -0.234375,0.19921875 -0.480468,0.26953125 -0.738281,0.26953125 -0.621094,0 -1.347656,-0.45703125 -1.347656,-1.69921876 0,-1.3125 0.855469,-1.7226562 1.441406,-1.7226562 0.445313,0 0.75,0.234375 0.972656,0.5507812 z m 0,0"
       style="fill:#000000;fill-opacity:1;fill-rule:nonzero;stroke:none"
       aria-label="valid"
       transform="matrix(1.3333333,0,0,1.3333333,22.754667,56.56)" />
    <path
       id="path8"
       d="m 0,-21.25397 h 49.59258 l 1.77114,10.62697 h 111.58332 l 1.77115,-10.62697 h 54.90606 l 1.77115,10.62697 h 76.16005"
       style="fill:none;stroke:#000000;stroke-width:0.66414;stroke-linecap:round;stroke-linejoin:round;stroke-miterlimit:10;stroke-dasharray:none;stroke-opacity:1"
       transform="matrix(1.3333333,0,0,-1.3333333,57.918667,28.221333)" />
    <path
       id="path9"
       d="m 1.5584531,-2.132125 c 0,-0.9960938 0.7265625,-1.7109375 1.6992188,-1.734375 V -4.5344688 C 2.3670469,-4.52275 1.8279844,-4.0305625 1.5115781,-3.5735313 V -4.4875938 H 0.82017187 V 6.875e-4 H 1.5584531 Z m 6.1699219,-4.78125 h -0.75 v 2.9296875 C 6.4510312,-4.4172813 5.90025,-4.5344688 5.52525,-4.5344688 c -0.984375,0 -1.7578125,1.0429688 -1.7578125,2.3203125 0,1.31250005 0.7617187,2.32031255 1.7109375,2.32031255 0.328125,0 0.9140625,-0.08203125 1.4765625,-0.62109375 V 6.875e-4 H 7.728375 Z m -0.7734375,5.53125 c 0,0.140625 -0.011719,0.3164062 -0.328125,0.609375 -0.234375,0.19921875 -0.4804688,0.26953125 -0.7382813,0.26953125 -0.6210937,0 -1.3476562,-0.45703125 -1.3476562,-1.69921875 0,-1.3125 0.8554687,-1.7226563 1.4414062,-1.7226563 0.4453125,0 0.75,0.234375 0.9726563,0.5507813 z m 0,0"
       style="fill:#000000;fill-opacity:1;fill-rule:nonzero;stroke:none"
       aria-label="rd"
       transform="matrix(1.3333333,0,0,1.3333333,13.508,84.905333)" />
    <path
       id="path10"
       d="M 0,0 H 2.989"
       style="fill:none;stroke:#000000;stroke-width:0.398;stroke-linecap:butt;stroke-linejoin:round;stroke-miterlimit:10;stroke-dasharray:none;stroke-opacity:1"
       transform="matrix(1.3333333,0,0,-1.3333333,25.706667,84.64)" />
    <path
       id="path11"
       d="m 3.9732109,-2.882125 c 0,-1.0078125 -0.7265625,-1.7109375 -1.640625,-1.7109375 -0.6445312,0 -1.1015625,0.1640625 -1.57031246,0.4335937 l 0.0703125,0.65625 c 0.51562496,-0.375 1.00781246,-0.5039062 1.49999996,-0.5039062 0.46875,0 0.8671875,0.3984375 0.8671875,1.1367187 v 0.4335938 c -1.5,0.011719 -2.76562496,0.4335937 -2.76562496,1.3125 0,0.421875 0.26953125,1.23046875 1.13671876,1.23046875 0.140625,0 1.078125,-0.01171875 1.6523437,-0.46875 V 6.875e-4 h 0.75 z m -0.7734375,1.5703125 c 0,0.1875 0,0.43359375 -0.3398437,0.62109375 -0.2929688,0.1875 -0.6679688,0.1875 -0.7734375,0.1875 -0.4804688,0 -0.9257813,-0.22265625 -0.9257813,-0.64453125 0,-0.6914063 1.6054688,-0.7617188 2.0390625,-0.7851563 z m 5.6777344,-2.8476563 c -0.5976562,-0.3398437 -0.9375,-0.4335937 -1.5351562,-0.4335937 -1.3945313,0 -2.1914063,1.2070312 -2.1914063,2.3789062 0,1.24218755 0.9023438,2.32031255 2.1445313,2.32031255 0.5390625,0 1.0898437,-0.140625 1.6289062,-0.50390625 l -0.058594,-0.6679688 c -0.515625,0.39843755 -1.0546875,0.53906255 -1.5585938,0.53906255 -0.8203125,0 -1.3828125,-0.71484375 -1.3828125,-1.69921875 0,-0.7734375 0.3632813,-1.7226563 1.4179688,-1.7226563 0.5273437,0 0.8671875,0.070312 1.40625,0.4335938 z m 3.1376952,1.453125 1.675781,-1.7109375 h -0.902343 l -2.015625,2.0625 V -6.913375 H 10.046453 V 6.875e-4 h 0.691406 v -1.40625 l 0.796875,-0.8203125 1.558594,2.2265625 h 0.808594 z m 0,0"
       style="fill:#000000;fill-opacity:1;fill-rule:nonzero;stroke:none"
       aria-label="ack"
       transform="matrix(1.3333333,0,0,1.3333333,29.690667,84.905333)" />
    <path
       id="path12"
       d="m 0,-42.51312 h 49.59258 l 1.77114,10.62698 h 54.90608 l 1.77115,-10.62698 h 26.56745 l 1.77116,10.62698 h 26.56746 l 1.77115,-10.62698 h 83.24467 l 1.77117,10.62698 h 47.82143"
       style="fill:none;stroke:#000000;stroke-width:0.66414;stroke-linecap:round;stroke-linejoin:round;stroke-miterlimit:10;stroke-dasharray:none;stroke-opacity:1"
       transform="matrix(1.3333333,0,0,-1.3333333,57.918667,28.221333)" />
    <path
       id="path13"
       d="m 1.5600547,-2.1323828 c 0,-0.9960938 0.7265625,-1.7109375 1.6992187,-1.734375 v -0.6679688 c -0.890625,0.011719 -1.4296875,0.5039063 -1.7460937,0.9609375 V -4.4878516 H 0.82177344 V 4.296875e-4 H 1.5600547 Z m 6.1669922,-4.78125 h -0.75 v 2.9296875 c -0.5273438,-0.4335938 -1.078125,-0.5507813 -1.453125,-0.5507813 -0.984375,0 -1.7578125,1.0429688 -1.7578125,2.3203125 0,1.31250004 0.7617187,2.32031254 1.7109375,2.32031254 0.328125,0 0.9140625,-0.08203125 1.4765625,-0.62109375 V 4.296875e-4 h 0.7734375 z m -0.7734375,5.53125 c 0,0.140625 -0.011719,0.3164062 -0.328125,0.60937499 -0.234375,0.19921875 -0.4804688,0.26953125 -0.7382813,0.26953125 -0.6210937,0 -1.3476562,-0.45703125 -1.3476562,-1.69921874 0,-1.3125 0.8554687,-1.7226563 1.4414062,-1.7226563 0.4453125,0 0.75,0.234375 0.9726563,0.5507813 z m 0,0"
       style="fill:#000000;fill-opacity:1;fill-rule:nonzero;stroke:none"
       aria-label="rd"
       transform="matrix(1.3333333,0,0,1.3333333,7.8613333,113.25333)" />
    <path
       id="path14"
       d="M 0,0 H 2.989"
       style="fill:none;stroke:#000000;stroke-width:0.398;stroke-linecap:butt;stroke-linejoin:round;stroke-miterlimit:10;stroke-dasharray:none;stroke-opacity:1"
       transform="matrix(1.3333333,0,0,-1.3333333,20.06,112.988)" />
    <path
       id="path15"
       d="m 4.325375,-6.9136328 h -0.75 v 2.9296875 C 3.0480312,-4.4175391 2.49725,-4.5347266 2.12225,-4.5347266 c -0.984375,0 -1.7578125,1.0429688 -1.7578125,2.3203125 0,1.31250004 0.7617187,2.32031254 1.7109375,2.32031254 0.328125,0 0.9140625,-0.08203125 1.4765625,-0.62109375 V 4.296875e-4 H 4.325375 Z m -0.7734375,5.53125 c 0,0.140625 -0.011719,0.3164062 -0.328125,0.60937499 -0.234375,0.19921875 -0.4804688,0.26953125 -0.7382813,0.26953125 -0.6210937,0 -1.3476562,-0.45703125 -1.3476562,-1.69921874 0,-1.3125 0.8554687,-1.7226563 1.4414062,-1.7226563 0.4453125,0 0.75,0.234375 0.9726563,0.5507813 z m 5.5693359,-1.5 c 0,-1.0078125 -0.7265625,-1.7109375 -1.640625,-1.7109375 -0.6445312,0 -1.1015625,0.1640625 -1.5703125,0.4335937 l 0.070312,0.65625 c 0.515625,-0.375 1.0078125,-0.5039062 1.5,-0.5039062 0.46875,0 0.8671875,0.3984375 0.8671875,1.1367187 v 0.4335938 c -1.5,0.011719 -2.765625,0.4335937 -2.765625,1.3125 0,0.42187499 0.2695313,1.23046874 1.1367188,1.23046874 0.140625,0 1.078125,-0.01171875 1.6523437,-0.46875 V 4.296875e-4 h 0.75 z m -0.7734375,1.5703125 c 0,0.1875 0,0.43359374 -0.3398437,0.62109374 -0.2929688,0.1875 -0.6679688,0.1875 -0.7734375,0.1875 -0.4804688,0 -0.9257813,-0.22265625 -0.9257813,-0.64453124 0,-0.6914063 1.6054688,-0.7617188 2.0390625,-0.7851563 z m 3.3339841,-2.53125 h 1.40625 v -0.5742188 h -1.40625 v -1.265625 h -0.691406 v 1.265625 h -0.867187 v 0.5742188 h 0.84375 v 2.6601562 c 0,0.59765629 0.128906,1.28906254 0.820312,1.28906254 0.703125,0 1.207031,-0.24609375 1.453125,-0.375 l -0.152344,-0.5859375 c -0.257812,0.2109375 -0.585937,0.328125 -0.902343,0.328125 -0.363282,0 -0.503907,-0.3046875 -0.503907,-0.83203124 z m 5.824219,0.9609375 c 0,-1.0078125 -0.726562,-1.7109375 -1.640625,-1.7109375 -0.644531,0 -1.101562,0.1640625 -1.570312,0.4335937 l 0.07031,0.65625 c 0.515625,-0.375 1.007813,-0.5039062 1.5,-0.5039062 0.46875,0 0.867188,0.3984375 0.867188,1.1367187 v 0.4335938 c -1.5,0.011719 -2.765625,0.4335937 -2.765625,1.3125 0,0.42187499 0.269531,1.23046874 1.136718,1.23046874 0.140625,0 1.078125,-0.01171875 1.652344,-0.46875 V 4.296875e-4 h 0.75 z m -0.773437,1.5703125 c 0,0.1875 0,0.43359374 -0.339844,0.62109374 -0.292969,0.1875 -0.667969,0.1875 -0.773438,0.1875 -0.480468,0 -0.925781,-0.22265625 -0.925781,-0.64453124 0,-0.6914063 1.605469,-0.7617188 2.039063,-0.7851563 z m 0,0"
       style="fill:#000000;fill-opacity:1;fill-rule:nonzero;stroke:none"
       aria-label="data"
       transform="matrix(1.3333333,0,0,1.3333333,24.045333,113.25333)" />
    <path
       id="path16"
       d="m 0,-53.14656 46.05023,-6.7e-4 1.77115,-5.31348 L 46.05023,-63.7742 0,-63.77353"
       style="fill:none;stroke:#000000;stroke-width:0.66414;stroke-linecap:round;stroke-linejoin:round;stroke-miterlimit:10;stroke-dasharray:none;stroke-opacity:1"
       transform="matrix(1.3333333,0,0,-1.3333333,57.918667,28.221333)" />
    <path
       id="path17"
       d="m 47.82138,-58.45938 1.77116,5.31348 24.79631,-6.6e-4 1.77115,-5.31349 -1.77115,-5.31351 -24.79631,0.0014 -1.77116,5.31348"
       style="fill:none;stroke:#000000;stroke-width:0.66414;stroke-linecap:round;stroke-linejoin:round;stroke-miterlimit:10;stroke-dasharray:none;stroke-opacity:1"
       transform="matrix(1.3333333,0,0,-1.3333333,57.918667,28.221333)" />
    <path
       id="path18"
       d="M 4.3155729,-6.913737 H 3.5733854 v 2.9296875 c -0.5273437,-0.4296875 -1.09375,-0.546875 -1.4453125,-0.546875 -0.9960937,0 -1.77734373,1.0351563 -1.77734373,2.3242188 0,1.30859372 0.78125003,2.32421872 1.71875003,2.32421872 0.3320312,0 0.9179687,-0.09765625 1.484375,-0.64453125 V 3.2552083e-4 h 0.7617187 z m -0.7617187,5.5273438 c 0,0.1367187 -0.019531,0.3125 -0.3320313,0.60546872 -0.234375,0.1953125 -0.4882812,0.29296875 -0.7421875,0.29296875 -0.625,0 -1.3476562,-0.46875 -1.3476562,-1.71874997 0,-1.3085938 0.859375,-1.71875 1.4453125,-1.71875 0.4492187,0 0.7421875,0.234375 0.9765625,0.546875 z m 5.5566406,-1.484375 c 0,-1.015625 -0.7226563,-1.71875 -1.640625,-1.71875 -0.6445313,0 -1.09375,0.15625 -1.5625,0.4296875 l 0.058594,0.6445312 c 0.5273438,-0.3515625 1.015625,-0.4882812 1.5039063,-0.4882812 0.46875,0 0.8789062,0.390625 0.8789062,1.1328125 v 0.4296875 c -1.5039062,0.019531 -2.7734375,0.4296875 -2.7734375,1.3085937 0,0.42968752 0.2734375,1.25000002 1.1523438,1.25000002 0.1367187,0 1.0742187,-0.01953125 1.640625,-0.46875 V 3.2552083e-4 h 0.7421875 z m -0.7617188,1.5625 c 0,0.1757812 0,0.42968747 -0.3515625,0.62499997 -0.2734375,0.17578125 -0.6640625,0.1953125 -0.7617187,0.1953125 -0.4882813,0 -0.9375,-0.234375 -0.9375,-0.66406247 0,-0.6835938 1.6210937,-0.7617188 2.0507812,-0.78125 z m 3.325195,-2.5390625 h 1.40625 V -4.413737 h -1.40625 v -1.2695312 h -0.683593 v 1.2695312 h -0.859375 v 0.5664063 h 0.839843 v 2.65625 c 0,0.60546872 0.136719,1.30859372 0.820313,1.30859372 0.703125,0 1.210937,-0.25390625 1.445312,-0.390625 l -0.15625,-0.5859375 c -0.253906,0.21484375 -0.566406,0.33203125 -0.898437,0.33203125 -0.371094,0 -0.507813,-0.29296875 -0.507813,-0.82031247 z m 5.825196,0.9765625 c 0,-1.015625 -0.722657,-1.71875 -1.640625,-1.71875 -0.644532,0 -1.09375,0.15625 -1.5625,0.4296875 l 0.05859,0.6445312 c 0.527344,-0.3515625 1.015625,-0.4882812 1.503907,-0.4882812 0.46875,0 0.878906,0.390625 0.878906,1.1328125 v 0.4296875 c -1.503906,0.019531 -2.773438,0.4296875 -2.773438,1.3085937 0,0.42968752 0.273438,1.25000002 1.152344,1.25000002 0.136719,0 1.074219,-0.01953125 1.640625,-0.46875 V 3.2552083e-4 h 0.742188 z m -0.761719,1.5625 c 0,0.1757812 0,0.42968747 -0.351563,0.62499997 -0.273437,0.17578125 -0.664062,0.1953125 -0.761718,0.1953125 -0.488282,0 -0.9375,-0.234375 -0.9375,-0.66406247 0,-0.6835938 1.621093,-0.7617188 2.050781,-0.78125 z M 22.87026,-3.241862 c 0,-0.8007812 -0.03906,-1.71875 -0.449218,-2.5195312 -0.410157,-0.7617188 -1.09375,-0.9960938 -1.621094,-0.9960938 -0.585938,0 -1.269531,0.2734375 -1.679688,1.1523438 -0.332031,0.7421875 -0.390625,1.5625 -0.390625,2.3632812 0,0.78125 0.03906,1.5039063 0.351563,2.2265625 0.390625,0.95703127 1.152344,1.23046877 1.71875,1.23046877 0.722656,0 1.347656,-0.41015625 1.679687,-1.09375 C 22.772604,-1.523112 22.87026,-2.1871745 22.87026,-3.241862 Z m -2.070312,2.85156252 c -0.507813,0 -0.917969,-0.37109375 -1.113281,-1.09375002 -0.15625,-0.5664062 -0.175782,-1.1132812 -0.175782,-1.875 0,-0.6445312 0,-1.2304687 0.175782,-1.7773437 0.05859,-0.1953125 0.3125,-1.015625 1.113281,-1.015625 0.78125,0 1.035156,0.7617187 1.113281,0.9375 0.175781,0.5664062 0.175781,1.2304687 0.175781,1.8554687 0,0.6445313 0,1.2695313 -0.175781,1.9140625 -0.253906,0.89843752 -0.78125,1.05468752 -1.113281,1.05468752 z m 0,0"
       style="fill:#000000;fill-opacity:1;fill-rule:nonzero;stroke:none"
       aria-label="data0"
       transform="matrix(0.8,0,0,0.8,131.25067,108.93333)" />
    <path
       id="path19"
       d="m 76.16,-58.45872 1.77115,5.31347 24.79631,-6.5e-4 1.77117,-5.31348 -1.77117,-5.31351 -24.79631,0.0013 -1.77115,5.3135"
       style="fill:none;stroke:#000000;stroke-width:0.66414;stroke-linecap:round;stroke-linejoin:round;stroke-miterlimit:10;stroke-dasharray:none;stroke-opacity:1"
       transform="matrix(1.3333333,0,0,-1.3333333,57.918667,28.221333)" />
    <path
       id="path20"
       d="M 4.3153516,-6.913737 H 3.5731641 v 2.9296875 c -0.5273438,-0.4296875 -1.09375,-0.546875 -1.4453125,-0.546875 -0.9960938,0 -1.77734379,1.0351563 -1.77734379,2.3242188 0,1.30859372 0.78124999,2.32421872 1.71874999,2.32421872 0.3320313,0 0.9179688,-0.09765625 1.484375,-0.64453125 V 3.2552083e-4 h 0.7617188 z m -0.7617188,5.5273438 c 0,0.1367187 -0.019531,0.3125 -0.3320312,0.60546872 -0.234375,0.1953125 -0.4882813,0.29296875 -0.7421875,0.29296875 -0.625,0 -1.3476563,-0.46875 -1.3476563,-1.71874997 0,-1.3085938 0.859375,-1.71875 1.4453125,-1.71875 0.4492188,0 0.7421875,0.234375 0.9765625,0.546875 z m 5.5566406,-1.484375 c 0,-1.015625 -0.7226562,-1.71875 -1.640625,-1.71875 -0.6445312,0 -1.09375,0.15625 -1.5625,0.4296875 l 0.058594,0.6445312 c 0.5273437,-0.3515625 1.015625,-0.4882812 1.5039062,-0.4882812 0.46875,0 0.8789063,0.390625 0.8789063,1.1328125 v 0.4296875 c -1.5039063,0.019531 -2.7734375,0.4296875 -2.7734375,1.3085937 0,0.42968752 0.2734375,1.25000002 1.1523437,1.25000002 0.1367188,0 1.0742188,-0.01953125 1.640625,-0.46875 V 3.2552083e-4 h 0.7421875 z m -0.7617187,1.5625 c 0,0.1757812 0,0.42968747 -0.3515625,0.62499997 -0.2734375,0.17578125 -0.6640625,0.1953125 -0.7617188,0.1953125 -0.4882812,0 -0.9375,-0.234375 -0.9375,-0.66406247 0,-0.6835938 1.6210938,-0.7617188 2.0507813,-0.78125 z M 11.67375,-3.8473307 H 13.08 V -4.413737 h -1.40625 v -1.2695312 h -0.683594 v 1.2695312 h -0.859375 v 0.5664063 h 0.839844 v 2.65625 c 0,0.60546872 0.136719,1.30859372 0.820312,1.30859372 0.703125,0 1.210938,-0.25390625 1.445313,-0.390625 L 13.08,-0.85904948 c -0.253906,0.21484375 -0.566406,0.33203125 -0.898438,0.33203125 -0.371093,0 -0.507812,-0.29296875 -0.507812,-0.82031247 z m 5.825195,0.9765625 c 0,-1.015625 -0.722656,-1.71875 -1.640625,-1.71875 -0.644531,0 -1.09375,0.15625 -1.5625,0.4296875 l 0.05859,0.6445312 c 0.527344,-0.3515625 1.015625,-0.4882812 1.503906,-0.4882812 0.46875,0 0.878907,0.390625 0.878907,1.1328125 v 0.4296875 c -1.503907,0.019531 -2.773438,0.4296875 -2.773438,1.3085937 0,0.42968752 0.273438,1.25000002 1.152344,1.25000002 0.136719,0 1.074219,-0.01953125 1.640625,-0.46875 V 3.2552083e-4 h 0.742187 z m -0.761718,1.5625 c 0,0.1757812 0,0.42968747 -0.351563,0.62499997 -0.273437,0.17578125 -0.664062,0.1953125 -0.761719,0.1953125 -0.488281,0 -0.9375,-0.234375 -0.9375,-0.66406247 0,-0.6835938 1.621094,-0.7617188 2.050782,-0.78125 z m 4.550781,-5.4492188 h -0.195313 c -0.585937,0.6054688 -1.40625,0.6445313 -1.894531,0.6640625 v 0.5664063 c 0.332031,0 0.820313,-0.019531 1.308594,-0.234375 v 5.17578122 h -1.25 V 3.2552083e-4 h 3.28125 V -0.58561198 h -1.25 z m 0,0"
       style="fill:#000000;fill-opacity:1;fill-rule:nonzero;stroke:none"
       aria-label="data1"
       transform="matrix(0.8,0,0,0.8,169.036,108.93333)" />
    <path
       id="path21"
       d="m 104.49863,-58.45805 1.77115,5.31346 53.13492,-6.6e-4 1.77116,-5.31347 -1.77116,-5.31351 -53.13492,0.0014 -1.77115,5.31346"
       style="fill:none;stroke:#000000;stroke-width:0.66414;stroke-linecap:round;stroke-linejoin:round;stroke-miterlimit:10;stroke-dasharray:none;stroke-opacity:1"
       transform="matrix(1.3333333,0,0,-1.3333333,57.918667,28.221333)" />
    <path
       id="path22"
       d="M 4.3150781,-6.9120703 H 3.5728906 v 2.9296875 c -0.5273437,-0.4296875 -1.09375,-0.546875 -1.4453125,-0.546875 -0.9960937,0 -1.77734372,1.0351562 -1.77734372,2.3242187 0,1.30859379 0.78125002,2.32421879 1.71875002,2.32421879 0.3320312,0 0.9179687,-0.09765625 1.484375,-0.64453125 v 0.52734375 h 0.7617187 z m -0.7617187,5.5273437 c 0,0.1367188 -0.019531,0.3125 -0.3320313,0.60546879 -0.234375,0.1953125 -0.4882812,0.29296875 -0.7421875,0.29296875 -0.625,0 -1.3476562,-0.46875 -1.3476562,-1.71875004 0,-1.3085937 0.859375,-1.71875 1.4453125,-1.71875 0.4492187,0 0.7421875,0.234375 0.9765625,0.546875 z m 5.5615234,-1.484375 c 0,-1.015625 -0.7226562,-1.71875 -1.640625,-1.71875 -0.6445312,0 -1.09375,0.15625 -1.5625,0.4296875 l 0.058594,0.6445313 c 0.5273437,-0.3515625 1.015625,-0.4882813 1.5039062,-0.4882813 0.46875,0 0.8789063,0.390625 0.8789063,1.1328125 v 0.4296875 c -1.5039063,0.019531 -2.7734375,0.4296875 -2.7734375,1.3085938 0,0.42968749 0.2734375,1.24999999 1.1523437,1.24999999 0.1367188,0 1.0742188,-0.01953125 1.640625,-0.46875 v 0.3515625 H 9.114883 Z m -0.7617187,1.5625 c 0,0.1757813 0,0.42968754 -0.3515625,0.62500004 -0.2734375,0.17578125 -0.6640625,0.1953125 -0.7617188,0.1953125 -0.4882812,0 -0.9375,-0.234375 -0.9375,-0.66406254 0,-0.6835937 1.6210938,-0.7617187 2.0507813,-0.78125 z m 3.3203129,-2.5390625 h 1.40625 v -0.5664062 h -1.40625 v -1.2695313 h -0.683594 v 1.2695313 h -0.859375 v 0.5664062 h 0.839844 v 2.65625 c 0,0.60546879 0.136718,1.30859379 0.820312,1.30859379 0.703125,0 1.210938,-0.25390625 1.445313,-0.390625 l -0.15625,-0.5859375 c -0.253907,0.21484375 -0.566407,0.33203125 -0.898438,0.33203125 -0.371094,0 -0.507812,-0.29296875 -0.507812,-0.82031254 z m 5.825195,0.9765625 c 0,-1.015625 -0.722656,-1.71875 -1.640625,-1.71875 -0.644531,0 -1.09375,0.15625 -1.5625,0.4296875 l 0.05859,0.6445313 c 0.527343,-0.3515625 1.015625,-0.4882813 1.503906,-0.4882813 0.46875,0 0.878906,0.390625 0.878906,1.1328125 v 0.4296875 c -1.503906,0.019531 -2.773437,0.4296875 -2.773437,1.3085938 0,0.42968749 0.273437,1.24999999 1.152343,1.24999999 0.136719,0 1.074219,-0.01953125 1.640625,-0.46875 v 0.3515625 h 0.742188 z m -0.761719,1.5625 c 0,0.1757813 0,0.42968754 -0.351562,0.62500004 -0.273438,0.17578125 -0.664063,0.1953125 -0.761719,0.1953125 -0.488281,0 -0.9375,-0.234375 -0.9375,-0.66406254 0,-0.6835937 1.621094,-0.7617187 2.050781,-0.78125 z m 3.320313,-0.5664062 -1.25,1.23046874 v 0.64453125 h 3.984375 v -0.703125 h -1.816407 c -0.117187,0 -0.234375,0 -0.351562,0 h -1.09375 c 0.332031,-0.2734375 1.074219,-1.01562499 1.386719,-1.30859379 0.195312,-0.1757812 0.703125,-0.6054687 0.878906,-0.78125 0.449219,-0.4492187 0.996094,-0.9765625 0.996094,-1.8164062 0,-1.1523438 -0.800782,-2.1484375 -2.128907,-2.1484375 -1.132812,0 -1.679687,0.78125 -1.933593,1.640625 0.136718,0.1757812 0.175781,0.234375 0.195312,0.2539062 0.01953,0.019531 0.117188,0.15625 0.214844,0.2929688 0.214844,-0.7617188 0.488281,-1.5429688 1.386719,-1.5429688 0.9375,0 1.445312,0.7421875 1.445312,1.5234375 0,0.8398438 -0.566406,1.40625 -1.152344,2.0117188 z m 0,0"
       style="fill:#000000;fill-opacity:1;fill-rule:nonzero;stroke:none"
       aria-label="data2"
       transform="matrix(0.8,0,0,0.8,225.712,108.932)" />
    <path
       id="path23"
       d="m 161.17586,-58.45741 1.77114,5.31349 53.13492,-6.7e-4 1.77117,-5.31346 -1.77117,-5.31351 -53.13492,0.0013 -1.77114,5.31348"
       style="fill:none;stroke:#000000;stroke-width:0.66414;stroke-linecap:round;stroke-linejoin:round;stroke-miterlimit:10;stroke-dasharray:none;stroke-opacity:1"
       transform="matrix(1.3333333,0,0,-1.3333333,57.918667,28.221333)" />
    <path
       id="path24"
       d="m 4.3370703,-4.4152865 h -0.78125 v 2.8710938 c 0,0.76171874 -0.546875,1.11328124 -1.1914062,1.11328124 -0.703125,0 -0.78125,-0.2734375 -0.78125,-0.70312504 v -3.28125 H 0.80191406 v 3.3203125 c 0,0.72265629 0.23437504,1.21093754 1.05468754,1.21093754 0.5273437,0 1.25,-0.17578125 1.7382812,-0.5859375 v 0.46875 h 0.7421875 z m 5.1464844,1.4453125 c 0,-0.6640625 -0.15625,-1.5625 -1.3671875,-1.5625 -0.8984375,0 -1.3867188,0.6835938 -1.4453125,0.7617188 v -0.703125 H 5.9483984 v 4.47265624 h 0.78125 V -2.4426302 c 0,-0.6640625 0.2539063,-1.484375 1.015625,-1.484375 0.9570313,0 0.9570313,0.703125 0.9570313,1.0351562 v 2.89062504 h 0.78125 z M 14.610508,-6.9152865 H 13.86832 v 2.9296875 c -0.527343,-0.4296875 -1.09375,-0.546875 -1.445312,-0.546875 -0.996094,0 -1.777344,1.0351563 -1.777344,2.3242188 0,1.30859374 0.78125,2.32421874 1.71875,2.32421874 0.332031,0 0.917969,-0.09765625 1.484375,-0.64453125 v 0.52734375 h 0.761719 z m -0.761719,5.5273438 c 0,0.1367187 -0.01953,0.3125 -0.332031,0.60546874 -0.234375,0.1953125 -0.488281,0.29296875 -0.742188,0.29296875 -0.625,0 -1.347656,-0.46875 -1.347656,-1.71874999 0,-1.3085938 0.859375,-1.71875 1.445313,-1.71875 0.449218,0 0.742187,0.234375 0.976562,0.546875 z M 19.56168,-2.188724 c 0,-0.3320312 0,-1.0742187 -0.390625,-1.6796875 -0.410157,-0.6054687 -1.015625,-0.7226562 -1.386719,-0.7226562 -1.09375,0 -1.992188,1.0546875 -1.992188,2.34375 0,1.30859374 0.957032,2.36328124 2.148438,2.36328124 0.625,0 1.191406,-0.25390625 1.582031,-0.52734375 l -0.05859,-0.64453129 c -0.625,0.50781254 -1.289062,0.56640629 -1.503906,0.56640629 -0.800781,0 -1.445312,-0.72265629 -1.464844,-1.69921879 z m -3.027344,-0.546875 c 0.15625,-0.7421875 0.683594,-1.25 1.25,-1.25 0.527344,0 1.074219,0.3320313 1.210937,1.25 z m 7.885742,-4.1796875 h -0.820312 v 0.8203125 h 0.820312 z m -0.03906,2.5 H 23.63883 v 4.41406254 h 0.742188 z m -2.753907,0.5664063 h 1.171875 V -4.4152865 H 21.588047 V -5.626224 c 0,-0.6445312 0.371094,-0.78125 0.605469,-0.78125 0.214843,0 0.429687,0.058594 0.605468,0.1757813 v -0.6835938 c -0.05859,-0.019531 -0.3125,-0.1171875 -0.605468,-0.1171875 -0.722657,0 -1.308594,0.703125 -1.308594,1.6992188 v 0.9179687 h -0.742188 v 0.5664063 h 0.742188 v 3.84765624 h 0.742187 z m 7.919922,0.8789062 c 0,-0.6640625 -0.15625,-1.5625 -1.367187,-1.5625 -0.898438,0 -1.386719,0.6835938 -1.445313,0.7617188 v -0.703125 h -0.722656 v 4.47265624 h 0.78125 V -2.4426302 c 0,-0.6640625 0.253906,-1.484375 1.015625,-1.484375 0.957031,0 0.957031,0.703125 0.957031,1.0351562 v 2.89062504 h 0.78125 z m 4.931641,0.78125 c 0,-0.3320312 0,-1.0742187 -0.390625,-1.6796875 -0.410156,-0.6054687 -1.015625,-0.7226562 -1.386719,-0.7226562 -1.09375,0 -1.992187,1.0546875 -1.992187,2.34375 0,1.30859374 0.957031,2.36328124 2.148437,2.36328124 0.625,0 1.191406,-0.25390625 1.582031,-0.52734375 l -0.05859,-0.64453129 c -0.625,0.50781254 -1.289063,0.56640629 -1.503907,0.56640629 -0.800781,0 -1.445312,-0.72265629 -1.464843,-1.69921879 z M 31.45133,-2.735599 c 0.15625,-0.7421875 0.683594,-1.25 1.25,-1.25 0.527344,0 1.074219,0.3320313 1.210938,1.25 z m 7.651367,-4.1796875 H 38.36051 v 2.9296875 c -0.527344,-0.4296875 -1.09375,-0.546875 -1.445313,-0.546875 -0.996093,0 -1.777343,1.0351563 -1.777343,2.3242188 0,1.30859374 0.78125,2.32421874 1.71875,2.32421874 0.332031,0 0.917968,-0.09765625 1.484375,-0.64453125 v 0.52734375 h 0.761718 z m -0.761718,5.5273438 c 0,0.1367187 -0.01953,0.3125 -0.332032,0.60546874 -0.234375,0.1953125 -0.488281,0.29296875 -0.742187,0.29296875 -0.625,0 -1.347656,-0.46875 -1.347656,-1.71874999 0,-1.3085938 0.859375,-1.71875 1.445312,-1.71875 0.449219,0 0.742188,0.234375 0.976563,0.546875 z m 0,0"
       style="fill:#000000;fill-opacity:1;fill-rule:nonzero;stroke:none"
       aria-label="undefned"
       transform="matrix(0.8,0,0,0.8,294.628,108.93067)" />
    <path
       id="path25"
       d="m 217.85309,-58.45674 1.77115,5.31348 53.13493,-6.6e-4 1.77115,-5.31349 -1.77115,-5.31349 -53.13493,0.0013 -1.77115,5.31347"
       style="fill:none;stroke:#000000;stroke-width:0.66414;stroke-linecap:round;stroke-linejoin:round;stroke-miterlimit:10;stroke-dasharray:none;stroke-opacity:1"
       transform="matrix(1.3333333,0,0,-1.3333333,57.918667,28.221333)" />
    <path
       id="path26"
       d="M 4.3143099,-6.9152865 H 3.5721224 v 2.9296875 c -0.5273438,-0.4296875 -1.09375,-0.546875 -1.4453125,-0.546875 -0.9960938,0 -1.77734375,1.0351563 -1.77734375,2.3242188 0,1.30859374 0.78124995,2.32421874 1.71874995,2.32421874 0.3320313,0 0.9179688,-0.09765625 1.484375,-0.64453125 v 0.52734375 h 0.7617188 z m -0.7617188,5.5273438 c 0,0.1367187 -0.019531,0.3125 -0.3320312,0.60546874 -0.234375,0.1953125 -0.4882813,0.29296875 -0.7421875,0.29296875 -0.625,0 -1.3476563,-0.46875 -1.3476563,-1.71874999 0,-1.3085938 0.859375,-1.71875 1.4453125,-1.71875 0.4492188,0 0.7421875,0.234375 0.9765625,0.546875 z m 5.5615235,-1.484375 c 0,-1.015625 -0.7226563,-1.71875 -1.640625,-1.71875 -0.6445313,0 -1.09375,0.15625 -1.5625,0.4296875 l 0.058594,0.6445312 c 0.5273438,-0.3515625 1.015625,-0.4882812 1.5039063,-0.4882812 0.46875,0 0.8789062,0.390625 0.8789062,1.1328125 v 0.4296875 c -1.5039062,0.019531 -2.7734375,0.4296875 -2.7734375,1.3085937 0,0.42968754 0.2734375,1.25000004 1.1523438,1.25000004 0.1367187,0 1.0742187,-0.01953125 1.640625,-0.46875 v 0.3515625 h 0.7421875 z m -0.7617188,1.5625 c 0,0.1757812 0,0.42968749 -0.3515625,0.62499999 -0.2734375,0.17578125 -0.6640625,0.1953125 -0.7617187,0.1953125 -0.4882813,0 -0.9375,-0.234375 -0.9375,-0.66406249 0,-0.6835938 1.6210937,-0.7617188 2.0507812,-0.78125 z m 3.3203122,-2.5390625 h 1.40625 v -0.5664063 h -1.40625 v -1.2695312 h -0.683593 v 1.2695312 H 10.12974 v 0.5664063 h 0.839843 v 2.65625 c 0,0.60546874 0.136719,1.30859374 0.820313,1.30859374 0.703125,0 1.210937,-0.25390625 1.445312,-0.390625 l -0.15625,-0.5859375 c -0.253906,0.21484375 -0.566406,0.33203125 -0.898437,0.33203125 -0.371094,0 -0.507813,-0.29296875 -0.507813,-0.82031249 z m 5.825196,0.9765625 c 0,-1.015625 -0.722657,-1.71875 -1.640625,-1.71875 -0.644532,0 -1.09375,0.15625 -1.5625,0.4296875 l 0.05859,0.6445312 c 0.527344,-0.3515625 1.015625,-0.4882812 1.503907,-0.4882812 0.46875,0 0.878906,0.390625 0.878906,1.1328125 v 0.4296875 c -1.503906,0.019531 -2.773438,0.4296875 -2.773438,1.3085937 0,0.42968754 0.273438,1.25000004 1.152344,1.25000004 0.136719,0 1.074219,-0.01953125 1.640625,-0.46875 v 0.3515625 h 0.742188 z m -0.761719,1.5625 c 0,0.1757812 0,0.42968749 -0.351563,0.62499999 -0.273437,0.17578125 -0.664062,0.1953125 -0.761718,0.1953125 -0.488282,0 -0.9375,-0.234375 -0.9375,-0.66406249 0,-0.6835938 1.621093,-0.7617188 2.050781,-0.78125 z m 2.504883,-3.8085938 c 0.292968,-0.703125 0.9375,-1.0546875 1.542968,-1.0546875 0.507813,0 0.996094,0.2929688 0.996094,0.9375 0,0.6054688 -0.390625,1.1914063 -1.015625,1.328125 -0.05859,0.019531 -0.07813,0.019531 -0.78125,0.078125 v 0.6054688 h 0.703125 c 1.074219,0 1.308594,0.9179687 1.308594,1.4257812 0,0.7617188 -0.46875,1.40625004 -1.230469,1.40625004 -0.683594,0 -1.484375,-0.3515625 -1.914062,-1.01562504 l -0.117188,0.58593754 c 0.742188,0.9375 1.660156,1.03515625 2.050781,1.03515625 1.210938,0 2.089844,-0.95703125 2.089844,-2.01171879 0,-0.8984375 -0.703125,-1.5234375 -1.367187,-1.7382812 0.742187,-0.390625 1.09375,-1.0742188 1.09375,-1.6992188 0,-0.859375 -0.820313,-1.5234375 -1.816407,-1.5234375 -0.761718,0 -1.484375,0.4101563 -1.894531,1.09375 z m 0,0"
       style="fill:#000000;fill-opacity:1;fill-rule:nonzero;stroke:none"
       aria-label="data3"
       transform="matrix(0.8,0,0,0.8,376.84933,108.93067)" />
    <path
       id="path27"
       d="m 274.53032,-58.45541 1.77115,5.31347 17.71165,-0.0013 m 0,-10.62697 -17.71165,0.0013 -1.77115,5.31349"
       style="fill:none;stroke:#000000;stroke-width:0.66414;stroke-linecap:round;stroke-linejoin:round;stroke-miterlimit:10;stroke-dasharray:none;stroke-opacity:1"
       transform="matrix(1.3333333,0,0,-1.3333333,57.918667,28.221333)" />
    <path
       id="path28"
       d="M 4.3140495,-6.9119531 H 3.571862 v 2.9296875 c -0.5273438,-0.4296875 -1.09375,-0.546875 -1.4453125,-0.546875 -0.9960938,0 -1.77734377,1.0351562 -1.77734377,2.3242187 0,1.30859377 0.78124997,2.32421877 1.71874997,2.32421877 0.3320313,0 0.9179688,-0.09765625 1.484375,-0.64453125 v 0.52734375 h 0.7617188 z m -0.7617188,5.5273437 c 0,0.1367188 -0.019531,0.3125 -0.3320312,0.60546877 -0.234375,0.1953125 -0.4882813,0.29296875 -0.7421875,0.29296875 -0.625,0 -1.3476563,-0.46875 -1.3476563,-1.71875002 0,-1.3085937 0.859375,-1.71875 1.4453125,-1.71875 0.4492188,0 0.7421875,0.234375 0.9765625,0.546875 z m 5.5615235,-1.484375 c 0,-1.015625 -0.7226563,-1.71875 -1.640625,-1.71875 -0.6445313,0 -1.09375,0.15625 -1.5625,0.4296875 l 0.058594,0.6445313 c 0.5273438,-0.3515625 1.015625,-0.4882813 1.5039063,-0.4882813 0.46875,0 0.8789062,0.390625 0.8789062,1.1328125 v 0.4296875 c -1.5039062,0.019531 -2.7734375,0.4296875 -2.7734375,1.3085938 0,0.42968747 0.2734375,1.24999997 1.1523438,1.24999997 0.1367187,0 1.0742187,-0.01953125 1.640625,-0.46875 v 0.3515625 h 0.7421875 z m -0.7617188,1.5625 c 0,0.1757813 0,0.42968752 -0.3515625,0.62500002 -0.2734375,0.17578125 -0.6640625,0.1953125 -0.7617187,0.1953125 -0.4882813,0 -0.9375,-0.234375 -0.9375,-0.66406252 0,-0.6835937 1.6210937,-0.7617187 2.0507812,-0.78125 z m 3.3203126,-2.5390625 h 1.40625 v -0.5664062 h -1.40625 v -1.2695313 h -0.683594 v 1.2695313 h -0.859375 v 0.5664062 h 0.839844 v 2.65625 c 0,0.60546877 0.136719,1.30859377 0.820312,1.30859377 0.703125,0 1.210938,-0.25390625 1.445313,-0.390625 l -0.15625,-0.5859375 c -0.253906,0.21484375 -0.566406,0.33203125 -0.898438,0.33203125 -0.371093,0 -0.507812,-0.29296875 -0.507812,-0.82031252 z m 5.825195,0.9765625 c 0,-1.015625 -0.722656,-1.71875 -1.640625,-1.71875 -0.644531,0 -1.09375,0.15625 -1.5625,0.4296875 l 0.05859,0.6445313 c 0.527344,-0.3515625 1.015625,-0.4882813 1.503906,-0.4882813 0.46875,0 0.878906,0.390625 0.878906,1.1328125 v 0.4296875 c -1.503906,0.019531 -2.773437,0.4296875 -2.773437,1.3085938 0,0.42968747 0.273437,1.24999997 1.152344,1.24999997 0.136718,0 1.074218,-0.01953125 1.640625,-0.46875 v 0.3515625 h 0.742187 z m -0.761719,1.5625 c 0,0.1757813 0,0.42968752 -0.351562,0.62500002 -0.273438,0.17578125 -0.664063,0.1953125 -0.761719,0.1953125 -0.488281,0 -0.9375,-0.234375 -0.9375,-0.66406252 0,-0.6835937 1.621094,-0.7617187 2.050781,-0.78125 z m 5.297852,-0.390625 h 0.976563 v -0.6054687 h -0.976563 v -4.2382813 h -0.917969 l -2.519531,4.2382813 v 0.6054687 h 2.636719 v 1.69921877 h 0.800781 z m -2.65625,-0.6054687 c 0.527344,-0.859375 1.914063,-3.2226563 1.914063,-3.7890625 v 3.7890625 z m 0,0"
       style="fill:#000000;fill-opacity:1;fill-rule:nonzero;stroke:none"
       aria-label="data4"
       transform="matrix(0.8,0,0,0.8,428.80267,108.928)" />
    <path
       id="path29"
       d="m 14.1693,15.94044 v -85.05212 m 28.33862,85.05212 v -85.05212 m 28.33861,85.05212 v -85.05212 m 28.33862,85.05212 v -85.05212 m 28.33861,85.05212 v -85.05212 m 28.33862,85.05212 v -85.05212 m 28.33861,85.05212 v -85.05212 m 28.33862,85.05212 v -85.05212 m 28.33862,85.05212 v -85.05212 m 28.33861,85.05212 v -85.05212"
       style="fill:none;stroke:#808080;stroke-width:0.59776;stroke-linecap:round;stroke-linejoin:round;stroke-miterlimit:10;stroke-dasharray:none;stroke-opacity:0.5"
       transform="matrix(1.3333333,0,0,-1.3333333,57.918667,28.221333)" />
    <path
       id="path30"
       d="m 42.50792,15.94044 v -85.05212 m 28.33861,85.05212 v -85.05212 m 28.33862,85.05212 v -85.05212 m 28.33861,85.05212 v -85.05212 m 28.33862,85.05212 v -85.05212 m 28.33861,85.05212 v -85.05212 m 28.33862,85.05212 v -85.05212 m 28.33862,85.05212 v -85.05212 m 28.33861,85.05212 v -85.05212"
       style="fill:none;stroke:#ff0000;stroke-width:0.49815;stroke-linecap:round;stroke-linejoin:round;stroke-miterlimit:10;stroke-dasharray:2.98883, 2.98883;stroke-dashoffset:0;stroke-opacity:0.75"
       transform="matrix(1.3333333,0,0,-1.3333333,57.918667,28.221333)" />
  </g>
</svg>
