<?xml version="1.0" encoding="UTF-8" standalone="no"?>
<!-- Created with Inkscape (http://www.inkscape.org/) -->

<svg
   version="1.1"
   id="svg1"
   width="386.57867"
   height="184.06799"
   viewBox="0 0 386.57867 184.06799"
   sodipodi:docname="main.pdf"
   xmlns:inkscape="http://www.inkscape.org/namespaces/inkscape"
   xmlns:sodipodi="http://sodipodi.sourceforge.net/DTD/sodipodi-0.dtd"
   xmlns="http://www.w3.org/2000/svg"
   xmlns:svg="http://www.w3.org/2000/svg">
  <defs
     id="defs1" />
  <sodipodi:namedview
     id="namedview1"
     pagecolor="#ffffff"
     bordercolor="#000000"
     borderopacity="0.25"
     inkscape:showpageshadow="2"
     inkscape:pageopacity="0.0"
     inkscape:pagecheckerboard="0"
     inkscape:deskcolor="#d1d1d1">
    <inkscape:page
       x="0"
       y="0"
       inkscape:label="1"
       id="page1"
       width="386.57867"
       height="184.06799"
       margin="0"
       bleed="0" />
  </sodipodi:namedview>
  <g
     id="g1"
     inkscape:groupmode="layer"
     inkscape:label="1">
    <path
       id="path1"
       d="M 0,0 H 289.934 V 138.051 H 0 Z"
       style="fill:#ffffff;fill-opacity:1;fill-rule:nonzero;stroke:none"
       transform="matrix(1.3333333,0,0,-1.3333333,0,184.068)" />
    <path
       id="path2"
       d="M -43.6315,-116.38524 V 20.66724 h 288.93762 v -137.05248 z"
       style="fill:#ffffff;fill-opacity:1;fill-rule:nonzero;stroke:none"
       transform="matrix(1.3333333,0,0,-1.3333333,58.841333,28.222667)" />
    <path
       id="path3"
       d="m 4.0900078,-4.1610938 c -0.5976562,-0.3398437 -0.9375,-0.4335937 -1.5351562,-0.4335937 -1.3945313,0 -2.19140629,1.2070312 -2.19140629,2.3789062 0,1.24218755 0.90234379,2.32031255 2.14453129,2.32031255 0.5390625,0 1.0898437,-0.140625 1.6289062,-0.50390625 l -0.058594,-0.6679688 c -0.515625,0.39843755 -1.0546875,0.53906255 -1.5585938,0.53906255 -0.8203125,0 -1.3828125,-0.71484375 -1.3828125,-1.69921875 0,-0.7734375 0.3632813,-1.7226563 1.4179688,-1.7226563 0.5273437,0 0.8671875,0.070312 1.40625,0.4335938 z M 5.9855156,-6.915 h -0.75 v 6.9140625 h 0.75 z m 3.6240235,4.2070312 1.6757809,-1.7109375 h -0.902343 l -2.0156254,2.0625 V -6.915 H 7.6407891 v 6.9140625 h 0.6914062 v -1.40625 L 9.1290703,-2.2275 10.687664,-9.375e-4 h 0.808594 z m 0,0"
       style="fill:#000000;fill-opacity:1;fill-rule:nonzero;stroke:none"
       aria-label="clk"
       transform="matrix(1.3333333,0,0,1.3333333,33.824,28.22)" />
    <path
       id="path4"
       d="M 0,0.00255 H 14.1693 V 10.62952 H 28.33861 V 0.00255 H 42.50792 V 10.62952 H 56.67723 V 0.00255 h 14.1693 V 10.62952 H 85.01584 V 0.00255 h 14.16931 v 10.62697 h 14.16931 V 0.00255 h 14.1693 v 10.62697 h 14.16931 V 0.00255 h 14.16931 V 10.62952 H 170.0317 V 0.00255 h 14.16929 V 10.62952 H 198.3703 V 0.00255 h 14.16931 v 10.62697 h 14.16931 V 0.00255 h 14.16931"
       style="fill:none;stroke:#000000;stroke-width:0.66414;stroke-linecap:round;stroke-linejoin:round;stroke-miterlimit:10;stroke-dasharray:none;stroke-opacity:1"
       transform="matrix(1.3333333,0,0,-1.3333333,58.841333,28.222667)" />
    <path
       id="path5"
       d="m 1.5577344,-2.1319375 c 0,-0.9960938 0.7265625,-1.7109375 1.6992187,-1.734375 v -0.6679688 c -0.890625,0.011719 -1.4296875,0.5039063 -1.7460937,0.9609375 V -4.4874063 H 0.81945313 V 8.75e-4 H 1.5577344 Z m 6.1699219,-4.78125 h -0.75 V -3.9835 c -0.5273438,-0.4335938 -1.078125,-0.5507813 -1.453125,-0.5507813 -0.984375,0 -1.7578125,1.0429688 -1.7578125,2.3203125 0,1.31250005 0.7617187,2.32031255 1.7109375,2.32031255 0.328125,0 0.9140625,-0.08203125 1.4765625,-0.62109375 V 8.75e-4 h 0.7734375 z m -0.7734375,5.53125 c 0,0.140625 -0.011719,0.3164062 -0.328125,0.609375 -0.234375,0.19921875 -0.4804688,0.26953125 -0.7382813,0.26953125 -0.6210937,0 -1.3476562,-0.45703125 -1.3476562,-1.69921875 0,-1.3125 0.8554687,-1.7226563 1.4414062,-1.7226563 0.4453125,0 0.75,0.234375 0.9726563,0.5507813 z m 0,0"
       style="fill:#000000;fill-opacity:1;fill-rule:nonzero;stroke:none"
       aria-label="rd"
       transform="matrix(1.3333333,0,0,1.3333333,37.993333,56.561333)" />
    <path
       id="path6"
       d="m 0,-21.25397 h 162.94704 l 1.77115,10.62697 h 26.56745 l 1.77117,-10.62697 h 47.82141"
       style="fill:none;stroke:#000000;stroke-width:0.66414;stroke-linecap:round;stroke-linejoin:round;stroke-miterlimit:10;stroke-dasharray:none;stroke-opacity:1"
       transform="matrix(1.3333333,0,0,-1.3333333,58.841333,28.222667)" />
    <path
       id="path7"
       d="m 1.5594609,-2.133125 c 0,-0.9960938 0.7265625,-1.7109375 1.6992188,-1.734375 V -4.5354688 C 2.3680547,-4.52375 1.8289922,-4.0315625 1.5125859,-3.5745313 V -4.4885938 H 0.82117969 V -3.125e-4 H 1.5594609 Z m 6.1699219,-4.78125 h -0.75 v 2.9296875 c -0.5273437,-0.4335938 -1.078125,-0.5507813 -1.453125,-0.5507813 -0.984375,0 -1.7578125,1.0429688 -1.7578125,2.3203125 0,1.31250005 0.7617188,2.32031255 1.7109375,2.32031255 0.328125,0 0.9140625,-0.08203125 1.4765625,-0.62109375 v 0.515625 h 0.7734375 z m -0.7734375,5.53125 c 0,0.140625 -0.011719,0.3164062 -0.328125,0.609375 -0.234375,0.19921875 -0.4804687,0.26953125 -0.7382812,0.26953125 -0.6210938,0 -1.3476563,-0.45703125 -1.3476563,-1.69921875 0,-1.3125 0.8554688,-1.7226563 1.4414063,-1.7226563 0.4453125,0 0.75,0.234375 0.9726562,0.5507813 z m 0,0"
       style="fill:#000000;fill-opacity:1;fill-rule:nonzero;stroke:none"
       aria-label="rd"
       transform="matrix(1.3333333,0,0,1.3333333,8.784,84.906667)" />
    <path
       id="path8"
       d="M 0,0 H 2.989"
       style="fill:none;stroke:#000000;stroke-width:0.398;stroke-linecap:butt;stroke-linejoin:round;stroke-miterlimit:10;stroke-dasharray:none;stroke-opacity:1"
       transform="matrix(1.3333333,0,0,-1.3333333,20.982667,84.641333)" />
    <path
       id="path9"
       d="m 4.3247813,-6.914375 h -0.75 v 2.9296875 c -0.5273438,-0.4335938 -1.078125,-0.5507813 -1.453125,-0.5507813 -0.984375,0 -1.75781255,1.0429688 -1.75781255,2.3203125 0,1.31250005 0.76171875,2.32031255 1.71093755,2.32031255 0.328125,0 0.9140625,-0.08203125 1.4765625,-0.62109375 v 0.515625 h 0.7734375 z m -0.7734375,5.53125 c 0,0.140625 -0.011719,0.3164062 -0.328125,0.609375 -0.234375,0.19921875 -0.4804688,0.26953125 -0.7382813,0.26953125 -0.6210937,0 -1.3476562,-0.45703125 -1.3476562,-1.69921875 0,-1.3125 0.8554687,-1.7226563 1.4414062,-1.7226563 0.4453125,0 0.75,0.234375 0.9726563,0.5507813 z m 5.5693359,-1.5 c 0,-1.0078125 -0.7265625,-1.7109375 -1.640625,-1.7109375 -0.6445313,0 -1.1015625,0.1640625 -1.5703125,0.4335937 l 0.070312,0.65625 c 0.515625,-0.375 1.0078125,-0.5039062 1.5,-0.5039062 0.46875,0 0.8671875,0.3984375 0.8671875,1.1367187 v 0.4335938 c -1.5,0.011719 -2.765625,0.4335937 -2.765625,1.3125 0,0.421875 0.2695312,1.23046875 1.1367187,1.23046875 0.140625,0 1.078125,-0.01171875 1.6523438,-0.46875 V -3.125e-4 h 0.75 z m -0.7734375,1.5703125 c 0,0.1875 0,0.43359375 -0.3398438,0.62109375 -0.2929687,0.1875 -0.6679687,0.1875 -0.7734375,0.1875 -0.4804687,0 -0.9257812,-0.22265625 -0.9257812,-0.64453125 0,-0.6914063 1.6054687,-0.7617188 2.0390625,-0.7851563 z m 3.3339848,-2.53125 h 1.40625 v -0.5742188 h -1.40625 v -1.265625 H 10.98982 v 1.265625 h -0.867187 v 0.5742188 h 0.84375 v 2.6601562 c 0,0.5976563 0.128906,1.28906255 0.820312,1.28906255 0.703125,0 1.207032,-0.24609375 1.453125,-0.375 l -0.152343,-0.5859375 c -0.257813,0.2109375 -0.585938,0.328125 -0.902344,0.328125 -0.363281,0 -0.503906,-0.3046875 -0.503906,-0.83203125 z m 5.824218,0.9609375 c 0,-1.0078125 -0.726562,-1.7109375 -1.640625,-1.7109375 -0.644531,0 -1.101562,0.1640625 -1.570312,0.4335937 l 0.07031,0.65625 c 0.515625,-0.375 1.007813,-0.5039062 1.5,-0.5039062 0.46875,0 0.867188,0.3984375 0.867188,1.1367187 v 0.4335938 c -1.5,0.011719 -2.765625,0.4335937 -2.765625,1.3125 0,0.421875 0.269531,1.23046875 1.136719,1.23046875 0.140625,0 1.078125,-0.01171875 1.652343,-0.46875 V -3.125e-4 h 0.75 z m -0.773437,1.5703125 c 0,0.1875 0,0.43359375 -0.339844,0.62109375 -0.292969,0.1875 -0.667969,0.1875 -0.773437,0.1875 -0.480469,0 -0.925782,-0.22265625 -0.925782,-0.64453125 0,-0.6914063 1.605469,-0.7617188 2.039063,-0.7851563 z m 0,0"
       style="fill:#000000;fill-opacity:1;fill-rule:nonzero;stroke:none"
       aria-label="data"
       transform="matrix(1.3333333,0,0,1.3333333,24.968,84.906667)" />
    <path
       id="path10"
       d="m 0,-31.88489 184.20099,-6.2e-4 1.77116,-5.31349 -1.77116,-5.31351 L 0,-42.51184"
       style="fill:none;stroke:#000000;stroke-width:0.66414;stroke-linecap:round;stroke-linejoin:round;stroke-miterlimit:10;stroke-dasharray:none;stroke-opacity:1"
       transform="matrix(1.3333333,0,0,-1.3333333,58.841333,28.222667)" />
    <path
       id="path11"
       d="m 185.97215,-37.19772 1.77115,5.31347 24.79631,-6.4e-4 1.77115,-5.31347 -1.77115,-5.31351 -24.79631,0.0013 -1.77115,5.31348"
       style="fill:none;stroke:#000000;stroke-width:0.66414;stroke-linecap:round;stroke-linejoin:round;stroke-miterlimit:10;stroke-dasharray:none;stroke-opacity:1"
       transform="matrix(1.3333333,0,0,-1.3333333,58.841333,28.222667)" />
    <path
       id="path12"
       d="M 4.3152734,-6.914974 H 3.5730859 v 2.9296875 c -0.5273437,-0.4296875 -1.09375,-0.546875 -1.4453125,-0.546875 -0.9960937,0 -1.77734371,1.0351563 -1.77734371,2.3242188 0,1.30859374 0.78125001,2.32421874 1.71875001,2.32421874 0.3320312,0 0.9179687,-0.09765625 1.484375,-0.64453125 v 0.52734375167 h 0.7617187 z m -0.7617187,5.5273438 c 0,0.1367187 -0.019531,0.3125 -0.3320313,0.60546874 -0.234375,0.1953125 -0.4882812,0.29296875 -0.7421875,0.29296875 -0.625,0 -1.3476562,-0.46875 -1.3476562,-1.71874999 0,-1.3085938 0.859375,-1.71875 1.4453125,-1.71875 0.4492187,0 0.7421875,0.234375 0.9765625,0.546875 z m 5.5566406,-1.484375 c 0,-1.015625 -0.7226562,-1.71875 -1.640625,-1.71875 -0.6445312,0 -1.09375,0.15625 -1.5625,0.4296875 l 0.058594,0.6445312 c 0.5273437,-0.3515625 1.015625,-0.4882812 1.5039062,-0.4882812 0.46875,0 0.8789063,0.390625 0.8789063,1.1328125 v 0.4296875 c -1.5039063,0.019531 -2.7734375,0.4296875 -2.7734375,1.3085937 0,0.42968754 0.2734375,1.25000004 1.1523437,1.25000004 0.1367188,0 1.0742188,-0.01953125 1.640625,-0.46875 v 0.35156250167 h 0.7421875 z m -0.7617187,1.5625 c 0,0.1757812 0,0.42968749 -0.3515625,0.62499999 -0.2734375,0.17578125 -0.6640625,0.1953125 -0.7617188,0.1953125 -0.4882812,0 -0.9375,-0.234375 -0.9375,-0.66406249 0,-0.6835938 1.6210938,-0.7617188 2.0507813,-0.78125 z m 3.3251954,-2.5390625 h 1.40625 V -4.414974 h -1.40625 v -1.2695312 h -0.683594 v 1.2695312 h -0.859375 v 0.5664063 h 0.839844 v 2.65625 c 0,0.60546874 0.136719,1.30859374 0.820312,1.30859374 0.703125,0 1.210938,-0.25390625 1.445313,-0.390625 l -0.15625,-0.5859375 c -0.253906,0.21484375 -0.566406,0.33203125 -0.898438,0.33203125 -0.371093,0 -0.507812,-0.29296875 -0.507812,-0.82031249 z m 5.825195,0.9765625 c 0,-1.015625 -0.722656,-1.71875 -1.640625,-1.71875 -0.644531,0 -1.09375,0.15625 -1.5625,0.4296875 l 0.05859,0.6445312 c 0.527344,-0.3515625 1.015625,-0.4882812 1.503906,-0.4882812 0.46875,0 0.878906,0.390625 0.878906,1.1328125 v 0.4296875 c -1.503906,0.019531 -2.773437,0.4296875 -2.773437,1.3085937 0,0.42968754 0.273437,1.25000004 1.152344,1.25000004 0.136718,0 1.074218,-0.01953125 1.640625,-0.46875 v 0.35156250167 h 0.742187 z m -0.761719,1.5625 c 0,0.1757812 0,0.42968749 -0.351562,0.62499999 -0.273438,0.17578125 -0.664063,0.1953125 -0.761719,0.1953125 -0.488281,0 -0.9375,-0.234375 -0.9375,-0.66406249 0,-0.6835938 1.621094,-0.7617188 2.050781,-0.78125 z m 6.132813,-1.9335938 c 0,-0.8007812 -0.03906,-1.71875 -0.449219,-2.5195312 -0.410156,-0.7617188 -1.09375,-0.9960938 -1.621094,-0.9960938 -0.585937,0 -1.269531,0.2734375 -1.679687,1.1523438 -0.332031,0.7421875 -0.390625,1.5625 -0.390625,2.3632812 0,0.78125 0.03906,1.5039063 0.351562,2.2265625 0.390625,0.95703129 1.152344,1.23046879 1.71875,1.23046879 0.722657,0 1.347657,-0.41015625 1.679688,-1.09375 0.292969,-0.64453129 0.390625,-1.30859379 0.390625,-2.36328129 z m -2.070313,2.85156254 c -0.507812,0 -0.917968,-0.37109375 -1.113281,-1.09375004 -0.15625,-0.5664062 -0.175781,-1.1132812 -0.175781,-1.875 0,-0.6445312 0,-1.2304687 0.175781,-1.7773437 0.05859,-0.1953125 0.3125,-1.015625 1.113281,-1.015625 0.78125,0 1.035157,0.7617187 1.113282,0.9375 0.175781,0.5664062 0.175781,1.2304687 0.175781,1.8554687 0,0.6445313 0,1.2695313 -0.175781,1.9140625 -0.253907,0.89843754 -0.78125,1.05468754 -1.113282,1.05468754 z m 0,0"
       style="fill:#000000;fill-opacity:1;fill-rule:nonzero;stroke:none"
       aria-label="data0"
       transform="matrix(0.8,0,0,0.8,316.372,80.586667)" />
    <path
       id="path13"
       d="m 214.31076,-37.19646 1.77115,5.31349 24.79632,-0.0013 m 0,-10.62698 -24.79632,0.0013 -1.77115,5.31346"
       style="fill:none;stroke:#000000;stroke-width:0.66414;stroke-linecap:round;stroke-linejoin:round;stroke-miterlimit:10;stroke-dasharray:none;stroke-opacity:1"
       transform="matrix(1.3333333,0,0,-1.3333333,58.841333,28.222667)" />
    <path
       id="path14"
       d="M 6.6571875,-4.4185391 H 5.930625 l -0.6445313,2.109375 C 5.180625,-1.9576016 4.8876562,-0.96150781 4.8290625,-0.53963281 H 4.8173437 C 4.7821875,-0.84432031 4.5360937,-1.7349453 4.3603125,-2.2974453 L 3.7157812,-4.4185391 H 3.024375 l -0.5742188,1.8632813 c -0.1054687,0.3515625 -0.4453125,1.5 -0.4921875,2.00390624 C 1.899375,-1.0318203 1.57125,-2.1568203 1.4189062,-2.6958828 L 0.90328125,-4.4185391 H 0.1415625 l 1.359375,4.4179687875 h 0.796875 C 2.3446875,-0.16463281 2.69625,-1.2779141 2.9071875,-2.0513516 3.0478125,-2.5083828 3.3290625,-3.4927578 3.3525,-3.8677578 h 0.011719 c 0.023437,0.28125 0.1875,0.9726562 0.328125,1.3945312 L 4.4189065,-5.703125e-4 H 5.286094 Z m 1.7080078,2.2851563 c 0,-0.9960938 0.7265625,-1.7109375 1.6992187,-1.734375 v -0.6679688 c -0.8906249,0.011719 -1.4296874,0.5039063 -1.7460937,0.9609375 V -4.4888516 H 7.6269141 v 4.4882812875 h 0.7382812 z m 0,0"
       style="fill:#000000;fill-opacity:1;fill-rule:nonzero;stroke:none"
       aria-label="wr"
       transform="matrix(1.3333333,0,0,1.3333333,35.78,113.25467)" />
    <path
       id="path15"
       d="m 0,-63.77484 h 21.25395 l 1.77115,10.62697 h 26.56748 l 1.77114,-10.62697 h 26.56745 l 1.77115,10.62697 h 26.56747 l 1.77115,-10.62697 H 240.8782"
       style="fill:none;stroke:#000000;stroke-width:0.66414;stroke-linecap:round;stroke-linejoin:round;stroke-miterlimit:10;stroke-dasharray:none;stroke-opacity:1"
       transform="matrix(1.3333333,0,0,-1.3333333,58.841333,28.222667)" />
    <path
       id="path16"
       d="M 6.6559844,-4.4188672 H 5.9294219 l -0.6445313,2.109375 C 5.1794219,-1.9579297 4.8864531,-0.96183594 4.8278594,-0.53996094 H 4.8161406 C 4.7809844,-0.84464844 4.5348906,-1.7352734 4.3591094,-2.2977734 L 3.7145781,-4.4188672 H 3.0231719 l -0.5742188,1.8632813 c -0.1054687,0.3515625 -0.4453125,1.5 -0.4921875,2.00390621 C 1.8981719,-1.0321484 1.5700469,-2.1571484 1.4177031,-2.6962109 L 0.90207813,-4.4188672 H 0.14035938 L 1.4997344,-8.984375e-4 h 0.796875 C 2.3434844,-0.16496094 2.6950469,-1.2782422 2.9059844,-2.0516797 c 0.140625,-0.4570312 0.421875,-1.4414062 0.4453125,-1.8164062 h 0.011719 c 0.023437,0.28125 0.1875,0.9726562 0.328125,1.3945312 l 0.7265625,2.4726562625 h 0.8671875 z m 1.7109375,2.2851563 c 0,-0.9960938 0.7265625,-1.7109375 1.6992191,-1.734375 v -0.6679688 c -0.8906254,0.011719 -1.4296879,0.5039063 -1.7460941,0.9609375 V -4.4891797 H 7.6286406 v 4.4882812625 h 0.7382813 z m 0,0"
       style="fill:#000000;fill-opacity:1;fill-rule:nonzero;stroke:none"
       aria-label="wr"
       transform="matrix(1.3333333,0,0,1.3333333,6.5706667,141.60667)" />
    <path
       id="path17"
       d="M 0,0 H 2.989"
       style="fill:none;stroke:#000000;stroke-width:0.398;stroke-linecap:butt;stroke-linejoin:round;stroke-miterlimit:10;stroke-dasharray:none;stroke-opacity:1"
       transform="matrix(1.3333333,0,0,-1.3333333,20.982667,141.34133)" />
    <path
       id="path18"
       d="m 4.3247813,-6.9149609 h -0.75 v 2.9296875 c -0.5273438,-0.4335938 -1.078125,-0.5507813 -1.453125,-0.5507813 -0.984375,0 -1.75781255,1.0429688 -1.75781255,2.3203125 0,1.31250001 0.76171875,2.32031251 1.71093755,2.32031251 0.328125,0 0.9140625,-0.08203125 1.4765625,-0.62109375 v 0.5156250025 h 0.7734375 z m -0.7734375,5.53125 c 0,0.140625 -0.011719,0.3164062 -0.328125,0.60937496 -0.234375,0.19921875 -0.4804688,0.26953125 -0.7382813,0.26953125 -0.6210937,0 -1.3476562,-0.45703125 -1.3476562,-1.69921871 0,-1.3125 0.8554687,-1.7226563 1.4414062,-1.7226563 0.4453125,0 0.75,0.234375 0.9726563,0.5507813 z m 5.5693359,-1.5 c 0,-1.0078125 -0.7265625,-1.7109375 -1.640625,-1.7109375 -0.6445313,0 -1.1015625,0.1640625 -1.5703125,0.4335937 l 0.070312,0.65625 c 0.515625,-0.375 1.0078125,-0.5039062 1.5,-0.5039062 0.46875,0 0.8671875,0.3984375 0.8671875,1.1367187 v 0.4335938 c -1.5,0.011719 -2.765625,0.4335937 -2.765625,1.3125 0,0.42187496 0.2695312,1.23046871 1.1367187,1.23046871 0.140625,0 1.078125,-0.01171875 1.6523438,-0.46875 v 0.3632812525 h 0.75 z m -0.7734375,1.5703125 c 0,0.1875 0,0.43359371 -0.3398438,0.62109371 -0.2929687,0.1875 -0.6679687,0.1875 -0.7734375,0.1875 -0.4804687,0 -0.9257812,-0.22265625 -0.9257812,-0.64453121 0,-0.6914063 1.6054687,-0.7617188 2.0390625,-0.7851563 z m 3.3339848,-2.53125 h 1.40625 v -0.5742188 h -1.40625 v -1.265625 H 10.98982 v 1.265625 h -0.867187 v 0.5742188 h 0.84375 v 2.6601562 c 0,0.59765626 0.128906,1.28906251 0.820312,1.28906251 0.703125,0 1.207032,-0.24609375 1.453125,-0.375 l -0.152343,-0.5859375 c -0.257813,0.2109375 -0.585938,0.328125 -0.902344,0.328125 -0.363281,0 -0.503906,-0.3046875 -0.503906,-0.83203121 z m 5.824218,0.9609375 c 0,-1.0078125 -0.726562,-1.7109375 -1.640625,-1.7109375 -0.644531,0 -1.101562,0.1640625 -1.570312,0.4335937 l 0.07031,0.65625 c 0.515625,-0.375 1.007813,-0.5039062 1.5,-0.5039062 0.46875,0 0.867188,0.3984375 0.867188,1.1367187 v 0.4335938 c -1.5,0.011719 -2.765625,0.4335937 -2.765625,1.3125 0,0.42187496 0.269531,1.23046871 1.136719,1.23046871 0.140625,0 1.078125,-0.01171875 1.652343,-0.46875 v 0.3632812525 h 0.75 z m -0.773437,1.5703125 c 0,0.1875 0,0.43359371 -0.339844,0.62109371 -0.292969,0.1875 -0.667969,0.1875 -0.773437,0.1875 -0.480469,0 -0.925782,-0.22265625 -0.925782,-0.64453121 0,-0.6914063 1.605469,-0.7617188 2.039063,-0.7851563 z m 0,0"
       style="fill:#000000;fill-opacity:1;fill-rule:nonzero;stroke:none"
       aria-label="data"
       transform="matrix(1.3333333,0,0,1.3333333,24.968,141.60667)" />
    <path
       id="path19"
       d="m 0,-74.41092 21.25395,-6.4e-4 1.77115,-5.31349 -1.77115,-5.31351 L 0,-85.03789"
       style="fill:none;stroke:#000000;stroke-width:0.66414;stroke-linecap:round;stroke-linejoin:round;stroke-miterlimit:10;stroke-dasharray:none;stroke-opacity:1"
       transform="matrix(1.3333333,0,0,-1.3333333,58.841333,28.222667)" />
    <path
       id="path20"
       d="m 23.0251,-79.72377 1.77116,5.31347 24.79632,-6.2e-4 1.77114,-5.31349 -1.77114,-5.31351 -24.79632,0.0013 -1.77116,5.31347"
       style="fill:none;stroke:#000000;stroke-width:0.66414;stroke-linecap:round;stroke-linejoin:round;stroke-miterlimit:10;stroke-dasharray:none;stroke-opacity:1"
       transform="matrix(1.3333333,0,0,-1.3333333,58.841333,28.222667)" />
    <path
       id="path21"
       d="M 4.3180078,-6.9159505 H 3.5758203 v 2.9296875 c -0.5273437,-0.4296875 -1.09375,-0.546875 -1.4453125,-0.546875 -0.9960937,0 -1.77734374,1.0351562 -1.77734374,2.3242187 0,1.30859378 0.78125004,2.32421878 1.71875004,2.32421878 0.3320312,0 0.9179687,-0.09765625 1.484375,-0.64453125 v 0.52734375 h 0.7617187 z m -0.7617187,5.5273437 c 0,0.1367188 -0.019531,0.3125 -0.3320313,0.60546878 -0.234375,0.1953125 -0.4882812,0.29296875 -0.7421875,0.29296875 -0.625,0 -1.3476562,-0.46875 -1.3476562,-1.71875003 0,-1.3085937 0.859375,-1.71875 1.4453125,-1.71875 0.4492187,0 0.7421875,0.234375 0.9765625,0.546875 z m 5.5566406,-1.484375 c 0,-1.015625 -0.7226563,-1.71875 -1.640625,-1.71875 -0.6445313,0 -1.09375,0.15625 -1.5625,0.4296875 l 0.058594,0.6445313 c 0.5273438,-0.3515625 1.015625,-0.4882813 1.5039063,-0.4882813 0.46875,0 0.8789062,0.390625 0.8789062,1.1328125 v 0.4296875 c -1.5039062,0.019531 -2.7734375,0.4296875 -2.7734375,1.3085938 0,0.42968748 0.2734375,1.24999998 1.1523438,1.24999998 0.1367187,0 1.0742187,-0.01953125 1.640625,-0.46875 v 0.3515625 H 9.11293 Z m -0.7617188,1.5625 c 0,0.1757813 0,0.42968753 -0.3515625,0.62500003 -0.2734375,0.17578125 -0.6640625,0.1953125 -0.7617187,0.1953125 -0.4882813,0 -0.9375,-0.234375 -0.9375,-0.66406253 0,-0.6835937 1.6210937,-0.7617187 2.0507812,-0.78125 z m 3.3251951,-2.5390625 h 1.40625 v -0.5664062 h -1.40625 v -1.2695313 h -0.683593 v 1.2695313 h -0.859375 v 0.5664062 h 0.839843 v 2.65625 c 0,0.60546878 0.136719,1.30859378 0.820313,1.30859378 0.703125,0 1.210937,-0.25390625 1.445312,-0.390625 l -0.15625,-0.5859375 c -0.253906,0.21484375 -0.566406,0.33203125 -0.898437,0.33203125 -0.371094,0 -0.507813,-0.29296875 -0.507813,-0.82031253 z m 5.820313,0.9765625 c 0,-1.015625 -0.722656,-1.71875 -1.640625,-1.71875 -0.644531,0 -1.09375,0.15625 -1.5625,0.4296875 l 0.05859,0.6445313 c 0.527343,-0.3515625 1.015625,-0.4882813 1.503906,-0.4882813 0.46875,0 0.878906,0.390625 0.878906,1.1328125 v 0.4296875 c -1.503906,0.019531 -2.773437,0.4296875 -2.773437,1.3085938 0,0.42968748 0.273437,1.24999998 1.152343,1.24999998 0.136719,0 1.074219,-0.01953125 1.640625,-0.46875 v 0.3515625 h 0.742188 z m -0.761719,1.5625 c 0,0.1757813 0,0.42968753 -0.351562,0.62500003 -0.273438,0.17578125 -0.664063,0.1953125 -0.761719,0.1953125 -0.488281,0 -0.9375,-0.234375 -0.9375,-0.66406253 0,-0.6835937 1.621094,-0.7617187 2.050781,-0.78125 z m 6.137695,-1.9335937 c 0,-0.8007813 -0.03906,-1.71875 -0.449218,-2.5195313 -0.410157,-0.7617187 -1.09375,-0.9960937 -1.621094,-0.9960937 -0.585938,0 -1.269531,0.2734375 -1.679688,1.1523437 -0.332031,0.7421875 -0.390625,1.5625 -0.390625,2.3632813 0,0.78125 0.03906,1.5039062 0.351563,2.2265625 0.390625,0.95703123 1.152344,1.23046873 1.71875,1.23046873 0.722656,0 1.347656,-0.41015625 1.679687,-1.09375 0.292969,-0.64453123 0.390625,-1.30859373 0.390625,-2.36328123 z m -2.070312,2.85156248 c -0.507813,0 -0.917969,-0.37109375 -1.113281,-1.09374998 -0.15625,-0.5664063 -0.175782,-1.1132813 -0.175782,-1.875 0,-0.6445313 0,-1.2304688 0.175782,-1.7773438 0.05859,-0.1953125 0.3125,-1.015625 1.113281,-1.015625 0.78125,0 1.035156,0.7617188 1.113281,0.9375 0.175781,0.5664063 0.175781,1.2304688 0.175781,1.8554688 0,0.6445312 0,1.2695312 -0.175781,1.9140625 -0.253906,0.89843748 -0.78125,1.05468748 -1.113281,1.05468748 z m 0,0"
       style="fill:#000000;fill-opacity:1;fill-rule:nonzero;stroke:none"
       aria-label="data0"
       transform="matrix(0.8,0,0,0.8,99.112,137.28667)" />
    <path
       id="path22"
       d="m 51.36372,-79.72313 1.77115,5.31348 24.79631,-6.5e-4 1.77115,-5.31347 -1.77115,-5.31351 -24.79631,0.0013 -1.77115,5.31346"
       style="fill:none;stroke:#000000;stroke-width:0.66414;stroke-linecap:round;stroke-linejoin:round;stroke-miterlimit:10;stroke-dasharray:none;stroke-opacity:1"
       transform="matrix(1.3333333,0,0,-1.3333333,58.841333,28.222667)" />
    <path
       id="path23"
       d="m 79.70233,-79.7225 1.77117,5.31349 24.7963,-6.4e-4 1.77115,-5.31348 -1.77115,-5.31351 -24.7963,0.0013 -1.77117,5.31346"
       style="fill:none;stroke:#000000;stroke-width:0.66414;stroke-linecap:round;stroke-linejoin:round;stroke-miterlimit:10;stroke-dasharray:none;stroke-opacity:1"
       transform="matrix(1.3333333,0,0,-1.3333333,58.841333,28.222667)" />
    <path
       id="path24"
       d="M 4.314349,-6.9142839 H 3.5721615 v 2.9296875 c -0.5273438,-0.4296875 -1.09375,-0.546875 -1.4453125,-0.546875 -0.9960938,0 -1.77734379,1.0351563 -1.77734379,2.3242188 0,1.30859375 0.78124999,2.32421875 1.71874999,2.32421875 0.3320313,0 0.9179688,-0.09765625 1.484375,-0.64453125 V -2.2135417e-4 H 4.314349 Z m -0.7617188,5.5273438 c 0,0.1367187 -0.019531,0.3125 -0.3320312,0.60546875 -0.234375,0.1953125 -0.4882813,0.29296875 -0.7421875,0.29296875 -0.625,0 -1.3476563,-0.46875 -1.3476563,-1.71875 0,-1.3085938 0.859375,-1.71875 1.4453125,-1.71875 0.4492188,0 0.7421875,0.234375 0.9765625,0.546875 z m 5.5615234,-1.484375 c 0,-1.015625 -0.7226562,-1.71875 -1.640625,-1.71875 -0.6445312,0 -1.09375,0.15625 -1.5625,0.4296875 l 0.058594,0.6445312 c 0.5273437,-0.3515625 1.015625,-0.4882812 1.5039062,-0.4882812 0.46875,0 0.8789063,0.390625 0.8789063,1.1328125 v 0.4296875 c -1.5039063,0.019531 -2.7734375,0.4296875 -2.7734375,1.3085937 0,0.42968755 0.2734375,1.25000005 1.1523437,1.25000005 0.1367188,0 1.0742188,-0.01953125 1.640625,-0.46875 v 0.35156249583 h 0.7421875 z m -0.7617187,1.5625 c 0,0.1757812 0,0.4296875 -0.3515625,0.625 -0.2734375,0.17578125 -0.6640625,0.1953125 -0.7617188,0.1953125 -0.4882812,0 -0.9375,-0.234375 -0.9375,-0.6640625 0,-0.6835938 1.6210938,-0.7617188 2.0507813,-0.78125 z m 3.3203121,-2.5390625 h 1.40625 v -0.5664063 h -1.40625 v -1.2695312 h -0.683593 v 1.2695312 h -0.859375 v 0.5664063 h 0.839843 v 2.65625 c 0,0.60546875 0.136719,1.30859375 0.820313,1.30859375 0.703125,0 1.210937,-0.25390625 1.445312,-0.390625 l -0.15625,-0.5859375 c -0.253906,0.21484375 -0.566406,0.33203125 -0.898437,0.33203125 -0.371094,0 -0.507813,-0.29296875 -0.507813,-0.8203125 z m 5.825196,0.9765625 c 0,-1.015625 -0.722657,-1.71875 -1.640625,-1.71875 -0.644532,0 -1.09375,0.15625 -1.5625,0.4296875 l 0.05859,0.6445312 c 0.527344,-0.3515625 1.015625,-0.4882812 1.503907,-0.4882812 0.46875,0 0.878906,0.390625 0.878906,1.1328125 v 0.4296875 c -1.503906,0.019531 -2.773438,0.4296875 -2.773438,1.3085937 0,0.42968755 0.273438,1.25000005 1.152344,1.25000005 0.136719,0 1.074219,-0.01953125 1.640625,-0.46875 v 0.35156249583 h 0.742188 z m -0.761719,1.5625 c 0,0.1757812 0,0.4296875 -0.351563,0.625 -0.273437,0.17578125 -0.664062,0.1953125 -0.761718,0.1953125 -0.488282,0 -0.9375,-0.234375 -0.9375,-0.6640625 0,-0.6835938 1.621093,-0.7617188 2.050781,-0.78125 z m 4.555664,-5.4492188 h -0.195312 c -0.585938,0.6054688 -1.40625,0.6445313 -1.894532,0.6640625 v 0.5664063 c 0.332032,0 0.820313,-0.019531 1.308594,-0.234375 v 5.17578125 h -1.25 v 0.58593749583 h 3.28125 V -0.58615885 h -1.25 z m 0,0"
       style="fill:#000000;fill-opacity:1;fill-rule:nonzero;stroke:none"
       aria-label="data1"
       transform="matrix(0.8,0,0,0.8,174.68133,137.28533)" />
    <path
       id="path25"
       d="m 108.04095,-79.72122 1.77115,5.31349 131.06613,-0.0013 m 0,-10.62699 -131.06613,0.0013 -1.77115,5.31346"
       style="fill:none;stroke:#000000;stroke-width:0.66414;stroke-linecap:round;stroke-linejoin:round;stroke-miterlimit:10;stroke-dasharray:none;stroke-opacity:1"
       transform="matrix(1.3333333,0,0,-1.3333333,58.841333,28.222667)" />
    <path
       id="path26"
       d="m 1.7565625,-3.8450469 h 1.0898438 v -0.5742187 h -1.125 v -1.1953125 c 0,-0.7265625 0.6679687,-0.796875 0.9257812,-0.796875 0.1992188,0 0.46875,0.011719 0.8085938,0.1640625 v -0.6679688 c -0.1171875,-0.023437 -0.4335938,-0.1054687 -0.796875,-0.1054687 -0.9375,0 -1.6523438,0.703125 -1.6523438,1.6992187 v 0.9023438 H 0.26828125 v 0.5742187 H 1.0065625 v 3.84375002 h 0.75 z m 5.625,-0.5742187 H 6.5964063 v 2.8828125 c 0,0.74999997 -0.5507813,1.10156247 -1.1953125,1.10156247 -0.703125,0 -0.7734375,-0.26953125 -0.7734375,-0.69140627 V -4.4192656 H 3.8542188 v 3.328125 c 0,0.72656247 0.2226562,1.19531247 1.0546875,1.19531247 0.5273437,0 1.2304687,-0.15234375 1.7226562,-0.5859375 v 0.48046875 h 0.75 z m 2.3701172,-2.4960938 h -0.75 v 6.91406252 h 0.75 z m 2.3789063,0 h -0.75 v 6.91406252 h 0.75 z m 0,0"
       style="fill:#000000;fill-opacity:1;fill-rule:nonzero;stroke:none"
       aria-label="full"
       transform="matrix(1.3333333,0,0,1.3333333,32.126667,169.96267)" />
    <path
       id="path27"
       d="m 0,-106.30608 h 106.2698 l 1.77115,10.62697 h 83.24469 l 1.77117,-10.62697 h 47.82141"
       style="fill:none;stroke:#000000;stroke-width:0.66414;stroke-linecap:round;stroke-linejoin:round;stroke-miterlimit:10;stroke-dasharray:none;stroke-opacity:1"
       transform="matrix(1.3333333,0,0,-1.3333333,58.841333,28.222667)" />
    <path
       id="path28"
       d="m 14.1693,15.94044 v -127.5989 m 28.33862,127.5989 v -127.5989 m 28.33861,127.5989 v -127.5989 m 28.33862,127.5989 v -127.5989 m 28.33861,127.5989 v -127.5989 m 28.33862,127.5989 v -127.5989 m 28.33861,127.5989 v -127.5989 m 28.33862,127.5989 v -127.5989"
       style="fill:none;stroke:#808080;stroke-width:0.59776;stroke-linecap:round;stroke-linejoin:round;stroke-miterlimit:10;stroke-dasharray:none;stroke-opacity:0.5"
       transform="matrix(1.3333333,0,0,-1.3333333,58.841333,28.222667)" />
    <path
       id="path29"
       d="m 42.50792,15.94044 v -127.5989 m 56.67723,127.5989 v -127.5989 m 85.01584,127.5989 v -127.5989"
       style="fill:none;stroke:#ff0000;stroke-width:0.49815;stroke-linecap:round;stroke-linejoin:round;stroke-miterlimit:10;stroke-dasharray:2.98883, 2.98883;stroke-dashoffset:0;stroke-opacity:0.75"
       transform="matrix(1.3333333,0,0,-1.3333333,58.841333,28.222667)" />
  </g>
</svg>
