<?xml version="1.0" encoding="UTF-8" standalone="no"?>
<!-- Created with Inkscape (http://www.inkscape.org/) -->

<svg
   version="1.1"
   id="svg1"
   width="273.22534"
   height="98.980003"
   viewBox="0 0 273.22534 98.980003"
   sodipodi:docname="main.pdf"
   xmlns:inkscape="http://www.inkscape.org/namespaces/inkscape"
   xmlns:sodipodi="http://sodipodi.sourceforge.net/DTD/sodipodi-0.dtd"
   xmlns="http://www.w3.org/2000/svg"
   xmlns:svg="http://www.w3.org/2000/svg">
  <defs
     id="defs1" />
  <sodipodi:namedview
     id="namedview1"
     pagecolor="#ffffff"
     bordercolor="#000000"
     borderopacity="0.25"
     inkscape:showpageshadow="2"
     inkscape:pageopacity="0.0"
     inkscape:pagecheckerboard="0"
     inkscape:deskcolor="#d1d1d1">
    <inkscape:page
       x="0"
       y="0"
       inkscape:label="1"
       id="page1"
       width="273.22534"
       height="98.980003"
       margin="0"
       bleed="0" />
  </sodipodi:namedview>
  <g
     id="g1"
     inkscape:groupmode="layer"
     inkscape:label="1">
    <path
       id="path1"
       d="M 0,0 H 204.919 V 74.235 H 0 Z"
       style="fill:#ffffff;fill-opacity:1;fill-rule:nonzero;stroke:none"
       transform="matrix(1.3333333,0,0,-1.3333333,0,98.98)" />
    <path
       id="path2"
       d="M -43.6315,-52.56891 V 20.66724 H 160.29028 V -52.56891 Z"
       style="fill:#ffffff;fill-opacity:1;fill-rule:nonzero;stroke:none"
       transform="matrix(1.3333333,0,0,-1.3333333,58.841333,28.222667)" />
    <path
       id="path3"
       d="m 4.0900078,-4.1600937 c -0.5976562,-0.3398438 -0.9375,-0.4335938 -1.5351562,-0.4335938 -1.3945313,0 -2.19140629,1.2070313 -2.19140629,2.3789063 0,1.24218745 0.90234379,2.32031245 2.14453129,2.32031245 0.5390625,0 1.0898437,-0.140625 1.6289062,-0.50390625 l -0.058594,-0.6679687 c -0.515625,0.39843745 -1.0546875,0.53906245 -1.5585938,0.53906245 -0.8203125,0 -1.3828125,-0.71484375 -1.3828125,-1.69921875 0,-0.7734375 0.3632813,-1.7226562 1.4179688,-1.7226562 0.5273437,0 0.8671875,0.070312 1.40625,0.4335937 z M 5.9855156,-6.914 h -0.75 V 6.25e-5 h 0.75 z m 3.6240235,4.2070313 1.6757809,-1.7109375 h -0.902343 l -2.0156254,2.0625 V -6.914 H 7.6407891 V 6.25e-5 h 0.6914062 v -1.40625 L 9.1290703,-2.2265 10.687664,6.25e-5 h 0.808594 z m 0,0"
       style="fill:#000000;fill-opacity:1;fill-rule:nonzero;stroke:none"
       aria-label="clk"
       transform="matrix(1.3333333,0,0,1.3333333,33.824,28.218667)" />
    <path
       id="path4"
       d="M 0,0.00255 H 14.1693 V 10.62952 H 28.33861 V 0.00255 H 42.50792 V 10.62952 H 56.67723 V 0.00255 h 14.1693 V 10.62952 H 85.01584 V 0.00255 h 14.16931 v 10.62697 h 14.16931 V 0.00255 h 14.1693 v 10.62697 h 14.16931 V 0.00255 h 14.16931"
       style="fill:none;stroke:#000000;stroke-width:0.66414;stroke-linecap:round;stroke-linejoin:round;stroke-miterlimit:10;stroke-dasharray:none;stroke-opacity:1"
       transform="matrix(1.3333333,0,0,-1.3333333,58.841333,28.222667)" />
    <path
       id="path5"
       d="M 6.6571875,-4.4190234 H 5.930625 l -0.6445313,2.109375 C 5.180625,-1.9580859 4.8876562,-0.96199219 4.8290625,-0.54011719 H 4.8173437 C 4.7821875,-0.84480469 4.5360937,-1.7354297 4.3603125,-2.2979297 L 3.7157812,-4.4190234 H 3.024375 l -0.5742188,1.8632812 c -0.1054687,0.3515625 -0.4453125,1.5 -0.4921875,2.00390626 C 1.899375,-1.0323047 1.57125,-2.1573047 1.4189062,-2.6963672 L 0.90328125,-4.4190234 H 0.1415625 l 1.359375,4.41796871 h 0.796875 C 2.3446875,-0.16511719 2.69625,-1.2783984 2.9071875,-2.0518359 3.0478125,-2.5088672 3.3290625,-3.4932422 3.3525,-3.8682422 h 0.011719 c 0.023437,0.28125 0.1875,0.9726563 0.328125,1.3945313 l 0.7265625,2.47265621 H 5.286094 Z m 1.7080078,2.2851562 c 0,-0.9960937 0.7265625,-1.7109375 1.6992187,-1.734375 v -0.6679687 c -0.8906249,0.011719 -1.4296874,0.5039062 -1.7460937,0.9609375 V -4.4893359 H 7.6269141 v 4.48828121 h 0.7382812 z m 0,0"
       style="fill:#000000;fill-opacity:1;fill-rule:nonzero;stroke:none"
       aria-label="wr"
       transform="matrix(1.3333333,0,0,1.3333333,35.78,56.56)" />
    <path
       id="path6"
       d="M 0,-21.25397 H 21.25395 L 23.0251,-10.627 h 26.56748 l 1.77114,-10.62697 h 54.90607 l 1.77115,10.62697 h 26.56746 l 1.77116,-10.62697 h 19.48279"
       style="fill:none;stroke:#000000;stroke-width:0.66414;stroke-linecap:round;stroke-linejoin:round;stroke-miterlimit:10;stroke-dasharray:none;stroke-opacity:1"
       transform="matrix(1.3333333,0,0,-1.3333333,58.841333,28.222667)" />
    <path
       id="path7"
       d="M 6.6559844,-4.4172812 H 5.9294219 l -0.6445313,2.109375 C 5.1794219,-1.9563437 4.8864531,-0.96025 4.8278594,-0.538375 H 4.8161406 C 4.7809844,-0.8430625 4.5348906,-1.7336875 4.3591094,-2.2961875 L 3.7145781,-4.4172812 H 3.0231719 L 2.4489531,-2.554 C 2.3434844,-2.2024375 2.0036406,-1.054 1.9567656,-0.55009375 1.8981719,-1.0305625 1.5700469,-2.1555625 1.4177031,-2.694625 L 0.90207813,-4.4172812 H 0.14035938 L 1.4997344,6.875e-4 h 0.796875 C 2.3434844,-0.163375 2.6950469,-1.2766562 2.9059844,-2.0500937 3.0466094,-2.507125 3.3278594,-3.4915 3.3512969,-3.8665 h 0.011719 c 0.023437,0.28125 0.1875,0.9726563 0.328125,1.3945313 L 4.4177031,6.875e-4 h 0.8671875 z m 1.7109375,2.2851562 c 0,-0.9960937 0.7265625,-1.7109375 1.6992191,-1.734375 V -4.5344687 C 9.1755156,-4.52275 8.6364531,-4.0305625 8.3200469,-3.5735312 V -4.4875937 H 7.6286406 V 6.875e-4 h 0.7382813 z m 0,0"
       style="fill:#000000;fill-opacity:1;fill-rule:nonzero;stroke:none"
       aria-label="wr"
       transform="matrix(1.3333333,0,0,1.3333333,6.5706667,84.905333)" />
    <path
       id="path8"
       d="M 0,0 H 2.989"
       style="fill:none;stroke:#000000;stroke-width:0.398;stroke-linecap:butt;stroke-linejoin:round;stroke-miterlimit:10;stroke-dasharray:none;stroke-opacity:1"
       transform="matrix(1.3333333,0,0,-1.3333333,20.982667,84.64)" />
    <path
       id="path9"
       d="m 4.3247813,-6.913375 h -0.75 v 2.9296875 c -0.5273438,-0.4335937 -1.078125,-0.5507812 -1.453125,-0.5507812 -0.984375,0 -1.75781255,1.0429687 -1.75781255,2.3203125 0,1.31249995 0.76171875,2.32031245 1.71093755,2.32031245 0.328125,0 0.9140625,-0.08203125 1.4765625,-0.62109375 v 0.515625 h 0.7734375 z m -0.7734375,5.53125 c 0,0.140625 -0.011719,0.3164063 -0.328125,0.609375 -0.234375,0.19921875 -0.4804688,0.26953125 -0.7382813,0.26953125 -0.6210937,0 -1.3476562,-0.45703125 -1.3476562,-1.69921875 0,-1.3125 0.8554687,-1.7226562 1.4414062,-1.7226562 0.4453125,0 0.75,0.234375 0.9726563,0.5507812 z m 5.5693359,-1.5 c 0,-1.0078125 -0.7265625,-1.7109375 -1.640625,-1.7109375 -0.6445313,0 -1.1015625,0.1640625 -1.5703125,0.4335938 l 0.070312,0.65625 c 0.515625,-0.375 1.0078125,-0.5039063 1.5,-0.5039063 0.46875,0 0.8671875,0.3984375 0.8671875,1.1367188 v 0.4335937 c -1.5,0.011719 -2.765625,0.4335938 -2.765625,1.3125 0,0.421875 0.2695312,1.23046875 1.1367187,1.23046875 0.140625,0 1.078125,-0.01171875 1.6523438,-0.46875 V 6.875e-4 h 0.75 z m -0.7734375,1.5703125 c 0,0.1875 0,0.43359375 -0.3398438,0.62109375 -0.2929687,0.1875 -0.6679687,0.1875 -0.7734375,0.1875 -0.4804687,0 -0.9257812,-0.22265625 -0.9257812,-0.64453125 0,-0.6914062 1.6054687,-0.7617187 2.0390625,-0.7851562 z m 3.3339848,-2.53125 h 1.40625 v -0.5742187 h -1.40625 v -1.265625 H 10.98982 v 1.265625 h -0.867187 v 0.5742187 h 0.84375 v 2.6601563 c 0,0.5976562 0.128906,1.28906245 0.820312,1.28906245 0.703125,0 1.207032,-0.24609375 1.453125,-0.375 l -0.152343,-0.5859375 c -0.257813,0.2109375 -0.585938,0.328125 -0.902344,0.328125 -0.363281,0 -0.503906,-0.3046875 -0.503906,-0.83203125 z m 5.824218,0.9609375 c 0,-1.0078125 -0.726562,-1.7109375 -1.640625,-1.7109375 -0.644531,0 -1.101562,0.1640625 -1.570312,0.4335938 l 0.07031,0.65625 c 0.515625,-0.375 1.007813,-0.5039063 1.5,-0.5039063 0.46875,0 0.867188,0.3984375 0.867188,1.1367188 v 0.4335937 c -1.5,0.011719 -2.765625,0.4335938 -2.765625,1.3125 0,0.421875 0.269531,1.23046875 1.136719,1.23046875 0.140625,0 1.078125,-0.01171875 1.652343,-0.46875 V 6.875e-4 h 0.75 z m -0.773437,1.5703125 c 0,0.1875 0,0.43359375 -0.339844,0.62109375 -0.292969,0.1875 -0.667969,0.1875 -0.773437,0.1875 -0.480469,0 -0.925782,-0.22265625 -0.925782,-0.64453125 0,-0.6914062 1.605469,-0.7617187 2.039063,-0.7851562 z m 0,0"
       style="fill:#000000;fill-opacity:1;fill-rule:nonzero;stroke:none"
       aria-label="data"
       transform="matrix(1.3333333,0,0,1.3333333,24.968,84.905333)" />
    <path
       id="path10"
       d="M 0,-31.88489 21.25395,-31.88551 23.0251,-37.199 21.25395,-42.51251 0,-42.51184"
       style="fill:none;stroke:#000000;stroke-width:0.66414;stroke-linecap:round;stroke-linejoin:round;stroke-miterlimit:10;stroke-dasharray:none;stroke-opacity:1"
       transform="matrix(1.3333333,0,0,-1.3333333,58.841333,28.222667)" />
    <path
       id="path11"
       d="m 23.0251,-37.19772 1.77116,5.31347 24.79632,-6.4e-4 1.77114,-5.31347 -1.77114,-5.31351 -24.79632,0.0013 -1.77116,5.31348"
       style="fill:none;stroke:#000000;stroke-width:0.66414;stroke-linecap:round;stroke-linejoin:round;stroke-miterlimit:10;stroke-dasharray:none;stroke-opacity:1"
       transform="matrix(1.3333333,0,0,-1.3333333,58.841333,28.222667)" />
    <path
       id="path12"
       d="M 4.3180078,-6.9133073 H 3.5758203 v 2.9296875 c -0.5273437,-0.4296875 -1.09375,-0.546875 -1.4453125,-0.546875 -0.9960937,0 -1.77734374,1.0351563 -1.77734374,2.3242188 0,1.30859371 0.78125004,2.32421871 1.71875004,2.32421871 0.3320312,0 0.9179687,-0.09765625 1.484375,-0.64453125 V 7.5520833e-4 h 0.7617187 z m -0.7617187,5.5273438 c 0,0.1367187 -0.019531,0.3125 -0.3320313,0.60546871 -0.234375,0.1953125 -0.4882812,0.29296875 -0.7421875,0.29296875 -0.625,0 -1.3476562,-0.46875 -1.3476562,-1.71874996 0,-1.3085938 0.859375,-1.71875 1.4453125,-1.71875 0.4492187,0 0.7421875,0.234375 0.9765625,0.546875 z m 5.5566406,-1.484375 c 0,-1.015625 -0.7226563,-1.71875 -1.640625,-1.71875 -0.6445313,0 -1.09375,0.15625 -1.5625,0.4296875 l 0.058594,0.6445312 c 0.5273438,-0.3515625 1.015625,-0.4882812 1.5039063,-0.4882812 0.46875,0 0.8789062,0.390625 0.8789062,1.1328125 v 0.4296875 c -1.5039062,0.019531 -2.7734375,0.4296875 -2.7734375,1.3085937 0,0.42968751 0.2734375,1.25000001 1.1523438,1.25000001 0.1367187,0 1.0742187,-0.01953125 1.640625,-0.46875 V 7.5520833e-4 H 9.11293 Z m -0.7617188,1.5625 c 0,0.1757812 0,0.42968746 -0.3515625,0.62499996 -0.2734375,0.17578125 -0.6640625,0.1953125 -0.7617187,0.1953125 -0.4882813,0 -0.9375,-0.234375 -0.9375,-0.66406246 0,-0.6835938 1.6210937,-0.7617188 2.0507812,-0.78125 z M 11.676406,-3.846901 h 1.40625 v -0.5664063 h -1.40625 v -1.2695312 h -0.683593 v 1.2695312 h -0.859375 v 0.5664063 h 0.839843 v 2.65625 c 0,0.60546871 0.136719,1.30859371 0.820313,1.30859371 0.703125,0 1.210937,-0.25390625 1.445312,-0.390625 l -0.15625,-0.5859375 c -0.253906,0.21484375 -0.566406,0.33203125 -0.898437,0.33203125 -0.371094,0 -0.507813,-0.29296875 -0.507813,-0.82031246 z m 5.820313,0.9765625 c 0,-1.015625 -0.722656,-1.71875 -1.640625,-1.71875 -0.644531,0 -1.09375,0.15625 -1.5625,0.4296875 l 0.05859,0.6445312 c 0.527343,-0.3515625 1.015625,-0.4882812 1.503906,-0.4882812 0.46875,0 0.878906,0.390625 0.878906,1.1328125 v 0.4296875 c -1.503906,0.019531 -2.773437,0.4296875 -2.773437,1.3085937 0,0.42968751 0.273437,1.25000001 1.152343,1.25000001 0.136719,0 1.074219,-0.01953125 1.640625,-0.46875 V 7.5520833e-4 h 0.742188 z m -0.761719,1.5625 c 0,0.1757812 0,0.42968746 -0.351562,0.62499996 -0.273438,0.17578125 -0.664063,0.1953125 -0.761719,0.1953125 -0.488281,0 -0.9375,-0.234375 -0.9375,-0.66406246 0,-0.6835938 1.621094,-0.7617188 2.050781,-0.78125 z m 6.137695,-1.9335938 c 0,-0.8007812 -0.03906,-1.71875 -0.449218,-2.5195312 -0.410157,-0.7617188 -1.09375,-0.9960938 -1.621094,-0.9960938 -0.585938,0 -1.269531,0.2734375 -1.679688,1.1523438 -0.332031,0.7421875 -0.390625,1.5625 -0.390625,2.3632812 0,0.78125 0.03906,1.5039063 0.351563,2.2265625 0.390625,0.95703126 1.152344,1.23046876 1.71875,1.23046876 0.722656,0 1.347656,-0.41015625 1.679687,-1.09375 0.292969,-0.64453126 0.390625,-1.30859376 0.390625,-2.36328126 z m -2.070312,2.85156251 c -0.507813,0 -0.917969,-0.37109375 -1.113281,-1.09375001 -0.15625,-0.5664062 -0.175782,-1.1132812 -0.175782,-1.875 0,-0.6445312 0,-1.2304687 0.175782,-1.7773437 0.05859,-0.1953125 0.3125,-1.015625 1.113281,-1.015625 0.78125,0 1.035156,0.7617187 1.113281,0.9375 0.175781,0.5664062 0.175781,1.2304687 0.175781,1.8554687 0,0.6445313 0,1.2695313 -0.175781,1.9140625 -0.253906,0.89843751 -0.78125,1.05468751 -1.113281,1.05468751 z m 0,0"
       style="fill:#000000;fill-opacity:1;fill-rule:nonzero;stroke:none"
       aria-label="data0"
       transform="matrix(0.8,0,0,0.8,99.112,80.585333)" />
    <path
       id="path13"
       d="m 51.36372,-37.19708 1.77115,5.31348 31.88097,-6.5e-4 1.77115,-5.31347 -1.77115,-5.31351 -31.88097,0.0013 -1.77115,5.31346"
       style="fill:none;stroke:#000000;stroke-width:0.66414;stroke-linecap:round;stroke-linejoin:round;stroke-miterlimit:10;stroke-dasharray:none;stroke-opacity:1"
       transform="matrix(1.3333333,0,0,-1.3333333,58.841333,28.222667)" />
    <path
       id="path14"
       d="m 86.78699,-37.19582 1.77116,5.3135 67.30423,-0.0013 m 0,-10.62699 -67.30423,0.0013 -1.77116,5.31346"
       style="fill:none;stroke:#000000;stroke-width:0.66414;stroke-linecap:round;stroke-linejoin:round;stroke-miterlimit:10;stroke-dasharray:none;stroke-opacity:1"
       transform="matrix(1.3333333,0,0,-1.3333333,58.841333,28.222667)" />
    <path
       id="path15"
       d="M 4.3157943,-6.9148568 H 3.5736068 v 2.9296875 c -0.5273438,-0.4296875 -1.09375,-0.546875 -1.4453125,-0.546875 -0.9960938,0 -1.77734378,1.0351563 -1.77734378,2.3242188 0,1.30859373 0.78124998,2.32421873 1.71874998,2.32421873 0.3320313,0 0.9179688,-0.09765625 1.484375,-0.64453125 V -7.9427083e-4 H 4.3157943 Z M 3.5540755,-1.387513 c 0,0.1367187 -0.019531,0.3125 -0.3320312,0.60546873 -0.234375,0.1953125 -0.4882813,0.29296875 -0.7421875,0.29296875 -0.625,0 -1.3476563,-0.46875 -1.3476563,-1.71874998 0,-1.3085938 0.859375,-1.71875 1.4453125,-1.71875 0.4492188,0 0.7421875,0.234375 0.9765625,0.546875 z m 5.5566406,-1.484375 c 0,-1.015625 -0.7226562,-1.71875 -1.640625,-1.71875 -0.6445312,0 -1.09375,0.15625 -1.5625,0.4296875 l 0.058594,0.6445312 c 0.5273437,-0.3515625 1.015625,-0.4882812 1.5039062,-0.4882812 0.46875,0 0.8789063,0.390625 0.8789063,1.1328125 v 0.4296875 c -1.5039063,0.019531 -2.7734375,0.4296875 -2.7734375,1.3085937 0,0.42968753 0.2734375,1.25000003 1.1523437,1.25000003 0.1367188,0 1.0742188,-0.01953125 1.640625,-0.46875 v 0.35156249917 h 0.7421875 z m -0.7617187,1.5625 c 0,0.1757812 0,0.42968748 -0.3515625,0.62499998 -0.2734375,0.17578125 -0.6640625,0.1953125 -0.7617188,0.1953125 -0.4882812,0 -0.9375,-0.234375 -0.9375,-0.66406248 0,-0.6835938 1.6210938,-0.7617188 2.0507813,-0.78125 z m 3.3251956,-2.5390625 h 1.40625 v -0.5664063 h -1.40625 V -5.684388 h -0.683594 v 1.2695312 h -0.859375 v 0.5664063 h 0.839844 v 2.65625 c 0,0.60546873 0.136718,1.30859373 0.820312,1.30859373 0.703125,0 1.210938,-0.25390625 1.445313,-0.390625 l -0.15625,-0.5859375 c -0.253907,0.21484375 -0.566407,0.33203125 -0.898438,0.33203125 -0.371094,0 -0.507812,-0.29296875 -0.507812,-0.82031248 z m 5.825195,0.9765625 c 0,-1.015625 -0.722656,-1.71875 -1.640625,-1.71875 -0.644531,0 -1.09375,0.15625 -1.5625,0.4296875 l 0.05859,0.6445312 c 0.527344,-0.3515625 1.015625,-0.4882812 1.503906,-0.4882812 0.46875,0 0.878906,0.390625 0.878906,1.1328125 v 0.4296875 c -1.503906,0.019531 -2.773437,0.4296875 -2.773437,1.3085937 0,0.42968753 0.273437,1.25000003 1.152344,1.25000003 0.136718,0 1.074218,-0.01953125 1.640625,-0.46875 v 0.35156249917 h 0.742187 z m -0.761719,1.5625 c 0,0.1757812 0,0.42968748 -0.351562,0.62499998 -0.273438,0.17578125 -0.664063,0.1953125 -0.761719,0.1953125 -0.488281,0 -0.9375,-0.234375 -0.9375,-0.66406248 0,-0.6835938 1.621094,-0.7617188 2.050781,-0.78125 z m 4.550782,-5.4492188 h -0.195313 c -0.585937,0.6054688 -1.40625,0.6445313 -1.894531,0.6640625 v 0.5664063 c 0.332031,0 0.820312,-0.019531 1.308594,-0.234375 v 5.17578123 h -1.25 v 0.58593749917 h 3.28125 V -0.58673177 h -1.25 z m 0,0"
       style="fill:#000000;fill-opacity:1;fill-rule:nonzero;stroke:none"
       aria-label="data1"
       transform="matrix(0.8,0,0,0.8,212.46533,80.582667)" />
    <path
       id="path16"
       d="m 14.1693,15.94044 v -63.78256 m 28.33862,63.78256 v -63.78256 m 28.33861,63.78256 v -63.78256 m 28.33862,63.78256 v -63.78256 m 28.33861,63.78256 v -63.78256"
       style="fill:none;stroke:#808080;stroke-width:0.59776;stroke-linecap:round;stroke-linejoin:round;stroke-miterlimit:10;stroke-dasharray:none;stroke-opacity:0.5"
       transform="matrix(1.3333333,0,0,-1.3333333,58.841333,28.222667)" />
    <path
       id="path17"
       d="m 42.50792,15.94044 v -63.78256 m 85.01584,63.78256 v -63.78256"
       style="fill:none;stroke:#ff0000;stroke-width:0.49815;stroke-linecap:round;stroke-linejoin:round;stroke-miterlimit:10;stroke-dasharray:2.98883, 2.98883;stroke-dashoffset:0;stroke-opacity:0.75"
       transform="matrix(1.3333333,0,0,-1.3333333,58.841333,28.222667)" />
  </g>
</svg>
