<?xml version="1.0" encoding="UTF-8" standalone="no"?>
<!-- Created with Inkscape (http://www.inkscape.org/) -->

<svg
   version="1.1"
   id="svg1"
   width="271.01199"
   height="98.980003"
   viewBox="0 0 271.01199 98.980003"
   sodipodi:docname="main.pdf"
   xmlns:inkscape="http://www.inkscape.org/namespaces/inkscape"
   xmlns:sodipodi="http://sodipodi.sourceforge.net/DTD/sodipodi-0.dtd"
   xmlns="http://www.w3.org/2000/svg"
   xmlns:svg="http://www.w3.org/2000/svg">
  <defs
     id="defs1" />
  <sodipodi:namedview
     id="namedview1"
     pagecolor="#ffffff"
     bordercolor="#000000"
     borderopacity="0.25"
     inkscape:showpageshadow="2"
     inkscape:pageopacity="0.0"
     inkscape:pagecheckerboard="0"
     inkscape:deskcolor="#d1d1d1">
    <inkscape:page
       x="0"
       y="0"
       inkscape:label="1"
       id="page1"
       width="271.01199"
       height="98.980003"
       margin="0"
       bleed="0" />
  </sodipodi:namedview>
  <g
     id="g1"
     inkscape:groupmode="layer"
     inkscape:label="1">
    <path
       id="path1"
       d="M 0,0 H 203.259 V 74.235 H 0 Z"
       style="fill:#ffffff;fill-opacity:1;fill-rule:nonzero;stroke:none"
       transform="matrix(1.3333333,0,0,-1.3333333,0,98.98)" />
    <path
       id="path2"
       d="M -41.97101,-52.56891 V 20.66724 H 160.29028 V -52.56891 Z"
       style="fill:#ffffff;fill-opacity:1;fill-rule:nonzero;stroke:none"
       transform="matrix(1.3333333,0,0,-1.3333333,56.626667,28.222667)" />
    <path
       id="path3"
       d="m 4.089875,-4.1600937 c -0.5976563,-0.3398438 -0.9375,-0.4335938 -1.5351563,-0.4335938 -1.3945312,0 -2.1914062,1.2070313 -2.1914062,2.3789063 0,1.24218745 0.9023437,2.32031245 2.1445312,2.32031245 0.5390625,0 1.0898438,-0.140625 1.6289063,-0.50390625 L 4.0781562,-1.0663437 C 3.5625312,-0.66790625 3.0234687,-0.52728125 2.5195625,-0.52728125 1.69925,-0.52728125 1.13675,-1.242125 1.13675,-2.2265 c 0,-0.7734375 0.3632812,-1.7226562 1.4179687,-1.7226562 0.5273438,0 0.8671875,0.070312 1.40625,0.4335937 z M 5.9853828,-6.914 h -0.75 V 6.25e-5 h 0.75 z m 3.6240234,4.2070313 1.6757808,-1.7109375 h -0.902343 l -2.0156253,2.0625 V -6.914 H 7.6406562 V 6.25e-5 h 0.6914063 v -1.40625 L 9.1289375,-2.2265 10.687531,6.25e-5 h 0.808594 z m 0,0"
       style="fill:#000000;fill-opacity:1;fill-rule:nonzero;stroke:none"
       aria-label="clk"
       transform="matrix(1.3333333,0,0,1.3333333,31.609333,28.218667)" />
    <path
       id="path4"
       d="M 0,0.00255 H 14.1693 V 10.62952 H 28.33861 V 0.00255 H 42.50792 V 10.62952 H 56.67723 V 0.00255 h 14.1693 V 10.62952 H 85.01584 V 0.00255 h 14.16931 v 10.62697 h 14.16931 V 0.00255 h 14.1693 v 10.62697 h 14.16931 V 0.00255 h 14.16931"
       style="fill:none;stroke:#000000;stroke-width:0.66414;stroke-linecap:round;stroke-linejoin:round;stroke-miterlimit:10;stroke-dasharray:none;stroke-opacity:1"
       transform="matrix(1.3333333,0,0,-1.3333333,56.626667,28.222667)" />
    <path
       id="path5"
       d="m 1.5595312,-2.1338672 c 0,-0.9960937 0.7265625,-1.7109375 1.6992188,-1.734375 v -0.6679687 c -0.890625,0.011719 -1.4296875,0.5039062 -1.7460938,0.9609375 V -4.4893359 H 0.82125 v 4.48828121 h 0.7382812 z m 6.1699219,-4.78125 h -0.75 v 2.9296875 c -0.5273437,-0.4335937 -1.078125,-0.5507812 -1.453125,-0.5507812 -0.984375,0 -1.7578125,1.0429687 -1.7578125,2.3203125 0,1.31249996 0.7617188,2.32031246 1.7109375,2.32031246 0.328125,0 0.9140625,-0.08203125 1.4765625,-0.62109375 v 0.515625 h 0.7734375 z m -0.7734375,5.53125 c 0,0.140625 -0.011719,0.3164063 -0.328125,0.60937501 -0.234375,0.19921875 -0.4804687,0.26953125 -0.7382812,0.26953125 -0.6210938,0 -1.3476563,-0.45703125 -1.3476563,-1.69921876 0,-1.3125 0.8554688,-1.7226562 1.4414063,-1.7226562 0.4453125,0 0.75,0.234375 0.9726562,0.5507812 z m 0,0"
       style="fill:#000000;fill-opacity:1;fill-rule:nonzero;stroke:none"
       aria-label="rd"
       transform="matrix(1.3333333,0,0,1.3333333,35.78,56.56)" />
    <path
       id="path6"
       d="M 0,-21.25397 H 21.25395 L 23.0251,-10.627 h 26.56748 l 1.77114,-10.62697 h 26.56745 l 1.77115,10.62697 h 26.56747 l 1.77115,-10.62697 h 47.82141"
       style="fill:none;stroke:#000000;stroke-width:0.66414;stroke-linecap:round;stroke-linejoin:round;stroke-miterlimit:10;stroke-dasharray:none;stroke-opacity:1"
       transform="matrix(1.3333333,0,0,-1.3333333,56.626667,28.222667)" />
    <path
       id="path7"
       d="m 1.5583281,-2.132125 c 0,-0.9960937 0.7265625,-1.7109375 1.6992188,-1.734375 V -4.5344687 C 2.3669219,-4.52275 1.8278594,-4.0305625 1.5114531,-3.5735312 V -4.4875937 H 0.82004687 V 6.875e-4 H 1.5583281 Z M 7.72825,-6.913375 h -0.75 v 2.9296875 C 6.4509062,-4.4172812 5.900125,-4.5344687 5.525125,-4.5344687 c -0.984375,0 -1.7578125,1.0429687 -1.7578125,2.3203125 0,1.31249995 0.7617187,2.32031245 1.7109375,2.32031245 0.328125,0 0.9140625,-0.08203125 1.4765625,-0.62109375 V 6.875e-4 H 7.72825 Z m -0.7734375,5.53125 c 0,0.140625 -0.011719,0.3164063 -0.328125,0.609375 -0.234375,0.19921875 -0.4804688,0.26953125 -0.7382813,0.26953125 -0.6210937,0 -1.3476562,-0.45703125 -1.3476562,-1.69921875 0,-1.3125 0.8554687,-1.7226562 1.4414062,-1.7226562 0.4453125,0 0.75,0.234375 0.9726563,0.5507812 z m 0,0"
       style="fill:#000000;fill-opacity:1;fill-rule:nonzero;stroke:none"
       aria-label="rd"
       transform="matrix(1.3333333,0,0,1.3333333,6.5706667,84.905333)" />
    <path
       id="path8"
       d="M 0,0 H 2.989"
       style="fill:none;stroke:#000000;stroke-width:0.398;stroke-linecap:butt;stroke-linejoin:round;stroke-miterlimit:10;stroke-dasharray:none;stroke-opacity:1"
       transform="matrix(1.3333333,0,0,-1.3333333,18.769333,84.64)" />
    <path
       id="path9"
       d="m 4.3236484,-6.913375 h -0.75 v 2.9296875 c -0.5273437,-0.4335937 -1.078125,-0.5507812 -1.453125,-0.5507812 -0.984375,0 -1.75781246,1.0429687 -1.75781246,2.3203125 0,1.31249995 0.76171876,2.32031245 1.71093746,2.32031245 0.328125,0 0.9140625,-0.08203125 1.4765625,-0.62109375 v 0.515625 h 0.7734375 z m -0.7734375,5.53125 c 0,0.140625 -0.011719,0.3164063 -0.328125,0.609375 -0.234375,0.19921875 -0.4804687,0.26953125 -0.7382812,0.26953125 -0.6210938,0 -1.3476563,-0.45703125 -1.3476563,-1.69921875 0,-1.3125 0.8554688,-1.7226562 1.4414063,-1.7226562 0.4453125,0 0.75,0.234375 0.9726562,0.5507812 z m 5.569336,-1.5 c 0,-1.0078125 -0.7265625,-1.7109375 -1.640625,-1.7109375 -0.6445313,0 -1.1015625,0.1640625 -1.5703125,0.4335938 l 0.070312,0.65625 c 0.515625,-0.375 1.0078125,-0.5039063 1.5,-0.5039063 0.46875,0 0.8671875,0.3984375 0.8671875,1.1367188 v 0.4335937 c -1.5,0.011719 -2.765625,0.4335938 -2.765625,1.3125 0,0.421875 0.2695312,1.23046875 1.1367187,1.23046875 0.140625,0 1.078125,-0.01171875 1.6523438,-0.46875 V 6.875e-4 h 0.75 z m -0.7734375,1.5703125 c 0,0.1875 0,0.43359375 -0.3398438,0.62109375 -0.2929687,0.1875 -0.6679687,0.1875 -0.7734375,0.1875 -0.4804687,0 -0.9257812,-0.22265625 -0.9257812,-0.64453125 0,-0.6914062 1.6054687,-0.7617187 2.0390625,-0.7851562 z m 3.3369136,-2.53125 h 1.40625 v -0.5742187 h -1.40625 v -1.265625 h -0.691406 v 1.265625 H 10.12443 v 0.5742187 h 0.84375 v 2.6601563 c 0,0.5976562 0.128906,1.28906245 0.820312,1.28906245 0.703125,0 1.207031,-0.24609375 1.453125,-0.375 l -0.152344,-0.5859375 c -0.257812,0.2109375 -0.585937,0.328125 -0.902343,0.328125 -0.363282,0 -0.503907,-0.3046875 -0.503907,-0.83203125 z m 5.824219,0.9609375 c 0,-1.0078125 -0.726562,-1.7109375 -1.640625,-1.7109375 -0.644531,0 -1.101562,0.1640625 -1.570312,0.4335938 l 0.07031,0.65625 c 0.515625,-0.375 1.007813,-0.5039063 1.5,-0.5039063 0.46875,0 0.867188,0.3984375 0.867188,1.1367188 v 0.4335937 c -1.5,0.011719 -2.765625,0.4335938 -2.765625,1.3125 0,0.421875 0.269531,1.23046875 1.136718,1.23046875 0.140625,0 1.078125,-0.01171875 1.652344,-0.46875 V 6.875e-4 h 0.75 z m -0.773437,1.5703125 c 0,0.1875 0,0.43359375 -0.339844,0.62109375 -0.292969,0.1875 -0.667969,0.1875 -0.773438,0.1875 -0.480468,0 -0.925781,-0.22265625 -0.925781,-0.64453125 0,-0.6914062 1.605469,-0.7617187 2.039063,-0.7851562 z m 0,0"
       style="fill:#000000;fill-opacity:1;fill-rule:nonzero;stroke:none"
       aria-label="data"
       transform="matrix(1.3333333,0,0,1.3333333,22.754667,84.905333)" />
    <path
       id="path10"
       d="m 0,-31.88489 42.50792,-6.2e-4 1.77115,-5.31349 -1.77115,-5.31351 L 0,-42.51184"
       style="fill:none;stroke:#000000;stroke-width:0.66414;stroke-linecap:round;stroke-linejoin:round;stroke-miterlimit:10;stroke-dasharray:none;stroke-opacity:1"
       transform="matrix(1.3333333,0,0,-1.3333333,56.626667,28.222667)" />
    <path
       id="path11"
       d="m 44.27907,-37.19772 1.77115,5.31347 53.13493,-6.4e-4 1.77115,-5.31347 -1.77115,-5.31351 -53.13493,0.0013 -1.77115,5.31348"
       style="fill:none;stroke:#000000;stroke-width:0.66414;stroke-linecap:round;stroke-linejoin:round;stroke-miterlimit:10;stroke-dasharray:none;stroke-opacity:1"
       transform="matrix(1.3333333,0,0,-1.3333333,56.626667,28.222667)" />
    <path
       id="path12"
       d="M 4.3158724,-6.9133073 H 3.5736849 v 2.9296875 c -0.5273438,-0.4296875 -1.09375,-0.546875 -1.4453125,-0.546875 -0.9960938,0 -1.77734375,1.0351563 -1.77734375,2.3242188 0,1.30859371 0.78124995,2.32421871 1.71874995,2.32421871 0.3320313,0 0.9179688,-0.09765625 1.484375,-0.64453125 V 7.5520833e-4 h 0.7617188 z m -0.7617188,5.5273438 c 0,0.1367187 -0.019531,0.3125 -0.3320312,0.60546871 -0.234375,0.1953125 -0.4882813,0.29296875 -0.7421875,0.29296875 -0.625,0 -1.3476563,-0.46875 -1.3476563,-1.71874996 0,-1.3085938 0.859375,-1.71875 1.4453125,-1.71875 0.4492188,0 0.7421875,0.234375 0.9765625,0.546875 z m 5.5566407,-1.484375 c 0,-1.015625 -0.7226563,-1.71875 -1.640625,-1.71875 -0.6445313,0 -1.09375,0.15625 -1.5625,0.4296875 l 0.058594,0.6445312 c 0.5273438,-0.3515625 1.015625,-0.4882812 1.5039063,-0.4882812 0.46875,0 0.8789062,0.390625 0.8789062,1.1328125 v 0.4296875 c -1.5039062,0.019531 -2.7734375,0.4296875 -2.7734375,1.3085937 0,0.42968751 0.2734375,1.25000001 1.1523438,1.25000001 0.1367187,0 1.0742187,-0.01953125 1.640625,-0.46875 V 7.5520833e-4 h 0.7421875 z m -0.7617188,1.5625 c 0,0.1757812 0,0.42968746 -0.3515625,0.62499996 -0.2734375,0.17578125 -0.6640625,0.1953125 -0.7617187,0.1953125 -0.4882813,0 -0.9375,-0.234375 -0.9375,-0.66406246 0,-0.6835938 1.6210937,-0.7617188 2.0507812,-0.78125 z M 11.674271,-3.846901 h 1.40625 v -0.5664063 h -1.40625 v -1.2695312 h -0.683594 v 1.2695312 h -0.859375 v 0.5664063 h 0.839844 v 2.65625 c 0,0.60546871 0.136719,1.30859371 0.820312,1.30859371 0.703125,0 1.210938,-0.25390625 1.445313,-0.390625 l -0.15625,-0.5859375 c -0.253906,0.21484375 -0.566406,0.33203125 -0.898438,0.33203125 -0.371093,0 -0.507812,-0.29296875 -0.507812,-0.82031246 z m 5.825195,0.9765625 c 0,-1.015625 -0.722656,-1.71875 -1.640625,-1.71875 -0.644531,0 -1.09375,0.15625 -1.5625,0.4296875 l 0.05859,0.6445312 c 0.527344,-0.3515625 1.015625,-0.4882812 1.503906,-0.4882812 0.46875,0 0.878906,0.390625 0.878906,1.1328125 v 0.4296875 c -1.503906,0.019531 -2.773437,0.4296875 -2.773437,1.3085937 0,0.42968751 0.273437,1.25000001 1.152344,1.25000001 0.136718,0 1.074218,-0.01953125 1.640625,-0.46875 V 7.5520833e-4 h 0.742187 z m -0.761719,1.5625 c 0,0.1757812 0,0.42968746 -0.351562,0.62499996 -0.273438,0.17578125 -0.664063,0.1953125 -0.761719,0.1953125 -0.488281,0 -0.9375,-0.234375 -0.9375,-0.66406246 0,-0.6835938 1.621094,-0.7617188 2.050781,-0.78125 z m 6.132813,-1.9335938 c 0,-0.8007812 -0.03906,-1.71875 -0.449219,-2.5195312 -0.410156,-0.7617188 -1.09375,-0.9960938 -1.621094,-0.9960938 -0.585937,0 -1.269531,0.2734375 -1.679687,1.1523438 -0.332031,0.7421875 -0.390625,1.5625 -0.390625,2.3632812 0,0.78125 0.03906,1.5039063 0.351562,2.2265625 0.390625,0.95703126 1.152344,1.23046876 1.71875,1.23046876 0.722657,0 1.347657,-0.41015625 1.679688,-1.09375 0.292969,-0.64453126 0.390625,-1.30859376 0.390625,-2.36328126 z m -2.070313,2.85156251 c -0.507812,0 -0.917968,-0.37109375 -1.113281,-1.09375001 -0.15625,-0.5664062 -0.175781,-1.1132812 -0.175781,-1.875 0,-0.6445312 0,-1.2304687 0.175781,-1.7773437 0.05859,-0.1953125 0.3125,-1.015625 1.113281,-1.015625 0.78125,0 1.035157,0.7617187 1.113282,0.9375 0.175781,0.5664062 0.175781,1.2304687 0.175781,1.8554687 0,0.6445313 0,1.2695313 -0.175781,1.9140625 -0.253907,0.89843751 -0.78125,1.05468751 -1.113282,1.05468751 z m 0,0"
       style="fill:#000000;fill-opacity:1;fill-rule:nonzero;stroke:none"
       aria-label="data0"
       transform="matrix(0.8,0,0,0.8,144.12933,80.585333)" />
    <path
       id="path13"
       d="m 100.9563,-37.19646 1.77115,5.31349 53.13493,-0.0013 m 0,-10.62698 -53.13493,0.0013 -1.77115,5.31346"
       style="fill:none;stroke:#000000;stroke-width:0.66414;stroke-linecap:round;stroke-linejoin:round;stroke-miterlimit:10;stroke-dasharray:none;stroke-opacity:1"
       transform="matrix(1.3333333,0,0,-1.3333333,56.626667,28.222667)" />
    <path
       id="path14"
       d="M 4.318763,-6.9116406 H 3.5765755 v 2.9296875 c -0.5273437,-0.4296875 -1.09375,-0.546875 -1.4453125,-0.546875 -0.9960937,0 -1.77734373,1.0351562 -1.77734373,2.3242187 0,1.30859378 0.78125003,2.32421878 1.71875003,2.32421878 0.3320312,0 0.9179687,-0.09765625 1.484375,-0.64453125 V 0.00242188 H 4.318763 Z m -0.7617187,5.5273437 c 0,0.1367188 -0.019531,0.3125 -0.3320313,0.60546878 -0.234375,0.1953125 -0.4882812,0.29296875 -0.7421875,0.29296875 -0.625,0 -1.3476562,-0.46875 -1.3476562,-1.71875003 0,-1.3085937 0.859375,-1.71875 1.4453125,-1.71875 0.4492187,0 0.7421875,0.234375 0.9765625,0.546875 z m 5.5566406,-1.484375 c 0,-1.015625 -0.7226563,-1.71875 -1.640625,-1.71875 -0.6445313,0 -1.09375,0.15625 -1.5625,0.4296875 l 0.058594,0.6445313 c 0.5273438,-0.3515625 1.015625,-0.4882813 1.5039063,-0.4882813 0.46875,0 0.8789062,0.390625 0.8789062,1.1328125 v 0.4296875 c -1.5039062,0.019531 -2.7734375,0.4296875 -2.7734375,1.3085938 0,0.42968748 0.2734375,1.24999998 1.1523438,1.24999998 0.1367187,0 1.0742187,-0.0195313 1.640625,-0.46875 v 0.3515625 h 0.7421875 z m -0.7617188,1.5625 c 0,0.1757813 0,0.42968753 -0.3515625,0.62500003 -0.2734375,0.17578125 -0.6640625,0.1953125 -0.7617187,0.1953125 -0.4882813,0 -0.9375,-0.234375 -0.9375,-0.66406253 0,-0.6835937 1.6210937,-0.7617187 2.0507812,-0.78125 z m 3.3203129,-2.5390625 h 1.40625 v -0.5664062 h -1.40625 v -1.2695313 h -0.683594 v 1.2695313 H 10.12931 v 0.5664062 h 0.839844 v 2.65625 c 0,0.60546878 0.136718,1.30859378 0.820312,1.30859378 0.703125,0 1.210938,-0.25390625 1.445313,-0.390625 l -0.15625,-0.5859375 c -0.253907,0.21484375 -0.566407,0.33203125 -0.898438,0.33203125 -0.371094,0 -0.507812,-0.29296875 -0.507812,-0.82031253 z m 5.825195,0.9765625 c 0,-1.015625 -0.722656,-1.71875 -1.640625,-1.71875 -0.644531,0 -1.09375,0.15625 -1.5625,0.4296875 l 0.05859,0.6445313 c 0.527343,-0.3515625 1.015625,-0.4882813 1.503906,-0.4882813 0.46875,0 0.878906,0.390625 0.878906,1.1328125 v 0.4296875 c -1.503906,0.019531 -2.773437,0.4296875 -2.773437,1.3085938 0,0.42968748 0.273437,1.24999998 1.152343,1.24999998 0.136719,0 1.074219,-0.0195313 1.640625,-0.46875 v 0.3515625 h 0.742188 z m -0.761719,1.5625 c 0,0.1757813 0,0.42968753 -0.351562,0.62500003 -0.273438,0.17578125 -0.664063,0.1953125 -0.761719,0.1953125 -0.488281,0 -0.9375,-0.234375 -0.9375,-0.66406253 0,-0.6835937 1.621094,-0.7617187 2.050781,-0.78125 z m 4.555664,-5.4492187 h -0.195312 c -0.585938,0.6054687 -1.40625,0.6445312 -1.894531,0.6640625 v 0.5664062 c 0.332031,0 0.820312,-0.019531 1.308593,-0.234375 v 5.17578128 h -1.25 v 0.5859375 h 3.28125 v -0.5859375 h -1.25 z m 0,0"
       style="fill:#000000;fill-opacity:1;fill-rule:nonzero;stroke:none"
       aria-label="data1"
       transform="matrix(0.8,0,0,0.8,219.69733,80.584)" />
    <path
       id="path15"
       d="m 14.1693,15.94044 v -63.78256 m 28.33862,63.78256 v -63.78256 m 28.33861,63.78256 v -63.78256 m 28.33862,63.78256 v -63.78256 m 28.33861,63.78256 v -63.78256"
       style="fill:none;stroke:#808080;stroke-width:0.59776;stroke-linecap:round;stroke-linejoin:round;stroke-miterlimit:10;stroke-dasharray:none;stroke-opacity:0.5"
       transform="matrix(1.3333333,0,0,-1.3333333,56.626667,28.222667)" />
    <path
       id="path16"
       d="M 42.50792,15.94044 V -47.84212 M 99.18515,15.94044 V -47.84212"
       style="fill:none;stroke:#ff0000;stroke-width:0.49815;stroke-linecap:round;stroke-linejoin:round;stroke-miterlimit:10;stroke-dasharray:2.98883, 2.98883;stroke-dashoffset:0;stroke-opacity:0.75"
       transform="matrix(1.3333333,0,0,-1.3333333,56.626667,28.222667)" />
  </g>
</svg>
