<?xml version="1.0" encoding="UTF-8" standalone="no"?>
<!-- Created with Inkscape (http://www.inkscape.org/) -->

<svg
   version="1.1"
   id="svg1"
   width="361.86801"
   height="149.05333"
   viewBox="0 0 361.86801 149.05333"
   sodipodi:docname="main.pdf"
   xmlns:inkscape="http://www.inkscape.org/namespaces/inkscape"
   xmlns:sodipodi="http://sodipodi.sourceforge.net/DTD/sodipodi-0.dtd"
   xmlns="http://www.w3.org/2000/svg"
   xmlns:svg="http://www.w3.org/2000/svg">
  <defs
     id="defs1" />
  <sodipodi:namedview
     id="namedview1"
     pagecolor="#ffffff"
     bordercolor="#000000"
     borderopacity="0.25"
     inkscape:showpageshadow="2"
     inkscape:pageopacity="0.0"
     inkscape:pagecheckerboard="0"
     inkscape:deskcolor="#d1d1d1">
    <inkscape:page
       x="0"
       y="0"
       inkscape:label="1"
       id="page1"
       width="361.86801"
       height="149.05333"
       margin="0"
       bleed="0" />
  </sodipodi:namedview>
  <g
     id="g1"
     inkscape:groupmode="layer"
     inkscape:label="1">
    <path
       id="path1"
       d="M 0,0 H 271.401 V 111.79 H 0 Z"
       style="fill:#ffffff;fill-opacity:1;fill-rule:nonzero;stroke:none"
       transform="matrix(1.3333333,0,0,-1.3333333,0,149.05333)" />
    <path
       id="path2"
       d="M -37.61546,-54.55241 V 56.23853 H 232.7889 V -54.55241 Z"
       style="fill:#ffffff;fill-opacity:1;fill-rule:nonzero;stroke:none"
       transform="matrix(1.3333333,0,0,-1.3333333,50.82,75.650667)" />
    <path
       id="path3"
       d="M -33.87389,-50.81084 H 33.8739 V 50.81085 h -67.74779 z"
       style="fill:none;stroke:#000000;stroke-width:0.3985;stroke-linecap:butt;stroke-linejoin:miter;stroke-miterlimit:10;stroke-dasharray:none;stroke-opacity:1"
       transform="matrix(1.3333333,0,0,-1.3333333,50.82,75.650667)" />
    <path
       id="path4"
       d="M 161.29951,-50.81084 H 229.0473 V 50.81085 h -67.74779 z"
       style="fill:none;stroke:#000000;stroke-width:0.3985;stroke-linecap:butt;stroke-linejoin:miter;stroke-miterlimit:10;stroke-dasharray:none;stroke-opacity:1"
       transform="matrix(1.3333333,0,0,-1.3333333,50.82,75.650667)" />
    <path
       id="path5"
       d="M 4.1247734,-2.4972109 V -3.0245547 H 1.5818047 v -1.9335937 h 1.1015625 c 0.09375,0 0.1875,0.011719 0.2929687,0.011719 h 1.5117188 v -0.5625 H 0.77321094 v 5.50781251 H 1.5818047 V -2.4972109 Z m 3.7060547,0.2226562 c 1.03125,0 1.9453125,-0.7265625 1.9453125,-1.640625 0,-0.8554687 -0.84375,-1.6171875 -2.0039062,-1.6171875 H 5.6277031 v 5.53125001 h 0.796875 V -2.2745547 Z M 7.5730156,-5.0636172 c 0.9023438,0 1.4765625,0.4804688 1.4765625,1.1484375 0,0.65625 -0.5390625,1.1484375 -1.4765625,1.1484375 h -1.171875 v -2.296875 z m 7.7548824,2.6835938 h -1.78125 v 0.5273437 h 1.078125 v 1.21875001 c -0.351562,0.0820313 -0.691406,0.15234375 -1.042968,0.15234375 -1.230469,0 -1.992188,-1.14843746 -1.992188,-2.29687496 0,-1.0898438 0.738281,-2.2851563 1.945313,-2.2851563 0.738281,0 1.195312,0.2226563 1.59375,0.5507813 l 0.128906,-0.7265625 c -0.550781,-0.2578125 -1.03125,-0.3867188 -1.640625,-0.3867188 -1.605469,0 -2.824219,1.2539063 -2.824219,2.8476563 0,1.5585937 1.207031,2.85937496 2.777344,2.85937496 0.574219,0 1.253906,-0.12890625 1.757812,-0.3984375 z m 3.770508,-3.1523438 h -0.773437 l -2.191407,5.53125001 h 0.65625 l 0.621094,-1.58203121 h 2.425781 l 0.621094,1.58203121 h 0.832031 z m -0.46875,0.609375 1.007813,2.8710938 h -2.027344 z m 0,0"
       style="fill:#000000;fill-opacity:1;fill-rule:nonzero;stroke:none"
       aria-label="FPGA"
       transform="matrix(1.3333333,0,0,1.3333333,36.457333,79.341333)" />
    <path
       id="path6"
       d="m 5.0736406,-2.3775156 h -1.78125 v 0.5273437 h 1.078125 v 1.21875002 c -0.3515625,0.0820313 -0.6914062,0.15234375 -1.0429687,0.15234375 -1.2304688,0 -1.9921875,-1.14843747 -1.9921875,-2.29687497 0,-1.0898438 0.7382812,-2.2851563 1.9453125,-2.2851563 0.7382812,0 1.1953125,0.2226563 1.59375,0.5507813 l 0.1289062,-0.7265625 c -0.5507812,-0.2578125 -1.03125,-0.3867188 -1.640625,-0.3867188 -1.6054687,0 -2.82421873,1.2539063 -2.82421873,2.8476563 0,1.5585937 1.20703123,2.85937497 2.77734373,2.85937497 0.5742188,0 1.2539063,-0.12890625 1.7578125,-0.3984375 z m 3.9697266,0.082031 c 0,-0.8085937 -0.6210938,-1.359375 -1.4179688,-1.359375 -0.5039062,0 -0.8789062,0.1054688 -1.3242187,0.3398438 l 0.046875,0.5859375 c 0.2578125,-0.1757813 0.65625,-0.421875 1.2773437,-0.421875 0.3515625,0 0.7265625,0.2695312 0.7265625,0.8671875 v 0.3164062 c -1.1835937,0.035156 -2.34375,0.2929688 -2.34375,1.03125002 0,0.3984375 0.2695313,1.01953125 0.9726563,1.01953125 0.3398437,0 0.9726562,-0.0703125 1.3945312,-0.38671875 v 0.3046875 h 0.6679688 z m -0.6914063,1.1601563 c 0,0.16406247 0,0.37499997 -0.28125,0.53906247 -0.2578125,0.140625 -0.5742187,0.15234375 -0.65625,0.15234375 -0.4335937,0 -0.7734375,-0.19921875 -0.7734375,-0.50390625 0,-0.50390627 1.3476563,-0.56249997 1.7109375,-0.57421877 z m 7.4208981,-1.21875 c 0,-0.6210938 -0.1875,-1.265625 -1.160156,-1.265625 -0.679687,0 -1.089844,0.3984375 -1.277344,0.6445312 -0.08203,-0.2109375 -0.28125,-0.6445312 -1.078125,-0.6445312 -0.457031,0 -0.890625,0.1875 -1.242187,0.609375 v -0.5859375 h -0.644531 v 3.59765622 h 0.703125 V -1.9322031 c 0,-0.5273438 0.222656,-1.1601563 0.832031,-1.1601563 0.820312,0 0.820312,0.5625 0.820312,0.7851563 v 2.30859372 h 0.691407 V -1.9322031 c 0,-0.5273438 0.222656,-1.1601563 0.84375,-1.1601563 0.820312,0 0.820312,0.5625 0.820312,0.7851563 v 2.30859372 h 0.691406 z m 4.086914,1.48828122 c -0.445312,0.31640625 -0.949218,0.421875 -1.289062,0.421875 -0.691406,0 -1.21875,-0.56250002 -1.242188,-1.30078122 h 2.613282 c 0,-0.3632813 -0.03516,-0.9023438 -0.351563,-1.359375 -0.28125,-0.3984375 -0.761719,-0.5507813 -1.148437,-0.5507813 -0.972657,0 -1.722657,0.8554688 -1.722657,1.8632813 0,1.01953122 0.796875,1.87499997 1.851563,1.87499997 0.457031,0 0.9375,-0.140625 1.335937,-0.38671875 z M 17.387117,-2.2251719 c 0.1875,-0.6328125 0.65625,-0.9023437 1.054688,-0.9023437 0.351562,0 0.867187,0.1640625 1.019531,0.9023437 z m 7.749024,1.25390627 c -0.5625,0.33984375 -0.808594,0.4921875 -1.605469,0.4921875 -1.242188,0 -1.992188,-1.14843747 -1.992188,-2.29687497 0,-1.1835938 0.820313,-2.2851563 1.992188,-2.2851563 0.515625,0 1.066406,0.1640625 1.429687,0.4453125 l 0.128907,-0.7265625 c -0.5625,-0.2109375 -1.007813,-0.2695312 -1.582032,-0.2695312 -1.582031,0 -2.765625,1.3007812 -2.765625,2.8359375 0,1.640625 1.253907,2.85937497 2.8125,2.85937497 0.773438,0 1.101563,-0.1640625 1.628907,-0.4453125 z m 4.177734,-2.56640627 h -0.691406 v 2.3085938 c 0,0.64453122 -0.539063,0.84374997 -1.007813,0.84374997 -0.585937,0 -0.644531,-0.1640625 -0.644531,-0.52734375 V -3.5376719 H 26.267 v 2.67187502 c 0,0.703125 0.316406,0.94921875 0.878906,0.94921875 0.316406,0 1.019531,-0.0703125 1.5,-0.4453125 v 0.36328125 h 0.667969 z m 2.018555,-1.9921875 h -0.667969 v 5.53125002 h 0.691406 v -0.375 c 0.175781,0.15234375 0.5625,0.45703125 1.136719,0.45703125 0.867187,0 1.570312,-0.8203125 1.570312,-1.86328127 0,-0.9609375 -0.550781,-1.8398437 -1.347656,-1.8398437 -0.503906,0 -0.984375,0.1640625 -1.382812,0.4570312 z m 0.02344,3.0234375 c 0,-0.1289062 0,-0.2226562 0.28125,-0.4101562 0.117188,-0.070312 0.328125,-0.1757813 0.597656,-0.1757813 0.539063,0 1.136719,0.3632813 1.136719,1.3125 0,0.97265627 -0.65625,1.33593752 -1.21875,1.33593752 -0.292969,0 -0.574219,-0.140625 -0.796875,-0.4921875 z m 6.66211,1.64062502 c -0.445313,0.31640625 -0.949219,0.421875 -1.289063,0.421875 -0.691406,0 -1.21875,-0.56250002 -1.242187,-1.30078122 h 2.613281 c 0,-0.3632813 -0.03516,-0.9023438 -0.351563,-1.359375 -0.28125,-0.3984375 -0.761718,-0.5507813 -1.148437,-0.5507813 -0.972656,0 -1.722656,0.8554688 -1.722656,1.8632813 0,1.01953122 0.796875,1.87499997 1.851562,1.87499997 0.457031,0 0.9375,-0.140625 1.335938,-0.38671875 z M 35.54532,-2.2251719 c 0.1875,-0.6328125 0.65625,-0.9023437 1.054688,-0.9023437 0.351562,0 0.867187,0.1640625 1.019531,0.9023437 z M 7.7455156,7.085375 h -1.78125 v 0.5273437 h 1.078125 v 1.21875 C 6.6908281,8.9135 6.3509844,8.9838125 5.9994219,8.9838125 c -1.2304688,0 -1.9921875,-1.1484375 -1.9921875,-2.296875 0,-1.0898438 0.7382812,-2.2851563 1.9453125,-2.2851563 0.7382812,0 1.1953125,0.2226563 1.59375,0.5507813 L 7.6752031,4.226 C 7.1244219,3.9681875 6.6439531,3.8392812 6.0345781,3.8392812 c -1.6054687,0 -2.8242187,1.2539063 -2.8242187,2.8476563 0,1.5585937 1.2070312,2.859375 2.7773437,2.859375 0.5742188,0 1.2539063,-0.1289063 1.7578125,-0.3984375 z m 3.9667964,0.082031 c 0,-0.8085937 -0.621093,-1.359375 -1.417968,-1.359375 -0.5039065,0 -0.8789065,0.1054688 -1.324219,0.3398438 L 9.017,6.7338125 c 0.2578125,-0.1757813 0.65625,-0.421875 1.277344,-0.421875 0.351562,0 0.726562,0.2695312 0.726562,0.8671875 V 7.4955312 C 9.8373125,7.5306875 8.6771562,7.7885 8.6771562,8.5267812 c 0,0.3984375 0.2695313,1.0195313 0.9726563,1.0195313 0.3398437,0 0.9726565,-0.070312 1.3945315,-0.3867188 v 0.3046875 h 0.667968 z m -0.691406,1.1601563 c 0,0.1640625 0,0.375 -0.28125,0.5390625 -0.257812,0.140625 -0.574219,0.1523437 -0.65625,0.1523437 -0.4335935,0 -0.7734373,-0.1992187 -0.7734373,-0.5039062 0,-0.5039063 1.3476563,-0.5625 1.7109373,-0.5742188 z m 7.420899,-1.21875 c 0,-0.6210938 -0.1875,-1.265625 -1.160157,-1.265625 -0.679687,0 -1.089843,0.3984375 -1.277343,0.6445312 -0.08203,-0.2109375 -0.28125,-0.6445312 -1.078125,-0.6445312 -0.457032,0 -0.890625,0.1875 -1.242188,0.609375 V 5.866625 h -0.644531 v 3.5976562 h 0.703125 V 7.5306875 c 0,-0.5273438 0.222656,-1.1601563 0.832031,-1.1601563 0.820313,0 0.820313,0.5625 0.820313,0.7851563 v 2.3085937 h 0.691406 V 7.5306875 c 0,-0.5273438 0.222656,-1.1601563 0.84375,-1.1601563 0.820312,0 0.820312,0.5625 0.820312,0.7851563 v 2.3085937 h 0.691407 z m 4.089843,1.4882812 c -0.445312,0.3164063 -0.949218,0.421875 -1.289062,0.421875 -0.691406,0 -1.21875,-0.5625 -1.242188,-1.3007812 h 2.613282 c 0,-0.3632813 -0.03516,-0.9023438 -0.351563,-1.359375 C 21.980867,5.9603748 21.500398,5.808031 21.11368,5.808031 c -0.972657,0 -1.722657,0.8554688 -1.722657,1.8632813 0,1.0195312 0.796875,1.875 1.851563,1.875 0.457031,0 0.9375,-0.140625 1.335937,-0.3867188 z m -2.472656,-1.359375 c 0.1875,-0.6328125 0.65625,-0.9023437 1.054688,-0.9023437 0.351562,0 0.867187,0.1640625 1.019531,0.9023437 z m 4.183594,1.8515625 c 0.421875,0.3867188 0.878906,0.4570313 1.148437,0.4570313 0.84375,0 1.558594,-0.8085938 1.558594,-1.8632813 0,-0.9492187 -0.527344,-1.8398437 -1.3125,-1.8398437 -0.363281,0 -0.960937,0.1054687 -1.417969,0.46875 V 5.9252187 H 23.55118 v 5.0859373 h 0.691406 z m 0,-2.2734375 c 0.1875,-0.2226562 0.492187,-0.421875 0.878906,-0.421875 0.632813,0 1.136719,0.5976563 1.136719,1.2890625 0,0.796875 -0.597656,1.3359375 -1.21875,1.3359375 -0.117188,0 -0.316406,-0.011719 -0.527344,-0.1875 -0.234375,-0.175781 -0.269531,-0.3046873 -0.269531,-0.4453123 z m 6.401367,0.3515625 c 0,-0.8085937 -0.621094,-1.359375 -1.417969,-1.359375 -0.503906,0 -0.878906,0.1054688 -1.324218,0.3398438 l 0.04687,0.5859375 c 0.257812,-0.1757813 0.65625,-0.421875 1.277343,-0.421875 0.351563,0 0.726563,0.2695312 0.726563,0.8671875 V 7.495531 c -1.183594,0.035156 -2.34375,0.2929688 -2.34375,1.03125 0,0.3984375 0.269531,1.0195313 0.972656,1.0195313 0.339844,0 0.972656,-0.070312 1.394531,-0.3867188 V 9.464281 h 0.667969 z m -0.691406,1.1601563 c 0,0.1640625 0,0.375 -0.28125,0.5390625 -0.257813,0.140625 -0.574219,0.1523437 -0.65625,0.1523437 -0.433594,0 -0.773438,-0.1992187 -0.773438,-0.5039062 0,-0.5039063 1.347657,-0.5625 1.710938,-0.5742188 z M 35.003328,3.933031 h -0.667969 v 2.3320313 c -0.515625,-0.375 -1.03125,-0.421875 -1.265625,-0.421875 -0.832031,0 -1.476562,0.84375 -1.476562,1.8515625 0,1.0078125 0.632812,1.8515625 1.453125,1.8515625 0.492187,0 0.960937,-0.2226563 1.265625,-0.4921875 V 9.464281 h 0.691406 z m -0.691406,4.546875 c -0.199219,0.328125 -0.503906,0.5390625 -0.890625,0.5390625 -0.550781,0 -1.125,-0.3867187 -1.125,-1.3125 0,-0.9960937 0.667969,-1.3359375 1.21875,-1.3359375 0.316406,0 0.585937,0.140625 0.796875,0.4101563 z m 0,0"
       style="fill:#000000;fill-opacity:1;fill-rule:nonzero;stroke:none"
       aria-label="GameCube&#10;Gamepad"
       transform="matrix(1.3333333,0,0,1.3333333,285.47733,71.865333)" />
    <path
       id="path7"
       d="M 34.07314,-40.80745 H 161.10027"
       style="fill:none;stroke:#000000;stroke-width:0.3985;stroke-linecap:butt;stroke-linejoin:miter;stroke-miterlimit:10;stroke-dasharray:none;stroke-opacity:1"
       transform="matrix(1.3333333,0,0,-1.3333333,50.82,75.650667)" />
    <path
       id="path8"
       d="m 5.0745313,-2.3798516 h -1.78125 v 0.5273438 h 1.078125 v 1.21874999 C 4.0198438,-0.55172656 3.68,-0.48141406 3.3284375,-0.48141406 c -1.2304687,0 -1.9921875,-1.14843754 -1.9921875,-2.29687504 0,-1.0898437 0.7382813,-2.2851562 1.9453125,-2.2851562 0.7382813,0 1.1953125,0.2226562 1.59375,0.5507812 l 0.1289063,-0.7265625 c -0.5507813,-0.2578125 -1.03125,-0.3867187 -1.640625,-0.3867187 -1.6054688,0 -2.8242188,1.2539062 -2.8242188,2.8476562 0,1.5585938 1.2070313,2.85937504 2.7773438,2.85937504 0.5742187,0 1.2539062,-0.12890625 1.7578125,-0.3984375 z m 2.446289,-3.1523437 H 6.4426953 V -9.453125e-4 H 7.1106641 V -4.8993828 h 0.011719 l 2.613281,4.8984374875 H 10.813789 V -5.5321953 H 10.14582 v 4.89843749 z m 4.8867187,0 v 5.5312499875 h 2.261719 c 1.429687,0 2.589844,-1.2070312875 2.589844,-2.7187499875 0,-1.5585938 -1.171875,-2.8125 -2.589844,-2.8125 z m 0.773438,5.06249999 V -5.0634453 h 1.265625 c 1.101562,0 2.027343,0.8671875 2.027343,2.3320312 0,1.4882813 -0.972656,2.26171879 -2.027343,2.26171879 z m 9.805664,-5.50781249 c -0.128907,0 -0.152344,0 -0.246094,0.082031 -0.996094,0.8789063 -1.511719,2.296875 -1.511719,3.9023438 0,1.51171874 0.457031,2.95312499 1.511719,3.8789062 0.09375,0.1054688 0.117187,0.1054688 0.246094,0.1054688 h 0.386718 C 23.349922,1.9795234 22.576484,1.3115547 22.213203,0.06936719 22.013984,-0.55172656 21.920234,-1.2079766 21.920234,-1.9931328 c 0,-2.7539063 1.289063,-3.84375 1.453125,-3.984375 z m 2.214843,0.4453125 h -0.667968 v 5.5312499875 h 0.691406 V -0.37594531 c 0.175781,0.15234375 0.5625,0.45703125 1.136719,0.45703125 0.867187,0 1.570312,-0.8203125 1.570312,-1.86328124 0,-0.9609375 -0.550781,-1.8398438 -1.347656,-1.8398438 -0.503906,0 -0.984375,0.1640625 -1.382813,0.4570313 z m 0.02344,3.0234375 c 0,-0.1289063 0,-0.2226563 0.28125,-0.4101563 0.117187,-0.070312 0.328125,-0.1757812 0.597656,-0.1757812 0.539063,0 1.136719,0.3632812 1.136719,1.3125 0,0.97265624 -0.65625,1.33593749 -1.21875,1.33593749 -0.292969,0 -0.574219,-0.140625 -0.796875,-0.4921875 z m 4.335937,-3.0234375 h -0.667968 v 5.5312499875 h 0.667968 z m 4.083985,3.234375 c 0,-0.8085938 -0.621094,-1.359375 -1.417969,-1.359375 -0.503906,0 -0.878906,0.1054687 -1.324219,0.3398437 l 0.04687,0.5859375 c 0.257813,-0.1757812 0.65625,-0.421875 1.277344,-0.421875 0.351563,0 0.726563,0.2695313 0.726563,0.8671875 v 0.3164063 c -1.183594,0.035156 -2.34375,0.2929687 -2.34375,1.03124999 0,0.3984375 0.269531,1.01953125 0.972656,1.01953125 0.339844,0 0.972656,-0.0703125 1.394531,-0.38671875 v 0.3046874975 h 0.667969 z m -0.691406,1.1601562 c 0,0.16406254 0,0.37500004 -0.28125,0.53906254 -0.257813,0.140625 -0.574219,0.15234375 -0.65625,0.15234375 -0.433594,0 -0.773438,-0.19921875 -0.773438,-0.50390625 0,-0.50390624 1.347656,-0.56250004 1.710938,-0.57421874 z m 4.831054,0.26953129 c -0.398437,0.2578125 -0.832031,0.3984375 -1.324219,0.3984375 -0.738281,0 -1.160156,-0.58593749 -1.160156,-1.31249999 0,-0.609375 0.316406,-1.3242188 1.183594,-1.3242188 0.539062,0 0.796875,0.1054688 1.207031,0.3632813 l 0.09375,-0.5742188 c -0.46875,-0.234375 -0.679687,-0.3398437 -1.300781,-0.3398437 -1.195313,0 -1.886719,0.9609375 -1.886719,1.8867187 0,0.97265629 0.773438,1.85156254 1.851563,1.85156254 0.5625,0 1.042968,-0.1640625 1.382812,-0.36328125 z m 2.671875,-1.30078129 1.417969,-1.3710937 H 41.1009 l -1.699218,1.6523437 v -3.6445312 h -0.621094 v 5.5312499875 h 0.585937 V -1.1142266 l 0.679688,-0.65625 1.3125,1.7695312875 h 0.703125 z m 2.613281,4.1601563 c 0.128907,0 0.152344,0 0.246094,-0.082031 1.007813,-0.8789062 1.511719,-2.29687496 1.511719,-3.9023437 0,-1.5117188 -0.457031,-2.953125 -1.5,-3.8789063 -0.105469,-0.1054687 -0.128906,-0.1054687 -0.257813,-0.1054687 h -0.38672 c 0.02344,0.011719 0.796875,0.6796875 1.160156,1.921875 0.199219,0.6210937 0.292969,1.2773437 0.292969,2.0625 0,2.75390624 -1.289063,3.84375 -1.453125,3.984375 z m 0,0"
       style="fill:#000000;fill-opacity:1;fill-rule:nonzero;stroke:none"
       aria-label="GND(black)"
       transform="matrix(1.3333333,0,0,1.3333333,150.59333,125.94267)" />
    <path
       id="path9"
       d="M 36.06566,-20.40372 H 159.10774"
       style="fill:none;stroke:#000000;stroke-width:0.3985;stroke-linecap:butt;stroke-linejoin:miter;stroke-miterlimit:10;stroke-dasharray:none;stroke-opacity:1"
       transform="matrix(1.3333333,0,0,-1.3333333,50.82,75.650667)" />
    <path
       id="path10"
       d="M 1.99252,0 -1.19551,1.59401 0,0 -1.19551,-1.59401"
       style="fill:#000000;fill-opacity:1;fill-rule:nonzero;stroke:none"
       transform="matrix(-1.3333333,0,0,1.3333333,98.907547,102.85563)" />
    <path
       id="path11"
       d="M 1.99252,0 -1.19551,1.59401 0,0 -1.19551,-1.59401"
       style="fill:#000000;fill-opacity:1;fill-rule:nonzero;stroke:none"
       transform="matrix(1.3333333,0,0,-1.3333333,262.96365,102.85563)" />
    <path
       id="path12"
       d="M 3.6906719,-5.5305391 H 3.0227031 v 2.3320313 c -0.515625,-0.375 -1.03125,-0.421875 -1.265625,-0.421875 -0.83203123,0 -1.47656248,0.84375 -1.47656248,1.8515625 0,1.00781249 0.6328125,1.85156249 1.45312498,1.85156249 0.4921875,0 0.9609375,-0.22265625 1.265625,-0.4921875 V 7.109375e-4 h 0.6914063 z m -0.6914063,4.54687504 c -0.1992187,0.328125 -0.5039062,0.5390625 -0.890625,0.5390625 -0.5507812,0 -1.12499998,-0.38671875 -1.12499998,-1.31250004 0,-0.9960937 0.66796878,-1.3359375 1.21874998,-1.3359375 0.3164063,0 0.5859375,0.140625 0.796875,0.4101563 z m 4.772461,-1.31250004 c 0,-0.8085937 -0.6210938,-1.359375 -1.4179688,-1.359375 -0.5039062,0 -0.8789062,0.1054688 -1.3242187,0.3398438 l 0.046875,0.5859375 c 0.2578125,-0.1757813 0.65625,-0.421875 1.2773437,-0.421875 0.3515625,0 0.7265625,0.2695312 0.7265625,0.8671875 v 0.3164062 c -1.1835937,0.035156 -2.34375,0.2929688 -2.34375,1.03125004 0,0.3984375 0.2695313,1.01953125 0.9726563,1.01953125 0.3398437,0 0.9726562,-0.0703125 1.3945312,-0.38671875 V 7.109375e-4 h 0.6679688 z m -0.6914063,1.1601563 c 0,0.16406249 0,0.37499999 -0.28125,0.53906249 -0.2578125,0.140625 -0.5742187,0.15234375 -0.65625,0.15234375 -0.4335937,0 -0.7734375,-0.19921875 -0.7734375,-0.50390625 0,-0.50390629 1.3476563,-0.56249999 1.7109375,-0.57421879 z m 2.859375,-1.8984375 H 11.11157 V -3.5383516 H 9.9396953 V -4.5461641 H 9.3186016 v 1.0078125 H 8.6037578 v 0.5039063 h 0.6914063 v 2.015625 c 0,0.53906249 0.140625,1.10156249 0.7148439,1.10156249 0.574219,0 1.007812,-0.1875 1.253906,-0.29296875 l -0.140625,-0.515625 c -0.257812,0.1875 -0.539062,0.2578125 -0.761719,0.2578125 -0.339843,0 -0.4218747,-0.328125 -0.4218747,-0.69140624 z m 4.9570317,0.7382812 c 0,-0.8085937 -0.621094,-1.359375 -1.417969,-1.359375 -0.503906,0 -0.878906,0.1054688 -1.324219,0.3398438 l 0.04687,0.5859375 c 0.257813,-0.1757813 0.65625,-0.421875 1.277344,-0.421875 0.351562,0 0.726562,0.2695312 0.726562,0.8671875 v 0.3164062 c -1.183593,0.035156 -2.34375,0.2929688 -2.34375,1.03125004 0,0.3984375 0.269532,1.01953125 0.972657,1.01953125 0.339843,0 0.972656,-0.0703125 1.394531,-0.38671875 V 7.109375e-4 h 0.667969 z m -0.691407,1.1601563 c 0,0.16406249 0,0.37499999 -0.28125,0.53906249 -0.257812,0.140625 -0.574218,0.15234375 -0.65625,0.15234375 -0.433593,0 -0.773437,-0.19921875 -0.773437,-0.50390625 0,-0.50390629 1.347656,-0.56249999 1.710937,-0.57421879 z m 6.609375,-4.8398438 c -0.128906,0 -0.152343,0 -0.246093,0.082031 -0.996094,0.8789062 -1.511719,2.296875 -1.511719,3.9023437 0,1.51171879 0.457031,2.95312504 1.511719,3.8789063 0.09375,0.1054687 0.117187,0.1054687 0.246093,0.1054687 h 0.386719 C 21.177977,1.9811797 20.404539,1.3132109 20.041258,0.07102344 19.842039,-0.55007031 19.748289,-1.2063203 19.748289,-1.9914766 c 0,-2.7539062 1.289063,-3.84375 1.453125,-3.984375 z m 2.214844,4.2773438 c 0,-0.8554688 0.714844,-1.3242188 1.417969,-1.3242188 v -0.5976562 c -0.667969,0.011719 -1.160156,0.3398437 -1.476563,0.7617187 V -3.5969453 H 22.36157 V 7.109375e-4 h 0.667969 z m 4.96582,0.83203124 c -0.445312,0.31640625 -0.949218,0.421875 -1.289062,0.421875 -0.691406,0 -1.21875,-0.56250004 -1.242188,-1.30078124 h 2.613282 c 0,-0.3632813 -0.03516,-0.9023438 -0.351563,-1.359375 -0.28125,-0.3984375 -0.761719,-0.5507813 -1.148437,-0.5507813 -0.972657,0 -1.722657,0.8554688 -1.722657,1.8632813 0,1.01953124 0.796875,1.87499999 1.851563,1.87499999 0.457031,0 0.9375,-0.140625 1.335937,-0.38671875 z M 25.522703,-2.2258516 c 0.1875,-0.6328125 0.65625,-0.9023437 1.054688,-0.9023437 0.351562,0 0.867187,0.1640625 1.019531,0.9023437 z m 6.506836,-3.3046875 H 31.36157 v 2.3320313 c -0.515625,-0.375 -1.03125,-0.421875 -1.265625,-0.421875 -0.832031,0 -1.476562,0.84375 -1.476562,1.8515625 0,1.00781249 0.632812,1.85156249 1.453125,1.85156249 0.492187,0 0.960937,-0.22265625 1.265625,-0.4921875 V 7.109375e-4 h 0.691406 z m -0.691406,4.54687504 c -0.199219,0.328125 -0.503906,0.5390625 -0.890625,0.5390625 -0.550781,0 -1.125,-0.38671875 -1.125,-1.31250004 0,-0.9960937 0.667969,-1.3359375 1.21875,-1.3359375 0.316406,0 0.585937,0.140625 0.796875,0.4101563 z m 2.226562,2.97656246 c 0.128907,0 0.152344,0 0.246094,-0.082031 1.007813,-0.8789063 1.511719,-2.29687501 1.511719,-3.9023438 0,-1.5117187 -0.457031,-2.953125 -1.5,-3.8789062 -0.105469,-0.1054688 -0.128906,-0.1054688 -0.257813,-0.1054688 h -0.386718 c 0.02344,0.011719 0.796875,0.6796875 1.160156,1.921875 0.199219,0.6210938 0.292969,1.2773438 0.292969,2.0625 0,2.75390629 -1.289063,3.84375 -1.453125,3.984375 z m 0,0"
       style="fill:#000000;fill-opacity:1;fill-rule:nonzero;stroke:none"
       aria-label="data(red)"
       transform="matrix(1.3333333,0,0,1.3333333,156.93067,98.737333)" />
    <path
       id="path13"
       d="M 34.07314,20.40372 H 161.10027"
       style="fill:none;stroke:#000000;stroke-width:0.3985;stroke-linecap:butt;stroke-linejoin:miter;stroke-miterlimit:10;stroke-dasharray:none;stroke-opacity:1"
       transform="matrix(1.3333333,0,0,-1.3333333,50.82,75.650667)" />
    <path
       id="path14"
       d="M 0.796875,-4.08975 C 1.125,-4.7225625 1.6992188,-4.8983438 2.0742188,-4.8983438 c 0.4804687,0 0.8320312,0.2695313 0.8320312,0.7265625 0,0.421875 -0.2929687,0.9375 -0.9023437,1.0429688 -0.035156,0 -0.070313,0 -0.5976563,0.046875 v 0.5273437 h 0.6210938 c 0.7617187,0 1.0429687,0.5976563 1.0429687,1.1015625 0,0.6210938 -0.3867187,1.0898438 -1.0078125,1.0898438 -0.5625,0 -1.20703125,-0.26953125 -1.60546875,-0.7734375 L 0.3515625,-0.621 c 0.45703125,0.515625 1.1015625,0.78515625 1.7226563,0.78515625 1.0546875,0 1.7929687,-0.7734375 1.7929687,-1.61718755 0,-0.65625 -0.515625,-1.171875 -1.1484375,-1.359375 0.609375,-0.3164062 0.9140625,-0.84375 0.9140625,-1.359375 0,-0.6796875 -0.6914062,-1.21875 -1.546875,-1.21875 -0.703125,0 -1.27734375,0.3632813 -1.6171875,0.84375 z m 4.9716797,3.375 H 5.0419922 V 9.375e-5 h 0.7265625 z m 1.6142578,-3.375 c 0.328125,-0.6328125 0.9023438,-0.8085938 1.2773438,-0.8085938 0.4804687,0 0.8320312,0.2695313 0.8320312,0.7265625 0,0.421875 -0.2929687,0.9375 -0.9023437,1.0429688 -0.035156,0 -0.070312,0 -0.5976563,0.046875 v 0.5273437 h 0.6210938 c 0.7617187,0 1.0429687,0.5976563 1.0429687,1.1015625 0,0.6210938 -0.3867187,1.0898438 -1.0078125,1.0898438 -0.5625,0 -1.2070312,-0.26953125 -1.6054687,-0.7734375 L 6.9375,-0.621 c 0.4570313,0.515625 1.1015625,0.78515625 1.7226563,0.78515625 1.0546875,0 1.7929687,-0.7734375 1.7929687,-1.61718755 0,-0.65625 -0.515625,-1.171875 -1.1484375,-1.359375 0.609375,-0.3164062 0.9140625,-0.84375 0.9140625,-1.359375 0,-0.6796875 -0.6914062,-1.21875 -1.546875,-1.21875 -0.703125,0 -1.2773437,0.3632813 -1.6171875,0.84375 z m 8.9589845,-1.4414063 h -0.703125 l -0.996094,2.4492188 c -0.05859,0.1289062 -0.84375,2.0507812 -0.914062,2.44921875 h -0.01172 C 13.634766,-1.0311563 12.837891,-2.96475 12.802734,-3.0467813 l -1.019531,-2.484375 h -0.84375 L 13.236328,9.375e-5 h 0.808594 z m 5.373047,-0.4453125 c -0.128906,0 -0.152344,0 -0.246094,0.082031 -0.996094,0.8789062 -1.511719,2.296875 -1.511719,3.9023437 0,1.5117188 0.457032,2.95312505 1.511719,3.8789063 0.09375,0.1054687 0.117188,0.1054687 0.246094,0.1054687 h 0.386719 C 22.078125,1.9805625 21.304688,1.3125937 20.941406,0.07040625 20.742188,-0.5506875 20.648438,-1.2069375 20.648438,-1.9920938 c 0,-2.7539062 1.289062,-3.84375 1.453125,-3.984375 z m 4.875,2.3554688 c -0.175781,0 -0.703125,0.011719 -1.3125,0.2460937 h -0.02344 c -0.28125,-0.1875 -0.5625,-0.2460937 -0.796875,-0.2460937 -0.773437,0 -1.359375,0.6210937 -1.359375,1.3007812 0,0.28125 0.09375,0.5625 0.28125,0.7851563 -0.117187,0.140625 -0.234375,0.3632812 -0.234375,0.66796875 0,0.3046875 0.128907,0.50390625 0.199219,0.609375 C 22.910156,-0.011625 22.816406,0.363375 22.816406,0.550875 c 0,0.609375 0.84375,1.078125 1.875,1.078125 1.042969,0 1.875,-0.46875 1.875,-1.078125 0,-1.125 -1.394531,-1.125 -1.734375,-1.125 H 24.09375 c -0.128906,0 -0.480469,0 -0.480469,-0.41015625 0,-0.16406255 0.05859,-0.24609375 0.07031,-0.25781255 0.28125,0.1757813 0.550781,0.234375 0.773437,0.234375 0.773438,0 1.359375,-0.6210937 1.359375,-1.3007812 0,-0.2578125 -0.07031,-0.4921875 -0.210937,-0.703125 -0.03516,-0.046875 -0.03516,-0.058594 -0.03516,-0.058594 0,-0.035156 0.480468,-0.035156 0.515625,-0.035156 0.01172,0 0.316406,0 0.597656,0.035156 z m -2.132813,2.109375 c -0.421875,0 -0.738281,-0.2695313 -0.738281,-0.796875 0,-0.6210938 0.398438,-0.8203125 0.738281,-0.8203125 0.433594,0 0.75,0.28125 0.75,0.8085937 0,0.6210938 -0.398437,0.8085938 -0.75,0.8085938 z m 0.375,1.55859375 c 0.1875,0 1.125,0 1.125,0.515625 0,0.33984375 -0.597656,0.57421875 -1.265625,0.57421875 -0.667968,0 -1.265625,-0.234375 -1.265625,-0.57421875 0,-0.046875 0,-0.515625 0.644532,-0.515625 z M 28.163086,-1.699125 c 0,-0.8554688 0.714844,-1.3242188 1.417969,-1.3242188 V -3.621 c -0.667969,0.011719 -1.160157,0.3398437 -1.476563,0.7617187 V -3.5975625 H 27.495117 V 9.375e-5 h 0.667969 z m 4.96582,0.83203125 c -0.445312,0.31640625 -0.949218,0.421875 -1.289062,0.421875 -0.691406,0 -1.21875,-0.56250005 -1.242188,-1.30078125 h 2.613282 c 0,-0.3632813 -0.03516,-0.9023438 -0.351563,-1.359375 -0.28125,-0.3984375 -0.761719,-0.5507813 -1.148437,-0.5507813 -0.972657,0 -1.722657,0.8554688 -1.722657,1.8632813 0,1.01953125 0.796875,1.875 1.851563,1.875 0.457031,0 0.9375,-0.140625 1.335937,-0.38671875 z M 30.65625,-2.2264688 c 0.1875,-0.6328125 0.65625,-0.9023437 1.054688,-0.9023437 0.351562,0 0.867187,0.1640625 1.019531,0.9023437 z m 6.237305,1.35937505 c -0.445313,0.31640625 -0.949219,0.421875 -1.289063,0.421875 -0.691406,0 -1.21875,-0.56250005 -1.242187,-1.30078125 h 2.613281 c 0,-0.3632813 -0.03516,-0.9023438 -0.351563,-1.359375 -0.28125,-0.3984375 -0.761718,-0.5507813 -1.148437,-0.5507813 -0.972656,0 -1.722656,0.8554688 -1.722656,1.8632813 0,1.01953125 0.796875,1.875 1.851562,1.875 0.457031,0 0.9375,-0.140625 1.335938,-0.38671875 z M 34.420898,-2.2264688 c 0.1875,-0.6328125 0.65625,-0.9023437 1.054688,-0.9023437 0.351562,0 0.867187,0.1640625 1.019531,0.9023437 z m 6.515625,-0.1289062 c 0,-0.6210938 -0.175781,-1.265625 -1.160156,-1.265625 -0.457031,0 -0.890625,0.1875 -1.242187,0.609375 V -3.5975625 H 37.889648 V 9.375e-5 h 0.703125 V -1.9335 c 0,-0.5273438 0.222657,-1.1601563 0.832032,-1.1601563 0.820312,0 0.820312,0.5625 0.820312,0.7851563 V 9.375e-5 h 0.691406 z m 1.526368,4.3476562 c 0.128906,0 0.152343,0 0.246093,-0.082031 1.007813,-0.8789063 1.511719,-2.296875 1.511719,-3.9023438 0,-1.5117187 -0.457031,-2.953125 -1.5,-3.8789062 -0.105469,-0.1054688 -0.128906,-0.1054688 -0.257812,-0.1054688 h -0.386719 c 0.02344,0.011719 0.796875,0.6796875 1.160156,1.921875 0.199219,0.6210938 0.292969,1.2773438 0.292969,2.0625 0,2.7539063 -1.289063,3.84375 -1.453125,3.984375 z m 0,0"
       style="fill:#000000;fill-opacity:1;fill-rule:nonzero;stroke:none"
       aria-label="3.3V(green)"
       transform="matrix(1.3333333,0,0,1.3333333,151,44.328)" />
    <path
       id="path15"
       d="M 34.07314,40.80745 H 161.10027"
       style="fill:none;stroke:#000000;stroke-width:0.3985;stroke-linecap:butt;stroke-linejoin:miter;stroke-miterlimit:10;stroke-dasharray:none;stroke-opacity:1"
       transform="matrix(1.3333333,0,0,-1.3333333,50.82,75.650667)" />
    <path
       id="path16"
       d="m 1.3131172,-4.6750312 h 2.203125 V -5.2258125 H 0.66858594 V -2.24925 H 1.2545234 c 0.1875,-0.421875 0.5625,-0.6210937 0.9257813,-0.6210937 0.328125,0 0.8203125,0.2226562 0.8203125,1.2421875 0,1.0429687 -0.6679688,1.26562495 -1.0664063,1.26562495 -0.5273437,0 -1.04296871,-0.26953125 -1.31249996,-0.72656245 l -0.3046875,0.4804687 c 0.3984375,0.48046875 0.98437496,0.7734375 1.61718746,0.7734375 1.0429688,0 1.8632813,-0.80859375 1.8632813,-1.78125 0,-0.984375 -0.7265625,-1.78125 -1.6054688,-1.78125 -0.3398437,0 -0.6445312,0.1289063 -0.8789062,0.328125 z M 9.7535469,-5.5305 H 9.0504219 L 8.0543281,-3.0812812 C 7.9957344,-2.952375 7.2105781,-1.0305 7.1402656,-0.6320625 H 7.1285469 C 7.0465156,-1.0305 6.2496406,-2.9640937 6.2144844,-3.046125 L 5.1949531,-5.5305 h -0.84375 l 2.296875,5.53125 h 0.8085938 z m 5.3730471,-0.4453125 c -0.128907,0 -0.152344,0 -0.246094,0.082031 -0.996094,0.8789062 -1.511719,2.296875 -1.511719,3.9023437 0,1.51171875 0.457031,2.953125 1.511719,3.8789063 0.09375,0.1054687 0.117187,0.1054687 0.246094,0.1054687 h 0.386718 c -0.02344,-0.011719 -0.796875,-0.6796875 -1.160156,-1.921875 -0.199219,-0.62109375 -0.292969,-1.2773437 -0.292969,-2.0625 0,-2.7539062 1.289063,-3.84375 1.453125,-3.984375 z m 6.527343,2.4375 H 21.032844 C 20.962531,-3.3156562 20.517219,-1.968 20.259406,-1.1359687 20.200812,-0.9133125 20.118781,-0.6555 20.095344,-0.468 20.03675,-0.796125 19.767219,-1.6515937 19.743781,-1.7101875 l -0.585937,-1.828125 h -0.609375 c -0.222657,0.6914063 -0.820313,2.4726563 -0.890625,3.05859375 h -0.01172 C 17.587531,-1.0539375 17.001594,-2.81175 16.872687,-3.1984687 c -0.07031,-0.1875 -0.07031,-0.1992188 -0.105468,-0.3398438 h -0.65625 L 17.271125,7.5e-4 h 0.679687 c 0,-0.03515625 0.222657,-0.65625 0.492188,-1.546875 0.128906,-0.3867187 0.363281,-1.1601562 0.398437,-1.5 l 0.01172,-0.011719 c 0.01172,0.1640625 0.07031,0.3398437 0.117188,0.5390625 0.05859,0.1992187 0.117187,0.4101562 0.175781,0.5976562 L 19.7555,7.5e-4 h 0.738281 z m 3.826172,1.1835938 c 0,-0.6210938 -0.175781,-1.265625 -1.160156,-1.265625 -0.691406,0 -1.054687,0.3984375 -1.207031,0.5742187 V -5.5305 H 22.433234 V 7.5e-4 h 0.703125 v -1.9335937 c 0,-0.5273438 0.222657,-1.1601563 0.832032,-1.1601563 0.820312,0 0.820312,0.5625 0.820312,0.7851563 V 7.5e-4 h 0.691406 z m 2.077149,-3.1054688 h -0.808594 v 0.796875 h 0.808594 z m -0.07031,1.921875 H 26.818977 V 7.5e-4 h 0.667968 z m 2.185547,0.5039063 H 30.84437 V -3.5383125 H 29.672492 V -4.546125 h -0.621094 v 1.0078125 h -0.714843 v 0.5039063 h 0.691406 v 2.015625 c 0,0.53906245 0.140625,1.10156245 0.714844,1.10156245 0.574218,0 1.007812,-0.1875 1.253906,-0.29296875 l -0.140625,-0.515625 c -0.257813,0.1875 -0.539063,0.2578125 -0.761719,0.2578125 -0.339844,0 -0.421875,-0.328125 -0.421875,-0.6914062 z m 4.977539,2.1679687 c -0.445312,0.31640625 -0.949219,0.421875 -1.289062,0.421875 -0.691407,0 -1.21875,-0.5625 -1.242188,-1.3007812 h 2.613281 c 0,-0.3632813 -0.03516,-0.9023438 -0.351562,-1.359375 C 34.09925,-3.5031562 33.618781,-3.6555 33.232062,-3.6555 c -0.972656,0 -1.722656,0.8554688 -1.722656,1.8632813 0,1.0195312 0.796875,1.87499995 1.851563,1.87499995 0.457031,0 0.9375,-0.140625 1.335937,-0.38671875 z m -2.472656,-1.359375 c 0.1875,-0.6328125 0.65625,-0.9023437 1.054687,-0.9023437 0.351563,0 0.867188,0.1640625 1.019532,0.9023437 z m 3.670898,4.21875 c 0.128907,0 0.152344,0 0.246094,-0.082031 1.007813,-0.8789063 1.511719,-2.29687505 1.511719,-3.9023438 0,-1.5117187 -0.457031,-2.953125 -1.5,-3.8789062 -0.105469,-0.1054688 -0.128906,-0.1054688 -0.257813,-0.1054688 h -0.386718 c 0.02344,0.011719 0.796875,0.6796875 1.160156,1.921875 0.199219,0.6210938 0.292969,1.2773438 0.292969,2.0625 0,2.75390625 -1.289063,3.84375 -1.453125,3.984375 z m 0,0"
       style="fill:#000000;fill-opacity:1;fill-rule:nonzero;stroke:none"
       aria-label="5V(white)"
       transform="matrix(1.3333333,0,0,1.3333333,155.40933,17.124)" />
    <path
       id="path17"
       d="m 52.06863,-20.40372 c 0,0.58462 -0.47393,1.05855 -1.05854,1.05855 -0.58463,0 -1.05857,-0.47393 -1.05857,-1.05855 0,-0.58462 0.47394,-1.05856 1.05857,-1.05856 0.58461,0 1.05854,0.47394 1.05854,1.05856 z"
       style="fill:#000000;fill-opacity:1;fill-rule:nonzero;stroke:none"
       transform="matrix(1.3333333,0,0,-1.3333333,50.82,75.650667)" />
    <path
       id="path18"
       d="m 52.06863,20.40372 c 0,0.58462 -0.47393,1.05856 -1.05854,1.05856 -0.58463,0 -1.05857,-0.47394 -1.05857,-1.05856 0,-0.58462 0.47394,-1.05855 1.05857,-1.05855 0.58461,0 1.05854,0.47393 1.05854,1.05855 z"
       style="fill:#000000;fill-opacity:1;fill-rule:nonzero;stroke:none"
       transform="matrix(1.3333333,0,0,-1.3333333,50.82,75.650667)" />
    <path
       id="path19"
       d="m 48.18756,-6.35135 h 5.64503 v 12.7027 h -5.64503 z"
       style="fill:none;stroke:#000000;stroke-width:0.3985;stroke-linecap:butt;stroke-linejoin:miter;stroke-miterlimit:10;stroke-dasharray:none;stroke-opacity:1"
       transform="matrix(1.3333333,0,0,-1.3333333,50.82,75.650667)" />
    <path
       id="path20"
       d="M 51.01009,-6.5506 V -19.34517"
       style="fill:none;stroke:#000000;stroke-width:0.3985;stroke-linecap:butt;stroke-linejoin:miter;stroke-miterlimit:10;stroke-dasharray:none;stroke-opacity:1"
       transform="matrix(1.3333333,0,0,-1.3333333,50.82,75.650667)" />
    <path
       id="path21"
       d="M 51.01009,6.5506 V 19.34517"
       style="fill:none;stroke:#000000;stroke-width:0.3985;stroke-linecap:butt;stroke-linejoin:miter;stroke-miterlimit:10;stroke-dasharray:none;stroke-opacity:1"
       transform="matrix(1.3333333,0,0,-1.3333333,50.82,75.650667)" />
    <path
       id="path22"
       d="m 1.3710625,-0.37455469 c 0.421875,0.38671875 0.8789063,0.45703125 1.1484375,0.45703125 0.84375,0 1.5585938,-0.80859375 1.5585938,-1.86328126 0,-0.9492187 -0.5273438,-1.8398437 -1.3125,-1.8398437 -0.3632813,0 -0.9609375,0.1054687 -1.4179688,0.46875 V -3.5386172 H 0.67965625 V 1.5473203 H 1.3710625 Z m 0,-2.27343751 c 0.1875,-0.2226562 0.4921875,-0.421875 0.8789063,-0.421875 0.6328125,0 1.1367187,0.5976563 1.1367187,1.2890625 0,0.79687501 -0.5976562,1.33593751 -1.21875,1.33593751 -0.1171875,0 -0.3164062,-0.0117188 -0.5273437,-0.1875 -0.234375,-0.17578125 -0.2695313,-0.3046875 -0.2695313,-0.44531251 z m 6.703125,-0.890625 H 7.3827813 v 2.3085938 c 0,0.64453121 -0.5390625,0.84374996 -1.0078125,0.84374996 -0.5859375,0 -0.6445313,-0.1640625 -0.6445313,-0.52734375 V -3.5386172 h -0.703125 v 2.67187501 c 0,0.703125 0.3164063,0.94921875 0.8789063,0.94921875 0.3164062,0 1.0195312,-0.0703125 1.5,-0.4453125 V 4.453125e-4 H 8.0741875 Z M 10.081023,-5.5308047 H 9.4130547 V 4.453125e-4 h 0.6679683 z m 2.021485,0 H 11.434539 V 4.453125e-4 h 0.667969 z m 3.026367,4.0078125 v -0.5039062 h -2.25 v 0.5039062 z m 4.183594,-2.015625 h -0.691406 v 2.3085938 c 0,0.64453121 -0.539063,0.84374996 -1.007813,0.84374996 -0.585937,0 -0.644531,-0.1640625 -0.644531,-0.52734375 V -3.5386172 h -0.703125 v 2.67187501 c 0,0.703125 0.316406,0.94921875 0.878906,0.94921875 0.316406,0 1.019531,-0.0703125 1.5,-0.4453125 V 4.453125e-4 h 0.667969 z m 2.039062,3.16406251 c 0.421875,0.38671875 0.878907,0.45703125 1.148438,0.45703125 0.84375,0 1.558594,-0.80859375 1.558594,-1.86328126 0,-0.9492187 -0.527344,-1.8398437 -1.3125,-1.8398437 -0.363282,0 -0.960938,0.1054687 -1.417969,0.46875 v -0.3867188 h -0.667969 v 5.0859375 h 0.691406 z m 0,-2.27343751 c 0.1875,-0.2226562 0.492188,-0.421875 0.878907,-0.421875 0.632812,0 1.136718,0.5976563 1.136718,1.2890625 0,0.79687501 -0.597656,1.33593751 -1.21875,1.33593751 -0.117187,0 -0.316406,-0.0117188 -0.527343,-0.1875 -0.234375,-0.17578125 -0.269532,-0.3046875 -0.269532,-0.44531251 z m 7.171875,0.9492188 c 0,-0.8554688 0.714844,-1.3242188 1.417969,-1.3242188 v -0.5976562 c -0.667969,0.011719 -1.160156,0.3398437 -1.476562,0.7617187 V -3.5972109 H 27.855438 V 4.453125e-4 h 0.667968 z m 4.965821,0.83203121 c -0.445313,0.31640625 -0.949219,0.421875 -1.289063,0.421875 -0.691406,0 -1.21875,-0.56250001 -1.242187,-1.30078121 h 2.613281 c 0,-0.3632813 -0.03516,-0.9023438 -0.351563,-1.359375 -0.28125,-0.3984375 -0.761718,-0.5507813 -1.148437,-0.5507813 -0.972656,0 -1.722656,0.8554688 -1.722656,1.8632813 0,1.01953121 0.796875,1.87499996 1.851562,1.87499996 0.457031,0 0.9375,-0.140625 1.335938,-0.38671875 z M 31.01657,-2.2261172 c 0.1875,-0.6328125 0.65625,-0.9023437 1.054688,-0.9023437 0.351562,0 0.867187,0.1640625 1.019531,0.9023437 z m 5.72168,-1.1835937 c -0.539062,-0.2226563 -0.9375,-0.2460938 -1.230469,-0.2460938 -0.199218,0 -1.394531,0 -1.394531,1.0546875 0,0.375 0.199219,0.5859375 0.304688,0.6796875 0.28125,0.28125 0.621093,0.3398438 1.042968,0.421875 0.375,0.070312 0.796875,0.1523438 0.796875,0.53906251 0,0.50390625 -0.65625,0.50390625 -0.773437,0.50390625 -0.503906,0 -0.984375,-0.1875 -1.300781,-0.41015625 l -0.117188,0.59765625 c 0.28125,0.12890625 0.761719,0.3515625 1.417969,0.3515625 0.363281,0 0.714844,-0.05859375 1.007812,-0.26953125 0.292969,-0.22265625 0.386719,-0.57421875 0.386719,-0.84375001 0,-0.1523437 -0.01172,-0.4570312 -0.339844,-0.7617187 -0.304687,-0.2578125 -0.585937,-0.3164063 -0.972656,-0.3867188 -0.46875,-0.09375 -0.832031,-0.1640625 -0.832031,-0.515625 0,-0.4570312 0.574219,-0.4570312 0.703125,-0.4570312 0.445312,0 0.796875,0.1054687 1.195312,0.3046875 z m 1.746094,-2.0507813 H 37.67575 v 0.796875 h 0.808594 z m -0.07031,1.921875 H 37.746063 V 4.453125e-4 h 0.667968 z m 3.588867,0.1289063 c -0.539062,-0.2226563 -0.9375,-0.2460938 -1.230468,-0.2460938 -0.199219,0 -1.394532,0 -1.394532,1.0546875 0,0.375 0.199219,0.5859375 0.304688,0.6796875 0.28125,0.28125 0.621094,0.3398438 1.042969,0.421875 0.375,0.070312 0.796875,0.1523438 0.796875,0.53906251 0,0.50390625 -0.65625,0.50390625 -0.773438,0.50390625 -0.503906,0 -0.984375,-0.1875 -1.300781,-0.41015625 l -0.117188,0.59765625 c 0.28125,0.12890625 0.761719,0.3515625 1.417969,0.3515625 0.363281,0 0.714844,-0.05859375 1.007813,-0.26953125 0.292968,-0.22265625 0.386718,-0.57421875 0.386718,-0.84375001 0,-0.1523437 -0.01172,-0.4570312 -0.339843,-0.7617187 -0.304688,-0.2578125 -0.585938,-0.3164063 -0.972657,-0.3867188 -0.46875,-0.09375 -0.832031,-0.1640625 -0.832031,-0.515625 0,-0.4570312 0.574219,-0.4570312 0.703125,-0.4570312 0.445313,0 0.796875,0.1054687 1.195313,0.3046875 z m 1.839844,0.375 h 1.171875 v -0.5039063 h -1.171875 v -1.0078125 h -0.621094 v 1.0078125 h -0.714843 v 0.5039063 h 0.691406 v 2.015625 c 0,0.53906246 0.140625,1.10156246 0.714844,1.10156246 0.574218,0 1.007812,-0.1875 1.253906,-0.29296875 l -0.140625,-0.515625 c -0.257813,0.1875 -0.539063,0.2578125 -0.761719,0.2578125 -0.339844,0 -0.421875,-0.328125 -0.421875,-0.69140621 z m 5.542969,1.2890625 c 0,-1.0546875 -0.832031,-1.9101563 -1.875,-1.9101563 -1.03125,0 -1.875,0.8671875 -1.875,1.9101563 0,1.00781246 0.84375,1.82812496 1.875,1.82812496 1.042969,0 1.875,-0.8203125 1.875,-1.82812496 z m -1.875,1.27734371 c -0.632813,0 -1.171875,-0.46875 -1.171875,-1.35937501 0,-0.9023437 0.585937,-1.3007812 1.171875,-1.3007812 0.597656,0 1.183594,0.4101562 1.183594,1.3007812 0,0.90234376 -0.5625,1.35937501 -1.183594,1.35937501 z m 3.243164,-1.23046871 c 0,-0.8554688 0.714844,-1.3242188 1.417969,-1.3242188 v -0.5976562 c -0.667969,0.011719 -1.160156,0.3398437 -1.476563,0.7617187 V -3.5972109 H 50.085906 V 4.453125e-4 h 0.667969 z m 0,0"
       style="fill:#000000;fill-opacity:1;fill-rule:nonzero;stroke:none"
       aria-label="pull-upresistor"
       transform="matrix(1.3333333,0,0,1.3333333,126.89067,78.308)" />
  </g>
</svg>
