<?xml version="1.0" encoding="UTF-8" standalone="no"?>
<!-- Created with Inkscape (http://www.inkscape.org/) -->

<svg
   version="1.1"
   id="svg1"
   width="517.56403"
   height="119.176"
   viewBox="0 0 517.56403 119.176"
   sodipodi:docname="main.pdf"
   xmlns:inkscape="http://www.inkscape.org/namespaces/inkscape"
   xmlns:sodipodi="http://sodipodi.sourceforge.net/DTD/sodipodi-0.dtd"
   xmlns="http://www.w3.org/2000/svg"
   xmlns:svg="http://www.w3.org/2000/svg">
  <defs
     id="defs1" />
  <sodipodi:namedview
     id="namedview1"
     pagecolor="#ffffff"
     bordercolor="#000000"
     borderopacity="0.25"
     inkscape:showpageshadow="2"
     inkscape:pageopacity="0.0"
     inkscape:pagecheckerboard="0"
     inkscape:deskcolor="#d1d1d1">
    <inkscape:page
       x="0"
       y="0"
       inkscape:label="1"
       id="page1"
       width="517.56403"
       height="119.176"
       margin="0"
       bleed="0" />
  </sodipodi:namedview>
  <g
     id="g1"
     inkscape:groupmode="layer"
     inkscape:label="1">
    <path
       id="path1"
       d="M 0,0 H 388.173 V 89.382 H 0 Z"
       style="fill:#ffffff;fill-opacity:1;fill-rule:nonzero;stroke:none"
       transform="matrix(1.3333333,0,0,-1.3333333,0,119.176)" />
    <path
       id="path2"
       d="M 6.51785,15.94044 V -5.31094 M 12.1856,15.94044 V -5.31094 m 5.66775,21.25138 V -5.31094 m 5.66774,21.25138 V -5.31094 m 5.66774,21.25138 V -5.31094 m 5.66775,21.25138 V -5.31094 m 5.66774,21.25138 V -5.31094 m 5.66776,21.25138 V -5.31094 M 51.8598,15.94044 V -5.31094 m 5.66776,21.25138 V -5.31094 M 63.1953,15.94044 V -5.31094 m 5.66774,21.25138 V -5.31094 m 5.66775,21.25138 V -5.31094 m 5.66774,21.25138 V -5.31094 m 5.66776,21.25138 V -5.31094 m 5.66774,21.25138 V -5.31094 m 5.66774,21.25138 V -5.31094 m 5.66775,21.25138 V -5.31094 m 5.66773,21.25138 V -5.31094 M 114.205,15.94044 V -5.31094 m 5.66774,21.25138 V -5.31094 m 5.66776,21.25138 V -5.31094 m 5.66774,21.25138 V -5.31094 m 5.66774,21.25138 V -5.31094 m 5.66775,21.25138 V -5.31094 m 5.66774,21.25138 V -5.31094 m 5.66776,21.25138 V -5.31094 m 5.66774,21.25138 V -5.31094 m 5.66773,21.25138 V -5.31094 m 5.66775,21.25138 V -5.31094 m 5.66774,21.25138 V -5.31094 m 5.66775,21.25138 V -5.31094 m 5.66774,21.25138 V -5.31094 m 5.66776,21.25138 V -5.31094 m 5.66774,21.25138 V -5.31094 m 5.66775,21.25138 V -5.31094 m 5.66774,21.25138 V -5.31094 m 5.66774,21.25138 V -5.31094 m 5.66774,21.25138 V -5.31094 m 5.66774,21.25138 V -5.31094 m 5.66776,21.25138 V -5.31094 m 5.66774,21.25138 V -5.31094 m 5.66774,21.25138 V -5.31094 m 5.66775,21.25138 V -5.31094 m 5.66774,21.25138 V -5.31094 m 5.66776,21.25138 V -5.31094 m 5.66774,21.25138 V -5.31094 m 5.66775,21.25138 V -5.31094 m 5.66774,21.25138 V -5.31094 m 5.66773,21.25138 V -5.31094 m 5.66775,21.25138 V -5.31094 m 5.66774,21.25138 V -5.31094 m 5.66776,21.25138 V -5.31094 m 5.66774,21.25138 V -5.31094 m 5.66775,21.25138 V -5.31094 m 5.66774,21.25138 V -5.31094 m 5.66774,21.25138 V -5.31094 m 5.66776,21.25138 V -5.31094 m 5.66774,21.25138 V -5.31094 m 5.66774,21.25138 V -5.31094 m 5.66773,21.25138 V -5.31094 m 5.66774,21.25138 V -5.31094 m 5.66776,21.25138 V -5.31094"
       style="fill:none;stroke:#808080;stroke-width:0.59776;stroke-linecap:butt;stroke-linejoin:miter;stroke-miterlimit:10;stroke-dasharray:none;stroke-opacity:0.3"
       transform="matrix(1.3333333,0,0,-1.3333333,32.654667,67.416)" />
    <path
       id="path3"
       d="m 4.325125,-6.9135156 h -0.75 v 2.9296875 C 3.0477812,-4.4174219 2.497,-4.5346094 2.122,-4.5346094 c -0.984375,0 -1.7578125,1.0429688 -1.7578125,2.3203125 0,1.31250003 0.7617187,2.32031253 1.7109375,2.32031253 0.328125,0 0.9140625,-0.08203125 1.4765625,-0.62109375 V 5.46875e-4 H 4.325125 Z m -0.7734375,5.53125 c 0,0.140625 -0.011719,0.3164062 -0.328125,0.60937498 -0.234375,0.19921875 -0.4804688,0.26953125 -0.7382813,0.26953125 -0.6210937,0 -1.3476562,-0.45703125 -1.3476562,-1.69921873 0,-1.3125 0.8554687,-1.7226563 1.4414062,-1.7226563 0.4453125,0 0.75,0.234375 0.9726563,0.5507813 z m 5.5693359,-1.5 c 0,-1.0078125 -0.7265625,-1.7109375 -1.640625,-1.7109375 -0.6445312,0 -1.1015625,0.1640625 -1.5703125,0.4335937 l 0.070312,0.65625 c 0.515625,-0.375 1.0078125,-0.5039062 1.5,-0.5039062 0.46875,0 0.8671875,0.3984375 0.8671875,1.1367187 v 0.4335938 c -1.5,0.011719 -2.765625,0.4335937 -2.765625,1.3125 0,0.42187498 0.2695313,1.23046873 1.1367188,1.23046873 0.140625,0 1.078125,-0.01171875 1.6523437,-0.46875 V 5.46875e-4 h 0.75 z m -0.7734375,1.5703125 c 0,0.1875 0,0.43359373 -0.3398437,0.62109373 -0.2929688,0.1875 -0.6679688,0.1875 -0.7734375,0.1875 -0.4804688,0 -0.9257813,-0.22265625 -0.9257813,-0.64453123 0,-0.6914063 1.6054688,-0.7617188 2.0390625,-0.7851563 z m 3.3339841,-2.53125 h 1.40625 v -0.5742188 h -1.40625 v -1.265625 h -0.691406 v 1.265625 h -0.867187 v 0.5742188 h 0.84375 v 2.6601562 c 0,0.59765628 0.128906,1.28906253 0.820312,1.28906253 0.703125,0 1.207031,-0.24609375 1.453125,-0.375 l -0.152344,-0.5859375 c -0.257812,0.2109375 -0.585937,0.328125 -0.902343,0.328125 -0.363282,0 -0.503907,-0.3046875 -0.503907,-0.83203123 z m 5.824219,0.9609375 c 0,-1.0078125 -0.726562,-1.7109375 -1.640625,-1.7109375 -0.644531,0 -1.101562,0.1640625 -1.570312,0.4335937 l 0.07031,0.65625 c 0.515625,-0.375 1.007813,-0.5039062 1.5,-0.5039062 0.46875,0 0.867188,0.3984375 0.867188,1.1367187 v 0.4335938 c -1.5,0.011719 -2.765625,0.4335937 -2.765625,1.3125 0,0.42187498 0.269531,1.23046873 1.136718,1.23046873 0.140625,0 1.078125,-0.01171875 1.652344,-0.46875 V 5.46875e-4 h 0.75 z m -0.773437,1.5703125 c 0,0.1875 0,0.43359373 -0.339844,0.62109373 -0.292969,0.1875 -0.667969,0.1875 -0.773438,0.1875 -0.480468,0 -0.925781,-0.22265625 -0.925781,-0.64453123 0,-0.6914063 1.605469,-0.7617188 2.039063,-0.7851563 z m 0,0"
       style="fill:#000000;fill-opacity:1;fill-rule:nonzero;stroke:none"
       aria-label="data"
       transform="matrix(1.3333333,0,0,1.3333333,0.67066667,67.413333)" />
    <path
       id="path4"
       d="M 0,10.62952 H 11.33546"
       style="fill:none;stroke:#000000;stroke-width:0.66414;stroke-linecap:round;stroke-linejoin:round;stroke-miterlimit:10;stroke-dasharray:none;stroke-opacity:1"
       transform="matrix(1.3333333,0,0,-1.3333333,32.654667,67.416)" />
    <path
       id="path5"
       d="M 11.33723,10.63335 12.75415,0.00638 h 15.5863 l 1.41694,10.62697 h 4.25079"
       style="fill:none;stroke:#000000;stroke-width:0.66414;stroke-linecap:round;stroke-linejoin:round;stroke-miterlimit:10;stroke-dasharray:none;stroke-opacity:1"
       transform="matrix(1.3333333,0,0,-1.3333333,32.654667,67.416)" />
    <path
       id="path6"
       d="M 34.0153,10.63846 35.43222,0.01149 h 4.25081 l 1.41693,10.62697 h 15.5863"
       style="fill:none;stroke:#000000;stroke-width:0.66414;stroke-linecap:round;stroke-linejoin:round;stroke-miterlimit:10;stroke-dasharray:none;stroke-opacity:1"
       transform="matrix(1.3333333,0,0,-1.3333333,32.654667,67.416)" />
    <path
       id="path7"
       d="M 56.69818,10.64357 58.1151,0.01659 h 15.5863 l 1.41693,10.62698 h 4.25081"
       style="fill:none;stroke:#000000;stroke-width:0.66414;stroke-linecap:round;stroke-linejoin:round;stroke-miterlimit:10;stroke-dasharray:none;stroke-opacity:1"
       transform="matrix(1.3333333,0,0,-1.3333333,32.654667,67.416)" />
    <path
       id="path8"
       d="M 79.3733,10.64484 80.79024,0.01787 h 4.25081"
       style="fill:none;stroke:#000000;stroke-width:0.66414;stroke-linecap:round;stroke-linejoin:round;stroke-miterlimit:10;stroke-dasharray:none;stroke-opacity:1"
       transform="matrix(1.3333333,0,0,-1.3333333,32.654667,67.416)" />
    <path
       id="path9"
       d="M 85.0455,0.01787 H 96.381 l 1.41693,10.62697 h 4.25082"
       style="fill:none;stroke:#000000;stroke-width:0.66414;stroke-linecap:round;stroke-linejoin:round;stroke-miterlimit:10;stroke-dasharray:2.98883, 2.98883;stroke-dashoffset:0;stroke-opacity:1"
       transform="matrix(1.3333333,0,0,-1.3333333,32.654667,67.416)" />
    <path
       id="path10"
       d="m 102.05945,10.6474 1.41693,-10.62698 h 15.5863 l 1.41693,10.62698 h 4.25081"
       style="fill:none;stroke:#000000;stroke-width:0.66414;stroke-linecap:round;stroke-linejoin:round;stroke-miterlimit:10;stroke-dasharray:none;stroke-opacity:1"
       transform="matrix(1.3333333,0,0,-1.3333333,32.654667,67.416)" />
    <path
       id="path11"
       d="M 124.75008,10.65123 126.167,0.02426 h 4.25082"
       style="fill:none;stroke:#000000;stroke-width:0.66414;stroke-linecap:round;stroke-linejoin:round;stroke-miterlimit:10;stroke-dasharray:none;stroke-opacity:1"
       transform="matrix(1.3333333,0,0,-1.3333333,32.654667,67.416)" />
    <path
       id="path12"
       d="m 130.43152,0.02426 1.41693,10.62697 h 11.33549 L 141.76701,0.02426 h -11.33549"
       style="fill:#808080;fill-opacity:1;fill-rule:nonzero;stroke:#000000;stroke-width:0.66414;stroke-linecap:round;stroke-linejoin:round;stroke-miterlimit:10;stroke-dasharray:none;stroke-opacity:1"
       transform="matrix(1.3333333,0,0,-1.3333333,32.654667,67.416)" />
    <path
       id="path13"
       d="m 143.19899,10.65378 4.24322,-0.0019"
       style="fill:none;stroke:#000000;stroke-width:0.66414;stroke-linecap:round;stroke-linejoin:round;stroke-miterlimit:10;stroke-dasharray:none;stroke-opacity:1"
       transform="matrix(1.3333333,0,0,-1.3333333,32.654667,67.416)" />
    <path
       id="path14"
       d="m 147.46545,10.6557 1.41692,-10.62698 h 4.25081 l 1.41693,10.62698 h 15.5863"
       style="fill:none;stroke:#000000;stroke-width:0.66414;stroke-linecap:round;stroke-linejoin:round;stroke-miterlimit:10;stroke-dasharray:none;stroke-opacity:1"
       transform="matrix(1.3333333,0,0,-1.3333333,32.654667,67.416)" />
    <path
       id="path15"
       d="M 170.17216,10.66081 171.5891,0.03383 h 15.5863 l 1.41693,10.62698 h 4.25081"
       style="fill:none;stroke:#000000;stroke-width:0.66414;stroke-linecap:round;stroke-linejoin:round;stroke-miterlimit:10;stroke-dasharray:none;stroke-opacity:1"
       transform="matrix(1.3333333,0,0,-1.3333333,32.654667,67.416)" />
    <path
       id="path16"
       d="m 192.86342,10.66336 1.41693,-10.62697 h 15.58629 l 1.41693,10.62697 h 4.25083"
       style="fill:none;stroke:#000000;stroke-width:0.66414;stroke-linecap:round;stroke-linejoin:round;stroke-miterlimit:10;stroke-dasharray:none;stroke-opacity:1"
       transform="matrix(1.3333333,0,0,-1.3333333,32.654667,67.416)" />
    <path
       id="path17"
       d="m 215.55704,10.66591 1.41693,-10.62697 h 15.5863 l 1.41692,10.62697 h 4.25082"
       style="fill:none;stroke:#000000;stroke-width:0.66414;stroke-linecap:round;stroke-linejoin:round;stroke-miterlimit:10;stroke-dasharray:none;stroke-opacity:1"
       transform="matrix(1.3333333,0,0,-1.3333333,32.654667,67.416)" />
    <path
       id="path18"
       d="m 238.24054,10.66719 1.41693,-10.62697 h 4.25079"
       style="fill:none;stroke:#000000;stroke-width:0.66414;stroke-linecap:round;stroke-linejoin:round;stroke-miterlimit:10;stroke-dasharray:none;stroke-opacity:1"
       transform="matrix(1.3333333,0,0,-1.3333333,32.654667,67.416)" />
    <path
       id="path19"
       d="m 243.93393,0.04022 1.41692,10.62697 h 11.33549 L 255.26942,0.04022 h -11.33549"
       style="fill:#808080;fill-opacity:1;fill-rule:nonzero;stroke:#000000;stroke-width:0.66414;stroke-linecap:round;stroke-linejoin:round;stroke-miterlimit:10;stroke-dasharray:none;stroke-opacity:1"
       transform="matrix(1.3333333,0,0,-1.3333333,32.654667,67.416)" />
    <path
       id="path20"
       d="m 256.71333,10.66974 4.23726,-0.0019 1.41693,-10.627 h 4.25081"
       style="fill:none;stroke:#000000;stroke-width:0.66414;stroke-linecap:round;stroke-linejoin:round;stroke-miterlimit:10;stroke-dasharray:none;stroke-opacity:1"
       transform="matrix(1.3333333,0,0,-1.3333333,32.654667,67.416)" />
    <path
       id="path21"
       d="m 266.64638,0.04082 1.41692,10.62697 h 11.33547 L 277.98184,0.04082 h -11.33546"
       style="fill:#808080;fill-opacity:1;fill-rule:nonzero;stroke:#000000;stroke-width:0.66414;stroke-linecap:round;stroke-linejoin:round;stroke-miterlimit:10;stroke-dasharray:none;stroke-opacity:1"
       transform="matrix(1.3333333,0,0,-1.3333333,32.654667,67.416)" />
    <path
       id="path22"
       d="m 279.42818,10.67033 4.23604,-0.0019 1.41693,-10.627 h 4.2508"
       style="fill:none;stroke:#000000;stroke-width:0.66414;stroke-linecap:round;stroke-linejoin:round;stroke-miterlimit:10;stroke-dasharray:none;stroke-opacity:1"
       transform="matrix(1.3333333,0,0,-1.3333333,32.654667,67.416)" />
    <path
       id="path23"
       d="m 289.34717,0.0414 h 11.33549 l 1.41694,10.62698 h 4.2508"
       style="fill:none;stroke:#000000;stroke-width:0.66414;stroke-linecap:round;stroke-linejoin:round;stroke-miterlimit:10;stroke-dasharray:2.98883, 2.98883;stroke-dashoffset:0;stroke-opacity:1"
       transform="matrix(1.3333333,0,0,-1.3333333,32.654667,67.416)" />
    <path
       id="path24"
       d="m 306.36652,10.66965 1.41693,-10.62697 h 4.25081"
       style="fill:none;stroke:#000000;stroke-width:0.66414;stroke-linecap:round;stroke-linejoin:round;stroke-miterlimit:10;stroke-dasharray:none;stroke-opacity:1"
       transform="matrix(1.3333333,0,0,-1.3333333,32.654667,67.416)" />
    <path
       id="path25"
       d="m 312.0671,0.04268 1.41692,10.62697 h 11.33547 L 323.40257,0.04268 H 312.0671"
       style="fill:#808080;fill-opacity:1;fill-rule:nonzero;stroke:#000000;stroke-width:0.66414;stroke-linecap:round;stroke-linejoin:round;stroke-miterlimit:10;stroke-dasharray:none;stroke-opacity:1"
       transform="matrix(1.3333333,0,0,-1.3333333,32.654667,67.416)" />
    <path
       id="path26"
       d="m 324.85367,10.67221 4.23366,-0.0019"
       style="fill:none;stroke:#000000;stroke-width:0.66414;stroke-linecap:round;stroke-linejoin:round;stroke-miterlimit:10;stroke-dasharray:none;stroke-opacity:1"
       transform="matrix(1.3333333,0,0,-1.3333333,32.654667,67.416)" />
    <path
       id="path27"
       d="M 329.10464,10.67157 330.52156,0.0446 h 4.25081 l 1.41693,10.62697 h 15.5863"
       style="fill:none;stroke:#000000;stroke-width:0.66414;stroke-linecap:round;stroke-linejoin:round;stroke-miterlimit:10;stroke-dasharray:none;stroke-opacity:1"
       transform="matrix(1.3333333,0,0,-1.3333333,32.654667,67.416)" />
    <path
       id="path28"
       d="m 351.79411,10.67285 h 11.3355"
       style="fill:none;stroke:#000000;stroke-width:0.66414;stroke-linecap:round;stroke-linejoin:round;stroke-miterlimit:10;stroke-dasharray:none;stroke-opacity:1"
       transform="matrix(1.3333333,0,0,-1.3333333,32.654667,67.416)" />
    <path
       id="path29"
       d="M 12.22226,7.08931 V 36.97766"
       style="fill:none;stroke:#ff0000;stroke-width:0.3985;stroke-linecap:round;stroke-linejoin:round;stroke-miterlimit:10;stroke-dasharray:2.98883, 2.98883;stroke-dashoffset:0;stroke-opacity:1"
       transform="matrix(1.3333333,0,0,-1.3333333,32.654667,67.416)" />
    <path
       id="path30"
       d="M 171.04886,7.1168 V 37.00514"
       style="fill:none;stroke:#ff0000;stroke-width:0.3985;stroke-linecap:round;stroke-linejoin:round;stroke-miterlimit:10;stroke-dasharray:2.98883, 2.98883;stroke-dashoffset:0;stroke-opacity:1"
       transform="matrix(1.3333333,0,0,-1.3333333,32.654667,67.416)" />
    <path
       id="path31"
       d="M 14.2154,33.24644 169.06535,33.2733"
       style="fill:none;stroke:#ff0000;stroke-width:0.3985;stroke-linecap:round;stroke-linejoin:round;stroke-miterlimit:10;stroke-dasharray:none;stroke-opacity:1"
       transform="matrix(1.3333333,0,0,-1.3333333,32.654667,67.416)" />
    <path
       id="path32"
       d="M 1.99252,0 -1.19551,1.59401 0,0 -1.19551,-1.59401"
       style="fill:#ff0000;fill-opacity:1;fill-rule:nonzero;stroke:none"
       transform="matrix(-1.3333067,2.2666667e-4,2.2666667e-4,1.3333067,51.608533,23.087387)" />
    <path
       id="path33"
       d="M 1.99252,0 -1.19551,1.59401 0,0 -1.19551,-1.59401"
       style="fill:#ff0000;fill-opacity:1;fill-rule:nonzero;stroke:none"
       transform="matrix(1.3333067,-2.2666667e-4,-2.2666667e-4,-1.3333067,258.07513,23.051627)" />
    <path
       id="path34"
       d="m 3.5032422,-2.8837969 c 1.2421875,0 2.296875,-0.9023437 2.296875,-2.015625 0,-1.0664062 -0.984375,-2.015625 -2.3671875,-2.015625 H 0.96027344 V -9.84375e-4 H 1.8391797 V -2.8837969 Z m -0.28125,-3.46875 c 1.0898437,0 1.7695312,0.609375 1.7695312,1.453125 0,0.7851563 -0.6328125,1.4414063 -1.7695312,1.4414063 h -1.40625 v -2.8945313 z m 7.5410158,4.1601563 c 0,-1.3359375 -0.9960939,-2.4023438 -2.1796877,-2.4023438 -1.2304687,0 -2.1914062,1.1015625 -2.1914062,2.4023438 0,1.31249998 1.0078125,2.29687498 2.1796875,2.29687498 1.1953125,0 2.1914064,-1.0078125 2.1914064,-2.29687498 z m -2.1914064,1.66406248 c -0.6914063,0 -1.40625,-0.56249998 -1.40625,-1.76953128 0,-1.1953125 0.75,-1.6875 1.40625,-1.6875 0.6914062,0 1.40625,0.515625 1.40625,1.6875 0,1.1835938 -0.6679688,1.76953128 -1.40625,1.76953128 z M 12.626289,-6.9150469 h -0.75 v 6.914062525 h 0.75 z m 2.378906,0 h -0.75 v 6.914062525 h 0.75 z m 2.452149,0.140625 h -0.890625 v 0.890625 h 0.890625 z m -0.07031,2.3554688 h -0.75 v 4.417968725 h 0.75 z m 5.15625,1.453125 c 0,-0.65625 -0.152343,-1.5703125 -1.371093,-1.5703125 -0.890625,0 -1.382813,0.6796875 -1.441407,0.7617187 v -0.7148437 h -0.714843 v 4.488281225 h 0.773437 V -2.4384844 c 0,-0.65625 0.246094,-1.4882812 1.007813,-1.4882812 0.960937,0 0.960937,0.703125 0.960937,1.03125 v 2.894531225 h 0.785156 z m 4.31543,-0.9257813 c 0.222656,0 0.503906,-0.046875 0.738281,-0.046875 0.175781,0 0.574219,0.035156 0.585938,0.035156 l -0.105469,-0.6328125 c -0.703125,0 -1.277344,0.1875 -1.570313,0.3164062 -0.210937,-0.1640625 -0.550781,-0.3164062 -0.949218,-0.3164062 -0.855469,0 -1.582032,0.7148437 -1.582032,1.6289062 0,0.3632813 0.128907,0.7265625 0.328125,0.984375 -0.292968,0.4101563 -0.292968,0.796875 -0.292968,0.84375 0,0.25781253 0.09375,0.55078128 0.257812,0.76171878 -0.515625,0.3046875 -0.632812,0.76171875 -0.632812,1.01953125 0,0.74999997 0.984375,1.34765627 2.203125,1.34765627 1.21875,0 2.203125,-0.5859375 2.203125,-1.34765627 0,-1.39453125 -1.664063,-1.39453125 -2.050782,-1.39453125 H 25.11262 c -0.128906,0 -0.574219,0 -0.574219,-0.52734378 0,-0.1054687 0.04687,-0.2695312 0.117188,-0.3515625 0.199219,0.140625 0.527344,0.28125 0.902344,0.28125 0.890625,0 1.59375,-0.7382812 1.59375,-1.6171875 0,-0.4804687 -0.222657,-0.84375 -0.328125,-0.9960937 z m -1.300781,2.0390625 c -0.375,0 -0.890625,-0.234375 -0.890625,-1.0546875 0,-0.8320312 0.515625,-1.0546875 0.890625,-1.0546875 0.421875,0 0.890625,0.2695313 0.890625,1.0546875 0,0.7734375 -0.46875,1.0546875 -0.890625,1.0546875 z m 0.445312,1.88671878 c 0.222656,0 1.347656,0 1.347656,0.6796875 0,0.44531252 -0.691406,0.77343752 -1.5,0.77343752 -0.808593,0 -1.523437,-0.3164063 -1.523437,-0.78515627 0,-0.0234375 0,-0.66796875 0.785156,-0.66796875 z M 37.455391,-1.1377031 c -0.585938,0.38671873 -0.925782,0.59765623 -1.910157,0.59765623 -1.441406,0 -2.332031,-1.48828123 -2.332031,-2.92968753 0,-1.3476562 0.820313,-2.9179687 2.34375,-2.9179687 0.714844,0 1.160156,0.1757812 1.710938,0.515625 l 0.128906,-0.8085938 c -0.421875,-0.2109375 -1.195313,-0.3398437 -1.828125,-0.3398437 -1.839844,0 -3.257813,1.546875 -3.257813,3.6445312 0,1.5703125 1.183594,3.48046878 3.257813,3.48046878 0.914062,0 1.300781,-0.15234375 1.945312,-0.55078125 z m 5.238281,-1.0546875 c 0,-1.3359375 -0.996094,-2.4023438 -2.179688,-2.4023438 -1.230468,0 -2.191406,1.1015625 -2.191406,2.4023438 0,1.31249998 1.007813,2.29687498 2.179688,2.29687498 1.195312,0 2.191406,-1.0078125 2.191406,-2.29687498 z m -2.191406,1.66406248 c -0.691407,0 -1.40625,-0.56249998 -1.40625,-1.76953128 0,-1.1953125 0.75,-1.6875 1.40625,-1.6875 0.691406,0 1.40625,0.515625 1.40625,1.6875 0,1.1835938 -0.667969,1.76953128 -1.40625,1.76953128 z m 9.600586,-2.43749998 c 0,-0.6679688 -0.164063,-1.5703125 -1.359375,-1.5703125 -0.597657,0 -1.125,0.28125 -1.488282,0.8203125 -0.257812,-0.7617188 -0.960937,-0.8203125 -1.277343,-0.8203125 -0.714844,0 -1.183594,0.4101562 -1.453125,0.7734375 V -4.4892656 H 43.809883 V -9.84375e-4 H 44.58332 V -2.4384844 c 0,-0.6796875 0.269532,-1.4882812 1.007813,-1.4882812 0.925781,0 0.972656,0.6445312 0.972656,1.03125 v 2.894531225 h 0.785156 V -2.4384844 c 0,-0.6796875 0.269532,-1.4882812 0.996094,-1.4882812 0.9375,0 0.984375,0.6445312 0.984375,1.03125 v 2.894531225 h 0.773438 z m 7.924804,0 c 0,-0.6679688 -0.164062,-1.5703125 -1.359375,-1.5703125 -0.597656,0 -1.125,0.28125 -1.488281,0.8203125 -0.257812,-0.7617188 -0.960937,-0.8203125 -1.277344,-0.8203125 -0.714843,0 -1.183593,0.4101562 -1.453125,0.7734375 v -0.7265625 h -0.714843 v 4.488281225 h 0.773437 V -2.4384844 c 0,-0.6796875 0.269531,-1.4882812 1.007813,-1.4882812 0.925781,0 0.972656,0.6445312 0.972656,1.03125 V -9.84375e-4 H 55.27375 V -2.4384844 c 0,-0.6796875 0.269531,-1.4882812 0.996094,-1.4882812 0.9375,0 0.984375,0.6445312 0.984375,1.03125 v 2.894531225 h 0.773437 z m 4.78418,0.082031 c 0,-1.0078125 -0.726563,-1.7109375 -1.640625,-1.7109375 -0.644531,0 -1.101563,0.1640625 -1.570313,0.4335938 l 0.07031,0.65625 c 0.515625,-0.375 1.007812,-0.5039063 1.5,-0.5039063 0.46875,0 0.867187,0.3984375 0.867187,1.1367188 v 0.4335937 c -1.5,0.011719 -2.765625,0.4335938 -2.765625,1.3125 0,0.42187503 0.269532,1.23046878 1.136719,1.23046878 0.140625,0 1.078125,-0.01171875 1.652344,-0.46875 v 0.363281245 h 0.75 z m -0.773438,1.5703125 c 0,0.1875 0,0.43359378 -0.339843,0.62109378 -0.292969,0.1875 -0.667969,0.1875 -0.773438,0.1875 -0.480469,0 -0.925781,-0.22265625 -0.925781,-0.64453128 0,-0.6914062 1.605469,-0.7617187 2.039062,-0.7851562 z m 5.923829,-1.6523437 c 0,-0.65625 -0.152344,-1.5703125 -1.371094,-1.5703125 -0.890625,0 -1.382813,0.6796875 -1.441406,0.7617187 V -4.4892656 H 64.434883 V -9.84375e-4 H 65.20832 V -2.4384844 c 0,-0.65625 0.246094,-1.4882812 1.007813,-1.4882812 0.960937,0 0.960937,0.703125 0.960937,1.03125 v 2.894531225 h 0.785157 z m 5.135742,-3.9492188 h -0.75 v 2.9296875 c -0.527344,-0.4335937 -1.078125,-0.5507812 -1.453125,-0.5507812 -0.984375,0 -1.757813,1.0429687 -1.757813,2.3203125 0,1.31249998 0.761719,2.32031248 1.710938,2.32031248 0.328125,0 0.914062,-0.08203125 1.476562,-0.62109375 v 0.515624995 h 0.773438 z m -0.773438,5.53125 c 0,0.140625 -0.01172,0.3164063 -0.328125,0.60937503 -0.234375,0.19921875 -0.480468,0.26953125 -0.738281,0.26953125 -0.621094,0 -1.347656,-0.45703125 -1.347656,-1.69921878 0,-1.3125 0.855469,-1.7226562 1.441406,-1.7226562 0.445313,0 0.75,0.234375 0.972656,0.5507812 z m 7.611328,-6.09375 c -0.316406,0.3046875 -0.984375,0.9140625 -1.441406,2.1328125 -0.398437,1.0664063 -0.46875,2.1210938 -0.46875,2.8476563 0,3.22265623 1.441406,4.546875 1.910156,4.9921875 h 0.609375 c -0.480468,-0.4804688 -1.746093,-1.76953127 -1.746093,-4.9921875 0,-0.5507813 0.03516,-1.7226563 0.445312,-2.8945313 0.410156,-1.1484375 0.972656,-1.7460937 1.300781,-2.0859375 z m 2.91211,5.6015625 -1.230469,1.24218753 v 0.632812495 h 3.972656 V -0.70410937 H 83.77375 c -0.117187,0 -0.234375,0 -0.363281,0 h -1.078125 c 0.316406,-0.26953125 1.078125,-1.01953123 1.382812,-1.31250003 0.1875,-0.1757812 0.691407,-0.5976562 0.890625,-0.7734375 0.445313,-0.4453125 0.984375,-0.9726562 0.984375,-1.828125 0,-1.1367187 -0.808593,-2.1328125 -2.121093,-2.1328125 -1.136719,0 -1.699219,0.7734375 -1.933594,1.6289063 0.117187,0.1757812 0.164062,0.234375 0.1875,0.2578125 0.02344,0.023437 0.117187,0.1523437 0.222656,0.2929687 0.199219,-0.7734375 0.46875,-1.546875 1.382813,-1.546875 0.9375,0 1.441406,0.75 1.441406,1.5234375 0,0.84375 -0.5625,1.4179688 -1.160156,2.015625 z m 6.952148,0.1757813 h 0.984375 v -0.609375 h -0.984375 v -4.2304688 h -0.902344 l -2.519531,4.2304688 v 0.609375 h 2.636719 v 1.699218725 h 0.785156 z m -2.648437,-0.609375 c 0.515625,-0.8554688 1.921875,-3.2226563 1.921875,-3.7851563 v 3.7851563 z m 8.003906,0.011719 h 2.777344 c 0.140625,0 0.328125,0 0.328125,-0.1992187 0,-0.1992188 -0.1875,-0.1992188 -0.328125,-0.1992188 h -2.777344 v -2.7890625 c 0,-0.1289062 0,-0.328125 -0.199219,-0.328125 -0.199219,0 -0.199219,0.1992188 -0.199219,0.328125 v 2.7890625 h -2.789062 c -0.140625,0 -0.328125,0 -0.328125,0.1992188 0,0.1992187 0.1875,0.1992187 0.328125,0.1992187 h 2.789062 v 2.80078128 c 0,0.12890625 0,0.328125 0.199219,0.328125 0.199219,0 0.199219,-0.19921875 0.199219,-0.328125 z m 6.647464,-4.453125 h -0.19922 c -0.58594,0.609375 -1.41797,0.6328125 -1.886721,0.65625 v 0.5742188 c 0.328121,-0.011719 0.808591,-0.023437 1.300781,-0.234375 v 5.17968748 h -1.242187 v 0.574218745 h 3.269527 V -0.57520312 h -1.24218 z m 6.28418,-0.1640625 v 6.914062525 h 2.63672 c 1.42968,0 2.48437,-0.902343745 2.48437,-1.875000025 0,-0.8671875 -0.86719,-1.5703125 -1.93359,-1.7460937 0.91406,-0.2226563 1.66406,-0.796875 1.66406,-1.5585938 0,-0.9140625 -1.06641,-1.734375 -2.48438,-1.734375 z m 0.83203,3.0234375 v -2.4609375 h 1.2539 c 1.10157,0 1.98047,0.5273438 1.98047,1.1835938 0,0.5976562 -0.70312,1.2773437 -2.07422,1.2773437 z m 0,3.32812503 V -3.2939531 h 1.4414 c 1.05469,0 2.03907,0.609375 2.03907,1.40625 0,0.75 -0.87891,1.32421873 -1.95703,1.32421873 z m 6.47754,-6.21093753 h -0.89063 v 0.890625 h 0.89063 z m -0.0703,2.3554688 h -0.75 v 4.417968725 h 0.75 z m 2.56641,0.5742187 h 1.40625 V -4.418953 h -1.40625 v -1.265625 h -0.69141 v 1.265625 h -0.86718 v 0.5742187 h 0.84375 v 2.6601563 c 0,0.59765623 0.1289,1.28906248 0.82031,1.28906248 0.70312,0 1.20703,-0.24609375 1.45312,-0.375 l -0.15234,-0.5859375 c -0.25781,0.2109375 -0.58594,0.328125 -0.90234,0.328125 -0.36328,0 -0.50391,-0.3046875 -0.50391,-0.83203128 z m 3.01172,6.3398438 c 0.32812,-0.3046875 0.99609,-0.9140625 1.45312,-2.13281252 0.39844,-1.06640625 0.46875,-2.12109378 0.46875,-2.85937498 0,-3.2109375 -1.4414,-4.5351563 -1.92187,-4.9804688 h -0.59766 c 0.46875,0.4804688 1.73438,1.7695313 1.73438,4.9804688 0,0.5625 -0.0234,1.73437498 -0.4336,2.90624998 -0.41015,1.14843752 -0.97265,1.74609372 -1.30078,2.08593752 z m 0,0"
       style="fill:#ff0000;fill-opacity:1;fill-rule:nonzero;stroke:none"
       aria-label="PollingCommand(24+1Bit)"
       transform="matrix(1.3333333,0,0,1.3333333,72.426667,15.056)" />
    <path
       id="path35"
       d="M 12.22226,7.08931 V -22.79901"
       style="fill:none;stroke:#ff0000;stroke-width:0.3985;stroke-linecap:round;stroke-linejoin:round;stroke-miterlimit:10;stroke-dasharray:2.98883, 2.98883;stroke-dashoffset:0;stroke-opacity:1"
       transform="matrix(1.3333333,0,0,-1.3333333,32.654667,67.416)" />
    <path
       id="path36"
       d="M 34.89914,7.09442 V -22.7939"
       style="fill:none;stroke:#ff0000;stroke-width:0.3985;stroke-linecap:round;stroke-linejoin:round;stroke-miterlimit:10;stroke-dasharray:2.98883, 2.98883;stroke-dashoffset:0;stroke-opacity:1"
       transform="matrix(1.3333333,0,0,-1.3333333,32.654667,67.416)" />
    <path
       id="path37"
       d="M 57.58083,7.09956 V -22.78877"
       style="fill:none;stroke:#ff0000;stroke-width:0.3985;stroke-linecap:round;stroke-linejoin:round;stroke-miterlimit:10;stroke-dasharray:2.98883, 2.98883;stroke-dashoffset:0;stroke-opacity:1"
       transform="matrix(1.3333333,0,0,-1.3333333,32.654667,67.416)" />
    <path
       id="path38"
       d="M 125.6357,7.1085 V -22.77983"
       style="fill:none;stroke:#ff0000;stroke-width:0.3985;stroke-linecap:round;stroke-linejoin:round;stroke-miterlimit:10;stroke-dasharray:2.98883, 2.98883;stroke-dashoffset:0;stroke-opacity:1"
       transform="matrix(1.3333333,0,0,-1.3333333,32.654667,67.416)" />
    <path
       id="path39"
       d="M 148.34332,7.1117 V -22.77664"
       style="fill:none;stroke:#ff0000;stroke-width:0.3985;stroke-linecap:round;stroke-linejoin:round;stroke-miterlimit:10;stroke-dasharray:2.98883, 2.98883;stroke-dashoffset:0;stroke-opacity:1"
       transform="matrix(1.3333333,0,0,-1.3333333,32.654667,67.416)" />
    <path
       id="path40"
       d="M 171.04886,7.1168 V -22.77153"
       style="fill:none;stroke:#ff0000;stroke-width:0.3985;stroke-linecap:round;stroke-linejoin:round;stroke-miterlimit:10;stroke-dasharray:2.98883, 2.98883;stroke-dashoffset:0;stroke-opacity:1"
       transform="matrix(1.3333333,0,0,-1.3333333,32.654667,67.416)" />
    <path
       id="path41"
       d="m 127.63478,-19.0463 18.72386,0.0027"
       style="fill:none;stroke:#ff0000;stroke-width:0.3985;stroke-linecap:round;stroke-linejoin:round;stroke-miterlimit:10;stroke-dasharray:none;stroke-opacity:1"
       transform="matrix(1.3333333,0,0,-1.3333333,32.654667,67.416)" />
    <path
       id="path42"
       d="M 1.99252,0 -1.19551,1.59401 0,0 -1.19551,-1.59401"
       style="fill:#ff0000;fill-opacity:1;fill-rule:nonzero;stroke:none"
       transform="matrix(-1.3333067,1.8666667e-4,1.8666667e-4,1.3333067,202.83437,92.81104)" />
    <path
       id="path43"
       d="M 1.99252,0 -1.19551,1.59401 0,0 -1.19551,-1.59401"
       style="fill:#ff0000;fill-opacity:1;fill-rule:nonzero;stroke:none"
       transform="matrix(1.3333067,-1.8666667e-4,-1.8666667e-4,-1.3333067,227.79952,92.807493)" />
    <path
       id="path44"
       d="M 5.6497969,-0.16307812 C 5.2162031,-0.18651562 5.0169844,-0.36229687 4.8177656,-0.87792187 L 3.8919844,-3.3154219 c 0.7734375,-0.1757812 1.1015625,-0.3046875 1.453125,-0.6328125 0.3398437,-0.28125 0.515625,-0.6679687 0.515625,-1.125 0,-0.9257812 -0.7382813,-1.4296875 -2.0742188,-1.4296875 H 1.3138594 v 0.1640625 c 0.421875,0.058594 0.46875,0.058594 0.5742187,0.1289063 0.070312,0.058594 0.140625,0.1757812 0.140625,0.28125 0,0.1171875 -0.058594,0.3632812 -0.1289062,0.6328125 l -1.21875003,4.39453123 c -0.17578125,0.59765625 -0.24609375,0.65625 -0.80859375,0.73828125 V 9.84375e-4 H 2.2982344 V -0.16307812 c -0.5976563,-0.0703125 -0.6679688,-0.12890625 -0.6679688,-0.45703125 0,-0.09375 0.023437,-0.22265625 0.1171875,-0.57421873 l 0.5507813,-2.0859375 0.65625,0.058594 1.21875,3.222656275 H 5.6497969 Z M 3.0716719,-5.9287031 c 0.058594,-0.2109375 0.1875,-0.28125 0.5039062,-0.28125 0.8320313,0 1.2421875,0.3867187 1.2421875,1.125 0,0.984375 -0.6445312,1.4882812 -1.8867187,1.4882812 -0.1640625,0 -0.2695313,-0.011719 -0.5039063,-0.046875 z m 0,0"
       style="fill:#ff0000;fill-opacity:1;fill-rule:nonzero;stroke:none"
       aria-label="R"
       transform="matrix(1.3333333,0,0,1.3333333,211.256,109.444)" />
    <path
       id="path45"
       d="m 150.34363,-19.04298 18.72172,0.0043"
       style="fill:none;stroke:#ff0000;stroke-width:0.3985;stroke-linecap:round;stroke-linejoin:round;stroke-miterlimit:10;stroke-dasharray:none;stroke-opacity:1"
       transform="matrix(1.3333333,0,0,-1.3333333,32.654667,67.416)" />
    <path
       id="path46"
       d="M 1.99252,0 -1.19551,1.59401 0,0 -1.19551,-1.59401"
       style="fill:#ff0000;fill-opacity:1;fill-rule:nonzero;stroke:none"
       transform="matrix(-1.3333067,2.6666667e-4,2.6666667e-4,1.3333067,233.11284,92.806627)" />
    <path
       id="path47"
       d="M 1.99252,0 -1.19551,1.59401 0,0 -1.19551,-1.59401"
       style="fill:#ff0000;fill-opacity:1;fill-rule:nonzero;stroke:none"
       transform="matrix(1.3333067,-3.0666667e-4,-3.0666667e-4,-1.3333067,258.07513,92.800947)" />
    <path
       id="path48"
       d="M 0.3620625,-1.4535469 0.16284375,0.12848437 H 0.3151875 c 0.0820313,-0.1640625 0.140625,-0.2109375 0.24609375,-0.2109375 0.10546875,0 0.28125,0.046875 0.48046875,0.09375 0.2226563,0.0703125 0.3867188,0.09375 0.5507813,0.09375 0.8320312,0 1.4296875,-0.5390625 1.4296875,-1.28906247 0,-0.375 -0.1992188,-0.8203125 -0.6679688,-1.3945313 -0.3867187,-0.46875 -0.5390625,-0.7734375 -0.5390625,-1.0429687 0,-0.328125 0.2109375,-0.5390625 0.5507813,-0.5390625 0.5273437,0 0.8203125,0.3632812 0.9257812,1.1367187 h 0.1523438 l 0.1992187,-1.3828125 h -0.140625 c -0.082031,0.140625 -0.1523437,0.1875 -0.2929687,0.1875 -0.070312,0 -0.1757813,-0.023437 -0.3632813,-0.070312 C 2.6003438,-4.3715156 2.448,-4.3949531 2.2956563,-4.3949531 c -0.7382813,0 -1.2070313,0.4335937 -1.2070313,1.1015625 0,0.3164062 0.2109375,0.7382812 0.6210938,1.2773437 0.3867187,0.515625 0.5625,0.8554688 0.5625,1.14843752 0,0.4453125 -0.3046875,0.76171875 -0.7382813,0.76171875 -0.55078125,0 -0.85546875,-0.3984375 -1.01953125,-1.34765627 z m 6.2167969,-2.8125 h -0.796875 l 0.2695312,-1.0195312 c 0.011719,-0.023437 0.011719,-0.046875 0.011719,-0.058594 0,-0.070312 -0.023437,-0.09375 -0.082031,-0.09375 -0.058594,0 -0.082031,0.011719 -0.140625,0.09375 -0.3867187,0.5039063 -1.0078125,0.9960938 -1.3242187,1.0898438 -0.2578125,0.082031 -0.328125,0.140625 -0.328125,0.2460937 0,0.011719 0,0.035156 0.011719,0.058594 h 0.7382813 l -0.7148438,2.7421875 c -0.023437,0.09375 -0.035156,0.1171875 -0.058594,0.21093747 -0.09375,0.29296875 -0.1757813,0.64453125 -0.1757813,0.7265625 0,0.22265625 0.2109375,0.375 0.4804688,0.375 0.4570312,0 0.7851562,-0.26953125 1.4179687,-1.20703127 l -0.1289062,-0.058594 c -0.4921875,0.62109372 -0.6445313,0.78515622 -0.8085938,0.78515622 -0.09375,0 -0.1523437,-0.0820313 -0.1523437,-0.19921875 0,-0.0117188 0,-0.0234375 0.011719,-0.0585938 L 5.6882344,-3.9496406 h 0.8320312 z m 3.7294926,-0.1289062 c -1.4882817,0 -2.9648442,1.546875 -2.9648442,3.1054687 0,0.85546877 0.5625,1.39453127 1.4648438,1.39453127 0.65625,0 1.2890624,-0.29296875 1.8750004,-0.8671875 0.65625,-0.64453127 1.054687,-1.48828127 1.054687,-2.23828127 0,-0.8203125 -0.574219,-1.3945312 -1.429687,-1.3945312 z m -0.117188,0.2109375 c 0.433594,0 0.703125,0.3632812 0.703125,0.9375 0,0.7265625 -0.328125,1.7226562 -0.761719,2.36718747 -0.3632809,0.52734375 -0.7499997,0.7734375 -1.1718747,0.7734375 -0.46875,0 -0.7851562,-0.3515625 -0.7851562,-0.90234377 0,-0.7382812 0.2929687,-1.6171875 0.7851562,-2.3203125 0.3867188,-0.5625 0.8085938,-0.8554687 1.2304687,-0.8554687 z m 3.172852,0.1640625 h 0.222656 c 0,0 0.02344,0 0.03516,-0.011719 0.128906,-0.058594 0.386719,0.1289063 0.386719,0.28125 0,0.082031 -0.363281,1.5 -0.703125,2.81250002 C 13.035895,0.05817167 12.789801,1.0073904 12.719488,1.3003592 12.61402,1.7573904 12.485113,1.8745779 12.05152,1.8862967 v 0.1523437 h 2.050781 v -0.140625 c -0.46875,0 -0.644531,-0.09375 -0.644531,-0.3046875 0,-0.140625 0.175781,-0.91406248 0.375,-1.65234373 0.246093,0.12890625 0.421875,0.1640625 0.65625,0.1640625 1.453125,0 2.988281,-1.66406247 2.988281,-3.25781247 0,-0.7734375 -0.445313,-1.2421875 -1.148438,-1.2421875 -0.644531,0 -1.125,0.3164062 -1.699218,1.125 l 0.28125,-0.9960938 0.03516,-0.082031 c 0,0 -0.01172,-0.011719 -0.02344,-0.035156 l -0.02344,-0.011719 c 0,-0.011719 0,-0.011719 0,-0.011719 l -0.02344,0.011719 -1.535156,0.2226562 z m 2.589843,0.058594 c 0.433594,0.011719 0.621094,0.2695313 0.621094,0.8554688 0,0.65625 -0.28125,1.5117187 -0.714844,2.13281247 -0.421875,0.5859375 -0.902343,0.890625 -1.417968,0.890625 -0.28125,0 -0.480469,-0.15234375 -0.480469,-0.36328125 0,-0.33984375 0.363281,-1.65234372 0.65625,-2.37890622 0.269531,-0.6796875 0.84375,-1.171875 1.335937,-1.1367188 z m 0,0"
       style="fill:#ff0000;fill-opacity:1;fill-rule:nonzero;stroke:none"
       aria-label="stop"
       transform="matrix(1.3333333,0,0,1.3333333,233.736,108.024)" />
    <path
       id="path49"
       d="m 14.2154,-19.06535 18.69308,0.0043"
       style="fill:none;stroke:#ff0000;stroke-width:0.3985;stroke-linecap:round;stroke-linejoin:round;stroke-miterlimit:10;stroke-dasharray:none;stroke-opacity:1"
       transform="matrix(1.3333333,0,0,-1.3333333,32.654667,67.416)" />
    <path
       id="path50"
       d="M 1.99252,0 -1.19551,1.59401 0,0 -1.19551,-1.59401"
       style="fill:#ff0000;fill-opacity:1;fill-rule:nonzero;stroke:none"
       transform="matrix(-1.3333067,2.6666667e-4,2.6666667e-4,1.3333067,51.608533,92.836453)" />
    <path
       id="path51"
       d="M 1.99252,0 -1.19551,1.59401 0,0 -1.19551,-1.59401"
       style="fill:#ff0000;fill-opacity:1;fill-rule:nonzero;stroke:none"
       transform="matrix(1.3333067,-3.0666667e-4,-3.0666667e-4,-1.3333067,76.53264,92.830773)" />
    <path
       id="path52"
       d="M 1.7929141,-6.9153281 H 1.3827578 l -0.42187499,1.2539062 v 0.8203125 H 1.7929141 V -5.6731406 H 1.5468203 Z m 5.5224609,3.6679687 c 0,-0.7851562 -0.035156,-1.7109375 -0.4570312,-2.5195312 -0.3984375,-0.75 -1.0898438,-0.984375 -1.59375,-0.984375 -0.5976563,0 -1.2890625,0.2695312 -1.6992188,1.1484375 -0.328125,0.7265625 -0.375,1.5585937 -0.375,2.3554687 0,0.7851563 0.035156,1.5117188 0.3398438,2.2382813 0.3984375,0.96093748 1.1484375,1.23046873 1.7226562,1.23046873 0.7265625,0 1.3476563,-0.41015625 1.6640625,-1.1015625 C 7.221625,-1.5247031 7.315375,-2.1809531 7.315375,-3.2473594 Z m -2.0507812,2.85937503 c -0.5273438,0 -0.9375,-0.375 -1.1367188,-1.10156253 -0.1523437,-0.5625 -0.1640625,-1.1015625 -0.1640625,-1.875 0,-0.6328125 0,-1.2304687 0.1640625,-1.78125 0.070312,-0.1875 0.3164063,-0.9960937 1.125,-0.9960937 0.7734375,0 1.03125,0.75 1.1015625,0.9257812 0.1875,0.5625 0.1875,1.2304688 0.1875,1.8515625 0,0.65625 0,1.2773438 -0.1757812,1.9101563 C 6.1083438,-0.55204687 5.581,-0.38798437 5.2645938,-0.38798437 Z M 9.5419375,-6.0950156 V -6.9153281 H 8.7099063 v 0.8320312 h 0.2578125 l -0.2578125,1.2421875 h 0.4101562 z m 0,0"
       style="fill:#ff0000;fill-opacity:1;fill-rule:nonzero;stroke:none"
       aria-label="‘0’"
       transform="matrix(1.3333333,0,0,1.3333333,57.058667,110.072)" />
    <path
       id="path53"
       d="m 36.89346,-19.06024 18.69791,0.0043"
       style="fill:none;stroke:#ff0000;stroke-width:0.3985;stroke-linecap:round;stroke-linejoin:round;stroke-miterlimit:10;stroke-dasharray:none;stroke-opacity:1"
       transform="matrix(1.3333333,0,0,-1.3333333,32.654667,67.416)" />
    <path
       id="path54"
       d="M 1.99252,0 -1.19551,1.59401 0,0 -1.19551,-1.59401"
       style="fill:#ff0000;fill-opacity:1;fill-rule:nonzero;stroke:none"
       transform="matrix(-1.3333067,2.6666667e-4,2.6666667e-4,1.3333067,81.845947,92.82964)" />
    <path
       id="path55"
       d="M 1.99252,0 -1.19551,1.59401 0,0 -1.19551,-1.59401"
       style="fill:#ff0000;fill-opacity:1;fill-rule:nonzero;stroke:none"
       transform="matrix(1.3333067,-3.0666667e-4,-3.0666667e-4,-1.3333067,106.77649,92.82392)" />
    <path
       id="path56"
       d="M 1.791625,-6.9132578 H 1.3814688 l -0.42187505,1.2539062 v 0.8203125 H 1.791625 V -5.6710703 H 1.5455313 Z m 3.9521484,0.1640625 H 5.5445547 c -0.5859375,0.609375 -1.4179688,0.6328125 -1.8867188,0.65625 v 0.5742187 c 0.328125,-0.011719 0.8085938,-0.023437 1.3007813,-0.234375 v 5.17968754 H 3.7164297 V 8.046875e-4 H 6.9859609 V -0.57341406 H 5.7437734 Z m 3.796875,0.65625 V -6.9132578 H 8.7086172 v 0.8320312 h 0.2578125 l -0.2578125,1.2421875 h 0.4101562 z m 0,0"
       style="fill:#ff0000;fill-opacity:1;fill-rule:nonzero;stroke:none"
       aria-label="‘1’"
       transform="matrix(1.3333333,0,0,1.3333333,87.298667,110.06533)" />
    <path
       id="path57"
       d="m 351.8126,10.67412 v 26.1523"
       style="fill:none;stroke:#0000ff;stroke-width:0.3985;stroke-linecap:round;stroke-linejoin:round;stroke-miterlimit:10;stroke-dasharray:2.98883, 2.98883;stroke-dashoffset:0;stroke-opacity:1"
       transform="matrix(1.3333333,0,0,-1.3333333,32.654667,67.416)" />
    <path
       id="path58"
       d="m 173.05034,33.2717 176.7883,-0.1749"
       style="fill:none;stroke:#0000ff;stroke-width:0.3985;stroke-linecap:round;stroke-linejoin:round;stroke-miterlimit:10;stroke-dasharray:none;stroke-opacity:1"
       transform="matrix(1.3333333,0,0,-1.3333333,32.654667,67.416)" />
    <path
       id="path59"
       d="M 1.99252,0 -1.19551,1.59401 0,0 -1.19551,-1.59401"
       style="fill:#0000ff;fill-opacity:1;fill-rule:nonzero;stroke:none"
       transform="matrix(-1.3333067,-0.00130667,-0.00130667,1.3333067,263.38845,23.05376)" />
    <path
       id="path60"
       d="M 1.99252,0 -1.19551,1.59401 0,0 -1.19551,-1.59401"
       style="fill:#0000ff;fill-opacity:1;fill-rule:nonzero;stroke:none"
       transform="matrix(1.3333067,0.00130667,0.00130667,-1.3333067,499.10619,23.286907)" />
    <path
       id="path61"
       d="m 4.1717188,-3.2469062 c 1.03125,-0.3046875 1.6992187,-1.0078125 1.6992187,-1.8164063 0,-0.984375 -1.0898437,-1.8515625 -2.5195312,-1.8515625 H 0.96078125 V -8.125e-4 H 1.81625 v -3.1523437 h 1.5703125 l 1.875,3.1523437 H 6.1404688 Z M 1.81625,-3.7625312 V -6.352375 h 1.4296875 c 1.1601563,0 1.8164063,0.5859375 1.8164063,1.2890625 0,0.7148438 -0.6445313,1.3007813 -1.8164063,1.3007813 z M 10.558438,-2.1805 c 0,-0.3398437 -0.01172,-1.0898437 -0.398438,-1.6875 -0.4101562,-0.6210937 -1.0195312,-0.7265625 -1.3710937,-0.7265625 -1.1132813,0 -2.0039063,1.0546875 -2.0039063,2.34375 0,1.3125 0.9492188,2.35546875 2.1445313,2.35546875 0.6328125,0 1.1953127,-0.234375 1.5937497,-0.515625 L 10.452969,-1.0555 c -0.621094,0.515625 -1.277344,0.55078125 -1.511719,0.55078125 -0.796875,0 -1.4296875,-0.70312495 -1.4648437,-1.67578125 z M 7.535,-2.7312812 C 7.6873438,-3.493 8.2146875,-3.9851875 8.7889063,-3.9851875 c 0.515625,0 1.0664062,0.3398438 1.1953125,1.2539063 z m 6.74707,-1.546875 c -0.527343,-0.234375 -0.925781,-0.3164063 -1.441406,-0.3164063 -0.246094,0 -1.652344,0 -1.652344,1.3007813 0,0.4921875 0.292969,0.8085937 0.539063,0.9960937 0.304687,0.2226563 0.527344,0.2695313 1.078125,0.375 0.351562,0.070312 0.9375,0.1875 0.9375,0.7148438 0,0.6914062 -0.785156,0.6914062 -0.9375,0.6914062 -0.808594,0 -1.371094,-0.375 -1.546875,-0.4921875 l -0.117188,0.6796875 c 0.316407,0.1640625 0.867188,0.43359375 1.675782,0.43359375 0.175781,0 0.726562,0 1.148437,-0.31640625 0.316406,-0.234375 0.480469,-0.6328125 0.480469,-1.0664062 0,-0.5507813 -0.363281,-0.8789063 -0.386719,-0.9140625 -0.386719,-0.3515625 -0.65625,-0.4101563 -1.160156,-0.5039063 -0.539063,-0.1054687 -1.007813,-0.1992187 -1.007813,-0.6914062 0,-0.6210938 0.726563,-0.6210938 0.855469,-0.6210938 0.316406,0 0.84375,0.046875 1.40625,0.3867188 z m 1.992188,3.82031245 c 0.304687,0.29296875 0.75,0.5625 1.347656,0.5625 0.960938,0 1.839844,-0.97265625 1.839844,-2.33203125 0,-1.1953125 -0.632813,-2.3085937 -1.582031,-2.3085937 -0.597657,0 -1.171875,0.2109375 -1.640625,0.5976562 V -4.4187812 H 15.50082 v 6.3515625 h 0.773438 z m 0,-2.85937495 c 0.234375,-0.3515625 0.632812,-0.5742188 1.054687,-0.5742188 0.761719,0 1.359375,0.75 1.359375,1.6640625 0,1.03125 -0.714843,1.72265625 -1.453125,1.72265625 -0.398437,0 -0.65625,-0.19921875 -0.855468,-0.45703125 -0.105469,-0.1523437 -0.105469,-0.1757812 -0.105469,-0.3515625 z m 8.507812,1.125 c 0,-1.3359375 -0.996093,-2.4023438 -2.179687,-2.4023438 -1.230469,0 -2.191406,1.1015625 -2.191406,2.4023438 0,1.31249995 1.007812,2.29687495 2.179687,2.29687495 1.195313,0 2.191406,-1.0078125 2.191406,-2.29687495 z m -2.191406,1.66406245 c -0.691406,0 -1.40625,-0.56249995 -1.40625,-1.76953125 0,-1.1953125 0.75,-1.6875 1.40625,-1.6875 0.691406,0 1.40625,0.515625 1.40625,1.6875 0,1.1835938 -0.667969,1.76953125 -1.40625,1.76953125 z m 6.832031,-2.43749995 c 0,-0.65625 -0.152343,-1.5703125 -1.371093,-1.5703125 -0.890625,0 -1.382813,0.6796875 -1.441407,0.7617187 v -0.7148437 h -0.714843 v 4.4882812 h 0.773437 v -2.4375 c 0,-0.65625 0.246094,-1.4882812 1.007813,-1.4882812 0.960937,0 0.960937,0.703125 0.960937,1.03125 v 2.8945312 h 0.785156 z m 4.233399,-1.3125 c -0.527344,-0.234375 -0.925781,-0.3164063 -1.441406,-0.3164063 -0.246094,0 -1.652344,0 -1.652344,1.3007813 0,0.4921875 0.292969,0.8085937 0.539062,0.9960937 0.304688,0.2226563 0.527344,0.2695313 1.078125,0.375 0.351563,0.070312 0.9375,0.1875 0.9375,0.7148438 0,0.6914062 -0.785156,0.6914062 -0.9375,0.6914062 -0.808593,0 -1.371093,-0.375 -1.546875,-0.4921875 l -0.117187,0.6796875 c 0.316406,0.1640625 0.867187,0.43359375 1.675781,0.43359375 0.175781,0 0.726563,0 1.148438,-0.31640625 0.316406,-0.234375 0.480468,-0.6328125 0.480468,-1.0664062 0,-0.5507813 -0.363281,-0.8789063 -0.386718,-0.9140625 -0.386719,-0.3515625 -0.65625,-0.4101563 -1.160157,-0.5039063 -0.539062,-0.1054687 -1.007812,-0.1992187 -1.007812,-0.6914062 0,-0.6210938 0.726562,-0.6210938 0.855469,-0.6210938 0.316406,0 0.84375,0.046875 1.40625,0.3867188 z M 38.179531,-2.1805 c 0,-0.3398437 -0.01172,-1.0898437 -0.398437,-1.6875 -0.410156,-0.6210937 -1.019531,-0.7265625 -1.371094,-0.7265625 -1.113281,0 -2.003906,1.0546875 -2.003906,2.34375 0,1.3125 0.949219,2.35546875 2.144531,2.35546875 0.632813,0 1.195313,-0.234375 1.59375,-0.515625 L 38.074063,-1.0555 c -0.621094,0.515625 -1.277344,0.55078125 -1.511719,0.55078125 -0.796875,0 -1.429688,-0.70312495 -1.464844,-1.67578125 z M 35.156094,-2.7312812 C 35.308438,-3.493 35.835781,-3.9851875 36.41,-3.9851875 c 0.515625,0 1.066406,0.3398438 1.195313,1.2539063 z m 9.336914,-4.7460938 c -0.316406,0.3046875 -0.984375,0.9140625 -1.441406,2.1328125 -0.398438,1.0664063 -0.46875,2.1210938 -0.46875,2.8476563 0,3.2226562 1.441406,4.546875 1.910156,4.9921875 h 0.609375 C 44.621914,2.0148125 43.356289,0.72575 43.356289,-2.4969062 c 0,-0.5507813 0.03516,-1.7226563 0.445313,-2.8945313 0.410156,-1.1484375 0.972656,-1.7460937 1.300781,-2.0859375 z m 5.317383,0.9257813 c -0.515625,-0.1992188 -0.914063,-0.1992188 -1.054688,-0.1992188 -1.40625,0 -2.660156,1.40625 -2.660156,3.5390625 0,2.82421875 1.230469,3.43359375 2.074219,3.43359375 0.597656,0 1.03125,-0.234375 1.417968,-0.6796875 C 50.033047,-0.96175 50.220547,-1.4305 50.220547,-2.2156562 c 0,-1.2773438 -0.65625,-2.390625 -1.605469,-2.390625 -0.316406,0 -1.078125,0.082031 -1.6875,0.8320312 0.128906,-1.6054687 0.914063,-2.4023437 1.839844,-2.4023437 0.375,0 0.691406,0.070312 1.042969,0.2109375 z M 46.939297,-2.1805 c 0,-0.140625 0,-0.1640625 0.01172,-0.28125 0,-0.7382812 0.445312,-1.5351562 1.277343,-1.5351562 0.46875,0 0.75,0.2460937 0.949219,0.6210937 0.210938,0.3632813 0.234375,0.7148438 0.234375,1.1601563 0,0.3398437 0,0.796875 -0.246094,1.2070312 -0.164062,0.28125 -0.421875,0.62109375 -0.996093,0.62109375 -1.054688,0 -1.195313,-1.46484375 -1.23047,-1.79296875 z m 7.417969,0.4804688 h 0.984375 v -0.609375 H 54.357266 V -6.539875 h -0.902344 l -2.519531,4.2304688 v 0.609375 h 2.636718 v 1.6992187 h 0.785157 z m -2.648438,-0.609375 c 0.515625,-0.8554688 1.921875,-3.2226563 1.921875,-3.7851563 v 3.7851563 z m 8.006836,0.011719 h 2.777344 c 0.140625,0 0.328125,0 0.328125,-0.1992187 0,-0.1992188 -0.1875,-0.1992188 -0.328125,-0.1992188 h -2.777344 v -2.7890625 c 0,-0.1289062 0,-0.328125 -0.199219,-0.328125 -0.199218,0 -0.199218,0.1992188 -0.199218,0.328125 v 2.7890625 h -2.789063 c -0.140625,0 -0.328125,0 -0.328125,0.1992188 0,0.1992187 0.1875,0.1992187 0.328125,0.1992187 h 2.789063 v 2.80078125 c 0,0.12890625 0,0.328125 0.199218,0.328125 0.199219,0 0.199219,-0.19921875 0.199219,-0.328125 z m 6.644531,-4.453125 h -0.199218 c -0.585938,0.609375 -1.417969,0.6328125 -1.886719,0.65625 v 0.5742188 c 0.328125,-0.011719 0.808594,-0.023437 1.300781,-0.234375 v 5.17968745 H 64.332852 V -8.125e-4 h 3.269531 v -0.57421875 h -1.242188 z m 6.295899,-0.1640625 v 6.9140625 h 2.636719 c 1.429687,0 2.484375,-0.90234375 2.484375,-1.875 0,-0.8671875 -0.867188,-1.5703125 -1.933594,-1.7460937 0.914062,-0.2226563 1.664062,-0.796875 1.664062,-1.5585938 0,-0.9140625 -1.066406,-1.734375 -2.484375,-1.734375 z m 0.832031,3.0234375 V -6.352375 h 1.253906 c 1.101563,0 1.980469,0.5273438 1.980469,1.1835938 0,0.5976562 -0.703125,1.2773437 -2.074219,1.2773437 z m 0,3.328125 v -2.7304687 h 1.441406 c 1.054688,0 2.039063,0.609375 2.039063,1.40625 0,0.75 -0.878906,1.3242187 -1.957031,1.3242187 z M 79.965664,-6.77425 h -0.890625 v 0.890625 h 0.890625 z m -0.07031,2.3554688 h -0.75 v 4.4179687 h 0.75 z m 2.566406,0.5742187 h 1.40625 v -0.5742187 h -1.40625 v -1.265625 h -0.691406 v 1.265625 h -0.867188 v 0.5742187 h 0.84375 v 2.6601563 c 0,0.5976562 0.128906,1.28906245 0.820313,1.28906245 0.703125,0 1.207031,-0.24609375 1.453125,-0.375 l -0.152344,-0.5859375 c -0.257813,0.2109375 -0.585938,0.328125 -0.902344,0.328125 -0.363281,0 -0.503906,-0.3046875 -0.503906,-0.83203125 z m 3.011719,6.3398438 c 0.328125,-0.3046875 0.996093,-0.9140625 1.453125,-2.13281255 0.398437,-1.06640625 0.46875,-2.12109375 0.46875,-2.85937495 0,-3.2109375 -1.441407,-4.5351563 -1.921875,-4.9804688 H 84.87582 c 0.46875,0.4804688 1.734375,1.7695313 1.734375,4.9804688 0,0.5625 -0.02344,1.73437495 -0.433593,2.90624995 C 85.766445,1.5577813 85.203945,2.1554375 84.87582,2.4952813 Z m 0,0"
       style="fill:#0000ff;fill-opacity:1;fill-rule:nonzero;stroke:none"
       aria-label="Response(64+1Bit)"
       transform="matrix(1.3333333,0,0,1.3333333,322.45333,15.157333)" />
    <path
       id="path62"
       d="M 193.74904,7.12064 V -22.7677"
       style="fill:none;stroke:#0000ff;stroke-width:0.3985;stroke-linecap:round;stroke-linejoin:round;stroke-miterlimit:10;stroke-dasharray:2.98883, 2.98883;stroke-dashoffset:0;stroke-opacity:1"
       transform="matrix(1.3333333,0,0,-1.3333333,32.654667,67.416)" />
    <path
       id="path63"
       d="M 216.44266,7.12318 V -22.76515"
       style="fill:none;stroke:#0000ff;stroke-width:0.3985;stroke-linecap:round;stroke-linejoin:round;stroke-miterlimit:10;stroke-dasharray:2.98883, 2.98883;stroke-dashoffset:0;stroke-opacity:1"
       transform="matrix(1.3333333,0,0,-1.3333333,32.654667,67.416)" />
    <path
       id="path64"
       d="M 239.13869,7.12573 V -22.7626"
       style="fill:none;stroke:#0000ff;stroke-width:0.3985;stroke-linecap:round;stroke-linejoin:round;stroke-miterlimit:10;stroke-dasharray:2.98883, 2.98883;stroke-dashoffset:0;stroke-opacity:1"
       transform="matrix(1.3333333,0,0,-1.3333333,32.654667,67.416)" />
    <path
       id="path65"
       d="M 261.84993,7.12634 V -22.76198"
       style="fill:none;stroke:#0000ff;stroke-width:0.3985;stroke-linecap:round;stroke-linejoin:round;stroke-miterlimit:10;stroke-dasharray:2.98883, 2.98883;stroke-dashoffset:0;stroke-opacity:1"
       transform="matrix(1.3333333,0,0,-1.3333333,32.654667,67.416)" />
    <path
       id="path66"
       d="M 284.56474,7.12694 V -22.76138"
       style="fill:none;stroke:#0000ff;stroke-width:0.3985;stroke-linecap:round;stroke-linejoin:round;stroke-miterlimit:10;stroke-dasharray:2.98883, 2.98883;stroke-dashoffset:0;stroke-opacity:1"
       transform="matrix(1.3333333,0,0,-1.3333333,32.654667,67.416)" />
    <path
       id="path67"
       d="M 307.26825,7.1282 V -22.76013"
       style="fill:none;stroke:#0000ff;stroke-width:0.3985;stroke-linecap:round;stroke-linejoin:round;stroke-miterlimit:10;stroke-dasharray:2.98883, 2.98883;stroke-dashoffset:0;stroke-opacity:1"
       transform="matrix(1.3333333,0,0,-1.3333333,32.654667,67.416)" />
    <path
       id="path68"
       d="M 329.99026,7.12881 V -22.7595"
       style="fill:none;stroke:#0000ff;stroke-width:0.3985;stroke-linecap:round;stroke-linejoin:round;stroke-miterlimit:10;stroke-dasharray:2.98883, 2.98883;stroke-dashoffset:0;stroke-opacity:1"
       transform="matrix(1.3333333,0,0,-1.3333333,32.654667,67.416)" />
    <path
       id="path69"
       d="M 351.8126,10.67412 V -22.77046"
       style="fill:none;stroke:#0000ff;stroke-width:0.3985;stroke-linecap:round;stroke-linejoin:round;stroke-miterlimit:10;stroke-dasharray:2.98883, 2.98883;stroke-dashoffset:0;stroke-opacity:1"
       transform="matrix(1.3333333,0,0,-1.3333333,32.654667,67.416)" />
    <path
       id="path70"
       d="m 173.05034,-19.038 18.7164,0.0033"
       style="fill:none;stroke:#0000ff;stroke-width:0.3985;stroke-linecap:round;stroke-linejoin:round;stroke-miterlimit:10;stroke-dasharray:none;stroke-opacity:1"
       transform="matrix(1.3333333,0,0,-1.3333333,32.654667,67.416)" />
    <path
       id="path71"
       d="M 1.99252,0 -1.19551,1.59401 0,0 -1.19551,-1.59401"
       style="fill:#0000ff;fill-opacity:1;fill-rule:nonzero;stroke:none"
       transform="matrix(-1.3333067,1.8666667e-4,1.8666667e-4,1.3333067,263.38845,92.799973)" />
    <path
       id="path72"
       d="M 1.99252,0 -1.19551,1.59401 0,0 -1.19551,-1.59401"
       style="fill:#0000ff;fill-opacity:1;fill-rule:nonzero;stroke:none"
       transform="matrix(1.3333067,-2.2666667e-4,-2.2666667e-4,-1.3333067,288.34365,92.79568)" />
    <path
       id="path73"
       d="M 1.7926406,-6.9146953 H 1.3824844 l -0.42187502,1.2539062 v 0.8203125 H 1.7926406 V -5.6725078 H 1.5465469 Z m 5.522461,3.6679687 c 0,-0.7851562 -0.035156,-1.7109375 -0.4570313,-2.5195312 -0.3984375,-0.75 -1.0898437,-0.984375 -1.59375,-0.984375 -0.5976562,0 -1.2890625,0.2695312 -1.6992187,1.1484375 -0.328125,0.7265625 -0.375,1.5585937 -0.375,2.3554687 0,0.7851563 0.035156,1.5117188 0.3398437,2.2382813 0.3984375,0.96093749 1.1484375,1.23046874 1.7226563,1.23046874 0.7265625,0 1.3476562,-0.41015625 1.6640625,-1.1015625 C 7.2213516,-1.5240703 7.3151016,-2.1803203 7.3151016,-3.2467266 Z m -2.0507813,2.85937504 c -0.5273437,0 -0.9375,-0.375 -1.1367187,-1.10156254 -0.1523438,-0.5625 -0.1640625,-1.1015625 -0.1640625,-1.875 0,-0.6328125 0,-1.2304687 0.1640625,-1.78125 0.070312,-0.1875 0.3164062,-0.9960937 1.125,-0.9960937 0.7734375,0 1.03125,0.75 1.1015625,0.9257812 0.1875,0.5625 0.1875,1.2304688 0.1875,1.8515625 0,0.65625 0,1.2773438 -0.1757813,1.9101563 -0.2578125,0.90234374 -0.7851562,1.06640624 -1.1015625,1.06640624 z M 9.5416641,-6.0943828 V -6.9146953 H 8.7096328 v 0.8320312 h 0.2578125 l -0.2578125,1.2421875 h 0.4101563 z m 0,0"
       style="fill:#0000ff;fill-opacity:1;fill-rule:nonzero;stroke:none"
       aria-label="‘0’"
       transform="matrix(1.3333333,0,0,1.3333333,268.852,110.036)" />
    <path
       id="path74"
       d="m 195.75172,-19.03426 18.70983,0.0022"
       style="fill:none;stroke:#0000ff;stroke-width:0.3985;stroke-linecap:round;stroke-linejoin:round;stroke-miterlimit:10;stroke-dasharray:none;stroke-opacity:1"
       transform="matrix(1.3333333,0,0,-1.3333333,32.654667,67.416)" />
    <path
       id="path75"
       d="M 1.99252,0 -1.19551,1.59401 0,0 -1.19551,-1.59401"
       style="fill:#0000ff;fill-opacity:1;fill-rule:nonzero;stroke:none"
       transform="matrix(-1.3333067,1.2e-4,1.2e-4,1.3333067,293.65696,92.794987)" />
    <path
       id="path76"
       d="M 1.99252,0 -1.19551,1.59401 0,0 -1.19551,-1.59401"
       style="fill:#0000ff;fill-opacity:1;fill-rule:nonzero;stroke:none"
       transform="matrix(1.3333067,-1.2e-4,-1.2e-4,-1.3333067,318.6034,92.792053)" />
    <path
       id="path77"
       d="M 1.7938594,-6.914625 H 1.3837031 l -0.42187497,1.2539063 v 0.8203125 H 1.7938594 V -5.6724375 H 1.5477656 Z m 5.5195312,3.6679688 c 0,-0.7851563 -0.035156,-1.7109375 -0.4570312,-2.5195313 -0.3984375,-0.75 -1.0898438,-0.984375 -1.59375,-0.984375 -0.5976563,0 -1.2890625,0.2695313 -1.6992188,1.1484375 -0.328125,0.7265625 -0.375,1.5585938 -0.375,2.3554688 0,0.7851562 0.035156,1.5117187 0.3398438,2.2382812 0.3984375,0.9609375 1.1484375,1.23046875 1.7226562,1.23046875 0.7265625,0 1.3476563,-0.41015625 1.6640625,-1.1015625 C 7.2196406,-1.524 7.3133906,-2.18025 7.3133906,-3.2466562 Z m -2.0507812,2.85937495 c -0.5273438,0 -0.9375,-0.375 -1.1367188,-1.10156245 -0.1523437,-0.5625 -0.1640625,-1.1015625 -0.1640625,-1.875 0,-0.6328125 0,-1.2304688 0.1640625,-1.78125 0.070312,-0.1875 0.3164063,-0.9960938 1.125,-0.9960938 0.7734375,0 1.03125,0.75 1.1015625,0.9257813 0.1875,0.5625 0.1875,1.2304687 0.1875,1.8515625 0,0.65625 0,1.2773437 -0.1757812,1.9101562 -0.2578125,0.90234375 -0.7851563,1.06640625 -1.1015625,1.06640625 z M 9.5428828,-6.0943125 V -6.914625 H 8.7108516 v 0.8320313 h 0.2578125 l -0.2578125,1.2421875 h 0.4101562 z m 0,0"
       style="fill:#0000ff;fill-opacity:1;fill-rule:nonzero;stroke:none"
       aria-label="‘0’"
       transform="matrix(1.3333333,0,0,1.3333333,299.116,110.032)" />
    <path
       id="path78"
       d="m 218.44653,-19.0317 18.71224,0.0022"
       style="fill:none;stroke:#0000ff;stroke-width:0.3985;stroke-linecap:round;stroke-linejoin:round;stroke-miterlimit:10;stroke-dasharray:none;stroke-opacity:1"
       transform="matrix(1.3333333,0,0,-1.3333333,32.654667,67.416)" />
    <path
       id="path79"
       d="M 1.99252,0 -1.19551,1.59401 0,0 -1.19551,-1.59401"
       style="fill:#0000ff;fill-opacity:1;fill-rule:nonzero;stroke:none"
       transform="matrix(-1.3333067,1.2e-4,1.2e-4,1.3333067,323.91671,92.791573)" />
    <path
       id="path80"
       d="M 1.99252,0 -1.19551,1.59401 0,0 -1.19551,-1.59401"
       style="fill:#0000ff;fill-opacity:1;fill-rule:nonzero;stroke:none"
       transform="matrix(1.3333067,-1.2e-4,-1.2e-4,-1.3333067,348.86636,92.788667)" />
    <path
       id="path81"
       d="M 1.7922188,-6.9145547 H 1.3820625 l -0.421875,1.2539063 v 0.8203125 H 1.7922188 V -5.6723672 H 1.546125 Z m 5.5224609,3.6679688 c 0,-0.7851563 -0.035156,-1.7109375 -0.4570313,-2.5195313 -0.3984375,-0.75 -1.0898437,-0.984375 -1.59375,-0.984375 -0.5976562,0 -1.2890625,0.2695313 -1.6992187,1.1484375 -0.328125,0.7265625 -0.375,1.5585938 -0.375,2.3554688 0,0.7851562 0.035156,1.5117187 0.3398437,2.2382812 0.3984375,0.96093751 1.1484375,1.23046876 1.7226563,1.23046876 0.7265625,0 1.3476562,-0.41015625 1.6640625,-1.1015625 C 7.2209297,-1.5239297 7.3146797,-2.1801797 7.3146797,-3.2465859 Z m -2.0507813,2.85937496 c -0.5273437,0 -0.9375,-0.375 -1.1367187,-1.10156246 -0.1523438,-0.5625 -0.1640625,-1.1015625 -0.1640625,-1.875 0,-0.6328125 0,-1.2304688 0.1640625,-1.78125 0.070312,-0.1875 0.3164062,-0.9960938 1.125,-0.9960938 0.7734375,0 1.03125,0.75 1.1015625,0.9257813 0.1875,0.5625 0.1875,1.2304687 0.1875,1.8515625 0,0.65625 0,1.2773437 -0.1757813,1.9101562 -0.2578125,0.90234376 -0.7851562,1.06640626 -1.1015625,1.06640626 z M 9.5412422,-6.0942422 V -6.9145547 H 8.7092109 v 0.8320313 h 0.2578125 l -0.2578125,1.2421875 h 0.4101563 z m 0,0"
       style="fill:#0000ff;fill-opacity:1;fill-rule:nonzero;stroke:none"
       aria-label="‘0’"
       transform="matrix(1.3333333,0,0,1.3333333,329.376,110.028)" />
    <path
       id="path82"
       d="m 241.14378,-19.02931 18.72741,6.1e-4"
       style="fill:none;stroke:#0000ff;stroke-width:0.3985;stroke-linecap:round;stroke-linejoin:round;stroke-miterlimit:10;stroke-dasharray:none;stroke-opacity:1"
       transform="matrix(1.3333333,0,0,-1.3333333,32.654667,67.416)" />
    <path
       id="path83"
       d="M 1.99252,0 -1.19551,1.59401 0,0 -1.19551,-1.59401"
       style="fill:#0000ff;fill-opacity:1;fill-rule:nonzero;stroke:none"
       transform="matrix(-1.3333333,0,0,1.3333333,354.17971,92.788413)" />
    <path
       id="path84"
       d="M 1.99252,0 -1.19551,1.59401 0,0 -1.19551,-1.59401"
       style="fill:#0000ff;fill-opacity:1;fill-rule:nonzero;stroke:none"
       transform="matrix(1.3333333,0,0,-1.3333333,379.14959,92.7876)" />
    <path
       id="path85"
       d="m 4.6636953,-4.6651406 0.3984375,-1.9804688 h -0.234375 c -0.140625,0.2109375 -0.2226562,0.2578125 -0.4453125,0.2578125 -0.1171875,0 -0.234375,-0.023437 -0.4570312,-0.1054687 -0.2226563,-0.09375 -0.5390625,-0.140625 -0.84375,-0.140625 -1.0429688,0 -1.78125,0.6914062 -1.78125,1.6640625 0,0.5390625 0.1523437,0.8203125 0.75,1.4648437 0.09375,0.082031 0.2226562,0.2226563 0.3867187,0.4101563 0.1875,0.1992187 0.3164063,0.3398437 0.3867188,0.421875 0.46875,0.4921875 0.5976562,0.75 0.5976562,1.171875 0,0.74999998 -0.5507812,1.33593748 -1.2773437,1.33593748 -0.8320313,0 -1.45312504,-0.71484375 -1.45312504,-1.66406248 0,-0.070312 0.0117188,-0.1523438 0.0117188,-0.2226563 l -0.1992188,-0.023437 -0.33984375,2.22656253 h 0.1875 c 0.0703125,-0.234375 0.17578125,-0.328125 0.375,-0.328125 0.10546875,0 0.2578125,0.0351563 0.51562499,0.12890625 0.4570313,0.1640625 0.7265625,0.22265625 1.0429688,0.22265625 1.1367187,0 2.0039062,-0.8671875 2.0039062,-1.99218753 0,-0.6445312 -0.2226562,-1.03125 -1.125,-1.9335937 -0.890625,-0.9140625 -0.984375,-1.0546875 -0.984375,-1.5351563 0,-0.6328125 0.421875,-1.0195312 1.1015625,-1.0195312 0.3632813,0 0.6679688,0.1289062 0.8789063,0.3632812 0.2226562,0.2578125 0.3046875,0.5976563 0.328125,1.2539063 z m 3.1025391,0.3984375 h -0.796875 l 0.2695312,-1.0195313 c 0.011719,-0.023437 0.011719,-0.046875 0.011719,-0.058594 0,-0.070312 -0.023437,-0.09375 -0.082031,-0.09375 -0.058594,0 -0.082031,0.011719 -0.140625,0.09375 -0.3867187,0.5039062 -1.0078125,0.9960937 -1.3242187,1.0898437 -0.2578125,0.082031 -0.328125,0.140625 -0.328125,0.2460938 0,0.011719 0,0.035156 0.011719,0.058594 h 0.7382813 l -0.7148438,2.7421875 c -0.023437,0.09375 -0.035156,0.1171875 -0.058594,0.21093753 -0.09375,0.29296875 -0.1757813,0.64453125 -0.1757813,0.7265625 0,0.22265625 0.2109375,0.375 0.4804688,0.375 0.4570312,0 0.7851562,-0.26953125 1.4179687,-1.20703123 l -0.1289062,-0.058594 c -0.4921875,0.62109378 -0.6445313,0.78515628 -0.8085938,0.78515628 -0.09375,0 -0.1523437,-0.0820313 -0.1523437,-0.19921875 0,-0.0117188 0,-0.0234375 0.011719,-0.0585938 L 6.8756094,-3.9502969 h 0.8320312 z m 5.1093746,3.1640625 c -0.140625,0.15234373 -0.199218,0.19921873 -0.269531,0.28124998 -0.304687,0.31640625 -0.433594,0.41015625 -0.527344,0.41015625 -0.07031,0 -0.128906,-0.0585938 -0.128906,-0.12890625 0,-0.19921875 0.410156,-1.89843748 0.878906,-3.60937498 0.03516,-0.1054688 0.04687,-0.1289063 0.05859,-0.2109375 l -0.07031,-0.035156 -0.609375,0.070312 -0.02344,0.035156 -0.105469,0.46875 c -0.08203,-0.3632813 -0.375,-0.5742188 -0.796875,-0.5742188 -1.3242184,0 -2.8593746,1.828125 -2.8593746,3.39843753 0,0.69140625 0.3867187,1.1015625 1.0195312,1.1015625 0.7031254,0 1.1250004,-0.328125 2.0039064,-1.55859373 -0.199219,0.77343748 -0.234375,0.90234373 -0.234375,1.14843748 0,0.28125 0.128906,0.41015625 0.398437,0.41015625 0.398438,0 0.65625,-0.19921875 1.394532,-1.1015625 z m -1.535156,-3.0703125 c 0.339844,0.023437 0.550781,0.2578125 0.550781,0.609375 0,0.8320312 -0.492187,2.0039062 -1.183593,2.74218748 -0.234375,0.26953125 -0.574219,0.4453125 -0.8671879,0.4453125 -0.3515625,0 -0.5742187,-0.29296875 -0.5742187,-0.74999998 0,-0.5390625 0.375,-1.5703125 0.8085936,-2.1796875 0.398438,-0.5859375 0.867188,-0.9023438 1.265625,-0.8671875 z m 3.105469,4.17187498 c 0.515625,-1.69921878 0.691406,-2.12109378 1.148437,-2.88281248 0.328125,-0.5507813 0.597657,-0.8671875 0.773438,-0.8671875 0.05859,0 0.105469,0.046875 0.164062,0.140625 0.07031,0.1757812 0.152344,0.2226562 0.351563,0.2226562 0.292969,0 0.457031,-0.1757812 0.457031,-0.4921875 0,-0.3046875 -0.1875,-0.515625 -0.46875,-0.515625 -0.222656,0 -0.492187,0.1523438 -0.75,0.421875 -0.410156,0.421875 -0.808594,1.0078125 -0.972656,1.40625 l -0.140625,0.3515625 0.527344,-2.15625 -0.02344,-0.023437 c -0.726562,0.1289063 -0.820312,0.1523438 -1.546875,0.2695313 v 0.1757812 c 0.234375,-0.058594 0.269531,-0.058594 0.339844,-0.058594 0.222656,0 0.351562,0.1054687 0.351562,0.28125 0,0.140625 0,0.140625 -0.164062,0.8203125 l -0.808594,2.90624998 z m 5.601562,-4.26562498 h -0.796875 l 0.269532,-1.0195313 c 0.01172,-0.023437 0.01172,-0.046875 0.01172,-0.058594 0,-0.070312 -0.02344,-0.09375 -0.08203,-0.09375 -0.05859,0 -0.08203,0.011719 -0.140625,0.09375 -0.386719,0.5039062 -1.007812,0.9960937 -1.324219,1.0898437 -0.257812,0.082031 -0.328125,0.140625 -0.328125,0.2460938 0,0.011719 0,0.035156 0.01172,0.058594 h 0.738281 l -0.714843,2.7421875 c -0.02344,0.09375 -0.03516,0.1171875 -0.05859,0.21093753 -0.09375,0.29296875 -0.175781,0.64453125 -0.175781,0.7265625 0,0.22265625 0.210937,0.375 0.480468,0.375 0.457032,0 0.785157,-0.26953125 1.417969,-1.20703123 l -0.128906,-0.058594 c -0.492188,0.62109378 -0.644531,0.78515628 -0.808594,0.78515628 -0.09375,0 -0.152344,-0.0820313 -0.152344,-0.19921875 0,-0.0117188 0,-0.0234375 0.01172,-0.0585938 L 19.156868,-3.9502971 H 19.9889 Z m 0,0"
       style="fill:#0000ff;fill-opacity:1;fill-rule:nonzero;stroke:none"
       aria-label="Start"
       transform="matrix(1.3333333,0,0,1.3333333,352.96533,109.728)" />
    <path
       id="path86"
       d="m 263.85623,-19.0287 18.73096,6e-4"
       style="fill:none;stroke:#0000ff;stroke-width:0.3985;stroke-linecap:round;stroke-linejoin:round;stroke-miterlimit:10;stroke-dasharray:none;stroke-opacity:1"
       transform="matrix(1.3333333,0,0,-1.3333333,32.654667,67.416)" />
    <path
       id="path87"
       d="M 1.99252,0 -1.19551,1.59401 0,0 -1.19551,-1.59401"
       style="fill:#0000ff;fill-opacity:1;fill-rule:nonzero;stroke:none"
       transform="matrix(-1.3333333,0,0,1.3333333,384.46297,92.7876)" />
    <path
       id="path88"
       d="M 1.99252,0 -1.19551,1.59401 0,0 -1.19551,-1.59401"
       style="fill:#0000ff;fill-opacity:1;fill-rule:nonzero;stroke:none"
       transform="matrix(1.3333333,0,0,-1.3333333,409.43759,92.7868)" />
    <path
       id="path89"
       d="m 0.9029375,-6.3394375 c 0.5625,0.070312 0.5976563,0.1054687 0.7617188,0.65625 l 0.7617187,2.671875 -0.5976562,2.109375 C 1.6529375,-0.362875 1.4302813,-0.1988125 0.77403125,-0.16365625 V 4.0625e-4 H 3.6568438 v -0.1640625 c -0.1640625,0 -0.3046875,-0.0117188 -0.3632813,-0.0234375 -0.3867187,-0.0234375 -0.5273437,-0.1171875 -0.5273437,-0.375 0,-0.19921875 0.070312,-0.50390625 0.3164062,-1.27734375 C 3.106062,-1.9331875 3.1295,-2.0035 3.141219,-2.0386563 l 0.28125,-1.0078125 2.1914062,-2.6953125 c 0.3164063,-0.3984375 0.3984375,-0.46875 0.6914063,-0.5976562 V -6.5035 h -1.886719 v 0.1640625 c 0.1289063,0 0.234375,0.011719 0.2695313,0.023437 0.2929687,0.035156 0.421875,0.1054687 0.421875,0.28125 0,0.2695312 -0.4570313,0.9140625 -1.4882813,2.1210937 -0.1757812,0.1992188 -0.234375,0.28125 -0.3867187,0.4570313 C 3.1177813,-3.8902188 3.0943438,-4.019125 2.9302813,-4.5464688 2.6841875,-5.4136563 2.567,-5.8355313 2.567,-5.987875 c 0,-0.234375 0.1289063,-0.2929688 0.7265625,-0.3515625 V -6.5035 h -2.390625 z m 0,0"
       style="fill:#0000ff;fill-opacity:1;fill-rule:nonzero;stroke:none"
       aria-label="Y"
       transform="matrix(1.3333333,0,0,1.3333333,392.07733,109.42133)" />
    <path
       id="path90"
       d="m 309.27693,-19.02686 18.73817,6.1e-4"
       style="fill:none;stroke:#0000ff;stroke-width:0.3985;stroke-linecap:round;stroke-linejoin:round;stroke-miterlimit:10;stroke-dasharray:none;stroke-opacity:1"
       transform="matrix(1.3333333,0,0,-1.3333333,32.654667,67.416)" />
    <path
       id="path91"
       d="M 1.99252,0 -1.19551,1.59401 0,0 -1.19551,-1.59401"
       style="fill:#0000ff;fill-opacity:1;fill-rule:nonzero;stroke:none"
       transform="matrix(-1.3333333,0,0,1.3333333,445.02391,92.785147)" />
    <path
       id="path92"
       d="M 1.99252,0 -1.19551,1.59401 0,0 -1.19551,-1.59401"
       style="fill:#0000ff;fill-opacity:1;fill-rule:nonzero;stroke:none"
       transform="matrix(1.3333333,0,0,-1.3333333,470.00813,92.784333)" />
    <g
       id="g92"
       aria-label="RT[0]"
       transform="matrix(1.3333333,0,0,1.3333333,441.916,110.76133)">
      <path
         id="path93"
         d="M 5.6469844,-0.16377344 C 5.2133906,-0.18721094 5.0141719,-0.36299219 4.8149531,-0.87861719 L 3.8891719,-3.3161172 c 0.7734375,-0.1757812 1.1015625,-0.3046875 1.453125,-0.6328125 0.3398437,-0.28125 0.515625,-0.6679687 0.515625,-1.125 0,-0.9257812 -0.7382813,-1.4296875 -2.0742188,-1.4296875 H 1.3110469 v 0.1640625 c 0.421875,0.058594 0.46875,0.058594 0.5742187,0.1289063 0.070312,0.058594 0.140625,0.1757812 0.140625,0.28125 0,0.1171875 -0.058594,0.3632812 -0.1289062,0.6328125 l -1.21875002,4.39453121 c -0.17578125,0.59765625 -0.24609375,0.65625 -0.80859375,0.73828125 V 2.890625e-4 H 2.2954219 V -0.16377344 c -0.5976563,-0.0703125 -0.6679688,-0.12890625 -0.6679688,-0.45703125 0,-0.09375 0.023437,-0.22265625 0.1171875,-0.57421871 l 0.5507813,-2.0859375 0.65625,0.058594 1.21875,3.2226562625 H 5.6469844 Z M 3.0688594,-5.9293984 c 0.058594,-0.2109375 0.1875,-0.28125 0.5039062,-0.28125 0.8320313,0 1.2421875,0.3867187 1.2421875,1.125 0,0.984375 -0.6445312,1.4882812 -1.8867187,1.4882812 -0.1640625,0 -0.2695313,-0.011719 -0.5039063,-0.046875 z M 12.391125,-6.5036172 H 7.09425 l -0.421875,1.5351563 0.1757813,0.035156 c 0.5390625,-1.078125 0.8554687,-1.2421875 2.3789062,-1.21875 l -1.4414062,5.25000001 c -0.1523438,0.5390625 -0.3984375,0.69140625 -1.0546875,0.73828125 V 2.890625e-4 H 9.6255 V -0.16377344 c -0.1757812,0 -0.3164062,-0.0234375 -0.3867187,-0.0234375 -0.3984375,-0.0351563 -0.515625,-0.1171875 -0.515625,-0.421875 0,-0.12890625 0.035156,-0.24609375 0.1171875,-0.58593746 l 1.3945312,-4.9570313 h 0.539063 c 0.726562,0 1.042968,0.2460938 1.042968,0.8085938 0,0.1289062 -0.01172,0.2695312 -0.03516,0.4453125 l 0.175781,0.011719 z m 0,0"
         style="fill:#0000ff;fill-opacity:1;fill-rule:nonzero;stroke:none" />
      <path
         id="path94"
         d="M 15.43507,2.4963828 V 2.0979453 h -0.972656 v -9.1757812 h 0.972656 v -0.3984375 h -1.371093 v 9.9726562 z m 0,0"
         style="fill:#0000ff;fill-opacity:1;fill-rule:nonzero;stroke:none" />
      <path
         id="path95"
         d="m 18.183117,-6.7379922 c -0.550781,0 -0.972656,0.1757813 -1.335937,0.5273438 -0.574219,0.5507812 -0.960938,1.6992187 -0.960938,2.859375 0,1.0898437 0.328125,2.25 0.796875,2.81249996 0.375,0.43359375 0.878906,0.6796875 1.464844,0.6796875 0.503906,0 0.925781,-0.17578125 1.289062,-0.515625 0.574219,-0.55078125 0.960938,-1.71093746 0.960938,-2.91796876 0,-2.0390625 -0.914063,-3.4453125 -2.214844,-3.4453125 z m -0.03516,0.2578125 c 0.84375,0 1.289062,1.1367188 1.289062,3.2109375 0,2.0859375 -0.433593,3.15234376 -1.289062,3.15234376 -0.867188,0 -1.300781,-1.06640626 -1.300781,-3.14062496 0,-2.109375 0.445312,-3.2226563 1.300781,-3.2226563 z m 0,0"
         style="fill:#0000ff;fill-opacity:1;fill-rule:nonzero;stroke:none" />
      <path
         id="path96"
         d="m 22.214367,-7.4762734 h -1.359375 v 0.3984375 h 0.960938 v 9.1757812 h -0.960938 v 0.3984375 h 1.359375 z m 0,0"
         style="fill:#0000ff;fill-opacity:1;fill-rule:nonzero;stroke:none" />
    </g>
    <path
       id="path97"
       d="m 332.00012,-19.0272 17.83852,-0.009"
       style="fill:none;stroke:#0000ff;stroke-width:0.3985;stroke-linecap:round;stroke-linejoin:round;stroke-miterlimit:10;stroke-dasharray:none;stroke-opacity:1"
       transform="matrix(1.3333333,0,0,-1.3333333,32.654667,67.416)" />
    <path
       id="path98"
       d="M 1.99252,0 -1.19551,1.59401 0,0 -1.19551,-1.59401"
       style="fill:#0000ff;fill-opacity:1;fill-rule:nonzero;stroke:none"
       transform="matrix(-1.3333067,-6.5333333e-4,-6.5333333e-4,1.3333067,475.32149,92.785627)" />
    <path
       id="path99"
       d="M 1.99252,0 -1.19551,1.59401 0,0 -1.19551,-1.59401"
       style="fill:#0000ff;fill-opacity:1;fill-rule:nonzero;stroke:none"
       transform="matrix(1.3333067,6.5333333e-4,6.5333333e-4,-1.3333067,499.10619,92.797613)" />
    <path
       id="path100"
       d="M 0.36295312,-1.4533359 0.16373437,0.12869531 h 0.15234375 c 0.0820313,-0.1640625 0.140625,-0.2109375 0.24609375,-0.2109375 0.10546875,0 0.28125,0.046875 0.48046873,0.09375 0.2226563,0.0703125 0.3867188,0.09375 0.5507813,0.09375 0.8320312,0 1.4296875,-0.5390625 1.4296875,-1.28906251 0,-0.375 -0.1992188,-0.8203125 -0.6679688,-1.3945312 -0.3867187,-0.46875 -0.5390625,-0.7734375 -0.5390625,-1.0429688 0,-0.328125 0.2109375,-0.5390625 0.5507813,-0.5390625 0.5273437,0 0.8203125,0.3632813 0.9257812,1.1367188 h 0.1523438 l 0.1992187,-1.3828125 h -0.140625 c -0.082031,0.140625 -0.1523437,0.1875 -0.2929687,0.1875 -0.070312,0 -0.1757813,-0.023437 -0.3632813,-0.070312 -0.2460937,-0.082031 -0.3984375,-0.1054688 -0.5507812,-0.1054688 -0.7382813,0 -1.2070313,0.4335938 -1.2070313,1.1015625 0,0.3164063 0.2109375,0.7382813 0.6210938,1.2773438 0.3867187,0.515625 0.5625,0.8554687 0.5625,1.14843746 0,0.4453125 -0.3046875,0.76171875 -0.7382813,0.76171875 -0.55078123,0 -0.85546873,-0.3984375 -1.01953123,-1.34765621 z M 6.57975,-4.2658359 H 5.782875 l 0.2695312,-1.0195313 c 0.011719,-0.023437 0.011719,-0.046875 0.011719,-0.058594 0,-0.070312 -0.023437,-0.09375 -0.082031,-0.09375 -0.058594,0 -0.082031,0.011719 -0.140625,0.09375 -0.3867187,0.5039062 -1.0078125,0.9960937 -1.3242187,1.0898437 -0.2578125,0.082031 -0.328125,0.140625 -0.328125,0.2460938 0,0.011719 0,0.035156 0.011719,0.058594 H 4.939125 l -0.7148438,2.7421875 c -0.023437,0.09375 -0.035156,0.1171875 -0.058594,0.21093751 -0.09375,0.29296875 -0.1757813,0.64453125 -0.1757813,0.7265625 0,0.22265625 0.2109375,0.375 0.4804688,0.375 0.4570312,0 0.7851562,-0.26953125 1.4179687,-1.20703121 l -0.1289062,-0.058594 c -0.4921875,0.62109376 -0.6445313,0.78515626 -0.8085938,0.78515626 -0.09375,0 -0.1523437,-0.0820313 -0.1523437,-0.19921875 0,-0.0117188 0,-0.0234375 0.011719,-0.0585938 L 5.689125,-3.9494297 h 0.8320312 z m 3.729492,-0.1289063 c -1.4882811,0 -2.9648436,1.546875 -2.9648436,3.1054688 0,0.85546871 0.5625,1.39453121 1.4648438,1.39453121 0.65625,0 1.2890628,-0.29296875 1.8749998,-0.8671875 0.65625,-0.64453121 1.054688,-1.48828121 1.054688,-2.23828121 0,-0.8203125 -0.574219,-1.3945313 -1.429688,-1.3945313 z m -0.117187,0.2109375 c 0.433593,0 0.703125,0.3632813 0.703125,0.9375 0,0.7265625 -0.328125,1.7226563 -0.761719,2.36718751 -0.3632813,0.52734375 -0.7500001,0.7734375 -1.1718751,0.7734375 -0.46875,0 -0.7851562,-0.3515625 -0.7851562,-0.90234371 0,-0.7382813 0.2929687,-1.6171875 0.7851562,-2.3203125 0.3867188,-0.5625 0.8085938,-0.8554688 1.2304691,-0.8554688 z m 3.172851,0.1640625 h 0.222656 c 0,0 0.02344,0 0.03516,-0.011719 0.128906,-0.058594 0.386718,0.1289062 0.386718,0.28125 0,0.082031 -0.363281,1.5 -0.703125,2.81249996 C 13.036781,0.05838281 12.790687,1.0076016 12.720375,1.3005703 12.614906,1.7576016 12.486,1.8747891 12.052406,1.8865078 v 0.1523438 h 2.050781 v -0.140625 c -0.46875,0 -0.644531,-0.09375 -0.644531,-0.3046875 0,-0.140625 0.175781,-0.91406254 0.375,-1.65234379 0.246094,0.12890625 0.421875,0.1640625 0.65625,0.1640625 1.453125,0 2.988281,-1.66406251 2.988281,-3.25781251 0,-0.7734375 -0.445312,-1.2421875 -1.148437,-1.2421875 -0.644531,0 -1.125,0.3164063 -1.699219,1.125 l 0.28125,-0.9960937 0.03516,-0.082031 c 0,0 -0.01172,-0.011719 -0.02344,-0.035156 l -0.02344,-0.011719 c 0,-0.011719 0,-0.011719 0,-0.011719 l -0.02344,0.011719 -1.535156,0.2226563 z m 2.589844,0.058594 c 0.433594,0.011719 0.621094,0.2695312 0.621094,0.8554687 0,0.65625 -0.28125,1.5117188 -0.714844,2.13281251 -0.421875,0.5859375 -0.902344,0.890625 -1.417969,0.890625 -0.28125,0 -0.480469,-0.15234375 -0.480469,-0.36328125 0,-0.33984375 0.363282,-1.65234376 0.65625,-2.37890626 0.269532,-0.6796875 0.84375,-1.171875 1.335938,-1.1367187 z m 0,0"
       style="fill:#0000ff;fill-opacity:1;fill-rule:nonzero;stroke:none"
       aria-label="stop"
       transform="matrix(1.3333333,0,0,1.3333333,475.352,108.012)" />
  </g>
</svg>
