<?xml version="1.0" encoding="UTF-8" standalone="no"?>
<!-- Created with Inkscape (http://www.inkscape.org/) -->

<svg
   version="1.1"
   id="svg1"
   width="165.17732"
   height="237.12"
   viewBox="0 0 165.17732 237.12"
   sodipodi:docname="main.pdf"
   xmlns:inkscape="http://www.inkscape.org/namespaces/inkscape"
   xmlns:sodipodi="http://sodipodi.sourceforge.net/DTD/sodipodi-0.dtd"
   xmlns="http://www.w3.org/2000/svg"
   xmlns:svg="http://www.w3.org/2000/svg">
  <defs
     id="defs1" />
  <sodipodi:namedview
     id="namedview1"
     pagecolor="#ffffff"
     bordercolor="#000000"
     borderopacity="0.25"
     inkscape:showpageshadow="2"
     inkscape:pageopacity="0.0"
     inkscape:pagecheckerboard="0"
     inkscape:deskcolor="#d1d1d1">
    <inkscape:page
       x="0"
       y="0"
       inkscape:label="1"
       id="page1"
       width="165.17732"
       height="237.12"
       margin="0"
       bleed="0" />
  </sodipodi:namedview>
  <g
     id="g1"
     inkscape:groupmode="layer"
     inkscape:label="1">
    <path
       id="path1"
       d="M 0,0 H 123.883 V 177.84 H 0 Z"
       style="fill:#ffffff;fill-opacity:1;fill-rule:nonzero;stroke:none"
       transform="matrix(1.3333333,0,0,-1.3333333,0,237.12)" />
    <path
       id="path2"
       d="M -55.17636,-163.84334 V 12.99878 H 67.7078 v -176.84212 z"
       style="fill:#ffffff;fill-opacity:1;fill-rule:nonzero;stroke:none"
       transform="matrix(1.3333333,0,0,-1.3333333,74.234667,17.998667)" />
    <path
       id="path3"
       d="M 2.49481,0 C 2.49481,1.37785 1.37785,2.49481 0,2.49481 -1.37785,2.49481 -2.49481,1.37785 -2.49481,0 c 0,-1.37785 1.11696,-2.49481 2.49481,-2.49481 1.37785,0 2.49481,1.11696 2.49481,2.49481 z"
       style="fill:#bfbfbf;fill-opacity:1;fill-rule:nonzero;stroke:none"
       transform="matrix(1.3333333,0,0,-1.3333333,74.234667,17.998667)" />
    <path
       id="path4"
       d="M 1.5951719,-3.3761641 H 1.4897031 c -0.328125,0.3046875 -0.72656248,0.3164063 -1.03124998,0.328125 v 0.3164063 c 0.19921875,0 0.4453125,-0.011719 0.69140628,-0.1171875 v 2.53124999 H 0.49360937 v 0.31640625 H 2.2631406 V -0.31757031 H 1.5951719 Z m 0,0"
       style="fill:#000000;fill-opacity:1;fill-rule:nonzero;stroke:none"
       aria-label="1"
       transform="matrix(1.3333333,0,0,1.3333333,53.974667,20.177333)" />
    <path
       id="path5"
       d="m 10.434,0 c 0,1.37785 -1.11695,2.49481 -2.49482,2.49481 C 6.56133,2.49481 5.44435,1.37785 5.44435,0 c 0,-1.37785 1.11698,-2.49481 2.49483,-2.49481 1.37787,0 2.49482,1.11696 2.49482,2.49481 z"
       style="fill:#bfbfbf;fill-opacity:1;fill-rule:nonzero;stroke:none"
       transform="matrix(1.3333333,0,0,-1.3333333,74.234667,17.998667)" />
    <path
       id="path6"
       d="m 1.4053359,-0.38788281 c -0.058594,0 -0.1171875,0.0117188 -0.1757812,0.0117188 H 0.66705469 L 1.4287734,-1.0675703 c 0.09375,-0.070312 0.3398438,-0.2578125 0.4335938,-0.3398438 0.2226562,-0.1992187 0.515625,-0.4570312 0.515625,-0.890625 0,-0.5625 -0.421875,-1.078125 -1.1367188,-1.078125 -0.52734371,0 -0.85546871,0.28125 -1.01953121,0.796875 l 0.234375,0.2929688 c 0.10546875,-0.421875 0.28125,-0.7382813 0.71484371,-0.7382813 0.421875,0 0.7382813,0.2929688 0.7382813,0.7382813 0,0.4101562 -0.2460938,0.6445312 -0.5390625,0.9257812 -0.1054688,0.1054688 -0.37500001,0.328125 -0.46875001,0.43359379 -0.15234375,0.12890625 -0.4921875,0.45703125 -0.6328125,0.5859375 v 0.33984375 H 2.3779922 v -0.38671875 z m 0,0"
       style="fill:#000000;fill-opacity:1;fill-rule:nonzero;stroke:none"
       aria-label="2"
       transform="matrix(1.3333333,0,0,1.3333333,101.552,20.177333)" />
    <path
       id="path7"
       d="m 2.49481,-7.93918 c 0,1.37785 -1.11696,2.49483 -2.49481,2.49483 -1.37785,0 -2.49481,-1.11698 -2.49481,-2.49483 0,-1.37787 1.11696,-2.49482 2.49481,-2.49482 1.37785,0 2.49481,1.11695 2.49481,2.49482 z"
       style="fill:#bfbfbf;fill-opacity:1;fill-rule:nonzero;stroke:none"
       transform="matrix(1.3333333,0,0,-1.3333333,74.234667,17.998667)" />
    <path
       id="path8"
       d="m 0.50532812,-2.5553984 c 0.19921875,-0.3984375 0.56249998,-0.5039063 0.79687498,-0.5039063 0.2929688,0 0.515625,0.1640625 0.515625,0.4453125 0,0.2695313 -0.1875,0.5859375 -0.5625,0.65625 -0.023437,0 -0.046875,0 -0.37499998,0.035156 v 0.328125 H 1.2670469 c 0.4804687,0 0.65625,0.3632812 0.65625,0.67968746 0,0.38671875 -0.2460938,0.69140625 -0.6328125,0.69140625 -0.35156253,0 -0.76171878,-0.17578125 -1.00781253,-0.4921875 l -0.0585938,0.328125 c 0.28125,0.31640625 0.69140625,0.4921875 1.07812493,0.4921875 0.65625,0 1.1250001,-0.4921875 1.1250001,-1.0078125 0,-0.41015621 -0.328125,-0.73828121 -0.7265625,-0.85546871 0.375,-0.1992188 0.5742188,-0.5273438 0.5742188,-0.8554688 0,-0.421875 -0.4335938,-0.7617187 -0.9726563,-0.7617187 -0.43359378,0 -0.79687503,0.234375 -1.00781253,0.5273437 z m 0,0"
       style="fill:#000000;fill-opacity:1;fill-rule:nonzero;stroke:none"
       aria-label="3"
       transform="matrix(1.3333333,0,0,1.3333333,53.974667,30.762667)" />
    <path
       id="path9"
       d="m 10.434,-7.93918 c 0,1.37785 -1.11695,2.49483 -2.49482,2.49483 -1.37785,0 -2.49483,-1.11698 -2.49483,-2.49483 0,-1.37787 1.11698,-2.49482 2.49483,-2.49482 1.37787,0 2.49482,1.11695 2.49482,2.49482 z"
       style="fill:#bfbfbf;fill-opacity:1;fill-rule:nonzero;stroke:none"
       transform="matrix(1.3333333,0,0,-1.3333333,74.234667,17.998667)" />
    <path
       id="path10"
       d="M 1.9678359,-0.83274219 H 2.4951797 V -1.1608672 H 1.9678359 v -2.109375 H 1.4756484 l -1.32421871,2.109375 v 0.32812501 H 1.5459609 v 0.8320312525 h 0.421875 z M 0.57330469,-1.1608672 C 0.72564844,-1.3952422 1.5811172,-2.7194609 1.5811172,-3.0241484 v 1.8632812 z m 0,0"
       style="fill:#000000;fill-opacity:1;fill-rule:nonzero;stroke:none"
       aria-label="4"
       transform="matrix(1.3333333,0,0,1.3333333,101.552,30.762667)" />
    <path
       id="path11"
       d="m 2.49481,-15.87837 c 0,1.37787 -1.11696,2.49483 -2.49481,2.49483 -1.37785,0 -2.49481,-1.11696 -2.49481,-2.49483 0,-1.37786 1.11696,-2.49483 2.49481,-2.49483 1.37785,0 2.49481,1.11697 2.49481,2.49483 z"
       style="fill:#bfbfbf;fill-opacity:1;fill-rule:nonzero;stroke:none"
       transform="matrix(1.3333333,0,0,-1.3333333,74.234667,17.998667)" />
    <path
       id="path12"
       d="M 0.82173437,-2.9182266 H 2.1928281 V -3.2697891 H 0.42329687 v 1.8632813 h 0.36328125 c 0.1171875,-0.2695313 0.35156248,-0.3867188 0.57421878,-0.3867188 0.1992187,0 0.515625,0.140625 0.515625,0.7734375 0,0.65625004 -0.4101563,0.79687504 -0.6679688,0.79687504 -0.32812498,0 -0.64453123,-0.17578125 -0.82031248,-0.45703125 l -0.1875,0.29296875 c 0.24609375,0.3046875 0.609375,0.4921875 1.00781248,0.4921875 0.65625,0 1.171875,-0.50390625 1.171875,-1.11328124 0,-0.6210938 -0.4570312,-1.1132813 -1.0078125,-1.1132813 -0.2109375,0 -0.41015623,0.070312 -0.55078123,0.1992188 z m 0,0"
       style="fill:#000000;fill-opacity:1;fill-rule:nonzero;stroke:none"
       aria-label="5"
       transform="matrix(1.3333333,0,0,1.3333333,53.974667,41.348)" />
    <path
       id="path13"
       d="m 10.434,-15.87837 c 0,1.37787 -1.11695,2.49483 -2.49482,2.49483 -1.37785,0 -2.49483,-1.11696 -2.49483,-2.49483 0,-1.37786 1.11698,-2.49483 2.49483,-2.49483 1.37787,0 2.49482,1.11697 2.49482,2.49483 z"
       style="fill:#bfbfbf;fill-opacity:1;fill-rule:nonzero;stroke:none"
       transform="matrix(1.3333333,0,0,-1.3333333,74.234667,17.998667)" />
    <path
       id="path14"
       d="m 2.1904922,-3.2697891 c -0.2695313,-0.1054687 -0.46875,-0.1054687 -0.5625,-0.1054687 -0.75000001,0 -1.40625001,0.7148437 -1.40625001,1.7695312 0,1.34765629 0.609375,1.71093754 1.10156251,1.71093754 0.4101562,0 0.6210937,-0.1875 0.7734375,-0.3515625 0.3164062,-0.33984375 0.328125,-0.69140625 0.328125,-0.86718754 0,-0.6445312 -0.3632813,-1.1953125 -0.84375,-1.1953125 -0.4804688,0 -0.75000001,0.2578125 -0.89062501,0.3984375 0.0585938,-0.6796875 0.41015621,-1.1484375 0.94921871,-1.1484375 0.09375,0 0.2929688,0 0.5507813,0.1054688 z m -1.50000001,2.1679688 c 0,-0.023437 0,-0.09375 0.0117188,-0.1289063 0,-0.328125 0.2109375,-0.75 0.65624991,-0.75 0.5976564,0 0.5976564,0.703125 0.5976564,0.8671875 0,0.18750004 0,0.39843754 -0.1289063,0.60937504 -0.1171875,0.17578125 -0.2695312,0.28125 -0.5039062,0.28125 -0.52734381,0 -0.60937506,-0.65625 -0.63281261,-0.87890624 z m 0,0"
       style="fill:#000000;fill-opacity:1;fill-rule:nonzero;stroke:none"
       aria-label="6"
       transform="matrix(1.3333333,0,0,1.3333333,101.552,41.348)" />
    <path
       id="path15"
       d="m 2.49481,-23.81755 c 0,1.37785 -1.11696,2.49483 -2.49481,2.49483 -1.37785,0 -2.49481,-1.11698 -2.49481,-2.49483 0,-1.37787 1.11696,-2.49483 2.49481,-2.49483 1.37785,0 2.49481,1.11696 2.49481,2.49483 z"
       style="fill:#bfbfbf;fill-opacity:1;fill-rule:nonzero;stroke:none"
       transform="matrix(1.3333333,0,0,-1.3333333,74.234667,17.998667)" />
    <path
       id="path16"
       d="m 1.2318906,-2.8836172 c 0.058594,0 0.1171875,-0.011719 0.1757813,-0.011719 h 0.6328125 c -0.7617188,0.75 -1.24218753,1.7929687 -1.24218753,2.94140621 H 1.2670469 c 0,-1.45312501 0.703125,-2.49609371 1.1601562,-2.96484371 V -3.2703359 H 0.22407812 v 0.3867187 z m 0,0"
       style="fill:#000000;fill-opacity:1;fill-rule:nonzero;stroke:none"
       aria-label="7"
       transform="matrix(1.3333333,0,0,1.3333333,53.974667,51.934667)" />
    <path
       id="path17"
       d="m 10.434,-23.81755 c 0,1.37785 -1.11695,2.49483 -2.49482,2.49483 -1.37785,0 -2.49483,-1.11698 -2.49483,-2.49483 0,-1.37787 1.11698,-2.49483 2.49483,-2.49483 1.37787,0 2.49482,1.11696 2.49482,2.49483 z"
       style="fill:#bfbfbf;fill-opacity:1;fill-rule:nonzero;stroke:none"
       transform="matrix(1.3333333,0,0,-1.3333333,74.234667,17.998667)" />
    <path
       id="path18"
       d="m 1.6983047,-1.7586172 c 0.328125,-0.1054687 0.6445312,-0.375 0.6445312,-0.7382812 0,-0.4570313 -0.4335937,-0.8789063 -1.0195312,-0.8789063 -0.59765626,0 -1.03125001,0.421875 -1.03125001,0.8789063 0,0.375 0.328125,0.6328125 0.64453125,0.7382812 -0.43359375,0.1289063 -0.71484375,0.46875 -0.71484375,0.85546876 0,0.52734375 0.46875,1.0078125 1.10156251,1.0078125 0.6210937,0 1.1015625,-0.48046875 1.1015625,-1.0078125 0,-0.38671876 -0.2929688,-0.72656246 -0.7265625,-0.85546876 z m -0.375,-0.1640625 c -0.36328126,0 -0.64453126,-0.2109375 -0.64453126,-0.5742187 0,-0.3164063 0.22265625,-0.5625 0.64453126,-0.5625 0.4101562,0 0.6328125,0.2460937 0.6328125,0.5625 0,0.3515625 -0.2695313,0.5742187 -0.6328125,0.5742187 z m 0,1.69921876 c -0.35156251,0 -0.65625001,-0.22265625 -0.65625001,-0.69140625 0,-0.44531251 0.29296875,-0.67968751 0.65625001,-0.67968751 0.3515625,0 0.6445312,0.234375 0.6445312,0.67968751 0,0.46875 -0.3046875,0.69140625 -0.6445312,0.69140625 z m 0,0"
       style="fill:#000000;fill-opacity:1;fill-rule:nonzero;stroke:none"
       aria-label="8"
       transform="matrix(1.3333333,0,0,1.3333333,101.552,51.934667)" />
    <path
       id="path19"
       d="m 2.49481,-31.75674 c 0,1.37786 -1.11696,2.49482 -2.49481,2.49482 -1.37785,0 -2.49481,-1.11696 -2.49481,-2.49482 0,-1.37786 1.11696,-2.49483 2.49481,-2.49483 1.37785,0 2.49481,1.11697 2.49481,2.49483 z"
       style="fill:#bfbfbf;fill-opacity:1;fill-rule:nonzero;stroke:none"
       transform="matrix(1.3333333,0,0,-1.3333333,74.234667,17.998667)" />
    <path
       id="path20"
       d="m 0.38814062,-0.12925781 c 0.24609375,0.1875 0.46875,0.234375 0.70312498,0.234375 0.6914063,0 1.3359375,-0.703125 1.3359375,-1.76953129 0,-1.359375 -0.609375,-1.7109375 -1.0898437,-1.7109375 -0.43359378,0 -0.64453128,0.2109375 -0.78515628,0.3515625 -0.31640625,0.328125 -0.328125,0.6679688 -0.328125,0.8671875 0,0.6445313 0.33984375,1.19531254 0.83203128,1.19531254 0.5625,0 0.8671875,-0.37500004 0.9023437,-0.39843754 -0.070312,0.78515629 -0.4570312,1.13671879 -0.8671875,1.13671879 -0.25781248,0 -0.42187498,-0.09375 -0.53906248,-0.1875 z M 1.9350156,-2.1566016 c 0.011719,0.023437 0.011719,0.070312 0.011719,0.1054688 0,0.3632812 -0.2226563,0.7617187 -0.65625,0.7617187 -0.1875,0 -0.33984378,-0.058594 -0.46875003,-0.2578125 -0.12890625,-0.1992187 -0.140625,-0.3867187 -0.140625,-0.609375 0,-0.1992187 0,-0.421875 0.15234375,-0.6328125 0.10546875,-0.1523437 0.25781248,-0.2695312 0.50390628,-0.2695312 0.4804687,0 0.5859375,0.5742187 0.597656,0.9023437 z m 0,0"
       style="fill:#000000;fill-opacity:1;fill-rule:nonzero;stroke:none"
       aria-label="9"
       transform="matrix(1.3333333,0,0,1.3333333,53.974667,62.52)" />
    <path
       id="path21"
       d="m 10.434,-31.75674 c 0,1.37786 -1.11695,2.49482 -2.49482,2.49482 -1.37785,0 -2.49483,-1.11696 -2.49483,-2.49482 0,-1.37786 1.11698,-2.49483 2.49483,-2.49483 1.37787,0 2.49482,1.11697 2.49482,2.49483 z"
       style="fill:#bfbfbf;fill-opacity:1;fill-rule:nonzero;stroke:none"
       transform="matrix(1.3333333,0,0,-1.3333333,74.234667,17.998667)" />
    <path
       id="path22"
       d="M 1.5928359,-3.3753516 H 1.4873672 c -0.328125,0.3046875 -0.72656251,0.3164063 -1.03125001,0.328125 v 0.3164063 c 0.19921875,0 0.4453125,-0.011719 0.69140621,-0.1171875 v 2.53124999 H 0.49127344 V -3.515625e-4 H 2.2608047 V -0.31675781 H 1.5928359 Z m 3.4804688,1.7578125 c 0,-0.2460937 0,-0.8203125 -0.234375,-1.2304687 -0.2460938,-0.4453125 -0.6328125,-0.5273438 -0.8671875,-0.5273438 -0.2226563,0 -0.6210938,0.070312 -0.8671875,0.5039063 -0.234375,0.3984375 -0.2460938,0.9375 -0.2460938,1.2539062 0,0.3632813 0.023437,0.82031254 0.2226563,1.19531254 0.2226562,0.41015625 0.5976562,0.52734375 0.890625,0.52734375 0.4921875,0 0.7734375,-0.29296875 0.9140625,-0.609375 0.1757812,-0.3515625 0.1875,-0.80859379 0.1875,-1.11328129 z m -1.1015625,1.39453129 c -0.2109375,0 -0.4570313,-0.1171875 -0.5742188,-0.48046875 C 3.2920547,-1.0081641 3.2920547,-1.3245703 3.2920547,-1.6878516 c 0,-0.4570312 0,-1.359375 0.6796875,-1.359375 0.6679687,0 0.6679687,0.9023438 0.6679687,1.359375 0,0.328125 0,0.70312504 -0.1171875,1.01953129 -0.140625,0.36328125 -0.3867187,0.4453125 -0.5507812,0.4453125 z m 0,0"
       style="fill:#000000;fill-opacity:1;fill-rule:nonzero;stroke:none"
       aria-label="10"
       transform="matrix(1.3333333,0,0,1.3333333,101.552,62.52)" />
    <path
       id="path23"
       d="m 2.49481,-39.69592 c 0,1.37785 -1.11696,2.49481 -2.49481,2.49481 -1.37785,0 -2.49481,-1.11696 -2.49481,-2.49481 0,-1.37787 1.11696,-2.49483 2.49481,-2.49483 1.37785,0 2.49481,1.11696 2.49481,2.49483 z"
       style="fill:#bfbfbf;fill-opacity:1;fill-rule:nonzero;stroke:none"
       transform="matrix(1.3333333,0,0,-1.3333333,74.234667,17.998667)" />
    <path
       id="path24"
       d="M 1.5937344,-3.3748984 H 1.4882656 c -0.328125,0.3046875 -0.72656248,0.3164062 -1.03124998,0.328125 v 0.3164062 c 0.19921875,0 0.4453125,-0.011719 0.69140628,-0.1171875 v 2.53125001 H 0.49217187 V 1.015625e-4 H 2.2617031 V -0.31630469 H 1.5937344 Z m 2.6455078,0 H 4.1337734 c -0.328125,0.3046875 -0.7265625,0.3164062 -1.03125,0.328125 v 0.3164062 c 0.1992188,0 0.4453125,-0.011719 0.6914063,-0.1171875 v 2.53125001 h -0.65625 V 1.015625e-4 H 4.9072109 V -0.31630469 H 4.2392422 Z m 0,0"
       style="fill:#000000;fill-opacity:1;fill-rule:nonzero;stroke:none"
       aria-label="11"
       transform="matrix(1.3333333,0,0,1.3333333,50.445333,73.105333)" />
    <path
       id="path25"
       d="m 10.434,-39.69592 c 0,1.37785 -1.11695,2.49481 -2.49482,2.49481 -1.37785,0 -2.49483,-1.11696 -2.49483,-2.49481 0,-1.37787 1.11698,-2.49483 2.49483,-2.49483 1.37787,0 2.49482,1.11696 2.49482,2.49483 z"
       style="fill:#bfbfbf;fill-opacity:1;fill-rule:nonzero;stroke:none"
       transform="matrix(1.3333333,0,0,-1.3333333,74.234667,17.998667)" />
    <path
       id="path26"
       d="M 1.5928359,-3.3748984 H 1.4873672 c -0.328125,0.3046875 -0.72656251,0.3164062 -1.03125001,0.328125 v 0.3164062 c 0.19921875,0 0.4453125,-0.011719 0.69140621,-0.1171875 v 2.53125001 H 0.49127344 V 1.015625e-4 H 2.2608047 V -0.31630469 H 1.5928359 Z m 2.4609375,2.98828121 c -0.058594,0 -0.1171875,0.0117188 -0.1757812,0.0117188 h -0.5625 L 4.0772109,-1.0663047 c 0.09375,-0.070312 0.3398438,-0.2578125 0.4335938,-0.3398437 0.2226562,-0.1992188 0.515625,-0.4570313 0.515625,-0.890625 0,-0.5625 -0.421875,-1.078125 -1.1367188,-1.078125 -0.5273437,0 -0.8554687,0.28125 -1.0195312,0.796875 l 0.234375,0.2929687 c 0.1054687,-0.421875 0.28125,-0.7382812 0.7148437,-0.7382812 0.421875,0 0.7382813,0.2929687 0.7382813,0.7382812 0,0.4101563 -0.2460938,0.6445313 -0.5390625,0.9257813 -0.1054688,0.1054687 -0.375,0.328125 -0.46875,0.43359371 -0.1523438,0.12890625 -0.4921875,0.45703125 -0.6328125,0.5859375 V 1.015625e-4 h 2.109375 V -0.38661719 Z m 0,0"
       style="fill:#000000;fill-opacity:1;fill-rule:nonzero;stroke:none"
       aria-label="12"
       transform="matrix(1.3333333,0,0,1.3333333,101.552,73.105333)" />
    <path
       id="path27"
       d="m 2.49481,-47.63512 c 0,1.37786 -1.11696,2.49483 -2.49481,2.49483 -1.37785,0 -2.49481,-1.11697 -2.49481,-2.49483 0,-1.37787 1.11696,-2.49482 2.49481,-2.49482 1.37785,0 2.49481,1.11695 2.49481,2.49482 z"
       style="fill:#bfbfbf;fill-opacity:1;fill-rule:nonzero;stroke:none"
       transform="matrix(1.3333333,0,0,-1.3333333,74.234667,17.998667)" />
    <path
       id="path28"
       d="M 1.5937344,-3.3744453 H 1.4882656 c -0.328125,0.3046875 -0.72656248,0.3164062 -1.03124998,0.328125 v 0.3164062 c 0.19921875,0 0.4453125,-0.011719 0.69140628,-0.1171875 v 2.53125004 H 0.49217187 V 5.546875e-4 H 2.2617031 V -0.31585156 H 1.5937344 Z m 1.555664,0.8203125 c 0.1992188,-0.3984375 0.5625,-0.5039063 0.796875,-0.5039063 0.2929688,0 0.515625,0.1640625 0.515625,0.4453125 0,0.2695313 -0.1875,0.5859375 -0.5625,0.65625 -0.023437,0 -0.046875,0 -0.375,0.035156 v 0.328125 h 0.3867188 c 0.4804687,0 0.65625,0.3632812 0.65625,0.67968749 0,0.38671875 -0.2460938,0.69140625 -0.6328125,0.69140625 -0.3515625,0 -0.7617188,-0.17578125 -1.0078125,-0.4921875 l -0.058594,0.328125 c 0.28125,0.31640625 0.6914063,0.4921875 1.078125,0.4921875 0.65625,0 1.125,-0.4921875 1.125,-1.0078125 0,-0.41015624 -0.328125,-0.73828124 -0.7265625,-0.85546874 0.375,-0.1992188 0.5742188,-0.5273438 0.5742188,-0.8554688 0,-0.421875 -0.4335938,-0.7617187 -0.9726563,-0.7617187 -0.4335937,0 -0.796875,0.234375 -1.0078125,0.5273437 z m 0,0"
       style="fill:#000000;fill-opacity:1;fill-rule:nonzero;stroke:none"
       aria-label="13"
       transform="matrix(1.3333333,0,0,1.3333333,50.445333,83.690667)" />
    <path
       id="path29"
       d="m 10.434,-47.63512 c 0,1.37786 -1.11695,2.49483 -2.49482,2.49483 -1.37785,0 -2.49483,-1.11697 -2.49483,-2.49483 0,-1.37787 1.11698,-2.49482 2.49483,-2.49482 1.37787,0 2.49482,1.11695 2.49482,2.49482 z"
       style="fill:#bfbfbf;fill-opacity:1;fill-rule:nonzero;stroke:none"
       transform="matrix(1.3333333,0,0,-1.3333333,74.234667,17.998667)" />
    <path
       id="path30"
       d="M 1.5928359,-3.3744453 H 1.4873672 c -0.328125,0.3046875 -0.72656251,0.3164062 -1.03125001,0.328125 v 0.3164062 c 0.19921875,0 0.4453125,-0.011719 0.69140621,-0.1171875 v 2.53125004 H 0.49127344 V 5.546875e-4 H 2.2608047 V -0.31585156 H 1.5928359 Z m 3.0234375,2.54296874 H 5.1436172 V -1.1596016 H 4.6162734 v -2.109375 H 4.1240859 l -1.3242187,2.109375 v 0.32812504 H 4.1943984 V 5.546875e-4 h 0.421875 z M 3.2217422,-1.1596016 c 0.1523437,-0.234375 1.0078125,-1.5585937 1.0078125,-1.8632812 v 1.8632812 z m 0,0"
       style="fill:#000000;fill-opacity:1;fill-rule:nonzero;stroke:none"
       aria-label="14"
       transform="matrix(1.3333333,0,0,1.3333333,101.552,83.690667)" />
    <path
       id="path31"
       d="m 2.49481,-55.57431 c 0,1.37787 -1.11696,2.49483 -2.49481,2.49483 -1.37785,0 -2.49481,-1.11696 -2.49481,-2.49483 0,-1.37785 1.11696,-2.49483 2.49481,-2.49483 1.37785,0 2.49481,1.11698 2.49481,2.49483 z"
       style="fill:#bfbfbf;fill-opacity:1;fill-rule:nonzero;stroke:none"
       transform="matrix(1.3333333,0,0,-1.3333333,74.234667,17.998667)" />
    <path
       id="path32"
       d="M 1.5937344,-3.3739922 H 1.4882656 c -0.328125,0.3046875 -0.72656248,0.3164063 -1.03124998,0.328125 v 0.3164063 c 0.19921875,0 0.4453125,-0.011719 0.69140628,-0.1171875 v 2.53124996 H 0.49217187 V 0.00100781 H 2.2617031 V -0.31539844 H 1.5937344 Z m 1.8720703,0.4570313 H 4.8368984 V -3.2685234 H 3.0673672 v 1.8632812 h 0.3632812 c 0.1171875,-0.2695312 0.3515625,-0.3867187 0.5742188,-0.3867187 0.1992187,0 0.515625,0.140625 0.515625,0.7734375 0,0.65624996 -0.4101563,0.79687496 -0.6679688,0.79687496 -0.328125,0 -0.6445312,-0.17578125 -0.8203125,-0.45703125 l -0.1875,0.29296875 c 0.2460938,0.3046875 0.609375,0.4921875 1.0078125,0.4921875 0.65625,0 1.171875,-0.50390625 1.171875,-1.11328126 0,-0.6210937 -0.4570312,-1.1132812 -1.0078125,-1.1132812 -0.2109375,0 -0.4101562,0.070312 -0.5507812,0.1992187 z m 0,0"
       style="fill:#000000;fill-opacity:1;fill-rule:nonzero;stroke:none"
       aria-label="15"
       transform="matrix(1.3333333,0,0,1.3333333,50.445333,94.276)" />
    <path
       id="path33"
       d="m 10.434,-55.57431 c 0,1.37787 -1.11695,2.49483 -2.49482,2.49483 -1.37785,0 -2.49483,-1.11696 -2.49483,-2.49483 0,-1.37785 1.11698,-2.49483 2.49483,-2.49483 1.37787,0 2.49482,1.11698 2.49482,2.49483 z"
       style="fill:#bfbfbf;fill-opacity:1;fill-rule:nonzero;stroke:none"
       transform="matrix(1.3333333,0,0,-1.3333333,74.234667,17.998667)" />
    <path
       id="path34"
       d="M 1.5928359,-3.3739922 H 1.4873672 c -0.328125,0.3046875 -0.72656251,0.3164063 -1.03125001,0.328125 v 0.3164063 c 0.19921875,0 0.4453125,-0.011719 0.69140621,-0.1171875 v 2.53124996 H 0.49127344 V 0.00100781 H 2.2608047 V -0.31539844 H 1.5928359 Z m 3.2460938,0.1054688 c -0.2695313,-0.1054688 -0.46875,-0.1054688 -0.5625,-0.1054688 -0.75,0 -1.40625,0.7148438 -1.40625,1.7695313 0,1.34765621 0.609375,1.71093746 1.1015625,1.71093746 0.4101562,0 0.6210937,-0.1875 0.7734375,-0.3515625 0.3164062,-0.33984375 0.328125,-0.69140625 0.328125,-0.86718746 0,-0.6445313 -0.3632813,-1.1953125 -0.84375,-1.1953125 -0.4804688,0 -0.75,0.2578125 -0.890625,0.3984375 0.058594,-0.6796875 0.4101562,-1.1484375 0.9492187,-1.1484375 0.09375,0 0.2929688,0 0.5507813,0.1054687 z m -1.5,2.1679687 c 0,-0.023437 0,-0.09375 0.011719,-0.1289062 0,-0.328125 0.2109375,-0.75 0.65625,-0.75 0.5976563,0 0.5976563,0.703125 0.5976563,0.8671875 0,0.18749996 0,0.39843746 -0.1289063,0.60937496 -0.1171875,0.17578125 -0.2695312,0.28125 -0.5039062,0.28125 -0.5273438,0 -0.609375,-0.65625 -0.6328128,-0.87890626 z m 0,0"
       style="fill:#000000;fill-opacity:1;fill-rule:nonzero;stroke:none"
       aria-label="16"
       transform="matrix(1.3333333,0,0,1.3333333,101.552,94.276)" />
    <path
       id="path35"
       d="m 2.49481,-63.51349 c 0,1.37785 -1.11696,2.49483 -2.49481,2.49483 -1.37785,0 -2.49481,-1.11698 -2.49481,-2.49483 0,-1.37787 1.11696,-2.49483 2.49481,-2.49483 1.37785,0 2.49481,1.11696 2.49481,2.49483 z"
       style="fill:#bfbfbf;fill-opacity:1;fill-rule:nonzero;stroke:none"
       transform="matrix(1.3333333,0,0,-1.3333333,74.234667,17.998667)" />
    <path
       id="path36"
       d="M 1.5937344,-3.3735391 H 1.4882656 c -0.328125,0.3046875 -0.72656248,0.3164063 -1.03124998,0.328125 v 0.3164063 c 0.19921875,0 0.4453125,-0.011719 0.69140628,-0.1171875 v 2.53124999 H 0.49217187 V 0.00146094 H 2.2617031 V -0.31494531 H 1.5937344 Z m 2.2822265,0.4921875 c 0.058594,0 0.1171875,-0.011719 0.1757813,-0.011719 h 0.6328125 c -0.7617188,0.75 -1.2421875,1.7929687 -1.2421875,2.94140624 h 0.46875 c 0,-1.45312504 0.703125,-2.49609374 1.1601562,-2.96484374 v -0.3515625 h -2.203125 v 0.3867187 z m 0,0"
       style="fill:#000000;fill-opacity:1;fill-rule:nonzero;stroke:none"
       aria-label="17"
       transform="matrix(1.3333333,0,0,1.3333333,50.445333,104.86133)" />
    <path
       id="path37"
       d="m 10.434,-63.51349 c 0,1.37785 -1.11695,2.49483 -2.49482,2.49483 -1.37785,0 -2.49483,-1.11698 -2.49483,-2.49483 0,-1.37787 1.11698,-2.49483 2.49483,-2.49483 1.37787,0 2.49482,1.11696 2.49482,2.49483 z"
       style="fill:#bfbfbf;fill-opacity:1;fill-rule:nonzero;stroke:none"
       transform="matrix(1.3333333,0,0,-1.3333333,74.234667,17.998667)" />
    <path
       id="path38"
       d="M 1.5928359,-3.3735391 H 1.4873672 c -0.328125,0.3046875 -0.72656251,0.3164063 -1.03125001,0.328125 v 0.3164063 c 0.19921875,0 0.4453125,-0.011719 0.69140621,-0.1171875 v 2.53124999 H 0.49127344 V 0.00146094 H 2.2608047 V -0.31494531 H 1.5928359 Z m 2.7539063,1.6171875 c 0.328125,-0.1054687 0.6445312,-0.375 0.6445312,-0.7382812 0,-0.4570313 -0.4335937,-0.8789063 -1.0195312,-0.8789063 -0.5976563,0 -1.03125,0.421875 -1.03125,0.8789063 0,0.375 0.328125,0.6328125 0.6445312,0.7382812 -0.4335937,0.1289063 -0.7148437,0.46875 -0.7148437,0.85546879 0,0.52734375 0.46875,1.0078125 1.1015625,1.0078125 0.6210937,0 1.1015625,-0.48046875 1.1015625,-1.0078125 0,-0.38671879 -0.2929688,-0.72656249 -0.7265625,-0.85546879 z m -0.375,-0.1640625 c -0.3632813,0 -0.6445313,-0.2109375 -0.6445313,-0.5742187 0,-0.3164063 0.2226563,-0.5625 0.6445313,-0.5625 0.4101562,0 0.6328125,0.2460937 0.6328125,0.5625 0,0.3515625 -0.2695313,0.5742187 -0.6328125,0.5742187 z m 0,1.69921879 c -0.3515625,0 -0.65625,-0.22265625 -0.65625,-0.69140625 0,-0.44531254 0.2929687,-0.67968754 0.65625,-0.67968754 0.3515625,0 0.6445312,0.234375 0.6445312,0.67968754 0,0.46875 -0.3046875,0.69140625 -0.6445312,0.69140625 z m 0,0"
       style="fill:#000000;fill-opacity:1;fill-rule:nonzero;stroke:none"
       aria-label="18"
       transform="matrix(1.3333333,0,0,1.3333333,101.552,104.86133)" />
    <path
       id="path39"
       d="m 2.49481,-71.45268 c 0,1.37787 -1.11696,2.49482 -2.49481,2.49482 -1.37785,0 -2.49481,-1.11695 -2.49481,-2.49482 0,-1.37786 1.11696,-2.49483 2.49481,-2.49483 1.37785,0 2.49481,1.11697 2.49481,2.49483 z"
       style="fill:#bfbfbf;fill-opacity:1;fill-rule:nonzero;stroke:none"
       transform="matrix(1.3333333,0,0,-1.3333333,74.234667,17.998667)" />
    <path
       id="path40"
       d="M 1.5937344,-3.3760156 H 1.4882656 c -0.328125,0.3046875 -0.72656248,0.3164062 -1.03124998,0.328125 v 0.3164062 c 0.19921875,0 0.4453125,-0.011719 0.69140628,-0.1171875 v 2.53125002 H 0.49217187 v 0.31640625 H 2.2617031 V -0.31742188 H 1.5937344 Z m 1.4384765,3.24609372 c 0.2460938,0.1875 0.46875,0.234375 0.703125,0.234375 0.6914063,0 1.3359375,-0.703125 1.3359375,-1.76953122 0,-1.359375 -0.609375,-1.7109375 -1.0898437,-1.7109375 -0.4335938,0 -0.6445313,0.2109375 -0.7851563,0.3515625 -0.3164062,0.328125 -0.328125,0.6679687 -0.328125,0.8671875 0,0.6445312 0.3398438,1.19531247 0.8320313,1.19531247 0.5625,0 0.8671875,-0.37499997 0.9023437,-0.39843747 -0.070312,0.78515622 -0.4570312,1.13671872 -0.8671875,1.13671872 -0.2578125,0 -0.421875,-0.09375 -0.5390625,-0.1875 z m 1.546875,-2.02734372 c 0.011719,0.023437 0.011719,0.070312 0.011719,0.1054687 0,0.3632813 -0.2226563,0.7617188 -0.65625,0.7617188 -0.1875,0 -0.3398438,-0.058594 -0.46875,-0.2578125 -0.1289063,-0.1992188 -0.140625,-0.3867188 -0.140625,-0.609375 0,-0.1992188 0,-0.421875 0.1523437,-0.6328125 0.1054688,-0.1523438 0.2578125,-0.2695313 0.5039063,-0.2695313 0.4804687,0 0.5859375,0.5742188 0.597656,0.9023438 z m 0,0"
       style="fill:#000000;fill-opacity:1;fill-rule:nonzero;stroke:none"
       aria-label="19"
       transform="matrix(1.3333333,0,0,1.3333333,50.445333,115.44667)" />
    <path
       id="path41"
       d="m 10.434,-71.45268 c 0,1.37787 -1.11695,2.49482 -2.49482,2.49482 -1.37785,0 -2.49483,-1.11695 -2.49483,-2.49482 0,-1.37786 1.11698,-2.49483 2.49483,-2.49483 1.37787,0 2.49482,1.11697 2.49482,2.49483 z"
       style="fill:#bfbfbf;fill-opacity:1;fill-rule:nonzero;stroke:none"
       transform="matrix(1.3333333,0,0,-1.3333333,74.234667,17.998667)" />
    <path
       id="path42"
       d="m 1.4053359,-0.38773438 c -0.058594,0 -0.1171875,0.0117188 -0.1757812,0.0117188 H 0.66705469 L 1.4287734,-1.0674219 c 0.09375,-0.070312 0.3398438,-0.2578125 0.4335938,-0.3398437 0.2226562,-0.1992188 0.515625,-0.4570313 0.515625,-0.890625 0,-0.5625 -0.421875,-1.078125 -1.1367188,-1.078125 -0.52734371,0 -0.85546871,0.28125 -1.01953121,0.796875 l 0.234375,0.2929687 c 0.10546875,-0.421875 0.28125,-0.7382812 0.71484371,-0.7382812 0.421875,0 0.7382813,0.2929687 0.7382813,0.7382812 0,0.4101563 -0.2460938,0.6445313 -0.5390625,0.9257813 -0.1054688,0.1054687 -0.37500001,0.328125 -0.46875001,0.43359372 -0.15234375,0.12890625 -0.4921875,0.45703125 -0.6328125,0.5859375 v 0.33984375 H 2.3779922 V -0.38773438 Z M 5.0733047,-1.6182031 c 0,-0.2460938 0,-0.8203125 -0.234375,-1.2304688 -0.2460938,-0.4453125 -0.6328125,-0.5273437 -0.8671875,-0.5273437 -0.2226563,0 -0.6210938,0.070312 -0.8671875,0.5039062 -0.234375,0.3984375 -0.2460938,0.9375 -0.2460938,1.2539063 0,0.3632812 0.023437,0.82031247 0.2226563,1.19531247 0.2226562,0.41015625 0.5976562,0.52734375 0.890625,0.52734375 0.4921875,0 0.7734375,-0.29296875 0.9140625,-0.609375 0.1757812,-0.3515625 0.1875,-0.80859372 0.1875,-1.11328122 z m -1.1015625,1.39453122 c -0.2109375,0 -0.4570313,-0.1171875 -0.5742188,-0.48046875 C 3.2920547,-1.0088281 3.2920547,-1.3252344 3.2920547,-1.6885156 c 0,-0.4570313 0,-1.359375 0.6796875,-1.359375 0.6679687,0 0.6679687,0.9023437 0.6679687,1.359375 0,0.328125 0,0.70312497 -0.1171875,1.01953122 -0.140625,0.36328125 -0.3867187,0.4453125 -0.5507812,0.4453125 z m 0,0"
       style="fill:#000000;fill-opacity:1;fill-rule:nonzero;stroke:none"
       aria-label="20"
       transform="matrix(1.3333333,0,0,1.3333333,101.552,115.44667)" />
    <path
       id="path43"
       d="m 2.49481,-79.39186 c 0,1.37786 -1.11696,2.49481 -2.49481,2.49481 -1.37785,0 -2.49481,-1.11695 -2.49481,-2.49481 0,-1.37787 1.11696,-2.49483 2.49481,-2.49483 1.37785,0 2.49481,1.11696 2.49481,2.49483 z"
       style="fill:#bfbfbf;fill-opacity:1;fill-rule:nonzero;stroke:none"
       transform="matrix(1.3333333,0,0,-1.3333333,74.234667,17.998667)" />
    <path
       id="path44"
       d="m 1.4062344,-0.38728125 c -0.058594,0 -0.1171875,0.0117188 -0.1757813,0.0117188 H 0.66795312 L 1.4296719,-1.0669688 c 0.09375,-0.070312 0.3398437,-0.2578125 0.4335937,-0.3398437 0.2226563,-0.1992188 0.515625,-0.4570313 0.515625,-0.890625 0,-0.5625 -0.421875,-1.078125 -1.1367187,-1.078125 -0.52734378,0 -0.85546878,0.28125 -1.01953128,0.796875 l 0.234375,0.2929687 C 0.56248437,-2.7075938 0.73826562,-3.024 1.1718594,-3.024 c 0.421875,0 0.7382812,0.2929687 0.7382812,0.7382812 0,0.4101563 -0.2460937,0.6445313 -0.5390625,0.9257813 -0.1054687,0.1054687 -0.37499998,0.328125 -0.46874998,0.43359375 -0.15234375,0.12890625 -0.4921875,0.45703125 -0.6328125,0.5859375 V -5.625e-4 H 2.3788906 V -0.38728125 Z M 4.2392422,-3.3755625 H 4.1337734 c -0.328125,0.3046875 -0.7265625,0.3164062 -1.03125,0.328125 v 0.3164062 c 0.1992188,0 0.4453125,-0.011719 0.6914063,-0.1171875 v 2.53125005 h -0.65625 V -5.625e-4 H 4.9072109 V -0.31696875 H 4.2392422 Z m 0,0"
       style="fill:#000000;fill-opacity:1;fill-rule:nonzero;stroke:none"
       aria-label="21"
       transform="matrix(1.3333333,0,0,1.3333333,50.445333,126.032)" />
    <path
       id="path45"
       d="m 10.434,-79.39186 c 0,1.37786 -1.11695,2.49481 -2.49482,2.49481 -1.37785,0 -2.49483,-1.11695 -2.49483,-2.49481 0,-1.37787 1.11698,-2.49483 2.49483,-2.49483 1.37787,0 2.49482,1.11696 2.49482,2.49483 z"
       style="fill:#bfbfbf;fill-opacity:1;fill-rule:nonzero;stroke:none"
       transform="matrix(1.3333333,0,0,-1.3333333,74.234667,17.998667)" />
    <path
       id="path46"
       d="m 1.4053359,-0.38728125 c -0.058594,0 -0.1171875,0.0117188 -0.1757812,0.0117188 H 0.66705469 L 1.4287734,-1.0669688 c 0.09375,-0.070312 0.3398438,-0.2578125 0.4335938,-0.3398437 0.2226562,-0.1992188 0.515625,-0.4570313 0.515625,-0.890625 0,-0.5625 -0.421875,-1.078125 -1.1367188,-1.078125 -0.52734371,0 -0.85546871,0.28125 -1.01953121,0.796875 l 0.234375,0.2929687 C 0.56158594,-2.7075938 0.73736719,-3.024 1.1709609,-3.024 c 0.421875,0 0.7382813,0.2929687 0.7382813,0.7382812 0,0.4101563 -0.2460938,0.6445313 -0.5390625,0.9257813 -0.1054688,0.1054687 -0.37500001,0.328125 -0.46875001,0.43359375 -0.15234375,0.12890625 -0.4921875,0.45703125 -0.6328125,0.5859375 V -5.625e-4 H 2.3779922 v -0.38671875 z m 2.6484375,0 c -0.058594,0 -0.1171875,0.0117188 -0.1757812,0.0117188 h -0.5625 L 4.0772109,-1.0669687 c 0.09375,-0.070312 0.3398438,-0.2578125 0.4335938,-0.3398438 0.2226562,-0.1992187 0.515625,-0.4570312 0.515625,-0.890625 0,-0.5625 -0.421875,-1.078125 -1.1367188,-1.078125 -0.5273437,0 -0.8554687,0.28125 -1.0195312,0.796875 l 0.234375,0.2929687 C 3.2100234,-2.7075938 3.3858047,-3.024 3.8193984,-3.024 c 0.421875,0 0.7382813,0.2929687 0.7382813,0.7382812 0,0.4101563 -0.2460938,0.6445313 -0.5390625,0.9257813 -0.1054688,0.1054687 -0.375,0.328125 -0.46875,0.43359375 -0.1523438,0.12890625 -0.4921875,0.45703125 -0.6328125,0.5859375 V -5.625e-4 h 2.109375 v -0.38671875 z m 0,0"
       style="fill:#000000;fill-opacity:1;fill-rule:nonzero;stroke:none"
       aria-label="22"
       transform="matrix(1.3333333,0,0,1.3333333,101.552,126.032)" />
    <path
       id="path47"
       d="m 2.49481,-87.33105 c 0,1.37785 -1.11696,2.49482 -2.49481,2.49482 -1.37785,0 -2.49481,-1.11697 -2.49481,-2.49482 0,-1.37787 1.11696,-2.49483 2.49481,-2.49483 1.37785,0 2.49481,1.11696 2.49481,2.49483 z"
       style="fill:#bfbfbf;fill-opacity:1;fill-rule:nonzero;stroke:none"
       transform="matrix(1.3333333,0,0,-1.3333333,74.234667,17.998667)" />
    <path
       id="path48"
       d="m 1.4062344,-0.38682813 c -0.058594,0 -0.1171875,0.0117188 -0.1757813,0.0117188 H 0.66795312 L 1.4296719,-1.0665156 c 0.09375,-0.070312 0.3398437,-0.2578125 0.4335937,-0.3398438 0.2226563,-0.1992187 0.515625,-0.4570312 0.515625,-0.890625 0,-0.5625 -0.421875,-1.078125 -1.1367187,-1.078125 -0.52734378,0 -0.85546878,0.28125 -1.01953128,0.796875 l 0.234375,0.2929688 c 0.10546875,-0.421875 0.28125,-0.7382813 0.71484378,-0.7382813 0.421875,0 0.7382812,0.2929688 0.7382812,0.7382813 0,0.4101562 -0.2460937,0.6445312 -0.5390625,0.9257812 -0.1054687,0.1054688 -0.37499998,0.328125 -0.46874998,0.43359377 -0.15234375,0.12890625 -0.4921875,0.45703125 -0.6328125,0.5859375 V -1.09375e-4 H 2.3788906 V -0.38682813 Z m 1.743164,-2.16796877 c 0.1992188,-0.3984375 0.5625,-0.5039062 0.796875,-0.5039062 0.2929688,0 0.515625,0.1640625 0.515625,0.4453125 0,0.2695312 -0.1875,0.5859375 -0.5625,0.65625 -0.023437,0 -0.046875,0 -0.375,0.035156 v 0.328125 h 0.3867188 c 0.4804687,0 0.65625,0.3632813 0.65625,0.67968752 0,0.38671875 -0.2460938,0.69140625 -0.6328125,0.69140625 -0.3515625,0 -0.7617188,-0.17578125 -1.0078125,-0.4921875 l -0.058594,0.328125 c 0.28125,0.31640625 0.6914063,0.4921875 1.078125,0.4921875 0.65625,0 1.125,-0.4921875 1.125,-1.0078125 0,-0.41015627 -0.328125,-0.73828127 -0.7265625,-0.85546877 0.375,-0.1992187 0.5742188,-0.5273437 0.5742188,-0.8554687 0,-0.421875 -0.4335938,-0.7617188 -0.9726563,-0.7617188 -0.4335937,0 -0.796875,0.234375 -1.0078125,0.5273438 z m 0,0"
       style="fill:#000000;fill-opacity:1;fill-rule:nonzero;stroke:none"
       aria-label="23"
       transform="matrix(1.3333333,0,0,1.3333333,50.445333,136.61733)" />
    <path
       id="path49"
       d="m 10.434,-87.33105 c 0,1.37785 -1.11695,2.49482 -2.49482,2.49482 -1.37785,0 -2.49483,-1.11697 -2.49483,-2.49482 0,-1.37787 1.11698,-2.49483 2.49483,-2.49483 1.37787,0 2.49482,1.11696 2.49482,2.49483 z"
       style="fill:#bfbfbf;fill-opacity:1;fill-rule:nonzero;stroke:none"
       transform="matrix(1.3333333,0,0,-1.3333333,74.234667,17.998667)" />
    <path
       id="path50"
       d="m 1.4053359,-0.38682813 c -0.058594,0 -0.1171875,0.0117188 -0.1757812,0.0117188 H 0.66705469 L 1.4287734,-1.0665156 c 0.09375,-0.070312 0.3398438,-0.2578125 0.4335938,-0.3398438 0.2226562,-0.1992187 0.515625,-0.4570312 0.515625,-0.890625 0,-0.5625 -0.421875,-1.078125 -1.1367188,-1.078125 -0.52734371,0 -0.85546871,0.28125 -1.01953121,0.796875 l 0.234375,0.2929688 c 0.10546875,-0.421875 0.28125,-0.7382813 0.71484371,-0.7382813 0.421875,0 0.7382813,0.2929688 0.7382813,0.7382813 0,0.4101562 -0.2460938,0.6445312 -0.5390625,0.9257812 -0.1054688,0.1054688 -0.37500001,0.328125 -0.46875001,0.43359377 -0.15234375,0.12890625 -0.4921875,0.45703125 -0.6328125,0.5859375 V -1.09375e-4 H 2.3779922 V -0.38682813 Z m 3.2109375,-0.4453125 H 5.1436172 V -1.1602656 H 4.6162734 v -2.109375 H 4.1240859 l -1.3242187,2.109375 v 0.32812497 h 1.3945312 v 0.832031255 h 0.421875 z M 3.2217422,-1.1602656 c 0.1523437,-0.234375 1.0078125,-1.5585938 1.0078125,-1.8632813 v 1.8632813 z m 0,0"
       style="fill:#000000;fill-opacity:1;fill-rule:nonzero;stroke:none"
       aria-label="24"
       transform="matrix(1.3333333,0,0,1.3333333,101.552,136.61733)" />
    <path
       id="path51"
       d="m 2.49481,-95.27025 c 0,1.37787 -1.11696,2.49483 -2.49481,2.49483 -1.37785,0 -2.49481,-1.11696 -2.49481,-2.49483 0,-1.37785 1.11696,-2.49483 2.49481,-2.49483 1.37785,0 2.49481,1.11698 2.49481,2.49483 z"
       style="fill:#bfbfbf;fill-opacity:1;fill-rule:nonzero;stroke:none"
       transform="matrix(1.3333333,0,0,-1.3333333,74.234667,17.998667)" />
    <path
       id="path52"
       d="m 1.4062344,-0.386375 c -0.058594,0 -0.1171875,0.0117188 -0.1757813,0.0117188 H 0.66795312 L 1.4296719,-1.0660625 c 0.09375,-0.070312 0.3398437,-0.2578125 0.4335937,-0.3398438 0.2226563,-0.1992187 0.515625,-0.4570312 0.515625,-0.890625 0,-0.5625 -0.421875,-1.078125 -1.1367187,-1.078125 -0.52734378,0 -0.85546878,0.28125 -1.01953128,0.796875 l 0.234375,0.2929688 c 0.10546875,-0.421875 0.28125,-0.7382813 0.71484378,-0.7382813 0.421875,0 0.7382812,0.2929688 0.7382812,0.7382813 0,0.4101562 -0.2460937,0.6445312 -0.5390625,0.9257812 -0.1054687,0.1054688 -0.37499998,0.328125 -0.46874998,0.4335938 -0.15234375,0.12890625 -0.4921875,0.45703125 -0.6328125,0.5859375 V 3.4375e-4 H 2.3788906 V -0.386375 Z m 2.0595703,-2.53125 H 4.8368984 V -3.2691875 H 3.0673672 v 1.8632812 h 0.3632812 c 0.1171875,-0.2695312 0.3515625,-0.3867187 0.5742188,-0.3867187 0.1992187,0 0.515625,0.140625 0.515625,0.7734375 0,0.65625 -0.4101563,0.796875 -0.6679688,0.796875 -0.328125,0 -0.6445312,-0.17578125 -0.8203125,-0.45703125 l -0.1875,0.29296875 c 0.2460938,0.3046875 0.609375,0.4921875 1.0078125,0.4921875 0.65625,0 1.171875,-0.50390625 1.171875,-1.1132813 0,-0.6210937 -0.4570312,-1.1132812 -1.0078125,-1.1132812 -0.2109375,0 -0.4101562,0.070312 -0.5507812,0.1992187 z m 0,0"
       style="fill:#000000;fill-opacity:1;fill-rule:nonzero;stroke:none"
       aria-label="25"
       transform="matrix(1.3333333,0,0,1.3333333,50.445333,147.20267)" />
    <path
       id="path53"
       d="m 10.434,-95.27025 c 0,1.37787 -1.11695,2.49483 -2.49482,2.49483 -1.37785,0 -2.49483,-1.11696 -2.49483,-2.49483 0,-1.37785 1.11698,-2.49483 2.49483,-2.49483 1.37787,0 2.49482,1.11698 2.49482,2.49483 z"
       style="fill:#bfbfbf;fill-opacity:1;fill-rule:nonzero;stroke:none"
       transform="matrix(1.3333333,0,0,-1.3333333,74.234667,17.998667)" />
    <path
       id="path54"
       d="m 1.4053359,-0.386375 c -0.058594,0 -0.1171875,0.0117188 -0.1757812,0.0117188 H 0.66705469 L 1.4287734,-1.0660625 c 0.09375,-0.070312 0.3398438,-0.2578125 0.4335938,-0.3398438 0.2226562,-0.1992187 0.515625,-0.4570312 0.515625,-0.890625 0,-0.5625 -0.421875,-1.078125 -1.1367188,-1.078125 -0.52734371,0 -0.85546871,0.28125 -1.01953121,0.796875 l 0.234375,0.2929688 c 0.10546875,-0.421875 0.28125,-0.7382813 0.71484371,-0.7382813 0.421875,0 0.7382813,0.2929688 0.7382813,0.7382813 0,0.4101562 -0.2460938,0.6445312 -0.5390625,0.9257812 -0.1054688,0.1054688 -0.37500001,0.328125 -0.46875001,0.4335938 -0.15234375,0.12890625 -0.4921875,0.45703125 -0.6328125,0.5859375 V 3.4375e-4 H 2.3779922 V -0.386375 Z m 3.4335938,-2.8828125 c -0.2695313,-0.1054688 -0.46875,-0.1054688 -0.5625,-0.1054688 -0.75,0 -1.40625,0.7148438 -1.40625,1.7695313 0,1.34765625 0.609375,1.7109375 1.1015625,1.7109375 0.4101562,0 0.6210937,-0.1875 0.7734375,-0.3515625 0.3164062,-0.33984375 0.328125,-0.69140625 0.328125,-0.8671875 0,-0.6445313 -0.3632813,-1.1953125 -0.84375,-1.1953125 -0.4804688,0 -0.75,0.2578125 -0.890625,0.3984375 C 3.3975234,-2.5895 3.7490859,-3.05825 4.2881484,-3.05825 c 0.09375,0 0.2929688,0 0.5507813,0.1054687 z m -1.5,2.1679687 c 0,-0.023437 0,-0.09375 0.011719,-0.1289062 0,-0.328125 0.2109375,-0.75 0.65625,-0.75 0.5976563,0 0.5976563,0.703125 0.5976563,0.8671875 0,0.1875 0,0.3984375 -0.1289063,0.609375 -0.1171875,0.17578125 -0.2695312,0.28125 -0.5039062,0.28125 -0.5273438,0 -0.609375,-0.65625 -0.6328128,-0.8789063 z m 0,0"
       style="fill:#000000;fill-opacity:1;fill-rule:nonzero;stroke:none"
       aria-label="26"
       transform="matrix(1.3333333,0,0,1.3333333,101.552,147.20267)" />
    <path
       id="path55"
       d="m 2.49481,-103.20943 c 0,1.37786 -1.11696,2.49483 -2.49481,2.49483 -1.37785,0 -2.49481,-1.11697 -2.49481,-2.49483 0,-1.37787 1.11696,-2.49482 2.49481,-2.49482 1.37785,0 2.49481,1.11695 2.49481,2.49482 z"
       style="fill:#bfbfbf;fill-opacity:1;fill-rule:nonzero;stroke:none"
       transform="matrix(1.3333333,0,0,-1.3333333,74.234667,17.998667)" />
    <path
       id="path56"
       d="m 1.4062344,-0.38692187 c -0.058594,0 -0.1171875,0.0117188 -0.1757813,0.0117188 H 0.66795312 L 1.4296719,-1.0666094 c 0.09375,-0.070312 0.3398437,-0.2578125 0.4335937,-0.3398437 0.2226563,-0.1992188 0.515625,-0.4570313 0.515625,-0.890625 0,-0.5625 -0.421875,-1.078125 -1.1367187,-1.078125 -0.52734378,0 -0.85546878,0.28125 -1.01953128,0.796875 l 0.234375,0.2929687 c 0.10546875,-0.421875 0.28125,-0.7382812 0.71484378,-0.7382812 0.421875,0 0.7382812,0.2929687 0.7382812,0.7382812 0,0.4101563 -0.2460937,0.6445313 -0.5390625,0.9257813 -0.1054687,0.1054687 -0.37499998,0.328125 -0.46874998,0.43359373 -0.15234375,0.12890625 -0.4921875,0.45703125 -0.6328125,0.5859375 V -2.03125e-4 H 2.3788906 V -0.38692187 Z M 3.8759609,-2.8830156 c 0.058594,0 0.1171875,-0.011719 0.1757813,-0.011719 h 0.6328125 c -0.7617188,0.75 -1.2421875,1.7929688 -1.2421875,2.94140628 h 0.46875 c 0,-1.45312498 0.703125,-2.49609378 1.1601562,-2.96484378 v -0.3515625 h -2.203125 v 0.3867188 z m 0,0"
       style="fill:#000000;fill-opacity:1;fill-rule:nonzero;stroke:none"
       aria-label="27"
       transform="matrix(1.3333333,0,0,1.3333333,50.445333,157.78933)" />
    <path
       id="path57"
       d="m 10.434,-103.20943 c 0,1.37786 -1.11695,2.49483 -2.49482,2.49483 -1.37785,0 -2.49483,-1.11697 -2.49483,-2.49483 0,-1.37787 1.11698,-2.49482 2.49483,-2.49482 1.37787,0 2.49482,1.11695 2.49482,2.49482 z"
       style="fill:#bfbfbf;fill-opacity:1;fill-rule:nonzero;stroke:none"
       transform="matrix(1.3333333,0,0,-1.3333333,74.234667,17.998667)" />
    <path
       id="path58"
       d="m 1.4053359,-0.38692187 c -0.058594,0 -0.1171875,0.0117188 -0.1757812,0.0117188 H 0.66705469 L 1.4287734,-1.0666094 c 0.09375,-0.070312 0.3398438,-0.2578125 0.4335938,-0.3398437 0.2226562,-0.1992188 0.515625,-0.4570313 0.515625,-0.890625 0,-0.5625 -0.421875,-1.078125 -1.1367188,-1.078125 -0.52734371,0 -0.85546871,0.28125 -1.01953121,0.796875 l 0.234375,0.2929687 c 0.10546875,-0.421875 0.28125,-0.7382812 0.71484371,-0.7382812 0.421875,0 0.7382813,0.2929687 0.7382813,0.7382812 0,0.4101563 -0.2460938,0.6445313 -0.5390625,0.9257813 -0.1054688,0.1054687 -0.37500001,0.328125 -0.46875001,0.43359373 -0.15234375,0.12890625 -0.4921875,0.45703125 -0.6328125,0.5859375 V -2.03125e-4 H 2.3779922 V -0.38692187 Z M 4.3467422,-1.7580156 c 0.328125,-0.1054688 0.6445312,-0.375 0.6445312,-0.7382813 0,-0.4570312 -0.4335937,-0.8789062 -1.0195312,-0.8789062 -0.5976563,0 -1.03125,0.421875 -1.03125,0.8789062 0,0.375 0.328125,0.6328125 0.6445312,0.7382813 -0.4335937,0.1289062 -0.7148437,0.46875 -0.7148437,0.85546873 0,0.52734375 0.46875,1.0078125 1.1015625,1.0078125 0.6210937,0 1.1015625,-0.48046875 1.1015625,-1.0078125 0,-0.38671873 -0.2929688,-0.72656253 -0.7265625,-0.85546873 z m -0.375,-0.1640625 c -0.3632813,0 -0.6445313,-0.2109375 -0.6445313,-0.5742188 0,-0.3164062 0.2226563,-0.5625 0.6445313,-0.5625 0.4101562,0 0.6328125,0.2460938 0.6328125,0.5625 0,0.3515625 -0.2695313,0.5742188 -0.6328125,0.5742188 z m 0,1.69921873 c -0.3515625,0 -0.65625,-0.22265625 -0.65625,-0.69140625 0,-0.44531248 0.2929687,-0.67968748 0.65625,-0.67968748 0.3515625,0 0.6445312,0.234375 0.6445312,0.67968748 0,0.46875 -0.3046875,0.69140625 -0.6445312,0.69140625 z m 0,0"
       style="fill:#000000;fill-opacity:1;fill-rule:nonzero;stroke:none"
       aria-label="28"
       transform="matrix(1.3333333,0,0,1.3333333,101.552,157.78933)" />
    <path
       id="path59"
       d="m 2.49481,-111.14862 c 0,1.37787 -1.11696,2.49482 -2.49481,2.49482 -1.37785,0 -2.49481,-1.11695 -2.49481,-2.49482 0,-1.37785 1.11696,-2.49483 2.49481,-2.49483 1.37785,0 2.49481,1.11698 2.49481,2.49483 z"
       style="fill:#bfbfbf;fill-opacity:1;fill-rule:nonzero;stroke:none"
       transform="matrix(1.3333333,0,0,-1.3333333,74.234667,17.998667)" />
    <path
       id="path60"
       d="m 1.4062344,-0.38646875 c -0.058594,0 -0.1171875,0.0117188 -0.1757813,0.0117188 H 0.66795312 L 1.4296719,-1.0661562 c 0.09375,-0.070312 0.3398437,-0.2578125 0.4335937,-0.3398438 0.2226563,-0.1992187 0.515625,-0.4570312 0.515625,-0.890625 0,-0.5625 -0.421875,-1.078125 -1.1367187,-1.078125 -0.52734378,0 -0.85546878,0.28125 -1.01953128,0.796875 l 0.234375,0.2929688 c 0.10546875,-0.421875 0.28125,-0.7382813 0.71484378,-0.7382813 0.421875,0 0.7382812,0.2929688 0.7382812,0.7382813 0,0.4101562 -0.2460937,0.6445312 -0.5390625,0.9257812 C 1.2656094,-1.2536562 0.99607812,-1.031 0.90232812,-0.92553125 0.74998437,-0.796625 0.41014062,-0.4685 0.26951562,-0.33959375 V 2.5e-4 H 2.3788906 v -0.38671875 z m 1.6259765,0.2578125 c 0.2460938,0.1875 0.46875,0.234375 0.703125,0.234375 0.6914063,0 1.3359375,-0.703125 1.3359375,-1.76953125 0,-1.359375 -0.609375,-1.7109375 -1.0898437,-1.7109375 -0.4335938,0 -0.6445313,0.2109375 -0.7851563,0.3515625 -0.3164062,0.328125 -0.328125,0.6679688 -0.328125,0.8671875 0,0.6445313 0.3398438,1.1953125 0.8320313,1.1953125 0.5625,0 0.8671875,-0.375 0.9023437,-0.3984375 -0.070312,0.78515625 -0.4570312,1.13671875 -0.8671875,1.13671875 -0.2578125,0 -0.421875,-0.09375 -0.5390625,-0.1875 z M 4.5790859,-2.156 c 0.011719,0.023437 0.011719,0.070312 0.011719,0.1054688 0,0.3632812 -0.2226563,0.7617187 -0.65625,0.7617187 -0.1875,0 -0.3398438,-0.058594 -0.46875,-0.2578125 -0.1289063,-0.1992187 -0.140625,-0.3867187 -0.140625,-0.609375 0,-0.1992187 0,-0.421875 0.1523437,-0.6328125 0.1054688,-0.1523437 0.2578125,-0.2695312 0.5039063,-0.2695312 0.4804687,0 0.5859375,0.5742187 0.597656,0.9023437 z m 0,0"
       style="fill:#000000;fill-opacity:1;fill-rule:nonzero;stroke:none"
       aria-label="29"
       transform="matrix(1.3333333,0,0,1.3333333,50.445333,168.37467)" />
    <path
       id="path61"
       d="m 10.434,-111.14862 c 0,1.37787 -1.11695,2.49482 -2.49482,2.49482 -1.37785,0 -2.49483,-1.11695 -2.49483,-2.49482 0,-1.37785 1.11698,-2.49483 2.49483,-2.49483 1.37787,0 2.49482,1.11698 2.49482,2.49483 z"
       style="fill:#bfbfbf;fill-opacity:1;fill-rule:nonzero;stroke:none"
       transform="matrix(1.3333333,0,0,-1.3333333,74.234667,17.998667)" />
    <path
       id="path62"
       d="M 0.50299219,-2.5544375 C 0.70221094,-2.952875 1.0654922,-3.0583437 1.2998672,-3.0583437 c 0.2929687,0 0.515625,0.1640625 0.515625,0.4453125 0,0.2695312 -0.1875,0.5859375 -0.5625,0.65625 -0.023437,0 -0.046875,0 -0.37500001,0.035156 V -1.5935 H 1.2647109 c 0.4804688,0 0.65625,0.3632813 0.65625,0.6796875 0,0.38671875 -0.2460937,0.69140625 -0.6328125,0.69140625 -0.35156246,0 -0.76171871,-0.17578125 -1.00781246,-0.4921875 l -0.0585938,0.328125 c 0.28125,0.31640625 0.69140625,0.4921875 1.07812506,0.4921875 0.6562499,0 1.125,-0.4921875 1.125,-1.0078125 0,-0.41015625 -0.328125,-0.73828125 -0.7265626,-0.85546875 0.3750001,-0.1992187 0.5742187,-0.5273437 0.5742187,-0.8554687 0,-0.421875 -0.4335937,-0.7617188 -0.9726562,-0.7617188 -0.43359371,0 -0.79687496,0.234375 -1.00781246,0.5273438 z m 4.57031251,0.9375 c 0,-0.2460937 0,-0.8203125 -0.234375,-1.2304687 C 4.5928359,-3.2927187 4.2061172,-3.37475 3.9717422,-3.37475 c -0.2226563,0 -0.6210938,0.070312 -0.8671875,0.5039063 -0.234375,0.3984375 -0.2460938,0.9375 -0.2460938,1.2539062 0,0.3632813 0.023437,0.8203125 0.2226563,1.1953125 0.2226562,0.41015625 0.5976562,0.52734375 0.890625,0.52734375 0.4921875,0 0.7734375,-0.29296875 0.9140625,-0.609375 0.1757812,-0.3515625 0.1875,-0.80859375 0.1875,-1.11328125 z m -1.1015625,1.39453125 c -0.2109375,0 -0.4570313,-0.1171875 -0.5742188,-0.48046875 -0.1054687,-0.3046875 -0.1054687,-0.6210937 -0.1054687,-0.984375 0,-0.4570312 0,-1.359375 0.6796875,-1.359375 0.6679687,0 0.6679687,0.9023438 0.6679687,1.359375 0,0.328125 0,0.703125 -0.1171875,1.01953125 -0.140625,0.36328125 -0.3867187,0.4453125 -0.5507812,0.4453125 z m 0,0"
       style="fill:#000000;fill-opacity:1;fill-rule:nonzero;stroke:none"
       aria-label="30"
       transform="matrix(1.3333333,0,0,1.3333333,101.552,168.37467)" />
    <path
       id="path63"
       d="m 2.49481,-119.0878 c 0,1.37785 -1.11696,2.49483 -2.49481,2.49483 -1.37785,0 -2.49481,-1.11698 -2.49481,-2.49483 0,-1.37787 1.11696,-2.49483 2.49481,-2.49483 1.37785,0 2.49481,1.11696 2.49481,2.49483 z"
       style="fill:#bfbfbf;fill-opacity:1;fill-rule:nonzero;stroke:none"
       transform="matrix(1.3333333,0,0,-1.3333333,74.234667,17.998667)" />
    <path
       id="path64"
       d="m 0.50389062,-2.5539844 c 0.19921875,-0.3984375 0.56249998,-0.5039062 0.79687498,-0.5039062 0.2929688,0 0.515625,0.1640625 0.515625,0.4453125 0,0.2695312 -0.1875,0.5859375 -0.5625,0.65625 -0.023437,0 -0.046875,0 -0.37499998,0.035156 v 0.328125 H 1.2656094 c 0.4804687,0 0.65625,0.3632813 0.65625,0.67968753 0,0.38671875 -0.2460938,0.69140625 -0.6328125,0.69140625 -0.35156253,0 -0.76171878,-0.17578125 -1.00781253,-0.4921875 l -0.0585938,0.328125 c 0.28125,0.31640625 0.69140625,0.4921875 1.07812493,0.4921875 0.65625,0 1.1250001,-0.4921875 1.1250001,-1.0078125 0,-0.41015628 -0.328125,-0.73828128 -0.7265626,-0.85546878 0.3750001,-0.1992187 0.5742189,-0.5273437 0.5742189,-0.8554687 0,-0.421875 -0.4335938,-0.7617188 -0.9726564,-0.7617188 -0.43359368,0 -0.79687493,0.234375 -1.00781243,0.5273438 z M 4.2392422,-3.3742969 H 4.1337734 c -0.328125,0.3046875 -0.7265625,0.3164063 -1.03125,0.328125 v 0.3164063 c 0.1992188,0 0.4453125,-0.011719 0.6914063,-0.1171875 v 2.53124998 h -0.65625 V 7.03125e-4 H 4.9072109 V -0.31570312 H 4.2392422 Z m 0,0"
       style="fill:#000000;fill-opacity:1;fill-rule:nonzero;stroke:none"
       aria-label="31"
       transform="matrix(1.3333333,0,0,1.3333333,50.445333,178.96)" />
    <path
       id="path65"
       d="m 10.434,-119.0878 c 0,1.37785 -1.11695,2.49483 -2.49482,2.49483 -1.37785,0 -2.49483,-1.11698 -2.49483,-2.49483 0,-1.37787 1.11698,-2.49483 2.49483,-2.49483 1.37787,0 2.49482,1.11696 2.49482,2.49483 z"
       style="fill:#bfbfbf;fill-opacity:1;fill-rule:nonzero;stroke:none"
       transform="matrix(1.3333333,0,0,-1.3333333,74.234667,17.998667)" />
    <path
       id="path66"
       d="m 0.50299219,-2.5539844 c 0.19921875,-0.3984375 0.56250001,-0.5039062 0.79687501,-0.5039062 0.2929687,0 0.515625,0.1640625 0.515625,0.4453125 0,0.2695312 -0.1875,0.5859375 -0.5625,0.65625 -0.023437,0 -0.046875,0 -0.37500001,0.035156 v 0.328125 H 1.2647109 c 0.4804688,0 0.65625,0.3632813 0.65625,0.67968753 0,0.38671875 -0.2460937,0.69140625 -0.6328125,0.69140625 -0.35156246,0 -0.76171871,-0.17578125 -1.00781246,-0.4921875 l -0.0585938,0.328125 c 0.28125,0.31640625 0.69140625,0.4921875 1.07812506,0.4921875 0.6562499,0 1.125,-0.4921875 1.125,-1.0078125 0,-0.41015628 -0.328125,-0.73828128 -0.7265626,-0.85546878 0.3750001,-0.1992187 0.5742187,-0.5273437 0.5742187,-0.8554687 0,-0.421875 -0.4335937,-0.7617188 -0.9726562,-0.7617188 -0.43359371,0 -0.79687496,0.234375 -1.00781246,0.5273438 z m 3.55078121,2.16796878 c -0.058594,0 -0.1171875,0.0117188 -0.1757812,0.0117188 h -0.5625 L 4.0772109,-1.0657031 c 0.09375,-0.070312 0.3398438,-0.2578125 0.4335938,-0.3398438 0.2226562,-0.1992187 0.515625,-0.4570312 0.515625,-0.890625 0,-0.5625 -0.421875,-1.078125 -1.1367188,-1.078125 -0.5273437,0 -0.8554687,0.28125 -1.0195312,0.796875 l 0.234375,0.2929688 c 0.1054687,-0.421875 0.28125,-0.7382813 0.7148437,-0.7382813 0.421875,0 0.7382813,0.2929688 0.7382813,0.7382813 0,0.4101562 -0.2460938,0.6445312 -0.5390625,0.9257812 -0.1054688,0.1054688 -0.375,0.328125 -0.46875,0.43359378 -0.1523438,0.12890625 -0.4921875,0.45703125 -0.6328125,0.5859375 V 7.03125e-4 h 2.109375 V -0.38601562 Z m 0,0"
       style="fill:#000000;fill-opacity:1;fill-rule:nonzero;stroke:none"
       aria-label="32"
       transform="matrix(1.3333333,0,0,1.3333333,101.552,178.96)" />
    <path
       id="path67"
       d="m 2.49481,-127.027 c 0,1.37786 -1.11696,2.49483 -2.49481,2.49483 -1.37785,0 -2.49481,-1.11697 -2.49481,-2.49483 0,-1.37786 1.11696,-2.49482 2.49481,-2.49482 1.37785,0 2.49481,1.11696 2.49481,2.49482 z"
       style="fill:#bfbfbf;fill-opacity:1;fill-rule:nonzero;stroke:none"
       transform="matrix(1.3333333,0,0,-1.3333333,74.234667,17.998667)" />
    <path
       id="path68"
       d="m 0.50389062,-2.5535313 c 0.19921875,-0.3984375 0.56249998,-0.5039062 0.79687498,-0.5039062 0.2929688,0 0.515625,0.1640625 0.515625,0.4453125 0,0.2695312 -0.1875,0.5859375 -0.5625,0.65625 -0.023437,0 -0.046875,0 -0.37499998,0.035156 v 0.328125 H 1.2656094 c 0.4804687,0 0.65625,0.3632813 0.65625,0.67968755 0,0.38671875 -0.2460938,0.69140625 -0.6328125,0.69140625 -0.35156253,0 -0.76171878,-0.17578125 -1.00781253,-0.4921875 l -0.0585938,0.328125 c 0.28125,0.31640625 0.69140625,0.4921875 1.07812493,0.4921875 0.65625,0 1.1250001,-0.4921875 1.1250001,-1.0078125 0,-0.4101563 -0.328125,-0.7382813 -0.7265626,-0.8554688 0.3750001,-0.1992187 0.5742189,-0.5273437 0.5742189,-0.8554687 0,-0.421875 -0.4335938,-0.7617188 -0.9726564,-0.7617188 -0.43359368,0 -0.79687493,0.234375 -1.00781243,0.5273438 z m 2.64550778,0 c 0.1992188,-0.3984375 0.5625,-0.5039062 0.796875,-0.5039062 0.2929688,0 0.515625,0.1640625 0.515625,0.4453125 0,0.2695312 -0.1875,0.5859375 -0.5625,0.65625 -0.023437,0 -0.046875,0 -0.375,0.035156 v 0.328125 h 0.3867188 c 0.4804687,0 0.65625,0.3632813 0.65625,0.67968755 0,0.38671875 -0.2460938,0.69140625 -0.6328125,0.69140625 -0.3515625,0 -0.7617188,-0.17578125 -1.0078125,-0.4921875 l -0.058594,0.328125 c 0.28125,0.31640625 0.6914063,0.4921875 1.078125,0.4921875 0.65625,0 1.125,-0.4921875 1.125,-1.0078125 0,-0.4101563 -0.328125,-0.7382813 -0.7265625,-0.8554688 0.375,-0.1992187 0.5742188,-0.5273437 0.5742188,-0.8554687 0,-0.421875 -0.4335938,-0.7617188 -0.9726563,-0.7617188 -0.4335937,0 -0.796875,0.234375 -1.0078125,0.5273438 z m 0,0"
       style="fill:#000000;fill-opacity:1;fill-rule:nonzero;stroke:none"
       aria-label="33"
       transform="matrix(1.3333333,0,0,1.3333333,50.445333,189.54533)" />
    <path
       id="path69"
       d="m 10.434,-127.027 c 0,1.37786 -1.11695,2.49483 -2.49482,2.49483 -1.37785,0 -2.49483,-1.11697 -2.49483,-2.49483 0,-1.37786 1.11698,-2.49482 2.49483,-2.49482 1.37787,0 2.49482,1.11696 2.49482,2.49482 z"
       style="fill:#bfbfbf;fill-opacity:1;fill-rule:nonzero;stroke:none"
       transform="matrix(1.3333333,0,0,-1.3333333,74.234667,17.998667)" />
    <path
       id="path70"
       d="m 0.50299219,-2.5535313 c 0.19921875,-0.3984375 0.56250001,-0.5039062 0.79687501,-0.5039062 0.2929687,0 0.515625,0.1640625 0.515625,0.4453125 0,0.2695312 -0.1875,0.5859375 -0.5625,0.65625 -0.023437,0 -0.046875,0 -0.37500001,0.035156 v 0.328125 H 1.2647109 c 0.4804688,0 0.65625,0.3632813 0.65625,0.67968755 0,0.38671875 -0.2460937,0.69140625 -0.6328125,0.69140625 -0.35156246,0 -0.76171871,-0.17578125 -1.00781246,-0.4921875 l -0.0585938,0.328125 c 0.28125,0.31640625 0.69140625,0.4921875 1.07812506,0.4921875 0.6562499,0 1.125,-0.4921875 1.125,-1.0078125 0,-0.4101563 -0.328125,-0.7382813 -0.7265626,-0.8554688 0.3750001,-0.1992187 0.5742187,-0.5273437 0.5742187,-0.8554687 0,-0.421875 -0.4335937,-0.7617188 -0.9726562,-0.7617188 -0.43359371,0 -0.79687496,0.234375 -1.00781246,0.5273438 z M 4.6162734,-0.830875 H 5.1436172 V -1.159 H 4.6162734 V -3.268375 H 4.1240859 L 2.7998672,-1.159 v 0.328125 h 1.3945312 v 0.83203125 h 0.421875 z M 3.2217422,-1.159 C 3.3740859,-1.393375 4.2295547,-2.7175938 4.2295547,-3.0222813 V -1.159 Z m 0,0"
       style="fill:#000000;fill-opacity:1;fill-rule:nonzero;stroke:none"
       aria-label="34"
       transform="matrix(1.3333333,0,0,1.3333333,101.552,189.54533)" />
    <path
       id="path71"
       d="m 2.49481,-134.96619 c 0,1.37787 -1.11696,2.49483 -2.49481,2.49483 -1.37785,0 -2.49481,-1.11696 -2.49481,-2.49483 0,-1.37785 1.11696,-2.49482 2.49481,-2.49482 1.37785,0 2.49481,1.11697 2.49481,2.49482 z"
       style="fill:#bfbfbf;fill-opacity:1;fill-rule:nonzero;stroke:none"
       transform="matrix(1.3333333,0,0,-1.3333333,74.234667,17.998667)" />
    <path
       id="path72"
       d="m 0.50389062,-2.5560078 c 0.19921875,-0.3984375 0.56249998,-0.5039063 0.79687498,-0.5039063 0.2929688,0 0.515625,0.1640625 0.515625,0.4453125 0,0.2695313 -0.1875,0.5859375 -0.5625,0.65625 -0.023437,0 -0.046875,0 -0.37499998,0.035156 v 0.328125 H 1.2656094 c 0.4804687,0 0.65625,0.3632812 0.65625,0.67968749 0,0.38671875 -0.2460938,0.69140625 -0.6328125,0.69140625 -0.35156253,0 -0.76171878,-0.17578125 -1.00781253,-0.4921875 l -0.0585938,0.328125 c 0.28125,0.31640625 0.69140625,0.4921875 1.07812493,0.4921875 0.65625,0 1.1250001,-0.4921875 1.1250001,-1.0078125 0,-0.41015624 -0.328125,-0.73828124 -0.7265626,-0.85546874 0.3750001,-0.1992188 0.5742189,-0.5273438 0.5742189,-0.8554688 0,-0.421875 -0.4335938,-0.7617187 -0.9726564,-0.7617187 -0.43359368,0 -0.79687493,0.234375 -1.00781243,0.5273437 z M 3.4658047,-2.9192891 H 4.8368984 V -3.2708516 H 3.0673672 v 1.8632813 h 0.3632812 c 0.1171875,-0.2695313 0.3515625,-0.3867188 0.5742188,-0.3867188 0.1992187,0 0.515625,0.140625 0.515625,0.7734375 0,0.65625004 -0.4101563,0.79687504 -0.6679688,0.79687504 -0.328125,0 -0.6445312,-0.17578125 -0.8203125,-0.45703125 l -0.1875,0.29296875 c 0.2460938,0.3046875 0.609375,0.4921875 1.0078125,0.4921875 0.65625,0 1.171875,-0.50390625 1.171875,-1.11328124 0,-0.6210938 -0.4570312,-1.1132813 -1.0078125,-1.1132813 -0.2109375,0 -0.4101562,0.070312 -0.5507812,0.1992188 z m 0,0"
       style="fill:#000000;fill-opacity:1;fill-rule:nonzero;stroke:none"
       aria-label="35"
       transform="matrix(1.3333333,0,0,1.3333333,50.445333,200.13067)" />
    <path
       id="path73"
       d="m 10.434,-134.96619 c 0,1.37787 -1.11695,2.49483 -2.49482,2.49483 -1.37785,0 -2.49483,-1.11696 -2.49483,-2.49483 0,-1.37785 1.11698,-2.49482 2.49483,-2.49482 1.37787,0 2.49482,1.11697 2.49482,2.49482 z"
       style="fill:#bfbfbf;fill-opacity:1;fill-rule:nonzero;stroke:none"
       transform="matrix(1.3333333,0,0,-1.3333333,74.234667,17.998667)" />
    <path
       id="path74"
       d="m 0.50299219,-2.5560078 c 0.19921875,-0.3984375 0.56250001,-0.5039063 0.79687501,-0.5039063 0.2929687,0 0.515625,0.1640625 0.515625,0.4453125 0,0.2695313 -0.1875,0.5859375 -0.5625,0.65625 -0.023437,0 -0.046875,0 -0.37500001,0.035156 v 0.328125 H 1.2647109 c 0.4804688,0 0.65625,0.3632812 0.65625,0.67968749 0,0.38671875 -0.2460937,0.69140625 -0.6328125,0.69140625 -0.35156246,0 -0.76171871,-0.17578125 -1.00781246,-0.4921875 l -0.0585938,0.328125 c 0.28125,0.31640625 0.69140625,0.4921875 1.07812506,0.4921875 0.6562499,0 1.125,-0.4921875 1.125,-1.0078125 0,-0.41015624 -0.328125,-0.73828124 -0.7265626,-0.85546874 0.3750001,-0.1992188 0.5742187,-0.5273438 0.5742187,-0.8554688 0,-0.421875 -0.4335937,-0.7617187 -0.9726562,-0.7617187 -0.43359371,0 -0.79687496,0.234375 -1.00781246,0.5273437 z M 4.8389297,-3.2708516 c -0.2695313,-0.1054687 -0.46875,-0.1054687 -0.5625,-0.1054687 -0.75,0 -1.40625,0.7148437 -1.40625,1.7695312 0,1.34765629 0.609375,1.71093754 1.1015625,1.71093754 0.4101562,0 0.6210937,-0.1875 0.7734375,-0.3515625 0.3164062,-0.33984375 0.328125,-0.69140625 0.328125,-0.86718754 0,-0.6445312 -0.3632813,-1.1953125 -0.84375,-1.1953125 -0.4804688,0 -0.75,0.2578125 -0.890625,0.3984375 0.058594,-0.6796875 0.4101562,-1.1484375 0.9492187,-1.1484375 0.09375,0 0.2929688,0 0.5507813,0.1054688 z m -1.5,2.1679688 c 0,-0.023437 0,-0.09375 0.011719,-0.1289063 0,-0.328125 0.2109375,-0.75 0.65625,-0.75 0.5976563,0 0.5976563,0.703125 0.5976563,0.8671875 0,0.18750004 0,0.39843754 -0.1289063,0.60937504 -0.1171875,0.17578125 -0.2695312,0.28125 -0.5039062,0.28125 -0.5273438,0 -0.609375,-0.65625 -0.6328128,-0.87890624 z m 0,0"
       style="fill:#000000;fill-opacity:1;fill-rule:nonzero;stroke:none"
       aria-label="36"
       transform="matrix(1.3333333,0,0,1.3333333,101.552,200.13067)" />
    <path
       id="path75"
       d="m 2.49481,-142.90536 c 0,1.37785 -1.11696,2.49482 -2.49481,2.49482 -1.37785,0 -2.49481,-1.11697 -2.49481,-2.49482 0,-1.37787 1.11696,-2.49483 2.49481,-2.49483 1.37785,0 2.49481,1.11696 2.49481,2.49483 z"
       style="fill:#bfbfbf;fill-opacity:1;fill-rule:nonzero;stroke:none"
       transform="matrix(1.3333333,0,0,-1.3333333,74.234667,17.998667)" />
    <path
       id="path76"
       d="m 0.50389062,-2.5555547 c 0.19921875,-0.3984375 0.56249998,-0.5039062 0.79687498,-0.5039062 0.2929688,0 0.515625,0.1640625 0.515625,0.4453125 0,0.2695312 -0.1875,0.5859375 -0.5625,0.65625 -0.023437,0 -0.046875,0 -0.37499998,0.035156 v 0.328125 H 1.2656094 c 0.4804687,0 0.65625,0.3632813 0.65625,0.67968751 0,0.38671875 -0.2460938,0.69140625 -0.6328125,0.69140625 -0.35156253,0 -0.76171878,-0.17578125 -1.00781253,-0.4921875 l -0.0585938,0.328125 c 0.28125,0.31640625 0.69140625,0.4921875 1.07812493,0.4921875 0.65625,0 1.1250001,-0.4921875 1.1250001,-1.0078125 0,-0.41015626 -0.328125,-0.73828126 -0.7265626,-0.85546876 0.3750001,-0.1992187 0.5742189,-0.5273437 0.5742189,-0.8554687 0,-0.421875 -0.4335938,-0.7617188 -0.9726564,-0.7617188 -0.43359368,0 -0.79687493,0.234375 -1.00781243,0.5273438 z m 3.37207028,-0.328125 c 0.058594,0 0.1171875,-0.011719 0.1757813,-0.011719 h 0.6328125 c -0.7617188,0.75 -1.2421875,1.7929687 -1.2421875,2.94140621 h 0.46875 c 0,-1.45312501 0.703125,-2.49609371 1.1601562,-2.96484371 V -3.2703987 H 2.8681484 V -2.88368 Z m 0,0"
       style="fill:#000000;fill-opacity:1;fill-rule:nonzero;stroke:none"
       aria-label="37"
       transform="matrix(1.3333333,0,0,1.3333333,50.445333,210.716)" />
    <path
       id="path77"
       d="m 10.434,-142.90536 c 0,1.37785 -1.11695,2.49482 -2.49482,2.49482 -1.37785,0 -2.49483,-1.11697 -2.49483,-2.49482 0,-1.37787 1.11698,-2.49483 2.49483,-2.49483 1.37787,0 2.49482,1.11696 2.49482,2.49483 z"
       style="fill:#bfbfbf;fill-opacity:1;fill-rule:nonzero;stroke:none"
       transform="matrix(1.3333333,0,0,-1.3333333,74.234667,17.998667)" />
    <path
       id="path78"
       d="m 0.50299219,-2.5555547 c 0.19921875,-0.3984375 0.56250001,-0.5039062 0.79687501,-0.5039062 0.2929687,0 0.515625,0.1640625 0.515625,0.4453125 0,0.2695312 -0.1875,0.5859375 -0.5625,0.65625 -0.023437,0 -0.046875,0 -0.37500001,0.035156 v 0.328125 H 1.2647109 c 0.4804688,0 0.65625,0.3632813 0.65625,0.67968751 0,0.38671875 -0.2460937,0.69140625 -0.6328125,0.69140625 -0.35156246,0 -0.76171871,-0.17578125 -1.00781246,-0.4921875 l -0.0585938,0.328125 c 0.28125,0.31640625 0.69140625,0.4921875 1.07812506,0.4921875 0.6562499,0 1.125,-0.4921875 1.125,-1.0078125 0,-0.41015626 -0.328125,-0.73828126 -0.7265626,-0.85546876 0.3750001,-0.1992187 0.5742187,-0.5273437 0.5742187,-0.8554687 0,-0.421875 -0.4335937,-0.7617188 -0.9726562,-0.7617188 -0.43359371,0 -0.79687496,0.234375 -1.00781246,0.5273438 z m 3.84375001,0.796875 c 0.328125,-0.1054687 0.6445312,-0.375 0.6445312,-0.7382812 0,-0.4570313 -0.4335937,-0.8789063 -1.0195312,-0.8789063 -0.5976563,0 -1.03125,0.421875 -1.03125,0.8789063 0,0.375 0.328125,0.6328125 0.6445312,0.7382812 -0.4335937,0.1289063 -0.7148437,0.46875 -0.7148437,0.85546876 0,0.52734375 0.46875,1.0078125 1.1015625,1.0078125 0.6210937,0 1.1015625,-0.48046875 1.1015625,-1.0078125 0,-0.38671876 -0.2929688,-0.72656246 -0.7265625,-0.85546876 z m -0.375,-0.1640625 c -0.3632813,0 -0.6445313,-0.2109375 -0.6445313,-0.5742187 0,-0.3164063 0.2226563,-0.5625 0.6445313,-0.5625 0.4101562,0 0.6328125,0.2460937 0.6328125,0.5625 0,0.3515625 -0.2695313,0.5742187 -0.6328125,0.5742187 z m 0,1.69921876 c -0.3515625,0 -0.65625,-0.22265625 -0.65625,-0.69140625 0,-0.44531251 0.2929687,-0.67968751 0.65625,-0.67968751 0.3515625,0 0.6445312,0.234375 0.6445312,0.67968751 0,0.46875 -0.3046875,0.69140625 -0.6445312,0.69140625 z m 0,0"
       style="fill:#000000;fill-opacity:1;fill-rule:nonzero;stroke:none"
       aria-label="38"
       transform="matrix(1.3333333,0,0,1.3333333,101.552,210.716)" />
    <path
       id="path79"
       d="m 2.49481,-150.84456 c 0,1.37787 -1.11696,2.49483 -2.49481,2.49483 -1.37785,0 -2.49481,-1.11696 -2.49481,-2.49483 0,-1.37785 1.11696,-2.49483 2.49481,-2.49483 1.37785,0 2.49481,1.11698 2.49481,2.49483 z"
       style="fill:#bfbfbf;fill-opacity:1;fill-rule:nonzero;stroke:none"
       transform="matrix(1.3333333,0,0,-1.3333333,74.234667,17.998667)" />
    <path
       id="path80"
       d="m 0.50389062,-2.5551016 c 0.19921875,-0.3984375 0.56249998,-0.5039062 0.79687498,-0.5039062 0.2929688,0 0.515625,0.1640625 0.515625,0.4453125 0,0.2695312 -0.1875,0.5859375 -0.5625,0.65625 -0.023437,0 -0.046875,0 -0.37499998,0.035156 v 0.328125 H 1.2656094 c 0.4804687,0 0.65625,0.3632813 0.65625,0.67968754 0,0.38671875 -0.2460938,0.69140625 -0.6328125,0.69140625 -0.35156253,0 -0.76171878,-0.17578125 -1.00781253,-0.4921875 l -0.0585938,0.328125 c 0.28125,0.31640625 0.69140625,0.4921875 1.07812493,0.4921875 0.65625,0 1.1250001,-0.4921875 1.1250001,-1.0078125 0,-0.41015629 -0.328125,-0.73828129 -0.7265626,-0.85546879 0.3750001,-0.1992187 0.5742189,-0.5273437 0.5742189,-0.8554687 0,-0.421875 -0.4335938,-0.7617188 -0.9726564,-0.7617188 -0.43359368,0 -0.79687493,0.234375 -1.00781243,0.5273438 z m 2.52832028,2.42578129 c 0.2460938,0.1875 0.46875,0.234375 0.703125,0.234375 0.6914063,0 1.3359375,-0.703125 1.3359375,-1.76953129 0,-1.359375 -0.609375,-1.7109375 -1.0898437,-1.7109375 -0.4335938,0 -0.6445313,0.2109375 -0.7851563,0.3515625 -0.3164062,0.328125 -0.328125,0.6679688 -0.328125,0.8671875 0,0.6445313 0.3398438,1.19531254 0.8320313,1.19531254 0.5625,0 0.8671875,-0.37500004 0.9023437,-0.39843754 -0.070312,0.78515629 -0.4570312,1.13671879 -0.8671875,1.13671879 -0.2578125,0 -0.421875,-0.09375 -0.5390625,-0.1875 z m 1.546875,-2.02734379 c 0.011719,0.023437 0.011719,0.070312 0.011719,0.1054688 0,0.3632812 -0.2226563,0.7617187 -0.65625,0.7617187 -0.1875,0 -0.3398438,-0.058594 -0.46875,-0.2578125 -0.1289063,-0.1992187 -0.140625,-0.3867187 -0.140625,-0.609375 0,-0.1992187 0,-0.421875 0.1523437,-0.6328125 0.1054688,-0.1523437 0.2578125,-0.2695312 0.5039063,-0.2695312 0.4804687,0 0.5859375,0.5742187 0.597656,0.9023437 z m 0,0"
       style="fill:#000000;fill-opacity:1;fill-rule:nonzero;stroke:none"
       aria-label="39"
       transform="matrix(1.3333333,0,0,1.3333333,50.445333,221.30133)" />
    <path
       id="path81"
       d="m 10.434,-150.84456 c 0,1.37787 -1.11695,2.49483 -2.49482,2.49483 -1.37785,0 -2.49483,-1.11696 -2.49483,-2.49483 0,-1.37785 1.11698,-2.49483 2.49483,-2.49483 1.37787,0 2.49482,1.11698 2.49482,2.49483 z"
       style="fill:#bfbfbf;fill-opacity:1;fill-rule:nonzero;stroke:none"
       transform="matrix(1.3333333,0,0,-1.3333333,74.234667,17.998667)" />
    <path
       id="path82"
       d="M 1.9678359,-0.83244531 H 2.4951797 V -1.1605703 H 1.9678359 v -2.109375 H 1.4756484 l -1.32421871,2.109375 v 0.32812499 H 1.5459609 v 0.8320312475 h 0.421875 z M 0.57330469,-1.1605703 C 0.72564844,-1.3949453 1.5811172,-2.7191641 1.5811172,-3.0238516 v 1.8632813 z M 5.0733047,-1.6176016 c 0,-0.2460937 0,-0.8203125 -0.234375,-1.2304687 -0.2460938,-0.4453125 -0.6328125,-0.5273438 -0.8671875,-0.5273438 -0.2226563,0 -0.6210938,0.070312 -0.8671875,0.5039063 -0.234375,0.3984375 -0.2460938,0.9375 -0.2460938,1.2539062 0,0.3632813 0.023437,0.82031254 0.2226563,1.19531254 0.2226562,0.41015625 0.5976562,0.52734375 0.890625,0.52734375 0.4921875,0 0.7734375,-0.29296875 0.9140625,-0.609375 0.1757812,-0.3515625 0.1875,-0.80859379 0.1875,-1.11328129 z m -1.1015625,1.39453129 c -0.2109375,0 -0.4570313,-0.1171875 -0.5742188,-0.48046875 C 3.2920547,-1.0082266 3.2920547,-1.3246328 3.2920547,-1.6879141 c 0,-0.4570312 0,-1.359375 0.6796875,-1.359375 0.6679687,0 0.6679687,0.9023438 0.6679687,1.359375 0,0.328125 0,0.70312504 -0.1171875,1.01953129 -0.140625,0.36328125 -0.3867187,0.4453125 -0.5507812,0.4453125 z m 0,0"
       style="fill:#000000;fill-opacity:1;fill-rule:nonzero;stroke:none"
       aria-label="40"
       transform="matrix(1.3333333,0,0,1.3333333,101.552,221.30133)" />
    <path
       id="path83"
       d="m 0,10.58559 h 15.87837 v -161.43015 -10.58559 H 0"
       style="fill:none;stroke:#000000;stroke-width:0.3985;stroke-linecap:butt;stroke-linejoin:miter;stroke-miterlimit:10;stroke-dasharray:none;stroke-opacity:1"
       transform="matrix(1.3333333,0,0,-1.3333333,74.234667,17.998667)" />
    <path
       id="path84"
       d="M 0,10.58559 H -7.93918 V -71.45268"
       style="fill:none;stroke:#000000;stroke-width:0.3985;stroke-linecap:butt;stroke-linejoin:miter;stroke-miterlimit:10;stroke-dasharray:none;stroke-opacity:1"
       transform="matrix(1.3333333,0,0,-1.3333333,74.234667,17.998667)" />
    <path
       id="path85"
       d="m 0,-161.43015 h -7.93918 v 82.03829"
       style="fill:none;stroke:#000000;stroke-width:0.3985;stroke-linecap:butt;stroke-linejoin:miter;stroke-miterlimit:10;stroke-dasharray:none;stroke-opacity:1"
       transform="matrix(1.3333333,0,0,-1.3333333,74.234667,17.998667)" />
    <path
       id="path86"
       d="m 1.5247187,-3.7388281 c -0.09375,0 -0.09375,0 -0.1640625,0.058594 -0.6210937,0.5507813 -0.93749995,1.4296875 -0.93749995,2.4375 0,0.93750002 0.28125,1.83984377 0.93749995,2.4257813 0.070312,0.058594 0.070312,0.058594 0.1640625,0.058594 h 0.234375 C 1.747375,1.2299219 1.2669062,0.81976562 1.0325312,0.04632812 0.91534375,-0.34039063 0.85675,-0.75054688 0.85675,-1.2427344 c 0,-1.7226562 0.8085937,-2.4140625 0.9023437,-2.4960937 z m 4.0722657,1.5234375 H 5.2102656 c -0.046875,0.140625 -0.328125,0.984375 -0.4804687,1.49999997 -0.046875,0.15234375 -0.09375,0.3046875 -0.1054688,0.421875 H 4.6126094 C 4.5891719,-0.50445313 4.4133906,-1.0317969 4.4016719,-1.0669531 L 4.0383906,-2.2153906 H 3.6516719 c -0.140625,0.4335937 -0.515625,1.54687497 -0.5507813,1.91015622 H 3.0891719 C 3.0540156,-0.65679688 2.6907344,-1.7583594 2.6087031,-1.9927344 2.5618281,-2.1216406 2.5618281,-2.1216406 2.5383906,-2.2153906 H 2.1282344 l 0.7265625,2.214843725 h 0.421875 C 3.2883906,-0.02398438 3.4172969,-0.41070313 3.5930781,-0.96148438 3.6633906,-1.2075781 3.8157344,-1.6880469 3.8391719,-1.9107031 h 0.011719 c 0,0.1054687 0.035156,0.2109375 0.070312,0.3398437 0.035156,0.1171875 0.070312,0.2578125 0.1054688,0.375 l 0.3867187,1.195312525 h 0.4570313 z m 2.3964843,0.7382812 c 0,-0.3867187 -0.1171875,-0.7851562 -0.7265625,-0.7851562 -0.4335937,0 -0.6679687,0.2460937 -0.7617187,0.3515625 v -1.546875 H 6.0833125 V -5.46875e-4 H 6.5169062 V -1.2075781 c 0,-0.328125 0.140625,-0.7265625 0.5273438,-0.7265625 0.515625,0 0.515625,0.3515625 0.515625,0.4921875 V -5.46875e-4 H 7.9934687 Z M 9.2854609,-3.4224219 H 8.7815547 v 0.5039063 h 0.5039062 z m -0.046875,1.2070313 H 8.8284297 v 2.214843725 h 0.4101562 z m 1.3681641,0.3164062 h 0.738281 V -2.2153906 H 10.60675 v -0.6328125 h -0.386719 v 0.6328125 H 9.7747187 v 0.3164062 h 0.4335933 v 1.26562502 c 0,0.328125 0.08203,0.6796875 0.445313,0.6796875 0.351562,0 0.632812,-0.1171875 0.773437,-0.17578125 l -0.08203,-0.328125 c -0.164062,0.12890625 -0.339844,0.1640625 -0.480469,0.1640625 -0.199218,0 -0.257812,-0.2109375 -0.257812,-0.43359375 z m 3.117187,1.35937502 c -0.28125,0.19921875 -0.597656,0.2578125 -0.808593,0.2578125 -0.433594,0 -0.761719,-0.3515625 -0.773438,-0.80859372 h 1.628906 c 0,-0.234375 -0.02344,-0.5625 -0.222656,-0.84375 -0.175781,-0.2578125 -0.46875,-0.3515625 -0.714844,-0.3515625 -0.609375,0 -1.078125,0.5273437 -1.078125,1.1601562 0,0.64453127 0.492188,1.17187502 1.148438,1.17187502 0.292969,0 0.597656,-0.08203125 0.84375,-0.234375 z M 12.177062,-1.3950781 c 0.105469,-0.3984375 0.398438,-0.5625 0.65625,-0.5625 0.210938,0 0.539063,0.1054687 0.632813,0.5625 z m 2.282227,2.6367187 c 0.09375,0 0.105469,0 0.164063,-0.046875 0.621093,-0.55078123 0.9375,-1.44140623 0.9375,-2.4375 0,-0.9492187 -0.28125,-1.8515625 -0.9375,-2.4257812 -0.05859,-0.070312 -0.07031,-0.070312 -0.164063,-0.070312 h -0.234375 c 0.01172,0.011719 0.503906,0.421875 0.726563,1.2070312 0.117187,0.3867188 0.175781,0.796875 0.175781,1.2890625 0,1.72265627 -0.796875,2.4023438 -0.902344,2.484375 z M 18.5755,-2.9185156 h 1.371094 v -0.3515625 h -1.769532 v 1.8632812 h 0.363282 c 0.117187,-0.2695312 0.351562,-0.3867187 0.574218,-0.3867187 0.199219,0 0.515625,0.140625 0.515625,0.7734375 0,0.65624997 -0.410156,0.79687497 -0.667968,0.79687497 -0.328125,0 -0.644532,-0.17578125 -0.820313,-0.45703125 l -0.1875,0.29296875 c 0.246094,0.3046875 0.609375,0.4921875 1.007813,0.4921875 0.65625,0 1.171875,-0.50390625 1.171875,-1.11328127 0,-0.6210937 -0.457032,-1.1132812 -1.007813,-1.1132812 -0.210937,0 -0.410156,0.070312 -0.550781,0.1992187 z m 5.270508,-0.5390625 h -0.433594 l -0.621094,1.5351562 c -0.03516,0.082031 -0.527343,1.27734377 -0.574218,1.52343752 h -0.01172 c -0.04687,-0.24609375 -0.539063,-1.45312502 -0.5625,-1.50000002 l -0.644531,-1.5585937 h -0.527344 l 1.441406,3.457031225 h 0.503906 z m 0,0"
       style="fill:#000000;fill-opacity:1;fill-rule:nonzero;stroke:none"
       aria-label="(white)5V"
       transform="matrix(1.3333333,0,0,1.3333333,11.482667,72.586667)" />
    <path
       id="path87"
       d="m 1.522,-3.7386797 c -0.09375,0 -0.09375,0 -0.1640625,0.058594 -0.62109375,0.5507812 -0.9375,1.4296875 -0.9375,2.4375 0,0.93749996 0.28125,1.83984371 0.9375,2.4257812 C 1.42825,1.2417891 1.42825,1.2417891 1.522,1.2417891 H 1.756375 C 1.7446563,1.2300703 1.2641875,0.81991406 1.0298125,0.04647656 0.912625,-0.34024219 0.85403125,-0.75039844 0.85403125,-1.2425859 c 0,-1.7226563 0.80859375,-2.4140625 0.90234375,-2.4960938 z m 3.0439453,1.4765625 c -0.1171875,0 -0.4453125,0 -0.8203125,0.1523438 H 3.7339141 C 3.5581328,-2.2269609 3.3823516,-2.2621172 3.2300078,-2.2621172 c -0.4804687,0 -0.84375,0.3867188 -0.84375,0.8085938 0,0.1757812 0.058594,0.3515625 0.1757813,0.49218746 -0.070312,0.09375 -0.1523438,0.234375 -0.1523438,0.421875 0,0.1875 0.082031,0.31640625 0.1289063,0.375 -0.28125,0.1640625025 -0.328125,0.38671875 -0.328125,0.50390625 0,0.38671875 0.515625,0.67968749 1.171875,0.67968749 0.6445312,0 1.171875,-0.29296874 1.171875,-0.67968749 0,-0.703125 -0.8789063,-0.703125 -1.0898438,-0.703125 h -0.46875 c -0.070312,0 -0.2929687,0 -0.2929687,-0.2578125 0,-0.09375 0.035156,-0.140625 0.046875,-0.15234375 0.1757812,0.10546875 0.3398437,0.140625 0.4804687,0.140625 0.4921875,0 0.8554688,-0.38671876 0.8554688,-0.80859376 0,-0.1640625 -0.046875,-0.3046875 -0.140625,-0.4453125 -0.023437,-0.023437 -0.023437,-0.035156 -0.023437,-0.035156 0,-0.023437 0.3046875,-0.023437 0.328125,-0.023437 0,0 0.1992187,0 0.375,0.023437 z m -1.3359375,1.32421876 c -0.2695312,0 -0.46875,-0.17578126 -0.46875,-0.50390626 0,-0.3867187 0.2578125,-0.515625 0.46875,-0.515625 0.2695313,0 0.46875,0.1757813 0.46875,0.5039063 0,0.3867187 -0.2460937,0.51562496 -0.46875,0.51562496 z m 0.234375,0.97265625 c 0.1171875,0 0.703125,0 0.703125,0.31640625 0,0.2109375 -0.375,0.36328125 -0.7851562,0.36328125 -0.421875,0 -0.796875,-0.15234375 -0.796875,-0.36328125 0,-0.0234375 0,-0.31640625 0.3984375,-0.31640625 z M 5.5473906,-1.0668047 c 0,-0.5273437 0.4453125,-0.8203125 0.8789063,-0.8320312 v -0.3632813 c -0.4101563,0 -0.7148438,0.2109375 -0.9140625,0.46875 V -2.2503984 H 5.1255156 v 2.2499999625 h 0.421875 z m 3.1083985,0.52734376 c -0.28125,0.19921875 -0.5976563,0.2578125 -0.8085938,0.2578125 -0.4335937,0 -0.7617187,-0.3515625 -0.7734375,-0.80859376 h 1.6289063 c 0,-0.234375 -0.023437,-0.5625 -0.2226563,-0.84375 -0.1757812,-0.2578125 -0.46875,-0.3515625 -0.7148437,-0.3515625 -0.609375,0 -1.078125,0.5273438 -1.078125,1.1601563 0,0.64453121 0.4921875,1.17187496 1.1484375,1.17187496 0.2929687,0 0.5976562,-0.08203125 0.84375,-0.234375 z M 7.1089141,-1.3949297 c 0.1054687,-0.3984375 0.3984375,-0.5625 0.65625,-0.5625 0.2109375,0 0.5390625,0.1054688 0.6328125,0.5625 z m 3.8994139,0.85546876 c -0.28125,0.19921875 -0.597656,0.2578125 -0.808594,0.2578125 -0.4335934,0 -0.7617184,-0.3515625 -0.7734371,-0.80859376 h 1.6289061 c 0,-0.234375 -0.02344,-0.5625 -0.222656,-0.84375 -0.175781,-0.2578125 -0.46875,-0.3515625 -0.714844,-0.3515625 -0.6093749,0 -1.0781249,0.5273438 -1.0781249,1.1601563 0,0.64453121 0.4921875,1.17187496 1.1484379,1.17187496 0.292968,0 0.597656,-0.08203125 0.84375,-0.234375 z M 9.4614531,-1.3949297 c 0.1054688,-0.3984375 0.3984375,-0.5625 0.6562499,-0.5625 0.210938,0 0.539063,0.1054688 0.632813,0.5625 z m 4.0751949,-0.082031 c 0,-0.3867188 -0.117187,-0.7851563 -0.726562,-0.7851563 -0.292969,0 -0.5625,0.1171875 -0.785156,0.375 v -0.3632812 h -0.398438 v 2.2499999625 h 0.433594 V -1.2074297 c 0,-0.328125 0.140625,-0.7265625 0.527344,-0.7265625 0.515625,0 0.515625,0.3515625 0.515625,0.4921875 v 1.4414062625 h 0.433593 z m 0.94043,2.71875 c 0.09375,0 0.105469,0 0.164063,-0.046875 0.621093,-0.55078129 0.9375,-1.44140629 0.9375,-2.4375 0,-0.9492188 -0.28125,-1.8515625 -0.9375,-2.4257813 -0.05859,-0.070312 -0.07031,-0.070312 -0.164063,-0.070312 h -0.234375 c 0.01172,0.011719 0.503906,0.421875 0.726563,1.2070313 0.117187,0.3867187 0.175781,0.796875 0.175781,1.2890625 0,1.72265621 -0.796875,2.4023437 -0.902344,2.484375 z m 3.796875,-3.796875 c 0.199219,-0.3984375 0.5625,-0.5039063 0.796875,-0.5039063 0.292969,0 0.515625,0.1640625 0.515625,0.4453125 0,0.2695313 -0.1875,0.5859375 -0.5625,0.65625 -0.02344,0 -0.04687,0 -0.375,0.035156 v 0.328125 h 0.386719 c 0.480469,0 0.65625,0.3632812 0.65625,0.67968746 0,0.38671875 -0.246094,0.69140625 -0.632813,0.69140625 -0.351562,0 -0.761718,-0.17578125 -1.007812,-0.4921875 l -0.05859,0.328125 c 0.28125,0.31640625 0.691406,0.4921875 1.078125,0.4921875 0.65625,0 1.125,-0.4921875 1.125,-1.0078125 0,-0.41015621 -0.328125,-0.73828121 -0.726562,-0.85546871 0.375,-0.1992188 0.574218,-0.5273438 0.574218,-0.8554688 0,-0.421875 -0.433593,-0.7617187 -0.972656,-0.7617187 -0.433594,0 -0.796875,0.234375 -1.007812,0.5273437 z m 3.105469,2.10937496 h -0.457031 v 0.4453125025 h 0.457031 z m 1.013672,-2.10937496 c 0.199219,-0.3984375 0.5625,-0.5039063 0.796875,-0.5039063 0.292969,0 0.515625,0.1640625 0.515625,0.4453125 0,0.2695313 -0.1875,0.5859375 -0.5625,0.65625 -0.02344,0 -0.04687,0 -0.375,0.035156 v 0.328125 h 0.386719 c 0.480468,0 0.65625,0.3632812 0.65625,0.67968746 0,0.38671875 -0.246094,0.69140625 -0.632813,0.69140625 -0.351562,0 -0.761719,-0.17578125 -1.007812,-0.4921875 l -0.05859,0.328125 c 0.28125,0.31640625 0.691406,0.4921875 1.078125,0.4921875 0.65625,0 1.125,-0.4921875 1.125,-1.0078125 0,-0.41015621 -0.328125,-0.73828121 -0.726563,-0.85546871 0.375,-0.1992188 0.574219,-0.5273438 0.574219,-0.8554688 0,-0.421875 -0.433594,-0.7617187 -0.972656,-0.7617187 -0.433594,0 -0.796875,0.234375 -1.007813,0.5273437 z m 5.586914,-0.9023438 h -0.433594 l -0.621094,1.5351563 c -0.03516,0.082031 -0.527343,1.27734371 -0.574218,1.52343746 h -0.01172 c -0.04687,-0.24609375 -0.539063,-1.45312496 -0.5625,-1.49999996 l -0.644531,-1.5585938 h -0.527344 l 1.441406,3.4570312625 h 0.503906 z m 0,0"
       style="fill:#000000;fill-opacity:1;fill-rule:nonzero;stroke:none"
       aria-label="(green)3.3V"
       transform="matrix(1.3333333,0,0,1.3333333,5.9706667,167.856)" />
    <path
       id="path88"
       d="m 1.5244766,-3.7393438 c -0.09375,0 -0.09375,0 -0.1640625,0.058594 -0.62109379,0.5507812 -0.93750004,1.4296875 -0.93750004,2.4375 0,0.9375 0.28125,1.83984375 0.93750004,2.4257812 0.070312,0.058594 0.070312,0.058594 0.1640625,0.058594 h 0.234375 C 1.7471328,1.2294062 1.2666641,0.81925 1.0322891,0.0458125 0.91510156,-0.34090625 0.85650781,-0.7510625 0.85650781,-1.24325 c 0,-1.7226563 0.80859379,-2.4140625 0.90234379,-2.4960938 z m 1.3769531,2.671875 c 0,-0.5273437 0.4453125,-0.8203125 0.8789062,-0.8320312 v -0.3632813 c -0.4101562,0 -0.7148437,0.2109375 -0.9140625,0.46875 V -2.2510625 H 2.4795547 v 2.25 h 0.421875 z m 3.1083984,0.5273438 c -0.28125,0.19921875 -0.5976562,0.2578125 -0.8085937,0.2578125 -0.4335938,0 -0.7617188,-0.3515625 -0.7734375,-0.8085938 h 1.6289062 c 0,-0.234375 -0.023437,-0.5625 -0.2226562,-0.84375 -0.1757813,-0.2578125 -0.46875,-0.3515625 -0.7148438,-0.3515625 -0.609375,0 -1.078125,0.5273438 -1.078125,1.1601563 0,0.64453125 0.4921875,1.171875 1.1484375,1.171875 0.2929688,0 0.5976563,-0.08203125 0.84375,-0.234375 z m -1.546875,-0.8554688 c 0.1054688,-0.3984375 0.3984375,-0.5625 0.65625,-0.5625 0.2109375,0 0.5390625,0.1054688 0.6328125,0.5625 z m 4.0634766,-2.0625 H 8.1045547 V -1.99325 C 7.7881484,-2.227625 7.4600234,-2.2627813 7.3193984,-2.2627813 c -0.5273437,0 -0.9257812,0.5273438 -0.9257812,1.1601563 0,0.6328125 0.3984375,1.1484375 0.9140625,1.1484375 0.3046875,0 0.5976562,-0.140625 0.7851562,-0.3046875 v 0.2578125 h 0.4335938 z m -0.4335938,2.83593755 c -0.1289062,0.2109375 -0.3164062,0.33984375 -0.5507812,0.33984375 -0.3515625,0 -0.7148438,-0.24609375 -0.7148438,-0.8203125 0,-0.6210938 0.421875,-0.8320313 0.7617188,-0.8320313 0.1992187,0 0.375,0.082031 0.5039062,0.2578125 z M 9.4785781,1.241125 c 0.09375,0 0.1054688,0 0.1640625,-0.046875 0.6210934,-0.55078125 0.9375004,-1.44140625 0.9375004,-2.4375 0,-0.9492188 -0.28125,-1.8515625 -0.9375004,-2.4257813 -0.058594,-0.070312 -0.070312,-0.070312 -0.1640625,-0.070312 h -0.234375 c 0.011719,0.011719 0.5039063,0.421875 0.7265625,1.2070313 0.1171874,0.3867187 0.1757814,0.796875 0.1757814,1.2890625 0,1.72265625 -0.7968751,2.4023437 -0.9023439,2.484375 z M 15.080141,-3.4580938 H 14.658266 V -1.99325 c -0.316407,-0.234375 -0.644532,-0.2695313 -0.785157,-0.2695313 -0.527343,0 -0.925781,0.5273438 -0.925781,1.1601563 0,0.6328125 0.398438,1.1484375 0.914063,1.1484375 0.304687,0 0.597656,-0.140625 0.785156,-0.3046875 v 0.2578125 h 0.433594 z m -0.433594,2.83593755 c -0.128906,0.2109375 -0.316406,0.33984375 -0.550781,0.33984375 -0.351563,0 -0.714844,-0.24609375 -0.714844,-0.8203125 0,-0.6210938 0.421875,-0.8320313 0.761719,-0.8320313 0.199218,0 0.375,0.082031 0.503906,0.2578125 z M 17.626039,-1.43075 c 0,-0.515625 -0.386719,-0.8554688 -0.878906,-0.8554688 -0.316406,0 -0.550781,0.058594 -0.832031,0.2109375 L 15.938539,-1.712 c 0.164063,-0.1054688 0.410156,-0.2578125 0.808594,-0.2578125 0.222656,0 0.445312,0.1640625 0.445312,0.5390625 v 0.1992187 c -0.738281,0.023437 -1.464843,0.1757813 -1.464843,0.6445313 0,0.24609375 0.175781,0.6328125 0.609375,0.6328125 0.210937,0 0.609375,-0.046875 0.867187,-0.234375 v 0.1875 h 0.421875 z m -0.433594,0.7265625 c 0,0.09375 0,0.22265625 -0.175781,0.328125 -0.152344,0.09375 -0.351562,0.09375 -0.410156,0.09375 -0.269531,0 -0.480469,-0.1171875 -0.480469,-0.31640625 0,-0.31640625 0.84375,-0.33984375 1.066406,-0.3515625 z M 18.985414,-1.8995 h 0.738281 v -0.3164063 h -0.738281 v -0.6328125 h -0.386719 v 0.6328125 H 18.153383 V -1.8995 h 0.433594 v 1.265625 c 0,0.328125 0.08203,0.6796875 0.445312,0.6796875 0.351563,0 0.632813,-0.1171875 0.773438,-0.17578125 l -0.08203,-0.328125 c -0.164062,0.12890625 -0.339843,0.1640625 -0.480468,0.1640625 -0.199219,0 -0.257813,-0.2109375 -0.257813,-0.43359375 z m 3.09375,0.46875 c 0,-0.515625 -0.386719,-0.8554688 -0.878906,-0.8554688 -0.316406,0 -0.550781,0.058594 -0.832031,0.2109375 L 20.391664,-1.712 c 0.164063,-0.1054688 0.410156,-0.2578125 0.808594,-0.2578125 0.222656,0 0.445312,0.1640625 0.445312,0.5390625 v 0.1992187 c -0.738281,0.023437 -1.464843,0.1757813 -1.464843,0.6445313 0,0.24609375 0.175781,0.6328125 0.609375,0.6328125 0.210937,0 0.609375,-0.046875 0.867187,-0.234375 v 0.1875 h 0.421875 z m -0.433594,0.7265625 c 0,0.09375 0,0.22265625 -0.175781,0.328125 -0.152344,0.09375 -0.351562,0.09375 -0.410156,0.09375 -0.269531,0 -0.480469,-0.1171875 -0.480469,-0.31640625 0,-0.31640625 0.84375,-0.33984375 1.066406,-0.3515625 z m 0,0"
       style="fill:#000000;fill-opacity:1;fill-rule:nonzero;stroke:none"
       aria-label="(red)data"
       transform="matrix(1.3333333,0,0,1.3333333,13.385333,220.78267)" />
    <path
       id="path89"
       d="m 2.5068594,-2.2621172 c -0.1171875,0 -0.4453125,0 -0.8203125,0.1523438 H 1.6748281 C 1.4990469,-2.2269609 1.3232656,-2.2621172 1.1709219,-2.2621172 c -0.48046877,0 -0.84375002,0.3867188 -0.84375002,0.8085938 0,0.1757812 0.0585938,0.3515625 0.17578125,0.49218746 -0.0703125,0.09375 -0.15234375,0.234375 -0.15234375,0.421875 0,0.1875 0.0820313,0.31640625 0.12890625,0.375 -0.28125,0.1640625025 -0.328125,0.38671875 -0.328125,0.50390625 0,0.38671875 0.515625,0.67968749 1.17187497,0.67968749 0.6445313,0 1.171875,-0.29296874 1.171875,-0.67968749 0,-0.703125 -0.8789062,-0.703125 -1.0898437,-0.703125 H 0.93654688 c -0.0703125,0 -0.29296875,0 -0.29296875,-0.2578125 0,-0.09375 0.0351563,-0.140625 0.046875,-0.15234375 0.17578125,0.10546875 0.33984377,0.140625 0.48046877,0.140625 0.4921875,0 0.8554687,-0.38671876 0.8554687,-0.80859376 0,-0.1640625 -0.046875,-0.3046875 -0.140625,-0.4453125 -0.023437,-0.023437 -0.023437,-0.035156 -0.023437,-0.035156 0,-0.023437 0.3046875,-0.023437 0.328125,-0.023437 0,0 0.1992188,0 0.375,0.023437 z m -1.3359375,1.32421876 c -0.26953127,0 -0.46875002,-0.17578126 -0.46875002,-0.50390626 0,-0.3867187 0.2578125,-0.515625 0.46875002,-0.515625 0.2695312,0 0.46875,0.1757813 0.46875,0.5039063 0,0.3867187 -0.2460938,0.51562496 -0.46875,0.51562496 z m 0.234375,0.97265625 c 0.1171875,0 0.703125,0 0.703125,0.31640625 0,0.2109375 -0.375,0.36328125 -0.7851563,0.36328125 -0.42187497,0 -0.79687497,-0.15234375 -0.79687497,-0.36328125 0,-0.0234375 0,-0.31640625 0.3984375,-0.31640625 z M 3.4912344,-1.0668047 c 0,-0.5273437 0.4453125,-0.8203125 0.8789062,-0.8320312 v -0.3632813 c -0.4101562,0 -0.7148437,0.2109375 -0.9140625,0.46875 V -2.2503984 H 3.0693594 v 2.2499999625 h 0.421875 z m 3.4599609,-0.023437 c 0,-0.65625 -0.5273437,-1.1953125 -1.171875,-1.1953125 -0.65625,0 -1.171875,0.5390625 -1.171875,1.1953125 0,0.63281251 0.5273438,1.13671876 1.171875,1.13671876 0.6445313,0 1.171875,-0.50390625 1.171875,-1.13671876 z m -1.171875,0.79687501 c -0.3984375,0 -0.7382812,-0.29296875 -0.7382812,-0.85546871 0,-0.5625 0.3632812,-0.8085938 0.7382812,-0.8085938 0.375,0 0.7382813,0.2578125 0.7382813,0.8085938 0,0.57421871 -0.3632813,0.85546871 -0.7382813,0.85546871 z M 9.4209219,-2.2152422 H 8.9873281 v 1.45312501 c 0,0.3984375 -0.3398437,0.515625 -0.6328125,0.515625 -0.3632812,0 -0.4101562,-0.09375 -0.4101562,-0.328125 V -2.2152422 H 7.5107656 v 1.67578126 c 0,0.43359375 0.1992188,0.5859375 0.5507813,0.5859375 0.1992187,0 0.6328125,-0.03515625 0.9375,-0.28125 v 0.2343750025 h 0.421875 z m 2.7333981,0.7382813 c 0,-0.3867188 -0.117187,-0.7851563 -0.726562,-0.7851563 -0.292969,0 -0.5625,0.1171875 -0.785156,0.375 v -0.3632812 h -0.398438 v 2.2499999625 h 0.433594 V -1.2074297 c 0,-0.328125 0.140625,-0.7265625 0.527344,-0.7265625 0.515625,0 0.515625,0.3515625 0.515625,0.4921875 V -3.984375e-4 H 12.15432 Z M 14.876,-3.4574297 h -0.421875 v 1.4648438 c -0.316406,-0.234375 -0.644531,-0.2695313 -0.785156,-0.2695313 -0.527344,0 -0.925781,0.5273438 -0.925781,1.1601563 0,0.63281246 0.398437,1.14843746 0.914062,1.14843746 0.304688,0 0.597656,-0.140625 0.785156,-0.3046875 V -3.984375e-4 H 14.876 Z m -0.433594,2.83593751 c -0.128906,0.2109375 -0.316406,0.33984375 -0.550781,0.33984375 -0.351562,0 -0.714844,-0.24609375 -0.714844,-0.82031246 0,-0.6210938 0.421875,-0.8320313 0.761719,-0.8320313 0.199219,0 0.375,0.082031 0.503906,0.2578125 z m 4.142578,-3.11718751 c -0.09375,0 -0.09375,0 -0.164062,0.058594 -0.621094,0.5507812 -0.9375,1.4296875 -0.9375,2.4375 0,0.93749996 0.28125,1.83984371 0.9375,2.4257812 0.07031,0.058594 0.07031,0.058594 0.164062,0.058594 h 0.234375 c -0.01172,-0.011719 -0.492187,-0.42187504 -0.726562,-1.19531254 -0.117188,-0.38671875 -0.175781,-0.796875 -0.175781,-1.28906246 0,-1.7226563 0.808593,-2.4140625 0.902343,-2.4960938 z m 1.379883,0.28125 h -0.421875 v 3.4570312625 h 0.433594 V -0.23477344 c 0.105469,0.09375 0.351562,0.28125 0.714844,0.28125 0.539062,0 0.984375,-0.50390625 0.984375,-1.16015626 0,-0.5976562 -0.351563,-1.1484375 -0.84375,-1.1484375 -0.316407,0 -0.621094,0.1054688 -0.867188,0.28125 z m 0.01172,1.8867188 c 0,-0.082031 0,-0.140625 0.175781,-0.2578125 0.07031,-0.035156 0.210938,-0.1054688 0.375,-0.1054688 0.339844,0 0.714844,0.2226563 0.714844,0.8203125 0,0.60937501 -0.421875,0.83203126 -0.761719,0.83203126 -0.1875,0 -0.363281,-0.0820313 -0.503906,-0.3046875 z m 2.709961,-1.8867188 h -0.410156 v 3.4570312625 h 0.410156 z m 2.551758,2.0273438 c 0,-0.515625 -0.386719,-0.8554688 -0.878907,-0.8554688 -0.316406,0 -0.550781,0.058594 -0.832031,0.2109375 l 0.02344,0.3632813 c 0.164062,-0.1054688 0.410156,-0.2578125 0.808593,-0.2578125 0.222657,0 0.445313,0.1640625 0.445313,0.5390625 v 0.1992187 c -0.738281,0.023437 -1.464844,0.1757813 -1.464844,0.64453126 0,0.24609375 0.175781,0.6328125 0.609375,0.6328125 0.210938,0 0.609375,-0.0468749975 0.867188,-0.234375 v 0.1875000025 h 0.421875 z m -0.433594,0.72656246 c 0,0.09375 0,0.22265625 -0.175781,0.328125 -0.152344,0.09375 -0.351563,0.09375 -0.410157,0.09375 -0.269531,0 -0.480468,-0.1171875 -0.480468,-0.31640625 0,-0.31640625 0.84375,-0.33984375 1.066406,-0.3515625 z m 3.020508,0.1640625 c -0.246094,0.15234375 -0.515625,0.24609375 -0.832031,0.24609375 -0.457032,0 -0.726563,-0.375 -0.726563,-0.82031251 0,-0.3867187 0.199219,-0.8320312 0.75,-0.8320312 0.339844,0 0.492188,0.070312 0.75,0.234375 l 0.05859,-0.3632813 c -0.292969,-0.1523437 -0.421875,-0.2109375 -0.808594,-0.2109375 -0.75,0 -1.183594,0.5976563 -1.183594,1.1835938 0,0.59765621 0.480469,1.14843746 1.160157,1.14843746 0.351562,0 0.644531,-0.10546875 0.855468,-0.22265625 z m 1.672851,-0.82031246 0.890625,-0.8554688 h -0.480468 l -1.066407,1.03125 v -2.2734375 h -0.398437 v 3.4570312625 h 0.375 V -0.70352344 l 0.421875,-0.39843746 0.820312,1.1015624625 h 0.445313 z m 1.625977,2.6015625 c 0.09375,0 0.105469,0 0.164062,-0.046875 0.621094,-0.55078129 0.9375,-1.44140629 0.9375,-2.4375 0,-0.9492188 -0.28125,-1.8515625 -0.9375,-2.4257813 -0.05859,-0.070312 -0.07031,-0.070312 -0.164062,-0.070312 h -0.234375 c 0.01172,0.011719 0.503906,0.421875 0.726562,1.2070313 0.117188,0.3867187 0.175782,0.796875 0.175782,1.2890625 0,1.72265621 -0.796875,2.4023437 -0.902344,2.484375 z m 0,0"
       style="fill:#000000;fill-opacity:1;fill-rule:nonzero;stroke:none"
       aria-label="ground(black)"
       transform="matrix(1.3333333,0,0,1.3333333,115.66533,167.856)" />
    <path
       id="path90"
       d="m 2.49481,-39.69592 c 0,1.37785 -1.11696,2.49481 -2.49481,2.49481 -1.37785,0 -2.49481,-1.11696 -2.49481,-2.49481 0,-1.37787 1.11696,-2.49483 2.49481,-2.49483 1.37785,0 2.49481,1.11696 2.49481,2.49483 z"
       style="fill:#ffffff;fill-opacity:1;fill-rule:nonzero;stroke:#000000;stroke-width:0.26465;stroke-linecap:butt;stroke-linejoin:miter;stroke-miterlimit:10;stroke-dasharray:none;stroke-opacity:1"
       transform="matrix(1.3333333,0,0,-1.3333333,74.234667,17.998667)" />
    <path
       id="path91"
       d="m 2.49481,-111.14862 c 0,1.37787 -1.11696,2.49482 -2.49481,2.49482 -1.37785,0 -2.49481,-1.11695 -2.49481,-2.49482 0,-1.37785 1.11696,-2.49483 2.49481,-2.49483 1.37785,0 2.49481,1.11698 2.49481,2.49483 z"
       style="fill:#00ff00;fill-opacity:1;fill-rule:nonzero;stroke:#000000;stroke-width:0.26465;stroke-linecap:butt;stroke-linejoin:miter;stroke-miterlimit:10;stroke-dasharray:none;stroke-opacity:1"
       transform="matrix(1.3333333,0,0,-1.3333333,74.234667,17.998667)" />
    <path
       id="path92"
       d="m 10.434,-111.14862 c 0,1.37787 -1.11695,2.49482 -2.49482,2.49482 -1.37785,0 -2.49483,-1.11695 -2.49483,-2.49482 0,-1.37785 1.11698,-2.49483 2.49483,-2.49483 1.37787,0 2.49482,1.11698 2.49482,2.49483 z"
       style="fill:#000000;fill-opacity:1;fill-rule:nonzero;stroke:#000000;stroke-width:0.26465;stroke-linecap:butt;stroke-linejoin:miter;stroke-miterlimit:10;stroke-dasharray:none;stroke-opacity:1"
       transform="matrix(1.3333333,0,0,-1.3333333,74.234667,17.998667)" />
    <path
       id="path93"
       d="m 2.49481,-150.84456 c 0,1.37787 -1.11696,2.49483 -2.49481,2.49483 -1.37785,0 -2.49481,-1.11696 -2.49481,-2.49483 0,-1.37785 1.11696,-2.49483 2.49481,-2.49483 1.37785,0 2.49481,1.11698 2.49481,2.49483 z"
       style="fill:#ff0000;fill-opacity:1;fill-rule:nonzero;stroke:#000000;stroke-width:0.26465;stroke-linecap:butt;stroke-linejoin:miter;stroke-miterlimit:10;stroke-dasharray:none;stroke-opacity:1"
       transform="matrix(1.3333333,0,0,-1.3333333,74.234667,17.998667)" />
  </g>
</svg>
