<?xml version="1.0" encoding="UTF-8" standalone="no"?>
<!-- Created with Inkscape (http://www.inkscape.org/) -->

<svg
   version="1.1"
   id="svg1"
   width="158.01868"
   height="331.22134"
   viewBox="0 0 158.01868 331.22134"
   sodipodi:docname="main.pdf"
   xmlns:inkscape="http://www.inkscape.org/namespaces/inkscape"
   xmlns:sodipodi="http://sodipodi.sourceforge.net/DTD/sodipodi-0.dtd"
   xmlns="http://www.w3.org/2000/svg"
   xmlns:svg="http://www.w3.org/2000/svg">
  <defs
     id="defs1" />
  <sodipodi:namedview
     id="namedview1"
     pagecolor="#ffffff"
     bordercolor="#000000"
     borderopacity="0.25"
     inkscape:showpageshadow="2"
     inkscape:pageopacity="0.0"
     inkscape:pagecheckerboard="0"
     inkscape:deskcolor="#d1d1d1">
    <inkscape:page
       x="0"
       y="0"
       inkscape:label="1"
       id="page1"
       width="158.01868"
       height="331.22134"
       margin="0"
       bleed="0" />
  </sodipodi:namedview>
  <g
     id="g1"
     inkscape:groupmode="layer"
     inkscape:label="1">
    <path
       id="path1"
       d="M 0,0 H 118.514 V 248.416 H 0 Z"
       style="fill:#ffffff;fill-opacity:1;fill-rule:nonzero;stroke:none"
       transform="matrix(1.3333333,0,0,-1.3333333,0,331.22133)" />
    <path
       id="path2"
       d="M -53.00029,-229.30104 V 18.11859 H 64.51472 v -247.41963 z"
       style="fill:#ffffff;fill-opacity:1;fill-rule:nonzero;stroke:none"
       transform="matrix(1.3333333,0,0,-1.3333333,71.333333,24.824)" />
    <path
       id="path3"
       d="M 3.49304,0 C 3.49304,1.92917 1.92917,3.49304 0,3.49304 -1.92917,3.49304 -3.49304,1.92917 -3.49304,0 c 0,-1.92917 1.56387,-3.49304 3.49304,-3.49304 1.92917,0 3.49304,1.56387 3.49304,3.49304 z"
       style="fill:#bfbfbf;fill-opacity:1;fill-rule:nonzero;stroke:none"
       transform="matrix(1.3333333,0,0,-1.3333333,71.333333,24.824)" />
    <path
       id="path4"
       d="M 2.2379453,-4.7224062 H 2.0856016 c -0.4570313,0.421875 -1.03125,0.4453125 -1.44140629,0.4570312 v 0.4453125 C 0.91372656,-3.8317812 1.2652891,-3.8435 1.6051328,-3.984125 v 3.55078125 H 0.67935156 V 2.5e-4 H 3.1637266 V -0.43334375 H 2.2379453 Z m 0,0"
       style="fill:#000000;fill-opacity:1;fill-rule:nonzero;stroke:none"
       aria-label="1"
       transform="matrix(1.3333333,0,0,1.3333333,43.074667,27.874667)" />
    <path
       id="path5"
       d="m 14.60791,0 c 0,1.92917 -1.56387,3.49304 -3.49306,3.49304 C 9.18568,3.49304 7.62181,1.92917 7.62181,0 c 0,-1.92917 1.56387,-3.49304 3.49304,-3.49304 1.92919,0 3.49306,1.56387 3.49306,3.49304 z"
       style="fill:#bfbfbf;fill-opacity:1;fill-rule:nonzero;stroke:none"
       transform="matrix(1.3333333,0,0,-1.3333333,71.333333,24.824)" />
    <path
       id="path6"
       d="m 1.9673125,-0.5388125 c -0.082031,0 -0.1640625,0.0117188 -0.2460937,0.0117188 H 0.92434375 L 2.0024688,-1.4880312 C 2.131375,-1.5935 2.4712188,-1.8513125 2.6118438,-1.9685 c 0.3046875,-0.28125 0.7148437,-0.6445312 0.7148437,-1.2421875 0,-0.796875 -0.5859375,-1.5117187 -1.5820312,-1.5117187 -0.7382813,0 -1.2070313,0.3984375 -1.4414063,1.1132812 l 0.328125,0.4101563 c 0.1640625,-0.5859375 0.4101563,-1.0429688 1.0078125,-1.0429688 0.5859375,0 1.03125,0.4101563 1.03125,1.0429688 0,0.5742187 -0.3398437,0.9023437 -0.75,1.3007812 -0.140625,0.140625 -0.515625,0.4570313 -0.6679687,0.5976563 C 1.05325,-1.12475 0.57278125,-0.656 0.3735625,-0.48021875 V 2.5e-4 h 2.953125 v -0.5390625 z m 0,0"
       style="fill:#000000;fill-opacity:1;fill-rule:nonzero;stroke:none"
       aria-label="2"
       transform="matrix(1.3333333,0,0,1.3333333,109.47067,27.874667)" />
    <path
       id="path7"
       d="m 3.49304,-11.11485 c 0,1.92917 -1.56387,3.49304 -3.49304,3.49304 -1.92917,0 -3.49304,-1.56387 -3.49304,-3.49304 0,-1.92919 1.56387,-3.49306 3.49304,-3.49306 1.92917,0 3.49304,1.56387 3.49304,3.49306 z"
       style="fill:#bfbfbf;fill-opacity:1;fill-rule:nonzero;stroke:none"
       transform="matrix(1.3333333,0,0,-1.3333333,71.333333,24.824)" />
    <path
       id="path8"
       d="m 0.70278906,-3.5737344 c 0.28125,-0.5625 0.78515624,-0.7148437 1.11328124,-0.7148437 0.4101563,0 0.7265625,0.234375 0.7265625,0.6328125 0,0.375 -0.2578125,0.8203125 -0.7851562,0.9140625 -0.035156,0.011719 -0.058594,0.011719 -0.5273438,0.046875 v 0.4570312 h 0.5507813 c 0.65625,0 0.9023437,0.5273438 0.9023437,0.9609375 0,0.55078128 -0.328125,0.96093753 -0.8789062,0.96093753 -0.4921875,0 -1.05468754,-0.234375 -1.40625004,-0.6796875 l -0.09375,0.45703125 c 0.41015625,0.4453125 0.97265624,0.6796875 1.51171874,0.6796875 0.9140625,0 1.5703125,-0.6796875 1.5703125,-1.40624998 0,-0.5742188 -0.4570312,-1.03125 -1.0078125,-1.1953125 0.5273438,-0.2695313 0.796875,-0.7382813 0.796875,-1.1953125 0,-0.5859375 -0.5976562,-1.0664063 -1.3476562,-1.0664063 -0.609375,0 -1.12500004,0.328125 -1.41796879,0.7382813 z m 0,0"
       style="fill:#000000;fill-opacity:1;fill-rule:nonzero;stroke:none"
       aria-label="3"
       transform="matrix(1.3333333,0,0,1.3333333,43.074667,42.694667)" />
    <path
       id="path9"
       d="m 14.60791,-11.11485 c 0,1.92917 -1.56387,3.49304 -3.49306,3.49304 -1.92917,0 -3.49304,-1.56387 -3.49304,-3.49304 0,-1.92919 1.56387,-3.49306 3.49304,-3.49306 1.92919,0 3.49306,1.56387 3.49306,3.49306 z"
       style="fill:#bfbfbf;fill-opacity:1;fill-rule:nonzero;stroke:none"
       transform="matrix(1.3333333,0,0,-1.3333333,71.333333,24.824)" />
    <path
       id="path10"
       d="M 2.7641875,-1.1596719 H 3.49075 v -0.46875 H 2.7641875 V -4.5698281 H 2.0727813 L 0.2095,-1.6284219 v 0.46875 H 2.1548125 V 4.84375e-4 h 0.609375 z m -1.96875,-0.46875 c 0.2109375,-0.328125 1.4179688,-2.1796875 1.4179688,-2.6015625 v 2.6015625 z m 0,0"
       style="fill:#000000;fill-opacity:1;fill-rule:nonzero;stroke:none"
       aria-label="4"
       transform="matrix(1.3333333,0,0,1.3333333,109.47067,42.694667)" />
    <path
       id="path11"
       d="m 3.49304,-22.22972 c 0,1.92917 -1.56387,3.49304 -3.49304,3.49304 -1.92917,0 -3.49304,-1.56387 -3.49304,-3.49304 0,-1.92918 1.56387,-3.49306 3.49304,-3.49306 1.92917,0 3.49304,1.56388 3.49304,3.49306 z"
       style="fill:#bfbfbf;fill-opacity:1;fill-rule:nonzero;stroke:none"
       transform="matrix(1.3333333,0,0,-1.3333333,71.333333,24.824)" />
    <path
       id="path12"
       d="m 1.1481016,-4.089125 h 1.921875 V -4.5695937 H 0.58560156 v 2.6015625 H 1.0895078 c 0.1757813,-0.375 0.5039063,-0.5390625 0.8085938,-0.5390625 0.2929687,0 0.7265625,0.1875 0.7265625,1.078125 0,0.91406245 -0.5859375,1.1132812 -0.9375,1.1132812 -0.4570313,0 -0.90234379,-0.24609375 -1.14843754,-0.64453125 l -0.2578125,0.421875 c 0.33984375,0.421875 0.85546874,0.6796875 1.40625004,0.6796875 0.9257812,0 1.640625,-0.703125 1.640625,-1.55859375 0,-0.8671875 -0.6445313,-1.546875 -1.40625,-1.546875 -0.3046875,0 -0.5742188,0.09375 -0.7734375,0.2695313 z m 0,0"
       style="fill:#000000;fill-opacity:1;fill-rule:nonzero;stroke:none"
       aria-label="5"
       transform="matrix(1.3333333,0,0,1.3333333,43.074667,57.514667)" />
    <path
       id="path13"
       d="m 14.60791,-22.22972 c 0,1.92917 -1.56387,3.49304 -3.49306,3.49304 -1.92917,0 -3.49304,-1.56387 -3.49304,-3.49304 0,-1.92918 1.56387,-3.49306 3.49304,-3.49306 1.92919,0 3.49306,1.56388 3.49306,3.49306 z"
       style="fill:#bfbfbf;fill-opacity:1;fill-rule:nonzero;stroke:none"
       transform="matrix(1.3333333,0,0,-1.3333333,71.333333,24.824)" />
    <path
       id="path14"
       d="m 3.0571563,-4.5813125 c -0.375,-0.140625 -0.6445313,-0.140625 -0.7734375,-0.140625 -1.0546875,0 -1.9804688,0.9960938 -1.9804688,2.4726563 0,1.8867187 0.8554688,2.39062495 1.5585938,2.39062495 0.5625,0 0.8554687,-0.2578125 1.0664062,-0.48046875 0.4570313,-0.48046875 0.4570313,-0.9726562 0.4570313,-1.21875 0,-0.9140625 -0.4921875,-1.6640625 -1.171875,-1.6640625 -0.6796875,0 -1.0546875,0.3515625 -1.2539063,0.5507813 0.09375,-0.9492188 0.5742188,-1.6171875 1.3359375,-1.6171875 0.140625,0 0.4101563,0.011719 0.7617188,0.1523437 z m -2.08593755,3.046875 c 0,-0.035156 0,-0.140625 0,-0.1757812 0,-0.4804688 0.30468755,-1.0546875 0.92578125,-1.0546875 0.84375,0 0.84375,0.9726562 0.84375,1.2070312 0,0.2695313 0,0.5625 -0.1875,0.85546875 -0.1640625,0.24609375 -0.375,0.38671875 -0.6914062,0.38671875 -0.7382813,0 -0.8554688,-0.9140625 -0.89062505,-1.21875 z m 0,0"
       style="fill:#000000;fill-opacity:1;fill-rule:nonzero;stroke:none"
       aria-label="6"
       transform="matrix(1.3333333,0,0,1.3333333,109.47067,57.514667)" />
    <path
       id="path15"
       d="m 3.49304,-33.34459 c 0,1.92919 -1.56387,3.49304 -3.49304,3.49304 -1.92917,0 -3.49304,-1.56385 -3.49304,-3.49304 0,-1.92918 1.56387,-3.49306 3.49304,-3.49306 1.92917,0 3.49304,1.56388 3.49304,3.49306 z"
       style="fill:#bfbfbf;fill-opacity:1;fill-rule:nonzero;stroke:none"
       transform="matrix(1.3333333,0,0,-1.3333333,71.333333,24.824)" />
    <path
       id="path16"
       d="m 1.7223203,-4.0439453 c 0.082031,0 0.1640625,0 0.2460938,0 h 0.8789062 c -1.0546875,1.0429687 -1.734375,2.4960937 -1.734375,4.11328124 h 0.65625 c 0,-2.03906254 0.9960938,-3.50390624 1.6171875,-4.16015624 V -4.5712891 H 0.30435156 v 0.5273438 z m 0,0"
       style="fill:#000000;fill-opacity:1;fill-rule:nonzero;stroke:none"
       aria-label="7"
       transform="matrix(1.3333333,0,0,1.3333333,43.074667,72.333333)" />
    <path
       id="path17"
       d="m 14.60791,-33.34459 c 0,1.92919 -1.56387,3.49304 -3.49306,3.49304 -1.92917,0 -3.49304,-1.56385 -3.49304,-3.49304 0,-1.92918 1.56387,-3.49306 3.49304,-3.49306 1.92919,0 3.49306,1.56388 3.49306,3.49306 z"
       style="fill:#bfbfbf;fill-opacity:1;fill-rule:nonzero;stroke:none"
       transform="matrix(1.3333333,0,0,-1.3333333,71.333333,24.824)" />
    <path
       id="path18"
       d="m 2.3774688,-2.4736328 c 0.46875,-0.140625 0.9023437,-0.515625 0.9023437,-1.03125 0,-0.6328125 -0.609375,-1.21875 -1.4296875,-1.21875 -0.8320312,0 -1.44140625,0.5859375 -1.44140625,1.21875 0,0.5273437 0.45703125,0.890625 0.90234375,1.03125 -0.609375,0.1875 -1.0078125,0.6679687 -1.0078125,1.2070312 0,0.73828129 0.66796875,1.40625004 1.546875,1.40625004 0.8789063,0 1.5351563,-0.66796875 1.5351563,-1.40625004 0,-0.5390625 -0.3984375,-1.0195312 -1.0078125,-1.2070312 z M 1.850125,-2.6962891 c -0.5039062,0 -0.90234375,-0.2929687 -0.90234375,-0.796875 0,-0.4453125 0.31640625,-0.796875 0.90234375,-0.796875 0.5742188,0 0.890625,0.3515625 0.890625,0.796875 0,0.4921875 -0.3867187,0.796875 -0.890625,0.796875 z m 0,2.37890629 c -0.4804687,0 -0.9140625,-0.3046875 -0.9140625,-0.96093749 0,-0.6210938 0.4101563,-0.9609375 0.9140625,-0.9609375 0.5039063,0 0.9023438,0.3398437 0.9023438,0.9609375 0,0.65624999 -0.4335938,0.96093749 -0.9023438,0.96093749 z m 0,0"
       style="fill:#000000;fill-opacity:1;fill-rule:nonzero;stroke:none"
       aria-label="8"
       transform="matrix(1.3333333,0,0,1.3333333,109.47067,72.333333)" />
    <path
       id="path19"
       d="m 3.49304,-44.45946 c 0,1.92919 -1.56387,3.49306 -3.49304,3.49306 -1.92917,0 -3.49304,-1.56387 -3.49304,-3.49306 0,-1.92917 1.56387,-3.49304 3.49304,-3.49304 1.92917,0 3.49304,1.56387 3.49304,3.49304 z"
       style="fill:#bfbfbf;fill-opacity:1;fill-rule:nonzero;stroke:none"
       transform="matrix(1.3333333,0,0,-1.3333333,71.333333,24.824)" />
    <path
       id="path20"
       d="m 0.53872656,-0.17652344 c 0.33984375,0.2578125 0.65625004,0.31640625 0.98437504,0.31640625 0.9726562,0 1.8632812,-0.97265625 1.8632812,-2.47265621 0,-1.9101563 -0.84375,-2.390625 -1.5117187,-2.390625 -0.6210938,0 -0.90234379,0.2929687 -1.11328129,0.4921875 -0.4453125,0.4570312 -0.45703125,0.9375 -0.45703125,1.2070312 0,0.9023438 0.4921875,1.6757813 1.17187504,1.6757813 0.7851562,0 1.21875,-0.515625 1.2539062,-0.5625 -0.09375,1.11328121 -0.6328125,1.59374996 -1.2070312,1.59374996 -0.3632813,0 -0.58593754,-0.12890625 -0.75000004,-0.2578125 z M 2.7066953,-3.0241797 c 0.011719,0.035156 0.011719,0.1054688 0.011719,0.1523438 0,0.515625 -0.3164063,1.0664062 -0.9140625,1.0664062 -0.2695313,0 -0.4804688,-0.082031 -0.65625,-0.3632812 -0.18750004,-0.2695313 -0.19921879,-0.5390625 -0.19921879,-0.8554688 0,-0.2695312 0,-0.5859375 0.21093749,-0.890625 0.1523438,-0.2109375 0.3632813,-0.375 0.703125,-0.375 0.6796875,0 0.8320313,0.8203125 0.8437498,1.265625 z m 0,0"
       style="fill:#000000;fill-opacity:1;fill-rule:nonzero;stroke:none"
       aria-label="9"
       transform="matrix(1.3333333,0,0,1.3333333,43.074667,87.153333)" />
    <path
       id="path21"
       d="m 14.60791,-44.45946 c 0,1.92919 -1.56387,3.49306 -3.49306,3.49306 -1.92917,0 -3.49304,-1.56387 -3.49304,-3.49306 0,-1.92917 1.56387,-3.49304 3.49304,-3.49304 1.92919,0 3.49306,1.56387 3.49306,3.49304 z"
       style="fill:#bfbfbf;fill-opacity:1;fill-rule:nonzero;stroke:none"
       transform="matrix(1.3333333,0,0,-1.3333333,71.333333,24.824)" />
    <path
       id="path22"
       d="M 2.2368438,-4.7233984 H 2.0845 c -0.4570312,0.421875 -1.03125,0.4453125 -1.44140625,0.4570312 v 0.4453125 C 0.912625,-3.8327734 1.2641875,-3.8444922 1.6040313,-3.9851172 v 3.55078126 H 0.67825 V -7.421875e-4 H 3.162625 V -0.43433594 H 2.2368438 Z m 4.8662109,2.4609375 c 0,-0.3398438 0,-1.1601563 -0.328125,-1.7226563 -0.3515625,-0.6328125 -0.890625,-0.7382812 -1.21875,-0.7382812 -0.3164063,0 -0.8671875,0.1054687 -1.2070313,0.703125 -0.3398437,0.5507812 -0.3515625,1.3125 -0.3515625,1.7578125 0,0.515625 0.023437,1.1484375 0.3164063,1.67578121 0.3164062,0.5625 0.8320312,0.7265625 1.2421875,0.7265625 0.6914062,0 1.078125,-0.3984375 1.2890625,-0.84375 C 7.0913359,-1.1960547 7.1030547,-1.8288672 7.1030547,-2.2624609 Z m -1.546875,1.94531246 c -0.2929688,0 -0.6328125,-0.1640625 -0.8085938,-0.66796875 -0.140625,-0.42187501 -0.140625,-0.86718751 -0.140625,-1.37109371 0,-0.6445313 0,-1.9101563 0.9492188,-1.9101563 0.9492187,0 0.9492187,1.265625 0.9492187,1.9101563 0,0.4570312 0,0.984375 -0.1757812,1.42968746 -0.1875,0.50390625 -0.5507813,0.609375 -0.7734375,0.609375 z m 0,0"
       style="fill:#000000;fill-opacity:1;fill-rule:nonzero;stroke:none"
       aria-label="10"
       transform="matrix(1.3333333,0,0,1.3333333,109.47067,87.153333)" />
    <path
       id="path23"
       d="m 3.49304,-55.57433 c 0,1.92919 -1.56387,3.49306 -3.49304,3.49306 -1.92917,0 -3.49304,-1.56387 -3.49304,-3.49306 0,-1.92917 1.56387,-3.49304 3.49304,-3.49304 1.92917,0 3.49304,1.56387 3.49304,3.49304 z"
       style="fill:#bfbfbf;fill-opacity:1;fill-rule:nonzero;stroke:none"
       transform="matrix(1.3333333,0,0,-1.3333333,71.333333,24.824)" />
    <path
       id="path24"
       d="M 2.2368906,-4.7231641 H 2.0845469 c -0.4570313,0.421875 -1.03125,0.4453125 -1.44140627,0.4570313 v 0.4453125 c 0.26953125,-0.011719 0.62109377,-0.023437 0.96093747,-0.1640625 v 3.55078124 H 0.67829688 V -5.078125e-4 H 3.1626719 V -0.43410156 H 2.2368906 Z m 3.7060547,0 H 5.7906016 c -0.4570313,0.421875 -1.03125,0.4453125 -1.4414063,0.4570313 v 0.4453125 c 0.2695313,-0.011719 0.6210938,-0.023437 0.9609375,-0.1640625 v 3.55078124 H 4.3843516 v 0.4335937475 h 2.484375 V -0.43410156 H 5.9429453 Z m 0,0"
       style="fill:#000000;fill-opacity:1;fill-rule:nonzero;stroke:none"
       aria-label="11"
       transform="matrix(1.3333333,0,0,1.3333333,38.134667,101.97333)" />
    <path
       id="path25"
       d="m 14.60791,-55.57433 c 0,1.92919 -1.56387,3.49306 -3.49306,3.49306 -1.92917,0 -3.49304,-1.56387 -3.49304,-3.49306 0,-1.92917 1.56387,-3.49304 3.49304,-3.49304 1.92919,0 3.49306,1.56387 3.49306,3.49304 z"
       style="fill:#bfbfbf;fill-opacity:1;fill-rule:nonzero;stroke:none"
       transform="matrix(1.3333333,0,0,-1.3333333,71.333333,24.824)" />
    <path
       id="path26"
       d="M 2.2368438,-4.7231641 H 2.0845 c -0.4570312,0.421875 -1.03125,0.4453125 -1.44140625,0.4570313 v 0.4453125 C 0.912625,-3.8325391 1.2641875,-3.8442578 1.6040313,-3.9848828 v 3.55078124 H 0.67825 V -5.078125e-4 H 3.162625 V -0.43410156 H 2.2368438 Z m 3.4365234,4.18359379 c -0.082031,0 -0.1640625,0.0117188 -0.2460938,0.0117188 h -0.796875 l 1.078125,-0.96093759 c 0.1289063,-0.1054687 0.46875,-0.3632812 0.609375,-0.4804687 0.3046875,-0.28125 0.7148438,-0.6445313 0.7148438,-1.2421875 0,-0.796875 -0.5859375,-1.5117187 -1.5820313,-1.5117187 -0.7382812,0 -1.2070312,0.3984375 -1.4414062,1.1132812 l 0.328125,0.4101562 c 0.1640625,-0.5859375 0.4101562,-1.0429687 1.0078125,-1.0429687 0.5859375,0 1.03125,0.4101562 1.03125,1.0429687 0,0.5742188 -0.3398438,0.9023438 -0.75,1.3007813 -0.140625,0.140625 -0.515625,0.4570312 -0.6679688,0.5976562 -0.1992187,0.1757813 -0.6796875,0.64453134 -0.8789062,0.82031259 v 0.4804687475 h 2.953125 V -0.53957031 Z m 0,0"
       style="fill:#000000;fill-opacity:1;fill-rule:nonzero;stroke:none"
       aria-label="12"
       transform="matrix(1.3333333,0,0,1.3333333,109.47067,101.97333)" />
    <path
       id="path27"
       d="m 3.49304,-66.6892 c 0,1.92919 -1.56387,3.49306 -3.49304,3.49306 -1.92917,0 -3.49304,-1.56387 -3.49304,-3.49306 0,-1.92916 1.56387,-3.49304 3.49304,-3.49304 1.92917,0 3.49304,1.56388 3.49304,3.49304 z"
       style="fill:#bfbfbf;fill-opacity:1;fill-rule:nonzero;stroke:none"
       transform="matrix(1.3333333,0,0,-1.3333333,71.333333,24.824)" />
    <path
       id="path28"
       d="M 2.2368906,-4.7229297 H 2.0845469 c -0.4570313,0.421875 -1.03125,0.4453125 -1.44140627,0.4570313 v 0.4453125 c 0.26953125,-0.011719 0.62109377,-0.023437 0.96093747,-0.1640625 v 3.55078121 H 0.67829688 V -2.734375e-4 H 3.1626719 V -0.43386719 H 2.2368906 Z m 2.1708985,1.1484375 c 0.28125,-0.5625 0.7851562,-0.7148437 1.1132812,-0.7148437 0.4101563,0 0.7265625,0.234375 0.7265625,0.6328125 0,0.375 -0.2578125,0.8203125 -0.7851562,0.9140625 -0.035156,0.011719 -0.058594,0.011719 -0.5273438,0.046875 v 0.4570312 h 0.5507813 c 0.65625,0 0.9023437,0.5273438 0.9023437,0.9609375 0,0.55078126 -0.328125,0.96093751 -0.8789062,0.96093751 -0.4921875,0 -1.0546875,-0.234375 -1.40625,-0.6796875 l -0.09375,0.45703125 c 0.4101562,0.4453125 0.9726562,0.6796875 1.5117187,0.6796875 0.9140625,0 1.5703125,-0.6796875 1.5703125,-1.40624996 0,-0.5742188 -0.4570312,-1.03125 -1.0078125,-1.1953125 0.5273438,-0.2695313 0.796875,-0.7382813 0.796875,-1.1953125 0,-0.5859375 -0.5976562,-1.0664063 -1.3476562,-1.0664063 -0.609375,0 -1.125,0.328125 -1.4179688,0.7382813 z m 0,0"
       style="fill:#000000;fill-opacity:1;fill-rule:nonzero;stroke:none"
       aria-label="13"
       transform="matrix(1.3333333,0,0,1.3333333,38.134667,116.79333)" />
    <path
       id="path29"
       d="m 14.60791,-66.6892 c 0,1.92919 -1.56387,3.49306 -3.49306,3.49306 -1.92917,0 -3.49304,-1.56387 -3.49304,-3.49306 0,-1.92916 1.56387,-3.49304 3.49304,-3.49304 1.92919,0 3.49306,1.56388 3.49306,3.49304 z"
       style="fill:#bfbfbf;fill-opacity:1;fill-rule:nonzero;stroke:none"
       transform="matrix(1.3333333,0,0,-1.3333333,71.333333,24.824)" />
    <path
       id="path30"
       d="M 2.2368438,-4.7229297 H 2.0845 c -0.4570312,0.421875 -1.03125,0.4453125 -1.44140625,0.4570313 v 0.4453125 C 0.912625,-3.8323047 1.2641875,-3.8440234 1.6040313,-3.9846484 v 3.55078121 H 0.67825 V -2.734375e-4 H 3.162625 V -0.43386719 H 2.2368438 Z m 4.2333984,3.5625 h 0.7265625 v -0.46875 H 6.4702422 V -4.5705859 H 5.7788359 l -1.8632812,2.9414062 v 0.46875 h 1.9453125 v 1.1601562625 h 0.609375 z m -1.96875,-0.46875 c 0.2109375,-0.328125 1.4179687,-2.1796875 1.4179687,-2.6015625 v 2.6015625 z m 0,0"
       style="fill:#000000;fill-opacity:1;fill-rule:nonzero;stroke:none"
       aria-label="14"
       transform="matrix(1.3333333,0,0,1.3333333,109.47067,116.79333)" />
    <path
       id="path31"
       d="m 3.49304,-77.80405 c 0,1.92917 -1.56387,3.49305 -3.49304,3.49305 -1.92917,0 -3.49304,-1.56388 -3.49304,-3.49305 0,-1.92918 1.56387,-3.49305 3.49304,-3.49305 1.92917,0 3.49304,1.56387 3.49304,3.49305 z"
       style="fill:#bfbfbf;fill-opacity:1;fill-rule:nonzero;stroke:none"
       transform="matrix(1.3333333,0,0,-1.3333333,71.333333,24.824)" />
    <path
       id="path32"
       d="M 2.2368906,-4.7216953 H 2.0845469 c -0.4570313,0.421875 -1.03125,0.4453125 -1.44140627,0.4570312 v 0.4453125 c 0.26953125,-0.011719 0.62109377,-0.023437 0.96093747,-0.1640625 v 3.55078129 H 0.67829688 V 9.609375e-4 H 3.1626719 V -0.43263281 H 2.2368906 Z m 2.616211,0.6328125 h 1.921875 v -0.4804688 h -2.484375 v 2.6015625 h 0.5039062 c 0.1757813,-0.375 0.5039063,-0.5390625 0.8085938,-0.5390625 0.2929687,0 0.7265625,0.1875 0.7265625,1.078125 0,0.91406254 -0.5859375,1.11328129 -0.9375,1.11328129 -0.4570313,0 -0.9023438,-0.24609375 -1.1484375,-0.64453125 l -0.2578125,0.421875 c 0.3398437,0.421875 0.8554687,0.6796875 1.40625,0.6796875 0.9257812,0 1.640625,-0.703125 1.640625,-1.55859374 0,-0.8671875 -0.6445313,-1.546875 -1.40625,-1.546875 -0.3046875,0 -0.5742188,0.09375 -0.7734375,0.2695312 z m 0,0"
       style="fill:#000000;fill-opacity:1;fill-rule:nonzero;stroke:none"
       aria-label="15"
       transform="matrix(1.3333333,0,0,1.3333333,38.134667,131.612)" />
    <path
       id="path33"
       d="m 14.60791,-77.80405 c 0,1.92917 -1.56387,3.49305 -3.49306,3.49305 -1.92917,0 -3.49304,-1.56388 -3.49304,-3.49305 0,-1.92918 1.56387,-3.49305 3.49304,-3.49305 1.92919,0 3.49306,1.56387 3.49306,3.49305 z"
       style="fill:#bfbfbf;fill-opacity:1;fill-rule:nonzero;stroke:none"
       transform="matrix(1.3333333,0,0,-1.3333333,71.333333,24.824)" />
    <path
       id="path34"
       d="M 2.2368438,-4.7216953 H 2.0845 c -0.4570312,0.421875 -1.03125,0.4453125 -1.44140625,0.4570312 v 0.4453125 C 0.912625,-3.8310703 1.2641875,-3.8427891 1.6040313,-3.9834141 v 3.55078129 H 0.67825 V 9.609375e-4 H 3.162625 V -0.43263281 H 2.2368438 Z m 4.5263671,0.140625 c -0.375,-0.140625 -0.6445312,-0.140625 -0.7734375,-0.140625 -1.0546875,0 -1.9804687,0.9960937 -1.9804687,2.4726562 0,1.88671879 0.8554687,2.39062504 1.5585937,2.39062504 0.5625,0 0.8554688,-0.2578125 1.0664063,-0.48046875 0.4570312,-0.48046875 0.4570312,-0.97265629 0.4570312,-1.21874999 0,-0.9140625 -0.4921875,-1.6640625 -1.171875,-1.6640625 -0.6796875,0 -1.0546875,0.3515625 -1.2539062,0.5507812 0.09375,-0.9492187 0.5742187,-1.6171875 1.3359375,-1.6171875 0.140625,0 0.4101562,0.011719 0.7617187,0.1523438 z m -2.0859375,3.046875 c 0,-0.035156 0,-0.140625 0,-0.1757813 0,-0.4804687 0.3046875,-1.0546875 0.9257813,-1.0546875 0.84375,0 0.84375,0.9726563 0.84375,1.2070313 0,0.2695312 0,0.56249999 -0.1875,0.85546874 -0.1640625,0.24609375 -0.375,0.38671875 -0.6914063,0.38671875 -0.7382812,0 -0.8554687,-0.91406249 -0.890625,-1.21874999 z m 0,0"
       style="fill:#000000;fill-opacity:1;fill-rule:nonzero;stroke:none"
       aria-label="16"
       transform="matrix(1.3333333,0,0,1.3333333,109.47067,131.612)" />
    <path
       id="path35"
       d="m 3.49304,-88.91891 c 0,1.92916 -1.56387,3.49304 -3.49304,3.49304 -1.92917,0 -3.49304,-1.56388 -3.49304,-3.49304 0,-1.92919 1.56387,-3.49306 3.49304,-3.49306 1.92917,0 3.49304,1.56387 3.49304,3.49306 z"
       style="fill:#bfbfbf;fill-opacity:1;fill-rule:nonzero;stroke:none"
       transform="matrix(1.3333333,0,0,-1.3333333,71.333333,24.824)" />
    <path
       id="path36"
       d="M 2.2368906,-4.7214609 H 2.0845469 c -0.4570313,0.421875 -1.03125,0.4453125 -1.44140627,0.4570312 v 0.4453125 c 0.26953125,-0.011719 0.62109377,-0.023437 0.96093747,-0.1640625 v 3.55078126 H 0.67829688 V 0.00119531 H 3.1626719 V -0.43239844 H 2.2368906 Z m 3.1904297,0.6796875 c 0.082031,0 0.1640625,0 0.2460938,0 h 0.8789062 c -1.0546875,1.0429687 -1.734375,2.4960937 -1.734375,4.11328121 h 0.65625 c 0,-2.03906251 0.9960938,-3.50390621 1.6171875,-4.16015621 V -4.5691172 H 4.0093516 v 0.5273438 z m 0,0"
       style="fill:#000000;fill-opacity:1;fill-rule:nonzero;stroke:none"
       aria-label="17"
       transform="matrix(1.3333333,0,0,1.3333333,38.134667,146.432)" />
    <path
       id="path37"
       d="m 14.60791,-88.91891 c 0,1.92916 -1.56387,3.49304 -3.49306,3.49304 -1.92917,0 -3.49304,-1.56388 -3.49304,-3.49304 0,-1.92919 1.56387,-3.49306 3.49304,-3.49306 1.92919,0 3.49306,1.56387 3.49306,3.49306 z"
       style="fill:#bfbfbf;fill-opacity:1;fill-rule:nonzero;stroke:none"
       transform="matrix(1.3333333,0,0,-1.3333333,71.333333,24.824)" />
    <path
       id="path38"
       d="M 2.2368438,-4.7214609 H 2.0845 c -0.4570312,0.421875 -1.03125,0.4453125 -1.44140625,0.4570312 v 0.4453125 C 0.912625,-3.8308359 1.2641875,-3.8425547 1.6040313,-3.9831797 v 3.55078126 H 0.67825 V 0.00119531 H 3.162625 V -0.43239844 H 2.2368438 Z m 3.8466796,2.25 c 0.46875,-0.140625 0.9023438,-0.515625 0.9023438,-1.03125 0,-0.6328125 -0.609375,-1.21875 -1.4296875,-1.21875 -0.8320313,0 -1.4414063,0.5859375 -1.4414063,1.21875 0,0.5273437 0.4570313,0.890625 0.9023438,1.03125 -0.609375,0.1875 -1.0078125,0.6679687 -1.0078125,1.2070312 0,0.73828126 0.6679687,1.40625001 1.546875,1.40625001 0.8789062,0 1.5351562,-0.66796875 1.5351562,-1.40625001 0,-0.5390625 -0.3984375,-1.0195312 -1.0078125,-1.2070312 z M 5.5561797,-2.6941172 c -0.5039063,0 -0.9023438,-0.2929687 -0.9023438,-0.796875 0,-0.4453125 0.3164063,-0.796875 0.9023438,-0.796875 0.5742187,0 0.890625,0.3515625 0.890625,0.796875 0,0.4921875 -0.3867188,0.796875 -0.890625,0.796875 z m 0,2.37890626 c -0.4804688,0 -0.9140625,-0.3046875 -0.9140625,-0.96093746 0,-0.6210938 0.4101562,-0.9609375 0.9140625,-0.9609375 0.5039062,0 0.9023437,0.3398437 0.9023437,0.9609375 0,0.65624996 -0.4335937,0.96093746 -0.9023437,0.96093746 z m 0,0"
       style="fill:#000000;fill-opacity:1;fill-rule:nonzero;stroke:none"
       aria-label="18"
       transform="matrix(1.3333333,0,0,1.3333333,109.47067,146.432)" />
    <path
       id="path39"
       d="m 3.49304,-100.03378 c 0,1.92917 -1.56387,3.49304 -3.49304,3.49304 -1.92917,0 -3.49304,-1.56387 -3.49304,-3.49304 0,-1.92919 1.56387,-3.49306 3.49304,-3.49306 1.92917,0 3.49304,1.56387 3.49304,3.49306 z"
       style="fill:#bfbfbf;fill-opacity:1;fill-rule:nonzero;stroke:none"
       transform="matrix(1.3333333,0,0,-1.3333333,71.333333,24.824)" />
    <path
       id="path40"
       d="M 2.2368906,-4.7212266 H 2.0845469 c -0.4570313,0.421875 -1.03125,0.4453125 -1.44140627,0.4570313 v 0.4453125 c 0.26953125,-0.011719 0.62109377,-0.023437 0.96093747,-0.1640625 v 3.55078124 H 0.67829688 V 0.00142969 H 3.1626719 V -0.43216406 H 2.2368906 Z m 2.006836,4.54687504 c 0.3398437,0.2578125 0.65625,0.31640625 0.984375,0.31640625 0.9726562,0 1.8632812,-0.97265625 1.8632812,-2.47265629 0,-1.9101562 -0.84375,-2.390625 -1.5117187,-2.390625 -0.6210938,0 -0.9023438,0.2929688 -1.1132813,0.4921875 -0.4453125,0.4570313 -0.4570312,0.9375 -0.4570312,1.2070313 0,0.9023437 0.4921875,1.6757812 1.171875,1.6757812 0.7851562,0 1.21875,-0.515625 1.2539062,-0.5625 -0.09375,1.11328129 -0.6328125,1.59375004 -1.2070312,1.59375004 -0.3632813,0 -0.5859375,-0.12890625 -0.75,-0.2578125 z M 6.4116953,-3.0220078 c 0.011719,0.035156 0.011719,0.1054687 0.011719,0.1523437 0,0.515625 -0.3164063,1.0664063 -0.9140625,1.0664063 -0.2695313,0 -0.4804688,-0.082031 -0.65625,-0.3632813 -0.1875,-0.2695312 -0.1992188,-0.5390625 -0.1992188,-0.8554687 0,-0.2695313 0,-0.5859375 0.2109375,-0.890625 0.1523438,-0.2109375 0.3632813,-0.375 0.703125,-0.375 0.6796875,0 0.8320313,0.8203125 0.8437498,1.265625 z m 0,0"
       style="fill:#000000;fill-opacity:1;fill-rule:nonzero;stroke:none"
       aria-label="19"
       transform="matrix(1.3333333,0,0,1.3333333,38.134667,161.252)" />
    <path
       id="path41"
       d="m 14.60791,-100.03378 c 0,1.92917 -1.56387,3.49304 -3.49306,3.49304 -1.92917,0 -3.49304,-1.56387 -3.49304,-3.49304 0,-1.92919 1.56387,-3.49306 3.49304,-3.49306 1.92919,0 3.49306,1.56387 3.49306,3.49306 z"
       style="fill:#bfbfbf;fill-opacity:1;fill-rule:nonzero;stroke:none"
       transform="matrix(1.3333333,0,0,-1.3333333,71.333333,24.824)" />
    <path
       id="path42"
       d="m 1.9673125,-0.53763281 c -0.082031,0 -0.1640625,0.0117188 -0.2460937,0.0117188 H 0.92434375 L 2.0024688,-1.4868516 c 0.1289062,-0.1054687 0.46875,-0.3632812 0.609375,-0.4804687 0.3046875,-0.28125 0.7148437,-0.6445313 0.7148437,-1.2421875 0,-0.796875 -0.5859375,-1.5117188 -1.5820312,-1.5117188 -0.7382813,0 -1.2070313,0.3984375 -1.4414063,1.1132813 l 0.328125,0.4101562 c 0.1640625,-0.5859375 0.4101563,-1.0429687 1.0078125,-1.0429687 0.5859375,0 1.03125,0.4101562 1.03125,1.0429687 0,0.5742188 -0.3398437,0.9023438 -0.75,1.3007813 -0.140625,0.140625 -0.515625,0.4570312 -0.6679687,0.5976562 -0.1992188,0.1757813 -0.67968755,0.64453129 -0.8789063,0.82031254 v 0.48046875 h 2.953125 v -0.5390625 z M 7.1030547,-2.2602891 c 0,-0.3398437 0,-1.1601562 -0.328125,-1.7226562 -0.3515625,-0.6328125 -0.890625,-0.7382813 -1.21875,-0.7382813 -0.3164063,0 -0.8671875,0.1054688 -1.2070313,0.703125 -0.3398437,0.5507813 -0.3515625,1.3125 -0.3515625,1.7578125 0,0.515625 0.023437,1.1484375 0.3164063,1.67578129 0.3164062,0.5625 0.8320312,0.7265625 1.2421875,0.7265625 0.6914062,0 1.078125,-0.3984375 1.2890625,-0.84375 C 7.0913359,-1.1938828 7.1030547,-1.8266953 7.1030547,-2.2602891 Z m -1.546875,1.94531254 c -0.2929688,0 -0.6328125,-0.1640625 -0.8085938,-0.66796875 -0.140625,-0.42187499 -0.140625,-0.86718749 -0.140625,-1.37109379 0,-0.6445312 0,-1.9101562 0.9492188,-1.9101562 0.9492187,0 0.9492187,1.265625 0.9492187,1.9101562 0,0.4570313 0,0.984375 -0.1757812,1.42968754 -0.1875,0.50390625 -0.5507813,0.609375 -0.7734375,0.609375 z m 0,0"
       style="fill:#000000;fill-opacity:1;fill-rule:nonzero;stroke:none"
       aria-label="20"
       transform="matrix(1.3333333,0,0,1.3333333,109.47067,161.252)" />
    <path
       id="path43"
       d="m 3.49304,-111.14865 c 0,1.92918 -1.56387,3.49305 -3.49304,3.49305 -1.92917,0 -3.49304,-1.56387 -3.49304,-3.49305 0,-1.92917 1.56387,-3.49305 3.49304,-3.49305 1.92917,0 3.49304,1.56388 3.49304,3.49305 z"
       style="fill:#bfbfbf;fill-opacity:1;fill-rule:nonzero;stroke:none"
       transform="matrix(1.3333333,0,0,-1.3333333,71.333333,24.824)" />
    <path
       id="path44"
       d="m 1.9673594,-0.54032812 c -0.082031,0 -0.1640625,0.0117188 -0.2460938,0.0117188 H 0.92439063 L 2.0025156,-1.4895469 c 0.1289063,-0.1054687 0.46875,-0.3632812 0.609375,-0.4804687 0.3046875,-0.28125 0.7148438,-0.6445313 0.7148438,-1.2421875 0,-0.796875 -0.5859375,-1.5117188 -1.5820313,-1.5117188 -0.7382812,0 -1.20703122,0.3984375 -1.44140622,1.1132813 l 0.328125,0.4101562 c 0.1640625,-0.5859375 0.41015622,-1.0429687 1.00781252,-1.0429687 0.5859375,0 1.03125,0.4101562 1.03125,1.0429687 0,0.5742188 -0.3398438,0.9023438 -0.75,1.3007813 -0.140625,0.140625 -0.515625,0.4570312 -0.6679688,0.5976562 -0.1992187,0.1757813 -0.67968747,0.64453128 -0.87890622,0.82031253 v 0.48046875 H 3.3267344 v -0.5390625 z M 5.9429453,-4.7239219 H 5.7906016 c -0.4570313,0.421875 -1.03125,0.4453125 -1.4414063,0.4570313 v 0.4453125 c 0.2695313,-0.011719 0.6210938,-0.023437 0.9609375,-0.1640625 v 3.55078123 H 4.3843516 v 0.43359375 h 2.484375 V -0.43485937 H 5.9429453 Z m 0,0"
       style="fill:#000000;fill-opacity:1;fill-rule:nonzero;stroke:none"
       aria-label="21"
       transform="matrix(1.3333333,0,0,1.3333333,38.134667,176.072)" />
    <path
       id="path45"
       d="m 14.60791,-111.14865 c 0,1.92918 -1.56387,3.49305 -3.49306,3.49305 -1.92917,0 -3.49304,-1.56387 -3.49304,-3.49305 0,-1.92917 1.56387,-3.49305 3.49304,-3.49305 1.92919,0 3.49306,1.56388 3.49306,3.49305 z"
       style="fill:#bfbfbf;fill-opacity:1;fill-rule:nonzero;stroke:none"
       transform="matrix(1.3333333,0,0,-1.3333333,71.333333,24.824)" />
    <path
       id="path46"
       d="m 1.9673125,-0.54032812 c -0.082031,0 -0.1640625,0.0117188 -0.2460937,0.0117188 H 0.92434375 L 2.0024688,-1.4895469 c 0.1289062,-0.1054687 0.46875,-0.3632812 0.609375,-0.4804687 0.3046875,-0.28125 0.7148437,-0.6445313 0.7148437,-1.2421875 0,-0.796875 -0.5859375,-1.5117188 -1.5820312,-1.5117188 -0.7382813,0 -1.2070313,0.3984375 -1.4414063,1.1132813 l 0.328125,0.4101562 c 0.1640625,-0.5859375 0.4101563,-1.0429687 1.0078125,-1.0429687 0.5859375,0 1.03125,0.4101562 1.03125,1.0429687 0,0.5742188 -0.3398437,0.9023438 -0.75,1.3007813 -0.140625,0.140625 -0.515625,0.4570312 -0.6679687,0.5976562 -0.1992188,0.1757813 -0.67968755,0.64453128 -0.8789063,0.82031253 v 0.48046875 h 2.953125 v -0.5390625 z m 3.7060547,0 c -0.082031,0 -0.1640625,0.0117188 -0.2460938,0.0117188 h -0.796875 l 1.078125,-0.96093748 c 0.1289063,-0.1054687 0.46875,-0.3632812 0.609375,-0.4804687 0.3046875,-0.2812501 0.7148438,-0.6445314 0.7148438,-1.2421876 0,-0.7968749 -0.5859375,-1.5117187 -1.5820313,-1.5117187 -0.7382812,0 -1.2070312,0.3984375 -1.4414062,1.1132812 l 0.328125,0.4101562 c 0.1640625,-0.5859375 0.4101562,-1.0429686 1.0078125,-1.0429686 0.5859375,0 1.03125,0.4101561 1.03125,1.0429686 0,0.5742189 -0.3398438,0.9023439 -0.75,1.3007814 -0.140625,0.140625 -0.515625,0.4570312 -0.6679688,0.5976562 -0.1992187,0.1757813 -0.6796875,0.64453123 -0.8789062,0.82031248 v 0.48046875 h 2.953125 v -0.5390625 z m 0,0"
       style="fill:#000000;fill-opacity:1;fill-rule:nonzero;stroke:none"
       aria-label="22"
       transform="matrix(1.3333333,0,0,1.3333333,109.47067,176.072)" />
    <path
       id="path47"
       d="m 3.49304,-122.26352 c 0,1.92918 -1.56387,3.49306 -3.49304,3.49306 -1.92917,0 -3.49304,-1.56388 -3.49304,-3.49306 0,-1.92917 1.56387,-3.49304 3.49304,-3.49304 1.92917,0 3.49304,1.56387 3.49304,3.49304 z"
       style="fill:#bfbfbf;fill-opacity:1;fill-rule:nonzero;stroke:none"
       transform="matrix(1.3333333,0,0,-1.3333333,71.333333,24.824)" />
    <path
       id="path48"
       d="m 1.9673594,-0.53909375 c -0.082031,0 -0.1640625,0.0117188 -0.2460938,0.0117188 H 0.92439063 L 2.0025156,-1.4883125 c 0.1289063,-0.1054687 0.46875,-0.3632812 0.609375,-0.4804687 0.3046875,-0.28125 0.7148438,-0.6445313 0.7148438,-1.2421875 0,-0.796875 -0.5859375,-1.5117188 -1.5820313,-1.5117188 -0.7382812,0 -1.20703122,0.3984375 -1.44140622,1.1132813 l 0.328125,0.4101562 c 0.1640625,-0.5859375 0.41015622,-1.0429687 1.00781252,-1.0429687 0.5859375,0 1.03125,0.4101562 1.03125,1.0429687 0,0.5742188 -0.3398438,0.9023438 -0.75,1.3007813 -0.140625,0.140625 -0.515625,0.4570312 -0.6679688,0.5976562 C 1.0532969,-1.1250312 0.57282813,-0.65628125 0.37360938,-0.4805 V -3.125e-5 H 3.3267344 v -0.5390625 z M 4.4077891,-3.57425 c 0.28125,-0.5625 0.7851562,-0.7148437 1.1132812,-0.7148437 0.4101563,0 0.7265625,0.234375 0.7265625,0.6328125 0,0.375 -0.2578125,0.8203125 -0.7851562,0.9140625 -0.035156,0.011719 -0.058594,0.011719 -0.5273438,0.046875 v 0.4570312 h 0.5507813 c 0.65625,0 0.9023437,0.5273438 0.9023437,0.9609375 0,0.55078125 -0.328125,0.9609375 -0.8789062,0.9609375 -0.4921875,0 -1.0546875,-0.234375 -1.40625,-0.6796875 l -0.09375,0.45703125 c 0.4101562,0.4453125 0.9726562,0.6796875 1.5117187,0.6796875 0.9140625,0 1.5703125,-0.6796875 1.5703125,-1.40624995 0,-0.5742188 -0.4570312,-1.03125 -1.0078125,-1.1953125 0.5273438,-0.2695313 0.796875,-0.7382813 0.796875,-1.1953125 0,-0.5859375 -0.5976562,-1.0664063 -1.3476562,-1.0664063 -0.609375,0 -1.125,0.328125 -1.4179688,0.7382813 z m 0,0"
       style="fill:#000000;fill-opacity:1;fill-rule:nonzero;stroke:none"
       aria-label="23"
       transform="matrix(1.3333333,0,0,1.3333333,38.134667,190.89067)" />
    <path
       id="path49"
       d="m 14.60791,-122.26352 c 0,1.92918 -1.56387,3.49306 -3.49306,3.49306 -1.92917,0 -3.49304,-1.56388 -3.49304,-3.49306 0,-1.92917 1.56387,-3.49304 3.49304,-3.49304 1.92919,0 3.49306,1.56387 3.49306,3.49304 z"
       style="fill:#bfbfbf;fill-opacity:1;fill-rule:nonzero;stroke:none"
       transform="matrix(1.3333333,0,0,-1.3333333,71.333333,24.824)" />
    <path
       id="path50"
       d="m 1.9673125,-0.53909375 c -0.082031,0 -0.1640625,0.0117188 -0.2460937,0.0117188 H 0.92434375 L 2.0024688,-1.4883125 c 0.1289062,-0.1054687 0.46875,-0.3632812 0.609375,-0.4804687 0.3046875,-0.28125 0.7148437,-0.6445313 0.7148437,-1.2421875 0,-0.796875 -0.5859375,-1.5117188 -1.5820312,-1.5117188 -0.7382813,0 -1.2070313,0.3984375 -1.4414063,1.1132813 L 0.631375,-3.19925 c 0.1640625,-0.5859375 0.4101563,-1.0429687 1.0078125,-1.0429687 0.5859375,0 1.03125,0.4101562 1.03125,1.0429687 0,0.5742188 -0.3398437,0.9023438 -0.75,1.3007813 -0.140625,0.140625 -0.515625,0.4570312 -0.6679687,0.5976562 C 1.05325,-1.1250312 0.57278125,-0.65628125 0.3735625,-0.4805 V -3.125e-5 h 2.953125 v -0.5390625 z M 6.4702422,-1.1601875 h 0.7265625 v -0.46875 H 6.4702422 V -4.5703437 H 5.7788359 l -1.8632812,2.9414062 v 0.46875 H 5.8608672 V -3.125e-5 h 0.609375 z m -1.96875,-0.46875 C 4.7124297,-1.9570625 5.9194609,-3.808625 5.9194609,-4.2305 v 2.6015625 z m 0,0"
       style="fill:#000000;fill-opacity:1;fill-rule:nonzero;stroke:none"
       aria-label="24"
       transform="matrix(1.3333333,0,0,1.3333333,109.47067,190.89067)" />
    <path
       id="path51"
       d="m 3.49304,-133.37839 c 0,1.92919 -1.56387,3.49306 -3.49304,3.49306 -1.92917,0 -3.49304,-1.56387 -3.49304,-3.49306 0,-1.92917 1.56387,-3.49304 3.49304,-3.49304 1.92917,0 3.49304,1.56387 3.49304,3.49304 z"
       style="fill:#bfbfbf;fill-opacity:1;fill-rule:nonzero;stroke:none"
       transform="matrix(1.3333333,0,0,-1.3333333,71.333333,24.824)" />
    <path
       id="path52"
       d="m 1.9673594,-0.53885937 c -0.082031,0 -0.1640625,0.0117188 -0.2460938,0.0117188 H 0.92439063 L 2.0025156,-1.4880781 c 0.1289063,-0.1054688 0.46875,-0.3632813 0.609375,-0.4804688 0.3046875,-0.28125 0.7148438,-0.6445312 0.7148438,-1.2421875 0,-0.796875 -0.5859375,-1.5117187 -1.5820313,-1.5117187 -0.7382812,0 -1.20703122,0.3984375 -1.44140622,1.1132812 l 0.328125,0.4101563 c 0.1640625,-0.5859375 0.41015622,-1.0429688 1.00781252,-1.0429688 0.5859375,0 1.03125,0.4101563 1.03125,1.0429688 0,0.5742187 -0.3398438,0.9023437 -0.75,1.3007812 -0.140625,0.140625 -0.515625,0.4570313 -0.6679688,0.5976563 -0.1992187,0.1757812 -0.67968747,0.64453123 -0.87890622,0.82031248 V 2.03125e-4 H 3.3267344 V -0.53885937 Z M 4.8531016,-4.0896406 h 1.921875 v -0.4804688 h -2.484375 v 2.6015625 h 0.5039062 c 0.1757813,-0.375 0.5039063,-0.5390625 0.8085938,-0.5390625 0.2929687,0 0.7265625,0.1875 0.7265625,1.078125 0,0.91406253 -0.5859375,1.11328128 -0.9375,1.11328128 -0.4570313,0 -0.9023438,-0.24609375 -1.1484375,-0.64453125 l -0.2578125,0.421875 c 0.3398437,0.421875 0.8554687,0.6796875 1.40625,0.6796875 0.9257812,0 1.640625,-0.703125 1.640625,-1.55859373 0,-0.8671875 -0.6445313,-1.546875 -1.40625,-1.546875 -0.3046875,0 -0.5742188,0.09375 -0.7734375,0.2695312 z m 0,0"
       style="fill:#000000;fill-opacity:1;fill-rule:nonzero;stroke:none"
       aria-label="25"
       transform="matrix(1.3333333,0,0,1.3333333,38.134667,205.71067)" />
    <path
       id="path53"
       d="m 14.60791,-133.37839 c 0,1.92919 -1.56387,3.49306 -3.49306,3.49306 -1.92917,0 -3.49304,-1.56387 -3.49304,-3.49306 0,-1.92917 1.56387,-3.49304 3.49304,-3.49304 1.92919,0 3.49306,1.56387 3.49306,3.49304 z"
       style="fill:#bfbfbf;fill-opacity:1;fill-rule:nonzero;stroke:none"
       transform="matrix(1.3333333,0,0,-1.3333333,71.333333,24.824)" />
    <path
       id="path54"
       d="m 1.9673125,-0.53885937 c -0.082031,0 -0.1640625,0.0117188 -0.2460937,0.0117188 H 0.92434375 L 2.0024688,-1.4880781 c 0.1289062,-0.1054688 0.46875,-0.3632813 0.609375,-0.4804688 0.3046875,-0.28125 0.7148437,-0.6445312 0.7148437,-1.2421875 0,-0.796875 -0.5859375,-1.5117187 -1.5820312,-1.5117187 -0.7382813,0 -1.2070313,0.3984375 -1.4414063,1.1132812 l 0.328125,0.4101563 c 0.1640625,-0.5859375 0.4101563,-1.0429688 1.0078125,-1.0429688 0.5859375,0 1.03125,0.4101563 1.03125,1.0429688 0,0.5742187 -0.3398437,0.9023437 -0.75,1.3007812 -0.140625,0.140625 -0.515625,0.4570313 -0.6679687,0.5976563 C 1.05325,-1.1247969 0.57278125,-0.65604687 0.3735625,-0.48026562 V 2.03125e-4 h 2.953125 V -0.53885937 Z M 6.7632109,-4.5818281 c -0.375,-0.140625 -0.6445312,-0.140625 -0.7734375,-0.140625 -1.0546875,0 -1.9804687,0.9960937 -1.9804687,2.4726562 0,1.88671878 0.8554687,2.39062503 1.5585937,2.39062503 0.5625,0 0.8554688,-0.2578125 1.0664063,-0.48046875 0.4570312,-0.48046875 0.4570312,-0.97265628 0.4570312,-1.21874998 0,-0.9140625 -0.4921875,-1.6640625 -1.171875,-1.6640625 -0.6796875,0 -1.0546875,0.3515625 -1.2539062,0.5507812 0.09375,-0.9492187 0.5742187,-1.6171875 1.3359375,-1.6171875 0.140625,0 0.4101562,0.011719 0.7617187,0.1523438 z m -2.0859375,3.046875 c 0,-0.035156 0,-0.140625 0,-0.1757813 0,-0.4804687 0.3046875,-1.0546875 0.9257813,-1.0546875 0.84375,0 0.84375,0.9726563 0.84375,1.2070313 0,0.2695312 0,0.56249998 -0.1875,0.85546873 -0.1640625,0.24609375 -0.375,0.38671875 -0.6914063,0.38671875 -0.7382812,0 -0.8554687,-0.91406248 -0.890625,-1.21874998 z m 0,0"
       style="fill:#000000;fill-opacity:1;fill-rule:nonzero;stroke:none"
       aria-label="26"
       transform="matrix(1.3333333,0,0,1.3333333,109.47067,205.71067)" />
    <path
       id="path55"
       d="m 3.49304,-144.49324 c 0,1.92917 -1.56387,3.49304 -3.49304,3.49304 -1.92917,0 -3.49304,-1.56387 -3.49304,-3.49304 0,-1.92918 1.56387,-3.49306 3.49304,-3.49306 1.92917,0 3.49304,1.56388 3.49304,3.49306 z"
       style="fill:#bfbfbf;fill-opacity:1;fill-rule:nonzero;stroke:none"
       transform="matrix(1.3333333,0,0,-1.3333333,71.333333,24.824)" />
    <path
       id="path56"
       d="m 1.9673594,-0.538625 c -0.082031,0 -0.1640625,0.0117188 -0.2460938,0.0117188 H 0.92439063 L 2.0025156,-1.4878437 c 0.1289063,-0.1054688 0.46875,-0.3632813 0.609375,-0.4804688 0.3046875,-0.28125 0.7148438,-0.6445312 0.7148438,-1.2421875 0,-0.796875 -0.5859375,-1.5117187 -1.5820313,-1.5117187 -0.7382812,0 -1.20703122,0.3984375 -1.44140622,1.1132812 l 0.328125,0.4101563 C 0.79548438,-3.7847187 1.0415781,-4.24175 1.6392344,-4.24175 c 0.5859375,0 1.03125,0.4101563 1.03125,1.0429688 0,0.5742187 -0.3398438,0.9023437 -0.75,1.3007812 -0.140625,0.140625 -0.515625,0.4570313 -0.6679688,0.5976563 -0.1992187,0.1757812 -0.67968747,0.6445312 -0.87890622,0.82031245 V 4.375e-4 H 3.3267344 V -0.538625 Z m 3.4599609,-3.5039062 c 0.082031,0 0.1640625,0 0.2460938,0 H 6.5523203 C 5.4976328,-2.9995625 4.8179453,-1.5464375 4.8179453,0.07075 h 0.65625 c 0,-2.0390625 0.9960938,-3.5039062 1.6171875,-4.1601562 V -4.569875 H 4.0093516 v 0.5273438 z m 0,0"
       style="fill:#000000;fill-opacity:1;fill-rule:nonzero;stroke:none"
       aria-label="27"
       transform="matrix(1.3333333,0,0,1.3333333,38.134667,220.53067)" />
    <path
       id="path57"
       d="m 14.60791,-144.49324 c 0,1.92917 -1.56387,3.49304 -3.49306,3.49304 -1.92917,0 -3.49304,-1.56387 -3.49304,-3.49304 0,-1.92918 1.56387,-3.49306 3.49304,-3.49306 1.92919,0 3.49306,1.56388 3.49306,3.49306 z"
       style="fill:#bfbfbf;fill-opacity:1;fill-rule:nonzero;stroke:none"
       transform="matrix(1.3333333,0,0,-1.3333333,71.333333,24.824)" />
    <path
       id="path58"
       d="m 1.9673125,-0.538625 c -0.082031,0 -0.1640625,0.0117188 -0.2460937,0.0117188 H 0.92434375 L 2.0024688,-1.4878437 c 0.1289062,-0.1054688 0.46875,-0.3632813 0.609375,-0.4804688 0.3046875,-0.28125 0.7148437,-0.6445312 0.7148437,-1.2421875 0,-0.796875 -0.5859375,-1.5117187 -1.5820312,-1.5117187 -0.7382813,0 -1.2070313,0.3984375 -1.4414063,1.1132812 l 0.328125,0.4101563 C 0.7954375,-3.7847187 1.0415313,-4.24175 1.6391875,-4.24175 c 0.5859375,0 1.03125,0.4101563 1.03125,1.0429688 0,0.5742187 -0.3398437,0.9023437 -0.75,1.3007812 -0.140625,0.140625 -0.515625,0.4570313 -0.6679687,0.5976563 C 1.05325,-1.1245625 0.57278125,-0.6558125 0.3735625,-0.48003125 V 4.375e-4 h 2.953125 V -0.538625 Z m 4.1162109,-1.9335937 c 0.46875,-0.140625 0.9023438,-0.515625 0.9023438,-1.03125 0,-0.6328125 -0.609375,-1.21875 -1.4296875,-1.21875 -0.8320313,0 -1.4414063,0.5859375 -1.4414063,1.21875 0,0.5273437 0.4570313,0.890625 0.9023438,1.03125 -0.609375,0.1875 -1.0078125,0.6679687 -1.0078125,1.2070312 0,0.73828125 0.6679687,1.40625 1.546875,1.40625 0.8789062,0 1.5351562,-0.66796875 1.5351562,-1.40625 0,-0.5390625 -0.3984375,-1.0195312 -1.0078125,-1.2070312 z M 5.5561797,-2.694875 c -0.5039063,0 -0.9023438,-0.2929687 -0.9023438,-0.796875 0,-0.4453125 0.3164063,-0.796875 0.9023438,-0.796875 0.5742187,0 0.890625,0.3515625 0.890625,0.796875 0,0.4921875 -0.3867188,0.796875 -0.890625,0.796875 z m 0,2.37890625 c -0.4804688,0 -0.9140625,-0.3046875 -0.9140625,-0.96093745 0,-0.6210938 0.4101562,-0.9609375 0.9140625,-0.9609375 0.5039062,0 0.9023437,0.3398437 0.9023437,0.9609375 0,0.65624995 -0.4335937,0.96093745 -0.9023437,0.96093745 z m 0,0"
       style="fill:#000000;fill-opacity:1;fill-rule:nonzero;stroke:none"
       aria-label="28"
       transform="matrix(1.3333333,0,0,1.3333333,109.47067,220.53067)" />
    <path
       id="path59"
       d="m 3.49304,-155.60811 c 0,1.92917 -1.56387,3.49304 -3.49304,3.49304 -1.92917,0 -3.49304,-1.56387 -3.49304,-3.49304 0,-1.92919 1.56387,-3.49306 3.49304,-3.49306 1.92917,0 3.49304,1.56387 3.49304,3.49306 z"
       style="fill:#bfbfbf;fill-opacity:1;fill-rule:nonzero;stroke:none"
       transform="matrix(1.3333333,0,0,-1.3333333,71.333333,24.824)" />
    <path
       id="path60"
       d="m 1.9673594,-0.54032031 c -0.082031,0 -0.1640625,0.0117188 -0.2460938,0.0117188 H 0.92439063 L 2.0025156,-1.4895391 c 0.1289063,-0.1054687 0.46875,-0.3632812 0.609375,-0.4804687 0.3046875,-0.28125 0.7148438,-0.6445313 0.7148438,-1.2421875 0,-0.796875 -0.5859375,-1.5117188 -1.5820313,-1.5117188 -0.7382812,0 -1.20703122,0.3984375 -1.44140622,1.1132813 l 0.328125,0.4101562 c 0.1640625,-0.5859375 0.41015622,-1.0429687 1.00781252,-1.0429687 0.5859375,0 1.03125,0.4101562 1.03125,1.0429687 0,0.5742188 -0.3398438,0.9023438 -0.75,1.3007813 -0.140625,0.140625 -0.515625,0.4570312 -0.6679688,0.5976562 -0.1992187,0.1757813 -0.67968747,0.64453129 -0.87890622,0.82031254 v 0.48046875 H 3.3267344 v -0.5390625 z m 2.2763672,0.36328125 c 0.3398437,0.2578125 0.65625,0.31640625 0.984375,0.31640625 0.9726562,0 1.8632812,-0.97265625 1.8632812,-2.47265629 0,-1.9101562 -0.84375,-2.390625 -1.5117187,-2.390625 -0.6210938,0 -0.9023438,0.2929688 -1.1132813,0.4921875 -0.4453125,0.4570313 -0.4570312,0.9375 -0.4570312,1.2070313 0,0.9023437 0.4921875,1.6757812 1.171875,1.6757812 0.7851562,0 1.21875,-0.515625 1.2539062,-0.5625 -0.09375,1.11328129 -0.6328125,1.59375004 -1.2070312,1.59375004 -0.3632813,0 -0.5859375,-0.12890625 -0.75,-0.2578125 z M 6.4116953,-3.0246953 c 0.011719,0.035156 0.011719,0.1054687 0.011719,0.1523437 0,0.515625 -0.3164063,1.0664063 -0.9140625,1.0664063 -0.2695313,0 -0.4804688,-0.082031 -0.65625,-0.3632813 -0.1875,-0.2695312 -0.1992188,-0.5390625 -0.1992188,-0.8554687 0,-0.2695313 0,-0.5859375 0.2109375,-0.890625 0.1523438,-0.2109375 0.3632813,-0.375 0.703125,-0.375 0.6796875,0 0.8320313,0.8203125 0.8437498,1.265625 z m 0,0"
       style="fill:#000000;fill-opacity:1;fill-rule:nonzero;stroke:none"
       aria-label="29"
       transform="matrix(1.3333333,0,0,1.3333333,38.134667,235.34933)" />
    <path
       id="path61"
       d="m 14.60791,-155.60811 c 0,1.92917 -1.56387,3.49304 -3.49306,3.49304 -1.92917,0 -3.49304,-1.56387 -3.49304,-3.49304 0,-1.92919 1.56387,-3.49306 3.49304,-3.49306 1.92919,0 3.49306,1.56387 3.49306,3.49306 z"
       style="fill:#bfbfbf;fill-opacity:1;fill-rule:nonzero;stroke:none"
       transform="matrix(1.3333333,0,0,-1.3333333,71.333333,24.824)" />
    <path
       id="path62"
       d="m 0.7016875,-3.5754766 c 0.28125,-0.5625 0.7851563,-0.7148437 1.1132813,-0.7148437 0.4101562,0 0.7265625,0.234375 0.7265625,0.6328125 0,0.375 -0.2578125,0.8203125 -0.7851563,0.9140625 -0.035156,0.011719 -0.058594,0.011719 -0.5273437,0.046875 v 0.4570312 h 0.5507812 c 0.65625,0 0.9023438,0.5273438 0.9023438,0.9609375 0,0.55078129 -0.328125,0.96093754 -0.8789063,0.96093754 -0.4921875,0 -1.0546875,-0.234375 -1.40625,-0.6796875 l -0.09375,0.45703125 c 0.41015625,0.4453125 0.9726563,0.6796875 1.5117188,0.6796875 0.9140625,0 1.5703125,-0.6796875 1.5703125,-1.40624999 0,-0.5742188 -0.4570313,-1.03125 -1.0078125,-1.1953125 0.5273437,-0.2695313 0.796875,-0.7382813 0.796875,-1.1953125 0,-0.5859375 -0.5976563,-1.0664063 -1.3476563,-1.0664063 -0.609375,0 -1.125,0.328125 -1.41796875,0.7382813 z m 6.4013672,1.3125 c 0,-0.3398437 0,-1.1601562 -0.328125,-1.7226562 -0.3515625,-0.6328125 -0.890625,-0.7382813 -1.21875,-0.7382813 -0.3164063,0 -0.8671875,0.1054688 -1.2070313,0.703125 -0.3398437,0.5507813 -0.3515625,1.3125 -0.3515625,1.7578125 0,0.515625 0.023437,1.1484375 0.3164063,1.67578129 0.3164062,0.5625 0.8320312,0.7265625 1.2421875,0.7265625 0.6914062,0 1.078125,-0.3984375 1.2890625,-0.84375 C 7.0913359,-1.1965703 7.1030547,-1.8293828 7.1030547,-2.2629766 Z m -1.546875,1.94531254 c -0.2929688,0 -0.6328125,-0.1640625 -0.8085938,-0.66796875 -0.140625,-0.42187499 -0.140625,-0.86718749 -0.140625,-1.37109379 0,-0.6445312 0,-1.9101562 0.9492188,-1.9101562 0.9492187,0 0.9492187,1.265625 0.9492187,1.9101562 0,0.4570313 0,0.984375 -0.1757812,1.42968754 -0.1875,0.50390625 -0.5507813,0.609375 -0.7734375,0.609375 z m 0,0"
       style="fill:#000000;fill-opacity:1;fill-rule:nonzero;stroke:none"
       aria-label="30"
       transform="matrix(1.3333333,0,0,1.3333333,109.47067,235.34933)" />
    <path
       id="path63"
       d="m 3.49304,-166.72298 c 0,1.92917 -1.56387,3.49305 -3.49304,3.49305 -1.92917,0 -3.49304,-1.56388 -3.49304,-3.49305 0,-1.92918 1.56387,-3.49305 3.49304,-3.49305 1.92917,0 3.49304,1.56387 3.49304,3.49305 z"
       style="fill:#bfbfbf;fill-opacity:1;fill-rule:nonzero;stroke:none"
       transform="matrix(1.3333333,0,0,-1.3333333,71.333333,24.824)" />
    <path
       id="path64"
       d="m 0.70173438,-3.5752422 c 0.28125,-0.5625 0.78515622,-0.7148437 1.11328122,-0.7148437 0.4101563,0 0.7265625,0.234375 0.7265625,0.6328125 0,0.375 -0.2578125,0.8203125 -0.7851562,0.9140625 -0.035156,0.011719 -0.058594,0.011719 -0.5273438,0.046875 v 0.4570312 h 0.5507813 c 0.65625,0 0.9023437,0.5273438 0.9023437,0.9609375 0,0.55078126 -0.328125,0.96093751 -0.8789062,0.96093751 -0.4921875,0 -1.05468752,-0.234375 -1.40625002,-0.6796875 l -0.09375,0.45703125 c 0.41015625,0.4453125 0.97265622,0.6796875 1.51171872,0.6796875 0.9140625,0 1.5703125,-0.6796875 1.5703125,-1.40624996 0,-0.5742188 -0.4570312,-1.03125 -1.0078125,-1.1953125 0.5273438,-0.2695313 0.796875,-0.7382813 0.796875,-1.1953125 0,-0.5859375 -0.5976562,-1.0664063 -1.3476562,-1.0664063 -0.609375,0 -1.12500002,0.328125 -1.41796877,0.7382813 z M 5.9429453,-4.7236797 H 5.7906016 c -0.4570313,0.421875 -1.03125,0.4453125 -1.4414063,0.4570313 v 0.4453125 c 0.2695313,-0.011719 0.6210938,-0.023437 0.9609375,-0.1640625 v 3.55078121 H 4.3843516 v 0.43359375 h 2.484375 V -0.43461719 H 5.9429453 Z m 0,0"
       style="fill:#000000;fill-opacity:1;fill-rule:nonzero;stroke:none"
       aria-label="31"
       transform="matrix(1.3333333,0,0,1.3333333,38.134667,250.16933)" />
    <path
       id="path65"
       d="m 14.60791,-166.72298 c 0,1.92917 -1.56387,3.49305 -3.49306,3.49305 -1.92917,0 -3.49304,-1.56388 -3.49304,-3.49305 0,-1.92918 1.56387,-3.49305 3.49304,-3.49305 1.92919,0 3.49306,1.56387 3.49306,3.49305 z"
       style="fill:#bfbfbf;fill-opacity:1;fill-rule:nonzero;stroke:none"
       transform="matrix(1.3333333,0,0,-1.3333333,71.333333,24.824)" />
    <path
       id="path66"
       d="m 0.7016875,-3.5752422 c 0.28125,-0.5625 0.7851563,-0.7148437 1.1132813,-0.7148437 0.4101562,0 0.7265625,0.234375 0.7265625,0.6328125 0,0.375 -0.2578125,0.8203125 -0.7851563,0.9140625 -0.035156,0.011719 -0.058594,0.011719 -0.5273437,0.046875 v 0.4570312 h 0.5507812 c 0.65625,0 0.9023438,0.5273438 0.9023438,0.9609375 0,0.55078126 -0.328125,0.96093751 -0.8789063,0.96093751 -0.4921875,0 -1.0546875,-0.234375 -1.40625,-0.6796875 l -0.09375,0.45703125 c 0.41015625,0.4453125 0.9726563,0.6796875 1.5117188,0.6796875 0.9140625,0 1.5703125,-0.6796875 1.5703125,-1.40624996 0,-0.5742188 -0.4570313,-1.03125 -1.0078125,-1.1953125 0.5273437,-0.2695313 0.796875,-0.7382813 0.796875,-1.1953125 0,-0.5859375 -0.5976563,-1.0664063 -1.3476563,-1.0664063 -0.609375,0 -1.125,0.328125 -1.41796875,0.7382813 z m 4.9716797,3.03515626 c -0.082031,0 -0.1640625,0.0117188 -0.2460938,0.0117188 h -0.796875 l 1.078125,-0.96093746 c 0.1289063,-0.1054688 0.46875,-0.3632813 0.609375,-0.4804688 0.3046875,-0.28125 0.7148438,-0.6445313 0.7148438,-1.2421875 0,-0.796875 -0.5859375,-1.5117187 -1.5820313,-1.5117187 -0.7382812,0 -1.2070312,0.3984375 -1.4414062,1.1132812 l 0.328125,0.4101562 c 0.1640625,-0.5859375 0.4101562,-1.0429687 1.0078125,-1.0429687 0.5859375,0 1.03125,0.4101562 1.03125,1.0429687 0,0.5742188 -0.3398438,0.9023438 -0.75,1.3007813 -0.140625,0.140625 -0.515625,0.4570312 -0.6679688,0.5976562 -0.1992187,0.1757813 -0.6796875,0.64453131 -0.8789062,0.82031256 v 0.48046875 h 2.953125 v -0.5390625 z m 0,0"
       style="fill:#000000;fill-opacity:1;fill-rule:nonzero;stroke:none"
       aria-label="32"
       transform="matrix(1.3333333,0,0,1.3333333,109.47067,250.16933)" />
    <path
       id="path67"
       d="m 3.49304,-177.83784 c 0,1.92918 -1.56387,3.49305 -3.49304,3.49305 -1.92917,0 -3.49304,-1.56387 -3.49304,-3.49305 0,-1.92917 1.56387,-3.49305 3.49304,-3.49305 1.92917,0 3.49304,1.56388 3.49304,3.49305 z"
       style="fill:#bfbfbf;fill-opacity:1;fill-rule:nonzero;stroke:none"
       transform="matrix(1.3333333,0,0,-1.3333333,71.333333,24.824)" />
    <path
       id="path68"
       d="m 0.70173438,-3.5750078 c 0.28125,-0.5625 0.78515622,-0.7148438 1.11328122,-0.7148438 0.4101563,0 0.7265625,0.234375 0.7265625,0.6328125 0,0.375 -0.2578125,0.8203125 -0.7851562,0.9140625 -0.035156,0.011719 -0.058594,0.011719 -0.5273438,0.046875 v 0.4570313 h 0.5507813 c 0.65625,0 0.9023437,0.5273437 0.9023437,0.9609375 0,0.55078124 -0.328125,0.96093749 -0.8789062,0.96093749 -0.4921875,0 -1.05468752,-0.234375 -1.40625002,-0.6796875 l -0.09375,0.45703125 c 0.41015625,0.4453125 0.97265622,0.6796875 1.51171872,0.6796875 0.9140625,0 1.5703125,-0.6796875 1.5703125,-1.40625004 0,-0.5742187 -0.4570312,-1.03125 -1.0078125,-1.1953125 0.5273438,-0.2695312 0.796875,-0.7382812 0.796875,-1.1953125 0,-0.5859375 -0.5976562,-1.0664062 -1.3476562,-1.0664062 -0.609375,0 -1.12500002,0.328125 -1.41796877,0.7382812 z m 3.70605472,0 c 0.28125,-0.5625 0.7851562,-0.7148438 1.1132812,-0.7148438 0.4101563,0 0.7265625,0.234375 0.7265625,0.6328125 0,0.375 -0.2578125,0.8203125 -0.7851562,0.9140625 -0.035156,0.011719 -0.058594,0.011719 -0.5273438,0.046875 v 0.4570313 h 0.5507813 c 0.65625,0 0.9023437,0.5273437 0.9023437,0.9609375 0,0.55078124 -0.328125,0.96093749 -0.8789062,0.96093749 -0.4921875,0 -1.0546875,-0.234375 -1.40625,-0.6796875 l -0.09375,0.45703125 c 0.4101562,0.4453125 0.9726562,0.6796875 1.5117187,0.6796875 0.9140625,0 1.5703125,-0.6796875 1.5703125,-1.40625004 0,-0.5742187 -0.4570312,-1.03125 -1.0078125,-1.1953125 0.5273438,-0.2695312 0.796875,-0.7382812 0.796875,-1.1953125 0,-0.5859375 -0.5976562,-1.0664062 -1.3476562,-1.0664062 -0.609375,0 -1.125,0.328125 -1.4179688,0.7382812 z m 0,0"
       style="fill:#000000;fill-opacity:1;fill-rule:nonzero;stroke:none"
       aria-label="33"
       transform="matrix(1.3333333,0,0,1.3333333,38.134667,264.98933)" />
    <path
       id="path69"
       d="m 14.60791,-177.83784 c 0,1.92918 -1.56387,3.49305 -3.49306,3.49305 -1.92917,0 -3.49304,-1.56387 -3.49304,-3.49305 0,-1.92917 1.56387,-3.49305 3.49304,-3.49305 1.92919,0 3.49306,1.56388 3.49306,3.49305 z"
       style="fill:#bfbfbf;fill-opacity:1;fill-rule:nonzero;stroke:none"
       transform="matrix(1.3333333,0,0,-1.3333333,71.333333,24.824)" />
    <path
       id="path70"
       d="m 0.7016875,-3.5750078 c 0.28125,-0.5625 0.7851563,-0.7148438 1.1132813,-0.7148438 0.4101562,0 0.7265625,0.234375 0.7265625,0.6328125 0,0.375 -0.2578125,0.8203125 -0.7851563,0.9140625 -0.035156,0.011719 -0.058594,0.011719 -0.5273437,0.046875 v 0.4570313 h 0.5507812 c 0.65625,0 0.9023438,0.5273437 0.9023438,0.9609375 0,0.55078124 -0.328125,0.96093749 -0.8789063,0.96093749 -0.4921875,0 -1.0546875,-0.234375 -1.40625,-0.6796875 l -0.09375,0.45703125 c 0.41015625,0.4453125 0.9726563,0.6796875 1.5117188,0.6796875 0.9140625,0 1.5703125,-0.6796875 1.5703125,-1.40625004 0,-0.5742187 -0.4570313,-1.03125 -1.0078125,-1.1953125 0.5273437,-0.2695312 0.796875,-0.7382812 0.796875,-1.1953125 0,-0.5859375 -0.5976563,-1.0664062 -1.3476563,-1.0664062 -0.609375,0 -1.125,0.328125 -1.41796875,0.7382812 z m 5.7685547,2.4140625 h 0.7265625 v -0.46875 H 6.4702422 V -4.5711016 H 5.7788359 l -1.8632812,2.9414063 v 0.46875 h 1.9453125 v 1.1601562375 h 0.609375 z m -1.96875,-0.46875 c 0.2109375,-0.328125 1.4179687,-2.1796875 1.4179687,-2.6015625 v 2.6015625 z m 0,0"
       style="fill:#000000;fill-opacity:1;fill-rule:nonzero;stroke:none"
       aria-label="34"
       transform="matrix(1.3333333,0,0,1.3333333,109.47067,264.98933)" />
    <path
       id="path71"
       d="m 3.49304,-188.95271 c 0,1.92918 -1.56387,3.49305 -3.49304,3.49305 -1.92917,0 -3.49304,-1.56387 -3.49304,-3.49305 0,-1.92917 1.56387,-3.49305 3.49304,-3.49305 1.92917,0 3.49304,1.56388 3.49304,3.49305 z"
       style="fill:#bfbfbf;fill-opacity:1;fill-rule:nonzero;stroke:none"
       transform="matrix(1.3333333,0,0,-1.3333333,71.333333,24.824)" />
    <path
       id="path72"
       d="m 0.70173438,-3.5747734 c 0.28125,-0.5625 0.78515622,-0.7148438 1.11328122,-0.7148438 0.4101563,0 0.7265625,0.234375 0.7265625,0.6328125 0,0.375 -0.2578125,0.8203125 -0.7851562,0.9140625 -0.035156,0.011719 -0.058594,0.011719 -0.5273438,0.046875 v 0.4570313 h 0.5507813 c 0.65625,0 0.9023437,0.5273437 0.9023437,0.9609375 0,0.55078121 -0.328125,0.96093746 -0.8789062,0.96093746 -0.4921875,0 -1.05468752,-0.234375 -1.40625002,-0.6796875 l -0.09375,0.45703125 c 0.41015625,0.4453125 0.97265622,0.6796875 1.51171872,0.6796875 0.9140625,0 1.5703125,-0.6796875 1.5703125,-1.40625001 0,-0.5742187 -0.4570312,-1.03125 -1.0078125,-1.1953125 0.5273438,-0.2695312 0.796875,-0.7382812 0.796875,-1.1953125 0,-0.5859375 -0.5976562,-1.0664062 -1.3476562,-1.0664062 -0.609375,0 -1.12500002,0.328125 -1.41796877,0.7382812 z m 4.15136722,-0.515625 h 1.921875 v -0.4804688 h -2.484375 v 2.6015625 h 0.5039062 c 0.1757813,-0.375 0.5039063,-0.5390625 0.8085938,-0.5390625 0.2929687,0 0.7265625,0.1875 0.7265625,1.078125 0,0.91406251 -0.5859375,1.11328126 -0.9375,1.11328126 -0.4570313,0 -0.9023438,-0.24609375 -1.1484375,-0.64453125 l -0.2578125,0.421875 c 0.3398437,0.421875 0.8554687,0.6796875 1.40625,0.6796875 0.9257812,0 1.640625,-0.703125 1.640625,-1.55859371 0,-0.8671875 -0.6445313,-1.546875 -1.40625,-1.546875 -0.3046875,0 -0.5742188,0.09375 -0.7734375,0.2695312 z m 0,0"
       style="fill:#000000;fill-opacity:1;fill-rule:nonzero;stroke:none"
       aria-label="35"
       transform="matrix(1.3333333,0,0,1.3333333,38.134667,279.80933)" />
    <path
       id="path73"
       d="m 14.60791,-188.95271 c 0,1.92918 -1.56387,3.49305 -3.49306,3.49305 -1.92917,0 -3.49304,-1.56387 -3.49304,-3.49305 0,-1.92917 1.56387,-3.49305 3.49304,-3.49305 1.92919,0 3.49306,1.56388 3.49306,3.49305 z"
       style="fill:#bfbfbf;fill-opacity:1;fill-rule:nonzero;stroke:none"
       transform="matrix(1.3333333,0,0,-1.3333333,71.333333,24.824)" />
    <path
       id="path74"
       d="m 0.7016875,-3.5747734 c 0.28125,-0.5625 0.7851563,-0.7148438 1.1132813,-0.7148438 0.4101562,0 0.7265625,0.234375 0.7265625,0.6328125 0,0.375 -0.2578125,0.8203125 -0.7851563,0.9140625 -0.035156,0.011719 -0.058594,0.011719 -0.5273437,0.046875 v 0.4570313 h 0.5507812 c 0.65625,0 0.9023438,0.5273437 0.9023438,0.9609375 0,0.55078121 -0.328125,0.96093746 -0.8789063,0.96093746 -0.4921875,0 -1.0546875,-0.234375 -1.40625,-0.6796875 l -0.09375,0.45703125 c 0.41015625,0.4453125 0.9726563,0.6796875 1.5117188,0.6796875 0.9140625,0 1.5703125,-0.6796875 1.5703125,-1.40625001 0,-0.5742187 -0.4570313,-1.03125 -1.0078125,-1.1953125 0.5273437,-0.2695312 0.796875,-0.7382812 0.796875,-1.1953125 0,-0.5859375 -0.5976563,-1.0664062 -1.3476563,-1.0664062 -0.609375,0 -1.125,0.328125 -1.41796875,0.7382812 z m 6.0615234,-1.0078125 c -0.375,-0.140625 -0.6445312,-0.140625 -0.7734375,-0.140625 -1.0546875,0 -1.9804687,0.9960937 -1.9804687,2.4726562 0,1.88671876 0.8554687,2.39062501 1.5585937,2.39062501 0.5625,0 0.8554688,-0.2578125 1.0664063,-0.48046875 0.4570312,-0.48046875 0.4570312,-0.97265626 0.4570312,-1.21874996 0,-0.9140625 -0.4921875,-1.6640625 -1.171875,-1.6640625 -0.6796875,0 -1.0546875,0.3515625 -1.2539062,0.5507812 0.09375,-0.9492187 0.5742187,-1.6171875 1.3359375,-1.6171875 0.140625,0 0.4101562,0.011719 0.7617187,0.1523438 z m -2.0859375,3.046875 c 0,-0.035156 0,-0.140625 0,-0.1757813 0,-0.4804687 0.3046875,-1.0546875 0.9257813,-1.0546875 0.84375,0 0.84375,0.9726563 0.84375,1.2070313 0,0.2695312 0,0.56249996 -0.1875,0.85546871 -0.1640625,0.24609375 -0.375,0.38671875 -0.6914063,0.38671875 -0.7382812,0 -0.8554687,-0.91406246 -0.890625,-1.21874996 z m 0,0"
       style="fill:#000000;fill-opacity:1;fill-rule:nonzero;stroke:none"
       aria-label="36"
       transform="matrix(1.3333333,0,0,1.3333333,109.47067,279.80933)" />
    <path
       id="path75"
       d="m 3.49304,-200.06758 c 0,1.92918 -1.56387,3.49306 -3.49304,3.49306 -1.92917,0 -3.49304,-1.56388 -3.49304,-3.49306 0,-1.92917 1.56387,-3.49304 3.49304,-3.49304 1.92917,0 3.49304,1.56387 3.49304,3.49304 z"
       style="fill:#bfbfbf;fill-opacity:1;fill-rule:nonzero;stroke:none"
       transform="matrix(1.3333333,0,0,-1.3333333,71.333333,24.824)" />
    <path
       id="path76"
       d="m 0.70173438,-3.5735391 c 0.28125,-0.5625 0.78515622,-0.7148437 1.11328122,-0.7148437 0.4101563,0 0.7265625,0.234375 0.7265625,0.6328125 0,0.375 -0.2578125,0.8203125 -0.7851562,0.9140625 -0.035156,0.011719 -0.058594,0.011719 -0.5273438,0.046875 v 0.4570312 h 0.5507813 c 0.65625,0 0.9023437,0.5273438 0.9023437,0.9609375 0,0.55078129 -0.328125,0.96093754 -0.8789062,0.96093754 -0.4921875,0 -1.05468752,-0.234375 -1.40625002,-0.6796875 l -0.09375,0.45703125 c 0.41015625,0.4453125 0.97265622,0.6796875 1.51171872,0.6796875 0.9140625,0 1.5703125,-0.6796875 1.5703125,-1.40624999 0,-0.5742188 -0.4570312,-1.03125 -1.0078125,-1.1953125 0.5273438,-0.2695313 0.796875,-0.7382813 0.796875,-1.1953125 0,-0.5859375 -0.5976562,-1.0664063 -1.3476562,-1.0664063 -0.609375,0 -1.12500002,0.328125 -1.41796877,0.7382813 z m 4.72558592,-0.46875 c 0.082031,0 0.1640625,0 0.2460938,0 h 0.8789062 c -1.0546875,1.0429688 -1.734375,2.4960938 -1.734375,4.11328129 h 0.65625 c 0,-2.03906249 0.9960938,-3.50390629 1.6171875,-4.16015629 V -4.5696328 H 4.0093516 v 0.5273437 z m 0,0"
       style="fill:#000000;fill-opacity:1;fill-rule:nonzero;stroke:none"
       aria-label="37"
       transform="matrix(1.3333333,0,0,1.3333333,38.134667,294.628)" />
    <path
       id="path77"
       d="m 14.60791,-200.06758 c 0,1.92918 -1.56387,3.49306 -3.49306,3.49306 -1.92917,0 -3.49304,-1.56388 -3.49304,-3.49306 0,-1.92917 1.56387,-3.49304 3.49304,-3.49304 1.92919,0 3.49306,1.56387 3.49306,3.49304 z"
       style="fill:#bfbfbf;fill-opacity:1;fill-rule:nonzero;stroke:none"
       transform="matrix(1.3333333,0,0,-1.3333333,71.333333,24.824)" />
    <path
       id="path78"
       d="m 0.7016875,-3.5735391 c 0.28125,-0.5625 0.7851563,-0.7148437 1.1132813,-0.7148437 0.4101562,0 0.7265625,0.234375 0.7265625,0.6328125 0,0.375 -0.2578125,0.8203125 -0.7851563,0.9140625 -0.035156,0.011719 -0.058594,0.011719 -0.5273437,0.046875 v 0.4570312 h 0.5507812 c 0.65625,0 0.9023438,0.5273438 0.9023438,0.9609375 0,0.55078129 -0.328125,0.96093754 -0.8789063,0.96093754 -0.4921875,0 -1.0546875,-0.234375 -1.40625,-0.6796875 l -0.09375,0.45703125 c 0.41015625,0.4453125 0.9726563,0.6796875 1.5117188,0.6796875 0.9140625,0 1.5703125,-0.6796875 1.5703125,-1.40624999 0,-0.5742188 -0.4570313,-1.03125 -1.0078125,-1.1953125 0.5273437,-0.2695313 0.796875,-0.7382813 0.796875,-1.1953125 0,-0.5859375 -0.5976563,-1.0664063 -1.3476563,-1.0664063 -0.609375,0 -1.125,0.328125 -1.41796875,0.7382813 z m 5.3818359,1.1015625 c 0.46875,-0.140625 0.9023438,-0.515625 0.9023438,-1.03125 0,-0.6328125 -0.609375,-1.21875 -1.4296875,-1.21875 -0.8320313,0 -1.4414063,0.5859375 -1.4414063,1.21875 0,0.5273438 0.4570313,0.890625 0.9023438,1.03125 -0.609375,0.1875 -1.0078125,0.6679688 -1.0078125,1.2070313 0,0.73828124 0.6679687,1.40624999 1.546875,1.40624999 0.8789062,0 1.5351562,-0.66796875 1.5351562,-1.40624999 0,-0.5390625 -0.3984375,-1.0195313 -1.0078125,-1.2070313 z M 5.5561797,-2.6946328 c -0.5039063,0 -0.9023438,-0.2929688 -0.9023438,-0.796875 0,-0.4453125 0.3164063,-0.796875 0.9023438,-0.796875 0.5742187,0 0.890625,0.3515625 0.890625,0.796875 0,0.4921875 -0.3867188,0.796875 -0.890625,0.796875 z m 0,2.37890624 c -0.4804688,0 -0.9140625,-0.3046875 -0.9140625,-0.96093754 0,-0.6210937 0.4101562,-0.9609375 0.9140625,-0.9609375 0.5039062,0 0.9023437,0.3398438 0.9023437,0.9609375 0,0.65625004 -0.4335937,0.96093754 -0.9023437,0.96093754 z m 0,0"
       style="fill:#000000;fill-opacity:1;fill-rule:nonzero;stroke:none"
       aria-label="38"
       transform="matrix(1.3333333,0,0,1.3333333,109.47067,294.628)" />
    <path
       id="path79"
       d="m 3.49304,-211.18243 c 0,1.92916 -1.56387,3.49304 -3.49304,3.49304 -1.92917,0 -3.49304,-1.56388 -3.49304,-3.49304 0,-1.92919 1.56387,-3.49306 3.49304,-3.49306 1.92917,0 3.49304,1.56387 3.49304,3.49306 z"
       style="fill:#bfbfbf;fill-opacity:1;fill-rule:nonzero;stroke:none"
       transform="matrix(1.3333333,0,0,-1.3333333,71.333333,24.824)" />
    <path
       id="path80"
       d="m 0.70173438,-3.5733047 c 0.28125,-0.5625 0.78515622,-0.7148437 1.11328122,-0.7148437 0.4101563,0 0.7265625,0.234375 0.7265625,0.6328125 0,0.375 -0.2578125,0.8203125 -0.7851562,0.9140625 -0.035156,0.011719 -0.058594,0.011719 -0.5273438,0.046875 v 0.4570312 h 0.5507813 c 0.65625,0 0.9023437,0.5273438 0.9023437,0.9609375 0,0.55078126 -0.328125,0.96093751 -0.8789062,0.96093751 -0.4921875,0 -1.05468752,-0.234375 -1.40625002,-0.6796875 l -0.09375,0.45703125 c 0.41015625,0.4453125 0.97265622,0.6796875 1.51171872,0.6796875 0.9140625,0 1.5703125,-0.6796875 1.5703125,-1.40624996 0,-0.5742188 -0.4570312,-1.03125 -1.0078125,-1.1953125 0.5273438,-0.2695313 0.796875,-0.7382813 0.796875,-1.1953125 0,-0.5859375 -0.5976562,-1.0664063 -1.3476562,-1.0664063 -0.609375,0 -1.12500002,0.328125 -1.41796877,0.7382813 z m 3.54199222,3.39843751 c 0.3398437,0.2578125 0.65625,0.31640625 0.984375,0.31640625 0.9726562,0 1.8632812,-0.97265625 1.8632812,-2.47265626 0,-1.9101562 -0.84375,-2.390625 -1.5117187,-2.390625 -0.6210938,0 -0.9023438,0.2929688 -1.1132813,0.4921875 -0.4453125,0.4570313 -0.4570312,0.9375 -0.4570312,1.2070313 0,0.9023437 0.4921875,1.6757812 1.171875,1.6757812 0.7851562,0 1.21875,-0.515625 1.2539062,-0.5625 -0.09375,1.11328126 -0.6328125,1.59375001 -1.2070312,1.59375001 -0.3632813,0 -0.5859375,-0.12890625 -0.75,-0.2578125 z M 6.4116953,-3.0225234 c 0.011719,0.035156 0.011719,0.1054687 0.011719,0.1523437 0,0.515625 -0.3164063,1.0664063 -0.9140625,1.0664063 -0.2695313,0 -0.4804688,-0.082031 -0.65625,-0.3632813 -0.1875,-0.2695312 -0.1992188,-0.5390625 -0.1992188,-0.8554687 0,-0.2695313 0,-0.5859375 0.2109375,-0.890625 0.1523438,-0.2109375 0.3632813,-0.375 0.703125,-0.375 0.6796875,0 0.8320313,0.8203125 0.8437498,1.265625 z m 0,0"
       style="fill:#000000;fill-opacity:1;fill-rule:nonzero;stroke:none"
       aria-label="39"
       transform="matrix(1.3333333,0,0,1.3333333,38.134667,309.448)" />
    <path
       id="path81"
       d="m 14.60791,-211.18243 c 0,1.92916 -1.56387,3.49304 -3.49306,3.49304 -1.92917,0 -3.49304,-1.56388 -3.49304,-3.49304 0,-1.92919 1.56387,-3.49306 3.49304,-3.49306 1.92919,0 3.49306,1.56387 3.49306,3.49306 z"
       style="fill:#bfbfbf;fill-opacity:1;fill-rule:nonzero;stroke:none"
       transform="matrix(1.3333333,0,0,-1.3333333,71.333333,24.824)" />
    <path
       id="path82"
       d="M 2.7641875,-1.1592422 H 3.49075 v -0.46875 H 2.7641875 V -4.5693984 H 2.0727813 L 0.2095,-1.6279922 v 0.46875 H 2.1548125 V 9.140625e-4 h 0.609375 z m -1.96875,-0.46875 c 0.2109375,-0.328125 1.4179688,-2.1796875 1.4179688,-2.6015625 v 2.6015625 z m 6.3076172,-0.6328125 c 0,-0.3398437 0,-1.1601562 -0.328125,-1.7226562 -0.3515625,-0.6328125 -0.890625,-0.7382813 -1.21875,-0.7382813 -0.3164063,0 -0.8671875,0.1054688 -1.2070313,0.703125 -0.3398437,0.5507813 -0.3515625,1.3125 -0.3515625,1.7578125 0,0.515625 0.023437,1.1484375 0.3164063,1.67578126 0.3164062,0.5625 0.8320312,0.7265625 1.2421875,0.7265625 0.6914062,0 1.078125,-0.3984375 1.2890625,-0.84375 C 7.0913359,-1.1943984 7.1030547,-1.8272109 7.1030547,-2.2608047 Z m -1.546875,1.94531251 c -0.2929688,0 -0.6328125,-0.1640625 -0.8085938,-0.66796875 -0.140625,-0.42187496 -0.140625,-0.86718746 -0.140625,-1.37109376 0,-0.6445312 0,-1.9101562 0.9492188,-1.9101562 0.9492187,0 0.9492187,1.265625 0.9492187,1.9101562 0,0.4570313 0,0.984375 -0.1757812,1.42968751 -0.1875,0.50390625 -0.5507813,0.609375 -0.7734375,0.609375 z m 0,0"
       style="fill:#000000;fill-opacity:1;fill-rule:nonzero;stroke:none"
       aria-label="40"
       transform="matrix(1.3333333,0,0,1.3333333,109.47067,309.448)" />
    <path
       id="path83"
       d="m 0,14.81982 h 22.22972 v -226.00225 -14.81984 H 0"
       style="fill:none;stroke:#000000;stroke-width:0.3985;stroke-linecap:butt;stroke-linejoin:miter;stroke-miterlimit:10;stroke-dasharray:none;stroke-opacity:1"
       transform="matrix(1.3333333,0,0,-1.3333333,71.333333,24.824)" />
    <path
       id="path84"
       d="m 0,14.81982 h -11.11485 v -114.8536"
       style="fill:none;stroke:#000000;stroke-width:0.3985;stroke-linecap:butt;stroke-linejoin:miter;stroke-miterlimit:10;stroke-dasharray:none;stroke-opacity:1"
       transform="matrix(1.3333333,0,0,-1.3333333,71.333333,24.824)" />
    <path
       id="path85"
       d="m 0,-226.00227 h -11.11485 v 114.85362"
       style="fill:none;stroke:#000000;stroke-width:0.3985;stroke-linecap:butt;stroke-linejoin:miter;stroke-miterlimit:10;stroke-dasharray:none;stroke-opacity:1"
       transform="matrix(1.3333333,0,0,-1.3333333,71.333333,24.824)" />
    <path
       id="path86"
       d="m 0.70235156,-3.5747109 c 0.28125,-0.5625 0.78515624,-0.7148438 1.11328124,-0.7148438 0.4101563,0 0.7265625,0.234375 0.7265625,0.6328125 0,0.375 -0.2578125,0.8203125 -0.7851562,0.9140625 -0.035156,0.011719 -0.058594,0.011719 -0.5273438,0.046875 v 0.4570313 h 0.5507813 c 0.65625,0 0.9023437,0.5273437 0.9023437,0.9609375 0,0.55078121 -0.328125,0.96093746 -0.8789062,0.96093746 -0.4921875,0 -1.05468754,-0.234375 -1.40625004,-0.6796875 l -0.09375,0.45703125 c 0.41015625,0.4453125 0.97265624,0.6796875 1.51171874,0.6796875 0.9140625,0 1.5703125,-0.6796875 1.5703125,-1.40625001 0,-0.5742187 -0.4570312,-1.03125 -1.0078125,-1.1953125 0.5273438,-0.2695312 0.796875,-0.7382812 0.796875,-1.1953125 0,-0.5859375 -0.5976562,-1.0664062 -1.3476562,-1.0664062 -0.609375,0 -1.12500004,0.328125 -1.41796879,0.7382812 z M 5.0412188,-0.63330469 H 4.420125 V -4.921875e-4 H 5.0412188 Z M 6.4650469,-3.5747109 c 0.28125,-0.5625 0.7851562,-0.7148438 1.1132812,-0.7148438 0.4101563,0 0.7265625,0.234375 0.7265625,0.6328125 0,0.375 -0.2578125,0.8203125 -0.7851562,0.9140625 -0.035156,0.011719 -0.058594,0.011719 -0.5273438,0.046875 v 0.4570313 h 0.5507813 c 0.65625,0 0.9023437,0.5273437 0.9023437,0.9609375 0,0.55078121 -0.328125,0.96093746 -0.8789062,0.96093746 -0.4921875,0 -1.0546875,-0.234375 -1.40625,-0.6796875 l -0.09375,0.45703125 c 0.4101562,0.4453125 0.9726562,0.6796875 1.5117187,0.6796875 0.9140625,0 1.5703125,-0.6796875 1.5703125,-1.40625001 0,-0.5742187 -0.4570312,-1.03125 -1.0078125,-1.1953125 0.5273438,-0.2695312 0.796875,-0.7382812 0.796875,-1.1953125 0,-0.5859375 -0.5976562,-1.0664062 -1.3476562,-1.0664062 -0.609375,0 -1.125,0.328125 -1.4179688,0.7382812 z m 7.8310551,-1.265625 h -0.609375 l -0.878907,2.1445312 c -0.04687,0.1171875 -0.738281,1.79296876 -0.796875,2.14453126 h -0.01172 C 11.928914,-0.90283594 11.237508,-2.5903359 11.202352,-2.6606484 L 10.311727,-4.8403359 H 9.5734453 l 2.0039067,4.8398437125 h 0.703125 z m 0,0"
       style="fill:#000000;fill-opacity:1;fill-rule:nonzero;stroke:none"
       aria-label="3.3V"
       transform="matrix(1.3333333,0,0,1.3333333,9.044,235.528)" />
    <path
       id="path87"
       d="m 3.0349219,-0.76097656 c -0.3515625,0.22265625 -0.7265625,0.3515625 -1.1601563,0.3515625 -0.6445312,0 -1.01953122,-0.515625 -1.01953122,-1.14843754 0,-0.5390625 0.28125002,-1.1601562 1.04296872,-1.1601562 0.46875,0 0.6914063,0.09375 1.0546875,0.3164062 l 0.082031,-0.5039062 c -0.410156,-0.1992188 -0.597656,-0.2929688 -1.1367185,-0.2929688 -1.04296872,0 -1.65234372,0.84375 -1.65234372,1.6523438 0,0.84374999 0.6796875,1.61718749 1.61718752,1.61718749 0.4921875,0 0.9140625,-0.15234375 1.2070312,-0.31640625 z M 4.4646094,-4.8391016 H 3.8786719 V 7.421875e-4 h 0.5859375 z m 2.6835937,2.9414063 1.2421875,-1.1953125 H 7.7107031 l -1.4882812,1.4414062 v -3.1875 H 5.6716406 V 7.421875e-4 h 0.515625 V -0.97191406 L 6.7849219,-1.5461328 7.9333594,7.421875e-4 h 0.6210937 z m 0,0"
       style="fill:#000000;fill-opacity:1;fill-rule:nonzero;stroke:none"
       aria-label="clk"
       transform="matrix(1.3333333,0,0,1.3333333,16.68,250.34667)" />
    <path
       id="path88"
       d="M 1.1731875,-4.8388672 H 0.58725 V 9.765625e-4 h 0.5859375 z m 3.5595703,2.8359375 c 0,-0.7148437 -0.5390625,-1.1953125 -1.2304687,-1.1953125 -0.4335938,0 -0.7734375,0.09375 -1.1601563,0.2929688 l 0.035156,0.515625 c 0.234375,-0.1523438 0.5742187,-0.3632813 1.125,-0.3632813 0.3046875,0 0.6328125,0.234375 0.6328125,0.75 v 0.28125 c -1.03125,0.035156 -2.0507813,0.2460938 -2.0507813,0.90234376 0,0.3515625 0.234375,0.890625 0.84375,0.890625 0.3046875,0 0.8554688,-0.05859375 1.21875,-0.33984375 V 9.765625e-4 h 0.5859375 z m -0.5976562,1.01953126 c 0,0.12890625 0,0.31640625 -0.2460938,0.45703125 -0.2226562,0.12890625 -0.4921875,0.140625 -0.5742187,0.140625 -0.3867188,0 -0.6796875,-0.17578125 -0.6796875,-0.4453125 0,-0.44531251 1.1835937,-0.48046871 1.5,-0.50390621 z M 6.6399844,-2.6591797 h 1.03125 v -0.4335937 h -1.03125 v -0.890625 H 6.1009219 v 0.890625 H 5.4681094 v 0.4335937 h 0.609375 v 1.76953126 c 0,0.46875 0.1171875,0.9609375 0.6210937,0.9609375 0.5039063,0 0.890625,-0.1640625 1.1015625,-0.2578125 l -0.1171875,-0.4453125 c -0.234375,0.1640625 -0.4804687,0.22265625 -0.6796875,0.22265625 -0.2929687,0 -0.3632812,-0.29296875 -0.3632812,-0.60937501 z m 4.3974606,1.89843751 c -0.351562,0.22265625 -0.726562,0.3515625 -1.1601559,0.3515625 -0.6445313,0 -1.0195313,-0.515625 -1.0195313,-1.14843751 0,-0.5390625 0.28125,-1.1601562 1.0429688,-1.1601562 0.4687504,0 0.6914064,0.09375 1.0546874,0.3164062 l 0.08203,-0.5039062 c -0.410156,-0.1992188 -0.597656,-0.2929688 -1.1367184,-0.2929688 -1.0429688,0 -1.6523438,0.84375 -1.6523438,1.6523438 0,0.84374996 0.6796875,1.61718746 1.6171875,1.61718746 0.4921877,0 0.9140627,-0.15234375 1.2070317,-0.31640625 z m 3.503907,-1.30078121 c 0,-0.5507813 -0.164063,-1.1015625 -1.019532,-1.1015625 -0.597656,0 -0.925781,0.3515625 -1.066406,0.4921875 V -4.8388672 H 11.869477 V 9.765625e-4 h 0.609375 V -1.6982422 c 0,-0.4570312 0.199218,-1.0078125 0.738281,-1.0078125 0.714844,0 0.714844,0.4921875 0.714844,0.6914063 V 9.765625e-4 h 0.609375 z m 0,0"
       style="fill:#000000;fill-opacity:1;fill-rule:nonzero;stroke:none"
       aria-label="latch"
       transform="matrix(1.3333333,0,0,1.3333333,8.092,265.16667)" />
    <path
       id="path89"
       d="M 3.2219688,-4.8386328 H 2.64775 v 2.0390625 c -0.4570312,-0.328125 -0.9023437,-0.3632813 -1.1132812,-0.3632813 -0.72656255,0 -1.28906255,0.7265625 -1.28906255,1.6171875 0,0.87890629 0.55078125,1.61718754 1.27734375,1.61718754 0.4335938,0 0.8320313,-0.19921875 1.1015625,-0.43359375 V 0.00121094 H 3.2219688 Z M 2.6243125,-0.86597656 C 2.4485313,-0.57300781 2.179,-0.38550781 1.850875,-0.38550781 c -0.4921875,0 -0.99609375,-0.33984375 -0.99609375,-1.14843749 0,-0.8789063 0.59765625,-1.171875 1.06640625,-1.171875 0.28125,0 0.515625,0.1171875 0.703125,0.3515625 z M 6.7903281,-2.0026953 c 0,-0.7148438 -0.5390625,-1.1953125 -1.2304687,-1.1953125 -0.4335938,0 -0.7734375,0.09375 -1.1601563,0.2929687 l 0.035156,0.515625 c 0.234375,-0.1523437 0.5742187,-0.3632812 1.125,-0.3632812 0.3046875,0 0.6328125,0.234375 0.6328125,0.75 v 0.28125 c -1.03125,0.035156 -2.0507813,0.2460937 -2.0507813,0.90234374 0,0.3515625 0.234375,0.890625 0.84375,0.890625 0.3046875,0 0.8554688,-0.05859375 1.21875,-0.33984375 v 0.26953125 h 0.5859375 z m -0.5976562,1.01953124 c 0,0.12890625 0,0.31640625 -0.2460938,0.45703125 -0.2226562,0.12890625 -0.4921875,0.140625 -0.5742187,0.140625 -0.3867188,0 -0.6796875,-0.17578125 -0.6796875,-0.4453125 0,-0.44531249 1.1835937,-0.48046879 1.5,-0.50390629 z M 8.6975547,-2.6589453 h 1.03125 v -0.4335938 h -1.03125 v -0.890625 H 8.1584922 v 0.890625 H 7.5256797 v 0.4335938 h 0.609375 v 1.76953124 c 0,0.46875 0.1171875,0.9609375 0.6210937,0.9609375 0.5039063,0 0.890625,-0.1640625 1.1015625,-0.2578125 l -0.1171875,-0.4453125 c -0.234375,0.1640625 -0.4804687,0.22265625 -0.6796875,0.22265625 -0.2929687,0 -0.3632812,-0.29296875 -0.3632812,-0.60937499 z m 4.3271483,0.65625 c 0,-0.7148438 -0.539062,-1.1953125 -1.230469,-1.1953125 -0.433593,0 -0.773437,0.09375 -1.160156,0.2929687 l 0.03516,0.515625 c 0.234375,-0.1523437 0.574219,-0.3632812 1.125,-0.3632812 0.304688,0 0.632813,0.234375 0.632813,0.75 v 0.28125 c -1.03125,0.035156 -2.050781,0.2460937 -2.050781,0.90234374 0,0.3515625 0.234375,0.890625 0.84375,0.890625 0.304687,0 0.855468,-0.05859375 1.21875,-0.33984375 v 0.26953125 h 0.585937 z m -0.597656,1.01953124 c 0,0.12890625 0,0.31640625 -0.246094,0.45703125 -0.222656,0.12890625 -0.492187,0.140625 -0.574219,0.140625 -0.386718,0 -0.679687,-0.17578125 -0.679687,-0.4453125 0,-0.44531249 1.183594,-0.48046879 1.5,-0.50390629 z m 0,0"
       style="fill:#000000;fill-opacity:1;fill-rule:nonzero;stroke:none"
       aria-label="data"
       transform="matrix(1.3333333,0,0,1.3333333,10.094667,279.98667)" />
    <path
       id="path90"
       d="M 4.4412578,-2.0864297 H 2.8826641 v 0.4570313 h 0.9492187 v 1.06640621 c -0.3164062,0.0820313 -0.609375,0.140625 -0.9257812,0.140625 -1.078125,0 -1.734375,-1.00781251 -1.734375,-2.00390621 0,-0.9609375 0.6445312,-2.0039063 1.6992187,-2.0039063 0.6445313,0 1.0429688,0.1875 1.3945313,0.4804688 l 0.1171875,-0.6328125 c -0.4804688,-0.234375 -0.9140625,-0.3398438 -1.4414063,-0.3398438 -1.40625,0 -2.47265624,1.1015625 -2.47265624,2.4960938 0,1.359375 1.05468754,2.49609371 2.43750004,2.49609371 0.4921875,0 1.0898437,-0.1171875 1.5351562,-0.33984375 z m 2.1386719,-2.7539062 h -0.9375 V -4.921875e-4 H 6.2166484 V -4.2895547 h 0.011719 l 2.285156,4.2890625125 H 9.4627422 V -4.8403359 H 8.8768047 v 4.28906246 z m 4.2685543,0 v 4.8398437125 h 1.980469 c 1.253906,0 2.273438,-1.0546875125 2.273438,-2.3789062125 0,-1.3710938 -1.019532,-2.4609375 -2.273438,-2.4609375 z m 0.691407,4.42968746 V -4.4301797 h 1.101562 c 0.960938,0 1.769531,0.7617188 1.769531,2.0507813 0,1.2890625 -0.84375,1.96874996 -1.769531,1.96874996 z m 0,0"
       style="fill:#000000;fill-opacity:1;fill-rule:nonzero;stroke:none"
       aria-label="GND"
       transform="matrix(1.3333333,0,0,1.3333333,129.23067,235.528)" />
    <path
       id="path91"
       d="m 3.49304,-155.60811 c 0,1.92917 -1.56387,3.49304 -3.49304,3.49304 -1.92917,0 -3.49304,-1.56387 -3.49304,-3.49304 0,-1.92919 1.56387,-3.49306 3.49304,-3.49306 1.92917,0 3.49304,1.56387 3.49304,3.49306 z"
       style="fill:#ff0000;fill-opacity:1;fill-rule:nonzero;stroke:#000000;stroke-width:0.37051;stroke-linecap:butt;stroke-linejoin:miter;stroke-miterlimit:10;stroke-dasharray:none;stroke-opacity:1"
       transform="matrix(1.3333333,0,0,-1.3333333,71.333333,24.824)" />
    <path
       id="path92"
       d="m 14.60791,-155.60811 c 0,1.92917 -1.56387,3.49304 -3.49306,3.49304 -1.92917,0 -3.49304,-1.56387 -3.49304,-3.49304 0,-1.92919 1.56387,-3.49306 3.49304,-3.49306 1.92919,0 3.49306,1.56387 3.49306,3.49306 z"
       style="fill:#000000;fill-opacity:1;fill-rule:nonzero;stroke:#000000;stroke-width:0.37051;stroke-linecap:butt;stroke-linejoin:miter;stroke-miterlimit:10;stroke-dasharray:none;stroke-opacity:1"
       transform="matrix(1.3333333,0,0,-1.3333333,71.333333,24.824)" />
    <path
       id="path93"
       d="m 3.49304,-166.72298 c 0,1.92917 -1.56387,3.49305 -3.49304,3.49305 -1.92917,0 -3.49304,-1.56388 -3.49304,-3.49305 0,-1.92918 1.56387,-3.49305 3.49304,-3.49305 1.92917,0 3.49304,1.56387 3.49304,3.49305 z"
       style="fill:#0000ff;fill-opacity:1;fill-rule:nonzero;stroke:#000000;stroke-width:0.37051;stroke-linecap:butt;stroke-linejoin:miter;stroke-miterlimit:10;stroke-dasharray:none;stroke-opacity:1"
       transform="matrix(1.3333333,0,0,-1.3333333,71.333333,24.824)" />
    <path
       id="path94"
       d="m 3.49304,-177.83784 c 0,1.92918 -1.56387,3.49305 -3.49304,3.49305 -1.92917,0 -3.49304,-1.56387 -3.49304,-3.49305 0,-1.92917 1.56387,-3.49305 3.49304,-3.49305 1.92917,0 3.49304,1.56388 3.49304,3.49305 z"
       style="fill:#bf0040;fill-opacity:1;fill-rule:nonzero;stroke:#000000;stroke-width:0.37051;stroke-linecap:butt;stroke-linejoin:miter;stroke-miterlimit:10;stroke-dasharray:none;stroke-opacity:1"
       transform="matrix(1.3333333,0,0,-1.3333333,71.333333,24.824)" />
    <path
       id="path95"
       d="m 3.49304,-188.95271 c 0,1.92918 -1.56387,3.49305 -3.49304,3.49305 -1.92917,0 -3.49304,-1.56387 -3.49304,-3.49305 0,-1.92917 1.56387,-3.49305 3.49304,-3.49305 1.92917,0 3.49304,1.56388 3.49304,3.49305 z"
       style="fill:#00ff00;fill-opacity:1;fill-rule:nonzero;stroke:#000000;stroke-width:0.37051;stroke-linecap:butt;stroke-linejoin:miter;stroke-miterlimit:10;stroke-dasharray:none;stroke-opacity:1"
       transform="matrix(1.3333333,0,0,-1.3333333,71.333333,24.824)" />
  </g>
</svg>
