<?xml version="1.0" encoding="UTF-8" standalone="no"?>
<!-- Created with Inkscape (http://www.inkscape.org/) -->

<svg
   version="1.1"
   id="svg1"
   width="600.49597"
   height="141.73334"
   viewBox="0 0 600.49597 141.73334"
   sodipodi:docname="main.pdf"
   xmlns:inkscape="http://www.inkscape.org/namespaces/inkscape"
   xmlns:sodipodi="http://sodipodi.sourceforge.net/DTD/sodipodi-0.dtd"
   xmlns="http://www.w3.org/2000/svg"
   xmlns:svg="http://www.w3.org/2000/svg">
  <defs
     id="defs1" />
  <sodipodi:namedview
     id="namedview1"
     pagecolor="#ffffff"
     bordercolor="#000000"
     borderopacity="0.25"
     inkscape:showpageshadow="2"
     inkscape:pageopacity="0.0"
     inkscape:pagecheckerboard="0"
     inkscape:deskcolor="#d1d1d1">
    <inkscape:page
       x="0"
       y="0"
       inkscape:label="1"
       id="page1"
       width="600.49597"
       height="141.73334"
       margin="0"
       bleed="0" />
  </sodipodi:namedview>
  <g
     id="g1"
     inkscape:groupmode="layer"
     inkscape:label="1">
    <path
       id="path1"
       d="M 0,0 H 450.372 V 106.3 H 0 Z"
       style="fill:#ffffff;fill-opacity:1;fill-rule:nonzero;stroke:none"
       transform="matrix(1.3333333,0,0,-1.3333333,0,141.73333)" />
    <path
       id="path2"
       d="M -45.12927,-75.61977 V 29.68153 H 404.24889 V -75.61977 Z"
       style="fill:#ffffff;fill-opacity:1;fill-rule:nonzero;stroke:none"
       transform="matrix(1.3333333,0,0,-1.3333333,60.838667,40.241333)" />
    <path
       id="path3"
       d="M 2.1796641,-9.9485078 H 1.1132578 V 7.109375e-4 h 1.0664063 z m 6.7382812,5.7421875 c 0,-1.3710938 -0.9960937,-2.3789063 -2.3320312,-2.3789063 -0.8554688,0 -1.5,0.1992188 -2.203125,0.609375 l 0.082031,0.9375 c 0.6328125,-0.4570312 1.2890625,-0.7148437 2.1210938,-0.7148437 0.6679687,0 1.2421875,0.5273437 1.2421875,1.5820312 v 0.5859375 c -0.65625,0.023437 -1.5117188,0.070312 -2.3671875,0.3632813 -0.9609375,0.328125 -1.5234375,0.8554687 -1.5234375,1.5703125 0,0.6328125 0.375,1.79296874 1.59375,1.79296874 0.7851562,0 1.7929687,-0.22265625 2.3203125,-0.66796875 V 7.109375e-4 h 1.0664062 z m -1.0898437,2.2851562 c 0,0.28125 0,0.6328125 -0.4804688,0.9140625 -0.3867187,0.24609379 -0.8671875,0.29296879 -1.0898437,0.29296879 -0.7734375,0 -1.3007813,-0.42187499 -1.3007813,-0.94921879 0,-0.9726562 1.9921875,-1.1953125 2.8710938,-1.1953125 z m 4.6494144,-3.609375 h 1.980468 v -0.8320312 h -1.980468 v -1.828125 h -0.984375 v 1.828125 h -1.207032 v 0.8320312 h 1.171875 v 3.8554688 c 0,0.83203124 0.1875,1.81640624 1.183594,1.81640624 0.960938,0 1.617188,-0.328125 2.0625,-0.55078125 L 14.493141,-1.2414766 c -0.503907,0.43359379 -1.03125,0.49218754 -1.289063,0.49218754 -0.632812,0 -0.726562,-0.66796874 -0.726562,-1.17187504 z m 8.375976,3.984375 c -0.65625,0.5273438 -1.394531,0.79687504 -2.191406,0.79687504 -1.195313,0 -1.96875,-1.05468754 -1.96875,-2.44921874 0,-1.1953125 0.574219,-2.4960938 2.003906,-2.4960938 0.960938,0 1.371094,0.234375 1.980469,0.6445313 l 0.175781,-0.9257813 c -0.832031,-0.4921875 -1.3125,-0.609375 -2.15625,-0.609375 -1.980469,0 -3.09375,1.7578125 -3.09375,3.3867188 0,1.8398437 1.3125,3.33984374 3.035156,3.33984374 0.703125,0 1.511719,-0.1640625 2.296875,-0.73828125 0,-0.046875 -0.04687,-0.49218749 -0.05859,-0.55078129 z m 6.574219,-2.765625 c 0,-0.8789062 -0.1875,-2.203125 -1.921875,-2.203125 -0.984375,0 -1.652344,0.5625 -1.992188,0.9960938 V -9.9485078 H 22.447242 V 7.109375e-4 h 1.089844 V -3.5735078 c 0,-0.890625 0.328125,-2.0742188 1.417969,-2.0742188 1.335937,0 1.382812,0.9257813 1.382812,1.4296875 V 7.109375e-4 h 1.089844 z m 0,0"
       style="fill:#000000;fill-opacity:1;fill-rule:nonzero;stroke:none"
       aria-label="latch"
       transform="matrix(1.3333333,0,0,1.3333333,9.168,40.237333)" />
    <path
       id="path4"
       d="m 0,0.0037 h 20.40372 l 2.55048,15.30279 h 7.65139 L 33.15605,0.0037 h 364.71669"
       style="fill:none;stroke:#000000;stroke-width:0.95636;stroke-linecap:round;stroke-linejoin:round;stroke-miterlimit:10;stroke-dasharray:none;stroke-opacity:1"
       transform="matrix(1.3333333,0,0,-1.3333333,60.838667,40.241333)" />
    <path
       id="path5"
       d="m 5.7533828,-1.5477188 c -0.65625,0.5273438 -1.3945312,0.79687505 -2.1914062,0.79687505 -1.1953125,0 -1.96875,-1.05468755 -1.96875,-2.44921875 0,-1.1953125 0.5742187,-2.4960938 2.0039062,-2.4960938 0.9609375,0 1.3710938,0.234375 1.9804688,0.6445313 l 0.1757812,-0.9257813 c -0.8320312,-0.4921875 -1.3125,-0.609375 -2.15625,-0.609375 -1.9804687,0 -3.09374999,1.7578125 -3.09374999,3.3867188 0,1.8398437 1.31249999,3.33984375 3.03515629,3.33984375 0.703125,0 1.5117187,-0.1640625 2.296875,-0.73828125 0,-0.046875 -0.046875,-0.4921875 -0.058594,-0.5507813 z M 8.4223281,-9.9500625 H 7.3559219 v 9.94921875 h 1.0664062 z m 5.0273439,6.0351562 2.355469,-2.4492187 h -1.324219 l -2.765625,2.8828125 v -6.46875 h -1.054688 v 9.94921875 h 1.007813 V -2.0633438 l 1.089844,-1.1367187 2.179687,3.19921875 h 1.183594 z m 0,0"
       style="fill:#000000;fill-opacity:1;fill-rule:nonzero;stroke:none"
       aria-label="clk"
       transform="matrix(1.3333333,0,0,1.3333333,25.418667,81.048)" />
    <path
       id="path6"
       d="m 0,-15.30281 h 40.80745 l 2.55048,-15.30279 h 7.65139 l 2.55046,15.30279 h 7.6514 l 2.55048,-15.30279 h 7.6514 l 2.55046,15.30279 h 7.65139 l 2.55046,-15.30279 h 7.6514 l 2.55048,15.30279 h 7.6514 l 2.55045,-15.30279 h 7.6514 l 2.55048,15.30279 h 7.6514 l 2.55046,-15.30279 h 7.6514 l 2.55047,15.30279 h 7.6514 l 2.55046,-15.30279 h 7.6514 l 2.55046,15.30279 h 7.65141 l 2.55046,-15.30279 h 7.6514 l 2.55046,15.30279 h 7.6514 l 2.55048,-15.30279 h 7.65139 l 2.55047,15.30279 h 7.6514 l 2.55047,-15.30279 h 7.6514 l 2.55046,15.30279 h 7.65139 l 2.55048,-15.30279 h 7.6514 l 2.55046,15.30279 h 7.6514 l 2.55046,-15.30279 h 7.65141 l 2.55046,15.30279 h 7.6514 l 2.55046,-15.30279 h 7.6514 l 2.55047,15.30279 h 7.6514 l 2.55046,-15.30279 h 7.6514 l 2.55048,15.30279 h 7.65139 l 2.55046,-15.30279 h 7.6514 l 2.55048,15.30279 h 7.6514 l 2.55046,-15.30279 h 7.65139 l 2.55046,15.30279 h 7.65142 l 2.55046,-15.30279 h 7.6514 l 2.55046,15.30279 h 38.257"
       style="fill:none;stroke:#000000;stroke-width:0.95636;stroke-linecap:round;stroke-linejoin:round;stroke-miterlimit:10;stroke-dasharray:none;stroke-opacity:1"
       transform="matrix(1.3333333,0,0,-1.3333333,60.838667,40.241333)" />
    <path
       id="path7"
       d="M 6.0715078,-9.9478281 H 5.0051016 v 4.1835937 c -0.65625,-0.5507812 -1.40625,-0.75 -2.015625,-0.75 -1.3710938,0 -2.48437504,1.4648438 -2.48437504,3.328125 0,1.8515625 1.05468754,3.32812502 2.42578124,3.32812502 0.5273438,0 1.3359375,-0.1640625 2.0507813,-0.8671875 v 0.7265625 h 1.0898437 z m -1.0898437,8.2617187 c -0.3515625,0.609375 -0.84375,0.97265627 -1.4765625,0.97265627 -0.8789063,0 -1.9101563,-0.67968747 -1.9101563,-2.46093747 0,-1.8984375 1.21875,-2.4726563 2.0507813,-2.4726563 0.5625,0 1.0195312,0.28125 1.3359375,0.7617188 z m 7.8369139,-2.5195312 c 0,-1.3710938 -0.996094,-2.3789063 -2.332031,-2.3789063 -0.8554689,0 -1.5000001,0.1992188 -2.2031251,0.609375 l 0.082031,0.9375 c 0.6328125,-0.4570312 1.2890625,-0.7148437 2.1210941,-0.7148437 0.667969,0 1.242187,0.5273437 1.242187,1.5820312 v 0.5859375 c -0.65625,0.023437 -1.511718,0.070312 -2.3671873,0.3632813 -0.9609375,0.328125 -1.5234375,0.8554687 -1.5234375,1.5703125 0,0.6328125 0.375,1.79296872 1.59375,1.79296872 0.7851568,0 1.7929688,-0.22265625 2.3203128,-0.66796875 v 0.52734375 h 1.066406 z m -1.089844,2.2851562 c 0,0.28125 0,0.6328125 -0.480468,0.9140625 -0.386719,0.24609377 -0.867188,0.29296877 -1.089844,0.29296877 -0.7734376,0 -1.3007814,-0.42187497 -1.3007814,-0.94921877 0,-0.9726562 1.9921874,-1.1953125 2.8710934,-1.1953125 z m 4.649414,-3.609375 h 1.980469 v -0.8320312 h -1.980469 v -1.828125 h -0.984375 v 1.828125 h -1.207031 v 0.8320312 h 1.171875 v 3.8554688 c 0,0.83203122 0.1875,1.81640622 1.183594,1.81640622 0.960937,0 1.617187,-0.328125 2.0625,-0.55078125 L 18.393773,-1.2407969 c -0.503906,0.43359377 -1.03125,0.49218752 -1.289062,0.49218752 -0.632813,0 -0.726563,-0.66796872 -0.726563,-1.17187502 z m 8.238282,1.3242188 c 0,-1.3710938 -0.996094,-2.3789063 -2.332032,-2.3789063 -0.855468,0 -1.5,0.1992188 -2.203125,0.609375 l 0.08203,0.9375 c 0.632812,-0.4570312 1.289062,-0.7148437 2.121093,-0.7148437 0.667969,0 1.242188,0.5273437 1.242188,1.5820312 v 0.5859375 c -0.65625,0.023437 -1.511719,0.070312 -2.367188,0.3632813 -0.960937,0.328125 -1.523437,0.8554687 -1.523437,1.5703125 0,0.6328125 0.375,1.79296872 1.59375,1.79296872 0.785156,0 1.792969,-0.22265625 2.320312,-0.66796875 v 0.52734375 h 1.066407 z m -1.089844,2.2851562 c 0,0.28125 0,0.6328125 -0.480469,0.9140625 -0.386719,0.24609377 -0.867187,0.29296877 -1.089844,0.29296877 -0.773437,0 -1.300781,-0.42187497 -1.300781,-0.94921877 0,-0.9726562 1.992188,-1.1953125 2.871094,-1.1953125 z m 0,0"
       style="fill:#000000;fill-opacity:1;fill-rule:nonzero;stroke:none"
       aria-label="data"
       transform="matrix(1.3333333,0,0,1.3333333,12.932,121.86533)" />
    <path
       id="path8"
       d="m 0,-45.91403 25.50465,-9e-4 2.55046,-7.6514 -2.55046,-7.65141 L 0,-61.21683"
       style="fill:none;stroke:#000000;stroke-width:0.95636;stroke-linecap:round;stroke-linejoin:round;stroke-miterlimit:10;stroke-dasharray:none;stroke-opacity:1"
       transform="matrix(1.3333333,0,0,-1.3333333,60.838667,40.241333)" />
    <path
       id="path9"
       d="m 28.05511,-53.56451 2.55048,7.65139 25.50465,-9.1e-4 2.55048,-7.6514 -2.55048,-7.6514 -25.50465,0.0018 -2.55048,7.6514"
       style="fill:none;stroke:#000000;stroke-width:0.95636;stroke-linecap:round;stroke-linejoin:round;stroke-miterlimit:10;stroke-dasharray:none;stroke-opacity:1"
       transform="matrix(1.3333333,0,0,-1.3333333,60.838667,40.241333)" />
    <path
       id="path10"
       d="M 1.3272526,-9.9602734 V 6.640625e-4 h 3.7109375 c 2.03125,0 3.4960938,-1.2890624625 3.4960938,-2.6953124625 0,-1.2695313 -1.25,-2.2851563 -2.7148438,-2.5195313 1.6796875,-0.4492187 2.3242188,-1.4257812 2.3242188,-2.2460937 0,-1.2890625 -1.4648438,-2.5 -3.4960938,-2.5 z m 1.171875,4.3554687 v -3.5546875 h 1.7578125 c 1.5429688,0 2.7734375,0.7617188 2.7734375,1.71875 0,0.9960938 -1.2304687,1.8359375 -2.7539062,1.8359375 z m 0,4.80468751 V -4.7454297 h 1.9140625 c 1.8359375,0 2.9882813,1.0351563 2.9882813,2.03125 0,1.015625 -1.1523438,1.91406251 -2.7734375,1.91406251 z m 0,0"
       style="fill:#000000;fill-opacity:1;fill-rule:nonzero;stroke:none"
       aria-label="B"
       transform="matrix(0.8,0,0,0.8,114.91867,115.644)" />
    <path
       id="path11"
       d="m 58.66072,-53.5636 2.55046,7.6514 15.3028,-9.2e-4 2.55047,-7.65139 -2.55047,-7.6514 -15.3028,0.0018 -2.55046,7.6514"
       style="fill:none;stroke:#000000;stroke-width:0.95636;stroke-linecap:round;stroke-linejoin:round;stroke-miterlimit:10;stroke-dasharray:none;stroke-opacity:1"
       transform="matrix(1.3333333,0,0,-1.3333333,60.838667,40.241333)" />
    <path
       id="path12"
       d="m 9.2383724,-9.9586068 h -1.25 L 5.5274349,-6.2476693 C 5.2539974,-5.837513 4.9610286,-5.3882943 4.7461849,-5.0172005 4.6875911,-5.0757943 4.5313411,-5.368763 3.9258724,-6.306263 L 1.4844661,-9.9586068 H 0.03915365 L 4.0430599,-3.9820443 V 0.00233073 H 5.2344661 V -3.9820443 Z m 0,0"
       style="fill:#000000;fill-opacity:1;fill-rule:nonzero;stroke:none"
       aria-label="Y"
       transform="matrix(0.8,0,0,0.8,148.94133,115.64267)" />
    <path
       id="path13"
       d="m 79.06445,-53.56268 2.55046,7.65139 15.3028,-9.1e-4 2.55048,-7.6514 -2.55048,-7.6514 -15.3028,0.0018 -2.55046,7.6514"
       style="fill:none;stroke:#000000;stroke-width:0.95636;stroke-linecap:round;stroke-linejoin:round;stroke-miterlimit:10;stroke-dasharray:none;stroke-opacity:1"
       transform="matrix(1.3333333,0,0,-1.3333333,60.838667,40.241333)" />
    <path
       id="path14"
       d="m 6.5250521,-9.5711979 c -0.5859375,-0.3125 -1.2890625,-0.7031251 -2.578125,-0.7031251 -1.9140625,0 -3.16406252,1.3867188 -3.16406252,2.8320313 0,1.015625 0.60546872,1.6796875 0.68359372,1.7382813 0.703125,0.7226562 1.1914063,0.859375 2.109375,1.0742187 1.2109375,0.3125 1.4257813,0.3710938 1.875,0.8398438 0.2539063,0.2539062 0.46875,0.7226562 0.46875,1.2109375 0,0.9960937 -0.8203125,1.91406248 -2.0507812,1.91406248 -1.0546875,0 -2.1679688,-0.41015628 -3.02734377,-1.19140628 l -0.21484375,1.17187503 c 1.30859372,0.859375 2.57812502,0.9765625 3.24218752,0.9765625 1.8554687,0 3.1445312,-1.40625003 3.1445312,-3.00781253 0,-0.9179687 -0.4296875,-1.6015625 -0.7617187,-1.9726562 C 5.6070833,-5.3915104 5.0602083,-5.5282292 4.1031771,-5.7626042 3.1266146,-6.0165104 2.7750521,-6.0946354 2.4625521,-6.4071354 2.2672396,-6.6024479 1.8766146,-6.9540104 1.8766146,-7.6180729 c 0,-0.859375 0.8007812,-1.71875 2.0507812,-1.71875 1.2304688,0 1.875,0.4882812 2.3828125,0.9375 z m 8.4667969,4.8242187 v -0.859375 H 10.32388 v -3.4375 h 1.953125 c 0.175781,0 0.351563,0.019531 0.527344,0.019531 h 2.578125 V -9.9422917 H 9.0934115 V -8.8541667e-4 H 15.577786 V -0.97744792 h -1.894531 c -0.15625,0 -0.332031,0.0195313 -0.507812,0.0195313 H 10.32388 V -4.7469792 Z m 0,0"
       style="fill:#000000;fill-opacity:1;fill-rule:nonzero;stroke:none"
       aria-label="SE"
       transform="matrix(0.8,0,0,0.8,173.38933,115.64133)" />
    <path
       id="path15"
       d="m 99.46819,-53.56178 2.55046,7.65139 15.30279,-9e-4 2.55046,-7.65139 -2.55046,-7.6514 -15.30279,0.0018 -2.55046,7.6514"
       style="fill:none;stroke:#000000;stroke-width:0.95636;stroke-linecap:round;stroke-linejoin:round;stroke-miterlimit:10;stroke-dasharray:none;stroke-opacity:1"
       transform="matrix(1.3333333,0,0,-1.3333333,60.838667,40.241333)" />
    <path
       id="path16"
       d="m 6.5234896,-9.5711979 c -0.5859375,-0.3125 -1.2890625,-0.7031251 -2.578125,-0.7031251 -1.9140625,0 -3.16406252,1.3867188 -3.16406252,2.8320313 0,1.015625 0.60546872,1.6796875 0.68359372,1.7382813 0.703125,0.7226562 1.1914063,0.859375 2.109375,1.0742187 1.2109375,0.3125 1.4257813,0.3710938 1.875,0.8398438 0.2539063,0.2539062 0.46875,0.7226562 0.46875,1.2109375 0,0.9960937 -0.8203125,1.91406248 -2.0507812,1.91406248 -1.0546875,0 -2.1679688,-0.41015628 -3.02734377,-1.19140628 l -0.21484375,1.17187503 c 1.30859372,0.859375 2.57812502,0.9765625 3.24218752,0.9765625 1.8554687,0 3.1445312,-1.40625003 3.1445312,-3.00781253 0,-0.9179687 -0.4296875,-1.6015625 -0.7617187,-1.9726562 C 5.6055208,-5.3915104 5.0586458,-5.5282292 4.1016146,-5.7626042 3.1250521,-6.0165104 2.7734896,-6.0946354 2.4609896,-6.4071354 2.2656771,-6.6024479 1.8750521,-6.9540104 1.8750521,-7.6180729 c 0,-0.859375 0.8007812,-1.71875 2.0507812,-1.71875 1.2304688,0 1.875,0.4882812 2.3828125,0.9375 z m 6.6894534,0.5664062 h 1.269531 c 0.175781,0 0.332031,0.019531 0.507812,0.019531 h 1.894532 V -9.8836979 H 8.310599 v 0.8984375 h 1.894531 c 0.175781,0 0.332031,-0.019531 0.507813,-0.019531 h 1.269531 v 9.00390628333 h 1.230469 z m 0,0"
       style="fill:#000000;fill-opacity:1;fill-rule:nonzero;stroke:none"
       aria-label="ST"
       transform="matrix(0.8,0,0,0.8,200.10933,115.64133)" />
    <path
       id="path17"
       d="m 119.8719,-53.56087 2.55048,7.6514 15.30279,-9.2e-4 2.55046,-7.65139 -2.55046,-7.6514 -15.30279,0.0018 -2.55048,7.6514"
       style="fill:none;stroke:#000000;stroke-width:0.95636;stroke-linecap:round;stroke-linejoin:round;stroke-miterlimit:10;stroke-dasharray:none;stroke-opacity:1"
       transform="matrix(1.3333333,0,0,-1.3333333,60.838667,40.241333)" />
    <path
       id="path18"
       d="m 3.866901,-7.9667057 c 0.3515625,0.546875 0.7617188,0.9570312 1.1132813,1.2304687 0.8789062,0.6445313 1.7578125,0.8007813 1.7773437,0.8007813 0.1757813,0 0.1757813,-0.15625 0.1757813,-0.2734375 0,-0.234375 -0.019531,-0.2539063 -0.3320313,-0.3515625 -0.9765625,-0.2734375 -1.5429687,-0.78125 -1.8554687,-1.1523438 -0.7421875,-0.78125 -0.9179688,-1.640625 -0.9960938,-2.109375 -0.019531,-0.058594 -0.078125,-0.1171875 -0.15625,-0.1171875 -0.1367187,0 -0.15625,0.078125 -0.1757812,0.2539063 -0.3320313,1.5820312 -1.3476563,2.7148437 -2.92968751,3.1640625 -0.21484375,0.058594 -0.25390625,0.058594 -0.25390625,0.3125 0,0.1171875 0,0.2734375 0.17578125,0.2734375 0.0585938,0 0.89843751,-0.15625 1.71875001,-0.7617188 0.46875,-0.3515625 0.859375,-0.78125 1.171875,-1.2695312 v 10.234375 c 0,0.2539062 0,0.5273437 0.2929687,0.5273437 0.2734375,0 0.2734375,-0.2734375 0.2734375,-0.5273437 z m 0,0"
       style="fill:#000000;fill-opacity:1;fill-rule:nonzero;stroke:none"
       aria-label="↑"
       transform="matrix(0.8,0,0,0.8,231.39867,114.54133)" />
    <path
       id="path19"
       d="m 140.27563,-53.55995 2.55048,7.6514 15.30279,-9.2e-4 2.55047,-7.6514 -2.55047,-7.6514 -15.30279,0.0018 -2.55048,7.65139"
       style="fill:none;stroke:#000000;stroke-width:0.95636;stroke-linecap:round;stroke-linejoin:round;stroke-miterlimit:10;stroke-dasharray:none;stroke-opacity:1"
       transform="matrix(1.3333333,0,0,-1.3333333,60.838667,40.241333)" />
    <path
       id="path20"
       d="m 3.8658073,-9.4542969 c 0,-0.2539062 0,-0.5078125 -0.2734375,-0.5078125 -0.2929688,0 -0.2929688,0.2539063 -0.2929688,0.5078125 V 0.78007813 c -0.3515625,-0.546875 -0.7421875,-0.9375 -1.1132812,-1.2109375 C 1.3267448,-1.0949219 0.44783854,-1.2316406 0.40877604,-1.2316406 c -0.17578125,0 -0.17578125,0.15625 -0.17578125,0.27343748 0,0.234375 0.0195313,0.234375 0.33203125,0.33203125 C 1.5415885,-0.35273437 2.1079948,0.17460938 2.440026,0.52617188 3.1626823,1.3269531 3.3384635,2.1863281 3.4361198,2.6355469 c 0,0.058594 0.058594,0.1367187 0.15625,0.1367187 0.1171875,0 0.1367187,-0.097656 0.1757812,-0.234375 0.3125,-1.62109372 1.3476563,-2.73437497 2.9296875,-3.18359372 0.2148438,-0.078125 0.234375,-0.078125 0.234375,-0.3125 0,-0.11718748 0,-0.27343748 -0.1757812,-0.27343748 -0.039063,0 -0.8789063,0.15625 -1.6992188,0.74218748 -0.4882812,0.3515625 -0.859375,0.78125 -1.1914062,1.26953125 z m 0,0"
       style="fill:#000000;fill-opacity:1;fill-rule:nonzero;stroke:none"
       aria-label="↓"
       transform="matrix(0.8,0,0,0.8,258.60267,114.54)" />
    <path
       id="path21"
       d="m 160.67937,-53.55904 2.55047,7.6514 15.3028,-9.1e-4 2.55046,-7.6514 -2.55046,-7.6514 -15.3028,0.0018 -2.55047,7.65141"
       style="fill:none;stroke:#000000;stroke-width:0.95636;stroke-linecap:round;stroke-linejoin:round;stroke-miterlimit:10;stroke-dasharray:none;stroke-opacity:1"
       transform="matrix(1.3333333,0,0,-1.3333333,60.838667,40.241333)" />
    <path
       id="path22"
       d="m 13.025885,-3.2983984 c 0.273438,0 0.527344,0 0.527344,-0.2929688 0,-0.2734375 -0.253906,-0.2734375 -0.527344,-0.2734375 H 2.3618229 c 0.8007813,-0.6054687 1.1914063,-1.1914062 1.2890625,-1.3867187 0.6640625,-0.9960938 0.7617188,-1.8945313 0.7617188,-1.9140625 0,-0.1757813 -0.15625,-0.1757813 -0.2734375,-0.1757813 -0.2539063,0 -0.2734375,0.039063 -0.3125,0.2929688 -0.3320313,1.40625 -1.1914063,2.5976562 -2.8125,3.28125 -0.15625003,0.058594 -0.21484378,0.078125 -0.21484378,0.1757812 0,0.097656 0.078125,0.1367188 0.21484378,0.1953125 1.5039062,0.6054688 2.4609375,1.7382813 2.8125,3.33984376 0.039063,0.17578125 0.058594,0.21484375 0.3125,0.21484375 0.1171875,0 0.2734375,0 0.2734375,-0.17578125 0,-0.01953125 -0.1171875,-0.9375 -0.7226563,-1.89453126 -0.2929687,-0.4296875 -0.703125,-0.9375 -1.328125,-1.3867187 z m 0,0"
       style="fill:#000000;fill-opacity:1;fill-rule:nonzero;stroke:none"
       aria-label="←"
       transform="matrix(0.8,0,0,0.8,282.93867,113.752)" />
    <path
       id="path23"
       d="m 181.0831,-53.55812 2.55046,7.6514 15.30281,-9.2e-4 2.55046,-7.6514 -2.55046,-7.65139 -15.30281,0.0018 -2.55046,7.6514"
       style="fill:none;stroke:#000000;stroke-width:0.95636;stroke-linecap:round;stroke-linejoin:round;stroke-miterlimit:10;stroke-dasharray:none;stroke-opacity:1"
       transform="matrix(1.3333333,0,0,-1.3333333,60.838667,40.241333)" />
    <path
       id="path24"
       d="m 11.974987,-3.3016146 c -0.78125,0.6054688 -1.171875,1.1914063 -1.289063,1.3867188 -0.644531,0.97656247 -0.7617183,1.89453122 -0.7617183,1.89453122 0,0.17578125 0.1757813,0.17578125 0.2929683,0.17578125 0.234375,0 0.253907,-0.0195313 0.3125,-0.29296875 0.332032,-1.40625002 1.171875,-2.59765622 2.792969,-3.26171872 0.175781,-0.058594 0.214844,-0.097656 0.214844,-0.1953125 0,-0.097656 -0.07813,-0.1367188 -0.117188,-0.15625 -0.625,-0.234375 -2.363281,-0.9570313 -2.910156,-3.3789063 -0.03906,-0.15625 -0.05859,-0.2148437 -0.292969,-0.2148437 -0.117187,0 -0.2929683,0 -0.2929683,0.1757812 0,0.039063 0.1367183,0.9375 0.7226563,1.8945313 0.292969,0.4296875 0.703125,0.9375 1.328125,1.40625 H 1.3109245 c -0.2539063,0 -0.52734377,0 -0.52734377,0.2734375 0,0.2929687 0.27343747,0.2929687 0.52734377,0.2929687 z m 0,0"
       style="fill:#000000;fill-opacity:1;fill-rule:nonzero;stroke:none"
       aria-label="→"
       transform="matrix(0.8,0,0,0.8,310.14267,113.75067)" />
    <path
       id="path25"
       d="m 201.48683,-53.55722 2.55047,7.6514 15.3028,-9e-4 2.55046,-7.6514 -2.55046,-7.65141 -15.3028,0.0018 -2.55047,7.6514"
       style="fill:none;stroke:#000000;stroke-width:0.95636;stroke-linecap:round;stroke-linejoin:round;stroke-miterlimit:10;stroke-dasharray:none;stroke-opacity:1"
       transform="matrix(1.3333333,0,0,-1.3333333,60.838667,40.241333)" />
    <path
       id="path26"
       d="M 5.2755208,-9.9632552 H 4.0059896 L 0.39270833,-0.00231771 H 1.4473958 L 2.5020833,-2.912474 h 4.0429688 l 1.0742187,2.91015629 h 1.2695313 z m -0.7421875,1.0351562 1.71875,5.2148438 h -3.4375 z m 0,0"
       style="fill:#000000;fill-opacity:1;fill-rule:nonzero;stroke:none"
       aria-label="A"
       transform="matrix(0.8,0,0,0.8,339.37333,115.63467)" />
    <path
       id="path27"
       d="m 221.89056,-53.5563 2.55046,7.6514 15.3028,-9.2e-4 2.55048,-7.6514 -2.55048,-7.6514 -15.3028,0.0018 -2.55046,7.6514"
       style="fill:none;stroke:#000000;stroke-width:0.95636;stroke-linecap:round;stroke-linejoin:round;stroke-miterlimit:10;stroke-dasharray:none;stroke-opacity:1"
       transform="matrix(1.3333333,0,0,-1.3333333,60.838667,40.241333)" />
    <path
       id="path28"
       d="m 5.1360417,-5.2545573 3.359375,-4.7070312 h -1.328125 l -2.6367188,3.75 -2.6953125,-3.75 H 0.38994792 L 3.9251042,-5.2545573 0.19463542,-6.5104167e-4 H 1.5227604 L 4.5305729,-4.3951823 7.6360417,-6.5104167e-4 h 1.4453125 z m 0,0"
       style="fill:#000000;fill-opacity:1;fill-rule:nonzero;stroke:none"
       aria-label="X"
       transform="matrix(0.8,0,0,0.8,366.57867,115.63333)" />
    <path
       id="path29"
       d="m 242.2943,-53.55539 2.55046,7.6514 15.30279,-9.1e-4 2.55048,-7.6514 -2.55048,-7.6514 -15.30279,0.0018 -2.55046,7.6514"
       style="fill:none;stroke:#000000;stroke-width:0.95636;stroke-linecap:round;stroke-linejoin:round;stroke-miterlimit:10;stroke-dasharray:none;stroke-opacity:1"
       transform="matrix(1.3333333,0,0,-1.3333333,60.838667,40.241333)" />
    <path
       id="path30"
       d="M 2.5207031,-9.9599219 H 1.2902344 v 9.96093752 h 5.703125 v -0.91796875 c -1.2695313,0.0195313 -2.5195313,0.0195313 -3.7695313,0.0195313 h -0.703125 z m 0,0"
       style="fill:#000000;fill-opacity:1;fill-rule:nonzero;stroke:none"
       aria-label="L"
       transform="matrix(0.8,0,0,0.8,394.46,115.632)" />
    <path
       id="path31"
       d="m 262.69803,-53.55447 2.55046,7.65139 15.30279,-9.1e-4 2.55048,-7.6514 -2.55048,-7.6514 -15.30279,0.0018 -2.55046,7.6514"
       style="fill:none;stroke:#000000;stroke-width:0.95636;stroke-linecap:round;stroke-linejoin:round;stroke-miterlimit:10;stroke-dasharray:none;stroke-opacity:1"
       transform="matrix(1.3333333,0,0,-1.3333333,60.838667,40.241333)" />
    <path
       id="path32"
       d="m 5.8422656,-4.6897005 c 1.5625,-0.4296875 2.421875,-1.5234375 2.421875,-2.5976563 0,-1.4257812 -1.5429687,-2.6757812 -3.5742187,-2.6757812 H 1.3110156 v 9.96093748 H 2.5219531 V -4.5529818 h 2.2265625 l 2.65625,4.55078128 H 8.6352344 Z M 2.5219531,-5.4123568 v -3.75 h 2.0117188 c 1.7382812,0 2.5976562,0.9179688 2.5976562,1.875 0,0.8984375 -0.78125,1.875 -2.5976562,1.875 z m 0,0"
       style="fill:#000000;fill-opacity:1;fill-rule:nonzero;stroke:none"
       aria-label="R"
       transform="matrix(0.8,0,0,0.8,421.084,115.63067)" />
    <path
       id="path33"
       d="m 283.10176,-53.55357 2.55046,7.65139 76.51399,-9e-4 2.55046,-7.65139 -2.55046,-7.6514 -76.51399,0.0018 -2.55046,7.6514"
       style="fill:none;stroke:#000000;stroke-width:0.95636;stroke-linecap:round;stroke-linejoin:round;stroke-miterlimit:10;stroke-dasharray:none;stroke-opacity:1"
       transform="matrix(1.3333333,0,0,-1.3333333,60.838667,40.241333)" />
    <path
       id="path34"
       d="M 4.2183464,-9.7091016 H 3.9449089 c -0.234375,0.234375 -0.9179688,0.8984375 -2.4609375,0.9375 -0.2148438,0 -0.2148438,0.019531 -0.2148438,0.2734375 v 0.5664063 c 0.8789063,0 1.5234375,-0.2148438 1.8359375,-0.3320313 v 7.42187504 H 1.3472526 v 0.83984375 H 5.9761589 V -0.84191406 H 4.2183464 Z m 0,0"
       style="fill:#000000;fill-opacity:1;fill-rule:nonzero;stroke:none"
       aria-label="1"
       transform="matrix(0.8,0,0,0.8,489.90267,115.404)" />
    <path
       id="path35"
       d="m 364.71667,-53.55174 2.55047,7.6514 30.6056,-0.0018 m 0,-15.30279 -30.6056,0.0018 -2.55047,7.6514"
       style="fill:none;stroke:#000000;stroke-width:0.95636;stroke-linecap:round;stroke-linejoin:round;stroke-miterlimit:10;stroke-dasharray:none;stroke-opacity:1"
       transform="matrix(1.3333333,0,0,-1.3333333,60.838667,40.241333)" />
    <path
       id="path36"
       d="M 12.75232,22.9542 V -68.89243 M 22.9542,22.9542 V -68.89243 M 33.15605,22.9542 V -68.89243 M 43.35793,22.9542 V -68.89243 M 53.55978,22.9542 V -68.89243 M 63.76166,22.9542 V -68.89243 M 73.96352,22.9542 V -68.89243 M 84.16537,22.9542 V -68.89243 M 94.36725,22.9542 V -68.89243 M 104.5691,22.9542 V -68.89243 M 114.77098,22.9542 V -68.89243 M 124.97284,22.9542 V -68.89243 M 135.17471,22.9542 V -68.89243 M 145.37657,22.9542 V -68.89243 M 155.57843,22.9542 V -68.89243 M 165.7803,22.9542 V -68.89243 M 175.98216,22.9542 V -68.89243 M 186.18404,22.9542 V -68.89243 M 196.3859,22.9542 V -68.89243 M 206.58777,22.9542 V -68.89243 M 216.78963,22.9542 V -68.89243 M 226.9915,22.9542 V -68.89243 M 237.19336,22.9542 V -68.89243 M 247.39522,22.9542 V -68.89243 M 257.59709,22.9542 V -68.89243 M 267.79895,22.9542 V -68.89243 M 278.00082,22.9542 V -68.89243 M 288.20268,22.9542 V -68.89243 M 298.40456,22.9542 V -68.89243 M 308.60641,22.9542 V -68.89243 M 318.80829,22.9542 V -68.89243 M 329.01015,22.9542 V -68.89243 M 339.212,22.9542 v -91.84663 m 10.20188,91.84663 v -91.84663 m 10.20186,91.84663 v -91.84663 m 10.20187,91.84663 v -91.84663 m 10.20186,91.84663 v -91.84663 m 10.20187,91.84663 v -91.84663"
       style="fill:none;stroke:#808080;stroke-width:0.59776;stroke-linecap:round;stroke-linejoin:round;stroke-miterlimit:10;stroke-dasharray:none;stroke-opacity:0.5"
       transform="matrix(1.3333333,0,0,-1.3333333,60.838667,40.241333)" />
    <path
       id="path37"
       d="M 53.55978,22.9542 V -68.89243 M 73.96352,22.9542 V -68.89243 M 94.36725,22.9542 V -68.89243 M 114.77098,22.9542 V -68.89243 M 135.17471,22.9542 V -68.89243 M 155.57843,22.9542 V -68.89243 M 175.98216,22.9542 V -68.89243 M 196.3859,22.9542 V -68.89243 M 216.78963,22.9542 V -68.89243 M 237.19336,22.9542 V -68.89243 M 257.59709,22.9542 V -68.89243 M 278.00082,22.9542 V -68.89243 M 298.40456,22.9542 V -68.89243 M 318.80829,22.9542 V -68.89243 M 339.212,22.9542 v -91.84663"
       style="fill:none;stroke:#ff8000;stroke-width:0.7024;stroke-linecap:round;stroke-linejoin:round;stroke-miterlimit:10;stroke-dasharray:2.98883, 2.98883;stroke-dashoffset:0;stroke-opacity:0.75"
       transform="matrix(1.3333333,0,0,-1.3333333,60.838667,40.241333)" />
  </g>
</svg>
