<?xml version="1.0" encoding="UTF-8" standalone="no"?>
<!-- Created with Inkscape (http://www.inkscape.org/) -->

<svg
   version="1.1"
   id="svg1"
   width="304.74399"
   height="248.42532"
   viewBox="0 0 304.74399 248.42532"
   sodipodi:docname="main.pdf"
   xmlns:inkscape="http://www.inkscape.org/namespaces/inkscape"
   xmlns:sodipodi="http://sodipodi.sourceforge.net/DTD/sodipodi-0.dtd"
   xmlns="http://www.w3.org/2000/svg"
   xmlns:svg="http://www.w3.org/2000/svg">
  <defs
     id="defs1" />
  <sodipodi:namedview
     id="namedview1"
     pagecolor="#ffffff"
     bordercolor="#000000"
     borderopacity="0.25"
     inkscape:showpageshadow="2"
     inkscape:pageopacity="0.0"
     inkscape:pagecheckerboard="0"
     inkscape:deskcolor="#d1d1d1">
    <inkscape:page
       x="0"
       y="0"
       inkscape:label="1"
       id="page1"
       width="304.74399"
       height="248.42532"
       margin="0"
       bleed="0" />
  </sodipodi:namedview>
  <g
     id="g1"
     inkscape:groupmode="layer"
     inkscape:label="1">
    <path
       id="path1"
       d="M 0,0 H 228.558 V 186.319 H 0 Z"
       style="fill:#ffffff;fill-opacity:1;fill-rule:nonzero;stroke:none"
       transform="matrix(1.3333333,0,0,-1.3333333,0,248.42533)" />
    <path
       id="path2"
       d="M -54.44937,-29.14699 V 156.17412 H 173.11107 V -29.14699 Z"
       style="fill:#ffffff;fill-opacity:1;fill-rule:nonzero;stroke:none"
       transform="matrix(1.3333333,0,0,-1.3333333,73.265333,208.896)" />
    <path
       id="path3"
       d="M 0,0 V 150.44002"
       style="fill:none;stroke:#000000;stroke-width:0.3985;stroke-linecap:butt;stroke-linejoin:miter;stroke-miterlimit:10;stroke-dasharray:none;stroke-opacity:1"
       transform="matrix(1.3333333,0,0,-1.3333333,73.265333,208.896)" />
    <path
       id="path4"
       d="M 1.99252,0 -1.19551,1.59401 0,0 -1.19551,-1.59401"
       style="fill:#000000;fill-opacity:1;fill-rule:nonzero;stroke:none"
       transform="matrix(0,-1.3333333,-1.3333333,0,73.265333,8.3093067)" />
    <path
       id="path5"
       d="M 0,0 H 167.37697"
       style="fill:none;stroke:#000000;stroke-width:0.3985;stroke-linecap:butt;stroke-linejoin:miter;stroke-miterlimit:10;stroke-dasharray:none;stroke-opacity:1"
       transform="matrix(1.3333333,0,0,-1.3333333,73.265333,208.896)" />
    <path
       id="path6"
       d="M 1.99252,0 -1.19551,1.59401 0,0 -1.19551,-1.59401"
       style="fill:#000000;fill-opacity:1;fill-rule:nonzero;stroke:none"
       transform="matrix(1.3333333,0,0,-1.3333333,296.43463,208.896)" />
    <path
       id="path7"
       d="M 0,0 H -1.05855"
       style="fill:none;stroke:#000000;stroke-width:0.3985;stroke-linecap:butt;stroke-linejoin:miter;stroke-miterlimit:10;stroke-dasharray:none;stroke-opacity:1"
       transform="matrix(1.3333333,0,0,-1.3333333,73.265333,208.896)" />
    <path
       id="path8"
       d="M 1.3353906,-5.5317969 H 0.66742188 V -5.46875e-4 H 1.3353906 Z m 4.6699219,3.7851563 c 0,-1.0546875 -0.8320312,-1.9101563 -1.875,-1.9101563 -1.03125,0 -1.875,0.8671875 -1.875,1.9101563 0,1.00781248 0.84375,1.82812498 1.875,1.82812498 1.0429688,0 1.875,-0.8203125 1.875,-1.82812498 z m -1.875,1.27734373 c -0.6328125,0 -1.171875,-0.46875 -1.171875,-1.35937503 0,-0.9023437 0.5859375,-1.3007812 1.171875,-1.3007812 0.5976563,0 1.1835938,0.4101562 1.1835938,1.3007812 0,0.90234378 -0.5625,1.35937503 -1.1835938,1.35937503 z M 11.677188,-3.5396094 h -0.621094 c -0.07031,0.2226563 -0.515625,1.5703125 -0.773438,2.4023438 -0.05859,0.22265623 -0.140625,0.48046873 -0.164062,0.66796873 C 10.06,-0.79742187 9.7904688,-1.6528906 9.7670313,-1.7114844 l -0.5859375,-1.828125 h -0.609375 c -0.2226563,0.6914063 -0.8203125,2.4726563 -0.890625,3.05859378 H 7.669375 C 7.6107813,-1.0552344 7.0248438,-2.8130469 6.8959375,-3.1997656 6.825625,-3.3872656 6.825625,-3.3989844 6.7904688,-3.5396094 h -0.65625 L 7.294375,-5.46875e-4 h 0.6796875 c 0,-0.035156245 0.2226563,-0.656249995 0.4921875,-1.546875025 0.1289063,-0.3867187 0.3632813,-1.1601562 0.3984375,-1.5 l 0.011719,-0.011719 c 0.011719,0.1640625 0.070312,0.3398437 0.1171875,0.5390625 0.058594,0.1992187 0.1171875,0.4101562 0.1757812,0.5976562 L 9.77875,-5.46875e-4 h 0.738281 z m 0,0"
       style="fill:#000000;fill-opacity:1;fill-rule:nonzero;stroke:none"
       aria-label="low"
       transform="matrix(1.3333333,0,0,1.3333333,52.086667,212.58667)" />
    <path
       id="path9"
       d="m 1.05855,21.17117 h -2.1171"
       style="fill:none;stroke:#000000;stroke-width:0.3985;stroke-linecap:butt;stroke-linejoin:miter;stroke-miterlimit:10;stroke-dasharray:none;stroke-opacity:1"
       transform="matrix(1.3333333,0,0,-1.3333333,73.265333,208.896)" />
    <path
       id="path10"
       d="m 3.7022891,-2.3563047 c 0,-0.6210937 -0.1757813,-1.265625 -1.1601563,-1.265625 -0.6914062,0 -1.0546875,0.3984375 -1.2070312,0.5742188 v -2.484375 H 0.65541406 V -8.359375e-4 H 1.3585391 V -1.9344297 c 0,-0.5273437 0.2226562,-1.1601562 0.8320312,-1.1601562 0.8203125,0 0.8203125,0.5625 0.8203125,0.7851562 V -8.359375e-4 H 3.7022891 Z M 5.7794375,-5.4617734 H 4.9708437 v 0.796875 h 0.8085938 z m -0.070312,1.921875 H 5.0411562 V -8.359375e-4 H 5.709125 Z m 4.6904305,-0.082031 c -0.175782,0 -0.7031258,0.011719 -1.3125008,0.2460938 h -0.023437 c -0.28125,-0.1875 -0.5625,-0.2460938 -0.796875,-0.2460938 -0.7734375,0 -1.359375,0.6210938 -1.359375,1.3007813 0,0.28125 0.09375,0.5625 0.28125,0.7851562 -0.1171875,0.140625 -0.234375,0.3632813 -0.234375,0.66796876 0,0.3046875 0.1289062,0.50390625 0.1992187,0.609375 -0.4335937,0.24609375 -0.5273437,0.62109375 -0.5273437,0.80859375 0,0.60937499 0.84375,1.07812499 1.875,1.07812499 1.0429687,0 1.8749998,-0.46875 1.8749998,-1.07812499 0,-1.125 -1.3945311,-1.125 -1.7343748,-1.125 H 7.9034609 c -0.1289062,0 -0.4804687,0 -0.4804687,-0.41015625 0,-0.16406246 0.058594,-0.24609376 0.070312,-0.25781246 0.28125,0.1757812 0.5507812,0.234375 0.7734375,0.234375 0.7734375,0 1.359375,-0.6210938 1.359375,-1.3007813 0,-0.2578125 -0.070312,-0.4921875 -0.2109375,-0.703125 -0.035156,-0.046875 -0.035156,-0.058594 -0.035156,-0.058594 0,-0.035156 0.4804688,-0.035156 0.515625,-0.035156 0.011719,0 0.3164068,0 0.5976568,0.035156 z m -2.1328133,2.109375 c -0.421875,0 -0.7382813,-0.2695312 -0.7382813,-0.796875 0,-0.6210937 0.3984375,-0.8203125 0.7382813,-0.8203125 0.4335937,0 0.75,0.28125 0.75,0.8085938 0,0.6210937 -0.3984375,0.8085937 -0.75,0.8085937 z m 0.375,1.55859376 c 0.1875,0 1.125,0 1.125,0.515625 0,0.33984375 -0.5976563,0.57421874 -1.265625,0.57421874 -0.6679688,0 -1.265625,-0.23437499 -1.265625,-0.57421874 0,-0.046875 0,-0.515625 0.6445312,-0.515625 z M 14.331195,-2.3563047 c 0,-0.6210937 -0.175781,-1.265625 -1.160156,-1.265625 -0.691406,0 -1.054687,0.3984375 -1.207031,0.5742188 v -2.484375 H 11.28432 v 5.5312499625 h 0.703125 V -1.9344297 c 0,-0.5273437 0.222657,-1.1601562 0.832032,-1.1601562 0.820312,0 0.820312,0.5625 0.820312,0.7851562 v 2.3085937625 h 0.691406 z m 0,0"
       style="fill:#000000;fill-opacity:1;fill-rule:nonzero;stroke:none"
       aria-label="high"
       transform="matrix(1.3333333,0,0,1.3333333,47.825333,183.32533)" />
    <path
       id="path11"
       d="m 3.7023828,-2.3563437 c 0,-0.6210938 -0.1757812,-1.265625 -1.1601562,-1.265625 -0.6914063,0 -1.0546875,0.3984375 -1.2070313,0.5742187 V -5.532125 H 0.65550781 v 5.53125 H 1.3586328 v -1.9335937 c 0,-0.5273438 0.2226563,-1.1601563 0.8320313,-1.1601563 0.8203125,0 0.8203125,0.5625 0.8203125,0.7851563 V -8.75e-4 h 0.6914062 z m 3.5771484,-1.0546875 c -0.5390625,-0.2226563 -0.9375,-0.2460938 -1.2304687,-0.2460938 -0.1992188,0 -1.3945313,0 -1.3945313,1.0546875 0,0.375 0.1992188,0.5859375 0.3046875,0.6796875 0.28125,0.28125 0.6210938,0.3398438 1.0429688,0.421875 0.375,0.070312 0.796875,0.1523438 0.796875,0.5390625 0,0.50390625 -0.65625,0.50390625 -0.7734375,0.50390625 -0.5039063,0 -0.984375,-0.1875 -1.3007813,-0.41015625 l -0.1171875,0.59765625 c 0.28125,0.12890625 0.7617188,0.3515625 1.4179688,0.3515625 0.3632812,0 0.7148437,-0.05859375 1.0078125,-0.26953125 0.2929687,-0.22265625 0.3867187,-0.57421875 0.3867187,-0.84375 0,-0.1523437 -0.011719,-0.4570312 -0.3398437,-0.7617187 C 6.775625,-2.0516562 6.494375,-2.11025 6.1076562,-2.1805625 5.6389062,-2.2743125 5.275625,-2.344625 5.275625,-2.6961875 c 0,-0.4570312 0.5742187,-0.4570312 0.703125,-0.4570312 0.4453125,0 0.796875,0.1054687 1.1953125,0.3046875 z M 11.392812,-3.5399375 H 10.748281 C 10.10375,-2.0165 9.6584375,-0.98525 9.6232812,-0.50478125 9.6115625,-0.7274375 9.4709375,-1.125875 9.3303125,-1.500875 9.2014062,-1.8172812 9.0725,-2.1336875 8.931875,-2.4500937 L 8.4279687,-3.5399375 H 7.7365625 L 9.3889062,-8.75e-4 C 9.2951562,0.2335 9.1310937,0.59678125 9.0842187,0.70225 8.9201562,1.030375 8.8029687,1.1475625 8.5920312,1.1475625 c -0.035156,0 -0.328125,0 -0.6679687,-0.140625 l 0.046875,0.5507813 c 0.070312,0.023437 0.3632812,0.070312 0.609375,0.070312 0.3164062,0 0.609375,-0.1171875 0.9492187,-0.89062505 z m 3.832032,1.1835938 c 0,-0.6210938 -0.175782,-1.265625 -1.160157,-1.265625 -0.457031,0 -0.890625,0.1875 -1.242187,0.609375 V -3.5985312 H 12.177969 V -8.75e-4 h 0.703125 v -1.9335937 c 0,-0.5273438 0.222656,-1.1601563 0.832031,-1.1601563 0.820312,0 0.820312,0.5625 0.820312,0.7851563 V -8.75e-4 h 0.691407 z m 4.136718,1.4882812 c -0.398437,0.2578125 -0.832031,0.3984375 -1.324218,0.3984375 -0.738282,0 -1.160157,-0.5859375 -1.160157,-1.3125 0,-0.609375 0.316407,-1.3242187 1.183594,-1.3242187 0.539063,0 0.796875,0.1054687 1.207031,0.3632812 l 0.09375,-0.5742187 c -0.46875,-0.234375 -0.679687,-0.3398438 -1.300781,-0.3398438 -1.195312,0 -1.886719,0.9609375 -1.886719,1.8867188 0,0.9726562 0.773438,1.85156245 1.851563,1.85156245 0.5625,0 1.042969,-0.1640625 1.382812,-0.36328125 z m 0,0"
       style="fill:#000000;fill-opacity:1;fill-rule:nonzero;stroke:none"
       aria-label="hsync"
       transform="matrix(1.3333333,0,0,1.3333333,9.1533333,197.43867)" />
    <path
       id="path12"
       d="M 0,38.10812 H 167.37697"
       style="fill:none;stroke:#000000;stroke-width:0.3985;stroke-linecap:butt;stroke-linejoin:miter;stroke-miterlimit:10;stroke-dasharray:none;stroke-opacity:1"
       transform="matrix(1.3333333,0,0,-1.3333333,73.265333,208.896)" />
    <path
       id="path13"
       d="M 1.99252,0 -1.19551,1.59401 0,0 -1.19551,-1.59401"
       style="fill:#000000;fill-opacity:1;fill-rule:nonzero;stroke:none"
       transform="matrix(1.3333333,0,0,-1.3333333,296.43463,158.08517)" />
    <path
       id="path14"
       d="M 0,38.10812 H -1.05855"
       style="fill:none;stroke:#000000;stroke-width:0.3985;stroke-linecap:butt;stroke-linejoin:miter;stroke-miterlimit:10;stroke-dasharray:none;stroke-opacity:1"
       transform="matrix(1.3333333,0,0,-1.3333333,73.265333,208.896)" />
    <path
       id="path15"
       d="m 3.8896641,-2.5888359 c 0,-0.3867188 0,-1.3125 -0.375,-1.96875 -0.4101563,-0.7148438 -1.0195313,-0.8320313 -1.40625,-0.8320313 -0.3515625,0 -0.9726563,0.1054688 -1.37109379,0.796875 -0.38671875,0.6328125 -0.3984375,1.5 -0.3984375,2.0039063 0,0.5859375 0.0234375,1.3125 0.36328125,1.92187496 0.35156254,0.64453125 0.93750004,0.83203125 1.40625004,0.83203125 0.796875,0 1.2421875,-0.45703125 1.4765625,-0.9609375 0.28125,-0.56250001 0.3046875,-1.30078121 0.3046875,-1.79296871 z m -1.78125,2.22656246 c -0.328125,0 -0.7148438,-0.1875 -0.9140625,-0.76171876 -0.1640625,-0.4804687 -0.1640625,-0.984375 -0.1640625,-1.5703125 0,-0.7265625 0,-2.1679687 1.078125,-2.1679687 1.0898437,0 1.0898437,1.4414062 1.0898437,2.1679687 0,0.5273438 0,1.125 -0.1992187,1.640625 -0.2226563,0.57421876 -0.6210938,0.69140626 -0.890625,0.69140626 z M 12.576187,-5.5302422 h -0.703125 l -0.996093,2.4492188 c -0.05859,0.1289062 -0.84375,2.0507812 -0.9140628,2.44921871 H 9.9511875 C 9.8691562,-1.0302422 9.0722812,-2.9638359 9.037125,-3.0458672 l -1.0195313,-2.484375 h -0.84375 l 2.296875,5.53125001 h 0.8085933 z m 0,0"
       style="fill:#000000;fill-opacity:1;fill-rule:nonzero;stroke:none"
       aria-label="0V"
       transform="matrix(1.3333333,0,0,1.3333333,50.888,161.776)" />
    <path
       id="path16"
       d="m 1.05855,59.27931 h -2.1171"
       style="fill:none;stroke:#000000;stroke-width:0.3985;stroke-linecap:butt;stroke-linejoin:miter;stroke-miterlimit:10;stroke-dasharray:none;stroke-opacity:1"
       transform="matrix(1.3333333,0,0,-1.3333333,73.265333,208.896)" />
    <path
       id="path17"
       d="m 3.8907266,-2.5906875 c 0,-0.3867188 0,-1.3125 -0.375,-1.96875 -0.4101563,-0.7148438 -1.0195313,-0.8320313 -1.40625,-0.8320313 -0.3515625,0 -0.9726563,0.1054688 -1.37109379,0.796875 -0.38671875,0.6328125 -0.3984375,1.5 -0.3984375,2.0039063 0,0.5859375 0.0234375,1.3125 0.36328125,1.921875 0.35156254,0.64453125 0.93750004,0.83203125 1.40625004,0.83203125 0.796875,0 1.2421875,-0.45703125 1.4765625,-0.9609375 C 3.8672891,-1.3602188 3.8907266,-2.0985 3.8907266,-2.5906875 Z m -1.78125,2.2265625 c -0.328125,0 -0.7148438,-0.1875 -0.9140625,-0.7617188 -0.1640625,-0.4804687 -0.1640625,-0.984375 -0.1640625,-1.5703125 0,-0.7265625 0,-2.1679687 1.078125,-2.1679687 1.0898437,0 1.0898437,1.4414062 1.0898437,2.1679687 0,0.5273438 0,1.125 -0.1992187,1.640625 -0.2226563,0.5742188 -0.6210938,0.6914063 -0.890625,0.6914063 z M 5.7686562,-0.7156875 H 5.0420937 v 0.71484375 h 0.7265625 z m 2.7861329,-3.9023438 c 0.09375,0 0.1875,0 0.28125,0 H 9.8438516 C 8.6368203,-3.4344375 7.8633828,-1.770375 7.8633828,0.0811875 h 0.75 c 0,-2.3320313 1.125,-4.0078125 1.8398442,-4.7460938 v -0.5625 H 6.9376016 v 0.609375 z M 19.163187,-5.5320938 h -0.703125 l -0.996093,2.4492188 c -0.05859,0.1289062 -0.84375,2.0507812 -0.914063,2.44921875 h -0.01172 C 16.456156,-1.0320938 15.659281,-2.9656875 15.624125,-3.0477188 l -1.019531,-2.484375 h -0.84375 l 2.296875,5.53125005 h 0.808593 z m 0,0"
       style="fill:#000000;fill-opacity:1;fill-rule:nonzero;stroke:none"
       aria-label="0.7V"
       transform="matrix(1.3333333,0,0,1.3333333,42.105333,133.548)" />
    <path
       id="path18"
       d="m 1.3487734,-1.6981719 c 0,-0.8554687 0.7148438,-1.3242187 1.4179688,-1.3242187 v -0.5976563 c -0.6679688,0.011719 -1.1601563,0.3398438 -1.4765625,0.7617188 V -3.5966094 H 0.68080469 V 0.00104688 H 1.3487734 Z m 4.9658203,0.83203128 c -0.4453125,0.31640625 -0.9492187,0.421875 -1.2890625,0.421875 -0.6914062,0 -1.21875,-0.56249998 -1.2421875,-1.30078128 H 6.396625 c 0,-0.3632812 -0.035156,-0.9023437 -0.3515625,-1.359375 -0.28125,-0.3984375 -0.7617188,-0.5507812 -1.1484375,-0.5507812 -0.9726563,0 -1.7226563,0.8554687 -1.7226563,1.8632812 0,1.01953128 0.796875,1.87500003 1.8515625,1.87500003 0.4570313,0 0.9375,-0.140625 1.3359375,-0.38671875 z M 3.8419375,-2.2255156 c 0.1875,-0.6328125 0.65625,-0.9023438 1.0546875,-0.9023438 0.3515625,0 0.8671875,0.1640625 1.0195312,0.9023438 z M 10.345844,-5.5302031 H 9.677875 v 2.3320312 c -0.515625,-0.375 -1.03125,-0.421875 -1.265625,-0.421875 -0.8320313,0 -1.4765625,0.84375 -1.4765625,1.8515625 0,1.00781253 0.6328125,1.85156253 1.453125,1.85156253 0.4921875,0 0.9609375,-0.22265625 1.265625,-0.4921875 v 0.41015625 h 0.6914065 z m -0.6914065,4.54687498 c -0.1992188,0.328125 -0.5039063,0.5390625 -0.890625,0.5390625 -0.5507813,0 -1.125,-0.38671875 -1.125,-1.31249998 0,-0.9960938 0.6679687,-1.3359375 1.21875,-1.3359375 0.3164062,0 0.5859375,0.140625 0.796875,0.4101562 z m 0,0"
       style="fill:#000000;fill-opacity:1;fill-rule:nonzero;stroke:none"
       aria-label="red"
       transform="matrix(1.3333333,0,0,1.3333333,20.658667,147.66267)" />
    <path
       id="path19"
       d="M 0,76.21626 H 167.37697"
       style="fill:none;stroke:#000000;stroke-width:0.3985;stroke-linecap:butt;stroke-linejoin:miter;stroke-miterlimit:10;stroke-dasharray:none;stroke-opacity:1"
       transform="matrix(1.3333333,0,0,-1.3333333,73.265333,208.896)" />
    <path
       id="path20"
       d="M 1.99252,0 -1.19551,1.59401 0,0 -1.19551,-1.59401"
       style="fill:#000000;fill-opacity:1;fill-rule:nonzero;stroke:none"
       transform="matrix(1.3333333,0,0,-1.3333333,296.43463,107.27432)" />
    <path
       id="path21"
       d="M 0,76.21626 H -1.05855"
       style="fill:none;stroke:#000000;stroke-width:0.3985;stroke-linecap:butt;stroke-linejoin:miter;stroke-miterlimit:10;stroke-dasharray:none;stroke-opacity:1"
       transform="matrix(1.3333333,0,0,-1.3333333,73.265333,208.896)" />
    <path
       id="path22"
       d="m 3.8896641,-2.5902109 c 0,-0.3867188 0,-1.3125 -0.375,-1.96875 -0.4101563,-0.7148438 -1.0195313,-0.8320313 -1.40625,-0.8320313 -0.3515625,0 -0.9726563,0.1054688 -1.37109379,0.796875 -0.38671875,0.6328125 -0.3984375,1.5 -0.3984375,2.0039063 0,0.5859375 0.0234375,1.3125 0.36328125,1.92187496 0.35156254,0.64453125 0.93750004,0.83203125 1.40625004,0.83203125 0.796875,0 1.2421875,-0.45703125 1.4765625,-0.9609375 0.28125,-0.56250001 0.3046875,-1.30078121 0.3046875,-1.79296871 z m -1.78125,2.22656246 c -0.328125,0 -0.7148438,-0.1875 -0.9140625,-0.76171876 -0.1640625,-0.4804687 -0.1640625,-0.984375 -0.1640625,-1.5703125 0,-0.7265625 0,-2.1679687 1.078125,-2.1679687 1.0898437,0 1.0898437,1.4414062 1.0898437,2.1679687 0,0.5273438 0,1.125 -0.1992187,1.640625 -0.2226563,0.57421876 -0.6210938,0.69140626 -0.890625,0.69140626 z M 12.576187,-5.5316172 h -0.703125 l -0.996093,2.4492188 c -0.05859,0.1289062 -0.84375,2.0507812 -0.9140628,2.44921871 H 9.9511875 C 9.8691562,-1.0316172 9.0722812,-2.9652109 9.037125,-3.0472422 l -1.0195313,-2.484375 h -0.84375 l 2.296875,5.5312500125 h 0.8085933 z m 0,0"
       style="fill:#000000;fill-opacity:1;fill-rule:nonzero;stroke:none"
       aria-label="0V"
       transform="matrix(1.3333333,0,0,1.3333333,50.888,110.96533)" />
    <path
       id="path23"
       d="m 1.05855,97.38745 h -2.1171"
       style="fill:none;stroke:#000000;stroke-width:0.3985;stroke-linecap:butt;stroke-linejoin:miter;stroke-miterlimit:10;stroke-dasharray:none;stroke-opacity:1"
       transform="matrix(1.3333333,0,0,-1.3333333,73.265333,208.896)" />
    <path
       id="path24"
       d="m 3.8907266,-2.5901328 c 0,-0.3867188 0,-1.3125 -0.375,-1.96875 -0.4101563,-0.7148438 -1.0195313,-0.8320313 -1.40625,-0.8320313 -0.3515625,0 -0.9726563,0.1054688 -1.37109379,0.796875 -0.38671875,0.6328125 -0.3984375,1.5 -0.3984375,2.0039063 0,0.5859375 0.0234375,1.3125 0.36328125,1.92187499 0.35156254,0.64453125 0.93750004,0.83203125 1.40625004,0.83203125 0.796875,0 1.2421875,-0.45703125 1.4765625,-0.9609375 0.28125,-0.56250004 0.3046875,-1.30078124 0.3046875,-1.79296874 z m -1.78125,2.22656249 c -0.328125,0 -0.7148438,-0.1875 -0.9140625,-0.76171879 -0.1640625,-0.4804687 -0.1640625,-0.984375 -0.1640625,-1.5703125 0,-0.7265625 0,-2.1679687 1.078125,-2.1679687 1.0898437,0 1.0898437,1.4414062 1.0898437,2.1679687 0,0.5273438 0,1.125 -0.1992187,1.640625 -0.2226563,0.57421879 -0.6210938,0.69140629 -0.890625,0.69140629 z m 3.6591796,-0.3515625 H 5.0420937 V -2.890625e-4 H 5.7686562 Z M 8.5547891,-4.6174766 c 0.09375,0 0.1875,0 0.28125,0 H 9.8438516 C 8.6368203,-3.4338828 7.8633828,-1.7698203 7.8633828,0.08174219 h 0.75 c 0,-2.33203129 1.125,-4.00781249 1.8398442,-4.74609379 v -0.5625 H 6.9376016 v 0.609375 z M 19.163187,-5.5315391 h -0.703125 l -0.996093,2.4492188 c -0.05859,0.1289062 -0.84375,2.0507812 -0.914063,2.44921874 h -0.01172 C 16.456156,-1.0315391 15.659281,-2.9651328 15.624125,-3.0471641 l -1.019531,-2.484375 h -0.84375 l 2.296875,5.5312500375 h 0.808593 z m 0,0"
       style="fill:#000000;fill-opacity:1;fill-rule:nonzero;stroke:none"
       aria-label="0.7V"
       transform="matrix(1.3333333,0,0,1.3333333,42.105333,82.738667)" />
    <path
       id="path25"
       d="m 4.0088828,-3.6199531 c -0.1757812,0 -0.703125,0.011719 -1.3125,0.2460937 h -0.023437 c -0.28125,-0.1875 -0.5625,-0.2460937 -0.796875,-0.2460937 -0.7734375,0 -1.35937499,0.6210937 -1.35937499,1.3007812 0,0.28125 0.09375,0.5625 0.28125,0.7851563 -0.1171875,0.140625 -0.234375,0.3632812 -0.234375,0.66796873 0,0.3046875 0.12890625,0.50390625 0.19921875,0.609375 -0.43359375,0.24609375 -0.52734375,0.62109375 -0.52734375,0.80859375 0,0.60937502 0.84374999,1.07812502 1.87499999,1.07812502 1.0429688,0 1.875,-0.46875 1.875,-1.07812502 0,-1.125 -1.3945312,-1.125 -1.734375,-1.125 H 1.5127891 c -0.1289063,0 -0.4804688,0 -0.4804688,-0.41015625 0,-0.16406253 0.058594,-0.24609373 0.070312,-0.25781253 0.28125,0.1757813 0.5507813,0.234375 0.7734375,0.234375 0.7734375,0 1.359375,-0.6210937 1.359375,-1.3007812 0,-0.2578125 -0.070312,-0.4921875 -0.2109375,-0.703125 -0.035156,-0.046875 -0.035156,-0.058594 -0.035156,-0.058594 0,-0.035156 0.4804687,-0.035156 0.515625,-0.035156 0.011719,0 0.3164062,0 0.5976562,0.035156 z m -2.1328125,2.109375 c -0.421875,0 -0.7382812,-0.2695313 -0.7382812,-0.796875 0,-0.6210938 0.3984375,-0.8203125 0.7382812,-0.8203125 0.4335938,0 0.75,0.28125 0.75,0.8085937 0,0.6210938 -0.3984375,0.8085938 -0.75,0.8085938 z m 0.375,1.55859373 c 0.1875,0 1.125,0 1.125,0.515625 0,0.33984375 -0.5976562,0.57421877 -1.265625,0.57421877 -0.6679687,0 -1.26562499,-0.23437502 -1.26562499,-0.57421877 0,-0.046875 0,-0.515625 0.64453129,-0.515625 z M 5.582125,-1.6980781 c 0,-0.8554688 0.7148437,-1.3242188 1.4179687,-1.3242188 V -3.6199531 C 6.332125,-3.6082344 5.8399375,-3.2801094 5.5235312,-2.8582344 V -3.5965156 H 4.9141562 V 0.00114063 H 5.582125 Z m 4.96582,0.83203123 c -0.445312,0.31640625 -0.9492184,0.421875 -1.2890622,0.421875 -0.6914062,0 -1.21875,-0.56250003 -1.2421875,-1.30078123 h 2.6132817 c 0,-0.3632813 -0.03516,-0.9023438 -0.351563,-1.359375 -0.2812499,-0.3984375 -0.7617187,-0.5507813 -1.1484374,-0.5507813 -0.9726563,0 -1.7226563,0.8554688 -1.7226563,1.8632813 0,1.01953123 0.796875,1.87499998 1.8515625,1.87499998 0.4570313,0 0.9375002,-0.140625 1.3359372,-0.38671875 z M 8.0752891,-2.2254219 c 0.1875,-0.6328125 0.65625,-0.9023437 1.0546875,-0.9023437 0.3515625,0 0.8671875,0.1640625 1.0195314,0.9023437 z m 6.2373049,1.35937503 c -0.445313,0.31640625 -0.949219,0.421875 -1.289063,0.421875 -0.691406,0 -1.21875,-0.56250003 -1.242187,-1.30078123 h 2.613281 c 0,-0.3632813 -0.03516,-0.9023438 -0.351563,-1.359375 -0.28125,-0.3984375 -0.761718,-0.5507813 -1.148437,-0.5507813 -0.972656,0 -1.722656,0.8554688 -1.722656,1.8632813 0,1.01953123 0.796875,1.87499998 1.851562,1.87499998 0.457031,0 0.9375,-0.140625 1.335938,-0.38671875 z M 11.839937,-2.2254219 c 0.1875,-0.6328125 0.65625,-0.9023437 1.054688,-0.9023437 0.351562,0 0.867187,0.1640625 1.019531,0.9023437 z m 6.515625,-0.1289062 c 0,-0.6210938 -0.175781,-1.265625 -1.160156,-1.265625 -0.457031,0 -0.890625,0.1875 -1.242187,0.609375 v -0.5859375 h -0.644532 v 3.59765623 h 0.703125 V -1.9324531 c 0,-0.5273438 0.222657,-1.1601563 0.832032,-1.1601563 0.820312,0 0.820312,0.5625 0.820312,0.7851563 v 2.30859373 h 0.691406 z m 0,0"
       style="fill:#000000;fill-opacity:1;fill-rule:nonzero;stroke:none"
       aria-label="green"
       transform="matrix(1.3333333,0,0,1.3333333,9.9946667,94.490667)" />
    <path
       id="path26"
       d="M 0,114.3244 H 167.37697"
       style="fill:none;stroke:#000000;stroke-width:0.3985;stroke-linecap:butt;stroke-linejoin:miter;stroke-miterlimit:10;stroke-dasharray:none;stroke-opacity:1"
       transform="matrix(1.3333333,0,0,-1.3333333,73.265333,208.896)" />
    <path
       id="path27"
       d="M 1.99252,0 -1.19551,1.59401 0,0 -1.19551,-1.59401"
       style="fill:#000000;fill-opacity:1;fill-rule:nonzero;stroke:none"
       transform="matrix(1.3333333,0,0,-1.3333333,296.43463,56.463467)" />
    <path
       id="path28"
       d="M 0,114.3244 H -1.05855"
       style="fill:none;stroke:#000000;stroke-width:0.3985;stroke-linecap:butt;stroke-linejoin:miter;stroke-miterlimit:10;stroke-dasharray:none;stroke-opacity:1"
       transform="matrix(1.3333333,0,0,-1.3333333,73.265333,208.896)" />
    <path
       id="path29"
       d="m 3.8896641,-2.5896562 c 0,-0.3867188 0,-1.3125 -0.375,-1.96875 -0.4101563,-0.7148438 -1.0195313,-0.8320313 -1.40625,-0.8320313 -0.3515625,0 -0.9726563,0.1054688 -1.37109379,0.796875 -0.38671875,0.6328125 -0.3984375,1.5 -0.3984375,2.0039063 0,0.5859375 0.0234375,1.3125 0.36328125,1.92187495 C 1.0537266,-0.02325 1.6396641,0.16425 2.1084141,0.16425 c 0.796875,0 1.2421875,-0.45703125 1.4765625,-0.9609375 0.28125,-0.5625 0.3046875,-1.3007812 0.3046875,-1.7929687 z m -1.78125,2.22656245 c -0.328125,0 -0.7148438,-0.1875 -0.9140625,-0.76171875 -0.1640625,-0.4804687 -0.1640625,-0.984375 -0.1640625,-1.5703125 0,-0.7265625 0,-2.1679687 1.078125,-2.1679687 1.0898437,0 1.0898437,1.4414062 1.0898437,2.1679687 0,0.5273438 0,1.125 -0.1992187,1.640625 -0.2226563,0.57421875 -0.6210938,0.69140625 -0.890625,0.69140625 z M 12.576187,-5.5310625 h -0.703125 l -0.996093,2.4492188 c -0.05859,0.1289062 -0.84375,2.0507812 -0.9140628,2.4492187 H 9.9511875 C 9.8691562,-1.0310625 9.0722812,-2.9646562 9.037125,-3.0466875 l -1.0195313,-2.484375 h -0.84375 l 2.296875,5.53125 h 0.8085933 z m 0,0"
       style="fill:#000000;fill-opacity:1;fill-rule:nonzero;stroke:none"
       aria-label="0V"
       transform="matrix(1.3333333,0,0,1.3333333,50.888,60.156)" />
    <path
       id="path30"
       d="m 1.05855,135.49559 h -2.1171"
       style="fill:none;stroke:#000000;stroke-width:0.3985;stroke-linecap:butt;stroke-linejoin:miter;stroke-miterlimit:10;stroke-dasharray:none;stroke-opacity:1"
       transform="matrix(1.3333333,0,0,-1.3333333,73.265333,208.896)" />
    <path
       id="path31"
       d="m 3.8907266,-2.5885781 c 0,-0.3867188 0,-1.3125 -0.375,-1.96875 -0.4101563,-0.7148438 -1.0195313,-0.8320313 -1.40625,-0.8320313 -0.3515625,0 -0.9726563,0.1054688 -1.37109379,0.796875 -0.38671875,0.6328125 -0.3984375,1.5 -0.3984375,2.0039063 0,0.5859375 0.0234375,1.3125 0.36328125,1.92187498 0.35156254,0.64453125 0.93750004,0.83203125 1.40625004,0.83203125 0.796875,0 1.2421875,-0.45703125 1.4765625,-0.9609375 0.28125,-0.56250003 0.3046875,-1.30078123 0.3046875,-1.79296873 z m -1.78125,2.22656248 c -0.328125,0 -0.7148438,-0.1875 -0.9140625,-0.76171878 -0.1640625,-0.4804687 -0.1640625,-0.984375 -0.1640625,-1.5703125 0,-0.7265625 0,-2.1679687 1.078125,-2.1679687 1.0898437,0 1.0898437,1.4414062 1.0898437,2.1679687 0,0.5273438 0,1.125 -0.1992187,1.640625 -0.2226563,0.57421878 -0.6210938,0.69140628 -0.890625,0.69140628 z m 3.6591796,-0.3515625 H 5.0420937 V 0.00126563 H 5.7686562 Z M 8.5547891,-4.6159219 c 0.09375,0 0.1875,0 0.28125,0 H 9.8438516 C 8.6368203,-3.4323281 7.8633828,-1.7682656 7.8633828,0.08329688 h 0.75 c 0,-2.33203128 1.125,-4.00781248 1.8398442,-4.74609378 v -0.5625 H 6.9376016 v 0.609375 z M 19.163187,-5.5299844 h -0.703125 l -0.996093,2.4492188 c -0.05859,0.1289062 -0.84375,2.0507812 -0.914063,2.44921873 h -0.01172 C 16.456156,-1.0299844 15.659281,-2.9635781 15.624125,-3.0456094 l -1.019531,-2.484375 h -0.84375 l 2.296875,5.53125003 h 0.808593 z m 0,0"
       style="fill:#000000;fill-opacity:1;fill-rule:nonzero;stroke:none"
       aria-label="0.7V"
       transform="matrix(1.3333333,0,0,1.3333333,42.105333,31.928)" />
    <path
       id="path32"
       d="M 1.3487969,-5.5300234 H 0.68082812 V 0.00122656 H 1.3722344 v -0.375 c 0.1757812,0.15234375 0.5625,0.45703125 1.1367187,0.45703125 0.8671875,0 1.5703125,-0.8203125 1.5703125,-1.86328121 0,-0.9609375 -0.5507812,-1.8398438 -1.3476562,-1.8398438 -0.5039063,0 -0.984375,0.1640625 -1.3828125,0.4570313 z m 0.023437,3.0234375 c 0,-0.1289063 0,-0.2226563 0.28125,-0.4101563 0.1171875,-0.070312 0.328125,-0.1757812 0.5976562,-0.1757812 0.5390625,0 1.1367188,0.3632812 1.1367188,1.3125 0,0.97265621 -0.65625,1.33593746 -1.21875,1.33593746 -0.2929688,0 -0.5742188,-0.140625 -0.796875,-0.4921875 z m 4.335938,-3.0234375 H 5.0402031 v 5.53124996 h 0.6679688 z m 4.3886721,1.9921875 H 9.4054375 v 2.3085937 c 0,0.64453126 -0.5390625,0.84375001 -1.0078125,0.84375001 -0.5859375,0 -0.6445313,-0.1640625 -0.6445313,-0.52734375 V -3.5378359 h -0.703125 v 2.67187496 c 0,0.703125 0.3164063,0.94921875 0.8789063,0.94921875 0.3164062,0 1.0195312,-0.0703125 1.5,-0.4453125 v 0.36328125 h 0.667969 z m 4.089843,2.67187496 c -0.445312,0.31640625 -0.949218,0.421875 -1.289062,0.421875 -0.691406,0 -1.21875,-0.56249996 -1.242188,-1.30078126 h 2.613282 c 0,-0.3632812 -0.03516,-0.9023437 -0.351563,-1.359375 -0.28125,-0.3984375 -0.761719,-0.5507812 -1.148437,-0.5507812 -0.972657,0 -1.722657,0.8554687 -1.722657,1.8632812 0,1.01953126 0.796875,1.87500001 1.851563,1.87500001 0.457031,0 0.9375,-0.140625 1.335937,-0.38671875 z M 11.714031,-2.2253359 c 0.1875,-0.6328125 0.65625,-0.9023438 1.054688,-0.9023438 0.351562,0 0.867187,0.1640625 1.019531,0.9023438 z m 0,0"
       style="fill:#000000;fill-opacity:1;fill-rule:nonzero;stroke:none"
       aria-label="blue"
       transform="matrix(1.3333333,0,0,1.3333333,15.990667,46.041333)" />
    <path
       id="path33"
       d="m 0,114.3244 c 5.83792,1.2409 7.35541,15.6677 10.77872,10.77872 9.27925,-13.25214 33.195,3.88345 40.03212,-10.77872 H 80.4505"
       style="fill:none;stroke:#0000ff;stroke-width:1.19553;stroke-linecap:butt;stroke-linejoin:miter;stroke-miterlimit:10;stroke-dasharray:none;stroke-opacity:1"
       transform="matrix(1.3333333,0,0,-1.3333333,73.265333,208.896)" />
    <path
       id="path34"
       d="m 80.4505,114.3244 c 0,9.9467 17.32001,18.88477 23.02521,10.73691 6.68307,-9.54443 27.78564,0.91467 27.78564,-10.73691 h 29.63967"
       style="fill:none;stroke:#0000ff;stroke-width:1.19553;stroke-linecap:butt;stroke-linejoin:miter;stroke-miterlimit:10;stroke-dasharray:none;stroke-opacity:1"
       transform="matrix(1.3333333,0,0,-1.3333333,73.265333,208.896)" />
    <path
       id="path35"
       d="m 0,76.21626 c 1.54463,5.7647 10.3921,11.33095 13.81525,6.4422 8.40591,-12.00486 30.80195,6.84 36.99559,-6.4422 H 80.4505"
       style="fill:none;stroke:#00ff00;stroke-width:1.19553;stroke-linecap:butt;stroke-linejoin:miter;stroke-miterlimit:10;stroke-dasharray:none;stroke-opacity:1"
       transform="matrix(1.3333333,0,0,-1.3333333,73.265333,208.896)" />
    <path
       id="path36"
       d="m 80.4505,76.21626 c 9.72936,2.06809 17.32001,18.88477 23.02521,10.73691 6.68307,-9.54443 27.78564,0.91469 27.78564,-10.73691 h 29.63967"
       style="fill:none;stroke:#00ff00;stroke-width:1.19553;stroke-linecap:butt;stroke-linejoin:miter;stroke-miterlimit:10;stroke-dasharray:none;stroke-opacity:1"
       transform="matrix(1.3333333,0,0,-1.3333333,73.265333,208.896)" />
    <path
       id="path37"
       d="m 0,38.10812 c 2.57439,9.60779 15.99182,3.70353 23.02519,10.73691 8.23892,8.23891 16.13407,-10.73691 27.78565,-10.73691 H 80.4505"
       style="fill:none;stroke:#ff0000;stroke-width:1.19553;stroke-linecap:butt;stroke-linejoin:miter;stroke-miterlimit:10;stroke-dasharray:none;stroke-opacity:1"
       transform="matrix(1.3333333,0,0,-1.3333333,73.265333,208.896)" />
    <path
       id="path38"
       d="m 80.4505,38.10812 c 0,6.96306 8.58142,18.27907 12.57526,12.57528 9.00813,-12.86495 38.23559,3.12991 38.23559,-12.57528 h 29.63967"
       style="fill:none;stroke:#ff0000;stroke-width:1.19553;stroke-linecap:butt;stroke-linejoin:miter;stroke-miterlimit:10;stroke-dasharray:none;stroke-opacity:1"
       transform="matrix(1.3333333,0,0,-1.3333333,73.265333,208.896)" />
    <path
       id="path39"
       d="M 0,21.17117 H 61.39644 V 0 h 8.46847 V 21.17117 H 80.4505 141.84695 V 0 h 8.46846 v 21.17117 h 10.58561"
       style="fill:none;stroke:#000000;stroke-width:1.05855;stroke-linecap:butt;stroke-linejoin:miter;stroke-miterlimit:10;stroke-dasharray:none;stroke-opacity:1"
       transform="matrix(1.3333333,0,0,-1.3333333,73.265333,208.896)" />
    <path
       id="path40"
       d="M 0,0 V -25.40541"
       style="fill:none;stroke:#808080;stroke-width:0.3985;stroke-linecap:butt;stroke-linejoin:miter;stroke-miterlimit:10;stroke-dasharray:2.98883, 2.98883;stroke-dashoffset:0;stroke-opacity:1"
       transform="matrix(1.3333333,0,0,-1.3333333,73.265333,208.896)" />
    <path
       id="path41"
       d="M 50.81084,152.43254 V -25.40541"
       style="fill:none;stroke:#808080;stroke-width:0.3985;stroke-linecap:butt;stroke-linejoin:miter;stroke-miterlimit:10;stroke-dasharray:2.98883, 2.98883;stroke-dashoffset:0;stroke-opacity:1"
       transform="matrix(1.3333333,0,0,-1.3333333,73.265333,208.896)" />
    <path
       id="path42"
       d="M 80.4505,152.43254 V -25.40541"
       style="fill:none;stroke:#808080;stroke-width:0.3985;stroke-linecap:butt;stroke-linejoin:miter;stroke-miterlimit:10;stroke-dasharray:2.98883, 2.98883;stroke-dashoffset:0;stroke-opacity:1"
       transform="matrix(1.3333333,0,0,-1.3333333,73.265333,208.896)" />
    <path
       id="path43"
       d="M 131.26135,152.43254 V -25.40541"
       style="fill:none;stroke:#808080;stroke-width:0.3985;stroke-linecap:butt;stroke-linejoin:miter;stroke-miterlimit:10;stroke-dasharray:2.98883, 2.98883;stroke-dashoffset:0;stroke-opacity:1"
       transform="matrix(1.3333333,0,0,-1.3333333,73.265333,208.896)" />
    <path
       id="path44"
       d="M 1.99252,-21.17117 H 48.81831"
       style="fill:none;stroke:#808080;stroke-width:0.3985;stroke-linecap:butt;stroke-linejoin:miter;stroke-miterlimit:10;stroke-dasharray:none;stroke-opacity:1"
       transform="matrix(1.3333333,0,0,-1.3333333,73.265333,208.896)" />
    <path
       id="path45"
       d="M 1.99252,0 -1.19551,1.59401 0,0 -1.19551,-1.59401"
       style="fill:#808080;fill-opacity:1;fill-rule:nonzero;stroke:none"
       transform="matrix(-1.3333333,0,0,1.3333333,75.922027,237.12423)" />
    <path
       id="path46"
       d="M 1.99252,0 -1.19551,1.59401 0,0 -1.19551,-1.59401"
       style="fill:#808080;fill-opacity:1;fill-rule:nonzero;stroke:none"
       transform="matrix(1.3333333,0,0,-1.3333333,138.35641,237.12423)" />
    <path
       id="path47"
       d="M 3.1994688,-5.5300078 H 2.4260313 L 0.234625,0.00124219 h 0.65625 L 1.5119688,-1.5807891 H 3.93775 L 4.5588438,0.00124219 H 5.390875 Z m -0.46875,0.609375 1.0078125,2.8710937 H 1.7111875 Z m 0,0"
       style="fill:#808080;fill-opacity:1;fill-rule:nonzero;stroke:none"
       aria-label="A"
       transform="matrix(1.3333333,0,0,1.3333333,103.37467,233.096)" />
    <path
       id="path48"
       d="m 82.44302,-21.17117 h 46.82581"
       style="fill:none;stroke:#808080;stroke-width:0.3985;stroke-linecap:butt;stroke-linejoin:miter;stroke-miterlimit:10;stroke-dasharray:none;stroke-opacity:1"
       transform="matrix(1.3333333,0,0,-1.3333333,73.265333,208.896)" />
    <path
       id="path49"
       d="M 1.99252,0 -1.19551,1.59401 0,0 -1.19551,-1.59401"
       style="fill:#808080;fill-opacity:1;fill-rule:nonzero;stroke:none"
       transform="matrix(-1.3333333,0,0,1.3333333,183.18936,237.12423)" />
    <path
       id="path50"
       d="M 1.99252,0 -1.19551,1.59401 0,0 -1.19551,-1.59401"
       style="fill:#808080;fill-opacity:1;fill-rule:nonzero;stroke:none"
       transform="matrix(1.3333333,0,0,-1.3333333,245.62377,237.12423)" />
    <path
       id="path51"
       d="M 3.1986875,-5.5300078 H 2.42525 L 0.23384375,0.00124219 h 0.65625 L 1.5111875,-1.5807891 h 2.4257813 l 0.6210937,1.58203129 h 0.8320313 z m -0.46875,0.609375 1.0078125,2.8710937 H 1.7104063 Z m 0,0"
       style="fill:#808080;fill-opacity:1;fill-rule:nonzero;stroke:none"
       aria-label="A"
       transform="matrix(1.3333333,0,0,1.3333333,210.64133,233.096)" />
  </g>
</svg>
