<?xml version="1.0" encoding="UTF-8" standalone="no"?>
<!-- Created with Inkscape (http://www.inkscape.org/) -->

<svg
   version="1.1"
   id="svg1"
   width="381.77734"
   height="336.02133"
   viewBox="0 0 381.77734 336.02133"
   sodipodi:docname="main.pdf"
   xmlns:inkscape="http://www.inkscape.org/namespaces/inkscape"
   xmlns:sodipodi="http://sodipodi.sourceforge.net/DTD/sodipodi-0.dtd"
   xmlns="http://www.w3.org/2000/svg"
   xmlns:svg="http://www.w3.org/2000/svg">
  <defs
     id="defs1" />
  <sodipodi:namedview
     id="namedview1"
     pagecolor="#ffffff"
     bordercolor="#000000"
     borderopacity="0.25"
     inkscape:showpageshadow="2"
     inkscape:pageopacity="0.0"
     inkscape:pagecheckerboard="0"
     inkscape:deskcolor="#d1d1d1">
    <inkscape:page
       x="0"
       y="0"
       inkscape:label="1"
       id="page1"
       width="381.77734"
       height="336.02133"
       margin="0"
       bleed="0" />
  </sodipodi:namedview>
  <g
     id="g1"
     inkscape:groupmode="layer"
     inkscape:label="1">
    <path
       id="path1"
       d="M 0,0 H 286.333 V 252.016 H 0 Z"
       style="fill:#ffffff;fill-opacity:1;fill-rule:nonzero;stroke:none"
       transform="matrix(1.3333333,0,0,-1.3333333,0,336.02133)" />
    <path
       id="path2"
       d="M -21.17117,0 V -160.90102"
       style="fill:none;stroke:#808080;stroke-width:0.3985;stroke-linecap:butt;stroke-linejoin:miter;stroke-miterlimit:10;stroke-dasharray:none;stroke-opacity:1"
       transform="matrix(1.3333333,0,0,-1.3333333,88.898667,88.308)" />
    <path
       id="path3"
       d="M 1.3368359,-5.5297891 H 0.66886719 V 0.00146094 H 1.3368359 Z m 4.6669922,3.7851563 c 0,-1.0546875 -0.8320312,-1.9101563 -1.875,-1.9101563 -1.03125,0 -1.875,0.8671875 -1.875,1.9101563 0,1.00781249 0.84375,1.82812499 1.875,1.82812499 1.0429688,0 1.875,-0.8203125 1.875,-1.82812499 z m -1.875,1.27734374 c -0.6328125,0 -1.171875,-0.46875 -1.171875,-1.35937504 0,-0.9023437 0.5859375,-1.3007812 1.171875,-1.3007812 0.5976563,0 1.1835938,0.4101562 1.1835938,1.3007812 0,0.90234379 -0.5625,1.35937504 -1.1835938,1.35937504 z M 11.675703,-3.5376016 h -0.621094 c -0.07031,0.2226563 -0.515625,1.5703125 -0.773437,2.4023438 -0.05859,0.22265624 -0.140625,0.48046874 -0.164063,0.66796874 -0.05859,-0.328125 -0.3281246,-1.18359374 -0.3515621,-1.24218754 l -0.5859375,-1.828125 h -0.609375 c -0.2226563,0.6914063 -0.8203125,2.4726563 -0.890625,3.05859379 H 7.6678906 C 7.6092969,-1.0532266 7.0233594,-2.8110391 6.8944531,-3.1977578 c -0.070312,-0.1875 -0.070312,-0.1992188 -0.1054687,-0.3398438 h -0.65625 l 1.1601562,3.53906254 h 0.6796875 c 0,-0.03515625 0.2226563,-0.65625 0.4921875,-1.54687504 0.1289063,-0.3867187 0.3632813,-1.1601562 0.3984375,-1.5 l 0.011719,-0.011719 c 0.011719,0.1640625 0.070312,0.3398437 0.1171875,0.5390625 0.058594,0.1992187 0.1171875,0.4101562 0.1757812,0.5976562 l 0.609375,1.92187504 h 0.7382812 z m 0,0"
       style="fill:#808080;fill-opacity:1;fill-rule:nonzero;stroke:none"
       aria-label="low"
       transform="matrix(0,-1.3333333,1.3333333,0,64.361333,322.60667)" />
    <path
       id="path4"
       d="M 0,21.17117 H 194.77492"
       style="fill:none;stroke:#808080;stroke-width:0.3985;stroke-linecap:butt;stroke-linejoin:miter;stroke-miterlimit:10;stroke-dasharray:none;stroke-opacity:1"
       transform="matrix(1.3333333,0,0,-1.3333333,88.898667,88.308)" />
    <path
       id="path5"
       d="M 1.3366875,-5.5321016 H 0.66871875 V -8.515625e-4 H 1.3366875 Z m 4.6669922,3.7851563 c 0,-1.0546875 -0.8320313,-1.9101563 -1.875,-1.9101563 -1.03125,0 -1.875,0.8671875 -1.875,1.9101563 0,1.00781249 0.84375,1.82812499 1.875,1.82812499 1.0429687,0 1.875,-0.8203125 1.875,-1.82812499 z m -1.875,1.27734374 c -0.6328125,0 -1.171875,-0.46875 -1.171875,-1.35937504 0,-0.9023437 0.5859375,-1.3007812 1.171875,-1.3007812 0.5976562,0 1.1835937,0.4101562 1.1835937,1.3007812 0,0.90234379 -0.5625,1.35937504 -1.1835937,1.35937504 z M 11.675555,-3.5399141 h -0.621094 c -0.07031,0.2226563 -0.515625,1.5703125 -0.773438,2.4023438 -0.05859,0.22265624 -0.140625,0.48046874 -0.164062,0.66796874 -0.05859,-0.328125 -0.3281251,-1.18359374 -0.3515626,-1.24218754 l -0.5859375,-1.828125 h -0.609375 c -0.2226562,0.6914063 -0.8203125,2.4726563 -0.890625,3.05859379 H 7.6677422 C 7.6091484,-1.0555391 7.0232109,-2.8133516 6.8943047,-3.2000703 c -0.070312,-0.1875 -0.070312,-0.1992188 -0.1054688,-0.3398438 h -0.65625 l 1.1601563,3.5390625375 h 0.6796875 c 0,-0.0351562475 0.2226562,-0.6562499975 0.4921875,-1.5468750375 0.1289062,-0.3867187 0.3632812,-1.1601562 0.3984375,-1.5 l 0.011719,-0.011719 c 0.011719,0.1640625 0.070312,0.3398437 0.1171875,0.5390625 0.058594,0.1992187 0.1171875,0.4101562 0.1757813,0.5976562 l 0.609375,1.9218750375 h 0.7382805 z m 0,0"
       style="fill:#808080;fill-opacity:1;fill-rule:nonzero;stroke:none"
       aria-label="low"
       transform="matrix(1.3333333,0,0,1.3333333,352.624,63.770667)" />
    <path
       id="path6"
       d="M -66.17517,-185.28732 V 65.73232 h 285.33639 v -251.01964 z"
       style="fill:#ffffff;fill-opacity:1;fill-rule:nonzero;stroke:none"
       transform="matrix(1.3333333,0,0,-1.3333333,88.898667,88.308)" />
    <path
       id="path7"
       d="m 0,0 h 135.49559 59.27933"
       style="fill:none;stroke:#000000;stroke-width:0.3985;stroke-linecap:butt;stroke-linejoin:miter;stroke-miterlimit:10;stroke-dasharray:none;stroke-opacity:1"
       transform="matrix(1.3333333,0,0,-1.3333333,88.898667,88.308)" />
    <path
       id="path8"
       d="m 0,0 v -101.62169 -59.27933"
       style="fill:none;stroke:#000000;stroke-width:0.3985;stroke-linecap:butt;stroke-linejoin:miter;stroke-miterlimit:10;stroke-dasharray:none;stroke-opacity:1"
       transform="matrix(1.3333333,0,0,-1.3333333,88.898667,88.308)" />
    <path
       id="path9"
       d="M 135.49559,0 V -101.62169 H 0"
       style="fill:none;stroke:#000000;stroke-width:0.3985;stroke-linecap:butt;stroke-linejoin:miter;stroke-miterlimit:10;stroke-dasharray:none;stroke-opacity:1"
       transform="matrix(1.3333333,0,0,-1.3333333,88.898667,88.308)" />
    <path
       id="path10"
       d="M 194.77492,0 V -160.90102 H 0"
       style="fill:none;stroke:#000000;stroke-width:0.3985;stroke-linecap:butt;stroke-linejoin:miter;stroke-miterlimit:10;stroke-dasharray:none;stroke-opacity:1"
       transform="matrix(1.3333333,0,0,-1.3333333,88.898667,88.308)" />
    <path
       id="path11"
       d="M 3.1989453,-5.5320469 H 2.4255078 L 0.23410156,-7.96875e-4 h 0.65625 L 1.5114453,-1.5828281 h 2.4257813 l 0.6210937,1.582031225 h 0.8320313 z m -0.46875,0.609375 1.0078125,2.8710938 H 1.7106641 Z m 6.3837891,4.05468753 c -0.3984375,0.2578125 -0.8320313,0.3984375 -1.3242188,0.3984375 -0.7382812,0 -1.1601562,-0.58593753 -1.1601562,-1.31250003 0,-0.609375 0.3164062,-1.3242187 1.1835937,-1.3242187 0.5390625,0 0.796875,0.1054687 1.2070313,0.3632812 l 0.09375,-0.5742187 c -0.46875,-0.234375 -0.6796875,-0.3398438 -1.3007813,-0.3398438 -1.1953125,0 -1.8867187,0.9609375 -1.8867187,1.8867188 0,0.97265623 0.7734375,1.85156248 1.8515625,1.85156248 0.5625,0 1.0429687,-0.1640625 1.3828125,-0.36328125 z M 10.909883,-3.0359531 h 1.171875 v -0.5039063 h -1.171875 v -1.0078125 h -0.621094 v 1.0078125 H 9.5739453 v 0.5039063 h 0.6914067 v 2.015625 c 0,0.53906248 0.140625,1.10156248 0.714843,1.10156248 0.574219,0 1.007813,-0.1875 1.253907,-0.29296875 l -0.140625,-0.515625 c -0.257813,0.1875 -0.539063,0.2578125 -0.761719,0.2578125 -0.339844,0 -0.421875,-0.328125 -0.421875,-0.69140623 z m 2.961914,-2.4257813 h -0.808594 v 0.796875 h 0.808594 z m -0.07031,1.921875 h -0.667968 v 3.539062525 h 0.667968 z m 4.458985,0 h -0.632813 c -1.089844,2.67187503 -1.136719,2.88281253 -1.171875,3.07031253 h -0.01172 C 16.385474,-0.78595312 16.162814,-1.3367344 15.916721,-1.9578281 L 15.27219,-3.5398594 h -0.667969 l 1.464843,3.539062525 h 0.738282 z m 3.550781,2.67187503 c -0.445313,0.31640625 -0.949219,0.421875 -1.289063,0.421875 -0.691406,0 -1.21875,-0.56250003 -1.242187,-1.30078123 h 2.613281 c 0,-0.3632813 -0.03516,-0.9023438 -0.351562,-1.359375 -0.28125,-0.3984375 -0.761719,-0.5507813 -1.148438,-0.5507813 -0.972656,0 -1.722656,0.8554688 -1.722656,1.8632813 0,1.01953123 0.796875,1.87499998 1.851562,1.87499998 0.457032,0 0.9375,-0.140625 1.335938,-0.38671875 z M 19.338594,-2.2273594 c 0.1875,-0.6328125 0.65625,-0.9023437 1.054687,-0.9023437 0.351563,0 0.867188,0.1640625 1.019531,0.9023437 z m 6.530273,-3.421875 c 0.03516,-0.09375 0.03516,-0.1289062 0.03516,-0.140625 0,-0.1054687 -0.08203,-0.1875 -0.175781,-0.1875 -0.128906,0 -0.164062,0.09375 -0.199219,0.1875 l -2.859375,7.453125 c -0.04687,0.09375 -0.04687,0.1289063 -0.04687,0.140625 0,0.1054688 0.08203,0.1875 0.1875,0.1875 0.128907,0 0.152344,-0.09375 0.199219,-0.1875 z m 6.038086,0.1171875 h -0.703125 l -0.996094,2.4492188 c -0.05859,0.1289062 -0.84375,2.0507812 -0.914062,2.44921873 h -0.01172 C 29.199922,-1.0320469 28.403047,-2.9656406 28.367891,-3.0476719 l -1.019532,-2.484375 h -0.84375 l 2.296875,5.531250025 h 0.808594 z m 1.532227,0.070312 h -0.808594 v 0.796875 h 0.808594 z m -0.07031,1.921875 h -0.667969 v 3.539062525 h 0.667969 z m 3.591797,0.1289063 c -0.539062,-0.2226563 -0.9375,-0.2460938 -1.230469,-0.2460938 -0.199218,0 -1.394531,0 -1.394531,1.0546875 0,0.375 0.199219,0.5859375 0.304688,0.6796875 0.28125,0.28125 0.621093,0.3398438 1.042968,0.421875 0.375,0.070312 0.796875,0.1523438 0.796875,0.53906253 0,0.50390625 -0.65625,0.50390625 -0.773437,0.50390625 -0.503906,0 -0.984375,-0.1875 -1.300781,-0.41015625 l -0.117188,0.59765625 c 0.28125,0.12890625 0.761719,0.3515625 1.417969,0.3515625 0.363281,0 0.714844,-0.05859375 1.007812,-0.26953125 0.292969,-0.22265625 0.386719,-0.57421875 0.386719,-0.84375003 0,-0.1523437 -0.01172,-0.4570312 -0.339844,-0.7617187 -0.304687,-0.2578125 -0.585937,-0.3164063 -0.972656,-0.3867188 -0.46875,-0.09375 -0.832031,-0.1640625 -0.832031,-0.515625 0,-0.4570312 0.574219,-0.4570312 0.703125,-0.4570312 0.445312,0 0.796875,0.1054687 1.195312,0.3046875 z m 1.746094,-2.0507813 h -0.808594 v 0.796875 h 0.808594 z m -0.07031,1.921875 h -0.667968 v 3.539062525 h 0.667968 z m 2.030274,-1.9921875 H 39.99875 v 5.531250025 h 0.691406 V -0.37579687 c 0.175781,0.15234375 0.5625,0.45703125 1.136719,0.45703125 0.867187,0 1.570312,-0.8203125 1.570312,-1.86328128 0,-0.9609375 -0.550781,-1.8398437 -1.347656,-1.8398437 -0.503906,0 -0.984375,0.1640625 -1.382812,0.4570312 z m 0.02344,3.0234375 c 0,-0.1289062 0,-0.2226562 0.28125,-0.4101562 0.117188,-0.070312 0.328125,-0.1757813 0.597656,-0.1757813 0.539063,0 1.136719,0.3632813 1.136719,1.3125 0,0.97265628 -0.65625,1.33593753 -1.21875,1.33593753 -0.292969,0 -0.574219,-0.140625 -0.796875,-0.4921875 z m 4.338867,-3.0234375 h -0.667968 v 5.531250025 h 0.667968 z m 4.104493,4.66406253 c -0.445313,0.31640625 -0.949219,0.421875 -1.289063,0.421875 -0.691406,0 -1.21875,-0.56250003 -1.242187,-1.30078123 h 2.613281 c 0,-0.3632813 -0.03516,-0.9023438 -0.351563,-1.359375 -0.28125,-0.3984375 -0.761718,-0.5507813 -1.148437,-0.5507813 -0.972656,0 -1.722656,0.8554688 -1.722656,1.8632813 0,1.01953123 0.796875,1.87499998 1.851562,1.87499998 0.457031,0 0.9375,-0.140625 1.335938,-0.38671875 z M 46.660859,-2.2273594 c 0.1875,-0.6328125 0.65625,-0.9023437 1.054688,-0.9023437 0.351562,0 0.867187,0.1640625 1.019531,0.9023437 z m 9.210938,-0.3515625 c 1.148437,-0.3398437 1.429687,-1.03125 1.429687,-1.4648437 0,-0.8203125 -0.972656,-1.4882813 -2.132812,-1.4882813 h -2.085938 v 5.531250025 h 0.773438 V -2.5086094 h 1.3125 l 1.558594,2.507812525 h 0.808593 z m -2.015625,-0.4453125 v -2.0390625 h 1.21875 c 0.914062,0 1.5,0.4335938 1.5,1.0195313 0,0.5625 -0.550781,1.0195312 -1.5,1.0195312 z m 7.341797,2.15625003 c -0.445313,0.31640625 -0.949219,0.421875 -1.289063,0.421875 -0.691406,0 -1.21875,-0.56250003 -1.242187,-1.30078123 H 61.28 c 0,-0.3632813 -0.03516,-0.9023438 -0.351563,-1.359375 -0.28125,-0.3984375 -0.761718,-0.5507813 -1.148437,-0.5507813 -0.972656,0 -1.722656,0.8554688 -1.722656,1.8632813 0,1.01953123 0.796875,1.87499998 1.851562,1.87499998 0.457031,0 0.9375,-0.140625 1.335938,-0.38671875 z M 58.725312,-2.2273594 c 0.1875,-0.6328125 0.65625,-0.9023437 1.054688,-0.9023437 0.351562,0 0.867187,0.1640625 1.019531,0.9023437 z m 6.823243,-1.3945312 c -0.175782,0 -0.703125,0.011719 -1.3125,0.2460937 h -0.02344 c -0.28125,-0.1875 -0.5625,-0.2460937 -0.796875,-0.2460937 -0.773437,0 -1.359375,0.6210937 -1.359375,1.3007812 0,0.28125 0.09375,0.5625 0.28125,0.7851563 -0.117187,0.140625 -0.234375,0.3632812 -0.234375,0.66796873 0,0.3046875 0.128906,0.50390625 0.199219,0.609375 -0.433594,0.24609375 -0.527344,0.62109375 -0.527344,0.80859375 0,0.60937502 0.84375,1.07812502 1.875,1.07812502 1.042969,0 1.875,-0.46875 1.875,-1.07812502 0,-1.125 -1.394531,-1.125 -1.734375,-1.125 h -0.738281 c -0.128906,0 -0.480469,0 -0.480469,-0.41015625 0,-0.16406253 0.05859,-0.24609373 0.07031,-0.25781253 0.28125,0.1757813 0.550781,0.234375 0.773437,0.234375 0.773438,0 1.359375,-0.6210937 1.359375,-1.3007812 0,-0.2578125 -0.07031,-0.4921875 -0.210937,-0.703125 -0.03516,-0.046875 -0.03516,-0.058594 -0.03516,-0.058594 0,-0.035156 0.480469,-0.035156 0.515625,-0.035156 0.01172,0 0.316407,0 0.597657,0.035156 z m -2.132813,2.109375 c -0.421875,0 -0.738281,-0.2695313 -0.738281,-0.796875 0,-0.6210938 0.398437,-0.8203125 0.738281,-0.8203125 0.433594,0 0.75,0.28125 0.75,0.8085937 0,0.6210938 -0.398437,0.8085938 -0.75,0.8085938 z m 0.375,1.55859373 c 0.1875,0 1.125,0 1.125,0.515625 0,0.33984375 -0.597656,0.57421877 -1.265625,0.57421877 -0.667969,0 -1.265625,-0.23437502 -1.265625,-0.57421877 0,-0.046875 0,-0.515625 0.644531,-0.515625 z m 3.389649,-5.50781253 h -0.808594 v 0.796875 h 0.808594 z m -0.07031,1.921875 h -0.667969 v 3.539062525 h 0.667969 z M 71.78,-1.7468906 c 0,-1.0546875 -0.832031,-1.9101563 -1.875,-1.9101563 -1.03125,0 -1.875,0.8671875 -1.875,1.9101563 0,1.00781248 0.84375,1.82812498 1.875,1.82812498 1.042969,0 1.875,-0.8203125 1.875,-1.82812498 z m -1.875,1.27734373 c -0.632813,0 -1.171875,-0.46875 -1.171875,-1.35937503 0,-0.9023437 0.585937,-1.3007812 1.171875,-1.3007812 0.597656,0 1.183594,0.4101562 1.183594,1.3007812 0,0.90234378 -0.5625,1.35937503 -1.183594,1.35937503 z m 5.827148,-1.88671873 c 0,-0.6210938 -0.175781,-1.265625 -1.160156,-1.265625 -0.457031,0 -0.890625,0.1875 -1.242187,0.609375 v -0.5859375 h -0.644532 v 3.597656225 h 0.703125 V -1.9343906 c 0,-0.5273438 0.222657,-1.1601563 0.832032,-1.1601563 0.820312,0 0.820312,0.5625 0.820312,0.7851563 v 2.308593725 h 0.691406 z m 0,0"
       style="fill:#000000;fill-opacity:1;fill-rule:nonzero;stroke:none"
       aria-label="Active/VisibleRegion"
       transform="matrix(1.3333333,0,0,1.3333333,128.29333,158.712)" />
    <path
       id="path12"
       d="M 0,-160.90102 H 194.77492 V 0 H 135.49559 V -101.62169 H 0 Z"
       style="fill:#808080;fill-opacity:1;fill-rule:nonzero;stroke:#000000;stroke-width:0.3985;stroke-linecap:butt;stroke-linejoin:miter;stroke-miterlimit:10;stroke-dasharray:none;stroke-opacity:1"
       transform="matrix(1.3333333,0,0,-1.3333333,88.898667,88.308)" />
    <path
       id="path13"
       d="M 0.79673438,-5.5311406 V 1.09375e-4 H 3.0701719 c 1.171875,0 2.0976562,-0.703124995 2.0976562,-1.499999975 0,-0.703125 -0.75,-1.265625 -1.6289062,-1.3945313 0.8320312,-0.1992187 1.3828125,-0.6796875 1.3828125,-1.2539062 0,-0.7265625 -0.9140625,-1.3828125 -2.0859375,-1.3828125 z m 0.75000002,2.390625 v -1.921875 h 1.0546875 c 0.890625,0 1.6289062,0.421875 1.6289062,0.9257812 0,0.5390625 -0.7265625,0.9960938 -1.6289062,0.9960938 z m 0,2.67187498 V -2.6131719 h 1.1367187 c 1.0078125,0 1.7578125,0.5039063 1.7578125,1.1015625 0,0.59765628 -0.7382812,1.04296878 -1.6171875,1.04296878 z M 6.9813047,-5.5311406 H 6.3133359 V 1.09375e-4 h 0.6679688 z m 4.0839843,3.234375 c 0,-0.8085938 -0.621094,-1.359375 -1.4179687,-1.359375 -0.5039062,0 -0.8789062,0.1054687 -1.3242187,0.3398437 l 0.046875,0.5859375 c 0.2578125,-0.1757812 0.65625,-0.421875 1.2773437,-0.421875 0.3515625,0 0.7265627,0.2695313 0.7265627,0.8671875 v 0.3164063 c -1.1835939,0.035156 -2.3437502,0.2929687 -2.3437502,1.03124998 0,0.3984375 0.2695313,1.01953125 0.9726563,1.01953125 0.3398437,0 0.9726562,-0.0703125 1.3945309,-0.38671875 V 1.09375e-4 h 0.667969 z m -0.691406,1.1601562 c 0,0.16406253 0,0.37500003 -0.28125,0.53906253 -0.2578127,0.140625 -0.5742189,0.15234375 -0.6562502,0.15234375 -0.4335937,0 -0.7734375,-0.19921875 -0.7734375,-0.50390625 0,-0.50390623 1.3476567,-0.56250003 1.7109377,-0.57421873 z m 5.0625,-1.21875 c 0,-0.6210937 -0.175781,-1.265625 -1.160156,-1.265625 -0.457032,0 -0.890625,0.1875 -1.242188,0.609375 V -3.5975469 H 12.389508 V 1.09375e-4 h 0.703125 V -1.9334844 c 0,-0.5273437 0.222656,-1.1601562 0.832031,-1.1601562 0.820313,0 0.820313,0.5625 0.820313,0.7851562 V 1.09375e-4 h 0.691406 z m 3.049805,0.1875 1.417968,-1.3710937 H 19.130719 L 17.4315,-1.8866094 V -5.5311406 H 16.810406 V 1.09375e-4 h 0.585938 V -1.1131719 l 0.679687,-0.65625 1.3125,1.769531275 h 0.703125 z m 3.164062,-3.2929687 h -0.808594 v 0.796875 h 0.808594 z m -0.07031,1.921875 H 20.911969 V 1.09375e-4 h 0.667969 z m 4.385742,1.1835937 c 0,-0.6210937 -0.175782,-1.265625 -1.160157,-1.265625 -0.457031,0 -0.890625,0.1875 -1.242187,0.609375 V -3.5975469 H 22.918805 V 1.09375e-4 H 23.62193 V -1.9334844 c 0,-0.5273437 0.222656,-1.1601562 0.832031,-1.1601562 0.820312,0 0.820312,0.5625 0.820312,0.7851562 V 1.09375e-4 h 0.691407 z m 4.678711,-1.265625 c -0.175782,0 -0.703125,0.011719 -1.3125,0.2460938 h -0.02344 c -0.28125,-0.1875 -0.5625,-0.2460938 -0.796875,-0.2460938 -0.773437,0 -1.359375,0.6210938 -1.359375,1.3007813 0,0.28125 0.09375,0.5625 0.28125,0.7851562 -0.117187,0.140625 -0.234375,0.3632813 -0.234375,0.66796878 0,0.3046875 0.128906,0.50390625 0.199219,0.609375 -0.433594,0.24609375 -0.527344,0.62109375 -0.527344,0.80859375 0,0.60937497 0.84375,1.07812497 1.875,1.07812497 1.042969,0 1.875,-0.46875 1.875,-1.07812497 0,-1.125 -1.394531,-1.125 -1.734375,-1.125 h -0.738281 c -0.128906,0 -0.480469,0 -0.480469,-0.41015625 0,-0.16406248 0.05859,-0.24609378 0.07031,-0.25781248 0.28125,0.1757812 0.550781,0.234375 0.773437,0.234375 0.773438,0 1.359375,-0.6210938 1.359375,-1.3007813 0,-0.2578125 -0.07031,-0.4921875 -0.210937,-0.703125 -0.03516,-0.046875 -0.03516,-0.058594 -0.03516,-0.058594 0,-0.035156 0.480469,-0.035156 0.515625,-0.035156 0.01172,0 0.316407,0 0.597657,0.035156 z m -2.132813,2.109375 c -0.421875,0 -0.738281,-0.2695312 -0.738281,-0.796875 0,-0.6210937 0.398437,-0.8203125 0.738281,-0.8203125 0.433594,0 0.75,0.28125 0.75,0.8085938 0,0.6210937 -0.398437,0.8085937 -0.75,0.8085937 z m 0.375,1.55859378 c 0.1875,0 1.125,0 1.125,0.515625 0,0.33984375 -0.597656,0.57421872 -1.265625,0.57421872 -0.667969,0 -1.265625,-0.23437497 -1.265625,-0.57421872 0,-0.046875 0,-0.515625 0.644531,-0.515625 z m 8.378906,-2.62499998 c 1.148438,-0.3398438 1.429688,-1.03125 1.429688,-1.4648438 0,-0.8203125 -0.972656,-1.4882812 -2.132813,-1.4882812 H 34.476422 V 1.09375e-4 h 0.773437 V -2.5077031 h 1.3125 l 1.558594,2.507812475 h 0.808594 z m -2.015625,-0.4453125 v -2.0390625 h 1.21875 c 0.914063,0 1.5,0.4335937 1.5,1.0195312 0,0.5625 -0.550781,1.0195313 -1.5,1.0195313 z m 7.344727,2.15624998 c -0.445313,0.31640625 -0.949219,0.421875 -1.289063,0.421875 -0.691406,0 -1.21875,-0.56249998 -1.242187,-1.30078128 h 2.613281 c 0,-0.3632812 -0.03516,-0.9023437 -0.351562,-1.359375 -0.28125,-0.3984375 -0.761719,-0.5507812 -1.148438,-0.5507812 -0.972656,0 -1.722656,0.8554687 -1.722656,1.8632812 0,1.01953128 0.796875,1.87500003 1.851562,1.87500003 0.457032,0 0.9375,-0.140625 1.335938,-0.38671875 z M 40.12193,-2.2264531 c 0.1875,-0.6328125 0.65625,-0.9023438 1.054687,-0.9023438 0.351563,0 0.867188,0.1640625 1.019531,0.9023438 z m 6.820312,-1.3945313 c -0.175781,0 -0.703125,0.011719 -1.3125,0.2460938 h -0.02344 c -0.28125,-0.1875 -0.5625,-0.2460938 -0.796875,-0.2460938 -0.773438,0 -1.359375,0.6210938 -1.359375,1.3007813 0,0.28125 0.09375,0.5625 0.28125,0.7851562 -0.117188,0.140625 -0.234375,0.3632813 -0.234375,0.66796878 0,0.3046875 0.128906,0.50390625 0.199218,0.609375 -0.433593,0.24609375 -0.527343,0.62109375 -0.527343,0.80859375 0,0.60937497 0.84375,1.07812497 1.875,1.07812497 1.042968,0 1.875,-0.46875 1.875,-1.07812497 0,-1.125 -1.394532,-1.125 -1.734375,-1.125 h -0.738282 c -0.128906,0 -0.480468,0 -0.480468,-0.41015625 0,-0.16406248 0.05859,-0.24609378 0.07031,-0.25781248 0.28125,0.1757812 0.550781,0.234375 0.773438,0.234375 0.773437,0 1.359375,-0.6210938 1.359375,-1.3007813 0,-0.2578125 -0.07031,-0.4921875 -0.210938,-0.703125 -0.03516,-0.046875 -0.03516,-0.058594 -0.03516,-0.058594 0,-0.035156 0.480469,-0.035156 0.515625,-0.035156 0.01172,0 0.316406,0 0.597656,0.035156 z m -2.132812,2.109375 c -0.421875,0 -0.738282,-0.2695312 -0.738282,-0.796875 0,-0.6210937 0.398438,-0.8203125 0.738282,-0.8203125 0.433593,0 0.75,0.28125 0.75,0.8085938 0,0.6210937 -0.398438,0.8085937 -0.75,0.8085937 z m 0.375,1.55859378 c 0.1875,0 1.125,0 1.125,0.515625 0,0.33984375 -0.597657,0.57421872 -1.265625,0.57421872 -0.667969,0 -1.265625,-0.23437497 -1.265625,-0.57421872 0,-0.046875 0,-0.515625 0.644531,-0.515625 z m 3.392578,-5.50781248 h -0.808594 v 0.796875 h 0.808594 z m -0.07031,1.921875 H 47.838727 V 1.09375e-4 h 0.667968 z m 4.666993,1.7929687 c 0,-1.0546875 -0.832032,-1.9101562 -1.875,-1.9101562 -1.03125,0 -1.875,0.8671875 -1.875,1.9101562 0,1.00781253 0.84375,1.82812503 1.875,1.82812503 1.042968,0 1.875,-0.8203125 1.875,-1.82812503 z m -1.875,1.27734378 c -0.632813,0 -1.171875,-0.46875 -1.171875,-1.35937498 0,-0.9023438 0.585937,-1.3007813 1.171875,-1.3007813 0.597656,0 1.183593,0.4101563 1.183593,1.3007813 0,0.90234373 -0.5625,1.35937498 -1.183593,1.35937498 z m 5.830078,-1.88671878 c 0,-0.6210937 -0.175782,-1.265625 -1.160157,-1.265625 -0.457031,0 -0.890625,0.1875 -1.242187,0.609375 V -3.5975469 H 54.081891 V 1.09375e-4 h 0.703125 V -1.9334844 c 0,-0.5273437 0.222656,-1.1601562 0.832031,-1.1601562 0.820312,0 0.820312,0.5625 0.820312,0.7851562 V 1.09375e-4 h 0.691407 z m 4.382812,-3.2929687 c 0.03516,-0.09375 0.03516,-0.1289063 0.03516,-0.140625 0,-0.1054688 -0.08203,-0.1875 -0.175781,-0.1875 -0.128906,0 -0.164062,0.09375 -0.199219,0.1875 l -2.859375,7.453125 c -0.04687,0.09375 -0.04687,0.1289062 -0.04687,0.140625 0,0.1054687 0.08203,0.1875 0.1875,0.1875 0.128907,0 0.152344,-0.09375 0.199219,-0.1875 z m 3.811524,0.7265625 h 0.75 c 0.09375,0 0.1875,0 0.28125,0 h 1.148437 V -5.4725469 H 62.33482 v 0.5507813 h 1.148438 c 0.09375,0 0.1875,0 0.28125,0 h 0.75 V 1.09375e-4 h 0.808594 z m 3.899414,-0.5390625 h -0.808594 v 0.796875 h 0.808594 z m -0.07031,1.921875 H 68.484234 V 1.09375e-4 h 0.667969 z m 6.741211,1.1835937 c 0,-0.6210937 -0.1875,-1.265625 -1.160156,-1.265625 -0.679688,0 -1.089844,0.3984375 -1.277344,0.6445313 -0.08203,-0.2109375 -0.28125,-0.6445313 -1.078125,-0.6445313 -0.457031,0 -0.890625,0.1875 -1.242187,0.609375 V -3.5975469 H 70.49107 V 1.09375e-4 h 0.703125 V -1.9334844 c 0,-0.5273437 0.222657,-1.1601562 0.832032,-1.1601562 0.820312,0 0.820312,0.5625 0.820312,0.7851562 V 1.09375e-4 h 0.691406 V -1.9334844 c 0,-0.5273437 0.222657,-1.1601562 0.84375,-1.1601562 0.820313,0 0.820313,0.5625 0.820313,0.7851562 V 1.09375e-4 h 0.691406 z m 4.089844,1.48828128 c -0.445313,0.31640625 -0.949219,0.421875 -1.289063,0.421875 -0.691406,0 -1.21875,-0.56249998 -1.242187,-1.30078128 h 2.613281 c 0,-0.3632812 -0.03516,-0.9023437 -0.351562,-1.359375 -0.28125,-0.3984375 -0.761719,-0.5507812 -1.148438,-0.5507812 -0.972656,0 -1.722656,0.8554687 -1.722656,1.8632812 0,1.01953128 0.796875,1.87500003 1.851562,1.87500003 0.457032,0 0.9375,-0.140625 1.335938,-0.38671875 z M 77.510602,-2.2264531 c 0.1875,-0.6328125 0.65625,-0.9023438 1.054687,-0.9023438 0.351563,0 0.867188,0.1640625 1.019531,0.9023438 z m 0,0"
       style="fill:#000000;fill-opacity:1;fill-rule:nonzero;stroke:none"
       aria-label="BlankingRegion/Time"
       transform="matrix(1.3333333,0,0,1.3333333,216.008,258.38267)" />
    <path
       id="path14"
       d="M 0,38.10812 H 156.66678 V 21.17117 h 16.93695 v 16.93695 h 21.17119"
       style="fill:none;stroke:#000000;stroke-width:1.05855;stroke-linecap:butt;stroke-linejoin:miter;stroke-miterlimit:10;stroke-dasharray:none;stroke-opacity:1"
       transform="matrix(1.3333333,0,0,-1.3333333,88.898667,88.308)" />
    <path
       id="path15"
       d="m 3.7022422,-2.3542813 c 0,-0.6210937 -0.1757813,-1.265625 -1.1601563,-1.265625 -0.6914062,0 -1.0546875,0.3984375 -1.2070312,0.5742188 v -2.484375 H 0.65536719 v 5.53125 H 1.3584922 v -1.9335938 c 0,-0.5273437 0.2226562,-1.1601562 0.8320312,-1.1601562 0.8203125,0 0.8203125,0.5625 0.8203125,0.7851562 v 2.3085938 h 0.6914063 z m 3.5771484,-1.0546875 c -0.5390625,-0.2226562 -0.9375,-0.2460937 -1.2304687,-0.2460937 -0.1992188,0 -1.3945313,0 -1.3945313,1.0546875 0,0.375 0.1992188,0.5859375 0.3046875,0.6796875 0.28125,0.28125 0.6210938,0.3398437 1.0429688,0.421875 0.375,0.070312 0.796875,0.1523437 0.796875,0.5390625 0,0.50390625 -0.65625,0.50390625 -0.7734375,0.50390625 -0.5039063,0 -0.984375,-0.1875 -1.3007813,-0.41015625 l -0.1171875,0.59765625 c 0.28125,0.12890625 0.7617188,0.3515625 1.4179688,0.3515625 0.3632812,0 0.7148437,-0.05859375 1.0078125,-0.26953125 0.2929687,-0.22265625 0.3867187,-0.57421875 0.3867187,-0.84375 0,-0.1523438 -0.011719,-0.4570313 -0.3398437,-0.7617188 C 6.7754844,-2.0495938 6.4942344,-2.1081875 6.1075156,-2.1785 5.6387656,-2.27225 5.2754844,-2.3425625 5.2754844,-2.694125 c 0,-0.4570313 0.5742187,-0.4570313 0.703125,-0.4570313 0.4453125,0 0.796875,0.1054688 1.1953125,0.3046875 z M 11.392672,-3.537875 H 10.748141 C 10.103609,-2.0144375 9.6582969,-0.9831875 9.6231406,-0.50271875 9.6114219,-0.725375 9.4707969,-1.1238125 9.3301719,-1.4988125 9.2012656,-1.8152188 9.0723594,-2.131625 8.9317344,-2.4480313 L 8.4278281,-3.537875 H 7.7364219 l 1.6523437,3.5390625 c -0.09375,0.234375 -0.2578125,0.59765625 -0.3046875,0.703125 -0.1640625,0.328125 -0.28125,0.4453125 -0.4921875,0.4453125 -0.035156,0 -0.328125,0 -0.6679687,-0.140625 l 0.046875,0.5507812 c 0.070312,0.023437 0.3632812,0.070312 0.609375,0.070312 0.3164062,0 0.609375,-0.1171875 0.9492187,-0.89062495 z m 3.832031,1.1835937 c 0,-0.6210937 -0.175781,-1.265625 -1.160156,-1.265625 -0.457031,0 -0.890625,0.1875 -1.242188,0.609375 v -0.5859375 h -0.644531 v 3.5976563 h 0.703125 v -1.9335938 c 0,-0.5273437 0.222656,-1.1601562 0.832031,-1.1601562 0.820313,0 0.820313,0.5625 0.820313,0.7851562 v 2.3085938 h 0.691406 z M 19.361422,-0.866 c -0.398438,0.2578125 -0.832031,0.3984375 -1.324219,0.3984375 -0.738281,0 -1.160156,-0.5859375 -1.160156,-1.3125 0,-0.609375 0.316406,-1.3242188 1.183594,-1.3242188 0.539062,0 0.796875,0.1054688 1.207031,0.3632813 l 0.09375,-0.5742188 c -0.46875,-0.234375 -0.679688,-0.3398437 -1.300781,-0.3398437 -1.195313,0 -1.886719,0.9609375 -1.886719,1.8867187 0,0.9726563 0.773437,1.85156255 1.851562,1.85156255 0.5625,0 1.042969,-0.1640625 1.382813,-0.36328125 z m 0,0"
       style="fill:#000000;fill-opacity:1;fill-rule:nonzero;stroke:none"
       aria-label="hsync"
       transform="matrix(1.3333333,0,0,1.3333333,58.661333,40.154667)" />
    <path
       id="path16"
       d="M 1.99252,50.81084 H 133.50307"
       style="fill:none;stroke:#808080;stroke-width:0.3985;stroke-linecap:butt;stroke-linejoin:miter;stroke-miterlimit:10;stroke-dasharray:none;stroke-opacity:1"
       transform="matrix(1.3333333,0,0,-1.3333333,88.898667,88.308)" />
    <path
       id="path17"
       d="M 1.99252,0 -1.19551,1.59401 0,0 -1.19551,-1.59401"
       style="fill:#808080;fill-opacity:1;fill-rule:nonzero;stroke:none"
       transform="matrix(-1.3333333,0,0,1.3333333,91.55536,20.560213)" />
    <path
       id="path18"
       d="M 1.99252,0 -1.19551,1.59401 0,0 -1.19551,-1.59401"
       style="fill:#808080;fill-opacity:1;fill-rule:nonzero;stroke:none"
       transform="matrix(1.3333333,0,0,-1.3333333,266.90276,20.560213)" />
    <path
       id="path19"
       d="M 3.1998516,-5.5318125 H 2.4264141 l -2.19140629,5.53125 h 0.65625 L 1.5123516,-1.5825937 h 2.4257812 l 0.6210938,1.5820312 h 0.8320312 z m -0.46875,0.609375 1.0078125,2.8710938 H 1.7115703 Z m 0,0"
       style="fill:#808080;fill-opacity:1;fill-rule:nonzero;stroke:none"
       aria-label="A"
       transform="matrix(1.3333333,0,0,1.3333333,175.464,16.532)" />
    <path
       id="path20"
       d="m 137.48811,50.81084 h 17.18615"
       style="fill:none;stroke:#808080;stroke-width:0.3985;stroke-linecap:butt;stroke-linejoin:miter;stroke-miterlimit:10;stroke-dasharray:none;stroke-opacity:1"
       transform="matrix(1.3333333,0,0,-1.3333333,88.898667,88.308)" />
    <path
       id="path21"
       d="M 1.99252,0 -1.19551,1.59401 0,0 -1.19551,-1.59401"
       style="fill:#808080;fill-opacity:1;fill-rule:nonzero;stroke:none"
       transform="matrix(-1.3333333,0,0,1.3333333,272.21615,20.560213)" />
    <path
       id="path22"
       d="M 1.99252,0 -1.19551,1.59401 0,0 -1.19551,-1.59401"
       style="fill:#808080;fill-opacity:1;fill-rule:nonzero;stroke:none"
       transform="matrix(1.3333333,0,0,-1.3333333,295.13101,20.560213)" />
    <path
       id="path23"
       d="m 0.7955625,-5.5318125 v 5.53125 H 3.069 c 1.171875,0 2.0976562,-0.703125 2.0976562,-1.5 0,-0.703125 -0.75,-1.265625 -1.6289062,-1.3945312 0.8320312,-0.1992188 1.3828125,-0.6796875 1.3828125,-1.2539063 0,-0.7265625 -0.9140625,-1.3828125 -2.0859375,-1.3828125 z m 0.75,2.390625 v -1.921875 H 2.60025 c 0.890625,0 1.6289062,0.421875 1.6289062,0.9257813 0,0.5390625 -0.7265625,0.9960937 -1.6289062,0.9960937 z m 0,2.671875 v -2.1445312 h 1.1367187 c 1.0078125,0 1.7578125,0.5039062 1.7578125,1.1015625 0,0.5976562 -0.7382812,1.0429687 -1.6171875,1.0429687 z m 0,0"
       style="fill:#808080;fill-opacity:1;fill-rule:nonzero;stroke:none"
       aria-label="B"
       transform="matrix(1.3333333,0,0,1.3333333,279.908,16.532)" />
    <path
       id="path24"
       d="m 158.6593,50.81084 h 12.9519"
       style="fill:none;stroke:#808080;stroke-width:0.3985;stroke-linecap:butt;stroke-linejoin:miter;stroke-miterlimit:10;stroke-dasharray:none;stroke-opacity:1"
       transform="matrix(1.3333333,0,0,-1.3333333,88.898667,88.308)" />
    <path
       id="path25"
       d="M 1.99252,0 -1.19551,1.59401 0,0 -1.19551,-1.59401"
       style="fill:#808080;fill-opacity:1;fill-rule:nonzero;stroke:none"
       transform="matrix(-1.3333333,0,0,1.3333333,300.4444,20.560213)" />
    <path
       id="path26"
       d="M 1.99252,0 -1.19551,1.59401 0,0 -1.19551,-1.59401"
       style="fill:#808080;fill-opacity:1;fill-rule:nonzero;stroke:none"
       transform="matrix(1.3333333,0,0,-1.3333333,317.7136,20.560213)" />
    <path
       id="path27"
       d="m 4.9331562,-0.97321875 c -0.5625,0.33984375 -0.8085937,0.4921875 -1.6054687,0.4921875 -1.2421875,0 -1.9921875,-1.14843745 -1.9921875,-2.29687495 0,-1.1835938 0.8203125,-2.2851563 1.9921875,-2.2851563 0.515625,0 1.0664062,0.1640625 1.4296875,0.4453125 L 4.8862812,-5.3443125 C 4.3237812,-5.55525 3.8784687,-5.6138437 3.30425,-5.6138437 c -1.5820313,0 -2.765625,1.3007812 -2.765625,2.8359375 0,1.640625 1.2539062,2.85937495 2.8125,2.85937495 0.7734375,0 1.1015625,-0.1640625 1.6289062,-0.4453125 z m 0,0"
       style="fill:#808080;fill-opacity:1;fill-rule:nonzero;stroke:none"
       aria-label="C"
       transform="matrix(1.3333333,0,0,1.3333333,305.46933,16.532)" />
    <path
       id="path28"
       d="M 175.59625,50.81084 H 192.7824"
       style="fill:none;stroke:#808080;stroke-width:0.3985;stroke-linecap:butt;stroke-linejoin:miter;stroke-miterlimit:10;stroke-dasharray:none;stroke-opacity:1"
       transform="matrix(1.3333333,0,0,-1.3333333,88.898667,88.308)" />
    <path
       id="path29"
       d="M 1.99252,0 -1.19551,1.59401 0,0 -1.19551,-1.59401"
       style="fill:#808080;fill-opacity:1;fill-rule:nonzero;stroke:none"
       transform="matrix(-1.3333333,0,0,1.3333333,323.027,20.560213)" />
    <path
       id="path30"
       d="M 1.99252,0 -1.19551,1.59401 0,0 -1.19551,-1.59401"
       style="fill:#808080;fill-opacity:1;fill-rule:nonzero;stroke:none"
       transform="matrix(1.3333333,0,0,-1.3333333,345.94187,20.560213)" />
    <path
       id="path31"
       d="m 0.78391406,-5.5318125 v 5.53125 H 3.0456328 c 1.4296875,0 2.5898438,-1.2070312 2.5898438,-2.71875 0,-1.5585937 -1.171875,-2.8125 -2.5898438,-2.8125 z m 0.77343754,5.0625 v -4.59375 h 1.265625 c 1.1015625,0 2.0273437,0.8671875 2.0273437,2.3320313 0,1.4882812 -0.9726562,2.2617187 -2.0273437,2.2617187 z m 0,0"
       style="fill:#808080;fill-opacity:1;fill-rule:nonzero;stroke:none"
       aria-label="D"
       transform="matrix(1.3333333,0,0,1.3333333,330.404,16.532)" />
    <path
       id="path32"
       d="M 0,0 V 59.27931"
       style="fill:none;stroke:#808080;stroke-width:0.3985;stroke-linecap:butt;stroke-linejoin:miter;stroke-miterlimit:10;stroke-dasharray:2.98883, 2.98883;stroke-dashoffset:0;stroke-opacity:1"
       transform="matrix(1.3333333,0,0,-1.3333333,88.898667,88.308)" />
    <path
       id="path33"
       d="M 135.49559,0 V 59.27931"
       style="fill:none;stroke:#808080;stroke-width:0.3985;stroke-linecap:butt;stroke-linejoin:miter;stroke-miterlimit:10;stroke-dasharray:2.98883, 2.98883;stroke-dashoffset:0;stroke-opacity:1"
       transform="matrix(1.3333333,0,0,-1.3333333,88.898667,88.308)" />
    <path
       id="path34"
       d="M 194.77492,0 V 59.27931"
       style="fill:none;stroke:#808080;stroke-width:0.3985;stroke-linecap:butt;stroke-linejoin:miter;stroke-miterlimit:10;stroke-dasharray:2.98883, 2.98883;stroke-dashoffset:0;stroke-opacity:1"
       transform="matrix(1.3333333,0,0,-1.3333333,88.898667,88.308)" />
    <path
       id="path35"
       d="m -38.10812,0 v -122.79288 h 16.93695 v -16.93695 h -16.93695 v -21.17119"
       style="fill:none;stroke:#000000;stroke-width:1.05855;stroke-linecap:butt;stroke-linejoin:miter;stroke-miterlimit:10;stroke-dasharray:none;stroke-opacity:1"
       transform="matrix(1.3333333,0,0,-1.3333333,88.898667,88.308)" />
    <path
       id="path36"
       d="M 3.7744297,-3.5385859 H 3.1416172 c -1.0898438,2.67187496 -1.1367188,2.88281246 -1.171875,3.07031246 H 1.9580234 C 1.8994297,-0.78467969 1.6767734,-1.3354609 1.4306797,-1.9565547 L 0.78614844,-3.5385859 H 0.11817969 L 1.5830234,4.765625e-4 h 0.7382813 z m 3.0351562,0.1289062 c -0.5390625,-0.2226562 -0.9375,-0.2460937 -1.2304687,-0.2460937 -0.1992188,0 -1.3945313,0 -1.3945313,1.0546875 0,0.375 0.1992188,0.5859375 0.3046875,0.6796875 0.28125,0.28125 0.6210938,0.3398437 1.0429688,0.421875 0.375,0.070312 0.796875,0.1523437 0.796875,0.53906246 0,0.50390625 -0.65625,0.50390625 -0.7734375,0.50390625 -0.5039063,0 -0.984375,-0.1875 -1.3007813,-0.41015625 l -0.1171875,0.59765625 c 0.28125,0.12890625 0.7617188,0.3515625 1.4179688,0.3515625 0.3632812,0 0.7148437,-0.05859375 1.0078125,-0.26953125 0.2929687,-0.22265625 0.3867187,-0.57421875 0.3867187,-0.84374996 0,-0.1523438 -0.011719,-0.4570313 -0.3398437,-0.7617188 -0.3046875,-0.2578125 -0.5859375,-0.3164062 -0.9726563,-0.3867187 -0.46875,-0.09375 -0.8320312,-0.1640625 -0.8320312,-0.515625 0,-0.4570313 0.5742187,-0.4570313 0.703125,-0.4570313 0.4453125,0 0.796875,0.1054688 1.1953125,0.3046875 z M 10.922867,-3.5385859 H 10.278336 C 9.6338047,-2.0151484 9.1884922,-0.98389844 9.1533359,-0.50342969 9.1416172,-0.72608594 9.0009922,-1.1245234 8.8603672,-1.4995234 8.7314609,-1.8159297 8.6025547,-2.1323359 8.4619297,-2.4487422 L 7.9580234,-3.5385859 H 7.2666172 L 8.9189609,4.765625e-4 C 8.8252109,0.23485156 8.6611484,0.59813281 8.6142734,0.70360156 8.4502109,1.0317266 8.3330234,1.1489141 8.1220859,1.1489141 c -0.035156,0 -0.328125,0 -0.6679687,-0.140625 l 0.046875,0.5507812 c 0.070312,0.023437 0.3632812,0.070312 0.609375,0.070312 0.3164062,0 0.609375,-0.1171875 0.9492187,-0.89062499 z m 3.832031,1.1835937 c 0,-0.6210937 -0.175781,-1.265625 -1.160156,-1.265625 -0.457031,0 -0.890625,0.1875 -1.242187,0.609375 V -3.5971797 H 11.708023 V 4.765625e-4 h 0.703125 V -1.9331172 c 0,-0.5273437 0.222657,-1.1601562 0.832032,-1.1601562 0.820312,0 0.820312,0.5625 0.820312,0.7851562 V 4.765625e-4 h 0.691406 z m 4.136719,1.48828126 c -0.398437,0.2578125 -0.832031,0.3984375 -1.324219,0.3984375 -0.738281,0 -1.160156,-0.58593746 -1.160156,-1.31249996 0,-0.609375 0.316406,-1.3242188 1.183594,-1.3242188 0.539062,0 0.796875,0.1054688 1.207031,0.3632813 l 0.09375,-0.5742188 c -0.46875,-0.234375 -0.679687,-0.3398437 -1.300781,-0.3398437 -1.195313,0 -1.886719,0.9609375 -1.886719,1.8867187 0,0.97265626 0.773438,1.85156251 1.851563,1.85156251 0.5625,0 1.042968,-0.1640625 1.382812,-0.36328125 z m 0,0"
       style="fill:#000000;fill-opacity:1;fill-rule:nonzero;stroke:none"
       aria-label="vsync"
       transform="matrix(0,-1.3333333,1.3333333,0,39.417333,84.278667)" />
    <path
       id="path37"
       d="m 3.7037344,-2.3548984 c 0,-0.6210938 -0.1757813,-1.265625 -1.1601563,-1.265625 -0.6914062,0 -1.0546875,0.3984375 -1.2070312,0.5742187 v -2.484375 H 0.65685937 V 5.703125e-4 H 1.3599844 V -1.9330234 c 0,-0.5273438 0.2226562,-1.1601563 0.8320312,-1.1601563 0.8203125,0 0.8203125,0.5625 0.8203125,0.7851563 V 5.703125e-4 H 3.7037344 Z M 5.7779531,-5.4603672 H 4.9693594 v 0.796875 h 0.8085937 z m -0.070312,1.921875 H 5.0396719 V 5.703125e-4 H 5.7076406 Z M 10.401,-3.6205234 c -0.175781,0 -0.703125,0.011719 -1.3125,0.2460937 H 9.065063 c -0.28125,-0.1875 -0.5625,-0.2460937 -0.796875,-0.2460937 -0.7734375,0 -1.359375,0.6210937 -1.359375,1.3007812 0,0.28125 0.09375,0.5625 0.28125,0.7851563 -0.1171875,0.140625 -0.234375,0.3632812 -0.234375,0.66796871 0,0.3046875 0.1289062,0.50390625 0.1992187,0.609375 C 6.721313,-0.01114844 6.627563,0.36385156 6.627563,0.55135156 c 0,0.60937504 0.84375,1.07812504 1.875,1.07812504 1.0429687,0 1.875,-0.46875 1.875,-1.07812504 0,-1.125 -1.3945313,-1.125 -1.734375,-1.125 H 7.9049062 c -0.1289062,0 -0.4804687,0 -0.4804687,-0.41015625 0,-0.16406251 0.058594,-0.24609371 0.070312,-0.25781251 0.28125,0.1757813 0.5507812,0.234375 0.7734375,0.234375 0.7734375,0 1.359375,-0.6210937 1.359375,-1.3007812 0,-0.2578125 -0.070312,-0.4921875 -0.2109375,-0.703125 -0.035156,-0.046875 -0.035156,-0.058594 -0.035156,-0.058594 0,-0.035156 0.4804688,-0.035156 0.515625,-0.035156 0.011719,0 0.3164065,0 0.5976565,0.035156 z m -2.1328125,2.109375 c -0.421875,0 -0.7382813,-0.2695313 -0.7382813,-0.796875 0,-0.6210938 0.3984375,-0.8203125 0.7382813,-0.8203125 0.4335937,0 0.75,0.28125 0.75,0.8085937 0,0.6210938 -0.3984375,0.8085938 -0.75,0.8085938 z m 0.375,1.55859371 c 0.1875,0 1.125,0 1.125,0.515625 0,0.33984375 -0.5976563,0.57421879 -1.265625,0.57421879 -0.6679688,0 -1.265625,-0.23437504 -1.265625,-0.57421879 0,-0.046875 0,-0.515625 0.6445312,-0.515625 z M 14.329711,-2.3548984 c 0,-0.6210938 -0.175781,-1.265625 -1.160156,-1.265625 -0.691407,0 -1.054688,0.3984375 -1.207032,0.5742187 v -2.484375 H 11.282836 V 5.703125e-4 h 0.703125 V -1.9330234 c 0,-0.5273438 0.222656,-1.1601563 0.832031,-1.1601563 0.820313,0 0.820313,0.5625 0.820313,0.7851563 V 5.703125e-4 h 0.691406 z m 0,0"
       style="fill:#808080;fill-opacity:1;fill-rule:nonzero;stroke:none"
       aria-label="high"
       transform="matrix(0,-1.3333333,1.3333333,0,40.745333,326.868)" />
    <path
       id="path38"
       d="m 3.703875,-2.3542813 c 0,-0.6210937 -0.1757812,-1.265625 -1.1601562,-1.265625 -0.6914063,0 -1.0546875,0.3984375 -1.2070313,0.5742188 v -2.484375 H 0.657 v 5.53125 h 0.703125 v -1.9335938 c 0,-0.5273437 0.2226563,-1.1601562 0.8320313,-1.1601562 0.8203125,0 0.8203125,0.5625 0.8203125,0.7851562 V 0.0011875 H 3.703875 Z M 5.7780938,-5.45975 H 4.9695 v 0.796875 h 0.8085938 z m -0.070312,1.921875 H 5.0398125 v 3.5390625 h 0.6679688 z m 4.6933602,-0.082031 c -0.175782,0 -0.7031259,0.011719 -1.3125009,0.2460938 h -0.023437 c -0.28125,-0.1875 -0.5625,-0.2460938 -0.796875,-0.2460938 -0.7734375,0 -1.359375,0.6210938 -1.359375,1.3007813 0,0.28125 0.09375,0.5625 0.28125,0.7851562 -0.1171875,0.140625 -0.234375,0.3632813 -0.234375,0.6679688 0,0.3046875 0.1289063,0.50390625 0.1992188,0.609375 -0.4335938,0.24609375 -0.5273438,0.62109375 -0.5273438,0.80859375 0,0.60937495 0.84375,1.07812495 1.875,1.07812495 1.0429688,0 1.8749999,-0.46875 1.8749999,-1.07812495 0,-1.125 -1.3945311,-1.125 -1.7343749,-1.125 H 7.9050469 c -0.1289063,0 -0.4804688,0 -0.4804688,-0.41015625 0,-0.1640625 0.058594,-0.2460938 0.070312,-0.2578125 0.28125,0.1757812 0.5507813,0.234375 0.7734375,0.234375 0.7734375,0 1.359375,-0.6210938 1.359375,-1.3007813 0,-0.2578125 -0.070312,-0.4921875 -0.2109375,-0.703125 -0.035156,-0.046875 -0.035156,-0.058594 -0.035156,-0.058594 0,-0.035156 0.4804687,-0.035156 0.515625,-0.035156 0.011719,0 0.3164069,0 0.5976569,0.035156 z m -2.1328134,2.109375 c -0.421875,0 -0.7382812,-0.2695312 -0.7382812,-0.796875 0,-0.6210937 0.3984375,-0.8203125 0.7382812,-0.8203125 0.4335938,0 0.75,0.28125 0.75,0.8085938 0,0.6210937 -0.3984375,0.8085937 -0.75,0.8085937 z m 0.375,1.5585938 c 0.1875,0 1.125,0 1.125,0.515625 0,0.33984375 -0.5976562,0.5742187 -1.265625,0.5742187 -0.6679687,0 -1.265625,-0.23437495 -1.265625,-0.5742187 0,-0.046875 0,-0.515625 0.6445313,-0.515625 z M 14.329853,-2.354281 c 0,-0.6210937 -0.175782,-1.265625 -1.160157,-1.265625 -0.691406,0 -1.054687,0.3984375 -1.207031,0.5742188 v -2.484375 h -0.679687 v 5.53125 h 0.703125 V -1.932406 c 0,-0.5273437 0.222656,-1.1601562 0.832031,-1.1601562 0.820312,0 0.820312,0.5625 0.820312,0.7851562 v 2.3085938 h 0.691407 z m 0,0"
       style="fill:#808080;fill-opacity:1;fill-rule:nonzero;stroke:none"
       aria-label="high"
       transform="matrix(1.3333333,0,0,1.3333333,352.624,40.154667)" />
    <path
       id="path39"
       d="M -50.81084,-1.99252 V -99.62917"
       style="fill:none;stroke:#808080;stroke-width:0.3985;stroke-linecap:butt;stroke-linejoin:miter;stroke-miterlimit:10;stroke-dasharray:none;stroke-opacity:1"
       transform="matrix(1.3333333,0,0,-1.3333333,88.898667,88.308)" />
    <path
       id="path40"
       d="M 1.99252,0 -1.19551,1.59401 0,0 -1.19551,-1.59401"
       style="fill:#808080;fill-opacity:1;fill-rule:nonzero;stroke:none"
       transform="matrix(0,-1.3333333,-1.3333333,0,21.15088,90.964693)" />
    <path
       id="path41"
       d="M 1.99252,0 -1.19551,1.59401 0,0 -1.19551,-1.59401"
       style="fill:#808080;fill-opacity:1;fill-rule:nonzero;stroke:none"
       transform="matrix(0,1.3333333,1.3333333,0,21.15088,221.14689)" />
    <path
       id="path42"
       d="M 4.3590469,-2.6009922 V -3.1283359 H 1.5817031 v -1.828125 h 1.1601563 c 0.09375,0 0.1875,0.011719 0.28125,0.011719 h 1.5703125 v -0.5625 H 0.77310937 V 5.703125e-4 H 4.7223281 V -0.62052344 H 3.9957656 c -0.6679687,0 -1.3359375,0.0117188 -2.0039062,0.0117188 H 1.5817031 V -2.6009922 Z m 0,0"
       style="fill:#808080;fill-opacity:1;fill-rule:nonzero;stroke:none"
       aria-label="E"
       transform="matrix(1.3333333,0,0,1.3333333,10.352,159.74533)" />
    <path
       id="path43"
       d="m -50.81084,-103.61421 v -17.18614"
       style="fill:none;stroke:#808080;stroke-width:0.3985;stroke-linecap:butt;stroke-linejoin:miter;stroke-miterlimit:10;stroke-dasharray:none;stroke-opacity:1"
       transform="matrix(1.3333333,0,0,-1.3333333,88.898667,88.308)" />
    <path
       id="path44"
       d="M 1.99252,0 -1.19551,1.59401 0,0 -1.19551,-1.59401"
       style="fill:#808080;fill-opacity:1;fill-rule:nonzero;stroke:none"
       transform="matrix(0,-1.3333333,-1.3333333,0,21.15088,226.46028)" />
    <path
       id="path45"
       d="M 1.99252,0 -1.19551,1.59401 0,0 -1.19551,-1.59401"
       style="fill:#808080;fill-opacity:1;fill-rule:nonzero;stroke:none"
       transform="matrix(0,1.3333333,1.3333333,0,21.15088,249.37513)" />
    <path
       id="path46"
       d="M 4.1240469,-2.4959922 V -3.0233359 H 1.5810781 v -1.9335938 h 1.1015625 c 0.09375,0 0.1875,0.011719 0.2929688,0.011719 h 1.5117187 v -0.5625 H 0.77248438 V 1.015625e-4 H 1.5810781 V -2.4959922 Z m 0,0"
       style="fill:#808080;fill-opacity:1;fill-rule:nonzero;stroke:none"
       aria-label="F"
       transform="matrix(1.3333333,0,0,1.3333333,10.665333,241.60533)" />
    <path
       id="path47"
       d="m -50.81084,-124.7854 v -12.9519"
       style="fill:none;stroke:#808080;stroke-width:0.3985;stroke-linecap:butt;stroke-linejoin:miter;stroke-miterlimit:10;stroke-dasharray:none;stroke-opacity:1"
       transform="matrix(1.3333333,0,0,-1.3333333,88.898667,88.308)" />
    <path
       id="path48"
       d="M 1.99252,0 -1.19551,1.59401 0,0 -1.19551,-1.59401"
       style="fill:#808080;fill-opacity:1;fill-rule:nonzero;stroke:none"
       transform="matrix(0,-1.3333333,-1.3333333,0,21.15088,254.68853)" />
    <path
       id="path49"
       d="M 1.99252,0 -1.19551,1.59401 0,0 -1.19551,-1.59401"
       style="fill:#808080;fill-opacity:1;fill-rule:nonzero;stroke:none"
       transform="matrix(0,1.3333333,1.3333333,0,21.15088,271.95773)" />
    <path
       id="path50"
       d="m 5.0754609,-2.3781172 h -1.78125 v 0.5273438 h 1.078125 v 1.21874996 c -0.3515625,0.0820313 -0.6914062,0.15234375 -1.0429687,0.15234375 -1.2304688,0 -1.9921875,-1.14843751 -1.9921875,-2.29687501 0,-1.0898437 0.7382812,-2.2851562 1.9453125,-2.2851562 0.7382812,0 1.1953125,0.2226562 1.59375,0.5507812 l 0.1289062,-0.7265625 c -0.5507812,-0.2578125 -1.03125,-0.3867187 -1.640625,-0.3867187 -1.6054687,0 -2.82421871,1.2539062 -2.82421871,2.8476562 0,1.5585938 1.20703121,2.85937501 2.77734371,2.85937501 0.5742188,0 1.2539063,-0.12890625 1.7578125,-0.3984375 z m 0,0"
       style="fill:#808080;fill-opacity:1;fill-rule:nonzero;stroke:none"
       aria-label="G"
       transform="matrix(1.3333333,0,0,1.3333333,9.596,267.01067)" />
    <path
       id="path51"
       d="M -50.81084,-141.72235 V -158.9085"
       style="fill:none;stroke:#808080;stroke-width:0.3985;stroke-linecap:butt;stroke-linejoin:miter;stroke-miterlimit:10;stroke-dasharray:none;stroke-opacity:1"
       transform="matrix(1.3333333,0,0,-1.3333333,88.898667,88.308)" />
    <path
       id="path52"
       d="M 1.99252,0 -1.19551,1.59401 0,0 -1.19551,-1.59401"
       style="fill:#808080;fill-opacity:1;fill-rule:nonzero;stroke:none"
       transform="matrix(0,-1.3333333,-1.3333333,0,21.15088,277.27113)" />
    <path
       id="path53"
       d="M 1.99252,0 -1.19551,1.59401 0,0 -1.19551,-1.59401"
       style="fill:#808080;fill-opacity:1;fill-rule:nonzero;stroke:none"
       transform="matrix(0,1.3333333,1.3333333,0,21.15088,300.186)" />
    <path
       id="path54"
       d="m 5.1906641,-5.5327031 h -0.796875 v 2.390625 h -2.8125 v -2.390625 H 0.77269531 v 5.53124997 H 1.5812891 V -2.6147344 h 2.8125 v 2.61328127 h 0.796875 z m 0,0"
       style="fill:#808080;fill-opacity:1;fill-rule:nonzero;stroke:none"
       aria-label="H"
       transform="matrix(1.3333333,0,0,1.3333333,9.1533333,292.416)" />
    <path
       id="path55"
       d="M 0,0 H -59.27931"
       style="fill:none;stroke:#808080;stroke-width:0.3985;stroke-linecap:butt;stroke-linejoin:miter;stroke-miterlimit:10;stroke-dasharray:2.98883, 2.98883;stroke-dashoffset:0;stroke-opacity:1"
       transform="matrix(1.3333333,0,0,-1.3333333,88.898667,88.308)" />
    <path
       id="path56"
       d="M 0,-101.62169 H -59.27931"
       style="fill:none;stroke:#808080;stroke-width:0.3985;stroke-linecap:butt;stroke-linejoin:miter;stroke-miterlimit:10;stroke-dasharray:2.98883, 2.98883;stroke-dashoffset:0;stroke-opacity:1"
       transform="matrix(1.3333333,0,0,-1.3333333,88.898667,88.308)" />
    <path
       id="path57"
       d="M 0,-160.90102 H -59.27931"
       style="fill:none;stroke:#808080;stroke-width:0.3985;stroke-linecap:butt;stroke-linejoin:miter;stroke-miterlimit:10;stroke-dasharray:2.98883, 2.98883;stroke-dashoffset:0;stroke-opacity:1"
       transform="matrix(1.3333333,0,0,-1.3333333,88.898667,88.308)" />
  </g>
</svg>
