<?xml version="1.0" encoding="UTF-8" standalone="no"?>
<!-- Created with Inkscape (http://www.inkscape.org/) -->

<svg
   version="1.1"
   id="svg1"
   width="581.77197"
   height="212.43733"
   viewBox="0 0 581.77197 212.43733"
   sodipodi:docname="main.pdf"
   xmlns:inkscape="http://www.inkscape.org/namespaces/inkscape"
   xmlns:sodipodi="http://sodipodi.sourceforge.net/DTD/sodipodi-0.dtd"
   xmlns="http://www.w3.org/2000/svg"
   xmlns:svg="http://www.w3.org/2000/svg">
  <defs
     id="defs1" />
  <sodipodi:namedview
     id="namedview1"
     pagecolor="#ffffff"
     bordercolor="#000000"
     borderopacity="0.25"
     inkscape:showpageshadow="2"
     inkscape:pageopacity="0.0"
     inkscape:pagecheckerboard="0"
     inkscape:deskcolor="#d1d1d1">
    <inkscape:page
       x="0"
       y="0"
       inkscape:label="1"
       id="page1"
       width="581.77197"
       height="212.43733"
       margin="0"
       bleed="0" />
  </sodipodi:namedview>
  <g
     id="g1"
     inkscape:groupmode="layer"
     inkscape:label="1">
    <path
       id="path1"
       d="M 0,0 H 436.329 V 159.328 H 0 Z"
       style="fill:#ffffff;fill-opacity:1;fill-rule:nonzero;stroke:none"
       transform="matrix(1.3333333,0,0,-1.3333333,0,212.43733)" />
    <path
       id="path2"
       d="M -124.67183,-137.66255 V 20.66724 h 435.33446 v -158.32979 z"
       style="fill:#ffffff;fill-opacity:1;fill-rule:nonzero;stroke:none"
       transform="matrix(1.3333333,0,0,-1.3333333,166.89333,28.222667)" />
    <path
       id="path3"
       d="m 4.0900625,-4.1610938 c -0.5976562,-0.3398437 -0.9375,-0.4335937 -1.5351562,-0.4335937 -1.3945313,0 -2.1914063,1.2070312 -2.1914063,2.3789062 0,1.24218755 0.9023438,2.32031255 2.1445313,2.32031255 0.5390625,0 1.0898437,-0.140625 1.6289062,-0.50390625 l -0.058594,-0.6679688 c -0.515625,0.39843755 -1.0546875,0.53906255 -1.5585938,0.53906255 -0.8203125,0 -1.3828125,-0.71484375 -1.3828125,-1.69921875 0,-0.7734375 0.3632813,-1.7226563 1.4179688,-1.7226563 0.5273437,0 0.8671875,0.070312 1.40625,0.4335938 z M 5.9855703,-6.915 h -0.75 v 6.9140625 h 0.75 z m 3.6240235,4.2070312 1.6757812,-1.7109375 h -0.902344 l -2.0156247,2.0625 V -6.915 H 7.6408438 V -9.375e-4 H 8.33225 v -1.40625 L 9.129125,-2.2275 10.687719,-9.375e-4 h 0.808594 z m 0,0"
       style="fill:#000000;fill-opacity:1;fill-rule:nonzero;stroke:none"
       aria-label="clk"
       transform="matrix(1.3333333,0,0,1.3333333,143.76533,28.22)" />
    <path
       id="path4"
       d="m 0,0.00255 h 11.33546 v 10.62697 h 11.3355 V 0.00255 h 11.33549 v 10.62697 h 11.3355 V 0.00255 H 56.67744 V 10.62952 H 68.01292 V 0.00255 H 79.3484 v 10.62697 h 11.3355"
       style="fill:none;stroke:#000000;stroke-width:0.66414;stroke-linecap:round;stroke-linejoin:round;stroke-miterlimit:10;stroke-dasharray:none;stroke-opacity:1"
       transform="matrix(1.3333333,0,0,-1.3333333,166.89333,28.222667)" />
    <path
       id="path5"
       d="M 90.68866,10.6308 V 0.00383 h 11.33549 V 10.6308 h 11.33548 V 0.00383 h 11.3355"
       style="fill:none;stroke:#000000;stroke-width:0.66414;stroke-linecap:round;stroke-linejoin:round;stroke-miterlimit:10;stroke-dasharray:2.98883, 2.98883;stroke-dashoffset:0;stroke-opacity:1"
       transform="matrix(1.3333333,0,0,-1.3333333,166.89333,28.222667)" />
    <path
       id="path6"
       d="M 124.70169,0.00383 V 10.6308 h 11.33548 V 0.00383 h 11.33548 V 10.6308 h 11.3355"
       style="fill:none;stroke:#000000;stroke-width:0.66414;stroke-linecap:round;stroke-linejoin:round;stroke-miterlimit:10;stroke-dasharray:none;stroke-opacity:1"
       transform="matrix(1.3333333,0,0,-1.3333333,166.89333,28.222667)" />
    <path
       id="path7"
       d="M 158.71648,10.63208 V 0.0051 h 11.33549 v 10.62698 h 11.3355 V 0.0051 h 11.33548 v 10.62698 h 11.33549 V 0.0051 h 11.3355 v 10.62698 h 11.33548"
       style="fill:none;stroke:#000000;stroke-width:0.66414;stroke-linecap:round;stroke-linejoin:round;stroke-miterlimit:10;stroke-dasharray:2.98883, 2.98883;stroke-dashoffset:0;stroke-opacity:1"
       transform="matrix(1.3333333,0,0,-1.3333333,166.89333,28.222667)" />
    <path
       id="path8"
       d="M 226.74133,10.63335 V 0.00638 h 11.3355 v 10.62697 h 11.33548 V 0.00638 h 11.33549 v 10.62697 h 11.3355 V 0.00638 h 11.3355 v 10.62697 h 11.33547 V 0.00638 h 11.33548"
       style="fill:none;stroke:#000000;stroke-width:0.66414;stroke-linecap:round;stroke-linejoin:round;stroke-miterlimit:10;stroke-dasharray:none;stroke-opacity:1"
       transform="matrix(1.3333333,0,0,-1.3333333,166.89333,28.222667)" />
    <path
       id="path9"
       d="M 3.4221172,-4.2764688 C 2.8947734,-4.5108438 2.4963359,-4.592875 1.9807109,-4.592875 c -0.2460937,0 -1.65234371,0 -1.65234371,1.3007812 0,0.4921875 0.29296875,0.8085938 0.5390625,0.9960938 0.30468751,0.2226562 0.52734371,0.2695312 1.07812501,0.375 0.3515625,0.070312 0.9375,0.1875 0.9375,0.7148437 0,0.6914063 -0.7851563,0.6914063 -0.9375,0.6914063 -0.8085938,0 -1.37109376,-0.375 -1.54687501,-0.4921875 L 0.28149219,-0.32725 c 0.31640625,0.1640625 0.86718751,0.43359375 1.67578121,0.43359375 0.1757813,0 0.7265625,0 1.1484375,-0.31640625 0.3164063,-0.234375 0.4804688,-0.6328125 0.4804688,-1.0664063 0,-0.5507812 -0.3632813,-0.8789062 -0.3867188,-0.9140625 -0.3867187,-0.3515625 -0.65625,-0.4101562 -1.1601562,-0.5039062 -0.5390625,-0.1054688 -1.0078125,-0.1992188 -1.0078125,-0.6914063 0,-0.6210937 0.7265625,-0.6210937 0.8554687,-0.6210937 0.3164063,0 0.84375,0.046875 1.40625,0.3867187 z m 2.1416016,0.4335938 h 1.40625 v -0.5742188 h -1.40625 v -1.265625 H 4.8723125 v 1.265625 H 4.005125 v 0.5742188 h 0.84375 v 2.6601562 c 0,0.5976563 0.1289063,1.28906255 0.8203125,1.28906255 0.703125,0 1.2070313,-0.24609375 1.453125,-0.375 l -0.1523437,-0.5859375 c -0.2578125,0.2109375 -0.5859375,0.328125 -0.9023438,0.328125 -0.3632812,0 -0.5039062,-0.3046875 -0.5039062,-0.83203125 z m 5.8242192,0.9609375 c 0,-1.0078125 -0.726563,-1.7109375 -1.6406255,-1.7109375 -0.6445312,0 -1.1015625,0.1640625 -1.5703125,0.4335937 l 0.070312,0.65625 c 0.515625,-0.375 1.0078125,-0.5039062 1.5,-0.5039062 0.468751,0 0.867187,0.3984375 0.867187,1.1367187 v 0.4335938 c -1.4999995,0.011719 -2.7656245,0.4335937 -2.7656245,1.3125 0,0.421875 0.2695313,1.23046875 1.1367188,1.23046875 0.140625,0 1.0781257,-0.01171875 1.6523447,-0.46875 V 8.75e-4 h 0.75 z M 10.6145,-1.311625 c 0,0.1875 0,0.43359375 -0.339844,0.62109375 -0.2929685,0.1875 -0.6679685,0.1875 -0.7734372,0.1875 -0.4804688,0 -0.9257813,-0.22265625 -0.9257813,-0.64453125 0,-0.6914063 1.6054685,-0.7617188 2.0390625,-0.7851563 z m 2.868164,-0.8203125 c 0,-0.9960938 0.726563,-1.7109375 1.699219,-1.734375 v -0.6679688 c -0.890625,0.011719 -1.429688,0.5039063 -1.746094,0.9609375 V -4.4874063 H 12.744383 V 8.75e-4 h 0.738281 z m 3.591797,-1.7109375 h 1.40625 v -0.5742188 h -1.40625 v -1.265625 h -0.691406 v 1.265625 h -0.867188 v 0.5742188 h 0.84375 v 2.6601562 c 0,0.5976563 0.128906,1.28906255 0.820313,1.28906255 0.703125,0 1.207031,-0.24609375 1.453125,-0.375 l -0.152344,-0.5859375 c -0.257813,0.2109375 -0.585938,0.328125 -0.902344,0.328125 -0.363281,0 -0.503906,-0.3046875 -0.503906,-0.83203125 z m 0,0"
       style="fill:#000000;fill-opacity:1;fill-rule:nonzero;stroke:none"
       aria-label="start"
       transform="matrix(1.3333333,0,0,1.3333333,134.09733,56.561333)" />
    <path
       id="path10"
       d="M 0,-21.25397 H 39.6742 L 41.09113,-10.627 H 62.34517 L 63.7621,-21.25397 H 90.68388"
       style="fill:none;stroke:#000000;stroke-width:0.66414;stroke-linecap:round;stroke-linejoin:round;stroke-miterlimit:10;stroke-dasharray:none;stroke-opacity:1"
       transform="matrix(1.3333333,0,0,-1.3333333,166.89333,28.222667)" />
    <path
       id="path11"
       d="m 90.68864,-21.25397 h 34.00647"
       style="fill:none;stroke:#000000;stroke-width:0.66414;stroke-linecap:round;stroke-linejoin:round;stroke-miterlimit:10;stroke-dasharray:2.98883, 2.98883;stroke-dashoffset:0;stroke-opacity:1"
       transform="matrix(1.3333333,0,0,-1.3333333,166.89333,28.222667)" />
    <path
       id="path12"
       d="M 124.70168,-21.25397 H 306.0695"
       style="fill:none;stroke:#000000;stroke-width:0.66414;stroke-linecap:round;stroke-linejoin:round;stroke-miterlimit:10;stroke-dasharray:none;stroke-opacity:1"
       transform="matrix(1.3333333,0,0,-1.3333333,166.89333,28.222667)" />
    <path
       id="path13"
       d="M 1.5594922,-6.914375 H 0.82121094 V -3.125e-4 H 1.5946484 v -0.45703125 c 0.234375,0.22265625 0.6679688,0.5625 1.3359375,0.5625 0.9960938,0 1.8515625,-0.99609375 1.8515625,-2.33203125 0,-1.2304688 -0.6796875,-2.3085938 -1.6171875,-2.3085938 -0.3867187,0 -1.0078125,0.1054688 -1.6054687,0.5859375 z m 0.035156,3.5742187 c 0.1640625,-0.234375 0.515625,-0.5859375 1.0664063,-0.5859375 0.5859375,0 1.3476562,0.4335938 1.3476562,1.6992188 0,1.30078125 -0.84375,1.72265625 -1.453125,1.72265625 -0.3867187,0 -0.7148437,-0.17578125 -0.9609375,-0.63281255 z m 7.8896485,-1.078125 H 8.6991406 v 2.8828125 c 0,0.75000005 -0.5507812,1.10156255 -1.1953125,1.10156255 -0.703125,0 -0.7734375,-0.26953125 -0.7734375,-0.69140625 V -4.4182813 H 5.9569531 v 3.328125 c 0,0.72656255 0.2226563,1.19531255 1.0546875,1.19531255 0.5273438,0 1.2304688,-0.15234375 1.7226563,-0.5859375 V -3.125e-4 h 0.75 z m 4.2333983,0.140625 c -0.527343,-0.234375 -0.925781,-0.3164062 -1.441406,-0.3164062 -0.246094,0 -1.652344,0 -1.652344,1.3007812 0,0.4921875 0.292969,0.8085938 0.539063,0.9960938 0.304687,0.2226562 0.527344,0.2695312 1.078125,0.375 0.351562,0.070312 0.9375,0.1875 0.9375,0.7148437 0,0.6914063 -0.785156,0.6914063 -0.9375,0.6914063 -0.808594,0 -1.371094,-0.375 -1.546875,-0.4921875 l -0.117188,0.6796875 c 0.316407,0.1640625 0.867188,0.43359375 1.675782,0.43359375 0.175781,0 0.726562,0 1.148437,-0.31640625 0.316406,-0.234375 0.480469,-0.6328125 0.480469,-1.0664063 0,-0.5507812 -0.363281,-0.8789062 -0.386719,-0.9140625 C 13.10832,-2.5432813 12.838789,-2.601875 12.334883,-2.695625 11.79582,-2.8010938 11.32707,-2.8948438 11.32707,-3.3870313 c 0,-0.6210937 0.726563,-0.6210937 0.855469,-0.6210937 0.316406,0 0.84375,0.046875 1.40625,0.3867187 z m 4.836914,-0.140625 h -0.75 c -1.289062,3.1640625 -1.3125,3.6210938 -1.324218,3.8554688 h -0.01172 c -0.05859,-0.6679688 -0.855469,-2.53125 -0.890625,-2.6132813 l -0.539063,-1.2421875 h -0.785156 l 1.933594,4.4179688 C 16.070234,0.304375 15.871016,0.80828125 15.824141,0.90203125 15.566328,1.47625 15.402266,1.47625 15.261641,1.47625 c -0.164063,0 -0.480469,-0.046875 -0.785157,-0.1640625 l 0.07031,0.6445312 c 0.210937,0.058594 0.492187,0.082031 0.714844,0.082031 0.351562,0 0.714843,-0.1171875 1.125,-1.13671875 z m 0,0"
       style="fill:#000000;fill-opacity:1;fill-rule:nonzero;stroke:none"
       aria-label="busy"
       transform="matrix(1.3333333,0,0,1.3333333,134.39333,84.906667)" />
    <path
       id="path14"
       d="m 0,-42.51312 h 62.34517 l 1.41693,10.62698 h 26.9218"
       style="fill:none;stroke:#000000;stroke-width:0.66414;stroke-linecap:round;stroke-linejoin:round;stroke-miterlimit:10;stroke-dasharray:none;stroke-opacity:1"
       transform="matrix(1.3333333,0,0,-1.3333333,166.89333,28.222667)" />
    <path
       id="path15"
       d="m 90.68866,-31.88487 h 34.00647"
       style="fill:none;stroke:#000000;stroke-width:0.66414;stroke-linecap:round;stroke-linejoin:round;stroke-miterlimit:10;stroke-dasharray:2.98883, 2.98883;stroke-dashoffset:0;stroke-opacity:1"
       transform="matrix(1.3333333,0,0,-1.3333333,166.89333,28.222667)" />
    <path
       id="path16"
       d="M 124.70169,-31.88359 H 266.3953 l 1.41693,-10.62697 h 38.25727"
       style="fill:none;stroke:#000000;stroke-width:0.66414;stroke-linecap:round;stroke-linejoin:round;stroke-miterlimit:10;stroke-dasharray:none;stroke-opacity:1"
       transform="matrix(1.3333333,0,0,-1.3333333,166.89333,28.222667)" />
    <path
       id="path17"
       d="m 4.3358984,-2.9654141 c 0,-0.65625 -0.1523437,-1.5703125 -1.3710937,-1.5703125 -0.890625,0 -1.3828125,0.6796875 -1.4414063,0.7617188 V -4.4888516 H 0.80855469 V -5.703125e-4 H 1.5819922 V -2.4380703 c 0,-0.65625 0.2460937,-1.4882813 1.0078125,-1.4882813 0.9609375,0 0.9609375,0.703125 0.9609375,1.03125 v 2.8945312875 h 0.7851562 z m 5.147461,-1.453125 H 8.6982031 v 2.8828125 c 0,0.75000004 -0.5507812,1.10156254 -1.1953125,1.10156254 -0.703125,0 -0.7734375,-0.26953125 -0.7734375,-0.69140624 V -4.4185391 H 5.9560156 v 3.328125 c 0,0.72656254 0.2226563,1.19531254 1.0546875,1.19531254 0.5273438,0 1.2304688,-0.15234375 1.7226563,-0.5859375 v 0.4804687475 h 0.75 z m 7.9130856,1.453125 c 0,-0.6679687 -0.164062,-1.5703125 -1.359375,-1.5703125 -0.597656,0 -1.125,0.28125 -1.488281,0.8203125 -0.257812,-0.7617187 -0.960937,-0.8203125 -1.277344,-0.8203125 -0.714843,0 -1.183593,0.4101563 -1.453125,0.7734375 v -0.7265625 h -0.714843 v 4.4882812875 h 0.773437 V -2.4380703 c 0,-0.6796875 0.269531,-1.4882813 1.007813,-1.4882813 0.925781,0 0.972656,0.6445313 0.972656,1.03125 v 2.8945312875 h 0.785156 V -2.4380703 c 0,-0.6796875 0.269531,-1.4882813 0.996094,-1.4882813 0.9375,0 0.984375,0.6445313 0.984375,1.03125 v 2.8945312875 h 0.773437 z m 2.373047,-3.9492187 h -0.738281 v 6.9140624875 h 0.773437 V -0.45760156 c 0.234375,0.22265625 0.667969,0.5625 1.335938,0.5625 0.996094,0 1.851562,-0.99609375 1.851562,-2.33203124 0,-1.2304688 -0.679687,-2.3085938 -1.617187,-2.3085938 -0.386719,0 -1.007813,0.1054688 -1.605469,0.5859375 z m 0.03516,3.5742187 c 0.164063,-0.234375 0.515625,-0.5859375 1.066407,-0.5859375 0.585937,0 1.347656,0.4335938 1.347656,1.6992188 0,1.30078124 -0.84375,1.72265624 -1.453125,1.72265624 -0.386719,0 -0.714844,-0.17578125 -0.960938,-0.63281254 z m 7.957032,1.1601563 c 0,-0.3398438 -0.01172,-1.0898438 -0.398438,-1.6875 -0.410156,-0.6210938 -1.019531,-0.7265625 -1.371094,-0.7265625 -1.113281,0 -2.003906,1.0546875 -2.003906,2.34375 0,1.31249999 0.949219,2.35546874 2.144531,2.35546874 0.632813,0 1.195313,-0.234375 1.59375,-0.515625 l -0.07031,-0.64453124 c -0.621094,0.51562499 -1.277344,0.55078124 -1.511719,0.55078124 -0.796875,0 -1.429687,-0.70312504 -1.464844,-1.67578124 z m -3.023438,-0.5507813 c 0.152344,-0.7617187 0.679688,-1.2539062 1.253906,-1.2539062 0.515625,0 1.066407,0.3398437 1.195313,1.2539062 z m 4.883789,0.5976563 c 0,-0.9960938 0.726563,-1.7109375 1.699219,-1.734375 v -0.6679688 c -0.890625,0.011719 -1.429687,0.5039063 -1.746094,0.9609375 v -0.9140625 h -0.69141 v 4.4882812875 h 0.738281 z m 3.638672,2.12109374 v -0.8203125 h -0.832031 v 0.8320312475 h 0.257812 L 32.428672,1.2416172 h 0.410156 z m 5.850586,-6.90234374 h -0.738281 v 6.9140624875 h 0.773437 V -0.45760156 c 0.234375,0.22265625 0.667969,0.5625 1.335938,0.5625 0.996094,0 1.851562,-0.99609375 1.851562,-2.33203124 0,-1.2304688 -0.679687,-2.3085938 -1.617187,-2.3085938 -0.386719,0 -1.007813,0.1054688 -1.605469,0.5859375 z m 0.03516,3.5742187 c 0.164063,-0.234375 0.515625,-0.5859375 1.066407,-0.5859375 0.585937,0 1.347656,0.4335938 1.347656,1.6992188 0,1.30078124 -0.84375,1.72265624 -1.453125,1.72265624 -0.386719,0 -0.714844,-0.17578125 -0.960938,-0.63281254 z m 10.655274,0.375 c 0,-0.6679687 -0.164063,-1.5703125 -1.359375,-1.5703125 -0.597656,0 -1.125,0.28125 -1.488281,0.8203125 -0.257813,-0.7617187 -0.960938,-0.8203125 -1.277344,-0.8203125 -0.714844,0 -1.183594,0.4101563 -1.453125,0.7734375 V -4.4888516 H 43.50875 v 4.4882812875 h 0.773438 V -2.4380703 c 0,-0.6796875 0.269531,-1.4882813 1.007812,-1.4882813 0.925781,0 0.972656,0.6445313 0.972656,1.03125 v 2.8945312875 h 0.785157 V -2.4380703 c 0,-0.6796875 0.269531,-1.4882813 0.996093,-1.4882813 0.9375,0 0.984375,0.6445313 0.984375,1.03125 v 2.8945312875 h 0.773438 z m 2.408203,2.50781254 c 0.304687,0.29296875 0.75,0.5625 1.347656,0.5625 0.960938,0 1.839844,-0.97265625 1.839844,-2.33203124 0,-1.1953125 -0.632813,-2.3085938 -1.582031,-2.3085938 -0.597657,0 -1.171875,0.2109375 -1.640625,0.5976563 v -0.4804688 h -0.738282 v 6.3515625 h 0.773438 z m 0,-2.85937504 c 0.234375,-0.3515625 0.632812,-0.5742187 1.054687,-0.5742187 0.761719,0 1.359375,0.75 1.359375,1.6640625 0,1.03125 -0.714843,1.72265624 -1.453125,1.72265624 -0.398437,0 -0.65625,-0.19921875 -0.855468,-0.45703125 C 52.209922,-1.1138516 52.209922,-1.1372891 52.209922,-1.3130703 Z m 5.182617,-3.4570312 h -0.890625 v 0.890625 h 0.890625 z m -0.07031,2.3554687 h -0.75 v 4.4179687875 h 0.75 z m 5.144531,-2.4960937 h -0.75 v 2.9296875 c -0.527344,-0.4335938 -1.078125,-0.5507813 -1.453125,-0.5507813 -0.984375,0 -1.757813,1.0429688 -1.757813,2.3203125 0,1.31250004 0.761719,2.32031254 1.710938,2.32031254 0.328125,0 0.914062,-0.08203125 1.476562,-0.62109375 v 0.5156249975 h 0.773438 z m -0.773438,5.53125 c 0,0.140625 -0.01172,0.3164062 -0.328125,0.60937499 -0.234375,0.19921875 -0.480468,0.26953125 -0.738281,0.26953125 -0.621094,0 -1.347656,-0.45703125 -1.347656,-1.69921874 0,-1.3125 0.855469,-1.7226563 1.441406,-1.7226563 0.445313,0 0.75,0.234375 0.972656,0.5507813 z m 4.186524,-0.9023438 1.828125,-2.1328125 h -0.820313 l -1.335937,1.640625 -1.371094,-1.640625 h -0.832031 l 1.875,2.1328125 L 63.29,-5.703125e-4 h 0.820313 L 65.551719,-1.8755703 67.04,-5.703125e-4 h 0.832031 z m 3.796875,2.27343754 v -0.8203125 H 68.844688 V -5.703125e-4 H 69.1025 L 68.844688,1.2416172 h 0.410156 z m 8.381836,-4.14843754 c -0.597657,-0.3398437 -0.9375,-0.4335937 -1.535157,-0.4335937 -1.394531,0 -2.191406,1.2070312 -2.191406,2.3789062 0,1.24218754 0.902344,2.32031254 2.144531,2.32031254 0.539063,0 1.089844,-0.140625 1.628907,-0.50390625 L 78.04685,-1.0669766 c -0.515625,0.39843754 -1.054688,0.53906254 -1.558594,0.53906254 -0.820312,0 -1.382812,-0.71484374 -1.382812,-1.69921874 0,-0.7734375 0.363281,-1.7226563 1.417968,-1.7226563 0.527344,0 0.867188,0.070312 1.40625,0.4335938 z m 4.672851,1.1953125 c 0,-0.65625 -0.152343,-1.5703125 -1.371093,-1.5703125 -0.609375,0 -1.089844,0.3164063 -1.40625,0.7148438 v -3.09375 h -0.75 V -5.703125e-4 H 79.9775 V -2.4380703 c 0,-0.65625 0.246094,-1.4882813 1.007813,-1.4882813 0.960937,0 0.960937,0.703125 0.960937,1.03125 v 2.8945312875 h 0.785156 z m 4.78418,0.082031 c 0,-1.0078125 -0.726563,-1.7109375 -1.640625,-1.7109375 -0.644531,0 -1.101563,0.1640625 -1.570313,0.4335937 l 0.07031,0.65625 c 0.515625,-0.375 1.007812,-0.5039062 1.5,-0.5039062 0.46875,0 0.867187,0.3984375 0.867187,1.1367187 v 0.4335938 c -1.5,0.011719 -2.765625,0.4335937 -2.765625,1.3125 0,0.42187499 0.269532,1.23046874 1.136719,1.23046874 0.140625,0 1.078125,-0.01171875 1.652344,-0.46875 v 0.3632812475 h 0.75 z m -0.773438,1.5703125 c 0,0.1875 0,0.43359374 -0.339843,0.62109374 -0.292969,0.1875 -0.667969,0.1875 -0.773438,0.1875 -0.480469,0 -0.925781,-0.22265625 -0.925781,-0.64453124 0,-0.6914063 1.605469,-0.7617188 2.039062,-0.7851563 z m 2.871094,-0.8203125 c 0,-0.9960938 0.726563,-1.7109375 1.699219,-1.734375 v -0.6679688 c -0.890625,0.011719 -1.429688,0.5039063 -1.746094,0.9609375 v -0.9140625 h -0.691406 v 4.4882812875 h 0.738281 z m 8.501953,-2.2851563 h -0.726562 l -0.644531,2.109375 c -0.105469,0.3515625 -0.398438,1.34765629 -0.457032,1.76953129 H 96.27536 C 96.2402,-0.84432061 95.99411,-1.7349456 95.818328,-2.2974456 l -0.644531,-2.1210938 h -0.691406 l -0.574219,1.8632813 c -0.105469,0.3515625 -0.445312,1.5 -0.492187,2.00390624 -0.0586,-0.48046844 -0.386727,-1.60546844 -0.539071,-2.14453094 L 92.361289,-4.4185391 H 91.59957 l 1.359375,4.4179687875 H 93.75582 C 93.802695,-0.16463281 94.154258,-1.2779141 94.365195,-2.0513516 94.50582,-2.5083828 94.78707,-3.4927578 94.810508,-3.8677578 h 0.01172 c 0.02344,0.28125 0.1875,0.9726562 0.328125,1.3945312 l 0.726562,2.4726562875 h 0.867188 z m 1.790039,-2.3554687 h -0.890625 v 0.890625 h 0.890625 z m -0.07031,2.3554687 h -0.75 v 4.4179687875 h 0.75 z m 5.135736,-2.4960937 h -0.75 v 2.9296875 c -0.52734,-0.4335938 -1.07812,-0.5507813 -1.45312,-0.5507813 -0.98438,0 -1.75781,1.0429688 -1.75781,2.3203125 0,1.31250004 0.76172,2.32031254 1.71093,2.32031254 0.32813,0 0.91407,-0.08203125 1.47657,-0.62109375 v 0.5156249975 h 0.77343 z m -0.77343,5.53125 c 0,0.140625 -0.0117,0.3164062 -0.32813,0.60937499 -0.23437,0.19921875 -0.48047,0.26953125 -0.73828,0.26953125 -0.62109,0 -1.34766,-0.45703125 -1.34766,-1.69921874 0,-1.3125 0.85547,-1.7226563 1.44141,-1.7226563 0.44531,0 0.75,0.234375 0.97266,0.5507813 z M 107.54,-3.8443203 h 1.40625 V -4.4185391 H 107.54 v -1.265625 h -0.69141 v 1.265625 h -0.86718 v 0.5742188 h 0.84375 v 2.6601562 c 0,0.59765629 0.1289,1.28906254 0.82031,1.28906254 0.70312,0 1.20703,-0.24609375 1.45312,-0.375 l -0.15234,-0.5859375 c -0.25781,0.2109375 -0.58594,0.328125 -0.90234,0.328125 -0.36328,0 -0.50391,-0.3046875 -0.50391,-0.83203124 z m 6.1875,0.8789062 c 0,-0.65625 -0.15234,-1.5703125 -1.37109,-1.5703125 -0.60938,0 -1.08985,0.3164063 -1.40625,0.7148438 v -3.09375 h -0.75 v 6.9140624875 h 0.77343 V -2.4380703 c 0,-0.65625 0.2461,-1.4882813 1.00782,-1.4882813 0.96093,0 0.96093,0.703125 0.96093,1.03125 v 2.8945312875 h 0.78516 z m 0,0"
       style="fill:#000000;fill-opacity:1;fill-rule:nonzero;stroke:none"
       aria-label="number,bmpidx,charwidth"
       transform="matrix(1.3333333,0,0,1.3333333,6.6133333,113.25467)" />
    <path
       id="path18"
       d="m 0,-53.14656 39.6742,-6.7e-4 1.41693,-5.31348 L 39.6742,-63.7742 0,-63.77353"
       style="fill:none;stroke:#000000;stroke-width:0.66414;stroke-linecap:round;stroke-linejoin:round;stroke-miterlimit:10;stroke-dasharray:none;stroke-opacity:1"
       transform="matrix(1.3333333,0,0,-1.3333333,166.89333,28.222667)" />
    <path
       id="path19"
       d="M 4.3185026,-6.9121875 H 3.5763151 V -3.9825 c -0.5273437,-0.4296875 -1.09375,-0.546875 -1.4453125,-0.546875 -0.9960937,0 -1.77734375,1.0351562 -1.77734375,2.3242187 0,1.3085938 0.78125005,2.3242188 1.71875005,2.3242188 0.3320312,0 0.9179687,-0.09765625 1.484375,-0.64453125 V 0.001875 h 0.7617187 z m -0.7617187,5.5273437 c 0,0.1367188 -0.019531,0.3125 -0.3320313,0.6054688 -0.234375,0.1953125 -0.4882812,0.29296875 -0.7421875,0.29296875 -0.625,0 -1.3476562,-0.46875 -1.3476562,-1.71875005 0,-1.3085937 0.859375,-1.71875 1.4453125,-1.71875 0.4492187,0 0.7421875,0.234375 0.9765625,0.546875 z M 9.8165495,-2.185625 c 0,-1.3476563 -0.9960938,-2.4023438 -2.1875,-2.4023438 -1.2109375,0 -2.1875,1.09375 -2.1875,2.4023438 0,1.30859375 1.015625,2.3046875 2.1875,2.3046875 1.1914062,0 2.1875,-1.015625 2.1875,-2.3046875 z m -2.1875,1.66015625 c -0.6835938,0 -1.40625,-0.56640625 -1.40625,-1.75781255 0,-1.2109375 0.7617187,-1.6992187 1.40625,-1.6992187 0.703125,0 1.40625,0.5273437 1.40625,1.6992187 0,1.171875 -0.6640625,1.75781255 -1.40625,1.75781255 z M 14.464987,-2.966875 c 0,-0.6640625 -0.15625,-1.5625 -1.367188,-1.5625 -0.898437,0 -1.386718,0.6835937 -1.445312,0.7617187 v -0.703125 H 10.929831 V 0.001875 h 0.78125 v -2.4414063 c 0,-0.6640625 0.253906,-1.484375 1.015625,-1.484375 0.957031,0 0.957031,0.703125 0.957031,1.0351563 v 2.890625 h 0.78125 z m 2.607422,-3.125 v -0.8203125 h -0.839844 v 0.8203125 h 0.253906 l -0.253906,1.25 h 0.410156 z m 2.709961,2.2460937 h 1.40625 v -0.5664062 h -1.40625 v -1.2695313 h -0.683594 v 1.2695313 h -0.859375 v 0.5664062 h 0.839844 v 2.65625 c 0,0.6054688 0.136719,1.3085938 0.820312,1.3085938 0.703125,0 1.210938,-0.25390625 1.445313,-0.390625 L 21.18862,-0.8575 c -0.253906,0.21484375 -0.566406,0.33203125 -0.898438,0.33203125 -0.371093,0 -0.507812,-0.29296875 -0.507812,-0.82031255 z m 9.257812,-0.3125 c -0.585937,-0.3515625 -0.917968,-0.4296875 -1.523437,-0.4296875 -1.386719,0 -2.207031,1.2109375 -2.207031,2.3828125 0,1.2304688 0.917968,2.3242188 2.167968,2.3242188 0.527344,0 1.074219,-0.15625 1.621094,-0.5078125 l -0.05859,-0.6835938 c -0.507812,0.4101563 -1.054687,0.54687505 -1.5625,0.54687505 -0.820312,0 -1.386718,-0.72265625 -1.386718,-1.69921875 0,-0.78125 0.371093,-1.71875 1.425781,-1.71875 0.527344,0 0.859375,0.078125 1.40625,0.4296875 z m 4.311524,1.2890625 c 0,-1.015625 -0.722657,-1.71875 -1.640625,-1.71875 -0.644532,0 -1.09375,0.15625 -1.5625,0.4296875 l 0.05859,0.6445313 c 0.527344,-0.3515625 1.015625,-0.4882813 1.503907,-0.4882813 0.46875,0 0.878906,0.390625 0.878906,1.1328125 v 0.4296875 c -1.503906,0.019531 -2.773438,0.4296875 -2.773438,1.3085938 0,0.4296875 0.273438,1.25 1.152344,1.25 0.136719,0 1.074219,-0.01953125 1.640625,-0.46875 V 0.001875 h 0.742188 z m -0.761719,1.5625 c 0,0.1757813 0,0.42968755 -0.351563,0.62500005 -0.273437,0.17578125 -0.664062,0.1953125 -0.761718,0.1953125 -0.488282,0 -0.9375,-0.234375 -0.9375,-0.66406255 0,-0.6835937 1.621093,-0.7617187 2.050781,-0.78125 z m 2.875977,-0.8203125 c 0,-0.9960937 0.722656,-1.71875 1.699218,-1.7382812 V -4.529375 c -0.898437,0 -1.445312,0.4882812 -1.738281,0.9570312 V -4.4707813 H 34.723776 V 0.001875 h 0.742188 z m 5.957031,-0.058594 c 0,-0.3320313 0,-1.0742188 -0.390625,-1.6796875 -0.410156,-0.6054688 -1.015625,-0.7226563 -1.386719,-0.7226563 -1.09375,0 -1.992187,1.0546875 -1.992187,2.34375 0,1.3085938 0.957031,2.3632813 2.148437,2.3632813 0.625,0 1.191406,-0.25390625 1.582031,-0.52734375 l -0.05859,-0.64453125 c -0.625,0.5078125 -1.289063,0.56640625 -1.503907,0.56640625 -0.800781,0 -1.445312,-0.72265625 -1.464843,-1.69921875 z M 38.395651,-2.7325 c 0.15625,-0.7421875 0.683594,-1.25 1.25,-1.25 0.527344,0 1.074219,0.3320312 1.210938,1.25 z m 0,0"
       style="fill:#000000;fill-opacity:1;fill-rule:nonzero;stroke:none"
       aria-label="don’tcare"
       transform="matrix(0.8,0,0,0.8,176.65067,108.936)" />
    <path
       id="path20"
       d="m 41.09543,-58.45938 1.41691,5.31348 223.87371,-6.6e-4 1.41693,-5.31349 -1.41693,-5.31351 -223.87155,0.0014 -1.41694,5.31348"
       style="fill:none;stroke:#000000;stroke-width:0.66414;stroke-linecap:round;stroke-linejoin:round;stroke-miterlimit:10;stroke-dasharray:none;stroke-opacity:1"
       transform="matrix(1.3333333,0,0,-1.3333333,166.89333,28.222667)" />
    <path
       id="path21"
       d="M 4.4317448,-4.4154036 H 3.6895573 l -0.78125,2.0703125 C 2.6934635,-1.7982161 2.3809635,-0.9974349 2.3028385,-0.5286849 2.2442448,-0.8802474 1.9708073,-1.5833724 1.873151,-1.8372786 l -0.95703121,-2.578125 h -0.78125 L 1.8536198,-0.00134115 H 2.732526 Z m 4.1259766,1.5429687 c 0,-1.015625 -0.7226563,-1.71875 -1.640625,-1.71875 -0.6445313,0 -1.09375,0.15625 -1.5625,0.4296875 l 0.058594,0.6445313 c 0.5273438,-0.3515625 1.015625,-0.4882813 1.5039063,-0.4882813 0.46875,0 0.8789062,0.390625 0.8789062,1.1328125 v 0.4296875 c -1.5039062,0.019531 -2.7734375,0.4296875 -2.7734375,1.3085938 0,0.42968745 0.2734375,1.24999995 1.1523438,1.24999995 0.1367187,0 1.0742187,-0.01953125 1.640625,-0.46875 v 0.3515625 h 0.7421875 z m -0.7617188,1.5625 c 0,0.1757813 0,0.4296875 -0.3515625,0.625 -0.2734375,0.17578125 -0.6640625,0.1953125 -0.7617187,0.1953125 -0.4882813,0 -0.9375,-0.234375 -0.9375,-0.6640625 0,-0.6835937 1.6210937,-0.7617187 2.0507812,-0.78125 z m 3.1494144,-5.6054687 h -0.761719 v 6.91406245 h 0.761719 z m 2.436523,0.1367187 h -0.878906 v 0.8984375 h 0.878906 z m -0.05859,2.3632813 h -0.761718 v 4.41406245 h 0.761718 z m 5.136719,-2.5 h -0.742187 v 2.9296875 c -0.527344,-0.4296875 -1.09375,-0.546875 -1.445313,-0.546875 -0.996094,0 -1.777344,1.0351562 -1.777344,2.3242187 0,1.30859375 0.78125,2.32421875 1.71875,2.32421875 0.332032,0 0.917969,-0.09765625 1.484375,-0.64453125 v 0.52734375 h 0.761719 z m -0.761719,5.5273437 c 0,0.1367188 -0.01953,0.3125 -0.332031,0.60546875 -0.234375,0.1953125 -0.488281,0.29296875 -0.742187,0.29296875 -0.625,0 -1.347657,-0.46875 -1.347657,-1.71875 0,-1.3085937 0.859375,-1.71875 1.445313,-1.71875 0.449219,0 0.742187,0.234375 0.976562,0.546875 z m 0,0"
       style="fill:#000000;fill-opacity:1;fill-rule:nonzero;stroke:none"
       aria-label="valid"
       transform="matrix(0.8,0,0,0.8,365.11867,108.93467)" />
    <path
       id="path22"
       d="m 267.84526,-58.45805 1.41693,5.31346 36.81209,-0.0013 m 0,-10.62699 -36.81209,0.0013 -1.41693,5.3135"
       style="fill:none;stroke:#000000;stroke-width:0.66414;stroke-linecap:round;stroke-linejoin:round;stroke-miterlimit:10;stroke-dasharray:none;stroke-opacity:1"
       transform="matrix(1.3333333,0,0,-1.3333333,166.89333,28.222667)" />
    <path
       id="path23"
       d="M 4.3178516,-6.913737 H 3.5756641 v 2.9296875 c -0.5273438,-0.4296875 -1.09375,-0.546875 -1.4453125,-0.546875 -0.9960938,0 -1.77734379,1.0351563 -1.77734379,2.3242188 0,1.30859372 0.78124999,2.32421872 1.71874999,2.32421872 0.3320313,0 0.9179688,-0.09765625 1.484375,-0.64453125 V 3.2552083e-4 h 0.7617188 z m -0.7617188,5.5273438 c 0,0.1367187 -0.019531,0.3125 -0.3320312,0.60546872 -0.234375,0.1953125 -0.4882813,0.29296875 -0.7421875,0.29296875 -0.625,0 -1.3476563,-0.46875 -1.3476563,-1.71874997 0,-1.3085938 0.859375,-1.71875 1.4453125,-1.71875 0.4492188,0 0.7421875,0.234375 0.9765625,0.546875 z m 6.2597656,-0.8007813 c 0,-1.3476562 -0.9960937,-2.4023437 -2.1875,-2.4023437 -1.2109375,0 -2.1875,1.09375 -2.1875,2.4023437 0,1.30859377 1.015625,2.30468752 2.1875,2.30468752 1.1914063,0 2.1875,-1.015625 2.1875,-2.30468752 z m -2.1875,1.66015627 c -0.6835937,0 -1.40625,-0.56640627 -1.40625,-1.75781247 0,-1.2109375 0.7617188,-1.6992188 1.40625,-1.6992188 0.703125,0 1.40625,0.5273438 1.40625,1.6992188 0,1.171875 -0.6640625,1.75781247 -1.40625,1.75781247 z M 14.464336,-2.9684245 c 0,-0.6640625 -0.15625,-1.5625 -1.367188,-1.5625 -0.898437,0 -1.386718,0.6835938 -1.445312,0.7617188 v -0.703125 H 10.92918 V 3.2552083e-4 h 0.78125 V -2.4410807 c 0,-0.6640625 0.253906,-1.484375 1.015625,-1.484375 0.957031,0 0.957031,0.703125 0.957031,1.0351562 V 3.2552083e-4 h 0.78125 z m 2.607422,-3.125 V -6.913737 h -0.839844 v 0.8203125 h 0.253906 l -0.253906,1.25 h 0.410156 z m 2.709961,2.2460938 h 1.40625 V -4.413737 h -1.40625 V -5.6832682 H 19.098125 V -4.413737 H 18.23875 v 0.5664063 h 0.839844 v 2.65625 c 0,0.60546872 0.136718,1.30859372 0.820312,1.30859372 0.703125,0 1.210938,-0.25390625 1.445313,-0.390625 l -0.15625,-0.5859375 c -0.253907,0.21484375 -0.566407,0.33203125 -0.898438,0.33203125 -0.371094,0 -0.507812,-0.29296875 -0.507812,-0.82031247 z m 9.257812,-0.3125 c -0.585937,-0.3515625 -0.917969,-0.4296875 -1.523437,-0.4296875 -1.386719,0 -2.207032,1.2109375 -2.207032,2.3828125 0,1.23046872 0.917969,2.32421872 2.167969,2.32421872 0.527344,0 1.074219,-0.15625 1.621094,-0.5078125 l -0.05859,-0.68359372 c -0.507812,0.41015622 -1.054687,0.54687497 -1.5625,0.54687497 -0.820312,0 -1.386719,-0.72265627 -1.386719,-1.69921877 0,-0.78125 0.371094,-1.71875 1.425782,-1.71875 0.527343,0 0.859375,0.078125 1.40625,0.4296875 z m 4.311524,1.2890625 c 0,-1.015625 -0.722657,-1.71875 -1.640625,-1.71875 -0.644532,0 -1.09375,0.15625 -1.5625,0.4296875 l 0.05859,0.6445312 c 0.527344,-0.3515625 1.015625,-0.4882812 1.503907,-0.4882812 0.46875,0 0.878906,0.390625 0.878906,1.1328125 v 0.4296875 c -1.503906,0.019531 -2.773438,0.4296875 -2.773438,1.3085937 0,0.42968752 0.273438,1.25000002 1.152344,1.25000002 0.136719,0 1.074219,-0.01953125 1.640625,-0.46875 V 3.2552083e-4 h 0.742188 z m -0.761719,1.5625 c 0,0.1757812 0,0.42968747 -0.351563,0.62499997 -0.273437,0.17578125 -0.664062,0.1953125 -0.761718,0.1953125 -0.488282,0 -0.9375,-0.234375 -0.9375,-0.66406247 0,-0.6835938 1.621093,-0.7617188 2.050781,-0.78125 z m 2.871094,-0.8203125 c 0,-0.9960938 0.722656,-1.71875 1.699218,-1.7382813 v -0.6640625 c -0.898437,0 -1.445312,0.4882813 -1.738281,0.9570313 V -4.4723307 H 34.718242 V 3.2552083e-4 h 0.742188 z m 5.961914,-0.058594 c 0,-0.3320312 0,-1.0742187 -0.390625,-1.6796875 -0.410157,-0.6054687 -1.015625,-0.7226562 -1.386719,-0.7226562 -1.09375,0 -1.992188,1.0546875 -1.992188,2.34375 0,1.30859372 0.957032,2.36328122 2.148438,2.36328122 0.625,0 1.191406,-0.25390625 1.582031,-0.52734375 L 41.324687,-1.054362 c -0.625,0.50781252 -1.289062,0.56640627 -1.503906,0.56640627 -0.800781,0 -1.445312,-0.72265627 -1.464844,-1.69921877 z M 38.395,-2.7340495 c 0.15625,-0.7421875 0.683594,-1.25 1.25,-1.25 0.527344,0 1.074219,0.3320313 1.210937,1.25 z m 0,0"
       style="fill:#000000;fill-opacity:1;fill-rule:nonzero;stroke:none"
       aria-label="don’tcare"
       transform="matrix(0.8,0,0,0.8,533.784,108.93333)" />
    <path
       id="path24"
       d="m 3.5030469,-3.8915234 c 0.2226562,0 0.5039062,-0.046875 0.7382812,-0.046875 0.1757813,0 0.5742188,0.035156 0.5859375,0.035156 L 4.7217969,-4.5360547 c -0.703125,0 -1.2773438,0.1875 -1.5703125,0.3164063 -0.2109375,-0.1640625 -0.5507813,-0.3164063 -0.9492188,-0.3164063 -0.8554687,0 -1.58203122,0.7148438 -1.58203122,1.6289063 0,0.3632812 0.12890625,0.7265625 0.328125,0.984375 -0.29296875,0.4101562 -0.29296875,0.796875 -0.29296875,0.84375 0,0.25781246 0.09375,0.55078121 0.2578125,0.76171871 -0.515625,0.3046875 -0.6328125,0.76171875 -0.6328125,1.01953125 0,0.75000004 0.98437497,1.34765624 2.20312497,1.34765624 1.21875,0 2.203125,-0.5859375 2.203125,-1.34765624 0,-1.39453125 -1.6640625,-1.39453125 -2.0507812,-1.39453125 H 1.7569531 c -0.1289062,0 -0.5742187,0 -0.5742187,-0.52734371 0,-0.1054688 0.046875,-0.2695313 0.1171875,-0.3515625 0.1992187,0.140625 0.5273437,0.28125 0.9023437,0.28125 0.890625,0 1.59375,-0.7382813 1.59375,-1.6171875 0,-0.4804688 -0.2226562,-0.84375 -0.328125,-0.9960938 z m -1.3007813,2.0390625 c -0.375,0 -0.890625,-0.234375 -0.890625,-1.0546875 0,-0.8320313 0.515625,-1.0546875 0.890625,-1.0546875 0.421875,0 0.890625,0.2695312 0.890625,1.0546875 0,0.7734375 -0.46875,1.0546875 -0.890625,1.0546875 z m 0.4453125,1.88671871 c 0.2226563,0 1.3476563,0 1.3476563,0.6796875 0,0.44531249 -0.6914063,0.77343749 -1.5,0.77343749 -0.8085938,0 -1.52343752,-0.3164062 -1.52343752,-0.78515624 0,-0.0234375 0,-0.66796875 0.78515622,-0.66796875 z M 9.0723828,-4.1610547 c -0.5976562,-0.3398437 -0.9375,-0.4335937 -1.5351562,-0.4335937 -1.3945313,0 -2.1914063,1.2070312 -2.1914063,2.3789062 0,1.24218751 0.9023438,2.32031251 2.1445313,2.32031251 0.5390625,0 1.0898437,-0.140625 1.6289062,-0.50390625 L 9.0606641,-1.0673047 c -0.515625,0.39843751 -1.0546875,0.53906251 -1.5585938,0.53906251 -0.8203125,0 -1.3828125,-0.71484371 -1.3828125,-1.69921871 0,-0.7734375 0.3632813,-1.7226563 1.4179688,-1.7226563 0.5273437,0 0.8671875,0.070312 1.40625,0.4335938 z m 1.9658202,-2.6132812 h -0.890625 v 0.890625 h 0.890625 z m -0.07031,2.3554687 h -0.75 v 4.4179687625 h 0.75 z m 0,0"
       style="fill:#000000;fill-opacity:1;fill-rule:nonzero;stroke:none"
       aria-label="gci"
       transform="matrix(1.3333333,0,0,1.3333333,111.49333,141.60667)" />
    <path
       id="path25"
       d="M 0,0 H 2.989"
       style="fill:none;stroke:#000000;stroke-width:0.398;stroke-linecap:butt;stroke-linejoin:round;stroke-miterlimit:10;stroke-dasharray:none;stroke-opacity:1"
       transform="matrix(1.3333333,0,0,-1.3333333,128.00933,141.34133)" />
    <path
       id="path26"
       d="M 1.6299766,-6.7743359 H 0.73935156 v 0.890625 H 1.6299766 Z m -0.070312,2.3554687 H 0.80966406 V -8.984375e-4 H 1.5596641 Z m 5.15625,1.453125 c 0,-0.65625 -0.1523438,-1.5703125 -1.3710938,-1.5703125 -0.890625,0 -1.3828125,0.6796875 -1.4414062,0.7617188 V -4.4891797 H 3.1885703 V -8.984375e-4 H 3.9620078 V -2.4383984 c 0,-0.65625 0.2460938,-1.4882813 1.0078125,-1.4882813 0.9609375,0 0.9609375,0.703125 0.9609375,1.03125 v 2.8945312625 h 0.7851563 z m 2.6044922,2.13281251 H 8.488375 V -8.984375e-4 H 9.3204063 Z M 16.952242,-4.4188672 H 16.22568 l -0.644532,2.109375 c -0.105468,0.3515625 -0.398437,1.34765626 -0.457031,1.76953126 h -0.01172 c -0.03516,-0.3046875 -0.28125,-1.19531246 -0.457031,-1.75781246 l -0.64453,-2.1210938 H 13.31943 l -0.574219,1.8632813 c -0.105469,0.3515625 -0.445313,1.5 -0.492188,2.00390621 C 12.19443,-1.0321484 11.866305,-2.1571484 11.713961,-2.6962109 l -0.515625,-1.7226563 h -0.761719 l 1.359375,4.4179687625 h 0.796875 C 12.639742,-0.16496094 12.991305,-1.2782422 13.202242,-2.0516797 c 0.140625,-0.4570312 0.421875,-1.4414062 0.445313,-1.8164062 h 0.01172 c 0.02344,0.28125 0.1875,0.9726562 0.328125,1.3945312 l 0.726563,2.4726562625 h 0.867187 z m 1.708008,2.2851563 c 0,-0.9960938 0.726563,-1.7109375 1.699219,-1.734375 v -0.6679688 c -0.890625,0.011719 -1.429688,0.5039063 -1.746094,0.9609375 v -0.9140625 h -0.691406 v 4.4882812625 h 0.738281 z m 0,0"
       style="fill:#000000;fill-opacity:1;fill-rule:nonzero;stroke:none"
       aria-label="in.wr"
       transform="matrix(1.3333333,0,0,1.3333333,131.99467,141.60667)" />
    <path
       id="path27"
       d="M 0,-85.03915 H 90.6839"
       style="fill:none;stroke:#000000;stroke-width:0.66414;stroke-linecap:round;stroke-linejoin:round;stroke-miterlimit:10;stroke-dasharray:none;stroke-opacity:1"
       transform="matrix(1.3333333,0,0,-1.3333333,166.89333,28.222667)" />
    <path
       id="path28"
       d="m 90.68866,-85.03915 h 34.00647"
       style="fill:none;stroke:#000000;stroke-width:0.66414;stroke-linecap:round;stroke-linejoin:round;stroke-miterlimit:10;stroke-dasharray:2.98883, 2.98883;stroke-dashoffset:0;stroke-opacity:1"
       transform="matrix(1.3333333,0,0,-1.3333333,166.89333,28.222667)" />
    <path
       id="path29"
       d="m 124.70169,-85.03915 h 5.66773 l 1.41693,10.62696 h 21.25405"
       style="fill:none;stroke:#000000;stroke-width:0.66414;stroke-linecap:round;stroke-linejoin:round;stroke-miterlimit:10;stroke-dasharray:none;stroke-opacity:1"
       transform="matrix(1.3333333,0,0,-1.3333333,166.89333,28.222667)" />
    <path
       id="path30"
       d="m 153.04845,-74.4109 1.41691,-5.31348"
       style="fill:none;stroke:#000000;stroke-width:0.66414;stroke-linecap:round;stroke-linejoin:round;stroke-miterlimit:10;stroke-dasharray:2.98883, 2.98883;stroke-dashoffset:0;stroke-opacity:1"
       transform="matrix(1.3333333,0,0,-1.3333333,166.89333,28.222667)" />
    <path
       id="path31"
       d="m 154.47348,-79.72374 1.41693,5.31346 65.18706,0.0013 1.41693,-5.31347 -1.41693,-5.31349 -65.17896,-6.3e-4 -1.41691,5.31349"
       style="fill:none;stroke:#000000;stroke-width:0.66414;stroke-linecap:round;stroke-linejoin:round;stroke-miterlimit:10;stroke-dasharray:2.98883, 2.98883;stroke-dashoffset:0;stroke-opacity:1"
       transform="matrix(1.3333333,0,0,-1.3333333,166.89333,28.222667)" />
    <path
       id="path32"
       d="m 222.52951,-79.72055 1.41692,5.31348 19.81366,-0.0013 1.41691,-10.62696 h 60.92827"
       style="fill:none;stroke:#000000;stroke-width:0.66414;stroke-linecap:round;stroke-linejoin:round;stroke-miterlimit:10;stroke-dasharray:none;stroke-opacity:1"
       transform="matrix(1.3333333,0,0,-1.3333333,166.89333,28.222667)" />
    <path
       id="path33"
       d="m 3.5037734,-3.8919219 c 0.2226563,0 0.5039063,-0.046875 0.7382813,-0.046875 0.1757812,0 0.5742187,0.035156 0.5859375,0.035156 L 4.7225234,-4.5364531 c -0.703125,0 -1.2773437,0.1875 -1.5703125,0.3164062 -0.2109375,-0.1640625 -0.5507812,-0.3164062 -0.9492187,-0.3164062 -0.8554688,0 -1.58203126,0.7148437 -1.58203126,1.6289062 0,0.3632813 0.12890625,0.7265625 0.328125,0.984375 -0.29296875,0.4101563 -0.29296875,0.796875 -0.29296875,0.84375 0,0.25781252 0.09375,0.55078127 0.2578125,0.76171877 -0.515625,0.3046875 -0.6328125,0.76171875 -0.6328125,1.01953125 0,0.74999998 0.98437501,1.34765628 2.20312501,1.34765628 1.21875,0 2.203125,-0.5859375 2.203125,-1.34765628 0,-1.39453125 -1.6640625,-1.39453125 -2.0507813,-1.39453125 H 1.7576797 c -0.1289063,0 -0.5742188,0 -0.5742188,-0.52734377 0,-0.1054687 0.046875,-0.2695312 0.1171875,-0.3515625 0.1992188,0.140625 0.5273438,0.28125 0.9023438,0.28125 0.890625,0 1.59375,-0.7382812 1.59375,-1.6171875 0,-0.4804687 -0.2226563,-0.84375 -0.328125,-0.9960937 z m -1.3007812,2.0390625 c -0.375,0 -0.890625,-0.234375 -0.890625,-1.0546875 0,-0.8320312 0.515625,-1.0546875 0.890625,-1.0546875 0.421875,0 0.890625,0.2695313 0.890625,1.0546875 0,0.7734375 -0.46875,1.0546875 -0.890625,1.0546875 z m 0.4453125,1.88671877 c 0.2226562,0 1.3476562,0 1.3476562,0.6796875 0,0.44531253 -0.6914062,0.77343753 -1.5,0.77343753 -0.8085937,0 -1.52343746,-0.3164063 -1.52343746,-0.78515628 0,-0.0234375 0,-0.66796875 0.78515626,-0.66796875 z m 6.421875,-4.19531247 c -0.5976563,-0.3398438 -0.9375,-0.4335938 -1.5351563,-0.4335938 -1.3945312,0 -2.1914062,1.2070313 -2.1914062,2.3789063 0,1.24218747 0.9023437,2.32031247 2.1445312,2.32031247 0.5390625,0 1.0898438,-0.140625 1.6289063,-0.50390625 L 9.0584609,-1.0677031 c -0.515625,0.39843747 -1.0546875,0.53906247 -1.5585937,0.53906247 -0.8203125,0 -1.3828125,-0.71484377 -1.3828125,-1.69921877 0,-0.7734375 0.3632812,-1.7226562 1.4179687,-1.7226562 0.5273438,0 0.8671875,0.070312 1.40625,0.4335937 z M 11.03893,-6.7747344 h -0.890625 v 0.890625 h 0.890625 z m -0.07031,2.3554688 h -0.75 v 4.41796872 h 0.75 z m 0,0"
       style="fill:#000000;fill-opacity:1;fill-rule:nonzero;stroke:none"
       aria-label="gci"
       transform="matrix(1.3333333,0,0,1.3333333,82.285333,169.96267)" />
    <path
       id="path34"
       d="M 0,0 H 2.989"
       style="fill:none;stroke:#000000;stroke-width:0.398;stroke-linecap:butt;stroke-linejoin:round;stroke-miterlimit:10;stroke-dasharray:none;stroke-opacity:1"
       transform="matrix(1.3333333,0,0,-1.3333333,98.8,169.69733)" />
    <path
       id="path35"
       d="M 1.6287734,-6.7747344 H 0.73814844 v 0.890625 H 1.6287734 Z m -0.070312,2.3554688 H 0.80846094 v 4.41796872 H 1.5584609 Z m 5.15625,1.453125 c 0,-0.65625 -0.1523437,-1.5703125 -1.3710937,-1.5703125 -0.890625,0 -1.3828125,0.6796875 -1.4414063,0.7617187 V -4.4895781 H 3.1873672 v 4.48828122 H 3.9608047 V -2.4387969 c 0,-0.65625 0.2460937,-1.4882812 1.0078125,-1.4882812 0.9609375,0 0.9609375,0.703125 0.9609375,1.03125 v 2.89453122 h 0.7851562 z m 2.6074219,2.13281247 H 8.4901016 v 0.83203125 H 9.3221328 Z M 16.951039,-4.4192656 h -0.726562 l -0.644532,2.109375 c -0.105468,0.3515625 -0.398437,1.34765622 -0.457031,1.76953122 h -0.01172 c -0.03516,-0.3046875 -0.28125,-1.19531252 -0.457031,-1.75781252 l -0.644531,-2.1210937 h -0.691406 l -0.574219,1.8632812 c -0.105469,0.3515625 -0.445313,1.5 -0.492188,2.00390627 -0.05859,-0.48046877 -0.386718,-1.60546877 -0.539062,-2.14453127 l -0.515625,-1.7226562 h -0.761719 l 1.359375,4.41796872 h 0.796875 c 0.04687,-0.1640625 0.398438,-1.27734372 0.609375,-2.05078122 0.140625,-0.4570313 0.421875,-1.4414063 0.445313,-1.8164063 h 0.01172 c 0.02344,0.28125 0.1875,0.9726563 0.328125,1.3945313 l 0.726563,2.47265622 h 0.867187 z m 1.710938,2.2851562 c 0,-0.9960937 0.726562,-1.7109375 1.699218,-1.734375 v -0.6679687 c -0.890625,0.011719 -1.429687,0.5039062 -1.746093,0.9609375 v -0.9140625 h -0.691407 v 4.48828122 h 0.738282 z m 0,0"
       style="fill:#000000;fill-opacity:1;fill-rule:nonzero;stroke:none"
       aria-label="in.wr"
       transform="matrix(1.3333333,0,0,1.3333333,102.78533,169.96267)" />
    <path
       id="path36"
       d="M 0,0 H 2.989"
       style="fill:none;stroke:#000000;stroke-width:0.398;stroke-linecap:butt;stroke-linejoin:round;stroke-miterlimit:10;stroke-dasharray:none;stroke-opacity:1"
       transform="matrix(1.3333333,0,0,-1.3333333,130.924,169.69733)" />
    <path
       id="path37"
       d="m 4.3248359,-6.9153594 h -0.75 v 2.9296875 c -0.5273437,-0.4335937 -1.078125,-0.5507812 -1.453125,-0.5507812 -0.984375,0 -1.75781246,1.0429687 -1.75781246,2.3203125 0,1.31249997 0.76171876,2.32031247 1.71093746,2.32031247 0.328125,0 0.9140625,-0.08203125 1.4765625,-0.62109375 v 0.515625 h 0.7734375 z m -0.7734375,5.53125 c 0,0.140625 -0.011719,0.3164063 -0.328125,0.60937502 -0.234375,0.19921875 -0.4804687,0.26953125 -0.7382812,0.26953125 -0.6210938,0 -1.3476563,-0.45703125 -1.3476563,-1.69921877 0,-1.3125 0.8554688,-1.7226562 1.4414063,-1.7226562 0.4453125,0 0.75,0.234375 0.9726562,0.5507812 z m 5.569336,-1.5 c 0,-1.0078125 -0.7265625,-1.7109375 -1.640625,-1.7109375 -0.6445313,0 -1.1015625,0.1640625 -1.5703125,0.4335938 l 0.070312,0.65625 c 0.515625,-0.375 1.0078125,-0.5039063 1.5,-0.5039063 0.46875,0 0.8671875,0.3984375 0.8671875,1.1367188 v 0.4335937 c -1.5,0.011719 -2.765625,0.4335938 -2.765625,1.3125 0,0.42187502 0.2695312,1.23046877 1.1367187,1.23046877 0.140625,0 1.078125,-0.01171875 1.6523438,-0.46875 v 0.36328125 h 0.75 z m -0.7734375,1.5703125 c 0,0.1875 0,0.43359377 -0.3398438,0.62109377 -0.2929687,0.1875 -0.6679687,0.1875 -0.7734375,0.1875 -0.4804687,0 -0.9257812,-0.22265625 -0.9257812,-0.64453127 0,-0.6914062 1.6054687,-0.7617187 2.0390625,-0.7851562 z m 3.3339841,-2.53125 h 1.40625 v -0.5742187 h -1.40625 v -1.265625 h -0.691406 v 1.265625 h -0.867187 v 0.5742187 h 0.84375 v 2.6601563 c 0,0.59765622 0.128906,1.28906247 0.820312,1.28906247 0.703125,0 1.207031,-0.24609375 1.453125,-0.375 l -0.152344,-0.5859375 c -0.257812,0.2109375 -0.585937,0.328125 -0.902343,0.328125 -0.363282,0 -0.503907,-0.3046875 -0.503907,-0.83203127 z m 5.824219,0.9609375 c 0,-1.0078125 -0.726562,-1.7109375 -1.640625,-1.7109375 -0.644531,0 -1.101562,0.1640625 -1.570312,0.4335938 l 0.07031,0.65625 c 0.515625,-0.375 1.007813,-0.5039063 1.5,-0.5039063 0.46875,0 0.867188,0.3984375 0.867188,1.1367188 v 0.4335937 c -1.5,0.011719 -2.765625,0.4335938 -2.765625,1.3125 0,0.42187502 0.269531,1.23046877 1.136718,1.23046877 0.140625,0 1.078125,-0.01171875 1.652344,-0.46875 v 0.36328125 h 0.75 z m -0.773437,1.5703125 c 0,0.1875 0,0.43359377 -0.339844,0.62109377 -0.292969,0.1875 -0.667969,0.1875 -0.773438,0.1875 -0.480468,0 -0.925781,-0.22265625 -0.925781,-0.64453127 0,-0.6914062 1.605469,-0.7617187 2.039063,-0.7851562 z m 0,0"
       style="fill:#000000;fill-opacity:1;fill-rule:nonzero;stroke:none"
       aria-label="data"
       transform="matrix(1.3333333,0,0,1.3333333,134.90933,169.96267)" />
    <path
       id="path38"
       d="M 0,-106.30608 H 90.6839"
       style="fill:none;stroke:#000000;stroke-width:0.66414;stroke-linecap:round;stroke-linejoin:round;stroke-miterlimit:10;stroke-dasharray:none;stroke-opacity:1"
       transform="matrix(1.3333333,0,0,-1.3333333,166.89333,28.222667)" />
    <path
       id="path39"
       d="m 90.68866,-106.30608 h 34.00647"
       style="fill:none;stroke:#000000;stroke-width:0.66414;stroke-linecap:round;stroke-linejoin:round;stroke-miterlimit:10;stroke-dasharray:2.98883, 2.98883;stroke-dashoffset:0;stroke-opacity:1"
       transform="matrix(1.3333333,0,0,-1.3333333,166.89333,28.222667)" />
    <path
       id="path40"
       d="m 124.70169,-106.30608 h 5.66773 l 1.41693,5.31348"
       style="fill:none;stroke:#000000;stroke-width:0.66414;stroke-linecap:round;stroke-linejoin:round;stroke-miterlimit:10;stroke-dasharray:none;stroke-opacity:1"
       transform="matrix(1.3333333,0,0,-1.3333333,166.89333,28.222667)" />
    <path
       id="path41"
       d="m 131.79327,-100.99196 1.41693,5.31348 h 19.84392 l 1.41692,-5.31348 -1.41692,-5.31351 -19.837,6.7e-4 -1.41693,5.31347"
       style="fill:none;stroke:#000000;stroke-width:0.66414;stroke-linecap:round;stroke-linejoin:round;stroke-miterlimit:10;stroke-dasharray:none;stroke-opacity:1"
       transform="matrix(1.3333333,0,0,-1.3333333,166.89333,28.222667)" />
    <g
       id="g41"
       aria-label="cmd&#10;0"
       transform="matrix(0.8,0,0,0.8,349.06667,165.04533)">
      <path
         id="path42"
         d="M 4.0817057,-4.1582292 C 3.4957682,-4.5097917 3.163737,-4.5879167 2.5582682,-4.5879167 c -1.3867187,0 -2.20703122,1.2109375 -2.20703122,2.3828125 0,1.23046878 0.91796872,2.32421878 2.16796872,2.32421878 0.5273438,0 1.0742188,-0.15625 1.6210938,-0.5078125 L 4.0817057,-1.0722917 c -0.5078125,0.41015628 -1.0546875,0.54687503 -1.5625,0.54687503 -0.8203125,0 -1.3867187,-0.72265623 -1.3867187,-1.69921873 0,-0.78125 0.3710937,-1.71875 1.4257812,-1.71875 0.5273438,0 0.859375,0.078125 1.40625,0.4296875 z m 7.4560543,1.1914063 c 0,-0.6640625 -0.175781,-1.5625 -1.367187,-1.5625 -0.6054688,0 -1.1132813,0.2734375 -1.4843751,0.8203125 -0.2539062,-0.7617188 -0.9570312,-0.8203125 -1.2890625,-0.8203125 -0.703125,0 -1.171875,0.4101562 -1.4453125,0.7617187 v -0.703125 H 5.2291667 v 4.47265628 h 0.78125 V -2.4394792 c 0,-0.6835937 0.2734375,-1.484375 1.015625,-1.484375 0.9179687,0 0.9765625,0.6445313 0.9765625,1.0351563 V 0.00192708 H 8.7643229 V -2.4394792 c 0,-0.6835937 0.2734375,-1.484375 1.015625,-1.484375 0.9179691,0 0.9765621,0.6445313 0.9765621,1.0351563 v 2.89062498 h 0.78125 z m 5.122071,-3.9453125 h -0.742188 v 2.9296875 c -0.527344,-0.4296875 -1.09375,-0.546875 -1.445312,-0.546875 -0.996094,0 -1.777344,1.0351562 -1.777344,2.3242187 0,1.30859378 0.78125,2.32421878 1.71875,2.32421878 0.332031,0 0.917969,-0.09765625 1.484375,-0.64453125 v 0.52734375 h 0.761719 z m -0.761719,5.5273437 c 0,0.1367188 -0.01953,0.3125 -0.332031,0.60546878 -0.234375,0.1953125 -0.488282,0.29296875 -0.742188,0.29296875 -0.625,0 -1.347656,-0.46875 -1.347656,-1.71875003 0,-1.3085937 0.859375,-1.71875 1.445312,-1.71875 0.449219,0 0.742188,0.234375 0.976563,0.546875 z m 0,0"
         style="fill:#000000;fill-opacity:1;fill-rule:nonzero;stroke:none" />
      <path
         id="path43"
         d="m 20.888346,-0.76955729 c 0,-0.33203121 0,-1.15234371 -0.332031,-1.71875001 -0.351562,-0.625 -0.878906,-0.7421875 -1.210937,-0.7421875 -0.3125,0 -0.859375,0.097656 -1.210938,0.703125 -0.332031,0.5664063 -0.351562,1.3085938 -0.351562,1.75781251 0,0.5078125 0.01953,1.15234375 0.3125,1.6796875 0.3125,0.56640629 0.839843,0.72265629 1.25,0.72265629 0.683593,0 1.074218,-0.390625 1.289062,-0.83984379 0.234375,-0.48828125 0.253906,-1.1328125 0.253906,-1.5625 z M 19.345378,1.1835677 c -0.292969,0 -0.644532,-0.1757812 -0.800782,-0.66406249 -0.15625,-0.4296875 -0.15625,-0.87890625 -0.15625,-1.38671875 0,-0.64453126 0,-1.89453126 0.957032,-1.89453126 0.9375,0 0.9375,1.25 0.9375,1.89453126 0,0.46875 0,0.99609375 -0.15625,1.4453125 -0.195313,0.48828124 -0.566407,0.60546874 -0.78125,0.60546874 z m 0,0"
         style="fill:#000000;fill-opacity:1;fill-rule:nonzero;stroke:none" />
    </g>
    <path
       id="path44"
       d="m 154.49539,-100.99005 1.41693,5.31349 65.16278,-0.0013 1.41693,-5.31349 -1.41693,-5.31349 -65.15466,0.002 -1.41693,5.31348"
       style="fill:none;stroke:#000000;stroke-width:0.66414;stroke-linecap:round;stroke-linejoin:round;stroke-miterlimit:10;stroke-dasharray:2.98883, 2.98883;stroke-dashoffset:0;stroke-opacity:1"
       transform="matrix(1.3333333,0,0,-1.3333333,166.89333,28.222667)" />
    <path
       id="path45"
       d="m 222.52715,-100.98941 1.41691,5.31349 19.81364,-0.0013 1.41692,-5.31349 -1.41692,-5.31349 -19.80192,0.002 -1.41693,5.31348"
       style="fill:none;stroke:#000000;stroke-width:0.66414;stroke-linecap:round;stroke-linejoin:round;stroke-miterlimit:10;stroke-dasharray:none;stroke-opacity:1"
       transform="matrix(1.3333333,0,0,-1.3333333,166.89333,28.222667)" />
    <g
       id="g45"
       aria-label="cmd&#10;4"
       transform="matrix(0.8,0,0,0.8,470.02933,165.044)">
      <path
         id="path46"
         d="M 4.0844271,-4.1614453 C 3.4984896,-4.5130078 3.1664583,-4.5911328 2.5609896,-4.5911328 c -1.3867188,0 -2.20703127,1.2109375 -2.20703127,2.3828125 0,1.23046874 0.91796877,2.32421874 2.16796877,2.32421874 0.5273437,0 1.0742187,-0.15625 1.6210937,-0.5078125 L 4.0844271,-1.0755078 c -0.5078125,0.41015624 -1.0546875,0.54687499 -1.5625,0.54687499 -0.8203125,0 -1.3867188,-0.72265629 -1.3867188,-1.69921879 0,-0.78125 0.3710938,-1.71875 1.4257813,-1.71875 0.5273437,0 0.859375,0.078125 1.40625,0.4296875 z m 7.4511719,1.1914062 c 0,-0.6640625 -0.175781,-1.5625 -1.367188,-1.5625 -0.6054683,0 -1.1132808,0.2734375 -1.4843745,0.8203125 -0.2539063,-0.7617187 -0.9570313,-0.8203125 -1.2890625,-0.8203125 -0.703125,0 -1.171875,0.4101563 -1.4453125,0.7617188 v -0.703125 H 5.2270052 v 4.47265624 h 0.78125 V -2.4426953 c 0,-0.6835938 0.2734375,-1.484375 1.015625,-1.484375 0.9179688,0 0.9765625,0.6445312 0.9765625,1.0351562 v 2.89062504 H 8.7621615 V -2.4426953 c 0,-0.6835938 0.2734375,-1.484375 1.015625,-1.484375 0.9179685,0 0.9765625,0.6445312 0.9765625,1.0351562 v 2.89062504 h 0.78125 z m 5.12207,-3.9453125 h -0.742187 v 2.9296875 c -0.527344,-0.4296875 -1.09375,-0.546875 -1.445313,-0.546875 -0.996093,0 -1.777343,1.0351563 -1.777343,2.3242188 0,1.30859374 0.78125,2.32421874 1.71875,2.32421874 0.332031,0 0.917968,-0.09765625 1.484375,-0.64453125 v 0.52734375 h 0.761718 z m -0.761718,5.5273438 c 0,0.1367187 -0.01953,0.3125 -0.332032,0.60546874 -0.234375,0.1953125 -0.488281,0.29296875 -0.742187,0.29296875 -0.625,0 -1.347656,-0.46875 -1.347656,-1.71874999 0,-1.3085938 0.859375,-1.71875 1.445312,-1.71875 0.449219,0 0.742188,0.234375 0.976563,0.546875 z m 0,0"
         style="fill:#000000;fill-opacity:1;fill-rule:nonzero;stroke:none" />
      <path
         id="path47"
         d="M 20.241654,0.32097656 H 20.96431 V -0.12824219 H 20.241654 V -3.0774609 H 19.55806 l -1.855469,2.94921871 v 0.44921875 h 1.953125 V 1.4928516 h 0.585938 z m -1.953125,-0.44921875 c 0.214843,-0.33203125 1.40625,-2.18750001 1.40625,-2.61718751 v 2.61718751 z m 0,0"
         style="fill:#000000;fill-opacity:1;fill-rule:nonzero;stroke:none" />
    </g>
    <path
       id="path48"
       d="m 245.20041,-100.98941 1.41693,-5.31348 59.49838,-6.4e-4"
       style="fill:none;stroke:#000000;stroke-width:0.66414;stroke-linecap:round;stroke-linejoin:round;stroke-miterlimit:10;stroke-dasharray:none;stroke-opacity:1"
       transform="matrix(1.3333333,0,0,-1.3333333,166.89333,28.222667)" />
    <path
       id="path49"
       d="m 3.5027344,-3.8913906 c 0.2226562,0 0.5039062,-0.046875 0.7382812,-0.046875 0.1757813,0 0.5742188,0.035156 0.5859375,0.035156 L 4.7214844,-4.5359219 c -0.703125,0 -1.2773438,0.1875 -1.5703125,0.3164063 -0.2109375,-0.1640625 -0.5507813,-0.3164063 -0.9492188,-0.3164063 -0.8554687,0 -1.58203122,0.7148438 -1.58203122,1.6289063 0,0.3632812 0.12890625,0.7265625 0.328125,0.984375 -0.29296875,0.4101562 -0.29296875,0.796875 -0.29296875,0.84375 0,0.25781247 0.09375,0.55078122 0.2578125,0.76171872 -0.515625,0.3046875 -0.6328125,0.76171875 -0.6328125,1.01953125 0,0.75000003 0.98437497,1.34765623 2.20312497,1.34765623 1.21875,0 2.203125,-0.5859375 2.203125,-1.34765623 0,-1.39453125 -1.6640625,-1.39453125 -2.0507812,-1.39453125 H 1.7566406 c -0.1289062,0 -0.5742187,0 -0.5742187,-0.52734372 0,-0.1054688 0.046875,-0.2695313 0.1171875,-0.3515625 0.1992187,0.140625 0.5273437,0.28125 0.9023437,0.28125 0.890625,0 1.59375,-0.7382813 1.59375,-1.6171875 0,-0.4804688 -0.2226562,-0.84375 -0.328125,-0.9960938 z m -1.3007813,2.0390625 c -0.375,0 -0.890625,-0.234375 -0.890625,-1.0546875 0,-0.8320313 0.515625,-1.0546875 0.890625,-1.0546875 0.421875,0 0.890625,0.2695312 0.890625,1.0546875 0,0.7734375 -0.46875,1.0546875 -0.890625,1.0546875 z m 0.4453125,1.88671872 c 0.2226563,0 1.3476563,0 1.3476563,0.6796875 0,0.44531248 -0.6914063,0.77343748 -1.5,0.77343748 -0.8085938,0 -1.52343752,-0.3164062 -1.52343752,-0.78515623 0,-0.0234375 0,-0.66796875 0.78515622,-0.66796875 z M 9.0720703,-4.1609219 c -0.5976562,-0.3398437 -0.9375,-0.4335937 -1.5351562,-0.4335937 -1.3945313,0 -2.1914063,1.2070312 -2.1914063,2.3789062 0,1.24218752 0.9023438,2.32031252 2.1445313,2.32031252 0.5390625,0 1.0898437,-0.140625 1.6289062,-0.50390625 L 9.0603516,-1.0671719 c -0.515625,0.39843752 -1.0546875,0.53906252 -1.5585938,0.53906252 -0.8203125,0 -1.3828125,-0.71484372 -1.3828125,-1.69921872 0,-0.7734375 0.3632813,-1.7226563 1.4179688,-1.7226563 0.5273437,0 0.8671875,0.070312 1.40625,0.4335938 z m 1.9658207,-2.6132812 h -0.890625 v 0.890625 h 0.890625 z m -0.07031,2.3554687 h -0.75 v 4.417968775 h 0.75 z m 0,0"
       style="fill:#000000;fill-opacity:1;fill-rule:nonzero;stroke:none"
       aria-label="gci"
       transform="matrix(1.3333333,0,0,1.3333333,91.9,198.32133)" />
    <path
       id="path50"
       d="M 0,0 H 2.989"
       style="fill:none;stroke:#000000;stroke-width:0.398;stroke-linecap:butt;stroke-linejoin:round;stroke-miterlimit:10;stroke-dasharray:none;stroke-opacity:1"
       transform="matrix(1.3333333,0,0,-1.3333333,108.416,198.056)" />
    <path
       id="path51"
       d="m 4.6765391,-2.1921719 c 0,-1.3359375 -0.9960938,-2.4023437 -2.1796875,-2.4023437 -1.2304688,0 -2.19140629,1.1015625 -2.19140629,2.4023437 0,1.31250002 1.00781249,2.29687502 2.17968749,2.29687502 1.1953125,0 2.1914063,-1.0078125 2.1914063,-2.29687502 z m -2.1914063,1.66406252 c -0.6914062,0 -1.40625,-0.56250002 -1.40625,-1.76953122 0,-1.1953125 0.75,-1.6875 1.40625,-1.6875 0.6914063,0 1.40625,0.515625 1.40625,1.6875 0,1.1835937 -0.6679687,1.76953122 -1.40625,1.76953122 z M 9.3171641,-4.4187344 H 8.5320078 v 2.8828125 c 0,0.75000002 -0.5507812,1.10156252 -1.1953125,1.10156252 -0.703125,0 -0.7734375,-0.26953125 -0.7734375,-0.69140622 V -4.4187344 H 5.7898203 v 3.328125 c 0,0.72656252 0.2226563,1.19531252 1.0546875,1.19531252 0.5273438,0 1.2304688,-0.15234375 1.7226563,-0.5859375 v 0.480468755 h 0.75 z m 2.5576169,0.5742188 h 1.40625 v -0.5742188 h -1.40625 v -1.265625 h -0.691406 v 1.265625 h -0.867187 v 0.5742188 h 0.84375 v 2.6601562 c 0,0.59765627 0.128906,1.28906252 0.820312,1.28906252 0.703125,0 1.207031,-0.24609375 1.453125,-0.375 l -0.152344,-0.5859375 c -0.257812,0.2109375 -0.585937,0.328125 -0.902343,0.328125 -0.363282,0 -0.503907,-0.3046875 -0.503907,-0.83203122 z m 3.644532,3.01171872 h -0.832032 v 0.832031255 h 0.832032 z m 2.534179,-6.08203122 h -0.738281 v 6.914062475 h 0.773437 V -0.45779688 c 0.234375,0.22265625 0.667969,0.5625 1.335938,0.5625 0.996094,0 1.851562,-0.99609375 1.851562,-2.33203122 0,-1.2304688 -0.679687,-2.3085938 -1.617187,-2.3085938 -0.386719,0 -1.007813,0.1054688 -1.605469,0.5859375 z m 0.03516,3.5742187 c 0.164063,-0.234375 0.515625,-0.5859375 1.066407,-0.5859375 0.585937,0 1.347656,0.4335938 1.347656,1.6992188 0,1.30078122 -0.84375,1.72265622 -1.453125,1.72265622 -0.386719,0 -0.714844,-0.17578125 -0.960938,-0.63281252 z m 7.889649,-1.078125 h -0.785156 v 2.8828125 c 0,0.75000002 -0.550782,1.10156252 -1.195313,1.10156252 -0.703125,0 -0.773437,-0.26953125 -0.773437,-0.69140622 v -3.2929688 h -0.773438 v 3.328125 c 0,0.72656252 0.222656,1.19531252 1.054688,1.19531252 0.527343,0 1.230468,-0.15234375 1.722656,-0.5859375 v 0.480468755 h 0.75 z m 4.233398,0.140625 c -0.527343,-0.234375 -0.925781,-0.3164062 -1.441406,-0.3164062 -0.246094,0 -1.652344,0 -1.652344,1.3007812 0,0.4921875 0.292969,0.8085938 0.539063,0.9960938 0.304687,0.2226562 0.527344,0.2695312 1.078125,0.375 0.351562,0.070312 0.9375,0.1875 0.9375,0.7148437 0,0.69140627 -0.785156,0.69140627 -0.9375,0.69140627 -0.808594,0 -1.371094,-0.375 -1.546875,-0.49218747 l -0.117188,0.67968747 c 0.316407,0.1640625 0.867188,0.43359375 1.675782,0.43359375 0.175781,0 0.726562,0 1.148437,-0.31640625 0.316406,-0.234375 0.480469,-0.6328125 0.480469,-1.06640627 0,-0.5507812 -0.363281,-0.8789062 -0.386719,-0.9140625 -0.386719,-0.3515625 -0.65625,-0.4101562 -1.160156,-0.5039062 -0.539063,-0.1054688 -1.007813,-0.1992188 -1.007813,-0.6914063 0,-0.6210937 0.726563,-0.6210937 0.855469,-0.6210937 0.316406,0 0.84375,0.046875 1.40625,0.3867187 z m 4.836914,-0.140625 h -0.75 c -1.289062,3.1640625 -1.3125,3.62109377 -1.324218,3.85546877 h -0.01172 C 32.904078,-1.2312344 32.107203,-3.0945156 32.072047,-3.1765469 l -0.539063,-1.2421875 h -0.785156 l 1.933594,4.417968775 C 32.564234,0.30392187 32.365016,0.80782812 32.318141,0.90157812 32.060328,1.4757969 31.896266,1.4757969 31.755641,1.4757969 c -0.164063,0 -0.480469,-0.046875 -0.785157,-0.1640625 l 0.07031,0.6445312 c 0.210937,0.058594 0.492187,0.082031 0.714844,0.082031 0.351562,0 0.714843,-0.1171875 1.125,-1.13671878 z m 0,0"
       style="fill:#000000;fill-opacity:1;fill-rule:nonzero;stroke:none"
       aria-label="out.busy"
       transform="matrix(1.3333333,0,0,1.3333333,112.40133,198.32133)" />
    <path
       id="path52"
       d="M 0,-127.57559 H 90.6839"
       style="fill:none;stroke:#000000;stroke-width:0.66414;stroke-linecap:round;stroke-linejoin:round;stroke-miterlimit:10;stroke-dasharray:none;stroke-opacity:1"
       transform="matrix(1.3333333,0,0,-1.3333333,166.89333,28.222667)" />
    <path
       id="path53"
       d="m 90.68866,-127.57559 h 34.00647"
       style="fill:none;stroke:#000000;stroke-width:0.66414;stroke-linecap:round;stroke-linejoin:round;stroke-miterlimit:10;stroke-dasharray:2.98883, 2.98883;stroke-dashoffset:0;stroke-opacity:1"
       transform="matrix(1.3333333,0,0,-1.3333333,166.89333,28.222667)" />
    <path
       id="path54"
       d="M 124.70169,-127.57559 H 153.0404"
       style="fill:none;stroke:#000000;stroke-width:0.66414;stroke-linecap:round;stroke-linejoin:round;stroke-miterlimit:10;stroke-dasharray:none;stroke-opacity:1"
       transform="matrix(1.3333333,0,0,-1.3333333,166.89333,28.222667)" />
    <path
       id="path55"
       d="m 153.04845,-127.57559 1.41691,5.31347"
       style="fill:none;stroke:#000000;stroke-width:0.66414;stroke-linecap:round;stroke-linejoin:round;stroke-miterlimit:10;stroke-dasharray:2.98883, 2.98883;stroke-dashoffset:0;stroke-opacity:1"
       transform="matrix(1.3333333,0,0,-1.3333333,166.89333,28.222667)" />
    <path
       id="path56"
       d="m 154.47348,-122.26147 1.41693,5.31347 h 65.18706 l 1.41693,-5.31347 -1.41693,-5.31351 -65.17896,6.7e-4 -1.41691,5.31348"
       style="fill:none;stroke:#000000;stroke-width:0.66414;stroke-linecap:round;stroke-linejoin:round;stroke-miterlimit:10;stroke-dasharray:2.98883, 2.98883;stroke-dashoffset:0;stroke-opacity:1"
       transform="matrix(1.3333333,0,0,-1.3333333,166.89333,28.222667)" />
    <path
       id="path57"
       d="m 222.52951,-122.25957 1.41692,-5.31346 82.15884,-10e-4"
       style="fill:none;stroke:#000000;stroke-width:0.66414;stroke-linecap:round;stroke-linejoin:round;stroke-miterlimit:10;stroke-dasharray:none;stroke-opacity:1"
       transform="matrix(1.3333333,0,0,-1.3333333,166.89333,28.222667)" />
    <path
       id="path58"
       d="M 11.33546,15.94044 V -132.93578 M 34.00645,15.94044 V -132.93578 M 56.67744,15.94044 V -132.93578 M 79.3484,15.94044 v -148.87622 m 22.671,148.87622 V -132.93578 M 124.69037,15.94044 V -132.93578 M 147.36134,15.94044 V -132.93578 M 170.03233,15.94044 V -132.93578 M 192.70331,15.94044 V -132.93578 M 215.3743,15.94044 v -148.87622 m 22.67096,148.87622 v -148.87622 m 22.67099,148.87622 v -148.87622 m 22.67099,148.87622 v -148.87622"
       style="fill:none;stroke:#808080;stroke-width:0.59776;stroke-linecap:round;stroke-linejoin:round;stroke-miterlimit:10;stroke-dasharray:none;stroke-opacity:0.5"
       transform="matrix(1.3333333,0,0,-1.3333333,166.89333,28.222667)" />
  </g>
</svg>
