<?xml version="1.0" encoding="UTF-8" standalone="no"?>
<!-- Created with Inkscape (http://www.inkscape.org/) -->

<svg
   version="1.1"
   id="svg1"
   width="352.31601"
   height="228.08667"
   viewBox="0 0 352.31601 228.08667"
   sodipodi:docname="main.pdf"
   xmlns:inkscape="http://www.inkscape.org/namespaces/inkscape"
   xmlns:sodipodi="http://sodipodi.sourceforge.net/DTD/sodipodi-0.dtd"
   xmlns="http://www.w3.org/2000/svg"
   xmlns:svg="http://www.w3.org/2000/svg">
  <defs
     id="defs1" />
  <sodipodi:namedview
     id="namedview1"
     pagecolor="#ffffff"
     bordercolor="#000000"
     borderopacity="0.25"
     inkscape:showpageshadow="2"
     inkscape:pageopacity="0.0"
     inkscape:pagecheckerboard="0"
     inkscape:deskcolor="#d1d1d1">
    <inkscape:page
       x="0"
       y="0"
       inkscape:label="1"
       id="page1"
       width="352.31601"
       height="228.08667"
       margin="0"
       bleed="0" />
  </sodipodi:namedview>
  <g
     id="g1"
     inkscape:groupmode="layer"
     inkscape:label="1">
    <path
       id="path1"
       d="M 0,0 H 264.237 V 171.065 H 0 Z"
       style="fill:#ffffff;fill-opacity:1;fill-rule:nonzero;stroke:none"
       transform="matrix(1.3333333,0,0,-1.3333333,0,228.08667)" />
    <path
       id="path2"
       d="m -51.03027,16.99193 h 8.46846 v 8.46846 h -8.46846 z"
       style="fill:#e6e6ff;fill-opacity:1;fill-rule:nonzero;stroke:none"
       transform="matrix(1.3333333,0,0,-1.3333333,68.865333,114.10933)" />
    <path
       id="path3"
       d="m -42.52144,16.99193 h 8.46846 v 8.46846 h -8.46846 z"
       style="fill:#e6e6ff;fill-opacity:1;fill-rule:nonzero;stroke:none"
       transform="matrix(1.3333333,0,0,-1.3333333,68.865333,114.10933)" />
    <path
       id="path4"
       d="m -34.01259,16.99193 h 8.46846 v 8.46846 h -8.46846 z"
       style="fill:#e6e6ff;fill-opacity:1;fill-rule:nonzero;stroke:none"
       transform="matrix(1.3333333,0,0,-1.3333333,68.865333,114.10933)" />
    <path
       id="path5"
       d="m -25.50375,16.99193 h 8.46846 v 8.46846 h -8.46846 z"
       style="fill:#e6e6ff;fill-opacity:1;fill-rule:nonzero;stroke:none"
       transform="matrix(1.3333333,0,0,-1.3333333,68.865333,114.10933)" />
    <path
       id="path6"
       d="m -51.03027,25.48085 h 8.46846 v 8.46846 h -8.46846 z"
       style="fill:#e6e6ff;fill-opacity:1;fill-rule:nonzero;stroke:none"
       transform="matrix(1.3333333,0,0,-1.3333333,68.865333,114.10933)" />
    <path
       id="path7"
       d="m -42.52144,25.48085 h 8.46846 v 8.46846 h -8.46846 z"
       style="fill:#0000e6;fill-opacity:1;fill-rule:nonzero;stroke:none"
       transform="matrix(1.3333333,0,0,-1.3333333,68.865333,114.10933)" />
    <path
       id="path8"
       d="m -34.01259,25.48085 h 8.46846 v 8.46846 h -8.46846 z"
       style="fill:#e6e6ff;fill-opacity:1;fill-rule:nonzero;stroke:none"
       transform="matrix(1.3333333,0,0,-1.3333333,68.865333,114.10933)" />
    <path
       id="path9"
       d="m -25.50375,25.48085 h 8.46846 v 8.46846 h -8.46846 z"
       style="fill:#e6e6ff;fill-opacity:1;fill-rule:nonzero;stroke:none"
       transform="matrix(1.3333333,0,0,-1.3333333,68.865333,114.10933)" />
    <path
       id="path10"
       d="m -51.03027,33.96977 h 8.46846 v 8.46846 h -8.46846 z"
       style="fill:#e6e6ff;fill-opacity:1;fill-rule:nonzero;stroke:none"
       transform="matrix(1.3333333,0,0,-1.3333333,68.865333,114.10933)" />
    <path
       id="path11"
       d="m -42.52144,33.96977 h 8.46846 v 8.46846 h -8.46846 z"
       style="fill:#0000e6;fill-opacity:1;fill-rule:nonzero;stroke:none"
       transform="matrix(1.3333333,0,0,-1.3333333,68.865333,114.10933)" />
    <path
       id="path12"
       d="m -34.01259,33.96977 h 8.46846 v 8.46846 h -8.46846 z"
       style="fill:#0000e6;fill-opacity:1;fill-rule:nonzero;stroke:none"
       transform="matrix(1.3333333,0,0,-1.3333333,68.865333,114.10933)" />
    <path
       id="path13"
       d="m -25.50375,33.96977 h 8.46846 v 8.46846 h -8.46846 z"
       style="fill:#e6e6ff;fill-opacity:1;fill-rule:nonzero;stroke:none"
       transform="matrix(1.3333333,0,0,-1.3333333,68.865333,114.10933)" />
    <path
       id="path14"
       d="m -51.03027,42.45868 h 8.46846 v 8.46846 h -8.46846 z"
       style="fill:#e6e6ff;fill-opacity:1;fill-rule:nonzero;stroke:none"
       transform="matrix(1.3333333,0,0,-1.3333333,68.865333,114.10933)" />
    <path
       id="path15"
       d="m -42.52144,42.45868 h 8.46846 v 8.46846 h -8.46846 z"
       style="fill:#0000e6;fill-opacity:1;fill-rule:nonzero;stroke:none"
       transform="matrix(1.3333333,0,0,-1.3333333,68.865333,114.10933)" />
    <path
       id="path16"
       d="m -34.01259,42.45868 h 8.46846 v 8.46846 h -8.46846 z"
       style="fill:#e6e6ff;fill-opacity:1;fill-rule:nonzero;stroke:none"
       transform="matrix(1.3333333,0,0,-1.3333333,68.865333,114.10933)" />
    <path
       id="path17"
       d="m -25.50375,42.45868 h 8.46846 v 8.46846 h -8.46846 z"
       style="fill:#e6e6ff;fill-opacity:1;fill-rule:nonzero;stroke:none"
       transform="matrix(1.3333333,0,0,-1.3333333,68.865333,114.10933)" />
    <path
       id="path18"
       d="m -8.48605,-76.38617 h 8.46846 v 8.46846 h -8.46846 z"
       style="fill:#e6e6ff;fill-opacity:1;fill-rule:nonzero;stroke:none"
       transform="matrix(1.3333333,0,0,-1.3333333,68.865333,114.10933)" />
    <path
       id="path19"
       d="m 0.02277,-76.38617 h 8.46846 v 8.46846 H 0.02277 Z"
       style="fill:#e6e6ff;fill-opacity:1;fill-rule:nonzero;stroke:none"
       transform="matrix(1.3333333,0,0,-1.3333333,68.865333,114.10933)" />
    <path
       id="path20"
       d="m 8.53162,-76.38617 h 8.46846 v 8.46846 H 8.53162 Z"
       style="fill:#e6e6ff;fill-opacity:1;fill-rule:nonzero;stroke:none"
       transform="matrix(1.3333333,0,0,-1.3333333,68.865333,114.10933)" />
    <path
       id="path21"
       d="m 17.04045,-76.38617 h 8.46846 v 8.46846 h -8.46846 z"
       style="fill:#e6e6ff;fill-opacity:1;fill-rule:nonzero;stroke:none"
       transform="matrix(1.3333333,0,0,-1.3333333,68.865333,114.10933)" />
    <path
       id="path22"
       d="m -8.48605,-67.89725 h 8.46846 v 8.46846 h -8.46846 z"
       style="fill:#e6e6ff;fill-opacity:1;fill-rule:nonzero;stroke:none"
       transform="matrix(1.3333333,0,0,-1.3333333,68.865333,114.10933)" />
    <path
       id="path23"
       d="m 0.02277,-67.89725 h 8.46846 v 8.46846 H 0.02277 Z"
       style="fill:#0000e6;fill-opacity:1;fill-rule:nonzero;stroke:none"
       transform="matrix(1.3333333,0,0,-1.3333333,68.865333,114.10933)" />
    <path
       id="path24"
       d="m 8.53162,-67.89725 h 8.46846 v 8.46846 H 8.53162 Z"
       style="fill:#e6e6ff;fill-opacity:1;fill-rule:nonzero;stroke:none"
       transform="matrix(1.3333333,0,0,-1.3333333,68.865333,114.10933)" />
    <path
       id="path25"
       d="m 17.04045,-67.89725 h 8.46846 v 8.46846 h -8.46846 z"
       style="fill:#e6e6ff;fill-opacity:1;fill-rule:nonzero;stroke:none"
       transform="matrix(1.3333333,0,0,-1.3333333,68.865333,114.10933)" />
    <path
       id="path26"
       d="m -8.48605,-59.40833 h 8.46846 v 8.46846 h -8.46846 z"
       style="fill:#0000e6;fill-opacity:1;fill-rule:nonzero;stroke:none"
       transform="matrix(1.3333333,0,0,-1.3333333,68.865333,114.10933)" />
    <path
       id="path27"
       d="m 0.02277,-59.40833 h 8.46846 v 8.46846 H 0.02277 Z"
       style="fill:#0000e6;fill-opacity:1;fill-rule:nonzero;stroke:none"
       transform="matrix(1.3333333,0,0,-1.3333333,68.865333,114.10933)" />
    <path
       id="path28"
       d="m 8.53162,-59.40833 h 8.46846 v 8.46846 H 8.53162 Z"
       style="fill:#0000e6;fill-opacity:1;fill-rule:nonzero;stroke:none"
       transform="matrix(1.3333333,0,0,-1.3333333,68.865333,114.10933)" />
    <path
       id="path29"
       d="m 17.04045,-59.40833 h 8.46846 v 8.46846 h -8.46846 z"
       style="fill:#e6e6ff;fill-opacity:1;fill-rule:nonzero;stroke:none"
       transform="matrix(1.3333333,0,0,-1.3333333,68.865333,114.10933)" />
    <path
       id="path30"
       d="m -8.48605,-50.9194 h 8.46846 v 8.46846 h -8.46846 z"
       style="fill:#e6e6ff;fill-opacity:1;fill-rule:nonzero;stroke:none"
       transform="matrix(1.3333333,0,0,-1.3333333,68.865333,114.10933)" />
    <path
       id="path31"
       d="m 0.02277,-50.9194 h 8.46846 v 8.46846 H 0.02277 Z"
       style="fill:#e6e6ff;fill-opacity:1;fill-rule:nonzero;stroke:none"
       transform="matrix(1.3333333,0,0,-1.3333333,68.865333,114.10933)" />
    <path
       id="path32"
       d="m 8.53162,-50.9194 h 8.46846 v 8.46846 H 8.53162 Z"
       style="fill:#e6e6ff;fill-opacity:1;fill-rule:nonzero;stroke:none"
       transform="matrix(1.3333333,0,0,-1.3333333,68.865333,114.10933)" />
    <path
       id="path33"
       d="m 17.04045,-50.9194 h 8.46846 v 8.46846 h -8.46846 z"
       style="fill:#e6e6ff;fill-opacity:1;fill-rule:nonzero;stroke:none"
       transform="matrix(1.3333333,0,0,-1.3333333,68.865333,114.10933)" />
    <path
       id="path34"
       d="m 17.04045,-25.45265 h 8.46846 v 8.46846 h -8.46846 z"
       style="fill:#e6e6ff;fill-opacity:1;fill-rule:nonzero;stroke:none"
       transform="matrix(1.3333333,0,0,-1.3333333,68.865333,114.10933)" />
    <path
       id="path35"
       d="m 25.5493,-25.45265 h 8.46846 v 8.46846 H 25.5493 Z"
       style="fill:#e6e6ff;fill-opacity:1;fill-rule:nonzero;stroke:none"
       transform="matrix(1.3333333,0,0,-1.3333333,68.865333,114.10933)" />
    <path
       id="path36"
       d="m 34.05814,-25.45265 h 8.46846 v 8.46846 h -8.46846 z"
       style="fill:#e6e6ff;fill-opacity:1;fill-rule:nonzero;stroke:none"
       transform="matrix(1.3333333,0,0,-1.3333333,68.865333,114.10933)" />
    <path
       id="path37"
       d="m 42.56699,-25.45265 h 8.46846 v 8.46846 h -8.46846 z"
       style="fill:#e6e6ff;fill-opacity:1;fill-rule:nonzero;stroke:none"
       transform="matrix(1.3333333,0,0,-1.3333333,68.865333,114.10933)" />
    <path
       id="path38"
       d="m 17.04045,-16.96373 h 8.46846 v 8.46846 h -8.46846 z"
       style="fill:#e6e6ff;fill-opacity:1;fill-rule:nonzero;stroke:none"
       transform="matrix(1.3333333,0,0,-1.3333333,68.865333,114.10933)" />
    <path
       id="path39"
       d="m 25.5493,-16.96373 h 8.46846 v 8.46846 H 25.5493 Z"
       style="fill:#e6e6ff;fill-opacity:1;fill-rule:nonzero;stroke:none"
       transform="matrix(1.3333333,0,0,-1.3333333,68.865333,114.10933)" />
    <path
       id="path40"
       d="m 34.05814,-16.96373 h 8.46846 v 8.46846 h -8.46846 z"
       style="fill:#e6e6ff;fill-opacity:1;fill-rule:nonzero;stroke:none"
       transform="matrix(1.3333333,0,0,-1.3333333,68.865333,114.10933)" />
    <path
       id="path41"
       d="m 42.56699,-16.96373 h 8.46846 v 8.46846 h -8.46846 z"
       style="fill:#e6e6ff;fill-opacity:1;fill-rule:nonzero;stroke:none"
       transform="matrix(1.3333333,0,0,-1.3333333,68.865333,114.10933)" />
    <path
       id="path42"
       d="m 17.04045,-8.47481 h 8.46846 v 8.46846 h -8.46846 z"
       style="fill:#0000e6;fill-opacity:1;fill-rule:nonzero;stroke:none"
       transform="matrix(1.3333333,0,0,-1.3333333,68.865333,114.10933)" />
    <path
       id="path43"
       d="m 25.5493,-8.47481 h 8.46846 v 8.46846 H 25.5493 Z"
       style="fill:#0000e6;fill-opacity:1;fill-rule:nonzero;stroke:none"
       transform="matrix(1.3333333,0,0,-1.3333333,68.865333,114.10933)" />
    <path
       id="path44"
       d="m 34.05814,-8.47481 h 8.46846 v 8.46846 h -8.46846 z"
       style="fill:#0000e6;fill-opacity:1;fill-rule:nonzero;stroke:none"
       transform="matrix(1.3333333,0,0,-1.3333333,68.865333,114.10933)" />
    <path
       id="path45"
       d="m 42.56699,-8.47481 h 8.46846 v 8.46846 h -8.46846 z"
       style="fill:#e6e6ff;fill-opacity:1;fill-rule:nonzero;stroke:none"
       transform="matrix(1.3333333,0,0,-1.3333333,68.865333,114.10933)" />
    <path
       id="path46"
       d="m 17.04045,0.01408 h 8.46846 v 8.46846 h -8.46846 z"
       style="fill:#e6e6ff;fill-opacity:1;fill-rule:nonzero;stroke:none"
       transform="matrix(1.3333333,0,0,-1.3333333,68.865333,114.10933)" />
    <path
       id="path47"
       d="m 25.5493,0.01408 h 8.46846 V 8.48254 H 25.5493 Z"
       style="fill:#0000e6;fill-opacity:1;fill-rule:nonzero;stroke:none"
       transform="matrix(1.3333333,0,0,-1.3333333,68.865333,114.10933)" />
    <path
       id="path48"
       d="M 34.05814,0.01408 H 42.5266 V 8.48254 H 34.05814 Z"
       style="fill:#e6e6ff;fill-opacity:1;fill-rule:nonzero;stroke:none"
       transform="matrix(1.3333333,0,0,-1.3333333,68.865333,114.10933)" />
    <path
       id="path49"
       d="m 42.56699,0.01408 h 8.46846 v 8.46846 h -8.46846 z"
       style="fill:#e6e6ff;fill-opacity:1;fill-rule:nonzero;stroke:none"
       transform="matrix(1.3333333,0,0,-1.3333333,68.865333,114.10933)" />
    <path
       id="path50"
       d="m -51.05046,16.98286 h 8.50883 m -8.50883,8.48891 h 8.50883 m -8.50883,8.48891 h 8.50883 m -8.50883,8.4889 h 8.50883 m -8.50883,8.47895 h 8.50883 m -8.50883,-33.95072 v 33.9531 m 8.49889,-33.9531 v 33.9531"
       style="fill:none;stroke:#404040;stroke-width:0.19925;stroke-linecap:butt;stroke-linejoin:miter;stroke-miterlimit:10;stroke-dasharray:none;stroke-opacity:1"
       transform="matrix(1.3333333,0,0,-1.3333333,68.865333,114.10933)" />
    <path
       id="path51"
       d="m 42.54163,-25.46165 h 8.50883 m -8.50883,8.4889 h 8.50883 m -8.50883,8.48891 h 8.50883 m -8.50883,8.48889 h 8.50883 m -8.50883,8.47896 h 8.50883 M 42.54672,-25.46416 V 8.48889 m 8.49889,-33.95305 V 8.48889"
       style="fill:none;stroke:#404040;stroke-width:0.19925;stroke-linecap:butt;stroke-linejoin:miter;stroke-miterlimit:10;stroke-dasharray:none;stroke-opacity:1"
       transform="matrix(1.3333333,0,0,-1.3333333,68.865333,114.10933)" />
    <path
       id="path52"
       d="m -42.52144,-84.87508 h 8.46846 v 8.46846 h -8.46846 z"
       style="fill:#808080;fill-opacity:1;fill-rule:nonzero;stroke:none"
       transform="matrix(1.3333333,0,0,-1.3333333,68.865333,114.10933)" />
    <path
       id="path53"
       d="m -34.01259,-84.87508 h 8.46846 v 8.46846 h -8.46846 z"
       style="fill:#808080;fill-opacity:1;fill-rule:nonzero;stroke:none"
       transform="matrix(1.3333333,0,0,-1.3333333,68.865333,114.10933)" />
    <path
       id="path54"
       d="m -25.50375,-84.87508 h 8.46846 v 8.46846 h -8.46846 z"
       style="fill:#808080;fill-opacity:1;fill-rule:nonzero;stroke:none"
       transform="matrix(1.3333333,0,0,-1.3333333,68.865333,114.10933)" />
    <path
       id="path55"
       d="m -16.9949,-84.87508 h 8.46846 v 8.46846 h -8.46846 z"
       style="fill:#808080;fill-opacity:1;fill-rule:nonzero;stroke:none"
       transform="matrix(1.3333333,0,0,-1.3333333,68.865333,114.10933)" />
    <path
       id="path56"
       d="m -8.48605,-84.87508 h 8.46846 v 8.46846 h -8.46846 z"
       style="fill:#808080;fill-opacity:1;fill-rule:nonzero;stroke:none"
       transform="matrix(1.3333333,0,0,-1.3333333,68.865333,114.10933)" />
    <path
       id="path57"
       d="m 0.02277,-84.87508 h 8.46846 v 8.46846 H 0.02277 Z"
       style="fill:#808080;fill-opacity:1;fill-rule:nonzero;stroke:none"
       transform="matrix(1.3333333,0,0,-1.3333333,68.865333,114.10933)" />
    <path
       id="path58"
       d="m 8.53162,-84.87508 h 8.46846 v 8.46846 H 8.53162 Z"
       style="fill:#808080;fill-opacity:1;fill-rule:nonzero;stroke:none"
       transform="matrix(1.3333333,0,0,-1.3333333,68.865333,114.10933)" />
    <path
       id="path59"
       d="m 17.04045,-84.87508 h 8.46846 v 8.46846 h -8.46846 z"
       style="fill:#808080;fill-opacity:1;fill-rule:nonzero;stroke:none"
       transform="matrix(1.3333333,0,0,-1.3333333,68.865333,114.10933)" />
    <path
       id="path60"
       d="m 25.5493,-84.87508 h 8.46846 v 8.46846 H 25.5493 Z"
       style="fill:#808080;fill-opacity:1;fill-rule:nonzero;stroke:none"
       transform="matrix(1.3333333,0,0,-1.3333333,68.865333,114.10933)" />
    <path
       id="path61"
       d="m 34.05814,-84.87508 h 8.46846 v 8.46846 h -8.46846 z"
       style="fill:#808080;fill-opacity:1;fill-rule:nonzero;stroke:none"
       transform="matrix(1.3333333,0,0,-1.3333333,68.865333,114.10933)" />
    <path
       id="path62"
       d="m -25.50375,-76.38617 h 8.46846 v 8.46846 h -8.46846 z"
       style="fill:#808080;fill-opacity:1;fill-rule:nonzero;stroke:none"
       transform="matrix(1.3333333,0,0,-1.3333333,68.865333,114.10933)" />
    <path
       id="path63"
       d="m -16.9949,-76.38617 h 8.46846 v 8.46846 h -8.46846 z"
       style="fill:#808080;fill-opacity:1;fill-rule:nonzero;stroke:none"
       transform="matrix(1.3333333,0,0,-1.3333333,68.865333,114.10933)" />
    <path
       id="path64"
       d="m -8.48605,-76.38617 h 8.46846 v 8.46846 h -8.46846 z"
       style="fill:#808080;fill-opacity:1;fill-rule:nonzero;stroke:none"
       transform="matrix(1.3333333,0,0,-1.3333333,68.865333,114.10933)" />
    <path
       id="path65"
       d="m 8.53162,-76.38617 h 8.46846 v 8.46846 H 8.53162 Z"
       style="fill:#808080;fill-opacity:1;fill-rule:nonzero;stroke:none"
       transform="matrix(1.3333333,0,0,-1.3333333,68.865333,114.10933)" />
    <path
       id="path66"
       d="m 17.04045,-76.38617 h 8.46846 v 8.46846 h -8.46846 z"
       style="fill:#808080;fill-opacity:1;fill-rule:nonzero;stroke:none"
       transform="matrix(1.3333333,0,0,-1.3333333,68.865333,114.10933)" />
    <path
       id="path67"
       d="m 25.5493,-76.38617 h 8.46846 v 8.46846 H 25.5493 Z"
       style="fill:#808080;fill-opacity:1;fill-rule:nonzero;stroke:none"
       transform="matrix(1.3333333,0,0,-1.3333333,68.865333,114.10933)" />
    <path
       id="path68"
       d="m 34.05814,-76.38617 h 8.46846 v 8.46846 h -8.46846 z"
       style="fill:#808080;fill-opacity:1;fill-rule:nonzero;stroke:none"
       transform="matrix(1.3333333,0,0,-1.3333333,68.865333,114.10933)" />
    <path
       id="path69"
       d="m -16.9949,-67.89725 h 8.46846 v 8.46846 h -8.46846 z"
       style="fill:#808080;fill-opacity:1;fill-rule:nonzero;stroke:none"
       transform="matrix(1.3333333,0,0,-1.3333333,68.865333,114.10933)" />
    <path
       id="path70"
       d="m -8.48605,-67.89725 h 8.46846 v 8.46846 h -8.46846 z"
       style="fill:#808080;fill-opacity:1;fill-rule:nonzero;stroke:none"
       transform="matrix(1.3333333,0,0,-1.3333333,68.865333,114.10933)" />
    <path
       id="path71"
       d="m 8.53162,-67.89725 h 8.46846 v 8.46846 H 8.53162 Z"
       style="fill:#808080;fill-opacity:1;fill-rule:nonzero;stroke:none"
       transform="matrix(1.3333333,0,0,-1.3333333,68.865333,114.10933)" />
    <path
       id="path72"
       d="m 17.04045,-67.89725 h 8.46846 v 8.46846 h -8.46846 z"
       style="fill:#808080;fill-opacity:1;fill-rule:nonzero;stroke:none"
       transform="matrix(1.3333333,0,0,-1.3333333,68.865333,114.10933)" />
    <path
       id="path73"
       d="m 25.5493,-67.89725 h 8.46846 v 8.46846 H 25.5493 Z"
       style="fill:#808080;fill-opacity:1;fill-rule:nonzero;stroke:none"
       transform="matrix(1.3333333,0,0,-1.3333333,68.865333,114.10933)" />
    <path
       id="path74"
       d="m -42.54163,-84.88399 h 85.08326 m -85.08326,8.48891 h 85.08326 m -85.08326,8.48891 h 85.08326 m -85.08326,8.48889 h 85.08326 m -85.08326,8.4889 h 85.08326 m -85.08326,8.48891 h 85.08326 m -85.08326,8.48891 h 85.08326 m -85.08326,8.48891 h 85.08326 m -85.08326,8.4889 h 85.08326 m -85.08326,8.48891 h 85.08326 m -85.08326,8.48889 h 85.08326 m -85.08326,8.48891 h 85.08326 m -85.08326,8.4889 h 85.08326 m -85.08326,8.48891 h 85.08326 m -85.08326,8.48891 h 85.08326 m -85.08326,8.4889 h 85.08326 m -85.08326,8.48891 h 85.08326 m -85.08326,8.48891 h 85.08326 m -85.08326,8.4889 h 85.08326 m -85.08326,8.48891 H 42.54163 M -42.54163,-84.88399 V 84.88399 m 8.50885,-169.76798 V 84.88399 m 8.50884,-169.76798 V 84.88399 M -17.0151,-84.88399 V 84.88399 M -8.50627,-84.88399 V 84.88399 M 0.00255,-84.88399 V 84.88399 M 8.51138,-84.88399 V 84.88399 M 17.02022,-84.88399 V 84.88399 M 25.52905,-84.88399 V 84.88399 M 34.03789,-84.88399 V 84.88399 M 42.53677,-84.88399 V 84.88399"
       style="fill:none;stroke:#404040;stroke-width:0.19925;stroke-linecap:butt;stroke-linejoin:miter;stroke-miterlimit:10;stroke-dasharray:none;stroke-opacity:1"
       transform="matrix(1.3333333,0,0,-1.3333333,68.865333,114.10933)" />
    <path
       id="path75"
       d="M -42.54163,84.88399 H 42.54163"
       style="fill:none;stroke:#404040;stroke-width:0.3985;stroke-linecap:butt;stroke-linejoin:miter;stroke-miterlimit:10;stroke-dasharray:none;stroke-opacity:1"
       transform="matrix(1.3333333,0,0,-1.3333333,68.865333,114.10933)" />
    <path
       id="path76"
       d="m 92.89342,16.99193 h 8.46846 v 8.46846 h -8.46846 z"
       style="fill:#ffe6e6;fill-opacity:1;fill-rule:nonzero;stroke:none"
       transform="matrix(1.3333333,0,0,-1.3333333,68.865333,114.10933)" />
    <path
       id="path77"
       d="m 101.40227,16.99193 h 8.46846 v 8.46846 h -8.46846 z"
       style="fill:#ffe6e6;fill-opacity:1;fill-rule:nonzero;stroke:none"
       transform="matrix(1.3333333,0,0,-1.3333333,68.865333,114.10933)" />
    <path
       id="path78"
       d="m 109.91109,16.99193 h 8.46846 v 8.46846 h -8.46846 z"
       style="fill:#ffe6e6;fill-opacity:1;fill-rule:nonzero;stroke:none"
       transform="matrix(1.3333333,0,0,-1.3333333,68.865333,114.10933)" />
    <path
       id="path79"
       d="m 118.41994,16.99193 h 8.46846 v 8.46846 h -8.46846 z"
       style="fill:#ffe6e6;fill-opacity:1;fill-rule:nonzero;stroke:none"
       transform="matrix(1.3333333,0,0,-1.3333333,68.865333,114.10933)" />
    <path
       id="path80"
       d="m 92.89342,25.48085 h 8.46846 v 8.46846 h -8.46846 z"
       style="fill:#ffe6e6;fill-opacity:1;fill-rule:nonzero;stroke:none"
       transform="matrix(1.3333333,0,0,-1.3333333,68.865333,114.10933)" />
    <path
       id="path81"
       d="m 101.40227,25.48085 h 8.46846 v 8.46846 h -8.46846 z"
       style="fill:#e60000;fill-opacity:1;fill-rule:nonzero;stroke:none"
       transform="matrix(1.3333333,0,0,-1.3333333,68.865333,114.10933)" />
    <path
       id="path82"
       d="m 109.91109,25.48085 h 8.46846 v 8.46846 h -8.46846 z"
       style="fill:#ffe6e6;fill-opacity:1;fill-rule:nonzero;stroke:none"
       transform="matrix(1.3333333,0,0,-1.3333333,68.865333,114.10933)" />
    <path
       id="path83"
       d="m 118.41994,25.48085 h 8.46846 v 8.46846 h -8.46846 z"
       style="fill:#ffe6e6;fill-opacity:1;fill-rule:nonzero;stroke:none"
       transform="matrix(1.3333333,0,0,-1.3333333,68.865333,114.10933)" />
    <path
       id="path84"
       d="m 92.89342,33.96977 h 8.46846 v 8.46846 h -8.46846 z"
       style="fill:#ffe6e6;fill-opacity:1;fill-rule:nonzero;stroke:none"
       transform="matrix(1.3333333,0,0,-1.3333333,68.865333,114.10933)" />
    <path
       id="path85"
       d="m 101.40227,33.96977 h 8.46846 v 8.46846 h -8.46846 z"
       style="fill:#e60000;fill-opacity:1;fill-rule:nonzero;stroke:none"
       transform="matrix(1.3333333,0,0,-1.3333333,68.865333,114.10933)" />
    <path
       id="path86"
       d="m 109.91109,33.96977 h 8.46846 v 8.46846 h -8.46846 z"
       style="fill:#e60000;fill-opacity:1;fill-rule:nonzero;stroke:none"
       transform="matrix(1.3333333,0,0,-1.3333333,68.865333,114.10933)" />
    <path
       id="path87"
       d="m 118.41994,33.96977 h 8.46846 v 8.46846 h -8.46846 z"
       style="fill:#ffe6e6;fill-opacity:1;fill-rule:nonzero;stroke:none"
       transform="matrix(1.3333333,0,0,-1.3333333,68.865333,114.10933)" />
    <path
       id="path88"
       d="m 92.89342,42.45868 h 8.46846 v 8.46846 h -8.46846 z"
       style="fill:#ffe6e6;fill-opacity:1;fill-rule:nonzero;stroke:none"
       transform="matrix(1.3333333,0,0,-1.3333333,68.865333,114.10933)" />
    <path
       id="path89"
       d="m 101.40227,42.45868 h 8.46846 v 8.46846 h -8.46846 z"
       style="fill:#e60000;fill-opacity:1;fill-rule:nonzero;stroke:none"
       transform="matrix(1.3333333,0,0,-1.3333333,68.865333,114.10933)" />
    <path
       id="path90"
       d="m 109.91109,42.45868 h 8.46846 v 8.46846 h -8.46846 z"
       style="fill:#ffe6e6;fill-opacity:1;fill-rule:nonzero;stroke:none"
       transform="matrix(1.3333333,0,0,-1.3333333,68.865333,114.10933)" />
    <path
       id="path91"
       d="m 118.41994,42.45868 h 8.46846 v 8.46846 h -8.46846 z"
       style="fill:#ffe6e6;fill-opacity:1;fill-rule:nonzero;stroke:none"
       transform="matrix(1.3333333,0,0,-1.3333333,68.865333,114.10933)" />
    <path
       id="path92"
       d="m 143.94647,-84.87508 h 8.46846 v 8.46846 h -8.46846 z"
       style="fill:#ffe6e6;fill-opacity:1;fill-rule:nonzero;stroke:none"
       transform="matrix(1.3333333,0,0,-1.3333333,68.865333,114.10933)" />
    <path
       id="path93"
       d="m 152.4553,-84.87508 h 8.46846 v 8.46846 h -8.46846 z"
       style="fill:#ffe6e6;fill-opacity:1;fill-rule:nonzero;stroke:none"
       transform="matrix(1.3333333,0,0,-1.3333333,68.865333,114.10933)" />
    <path
       id="path94"
       d="m 160.96416,-84.87508 h 8.46846 v 8.46846 h -8.46846 z"
       style="fill:#ffe6e6;fill-opacity:1;fill-rule:nonzero;stroke:none"
       transform="matrix(1.3333333,0,0,-1.3333333,68.865333,114.10933)" />
    <path
       id="path95"
       d="m 169.473,-84.87508 h 8.46846 v 8.46846 H 169.473 Z"
       style="fill:#ffe6e6;fill-opacity:1;fill-rule:nonzero;stroke:none"
       transform="matrix(1.3333333,0,0,-1.3333333,68.865333,114.10933)" />
    <path
       id="path96"
       d="m 143.94647,-76.38617 h 8.46846 v 8.46846 h -8.46846 z"
       style="fill:#ffe6e6;fill-opacity:1;fill-rule:nonzero;stroke:none"
       transform="matrix(1.3333333,0,0,-1.3333333,68.865333,114.10933)" />
    <path
       id="path97"
       d="m 152.4553,-76.38617 h 8.46846 v 8.46846 h -8.46846 z"
       style="fill:#e60000;fill-opacity:1;fill-rule:nonzero;stroke:none"
       transform="matrix(1.3333333,0,0,-1.3333333,68.865333,114.10933)" />
    <path
       id="path98"
       d="m 160.96416,-76.38617 h 8.46846 v 8.46846 h -8.46846 z"
       style="fill:#ffe6e6;fill-opacity:1;fill-rule:nonzero;stroke:none"
       transform="matrix(1.3333333,0,0,-1.3333333,68.865333,114.10933)" />
    <path
       id="path99"
       d="m 169.473,-76.38617 h 8.46846 v 8.46846 H 169.473 Z"
       style="fill:#ffe6e6;fill-opacity:1;fill-rule:nonzero;stroke:none"
       transform="matrix(1.3333333,0,0,-1.3333333,68.865333,114.10933)" />
    <path
       id="path100"
       d="m 143.94647,-67.89725 h 8.46846 v 8.46846 h -8.46846 z"
       style="fill:#e60000;fill-opacity:1;fill-rule:nonzero;stroke:none"
       transform="matrix(1.3333333,0,0,-1.3333333,68.865333,114.10933)" />
    <path
       id="path101"
       d="m 152.4553,-67.89725 h 8.46846 v 8.46846 h -8.46846 z"
       style="fill:#e60000;fill-opacity:1;fill-rule:nonzero;stroke:none"
       transform="matrix(1.3333333,0,0,-1.3333333,68.865333,114.10933)" />
    <path
       id="path102"
       d="m 160.96416,-67.89725 h 8.46846 v 8.46846 h -8.46846 z"
       style="fill:#e60000;fill-opacity:1;fill-rule:nonzero;stroke:none"
       transform="matrix(1.3333333,0,0,-1.3333333,68.865333,114.10933)" />
    <path
       id="path103"
       d="m 169.473,-67.89725 h 8.46846 v 8.46846 H 169.473 Z"
       style="fill:#ffe6e6;fill-opacity:1;fill-rule:nonzero;stroke:none"
       transform="matrix(1.3333333,0,0,-1.3333333,68.865333,114.10933)" />
    <path
       id="path104"
       d="m 143.94647,-59.40833 h 8.46846 v 8.46846 h -8.46846 z"
       style="fill:#ffe6e6;fill-opacity:1;fill-rule:nonzero;stroke:none"
       transform="matrix(1.3333333,0,0,-1.3333333,68.865333,114.10933)" />
    <path
       id="path105"
       d="m 152.4553,-59.40833 h 8.46846 v 8.46846 h -8.46846 z"
       style="fill:#ffe6e6;fill-opacity:1;fill-rule:nonzero;stroke:none"
       transform="matrix(1.3333333,0,0,-1.3333333,68.865333,114.10933)" />
    <path
       id="path106"
       d="m 160.96416,-59.40833 h 8.46846 v 8.46846 h -8.46846 z"
       style="fill:#ffe6e6;fill-opacity:1;fill-rule:nonzero;stroke:none"
       transform="matrix(1.3333333,0,0,-1.3333333,68.865333,114.10933)" />
    <path
       id="path107"
       d="m 169.473,-59.40833 h 8.46846 v 8.46846 H 169.473 Z"
       style="fill:#ffe6e6;fill-opacity:1;fill-rule:nonzero;stroke:none"
       transform="matrix(1.3333333,0,0,-1.3333333,68.865333,114.10933)" />
    <path
       id="path108"
       d="m 177.98186,-25.45265 h 8.46846 v 8.46846 h -8.46846 z"
       style="fill:#ffe6e6;fill-opacity:1;fill-rule:nonzero;stroke:none"
       transform="matrix(1.3333333,0,0,-1.3333333,68.865333,114.10933)" />
    <path
       id="path109"
       d="m 186.49069,-25.45265 h 8.46846 v 8.46846 h -8.46846 z"
       style="fill:#ffe6e6;fill-opacity:1;fill-rule:nonzero;stroke:none"
       transform="matrix(1.3333333,0,0,-1.3333333,68.865333,114.10933)" />
    <path
       id="path110"
       d="m 194.99954,-25.45265 h 8.46846 v 8.46846 h -8.46846 z"
       style="fill:#ffe6e6;fill-opacity:1;fill-rule:nonzero;stroke:none"
       transform="matrix(1.3333333,0,0,-1.3333333,68.865333,114.10933)" />
    <path
       id="path111"
       d="m 203.50838,-25.45265 h 8.46846 v 8.46846 h -8.46846 z"
       style="fill:#ffe6e6;fill-opacity:1;fill-rule:nonzero;stroke:none"
       transform="matrix(1.3333333,0,0,-1.3333333,68.865333,114.10933)" />
    <path
       id="path112"
       d="m 177.98186,-16.96373 h 8.46846 v 8.46846 h -8.46846 z"
       style="fill:#ffe6e6;fill-opacity:1;fill-rule:nonzero;stroke:none"
       transform="matrix(1.3333333,0,0,-1.3333333,68.865333,114.10933)" />
    <path
       id="path113"
       d="m 186.49069,-16.96373 h 8.46846 v 8.46846 h -8.46846 z"
       style="fill:#ffe6e6;fill-opacity:1;fill-rule:nonzero;stroke:none"
       transform="matrix(1.3333333,0,0,-1.3333333,68.865333,114.10933)" />
    <path
       id="path114"
       d="m 194.99954,-16.96373 h 8.46846 v 8.46846 h -8.46846 z"
       style="fill:#ffe6e6;fill-opacity:1;fill-rule:nonzero;stroke:none"
       transform="matrix(1.3333333,0,0,-1.3333333,68.865333,114.10933)" />
    <path
       id="path115"
       d="m 203.50838,-16.96373 h 8.46846 v 8.46846 h -8.46846 z"
       style="fill:#ffe6e6;fill-opacity:1;fill-rule:nonzero;stroke:none"
       transform="matrix(1.3333333,0,0,-1.3333333,68.865333,114.10933)" />
    <path
       id="path116"
       d="m 177.98186,-8.47481 h 8.46846 v 8.46846 h -8.46846 z"
       style="fill:#e60000;fill-opacity:1;fill-rule:nonzero;stroke:none"
       transform="matrix(1.3333333,0,0,-1.3333333,68.865333,114.10933)" />
    <path
       id="path117"
       d="m 186.49069,-8.47481 h 8.46846 v 8.46846 h -8.46846 z"
       style="fill:#e60000;fill-opacity:1;fill-rule:nonzero;stroke:none"
       transform="matrix(1.3333333,0,0,-1.3333333,68.865333,114.10933)" />
    <path
       id="path118"
       d="m 194.99954,-8.47481 h 8.46846 v 8.46846 h -8.46846 z"
       style="fill:#e60000;fill-opacity:1;fill-rule:nonzero;stroke:none"
       transform="matrix(1.3333333,0,0,-1.3333333,68.865333,114.10933)" />
    <path
       id="path119"
       d="m 203.50838,-8.47481 h 8.46846 v 8.46846 h -8.46846 z"
       style="fill:#ffe6e6;fill-opacity:1;fill-rule:nonzero;stroke:none"
       transform="matrix(1.3333333,0,0,-1.3333333,68.865333,114.10933)" />
    <path
       id="path120"
       d="m 177.98186,0.01408 h 8.46846 v 8.46846 h -8.46846 z"
       style="fill:#ffe6e6;fill-opacity:1;fill-rule:nonzero;stroke:none"
       transform="matrix(1.3333333,0,0,-1.3333333,68.865333,114.10933)" />
    <path
       id="path121"
       d="m 186.49069,0.01408 h 8.46846 v 8.46846 h -8.46846 z"
       style="fill:#e60000;fill-opacity:1;fill-rule:nonzero;stroke:none"
       transform="matrix(1.3333333,0,0,-1.3333333,68.865333,114.10933)" />
    <path
       id="path122"
       d="m 194.99954,0.01408 h 8.46846 v 8.46846 h -8.46846 z"
       style="fill:#ffe6e6;fill-opacity:1;fill-rule:nonzero;stroke:none"
       transform="matrix(1.3333333,0,0,-1.3333333,68.865333,114.10933)" />
    <path
       id="path123"
       d="m 203.50838,0.01408 h 8.46846 v 8.46846 h -8.46846 z"
       style="fill:#ffe6e6;fill-opacity:1;fill-rule:nonzero;stroke:none"
       transform="matrix(1.3333333,0,0,-1.3333333,68.865333,114.10933)" />
    <path
       id="path124"
       d="m 92.78883,16.98286 h 17.10208 m -17.10208,8.48891 h 17.10208 m -17.10208,8.48891 h 17.10208 m -17.10208,8.4889 h 17.10208 m -17.10208,8.47895 h 17.10208 M 92.87325,16.97781 v 33.9531 m 8.50883,-33.9531 v 33.9531 m 8.49887,-33.9531 v 33.9531"
       style="fill:none;stroke:#404040;stroke-width:0.19925;stroke-linecap:butt;stroke-linejoin:miter;stroke-miterlimit:10;stroke-dasharray:none;stroke-opacity:1"
       transform="matrix(1.3333333,0,0,-1.3333333,68.865333,114.10933)" />
    <path
       id="path125"
       d="m 194.97417,-25.46165 h 17.01638 m -17.01638,8.4889 h 17.01638 m -17.01638,8.48891 h 17.01638 m -17.01638,8.48889 h 17.01638 m -17.01638,8.47896 h 17.01638 M 194.97928,-25.46416 V 8.48889 m 8.50883,-33.95305 V 8.48889 m 8.49887,-33.95305 V 8.48889"
       style="fill:none;stroke:#404040;stroke-width:0.19925;stroke-linecap:butt;stroke-linejoin:miter;stroke-miterlimit:10;stroke-dasharray:none;stroke-opacity:1"
       transform="matrix(1.3333333,0,0,-1.3333333,68.865333,114.10933)" />
    <path
       id="path126"
       d="m 109.91109,-84.87508 h 8.46846 v 8.46846 h -8.46846 z"
       style="fill:#808080;fill-opacity:1;fill-rule:nonzero;stroke:none"
       transform="matrix(1.3333333,0,0,-1.3333333,68.865333,114.10933)" />
    <path
       id="path127"
       d="m 118.41994,-84.87508 h 8.46846 v 8.46846 h -8.46846 z"
       style="fill:#808080;fill-opacity:1;fill-rule:nonzero;stroke:none"
       transform="matrix(1.3333333,0,0,-1.3333333,68.865333,114.10933)" />
    <path
       id="path128"
       d="m 126.92877,-84.87508 h 8.46846 v 8.46846 h -8.46846 z"
       style="fill:#808080;fill-opacity:1;fill-rule:nonzero;stroke:none"
       transform="matrix(1.3333333,0,0,-1.3333333,68.865333,114.10933)" />
    <path
       id="path129"
       d="m 135.43762,-84.87508 h 8.46846 v 8.46846 h -8.46846 z"
       style="fill:#808080;fill-opacity:1;fill-rule:nonzero;stroke:none"
       transform="matrix(1.3333333,0,0,-1.3333333,68.865333,114.10933)" />
    <path
       id="path130"
       d="m 143.94647,-84.87508 h 8.46846 v 8.46846 h -8.46846 z"
       style="fill:#808080;fill-opacity:1;fill-rule:nonzero;stroke:none"
       transform="matrix(1.3333333,0,0,-1.3333333,68.865333,114.10933)" />
    <path
       id="path131"
       d="m 152.4553,-84.87508 h 8.46846 v 8.46846 h -8.46846 z"
       style="fill:#808080;fill-opacity:1;fill-rule:nonzero;stroke:none"
       transform="matrix(1.3333333,0,0,-1.3333333,68.865333,114.10933)" />
    <path
       id="path132"
       d="m 160.96416,-84.87508 h 8.46846 v 8.46846 h -8.46846 z"
       style="fill:#808080;fill-opacity:1;fill-rule:nonzero;stroke:none"
       transform="matrix(1.3333333,0,0,-1.3333333,68.865333,114.10933)" />
    <path
       id="path133"
       d="m 169.473,-84.87508 h 8.46846 v 8.46846 H 169.473 Z"
       style="fill:#808080;fill-opacity:1;fill-rule:nonzero;stroke:none"
       transform="matrix(1.3333333,0,0,-1.3333333,68.865333,114.10933)" />
    <path
       id="path134"
       d="m 177.98186,-84.87508 h 8.46846 v 8.46846 h -8.46846 z"
       style="fill:#808080;fill-opacity:1;fill-rule:nonzero;stroke:none"
       transform="matrix(1.3333333,0,0,-1.3333333,68.865333,114.10933)" />
    <path
       id="path135"
       d="m 186.49069,-84.87508 h 8.46846 v 8.46846 h -8.46846 z"
       style="fill:#808080;fill-opacity:1;fill-rule:nonzero;stroke:none"
       transform="matrix(1.3333333,0,0,-1.3333333,68.865333,114.10933)" />
    <path
       id="path136"
       d="m 126.92877,-76.38617 h 8.46846 v 8.46846 h -8.46846 z"
       style="fill:#808080;fill-opacity:1;fill-rule:nonzero;stroke:none"
       transform="matrix(1.3333333,0,0,-1.3333333,68.865333,114.10933)" />
    <path
       id="path137"
       d="m 135.43762,-76.38617 h 8.46846 v 8.46846 h -8.46846 z"
       style="fill:#808080;fill-opacity:1;fill-rule:nonzero;stroke:none"
       transform="matrix(1.3333333,0,0,-1.3333333,68.865333,114.10933)" />
    <path
       id="path138"
       d="m 143.94647,-76.38617 h 8.46846 v 8.46846 h -8.46846 z"
       style="fill:#808080;fill-opacity:1;fill-rule:nonzero;stroke:none"
       transform="matrix(1.3333333,0,0,-1.3333333,68.865333,114.10933)" />
    <path
       id="path139"
       d="m 160.96416,-76.38617 h 8.46846 v 8.46846 h -8.46846 z"
       style="fill:#808080;fill-opacity:1;fill-rule:nonzero;stroke:none"
       transform="matrix(1.3333333,0,0,-1.3333333,68.865333,114.10933)" />
    <path
       id="path140"
       d="m 169.473,-76.38617 h 8.46846 v 8.46846 H 169.473 Z"
       style="fill:#808080;fill-opacity:1;fill-rule:nonzero;stroke:none"
       transform="matrix(1.3333333,0,0,-1.3333333,68.865333,114.10933)" />
    <path
       id="path141"
       d="m 177.98186,-76.38617 h 8.46846 v 8.46846 h -8.46846 z"
       style="fill:#808080;fill-opacity:1;fill-rule:nonzero;stroke:none"
       transform="matrix(1.3333333,0,0,-1.3333333,68.865333,114.10933)" />
    <path
       id="path142"
       d="m 186.49069,-76.38617 h 8.46846 v 8.46846 h -8.46846 z"
       style="fill:#808080;fill-opacity:1;fill-rule:nonzero;stroke:none"
       transform="matrix(1.3333333,0,0,-1.3333333,68.865333,114.10933)" />
    <path
       id="path143"
       d="m 135.43762,-67.89725 h 8.46846 v 8.46846 h -8.46846 z"
       style="fill:#808080;fill-opacity:1;fill-rule:nonzero;stroke:none"
       transform="matrix(1.3333333,0,0,-1.3333333,68.865333,114.10933)" />
    <path
       id="path144"
       d="m 143.94647,-67.89725 h 8.46846 v 8.46846 h -8.46846 z"
       style="fill:#808080;fill-opacity:1;fill-rule:nonzero;stroke:none"
       transform="matrix(1.3333333,0,0,-1.3333333,68.865333,114.10933)" />
    <path
       id="path145"
       d="m 160.96416,-67.89725 h 8.46846 v 8.46846 h -8.46846 z"
       style="fill:#808080;fill-opacity:1;fill-rule:nonzero;stroke:none"
       transform="matrix(1.3333333,0,0,-1.3333333,68.865333,114.10933)" />
    <path
       id="path146"
       d="m 169.473,-67.89725 h 8.46846 v 8.46846 H 169.473 Z"
       style="fill:#808080;fill-opacity:1;fill-rule:nonzero;stroke:none"
       transform="matrix(1.3333333,0,0,-1.3333333,68.865333,114.10933)" />
    <path
       id="path147"
       d="m 177.98186,-67.89725 h 8.46846 v 8.46846 h -8.46846 z"
       style="fill:#808080;fill-opacity:1;fill-rule:nonzero;stroke:none"
       transform="matrix(1.3333333,0,0,-1.3333333,68.865333,114.10933)" />
    <path
       id="path148"
       d="m 109.89091,-84.88399 h 85.08326 m -85.08326,8.48891 h 85.08326 m -85.08326,8.48891 h 85.08326 m -85.08326,8.48889 h 85.08326 m -85.08326,8.4889 h 85.08326 m -85.08326,8.48891 h 85.08326 m -85.08326,8.48891 h 85.08326 m -85.08326,8.48891 h 85.08326 m -85.08326,8.4889 h 85.08326 m -85.08326,8.48891 h 85.08326 m -85.08326,8.48889 h 85.08326 m -85.08326,8.48891 h 85.08326 m -85.08326,8.4889 h 85.08326 m -85.08326,8.48891 h 85.08326 m -85.08326,8.48891 h 85.08326 m -85.08326,8.4889 h 85.08326 m -85.08326,8.48891 h 85.08326 m -85.08326,8.48891 h 85.08326 m -85.08326,8.4889 h 85.08326 m -85.08326,8.48891 h 85.08326 M 109.89091,-84.88399 V 84.88399 m 8.50884,-169.76798 V 84.88399 m 8.50883,-169.76798 V 84.88399 m 8.50884,-169.76798 V 84.88399 m 8.50883,-169.76798 V 84.88399 m 8.50884,-169.76798 V 84.88399 m 8.50883,-169.76798 V 84.88399 m 8.50885,-169.76798 V 84.88399 m 8.50884,-169.76798 V 84.88399 m 8.50883,-169.76798 V 84.88399 m 8.49887,-169.76798 V 84.88399"
       style="fill:none;stroke:#404040;stroke-width:0.19925;stroke-linecap:butt;stroke-linejoin:miter;stroke-miterlimit:10;stroke-dasharray:none;stroke-opacity:1"
       transform="matrix(1.3333333,0,0,-1.3333333,68.865333,114.10933)" />
    <path
       id="path149"
       d="m 109.89091,84.88399 h 85.08326"
       style="fill:none;stroke:#404040;stroke-width:0.3985;stroke-linecap:butt;stroke-linejoin:miter;stroke-miterlimit:10;stroke-dasharray:none;stroke-opacity:1"
       transform="matrix(1.3333333,0,0,-1.3333333,68.865333,114.10933)" />
  </g>
</svg>
