<?xml version="1.0" encoding="UTF-8" standalone="no"?>
<!-- Created with Inkscape (http://www.inkscape.org/) -->

<svg
   version="1.1"
   id="svg1"
   width="253.68401"
   height="260.37201"
   viewBox="0 0 253.68401 260.37201"
   sodipodi:docname="main.pdf"
   xmlns:inkscape="http://www.inkscape.org/namespaces/inkscape"
   xmlns:sodipodi="http://sodipodi.sourceforge.net/DTD/sodipodi-0.dtd"
   xmlns="http://www.w3.org/2000/svg"
   xmlns:svg="http://www.w3.org/2000/svg">
  <defs
     id="defs1" />
  <sodipodi:namedview
     id="namedview1"
     pagecolor="#ffffff"
     bordercolor="#000000"
     borderopacity="0.25"
     inkscape:showpageshadow="2"
     inkscape:pageopacity="0.0"
     inkscape:pagecheckerboard="0"
     inkscape:deskcolor="#d1d1d1">
    <inkscape:page
       x="0"
       y="0"
       inkscape:label="1"
       id="page1"
       width="253.68401"
       height="260.37201"
       margin="0"
       bleed="0" />
  </sodipodi:namedview>
  <g
     id="g1"
     inkscape:groupmode="layer"
     inkscape:label="1">
    <path
       id="path1"
       d="M 0,0 H 190.263 V 195.279 H 0 Z"
       style="fill:#ffffff;fill-opacity:1;fill-rule:nonzero;stroke:none"
       transform="matrix(1.3333333,0,0,-1.3333333,0,260.372)" />
    <path
       id="path2"
       d="m -42.52144,-84.87508 h 8.46846 v 8.46846 h -8.46846 z"
       style="fill:#808080;fill-opacity:1;fill-rule:nonzero;stroke:none"
       transform="matrix(1.3333333,0,0,-1.3333333,76.472,128.61067)" />
    <path
       id="path3"
       d="m -34.01259,-84.87508 h 8.46846 v 8.46846 h -8.46846 z"
       style="fill:#808080;fill-opacity:1;fill-rule:nonzero;stroke:none"
       transform="matrix(1.3333333,0,0,-1.3333333,76.472,128.61067)" />
    <path
       id="path4"
       d="m -25.50375,-84.87508 h 8.46846 v 8.46846 h -8.46846 z"
       style="fill:#808080;fill-opacity:1;fill-rule:nonzero;stroke:none"
       transform="matrix(1.3333333,0,0,-1.3333333,76.472,128.61067)" />
    <path
       id="path5"
       d="m -16.9949,-84.87508 h 8.46846 v 8.46846 h -8.46846 z"
       style="fill:#808080;fill-opacity:1;fill-rule:nonzero;stroke:none"
       transform="matrix(1.3333333,0,0,-1.3333333,76.472,128.61067)" />
    <path
       id="path6"
       d="m -8.48605,-84.87508 h 8.46846 v 8.46846 h -8.46846 z"
       style="fill:#808080;fill-opacity:1;fill-rule:nonzero;stroke:none"
       transform="matrix(1.3333333,0,0,-1.3333333,76.472,128.61067)" />
    <path
       id="path7"
       d="m 0.02277,-84.87508 h 8.46846 v 8.46846 H 0.02277 Z"
       style="fill:#808080;fill-opacity:1;fill-rule:nonzero;stroke:none"
       transform="matrix(1.3333333,0,0,-1.3333333,76.472,128.61067)" />
    <path
       id="path8"
       d="m 8.53162,-84.87508 h 8.46846 v 8.46846 H 8.53162 Z"
       style="fill:#808080;fill-opacity:1;fill-rule:nonzero;stroke:none"
       transform="matrix(1.3333333,0,0,-1.3333333,76.472,128.61067)" />
    <path
       id="path9"
       d="m 17.04045,-84.87508 h 8.46846 v 8.46846 h -8.46846 z"
       style="fill:#808080;fill-opacity:1;fill-rule:nonzero;stroke:none"
       transform="matrix(1.3333333,0,0,-1.3333333,76.472,128.61067)" />
    <path
       id="path10"
       d="m 25.5493,-84.87508 h 8.46846 v 8.46846 H 25.5493 Z"
       style="fill:#808080;fill-opacity:1;fill-rule:nonzero;stroke:none"
       transform="matrix(1.3333333,0,0,-1.3333333,76.472,128.61067)" />
    <path
       id="path11"
       d="m 34.05814,-84.87508 h 8.46846 v 8.46846 h -8.46846 z"
       style="fill:#808080;fill-opacity:1;fill-rule:nonzero;stroke:none"
       transform="matrix(1.3333333,0,0,-1.3333333,76.472,128.61067)" />
    <path
       id="path12"
       d="m -25.50375,-76.38617 h 8.46846 v 8.46846 h -8.46846 z"
       style="fill:#808080;fill-opacity:1;fill-rule:nonzero;stroke:none"
       transform="matrix(1.3333333,0,0,-1.3333333,76.472,128.61067)" />
    <path
       id="path13"
       d="m -16.9949,-76.38617 h 8.46846 v 8.46846 h -8.46846 z"
       style="fill:#808080;fill-opacity:1;fill-rule:nonzero;stroke:none"
       transform="matrix(1.3333333,0,0,-1.3333333,76.472,128.61067)" />
    <path
       id="path14"
       d="m -8.48605,-76.38617 h 8.46846 v 8.46846 h -8.46846 z"
       style="fill:#808080;fill-opacity:1;fill-rule:nonzero;stroke:none"
       transform="matrix(1.3333333,0,0,-1.3333333,76.472,128.61067)" />
    <path
       id="path15"
       d="m 8.53162,-76.38617 h 8.46846 v 8.46846 H 8.53162 Z"
       style="fill:#808080;fill-opacity:1;fill-rule:nonzero;stroke:none"
       transform="matrix(1.3333333,0,0,-1.3333333,76.472,128.61067)" />
    <path
       id="path16"
       d="m 17.04045,-76.38617 h 8.46846 v 8.46846 h -8.46846 z"
       style="fill:#808080;fill-opacity:1;fill-rule:nonzero;stroke:none"
       transform="matrix(1.3333333,0,0,-1.3333333,76.472,128.61067)" />
    <path
       id="path17"
       d="m 25.5493,-76.38617 h 8.46846 v 8.46846 H 25.5493 Z"
       style="fill:#808080;fill-opacity:1;fill-rule:nonzero;stroke:none"
       transform="matrix(1.3333333,0,0,-1.3333333,76.472,128.61067)" />
    <path
       id="path18"
       d="m 34.05814,-76.38617 h 8.46846 v 8.46846 h -8.46846 z"
       style="fill:#808080;fill-opacity:1;fill-rule:nonzero;stroke:none"
       transform="matrix(1.3333333,0,0,-1.3333333,76.472,128.61067)" />
    <path
       id="path19"
       d="m -16.9949,-67.89725 h 8.46846 v 8.46846 h -8.46846 z"
       style="fill:#808080;fill-opacity:1;fill-rule:nonzero;stroke:none"
       transform="matrix(1.3333333,0,0,-1.3333333,76.472,128.61067)" />
    <path
       id="path20"
       d="m -8.48605,-67.89725 h 8.46846 v 8.46846 h -8.46846 z"
       style="fill:#808080;fill-opacity:1;fill-rule:nonzero;stroke:none"
       transform="matrix(1.3333333,0,0,-1.3333333,76.472,128.61067)" />
    <path
       id="path21"
       d="m 8.53162,-67.89725 h 8.46846 v 8.46846 H 8.53162 Z"
       style="fill:#808080;fill-opacity:1;fill-rule:nonzero;stroke:none"
       transform="matrix(1.3333333,0,0,-1.3333333,76.472,128.61067)" />
    <path
       id="path22"
       d="m 17.04045,-67.89725 h 8.46846 v 8.46846 h -8.46846 z"
       style="fill:#808080;fill-opacity:1;fill-rule:nonzero;stroke:none"
       transform="matrix(1.3333333,0,0,-1.3333333,76.472,128.61067)" />
    <path
       id="path23"
       d="m 25.5493,-67.89725 h 8.46846 v 8.46846 H 25.5493 Z"
       style="fill:#808080;fill-opacity:1;fill-rule:nonzero;stroke:none"
       transform="matrix(1.3333333,0,0,-1.3333333,76.472,128.61067)" />
    <path
       id="path24"
       d="m -25.50375,-33.94157 h 8.46846 v 8.46846 h -8.46846 z"
       style="fill:#e6e6ff;fill-opacity:1;fill-rule:nonzero;stroke:none"
       transform="matrix(1.3333333,0,0,-1.3333333,76.472,128.61067)" />
    <path
       id="path25"
       d="m -16.9949,-33.94157 h 8.46846 v 8.46846 h -8.46846 z"
       style="fill:#e6e6ff;fill-opacity:1;fill-rule:nonzero;stroke:none"
       transform="matrix(1.3333333,0,0,-1.3333333,76.472,128.61067)" />
    <path
       id="path26"
       d="m -8.48605,-33.94157 h 8.46846 v 8.46846 h -8.46846 z"
       style="fill:#e6e6ff;fill-opacity:1;fill-rule:nonzero;stroke:none"
       transform="matrix(1.3333333,0,0,-1.3333333,76.472,128.61067)" />
    <path
       id="path27"
       d="m 0.02277,-33.94157 h 8.46846 v 8.46846 H 0.02277 Z"
       style="fill:#e6e6ff;fill-opacity:1;fill-rule:nonzero;stroke:none"
       transform="matrix(1.3333333,0,0,-1.3333333,76.472,128.61067)" />
    <path
       id="path28"
       d="m -25.50375,-25.45265 h 8.46846 v 8.46846 h -8.46846 z"
       style="fill:#e6e6ff;fill-opacity:1;fill-rule:nonzero;stroke:none"
       transform="matrix(1.3333333,0,0,-1.3333333,76.472,128.61067)" />
    <path
       id="path29"
       d="m -16.9949,-25.45265 h 8.46846 v 8.46846 h -8.46846 z"
       style="fill:#0000e6;fill-opacity:1;fill-rule:nonzero;stroke:none"
       transform="matrix(1.3333333,0,0,-1.3333333,76.472,128.61067)" />
    <path
       id="path30"
       d="m -8.48605,-25.45265 h 8.46846 v 8.46846 h -8.46846 z"
       style="fill:#e6e6ff;fill-opacity:1;fill-rule:nonzero;stroke:none"
       transform="matrix(1.3333333,0,0,-1.3333333,76.472,128.61067)" />
    <path
       id="path31"
       d="m 0.02277,-25.45265 h 8.46846 v 8.46846 H 0.02277 Z"
       style="fill:#e6e6ff;fill-opacity:1;fill-rule:nonzero;stroke:none"
       transform="matrix(1.3333333,0,0,-1.3333333,76.472,128.61067)" />
    <path
       id="path32"
       d="m -25.50375,-16.96373 h 8.46846 v 8.46846 h -8.46846 z"
       style="fill:#e6e6ff;fill-opacity:1;fill-rule:nonzero;stroke:none"
       transform="matrix(1.3333333,0,0,-1.3333333,76.472,128.61067)" />
    <path
       id="path33"
       d="m -16.9949,-16.96373 h 8.46846 v 8.46846 h -8.46846 z"
       style="fill:#0000e6;fill-opacity:1;fill-rule:nonzero;stroke:none"
       transform="matrix(1.3333333,0,0,-1.3333333,76.472,128.61067)" />
    <path
       id="path34"
       d="m -8.48605,-16.96373 h 8.46846 v 8.46846 h -8.46846 z"
       style="fill:#0000e6;fill-opacity:1;fill-rule:nonzero;stroke:none"
       transform="matrix(1.3333333,0,0,-1.3333333,76.472,128.61067)" />
    <path
       id="path35"
       d="m 0.02277,-16.96373 h 8.46846 v 8.46846 H 0.02277 Z"
       style="fill:#e6e6ff;fill-opacity:1;fill-rule:nonzero;stroke:none"
       transform="matrix(1.3333333,0,0,-1.3333333,76.472,128.61067)" />
    <path
       id="path36"
       d="m -25.50375,-8.47481 h 8.46846 v 8.46846 h -8.46846 z"
       style="fill:#e6e6ff;fill-opacity:1;fill-rule:nonzero;stroke:none"
       transform="matrix(1.3333333,0,0,-1.3333333,76.472,128.61067)" />
    <path
       id="path37"
       d="m -16.9949,-8.47481 h 8.46846 v 8.46846 h -8.46846 z"
       style="fill:#0000e6;fill-opacity:1;fill-rule:nonzero;stroke:none"
       transform="matrix(1.3333333,0,0,-1.3333333,76.472,128.61067)" />
    <path
       id="path38"
       d="m -8.48605,-8.47481 h 8.46846 v 8.46846 h -8.46846 z"
       style="fill:#e6e6ff;fill-opacity:1;fill-rule:nonzero;stroke:none"
       transform="matrix(1.3333333,0,0,-1.3333333,76.472,128.61067)" />
    <path
       id="path39"
       d="m 0.02277,-8.47481 h 8.46846 v 8.46846 H 0.02277 Z"
       style="fill:#e6e6ff;fill-opacity:1;fill-rule:nonzero;stroke:none"
       transform="matrix(1.3333333,0,0,-1.3333333,76.472,128.61067)" />
    <path
       id="path40"
       d="m -42.54163,-84.88399 h 85.08326 m -85.08326,8.48891 h 85.08326 m -85.08326,8.48891 h 85.08326 m -85.08326,8.48889 h 85.08326 m -85.08326,8.4889 h 85.08326 m -85.08326,8.48891 h 85.08326 m -85.08326,8.48891 h 85.08326 m -85.08326,8.48891 h 85.08326 m -85.08326,8.4889 h 85.08326 m -85.08326,8.48891 h 85.08326 m -85.08326,8.48889 h 85.08326 m -85.08326,8.48891 h 85.08326 m -85.08326,8.4889 h 85.08326 m -85.08326,8.48891 h 85.08326 m -85.08326,8.48891 h 85.08326 m -85.08326,8.4889 h 85.08326 m -85.08326,8.48891 h 85.08326 m -85.08326,8.48891 h 85.08326 m -85.08326,8.4889 h 85.08326 m -85.08326,8.48891 H 42.54163 M -42.54163,-84.88399 V 84.88399 m 8.50885,-169.76798 V 84.88399 m 8.50884,-169.76798 V 84.88399 M -17.0151,-84.88399 V 84.88399 M -8.50627,-84.88399 V 84.88399 M 0.00255,-84.88399 V 84.88399 M 8.51138,-84.88399 V 84.88399 M 17.02022,-84.88399 V 84.88399 M 25.52905,-84.88399 V 84.88399 M 34.03789,-84.88399 V 84.88399 M 42.53677,-84.88399 V 84.88399"
       style="fill:none;stroke:#404040;stroke-width:0.19925;stroke-linecap:butt;stroke-linejoin:miter;stroke-miterlimit:10;stroke-dasharray:none;stroke-opacity:1"
       transform="matrix(1.3333333,0,0,-1.3333333,76.472,128.61067)" />
    <path
       id="path41"
       d="m 3.8917969,-2.5910859 c 0,-0.3867188 0,-1.3125 -0.375,-1.96875 -0.4101563,-0.7148438 -1.0195313,-0.8320313 -1.40625,-0.8320313 -0.3515625,0 -0.9726563,0.1054688 -1.37109377,0.796875 -0.38671875,0.6328125 -0.3984375,1.5 -0.3984375,2.0039063 0,0.5859375 0.0234375,1.3125 0.36328125,1.92187496 0.35156252,0.64453125 0.93750002,0.83203125 1.40625002,0.83203125 0.796875,0 1.2421875,-0.45703125 1.4765625,-0.9609375 0.28125,-0.56250001 0.3046875,-1.30078121 0.3046875,-1.79296871 z m -1.78125,2.22656246 c -0.328125,0 -0.7148438,-0.1875 -0.9140625,-0.76171876 -0.1640625,-0.4804687 -0.1640625,-0.984375 -0.1640625,-1.5703125 0,-0.7265625 0,-2.1679687 1.078125,-2.1679687 1.0898437,0 1.0898437,1.4414062 1.0898437,2.1679687 0,0.5273438 0,1.125 -0.1992187,1.640625 -0.2226563,0.57421876 -0.6210938,0.69140626 -0.890625,0.69140626 z m 0,0"
       style="fill:#000000;fill-opacity:1;fill-rule:nonzero;stroke:none"
       aria-label="0"
       transform="matrix(1.3333333,0,0,1.3333333,22.6,11.404)" />
    <path
       id="path42"
       d="M 2.5546719,-5.3918672 H 2.3788906 c -0.515625,0.46875 -1.171875,0.5039063 -1.64062497,0.5273438 v 0.4921875 c 0.30468747,0 0.70312497,-0.023437 1.10156247,-0.1757813 v 4.04296876 H 0.78514063 v 0.50390625 H 3.6210781 V -0.50514844 H 2.5546719 Z m 0,0"
       style="fill:#000000;fill-opacity:1;fill-rule:nonzero;stroke:none"
       aria-label="1"
       transform="matrix(1.3333333,0,0,1.3333333,33.945333,11.404)" />
    <path
       id="path43"
       d="m 2.2487969,-0.61061719 c -0.09375,0 -0.1875,0 -0.28125,0 H 1.0534844 L 2.2956719,-1.7004609 c 0.140625,-0.1289063 0.5273437,-0.421875 0.6796875,-0.5507813 0.3515625,-0.3164062 0.8203125,-0.7265625 0.8203125,-1.4179687 0,-0.9023438 -0.6679688,-1.7226563 -1.8046875,-1.7226563 -0.84375,0 -1.37109377,0.4453125 -1.64062502,1.265625 l 0.375,0.46875 c 0.1875,-0.6679687 0.45703122,-1.1835937 1.14843752,-1.1835937 0.6796875,0 1.1835937,0.46875 1.1835937,1.1835937 0,0.65625 -0.3867187,1.03125 -0.8671875,1.4882813 -0.1640625,0.1640625 -0.5859375,0.515625 -0.7617187,0.6796875 -0.2226563,0.2109375 -0.77343752,0.73828121 -1.00781252,0.93749996 v 0.55078125 H 3.7956719 v -0.609375 z m 0,0"
       style="fill:#000000;fill-opacity:1;fill-rule:nonzero;stroke:none"
       aria-label="2"
       transform="matrix(1.3333333,0,0,1.3333333,45.290667,11.404)" />
    <path
       id="path44"
       d="M 0.79548438,-4.0910859 C 1.1236094,-4.7238984 1.6978281,-4.8996797 2.0728281,-4.8996797 c 0.4804688,0 0.8320313,0.2695313 0.8320313,0.7265625 0,0.421875 -0.2929688,0.9375 -0.9023438,1.0429688 -0.035156,0 -0.070313,0 -0.5976562,0.046875 v 0.5273437 h 0.6210937 c 0.7617188,0 1.0429688,0.5976563 1.0429688,1.1015625 0,0.62109376 -0.3867188,1.08984376 -1.0078125,1.08984376 -0.5625,0 -1.20703127,-0.26953125 -1.60546877,-0.77343746 l -0.10546875,0.51562496 c 0.45703125,0.515625 1.10156252,0.78515625 1.72265622,0.78515625 1.0546875,0 1.7929688,-0.7734375 1.7929688,-1.61718751 0,-0.65625 -0.515625,-1.171875 -1.1484375,-1.359375 0.609375,-0.3164062 0.9140625,-0.84375 0.9140625,-1.359375 0,-0.6796875 -0.6914063,-1.21875 -1.546875,-1.21875 -0.703125,0 -1.27734377,0.3632813 -1.61718752,0.84375 z m 0,0"
       style="fill:#000000;fill-opacity:1;fill-rule:nonzero;stroke:none"
       aria-label="3"
       transform="matrix(1.3333333,0,0,1.3333333,56.634667,11.404)" />
    <path
       id="path45"
       d="m 3.1526953,-1.3371797 h 0.8320313 v -0.515625 H 3.1526953 v -3.375 H 2.3675391 l -2.13281254,3.375 v 0.515625 H 2.4730078 v 1.33593751 h 0.6796875 z m -2.23828124,-0.515625 c 0.24609374,-0.375 1.61718754,-2.5078125 1.61718754,-2.9882812 v 2.9882812 z m 0,0"
       style="fill:#000000;fill-opacity:1;fill-rule:nonzero;stroke:none"
       aria-label="4"
       transform="matrix(1.3333333,0,0,1.3333333,67.98,11.404)" />
    <path
       id="path46"
       d="m 1.3116641,-4.6770234 h 2.203125 V -5.2278047 H 0.66713281 v 2.9765625 H 1.2530703 c 0.1875,-0.421875 0.5625,-0.6210937 0.9257813,-0.6210937 0.328125,0 0.8203125,0.2226562 0.8203125,1.2421875 0,1.04296871 -0.6679688,1.26562496 -1.0664063,1.26562496 -0.5273437,0 -1.04296874,-0.26953125 -1.31249999,-0.72656246 l -0.3046875,0.48046871 c 0.3984375,0.48046875 0.98437499,0.7734375 1.61718749,0.7734375 1.0429688,0 1.8632813,-0.80859375 1.8632813,-1.78125001 0,-0.984375 -0.7265625,-1.78125 -1.6054688,-1.78125 -0.3398437,0 -0.6445312,0.1289063 -0.8789062,0.328125 z m 0,0"
       style="fill:#000000;fill-opacity:1;fill-rule:nonzero;stroke:none"
       aria-label="5"
       transform="matrix(1.3333333,0,0,1.3333333,79.325333,11.404)" />
    <path
       id="path47"
       d="m 3.5048125,-5.2395234 c -0.4335937,-0.1523438 -0.7382812,-0.1523438 -0.890625,-0.1523438 -1.2070312,0 -2.26171875,1.1367188 -2.26171875,2.8125 0,2.16796876 0.97265625,2.74218751 1.78125005,2.74218751 0.6445312,0 0.9726562,-0.3046875 1.21875,-0.55078125 0.515625,-0.55078125 0.515625,-1.11328126 0.515625,-1.39453126 0,-1.0429687 -0.5625,-1.9101562 -1.3359375,-1.9101562 -0.7734375,0 -1.1953125,0.4101562 -1.4296875,0.6445312 0.1054687,-1.1015625 0.65625,-1.8515625 1.5234375,-1.8515625 0.1523437,0 0.4804687,0.011719 0.8789062,0.1640625 z m -2.390625,3.4804687 c 0,-0.046875 0,-0.1640625 0,-0.1992187 0,-0.5507813 0.3398438,-1.2070313 1.0546875,-1.2070313 0.9726563,0 0.9726563,1.1132813 0.9726563,1.3828125 0,0.3046875 0,0.6445313 -0.2109375,0.97265626 -0.1992188,0.29296875 -0.4335938,0.4453125 -0.796875,0.4453125 -0.8554688,0 -0.984375,-1.04296876 -1.0195313,-1.39453126 z m 0,0"
       style="fill:#000000;fill-opacity:1;fill-rule:nonzero;stroke:none"
       aria-label="6"
       transform="matrix(1.3333333,0,0,1.3333333,90.670667,11.404)" />
    <path
       id="path48"
       d="m 1.9694688,-4.6184297 c 0.09375,0 0.1875,0 0.28125,0 H 3.2585313 C 2.0515,-3.4348359 1.2780625,-1.7707734 1.2780625,0.08078906 h 0.75 c 0,-2.33203126 1.125,-4.00781246 1.8398438,-4.74609376 v -0.5625 H 0.35228125 v 0.609375 z m 0,0"
       style="fill:#000000;fill-opacity:1;fill-rule:nonzero;stroke:none"
       aria-label="7"
       transform="matrix(1.3333333,0,0,1.3333333,102.01467,11.404)" />
    <path
       id="path49"
       d="m 2.73,-2.8254609 c 0.515625,-0.1640625 1.0195313,-0.5859375 1.0195313,-1.171875 0,-0.7265625 -0.6914063,-1.3945313 -1.640625,-1.3945313 -0.9492188,0 -1.64062505,0.6679688 -1.64062505,1.3945313 0,0.5976562 0.515625,1.0195312 1.03125005,1.171875 -0.70312505,0.2226562 -1.14843755,0.7617187 -1.14843755,1.3710937 0,0.85546876 0.76171875,1.61718751 1.75781255,1.61718751 1.0078125,0 1.7578125,-0.76171875 1.7578125,-1.61718751 0,-0.609375 -0.4453125,-1.1484375 -1.1367188,-1.3710937 z M 2.1089063,-3.0832734 c -0.5625,0 -1.03125,-0.328125 -1.03125,-0.9140625 0,-0.5039063 0.3632812,-0.9023438 1.03125,-0.9023438 0.6679687,0 1.03125,0.3984375 1.03125,0.9023438 0,0.5742187 -0.4453125,0.9140625 -1.03125,0.9140625 z m 0,2.71874996 c -0.5507813,0 -1.03125,-0.3515625 -1.03125,-1.08984376 0,-0.7265625 0.4570312,-1.1015625 1.03125,-1.1015625 0.5742187,0 1.0429687,0.3867188 1.0429687,1.1015625 0,0.73828126 -0.5039062,1.08984376 -1.0429687,1.08984376 z m 0,0"
       style="fill:#000000;fill-opacity:1;fill-rule:nonzero;stroke:none"
       aria-label="8"
       transform="matrix(1.3333333,0,0,1.3333333,113.36,11.404)" />
    <path
       id="path50"
       d="m 0.61064844,-0.20046094 c 0.39843746,0.28125 0.74999996,0.36328125 1.12499996,0.36328125 1.1132813,0 2.1328125,-1.125 2.1328125,-2.83593751 0,-2.1679687 -0.9609375,-2.71875 -1.7226562,-2.71875 -0.7148438,0 -1.03125,0.328125 -1.26562501,0.5625 -0.515625,0.515625 -0.52734375,1.0664063 -0.52734375,1.3828125 0,1.0195313 0.5625,1.9101563 1.33593746,1.9101563 0.9023438,0 1.3945313,-0.5976563 1.4414063,-0.6445313 -0.1171875,1.26562501 -0.7382813,1.81640626 -1.3945313,1.81640626 -0.4101562,0 -0.6679687,-0.15234375 -0.85546871,-0.29296875 z M 3.1067422,-3.4582734 c 0,0.046875 0,0.1289062 0,0.1757812 0,0.5859375 -0.3515625,1.21875 -1.0546875,1.21875 -0.2929688,0 -0.5390625,-0.09375 -0.7382813,-0.4101562 -0.2109375,-0.3164063 -0.234375,-0.6210938 -0.234375,-0.9726563 0,-0.3164062 0,-0.6796875 0.2578125,-1.0195312 0.1640625,-0.2460938 0.3984375,-0.4335938 0.796875,-0.4335938 0.7734375,0 0.9375,0.9257813 0.9726563,1.4414063 z m 0,0"
       style="fill:#000000;fill-opacity:1;fill-rule:nonzero;stroke:none"
       aria-label="9"
       transform="matrix(1.3333333,0,0,1.3333333,124.70533,11.404)" />
    <path
       id="path51"
       d="m 3.8892891,-2.58925 c 0,-0.3867188 0,-1.3125 -0.375,-1.96875 -0.4101563,-0.7148438 -1.0195313,-0.8320313 -1.40625,-0.8320313 -0.3515625,0 -0.9726563,0.1054688 -1.37109379,0.796875 -0.38671875,0.6328125 -0.3984375,1.5 -0.3984375,2.0039063 0,0.5859375 0.0234375,1.3125 0.36328125,1.921875 0.35156254,0.64453125 0.93750004,0.83203125 1.40625004,0.83203125 0.796875,0 1.2421875,-0.45703125 1.4765625,-0.9609375 C 3.8658516,-1.3587813 3.8892891,-2.0970625 3.8892891,-2.58925 Z m -1.78125,2.2265625 c -0.328125,0 -0.7148438,-0.1875 -0.9140625,-0.7617188 -0.1640625,-0.4804687 -0.1640625,-0.984375 -0.1640625,-1.5703125 0,-0.7265625 0,-2.1679687 1.078125,-2.1679687 1.0898437,0 1.0898437,1.4414062 1.0898437,2.1679687 0,0.5273438 0,1.125 -0.1992187,1.640625 -0.2226563,0.5742188 -0.6210938,0.6914063 -0.890625,0.6914063 z m 0,0"
       style="fill:#000000;fill-opacity:1;fill-rule:nonzero;stroke:none"
       aria-label="0"
       transform="matrix(1.3333333,0,0,1.3333333,10.076,24.577333)" />
    <path
       id="path52"
       d="M 2.5533516,-5.3917266 H 2.3775703 c -0.515625,0.46875 -1.171875,0.5039063 -1.64062499,0.5273438 v 0.4921875 c 0.30468749,0 0.70312499,-0.023437 1.10156249,-0.1757813 v 4.04296879 H 0.78382031 v 0.50390625 H 3.6197578 V -0.50500781 H 2.5533516 Z m 0,0"
       style="fill:#000000;fill-opacity:1;fill-rule:nonzero;stroke:none"
       aria-label="1"
       transform="matrix(1.3333333,0,0,1.3333333,10.076,35.896)" />
    <path
       id="path53"
       d="m 2.2486641,-0.60924219 c -0.09375,0 -0.1875,0 -0.28125,0 H 1.0533516 L 2.2955391,-1.6990859 c 0.140625,-0.1289063 0.5273437,-0.421875 0.6796875,-0.5507813 0.3515625,-0.3164062 0.8203125,-0.7265625 0.8203125,-1.4179687 0,-0.9023438 -0.6679688,-1.7226563 -1.8046875,-1.7226563 -0.84375,0 -1.37109379,0.4453125 -1.64062504,1.265625 l 0.375,0.46875 c 0.1875,-0.6679687 0.45703124,-1.1835937 1.14843754,-1.1835937 0.6796875,0 1.1835937,0.46875 1.1835937,1.1835937 0,0.65625 -0.3867187,1.03125 -0.8671875,1.4882813 -0.1640625,0.1640625 -0.5859375,0.515625 -0.7617187,0.6796875 -0.2226563,0.2109375 -0.77343754,0.73828121 -1.00781254,0.93749996 V 1.328125e-4 H 3.7955391 V -0.60924219 Z m 0,0"
       style="fill:#000000;fill-opacity:1;fill-rule:nonzero;stroke:none"
       aria-label="2"
       transform="matrix(1.3333333,0,0,1.3333333,10.076,47.214667)" />
    <path
       id="path54"
       d="M 0.79553906,-4.0884766 C 1.1236641,-4.7212891 1.6978828,-4.8970703 2.0728828,-4.8970703 c 0.4804688,0 0.8320313,0.2695312 0.8320313,0.7265625 0,0.421875 -0.2929688,0.9375 -0.9023438,1.0429687 -0.035156,0 -0.070312,0 -0.5976562,0.046875 v 0.5273438 h 0.6210937 c 0.7617188,0 1.0429688,0.5976562 1.0429688,1.1015625 0,0.62109374 -0.3867188,1.08984374 -1.0078125,1.08984374 -0.5625,0 -1.20703129,-0.26953125 -1.60546879,-0.77343754 l -0.10546875,0.51562504 c 0.45703125,0.515625 1.10156254,0.78515625 1.72265624,0.78515625 1.0546875,0 1.7929688,-0.7734375 1.7929688,-1.61718749 0,-0.65625 -0.515625,-1.171875 -1.1484375,-1.359375 0.609375,-0.3164063 0.9140625,-0.84375 0.9140625,-1.359375 0,-0.6796875 -0.6914063,-1.21875 -1.546875,-1.21875 -0.703125,0 -1.27734379,0.3632812 -1.61718754,0.84375 z m 0,0"
       style="fill:#000000;fill-opacity:1;fill-rule:nonzero;stroke:none"
       aria-label="3"
       transform="matrix(1.3333333,0,0,1.3333333,10.076,58.533333)" />
    <path
       id="path55"
       d="m 3.1510078,-1.3352656 h 0.8320313 v -0.515625 H 3.1510078 v -3.375 H 2.3658516 l -2.13281254,3.375 v 0.515625 H 2.4713203 V 6.71875e-4 h 0.6796875 z m -2.23828124,-0.515625 c 0.24609374,-0.375 1.61718754,-2.5078125 1.61718754,-2.9882813 v 2.9882813 z m 0,0"
       style="fill:#000000;fill-opacity:1;fill-rule:nonzero;stroke:none"
       aria-label="4"
       transform="matrix(1.3333333,0,0,1.3333333,10.076,69.850667)" />
    <path
       id="path56"
       d="m 1.3111641,-4.6768047 h 2.203125 V -5.2275859 H 0.66663281 v 2.9765625 H 1.2525703 c 0.1875,-0.421875 0.5625,-0.6210938 0.9257813,-0.6210938 0.328125,0 0.8203125,0.2226563 0.8203125,1.2421875 0,1.04296876 -0.6679688,1.26562501 -1.0664063,1.26562501 -0.5273437,0 -1.04296874,-0.26953125 -1.31249999,-0.72656251 l -0.3046875,0.48046876 c 0.3984375,0.48046875 0.98437499,0.7734375 1.61718749,0.7734375 1.0429688,0 1.8632813,-0.80859375 1.8632813,-1.78124996 0,-0.984375 -0.7265625,-1.78125 -1.6054688,-1.78125 -0.3398437,0 -0.6445312,0.1289062 -0.8789062,0.328125 z m 0,0"
       style="fill:#000000;fill-opacity:1;fill-rule:nonzero;stroke:none"
       aria-label="5"
       transform="matrix(1.3333333,0,0,1.3333333,10.076,81.169333)" />
    <path
       id="path57"
       d="m 3.5025703,-5.2380703 c -0.4335937,-0.1523438 -0.7382812,-0.1523438 -0.890625,-0.1523438 -1.2070312,0 -2.26171874,1.1367188 -2.26171874,2.8125 0,2.16796879 0.97265624,2.74218754 1.78125004,2.74218754 0.6445312,0 0.9726562,-0.3046875 1.21875,-0.55078125 0.515625,-0.55078125 0.515625,-1.11328129 0.515625,-1.39453129 0,-1.0429687 -0.5625,-1.9101562 -1.3359375,-1.9101562 -0.7734375,0 -1.1953125,0.4101562 -1.4296875,0.6445312 0.1054687,-1.1015625 0.65625,-1.8515625 1.5234375,-1.8515625 0.1523437,0 0.4804687,0.011719 0.8789062,0.1640625 z m -2.390625,3.4804687 c 0,-0.046875 0,-0.1640625 0,-0.1992187 0,-0.5507813 0.3398438,-1.2070313 1.0546875,-1.2070313 0.9726563,0 0.9726563,1.1132813 0.9726563,1.3828125 0,0.3046875 0,0.6445313 -0.2109375,0.97265629 -0.1992188,0.29296875 -0.4335938,0.4453125 -0.796875,0.4453125 -0.8554688,0 -0.984375,-1.04296879 -1.0195313,-1.39453129 z m 0,0"
       style="fill:#000000;fill-opacity:1;fill-rule:nonzero;stroke:none"
       aria-label="6"
       transform="matrix(1.3333333,0,0,1.3333333,10.076,92.488)" />
    <path
       id="path58"
       d="m 1.9674141,-4.6157422 c 0.09375,0 0.1875,0 0.28125,0 H 3.2564766 C 2.0494453,-3.4321484 1.2760078,-1.7680859 1.2760078,0.08347656 h 0.75 c 0,-2.33203126 1.125,-4.00781246 1.8398438,-4.74609376 v -0.5625 H 0.35022656 v 0.609375 z m 0,0"
       style="fill:#000000;fill-opacity:1;fill-rule:nonzero;stroke:none"
       aria-label="7"
       transform="matrix(1.3333333,0,0,1.3333333,10.076,103.80667)" />
    <path
       id="path59"
       d="m 2.7291328,-2.8244687 c 0.515625,-0.1640625 1.0195313,-0.5859375 1.0195313,-1.171875 0,-0.7265625 -0.6914063,-1.3945313 -1.640625,-1.3945313 -0.9492188,0 -1.64062504,0.6679688 -1.64062504,1.3945313 0,0.5976562 0.515625,1.0195312 1.03125004,1.171875 -0.70312504,0.2226562 -1.14843754,0.7617187 -1.14843754,1.3710937 0,0.85546875 0.76171874,1.6171875 1.75781254,1.6171875 1.0078125,0 1.7578125,-0.76171875 1.7578125,-1.6171875 0,-0.609375 -0.4453125,-1.1484375 -1.1367188,-1.3710937 z M 2.1080391,-3.0822812 c -0.5625,0 -1.03125,-0.328125 -1.03125,-0.9140625 0,-0.5039063 0.3632812,-0.9023438 1.03125,-0.9023438 0.6679687,0 1.03125,0.3984375 1.03125,0.9023438 0,0.5742187 -0.4453125,0.9140625 -1.03125,0.9140625 z m 0,2.71874995 c -0.5507813,0 -1.03125,-0.3515625 -1.03125,-1.08984375 0,-0.7265625 0.4570312,-1.1015625 1.03125,-1.1015625 0.5742187,0 1.0429687,0.3867188 1.0429687,1.1015625 0,0.73828125 -0.5039062,1.08984375 -1.0429687,1.08984375 z m 0,0"
       style="fill:#000000;fill-opacity:1;fill-rule:nonzero;stroke:none"
       aria-label="8"
       transform="matrix(1.3333333,0,0,1.3333333,10.076,115.12533)" />
    <path
       id="path60"
       d="m 0.60803906,-0.19823437 c 0.39843754,0.28125 0.75000004,0.36328125 1.12500004,0.36328125 1.1132812,0 2.1328125,-1.125 2.1328125,-2.83593748 0,-2.1679688 -0.9609375,-2.71875 -1.7226563,-2.71875 -0.7148437,0 -1.03125,0.328125 -1.26562499,0.5625 -0.515625,0.515625 -0.52734375,1.0664062 -0.52734375,1.3828125 0,1.0195312 0.5625,1.9101562 1.33593754,1.9101562 0.9023437,0 1.3945312,-0.5976562 1.4414062,-0.6445312 -0.1171875,1.26562498 -0.7382812,1.81640623 -1.3945312,1.81640623 -0.4101563,0 -0.6679688,-0.15234375 -0.85546879,-0.29296875 z M 3.1041328,-3.4560469 c 0,0.046875 0,0.1289063 0,0.1757813 0,0.5859375 -0.3515625,1.21875 -1.0546875,1.21875 -0.2929687,0 -0.5390625,-0.09375 -0.7382812,-0.4101563 -0.2109375,-0.3164062 -0.234375,-0.6210937 -0.234375,-0.9726562 0,-0.3164063 0,-0.6796875 0.2578125,-1.0195313 0.1640625,-0.2460937 0.3984375,-0.4335937 0.796875,-0.4335937 0.7734375,0 0.9375,0.9257812 0.9726562,1.4414062 z m 0,0"
       style="fill:#000000;fill-opacity:1;fill-rule:nonzero;stroke:none"
       aria-label="9"
       transform="matrix(1.3333333,0,0,1.3333333,10.076,126.444)" />
    <path
       id="path61"
       d="M 2.5539531,-5.3903359 H 2.3781719 c -0.515625,0.46875 -1.171875,0.5039062 -1.64062502,0.5273437 v 0.4921875 c 0.30468752,0 0.70312502,-0.023437 1.10156252,-0.1757812 v 4.04296871 H 0.78442188 V 2.890625e-4 H 3.6203594 V -0.50361719 H 2.5539531 Z m 5.5722657,2.8007812 c 0,-0.3867187 0,-1.3125 -0.375,-1.96875 -0.4101563,-0.7148437 -1.0195313,-0.8320312 -1.40625,-0.8320312 -0.3515625,0 -0.9726563,0.1054687 -1.3710938,0.796875 -0.3867187,0.6328125 -0.3984375,1.5 -0.3984375,2.0039062 0,0.5859375 0.023437,1.3125 0.3632813,1.92187501 0.3515625,0.64453125 0.9375,0.83203125 1.40625,0.83203125 0.796875,0 1.2421875,-0.45703125 1.4765625,-0.9609375 0.28125,-0.56249996 0.3046875,-1.30078126 0.3046875,-1.79296876 z m -1.78125,2.22656251 c -0.328125,0 -0.7148438,-0.1875 -0.9140625,-0.76171871 -0.1640625,-0.4804688 -0.1640625,-0.984375 -0.1640625,-1.5703125 0,-0.7265625 0,-2.1679688 1.078125,-2.1679688 1.0898437,0 1.0898437,1.4414063 1.0898437,2.1679688 0,0.5273437 0,1.125 -0.1992187,1.640625 -0.2226563,0.57421871 -0.6210938,0.69140621 -0.890625,0.69140621 z m 0,0"
       style="fill:#000000;fill-opacity:1;fill-rule:nonzero;stroke:none"
       aria-label="10"
       transform="matrix(1.3333333,0,0,1.3333333,4.4306667,137.76133)" />
    <path
       id="path62"
       d="M 2.5539531,-5.3920312 H 2.3781719 c -0.515625,0.46875 -1.171875,0.5039062 -1.64062502,0.5273437 V -4.3725 c 0.30468752,0 0.70312502,-0.023437 1.10156252,-0.1757812 v 4.0429687 H 0.78442188 v 0.50390625 H 3.6203594 V -0.5053125 H 2.5539531 Z m 4.2363282,0 H 6.6145 c -0.515625,0.46875 -1.171875,0.5039062 -1.640625,0.5273437 V -4.3725 c 0.3046875,0 0.703125,-0.023437 1.1015625,-0.1757812 v 4.0429687 H 5.02075 v 0.50390625 H 7.8566875 V -0.5053125 H 6.7902813 Z m 0,0"
       style="fill:#000000;fill-opacity:1;fill-rule:nonzero;stroke:none"
       aria-label="11"
       transform="matrix(1.3333333,0,0,1.3333333,4.4306667,149.08)" />
    <path
       id="path63"
       d="M 2.5539531,-5.3907969 H 2.3781719 c -0.515625,0.46875 -1.171875,0.5039063 -1.64062502,0.5273438 v 0.4921875 c 0.30468752,0 0.70312502,-0.023437 1.10156252,-0.1757813 v 4.04296878 H 0.78442188 V -1.71875e-4 H 3.6203594 V -0.50407812 H 2.5539531 Z m 3.9316407,4.78125003 c -0.09375,0 -0.1875,0 -0.28125,0 H 5.2902813 L 6.5324688,-1.6993906 c 0.140625,-0.1289063 0.5273437,-0.421875 0.6796875,-0.5507813 0.3515625,-0.3164062 0.8203125,-0.7265625 0.8203125,-1.4179687 0,-0.9023438 -0.6679688,-1.7226563 -1.8046875,-1.7226563 -0.84375,0 -1.3710938,0.4453125 -1.640625,1.265625 l 0.375,0.46875 c 0.1875,-0.6679687 0.4570312,-1.1835937 1.1484375,-1.1835937 0.6796875,0 1.1835937,0.46875 1.1835937,1.1835937 0,0.65625 -0.3867187,1.03125 -0.8671875,1.4882813 -0.1640625,0.1640625 -0.5859375,0.515625 -0.7617187,0.6796875 -0.2226563,0.2109375 -0.7734375,0.73828123 -1.0078125,0.93749998 v 0.550781245 h 3.375 V -0.60954687 Z m 0,0"
       style="fill:#000000;fill-opacity:1;fill-rule:nonzero;stroke:none"
       aria-label="12"
       transform="matrix(1.3333333,0,0,1.3333333,4.4306667,160.39867)" />
    <path
       id="path64"
       d="M 2.5539531,-5.3895625 H 2.3781719 c -0.515625,0.46875 -1.171875,0.5039063 -1.64062502,0.5273438 v 0.4921875 c 0.30468752,0 0.70312502,-0.023437 1.10156252,-0.1757813 v 4.04296875 H 0.78442188 V 0.0010625 H 3.6203594 V -0.50284375 H 2.5539531 Z m 2.4785157,1.3007813 c 0.328125,-0.6328125 0.9023437,-0.8085938 1.2773437,-0.8085938 0.4804688,0 0.8320313,0.2695313 0.8320313,0.7265625 0,0.421875 -0.2929688,0.9375 -0.9023438,1.0429688 -0.035156,0 -0.070312,0 -0.5976562,0.046875 v 0.5273437 h 0.6210937 c 0.7617188,0 1.0429688,0.5976563 1.0429688,1.1015625 0,0.62109375 -0.3867188,1.08984375 -1.0078125,1.08984375 -0.5625,0 -1.2070313,-0.26953125 -1.6054688,-0.77343745 l -0.1054687,0.51562495 c 0.4570312,0.515625 1.1015625,0.78515625 1.7226562,0.78515625 1.0546875,0 1.7929688,-0.7734375 1.7929688,-1.6171875 0,-0.65625 -0.515625,-1.171875 -1.1484375,-1.359375 0.609375,-0.3164062 0.9140625,-0.84375 0.9140625,-1.359375 0,-0.6796875 -0.6914063,-1.21875 -1.546875,-1.21875 -0.703125,0 -1.2773438,0.3632813 -1.6171875,0.84375 z m 0,0"
       style="fill:#000000;fill-opacity:1;fill-rule:nonzero;stroke:none"
       aria-label="13"
       transform="matrix(1.3333333,0,0,1.3333333,4.4306667,171.71733)" />
    <path
       id="path65"
       d="M 2.5539531,-5.3912578 H 2.3781719 c -0.515625,0.46875 -1.171875,0.5039062 -1.64062502,0.5273437 v 0.4921875 c 0.30468752,0 0.70312502,-0.023437 1.10156252,-0.1757812 v 4.04296874 H 0.78442188 V -6.328125e-4 H 3.6203594 V -0.50453906 H 2.5539531 Z m 4.8339844,4.0546875 h 0.8320313 v -0.515625 H 7.3879375 v -3.375 H 6.6027813 l -2.1328125,3.375 v 0.515625 H 6.70825 v 1.3359374875 h 0.6796875 z m -2.2382812,-0.515625 c 0.2460937,-0.375 1.6171875,-2.5078125 1.6171875,-2.9882813 v 2.9882813 z m 0,0"
       style="fill:#000000;fill-opacity:1;fill-rule:nonzero;stroke:none"
       aria-label="14"
       transform="matrix(1.3333333,0,0,1.3333333,4.4306667,183.036)" />
    <path
       id="path66"
       d="M 2.5539531,-5.3919531 H 2.3781719 c -0.515625,0.46875 -1.171875,0.5039062 -1.64062502,0.5273437 v 0.4921875 c 0.30468752,0 0.70312502,-0.023437 1.10156252,-0.1757812 v 4.04296873 H 0.78442188 v 0.50390625 H 3.6203594 V -0.50523437 H 2.5539531 Z m 2.9941407,0.7148437 h 2.203125 V -5.2278906 H 4.9035625 v 2.9765625 H 5.4895 c 0.1875,-0.421875 0.5625,-0.6210938 0.9257813,-0.6210938 0.328125,0 0.8203125,0.2226563 0.8203125,1.2421875 0,1.04296878 -0.6679688,1.26562503 -1.0664063,1.26562503 -0.5273437,0 -1.0429687,-0.26953125 -1.3125,-0.72656253 L 4.552,-0.61070312 c 0.3984375,0.48046875 0.984375,0.7734375 1.6171875,0.7734375 1.0429688,0 1.8632813,-0.80859375 1.8632813,-1.78124998 0,-0.984375 -0.7265625,-1.78125 -1.6054688,-1.78125 -0.3398437,0 -0.6445312,0.1289062 -0.8789062,0.328125 z m 0,0"
       style="fill:#000000;fill-opacity:1;fill-rule:nonzero;stroke:none"
       aria-label="15"
       transform="matrix(1.3333333,0,0,1.3333333,4.4306667,194.35333)" />
    <path
       id="path67"
       d="M 2.5539531,-5.3907187 H 2.3781719 c -0.515625,0.46875 -1.171875,0.5039062 -1.64062502,0.5273437 v 0.4921875 c 0.30468752,0 0.70312502,-0.023437 1.10156252,-0.1757812 V -0.504 H 0.78442188 V -9.375e-5 H 3.6203594 V -0.504 H 2.5539531 Z M 7.7395,-5.238375 C 7.3059063,-5.3907187 7.0012188,-5.3907187 6.848875,-5.3907187 c -1.2070312,0 -2.2617187,1.1367187 -2.2617187,2.8125 0,2.1679687 0.9726562,2.74218745 1.78125,2.74218745 0.6445312,0 0.9726562,-0.3046875 1.21875,-0.55078125 0.515625,-0.55078125 0.515625,-1.1132812 0.515625,-1.3945312 0,-1.0429688 -0.5625,-1.9101563 -1.3359375,-1.9101563 -0.7734375,0 -1.1953125,0.4101563 -1.4296875,0.6445313 0.1054687,-1.1015625 0.65625,-1.8515625 1.5234375,-1.8515625 0.1523437,0 0.4804687,0.011719 0.8789062,0.1640625 z m -2.390625,3.4804688 c 0,-0.046875 0,-0.1640625 0,-0.1992188 0,-0.5507812 0.3398438,-1.2070312 1.0546875,-1.2070312 0.9726563,0 0.9726563,1.1132812 0.9726563,1.3828125 0,0.3046875 0,0.6445312 -0.2109375,0.9726562 -0.1992188,0.29296875 -0.4335938,0.4453125 -0.796875,0.4453125 -0.8554688,0 -0.984375,-1.0429687 -1.0195313,-1.3945312 z m 0,0"
       style="fill:#000000;fill-opacity:1;fill-rule:nonzero;stroke:none"
       aria-label="16"
       transform="matrix(1.3333333,0,0,1.3333333,4.4306667,205.672)" />
    <path
       id="path68"
       d="M 2.5539531,-5.3894844 H 2.3781719 c -0.515625,0.46875 -1.171875,0.5039063 -1.64062502,0.5273438 v 0.4921875 c 0.30468752,0 0.70312502,-0.023437 1.10156252,-0.1757813 v 4.04296878 H 0.78442188 V 0.00114063 H 3.6203594 V -0.50276562 H 2.5539531 Z m 3.6503907,0.7734375 c 0.09375,0 0.1875,0 0.28125,0 H 7.4934063 C 6.286375,-3.4324531 5.5129375,-1.7683906 5.5129375,0.08317188 h 0.75 c 0,-2.33203128 1.125,-4.00781248 1.8398438,-4.74609378 v -0.5625 h -3.515625 v 0.609375 z m 0,0"
       style="fill:#000000;fill-opacity:1;fill-rule:nonzero;stroke:none"
       aria-label="17"
       transform="matrix(1.3333333,0,0,1.3333333,4.4306667,216.99067)" />
    <path
       id="path69"
       d="M 2.5539531,-5.3911797 H 2.3781719 c -0.515625,0.46875 -1.171875,0.5039063 -1.64062502,0.5273438 v 0.4921875 c 0.30468752,0 0.70312502,-0.023437 1.10156252,-0.1757813 v 4.04296876 H 0.78442188 V -5.546875e-4 H 3.6203594 V -0.50446094 H 2.5539531 Z m 4.4121094,2.5664063 c 0.515625,-0.1640625 1.0195313,-0.5859375 1.0195313,-1.171875 0,-0.7265625 -0.6914063,-1.3945313 -1.640625,-1.3945313 -0.9492188,0 -1.640625,0.6679688 -1.640625,1.3945313 0,0.5976562 0.515625,1.0195312 1.03125,1.171875 -0.703125,0.2226562 -1.1484375,0.7617187 -1.1484375,1.3710937 0,0.85546876 0.7617187,1.61718751 1.7578125,1.61718751 1.0078125,0 1.7578125,-0.76171875 1.7578125,-1.61718751 0,-0.609375 -0.4453125,-1.1484375 -1.1367188,-1.3710937 z M 6.3449688,-3.0825859 c -0.5625,0 -1.03125,-0.328125 -1.03125,-0.9140625 0,-0.5039063 0.3632812,-0.9023438 1.03125,-0.9023438 0.6679687,0 1.03125,0.3984375 1.03125,0.9023438 0,0.5742187 -0.4453125,0.9140625 -1.03125,0.9140625 z m 0,2.71874996 c -0.5507813,0 -1.03125,-0.3515625 -1.03125,-1.08984376 0,-0.7265625 0.4570312,-1.1015625 1.03125,-1.1015625 0.5742187,0 1.0429687,0.3867188 1.0429687,1.1015625 0,0.73828126 -0.5039062,1.08984376 -1.0429687,1.08984376 z m 0,0"
       style="fill:#000000;fill-opacity:1;fill-rule:nonzero;stroke:none"
       aria-label="18"
       transform="matrix(1.3333333,0,0,1.3333333,4.4306667,228.30933)" />
    <path
       id="path70"
       d="M 2.5539531,-5.3899453 H 2.3781719 c -0.515625,0.46875 -1.171875,0.5039062 -1.64062502,0.5273437 v 0.4921875 c 0.30468752,0 0.70312502,-0.023437 1.10156252,-0.1757812 v 4.04296874 H 0.78442188 V 6.796875e-4 H 3.6203594 V -0.50322656 H 2.5539531 Z m 2.2910157,5.19140624 c 0.3984375,0.28125 0.75,0.36328125 1.125,0.36328125 1.1132812,0 2.1328125,-1.125 2.1328125,-2.83593749 0,-2.1679688 -0.9609375,-2.71875 -1.7226563,-2.71875 -0.7148437,0 -1.03125,0.328125 -1.265625,0.5625 -0.515625,0.515625 -0.5273437,1.0664062 -0.5273437,1.3828125 0,1.0195312 0.5625,1.9101562 1.3359375,1.9101562 0.9023437,0 1.3945312,-0.5976562 1.4414062,-0.6445312 -0.1171875,1.26562499 -0.7382812,1.81640624 -1.3945312,1.81640624 -0.4101563,0 -0.6679688,-0.15234375 -0.8554688,-0.29296875 z M 7.3410625,-3.4563516 c 0,0.046875 0,0.1289063 0,0.1757813 0,0.5859375 -0.3515625,1.21875 -1.0546875,1.21875 -0.2929687,0 -0.5390625,-0.09375 -0.7382812,-0.4101563 -0.2109375,-0.3164062 -0.234375,-0.6210937 -0.234375,-0.9726562 0,-0.3164063 0,-0.6796875 0.2578125,-1.0195313 0.1640625,-0.2460937 0.3984375,-0.4335937 0.796875,-0.4335937 0.7734375,0 0.9375,0.9257812 0.9726562,1.4414062 z m 0,0"
       style="fill:#000000;fill-opacity:1;fill-rule:nonzero;stroke:none"
       aria-label="19"
       transform="matrix(1.3333333,0,0,1.3333333,4.4306667,239.628)" />
    <path
       id="path71"
       d="M -42.54163,84.88399 V -90.96144"
       style="fill:none;stroke:#000000;stroke-width:0.3985;stroke-linecap:butt;stroke-linejoin:miter;stroke-miterlimit:10;stroke-dasharray:none;stroke-opacity:1"
       transform="matrix(1.3333333,0,0,-1.3333333,76.472,128.61067)" />
    <path
       id="path72"
       d="M 1.99252,0 -1.19551,1.59401 0,0 -1.19551,-1.59401"
       style="fill:#000000;fill-opacity:1;fill-rule:nonzero;stroke:none"
       transform="matrix(0,1.3333333,1.3333333,0,19.749827,249.89259)" />
    <path
       id="path73"
       d="M 3.7740859,-3.5398125 H 3.1295547 C 2.4850234,-2.016375 2.0397109,-0.985125 2.0045547,-0.50465625 1.9928359,-0.7273125 1.8522109,-1.12575 1.7115859,-1.50075 1.5826797,-1.8171562 1.4537734,-2.1335625 1.3131484,-2.4499687 L 0.80924219,-3.5398125 H 0.11783594 L 1.7701797,-7.5e-4 C 1.6764297,0.233625 1.5123672,0.59690625 1.4654922,0.702375 1.3014297,1.0305 1.1842422,1.1476875 0.97330469,1.1476875 c -0.0351563,0 -0.328125,0 -0.66796875,-0.140625 l 0.046875,0.5507813 c 0.0703125,0.023437 0.36328125,0.070312 0.609375,0.070312 0.31640626,0 0.60937496,-0.1171875 0.94921876,-0.89062505 z m 0,0"
       style="fill:#000000;fill-opacity:1;fill-rule:nonzero;stroke:none"
       aria-label="y"
       transform="matrix(1.3333333,0,0,1.3333333,10.518667,253.876)" />
    <path
       id="path74"
       d="M -42.54163,84.88399 H 48.61906"
       style="fill:none;stroke:#000000;stroke-width:0.3985;stroke-linecap:butt;stroke-linejoin:miter;stroke-miterlimit:10;stroke-dasharray:none;stroke-opacity:1"
       transform="matrix(1.3333333,0,0,-1.3333333,76.472,128.61067)" />
    <path
       id="path75"
       d="M 1.99252,0 -1.19551,1.59401 0,0 -1.19551,-1.59401"
       style="fill:#000000;fill-opacity:1;fill-rule:nonzero;stroke:none"
       transform="matrix(1.3333333,0,0,-1.3333333,141.29741,15.432013)" />
    <path
       id="path76"
       d="m 2.2027969,-1.8293672 1.546875,-1.7109375 h -0.703125 l -1.125,1.3125 -1.16015627,-1.3125 H 0.04654688 L 1.6402969,-1.8293672 -3.28125e-4,-0.00124219 H 0.71451563 L 1.9215469,-1.5012422 3.1754531,-0.00124219 h 0.7265625 z m 0,0"
       style="fill:#000000;fill-opacity:1;fill-rule:nonzero;stroke:none"
       aria-label="x"
       transform="matrix(1.3333333,0,0,1.3333333,141.352,11.404)" />
    <path
       id="path77"
       d="m 1.4995547,-3.0338828 h 1.171875 V -3.5377891 H 1.4995547 V -4.5456016 H 0.87846094 v 1.0078125 H 0.16361719 v 0.5039063 h 0.69140625 v 2.015625 c 0,0.53906249 0.140625,1.10156249 0.71484376,1.10156249 0.5742187,0 1.0078125,-0.1875 1.2539062,-0.29296875 l -0.140625,-0.515625 c -0.2578125,0.1875 -0.5390625,0.2578125 -0.7617187,0.2578125 -0.3398438,0 -0.421875,-0.328125 -0.421875,-0.69140624 z m 4.9804687,2.16796874 c -0.4453125,0.31640625 -0.9492187,0.421875 -1.2890625,0.421875 -0.6914062,0 -1.21875,-0.56250004 -1.2421875,-1.30078124 h 2.6132813 c 0,-0.3632813 -0.035156,-0.9023438 -0.3515625,-1.359375 -0.28125,-0.3984375 -0.7617188,-0.5507813 -1.1484375,-0.5507813 -0.9726563,0 -1.7226563,0.8554688 -1.7226563,1.8632813 0,1.01953124 0.796875,1.87499999 1.8515625,1.87499999 0.4570313,0 0.9375,-0.140625 1.3359375,-0.38671875 z M 4.0073672,-2.2252891 c 0.1875,-0.6328125 0.65625,-0.9023437 1.0546875,-0.9023437 0.3515625,0 0.8671875,0.1640625 1.0195312,0.9023437 z m 4.3154297,-0.8085937 h 1.171875 V -3.5377891 H 8.3227969 V -4.5456016 H 7.7017031 v 1.0078125 H 6.9868594 v 0.5039063 h 0.6914062 v 2.015625 c 0,0.53906249 0.140625,1.10156249 0.7148438,1.10156249 0.5742187,0 1.0078125,-0.1875 1.2539062,-0.29296875 l -0.140625,-0.515625 c -0.2578125,0.1875 -0.5390625,0.2578125 -0.7617187,0.2578125 -0.3398438,0 -0.421875,-0.328125 -0.421875,-0.69140624 z m 2.9033201,1.3359375 c 0,-0.8554688 0.714844,-1.3242188 1.417969,-1.3242188 v -0.5976562 c -0.667969,0.011719 -1.160156,0.3398437 -1.476563,0.7617187 v -0.7382812 h -0.609375 v 3.59765624 h 0.667969 z m 5.53125,-0.046875 c 0,-1.0546875 -0.832031,-1.9101563 -1.875,-1.9101563 -1.03125,0 -1.875,0.8671875 -1.875,1.9101563 0,1.00781249 0.84375,1.82812499 1.875,1.82812499 1.042969,0 1.875,-0.8203125 1.875,-1.82812499 z m -1.875,1.27734374 c -0.632812,0 -1.171875,-0.46875 -1.171875,-1.35937504 0,-0.9023437 0.585938,-1.3007812 1.171875,-1.3007812 0.597656,0 1.183594,0.4101562 1.183594,1.3007812 0,0.90234379 -0.5625,1.35937504 -1.183594,1.35937504 z m 8.182617,-1.88671874 c 0,-0.6210938 -0.1875,-1.265625 -1.160156,-1.265625 -0.679687,0 -1.089844,0.3984375 -1.277344,0.6445312 -0.08203,-0.2109375 -0.28125,-0.6445312 -1.078125,-0.6445312 -0.457031,0 -0.890625,0.1875 -1.242187,0.609375 v -0.5859375 h -0.644531 v 3.59765624 h 0.703125 V -1.9323203 c 0,-0.5273438 0.222656,-1.1601563 0.832031,-1.1601563 0.820312,0 0.820312,0.5625 0.820312,0.7851563 v 2.30859374 h 0.691407 V -1.9323203 c 0,-0.5273438 0.222656,-1.1601563 0.84375,-1.1601563 0.820312,0 0.820312,0.5625 0.820312,0.7851563 v 2.30859374 h 0.691406 z m 2.074219,-3.1054688 h -0.808594 v 0.796875 h 0.808594 z m -0.07031,1.921875 h -0.667969 v 3.53906254 h 0.667969 z m 4.385742,1.1835938 c 0,-0.6210938 -0.175781,-1.265625 -1.160156,-1.265625 -0.457032,0 -0.890625,0.1875 -1.242188,0.609375 V -3.5963828 H 26.40776 v 3.59765624 h 0.703125 V -1.9323203 c 0,-0.5273438 0.222656,-1.1601563 0.832031,-1.1601563 0.820313,0 0.820313,0.5625 0.820313,0.7851563 v 2.30859374 h 0.691406 z m 4.655273,0.609375 c 0,-1.0546875 -0.832031,-1.9101563 -1.875,-1.9101563 -1.03125,0 -1.875,0.8671875 -1.875,1.9101563 0,1.00781249 0.84375,1.82812499 1.875,1.82812499 1.042969,0 1.875,-0.8203125 1.875,-1.82812499 z m -1.875,1.27734374 c -0.632812,0 -1.171875,-0.46875 -1.171875,-1.35937504 0,-0.9023437 0.585938,-1.3007812 1.171875,-1.3007812 0.597657,0 1.183594,0.4101562 1.183594,1.3007812 0,0.90234379 -0.5625,1.35937504 -1.183594,1.35937504 z M 42.992719,-2.6706016 c 0.117187,0 0.292969,0 0.292969,-0.1875 0,-0.1875 -0.175782,-0.1875 -0.292969,-0.1875 h -5.050781 c -0.117188,0 -0.292969,0 -0.292969,0.1875 0,0.1875 0.175781,0.1875 0.292969,0.1875 z m 0,1.73437504 c 0.117187,0 0.292969,0 0.292969,-0.18750004 0,-0.1875 -0.175782,-0.1875 -0.292969,-0.1875 h -5.050781 c -0.117188,0 -0.292969,0 -0.292969,0.1875 0,0.18750004 0.175781,0.18750004 0.292969,0.18750004 z m 6.887695,-3.98437504 h 0.75 c 0.09375,0 0.1875,0 0.28125,0 h 1.148438 v -0.5507812 h -5.167969 v 0.5507812 h 1.148437 c 0.09375,0 0.1875,0 0.28125,0 h 0.75 v 4.92187504 h 0.808594 z m 6.852539,2.3203125 v -0.5273437 h -2.777344 v -1.828125 h 1.160157 c 0.09375,0 0.1875,0.011719 0.28125,0.011719 h 1.570312 v -0.5625 h -3.820312 v 5.50781254 h 3.949218 v -0.62109375 h -0.726562 c -0.667969,0 -1.335938,0.0117188 -2.003906,0.0117188 H 53.955609 V -2.6002891 Z m 4.010742,-2.3203125 h 0.75 c 0.09375,0 0.1875,0 0.28125,0 h 1.148438 v -0.5507812 h -5.167969 v 0.5507812 h 1.148438 c 0.09375,0 0.1875,0 0.28125,0 h 0.75 v 4.92187504 h 0.808593 z m 0,0"
       style="fill:#000000;fill-opacity:1;fill-rule:nonzero;stroke:none"
       aria-label="tetromino=TET"
       transform="matrix(1.3333333,0,0,1.3333333,145.192,112.20533)" />
    <path
       id="path78"
       d="M 0,0 H 2.541"
       style="fill:none;stroke:#000000;stroke-width:0.398;stroke-linecap:butt;stroke-linejoin:miter;stroke-miterlimit:10;stroke-dasharray:none;stroke-opacity:1"
       transform="matrix(1.3333333,0,0,-1.3333333,230.184,111.94)" />
    <path
       id="path79"
       d="m 3.2917031,-4.9206016 h 0.75 c 0.09375,0 0.1875,0 0.28125,0 H 5.4713906 V -5.4713828 H 0.30342188 v 0.5507812 H 1.4518594 c 0.09375,0 0.1875,0 0.28125,0 h 0.75 V 0.00127344 H 3.2917031 Z M -64.937789,7.7649453 c 0,-0.8554687 0.714844,-1.3242187 1.417969,-1.3242187 V 5.8430703 c -0.667969,0.011719 -1.160157,0.3398438 -1.476563,0.7617188 V 5.8665078 h -0.609375 v 3.5976563 h 0.667969 z m 5.52832,-0.046875 c 0,-1.0546875 -0.832031,-1.9101562 -1.875,-1.9101562 -1.03125,0 -1.875,0.8671875 -1.875,1.9101562 0,1.0078125 0.84375,1.828125 1.875,1.828125 1.042969,0 1.875,-0.8203125 1.875,-1.828125 z m -1.875,1.2773438 c -0.632812,0 -1.171875,-0.46875 -1.171875,-1.359375 0,-0.9023438 0.585938,-1.3007813 1.171875,-1.3007813 0.597657,0 1.183594,0.4101563 1.183594,1.3007813 0,0.9023437 -0.5625,1.359375 -1.183594,1.359375 z m 3.626953,-2.5664063 h 1.171875 V 5.9251016 h -1.171875 V 4.9172891 h -0.621093 v 1.0078125 h -0.714844 v 0.5039062 h 0.691406 v 2.015625 c 0,0.5390625 0.140625,1.1015625 0.714844,1.1015625 0.574219,0 1.007812,-0.1875 1.253906,-0.2929687 l -0.140625,-0.515625 c -0.257812,0.1875 -0.539062,0.2578125 -0.761719,0.2578125 -0.339843,0 -0.421875,-0.328125 -0.421875,-0.6914063 z m 4.957032,0.7382813 c 0,-0.8085938 -0.621094,-1.359375 -1.417969,-1.359375 -0.503906,0 -0.878906,0.1054687 -1.324219,0.3398437 l 0.04687,0.5859375 c 0.257813,-0.1757812 0.65625,-0.421875 1.277344,-0.421875 0.351562,0 0.726562,0.2695313 0.726562,0.8671875 v 0.3164063 c -1.183593,0.035156 -2.34375,0.2929687 -2.34375,1.03125 0,0.3984375 0.269532,1.0195312 0.972657,1.0195312 0.339843,0 0.972656,-0.070312 1.394531,-0.3867187 v 0.3046875 h 0.667969 z m -0.691407,1.1601562 c 0,0.1640625 0,0.375 -0.28125,0.5390625 -0.257812,0.140625 -0.574218,0.1523438 -0.65625,0.1523438 -0.433593,0 -0.773437,-0.1992188 -0.773437,-0.5039063 0,-0.5039062 1.347656,-0.5625 1.710937,-0.5742187 z m 2.859375,-1.8984375 h 1.171875 V 5.9251016 h -1.171875 V 4.9172891 h -0.621093 v 1.0078125 h -0.714844 v 0.5039062 h 0.691406 v 2.015625 c 0,0.5390625 0.140625,1.1015625 0.714844,1.1015625 0.574219,0 1.007812,-0.1875 1.253906,-0.2929687 l -0.140625,-0.515625 c -0.257812,0.1875 -0.539062,0.2578125 -0.761719,0.2578125 -0.339843,0 -0.421875,-0.328125 -0.421875,-0.6914063 z m 2.964844,-2.4257812 h -0.808594 v 0.796875 h 0.808594 z m -0.07031,1.921875 h -0.667969 v 3.5390625 h 0.667969 z m 4.669922,1.7929687 c 0,-1.0546875 -0.832032,-1.9101562 -1.875,-1.9101562 -1.03125,0 -1.875,0.8671875 -1.875,1.9101562 0,1.0078125 0.84375,1.828125 1.875,1.828125 1.042968,0 1.875,-0.8203125 1.875,-1.828125 z m -1.875,1.2773438 c -0.632813,0 -1.171875,-0.46875 -1.171875,-1.359375 0,-0.9023438 0.585937,-1.3007813 1.171875,-1.3007813 0.597656,0 1.183593,0.4101563 1.183593,1.3007813 0,0.9023437 -0.5625,1.359375 -1.183593,1.359375 z m 5.827148,-1.8867188 c 0,-0.6210937 -0.175781,-1.265625 -1.160156,-1.265625 -0.457032,0 -0.890625,0.1875 -1.242188,0.609375 V 5.8665078 h -0.644531 v 3.5976563 h 0.703125 V 7.5305703 c 0,-0.5273437 0.222656,-1.1601562 0.832031,-1.1601562 0.820313,0 0.820313,0.5625 0.820313,0.7851562 v 2.3085938 h 0.691406 z m 9.301758,-0.3164062 c 0.117187,0 0.292969,0 0.292969,-0.1875 0,-0.1875 -0.175782,-0.1875 -0.292969,-0.1875 h -5.050781 c -0.117188,0 -0.292969,0 -0.292969,0.1875 0,0.1875 0.175781,0.1875 0.292969,0.1875 z m 0,1.734375 c 0.117187,0 0.292969,0 0.292969,-0.1875 0,-0.1875 -0.175782,-0.1875 -0.292969,-0.1875 h -5.050781 c -0.117188,0 -0.292969,0 -0.292969,0.1875 0,0.1875 0.175781,0.1875 0.292969,0.1875 z m 7.171875,-1.640625 c 1.148437,-0.3398438 1.429687,-1.03125 1.429687,-1.4648438 0,-0.8203125 -0.972656,-1.4882812 -2.132812,-1.4882812 h -2.085938 v 5.53125 h 0.773438 V 6.9563516 h 1.3125 l 1.558594,2.5078125 h 0.808593 z M -24.557906,6.4407266 V 4.4016641 h 1.21875 c 0.914062,0 1.5,0.4335937 1.5,1.0195312 0,0.5625 -0.550781,1.0195313 -1.5,1.0195313 z m 9.697265,0.28125 c 0,-1.6523438 -1.207031,-2.953125 -2.648437,-2.953125 -1.453125,0 -2.660156,1.3007812 -2.660156,2.953125 0,1.6523437 1.230468,2.90625 2.660156,2.90625 1.429687,0 2.648437,-1.265625 2.648437,-2.90625 z m -2.648437,2.34375 c -0.972656,0 -1.851563,-0.9609375 -1.851563,-2.4726563 0,-1.40625 0.890625,-2.2734375 1.851563,-2.2734375 0.949219,0 1.839844,0.8671875 1.839844,2.2734375 0,1.5117188 -0.878907,2.4726563 -1.839844,2.4726563 z m 6.418945,-4.5234375 h 0.75 c 0.09375,0 0.1875,0 0.28125,0 h 1.1484377 V 3.9915078 h -5.1679687 v 0.5507813 h 1.148437 c 0.09375,0 0.1875,0 0.28125,0 h 0.75 v 4.921875 h 0.808594 z m 0,0"
       style="fill:#000000;fill-opacity:1;fill-rule:nonzero;stroke:none"
       aria-label="T&#10;rotation=ROT"
       transform="matrix(1.3333333,0,0,1.3333333,233.572,112.20533)" />
    <path
       id="path80"
       d="M 0,0 H 2.541"
       style="fill:none;stroke:#000000;stroke-width:0.398;stroke-linecap:butt;stroke-linejoin:miter;stroke-miterlimit:10;stroke-dasharray:none;stroke-opacity:1"
       transform="matrix(1.3333333,0,0,-1.3333333,222.78667,124.55867)" />
    <path
       id="path81"
       d="m 0.60828125,-0.19905469 c 0.39843755,0.28125 0.75000005,0.36328125 1.12500005,0.36328125 1.1132812,0 2.1328125,-1.125 2.1328125,-2.83593746 0,-2.1679688 -0.9609375,-2.71875 -1.7226563,-2.71875 -0.7148437,0 -1.03125,0.328125 -1.265625,0.5625 -0.515625,0.515625 -0.52734375,1.0664062 -0.52734375,1.3828125 0,1.0195312 0.5625,1.9101562 1.33593755,1.9101562 0.9023437,0 1.3945312,-0.5976562 1.4414062,-0.6445312 -0.1171875,1.26562496 -0.7382812,1.81640621 -1.3945312,1.81640621 -0.4101563,0 -0.6679688,-0.15234375 -0.8554688,-0.29296875 z M 3.104375,-3.4568672 c 0,0.046875 0,0.1289063 0,0.1757813 0,0.5859375 -0.3515625,1.21875 -1.0546875,1.21875 -0.2929687,0 -0.5390625,-0.09375 -0.7382812,-0.4101563 -0.2109375,-0.3164062 -0.234375,-0.6210937 -0.234375,-0.9726562 0,-0.3164063 0,-0.6796875 0.2578125,-1.0195313 0.1640625,-0.2460937 0.3984375,-0.4335937 0.796875,-0.4335937 0.7734375,0 0.9375,0.9257812 0.9726562,1.4414062 z m 5.0214844,0.8671875 c 0,-0.3867187 0,-1.3125 -0.375,-1.96875 -0.4101563,-0.7148437 -1.0195313,-0.8320312 -1.40625,-0.8320312 -0.3515625,0 -0.9726563,0.1054687 -1.3710938,0.796875 -0.3867187,0.6328125 -0.3984375,1.5 -0.3984375,2.0039062 0,0.5859375 0.023437,1.3125 0.3632813,1.92187501 0.3515625,0.64453125 0.9375,0.83203125 1.40625,0.83203125 0.796875,0 1.2421875,-0.45703125 1.4765625,-0.9609375 0.28125,-0.56249996 0.3046875,-1.30078126 0.3046875,-1.79296876 z m -1.78125,2.22656251 c -0.328125,0 -0.7148438,-0.1875 -0.9140625,-0.76171871 -0.1640625,-0.4804688 -0.1640625,-0.984375 -0.1640625,-1.5703125 0,-0.7265625 0,-2.1679688 1.078125,-2.1679688 1.0898437,0 1.0898437,1.4414063 1.0898437,2.1679688 0,0.5273437 0,1.125 -0.1992187,1.640625 -0.2226563,0.57421871 -0.6210938,0.69140621 -0.890625,0.69140621 z M -59.236445,6.4308281 h 1.171875 V 5.9269219 h -1.171875 V 4.9191094 h -0.621094 v 1.0078125 h -0.714844 v 0.5039062 h 0.691406 v 2.015625 c 0,0.5390625 0.140625,1.1015625 0.714844,1.1015625 0.574219,0 1.007813,-0.1875 1.253906,-0.2929687 l -0.140625,-0.515625 c -0.257812,0.1875 -0.539062,0.2578125 -0.761718,0.2578125 -0.339844,0 -0.421875,-0.328125 -0.421875,-0.6914063 z m 4.980468,2.1679688 c -0.445312,0.3164062 -0.949218,0.421875 -1.289062,0.421875 -0.691406,0 -1.21875,-0.5625 -1.242188,-1.3007813 h 2.613282 c 0,-0.3632812 -0.03516,-0.9023437 -0.351563,-1.359375 -0.28125,-0.3984375 -0.761719,-0.5507812 -1.148437,-0.5507812 -0.972657,0 -1.722657,0.8554687 -1.722657,1.8632812 0,1.0195313 0.796875,1.875 1.851563,1.875 0.457031,0 0.9375,-0.140625 1.335937,-0.3867187 z m -2.472656,-1.359375 c 0.1875,-0.6328125 0.65625,-0.9023438 1.054688,-0.9023438 0.351562,0 0.867187,0.1640625 1.019531,0.9023438 z m 4.31543,-0.8085938 h 1.171875 V 5.9269219 h -1.171875 V 4.9191094 h -0.621094 v 1.0078125 h -0.714844 v 0.5039062 h 0.691407 v 2.015625 c 0,0.5390625 0.140625,1.1015625 0.714843,1.1015625 0.574219,0 1.007813,-0.1875 1.253907,-0.2929687 l -0.140625,-0.515625 c -0.257813,0.1875 -0.539063,0.2578125 -0.761719,0.2578125 -0.339844,0 -0.421875,-0.328125 -0.421875,-0.6914063 z m 2.90332,1.3359375 c 0,-0.8554687 0.714844,-1.3242187 1.417969,-1.3242187 V 5.8448906 c -0.667969,0.011719 -1.160156,0.3398438 -1.476563,0.7617188 V 5.8683281 h -0.609375 v 3.5976563 h 0.667969 z m 5.53125,-0.046875 c 0,-1.0546875 -0.832031,-1.9101562 -1.875,-1.9101562 -1.03125,0 -1.875,0.8671875 -1.875,1.9101562 0,1.0078125 0.84375,1.828125 1.875,1.828125 1.042969,0 1.875,-0.8203125 1.875,-1.828125 z m -1.875,1.2773438 c -0.632812,0 -1.171875,-0.46875 -1.171875,-1.359375 0,-0.9023438 0.585938,-1.3007813 1.171875,-1.3007813 0.597656,0 1.183594,0.4101563 1.183594,1.3007813 0,0.9023437 -0.5625,1.359375 -1.183594,1.359375 z m 8.182617,-1.8867188 c 0,-0.6210937 -0.1875,-1.265625 -1.160156,-1.265625 -0.679687,0 -1.089844,0.3984375 -1.277344,0.6445313 -0.08203,-0.2109375 -0.28125,-0.6445313 -1.078125,-0.6445313 -0.457031,0 -0.890625,0.1875 -1.242187,0.609375 V 5.8683281 h -0.644531 v 3.5976563 h 0.703125 V 7.5323906 c 0,-0.5273437 0.222656,-1.1601562 0.832031,-1.1601562 0.820312,0 0.820312,0.5625 0.820312,0.7851562 v 2.3085938 h 0.691407 V 7.5323906 c 0,-0.5273437 0.222656,-1.1601562 0.84375,-1.1601562 0.820312,0 0.820312,0.5625 0.820312,0.7851562 v 2.3085938 h 0.691406 z m 2.074219,-3.1054687 h -0.808594 v 0.796875 h 0.808594 z m -0.07031,1.921875 h -0.667969 v 3.5390625 h 0.667969 z m 4.385742,1.1835937 c 0,-0.6210937 -0.175781,-1.265625 -1.160156,-1.265625 -0.457032,0 -0.890625,0.1875 -1.242188,0.609375 V 5.8683281 h -0.644531 v 3.5976563 h 0.703125 V 7.5323906 c 0,-0.5273437 0.222656,-1.1601562 0.832031,-1.1601562 0.820313,0 0.820313,0.5625 0.820313,0.7851562 v 2.3085938 h 0.691406 z m 4.655273,0.609375 c 0,-1.0546875 -0.832031,-1.9101562 -1.875,-1.9101562 -1.03125,0 -1.875,0.8671875 -1.875,1.9101562 0,1.0078125 0.84375,1.828125 1.875,1.828125 1.042969,0 1.875,-0.8203125 1.875,-1.828125 z m -1.875,1.2773438 c -0.632812,0 -1.171875,-0.46875 -1.171875,-1.359375 0,-0.9023438 0.585938,-1.3007813 1.171875,-1.3007813 0.597657,0 1.183594,0.4101563 1.183594,1.3007813 0,0.9023437 -0.5625,1.359375 -1.183594,1.359375 z m 0,0"
       style="fill:#000000;fill-opacity:1;fill-rule:nonzero;stroke:none"
       aria-label="90&#10;tetromino"
       transform="matrix(1.3333333,0,0,1.3333333,226.17333,124.824)" />
    <path
       id="path82"
       d="M 0,0 H 2.541"
       style="fill:none;stroke:#000000;stroke-width:0.398;stroke-linecap:butt;stroke-linejoin:miter;stroke-miterlimit:10;stroke-dasharray:none;stroke-opacity:1"
       transform="matrix(1.3333333,0,0,-1.3333333,191.68,137.17867)" />
    <path
       id="path83"
       d="m 2.2019297,-1.8271406 1.546875,-1.7109375 h -0.703125 l -1.125,1.3125 -1.16015626,-1.3125 H 0.04567969 L 1.6394297,-1.8271406 -0.00119531,9.84375e-4 H 0.71364844 L 1.9206797,-1.4990156 3.1745859,9.84375e-4 h 0.7265625 z m 10.3330083,-0.84375 c 0.117187,0 0.292968,0 0.292968,-0.1875 0,-0.1875 -0.175781,-0.1875 -0.292968,-0.1875 H 7.4841563 c -0.1171875,0 -0.2929688,0 -0.2929688,0.1875 0,0.1875 0.1757813,0.1875 0.2929688,0.1875 z m 0,1.73437498 c 0.117187,0 0.292968,0 0.292968,-0.18749998 0,-0.1875 -0.175781,-0.1875 -0.292968,-0.1875 H 7.4841563 c -0.1171875,0 -0.2929688,0 -0.2929688,0.1875 0,0.18749998 0.1757813,0.18749998 0.2929688,0.18749998 z m 5.847656,0.328125 c -0.09375,0 -0.1875,0 -0.28125,0 h -0.914063 l 1.242188,-1.08984378 c 0.140625,-0.1289062 0.527344,-0.421875 0.679687,-0.5507812 0.351563,-0.3164063 0.820313,-0.7265625 0.820313,-1.4179688 0,-0.9023437 -0.667969,-1.7226562 -1.804688,-1.7226562 -0.84375,0 -1.371093,0.4453125 -1.640625,1.265625 l 0.375,0.46875 c 0.1875,-0.6679688 0.457032,-1.1835938 1.148438,-1.1835938 0.679687,0 1.183594,0.46875 1.183594,1.1835938 0,0.65625 -0.386719,1.03125 -0.867188,1.4882812 -0.164062,0.1640625 -0.585937,0.515625 -0.761719,0.6796875 -0.222656,0.2109375 -0.773437,0.73828128 -1.007812,0.93750003 V 9.84375e-4 h 3.375 V -0.60839062 Z M -35.907445,6.4287188 h 1.171875 V 5.9248125 h -1.171875 V 4.917 h -0.621094 v 1.0078125 h -0.714844 v 0.5039063 h 0.691406 v 2.015625 c 0,0.5390625 0.140625,1.1015625 0.714844,1.1015625 0.574219,0 1.007813,-0.1875 1.253906,-0.2929688 l -0.140625,-0.515625 c -0.257812,0.1875 -0.539062,0.2578125 -0.761718,0.2578125 -0.339844,0 -0.421875,-0.328125 -0.421875,-0.6914062 z m 4.980468,2.1679687 c -0.445312,0.3164063 -0.949218,0.421875 -1.289062,0.421875 -0.691406,0 -1.21875,-0.5625 -1.242188,-1.3007812 h 2.613282 c 0,-0.3632813 -0.03516,-0.9023438 -0.351563,-1.359375 -0.28125,-0.3984375 -0.761719,-0.5507813 -1.148437,-0.5507813 -0.972657,0 -1.722657,0.8554688 -1.722657,1.8632813 0,1.0195312 0.796875,1.875 1.851563,1.875 0.457031,0 0.9375,-0.140625 1.335937,-0.3867188 z m -2.472656,-1.359375 c 0.1875,-0.6328125 0.65625,-0.9023437 1.054688,-0.9023437 0.351562,0 0.867187,0.1640625 1.019531,0.9023437 z m 4.31543,-0.8085937 h 1.171875 V 5.9248125 h -1.171875 V 4.917 h -0.621094 v 1.0078125 h -0.714844 v 0.5039063 h 0.691407 v 2.015625 c 0,0.5390625 0.140625,1.1015625 0.714843,1.1015625 0.574219,0 1.007813,-0.1875 1.253907,-0.2929688 l -0.140625,-0.515625 c -0.257813,0.1875 -0.539063,0.2578125 -0.761719,0.2578125 -0.339844,0 -0.421875,-0.328125 -0.421875,-0.6914062 z m 2.90332,1.3359375 c 0,-0.8554688 0.714844,-1.3242188 1.417969,-1.3242188 V 5.8427813 C -25.430883,5.8545 -25.92307,6.182625 -26.239477,6.6045 V 5.8662188 h -0.609375 V 9.463875 h 0.667969 z m 5.53125,-0.046875 c 0,-1.0546875 -0.832031,-1.9101563 -1.875,-1.9101563 -1.03125,0 -1.875,0.8671875 -1.875,1.9101563 0,1.0078125 0.84375,1.828125 1.875,1.828125 1.042969,0 1.875,-0.8203125 1.875,-1.828125 z m -1.875,1.2773437 c -0.632812,0 -1.171875,-0.46875 -1.171875,-1.359375 0,-0.9023437 0.585938,-1.3007812 1.171875,-1.3007812 0.597656,0 1.183594,0.4101562 1.183594,1.3007812 0,0.9023438 -0.5625,1.359375 -1.183594,1.359375 z m 8.182617,-1.8867187 c 0,-0.6210938 -0.1875,-1.265625 -1.160156,-1.265625 -0.679687,0 -1.089844,0.3984375 -1.277344,0.6445312 -0.08203,-0.2109375 -0.28125,-0.6445312 -1.078125,-0.6445312 -0.457031,0 -0.890625,0.1875 -1.242187,0.609375 V 5.8662188 h -0.644531 V 9.463875 h 0.703125 V 7.5302813 c 0,-0.5273438 0.222656,-1.1601563 0.832031,-1.1601563 0.820312,0 0.820312,0.5625 0.820312,0.7851563 V 9.463875 h 0.691407 V 7.5302813 c 0,-0.5273438 0.222656,-1.1601563 0.84375,-1.1601563 0.820312,0 0.820312,0.5625 0.820312,0.7851563 V 9.463875 h 0.691406 z m 2.074219,-3.1054688 h -0.808594 v 0.796875 h 0.808594 z m -0.07031,1.921875 h -0.667969 V 9.463875 h 0.667969 z m 4.3857418,1.1835938 c 0,-0.6210938 -0.1757812,-1.265625 -1.1601562,-1.265625 -0.4570313,0 -0.8906246,0.1875 -1.2421876,0.609375 V 5.8662188 H -10.99924 V 9.463875 h 0.703125 V 7.5302813 c 0,-0.5273438 0.222656,-1.1601563 0.8320311,-1.1601563 0.8203125,0 0.8203125,0.5625 0.8203125,0.7851563 V 9.463875 h 0.6914062 z m 4.6552735,0.609375 c 0,-1.0546875 -0.8320313,-1.9101563 -1.875,-1.9101563 -1.03125,0 -1.875,0.8671875 -1.875,1.9101563 0,1.0078125 0.84375,1.828125 1.875,1.828125 1.0429687,0 1.875,-0.8203125 1.875,-1.828125 z m -1.875,1.2773437 c -0.6328125,0 -1.171875,-0.46875 -1.171875,-1.359375 0,-0.9023437 0.5859375,-1.3007812 1.171875,-1.3007812 0.5976562,0 1.1835937,0.4101562 1.1835937,1.3007812 0,0.9023438 -0.5625,1.359375 -1.1835937,1.359375 z m 0,0"
       style="fill:#000000;fill-opacity:1;fill-rule:nonzero;stroke:none"
       aria-label="x=2&#10;tetromino"
       transform="matrix(1.3333333,0,0,1.3333333,195.068,137.444)" />
    <path
       id="path84"
       d="M 0,0 H 2.541"
       style="fill:none;stroke:#000000;stroke-width:0.398;stroke-linecap:butt;stroke-linejoin:miter;stroke-miterlimit:10;stroke-dasharray:none;stroke-opacity:1"
       transform="matrix(1.3333333,0,0,-1.3333333,191.68,149.79733)" />
    <path
       id="path85"
       d="M 3.7722422,-3.5391875 H 3.1277109 C 2.4831797,-2.01575 2.0378672,-0.9845 2.0027109,-0.50403125 1.9909922,-0.7266875 1.8503672,-1.125125 1.7097422,-1.500125 1.5808359,-1.8165312 1.4519297,-2.1329375 1.3113047,-2.4493437 L 0.80739844,-3.5391875 H 0.11599219 L 1.7683359,-1.25e-4 C 1.6745859,0.23425 1.5105234,0.59753125 1.4636484,0.703 1.2995859,1.031125 1.1823984,1.1483125 0.97146094,1.1483125 c -0.0351563,0 -0.328125,0 -0.66796875,-0.140625 l 0.046875,0.5507813 c 0.0703125,0.023437 0.36328125,0.070312 0.609375,0.070312 0.31640621,0 0.60937501,-0.1171875 0.94921871,-0.89062505 z M 12.534938,-2.672 c 0.117187,0 0.292968,0 0.292968,-0.1875 0,-0.1875 -0.175781,-0.1875 -0.292968,-0.1875 H 7.4841563 c -0.1171875,0 -0.2929688,0 -0.2929688,0.1875 0,0.1875 0.1757813,0.1875 0.2929688,0.1875 z m 0,1.734375 c 0.117187,0 0.292968,0 0.292968,-0.1875 0,-0.1875 -0.175781,-0.1875 -0.292968,-0.1875 H 7.4841563 c -0.1171875,0 -0.2929688,0 -0.2929688,0.1875 0,0.1875 0.1757813,0.1875 0.2929688,0.1875 z M 18.687281,-5.39075 H 18.5115 c -0.515625,0.46875 -1.171875,0.5039063 -1.640625,0.5273438 v 0.4921875 c 0.304688,0 0.703125,-0.023437 1.101563,-0.1757813 v 4.04296875 H 16.91775 V -1.25e-4 h 2.835938 v -0.50390625 h -1.066407 z m 5.569336,2.8007813 c 0,-0.3867188 0,-1.3125 -0.375,-1.96875 -0.410156,-0.7148438 -1.019531,-0.8320313 -1.40625,-0.8320313 -0.351562,0 -0.972656,0.1054688 -1.371094,0.796875 -0.386718,0.6328125 -0.398437,1.5 -0.398437,2.0039063 0,0.5859375 0.02344,1.3125 0.363281,1.92187495 0.351563,0.64453125 0.9375,0.83203125 1.40625,0.83203125 0.796875,0 1.242188,-0.45703125 1.476563,-0.9609375 0.28125,-0.5625 0.304687,-1.3007812 0.304687,-1.7929687 z m -1.78125,2.22656245 c -0.328125,0 -0.714844,-0.1875 -0.914062,-0.76171875 -0.164063,-0.4804687 -0.164063,-0.984375 -0.164063,-1.5703125 0,-0.7265625 0,-2.1679687 1.078125,-2.1679687 1.089844,0 1.089844,1.4414062 1.089844,2.1679687 0,0.5273438 0,1.125 -0.199219,1.640625 -0.222656,0.57421875 -0.621094,0.69140625 -0.890625,0.69140625 z m 0,0"
       style="fill:#000000;fill-opacity:1;fill-rule:nonzero;stroke:none"
       aria-label="y=10"
       transform="matrix(1.3333333,0,0,1.3333333,195.068,150.06267)" />
  </g>
</svg>
