<?xml version="1.0" encoding="UTF-8" standalone="no"?>
<!-- Created with Inkscape (http://www.inkscape.org/) -->

<svg
   version="1.1"
   id="svg1"
   width="254.51733"
   height="72.959999"
   viewBox="0 0 254.51733 72.959999"
   sodipodi:docname="main.pdf"
   xmlns:inkscape="http://www.inkscape.org/namespaces/inkscape"
   xmlns:sodipodi="http://sodipodi.sourceforge.net/DTD/sodipodi-0.dtd"
   xmlns="http://www.w3.org/2000/svg"
   xmlns:svg="http://www.w3.org/2000/svg">
  <defs
     id="defs1" />
  <sodipodi:namedview
     id="namedview1"
     pagecolor="#ffffff"
     bordercolor="#000000"
     borderopacity="0.25"
     inkscape:showpageshadow="2"
     inkscape:pageopacity="0.0"
     inkscape:pagecheckerboard="0"
     inkscape:deskcolor="#d1d1d1">
    <inkscape:page
       x="0"
       y="0"
       inkscape:label="1"
       id="page1"
       width="254.51733"
       height="72.959999"
       margin="0"
       bleed="0" />
  </sodipodi:namedview>
  <g
     id="g1"
     inkscape:groupmode="layer"
     inkscape:label="1">
    <path
       id="path1"
       d="M 0,0 H 190.888 V 54.72 H 0 Z"
       style="fill:#ffffff;fill-opacity:1;fill-rule:nonzero;stroke:none"
       transform="matrix(1.3333333,0,0,-1.3333333,0,72.96)" />
    <path
       id="path2"
       d="m -20.12482,-20.12482 h 40.24964 m -40.24964,10.06241 H 20.12482 M -20.12482,0 h 40.24964 m -40.24964,10.06238 h 40.24964 m -40.24964,10.06241 h 40.24964 m -40.24964,-40.24961 v 40.24964 m 10.06241,-40.24964 V 20.12482 M 0,-20.12482 v 40.24964 m 10.06238,-40.24964 v 40.24964 m 10.06241,-40.24964 v 40.24964"
       style="fill:none;stroke:#404040;stroke-width:0.19925;stroke-linecap:butt;stroke-linejoin:miter;stroke-miterlimit:10;stroke-dasharray:none;stroke-opacity:1"
       transform="matrix(1.3333333,0,0,-1.3333333,27.632,27.632)" />
    <path
       id="path3"
       d="m -20.12482,-20.12482 h 40.24964 m -40.24964,10.06241 H 20.12482 M -20.12482,0 h 40.24964 m -40.24964,10.06238 h 40.24964 m -40.24964,10.06241 h 40.24964 m -40.24964,-40.24961 v 40.24964 m 10.06241,-40.24964 V 20.12482 M 0,-20.12482 v 40.24964 m 10.06238,-40.24964 v 40.24964 m 10.06241,-40.24964 v 40.24964"
       style="fill:none;stroke:#404040;stroke-width:0.19925;stroke-linecap:butt;stroke-linejoin:miter;stroke-miterlimit:10;stroke-dasharray:none;stroke-opacity:1"
       transform="matrix(1.3333333,0,0,-1.3333333,27.632,27.632)" />
    <path
       id="path4"
       d="m -20.12482,-20.12482 h 40.24964 m -40.24964,10.06241 H 20.12482 M -20.12482,0 h 40.24964 m -40.24964,10.06238 h 40.24964 m -40.24964,10.06241 h 40.24964 m -40.24964,-40.24961 v 40.24964 m 10.06241,-40.24964 V 20.12482 M 0,-20.12482 v 40.24964 m 10.06238,-40.24964 v 40.24964 m 10.06241,-40.24964 v 40.24964"
       style="fill:none;stroke:#404040;stroke-width:0.19925;stroke-linecap:butt;stroke-linejoin:miter;stroke-miterlimit:10;stroke-dasharray:none;stroke-opacity:1"
       transform="matrix(1.3333333,0,0,-1.3333333,27.632,27.632)" />
    <path
       id="path5"
       d="m -20.12482,-20.12482 h 40.24964 m -40.24964,10.06241 H 20.12482 M -20.12482,0 h 40.24964 m -40.24964,10.06238 h 40.24964 m -40.24964,10.06241 h 40.24964 m -40.24964,-40.24961 v 40.24964 m 10.06241,-40.24964 V 20.12482 M 0,-20.12482 v 40.24964 m 10.06238,-40.24964 v 40.24964 m 10.06241,-40.24964 v 40.24964"
       style="fill:none;stroke:#404040;stroke-width:0.19925;stroke-linecap:butt;stroke-linejoin:miter;stroke-miterlimit:10;stroke-dasharray:none;stroke-opacity:1"
       transform="matrix(1.3333333,0,0,-1.3333333,27.632,27.632)" />
    <path
       id="path6"
       d="m -20.12482,-20.12482 h 40.24964 m -40.24964,10.06241 H 20.12482 M -20.12482,0 h 40.24964 m -40.24964,10.06238 h 40.24964 m -40.24964,10.06241 h 40.24964 m -40.24964,-40.24961 v 40.24964 m 10.06241,-40.24964 V 20.12482 M 0,-20.12482 v 40.24964 m 10.06238,-40.24964 v 40.24964 m 10.06241,-40.24964 v 40.24964"
       style="fill:none;stroke:#404040;stroke-width:0.19925;stroke-linecap:butt;stroke-linejoin:miter;stroke-miterlimit:10;stroke-dasharray:none;stroke-opacity:1"
       transform="matrix(1.3333333,0,0,-1.3333333,27.632,27.632)" />
    <path
       id="path7"
       d="m -20.12482,-20.12482 h 40.24964 m -40.24964,10.06241 H 20.12482 M -20.12482,0 h 40.24964 m -40.24964,10.06238 h 40.24964 m -40.24964,10.06241 h 40.24964 m -40.24964,-40.24961 v 40.24964 m 10.06241,-40.24964 V 20.12482 M 0,-20.12482 v 40.24964 m 10.06238,-40.24964 v 40.24964 m 10.06241,-40.24964 v 40.24964"
       style="fill:none;stroke:#404040;stroke-width:0.19925;stroke-linecap:butt;stroke-linejoin:miter;stroke-miterlimit:10;stroke-dasharray:none;stroke-opacity:1"
       transform="matrix(1.3333333,0,0,-1.3333333,27.632,27.632)" />
    <path
       id="path8"
       d="m -20.12482,-20.12482 h 40.24964 m -40.24964,10.06241 H 20.12482 M -20.12482,0 h 40.24964 m -40.24964,10.06238 h 40.24964 m -40.24964,10.06241 h 40.24964 m -40.24964,-40.24961 v 40.24964 m 10.06241,-40.24964 V 20.12482 M 0,-20.12482 v 40.24964 m 10.06238,-40.24964 v 40.24964 m 10.06241,-40.24964 v 40.24964"
       style="fill:none;stroke:#404040;stroke-width:0.19925;stroke-linecap:butt;stroke-linejoin:miter;stroke-miterlimit:10;stroke-dasharray:none;stroke-opacity:1"
       transform="matrix(1.3333333,0,0,-1.3333333,27.632,27.632)" />
    <path
       id="path9"
       d="m -20.12482,-20.12482 h 40.24964 m -40.24964,10.06241 H 20.12482 M -20.12482,0 h 40.24964 m -40.24964,10.06238 h 40.24964 m -40.24964,10.06241 h 40.24964 m -40.24964,-40.24961 v 40.24964 m 10.06241,-40.24964 V 20.12482 M 0,-20.12482 v 40.24964 m 10.06238,-40.24964 v 40.24964 m 10.06241,-40.24964 v 40.24964"
       style="fill:none;stroke:#404040;stroke-width:0.19925;stroke-linecap:butt;stroke-linejoin:miter;stroke-miterlimit:10;stroke-dasharray:none;stroke-opacity:1"
       transform="matrix(1.3333333,0,0,-1.3333333,27.632,27.632)" />
    <path
       id="path10"
       d="m -20.075,0.0498 h 9.96277 v 9.96277 H -20.075 Z"
       style="fill:#808080;fill-opacity:1;fill-rule:nonzero;stroke:none"
       transform="matrix(1.3333333,0,0,-1.3333333,27.632,27.632)" />
    <path
       id="path11"
       d="m -20.12482,-20.12482 h 40.24964 m -40.24964,10.06241 H 20.12482 M -20.12482,0 h 40.24964 m -40.24964,10.06238 h 40.24964 m -40.24964,10.06241 h 40.24964 m -40.24964,-40.24961 v 40.24964 m 10.06241,-40.24964 V 20.12482 M 0,-20.12482 v 40.24964 m 10.06238,-40.24964 v 40.24964 m 10.06241,-40.24964 v 40.24964"
       style="fill:none;stroke:#404040;stroke-width:0.19925;stroke-linecap:butt;stroke-linejoin:miter;stroke-miterlimit:10;stroke-dasharray:none;stroke-opacity:1"
       transform="matrix(1.3333333,0,0,-1.3333333,27.632,27.632)" />
    <path
       id="path12"
       d="m -10.01259,0.0498 h 9.96277 v 9.96277 h -9.96277 z"
       style="fill:#808080;fill-opacity:1;fill-rule:nonzero;stroke:none"
       transform="matrix(1.3333333,0,0,-1.3333333,27.632,27.632)" />
    <path
       id="path13"
       d="m -20.12482,-20.12482 h 40.24964 m -40.24964,10.06241 H 20.12482 M -20.12482,0 h 40.24964 m -40.24964,10.06238 h 40.24964 m -40.24964,10.06241 h 40.24964 m -40.24964,-40.24961 v 40.24964 m 10.06241,-40.24964 V 20.12482 M 0,-20.12482 v 40.24964 m 10.06238,-40.24964 v 40.24964 m 10.06241,-40.24964 v 40.24964"
       style="fill:none;stroke:#404040;stroke-width:0.19925;stroke-linecap:butt;stroke-linejoin:miter;stroke-miterlimit:10;stroke-dasharray:none;stroke-opacity:1"
       transform="matrix(1.3333333,0,0,-1.3333333,27.632,27.632)" />
    <path
       id="path14"
       d="m 0.0498,0.0498 h 9.96277 v 9.96277 H 0.0498 Z"
       style="fill:#808080;fill-opacity:1;fill-rule:nonzero;stroke:none"
       transform="matrix(1.3333333,0,0,-1.3333333,27.632,27.632)" />
    <path
       id="path15"
       d="m -20.12482,-20.12482 h 40.24964 m -40.24964,10.06241 H 20.12482 M -20.12482,0 h 40.24964 m -40.24964,10.06238 h 40.24964 m -40.24964,10.06241 h 40.24964 m -40.24964,-40.24961 v 40.24964 m 10.06241,-40.24964 V 20.12482 M 0,-20.12482 v 40.24964 m 10.06238,-40.24964 v 40.24964 m 10.06241,-40.24964 v 40.24964"
       style="fill:none;stroke:#404040;stroke-width:0.19925;stroke-linecap:butt;stroke-linejoin:miter;stroke-miterlimit:10;stroke-dasharray:none;stroke-opacity:1"
       transform="matrix(1.3333333,0,0,-1.3333333,27.632,27.632)" />
    <path
       id="path16"
       d="m -20.12482,-20.12482 h 40.24964 m -40.24964,10.06241 H 20.12482 M -20.12482,0 h 40.24964 m -40.24964,10.06238 h 40.24964 m -40.24964,10.06241 h 40.24964 m -40.24964,-40.24961 v 40.24964 m 10.06241,-40.24964 V 20.12482 M 0,-20.12482 v 40.24964 m 10.06238,-40.24964 v 40.24964 m 10.06241,-40.24964 v 40.24964"
       style="fill:none;stroke:#404040;stroke-width:0.19925;stroke-linecap:butt;stroke-linejoin:miter;stroke-miterlimit:10;stroke-dasharray:none;stroke-opacity:1"
       transform="matrix(1.3333333,0,0,-1.3333333,27.632,27.632)" />
    <path
       id="path17"
       d="m -20.12482,-20.12482 h 40.24964 m -40.24964,10.06241 H 20.12482 M -20.12482,0 h 40.24964 m -40.24964,10.06238 h 40.24964 m -40.24964,10.06241 h 40.24964 m -40.24964,-40.24961 v 40.24964 m 10.06241,-40.24964 V 20.12482 M 0,-20.12482 v 40.24964 m 10.06238,-40.24964 v 40.24964 m 10.06241,-40.24964 v 40.24964"
       style="fill:none;stroke:#404040;stroke-width:0.19925;stroke-linecap:butt;stroke-linejoin:miter;stroke-miterlimit:10;stroke-dasharray:none;stroke-opacity:1"
       transform="matrix(1.3333333,0,0,-1.3333333,27.632,27.632)" />
    <path
       id="path18"
       d="m -10.01259,10.11221 h 9.96277 v 9.96277 h -9.96277 z"
       style="fill:#808080;fill-opacity:1;fill-rule:nonzero;stroke:none"
       transform="matrix(1.3333333,0,0,-1.3333333,27.632,27.632)" />
    <path
       id="path19"
       d="m -20.12482,-20.12482 h 40.24964 m -40.24964,10.06241 H 20.12482 M -20.12482,0 h 40.24964 m -40.24964,10.06238 h 40.24964 m -40.24964,10.06241 h 40.24964 m -40.24964,-40.24961 v 40.24964 m 10.06241,-40.24964 V 20.12482 M 0,-20.12482 v 40.24964 m 10.06238,-40.24964 v 40.24964 m 10.06241,-40.24964 v 40.24964"
       style="fill:none;stroke:#404040;stroke-width:0.19925;stroke-linecap:butt;stroke-linejoin:miter;stroke-miterlimit:10;stroke-dasharray:none;stroke-opacity:1"
       transform="matrix(1.3333333,0,0,-1.3333333,27.632,27.632)" />
    <path
       id="path20"
       d="m -20.12482,-20.12482 h 40.24964 m -40.24964,10.06241 H 20.12482 M -20.12482,0 h 40.24964 m -40.24964,10.06238 h 40.24964 m -40.24964,10.06241 h 40.24964 m -40.24964,-40.24961 v 40.24964 m 10.06241,-40.24964 V 20.12482 M 0,-20.12482 v 40.24964 m 10.06238,-40.24964 v 40.24964 m 10.06241,-40.24964 v 40.24964"
       style="fill:none;stroke:#404040;stroke-width:0.19925;stroke-linecap:butt;stroke-linejoin:miter;stroke-miterlimit:10;stroke-dasharray:none;stroke-opacity:1"
       transform="matrix(1.3333333,0,0,-1.3333333,27.632,27.632)" />
    <path
       id="path21"
       d="m -20.12482,-20.12482 h 40.24964 m -40.24964,10.06241 H 20.12482 M -20.12482,0 h 40.24964 m -40.24964,10.06238 h 40.24964 m -40.24964,10.06241 h 40.24964 m -40.24964,-40.24961 v 40.24964 m 10.06241,-40.24964 V 20.12482 M 0,-20.12482 v 40.24964 m 10.06238,-40.24964 v 40.24964 m 10.06241,-40.24964 v 40.24964"
       style="fill:none;stroke:#404040;stroke-width:0.19925;stroke-linecap:butt;stroke-linejoin:miter;stroke-miterlimit:10;stroke-dasharray:none;stroke-opacity:1"
       transform="matrix(1.3333333,0,0,-1.3333333,27.632,27.632)" />
    <path
       id="path22"
       d="M 29.68909,-20.12482 H 69.93874 M 29.68909,-10.06241 H 69.93874 M 29.68909,0 H 69.93874 M 29.68909,10.06238 H 69.93874 M 29.68909,20.12479 H 69.93874 M 29.68909,-20.12482 V 20.12482 M 39.7515,-20.12482 V 20.12482 M 49.81389,-20.12482 V 20.12482 M 59.8763,-20.12482 v 40.24964 m 10.0624,-40.24964 v 40.24964"
       style="fill:none;stroke:#404040;stroke-width:0.19925;stroke-linecap:butt;stroke-linejoin:miter;stroke-miterlimit:10;stroke-dasharray:none;stroke-opacity:1"
       transform="matrix(1.3333333,0,0,-1.3333333,27.632,27.632)" />
    <path
       id="path23"
       d="M 29.68909,-20.12482 H 69.93874 M 29.68909,-10.06241 H 69.93874 M 29.68909,0 H 69.93874 M 29.68909,10.06238 H 69.93874 M 29.68909,20.12479 H 69.93874 M 29.68909,-20.12482 V 20.12482 M 39.7515,-20.12482 V 20.12482 M 49.81389,-20.12482 V 20.12482 M 59.8763,-20.12482 v 40.24964 m 10.0624,-40.24964 v 40.24964"
       style="fill:none;stroke:#404040;stroke-width:0.19925;stroke-linecap:butt;stroke-linejoin:miter;stroke-miterlimit:10;stroke-dasharray:none;stroke-opacity:1"
       transform="matrix(1.3333333,0,0,-1.3333333,27.632,27.632)" />
    <path
       id="path24"
       d="M 29.68909,-20.12482 H 69.93874 M 29.68909,-10.06241 H 69.93874 M 29.68909,0 H 69.93874 M 29.68909,10.06238 H 69.93874 M 29.68909,20.12479 H 69.93874 M 29.68909,-20.12482 V 20.12482 M 39.7515,-20.12482 V 20.12482 M 49.81389,-20.12482 V 20.12482 M 59.8763,-20.12482 v 40.24964 m 10.0624,-40.24964 v 40.24964"
       style="fill:none;stroke:#404040;stroke-width:0.19925;stroke-linecap:butt;stroke-linejoin:miter;stroke-miterlimit:10;stroke-dasharray:none;stroke-opacity:1"
       transform="matrix(1.3333333,0,0,-1.3333333,27.632,27.632)" />
    <path
       id="path25"
       d="M 29.68909,-20.12482 H 69.93874 M 29.68909,-10.06241 H 69.93874 M 29.68909,0 H 69.93874 M 29.68909,10.06238 H 69.93874 M 29.68909,20.12479 H 69.93874 M 29.68909,-20.12482 V 20.12482 M 39.7515,-20.12482 V 20.12482 M 49.81389,-20.12482 V 20.12482 M 59.8763,-20.12482 v 40.24964 m 10.0624,-40.24964 v 40.24964"
       style="fill:none;stroke:#404040;stroke-width:0.19925;stroke-linecap:butt;stroke-linejoin:miter;stroke-miterlimit:10;stroke-dasharray:none;stroke-opacity:1"
       transform="matrix(1.3333333,0,0,-1.3333333,27.632,27.632)" />
    <path
       id="path26"
       d="M 29.68909,-20.12482 H 69.93874 M 29.68909,-10.06241 H 69.93874 M 29.68909,0 H 69.93874 M 29.68909,10.06238 H 69.93874 M 29.68909,20.12479 H 69.93874 M 29.68909,-20.12482 V 20.12482 M 39.7515,-20.12482 V 20.12482 M 49.81389,-20.12482 V 20.12482 M 59.8763,-20.12482 v 40.24964 m 10.0624,-40.24964 v 40.24964"
       style="fill:none;stroke:#404040;stroke-width:0.19925;stroke-linecap:butt;stroke-linejoin:miter;stroke-miterlimit:10;stroke-dasharray:none;stroke-opacity:1"
       transform="matrix(1.3333333,0,0,-1.3333333,27.632,27.632)" />
    <path
       id="path27"
       d="m 39.80132,-10.01259 h 9.96277 v 9.96277 h -9.96277 z"
       style="fill:#808080;fill-opacity:1;fill-rule:nonzero;stroke:none"
       transform="matrix(1.3333333,0,0,-1.3333333,27.632,27.632)" />
    <path
       id="path28"
       d="M 29.68909,-20.12482 H 69.93874 M 29.68909,-10.06241 H 69.93874 M 29.68909,0 H 69.93874 M 29.68909,10.06238 H 69.93874 M 29.68909,20.12479 H 69.93874 M 29.68909,-20.12482 V 20.12482 M 39.7515,-20.12482 V 20.12482 M 49.81389,-20.12482 V 20.12482 M 59.8763,-20.12482 v 40.24964 m 10.0624,-40.24964 v 40.24964"
       style="fill:none;stroke:#404040;stroke-width:0.19925;stroke-linecap:butt;stroke-linejoin:miter;stroke-miterlimit:10;stroke-dasharray:none;stroke-opacity:1"
       transform="matrix(1.3333333,0,0,-1.3333333,27.632,27.632)" />
    <path
       id="path29"
       d="M 29.68909,-20.12482 H 69.93874 M 29.68909,-10.06241 H 69.93874 M 29.68909,0 H 69.93874 M 29.68909,10.06238 H 69.93874 M 29.68909,20.12479 H 69.93874 M 29.68909,-20.12482 V 20.12482 M 39.7515,-20.12482 V 20.12482 M 49.81389,-20.12482 V 20.12482 M 59.8763,-20.12482 v 40.24964 m 10.0624,-40.24964 v 40.24964"
       style="fill:none;stroke:#404040;stroke-width:0.19925;stroke-linecap:butt;stroke-linejoin:miter;stroke-miterlimit:10;stroke-dasharray:none;stroke-opacity:1"
       transform="matrix(1.3333333,0,0,-1.3333333,27.632,27.632)" />
    <path
       id="path30"
       d="M 29.68909,-20.12482 H 69.93874 M 29.68909,-10.06241 H 69.93874 M 29.68909,0 H 69.93874 M 29.68909,10.06238 H 69.93874 M 29.68909,20.12479 H 69.93874 M 29.68909,-20.12482 V 20.12482 M 39.7515,-20.12482 V 20.12482 M 49.81389,-20.12482 V 20.12482 M 59.8763,-20.12482 v 40.24964 m 10.0624,-40.24964 v 40.24964"
       style="fill:none;stroke:#404040;stroke-width:0.19925;stroke-linecap:butt;stroke-linejoin:miter;stroke-miterlimit:10;stroke-dasharray:none;stroke-opacity:1"
       transform="matrix(1.3333333,0,0,-1.3333333,27.632,27.632)" />
    <path
       id="path31"
       d="M 29.68909,-20.12482 H 69.93874 M 29.68909,-10.06241 H 69.93874 M 29.68909,0 H 69.93874 M 29.68909,10.06238 H 69.93874 M 29.68909,20.12479 H 69.93874 M 29.68909,-20.12482 V 20.12482 M 39.7515,-20.12482 V 20.12482 M 49.81389,-20.12482 V 20.12482 M 59.8763,-20.12482 v 40.24964 m 10.0624,-40.24964 v 40.24964"
       style="fill:none;stroke:#404040;stroke-width:0.19925;stroke-linecap:butt;stroke-linejoin:miter;stroke-miterlimit:10;stroke-dasharray:none;stroke-opacity:1"
       transform="matrix(1.3333333,0,0,-1.3333333,27.632,27.632)" />
    <path
       id="path32"
       d="m 39.80132,0.0498 h 9.96277 v 9.96277 h -9.96277 z"
       style="fill:#808080;fill-opacity:1;fill-rule:nonzero;stroke:none"
       transform="matrix(1.3333333,0,0,-1.3333333,27.632,27.632)" />
    <path
       id="path33"
       d="M 29.68909,-20.12482 H 69.93874 M 29.68909,-10.06241 H 69.93874 M 29.68909,0 H 69.93874 M 29.68909,10.06238 H 69.93874 M 29.68909,20.12479 H 69.93874 M 29.68909,-20.12482 V 20.12482 M 39.7515,-20.12482 V 20.12482 M 49.81389,-20.12482 V 20.12482 M 59.8763,-20.12482 v 40.24964 m 10.0624,-40.24964 v 40.24964"
       style="fill:none;stroke:#404040;stroke-width:0.19925;stroke-linecap:butt;stroke-linejoin:miter;stroke-miterlimit:10;stroke-dasharray:none;stroke-opacity:1"
       transform="matrix(1.3333333,0,0,-1.3333333,27.632,27.632)" />
    <path
       id="path34"
       d="m 49.86372,0.0498 h 9.96277 v 9.96277 h -9.96277 z"
       style="fill:#808080;fill-opacity:1;fill-rule:nonzero;stroke:none"
       transform="matrix(1.3333333,0,0,-1.3333333,27.632,27.632)" />
    <path
       id="path35"
       d="M 29.68909,-20.12482 H 69.93874 M 29.68909,-10.06241 H 69.93874 M 29.68909,0 H 69.93874 M 29.68909,10.06238 H 69.93874 M 29.68909,20.12479 H 69.93874 M 29.68909,-20.12482 V 20.12482 M 39.7515,-20.12482 V 20.12482 M 49.81389,-20.12482 V 20.12482 M 59.8763,-20.12482 v 40.24964 m 10.0624,-40.24964 v 40.24964"
       style="fill:none;stroke:#404040;stroke-width:0.19925;stroke-linecap:butt;stroke-linejoin:miter;stroke-miterlimit:10;stroke-dasharray:none;stroke-opacity:1"
       transform="matrix(1.3333333,0,0,-1.3333333,27.632,27.632)" />
    <path
       id="path36"
       d="M 29.68909,-20.12482 H 69.93874 M 29.68909,-10.06241 H 69.93874 M 29.68909,0 H 69.93874 M 29.68909,10.06238 H 69.93874 M 29.68909,20.12479 H 69.93874 M 29.68909,-20.12482 V 20.12482 M 39.7515,-20.12482 V 20.12482 M 49.81389,-20.12482 V 20.12482 M 59.8763,-20.12482 v 40.24964 m 10.0624,-40.24964 v 40.24964"
       style="fill:none;stroke:#404040;stroke-width:0.19925;stroke-linecap:butt;stroke-linejoin:miter;stroke-miterlimit:10;stroke-dasharray:none;stroke-opacity:1"
       transform="matrix(1.3333333,0,0,-1.3333333,27.632,27.632)" />
    <path
       id="path37"
       d="M 29.68909,-20.12482 H 69.93874 M 29.68909,-10.06241 H 69.93874 M 29.68909,0 H 69.93874 M 29.68909,10.06238 H 69.93874 M 29.68909,20.12479 H 69.93874 M 29.68909,-20.12482 V 20.12482 M 39.7515,-20.12482 V 20.12482 M 49.81389,-20.12482 V 20.12482 M 59.8763,-20.12482 v 40.24964 m 10.0624,-40.24964 v 40.24964"
       style="fill:none;stroke:#404040;stroke-width:0.19925;stroke-linecap:butt;stroke-linejoin:miter;stroke-miterlimit:10;stroke-dasharray:none;stroke-opacity:1"
       transform="matrix(1.3333333,0,0,-1.3333333,27.632,27.632)" />
    <path
       id="path38"
       d="m 39.80132,10.11221 h 9.96277 v 9.96277 h -9.96277 z"
       style="fill:#808080;fill-opacity:1;fill-rule:nonzero;stroke:none"
       transform="matrix(1.3333333,0,0,-1.3333333,27.632,27.632)" />
    <path
       id="path39"
       d="M 29.68909,-20.12482 H 69.93874 M 29.68909,-10.06241 H 69.93874 M 29.68909,0 H 69.93874 M 29.68909,10.06238 H 69.93874 M 29.68909,20.12479 H 69.93874 M 29.68909,-20.12482 V 20.12482 M 39.7515,-20.12482 V 20.12482 M 49.81389,-20.12482 V 20.12482 M 59.8763,-20.12482 v 40.24964 m 10.0624,-40.24964 v 40.24964"
       style="fill:none;stroke:#404040;stroke-width:0.19925;stroke-linecap:butt;stroke-linejoin:miter;stroke-miterlimit:10;stroke-dasharray:none;stroke-opacity:1"
       transform="matrix(1.3333333,0,0,-1.3333333,27.632,27.632)" />
    <path
       id="path40"
       d="M 29.68909,-20.12482 H 69.93874 M 29.68909,-10.06241 H 69.93874 M 29.68909,0 H 69.93874 M 29.68909,10.06238 H 69.93874 M 29.68909,20.12479 H 69.93874 M 29.68909,-20.12482 V 20.12482 M 39.7515,-20.12482 V 20.12482 M 49.81389,-20.12482 V 20.12482 M 59.8763,-20.12482 v 40.24964 m 10.0624,-40.24964 v 40.24964"
       style="fill:none;stroke:#404040;stroke-width:0.19925;stroke-linecap:butt;stroke-linejoin:miter;stroke-miterlimit:10;stroke-dasharray:none;stroke-opacity:1"
       transform="matrix(1.3333333,0,0,-1.3333333,27.632,27.632)" />
    <path
       id="path41"
       d="M 29.68909,-20.12482 H 69.93874 M 29.68909,-10.06241 H 69.93874 M 29.68909,0 H 69.93874 M 29.68909,10.06238 H 69.93874 M 29.68909,20.12479 H 69.93874 M 29.68909,-20.12482 V 20.12482 M 39.7515,-20.12482 V 20.12482 M 49.81389,-20.12482 V 20.12482 M 59.8763,-20.12482 v 40.24964 m 10.0624,-40.24964 v 40.24964"
       style="fill:none;stroke:#404040;stroke-width:0.19925;stroke-linecap:butt;stroke-linejoin:miter;stroke-miterlimit:10;stroke-dasharray:none;stroke-opacity:1"
       transform="matrix(1.3333333,0,0,-1.3333333,27.632,27.632)" />
    <path
       id="path42"
       d="m 79.503,-20.12482 h 40.24966 M 79.503,-10.06241 h 40.24966 M 79.503,0 h 40.24966 M 79.503,10.06238 h 40.24966 M 79.503,20.12479 h 40.24966 M 79.503,-20.12482 V 20.12482 M 89.56541,-20.12482 V 20.12482 M 99.6278,-20.12482 v 40.24964 m 10.06242,-40.24964 v 40.24964 m 10.0624,-40.24964 v 40.24964"
       style="fill:none;stroke:#404040;stroke-width:0.19925;stroke-linecap:butt;stroke-linejoin:miter;stroke-miterlimit:10;stroke-dasharray:none;stroke-opacity:1"
       transform="matrix(1.3333333,0,0,-1.3333333,27.632,27.632)" />
    <path
       id="path43"
       d="m 79.503,-20.12482 h 40.24966 M 79.503,-10.06241 h 40.24966 M 79.503,0 h 40.24966 M 79.503,10.06238 h 40.24966 M 79.503,20.12479 h 40.24966 M 79.503,-20.12482 V 20.12482 M 89.56541,-20.12482 V 20.12482 M 99.6278,-20.12482 v 40.24964 m 10.06242,-40.24964 v 40.24964 m 10.0624,-40.24964 v 40.24964"
       style="fill:none;stroke:#404040;stroke-width:0.19925;stroke-linecap:butt;stroke-linejoin:miter;stroke-miterlimit:10;stroke-dasharray:none;stroke-opacity:1"
       transform="matrix(1.3333333,0,0,-1.3333333,27.632,27.632)" />
    <path
       id="path44"
       d="m 79.503,-20.12482 h 40.24966 M 79.503,-10.06241 h 40.24966 M 79.503,0 h 40.24966 M 79.503,10.06238 h 40.24966 M 79.503,20.12479 h 40.24966 M 79.503,-20.12482 V 20.12482 M 89.56541,-20.12482 V 20.12482 M 99.6278,-20.12482 v 40.24964 m 10.06242,-40.24964 v 40.24964 m 10.0624,-40.24964 v 40.24964"
       style="fill:none;stroke:#404040;stroke-width:0.19925;stroke-linecap:butt;stroke-linejoin:miter;stroke-miterlimit:10;stroke-dasharray:none;stroke-opacity:1"
       transform="matrix(1.3333333,0,0,-1.3333333,27.632,27.632)" />
    <path
       id="path45"
       d="m 79.503,-20.12482 h 40.24966 M 79.503,-10.06241 h 40.24966 M 79.503,0 h 40.24966 M 79.503,10.06238 h 40.24966 M 79.503,20.12479 h 40.24966 M 79.503,-20.12482 V 20.12482 M 89.56541,-20.12482 V 20.12482 M 99.6278,-20.12482 v 40.24964 m 10.06242,-40.24964 v 40.24964 m 10.0624,-40.24964 v 40.24964"
       style="fill:none;stroke:#404040;stroke-width:0.19925;stroke-linecap:butt;stroke-linejoin:miter;stroke-miterlimit:10;stroke-dasharray:none;stroke-opacity:1"
       transform="matrix(1.3333333,0,0,-1.3333333,27.632,27.632)" />
    <path
       id="path46"
       d="m 79.503,-20.12482 h 40.24966 M 79.503,-10.06241 h 40.24966 M 79.503,0 h 40.24966 M 79.503,10.06238 h 40.24966 M 79.503,20.12479 h 40.24966 M 79.503,-20.12482 V 20.12482 M 89.56541,-20.12482 V 20.12482 M 99.6278,-20.12482 v 40.24964 m 10.06242,-40.24964 v 40.24964 m 10.0624,-40.24964 v 40.24964"
       style="fill:none;stroke:#404040;stroke-width:0.19925;stroke-linecap:butt;stroke-linejoin:miter;stroke-miterlimit:10;stroke-dasharray:none;stroke-opacity:1"
       transform="matrix(1.3333333,0,0,-1.3333333,27.632,27.632)" />
    <path
       id="path47"
       d="M 89.61523,-10.01259 H 99.578 v 9.96277 h -9.96277 z"
       style="fill:#808080;fill-opacity:1;fill-rule:nonzero;stroke:none"
       transform="matrix(1.3333333,0,0,-1.3333333,27.632,27.632)" />
    <path
       id="path48"
       d="m 79.503,-20.12482 h 40.24966 M 79.503,-10.06241 h 40.24966 M 79.503,0 h 40.24966 M 79.503,10.06238 h 40.24966 M 79.503,20.12479 h 40.24966 M 79.503,-20.12482 V 20.12482 M 89.56541,-20.12482 V 20.12482 M 99.6278,-20.12482 v 40.24964 m 10.06242,-40.24964 v 40.24964 m 10.0624,-40.24964 v 40.24964"
       style="fill:none;stroke:#404040;stroke-width:0.19925;stroke-linecap:butt;stroke-linejoin:miter;stroke-miterlimit:10;stroke-dasharray:none;stroke-opacity:1"
       transform="matrix(1.3333333,0,0,-1.3333333,27.632,27.632)" />
    <path
       id="path49"
       d="m 79.503,-20.12482 h 40.24966 M 79.503,-10.06241 h 40.24966 M 79.503,0 h 40.24966 M 79.503,10.06238 h 40.24966 M 79.503,20.12479 h 40.24966 M 79.503,-20.12482 V 20.12482 M 89.56541,-20.12482 V 20.12482 M 99.6278,-20.12482 v 40.24964 m 10.06242,-40.24964 v 40.24964 m 10.0624,-40.24964 v 40.24964"
       style="fill:none;stroke:#404040;stroke-width:0.19925;stroke-linecap:butt;stroke-linejoin:miter;stroke-miterlimit:10;stroke-dasharray:none;stroke-opacity:1"
       transform="matrix(1.3333333,0,0,-1.3333333,27.632,27.632)" />
    <path
       id="path50"
       d="m 79.503,-20.12482 h 40.24966 M 79.503,-10.06241 h 40.24966 M 79.503,0 h 40.24966 M 79.503,10.06238 h 40.24966 M 79.503,20.12479 h 40.24966 M 79.503,-20.12482 V 20.12482 M 89.56541,-20.12482 V 20.12482 M 99.6278,-20.12482 v 40.24964 m 10.06242,-40.24964 v 40.24964 m 10.0624,-40.24964 v 40.24964"
       style="fill:none;stroke:#404040;stroke-width:0.19925;stroke-linecap:butt;stroke-linejoin:miter;stroke-miterlimit:10;stroke-dasharray:none;stroke-opacity:1"
       transform="matrix(1.3333333,0,0,-1.3333333,27.632,27.632)" />
    <path
       id="path51"
       d="m 79.55283,0.0498 h 9.96277 v 9.96277 h -9.96277 z"
       style="fill:#808080;fill-opacity:1;fill-rule:nonzero;stroke:none"
       transform="matrix(1.3333333,0,0,-1.3333333,27.632,27.632)" />
    <path
       id="path52"
       d="m 79.503,-20.12482 h 40.24966 M 79.503,-10.06241 h 40.24966 M 79.503,0 h 40.24966 M 79.503,10.06238 h 40.24966 M 79.503,20.12479 h 40.24966 M 79.503,-20.12482 V 20.12482 M 89.56541,-20.12482 V 20.12482 M 99.6278,-20.12482 v 40.24964 m 10.06242,-40.24964 v 40.24964 m 10.0624,-40.24964 v 40.24964"
       style="fill:none;stroke:#404040;stroke-width:0.19925;stroke-linecap:butt;stroke-linejoin:miter;stroke-miterlimit:10;stroke-dasharray:none;stroke-opacity:1"
       transform="matrix(1.3333333,0,0,-1.3333333,27.632,27.632)" />
    <path
       id="path53"
       d="M 89.61523,0.0498 H 99.578 v 9.96277 h -9.96277 z"
       style="fill:#808080;fill-opacity:1;fill-rule:nonzero;stroke:none"
       transform="matrix(1.3333333,0,0,-1.3333333,27.632,27.632)" />
    <path
       id="path54"
       d="m 79.503,-20.12482 h 40.24966 M 79.503,-10.06241 h 40.24966 M 79.503,0 h 40.24966 M 79.503,10.06238 h 40.24966 M 79.503,20.12479 h 40.24966 M 79.503,-20.12482 V 20.12482 M 89.56541,-20.12482 V 20.12482 M 99.6278,-20.12482 v 40.24964 m 10.06242,-40.24964 v 40.24964 m 10.0624,-40.24964 v 40.24964"
       style="fill:none;stroke:#404040;stroke-width:0.19925;stroke-linecap:butt;stroke-linejoin:miter;stroke-miterlimit:10;stroke-dasharray:none;stroke-opacity:1"
       transform="matrix(1.3333333,0,0,-1.3333333,27.632,27.632)" />
    <path
       id="path55"
       d="m 99.67764,0.0498 h 9.96277 v 9.96277 h -9.96277 z"
       style="fill:#808080;fill-opacity:1;fill-rule:nonzero;stroke:none"
       transform="matrix(1.3333333,0,0,-1.3333333,27.632,27.632)" />
    <path
       id="path56"
       d="m 79.503,-20.12482 h 40.24966 M 79.503,-10.06241 h 40.24966 M 79.503,0 h 40.24966 M 79.503,10.06238 h 40.24966 M 79.503,20.12479 h 40.24966 M 79.503,-20.12482 V 20.12482 M 89.56541,-20.12482 V 20.12482 M 99.6278,-20.12482 v 40.24964 m 10.06242,-40.24964 v 40.24964 m 10.0624,-40.24964 v 40.24964"
       style="fill:none;stroke:#404040;stroke-width:0.19925;stroke-linecap:butt;stroke-linejoin:miter;stroke-miterlimit:10;stroke-dasharray:none;stroke-opacity:1"
       transform="matrix(1.3333333,0,0,-1.3333333,27.632,27.632)" />
    <path
       id="path57"
       d="m 79.503,-20.12482 h 40.24966 M 79.503,-10.06241 h 40.24966 M 79.503,0 h 40.24966 M 79.503,10.06238 h 40.24966 M 79.503,20.12479 h 40.24966 M 79.503,-20.12482 V 20.12482 M 89.56541,-20.12482 V 20.12482 M 99.6278,-20.12482 v 40.24964 m 10.06242,-40.24964 v 40.24964 m 10.0624,-40.24964 v 40.24964"
       style="fill:none;stroke:#404040;stroke-width:0.19925;stroke-linecap:butt;stroke-linejoin:miter;stroke-miterlimit:10;stroke-dasharray:none;stroke-opacity:1"
       transform="matrix(1.3333333,0,0,-1.3333333,27.632,27.632)" />
    <path
       id="path58"
       d="m 79.503,-20.12482 h 40.24966 M 79.503,-10.06241 h 40.24966 M 79.503,0 h 40.24966 M 79.503,10.06238 h 40.24966 M 79.503,20.12479 h 40.24966 M 79.503,-20.12482 V 20.12482 M 89.56541,-20.12482 V 20.12482 M 99.6278,-20.12482 v 40.24964 m 10.06242,-40.24964 v 40.24964 m 10.0624,-40.24964 v 40.24964"
       style="fill:none;stroke:#404040;stroke-width:0.19925;stroke-linecap:butt;stroke-linejoin:miter;stroke-miterlimit:10;stroke-dasharray:none;stroke-opacity:1"
       transform="matrix(1.3333333,0,0,-1.3333333,27.632,27.632)" />
    <path
       id="path59"
       d="m 79.503,-20.12482 h 40.24966 M 79.503,-10.06241 h 40.24966 M 79.503,0 h 40.24966 M 79.503,10.06238 h 40.24966 M 79.503,20.12479 h 40.24966 M 79.503,-20.12482 V 20.12482 M 89.56541,-20.12482 V 20.12482 M 99.6278,-20.12482 v 40.24964 m 10.06242,-40.24964 v 40.24964 m 10.0624,-40.24964 v 40.24964"
       style="fill:none;stroke:#404040;stroke-width:0.19925;stroke-linecap:butt;stroke-linejoin:miter;stroke-miterlimit:10;stroke-dasharray:none;stroke-opacity:1"
       transform="matrix(1.3333333,0,0,-1.3333333,27.632,27.632)" />
    <path
       id="path60"
       d="m 79.503,-20.12482 h 40.24966 M 79.503,-10.06241 h 40.24966 M 79.503,0 h 40.24966 M 79.503,10.06238 h 40.24966 M 79.503,20.12479 h 40.24966 M 79.503,-20.12482 V 20.12482 M 89.56541,-20.12482 V 20.12482 M 99.6278,-20.12482 v 40.24964 m 10.06242,-40.24964 v 40.24964 m 10.0624,-40.24964 v 40.24964"
       style="fill:none;stroke:#404040;stroke-width:0.19925;stroke-linecap:butt;stroke-linejoin:miter;stroke-miterlimit:10;stroke-dasharray:none;stroke-opacity:1"
       transform="matrix(1.3333333,0,0,-1.3333333,27.632,27.632)" />
    <path
       id="path61"
       d="m 79.503,-20.12482 h 40.24966 M 79.503,-10.06241 h 40.24966 M 79.503,0 h 40.24966 M 79.503,10.06238 h 40.24966 M 79.503,20.12479 h 40.24966 M 79.503,-20.12482 V 20.12482 M 89.56541,-20.12482 V 20.12482 M 99.6278,-20.12482 v 40.24964 m 10.06242,-40.24964 v 40.24964 m 10.0624,-40.24964 v 40.24964"
       style="fill:none;stroke:#404040;stroke-width:0.19925;stroke-linecap:butt;stroke-linejoin:miter;stroke-miterlimit:10;stroke-dasharray:none;stroke-opacity:1"
       transform="matrix(1.3333333,0,0,-1.3333333,27.632,27.632)" />
    <path
       id="path62"
       d="m 129.31693,-20.12482 h 40.24964 m -40.24964,10.06241 h 40.24964 M 129.31693,0 h 40.24964 m -40.24964,10.06238 h 40.24964 m -40.24964,10.06241 h 40.24964 m -40.24964,-40.24961 v 40.24964 m 10.0624,-40.24964 v 40.24964 m 10.0624,-40.24964 v 40.24964 m 10.06241,-40.24964 v 40.24964 m 10.0624,-40.24964 v 40.24964"
       style="fill:none;stroke:#404040;stroke-width:0.19925;stroke-linecap:butt;stroke-linejoin:miter;stroke-miterlimit:10;stroke-dasharray:none;stroke-opacity:1"
       transform="matrix(1.3333333,0,0,-1.3333333,27.632,27.632)" />
    <path
       id="path63"
       d="m 129.31693,-20.12482 h 40.24964 m -40.24964,10.06241 h 40.24964 M 129.31693,0 h 40.24964 m -40.24964,10.06238 h 40.24964 m -40.24964,10.06241 h 40.24964 m -40.24964,-40.24961 v 40.24964 m 10.0624,-40.24964 v 40.24964 m 10.0624,-40.24964 v 40.24964 m 10.06241,-40.24964 v 40.24964 m 10.0624,-40.24964 v 40.24964"
       style="fill:none;stroke:#404040;stroke-width:0.19925;stroke-linecap:butt;stroke-linejoin:miter;stroke-miterlimit:10;stroke-dasharray:none;stroke-opacity:1"
       transform="matrix(1.3333333,0,0,-1.3333333,27.632,27.632)" />
    <path
       id="path64"
       d="m 129.31693,-20.12482 h 40.24964 m -40.24964,10.06241 h 40.24964 M 129.31693,0 h 40.24964 m -40.24964,10.06238 h 40.24964 m -40.24964,10.06241 h 40.24964 m -40.24964,-40.24961 v 40.24964 m 10.0624,-40.24964 v 40.24964 m 10.0624,-40.24964 v 40.24964 m 10.06241,-40.24964 v 40.24964 m 10.0624,-40.24964 v 40.24964"
       style="fill:none;stroke:#404040;stroke-width:0.19925;stroke-linecap:butt;stroke-linejoin:miter;stroke-miterlimit:10;stroke-dasharray:none;stroke-opacity:1"
       transform="matrix(1.3333333,0,0,-1.3333333,27.632,27.632)" />
    <path
       id="path65"
       d="m 129.31693,-20.12482 h 40.24964 m -40.24964,10.06241 h 40.24964 M 129.31693,0 h 40.24964 m -40.24964,10.06238 h 40.24964 m -40.24964,10.06241 h 40.24964 m -40.24964,-40.24961 v 40.24964 m 10.0624,-40.24964 v 40.24964 m 10.0624,-40.24964 v 40.24964 m 10.06241,-40.24964 v 40.24964 m 10.0624,-40.24964 v 40.24964"
       style="fill:none;stroke:#404040;stroke-width:0.19925;stroke-linecap:butt;stroke-linejoin:miter;stroke-miterlimit:10;stroke-dasharray:none;stroke-opacity:1"
       transform="matrix(1.3333333,0,0,-1.3333333,27.632,27.632)" />
    <path
       id="path66"
       d="m 129.31693,-20.12482 h 40.24964 m -40.24964,10.06241 h 40.24964 M 129.31693,0 h 40.24964 m -40.24964,10.06238 h 40.24964 m -40.24964,10.06241 h 40.24964 m -40.24964,-40.24961 v 40.24964 m 10.0624,-40.24964 v 40.24964 m 10.0624,-40.24964 v 40.24964 m 10.06241,-40.24964 v 40.24964 m 10.0624,-40.24964 v 40.24964"
       style="fill:none;stroke:#404040;stroke-width:0.19925;stroke-linecap:butt;stroke-linejoin:miter;stroke-miterlimit:10;stroke-dasharray:none;stroke-opacity:1"
       transform="matrix(1.3333333,0,0,-1.3333333,27.632,27.632)" />
    <path
       id="path67"
       d="m 139.42915,-10.01259 h 9.96277 v 9.96277 h -9.96277 z"
       style="fill:#808080;fill-opacity:1;fill-rule:nonzero;stroke:none"
       transform="matrix(1.3333333,0,0,-1.3333333,27.632,27.632)" />
    <path
       id="path68"
       d="m 129.31693,-20.12482 h 40.24964 m -40.24964,10.06241 h 40.24964 M 129.31693,0 h 40.24964 m -40.24964,10.06238 h 40.24964 m -40.24964,10.06241 h 40.24964 m -40.24964,-40.24961 v 40.24964 m 10.0624,-40.24964 v 40.24964 m 10.0624,-40.24964 v 40.24964 m 10.06241,-40.24964 v 40.24964 m 10.0624,-40.24964 v 40.24964"
       style="fill:none;stroke:#404040;stroke-width:0.19925;stroke-linecap:butt;stroke-linejoin:miter;stroke-miterlimit:10;stroke-dasharray:none;stroke-opacity:1"
       transform="matrix(1.3333333,0,0,-1.3333333,27.632,27.632)" />
    <path
       id="path69"
       d="m 129.31693,-20.12482 h 40.24964 m -40.24964,10.06241 h 40.24964 M 129.31693,0 h 40.24964 m -40.24964,10.06238 h 40.24964 m -40.24964,10.06241 h 40.24964 m -40.24964,-40.24961 v 40.24964 m 10.0624,-40.24964 v 40.24964 m 10.0624,-40.24964 v 40.24964 m 10.06241,-40.24964 v 40.24964 m 10.0624,-40.24964 v 40.24964"
       style="fill:none;stroke:#404040;stroke-width:0.19925;stroke-linecap:butt;stroke-linejoin:miter;stroke-miterlimit:10;stroke-dasharray:none;stroke-opacity:1"
       transform="matrix(1.3333333,0,0,-1.3333333,27.632,27.632)" />
    <path
       id="path70"
       d="m 129.31693,-20.12482 h 40.24964 m -40.24964,10.06241 h 40.24964 M 129.31693,0 h 40.24964 m -40.24964,10.06238 h 40.24964 m -40.24964,10.06241 h 40.24964 m -40.24964,-40.24961 v 40.24964 m 10.0624,-40.24964 v 40.24964 m 10.0624,-40.24964 v 40.24964 m 10.06241,-40.24964 v 40.24964 m 10.0624,-40.24964 v 40.24964"
       style="fill:none;stroke:#404040;stroke-width:0.19925;stroke-linecap:butt;stroke-linejoin:miter;stroke-miterlimit:10;stroke-dasharray:none;stroke-opacity:1"
       transform="matrix(1.3333333,0,0,-1.3333333,27.632,27.632)" />
    <path
       id="path71"
       d="m 129.36674,0.0498 h 9.96277 v 9.96277 h -9.96277 z"
       style="fill:#808080;fill-opacity:1;fill-rule:nonzero;stroke:none"
       transform="matrix(1.3333333,0,0,-1.3333333,27.632,27.632)" />
    <path
       id="path72"
       d="m 129.31693,-20.12482 h 40.24964 m -40.24964,10.06241 h 40.24964 M 129.31693,0 h 40.24964 m -40.24964,10.06238 h 40.24964 m -40.24964,10.06241 h 40.24964 m -40.24964,-40.24961 v 40.24964 m 10.0624,-40.24964 v 40.24964 m 10.0624,-40.24964 v 40.24964 m 10.06241,-40.24964 v 40.24964 m 10.0624,-40.24964 v 40.24964"
       style="fill:none;stroke:#404040;stroke-width:0.19925;stroke-linecap:butt;stroke-linejoin:miter;stroke-miterlimit:10;stroke-dasharray:none;stroke-opacity:1"
       transform="matrix(1.3333333,0,0,-1.3333333,27.632,27.632)" />
    <path
       id="path73"
       d="m 139.42915,0.0498 h 9.96277 v 9.96277 h -9.96277 z"
       style="fill:#808080;fill-opacity:1;fill-rule:nonzero;stroke:none"
       transform="matrix(1.3333333,0,0,-1.3333333,27.632,27.632)" />
    <path
       id="path74"
       d="m 129.31693,-20.12482 h 40.24964 m -40.24964,10.06241 h 40.24964 M 129.31693,0 h 40.24964 m -40.24964,10.06238 h 40.24964 m -40.24964,10.06241 h 40.24964 m -40.24964,-40.24961 v 40.24964 m 10.0624,-40.24964 v 40.24964 m 10.0624,-40.24964 v 40.24964 m 10.06241,-40.24964 v 40.24964 m 10.0624,-40.24964 v 40.24964"
       style="fill:none;stroke:#404040;stroke-width:0.19925;stroke-linecap:butt;stroke-linejoin:miter;stroke-miterlimit:10;stroke-dasharray:none;stroke-opacity:1"
       transform="matrix(1.3333333,0,0,-1.3333333,27.632,27.632)" />
    <path
       id="path75"
       d="m 129.31693,-20.12482 h 40.24964 m -40.24964,10.06241 h 40.24964 M 129.31693,0 h 40.24964 m -40.24964,10.06238 h 40.24964 m -40.24964,10.06241 h 40.24964 m -40.24964,-40.24961 v 40.24964 m 10.0624,-40.24964 v 40.24964 m 10.0624,-40.24964 v 40.24964 m 10.06241,-40.24964 v 40.24964 m 10.0624,-40.24964 v 40.24964"
       style="fill:none;stroke:#404040;stroke-width:0.19925;stroke-linecap:butt;stroke-linejoin:miter;stroke-miterlimit:10;stroke-dasharray:none;stroke-opacity:1"
       transform="matrix(1.3333333,0,0,-1.3333333,27.632,27.632)" />
    <path
       id="path76"
       d="m 129.31693,-20.12482 h 40.24964 m -40.24964,10.06241 h 40.24964 M 129.31693,0 h 40.24964 m -40.24964,10.06238 h 40.24964 m -40.24964,10.06241 h 40.24964 m -40.24964,-40.24961 v 40.24964 m 10.0624,-40.24964 v 40.24964 m 10.0624,-40.24964 v 40.24964 m 10.06241,-40.24964 v 40.24964 m 10.0624,-40.24964 v 40.24964"
       style="fill:none;stroke:#404040;stroke-width:0.19925;stroke-linecap:butt;stroke-linejoin:miter;stroke-miterlimit:10;stroke-dasharray:none;stroke-opacity:1"
       transform="matrix(1.3333333,0,0,-1.3333333,27.632,27.632)" />
    <path
       id="path77"
       d="m 129.31693,-20.12482 h 40.24964 m -40.24964,10.06241 h 40.24964 M 129.31693,0 h 40.24964 m -40.24964,10.06238 h 40.24964 m -40.24964,10.06241 h 40.24964 m -40.24964,-40.24961 v 40.24964 m 10.0624,-40.24964 v 40.24964 m 10.0624,-40.24964 v 40.24964 m 10.06241,-40.24964 v 40.24964 m 10.0624,-40.24964 v 40.24964"
       style="fill:none;stroke:#404040;stroke-width:0.19925;stroke-linecap:butt;stroke-linejoin:miter;stroke-miterlimit:10;stroke-dasharray:none;stroke-opacity:1"
       transform="matrix(1.3333333,0,0,-1.3333333,27.632,27.632)" />
    <path
       id="path78"
       d="m 139.42915,10.11221 h 9.96277 v 9.96277 h -9.96277 z"
       style="fill:#808080;fill-opacity:1;fill-rule:nonzero;stroke:none"
       transform="matrix(1.3333333,0,0,-1.3333333,27.632,27.632)" />
    <path
       id="path79"
       d="m 129.31693,-20.12482 h 40.24964 m -40.24964,10.06241 h 40.24964 M 129.31693,0 h 40.24964 m -40.24964,10.06238 h 40.24964 m -40.24964,10.06241 h 40.24964 m -40.24964,-40.24961 v 40.24964 m 10.0624,-40.24964 v 40.24964 m 10.0624,-40.24964 v 40.24964 m 10.06241,-40.24964 v 40.24964 m 10.0624,-40.24964 v 40.24964"
       style="fill:none;stroke:#404040;stroke-width:0.19925;stroke-linecap:butt;stroke-linejoin:miter;stroke-miterlimit:10;stroke-dasharray:none;stroke-opacity:1"
       transform="matrix(1.3333333,0,0,-1.3333333,27.632,27.632)" />
    <path
       id="path80"
       d="m 129.31693,-20.12482 h 40.24964 m -40.24964,10.06241 h 40.24964 M 129.31693,0 h 40.24964 m -40.24964,10.06238 h 40.24964 m -40.24964,10.06241 h 40.24964 m -40.24964,-40.24961 v 40.24964 m 10.0624,-40.24964 v 40.24964 m 10.0624,-40.24964 v 40.24964 m 10.06241,-40.24964 v 40.24964 m 10.0624,-40.24964 v 40.24964"
       style="fill:none;stroke:#404040;stroke-width:0.19925;stroke-linecap:butt;stroke-linejoin:miter;stroke-miterlimit:10;stroke-dasharray:none;stroke-opacity:1"
       transform="matrix(1.3333333,0,0,-1.3333333,27.632,27.632)" />
    <path
       id="path81"
       d="m 129.31693,-20.12482 h 40.24964 m -40.24964,10.06241 h 40.24964 M 129.31693,0 h 40.24964 m -40.24964,10.06238 h 40.24964 m -40.24964,10.06241 h 40.24964 m -40.24964,-40.24961 v 40.24964 m 10.0624,-40.24964 v 40.24964 m 10.0624,-40.24964 v 40.24964 m 10.06241,-40.24964 v 40.24964 m 10.0624,-40.24964 v 40.24964"
       style="fill:none;stroke:#404040;stroke-width:0.19925;stroke-linecap:butt;stroke-linejoin:miter;stroke-miterlimit:10;stroke-dasharray:none;stroke-opacity:1"
       transform="matrix(1.3333333,0,0,-1.3333333,27.632,27.632)" />
    <path
       id="path82"
       d="m 4.54825,-3.2447031 c 0,-0.7851563 -0.035156,-1.7109375 -0.4570313,-2.5195313 -0.3984375,-0.75 -1.0898437,-0.984375 -1.59375,-0.984375 -0.5976562,0 -1.2890625,0.2695313 -1.6992187,1.1484375 -0.328125,0.7265625 -0.375,1.5585938 -0.375,2.3554688 0,0.7851562 0.0351563,1.5117187 0.33984375,2.2382812 0.39843745,0.96093752 1.14843745,1.23046877 1.72265625,1.23046877 0.7265625,0 1.3476562,-0.41015625 1.6640625,-1.1015625 C 4.4545,-1.5220469 4.54825,-2.1782969 4.54825,-3.2447031 Z m -2.0507813,2.85937497 c -0.5273437,0 -0.9375,-0.375 -1.1367187,-1.10156247 -0.1523438,-0.5625 -0.1640625,-1.1015625 -0.1640625,-1.875 0,-0.6328125 0,-1.2304688 0.1640625,-1.78125 0.070312,-0.1875 0.3164062,-0.9960938 1.125,-0.9960938 0.7734375,0 1.03125,0.75 1.1015625,0.9257813 0.1875,0.5625 0.1875,1.2304687 0.1875,1.8515625 0,0.65625 0,1.2773437 -0.1757813,1.9101562 -0.2578125,0.90234377 -0.7851562,1.06640627 -1.1015625,1.06640627 z m 0,0"
       style="fill:#000000;fill-opacity:1;fill-rule:nonzero;stroke:none"
       aria-label="0"
       transform="matrix(1.3333333,0,0,1.3333333,24.310667,67.865333)" />
    <path
       id="path83"
       d="M 0.71353125,-0.23298438 C 1.053375,0.01310937 1.428375,0.22404687 2.03775,0.22404687 c 1.3125,0 2.5078125,-1.38281247 2.5078125,-3.56249997 0,-2.7890625 -1.1835937,-3.4101563 -2.0273437,-3.4101563 -0.6914063,0 -1.1015625,0.2929688 -1.453125,0.6679688 -0.63281255,0.6679687 -0.6445313,1.3359375 -0.6445313,1.7578125 0,1.2773437 0.65625,2.390625 1.6054688,2.390625 0.6210937,0 1.265625,-0.2929688 1.6875,-0.8203125 -0.1054688,1.59375 -0.8789063,2.36718747 -1.6640625,2.36718747 -0.3398438,0 -0.6679688,-0.0820313 -1.0195313,-0.375 z M 3.6900938,-4.3345469 c 0,0.070312 0,0.1757813 0,0.2460938 0,0.8085937 -0.4804688,1.546875 -1.265625,1.546875 -0.46875,0 -0.75,-0.2226563 -0.9609375,-0.5976563 -0.2226563,-0.3867187 -0.234375,-0.75 -0.234375,-1.1835937 0,-0.4335938 0.011719,-0.84375 0.2929687,-1.2890625 0.1992188,-0.28125 0.4804688,-0.5625 0.9960938,-0.5625 0.9726562,0 1.1484375,1.359375 1.171875,1.8398437 z m 5.8388671,1.0898438 c 0,-0.7851563 -0.035156,-1.7109375 -0.4570312,-2.5195313 -0.3984375,-0.75 -1.0898438,-0.984375 -1.59375,-0.984375 -0.5976563,0 -1.2890625,0.2695313 -1.6992188,1.1484375 -0.328125,0.7265625 -0.375,1.5585938 -0.375,2.3554688 0,0.7851562 0.035156,1.5117187 0.3398438,2.2382812 0.3984375,0.96093752 1.1484375,1.23046877 1.7226562,1.23046877 0.7265625,0 1.3476563,-0.41015625 1.6640625,-1.1015625 C 9.4352109,-1.5220469 9.5289609,-2.1782969 9.5289609,-3.2447031 Z m -2.0507812,2.85937497 c -0.5273438,0 -0.9375,-0.375 -1.1367188,-1.10156247 -0.1523437,-0.5625 -0.1640625,-1.1015625 -0.1640625,-1.875 0,-0.6328125 0,-1.2304688 0.1640625,-1.78125 0.070312,-0.1875 0.3164063,-0.9960938 1.125,-0.9960938 0.7734375,0 1.03125,0.75 1.1015625,0.9257813 0.1875,0.5625 0.1875,1.2304687 0.1875,1.8515625 0,0.65625 0,1.2773437 -0.1757812,1.9101562 -0.2578125,0.90234377 -0.7851563,1.06640627 -1.1015625,1.06640627 z m 0,0"
       style="fill:#000000;fill-opacity:1;fill-rule:nonzero;stroke:none"
       aria-label="90"
       transform="matrix(1.3333333,0,0,1.3333333,87.408,67.865333)" />
    <path
       id="path84"
       d="M 2.9754922,-6.7486094 H 2.7762734 c -0.5859375,0.609375 -1.4179687,0.6328125 -1.88671871,0.65625 v 0.5742188 c 0.32812501,-0.011719 0.80859371,-0.023437 1.30078121,-0.234375 v 5.17968747 H 0.94814844 V 0.00139062 H 4.2176797 V -0.57282813 H 2.9754922 Z m 5.1943359,3.2109375 c 0.890625,-0.28125 1.2304688,-0.9492187 1.2304688,-1.4765625 0,-0.9257812 -0.8554688,-1.734375 -1.921875,-1.734375 -1.125,0 -1.9335938,0.8203125 -1.9335938,1.734375 0,0.5273438 0.3398438,1.1953125 1.21875,1.4765625 -0.7148437,0.2460938 -1.359375,0.8789063 -1.359375,1.7460938 0,1.08984372 0.9140625,2.01562497 2.0625,2.01562497 1.1835938,0 2.0625,-0.9609375 2.0625,-2.01562497 0,-0.9023438 -0.6914062,-1.5117188 -1.359375,-1.7460938 z M 7.4784219,-3.8306406 c -0.7734375,0 -1.2421875,-0.4921875 -1.2421875,-1.1835938 0,-0.6796875 0.4921875,-1.1601562 1.2304687,-1.1601562 0.7851563,0 1.2304688,0.515625 1.2304688,1.1601562 0,0.7265625 -0.5039063,1.1835938 -1.21875,1.1835938 z m 0,3.44531247 c -0.6914063,0 -1.265625,-0.48046875 -1.265625,-1.41796877 0,-1.0429687 0.7148437,-1.4179687 1.2539062,-1.4179687 0.5742188,0 1.265625,0.3984375 1.265625,1.4179687 0,0.97265627 -0.6210937,1.41796877 -1.2539062,1.41796877 z M 14.509672,-3.2447031 c 0,-0.7851563 -0.03516,-1.7109375 -0.457031,-2.5195313 -0.398438,-0.75 -1.089844,-0.984375 -1.59375,-0.984375 -0.597657,0 -1.289063,0.2695313 -1.699219,1.1484375 -0.328125,0.7265625 -0.375,1.5585938 -0.375,2.3554688 0,0.7851562 0.03516,1.5117187 0.339844,2.2382812 0.398437,0.96093752 1.148437,1.23046877 1.722656,1.23046877 0.726562,0 1.347656,-0.41015625 1.664062,-1.1015625 0.304688,-0.64453127 0.398438,-1.30078127 0.398438,-2.36718747 z m -2.050781,2.85937497 c -0.527344,0 -0.9375,-0.375 -1.136719,-1.10156247 -0.152344,-0.5625 -0.164063,-1.1015625 -0.164063,-1.875 0,-0.6328125 0,-1.2304688 0.164063,-1.78125 0.07031,-0.1875 0.316406,-0.9960938 1.125,-0.9960938 0.773437,0 1.03125,0.75 1.101562,0.9257813 0.1875,0.5625 0.1875,1.2304687 0.1875,1.8515625 0,0.65625 0,1.2773437 -0.175781,1.9101562 -0.257812,0.90234377 -0.785156,1.06640627 -1.101562,1.06640627 z m 0,0"
       style="fill:#000000;fill-opacity:1;fill-rule:nonzero;stroke:none"
       aria-label="180"
       transform="matrix(1.3333333,0,0,1.3333333,150.50533,67.865333)" />
    <path
       id="path85"
       d="m 1.7337812,-1.8736094 -1.2304687,1.24218752 v 0.6328125 h 3.9726562 v -0.703125 H 2.6595625 c -0.1171875,0 -0.234375,0 -0.3632813,0 h -1.078125 c 0.3164063,-0.26953125 1.078125,-1.01953122 1.3828125,-1.31250002 0.1875,-0.1757812 0.6914063,-0.5976562 0.890625,-0.7734375 0.4453125,-0.4453125 0.984375,-0.9726562 0.984375,-1.828125 0,-1.1367187 -0.8085937,-2.1328125 -2.1210937,-2.1328125 -1.1367188,0 -1.69921875,0.7734375 -1.93359375,1.6289063 0.1171875,0.1757812 0.1640625,0.234375 0.1875,0.2578125 0.0234375,0.023437 0.1171875,0.1523437 0.22265625,0.2929687 0.1992187,-0.7734375 0.46875,-1.546875 1.3828125,-1.546875 0.9375,0 1.4414062,0.75 1.4414062,1.5234375 0,0.84375 -0.5625,1.4179688 -1.1601562,2.015625 z m 5.5546875,-3.9492187 c 0.1171875,0 0.2460938,-0.011719 0.3632813,-0.011719 h 1.2070312 c -1.4765625,1.6171875 -2.3671875,3.609375 -2.3671875,5.94140627 h 0.84375 c 0,-2.98828127 1.4179688,-5.12109377 2.1914063,-5.98828127 v -0.65625 h -4.125 v 0.7148438 z m 7.2216793,2.578125 c 0,-0.7851563 -0.03516,-1.7109375 -0.457031,-2.5195313 -0.398437,-0.75 -1.089844,-0.984375 -1.59375,-0.984375 -0.597656,0 -1.289062,0.2695313 -1.699219,1.1484375 -0.328125,0.7265625 -0.375,1.5585938 -0.375,2.3554688 0,0.7851562 0.03516,1.5117187 0.339844,2.2382812 0.398438,0.96093752 1.148438,1.23046877 1.722656,1.23046877 0.726563,0 1.347657,-0.41015625 1.664063,-1.1015625 0.304687,-0.64453127 0.398437,-1.30078127 0.398437,-2.36718747 z m -2.050781,2.85937497 c -0.527344,0 -0.9375,-0.375 -1.136719,-1.10156247 -0.152343,-0.5625 -0.164062,-1.1015625 -0.164062,-1.875 0,-0.6328125 0,-1.2304688 0.164062,-1.78125 0.07031,-0.1875 0.316407,-0.9960938 1.125,-0.9960938 0.773438,0 1.03125,0.75 1.101563,0.9257813 0.1875,0.5625 0.1875,1.2304687 0.1875,1.8515625 0,0.65625 0,1.2773437 -0.175781,1.9101562 -0.257813,0.90234377 -0.785157,1.06640627 -1.101563,1.06640627 z m 0,0"
       style="fill:#000000;fill-opacity:1;fill-rule:nonzero;stroke:none"
       aria-label="270"
       transform="matrix(1.3333333,0,0,1.3333333,216.92267,67.865333)" />
  </g>
</svg>
