<?xml version="1.0" encoding="UTF-8" standalone="no"?>
<!-- Created with Inkscape (http://www.inkscape.org/) -->

<svg
   version="1.1"
   id="svg1"
   width="462.948"
   height="160.92934"
   viewBox="0 0 462.948 160.92934"
   sodipodi:docname="main.pdf"
   xmlns:inkscape="http://www.inkscape.org/namespaces/inkscape"
   xmlns:sodipodi="http://sodipodi.sourceforge.net/DTD/sodipodi-0.dtd"
   xmlns="http://www.w3.org/2000/svg"
   xmlns:svg="http://www.w3.org/2000/svg">
  <defs
     id="defs1" />
  <sodipodi:namedview
     id="namedview1"
     pagecolor="#ffffff"
     bordercolor="#000000"
     borderopacity="0.25"
     inkscape:showpageshadow="2"
     inkscape:pageopacity="0.0"
     inkscape:pagecheckerboard="0"
     inkscape:deskcolor="#d1d1d1">
    <inkscape:page
       x="0"
       y="0"
       inkscape:label="1"
       id="page1"
       width="462.948"
       height="160.92934"
       margin="0"
       bleed="0" />
  </sodipodi:namedview>
  <g
     id="g1"
     inkscape:groupmode="layer"
     inkscape:label="1">
    <path
       id="path1"
       d="M 0,0 H 347.211 V 120.697 H 0 Z"
       style="fill:#ffffff;fill-opacity:1;fill-rule:nonzero;stroke:none"
       transform="matrix(1.3333333,0,0,-1.3333333,0,160.92933)" />
    <path
       id="path2"
       d="M 9.06839,12.75237 V -106.34857 M 27.20517,12.75237 V -106.34857 M 45.34195,12.75237 V -106.34857 M 63.47873,12.75237 V -106.34857 M 81.61551,12.75237 V -106.34857 M 99.75229,12.75237 V -106.34857 M 117.88907,12.75237 V -106.34857 M 136.02586,12.75237 V -106.34857 M 154.16264,12.75237 V -106.34857 M 172.29942,12.75237 V -106.34857 M 190.4362,12.75237 V -106.34857 M 208.573,12.75237 v -119.10094 m 18.13678,119.10094 v -119.10094 m 18.13679,119.10094 v -119.10094 m 18.13678,119.10094 v -119.10094 m 18.13678,119.10094 v -119.10094"
       style="fill:none;stroke:#808080;stroke-width:0.59776;stroke-linecap:butt;stroke-linejoin:miter;stroke-miterlimit:10;stroke-dasharray:none;stroke-opacity:0.3"
       transform="matrix(1.3333333,0,0,-1.3333333,87.061333,18.068)" />
    <path
       id="path3"
       d="M 45.34195,12.75237 V -106.34857 M 117.88907,12.75237 V -106.34857 M 136.02586,12.75237 V -106.34857 M 172.29942,12.75237 V -106.34857 M 244.84657,12.75237 V -106.34857"
       style="fill:none;stroke:#ff8000;stroke-width:0.42343;stroke-linecap:butt;stroke-linejoin:miter;stroke-miterlimit:10;stroke-dasharray:2.98883, 2.98883;stroke-dashoffset:0;stroke-opacity:0.75"
       transform="matrix(1.3333333,0,0,-1.3333333,87.061333,18.068)" />
    <path
       id="path4"
       d="m 3.4676172,-0.86638281 c -0.3984375,0.2578125 -0.8320313,0.3984375 -1.3242188,0.3984375 -0.7382812,0 -1.16015621,-0.58593749 -1.16015621,-1.31249999 0,-0.609375 0.31640621,-1.3242188 1.18359371,-1.3242188 0.5390625,0 0.796875,0.1054688 1.2070313,0.3632813 l 0.09375,-0.5742188 c -0.46875,-0.234375 -0.6796875,-0.3398437 -1.3007813,-0.3398437 -1.19531246,0 -1.88671871,0.9609375 -1.88671871,1.8867187 0,0.97265629 0.77343751,1.85156254 1.85156251,1.85156254 0.5625,0 1.0429687,-0.1640625 1.3828125,-0.36328125 z M 5.0994531,-5.5304453 H 4.4314844 V 8.046875e-4 H 5.0994531 Z M 8.1639063,-2.1671641 9.581875,-3.5382578 H 8.8084375 L 7.1092188,-1.8859141 V -5.5304453 H 6.488125 V 8.046875e-4 H 7.0740625 V -1.1124766 l 0.6796875,-0.65625 1.3125,1.7695312875 h 0.703125 z m 0,0"
       style="fill:#000000;fill-opacity:1;fill-rule:nonzero;stroke:none"
       aria-label="clk"
       transform="matrix(1.3333333,0,0,1.3333333,67.786667,18.065333)" />
    <path
       id="path5"
       d="m 0,0.00204 h 9.06839 v 8.50159 h 9.06839 V 0.00204 h 9.06839 v 8.50159 h 9.06839 V 0.00204 h 9.06839 v 8.50159 h 9.06839 V 0.00204 h 9.06839 v 8.50159 h 9.06839 V 0.00204 h 9.06839 V 8.50363 H 90.6839 V 0.00204 h 9.06839 v 8.50159 h 9.06839 V 0.00204 h 9.06839 v 8.50159 h 9.0684 V 0.00204 h 9.06839 v 8.50159 h 9.06839 V 0.00204 h 9.06839 v 8.50159 h 9.06839 V 0.00204 h 9.06839 v 8.50159 h 9.06839 V 0.00204 h 9.06839 v 8.50159 h 9.0684 V 0.00204 h 9.0684 v 8.50159 h 9.06839 V 0.00204 h 9.06839 v 8.50159 h 9.06839 V 0.00204 h 9.0684 v 8.50159 h 9.06839 V 0.00204 h 9.06839 v 8.50159 h 9.06839 V 0.00204 h 9.06839"
       style="fill:none;stroke:#000000;stroke-width:0.53131;stroke-linecap:round;stroke-linejoin:round;stroke-miterlimit:10;stroke-dasharray:none;stroke-opacity:1"
       transform="matrix(1.3333333,0,0,-1.3333333,87.061333,18.068)" />
    <path
       id="path6"
       d="m 2.9060547,-3.4104453 c -0.5390625,-0.2226563 -0.9375,-0.2460938 -1.2304688,-0.2460938 -0.1992187,0 -1.39453121,0 -1.39453121,1.0546875 0,0.375 0.19921875,0.5859375 0.3046875,0.6796875 0.28125,0.28125 0.62109371,0.3398438 1.04296871,0.421875 0.375,0.070312 0.796875,0.1523438 0.796875,0.53906254 0,0.50390625 -0.65625,0.50390625 -0.7734375,0.50390625 -0.5039062,0 -0.98437496,-0.1875 -1.30078121,-0.41015625 l -0.1171875,0.59765625 c 0.28125,0.12890625 0.76171875,0.3515625 1.41796871,0.3515625 0.3632813,0 0.7148438,-0.05859375 1.0078125,-0.26953125 0.2929688,-0.22265625 0.3867188,-0.57421875 0.3867188,-0.84375004 0,-0.1523437 -0.011719,-0.4570312 -0.3398438,-0.7617187 -0.3046875,-0.2578125 -0.5859375,-0.3164063 -0.9726562,-0.3867188 -0.46875,-0.09375 -0.83203126,-0.1640625 -0.83203126,-0.515625 0,-0.4570312 0.57421876,-0.4570312 0.70312496,-0.4570312 0.4453125,0 0.796875,0.1054687 1.1953125,0.3046875 z m 1.8398437,0.375 h 1.171875 V -3.5393516 H 4.7458984 V -4.5471641 H 4.1248047 v 1.0078125 H 3.4099609 v 0.5039063 h 0.6914063 v 2.015625 c 0,0.53906249 0.140625,1.10156249 0.7148437,1.10156249 0.5742188,0 1.0078125,-0.1875 1.2539063,-0.29296875 l -0.140625,-0.515625 c -0.2578125,0.1875 -0.5390625,0.2578125 -0.7617188,0.2578125 -0.3398437,0 -0.421875,-0.328125 -0.421875,-0.69140624 z m 4.9570313,0.7382812 c 0,-0.8085937 -0.6210938,-1.359375 -1.4179688,-1.359375 -0.5039062,0 -0.8789062,0.1054688 -1.3242187,0.3398438 l 0.046875,0.5859375 c 0.2578125,-0.1757813 0.65625,-0.421875 1.2773437,-0.421875 0.3515625,0 0.7265625,0.2695312 0.7265625,0.8671875 v 0.3164062 c -1.1835937,0.035156 -2.34375,0.2929688 -2.34375,1.03125004 0,0.3984375 0.2695313,1.01953125 0.9726563,1.01953125 0.3398437,0 0.9726562,-0.0703125 1.3945312,-0.38671875 v 0.3046874975 h 0.6679688 z m -0.6914063,1.1601563 c 0,0.16406249 0,0.37499999 -0.28125,0.53906249 -0.2578125,0.140625 -0.5742187,0.15234375 -0.65625,0.15234375 -0.4335937,0 -0.7734375,-0.19921875 -0.7734375,-0.50390625 0,-0.50390629 1.3476563,-0.56249999 1.7109375,-0.57421879 z m 2.4697266,-0.5625 c 0,-0.8554688 0.714844,-1.3242188 1.417969,-1.3242188 v -0.5976562 c -0.667969,0.011719 -1.160157,0.3398437 -1.476563,0.7617187 v -0.7382812 h -0.609375 v 3.5976562375 h 0.667969 z m 3.043945,-1.3359375 h 1.171875 v -0.5039063 h -1.171875 v -1.0078125 h -0.621093 v 1.0078125 h -0.714844 v 0.5039063 h 0.691406 v 2.015625 c 0,0.53906249 0.140625,1.10156249 0.714844,1.10156249 0.574219,0 1.007812,-0.1875 1.253906,-0.29296875 l -0.140625,-0.515625 c -0.257812,0.1875 -0.539062,0.2578125 -0.761719,0.2578125 -0.339843,0 -0.421875,-0.328125 -0.421875,-0.69140624 z m 0,0"
       style="fill:#000000;fill-opacity:1;fill-rule:nonzero;stroke:none"
       aria-label="start"
       transform="matrix(1.3333333,0,0,1.3333333,59.566667,40.738667)" />
    <path
       id="path7"
       d="m 0,-17.00317 h 29.47224 l 1.13356,8.50158 h 17.00324 l 1.13356,-8.50158 h 230.11043"
       style="fill:none;stroke:#000000;stroke-width:0.53131;stroke-linecap:round;stroke-linejoin:round;stroke-miterlimit:10;stroke-dasharray:none;stroke-opacity:1"
       transform="matrix(1.3333333,0,0,-1.3333333,87.061333,18.068)" />
    <path
       id="path8"
       d="M 1.3478203,-5.5317031 H 0.67985156 V -4.53125e-4 H 1.3712578 V -0.37545312 c 0.1757813,0.15234375 0.5625,0.45703125 1.1367188,0.45703125 0.8671875,0 1.5703125,-0.8203125 1.5703125,-1.86328123 0,-0.9609375 -0.5507813,-1.8398438 -1.3476563,-1.8398438 -0.5039062,0 -0.984375,0.1640625 -1.3828125,0.4570313 z m 0.023437,3.0234375 c 0,-0.1289063 0,-0.2226563 0.28125,-0.4101563 0.1171875,-0.070312 0.328125,-0.1757812 0.5976563,-0.1757812 0.5390625,0 1.1367187,0.3632812 1.1367187,1.3125 0,0.97265623 -0.65625,1.33593748 -1.21875,1.33593748 -0.2929687,0 -0.5742187,-0.140625 -0.796875,-0.4921875 z m 6.703125,-1.03125 H 7.3829766 v 2.3085937 c 0,0.64453128 -0.5390625,0.84375003 -1.0078125,0.84375003 -0.5859375,0 -0.6445313,-0.1640625 -0.6445313,-0.52734375 V -3.5395156 h -0.703125 v 2.67187498 c 0,0.703125 0.3164063,0.94921875 0.8789063,0.94921875 0.3164062,0 1.0195312,-0.0703125 1.5,-0.4453125 v 0.363281245 h 0.6679687 z m 3.5771487,0.1289062 c -0.539062,-0.2226562 -0.9375,-0.2460937 -1.230469,-0.2460937 -0.199218,0 -1.3945313,0 -1.3945313,1.0546875 0,0.375 0.1992188,0.5859375 0.3046875,0.6796875 0.28125,0.28125 0.6210938,0.3398437 1.0429688,0.421875 0.375,0.070312 0.796875,0.1523437 0.796875,0.53906248 0,0.50390625 -0.65625,0.50390625 -0.773437,0.50390625 -0.5039068,0 -0.9843755,-0.1875 -1.3007818,-0.41015625 l -0.1171875,0.59765625 c 0.28125,0.12890625 0.7617188,0.3515625 1.4179693,0.3515625 0.363281,0 0.714844,-0.05859375 1.007812,-0.26953125 0.292969,-0.22265625 0.386719,-0.57421875 0.386719,-0.84374998 0,-0.1523438 -0.01172,-0.4570313 -0.339844,-0.7617188 -0.304687,-0.2578125 -0.585937,-0.3164062 -0.972656,-0.3867187 -0.46875,-0.09375 -0.8320315,-0.1640625 -0.8320315,-0.515625 0,-0.4570313 0.5742185,-0.4570313 0.7031245,-0.4570313 0.445312,0 0.796875,0.1054688 1.195312,0.3046875 z m 4.113281,-0.1289062 h -0.644531 c -0.644532,1.5234375 -1.089844,2.55468748 -1.125,3.03515623 C 13.983562,-0.72701562 13.842937,-1.1254531 13.702312,-1.5004531 13.573406,-1.8168594 13.4445,-2.1332656 13.303875,-2.4496719 l -0.503906,-1.0898437 h -0.691407 l 1.652344,3.539062475 C 13.667156,0.23392188 13.503094,0.59720313 13.456219,0.70267188 13.292156,1.0307969 13.174969,1.1479844 12.964031,1.1479844 c -0.03516,0 -0.328125,0 -0.667969,-0.140625 l 0.04687,0.5507812 c 0.07031,0.023437 0.363282,0.070312 0.609375,0.070312 0.316407,0 0.609375,-0.1171875 0.949219,-0.89062497 z m 0,0"
       style="fill:#000000;fill-opacity:1;fill-rule:nonzero;stroke:none"
       aria-label="busy"
       transform="matrix(1.3333333,0,0,1.3333333,59.824,63.414667)" />
    <path
       id="path9"
       d="m 0,-34.01048 h 47.60904 l 1.13356,8.50158 h 216.50784 l 1.13355,-8.50158 h 12.46904"
       style="fill:none;stroke:#000000;stroke-width:0.53131;stroke-linecap:round;stroke-linejoin:round;stroke-miterlimit:10;stroke-dasharray:none;stroke-opacity:1"
       transform="matrix(1.3333333,0,0,-1.3333333,87.061333,18.068)" />
    <path
       id="path10"
       d="M 2.5650312,-5.460625 H 1.7564375 L 1.5806562,-4.66375 H 2.38925 Z M 0.66659375,3.125e-4 H 1.3345625 l 0.75,-3.5390625 H 1.4165937 Z M 6.2388594,-2.3785937 c 0.023437,-0.140625 0.046875,-0.2226563 0.046875,-0.421875 0,-0.6914063 -0.515625,-0.8203125 -0.9609375,-0.8203125 -0.4570313,0 -0.9257813,0.1875 -1.359375,0.5976562 L 4.0826094,-3.5973437 H 3.4497969 L 2.6763594,3.125e-4 h 0.703125 l 0.3515625,-1.6523437 c 0.1054687,-0.5039063 0.1523437,-0.75 0.421875,-1.0664063 0.1992187,-0.2578125 0.4335937,-0.375 0.7148437,-0.375 0.4101563,0 0.6914063,0.140625 0.6914063,0.515625 0,0.1289063 -0.011719,0.1523438 -0.011719,0.1992188 L 5.0318281,3.125e-4 h 0.6914063 z m 1.6083984,2.0039062 c 0.1757813,0.19921875 0.5273438,0.45703125 1.0546875,0.45703125 0.984375,0 2.0156247,-1.078125 2.0156247,-2.40234375 0,-0.5507812 -0.257812,-1.3007812 -0.9960934,-1.3007812 -0.5390625,0 -1.0546875,0.1757812 -1.5117188,0.46875 L 8.4917891,-3.53875 H 7.8238203 L 6.7456953,1.5471875 H 7.4371016 Z M 8.3277266,-2.6364062 C 8.3980391,-2.7184375 8.7730391,-3.07 9.3003828,-3.07 c 0.46875,0 0.8906252,0.3398438 0.8906252,0.9960938 0,0.890625 -0.7968752,1.6289062 -1.5351564,1.6289062 -0.3984375,0 -0.609375,-0.24609375 -0.6914063,-0.4921875 z M 15.218352,-3.53875 h -0.691407 l -0.503906,2.390625 c -0.08203,0.33984375 -0.457031,0.76171875 -1.171875,0.76171875 -0.410156,0 -0.574219,-0.0703125 -0.574219,-0.3046875 0,-0.0585938 0.02344,-0.15234375 0.02344,-0.1640625 L 12.874602,-3.53875 h -0.703125 l -0.597657,3.0234375 c 0,0.48046875 0.304688,0.59765625 0.703125,0.59765625 0.410157,0 1.078125,-0.09375 1.59375,-0.4453125 L 13.800383,3.125e-4 h 0.667969 z m 2.0625,0.5039063 h 1.183593 L 18.558195,-3.53875 H 17.38632 l 0.210938,-1.0078125 H 16.987883 L 16.765227,-3.53875 h -0.714844 l -0.105469,0.5039063 h 0.703125 l -0.421875,1.921875 c -0.02344,0.14062495 -0.07031,0.37499995 -0.07031,0.5507812 0,0.375 0.140625,0.64453125 0.539062,0.64453125 0.351563,0 0.773438,-0.0703125 1.3125,-0.29296875 l -0.04687,-0.50390625 c -0.234375,0.140625 -0.503906,0.24609375 -0.796875,0.24609375 -0.1875,0 -0.316406,-0.09375 -0.316406,-0.38671875 0,-0.10546875 0.02344,-0.19921875 0.02344,-0.21093745 z m 5.188476,2.6601562 c 0.175781,0.19921875 0.527344,0.45703125 1.054688,0.45703125 0.984375,0 2.015625,-1.078125 2.015625,-2.40234375 0,-0.5507812 -0.257813,-1.3007812 -0.996094,-1.3007812 -0.539063,0 -1.054688,0.1757812 -1.511719,0.46875 L 23.113858,-3.53875 H 22.44589 l -1.078125,5.0859375 h 0.691406 z m 0.480469,-2.2617187 C 23.020109,-2.7184375 23.395109,-3.07 23.922453,-3.07 c 0.46875,0 0.890625,0.3398438 0.890625,0.9960938 0,0.890625 -0.796875,1.6289062 -1.535156,1.6289062 -0.398438,0 -0.609375,-0.24609375 -0.691406,-0.4921875 z m 6.342773,0.2929687 c 0.01172,-0.082031 0.02344,-0.1054687 0.02344,-0.2578125 0,-0.5273437 -0.363281,-1.0546875 -1.171875,-1.0546875 -0.480469,0 -0.890625,0.1054688 -1.394531,0.3398438 l -0.08203,0.5859375 c 0.433594,-0.2695313 0.867188,-0.421875 1.371094,-0.421875 0.410156,0 0.574219,0.3046875 0.574219,0.6210937 0,0.070312 0,0.082031 -0.09375,0.5625 -0.5625,0.011719 -2.589844,0.09375 -2.589844,1.25390625 0,0.234375 0.09375,0.796875 0.773438,0.796875 0.164062,0 0.878906,-0.0234375 1.476562,-0.38671875 l -0.05859,0.3046875 h 0.667969 z m -0.878906,0.8203125 c -0.105469,0.5625 -0.128906,0.66796875 -0.316406,0.8203125 -0.234375,0.1875 -0.597656,0.2578125 -0.84375,0.2578125 -0.375,0 -0.679688,-0.140625 -0.679688,-0.421875 0,-0.2929687 0.269532,-0.4335937 0.773438,-0.5390625 0.421875,-0.09375 0.878906,-0.1054687 1.066406,-0.1171875 z m 4.338867,-2.0976562 c -0.925781,0.023437 -1.5,0.6210937 -1.617187,0.75 l 0.140625,-0.7265625 H 30.666594 L 29.904875,3.125e-4 h 0.667969 c 0.05859,-0.26953125 0.339843,-1.640625 0.375,-1.78125 0.140625,-0.6210937 0.808593,-1.2304687 1.6875,-1.2421875 z m 3.269531,1.2773437 c 0.01172,-0.082031 0.02344,-0.1054687 0.02344,-0.2578125 0,-0.5273437 -0.363281,-1.0546875 -1.171875,-1.0546875 -0.480469,0 -0.890625,0.1054688 -1.394531,0.3398438 l -0.08203,0.5859375 c 0.433594,-0.2695313 0.867188,-0.421875 1.371094,-0.421875 0.410156,0 0.574219,0.3046875 0.574219,0.6210937 0,0.070312 0,0.082031 -0.09375,0.5625 -0.5625,0.011719 -2.589844,0.09375 -2.589844,1.25390625 0,0.234375 0.09375,0.796875 0.773438,0.796875 0.164062,0 0.878906,-0.0234375 1.476562,-0.38671875 l -0.05859,0.3046875 h 0.667969 z m -0.878906,0.8203125 c -0.105469,0.5625 -0.128906,0.66796875 -0.316406,0.8203125 -0.234375,0.1875 -0.597656,0.2578125 -0.84375,0.2578125 -0.375,0 -0.679688,-0.140625 -0.679688,-0.421875 0,-0.2929687 0.269532,-0.4335937 0.773438,-0.5390625 0.421875,-0.09375 0.878906,-0.1054687 1.066406,-0.1171875 z m 7.605469,-0.8554687 c 0.03516,-0.140625 0.04687,-0.2226563 0.04687,-0.421875 0,-0.6914063 -0.515625,-0.8203125 -0.949219,-0.8203125 -0.621094,0 -1.113281,0.3398437 -1.417969,0.6445312 -0.05859,-0.421875 -0.351562,-0.6445312 -0.9375,-0.6445312 -0.457031,0 -0.925781,0.1875 -1.359375,0.5976562 L 38.24862,-3.5973437 H 37.615812 L 36.842375,3.125e-4 H 37.5455 l 0.351562,-1.6523437 c 0.105469,-0.5039063 0.152344,-0.75 0.421875,-1.0664063 0.199219,-0.2578125 0.433594,-0.375 0.714844,-0.375 0.410156,0 0.691406,0.140625 0.691406,0.515625 0,0.1289063 -0.01172,0.1523438 -0.01172,0.1992188 L 39.197844,3.125e-4 h 0.691406 l 0.351562,-1.6523437 c 0.117188,-0.5039063 0.164063,-0.75 0.421875,-1.0664063 0.199219,-0.2578125 0.445313,-0.375 0.726563,-0.375 0.410156,0 0.691406,0.140625 0.691406,0.515625 0,0.1289063 -0.01172,0.1523438 -0.02344,0.1992188 L 41.553312,3.125e-4 h 0.691407 z m 4.042969,0.6328125 c 0.07031,-0.3046875 0.07031,-0.5390625 0.07031,-0.65625 0,-0.4570313 -0.117187,-0.7382813 -0.304687,-0.9257813 -0.269532,-0.2695312 -0.621094,-0.328125 -0.867188,-0.328125 -1.148437,0 -2.167969,1.1601563 -2.167969,2.2617188 0,0.77343745 0.539063,1.47656245 1.5,1.47656245 0.738282,0 1.417969,-0.36328125 1.417969,-0.3984375 0.02344,-0.046875 0.07031,-0.46875 0.08203,-0.55078125 -0.421875,0.2578125 -0.949218,0.421875 -1.382812,0.421875 -0.667969,0 -0.996094,-0.515625 -0.996094,-1.03125 0,-0.1171875 0,-0.1289062 0.02344,-0.2695312 z M 44.330656,-2.22625 c 0.363281,-0.6914062 0.890625,-0.9023437 1.253906,-0.9023437 0.820313,0 0.820313,0.7734375 0.820313,0.9023437 z m 4.488281,-0.8085937 h 1.183594 l 0.09375,-0.5039063 h -1.171875 l 0.210938,-1.0078125 H 48.525969 L 48.303312,-3.53875 H 47.588469 L 47.483,-3.0348437 h 0.703125 l -0.421875,1.921875 c -0.02344,0.14062495 -0.07031,0.37499995 -0.07031,0.5507812 0,0.375 0.140625,0.64453125 0.539063,0.64453125 0.351562,0 0.773437,-0.0703125 1.3125,-0.29296875 l -0.04687,-0.50390625 c -0.234375,0.140625 -0.503906,0.24609375 -0.796875,0.24609375 -0.1875,0 -0.316406,-0.09375 -0.316406,-0.38671875 0,-0.10546875 0.02344,-0.19921875 0.02344,-0.21093745 z m 4.792969,1.2890625 c 0.07031,-0.3046875 0.07031,-0.5390625 0.07031,-0.65625 0,-0.4570313 -0.117188,-0.7382813 -0.304688,-0.9257813 -0.269531,-0.2695312 -0.621094,-0.328125 -0.867187,-0.328125 -1.148438,0 -2.167969,1.1601563 -2.167969,2.2617188 0,0.77343745 0.539062,1.47656245 1.5,1.47656245 0.738281,0 1.417969,-0.36328125 1.417969,-0.3984375 0.02344,-0.046875 0.07031,-0.46875 0.08203,-0.55078125 C 52.9205,-0.6090625 52.393156,-0.445 51.959562,-0.445 c -0.667968,0 -0.996093,-0.515625 -0.996093,-1.03125 0,-0.1171875 0,-0.1289062 0.02344,-0.2695312 z M 51.150969,-2.22625 c 0.363281,-0.6914062 0.890625,-0.9023437 1.253906,-0.9023437 0.820312,0 0.820312,0.7734375 0.820312,0.9023437 z m 5.874023,-1.3945312 c -0.925781,0.023437 -1.5,0.6210937 -1.617187,0.75 L 55.54843,-3.5973437 H 54.939055 L 54.177336,3.125e-4 h 0.667969 c 0.05859,-0.26953125 0.339843,-1.640625 0.375,-1.78125 0.140625,-0.6210937 0.808593,-1.2304687 1.6875,-1.2421875 z m 2.99707,0.2109375 c -0.398437,-0.1757813 -0.703125,-0.2460938 -1.183593,-0.2460938 -1.640625,0 -1.640625,1.2304688 -1.640625,1.2421875 0,0.703125 0.738281,0.8320313 1.125,0.9140625 0.363281,0.070312 0.714843,0.140625 0.714843,0.4570313 0,0.011719 0,0.58593745 -0.890625,0.58593745 -0.46875,0 -0.914062,-0.15234375 -1.21875,-0.41015625 l -0.199218,0.48046875 c -0.01172,0.0234375 -0.03516,0.0703125 -0.03516,0.10546875 0,0.0351563 0.550782,0.36328125 1.335938,0.36328125 0.175781,0 0.738281,0 1.171875,-0.3515625 0.375,-0.31640625 0.480469,-0.74999995 0.480469,-0.96093745 0,-0.3046875 -0.140625,-0.5390625 -0.363282,-0.703125 C 59.108,-2.085625 58.967375,-2.1090625 58.369719,-2.22625 c -0.175782,-0.035156 -0.515625,-0.1054687 -0.515625,-0.3984375 0,-0.023437 0,-0.5273437 0.808593,-0.5273437 0.433594,0 0.761719,0.09375 1.136719,0.3046875 z m 0,0"
       style="fill:#000000;fill-opacity:1;fill-rule:nonzero;stroke:none"
       aria-label="inputparameters"
       transform="matrix(1.3333333,0,0,1.3333333,0.68933333,86.093333)" />
    <path
       id="path11"
       d="m 0,-42.51729 29.47224,-4.9e-4 1.13356,-4.25079 -1.13356,-4.25079 L 0,-51.01886"
       style="fill:none;stroke:#000000;stroke-width:0.53131;stroke-linecap:round;stroke-linejoin:round;stroke-miterlimit:10;stroke-dasharray:none;stroke-opacity:1"
       transform="matrix(1.3333333,0,0,-1.3333333,87.061333,18.068)" />
    <path
       id="path12"
       d="M 3.6907031,-5.5297786 H 3.0266406 v 2.3242187 C 2.5188281,-3.5766536 1.9914844,-3.6157161 1.7571094,-3.6157161 c -0.83984378,0 -1.46484378,0.8398437 -1.46484378,1.8359375 0,1.01562495 0.625,1.8554687 1.44531248,1.8554687 0.4882813,0 0.9570313,-0.21484375 1.25,-0.48828125 v 0.41015625 h 0.703125 z m -0.703125,4.53124995 c -0.1953125,0.33203125 -0.4882812,0.546875 -0.8789062,0.546875 -0.546875,0 -1.13281253,-0.390625 -1.13281253,-1.30859375 0,-0.9960937 0.68359373,-1.328125 1.23046873,-1.328125 0.3125,0 0.5859375,0.1367188 0.78125,0.4101563 z M 8.3586719,-1.7407161 c 0,-1.0546875 -0.8398438,-1.9140625 -1.875,-1.9140625 -1.0351563,0 -1.875,0.859375 -1.875,1.9140625 0,0.9960937 0.8398437,1.8164062 1.875,1.8164062 1.0351562,0 1.875,-0.8203125 1.875,-1.8164062 z m -1.875,1.2695312 c -0.625,0 -1.171875,-0.46875 -1.171875,-1.3671875 0,-0.8984375 0.5859375,-1.2890625 1.171875,-1.2890625 0.6054687,0 1.1914062,0.4101563 1.1914062,1.2890625 0,0.91796875 -0.5664062,1.3671875 -1.1914062,1.3671875 z m 5.8349611,-1.8945312 c 0,-0.625 -0.195313,-1.25 -1.171875,-1.25 -0.449219,0 -0.898438,0.1757812 -1.2304689,0.6054687 V -3.5961849 H 9.2717578 v 3.59375 h 0.6835938 v -1.9335937 c 0,-0.5273438 0.2343754,-1.1523438 0.8398434,-1.1523438 0.820313,0 0.820313,0.546875 0.820313,0.78125 v 2.3046875 h 0.703125 z m 2.182617,-2.4609375 v -0.703125 h -0.703125 v 0.7226562 h 0.214844 l -0.234375,1.015625 h 0.371093 z m 2.333984,1.796875 h 1.171875 v -0.5078125 h -1.171875 v -1.015625 h -0.625 v 1.015625 h -0.722656 v 0.5078125 h 0.703125 v 2.0117187 c 0,0.52734375 0.136719,1.09375 0.703125,1.09375 0.585938,0 1.015625,-0.17578125 1.25,-0.29296875 l -0.136719,-0.5078125 c -0.253906,0.1953125 -0.527343,0.25390625 -0.761718,0.25390625 -0.332032,0 -0.410157,-0.33203125 -0.410157,-0.703125 z m 7.832032,2.1679687 c -0.390625,0.25390625 -0.820313,0.390625 -1.308594,0.390625 -0.742188,0 -1.171875,-0.5859375 -1.171875,-1.3085937 0,-0.6054688 0.332031,-1.328125 1.191406,-1.328125 0.546875,0 0.800781,0.1171875 1.210938,0.3710937 l 0.09766,-0.5859375 c -0.488281,-0.234375 -0.683594,-0.3320312 -1.308594,-0.3320312 -1.191406,0 -1.875,0.9570312 -1.875,1.875 0,0.97656245 0.761719,1.8554687 1.835938,1.8554687 0.566406,0 1.035156,-0.15625 1.386718,-0.37109375 z m 3.706054,-1.4453125 c 0,-0.8007812 -0.625,-1.3476562 -1.40625,-1.3476562 -0.507812,0 -0.898437,0.097656 -1.347656,0.3320312 l 0.05859,0.5859375 c 0.253906,-0.1757812 0.644531,-0.4101562 1.289062,-0.4101562 0.351563,0 0.703125,0.2539062 0.703125,0.859375 v 0.3125 c -1.171875,0.039063 -2.34375,0.2929687 -2.34375,1.0351562 0,0.390625 0.273438,1.015625 0.976563,1.015625 0.351562,0 0.976562,-0.078125 1.40625,-0.390625 v 0.3125 h 0.664062 z m -0.703125,1.171875 c 0,0.15625 0,0.37109375 -0.273437,0.52734375 -0.253906,0.15625 -0.566406,0.15625 -0.644531,0.15625 -0.449219,0 -0.78125,-0.1953125 -0.78125,-0.5078125 0,-0.50781245 1.347656,-0.54687495 1.699218,-0.56640625 z m 2.490235,-0.5664062 c 0,-0.859375 0.722656,-1.328125 1.425781,-1.328125 v -0.5859375 c -0.683594,0 -1.171875,0.3320312 -1.484375,0.7617187 v -0.7421875 h -0.605469 v 3.59375 h 0.664063 z m 4.960937,0.8398437 c -0.429687,0.3125 -0.9375,0.41015625 -1.289062,0.41015625 -0.683594,0 -1.210938,-0.56640625 -1.230469,-1.28906245 h 2.617187 c 0,-0.3710938 -0.05859,-0.8984375 -0.351562,-1.3671875 -0.292969,-0.4101563 -0.78125,-0.546875 -1.171875,-0.546875 -0.957031,0 -1.71875,0.8398437 -1.71875,1.8554687 0,1.015625 0.800781,1.875 1.855469,1.875 0.46875,0 0.9375,-0.13671875 1.347656,-0.390625 z M 32.66043,-2.2289974 c 0.175781,-0.625 0.644531,-0.8984375 1.035156,-0.8984375 0.351562,0 0.878906,0.15625 1.035156,0.8984375 z m 0,0"
       style="fill:#000000;fill-opacity:1;fill-rule:nonzero;stroke:none"
       aria-label="don’tcare"
       transform="matrix(0.8,0,0,0.8,92.524,82.638667)" />
    <path
       id="path13"
       d="m 30.609,-46.76758 1.13354,4.2508 233.50943,-5.1e-4 1.13356,-4.25078 -1.13356,-4.25079 -233.50783,9.9e-4 -1.13354,4.2508"
       style="fill:none;stroke:#000000;stroke-width:0.53131;stroke-linecap:round;stroke-linejoin:round;stroke-miterlimit:10;stroke-dasharray:none;stroke-opacity:1"
       transform="matrix(1.3333333,0,0,-1.3333333,87.061333,18.068)" />
    <path
       id="path14"
       d="m 3.7691797,-3.5359245 h -0.625 c -1.09375,2.67578127 -1.1523438,2.89062502 -1.171875,3.06640627 H 1.9527734 C 1.8941797,-0.78201823 1.6793359,-1.3484245 1.4254297,-1.9538932 L 0.78089844,-3.5359245 H 0.11683594 L 1.5816797,-7.6822917e-4 h 0.7421875 z m 3.5302734,1.2304688 c 0,-0.8007813 -0.625,-1.3476563 -1.40625,-1.3476563 -0.5078125,0 -0.8984375,0.097656 -1.3476562,0.3320313 l 0.058594,0.5859375 c 0.2539063,-0.1757813 0.6445313,-0.4101563 1.2890625,-0.4101563 0.3515625,0 0.703125,0.2539063 0.703125,0.859375 v 0.3125 c -1.171875,0.039063 -2.34375,0.2929688 -2.34375,1.03515627 0,0.390625 0.2734375,1.015625 0.9765625,1.015625 0.3515625,0 0.9765625,-0.0781249992 1.40625,-0.390625 v 0.31250000083 h 0.6640625 z m -0.703125,1.171875 c 0,0.15624997 0,0.37109372 -0.2734375,0.52734372 -0.2539062,0.15625 -0.5664062,0.15625 -0.6445312,0.15625 -0.4492188,0 -0.78125,-0.1953125 -0.78125,-0.5078125 0,-0.50781252 1.3476562,-0.54687502 1.6992187,-0.56640622 z M 9.3160547,-5.528112 H 8.6324609 v 5.52734377083 h 0.6835938 z m 2.0800783,0.058594 h -0.800781 v 0.8007812 h 0.800781 z m -0.05859,1.9335937 h -0.683594 v 3.53515627083 h 0.683594 z m 4.365234,-1.9921875 h -0.664062 v 2.3242188 c -0.507813,-0.3710938 -1.035156,-0.4101563 -1.269531,-0.4101563 -0.839844,0 -1.464844,0.8398438 -1.464844,1.8359375 0,1.01562502 0.625,1.85546877 1.445312,1.85546877 0.488282,0 0.957032,-0.21484375 1.25,-0.48828125 v 0.41015625083 h 0.703125 z m -0.703125,4.53125002 c -0.195312,0.33203125 -0.488281,0.546875 -0.878906,0.546875 -0.546875,0 -1.132812,-0.390625 -1.132812,-1.30859372 0,-0.9960938 0.683593,-1.328125 1.230468,-1.328125 0.3125,0 0.585938,0.1367187 0.78125,0.4101562 z m 0,0"
       style="fill:#000000;fill-opacity:1;fill-rule:nonzero;stroke:none"
       aria-label="valid"
       transform="matrix(0.8,0,0,0.8,278.512,82.637333)" />
    <path
       id="path15"
       d="m 266.42755,-46.76657 1.13356,4.25079 11.30739,-10e-4 m 0,-8.50158 -11.30739,0.001 -1.13356,4.25079"
       style="fill:none;stroke:#000000;stroke-width:0.53131;stroke-linecap:round;stroke-linejoin:round;stroke-miterlimit:10;stroke-dasharray:none;stroke-opacity:1"
       transform="matrix(1.3333333,0,0,-1.3333333,87.061333,18.068)" />
    <path
       id="path16"
       d="M 0.77925781,-5.5278125 V -4.6875e-4 H 3.0448828 c 1.4257813,0 2.578125,-1.21093745 2.578125,-2.71484375 0,-1.5625 -1.1523437,-2.8125 -2.578125,-2.8125 z M 1.5605078,-0.46921875 V -5.0590625 h 1.2695313 c 1.09375,0 2.0117187,0.859375 2.0117187,2.3242188 0,1.484375 -0.9570312,2.26562495 -2.0117187,2.26562495 z M 9.8271094,-5.645 c 0.039063,-0.097656 0.039063,-0.1367187 0.039063,-0.15625 0,-0.097656 -0.078125,-0.1757812 -0.1757813,-0.1757812 -0.1367187,0 -0.15625,0.097656 -0.1953125,0.1953125 L 6.6239844,1.6596875 c -0.039063,0.097656 -0.039063,0.1367188 -0.039063,0.15625 0,0.097656 0.078125,0.1757813 0.1757812,0.1757813 0.1367188,0 0.1757813,-0.097656 0.2148438,-0.1953125 z m 5.4638676,4.66796875 c -0.566407,0.3515625 -0.820313,0.5078125 -1.621094,0.5078125 -1.230469,0 -1.972656,-1.17187495 -1.972656,-2.30468745 0,-1.1914063 0.820312,-2.2851563 1.972656,-2.2851563 0.527344,0 1.074219,0.15625 1.445312,0.4296875 l 0.117188,-0.7226562 c -0.546875,-0.1953125 -0.996094,-0.2734375 -1.582031,-0.2734375 -1.582032,0 -2.753907,1.3085937 -2.753907,2.8515625 0,1.640625 1.25,2.85156245 2.792969,2.85156245 0.78125,0 1.113281,-0.15625 1.640625,-0.44921875 z m 0,0"
       style="fill:#000000;fill-opacity:1;fill-rule:nonzero;stroke:none"
       aria-label="D/C"
       transform="matrix(0.8,0,0,0.8,445.068,82.016)" />
    <path
       id="path17"
       d="m 4.0077578,-3.6220156 c -0.1757812,0 -0.703125,0.011719 -1.3125,0.2460937 h -0.023437 c -0.28125,-0.1875 -0.5625,-0.2460937 -0.796875,-0.2460937 -0.7734375,0 -1.35937499,0.6210937 -1.35937499,1.3007812 0,0.28125 0.09375,0.5625 0.28125,0.7851563 -0.1171875,0.140625 -0.234375,0.3632812 -0.234375,0.66796873 0,0.3046875 0.12890625,0.50390625 0.19921875,0.609375 -0.43359375,0.24609375 -0.52734375,0.62109375 -0.52734375,0.80859375 0,0.60937502 0.84374999,1.07812502 1.87499999,1.07812502 1.0429688,0 1.875,-0.46875 1.875,-1.07812502 0,-1.125 -1.3945312,-1.125 -1.734375,-1.125 H 1.5116641 c -0.1289063,0 -0.4804688,0 -0.4804688,-0.41015625 0,-0.16406253 0.058594,-0.24609373 0.070312,-0.25781253 0.28125,0.1757813 0.5507813,0.234375 0.7734375,0.234375 0.7734375,0 1.359375,-0.6210937 1.359375,-1.3007812 0,-0.2578125 -0.070312,-0.4921875 -0.2109375,-0.703125 -0.035156,-0.046875 -0.035156,-0.058594 -0.035156,-0.058594 0,-0.035156 0.4804687,-0.035156 0.515625,-0.035156 0.011719,0 0.3164062,0 0.5976562,0.035156 z m -2.1328125,2.109375 c -0.421875,0 -0.7382812,-0.2695313 -0.7382812,-0.796875 0,-0.6210938 0.3984375,-0.8203125 0.7382812,-0.8203125 0.4335938,0 0.75,0.28125 0.75,0.8085937 0,0.6210938 -0.3984375,0.8085938 -0.75,0.8085938 z m 0.375,1.55859373 c 0.1875,0 1.125,0 1.125,0.515625 0,0.33984375 -0.5976562,0.57421877 -1.265625,0.57421877 -0.6679687,0 -1.26562499,-0.23437502 -1.26562499,-0.57421877 0,-0.046875 0,-0.515625 0.64453129,-0.515625 z m 5.4521485,-0.9140625 c -0.3984375,0.2578125 -0.8320313,0.3984375 -1.3242188,0.3984375 -0.7382812,0 -1.1601562,-0.58593753 -1.1601562,-1.31250003 0,-0.609375 0.3164062,-1.3242187 1.1835937,-1.3242187 0.5390625,0 0.796875,0.1054687 1.2070313,0.3632812 l 0.09375,-0.5742187 c -0.46875,-0.234375 -0.6796875,-0.3398438 -1.3007813,-0.3398438 -1.1953125,0 -1.8867187,0.9609375 -1.8867187,1.8867188 0,0.97265623 0.7734375,1.85156248 1.8515625,1.85156248 0.5625,0 1.0429687,-0.1640625 1.3828125,-0.36328125 z m 0,0"
       style="fill:#000000;fill-opacity:1;fill-rule:nonzero;stroke:none"
       aria-label="gc"
       transform="matrix(1.3333333,0,0,1.3333333,43.058667,108.77467)" />
    <path
       id="path18"
       d="M 0,0 H 2.541"
       style="fill:none;stroke:#000000;stroke-width:0.398;stroke-linecap:butt;stroke-linejoin:round;stroke-miterlimit:10;stroke-dasharray:none;stroke-opacity:1"
       transform="matrix(1.3333333,0,0,-1.3333333,54.4,108.50933)" />
    <path
       id="path19"
       d="M 1.4070469,-5.4618594 H 0.59845313 v 0.796875 H 1.4070469 Z m -0.070312,1.921875 H 0.66876563 V -9.21875e-4 H 1.3367344 Z m 4.3857422,1.1835938 c 0,-0.6210938 -0.1757813,-1.265625 -1.1601563,-1.265625 -0.4570312,0 -0.890625,0.1875 -1.2421875,0.609375 V -3.5985781 H 2.6756016 v 3.597656225 h 0.703125 V -1.9345156 c 0,-0.5273438 0.2226562,-1.1601563 0.8320312,-1.1601563 0.8203125,0 0.8203125,0.5625 0.8203125,0.7851563 v 2.308593725 h 0.6914063 z m 2.2060547,1.64062498 H 7.2019688 V -9.21875e-4 H 7.9285313 Z M 14.40607,-3.5399844 h -0.621093 c -0.07031,0.2226563 -0.515625,1.5703125 -0.773438,2.4023438 -0.05859,0.22265623 -0.140625,0.48046873 -0.164062,0.66796873 -0.05859,-0.328125 -0.328125,-1.18359373 -0.351563,-1.24218753 l -0.585937,-1.828125 h -0.609375 c -0.222657,0.6914063 -0.820313,2.4726563 -0.890625,3.05859378 h -0.01172 C 10.339664,-1.0556094 9.7537266,-2.8134219 9.6248203,-3.2001406 c -0.070312,-0.1875 -0.070312,-0.1992188 -0.1054687,-0.3398438 h -0.65625 l 1.1601564,3.539062525 h 0.679687 c 0,-0.035156245 0.222657,-0.656249995 0.492188,-1.546875025 0.128906,-0.3867187 0.363281,-1.1601562 0.398437,-1.5 l 0.01172,-0.011719 c 0.01172,0.1640625 0.07031,0.3398437 0.117188,0.5390625 0.05859,0.1992187 0.117187,0.4101562 0.175781,0.5976562 l 0.609375,1.921875025 h 0.738281 z m 1.470703,1.8398438 c 0,-0.8554688 0.714844,-1.3242188 1.417969,-1.3242188 v -0.5976562 c -0.667969,0.011719 -1.160156,0.3398437 -1.476562,0.7617187 v -0.7382812 h -0.609375 v 3.597656225 h 0.667968 z m 0,0"
       style="fill:#000000;fill-opacity:1;fill-rule:nonzero;stroke:none"
       aria-label="in.wr"
       transform="matrix(1.3333333,0,0,1.3333333,57.788,108.77467)" />
    <path
       id="path20"
       d="M 0,-68.03133 H 43.07484"
       style="fill:none;stroke:#000000;stroke-width:0.53131;stroke-linecap:round;stroke-linejoin:round;stroke-miterlimit:10;stroke-dasharray:none;stroke-opacity:1"
       transform="matrix(1.3333333,0,0,-1.3333333,87.061333,18.068)" />
    <path
       id="path21"
       d="M 43.07709,-68.03133 H 97.48746"
       style="fill:none;stroke:#000000;stroke-width:0.53131;stroke-linecap:round;stroke-linejoin:round;stroke-miterlimit:10;stroke-dasharray:2.98883, 2.98883;stroke-dashoffset:0;stroke-opacity:1"
       transform="matrix(1.3333333,0,0,-1.3333333,87.061333,18.068)" />
    <path
       id="path22"
       d="m 97.49255,-68.03133 h 4.53421 l 1.13355,8.50159 h 35.14001 l 1.13355,-8.50159 h 17.00323 l 1.13356,8.50159 h 17.00324 l 1.13354,-8.50159 h 17.00324"
       style="fill:none;stroke:#000000;stroke-width:0.53131;stroke-linecap:round;stroke-linejoin:round;stroke-miterlimit:10;stroke-dasharray:none;stroke-opacity:1"
       transform="matrix(1.3333333,0,0,-1.3333333,87.061333,18.068)" />
    <path
       id="path23"
       d="m 192.72081,-68.03133 1.13354,4.2508"
       style="fill:none;stroke:#000000;stroke-width:0.53131;stroke-linecap:round;stroke-linejoin:round;stroke-miterlimit:10;stroke-dasharray:2.98883, 2.98883;stroke-dashoffset:0;stroke-opacity:1"
       transform="matrix(1.3333333,0,0,-1.3333333,87.061333,18.068)" />
    <path
       id="path24"
       d="m 193.86455,-63.78001 1.13355,4.25079 h 34.01653 l 1.13355,-4.25079 -1.13355,-4.25079 -34.00633,5.3e-4 -1.13356,4.25079"
       style="fill:none;stroke:#000000;stroke-width:0.53131;stroke-linecap:round;stroke-linejoin:round;stroke-miterlimit:10;stroke-dasharray:2.98883, 2.98883;stroke-dashoffset:0;stroke-opacity:1"
       transform="matrix(1.3333333,0,0,-1.3333333,87.061333,18.068)" />
    <path
       id="path25"
       d="m 230.1845,-63.77843 1.13354,4.2508 15.84541,-0.0011 1.13356,-8.50158 h 30.60582"
       style="fill:none;stroke:#000000;stroke-width:0.53131;stroke-linecap:round;stroke-linejoin:round;stroke-miterlimit:10;stroke-dasharray:none;stroke-opacity:1"
       transform="matrix(1.3333333,0,0,-1.3333333,87.061333,18.068)" />
    <path
       id="path26"
       d="m 4.0075234,-3.6203906 c -0.1757812,0 -0.703125,0.011719 -1.3125,0.2460937 h -0.023437 c -0.28125,-0.1875 -0.5625,-0.2460937 -0.796875,-0.2460937 -0.7734375,0 -1.35937496,0.6210937 -1.35937496,1.3007812 0,0.28125 0.09375,0.5625 0.28125,0.7851563 -0.1171875,0.140625 -0.234375,0.3632812 -0.234375,0.66796873 0,0.3046875 0.12890625,0.50390625 0.19921875,0.609375 -0.43359375,0.24609375 -0.52734375,0.62109375 -0.52734375,0.80859375 0,0.60937502 0.84374996,1.07812502 1.87499996,1.07812502 1.0429688,0 1.875,-0.46875 1.875,-1.07812502 0,-1.125 -1.3945312,-1.125 -1.734375,-1.125 H 1.5114297 c -0.1289063,0 -0.4804688,0 -0.4804688,-0.41015625 0,-0.16406253 0.058594,-0.24609373 0.070312,-0.25781253 0.28125,0.1757813 0.5507813,0.234375 0.7734375,0.234375 0.7734375,0 1.359375,-0.6210937 1.359375,-1.3007812 0,-0.2578125 -0.070312,-0.4921875 -0.2109375,-0.703125 -0.035156,-0.046875 -0.035156,-0.058594 -0.035156,-0.058594 0,-0.035156 0.4804687,-0.035156 0.515625,-0.035156 0.011719,0 0.3164062,0 0.5976562,0.035156 z m -2.1328125,2.109375 c -0.421875,0 -0.7382812,-0.2695313 -0.7382812,-0.796875 0,-0.6210938 0.3984375,-0.8203125 0.7382812,-0.8203125 0.4335938,0 0.75,0.28125 0.75,0.8085937 0,0.6210938 -0.3984375,0.8085938 -0.75,0.8085938 z m 0.375,1.55859373 c 0.1875,0 1.125,0 1.125,0.515625 0,0.33984375 -0.5976562,0.57421877 -1.265625,0.57421877 -0.6679687,0 -1.26562496,-0.23437502 -1.26562496,-0.57421877 0,-0.046875 0,-0.515625 0.64453126,-0.515625 z m 5.4521485,-0.9140625 c -0.3984375,0.2578125 -0.8320313,0.3984375 -1.3242188,0.3984375 -0.7382812,0 -1.1601562,-0.58593753 -1.1601562,-1.31250003 0,-0.609375 0.3164062,-1.3242187 1.1835937,-1.3242187 0.5390625,0 0.796875,0.1054687 1.2070313,0.3632812 l 0.09375,-0.5742187 c -0.46875,-0.234375 -0.6796875,-0.3398438 -1.3007813,-0.3398438 -1.1953125,0 -1.8867187,0.9609375 -1.8867187,1.8867188 0,0.97265623 0.7734375,1.85156248 1.8515625,1.85156248 0.5625,0 1.0429687,-0.1640625 1.3828125,-0.36328125 z m 0,0"
       style="fill:#000000;fill-opacity:1;fill-rule:nonzero;stroke:none"
       aria-label="gc"
       transform="matrix(1.3333333,0,0,1.3333333,18.238667,131.46)" />
    <path
       id="path27"
       d="M 0,0 H 2.541"
       style="fill:none;stroke:#000000;stroke-width:0.398;stroke-linecap:butt;stroke-linejoin:round;stroke-miterlimit:10;stroke-dasharray:none;stroke-opacity:1"
       transform="matrix(1.3333333,0,0,-1.3333333,29.58,131.19333)" />
    <path
       id="path28"
       d="M 1.4048828,-5.4602344 H 0.59628906 v 0.796875 H 1.4048828 Z m -0.070312,1.921875 H 0.66660156 V 7.03125e-4 H 1.3345703 Z m 4.3886719,1.1835938 c 0,-0.6210938 -0.1757813,-1.265625 -1.1601563,-1.265625 -0.4570312,0 -0.890625,0.1875 -1.2421875,0.609375 V -3.5969531 H 2.6763672 V 7.03125e-4 h 0.703125 V -1.9328906 c 0,-0.5273438 0.2226562,-1.1601563 0.8320312,-1.1601563 0.8203125,0 0.8203125,0.5625 0.8203125,0.7851563 V 7.03125e-4 h 0.6914063 z m 2.2060547,1.64062498 H 7.2027344 V 7.03125e-4 H 7.9292969 Z M 14.403906,-3.5383594 h -0.621094 c -0.07031,0.2226563 -0.515625,1.5703125 -0.773437,2.4023438 -0.05859,0.22265623 -0.140625,0.48046873 -0.164063,0.66796873 -0.05859,-0.328125 -0.328125,-1.18359373 -0.351562,-1.24218753 l -0.585938,-1.828125 h -0.609375 c -0.222656,0.6914063 -0.820312,2.4726563 -0.890625,3.05859378 h -0.01172 C 10.3375,-1.0539844 9.7515625,-2.8117969 9.6226562,-3.1985156 c -0.070312,-0.1875 -0.070312,-0.1992188 -0.1054687,-0.3398438 h -0.65625 L 10.021094,7.03125e-4 h 0.679687 c 0,-0.035156245 0.222656,-0.656249995 0.492188,-1.546875025 0.128906,-0.3867187 0.363281,-1.1601562 0.398437,-1.5 l 0.01172,-0.011719 c 0.01172,0.1640625 0.07031,0.3398437 0.117187,0.5390625 0.05859,0.1992187 0.117188,0.4101562 0.175782,0.5976562 L 12.50547,7.02825e-4 h 0.738281 z m 1.473633,1.8398438 c 0,-0.8554688 0.714844,-1.3242188 1.417969,-1.3242188 v -0.5976562 c -0.667969,0.011719 -1.160156,0.3398437 -1.476563,0.7617187 V -3.5969531 H 15.20957 V 7.03125e-4 h 0.667969 z m 0,0"
       style="fill:#000000;fill-opacity:1;fill-rule:nonzero;stroke:none"
       aria-label="in.wr"
       transform="matrix(1.3333333,0,0,1.3333333,32.966667,131.46)" />
    <path
       id="path29"
       d="M 0,0 H 2.541"
       style="fill:none;stroke:#000000;stroke-width:0.398;stroke-linecap:butt;stroke-linejoin:round;stroke-miterlimit:10;stroke-dasharray:none;stroke-opacity:1"
       transform="matrix(1.3333333,0,0,-1.3333333,56.872,131.19333)" />
    <path
       id="path30"
       d="M 3.6926953,-5.5305469 H 3.0247266 v 2.3320313 c -0.515625,-0.375 -1.03125,-0.421875 -1.265625,-0.421875 -0.83203129,0 -1.47656254,0.84375 -1.47656254,1.8515625 0,1.00781248 0.6328125,1.85156248 1.45312504,1.85156248 0.4921875,0 0.9609375,-0.22265625 1.265625,-0.4921875 V 7.03125e-4 h 0.6914062 z m -0.6914062,4.54687503 c -0.1992188,0.328125 -0.5039063,0.5390625 -0.890625,0.5390625 -0.5507813,0 -1.12500004,-0.38671875 -1.12500004,-1.31250003 0,-0.9960937 0.66796874,-1.3359375 1.21875004,-1.3359375 0.3164062,0 0.5859375,0.140625 0.796875,0.4101563 z M 7.7708203,-2.2961719 c 0,-0.8085937 -0.6210937,-1.359375 -1.4179687,-1.359375 -0.5039063,0 -0.8789063,0.1054688 -1.3242188,0.3398438 l 0.046875,0.5859375 c 0.2578125,-0.1757813 0.65625,-0.421875 1.2773438,-0.421875 0.3515625,0 0.7265625,0.2695312 0.7265625,0.8671875 v 0.3164062 c -1.1835938,0.035156 -2.34375,0.2929688 -2.34375,1.03125003 0,0.3984375 0.2695312,1.01953125 0.9726562,1.01953125 0.3398438,0 0.9726563,-0.0703125 1.3945313,-0.38671875 V 7.03125e-4 h 0.6679687 z m -0.6914062,1.1601563 c 0,0.16406248 0,0.37499998 -0.28125,0.53906248 -0.2578125,0.140625 -0.5742188,0.15234375 -0.65625,0.15234375 -0.4335938,0 -0.7734375,-0.19921875 -0.7734375,-0.50390625 0,-0.50390628 1.3476562,-0.56249998 1.7109375,-0.57421878 z M 9.9417187,-3.0344531 H 11.113594 V -3.5383594 H 9.9417187 V -4.5461719 H 9.320625 v 1.0078125 H 8.6057812 v 0.5039063 h 0.6914063 v 2.015625 c 0,0.53906248 0.140625,1.10156248 0.7148435,1.10156248 0.574219,0 1.007813,-0.1875 1.253906,-0.29296875 l -0.140625,-0.515625 c -0.257812,0.1875 -0.539062,0.2578125 -0.761718,0.2578125 -0.339844,0 -0.4218753,-0.328125 -0.4218753,-0.69140623 z m 4.9541013,0.7382812 c 0,-0.8085937 -0.621093,-1.359375 -1.417968,-1.359375 -0.503907,0 -0.878907,0.1054688 -1.324219,0.3398438 l 0.04687,0.5859375 c 0.257812,-0.1757813 0.65625,-0.421875 1.277344,-0.421875 0.351562,0 0.726562,0.2695312 0.726562,0.8671875 v 0.3164062 c -1.183594,0.035156 -2.34375,0.2929688 -2.34375,1.03125003 0,0.3984375 0.269531,1.01953125 0.972656,1.01953125 0.339844,0 0.972657,-0.0703125 1.394532,-0.38671875 V 7.03125e-4 h 0.667968 z m -0.691406,1.1601563 c 0,0.16406248 0,0.37499998 -0.28125,0.53906248 -0.257812,0.140625 -0.574219,0.15234375 -0.65625,0.15234375 -0.433594,0 -0.773437,-0.19921875 -0.773437,-0.50390625 0,-0.50390628 1.347656,-0.56249998 1.710937,-0.57421878 z m 0,0"
       style="fill:#000000;fill-opacity:1;fill-rule:nonzero;stroke:none"
       aria-label="data"
       transform="matrix(1.3333333,0,0,1.3333333,60.26,131.46)" />
    <path
       id="path31"
       d="M 0,-85.04486 H 43.07484"
       style="fill:none;stroke:#000000;stroke-width:0.53131;stroke-linecap:round;stroke-linejoin:round;stroke-miterlimit:10;stroke-dasharray:none;stroke-opacity:1"
       transform="matrix(1.3333333,0,0,-1.3333333,87.061333,18.068)" />
    <path
       id="path32"
       d="M 43.07709,-85.04486 H 97.48746"
       style="fill:none;stroke:#000000;stroke-width:0.53131;stroke-linecap:round;stroke-linejoin:round;stroke-miterlimit:10;stroke-dasharray:2.98883, 2.98883;stroke-dashoffset:0;stroke-opacity:1"
       transform="matrix(1.3333333,0,0,-1.3333333,87.061333,18.068)" />
    <path
       id="path33"
       d="m 97.49255,-85.04486 h 4.53421 l 1.13355,4.25079"
       style="fill:none;stroke:#000000;stroke-width:0.53131;stroke-linecap:round;stroke-linejoin:round;stroke-miterlimit:10;stroke-dasharray:none;stroke-opacity:1"
       transform="matrix(1.3333333,0,0,-1.3333333,87.061333,18.068)" />
    <path
       id="path34"
       d="m 103.16574,-80.79356 1.13353,4.25079 h 15.875 l 1.13356,-4.25079 -1.13356,-4.2508 -15.86957,5.1e-4 -1.13354,4.25079"
       style="fill:none;stroke:#000000;stroke-width:0.53131;stroke-linecap:round;stroke-linejoin:round;stroke-miterlimit:10;stroke-dasharray:none;stroke-opacity:1"
       transform="matrix(1.3333333,0,0,-1.3333333,87.061333,18.068)" />
    <path
       id="path35"
       d="M 2.771888,-4.1397786 H 2.2640755 v 1.7382812 c -0.390625,-0.2734375 -0.78125,-0.3125 -0.9375,-0.3125 -0.64453123,0 -1.11328123,0.625 -1.11328123,1.3867188 0,0.7617187 0.46875,1.3867187 1.09375003,1.3867187 0.3710937,0 0.703125,-0.17578125 0.9375,-0.37109375 V 8.4635417e-4 H 2.771888 Z m -0.5273437,3.39843745 c -0.15625,0.25390625 -0.3710938,0.41015625 -0.6640625,0.41015625 -0.4101563,0 -0.83984378,-0.29296875 -0.83984378,-0.9960937 0,-0.7421875 0.50781248,-0.9960938 0.89843748,-0.9960938 0.2539063,0 0.4492188,0.097656 0.6054688,0.3125 z m 5.0390625,0.004883 c 0,-0.29296875 0,-0.99609375 -0.2734375,-1.48437495 -0.3125,-0.546875 -0.7617188,-0.625 -1.0546875,-0.625 -0.2734375,0 -0.7421875,0.078125 -1.0351563,0.5859375 -0.2929687,0.4882812 -0.2929687,1.1328125 -0.2929687,1.52343745 0,0.4296875 0.019531,0.9765625 0.2734375,1.42578125 0.2539062,0.4882813 0.703125,0.625 1.0546875,0.625 0.6054687,0 0.9375,-0.33203125 1.1132812,-0.72265625 0.1953125,-0.41015625 0.2148438,-0.95703125 0.2148438,-1.328125 z M 5.9554818,0.9236981 c -0.2539063,0 -0.5273438,-0.13671875 -0.6835938,-0.56640625 -0.1171875,-0.37109375 -0.1367187,-0.7421875 -0.1367187,-1.171875 0,-0.56640625 0,-1.64062495 0.8203125,-1.64062495 0.8203125,0 0.8203125,1.0742187 0.8203125,1.64062495 0,0.390625 0,0.83984375 -0.15625,1.2109375 -0.15625,0.4296875 -0.46875,0.52734375 -0.6640625,0.52734375 z m 0,0"
       style="fill:#000000;fill-opacity:1;fill-rule:nonzero;stroke:none"
       aria-label="d&#10;0"
       transform="matrix(0.8,0,0,0.8,233.49733,127.52667)" />
    <path
       id="path36"
       d="m 121.3206,-80.79256 1.13353,4.25078 15.86324,-4.9e-4 1.13354,-4.25079 -1.13354,-4.25079 -15.85686,0.001 -1.13353,4.25078"
       style="fill:none;stroke:#000000;stroke-width:0.53131;stroke-linecap:round;stroke-linejoin:round;stroke-miterlimit:10;stroke-dasharray:none;stroke-opacity:1"
       transform="matrix(1.3333333,0,0,-1.3333333,87.061333,18.068)" />
    <path
       id="path37"
       d="M 2.7757943,-4.1429948 H 2.2679818 v 1.7382813 c -0.390625,-0.2734375 -0.78125,-0.3125 -0.9375,-0.3125 -0.64453128,0 -1.11328128,0.625 -1.11328128,1.3867187 0,0.76171876 0.46875,1.38671876 1.09374998,1.38671876 0.3710938,0 0.703125,-0.17578125 0.9375,-0.37109375 v 0.3125 h 0.5273438 z m -0.5273438,3.39843751 c -0.15625,0.25390625 -0.3710937,0.41015625 -0.6640625,0.41015625 -0.4101562,0 -0.83984373,-0.29296875 -0.83984373,-0.99609376 0,-0.7421875 0.50781253,-0.9960937 0.89843753,-0.9960937 0.2539062,0 0.4492187,0.097656 0.6054687,0.3125 z M 6.2865365,-2.8490495 H 6.1498177 C 5.778724,-2.497487 5.2904427,-2.4779557 4.919349,-2.4584245 v 0.3710938 c 0.234375,0 0.5273437,-0.019531 0.8398437,-0.1367188 V 0.82282552 H 4.9584115 V 1.1939193 H 7.0873177 V 0.82282552 H 6.2865365 Z m 0,0"
       style="fill:#000000;fill-opacity:1;fill-rule:nonzero;stroke:none"
       aria-label="d&#10;1"
       transform="matrix(0.8,0,0,0.8,257.69733,127.52533)" />
    <path
       id="path38"
       d="m 139.46558,-80.79207 1.13354,-4.25078 15.86231,-5e-4"
       style="fill:none;stroke:#000000;stroke-width:0.53131;stroke-linecap:round;stroke-linejoin:round;stroke-miterlimit:10;stroke-dasharray:none;stroke-opacity:1"
       transform="matrix(1.3333333,0,0,-1.3333333,87.061333,18.068)" />
    <path
       id="path39"
       d="m 156.47787,-85.04335 1.13356,4.25079"
       style="fill:none;stroke:#000000;stroke-width:0.53131;stroke-linecap:round;stroke-linejoin:round;stroke-miterlimit:10;stroke-dasharray:none;stroke-opacity:1"
       transform="matrix(1.3333333,0,0,-1.3333333,87.061333,18.068)" />
    <path
       id="path40"
       d="m 157.61972,-80.79207 1.13355,4.25079 h 15.87785 l 1.13354,-4.25079 -1.13354,-4.25078 -15.86957,4.9e-4 -1.13355,4.2508"
       style="fill:none;stroke:#000000;stroke-width:0.53131;stroke-linecap:round;stroke-linejoin:round;stroke-miterlimit:10;stroke-dasharray:none;stroke-opacity:1"
       transform="matrix(1.3333333,0,0,-1.3333333,87.061333,18.068)" />
    <path
       id="path41"
       d="M 2.7751563,-4.1413281 H 2.2673438 v 1.7382812 c -0.390625,-0.2734375 -0.78125,-0.3125 -0.9375,-0.3125 -0.6445313,0 -1.1132813,0.625 -1.1132813,1.3867188 0,0.76171873 0.46875,1.38671873 1.09375,1.38671873 0.3710938,0 0.703125,-0.17578125 0.9375,-0.37109375 v 0.312499995 h 0.5273438 z m -0.5273438,3.39843748 c -0.15625,0.25390625 -0.3710937,0.41015625 -0.6640625,0.41015625 -0.4101562,0 -0.83984375,-0.29296875 -0.83984375,-0.99609373 0,-0.7421875 0.50781255,-0.9960938 0.89843755,-0.9960938 0.2539062,0 0.4492187,0.097656 0.6054687,0.3125 z m 3.8232422,1.46972656 c -0.078125,0 -0.15625,0.0195313 -0.2148438,0.0195313 H 5.1726172 l 0.9179687,-0.8203125 c 0.1171875,-0.09765625 0.4101563,-0.3125 0.5078125,-0.41015625 0.2734375,-0.25390625 0.625,-0.54687499 0.625,-1.07421869 0,-0.6835939 -0.5078125,-1.2890626 -1.3671875,-1.2890626 -0.625,0 -1.015625,0.3320312 -1.2304687,0.9375001 l 0.2929687,0.3710937 c 0.1367188,-0.5078126 0.3515625,-0.8984376 0.859375,-0.8984376 0.5078125,0 0.8984375,0.3515625 0.8984375,0.8984376 0,0.4882812 -0.2929687,0.76171874 -0.6640625,1.11328124 -0.1171875,0.1171875 -0.4296875,0.390625 -0.5664062,0.5078125 -0.1757813,0.15625 -0.5859375,0.546875 -0.7617188,0.703125 V 1.1955859 H 7.2233984 V 0.72683594 Z m 0,0"
       style="fill:#000000;fill-opacity:1;fill-rule:nonzero;stroke:none"
       aria-label="d&#10;2"
       transform="matrix(0.8,0,0,0.8,306.108,127.524)" />
    <path
       id="path42"
       d="m 175.78314,-80.79106 1.13355,-4.25079 15.86039,-5.1e-4"
       style="fill:none;stroke:#000000;stroke-width:0.53131;stroke-linecap:round;stroke-linejoin:round;stroke-miterlimit:10;stroke-dasharray:none;stroke-opacity:1"
       transform="matrix(1.3333333,0,0,-1.3333333,87.061333,18.068)" />
    <path
       id="path43"
       d="m 192.8075,-85.04236 1.13354,4.2508"
       style="fill:none;stroke:#000000;stroke-width:0.53131;stroke-linecap:round;stroke-linejoin:round;stroke-miterlimit:10;stroke-dasharray:2.98883, 2.98883;stroke-dashoffset:0;stroke-opacity:1"
       transform="matrix(1.3333333,0,0,-1.3333333,87.061333,18.068)" />
    <path
       id="path44"
       d="m 193.95125,-80.79106 1.13355,4.25079 h 34.01653 l 1.13355,-4.25079 -1.13355,-4.25079 -34.00634,5e-4 -1.13355,4.25079"
       style="fill:none;stroke:#000000;stroke-width:0.53131;stroke-linecap:round;stroke-linejoin:round;stroke-miterlimit:10;stroke-dasharray:2.98883, 2.98883;stroke-dashoffset:0;stroke-opacity:1"
       transform="matrix(1.3333333,0,0,-1.3333333,87.061333,18.068)" />
    <path
       id="path45"
       d="m 230.3196,-80.78755 1.13354,4.25079 15.79703,-0.003 1.13353,-4.2508 -1.13353,-4.25079 -15.78493,0.0035 -1.13354,4.25079"
       style="fill:none;stroke:#000000;stroke-width:0.53131;stroke-linecap:round;stroke-linejoin:round;stroke-miterlimit:10;stroke-dasharray:none;stroke-opacity:1"
       transform="matrix(1.3333333,0,0,-1.3333333,87.061333,18.068)" />
    <g
       id="g45"
       aria-label="d&#10;n−1"
       transform="matrix(0.8,0,0,0.8,399.82133,127.32133)">
      <path
         id="path46"
         d="M 2.7721615,-4.141901 H 2.264349 v 1.7382812 c -0.390625,-0.2734375 -0.78125,-0.3125 -0.9375,-0.3125 -0.64453129,0 -1.11328129,0.625 -1.11328129,1.3867188 0,0.76171871 0.46875,1.38671871 1.09374999,1.38671871 0.3710938,0 0.703125,-0.17578125 0.9375,-0.37109375 v 0.3125 h 0.5273438 z m -0.5273438,3.39843746 c -0.15625,0.25390625 -0.3710937,0.41015625 -0.6640625,0.41015625 -0.4101562,0 -0.83984374,-0.29296875 -0.83984374,-0.99609371 0,-0.7421875 0.50781254,-0.9960938 0.89843754,-0.9960938 0.2539062,0 0.4492187,0.097656 0.6054687,0.3125 z m 4.9023438,0.16113281 c 0,-0.44921877 -0.1367188,-0.93749997 -0.859375,-0.93749997 -0.3515625,0 -0.6835938,0.1367187 -0.9375,0.4492187 V -1.5002995 H 4.8620052 V 1.195013 H 5.389349 v -1.44531248 c 0,-0.41015625 0.1757812,-0.87890622 0.625,-0.87890622 0.625,0 0.625,0.42968747 0.625,0.60546872 V 1.195013 h 0.5078125 z m 0,0"
         style="fill:#000000;fill-opacity:1;fill-rule:nonzero;stroke:none" />
      <path
         id="path47"
         d="m 11.595404,-0.17217448 c 0.09766,0 0.195312,0 0.195312,-0.1171875 0,-0.13671875 -0.09766,-0.13671875 -0.195312,-0.13671875 H 8.3532161 c -0.097656,0 -0.2148437,0 -0.2148437,0.13671875 0,0.1171875 0.1171875,0.1171875 0.2148437,0.1171875 z m 0,0"
         style="fill:#000000;fill-opacity:1;fill-rule:nonzero;stroke:none" />
      <path
         id="path48"
         d="M 14.207708,-2.8479557 H 14.07099 c -0.371094,0.3515625 -0.859375,0.3710937 -1.230469,0.390625 v 0.3710937 c 0.234375,0 0.527344,-0.019531 0.839844,-0.1367187 V 0.82391927 H 12.879583 V 1.195013 H 15.00849 V 0.82391927 h -0.800782 z m 0,0"
         style="fill:#000000;fill-opacity:1;fill-rule:nonzero;stroke:none" />
    </g>
    <path
       id="path49"
       d="m 248.40982,-80.78955 1.13355,-4.25079 29.45916,-5.1e-4"
       style="fill:none;stroke:#000000;stroke-width:0.53131;stroke-linecap:round;stroke-linejoin:round;stroke-miterlimit:10;stroke-dasharray:none;stroke-opacity:1"
       transform="matrix(1.3333333,0,0,-1.3333333,87.061333,18.068)" />
    <path
       id="path50"
       d="m 4.0070781,-3.6197656 c -0.1757812,0 -0.703125,0.011719 -1.3125,0.2460937 h -0.023437 c -0.28125,-0.1875 -0.5625,-0.2460937 -0.796875,-0.2460937 -0.7734375,0 -1.35937498,0.6210937 -1.35937498,1.3007812 0,0.28125 0.09375,0.5625 0.28125,0.7851563 -0.1171875,0.140625 -0.234375,0.3632812 -0.234375,0.66796873 0,0.3046875 0.12890625,0.50390625 0.19921875,0.609375 -0.43359375,0.24609375 -0.52734375,0.62109375 -0.52734375,0.80859375 0,0.60937502 0.84374998,1.07812502 1.87499998,1.07812502 1.0429688,0 1.875,-0.46875 1.875,-1.07812502 0,-1.125 -1.3945312,-1.125 -1.734375,-1.125 H 1.5109844 c -0.1289063,0 -0.4804688,0 -0.4804688,-0.41015625 0,-0.16406253 0.058594,-0.24609373 0.070312,-0.25781253 0.28125,0.1757813 0.5507813,0.234375 0.7734375,0.234375 0.7734375,0 1.359375,-0.6210937 1.359375,-1.3007812 0,-0.2578125 -0.070312,-0.4921875 -0.2109375,-0.703125 -0.035156,-0.046875 -0.035156,-0.058594 -0.035156,-0.058594 0,-0.035156 0.4804687,-0.035156 0.515625,-0.035156 0.011719,0 0.3164062,0 0.5976562,0.035156 z m -2.1328125,2.109375 c -0.421875,0 -0.7382812,-0.2695313 -0.7382812,-0.796875 0,-0.6210938 0.3984375,-0.8203125 0.7382812,-0.8203125 0.4335938,0 0.75,0.28125 0.75,0.8085937 0,0.6210938 -0.3984375,0.8085938 -0.75,0.8085938 z m 0.375,1.55859373 c 0.1875,0 1.125,0 1.125,0.515625 0,0.33984375 -0.5976562,0.57421877 -1.265625,0.57421877 -0.6679687,0 -1.26562498,-0.23437502 -1.26562498,-0.57421877 0,-0.046875 0,-0.515625 0.64453128,-0.515625 z m 5.4550781,-0.9140625 c -0.3984375,0.2578125 -0.8320312,0.3984375 -1.3242187,0.3984375 -0.7382813,0 -1.1601563,-0.58593753 -1.1601563,-1.31250003 0,-0.609375 0.3164063,-1.3242187 1.1835938,-1.3242187 0.5390625,0 0.796875,0.1054687 1.2070312,0.3632812 l 0.09375,-0.5742187 c -0.46875,-0.234375 -0.6796875,-0.3398438 -1.3007812,-0.3398438 -1.1953125,0 -1.8867188,0.9609375 -1.8867188,1.8867188 0,0.97265623 0.7734375,1.85156248 1.8515625,1.85156248 0.5625,0 1.0429688,-0.1640625 1.3828125,-0.36328125 z m 0,0"
       style="fill:#000000;fill-opacity:1;fill-rule:nonzero;stroke:none"
       aria-label="gc"
       transform="matrix(1.3333333,0,0,1.3333333,32.930667,154.14667)" />
    <path
       id="path51"
       d="M 0,0 H 2.541"
       style="fill:none;stroke:#000000;stroke-width:0.398;stroke-linecap:butt;stroke-linejoin:round;stroke-miterlimit:10;stroke-dasharray:none;stroke-opacity:1"
       transform="matrix(1.3333333,0,0,-1.3333333,44.272,153.88133)" />
    <path
       id="path52"
       d="m 3.9854922,-1.7447656 c 0,-1.0546875 -0.8320313,-1.9101563 -1.875,-1.9101563 -1.03125,0 -1.87500001,0.8671875 -1.87500001,1.9101563 0,1.00781248 0.84375001,1.82812498 1.87500001,1.82812498 1.0429687,0 1.875,-0.8203125 1.875,-1.82812498 z m -1.875,1.27734373 c -0.6328125,0 -1.17187501,-0.46875 -1.17187501,-1.35937503 0,-0.9023437 0.58593751,-1.3007812 1.17187501,-1.3007812 0.5976562,0 1.1835937,0.4101562 1.1835937,1.3007812 0,0.90234378 -0.5625,1.35937503 -1.1835937,1.35937503 z M 7.9376406,-3.5377344 H 7.2462344 v 2.3085938 c 0,0.64453123 -0.5390625,0.84374998 -1.0078125,0.84374998 -0.5859375,0 -0.6445313,-0.1640625 -0.6445313,-0.52734375 V -3.5377344 h -0.703125 v 2.67187503 c 0,0.703125 0.3164063,0.94921875 0.8789063,0.94921875 0.3164062,0 1.0195312,-0.0703125 1.5,-0.4453125 v 0.36328125 h 0.6679687 z m 2.1679684,0.5039063 h 1.171875 V -3.5377344 H 10.105609 V -4.5455469 H 9.4845156 v 1.0078125 H 8.7696719 v 0.5039063 h 0.6914062 v 2.015625 c 0,0.53906248 0.140625,1.10156248 0.7148439,1.10156248 0.574219,0 1.007812,-0.1875 1.253906,-0.29296875 l -0.140625,-0.515625 c -0.257812,0.1875 -0.539062,0.2578125 -0.761719,0.2578125 -0.339843,0 -0.421875,-0.328125 -0.421875,-0.69140623 z m 3.09375,2.32031248 h -0.726562 v 0.71484375 h 0.726562 z m 2.329102,-2.32031248 h 0.914062 v -0.5039063 h -0.9375 v -0.9140625 c 0,-0.5507812 0.503907,-0.6328125 0.761719,-0.6328125 0.175781,0 0.386719,0.023437 0.679688,0.140625 v -0.5859375 c -0.199219,-0.046875 -0.457032,-0.082031 -0.667969,-0.082031 -0.820313,0 -1.417969,0.5976562 -1.417969,1.3828125 v 0.6914062 h -0.609375 v 0.5039063 h 0.609375 v 3.03515623 h 0.667969 z m 4.77832,-0.5039063 h -0.691406 v 2.3085938 c 0,0.64453123 -0.539063,0.84374998 -1.007813,0.84374998 -0.585937,0 -0.644531,-0.1640625 -0.644531,-0.52734375 V -3.5377344 h -0.703125 v 2.67187503 c 0,0.703125 0.316406,0.94921875 0.878906,0.94921875 0.316407,0 1.019532,-0.0703125 1.5,-0.4453125 v 0.36328125 h 0.667969 z m 2.006836,-1.9921875 h -0.667969 v 5.53125003 h 0.667969 z m 2.021485,0 h -0.667969 v 5.53125003 h 0.667969 z m 0,0"
       style="fill:#000000;fill-opacity:1;fill-rule:nonzero;stroke:none"
       aria-label="out.full"
       transform="matrix(1.3333333,0,0,1.3333333,47.658667,154.14667)" />
    <path
       id="path53"
       d="M 0,-102.06047 H 43.07484"
       style="fill:none;stroke:#000000;stroke-width:0.53131;stroke-linecap:round;stroke-linejoin:round;stroke-miterlimit:10;stroke-dasharray:none;stroke-opacity:1"
       transform="matrix(1.3333333,0,0,-1.3333333,87.061333,18.068)" />
    <path
       id="path54"
       d="M 43.07709,-102.06047 H 97.48746"
       style="fill:none;stroke:#000000;stroke-width:0.53131;stroke-linecap:round;stroke-linejoin:round;stroke-miterlimit:10;stroke-dasharray:2.98883, 2.98883;stroke-dashoffset:0;stroke-opacity:1"
       transform="matrix(1.3333333,0,0,-1.3333333,87.061333,18.068)" />
    <path
       id="path55"
       d="m 97.49255,-102.06047 h 40.80777 l 1.13355,8.50159 h 17.00323 l 1.13356,-8.50159 h 35.14002"
       style="fill:none;stroke:#000000;stroke-width:0.53131;stroke-linecap:round;stroke-linejoin:round;stroke-miterlimit:10;stroke-dasharray:none;stroke-opacity:1"
       transform="matrix(1.3333333,0,0,-1.3333333,87.061333,18.068)" />
    <path
       id="path56"
       d="m 192.72081,-102.06047 1.13354,4.25079"
       style="fill:none;stroke:#000000;stroke-width:0.53131;stroke-linecap:round;stroke-linejoin:round;stroke-miterlimit:10;stroke-dasharray:2.98883, 2.98883;stroke-dashoffset:0;stroke-opacity:1"
       transform="matrix(1.3333333,0,0,-1.3333333,87.061333,18.068)" />
    <path
       id="path57"
       d="m 193.86455,-97.80916 1.13355,4.2508 h 34.01653 l 1.13355,-4.2508 -1.13355,-4.25079 -34.00633,5.3e-4 -1.13356,4.2508"
       style="fill:none;stroke:#000000;stroke-width:0.53131;stroke-linecap:round;stroke-linejoin:round;stroke-miterlimit:10;stroke-dasharray:2.98883, 2.98883;stroke-dashoffset:0;stroke-opacity:1"
       transform="matrix(1.3333333,0,0,-1.3333333,87.061333,18.068)" />
    <path
       id="path58"
       d="m 230.1845,-97.80757 1.13354,4.25079 15.84541,-10e-4 1.13356,-8.50159 h 30.60582"
       style="fill:none;stroke:#000000;stroke-width:0.53131;stroke-linecap:round;stroke-linejoin:round;stroke-miterlimit:10;stroke-dasharray:none;stroke-opacity:1"
       transform="matrix(1.3333333,0,0,-1.3333333,87.061333,18.068)" />
  </g>
</svg>
