<?xml version="1.0" encoding="UTF-8" standalone="no"?>
<!-- Created with Inkscape (http://www.inkscape.org/) -->

<svg
   version="1.1"
   id="svg1"
   width="144.13733"
   height="147.384"
   viewBox="0 0 144.13733 147.384"
   sodipodi:docname="main.pdf"
   xmlns:inkscape="http://www.inkscape.org/namespaces/inkscape"
   xmlns:sodipodi="http://sodipodi.sourceforge.net/DTD/sodipodi-0.dtd"
   xmlns="http://www.w3.org/2000/svg"
   xmlns:svg="http://www.w3.org/2000/svg">
  <defs
     id="defs1" />
  <sodipodi:namedview
     id="namedview1"
     pagecolor="#ffffff"
     bordercolor="#000000"
     borderopacity="0.25"
     inkscape:showpageshadow="2"
     inkscape:pageopacity="0.0"
     inkscape:pagecheckerboard="0"
     inkscape:deskcolor="#d1d1d1">
    <inkscape:page
       x="0"
       y="0"
       inkscape:label="1"
       id="page1"
       width="144.13733"
       height="147.384"
       margin="0"
       bleed="0" />
  </sodipodi:namedview>
  <g
     id="g1"
     inkscape:groupmode="layer"
     inkscape:label="1">
    <path
       id="path1"
       d="M 0,0 H 108.103 V 110.538 H 0 Z"
       style="fill:#ffffff;fill-opacity:1;fill-rule:nonzero;stroke:none"
       transform="matrix(1.3333333,0,0,-1.3333333,0,147.384)" />
    <path
       id="path2"
       d="m -40.00058,0.04979 h 19.92555 v 19.92555 h -19.92555 z"
       style="fill:#808080;fill-opacity:1;fill-rule:nonzero;stroke:none"
       transform="matrix(1.3333333,0,0,-1.3333333,69.828,71.894667)" />
    <path
       id="path3"
       d="M -19.97537,0.04979 H -0.04982 V 19.97534 H -19.97537 Z"
       style="fill:#808080;fill-opacity:1;fill-rule:nonzero;stroke:none"
       transform="matrix(1.3333333,0,0,-1.3333333,69.828,71.894667)" />
    <path
       id="path4"
       d="M 0.04979,0.04979 H 19.97534 V 19.97534 H 0.04979 Z"
       style="fill:#808080;fill-opacity:1;fill-rule:nonzero;stroke:none"
       transform="matrix(1.3333333,0,0,-1.3333333,69.828,71.894667)" />
    <path
       id="path5"
       d="M -19.97537,20.075 H -0.04982 V 40.00055 H -19.97537 Z"
       style="fill:#808080;fill-opacity:1;fill-rule:nonzero;stroke:none"
       transform="matrix(1.3333333,0,0,-1.3333333,69.828,71.894667)" />
    <path
       id="path6"
       d="m -40.05038,-40.05038 h 80.10076 m -80.10076,20.02519 H 40.05038 M -40.05038,0 h 80.10076 m -80.10076,20.02516 h 80.10076 m -80.10076,20.02519 h 80.10076 m -80.10076,-80.10073 v 80.10076 m 20.02519,-80.10076 V 40.05038 M 0,-40.05038 v 80.10076 m 20.02516,-80.10076 v 80.10076 m 20.02519,-80.10076 v 80.10076"
       style="fill:none;stroke:#404040;stroke-width:0.19925;stroke-linecap:butt;stroke-linejoin:miter;stroke-miterlimit:10;stroke-dasharray:none;stroke-opacity:1"
       transform="matrix(1.3333333,0,0,-1.3333333,69.828,71.894667)" />
    <path
       id="path7"
       d="m 4.5466484,-3.2465078 c 0,-0.7851563 -0.035156,-1.7109375 -0.4570312,-2.5195313 -0.3984375,-0.75 -1.0898438,-0.984375 -1.59375,-0.984375 -0.5976563,0 -1.2890625,0.2695313 -1.69921876,1.1484375 -0.328125,0.7265625 -0.375,1.5585938 -0.375,2.3554688 0,0.7851562 0.0351563,1.5117187 0.33984375,2.2382812 0.39843751,0.96093754 1.14843751,1.23046879 1.72265621,1.23046879 0.7265625,0 1.3476563,-0.41015625 1.6640625,-1.1015625 C 4.4528984,-1.5238516 4.5466484,-2.1801016 4.5466484,-3.2465078 Z m -2.0507812,2.85937499 c -0.5273438,0 -0.9375,-0.375 -1.1367188,-1.10156249 -0.1523437,-0.5625 -0.1640625,-1.1015625 -0.1640625,-1.875 0,-0.6328125 0,-1.2304688 0.1640625,-1.78125 0.070312,-0.1875 0.3164063,-0.9960938 1.125,-0.9960938 0.7734375,0 1.03125,0.75 1.1015625,0.9257813 0.1875,0.5625 0.1875,1.2304687 0.1875,1.8515625 0,0.65625 0,1.2773437 -0.1757812,1.9101562 -0.2578125,0.90234379 -0.7851563,1.06640629 -1.1015625,1.06640629 z m 0,0"
       style="fill:#000000;fill-opacity:1;fill-rule:nonzero;stroke:none"
       aria-label="0"
       transform="matrix(1.3333333,0,0,1.3333333,26.457333,13.801333)" />
    <path
       id="path8"
       d="m 4.5471875,-3.2456797 c 0,-0.7851562 -0.035156,-1.7109375 -0.4570313,-2.5195312 -0.3984375,-0.75 -1.0898437,-0.984375 -1.59375,-0.984375 -0.5976562,0 -1.2890625,0.2695312 -1.6992187,1.1484375 -0.328125,0.7265625 -0.375,1.5585937 -0.375,2.3554687 0,0.7851563 0.0351563,1.5117188 0.33984375,2.2382813 0.39843745,0.96093746 1.14843745,1.23046871 1.72265625,1.23046871 0.7265625,0 1.3476562,-0.41015625 1.6640625,-1.1015625 C 4.4534375,-1.5230234 4.5471875,-2.1792734 4.5471875,-3.2456797 Z m -2.0507813,2.85937501 c -0.5273437,0 -0.9375,-0.375 -1.1367187,-1.10156251 -0.1523438,-0.5625 -0.1640625,-1.1015625 -0.1640625,-1.875 0,-0.6328125 0,-1.2304687 0.1640625,-1.78125 0.070312,-0.1875 0.3164062,-0.9960937 1.125,-0.9960937 0.7734375,0 1.03125,0.75 1.1015625,0.9257812 0.1875,0.5625 0.1875,1.2304688 0.1875,1.8515625 0,0.65625 0,1.2773438 -0.1757813,1.9101563 -0.2578125,0.90234371 -0.7851562,1.06640621 -1.1015625,1.06640621 z m 0,0"
       style="fill:#000000;fill-opacity:1;fill-rule:nonzero;stroke:none"
       aria-label="0"
       transform="matrix(1.3333333,0,0,1.3333333,5.0933333,36.198667)" />
    <path
       id="path9"
       d="M 2.97575,-6.7504141 H 2.7765313 c -0.5859375,0.609375 -1.4179688,0.6328125 -1.8867188,0.65625 v 0.5742188 c 0.328125,-0.011719 0.8085938,-0.023437 1.3007813,-0.234375 v 5.17968749 H 0.94840625 V -4.140625e-4 H 4.2179375 V -0.57463281 H 2.97575 Z m 0,0"
       style="fill:#000000;fill-opacity:1;fill-rule:nonzero;stroke:none"
       aria-label="1"
       transform="matrix(1.3333333,0,0,1.3333333,53.157333,13.801333)" />
    <path
       id="path10"
       d="M 2.976875,-6.7501719 H 2.7776562 c -0.5859375,0.609375 -1.4179687,0.6328125 -1.8867187,0.65625 v 0.5742188 c 0.328125,-0.011719 0.8085937,-0.023437 1.3007812,-0.234375 v 5.17968747 H 0.94953125 V -1.71875e-4 H 4.2190625 V -0.57439063 H 2.976875 Z m 0,0"
       style="fill:#000000;fill-opacity:1;fill-rule:nonzero;stroke:none"
       aria-label="1"
       transform="matrix(1.3333333,0,0,1.3333333,5.0933333,62.898667)" />
    <path
       id="path11"
       d="M 1.7329766,-1.8754141 0.50250781,-0.63322656 V -4.140625e-4 H 4.4751641 V -0.70353906 H 2.6587578 c -0.1171875,0 -0.234375,0 -0.3632812,0 h -1.078125 c 0.3164062,-0.26953125 1.078125,-1.01953124 1.3828125,-1.31250004 0.1875,-0.1757812 0.6914062,-0.5976562 0.890625,-0.7734375 0.4453125,-0.4453125 0.984375,-0.9726562 0.984375,-1.828125 0,-1.1367187 -0.8085938,-2.1328125 -2.1210938,-2.1328125 -1.1367187,0 -1.69921874,0.7734375 -1.93359374,1.6289063 0.1171875,0.1757812 0.1640625,0.234375 0.1875,0.2578125 0.0234375,0.023437 0.1171875,0.1523437 0.22265625,0.2929687 0.19921879,-0.7734375 0.46874999,-1.546875 1.38281249,-1.546875 0.9375,0 1.4414063,0.75 1.4414063,1.5234375 0,0.84375 -0.5625,1.4179688 -1.1601563,2.015625 z m 0,0"
       style="fill:#000000;fill-opacity:1;fill-rule:nonzero;stroke:none"
       aria-label="2"
       transform="matrix(1.3333333,0,0,1.3333333,79.857333,13.801333)" />
    <path
       id="path12"
       d="M 1.7346875,-1.8757578 0.50421875,-0.63357031 V -7.578125e-4 H 4.476875 V -0.70388281 H 2.6604687 c -0.1171875,0 -0.234375,0 -0.3632812,0 h -1.078125 c 0.3164062,-0.26953125 1.078125,-1.01953129 1.3828125,-1.31249999 0.1875,-0.1757813 0.6914062,-0.5976563 0.890625,-0.7734375 0.4453125,-0.4453125 0.984375,-0.9726563 0.984375,-1.828125 0,-1.1367188 -0.8085938,-2.1328125 -2.1210938,-2.1328125 -1.1367187,0 -1.6992187,0.7734375 -1.9335937,1.6289062 0.1171875,0.1757813 0.1640625,0.234375 0.1875,0.2578125 0.0234375,0.023437 0.1171875,0.1523438 0.22265625,0.2929688 0.19921875,-0.7734375 0.46874995,-1.546875 1.38281245,-1.546875 0.9375,0 1.4414063,0.75 1.4414063,1.5234375 0,0.84375 -0.5625,1.4179687 -1.1601563,2.015625 z m 0,0"
       style="fill:#000000;fill-opacity:1;fill-rule:nonzero;stroke:none"
       aria-label="2"
       transform="matrix(1.3333333,0,0,1.3333333,5.0933333,89.598667)" />
    <path
       id="path13"
       d="M 0.91500781,-5.1215078 C 1.2079766,-5.8129141 1.8525078,-6.1761953 2.4618828,-6.1761953 c 0.515625,0 1.0078125,0.2929687 1.0078125,0.9375 0,0.609375 -0.4101562,1.1953125 -1.0195312,1.3359375 -0.058594,0.011719 -0.082031,0.011719 -0.7851563,0.070312 v 0.609375 h 0.703125 c 1.078125,0 1.3007813,0.9257812 1.3007813,1.4179687 0,0.7734375 -0.4570313,1.41796879 -1.2304688,1.41796879 -0.6796875,0 -1.47656249,-0.3515625 -1.91015624,-1.03124999 l -0.10546875,0.59765624 c 0.72656249,0.9375 1.64062499,1.04296875 2.03906249,1.04296875 1.21875,0 2.0859375,-0.97265625 2.0859375,-2.01562499 0,-0.9023438 -0.6914062,-1.5234375 -1.3710937,-1.734375 0.7617187,-0.4101563 1.1132812,-1.0898438 1.1132812,-1.7109375 0,-0.8554688 -0.8320312,-1.5117188 -1.8164062,-1.5117188 -0.7734375,0 -1.50000004,0.3984375 -1.91015629,1.0898438 z m 0,0"
       style="fill:#000000;fill-opacity:1;fill-rule:nonzero;stroke:none"
       aria-label="3"
       transform="matrix(1.3333333,0,0,1.3333333,106.55733,13.801333)" />
    <path
       id="path14"
       d="m 0.914375,-5.1224375 c 0.2929687,-0.6914063 0.9375,-1.0546875 1.546875,-1.0546875 0.515625,0 1.0078125,0.2929687 1.0078125,0.9375 0,0.609375 -0.4101563,1.1953125 -1.0195313,1.3359375 -0.058594,0.011719 -0.082031,0.011719 -0.7851562,0.070312 V -3.224 H 2.3675 c 1.078125,0 1.3007812,0.9257812 1.3007812,1.4179687 0,0.7734375 -0.4570312,1.4179688 -1.2304687,1.4179688 -0.6796875,0 -1.4765625,-0.3515625 -1.91015625,-1.03125 L 0.4221875,-0.82165625 c 0.7265625,0.9375 1.640625,1.04296875 2.0390625,1.04296875 1.21875,0 2.0859375,-0.97265625 2.0859375,-2.015625 0,-0.9023438 -0.6914063,-1.5234375 -1.3710938,-1.734375 0.7617188,-0.4101563 1.1132813,-1.0898438 1.1132813,-1.7109375 0,-0.8554688 -0.8320313,-1.5117188 -1.8164063,-1.5117188 -0.7734375,0 -1.49999995,0.3984375 -1.9101562,1.0898438 z m 0,0"
       style="fill:#000000;fill-opacity:1;fill-rule:nonzero;stroke:none"
       aria-label="3"
       transform="matrix(1.3333333,0,0,1.3333333,5.0933333,116.29867)" />
    <path
       id="path15"
       d="M -40.05038,40.05038 V -47.62213"
       style="fill:none;stroke:#000000;stroke-width:0.3985;stroke-linecap:butt;stroke-linejoin:miter;stroke-miterlimit:10;stroke-dasharray:none;stroke-opacity:1"
       transform="matrix(1.3333333,0,0,-1.3333333,69.828,71.894667)" />
    <path
       id="path16"
       d="M 1.99252,0 -1.19551,1.59401 0,0 -1.19551,-1.59401"
       style="fill:#000000;fill-opacity:1;fill-rule:nonzero;stroke:none"
       transform="matrix(0,1.3333333,1.3333333,0,16.427493,135.39084)" />
    <path
       id="path17"
       d="m 4.4404375,-4.4176953 h -0.75 c -1.2890625,3.1640625 -1.3125,3.62109374 -1.3242187,3.85546874 H 2.3545 C 2.2959063,-1.2301953 1.4990313,-3.0934766 1.463875,-3.1755078 L 0.9248125,-4.4176953 H 0.13965625 L 2.07325,2.734375e-4 C 1.9560625,0.30496094 1.7568438,0.80886719 1.7099688,0.90261719 1.4521563,1.4768359 1.2880938,1.4768359 1.1474688,1.4768359 0.98340625,1.4768359 0.667,1.4299609 0.3623125,1.3127734 L 0.432625,1.9573047 c 0.2109375,0.058594 0.4921875,0.082031 0.7148438,0.082031 0.3515625,0 0.7148437,-0.1171875 1.125,-1.13671871 z m 0,0"
       style="fill:#000000;fill-opacity:1;fill-rule:nonzero;stroke:none"
       aria-label="y"
       transform="matrix(1.3333333,0,0,1.3333333,5.6106667,139.70667)" />
    <path
       id="path18"
       d="M -40.05038,40.05038 H 47.62213"
       style="fill:none;stroke:#000000;stroke-width:0.3985;stroke-linecap:butt;stroke-linejoin:miter;stroke-miterlimit:10;stroke-dasharray:none;stroke-opacity:1"
       transform="matrix(1.3333333,0,0,-1.3333333,69.828,71.894667)" />
    <path
       id="path19"
       d="M 1.99252,0 -1.19551,1.59401 0,0 -1.19551,-1.59401"
       style="fill:#000000;fill-opacity:1;fill-rule:nonzero;stroke:none"
       transform="matrix(1.3333333,0,0,-1.3333333,133.32417,18.49416)" />
    <path
       id="path20"
       d="m 2.5903203,-2.2855703 1.828125,-2.1328125 H 3.5981328 l -1.3359375,1.640625 -1.37109374,-1.640625 H 0.05907031 L 1.9340703,-2.2855703 4.765625e-4,-4.140625e-4 H 0.82078906 L 2.2621953,-1.8754141 3.7504766,-4.140625e-4 h 0.8320312 z m 0,0"
       style="fill:#000000;fill-opacity:1;fill-rule:nonzero;stroke:none"
       aria-label="x"
       transform="matrix(1.3333333,0,0,1.3333333,132.91733,13.801333)" />
  </g>
</svg>
