<?xml version="1.0" encoding="UTF-8" standalone="no"?>
<!-- Created with Inkscape (http://www.inkscape.org/) -->

<svg
   version="1.1"
   id="svg1"
   width="453.77066"
   height="73.477333"
   viewBox="0 0 453.77066 73.477333"
   sodipodi:docname="main.pdf"
   xmlns:inkscape="http://www.inkscape.org/namespaces/inkscape"
   xmlns:sodipodi="http://sodipodi.sourceforge.net/DTD/sodipodi-0.dtd"
   xmlns="http://www.w3.org/2000/svg"
   xmlns:svg="http://www.w3.org/2000/svg">
  <defs
     id="defs1" />
  <sodipodi:namedview
     id="namedview1"
     pagecolor="#ffffff"
     bordercolor="#000000"
     borderopacity="0.25"
     inkscape:showpageshadow="2"
     inkscape:pageopacity="0.0"
     inkscape:pagecheckerboard="0"
     inkscape:deskcolor="#d1d1d1">
    <inkscape:page
       x="0"
       y="0"
       inkscape:label="1"
       id="page1"
       width="453.77066"
       height="73.477333"
       margin="0"
       bleed="0" />
  </sodipodi:namedview>
  <g
     id="g1"
     inkscape:groupmode="layer"
     inkscape:label="1">
    <path
       id="path1"
       d="M 0,0 H 340.328 V 55.108 H 0 Z"
       style="fill:#ffffff;fill-opacity:1;fill-rule:nonzero;stroke:none"
       transform="matrix(1.3333333,0,0,-1.3333333,0,73.477333)" />
    <path
       id="path2"
       d="m -20.12482,-20.12482 h 40.24964 m -40.24964,10.06241 H 20.12482 M -20.12482,0 h 40.24964 m -40.24964,10.06238 h 40.24964 m -40.24964,10.06241 h 40.24964 m -40.24964,-40.24961 v 40.24964 m 10.06241,-40.24964 V 20.12482 M 0,-20.12482 v 40.24964 m 10.06238,-40.24964 v 40.24964 m 10.06241,-40.24964 v 40.24964"
       style="fill:none;stroke:#404040;stroke-width:0.19925;stroke-linecap:butt;stroke-linejoin:miter;stroke-miterlimit:10;stroke-dasharray:none;stroke-opacity:1"
       transform="matrix(1.3333333,0,0,-1.3333333,27.632,27.633333)" />
    <path
       id="path3"
       d="m -20.12482,-20.12482 h 40.24964 m -40.24964,10.06241 H 20.12482 M -20.12482,0 h 40.24964 m -40.24964,10.06238 h 40.24964 m -40.24964,10.06241 h 40.24964 m -40.24964,-40.24961 v 40.24964 m 10.06241,-40.24964 V 20.12482 M 0,-20.12482 v 40.24964 m 10.06238,-40.24964 v 40.24964 m 10.06241,-40.24964 v 40.24964"
       style="fill:none;stroke:#404040;stroke-width:0.19925;stroke-linecap:butt;stroke-linejoin:miter;stroke-miterlimit:10;stroke-dasharray:none;stroke-opacity:1"
       transform="matrix(1.3333333,0,0,-1.3333333,27.632,27.633333)" />
    <path
       id="path4"
       d="m -20.12482,-20.12482 h 40.24964 m -40.24964,10.06241 H 20.12482 M -20.12482,0 h 40.24964 m -40.24964,10.06238 h 40.24964 m -40.24964,10.06241 h 40.24964 m -40.24964,-40.24961 v 40.24964 m 10.06241,-40.24964 V 20.12482 M 0,-20.12482 v 40.24964 m 10.06238,-40.24964 v 40.24964 m 10.06241,-40.24964 v 40.24964"
       style="fill:none;stroke:#404040;stroke-width:0.19925;stroke-linecap:butt;stroke-linejoin:miter;stroke-miterlimit:10;stroke-dasharray:none;stroke-opacity:1"
       transform="matrix(1.3333333,0,0,-1.3333333,27.632,27.633333)" />
    <path
       id="path5"
       d="m -20.12482,-20.12482 h 40.24964 m -40.24964,10.06241 H 20.12482 M -20.12482,0 h 40.24964 m -40.24964,10.06238 h 40.24964 m -40.24964,10.06241 h 40.24964 m -40.24964,-40.24961 v 40.24964 m 10.06241,-40.24964 V 20.12482 M 0,-20.12482 v 40.24964 m 10.06238,-40.24964 v 40.24964 m 10.06241,-40.24964 v 40.24964"
       style="fill:none;stroke:#404040;stroke-width:0.19925;stroke-linecap:butt;stroke-linejoin:miter;stroke-miterlimit:10;stroke-dasharray:none;stroke-opacity:1"
       transform="matrix(1.3333333,0,0,-1.3333333,27.632,27.633333)" />
    <path
       id="path6"
       d="m -20.12482,-20.12482 h 40.24964 m -40.24964,10.06241 H 20.12482 M -20.12482,0 h 40.24964 m -40.24964,10.06238 h 40.24964 m -40.24964,10.06241 h 40.24964 m -40.24964,-40.24961 v 40.24964 m 10.06241,-40.24964 V 20.12482 M 0,-20.12482 v 40.24964 m 10.06238,-40.24964 v 40.24964 m 10.06241,-40.24964 v 40.24964"
       style="fill:none;stroke:#404040;stroke-width:0.19925;stroke-linecap:butt;stroke-linejoin:miter;stroke-miterlimit:10;stroke-dasharray:none;stroke-opacity:1"
       transform="matrix(1.3333333,0,0,-1.3333333,27.632,27.633333)" />
    <path
       id="path7"
       d="m -20.12482,-20.12482 h 40.24964 m -40.24964,10.06241 H 20.12482 M -20.12482,0 h 40.24964 m -40.24964,10.06238 h 40.24964 m -40.24964,10.06241 h 40.24964 m -40.24964,-40.24961 v 40.24964 m 10.06241,-40.24964 V 20.12482 M 0,-20.12482 v 40.24964 m 10.06238,-40.24964 v 40.24964 m 10.06241,-40.24964 v 40.24964"
       style="fill:none;stroke:#404040;stroke-width:0.19925;stroke-linecap:butt;stroke-linejoin:miter;stroke-miterlimit:10;stroke-dasharray:none;stroke-opacity:1"
       transform="matrix(1.3333333,0,0,-1.3333333,27.632,27.633333)" />
    <path
       id="path8"
       d="m -20.12482,-20.12482 h 40.24964 m -40.24964,10.06241 H 20.12482 M -20.12482,0 h 40.24964 m -40.24964,10.06238 h 40.24964 m -40.24964,10.06241 h 40.24964 m -40.24964,-40.24961 v 40.24964 m 10.06241,-40.24964 V 20.12482 M 0,-20.12482 v 40.24964 m 10.06238,-40.24964 v 40.24964 m 10.06241,-40.24964 v 40.24964"
       style="fill:none;stroke:#404040;stroke-width:0.19925;stroke-linecap:butt;stroke-linejoin:miter;stroke-miterlimit:10;stroke-dasharray:none;stroke-opacity:1"
       transform="matrix(1.3333333,0,0,-1.3333333,27.632,27.633333)" />
    <path
       id="path9"
       d="m -20.12482,-20.12482 h 40.24964 m -40.24964,10.06241 H 20.12482 M -20.12482,0 h 40.24964 m -40.24964,10.06238 h 40.24964 m -40.24964,10.06241 h 40.24964 m -40.24964,-40.24961 v 40.24964 m 10.06241,-40.24964 V 20.12482 M 0,-20.12482 v 40.24964 m 10.06238,-40.24964 v 40.24964 m 10.06241,-40.24964 v 40.24964"
       style="fill:none;stroke:#404040;stroke-width:0.19925;stroke-linecap:butt;stroke-linejoin:miter;stroke-miterlimit:10;stroke-dasharray:none;stroke-opacity:1"
       transform="matrix(1.3333333,0,0,-1.3333333,27.632,27.633333)" />
    <path
       id="path10"
       d="m -20.075,0.0498 h 9.96277 v 9.96277 H -20.075 Z"
       style="fill:#808080;fill-opacity:1;fill-rule:nonzero;stroke:none"
       transform="matrix(1.3333333,0,0,-1.3333333,27.632,27.633333)" />
    <path
       id="path11"
       d="m -20.12482,-20.12482 h 40.24964 m -40.24964,10.06241 H 20.12482 M -20.12482,0 h 40.24964 m -40.24964,10.06238 h 40.24964 m -40.24964,10.06241 h 40.24964 m -40.24964,-40.24961 v 40.24964 m 10.06241,-40.24964 V 20.12482 M 0,-20.12482 v 40.24964 m 10.06238,-40.24964 v 40.24964 m 10.06241,-40.24964 v 40.24964"
       style="fill:none;stroke:#404040;stroke-width:0.19925;stroke-linecap:butt;stroke-linejoin:miter;stroke-miterlimit:10;stroke-dasharray:none;stroke-opacity:1"
       transform="matrix(1.3333333,0,0,-1.3333333,27.632,27.633333)" />
    <path
       id="path12"
       d="m -10.01259,0.0498 h 9.96277 v 9.96277 h -9.96277 z"
       style="fill:#808080;fill-opacity:1;fill-rule:nonzero;stroke:none"
       transform="matrix(1.3333333,0,0,-1.3333333,27.632,27.633333)" />
    <path
       id="path13"
       d="m -20.12482,-20.12482 h 40.24964 m -40.24964,10.06241 H 20.12482 M -20.12482,0 h 40.24964 m -40.24964,10.06238 h 40.24964 m -40.24964,10.06241 h 40.24964 m -40.24964,-40.24961 v 40.24964 m 10.06241,-40.24964 V 20.12482 M 0,-20.12482 v 40.24964 m 10.06238,-40.24964 v 40.24964 m 10.06241,-40.24964 v 40.24964"
       style="fill:none;stroke:#404040;stroke-width:0.19925;stroke-linecap:butt;stroke-linejoin:miter;stroke-miterlimit:10;stroke-dasharray:none;stroke-opacity:1"
       transform="matrix(1.3333333,0,0,-1.3333333,27.632,27.633333)" />
    <path
       id="path14"
       d="m 0.0498,0.0498 h 9.96277 v 9.96277 H 0.0498 Z"
       style="fill:#808080;fill-opacity:1;fill-rule:nonzero;stroke:none"
       transform="matrix(1.3333333,0,0,-1.3333333,27.632,27.633333)" />
    <path
       id="path15"
       d="m -20.12482,-20.12482 h 40.24964 m -40.24964,10.06241 H 20.12482 M -20.12482,0 h 40.24964 m -40.24964,10.06238 h 40.24964 m -40.24964,10.06241 h 40.24964 m -40.24964,-40.24961 v 40.24964 m 10.06241,-40.24964 V 20.12482 M 0,-20.12482 v 40.24964 m 10.06238,-40.24964 v 40.24964 m 10.06241,-40.24964 v 40.24964"
       style="fill:none;stroke:#404040;stroke-width:0.19925;stroke-linecap:butt;stroke-linejoin:miter;stroke-miterlimit:10;stroke-dasharray:none;stroke-opacity:1"
       transform="matrix(1.3333333,0,0,-1.3333333,27.632,27.633333)" />
    <path
       id="path16"
       d="m -20.12482,-20.12482 h 40.24964 m -40.24964,10.06241 H 20.12482 M -20.12482,0 h 40.24964 m -40.24964,10.06238 h 40.24964 m -40.24964,10.06241 h 40.24964 m -40.24964,-40.24961 v 40.24964 m 10.06241,-40.24964 V 20.12482 M 0,-20.12482 v 40.24964 m 10.06238,-40.24964 v 40.24964 m 10.06241,-40.24964 v 40.24964"
       style="fill:none;stroke:#404040;stroke-width:0.19925;stroke-linecap:butt;stroke-linejoin:miter;stroke-miterlimit:10;stroke-dasharray:none;stroke-opacity:1"
       transform="matrix(1.3333333,0,0,-1.3333333,27.632,27.633333)" />
    <path
       id="path17"
       d="m -20.12482,-20.12482 h 40.24964 m -40.24964,10.06241 H 20.12482 M -20.12482,0 h 40.24964 m -40.24964,10.06238 h 40.24964 m -40.24964,10.06241 h 40.24964 m -40.24964,-40.24961 v 40.24964 m 10.06241,-40.24964 V 20.12482 M 0,-20.12482 v 40.24964 m 10.06238,-40.24964 v 40.24964 m 10.06241,-40.24964 v 40.24964"
       style="fill:none;stroke:#404040;stroke-width:0.19925;stroke-linecap:butt;stroke-linejoin:miter;stroke-miterlimit:10;stroke-dasharray:none;stroke-opacity:1"
       transform="matrix(1.3333333,0,0,-1.3333333,27.632,27.633333)" />
    <path
       id="path18"
       d="m -10.01259,10.11221 h 9.96277 v 9.96277 h -9.96277 z"
       style="fill:#808080;fill-opacity:1;fill-rule:nonzero;stroke:none"
       transform="matrix(1.3333333,0,0,-1.3333333,27.632,27.633333)" />
    <path
       id="path19"
       d="m -20.12482,-20.12482 h 40.24964 m -40.24964,10.06241 H 20.12482 M -20.12482,0 h 40.24964 m -40.24964,10.06238 h 40.24964 m -40.24964,10.06241 h 40.24964 m -40.24964,-40.24961 v 40.24964 m 10.06241,-40.24964 V 20.12482 M 0,-20.12482 v 40.24964 m 10.06238,-40.24964 v 40.24964 m 10.06241,-40.24964 v 40.24964"
       style="fill:none;stroke:#404040;stroke-width:0.19925;stroke-linecap:butt;stroke-linejoin:miter;stroke-miterlimit:10;stroke-dasharray:none;stroke-opacity:1"
       transform="matrix(1.3333333,0,0,-1.3333333,27.632,27.633333)" />
    <path
       id="path20"
       d="m -20.12482,-20.12482 h 40.24964 m -40.24964,10.06241 H 20.12482 M -20.12482,0 h 40.24964 m -40.24964,10.06238 h 40.24964 m -40.24964,10.06241 h 40.24964 m -40.24964,-40.24961 v 40.24964 m 10.06241,-40.24964 V 20.12482 M 0,-20.12482 v 40.24964 m 10.06238,-40.24964 v 40.24964 m 10.06241,-40.24964 v 40.24964"
       style="fill:none;stroke:#404040;stroke-width:0.19925;stroke-linecap:butt;stroke-linejoin:miter;stroke-miterlimit:10;stroke-dasharray:none;stroke-opacity:1"
       transform="matrix(1.3333333,0,0,-1.3333333,27.632,27.633333)" />
    <path
       id="path21"
       d="m -20.12482,-20.12482 h 40.24964 m -40.24964,10.06241 H 20.12482 M -20.12482,0 h 40.24964 m -40.24964,10.06238 h 40.24964 m -40.24964,10.06241 h 40.24964 m -40.24964,-40.24961 v 40.24964 m 10.06241,-40.24964 V 20.12482 M 0,-20.12482 v 40.24964 m 10.06238,-40.24964 v 40.24964 m 10.06241,-40.24964 v 40.24964"
       style="fill:none;stroke:#404040;stroke-width:0.19925;stroke-linecap:butt;stroke-linejoin:miter;stroke-miterlimit:10;stroke-dasharray:none;stroke-opacity:1"
       transform="matrix(1.3333333,0,0,-1.3333333,27.632,27.633333)" />
    <path
       id="path22"
       d="M 29.68909,-20.12482 H 69.93874 M 29.68909,-10.06241 H 69.93874 M 29.68909,0 H 69.93874 M 29.68909,10.06238 H 69.93874 M 29.68909,20.12479 H 69.93874 M 29.68909,-20.12482 V 20.12482 M 39.7515,-20.12482 V 20.12482 M 49.81389,-20.12482 V 20.12482 M 59.8763,-20.12482 v 40.24964 m 10.0624,-40.24964 v 40.24964"
       style="fill:none;stroke:#404040;stroke-width:0.19925;stroke-linecap:butt;stroke-linejoin:miter;stroke-miterlimit:10;stroke-dasharray:none;stroke-opacity:1"
       transform="matrix(1.3333333,0,0,-1.3333333,27.632,27.633333)" />
    <path
       id="path23"
       d="m 39.80132,-20.075 h 9.96277 v 9.96277 h -9.96277 z"
       style="fill:#808080;fill-opacity:1;fill-rule:nonzero;stroke:none"
       transform="matrix(1.3333333,0,0,-1.3333333,27.632,27.633333)" />
    <path
       id="path24"
       d="M 29.68909,-20.12482 H 69.93874 M 29.68909,-10.06241 H 69.93874 M 29.68909,0 H 69.93874 M 29.68909,10.06238 H 69.93874 M 29.68909,20.12479 H 69.93874 M 29.68909,-20.12482 V 20.12482 M 39.7515,-20.12482 V 20.12482 M 49.81389,-20.12482 V 20.12482 M 59.8763,-20.12482 v 40.24964 m 10.0624,-40.24964 v 40.24964"
       style="fill:none;stroke:#404040;stroke-width:0.19925;stroke-linecap:butt;stroke-linejoin:miter;stroke-miterlimit:10;stroke-dasharray:none;stroke-opacity:1"
       transform="matrix(1.3333333,0,0,-1.3333333,27.632,27.633333)" />
    <path
       id="path25"
       d="M 29.68909,-20.12482 H 69.93874 M 29.68909,-10.06241 H 69.93874 M 29.68909,0 H 69.93874 M 29.68909,10.06238 H 69.93874 M 29.68909,20.12479 H 69.93874 M 29.68909,-20.12482 V 20.12482 M 39.7515,-20.12482 V 20.12482 M 49.81389,-20.12482 V 20.12482 M 59.8763,-20.12482 v 40.24964 m 10.0624,-40.24964 v 40.24964"
       style="fill:none;stroke:#404040;stroke-width:0.19925;stroke-linecap:butt;stroke-linejoin:miter;stroke-miterlimit:10;stroke-dasharray:none;stroke-opacity:1"
       transform="matrix(1.3333333,0,0,-1.3333333,27.632,27.633333)" />
    <path
       id="path26"
       d="M 29.68909,-20.12482 H 69.93874 M 29.68909,-10.06241 H 69.93874 M 29.68909,0 H 69.93874 M 29.68909,10.06238 H 69.93874 M 29.68909,20.12479 H 69.93874 M 29.68909,-20.12482 V 20.12482 M 39.7515,-20.12482 V 20.12482 M 49.81389,-20.12482 V 20.12482 M 59.8763,-20.12482 v 40.24964 m 10.0624,-40.24964 v 40.24964"
       style="fill:none;stroke:#404040;stroke-width:0.19925;stroke-linecap:butt;stroke-linejoin:miter;stroke-miterlimit:10;stroke-dasharray:none;stroke-opacity:1"
       transform="matrix(1.3333333,0,0,-1.3333333,27.632,27.633333)" />
    <path
       id="path27"
       d="M 29.68909,-20.12482 H 69.93874 M 29.68909,-10.06241 H 69.93874 M 29.68909,0 H 69.93874 M 29.68909,10.06238 H 69.93874 M 29.68909,20.12479 H 69.93874 M 29.68909,-20.12482 V 20.12482 M 39.7515,-20.12482 V 20.12482 M 49.81389,-20.12482 V 20.12482 M 59.8763,-20.12482 v 40.24964 m 10.0624,-40.24964 v 40.24964"
       style="fill:none;stroke:#404040;stroke-width:0.19925;stroke-linecap:butt;stroke-linejoin:miter;stroke-miterlimit:10;stroke-dasharray:none;stroke-opacity:1"
       transform="matrix(1.3333333,0,0,-1.3333333,27.632,27.633333)" />
    <path
       id="path28"
       d="m 39.80132,-10.01259 h 9.96277 v 9.96277 h -9.96277 z"
       style="fill:#808080;fill-opacity:1;fill-rule:nonzero;stroke:none"
       transform="matrix(1.3333333,0,0,-1.3333333,27.632,27.633333)" />
    <path
       id="path29"
       d="M 29.68909,-20.12482 H 69.93874 M 29.68909,-10.06241 H 69.93874 M 29.68909,0 H 69.93874 M 29.68909,10.06238 H 69.93874 M 29.68909,20.12479 H 69.93874 M 29.68909,-20.12482 V 20.12482 M 39.7515,-20.12482 V 20.12482 M 49.81389,-20.12482 V 20.12482 M 59.8763,-20.12482 v 40.24964 m 10.0624,-40.24964 v 40.24964"
       style="fill:none;stroke:#404040;stroke-width:0.19925;stroke-linecap:butt;stroke-linejoin:miter;stroke-miterlimit:10;stroke-dasharray:none;stroke-opacity:1"
       transform="matrix(1.3333333,0,0,-1.3333333,27.632,27.633333)" />
    <path
       id="path30"
       d="M 29.68909,-20.12482 H 69.93874 M 29.68909,-10.06241 H 69.93874 M 29.68909,0 H 69.93874 M 29.68909,10.06238 H 69.93874 M 29.68909,20.12479 H 69.93874 M 29.68909,-20.12482 V 20.12482 M 39.7515,-20.12482 V 20.12482 M 49.81389,-20.12482 V 20.12482 M 59.8763,-20.12482 v 40.24964 m 10.0624,-40.24964 v 40.24964"
       style="fill:none;stroke:#404040;stroke-width:0.19925;stroke-linecap:butt;stroke-linejoin:miter;stroke-miterlimit:10;stroke-dasharray:none;stroke-opacity:1"
       transform="matrix(1.3333333,0,0,-1.3333333,27.632,27.633333)" />
    <path
       id="path31"
       d="M 29.68909,-20.12482 H 69.93874 M 29.68909,-10.06241 H 69.93874 M 29.68909,0 H 69.93874 M 29.68909,10.06238 H 69.93874 M 29.68909,20.12479 H 69.93874 M 29.68909,-20.12482 V 20.12482 M 39.7515,-20.12482 V 20.12482 M 49.81389,-20.12482 V 20.12482 M 59.8763,-20.12482 v 40.24964 m 10.0624,-40.24964 v 40.24964"
       style="fill:none;stroke:#404040;stroke-width:0.19925;stroke-linecap:butt;stroke-linejoin:miter;stroke-miterlimit:10;stroke-dasharray:none;stroke-opacity:1"
       transform="matrix(1.3333333,0,0,-1.3333333,27.632,27.633333)" />
    <path
       id="path32"
       d="M 29.68909,-20.12482 H 69.93874 M 29.68909,-10.06241 H 69.93874 M 29.68909,0 H 69.93874 M 29.68909,10.06238 H 69.93874 M 29.68909,20.12479 H 69.93874 M 29.68909,-20.12482 V 20.12482 M 39.7515,-20.12482 V 20.12482 M 49.81389,-20.12482 V 20.12482 M 59.8763,-20.12482 v 40.24964 m 10.0624,-40.24964 v 40.24964"
       style="fill:none;stroke:#404040;stroke-width:0.19925;stroke-linecap:butt;stroke-linejoin:miter;stroke-miterlimit:10;stroke-dasharray:none;stroke-opacity:1"
       transform="matrix(1.3333333,0,0,-1.3333333,27.632,27.633333)" />
    <path
       id="path33"
       d="m 39.80132,0.0498 h 9.96277 v 9.96277 h -9.96277 z"
       style="fill:#808080;fill-opacity:1;fill-rule:nonzero;stroke:none"
       transform="matrix(1.3333333,0,0,-1.3333333,27.632,27.633333)" />
    <path
       id="path34"
       d="M 29.68909,-20.12482 H 69.93874 M 29.68909,-10.06241 H 69.93874 M 29.68909,0 H 69.93874 M 29.68909,10.06238 H 69.93874 M 29.68909,20.12479 H 69.93874 M 29.68909,-20.12482 V 20.12482 M 39.7515,-20.12482 V 20.12482 M 49.81389,-20.12482 V 20.12482 M 59.8763,-20.12482 v 40.24964 m 10.0624,-40.24964 v 40.24964"
       style="fill:none;stroke:#404040;stroke-width:0.19925;stroke-linecap:butt;stroke-linejoin:miter;stroke-miterlimit:10;stroke-dasharray:none;stroke-opacity:1"
       transform="matrix(1.3333333,0,0,-1.3333333,27.632,27.633333)" />
    <path
       id="path35"
       d="M 29.68909,-20.12482 H 69.93874 M 29.68909,-10.06241 H 69.93874 M 29.68909,0 H 69.93874 M 29.68909,10.06238 H 69.93874 M 29.68909,20.12479 H 69.93874 M 29.68909,-20.12482 V 20.12482 M 39.7515,-20.12482 V 20.12482 M 49.81389,-20.12482 V 20.12482 M 59.8763,-20.12482 v 40.24964 m 10.0624,-40.24964 v 40.24964"
       style="fill:none;stroke:#404040;stroke-width:0.19925;stroke-linecap:butt;stroke-linejoin:miter;stroke-miterlimit:10;stroke-dasharray:none;stroke-opacity:1"
       transform="matrix(1.3333333,0,0,-1.3333333,27.632,27.633333)" />
    <path
       id="path36"
       d="M 29.68909,-20.12482 H 69.93874 M 29.68909,-10.06241 H 69.93874 M 29.68909,0 H 69.93874 M 29.68909,10.06238 H 69.93874 M 29.68909,20.12479 H 69.93874 M 29.68909,-20.12482 V 20.12482 M 39.7515,-20.12482 V 20.12482 M 49.81389,-20.12482 V 20.12482 M 59.8763,-20.12482 v 40.24964 m 10.0624,-40.24964 v 40.24964"
       style="fill:none;stroke:#404040;stroke-width:0.19925;stroke-linecap:butt;stroke-linejoin:miter;stroke-miterlimit:10;stroke-dasharray:none;stroke-opacity:1"
       transform="matrix(1.3333333,0,0,-1.3333333,27.632,27.633333)" />
    <path
       id="path37"
       d="M 29.68909,-20.12482 H 69.93874 M 29.68909,-10.06241 H 69.93874 M 29.68909,0 H 69.93874 M 29.68909,10.06238 H 69.93874 M 29.68909,20.12479 H 69.93874 M 29.68909,-20.12482 V 20.12482 M 39.7515,-20.12482 V 20.12482 M 49.81389,-20.12482 V 20.12482 M 59.8763,-20.12482 v 40.24964 m 10.0624,-40.24964 v 40.24964"
       style="fill:none;stroke:#404040;stroke-width:0.19925;stroke-linecap:butt;stroke-linejoin:miter;stroke-miterlimit:10;stroke-dasharray:none;stroke-opacity:1"
       transform="matrix(1.3333333,0,0,-1.3333333,27.632,27.633333)" />
    <path
       id="path38"
       d="m 39.80132,10.11221 h 9.96277 v 9.96277 h -9.96277 z"
       style="fill:#808080;fill-opacity:1;fill-rule:nonzero;stroke:none"
       transform="matrix(1.3333333,0,0,-1.3333333,27.632,27.633333)" />
    <path
       id="path39"
       d="M 29.68909,-20.12482 H 69.93874 M 29.68909,-10.06241 H 69.93874 M 29.68909,0 H 69.93874 M 29.68909,10.06238 H 69.93874 M 29.68909,20.12479 H 69.93874 M 29.68909,-20.12482 V 20.12482 M 39.7515,-20.12482 V 20.12482 M 49.81389,-20.12482 V 20.12482 M 59.8763,-20.12482 v 40.24964 m 10.0624,-40.24964 v 40.24964"
       style="fill:none;stroke:#404040;stroke-width:0.19925;stroke-linecap:butt;stroke-linejoin:miter;stroke-miterlimit:10;stroke-dasharray:none;stroke-opacity:1"
       transform="matrix(1.3333333,0,0,-1.3333333,27.632,27.633333)" />
    <path
       id="path40"
       d="M 29.68909,-20.12482 H 69.93874 M 29.68909,-10.06241 H 69.93874 M 29.68909,0 H 69.93874 M 29.68909,10.06238 H 69.93874 M 29.68909,20.12479 H 69.93874 M 29.68909,-20.12482 V 20.12482 M 39.7515,-20.12482 V 20.12482 M 49.81389,-20.12482 V 20.12482 M 59.8763,-20.12482 v 40.24964 m 10.0624,-40.24964 v 40.24964"
       style="fill:none;stroke:#404040;stroke-width:0.19925;stroke-linecap:butt;stroke-linejoin:miter;stroke-miterlimit:10;stroke-dasharray:none;stroke-opacity:1"
       transform="matrix(1.3333333,0,0,-1.3333333,27.632,27.633333)" />
    <path
       id="path41"
       d="M 29.68909,-20.12482 H 69.93874 M 29.68909,-10.06241 H 69.93874 M 29.68909,0 H 69.93874 M 29.68909,10.06238 H 69.93874 M 29.68909,20.12479 H 69.93874 M 29.68909,-20.12482 V 20.12482 M 39.7515,-20.12482 V 20.12482 M 49.81389,-20.12482 V 20.12482 M 59.8763,-20.12482 v 40.24964 m 10.0624,-40.24964 v 40.24964"
       style="fill:none;stroke:#404040;stroke-width:0.19925;stroke-linecap:butt;stroke-linejoin:miter;stroke-miterlimit:10;stroke-dasharray:none;stroke-opacity:1"
       transform="matrix(1.3333333,0,0,-1.3333333,27.632,27.633333)" />
    <path
       id="path42"
       d="m 79.503,-20.12482 h 40.24966 M 79.503,-10.06241 h 40.24966 M 79.503,0 h 40.24966 M 79.503,10.06238 h 40.24966 M 79.503,20.12479 h 40.24966 M 79.503,-20.12482 V 20.12482 M 89.56541,-20.12482 V 20.12482 M 99.6278,-20.12482 v 40.24964 m 10.06242,-40.24964 v 40.24964 m 10.0624,-40.24964 v 40.24964"
       style="fill:none;stroke:#404040;stroke-width:0.19925;stroke-linecap:butt;stroke-linejoin:miter;stroke-miterlimit:10;stroke-dasharray:none;stroke-opacity:1"
       transform="matrix(1.3333333,0,0,-1.3333333,27.632,27.633333)" />
    <path
       id="path43"
       d="m 79.503,-20.12482 h 40.24966 M 79.503,-10.06241 h 40.24966 M 79.503,0 h 40.24966 M 79.503,10.06238 h 40.24966 M 79.503,20.12479 h 40.24966 M 79.503,-20.12482 V 20.12482 M 89.56541,-20.12482 V 20.12482 M 99.6278,-20.12482 v 40.24964 m 10.06242,-40.24964 v 40.24964 m 10.0624,-40.24964 v 40.24964"
       style="fill:none;stroke:#404040;stroke-width:0.19925;stroke-linecap:butt;stroke-linejoin:miter;stroke-miterlimit:10;stroke-dasharray:none;stroke-opacity:1"
       transform="matrix(1.3333333,0,0,-1.3333333,27.632,27.633333)" />
    <path
       id="path44"
       d="m 79.503,-20.12482 h 40.24966 M 79.503,-10.06241 h 40.24966 M 79.503,0 h 40.24966 M 79.503,10.06238 h 40.24966 M 79.503,20.12479 h 40.24966 M 79.503,-20.12482 V 20.12482 M 89.56541,-20.12482 V 20.12482 M 99.6278,-20.12482 v 40.24964 m 10.06242,-40.24964 v 40.24964 m 10.0624,-40.24964 v 40.24964"
       style="fill:none;stroke:#404040;stroke-width:0.19925;stroke-linecap:butt;stroke-linejoin:miter;stroke-miterlimit:10;stroke-dasharray:none;stroke-opacity:1"
       transform="matrix(1.3333333,0,0,-1.3333333,27.632,27.633333)" />
    <path
       id="path45"
       d="m 79.503,-20.12482 h 40.24966 M 79.503,-10.06241 h 40.24966 M 79.503,0 h 40.24966 M 79.503,10.06238 h 40.24966 M 79.503,20.12479 h 40.24966 M 79.503,-20.12482 V 20.12482 M 89.56541,-20.12482 V 20.12482 M 99.6278,-20.12482 v 40.24964 m 10.06242,-40.24964 v 40.24964 m 10.0624,-40.24964 v 40.24964"
       style="fill:none;stroke:#404040;stroke-width:0.19925;stroke-linecap:butt;stroke-linejoin:miter;stroke-miterlimit:10;stroke-dasharray:none;stroke-opacity:1"
       transform="matrix(1.3333333,0,0,-1.3333333,27.632,27.633333)" />
    <path
       id="path46"
       d="m 79.503,-20.12482 h 40.24966 M 79.503,-10.06241 h 40.24966 M 79.503,0 h 40.24966 M 79.503,10.06238 h 40.24966 M 79.503,20.12479 h 40.24966 M 79.503,-20.12482 V 20.12482 M 89.56541,-20.12482 V 20.12482 M 99.6278,-20.12482 v 40.24964 m 10.06242,-40.24964 v 40.24964 m 10.0624,-40.24964 v 40.24964"
       style="fill:none;stroke:#404040;stroke-width:0.19925;stroke-linecap:butt;stroke-linejoin:miter;stroke-miterlimit:10;stroke-dasharray:none;stroke-opacity:1"
       transform="matrix(1.3333333,0,0,-1.3333333,27.632,27.633333)" />
    <path
       id="path47"
       d="M 89.61523,-10.01259 H 99.578 v 9.96277 h -9.96277 z"
       style="fill:#808080;fill-opacity:1;fill-rule:nonzero;stroke:none"
       transform="matrix(1.3333333,0,0,-1.3333333,27.632,27.633333)" />
    <path
       id="path48"
       d="m 79.503,-20.12482 h 40.24966 M 79.503,-10.06241 h 40.24966 M 79.503,0 h 40.24966 M 79.503,10.06238 h 40.24966 M 79.503,20.12479 h 40.24966 M 79.503,-20.12482 V 20.12482 M 89.56541,-20.12482 V 20.12482 M 99.6278,-20.12482 v 40.24964 m 10.06242,-40.24964 v 40.24964 m 10.0624,-40.24964 v 40.24964"
       style="fill:none;stroke:#404040;stroke-width:0.19925;stroke-linecap:butt;stroke-linejoin:miter;stroke-miterlimit:10;stroke-dasharray:none;stroke-opacity:1"
       transform="matrix(1.3333333,0,0,-1.3333333,27.632,27.633333)" />
    <path
       id="path49"
       d="m 99.67764,-10.01259 h 9.96277 v 9.96277 h -9.96277 z"
       style="fill:#808080;fill-opacity:1;fill-rule:nonzero;stroke:none"
       transform="matrix(1.3333333,0,0,-1.3333333,27.632,27.633333)" />
    <path
       id="path50"
       d="m 79.503,-20.12482 h 40.24966 M 79.503,-10.06241 h 40.24966 M 79.503,0 h 40.24966 M 79.503,10.06238 h 40.24966 M 79.503,20.12479 h 40.24966 M 79.503,-20.12482 V 20.12482 M 89.56541,-20.12482 V 20.12482 M 99.6278,-20.12482 v 40.24964 m 10.06242,-40.24964 v 40.24964 m 10.0624,-40.24964 v 40.24964"
       style="fill:none;stroke:#404040;stroke-width:0.19925;stroke-linecap:butt;stroke-linejoin:miter;stroke-miterlimit:10;stroke-dasharray:none;stroke-opacity:1"
       transform="matrix(1.3333333,0,0,-1.3333333,27.632,27.633333)" />
    <path
       id="path51"
       d="m 79.503,-20.12482 h 40.24966 M 79.503,-10.06241 h 40.24966 M 79.503,0 h 40.24966 M 79.503,10.06238 h 40.24966 M 79.503,20.12479 h 40.24966 M 79.503,-20.12482 V 20.12482 M 89.56541,-20.12482 V 20.12482 M 99.6278,-20.12482 v 40.24964 m 10.06242,-40.24964 v 40.24964 m 10.0624,-40.24964 v 40.24964"
       style="fill:none;stroke:#404040;stroke-width:0.19925;stroke-linecap:butt;stroke-linejoin:miter;stroke-miterlimit:10;stroke-dasharray:none;stroke-opacity:1"
       transform="matrix(1.3333333,0,0,-1.3333333,27.632,27.633333)" />
    <path
       id="path52"
       d="m 79.503,-20.12482 h 40.24966 M 79.503,-10.06241 h 40.24966 M 79.503,0 h 40.24966 M 79.503,10.06238 h 40.24966 M 79.503,20.12479 h 40.24966 M 79.503,-20.12482 V 20.12482 M 89.56541,-20.12482 V 20.12482 M 99.6278,-20.12482 v 40.24964 m 10.06242,-40.24964 v 40.24964 m 10.0624,-40.24964 v 40.24964"
       style="fill:none;stroke:#404040;stroke-width:0.19925;stroke-linecap:butt;stroke-linejoin:miter;stroke-miterlimit:10;stroke-dasharray:none;stroke-opacity:1"
       transform="matrix(1.3333333,0,0,-1.3333333,27.632,27.633333)" />
    <path
       id="path53"
       d="M 89.61523,0.0498 H 99.578 v 9.96277 h -9.96277 z"
       style="fill:#808080;fill-opacity:1;fill-rule:nonzero;stroke:none"
       transform="matrix(1.3333333,0,0,-1.3333333,27.632,27.633333)" />
    <path
       id="path54"
       d="m 79.503,-20.12482 h 40.24966 M 79.503,-10.06241 h 40.24966 M 79.503,0 h 40.24966 M 79.503,10.06238 h 40.24966 M 79.503,20.12479 h 40.24966 M 79.503,-20.12482 V 20.12482 M 89.56541,-20.12482 V 20.12482 M 99.6278,-20.12482 v 40.24964 m 10.06242,-40.24964 v 40.24964 m 10.0624,-40.24964 v 40.24964"
       style="fill:none;stroke:#404040;stroke-width:0.19925;stroke-linecap:butt;stroke-linejoin:miter;stroke-miterlimit:10;stroke-dasharray:none;stroke-opacity:1"
       transform="matrix(1.3333333,0,0,-1.3333333,27.632,27.633333)" />
    <path
       id="path55"
       d="m 99.67764,0.0498 h 9.96277 v 9.96277 h -9.96277 z"
       style="fill:#808080;fill-opacity:1;fill-rule:nonzero;stroke:none"
       transform="matrix(1.3333333,0,0,-1.3333333,27.632,27.633333)" />
    <path
       id="path56"
       d="m 79.503,-20.12482 h 40.24966 M 79.503,-10.06241 h 40.24966 M 79.503,0 h 40.24966 M 79.503,10.06238 h 40.24966 M 79.503,20.12479 h 40.24966 M 79.503,-20.12482 V 20.12482 M 89.56541,-20.12482 V 20.12482 M 99.6278,-20.12482 v 40.24964 m 10.06242,-40.24964 v 40.24964 m 10.0624,-40.24964 v 40.24964"
       style="fill:none;stroke:#404040;stroke-width:0.19925;stroke-linecap:butt;stroke-linejoin:miter;stroke-miterlimit:10;stroke-dasharray:none;stroke-opacity:1"
       transform="matrix(1.3333333,0,0,-1.3333333,27.632,27.633333)" />
    <path
       id="path57"
       d="m 79.503,-20.12482 h 40.24966 M 79.503,-10.06241 h 40.24966 M 79.503,0 h 40.24966 M 79.503,10.06238 h 40.24966 M 79.503,20.12479 h 40.24966 M 79.503,-20.12482 V 20.12482 M 89.56541,-20.12482 V 20.12482 M 99.6278,-20.12482 v 40.24964 m 10.06242,-40.24964 v 40.24964 m 10.0624,-40.24964 v 40.24964"
       style="fill:none;stroke:#404040;stroke-width:0.19925;stroke-linecap:butt;stroke-linejoin:miter;stroke-miterlimit:10;stroke-dasharray:none;stroke-opacity:1"
       transform="matrix(1.3333333,0,0,-1.3333333,27.632,27.633333)" />
    <path
       id="path58"
       d="m 79.503,-20.12482 h 40.24966 M 79.503,-10.06241 h 40.24966 M 79.503,0 h 40.24966 M 79.503,10.06238 h 40.24966 M 79.503,20.12479 h 40.24966 M 79.503,-20.12482 V 20.12482 M 89.56541,-20.12482 V 20.12482 M 99.6278,-20.12482 v 40.24964 m 10.06242,-40.24964 v 40.24964 m 10.0624,-40.24964 v 40.24964"
       style="fill:none;stroke:#404040;stroke-width:0.19925;stroke-linecap:butt;stroke-linejoin:miter;stroke-miterlimit:10;stroke-dasharray:none;stroke-opacity:1"
       transform="matrix(1.3333333,0,0,-1.3333333,27.632,27.633333)" />
    <path
       id="path59"
       d="m 79.503,-20.12482 h 40.24966 M 79.503,-10.06241 h 40.24966 M 79.503,0 h 40.24966 M 79.503,10.06238 h 40.24966 M 79.503,20.12479 h 40.24966 M 79.503,-20.12482 V 20.12482 M 89.56541,-20.12482 V 20.12482 M 99.6278,-20.12482 v 40.24964 m 10.06242,-40.24964 v 40.24964 m 10.0624,-40.24964 v 40.24964"
       style="fill:none;stroke:#404040;stroke-width:0.19925;stroke-linecap:butt;stroke-linejoin:miter;stroke-miterlimit:10;stroke-dasharray:none;stroke-opacity:1"
       transform="matrix(1.3333333,0,0,-1.3333333,27.632,27.633333)" />
    <path
       id="path60"
       d="m 79.503,-20.12482 h 40.24966 M 79.503,-10.06241 h 40.24966 M 79.503,0 h 40.24966 M 79.503,10.06238 h 40.24966 M 79.503,20.12479 h 40.24966 M 79.503,-20.12482 V 20.12482 M 89.56541,-20.12482 V 20.12482 M 99.6278,-20.12482 v 40.24964 m 10.06242,-40.24964 v 40.24964 m 10.0624,-40.24964 v 40.24964"
       style="fill:none;stroke:#404040;stroke-width:0.19925;stroke-linecap:butt;stroke-linejoin:miter;stroke-miterlimit:10;stroke-dasharray:none;stroke-opacity:1"
       transform="matrix(1.3333333,0,0,-1.3333333,27.632,27.633333)" />
    <path
       id="path61"
       d="m 79.503,-20.12482 h 40.24966 M 79.503,-10.06241 h 40.24966 M 79.503,0 h 40.24966 M 79.503,10.06238 h 40.24966 M 79.503,20.12479 h 40.24966 M 79.503,-20.12482 V 20.12482 M 89.56541,-20.12482 V 20.12482 M 99.6278,-20.12482 v 40.24964 m 10.06242,-40.24964 v 40.24964 m 10.0624,-40.24964 v 40.24964"
       style="fill:none;stroke:#404040;stroke-width:0.19925;stroke-linecap:butt;stroke-linejoin:miter;stroke-miterlimit:10;stroke-dasharray:none;stroke-opacity:1"
       transform="matrix(1.3333333,0,0,-1.3333333,27.632,27.633333)" />
    <path
       id="path62"
       d="m 129.31693,-20.12482 h 40.24964 m -40.24964,10.06241 h 40.24964 M 129.31693,0 h 40.24964 m -40.24964,10.06238 h 40.24964 m -40.24964,10.06241 h 40.24964 m -40.24964,-40.24961 v 40.24964 m 10.0624,-40.24964 v 40.24964 m 10.0624,-40.24964 v 40.24964 m 10.06241,-40.24964 v 40.24964 m 10.0624,-40.24964 v 40.24964"
       style="fill:none;stroke:#404040;stroke-width:0.19925;stroke-linecap:butt;stroke-linejoin:miter;stroke-miterlimit:10;stroke-dasharray:none;stroke-opacity:1"
       transform="matrix(1.3333333,0,0,-1.3333333,27.632,27.633333)" />
    <path
       id="path63"
       d="m 129.31693,-20.12482 h 40.24964 m -40.24964,10.06241 h 40.24964 M 129.31693,0 h 40.24964 m -40.24964,10.06238 h 40.24964 m -40.24964,10.06241 h 40.24964 m -40.24964,-40.24961 v 40.24964 m 10.0624,-40.24964 v 40.24964 m 10.0624,-40.24964 v 40.24964 m 10.06241,-40.24964 v 40.24964 m 10.0624,-40.24964 v 40.24964"
       style="fill:none;stroke:#404040;stroke-width:0.19925;stroke-linecap:butt;stroke-linejoin:miter;stroke-miterlimit:10;stroke-dasharray:none;stroke-opacity:1"
       transform="matrix(1.3333333,0,0,-1.3333333,27.632,27.633333)" />
    <path
       id="path64"
       d="m 129.31693,-20.12482 h 40.24964 m -40.24964,10.06241 h 40.24964 M 129.31693,0 h 40.24964 m -40.24964,10.06238 h 40.24964 m -40.24964,10.06241 h 40.24964 m -40.24964,-40.24961 v 40.24964 m 10.0624,-40.24964 v 40.24964 m 10.0624,-40.24964 v 40.24964 m 10.06241,-40.24964 v 40.24964 m 10.0624,-40.24964 v 40.24964"
       style="fill:none;stroke:#404040;stroke-width:0.19925;stroke-linecap:butt;stroke-linejoin:miter;stroke-miterlimit:10;stroke-dasharray:none;stroke-opacity:1"
       transform="matrix(1.3333333,0,0,-1.3333333,27.632,27.633333)" />
    <path
       id="path65"
       d="m 129.31693,-20.12482 h 40.24964 m -40.24964,10.06241 h 40.24964 M 129.31693,0 h 40.24964 m -40.24964,10.06238 h 40.24964 m -40.24964,10.06241 h 40.24964 m -40.24964,-40.24961 v 40.24964 m 10.0624,-40.24964 v 40.24964 m 10.0624,-40.24964 v 40.24964 m 10.06241,-40.24964 v 40.24964 m 10.0624,-40.24964 v 40.24964"
       style="fill:none;stroke:#404040;stroke-width:0.19925;stroke-linecap:butt;stroke-linejoin:miter;stroke-miterlimit:10;stroke-dasharray:none;stroke-opacity:1"
       transform="matrix(1.3333333,0,0,-1.3333333,27.632,27.633333)" />
    <path
       id="path66"
       d="m 129.31693,-20.12482 h 40.24964 m -40.24964,10.06241 h 40.24964 M 129.31693,0 h 40.24964 m -40.24964,10.06238 h 40.24964 m -40.24964,10.06241 h 40.24964 m -40.24964,-40.24961 v 40.24964 m 10.0624,-40.24964 v 40.24964 m 10.0624,-40.24964 v 40.24964 m 10.06241,-40.24964 v 40.24964 m 10.0624,-40.24964 v 40.24964"
       style="fill:none;stroke:#404040;stroke-width:0.19925;stroke-linecap:butt;stroke-linejoin:miter;stroke-miterlimit:10;stroke-dasharray:none;stroke-opacity:1"
       transform="matrix(1.3333333,0,0,-1.3333333,27.632,27.633333)" />
    <path
       id="path67"
       d="m 129.31693,-20.12482 h 40.24964 m -40.24964,10.06241 h 40.24964 M 129.31693,0 h 40.24964 m -40.24964,10.06238 h 40.24964 m -40.24964,10.06241 h 40.24964 m -40.24964,-40.24961 v 40.24964 m 10.0624,-40.24964 v 40.24964 m 10.0624,-40.24964 v 40.24964 m 10.06241,-40.24964 v 40.24964 m 10.0624,-40.24964 v 40.24964"
       style="fill:none;stroke:#404040;stroke-width:0.19925;stroke-linecap:butt;stroke-linejoin:miter;stroke-miterlimit:10;stroke-dasharray:none;stroke-opacity:1"
       transform="matrix(1.3333333,0,0,-1.3333333,27.632,27.633333)" />
    <path
       id="path68"
       d="m 129.31693,-20.12482 h 40.24964 m -40.24964,10.06241 h 40.24964 M 129.31693,0 h 40.24964 m -40.24964,10.06238 h 40.24964 m -40.24964,10.06241 h 40.24964 m -40.24964,-40.24961 v 40.24964 m 10.0624,-40.24964 v 40.24964 m 10.0624,-40.24964 v 40.24964 m 10.06241,-40.24964 v 40.24964 m 10.0624,-40.24964 v 40.24964"
       style="fill:none;stroke:#404040;stroke-width:0.19925;stroke-linecap:butt;stroke-linejoin:miter;stroke-miterlimit:10;stroke-dasharray:none;stroke-opacity:1"
       transform="matrix(1.3333333,0,0,-1.3333333,27.632,27.633333)" />
    <path
       id="path69"
       d="m 129.31693,-20.12482 h 40.24964 m -40.24964,10.06241 h 40.24964 M 129.31693,0 h 40.24964 m -40.24964,10.06238 h 40.24964 m -40.24964,10.06241 h 40.24964 m -40.24964,-40.24961 v 40.24964 m 10.0624,-40.24964 v 40.24964 m 10.0624,-40.24964 v 40.24964 m 10.06241,-40.24964 v 40.24964 m 10.0624,-40.24964 v 40.24964"
       style="fill:none;stroke:#404040;stroke-width:0.19925;stroke-linecap:butt;stroke-linejoin:miter;stroke-miterlimit:10;stroke-dasharray:none;stroke-opacity:1"
       transform="matrix(1.3333333,0,0,-1.3333333,27.632,27.633333)" />
    <path
       id="path70"
       d="m 129.36674,0.0498 h 9.96277 v 9.96277 h -9.96277 z"
       style="fill:#808080;fill-opacity:1;fill-rule:nonzero;stroke:none"
       transform="matrix(1.3333333,0,0,-1.3333333,27.632,27.633333)" />
    <path
       id="path71"
       d="m 129.31693,-20.12482 h 40.24964 m -40.24964,10.06241 h 40.24964 M 129.31693,0 h 40.24964 m -40.24964,10.06238 h 40.24964 m -40.24964,10.06241 h 40.24964 m -40.24964,-40.24961 v 40.24964 m 10.0624,-40.24964 v 40.24964 m 10.0624,-40.24964 v 40.24964 m 10.06241,-40.24964 v 40.24964 m 10.0624,-40.24964 v 40.24964"
       style="fill:none;stroke:#404040;stroke-width:0.19925;stroke-linecap:butt;stroke-linejoin:miter;stroke-miterlimit:10;stroke-dasharray:none;stroke-opacity:1"
       transform="matrix(1.3333333,0,0,-1.3333333,27.632,27.633333)" />
    <path
       id="path72"
       d="m 139.42915,0.0498 h 9.96277 v 9.96277 h -9.96277 z"
       style="fill:#808080;fill-opacity:1;fill-rule:nonzero;stroke:none"
       transform="matrix(1.3333333,0,0,-1.3333333,27.632,27.633333)" />
    <path
       id="path73"
       d="m 129.31693,-20.12482 h 40.24964 m -40.24964,10.06241 h 40.24964 M 129.31693,0 h 40.24964 m -40.24964,10.06238 h 40.24964 m -40.24964,10.06241 h 40.24964 m -40.24964,-40.24961 v 40.24964 m 10.0624,-40.24964 v 40.24964 m 10.0624,-40.24964 v 40.24964 m 10.06241,-40.24964 v 40.24964 m 10.0624,-40.24964 v 40.24964"
       style="fill:none;stroke:#404040;stroke-width:0.19925;stroke-linecap:butt;stroke-linejoin:miter;stroke-miterlimit:10;stroke-dasharray:none;stroke-opacity:1"
       transform="matrix(1.3333333,0,0,-1.3333333,27.632,27.633333)" />
    <path
       id="path74"
       d="m 129.31693,-20.12482 h 40.24964 m -40.24964,10.06241 h 40.24964 M 129.31693,0 h 40.24964 m -40.24964,10.06238 h 40.24964 m -40.24964,10.06241 h 40.24964 m -40.24964,-40.24961 v 40.24964 m 10.0624,-40.24964 v 40.24964 m 10.0624,-40.24964 v 40.24964 m 10.06241,-40.24964 v 40.24964 m 10.0624,-40.24964 v 40.24964"
       style="fill:none;stroke:#404040;stroke-width:0.19925;stroke-linecap:butt;stroke-linejoin:miter;stroke-miterlimit:10;stroke-dasharray:none;stroke-opacity:1"
       transform="matrix(1.3333333,0,0,-1.3333333,27.632,27.633333)" />
    <path
       id="path75"
       d="m 129.31693,-20.12482 h 40.24964 m -40.24964,10.06241 h 40.24964 M 129.31693,0 h 40.24964 m -40.24964,10.06238 h 40.24964 m -40.24964,10.06241 h 40.24964 m -40.24964,-40.24961 v 40.24964 m 10.0624,-40.24964 v 40.24964 m 10.0624,-40.24964 v 40.24964 m 10.06241,-40.24964 v 40.24964 m 10.0624,-40.24964 v 40.24964"
       style="fill:none;stroke:#404040;stroke-width:0.19925;stroke-linecap:butt;stroke-linejoin:miter;stroke-miterlimit:10;stroke-dasharray:none;stroke-opacity:1"
       transform="matrix(1.3333333,0,0,-1.3333333,27.632,27.633333)" />
    <path
       id="path76"
       d="m 129.31693,-20.12482 h 40.24964 m -40.24964,10.06241 h 40.24964 M 129.31693,0 h 40.24964 m -40.24964,10.06238 h 40.24964 m -40.24964,10.06241 h 40.24964 m -40.24964,-40.24961 v 40.24964 m 10.0624,-40.24964 v 40.24964 m 10.0624,-40.24964 v 40.24964 m 10.06241,-40.24964 v 40.24964 m 10.0624,-40.24964 v 40.24964"
       style="fill:none;stroke:#404040;stroke-width:0.19925;stroke-linecap:butt;stroke-linejoin:miter;stroke-miterlimit:10;stroke-dasharray:none;stroke-opacity:1"
       transform="matrix(1.3333333,0,0,-1.3333333,27.632,27.633333)" />
    <path
       id="path77"
       d="m 139.42915,10.11221 h 9.96277 v 9.96277 h -9.96277 z"
       style="fill:#808080;fill-opacity:1;fill-rule:nonzero;stroke:none"
       transform="matrix(1.3333333,0,0,-1.3333333,27.632,27.633333)" />
    <path
       id="path78"
       d="m 129.31693,-20.12482 h 40.24964 m -40.24964,10.06241 h 40.24964 M 129.31693,0 h 40.24964 m -40.24964,10.06238 h 40.24964 m -40.24964,10.06241 h 40.24964 m -40.24964,-40.24961 v 40.24964 m 10.0624,-40.24964 v 40.24964 m 10.0624,-40.24964 v 40.24964 m 10.06241,-40.24964 v 40.24964 m 10.0624,-40.24964 v 40.24964"
       style="fill:none;stroke:#404040;stroke-width:0.19925;stroke-linecap:butt;stroke-linejoin:miter;stroke-miterlimit:10;stroke-dasharray:none;stroke-opacity:1"
       transform="matrix(1.3333333,0,0,-1.3333333,27.632,27.633333)" />
    <path
       id="path79"
       d="m 149.49156,10.11221 h 9.96277 v 9.96277 h -9.96277 z"
       style="fill:#808080;fill-opacity:1;fill-rule:nonzero;stroke:none"
       transform="matrix(1.3333333,0,0,-1.3333333,27.632,27.633333)" />
    <path
       id="path80"
       d="m 129.31693,-20.12482 h 40.24964 m -40.24964,10.06241 h 40.24964 M 129.31693,0 h 40.24964 m -40.24964,10.06238 h 40.24964 m -40.24964,10.06241 h 40.24964 m -40.24964,-40.24961 v 40.24964 m 10.0624,-40.24964 v 40.24964 m 10.0624,-40.24964 v 40.24964 m 10.06241,-40.24964 v 40.24964 m 10.0624,-40.24964 v 40.24964"
       style="fill:none;stroke:#404040;stroke-width:0.19925;stroke-linecap:butt;stroke-linejoin:miter;stroke-miterlimit:10;stroke-dasharray:none;stroke-opacity:1"
       transform="matrix(1.3333333,0,0,-1.3333333,27.632,27.633333)" />
    <path
       id="path81"
       d="m 129.31693,-20.12482 h 40.24964 m -40.24964,10.06241 h 40.24964 M 129.31693,0 h 40.24964 m -40.24964,10.06238 h 40.24964 m -40.24964,10.06241 h 40.24964 m -40.24964,-40.24961 v 40.24964 m 10.0624,-40.24964 v 40.24964 m 10.0624,-40.24964 v 40.24964 m 10.06241,-40.24964 v 40.24964 m 10.0624,-40.24964 v 40.24964"
       style="fill:none;stroke:#404040;stroke-width:0.19925;stroke-linecap:butt;stroke-linejoin:miter;stroke-miterlimit:10;stroke-dasharray:none;stroke-opacity:1"
       transform="matrix(1.3333333,0,0,-1.3333333,27.632,27.633333)" />
    <path
       id="path82"
       d="m 179.13084,-20.12482 h 40.24966 m -40.24966,10.06241 H 219.3805 M 179.13084,0 h 40.24966 m -40.24966,10.06238 h 40.24966 m -40.24966,10.06241 h 40.24966 m -40.24966,-40.24961 v 40.24964 m 10.06241,-40.24964 v 40.24964 m 10.0624,-40.24964 v 40.24964 m 10.0624,-40.24964 v 40.24964 m 10.06241,-40.24964 v 40.24964"
       style="fill:none;stroke:#404040;stroke-width:0.19925;stroke-linecap:butt;stroke-linejoin:miter;stroke-miterlimit:10;stroke-dasharray:none;stroke-opacity:1"
       transform="matrix(1.3333333,0,0,-1.3333333,27.632,27.633333)" />
    <path
       id="path83"
       d="m 179.13084,-20.12482 h 40.24966 m -40.24966,10.06241 H 219.3805 M 179.13084,0 h 40.24966 m -40.24966,10.06238 h 40.24966 m -40.24966,10.06241 h 40.24966 m -40.24966,-40.24961 v 40.24964 m 10.06241,-40.24964 v 40.24964 m 10.0624,-40.24964 v 40.24964 m 10.0624,-40.24964 v 40.24964 m 10.06241,-40.24964 v 40.24964"
       style="fill:none;stroke:#404040;stroke-width:0.19925;stroke-linecap:butt;stroke-linejoin:miter;stroke-miterlimit:10;stroke-dasharray:none;stroke-opacity:1"
       transform="matrix(1.3333333,0,0,-1.3333333,27.632,27.633333)" />
    <path
       id="path84"
       d="m 179.13084,-20.12482 h 40.24966 m -40.24966,10.06241 H 219.3805 M 179.13084,0 h 40.24966 m -40.24966,10.06238 h 40.24966 m -40.24966,10.06241 h 40.24966 m -40.24966,-40.24961 v 40.24964 m 10.06241,-40.24964 v 40.24964 m 10.0624,-40.24964 v 40.24964 m 10.0624,-40.24964 v 40.24964 m 10.06241,-40.24964 v 40.24964"
       style="fill:none;stroke:#404040;stroke-width:0.19925;stroke-linecap:butt;stroke-linejoin:miter;stroke-miterlimit:10;stroke-dasharray:none;stroke-opacity:1"
       transform="matrix(1.3333333,0,0,-1.3333333,27.632,27.633333)" />
    <path
       id="path85"
       d="m 179.13084,-20.12482 h 40.24966 m -40.24966,10.06241 H 219.3805 M 179.13084,0 h 40.24966 m -40.24966,10.06238 h 40.24966 m -40.24966,10.06241 h 40.24966 m -40.24966,-40.24961 v 40.24964 m 10.06241,-40.24964 v 40.24964 m 10.0624,-40.24964 v 40.24964 m 10.0624,-40.24964 v 40.24964 m 10.06241,-40.24964 v 40.24964"
       style="fill:none;stroke:#404040;stroke-width:0.19925;stroke-linecap:butt;stroke-linejoin:miter;stroke-miterlimit:10;stroke-dasharray:none;stroke-opacity:1"
       transform="matrix(1.3333333,0,0,-1.3333333,27.632,27.633333)" />
    <path
       id="path86"
       d="m 179.13084,-20.12482 h 40.24966 m -40.24966,10.06241 H 219.3805 M 179.13084,0 h 40.24966 m -40.24966,10.06238 h 40.24966 m -40.24966,10.06241 h 40.24966 m -40.24966,-40.24961 v 40.24964 m 10.06241,-40.24964 v 40.24964 m 10.0624,-40.24964 v 40.24964 m 10.0624,-40.24964 v 40.24964 m 10.06241,-40.24964 v 40.24964"
       style="fill:none;stroke:#404040;stroke-width:0.19925;stroke-linecap:butt;stroke-linejoin:miter;stroke-miterlimit:10;stroke-dasharray:none;stroke-opacity:1"
       transform="matrix(1.3333333,0,0,-1.3333333,27.632,27.633333)" />
    <path
       id="path87"
       d="m 179.13084,-20.12482 h 40.24966 m -40.24966,10.06241 H 219.3805 M 179.13084,0 h 40.24966 m -40.24966,10.06238 h 40.24966 m -40.24966,10.06241 h 40.24966 m -40.24966,-40.24961 v 40.24964 m 10.06241,-40.24964 v 40.24964 m 10.0624,-40.24964 v 40.24964 m 10.0624,-40.24964 v 40.24964 m 10.06241,-40.24964 v 40.24964"
       style="fill:none;stroke:#404040;stroke-width:0.19925;stroke-linecap:butt;stroke-linejoin:miter;stroke-miterlimit:10;stroke-dasharray:none;stroke-opacity:1"
       transform="matrix(1.3333333,0,0,-1.3333333,27.632,27.633333)" />
    <path
       id="path88"
       d="m 179.13084,-20.12482 h 40.24966 m -40.24966,10.06241 H 219.3805 M 179.13084,0 h 40.24966 m -40.24966,10.06238 h 40.24966 m -40.24966,10.06241 h 40.24966 m -40.24966,-40.24961 v 40.24964 m 10.06241,-40.24964 v 40.24964 m 10.0624,-40.24964 v 40.24964 m 10.0624,-40.24964 v 40.24964 m 10.06241,-40.24964 v 40.24964"
       style="fill:none;stroke:#404040;stroke-width:0.19925;stroke-linecap:butt;stroke-linejoin:miter;stroke-miterlimit:10;stroke-dasharray:none;stroke-opacity:1"
       transform="matrix(1.3333333,0,0,-1.3333333,27.632,27.633333)" />
    <path
       id="path89"
       d="m 179.13084,-20.12482 h 40.24966 m -40.24966,10.06241 H 219.3805 M 179.13084,0 h 40.24966 m -40.24966,10.06238 h 40.24966 m -40.24966,10.06241 h 40.24966 m -40.24966,-40.24961 v 40.24964 m 10.06241,-40.24964 v 40.24964 m 10.0624,-40.24964 v 40.24964 m 10.0624,-40.24964 v 40.24964 m 10.06241,-40.24964 v 40.24964"
       style="fill:none;stroke:#404040;stroke-width:0.19925;stroke-linecap:butt;stroke-linejoin:miter;stroke-miterlimit:10;stroke-dasharray:none;stroke-opacity:1"
       transform="matrix(1.3333333,0,0,-1.3333333,27.632,27.633333)" />
    <path
       id="path90"
       d="m 179.13084,-20.12482 h 40.24966 m -40.24966,10.06241 H 219.3805 M 179.13084,0 h 40.24966 m -40.24966,10.06238 h 40.24966 m -40.24966,10.06241 h 40.24966 m -40.24966,-40.24961 v 40.24964 m 10.06241,-40.24964 v 40.24964 m 10.0624,-40.24964 v 40.24964 m 10.0624,-40.24964 v 40.24964 m 10.06241,-40.24964 v 40.24964"
       style="fill:none;stroke:#404040;stroke-width:0.19925;stroke-linecap:butt;stroke-linejoin:miter;stroke-miterlimit:10;stroke-dasharray:none;stroke-opacity:1"
       transform="matrix(1.3333333,0,0,-1.3333333,27.632,27.633333)" />
    <path
       id="path91"
       d="m 189.24307,0.0498 h 9.96277 v 9.96277 h -9.96277 z"
       style="fill:#808080;fill-opacity:1;fill-rule:nonzero;stroke:none"
       transform="matrix(1.3333333,0,0,-1.3333333,27.632,27.633333)" />
    <path
       id="path92"
       d="m 179.13084,-20.12482 h 40.24966 m -40.24966,10.06241 H 219.3805 M 179.13084,0 h 40.24966 m -40.24966,10.06238 h 40.24966 m -40.24966,10.06241 h 40.24966 m -40.24966,-40.24961 v 40.24964 m 10.06241,-40.24964 v 40.24964 m 10.0624,-40.24964 v 40.24964 m 10.0624,-40.24964 v 40.24964 m 10.06241,-40.24964 v 40.24964"
       style="fill:none;stroke:#404040;stroke-width:0.19925;stroke-linecap:butt;stroke-linejoin:miter;stroke-miterlimit:10;stroke-dasharray:none;stroke-opacity:1"
       transform="matrix(1.3333333,0,0,-1.3333333,27.632,27.633333)" />
    <path
       id="path93"
       d="m 199.30548,0.0498 h 9.96277 v 9.96277 h -9.96277 z"
       style="fill:#808080;fill-opacity:1;fill-rule:nonzero;stroke:none"
       transform="matrix(1.3333333,0,0,-1.3333333,27.632,27.633333)" />
    <path
       id="path94"
       d="m 179.13084,-20.12482 h 40.24966 m -40.24966,10.06241 H 219.3805 M 179.13084,0 h 40.24966 m -40.24966,10.06238 h 40.24966 m -40.24966,10.06241 h 40.24966 m -40.24966,-40.24961 v 40.24964 m 10.06241,-40.24964 v 40.24964 m 10.0624,-40.24964 v 40.24964 m 10.0624,-40.24964 v 40.24964 m 10.06241,-40.24964 v 40.24964"
       style="fill:none;stroke:#404040;stroke-width:0.19925;stroke-linecap:butt;stroke-linejoin:miter;stroke-miterlimit:10;stroke-dasharray:none;stroke-opacity:1"
       transform="matrix(1.3333333,0,0,-1.3333333,27.632,27.633333)" />
    <path
       id="path95"
       d="m 179.13084,-20.12482 h 40.24966 m -40.24966,10.06241 H 219.3805 M 179.13084,0 h 40.24966 m -40.24966,10.06238 h 40.24966 m -40.24966,10.06241 h 40.24966 m -40.24966,-40.24961 v 40.24964 m 10.06241,-40.24964 v 40.24964 m 10.0624,-40.24964 v 40.24964 m 10.0624,-40.24964 v 40.24964 m 10.06241,-40.24964 v 40.24964"
       style="fill:none;stroke:#404040;stroke-width:0.19925;stroke-linecap:butt;stroke-linejoin:miter;stroke-miterlimit:10;stroke-dasharray:none;stroke-opacity:1"
       transform="matrix(1.3333333,0,0,-1.3333333,27.632,27.633333)" />
    <path
       id="path96"
       d="m 179.18066,10.11221 h 9.96277 v 9.96277 h -9.96277 z"
       style="fill:#808080;fill-opacity:1;fill-rule:nonzero;stroke:none"
       transform="matrix(1.3333333,0,0,-1.3333333,27.632,27.633333)" />
    <path
       id="path97"
       d="m 179.13084,-20.12482 h 40.24966 m -40.24966,10.06241 H 219.3805 M 179.13084,0 h 40.24966 m -40.24966,10.06238 h 40.24966 m -40.24966,10.06241 h 40.24966 m -40.24966,-40.24961 v 40.24964 m 10.06241,-40.24964 v 40.24964 m 10.0624,-40.24964 v 40.24964 m 10.0624,-40.24964 v 40.24964 m 10.06241,-40.24964 v 40.24964"
       style="fill:none;stroke:#404040;stroke-width:0.19925;stroke-linecap:butt;stroke-linejoin:miter;stroke-miterlimit:10;stroke-dasharray:none;stroke-opacity:1"
       transform="matrix(1.3333333,0,0,-1.3333333,27.632,27.633333)" />
    <path
       id="path98"
       d="m 189.24307,10.11221 h 9.96277 v 9.96277 h -9.96277 z"
       style="fill:#808080;fill-opacity:1;fill-rule:nonzero;stroke:none"
       transform="matrix(1.3333333,0,0,-1.3333333,27.632,27.633333)" />
    <path
       id="path99"
       d="m 179.13084,-20.12482 h 40.24966 m -40.24966,10.06241 H 219.3805 M 179.13084,0 h 40.24966 m -40.24966,10.06238 h 40.24966 m -40.24966,10.06241 h 40.24966 m -40.24966,-40.24961 v 40.24964 m 10.06241,-40.24964 v 40.24964 m 10.0624,-40.24964 v 40.24964 m 10.0624,-40.24964 v 40.24964 m 10.06241,-40.24964 v 40.24964"
       style="fill:none;stroke:#404040;stroke-width:0.19925;stroke-linecap:butt;stroke-linejoin:miter;stroke-miterlimit:10;stroke-dasharray:none;stroke-opacity:1"
       transform="matrix(1.3333333,0,0,-1.3333333,27.632,27.633333)" />
    <path
       id="path100"
       d="m 179.13084,-20.12482 h 40.24966 m -40.24966,10.06241 H 219.3805 M 179.13084,0 h 40.24966 m -40.24966,10.06238 h 40.24966 m -40.24966,10.06241 h 40.24966 m -40.24966,-40.24961 v 40.24964 m 10.06241,-40.24964 v 40.24964 m 10.0624,-40.24964 v 40.24964 m 10.0624,-40.24964 v 40.24964 m 10.06241,-40.24964 v 40.24964"
       style="fill:none;stroke:#404040;stroke-width:0.19925;stroke-linecap:butt;stroke-linejoin:miter;stroke-miterlimit:10;stroke-dasharray:none;stroke-opacity:1"
       transform="matrix(1.3333333,0,0,-1.3333333,27.632,27.633333)" />
    <path
       id="path101"
       d="m 179.13084,-20.12482 h 40.24966 m -40.24966,10.06241 H 219.3805 M 179.13084,0 h 40.24966 m -40.24966,10.06238 h 40.24966 m -40.24966,10.06241 h 40.24966 m -40.24966,-40.24961 v 40.24964 m 10.06241,-40.24964 v 40.24964 m 10.0624,-40.24964 v 40.24964 m 10.0624,-40.24964 v 40.24964 m 10.06241,-40.24964 v 40.24964"
       style="fill:none;stroke:#404040;stroke-width:0.19925;stroke-linecap:butt;stroke-linejoin:miter;stroke-miterlimit:10;stroke-dasharray:none;stroke-opacity:1"
       transform="matrix(1.3333333,0,0,-1.3333333,27.632,27.633333)" />
    <path
       id="path102"
       d="m 228.94476,-20.12482 h 40.24965 m -40.24965,10.06241 h 40.24965 M 228.94476,0 h 40.24965 m -40.24965,10.06238 h 40.24965 m -40.24965,10.06241 h 40.24965 m -40.24965,-40.24961 v 40.24964 m 10.06241,-40.24964 v 40.24964 m 10.06239,-40.24964 v 40.24964 m 10.06241,-40.24964 v 40.24964 m 10.06241,-40.24964 v 40.24964"
       style="fill:none;stroke:#404040;stroke-width:0.19925;stroke-linecap:butt;stroke-linejoin:miter;stroke-miterlimit:10;stroke-dasharray:none;stroke-opacity:1"
       transform="matrix(1.3333333,0,0,-1.3333333,27.632,27.633333)" />
    <path
       id="path103"
       d="m 228.94476,-20.12482 h 40.24965 m -40.24965,10.06241 h 40.24965 M 228.94476,0 h 40.24965 m -40.24965,10.06238 h 40.24965 m -40.24965,10.06241 h 40.24965 m -40.24965,-40.24961 v 40.24964 m 10.06241,-40.24964 v 40.24964 m 10.06239,-40.24964 v 40.24964 m 10.06241,-40.24964 v 40.24964 m 10.06241,-40.24964 v 40.24964"
       style="fill:none;stroke:#404040;stroke-width:0.19925;stroke-linecap:butt;stroke-linejoin:miter;stroke-miterlimit:10;stroke-dasharray:none;stroke-opacity:1"
       transform="matrix(1.3333333,0,0,-1.3333333,27.632,27.633333)" />
    <path
       id="path104"
       d="m 228.94476,-20.12482 h 40.24965 m -40.24965,10.06241 h 40.24965 M 228.94476,0 h 40.24965 m -40.24965,10.06238 h 40.24965 m -40.24965,10.06241 h 40.24965 m -40.24965,-40.24961 v 40.24964 m 10.06241,-40.24964 v 40.24964 m 10.06239,-40.24964 v 40.24964 m 10.06241,-40.24964 v 40.24964 m 10.06241,-40.24964 v 40.24964"
       style="fill:none;stroke:#404040;stroke-width:0.19925;stroke-linecap:butt;stroke-linejoin:miter;stroke-miterlimit:10;stroke-dasharray:none;stroke-opacity:1"
       transform="matrix(1.3333333,0,0,-1.3333333,27.632,27.633333)" />
    <path
       id="path105"
       d="m 228.94476,-20.12482 h 40.24965 m -40.24965,10.06241 h 40.24965 M 228.94476,0 h 40.24965 m -40.24965,10.06238 h 40.24965 m -40.24965,10.06241 h 40.24965 m -40.24965,-40.24961 v 40.24964 m 10.06241,-40.24964 v 40.24964 m 10.06239,-40.24964 v 40.24964 m 10.06241,-40.24964 v 40.24964 m 10.06241,-40.24964 v 40.24964"
       style="fill:none;stroke:#404040;stroke-width:0.19925;stroke-linecap:butt;stroke-linejoin:miter;stroke-miterlimit:10;stroke-dasharray:none;stroke-opacity:1"
       transform="matrix(1.3333333,0,0,-1.3333333,27.632,27.633333)" />
    <path
       id="path106"
       d="m 228.99458,-10.01259 h 9.96277 v 9.96277 h -9.96277 z"
       style="fill:#808080;fill-opacity:1;fill-rule:nonzero;stroke:none"
       transform="matrix(1.3333333,0,0,-1.3333333,27.632,27.633333)" />
    <path
       id="path107"
       d="m 228.94476,-20.12482 h 40.24965 m -40.24965,10.06241 h 40.24965 M 228.94476,0 h 40.24965 m -40.24965,10.06238 h 40.24965 m -40.24965,10.06241 h 40.24965 m -40.24965,-40.24961 v 40.24964 m 10.06241,-40.24964 v 40.24964 m 10.06239,-40.24964 v 40.24964 m 10.06241,-40.24964 v 40.24964 m 10.06241,-40.24964 v 40.24964"
       style="fill:none;stroke:#404040;stroke-width:0.19925;stroke-linecap:butt;stroke-linejoin:miter;stroke-miterlimit:10;stroke-dasharray:none;stroke-opacity:1"
       transform="matrix(1.3333333,0,0,-1.3333333,27.632,27.633333)" />
    <path
       id="path108"
       d="m 239.05699,-10.01259 h 9.96277 v 9.96277 h -9.96277 z"
       style="fill:#808080;fill-opacity:1;fill-rule:nonzero;stroke:none"
       transform="matrix(1.3333333,0,0,-1.3333333,27.632,27.633333)" />
    <path
       id="path109"
       d="m 228.94476,-20.12482 h 40.24965 m -40.24965,10.06241 h 40.24965 M 228.94476,0 h 40.24965 m -40.24965,10.06238 h 40.24965 m -40.24965,10.06241 h 40.24965 m -40.24965,-40.24961 v 40.24964 m 10.06241,-40.24964 v 40.24964 m 10.06239,-40.24964 v 40.24964 m 10.06241,-40.24964 v 40.24964 m 10.06241,-40.24964 v 40.24964"
       style="fill:none;stroke:#404040;stroke-width:0.19925;stroke-linecap:butt;stroke-linejoin:miter;stroke-miterlimit:10;stroke-dasharray:none;stroke-opacity:1"
       transform="matrix(1.3333333,0,0,-1.3333333,27.632,27.633333)" />
    <path
       id="path110"
       d="m 228.94476,-20.12482 h 40.24965 m -40.24965,10.06241 h 40.24965 M 228.94476,0 h 40.24965 m -40.24965,10.06238 h 40.24965 m -40.24965,10.06241 h 40.24965 m -40.24965,-40.24961 v 40.24964 m 10.06241,-40.24964 v 40.24964 m 10.06239,-40.24964 v 40.24964 m 10.06241,-40.24964 v 40.24964 m 10.06241,-40.24964 v 40.24964"
       style="fill:none;stroke:#404040;stroke-width:0.19925;stroke-linecap:butt;stroke-linejoin:miter;stroke-miterlimit:10;stroke-dasharray:none;stroke-opacity:1"
       transform="matrix(1.3333333,0,0,-1.3333333,27.632,27.633333)" />
    <path
       id="path111"
       d="m 228.94476,-20.12482 h 40.24965 m -40.24965,10.06241 h 40.24965 M 228.94476,0 h 40.24965 m -40.24965,10.06238 h 40.24965 m -40.24965,10.06241 h 40.24965 m -40.24965,-40.24961 v 40.24964 m 10.06241,-40.24964 v 40.24964 m 10.06239,-40.24964 v 40.24964 m 10.06241,-40.24964 v 40.24964 m 10.06241,-40.24964 v 40.24964"
       style="fill:none;stroke:#404040;stroke-width:0.19925;stroke-linecap:butt;stroke-linejoin:miter;stroke-miterlimit:10;stroke-dasharray:none;stroke-opacity:1"
       transform="matrix(1.3333333,0,0,-1.3333333,27.632,27.633333)" />
    <path
       id="path112"
       d="m 228.94476,-20.12482 h 40.24965 m -40.24965,10.06241 h 40.24965 M 228.94476,0 h 40.24965 m -40.24965,10.06238 h 40.24965 m -40.24965,10.06241 h 40.24965 m -40.24965,-40.24961 v 40.24964 m 10.06241,-40.24964 v 40.24964 m 10.06239,-40.24964 v 40.24964 m 10.06241,-40.24964 v 40.24964 m 10.06241,-40.24964 v 40.24964"
       style="fill:none;stroke:#404040;stroke-width:0.19925;stroke-linecap:butt;stroke-linejoin:miter;stroke-miterlimit:10;stroke-dasharray:none;stroke-opacity:1"
       transform="matrix(1.3333333,0,0,-1.3333333,27.632,27.633333)" />
    <path
       id="path113"
       d="m 239.05699,0.0498 h 9.96277 v 9.96277 h -9.96277 z"
       style="fill:#808080;fill-opacity:1;fill-rule:nonzero;stroke:none"
       transform="matrix(1.3333333,0,0,-1.3333333,27.632,27.633333)" />
    <path
       id="path114"
       d="m 228.94476,-20.12482 h 40.24965 m -40.24965,10.06241 h 40.24965 M 228.94476,0 h 40.24965 m -40.24965,10.06238 h 40.24965 m -40.24965,10.06241 h 40.24965 m -40.24965,-40.24961 v 40.24964 m 10.06241,-40.24964 v 40.24964 m 10.06239,-40.24964 v 40.24964 m 10.06241,-40.24964 v 40.24964 m 10.06241,-40.24964 v 40.24964"
       style="fill:none;stroke:#404040;stroke-width:0.19925;stroke-linecap:butt;stroke-linejoin:miter;stroke-miterlimit:10;stroke-dasharray:none;stroke-opacity:1"
       transform="matrix(1.3333333,0,0,-1.3333333,27.632,27.633333)" />
    <path
       id="path115"
       d="m 228.94476,-20.12482 h 40.24965 m -40.24965,10.06241 h 40.24965 M 228.94476,0 h 40.24965 m -40.24965,10.06238 h 40.24965 m -40.24965,10.06241 h 40.24965 m -40.24965,-40.24961 v 40.24964 m 10.06241,-40.24964 v 40.24964 m 10.06239,-40.24964 v 40.24964 m 10.06241,-40.24964 v 40.24964 m 10.06241,-40.24964 v 40.24964"
       style="fill:none;stroke:#404040;stroke-width:0.19925;stroke-linecap:butt;stroke-linejoin:miter;stroke-miterlimit:10;stroke-dasharray:none;stroke-opacity:1"
       transform="matrix(1.3333333,0,0,-1.3333333,27.632,27.633333)" />
    <path
       id="path116"
       d="m 228.94476,-20.12482 h 40.24965 m -40.24965,10.06241 h 40.24965 M 228.94476,0 h 40.24965 m -40.24965,10.06238 h 40.24965 m -40.24965,10.06241 h 40.24965 m -40.24965,-40.24961 v 40.24964 m 10.06241,-40.24964 v 40.24964 m 10.06239,-40.24964 v 40.24964 m 10.06241,-40.24964 v 40.24964 m 10.06241,-40.24964 v 40.24964"
       style="fill:none;stroke:#404040;stroke-width:0.19925;stroke-linecap:butt;stroke-linejoin:miter;stroke-miterlimit:10;stroke-dasharray:none;stroke-opacity:1"
       transform="matrix(1.3333333,0,0,-1.3333333,27.632,27.633333)" />
    <path
       id="path117"
       d="m 228.94476,-20.12482 h 40.24965 m -40.24965,10.06241 h 40.24965 M 228.94476,0 h 40.24965 m -40.24965,10.06238 h 40.24965 m -40.24965,10.06241 h 40.24965 m -40.24965,-40.24961 v 40.24964 m 10.06241,-40.24964 v 40.24964 m 10.06239,-40.24964 v 40.24964 m 10.06241,-40.24964 v 40.24964 m 10.06241,-40.24964 v 40.24964"
       style="fill:none;stroke:#404040;stroke-width:0.19925;stroke-linecap:butt;stroke-linejoin:miter;stroke-miterlimit:10;stroke-dasharray:none;stroke-opacity:1"
       transform="matrix(1.3333333,0,0,-1.3333333,27.632,27.633333)" />
    <path
       id="path118"
       d="m 239.05699,10.11221 h 9.96277 v 9.96277 h -9.96277 z"
       style="fill:#808080;fill-opacity:1;fill-rule:nonzero;stroke:none"
       transform="matrix(1.3333333,0,0,-1.3333333,27.632,27.633333)" />
    <path
       id="path119"
       d="m 228.94476,-20.12482 h 40.24965 m -40.24965,10.06241 h 40.24965 M 228.94476,0 h 40.24965 m -40.24965,10.06238 h 40.24965 m -40.24965,10.06241 h 40.24965 m -40.24965,-40.24961 v 40.24964 m 10.06241,-40.24964 v 40.24964 m 10.06239,-40.24964 v 40.24964 m 10.06241,-40.24964 v 40.24964 m 10.06241,-40.24964 v 40.24964"
       style="fill:none;stroke:#404040;stroke-width:0.19925;stroke-linecap:butt;stroke-linejoin:miter;stroke-miterlimit:10;stroke-dasharray:none;stroke-opacity:1"
       transform="matrix(1.3333333,0,0,-1.3333333,27.632,27.633333)" />
    <path
       id="path120"
       d="m 228.94476,-20.12482 h 40.24965 m -40.24965,10.06241 h 40.24965 M 228.94476,0 h 40.24965 m -40.24965,10.06238 h 40.24965 m -40.24965,10.06241 h 40.24965 m -40.24965,-40.24961 v 40.24964 m 10.06241,-40.24964 v 40.24964 m 10.06239,-40.24964 v 40.24964 m 10.06241,-40.24964 v 40.24964 m 10.06241,-40.24964 v 40.24964"
       style="fill:none;stroke:#404040;stroke-width:0.19925;stroke-linecap:butt;stroke-linejoin:miter;stroke-miterlimit:10;stroke-dasharray:none;stroke-opacity:1"
       transform="matrix(1.3333333,0,0,-1.3333333,27.632,27.633333)" />
    <path
       id="path121"
       d="m 228.94476,-20.12482 h 40.24965 m -40.24965,10.06241 h 40.24965 M 228.94476,0 h 40.24965 m -40.24965,10.06238 h 40.24965 m -40.24965,10.06241 h 40.24965 m -40.24965,-40.24961 v 40.24964 m 10.06241,-40.24964 v 40.24964 m 10.06239,-40.24964 v 40.24964 m 10.06241,-40.24964 v 40.24964 m 10.06241,-40.24964 v 40.24964"
       style="fill:none;stroke:#404040;stroke-width:0.19925;stroke-linecap:butt;stroke-linejoin:miter;stroke-miterlimit:10;stroke-dasharray:none;stroke-opacity:1"
       transform="matrix(1.3333333,0,0,-1.3333333,27.632,27.633333)" />
    <path
       id="path122"
       d="m 278.75868,-20.12482 h 40.24965 m -40.24965,10.06241 h 40.24965 M 278.75868,0 h 40.24965 m -40.24965,10.06238 h 40.24965 m -40.24965,10.06241 h 40.24965 m -40.24965,-40.24961 v 40.24964 m 10.06241,-40.24964 v 40.24964 m 10.06239,-40.24964 v 40.24964 m 10.06241,-40.24964 v 40.24964 m 10.06241,-40.24964 v 40.24964"
       style="fill:none;stroke:#404040;stroke-width:0.19925;stroke-linecap:butt;stroke-linejoin:miter;stroke-miterlimit:10;stroke-dasharray:none;stroke-opacity:1"
       transform="matrix(1.3333333,0,0,-1.3333333,27.632,27.633333)" />
    <path
       id="path123"
       d="m 278.75868,-20.12482 h 40.24965 m -40.24965,10.06241 h 40.24965 M 278.75868,0 h 40.24965 m -40.24965,10.06238 h 40.24965 m -40.24965,10.06241 h 40.24965 m -40.24965,-40.24961 v 40.24964 m 10.06241,-40.24964 v 40.24964 m 10.06239,-40.24964 v 40.24964 m 10.06241,-40.24964 v 40.24964 m 10.06241,-40.24964 v 40.24964"
       style="fill:none;stroke:#404040;stroke-width:0.19925;stroke-linecap:butt;stroke-linejoin:miter;stroke-miterlimit:10;stroke-dasharray:none;stroke-opacity:1"
       transform="matrix(1.3333333,0,0,-1.3333333,27.632,27.633333)" />
    <path
       id="path124"
       d="m 278.75868,-20.12482 h 40.24965 m -40.24965,10.06241 h 40.24965 M 278.75868,0 h 40.24965 m -40.24965,10.06238 h 40.24965 m -40.24965,10.06241 h 40.24965 m -40.24965,-40.24961 v 40.24964 m 10.06241,-40.24964 v 40.24964 m 10.06239,-40.24964 v 40.24964 m 10.06241,-40.24964 v 40.24964 m 10.06241,-40.24964 v 40.24964"
       style="fill:none;stroke:#404040;stroke-width:0.19925;stroke-linecap:butt;stroke-linejoin:miter;stroke-miterlimit:10;stroke-dasharray:none;stroke-opacity:1"
       transform="matrix(1.3333333,0,0,-1.3333333,27.632,27.633333)" />
    <path
       id="path125"
       d="m 278.75868,-20.12482 h 40.24965 m -40.24965,10.06241 h 40.24965 M 278.75868,0 h 40.24965 m -40.24965,10.06238 h 40.24965 m -40.24965,10.06241 h 40.24965 m -40.24965,-40.24961 v 40.24964 m 10.06241,-40.24964 v 40.24964 m 10.06239,-40.24964 v 40.24964 m 10.06241,-40.24964 v 40.24964 m 10.06241,-40.24964 v 40.24964"
       style="fill:none;stroke:#404040;stroke-width:0.19925;stroke-linecap:butt;stroke-linejoin:miter;stroke-miterlimit:10;stroke-dasharray:none;stroke-opacity:1"
       transform="matrix(1.3333333,0,0,-1.3333333,27.632,27.633333)" />
    <path
       id="path126"
       d="m 278.75868,-20.12482 h 40.24965 m -40.24965,10.06241 h 40.24965 M 278.75868,0 h 40.24965 m -40.24965,10.06238 h 40.24965 m -40.24965,10.06241 h 40.24965 m -40.24965,-40.24961 v 40.24964 m 10.06241,-40.24964 v 40.24964 m 10.06239,-40.24964 v 40.24964 m 10.06241,-40.24964 v 40.24964 m 10.06241,-40.24964 v 40.24964"
       style="fill:none;stroke:#404040;stroke-width:0.19925;stroke-linecap:butt;stroke-linejoin:miter;stroke-miterlimit:10;stroke-dasharray:none;stroke-opacity:1"
       transform="matrix(1.3333333,0,0,-1.3333333,27.632,27.633333)" />
    <path
       id="path127"
       d="m 288.87091,-10.01259 h 9.96277 v 9.96277 h -9.96277 z"
       style="fill:#808080;fill-opacity:1;fill-rule:nonzero;stroke:none"
       transform="matrix(1.3333333,0,0,-1.3333333,27.632,27.633333)" />
    <path
       id="path128"
       d="m 278.75868,-20.12482 h 40.24965 m -40.24965,10.06241 h 40.24965 M 278.75868,0 h 40.24965 m -40.24965,10.06238 h 40.24965 m -40.24965,10.06241 h 40.24965 m -40.24965,-40.24961 v 40.24964 m 10.06241,-40.24964 v 40.24964 m 10.06239,-40.24964 v 40.24964 m 10.06241,-40.24964 v 40.24964 m 10.06241,-40.24964 v 40.24964"
       style="fill:none;stroke:#404040;stroke-width:0.19925;stroke-linecap:butt;stroke-linejoin:miter;stroke-miterlimit:10;stroke-dasharray:none;stroke-opacity:1"
       transform="matrix(1.3333333,0,0,-1.3333333,27.632,27.633333)" />
    <path
       id="path129"
       d="m 298.93332,-10.01259 h 9.96277 v 9.96277 h -9.96277 z"
       style="fill:#808080;fill-opacity:1;fill-rule:nonzero;stroke:none"
       transform="matrix(1.3333333,0,0,-1.3333333,27.632,27.633333)" />
    <path
       id="path130"
       d="m 278.75868,-20.12482 h 40.24965 m -40.24965,10.06241 h 40.24965 M 278.75868,0 h 40.24965 m -40.24965,10.06238 h 40.24965 m -40.24965,10.06241 h 40.24965 m -40.24965,-40.24961 v 40.24964 m 10.06241,-40.24964 v 40.24964 m 10.06239,-40.24964 v 40.24964 m 10.06241,-40.24964 v 40.24964 m 10.06241,-40.24964 v 40.24964"
       style="fill:none;stroke:#404040;stroke-width:0.19925;stroke-linecap:butt;stroke-linejoin:miter;stroke-miterlimit:10;stroke-dasharray:none;stroke-opacity:1"
       transform="matrix(1.3333333,0,0,-1.3333333,27.632,27.633333)" />
    <path
       id="path131"
       d="m 278.75868,-20.12482 h 40.24965 m -40.24965,10.06241 h 40.24965 M 278.75868,0 h 40.24965 m -40.24965,10.06238 h 40.24965 m -40.24965,10.06241 h 40.24965 m -40.24965,-40.24961 v 40.24964 m 10.06241,-40.24964 v 40.24964 m 10.06239,-40.24964 v 40.24964 m 10.06241,-40.24964 v 40.24964 m 10.06241,-40.24964 v 40.24964"
       style="fill:none;stroke:#404040;stroke-width:0.19925;stroke-linecap:butt;stroke-linejoin:miter;stroke-miterlimit:10;stroke-dasharray:none;stroke-opacity:1"
       transform="matrix(1.3333333,0,0,-1.3333333,27.632,27.633333)" />
    <path
       id="path132"
       d="m 278.75868,-20.12482 h 40.24965 m -40.24965,10.06241 h 40.24965 M 278.75868,0 h 40.24965 m -40.24965,10.06238 h 40.24965 m -40.24965,10.06241 h 40.24965 m -40.24965,-40.24961 v 40.24964 m 10.06241,-40.24964 v 40.24964 m 10.06239,-40.24964 v 40.24964 m 10.06241,-40.24964 v 40.24964 m 10.06241,-40.24964 v 40.24964"
       style="fill:none;stroke:#404040;stroke-width:0.19925;stroke-linecap:butt;stroke-linejoin:miter;stroke-miterlimit:10;stroke-dasharray:none;stroke-opacity:1"
       transform="matrix(1.3333333,0,0,-1.3333333,27.632,27.633333)" />
    <path
       id="path133"
       d="m 288.87091,0.0498 h 9.96277 v 9.96277 h -9.96277 z"
       style="fill:#808080;fill-opacity:1;fill-rule:nonzero;stroke:none"
       transform="matrix(1.3333333,0,0,-1.3333333,27.632,27.633333)" />
    <path
       id="path134"
       d="m 278.75868,-20.12482 h 40.24965 m -40.24965,10.06241 h 40.24965 M 278.75868,0 h 40.24965 m -40.24965,10.06238 h 40.24965 m -40.24965,10.06241 h 40.24965 m -40.24965,-40.24961 v 40.24964 m 10.06241,-40.24964 v 40.24964 m 10.06239,-40.24964 v 40.24964 m 10.06241,-40.24964 v 40.24964 m 10.06241,-40.24964 v 40.24964"
       style="fill:none;stroke:#404040;stroke-width:0.19925;stroke-linecap:butt;stroke-linejoin:miter;stroke-miterlimit:10;stroke-dasharray:none;stroke-opacity:1"
       transform="matrix(1.3333333,0,0,-1.3333333,27.632,27.633333)" />
    <path
       id="path135"
       d="m 278.75868,-20.12482 h 40.24965 m -40.24965,10.06241 h 40.24965 M 278.75868,0 h 40.24965 m -40.24965,10.06238 h 40.24965 m -40.24965,10.06241 h 40.24965 m -40.24965,-40.24961 v 40.24964 m 10.06241,-40.24964 v 40.24964 m 10.06239,-40.24964 v 40.24964 m 10.06241,-40.24964 v 40.24964 m 10.06241,-40.24964 v 40.24964"
       style="fill:none;stroke:#404040;stroke-width:0.19925;stroke-linecap:butt;stroke-linejoin:miter;stroke-miterlimit:10;stroke-dasharray:none;stroke-opacity:1"
       transform="matrix(1.3333333,0,0,-1.3333333,27.632,27.633333)" />
    <path
       id="path136"
       d="m 278.75868,-20.12482 h 40.24965 m -40.24965,10.06241 h 40.24965 M 278.75868,0 h 40.24965 m -40.24965,10.06238 h 40.24965 m -40.24965,10.06241 h 40.24965 m -40.24965,-40.24961 v 40.24964 m 10.06241,-40.24964 v 40.24964 m 10.06239,-40.24964 v 40.24964 m 10.06241,-40.24964 v 40.24964 m 10.06241,-40.24964 v 40.24964"
       style="fill:none;stroke:#404040;stroke-width:0.19925;stroke-linecap:butt;stroke-linejoin:miter;stroke-miterlimit:10;stroke-dasharray:none;stroke-opacity:1"
       transform="matrix(1.3333333,0,0,-1.3333333,27.632,27.633333)" />
    <path
       id="path137"
       d="m 278.75868,-20.12482 h 40.24965 m -40.24965,10.06241 h 40.24965 M 278.75868,0 h 40.24965 m -40.24965,10.06238 h 40.24965 m -40.24965,10.06241 h 40.24965 m -40.24965,-40.24961 v 40.24964 m 10.06241,-40.24964 v 40.24964 m 10.06239,-40.24964 v 40.24964 m 10.06241,-40.24964 v 40.24964 m 10.06241,-40.24964 v 40.24964"
       style="fill:none;stroke:#404040;stroke-width:0.19925;stroke-linecap:butt;stroke-linejoin:miter;stroke-miterlimit:10;stroke-dasharray:none;stroke-opacity:1"
       transform="matrix(1.3333333,0,0,-1.3333333,27.632,27.633333)" />
    <path
       id="path138"
       d="m 288.87091,10.11221 h 9.96277 v 9.96277 h -9.96277 z"
       style="fill:#808080;fill-opacity:1;fill-rule:nonzero;stroke:none"
       transform="matrix(1.3333333,0,0,-1.3333333,27.632,27.633333)" />
    <path
       id="path139"
       d="m 278.75868,-20.12482 h 40.24965 m -40.24965,10.06241 h 40.24965 M 278.75868,0 h 40.24965 m -40.24965,10.06238 h 40.24965 m -40.24965,10.06241 h 40.24965 m -40.24965,-40.24961 v 40.24964 m 10.06241,-40.24964 v 40.24964 m 10.06239,-40.24964 v 40.24964 m 10.06241,-40.24964 v 40.24964 m 10.06241,-40.24964 v 40.24964"
       style="fill:none;stroke:#404040;stroke-width:0.19925;stroke-linecap:butt;stroke-linejoin:miter;stroke-miterlimit:10;stroke-dasharray:none;stroke-opacity:1"
       transform="matrix(1.3333333,0,0,-1.3333333,27.632,27.633333)" />
    <path
       id="path140"
       d="m 278.75868,-20.12482 h 40.24965 m -40.24965,10.06241 h 40.24965 M 278.75868,0 h 40.24965 m -40.24965,10.06238 h 40.24965 m -40.24965,10.06241 h 40.24965 m -40.24965,-40.24961 v 40.24964 m 10.06241,-40.24964 v 40.24964 m 10.06239,-40.24964 v 40.24964 m 10.06241,-40.24964 v 40.24964 m 10.06241,-40.24964 v 40.24964"
       style="fill:none;stroke:#404040;stroke-width:0.19925;stroke-linecap:butt;stroke-linejoin:miter;stroke-miterlimit:10;stroke-dasharray:none;stroke-opacity:1"
       transform="matrix(1.3333333,0,0,-1.3333333,27.632,27.633333)" />
    <path
       id="path141"
       d="m 278.75868,-20.12482 h 40.24965 m -40.24965,10.06241 h 40.24965 M 278.75868,0 h 40.24965 m -40.24965,10.06238 h 40.24965 m -40.24965,10.06241 h 40.24965 m -40.24965,-40.24961 v 40.24964 m 10.06241,-40.24964 v 40.24964 m 10.06239,-40.24964 v 40.24964 m 10.06241,-40.24964 v 40.24964 m 10.06241,-40.24964 v 40.24964"
       style="fill:none;stroke:#404040;stroke-width:0.19925;stroke-linecap:butt;stroke-linejoin:miter;stroke-miterlimit:10;stroke-dasharray:none;stroke-opacity:1"
       transform="matrix(1.3333333,0,0,-1.3333333,27.632,27.633333)" />
    <path
       id="path142"
       d="m 3.8329922,-6.2118281 h 0.890625 c 0.1171875,0 0.234375,0 0.3632812,0 H 6.4111172 V -6.8563594 H 0.36424219 v 0.6445313 H 1.7001797 c 0.1171875,0 0.234375,0 0.3515625,0 h 0.9023437 v 6.210937475 h 0.8789063 z m 0,0"
       style="fill:#000000;fill-opacity:1;fill-rule:nonzero;stroke:none"
       aria-label="T"
       transform="matrix(1.3333333,0,0,1.3333333,23.112,68.384)" />
    <path
       id="path143"
       d="M 1.8293984,-6.9149531 H 0.93877344 V -8.90625e-4 H 1.8293984 Z m 0,0"
       style="fill:#000000;fill-opacity:1;fill-rule:nonzero;stroke:none"
       aria-label="I"
       transform="matrix(1.3333333,0,0,1.3333333,92.205333,68.384)" />
    <path
       id="path144"
       d="M 1.8274219,-6.9149531 H 0.93679688 V -8.90625e-4 H 4.9680469 V -0.65714062 c -0.8789063,0.0117188 -1.7695313,0.0234375 -2.6601563,0.0234375 H 1.8274219 Z m 0,0"
       style="fill:#000000;fill-opacity:1;fill-rule:nonzero;stroke:none"
       aria-label="L"
       transform="matrix(1.3333333,0,0,1.3333333,422.54,68.384)" />
    <path
       id="path145"
       d="m 6.7613125,-3.4344844 c 0,-2.0976562 -1.4414062,-3.703125 -3.09375,-3.703125 -1.6992187,0 -3.10546875,1.6289063 -3.10546875,3.703125 0,2.109375 1.46484375,3.65625003 3.09375005,3.65625003 1.6640625,0 3.1054687,-1.57031253 3.1054687,-3.65625003 z m -3.09375,3.00000003 c -1.171875,0 -2.2265625,-1.24218753 -2.2265625,-3.15234373 0,-1.828125 1.1015625,-2.90625 2.2148438,-2.90625 1.1601562,0 2.2265625,1.125 2.2265625,2.90625 0,1.9453125 -1.078125,3.15234373 -2.2148438,3.15234373 z m 0,0"
       style="fill:#000000;fill-opacity:1;fill-rule:nonzero;stroke:none"
       aria-label="O"
       transform="matrix(1.3333333,0,0,1.3333333,155.57867,68.384)" />
    <path
       id="path146"
       d="M 3.8686406,-6.9149531 H 3.0131719 v 5.4023437 c 0,0.1640625 0,1.12500003 -1.1835938,1.12500003 -0.4101562,0 -0.92578122,-0.17578125 -1.26562497,-0.5625 l -0.140625,0.75 c 0.234375,0.1171875 0.86718747,0.421875 1.69921877,0.421875 1.03125,0 1.7460937,-0.5859375 1.7460937,-1.71093753 z m 0,0"
       style="fill:#000000;fill-opacity:1;fill-rule:nonzero;stroke:none"
       aria-label="J"
       transform="matrix(1.3333333,0,0,1.3333333,356.584,68.384)" />
    <path
       id="path147"
       d="m 4.6293906,-6.6337031 c -0.5390625,-0.328125 -1.0898437,-0.5039063 -1.8164062,-0.5039063 -1.3828125,0 -2.25000002,0.984375 -2.25000002,1.96875 0,0.421875 0.140625,0.84375 0.53906252,1.265625 0.4101562,0.4453125 0.8554687,0.5625 1.4414062,0.703125 0.84375,0.2109375 0.9492188,0.2460938 1.21875,0.4921875 0.1992188,0.1640625 0.421875,0.4921875 0.421875,0.9257813 0,0.65625 -0.5507812,1.31249998 -1.453125,1.31249998 -0.4101562,0 -1.3007812,-0.09375 -2.14453122,-0.80859378 L 0.43407813,-0.46964062 C 1.3129844,0.08114063 2.1098594,0.22176563 2.7426719,0.22176563 c 1.3125,0 2.2265625,-1.0078125 2.2265625,-2.10937503 0,-0.6445312 -0.3046875,-1.125 -0.5273438,-1.359375 -0.46875,-0.5039062 -0.796875,-0.5859375 -1.7109375,-0.8203125 -0.5742187,-0.140625 -0.7382812,-0.1757812 -1.03125,-0.4335937 -0.070312,-0.058594 -0.3515625,-0.3515625 -0.3515625,-0.7851563 0,-0.5976562 0.5390625,-1.1953125 1.453125,-1.1953125 0.8320313,0 1.3125,0.3398438 1.6875,0.6445313 z m 0,0"
       style="fill:#000000;fill-opacity:1;fill-rule:nonzero;stroke:none"
       aria-label="S"
       transform="matrix(1.3333333,0,0,1.3333333,223.19467,68.384)" />
    <path
       id="path148"
       d="M 5.5181719,-6.5047969 V -6.9149531 H 0.69004688 v 0.6210937 H 2.6822344 c 0.1171875,0 0.234375,-0.011719 0.3515625,-0.011719 h 1.359375 L 0.56114063,-0.43448437 V -8.90625e-4 H 5.5767656 V -0.65714062 H 4.6158281 c -0.8671875,0 -1.7460937,0.0234375 -2.6132812,0.0234375 H 1.6861406 Z m 0,0"
       style="fill:#000000;fill-opacity:1;fill-rule:nonzero;stroke:none"
       aria-label="Z"
       transform="matrix(1.3333333,0,0,1.3333333,289.244,68.384)" />
  </g>
</svg>
