<?xml version="1.0" encoding="UTF-8" standalone="no"?>
<!-- Created with Inkscape (http://www.inkscape.org/) -->

<svg
   version="1.1"
   id="svg1"
   width="309.32001"
   height="155.70132"
   viewBox="0 0 309.32001 155.70132"
   sodipodi:docname="main.pdf"
   xmlns:inkscape="http://www.inkscape.org/namespaces/inkscape"
   xmlns:sodipodi="http://sodipodi.sourceforge.net/DTD/sodipodi-0.dtd"
   xmlns="http://www.w3.org/2000/svg"
   xmlns:svg="http://www.w3.org/2000/svg">
  <defs
     id="defs1" />
  <sodipodi:namedview
     id="namedview1"
     pagecolor="#ffffff"
     bordercolor="#000000"
     borderopacity="0.25"
     inkscape:showpageshadow="2"
     inkscape:pageopacity="0.0"
     inkscape:pagecheckerboard="0"
     inkscape:deskcolor="#d1d1d1">
    <inkscape:page
       x="0"
       y="0"
       inkscape:label="1"
       id="page1"
       width="309.32001"
       height="155.70132"
       margin="0"
       bleed="0" />
  </sodipodi:namedview>
  <g
     id="g1"
     inkscape:groupmode="layer"
     inkscape:label="1">
    <path
       id="path1"
       d="M 0,0 H 231.99 V 116.776 H 0 Z"
       style="fill:#ffffff;fill-opacity:1;fill-rule:nonzero;stroke:none"
       transform="matrix(1.3333333,0,0,-1.3333333,0,155.70133)" />
    <path
       id="path2"
       d="M -42.06505,-95.11053 V 20.66724 H 188.92778 V -95.11053 Z"
       style="fill:#ffffff;fill-opacity:1;fill-rule:nonzero;stroke:none"
       transform="matrix(1.3333333,0,0,-1.3333333,56.753333,28.222667)" />
    <path
       id="path3"
       d="m 4.088625,-4.1600937 c -0.5976563,-0.3398438 -0.9375,-0.4335938 -1.5351563,-0.4335938 -1.3945312,0 -2.1914062,1.2070313 -2.1914062,2.3789063 0,1.24218745 0.9023437,2.32031245 2.1445312,2.32031245 0.5390625,0 1.0898438,-0.140625 1.6289063,-0.50390625 L 4.0769062,-1.0663437 C 3.5612812,-0.66790625 3.0222187,-0.52728125 2.5183125,-0.52728125 1.698,-0.52728125 1.1355,-1.242125 1.1355,-2.2265 c 0,-0.7734375 0.3632812,-1.7226562 1.4179687,-1.7226562 0.5273438,0 0.8671875,0.070312 1.40625,0.4335937 z M 5.9870625,-6.914 h -0.75 V 6.25e-5 h 0.75 z m 3.6210937,4.2070313 1.6757808,-1.7109375 h -0.902343 l -2.0156253,2.0625 V -6.914 H 7.6394062 V 6.25e-5 h 0.6914063 v -1.40625 L 9.1276875,-2.2265 10.686281,6.25e-5 h 0.808594 z m 0,0"
       style="fill:#000000;fill-opacity:1;fill-rule:nonzero;stroke:none"
       aria-label="clk"
       transform="matrix(1.3333333,0,0,1.3333333,31.736,28.218667)" />
    <path
       id="path4"
       d="M 0,0.00255 H 14.1693 V 10.62952 H 28.33861 V 0.00255 H 42.50792 V 10.62952 H 56.67723 V 0.00255 h 14.1693 V 10.62952 H 85.01584 V 0.00255 h 14.16931 v 10.62697 h 14.16931 V 0.00255 h 14.1693 v 10.62697 h 14.16931 V 0.00255 h 14.16931 V 10.62952 H 170.0317 V 0.00255 h 14.16929"
       style="fill:none;stroke:#000000;stroke-width:0.66414;stroke-linecap:round;stroke-linejoin:round;stroke-miterlimit:10;stroke-dasharray:none;stroke-opacity:1"
       transform="matrix(1.3333333,0,0,-1.3333333,56.753333,28.222667)" />
    <path
       id="path5"
       d="m 3.9723906,-2.8838672 c 0,-1.0078125 -0.7265625,-1.7109375 -1.640625,-1.7109375 -0.6445312,0 -1.1015625,0.1640625 -1.57031248,0.4335938 l 0.0703125,0.65625 c 0.51562498,-0.375 1.00781248,-0.5039063 1.49999998,-0.5039063 0.46875,0 0.8671875,0.3984375 0.8671875,1.1367188 v 0.4335937 c -1.5,0.011719 -2.76562498,0.4335938 -2.76562498,1.3125 0,0.42187501 0.26953125,1.23046876 1.13671878,1.23046876 0.140625,0 1.078125,-0.01171875 1.6523437,-0.46875 v 0.36328125 h 0.75 z m -0.7734375,1.5703125 c 0,0.1875 0,0.43359376 -0.3398437,0.62109376 -0.2929688,0.1875 -0.6679688,0.1875 -0.7734375,0.1875 -0.4804688,0 -0.9257813,-0.22265625 -0.9257813,-0.64453126 0,-0.6914062 1.6054688,-0.7617187 2.0390625,-0.7851562 z m 5.9121094,-5.6015625 h -0.75 v 2.9296875 c -0.5273438,-0.4335937 -1.078125,-0.5507812 -1.453125,-0.5507812 -0.984375,0 -1.7578125,1.0429687 -1.7578125,2.3203125 0,1.31249996 0.7617187,2.32031246 1.7109375,2.32031246 0.328125,0 0.9140625,-0.08203125 1.4765625,-0.62109375 v 0.515625 h 0.7734375 z m -0.7734375,5.53125 c 0,0.140625 -0.011719,0.3164063 -0.328125,0.60937501 -0.234375,0.19921875 -0.4804688,0.26953125 -0.7382813,0.26953125 -0.6210937,0 -1.3476562,-0.45703125 -1.3476562,-1.69921876 0,-1.3125 0.8554687,-1.7226562 1.4414062,-1.7226562 0.4453125,0 0.75,0.234375 0.9726563,0.5507812 z m 5.920898,-5.53125 h -0.75 v 2.9296875 c -0.527343,-0.4335937 -1.078125,-0.5507812 -1.453125,-0.5507812 -0.984375,0 -1.757812,1.0429687 -1.757812,2.3203125 0,1.31249996 0.761719,2.32031246 1.710937,2.32031246 0.328125,0 0.914063,-0.08203125 1.476563,-0.62109375 v 0.515625 h 0.773437 z m -0.773437,5.53125 c 0,0.140625 -0.01172,0.3164063 -0.328125,0.60937501 -0.234375,0.19921875 -0.480469,0.26953125 -0.738281,0.26953125 -0.621094,0 -1.347657,-0.45703125 -1.347657,-1.69921876 0,-1.3125 0.855469,-1.7226562 1.441407,-1.7226562 0.445312,0 0.75,0.234375 0.972656,0.5507812 z m 3.158203,-0.75 c 0,-0.9960937 0.726563,-1.7109375 1.699219,-1.734375 v -0.6679687 c -0.890625,0.011719 -1.429688,0.5039062 -1.746094,0.9609375 v -0.9140625 h -0.691406 v 4.48828121 h 0.738281 z m 5.970703,-0.046875 c 0,-0.3398437 -0.01172,-1.0898437 -0.398437,-1.6875 -0.410157,-0.6210937 -1.019532,-0.7265625 -1.371094,-0.7265625 -1.113281,0 -2.003906,1.0546875 -2.003906,2.34375 0,1.31250001 0.949218,2.35546876 2.144531,2.35546876 0.632812,0 1.195312,-0.234375 1.59375,-0.515625 l -0.07031,-0.64453126 c -0.621093,0.51562501 -1.277343,0.55078126 -1.511718,0.55078126 -0.796875,0 -1.429688,-0.70312496 -1.464844,-1.67578126 z m -3.023437,-0.5507812 c 0.152343,-0.7617188 0.679687,-1.2539063 1.253906,-1.2539063 0.515625,0 1.066406,0.3398438 1.195312,1.2539063 z m 6.74707,-1.546875 c -0.527344,-0.234375 -0.925781,-0.3164063 -1.441406,-0.3164063 -0.246094,0 -1.652344,0 -1.652344,1.3007813 0,0.4921875 0.292969,0.8085937 0.539062,0.9960937 0.304688,0.2226563 0.527344,0.2695313 1.078125,0.375 0.351563,0.070312 0.9375,0.1875 0.9375,0.7148438 0,0.69140621 -0.785156,0.69140621 -0.9375,0.69140621 -0.808593,0 -1.371093,-0.375 -1.546875,-0.49218751 L 23.197,-0.32917969 c 0.316406,0.1640625 0.867187,0.43359375 1.675781,0.43359375 0.175781,0 0.726563,0 1.148438,-0.31640625 0.316406,-0.234375 0.480468,-0.6328125 0.480468,-1.06640621 0,-0.5507813 -0.363281,-0.8789063 -0.386718,-0.9140625 C 25.72825,-2.5440234 25.458719,-2.6026172 24.954812,-2.6963672 24.41575,-2.8018359 23.947,-2.8955859 23.947,-3.3877734 c 0,-0.6210938 0.726562,-0.6210938 0.855469,-0.6210938 0.316406,0 0.84375,0.046875 1.40625,0.3867188 z m 3.817383,0 c -0.527344,-0.234375 -0.925781,-0.3164063 -1.441406,-0.3164063 -0.246094,0 -1.652344,0 -1.652344,1.3007813 0,0.4921875 0.292969,0.8085937 0.539062,0.9960937 0.304688,0.2226563 0.527344,0.2695313 1.078125,0.375 0.351563,0.070312 0.9375,0.1875 0.9375,0.7148438 0,0.69140621 -0.785156,0.69140621 -0.9375,0.69140621 -0.808593,0 -1.371093,-0.375 -1.546875,-0.49218751 l -0.117187,0.67968751 c 0.316406,0.1640625 0.867187,0.43359375 1.675781,0.43359375 0.175781,0 0.726563,0 1.148438,-0.31640625 0.316406,-0.234375 0.480468,-0.6328125 0.480468,-1.06640621 0,-0.5507813 -0.363281,-0.8789063 -0.386718,-0.9140625 -0.386719,-0.3515625 -0.65625,-0.4101563 -1.160157,-0.5039063 -0.539062,-0.1054687 -1.007812,-0.1992187 -1.007812,-0.6914062 0,-0.6210938 0.726562,-0.6210938 0.855469,-0.6210938 0.316406,0 0.84375,0.046875 1.40625,0.3867188 z m 0,0"
       style="fill:#000000;fill-opacity:1;fill-rule:nonzero;stroke:none"
       aria-label="address"
       transform="matrix(1.3333333,0,0,1.3333333,6.5706667,56.56)" />
    <path
       id="path6"
       d="m 0,-10.62573 21.25395,-6.4e-4 1.77115,-5.3135 -1.77115,-5.31349 L 0,-21.25269"
       style="fill:none;stroke:#000000;stroke-width:0.66414;stroke-linecap:round;stroke-linejoin:round;stroke-miterlimit:10;stroke-dasharray:none;stroke-opacity:1"
       transform="matrix(1.3333333,0,0,-1.3333333,56.753333,28.222667)" />
    <path
       id="path7"
       d="m 0.9552474,-6.9163411 v 6.91406245 h 2.6171875 c 1.6992187,0 3.046875,-1.52343745 3.046875,-3.39843745 0,-1.9335938 -1.3476563,-3.515625 -3.046875,-3.515625 z m 0.859375,6.3476562 v -5.78125 h 1.5234375 c 1.3867187,0 2.421875,1.1914063 2.421875,2.9492188 0,1.6992187 -1.0351563,2.8320312 -2.421875,2.8320312 z m 9.7363286,-6.5234375 c 0.05859,-0.1367187 0.05859,-0.15625 0.05859,-0.1757812 0,-0.1171875 -0.09766,-0.1953125 -0.195312,-0.1953125 -0.136719,0 -0.175781,0.097656 -0.214844,0.1953125 l -3.3984375,9.375 c -0.039063,0.1367187 -0.039063,0.15625 -0.039063,0.1757812 0,0.1171875 0.078125,0.1953125 0.1953125,0.1953125 0.1367188,0 0.1757813,-0.097656 0.1953125,-0.1953125 z m 6.425781,5.9570313 c -0.585938,0.39062495 -0.9375,0.58593745 -1.914063,0.58593745 -1.445312,0 -2.324218,-1.48437495 -2.324218,-2.91015625 0,-1.3671875 0.820312,-2.9296875 2.34375,-2.9296875 0.703125,0 1.152343,0.1757813 1.699218,0.5273438 l 0.136719,-0.8203125 c -0.429687,-0.2148438 -1.191406,-0.3515625 -1.835937,-0.3515625 -1.835938,0 -3.242188,1.5625 -3.242188,3.6523437 0,1.5820313 1.171875,3.49609375 3.242188,3.49609375 0.917968,0 1.308593,-0.17578125 1.953125,-0.56640625 z m 0,0"
       style="fill:#000000;fill-opacity:1;fill-rule:nonzero;stroke:none"
       aria-label="D/C"
       transform="matrix(0.8,0,0,0.8,63.505333,51.466667)" />
    <path
       id="path8"
       d="m 23.0251,-15.93858 1.77116,5.31349 24.79632,-6.4e-4 1.77114,-5.31349 -1.77114,-5.3135 -24.79632,0.0013 -1.77116,5.31348"
       style="fill:none;stroke:#000000;stroke-width:0.66414;stroke-linecap:round;stroke-linejoin:round;stroke-miterlimit:10;stroke-dasharray:none;stroke-opacity:1"
       transform="matrix(1.3333333,0,0,-1.3333333,56.753333,28.222667)" />
    <path
       id="path9"
       d="m 3.9644661,-2.8732422 c 0,-1.015625 -0.7226562,-1.71875 -1.640625,-1.71875 -0.6445312,0 -1.09375,0.15625 -1.56249995,0.4296875 l 0.0585938,0.6445313 C 1.3472786,-3.8693359 1.8355599,-4.0060547 2.3238412,-4.0060547 c 0.46875,0 0.8789063,0.390625 0.8789063,1.1328125 v 0.4296875 c -1.5039063,0.019531 -2.77343755,0.4296875 -2.77343755,1.3085938 0,0.42968746 0.2734375,1.24999996 1.15234375,1.24999996 0.1367188,0 1.0742188,-0.01953125 1.640625,-0.46875 v 0.3515625 h 0.7421875 z m -0.7617187,1.5625 c 0,0.1757813 0,0.42968751 -0.3515625,0.62500001 -0.2734375,0.17578125 -0.6640625,0.1953125 -0.7617188,0.1953125 -0.4882812,0 -0.9375,-0.234375 -0.9375,-0.66406251 0,-0.6835937 1.6210938,-0.7617187 2.0507813,-0.78125 z M 9.1060677,-6.9162109 H 8.3638802 v 2.9296875 c -0.5273437,-0.4296875 -1.09375,-0.546875 -1.4453125,-0.546875 -0.9960937,0 -1.7773437,1.0351562 -1.7773437,2.3242187 0,1.30859376 0.78125,2.32421876 1.71875,2.32421876 0.3320312,0 0.9179687,-0.09765625 1.484375,-0.64453125 v 0.52734375 H 9.1060677 Z M 8.344349,-1.3888672 c 0,0.1367188 -0.019531,0.3125 -0.3320313,0.60546876 -0.234375,0.1953125 -0.4882812,0.29296875 -0.7421875,0.29296875 -0.625,0 -1.3476562,-0.46875 -1.3476562,-1.71875001 0,-1.3085937 0.859375,-1.71875 1.4453125,-1.71875 0.4492187,0 0.7421875,0.234375 0.9765625,0.546875 z m 5.908203,-5.5273437 h -0.742187 v 2.9296875 c -0.527344,-0.4296875 -1.09375,-0.546875 -1.445313,-0.546875 -0.996094,0 -1.777344,1.0351562 -1.777344,2.3242187 0,1.30859376 0.78125,2.32421876 1.71875,2.32421876 0.332032,0 0.917969,-0.09765625 1.484375,-0.64453125 v 0.52734375 h 0.761719 z m -0.761719,5.5273437 c 0,0.1367188 -0.01953,0.3125 -0.332031,0.60546876 -0.234375,0.1953125 -0.488281,0.29296875 -0.742187,0.29296875 -0.625,0 -1.347657,-0.46875 -1.347657,-1.71875001 0,-1.3085937 0.859375,-1.71875 1.445313,-1.71875 0.449219,0 0.742187,0.234375 0.976562,0.546875 z m 3.154297,-0.7421875 c 0,-0.9960937 0.722656,-1.71875 1.699219,-1.7382812 v -0.6640625 c -0.898438,0 -1.445313,0.4882812 -1.738281,0.9570312 v -0.8984375 h -0.703125 v 4.47265626 h 0.742187 z m 6.391602,-1.1132812 c 0,-0.8007813 -0.03906,-1.71875 -0.449219,-2.5195313 -0.410156,-0.7617187 -1.09375,-0.9960937 -1.621094,-0.9960937 -0.585937,0 -1.269531,0.2734375 -1.679687,1.1523437 -0.332031,0.7421875 -0.390625,1.5625 -0.390625,2.3632813 0,0.78125 0.03906,1.5039062 0.351562,2.2265625 0.390625,0.95703121 1.152344,1.23046871 1.71875,1.23046871 0.722657,0 1.347657,-0.41015625 1.679688,-1.09375 0.292969,-0.64453121 0.390625,-1.30859371 0.390625,-2.36328121 z m -2.070313,2.85156246 c -0.507812,0 -0.917968,-0.37109375 -1.113281,-1.09374996 -0.15625,-0.5664063 -0.175781,-1.1132813 -0.175781,-1.875 0,-0.6445313 0,-1.2304688 0.175781,-1.7773438 0.05859,-0.1953125 0.3125,-1.015625 1.113281,-1.015625 0.78125,0 1.035157,0.7617188 1.113282,0.9375 0.175781,0.5664063 0.175781,1.2304688 0.175781,1.8554688 0,0.6445312 0,1.2695312 -0.175781,1.9140625 -0.253907,0.89843746 -0.78125,1.05468746 -1.113282,1.05468746 z m 0,0"
       style="fill:#000000;fill-opacity:1;fill-rule:nonzero;stroke:none"
       aria-label="addr0"
       transform="matrix(0.8,0,0,0.8,96.957333,52.24)" />
    <path
       id="path10"
       d="m 51.36372,-15.93794 1.77115,5.31349 24.79631,-6.4e-4 1.77115,-5.31349 -1.77115,-5.31351 -24.79631,0.0013 -1.77115,5.31348"
       style="fill:none;stroke:#000000;stroke-width:0.66414;stroke-linecap:round;stroke-linejoin:round;stroke-miterlimit:10;stroke-dasharray:none;stroke-opacity:1"
       transform="matrix(1.3333333,0,0,-1.3333333,56.753333,28.222667)" />
    <path
       id="path11"
       d="M 0.95570313,-6.9146745 V -6.1197917e-4 H 3.5728906 c 1.6992188,0 3.046875,-1.52343752083 3.046875,-3.39843752083 0,-1.9335937 -1.3476562,-3.515625 -3.046875,-3.515625 z M 1.8150781,-0.56701823 V -6.3482682 h 1.5234375 c 1.3867188,0 2.421875,1.1914062 2.421875,2.9492187 0,1.6992188 -1.0351562,2.83203127 -2.421875,2.83203127 z M 11.551406,-7.0904557 C 11.61,-7.2271745 11.61,-7.2467057 11.61,-7.266237 c 0,-0.1171875 -0.09766,-0.1953125 -0.195312,-0.1953125 -0.136719,0 -0.175782,0.097656 -0.214844,0.1953125 l -3.3984377,9.375 c -0.039063,0.1367188 -0.039063,0.15625 -0.039063,0.1757813 0,0.1171875 0.078125,0.1953125 0.1953125,0.1953125 0.1367187,0 0.1757812,-0.097656 0.1953125,-0.1953125 z m 6.425782,5.9570312 c -0.585938,0.39062502 -0.9375,0.58593752 -1.914063,0.58593752 -1.445312,0 -2.324219,-1.48437502 -2.324219,-2.91015622 0,-1.3671875 0.820313,-2.9296875 2.34375,-2.9296875 0.703125,0 1.152344,0.1757812 1.699219,0.5273437 l 0.136719,-0.8203125 c -0.429688,-0.2148437 -1.191406,-0.3515625 -1.835938,-0.3515625 -1.835937,0 -3.242187,1.5625 -3.242187,3.6523438 0,1.5820312 1.171875,3.49609372 3.242187,3.49609372 0.917969,0 1.308594,-0.17578125 1.953125,-0.56640625 z m 0,0"
       style="fill:#000000;fill-opacity:1;fill-rule:nonzero;stroke:none"
       aria-label="D/C"
       transform="matrix(0.8,0,0,0.8,136.712,51.465333)" />
    <path
       id="path12"
       d="m 79.70233,-15.9373 1.77117,5.31347 24.7963,-6.2e-4 1.77115,-5.31349 -1.77115,-5.31351 -24.7963,0.0013 -1.77117,5.31348"
       style="fill:none;stroke:#000000;stroke-width:0.66414;stroke-linecap:round;stroke-linejoin:round;stroke-miterlimit:10;stroke-dasharray:none;stroke-opacity:1"
       transform="matrix(1.3333333,0,0,-1.3333333,56.753333,28.222667)" />
    <path
       id="path13"
       d="m 3.9656901,-2.8715755 c 0,-1.015625 -0.7226562,-1.71875 -1.640625,-1.71875 -0.6445312,0 -1.09375,0.15625 -1.5625,0.4296875 l 0.0585938,0.6445312 c 0.5273437,-0.3515625 1.015625,-0.4882812 1.5039062,-0.4882812 0.46875,0 0.8789063,0.390625 0.8789063,1.1328125 v 0.4296875 c -1.5039063,0.019531 -2.77343755,0.4296875 -2.77343755,1.3085937 0,0.42968753 0.2734375,1.25000003 1.15234375,1.25000003 0.1367188,0 1.0742188,-0.01953125 1.640625,-0.46875 v 0.35156249917 h 0.7421875 z m -0.7617187,1.5625 c 0,0.1757812 0,0.42968748 -0.3515625,0.62499998 -0.2734375,0.17578125 -0.6640625,0.1953125 -0.7617188,0.1953125 -0.4882812,0 -0.9375,-0.234375 -0.9375,-0.66406248 0,-0.6835938 1.6210938,-0.7617188 2.0507813,-0.78125 z M 9.1024089,-6.9145443 H 8.3602214 v 2.9296875 c -0.5273438,-0.4296875 -1.09375,-0.546875 -1.4453125,-0.546875 -0.9960938,0 -1.7773438,1.0351563 -1.7773438,2.3242188 0,1.30859373 0.78125,2.32421873 1.71875,2.32421873 0.3320313,0 0.9179688,-0.09765625 1.484375,-0.64453125 v 0.52734374917 h 0.7617188 z m -0.7617188,5.5273438 c 0,0.1367187 -0.019531,0.3125 -0.3320312,0.60546873 -0.234375,0.1953125 -0.4882813,0.29296875 -0.7421875,0.29296875 -0.625,0 -1.3476563,-0.46875 -1.3476563,-1.71874998 0,-1.3085938 0.859375,-1.71875 1.4453125,-1.71875 0.4492188,0 0.7421875,0.234375 0.9765625,0.546875 z m 5.9130859,-5.5273438 h -0.742187 v 2.9296875 c -0.527344,-0.4296875 -1.09375,-0.546875 -1.445313,-0.546875 -0.996094,0 -1.777344,1.0351563 -1.777344,2.3242188 0,1.30859373 0.78125,2.32421873 1.71875,2.32421873 0.332032,0 0.917969,-0.09765625 1.484375,-0.64453125 v 0.52734374917 h 0.761719 z m -0.761719,5.5273438 c 0,0.1367187 -0.01953,0.3125 -0.332031,0.60546873 -0.234375,0.1953125 -0.488281,0.29296875 -0.742187,0.29296875 -0.625,0 -1.347657,-0.46875 -1.347657,-1.71874998 0,-1.3085938 0.859375,-1.71875 1.445313,-1.71875 0.449219,0 0.742187,0.234375 0.976562,0.546875 z m 3.154297,-0.7421875 c 0,-0.9960938 0.722656,-1.71875 1.699219,-1.7382813 v -0.6640625 c -0.898438,0 -1.445313,0.4882813 -1.738281,0.9570313 V -4.473138 h -0.703125 v 4.47265622917 h 0.742187 z m 4.80957,-4.6289063 h -0.195312 c -0.585938,0.6054688 -1.40625,0.6445313 -1.894531,0.6640625 v 0.5664063 c 0.332031,0 0.820312,-0.019531 1.308593,-0.234375 v 5.17578123 h -1.25 v 0.58593749917 h 3.28125 V -0.58641927 h -1.25 z m 0,0"
       style="fill:#000000;fill-opacity:1;fill-rule:nonzero;stroke:none"
       aria-label="addr1"
       transform="matrix(0.8,0,0,0.8,172.52667,52.238667)" />
    <path
       id="path14"
       d="m 108.04095,-15.93604 1.77115,5.3135 74.38889,-0.0013 m 0,-10.62698 -74.38889,0.0013 -1.77115,5.31346"
       style="fill:none;stroke:#000000;stroke-width:0.66414;stroke-linecap:round;stroke-linejoin:round;stroke-miterlimit:10;stroke-dasharray:none;stroke-opacity:1"
       transform="matrix(1.3333333,0,0,-1.3333333,56.753333,28.222667)" />
    <path
       id="path15"
       d="m 0.95838542,-6.916224 v 6.91406254 H 3.5755729 c 1.6992188,0 3.046875,-1.52343754 3.046875,-3.39843754 0,-1.9335937 -1.3476562,-3.515625 -3.046875,-3.515625 z M 1.8177604,-0.56856771 V -6.3498177 h 1.5234375 c 1.3867188,0 2.421875,1.1914062 2.421875,2.9492187 0,1.6992188 -1.0351562,2.83203129 -2.421875,2.83203129 z M 11.549206,-7.0920052 c 0.05859,-0.1367188 0.05859,-0.15625 0.05859,-0.1757813 0,-0.1171875 -0.09766,-0.1953125 -0.195312,-0.1953125 -0.136719,0 -0.175781,0.097656 -0.214844,0.1953125 l -3.3984373,9.375 c -0.039063,0.1367188 -0.039063,0.15625 -0.039063,0.1757813 0,0.1171875 0.078125,0.1953125 0.1953125,0.1953125 0.1367188,0 0.1757813,-0.097656 0.1953125,-0.1953125 z m 6.425781,5.9570312 c -0.585938,0.39062504 -0.9375,0.58593754 -1.914063,0.58593754 -1.445312,0 -2.324218,-1.48437504 -2.324218,-2.91015624 0,-1.3671875 0.820312,-2.9296875 2.34375,-2.9296875 0.703125,0 1.152343,0.1757812 1.699218,0.5273437 l 0.136719,-0.8203125 c -0.429687,-0.2148437 -1.191406,-0.3515625 -1.835937,-0.3515625 -1.835938,0 -3.242188,1.5625 -3.242188,3.6523438 0,1.5820312 1.171875,3.49609374 3.242188,3.49609374 0.917968,0 1.308593,-0.17578125 1.953125,-0.56640625 z m 0,0"
       style="fill:#000000;fill-opacity:1;fill-rule:nonzero;stroke:none"
       aria-label="D/C"
       transform="matrix(0.8,0,0,0.8,245.34267,51.462667)" />
    <path
       id="path16"
       d="m 1.5592812,-2.132125 c 0,-0.9960937 0.7265625,-1.7109375 1.6992188,-1.734375 V -4.5344687 C 2.367875,-4.52275 1.8288125,-4.0305625 1.5124062,-3.5735312 V -4.4875937 H 0.821 V 6.875e-4 h 0.7382812 z m 6.1699219,-4.78125 h -0.75 v 2.9296875 c -0.5273437,-0.4335937 -1.078125,-0.5507812 -1.453125,-0.5507812 -0.984375,0 -1.7578125,1.0429687 -1.7578125,2.3203125 0,1.31249995 0.7617188,2.32031245 1.7109375,2.32031245 0.328125,0 0.9140625,-0.08203125 1.4765625,-0.62109375 v 0.515625 h 0.7734375 z m -0.7734375,5.53125 c 0,0.140625 -0.011719,0.3164063 -0.328125,0.609375 -0.234375,0.19921875 -0.4804687,0.26953125 -0.7382812,0.26953125 -0.6210938,0 -1.3476563,-0.45703125 -1.3476563,-1.69921875 0,-1.3125 0.8554688,-1.7226562 1.4414063,-1.7226562 0.4453125,0 0.75,0.234375 0.9726562,0.5507812 z m 0,0"
       style="fill:#000000;fill-opacity:1;fill-rule:nonzero;stroke:none"
       aria-label="rd"
       transform="matrix(1.3333333,0,0,1.3333333,35.905333,84.905333)" />
    <path
       id="path17"
       d="m 0,-42.51312 h 17.71162 l 1.77115,10.62698 h 26.56746 l 1.77115,-10.62698 h 26.56746 l 1.77115,10.62698 h 26.56746 l 1.77116,-10.62698 h 79.70235"
       style="fill:none;stroke:#000000;stroke-width:0.66414;stroke-linecap:round;stroke-linejoin:round;stroke-miterlimit:10;stroke-dasharray:none;stroke-opacity:1"
       transform="matrix(1.3333333,0,0,-1.3333333,56.753333,28.222667)" />
    <path
       id="path18"
       d="m 1.5599453,-2.1333828 c 0,-0.9960938 0.7265625,-1.7109375 1.6992188,-1.734375 v -0.6679688 c -0.890625,0.011719 -1.4296875,0.5039063 -1.7460938,0.9609375 V -4.4888516 H 0.82166406 V -5.703125e-4 H 1.5599453 Z m 6.1699219,-4.78125 h -0.75 v 2.9296875 c -0.5273438,-0.4335938 -1.078125,-0.5507813 -1.453125,-0.5507813 -0.984375,0 -1.7578125,1.0429688 -1.7578125,2.3203125 0,1.31250004 0.7617187,2.32031254 1.7109375,2.32031254 0.328125,0 0.9140625,-0.08203125 1.4765625,-0.62109375 v 0.5156249975 h 0.7734375 z m -0.7734375,5.53125 c 0,0.140625 -0.011719,0.3164062 -0.328125,0.60937499 -0.234375,0.19921875 -0.4804688,0.26953125 -0.7382813,0.26953125 -0.6210937,0 -1.3476562,-0.45703125 -1.3476562,-1.69921874 0,-1.3125 0.8554687,-1.7226563 1.4414062,-1.7226563 0.4453125,0 0.75,0.234375 0.9726563,0.5507813 z m 5.9208983,-5.53125 h -0.75 v 2.9296875 c -0.527344,-0.4335938 -1.078125,-0.5507813 -1.453125,-0.5507813 -0.9843749,0 -1.7578124,1.0429688 -1.7578124,2.3203125 0,1.31250004 0.7617188,2.32031254 1.7109374,2.32031254 0.328125,0 0.914063,-0.08203125 1.476563,-0.62109375 v 0.5156249975 h 0.773437 z m -0.773437,5.53125 c 0,0.140625 -0.01172,0.3164062 -0.328125,0.60937499 -0.234375,0.19921875 -0.480469,0.26953125 -0.738282,0.26953125 -0.621093,0 -1.3476559,-0.45703125 -1.3476559,-1.69921874 0,-1.3125 0.8554689,-1.7226563 1.4414059,-1.7226563 0.445313,0 0.75,0.234375 0.972657,0.5507813 z m 5.569336,-1.5 c 0,-1.0078125 -0.726563,-1.7109375 -1.640625,-1.7109375 -0.644532,0 -1.101563,0.1640625 -1.570313,0.4335937 l 0.07031,0.65625 c 0.515625,-0.375 1.007812,-0.5039062 1.5,-0.5039062 0.46875,0 0.867187,0.3984375 0.867187,1.1367187 v 0.4335938 c -1.5,0.011719 -2.765625,0.4335937 -2.765625,1.3125 0,0.42187499 0.269531,1.23046874 1.136719,1.23046874 0.140625,0 1.078125,-0.01171875 1.652344,-0.46875 v 0.3632812475 h 0.75 z m -0.773438,1.5703125 c 0,0.1875 0,0.43359374 -0.339844,0.62109374 -0.292968,0.1875 -0.667968,0.1875 -0.773437,0.1875 -0.480469,0 -0.925781,-0.22265625 -0.925781,-0.64453124 0,-0.6914063 1.605468,-0.7617188 2.039062,-0.7851563 z m 3.333984,-2.53125 h 1.40625 v -0.5742188 h -1.40625 v -1.265625 h -0.691406 v 1.265625 H 18.67518 v 0.5742188 h 0.84375 v 2.6601562 c 0,0.59765629 0.128906,1.28906254 0.820312,1.28906254 0.703125,0 1.207031,-0.24609375 1.453125,-0.375 l -0.152344,-0.5859375 c -0.257812,0.2109375 -0.585937,0.328125 -0.902343,0.328125 -0.363282,0 -0.503907,-0.3046875 -0.503907,-0.83203124 z m 5.824219,0.9609375 c 0,-1.0078125 -0.726562,-1.7109375 -1.640625,-1.7109375 -0.644531,0 -1.101562,0.1640625 -1.570312,0.4335937 l 0.07031,0.65625 c 0.515625,-0.375 1.007813,-0.5039062 1.5,-0.5039062 0.46875,0 0.867188,0.3984375 0.867188,1.1367187 v 0.4335938 c -1.5,0.011719 -2.765625,0.4335937 -2.765625,1.3125 0,0.42187499 0.269531,1.23046874 1.136718,1.23046874 0.140625,0 1.078125,-0.01171875 1.652344,-0.46875 v 0.3632812475 h 0.75 z m -0.773437,1.5703125 c 0,0.1875 0,0.43359374 -0.339844,0.62109374 -0.292969,0.1875 -0.667969,0.1875 -0.773438,0.1875 -0.480468,0 -0.925781,-0.22265625 -0.925781,-0.64453124 0,-0.6914063 1.605469,-0.7617188 2.039063,-0.7851563 z m 0,0"
       style="fill:#000000;fill-opacity:1;fill-rule:nonzero;stroke:none"
       aria-label="rddata"
       transform="matrix(1.3333333,0,0,1.3333333,11.478667,113.25467)" />
    <path
       id="path19"
       d="m 0,-53.14656 42.50792,-6.7e-4 1.77115,-5.31348 L 42.50792,-63.7742 0,-63.77353"
       style="fill:none;stroke:#000000;stroke-width:0.66414;stroke-linecap:round;stroke-linejoin:round;stroke-miterlimit:10;stroke-dasharray:none;stroke-opacity:1"
       transform="matrix(1.3333333,0,0,-1.3333333,56.753333,28.222667)" />
    <path
       id="path20"
       d="M 0.95842448,-6.9138672 V 1.953125e-4 H 3.575612 c 1.6992187,0 3.046875,-1.5234375125 3.046875,-3.3984375125 0,-1.9335937 -1.3476563,-3.515625 -3.046875,-3.515625 z M 1.8177995,-0.56621094 V -6.3474609 H 3.341237 c 1.3867187,0 2.421875,1.1914062 2.421875,2.9492187 0,1.6992188 -1.0351563,2.83203126 -2.421875,2.83203126 z M 11.549245,-7.0896484 c 0.05859,-0.1367188 0.05859,-0.15625 0.05859,-0.1757813 0,-0.1171875 -0.09766,-0.1953125 -0.195313,-0.1953125 -0.136719,0 -0.175781,0.097656 -0.214844,0.1953125 l -3.3984372,9.375 c -0.039063,0.1367188 -0.039063,0.15625 -0.039063,0.1757813 0,0.1171875 0.078125,0.1953125 0.1953125,0.1953125 0.1367187,0 0.1757812,-0.097656 0.1953125,-0.1953125 z m 6.425781,5.9570312 c -0.585937,0.39062501 -0.9375,0.58593751 -1.914062,0.58593751 -1.445313,0 -2.324219,-1.48437501 -2.324219,-2.91015621 0,-1.3671875 0.820312,-2.9296875 2.34375,-2.9296875 0.703125,0 1.152344,0.1757812 1.699219,0.5273437 l 0.136718,-0.8203125 c -0.429687,-0.2148437 -1.191406,-0.3515625 -1.835937,-0.3515625 -1.835938,0 -3.242188,1.5625 -3.242188,3.6523438 0,1.5820312 1.171875,3.49609371 3.242188,3.49609371 0.917969,0 1.308594,-0.17578125 1.953125,-0.56640625 z m 0,0"
       style="fill:#000000;fill-opacity:1;fill-rule:nonzero;stroke:none"
       aria-label="D/C"
       transform="matrix(0.8,0,0,0.8,77.674667,108.16)" />
    <path
       id="path21"
       d="m 44.27907,-58.45938 1.77115,5.31348 24.79631,-6.6e-4 1.77116,-5.31349 -1.77116,-5.31351 -24.79631,0.0014 -1.77115,5.31348"
       style="fill:none;stroke:#000000;stroke-width:0.66414;stroke-linecap:round;stroke-linejoin:round;stroke-miterlimit:10;stroke-dasharray:none;stroke-opacity:1"
       transform="matrix(1.3333333,0,0,-1.3333333,56.753333,28.222667)" />
    <path
       id="path22"
       d="M 4.3171745,-6.9154036 H 3.574987 v 2.9296875 c -0.5273438,-0.4296875 -1.09375,-0.546875 -1.4453125,-0.546875 -0.9960938,0 -1.77734377,1.0351562 -1.77734377,2.3242187 0,1.30859375 0.78124997,2.32421875 1.71874997,2.32421875 0.3320313,0 0.9179688,-0.09765625 1.484375,-0.64453125 v 0.52734375 h 0.7617188 z m -0.7617188,5.5273437 c 0,0.1367188 -0.019531,0.3125 -0.3320312,0.60546875 -0.234375,0.1953125 -0.4882813,0.29296875 -0.7421875,0.29296875 -0.625,0 -1.3476563,-0.46875 -1.3476563,-1.71875 0,-1.3085937 0.859375,-1.71875 1.4453125,-1.71875 0.4492188,0 0.7421875,0.234375 0.9765625,0.546875 z m 5.5566407,-1.484375 c 0,-1.015625 -0.7226563,-1.71875 -1.640625,-1.71875 -0.6445313,0 -1.09375,0.15625 -1.5625,0.4296875 l 0.058594,0.6445313 c 0.5273438,-0.3515625 1.015625,-0.4882813 1.5039063,-0.4882813 0.46875,0 0.8789062,0.390625 0.8789062,1.1328125 v 0.4296875 c -1.5039062,0.019531 -2.7734375,0.4296875 -2.7734375,1.3085938 0,0.42968745 0.2734375,1.24999995 1.1523438,1.24999995 0.1367187,0 1.0742187,-0.01953125 1.640625,-0.46875 v 0.3515625 h 0.7421875 z m -0.7617188,1.5625 c 0,0.1757813 0,0.4296875 -0.3515625,0.625 -0.2734375,0.17578125 -0.6640625,0.1953125 -0.7617187,0.1953125 -0.4882813,0 -0.9375,-0.234375 -0.9375,-0.6640625 0,-0.6835937 1.6210937,-0.7617187 2.0507812,-0.78125 z m 3.3251954,-2.5390625 h 1.40625 v -0.5664062 h -1.40625 v -1.2695313 h -0.683594 v 1.2695313 h -0.859375 v 0.5664062 h 0.839844 v 2.65625 c 0,0.60546875 0.136719,1.30859375 0.820312,1.30859375 0.703125,0 1.210938,-0.25390625 1.445313,-0.390625 l -0.15625,-0.5859375 c -0.253906,0.21484375 -0.566406,0.33203125 -0.898438,0.33203125 -0.371093,0 -0.507812,-0.29296875 -0.507812,-0.8203125 z m 5.820312,0.9765625 c 0,-1.015625 -0.722656,-1.71875 -1.640625,-1.71875 -0.644531,0 -1.09375,0.15625 -1.5625,0.4296875 l 0.05859,0.6445313 c 0.527344,-0.3515625 1.015625,-0.4882813 1.503906,-0.4882813 0.46875,0 0.878907,0.390625 0.878907,1.1328125 v 0.4296875 c -1.503907,0.019531 -2.773438,0.4296875 -2.773438,1.3085938 0,0.42968745 0.273438,1.24999995 1.152344,1.24999995 0.136719,0 1.074219,-0.01953125 1.640625,-0.46875 v 0.3515625 h 0.742187 z m -0.761718,1.5625 c 0,0.1757813 0,0.4296875 -0.351563,0.625 -0.273437,0.17578125 -0.664062,0.1953125 -0.761719,0.1953125 -0.488281,0 -0.9375,-0.234375 -0.9375,-0.6640625 0,-0.6835937 1.621094,-0.7617187 2.050782,-0.78125 z m 6.137695,-1.9335937 c 0,-0.8007813 -0.03906,-1.71875 -0.449219,-2.5195313 -0.410156,-0.7617187 -1.09375,-0.9960937 -1.621094,-0.9960937 -0.585937,0 -1.269531,0.2734375 -1.679687,1.1523437 -0.332031,0.7421875 -0.390625,1.5625 -0.390625,2.3632813 0,0.78125 0.03906,1.5039062 0.351562,2.2265625 0.390625,0.9570312 1.152344,1.2304687 1.71875,1.2304687 0.722657,0 1.347657,-0.41015625 1.679688,-1.09375 0.292969,-0.6445312 0.390625,-1.3085937 0.390625,-2.3632812 z m -2.070313,2.85156245 c -0.507812,0 -0.917968,-0.37109375 -1.113281,-1.09374995 -0.15625,-0.5664063 -0.175781,-1.1132813 -0.175781,-1.875 0,-0.6445313 0,-1.2304688 0.175781,-1.7773438 0.05859,-0.1953125 0.3125,-1.015625 1.113281,-1.015625 0.78125,0 1.035157,0.7617188 1.113282,0.9375 0.175781,0.5664063 0.175781,1.2304688 0.175781,1.8554688 0,0.6445312 0,1.2695312 -0.175781,1.9140625 -0.253907,0.89843745 -0.78125,1.05468745 -1.113282,1.05468745 z m 0,0"
       style="fill:#000000;fill-opacity:1;fill-rule:nonzero;stroke:none"
       aria-label="data0"
       transform="matrix(0.8,0,0,0.8,125.36267,108.93467)" />
    <path
       id="path23"
       d="m 72.61769,-58.45872 1.77115,5.31347 53.13492,-6.5e-4 1.77116,-5.31348 -1.77116,-5.31351 -53.13492,0.0013 -1.77115,5.3135"
       style="fill:none;stroke:#000000;stroke-width:0.66414;stroke-linecap:round;stroke-linejoin:round;stroke-miterlimit:10;stroke-dasharray:none;stroke-opacity:1"
       transform="matrix(1.3333333,0,0,-1.3333333,56.753333,28.222667)" />
    <path
       id="path24"
       d="M 0.95545573,-6.9122005 V 0.00186198 H 3.5726432 c 1.6992188,0 3.046875,-1.52343748 3.046875,-3.39843748 0,-1.9335938 -1.3476562,-3.515625 -3.046875,-3.515625 z M 1.8148307,-0.56454427 V -6.3457943 h 1.5234375 c 1.3867188,0 2.421875,1.1914063 2.421875,2.9492188 0,1.6992187 -1.0351562,2.83203123 -2.421875,2.83203123 z M 11.551159,-7.0879818 c 0.05859,-0.1367187 0.05859,-0.15625 0.05859,-0.1757812 0,-0.1171875 -0.09766,-0.1953125 -0.195313,-0.1953125 -0.136719,0 -0.175781,0.097656 -0.214844,0.1953125 l -3.3984371,9.375 c -0.039063,0.1367187 -0.039063,0.15625 -0.039063,0.1757812 0,0.1171875 0.078125,0.1953125 0.1953125,0.1953125 0.1367187,0 0.1757812,-0.097656 0.1953125,-0.1953125 z m 6.425781,5.9570313 c -0.585937,0.39062498 -0.9375,0.58593748 -1.914062,0.58593748 -1.445313,0 -2.324219,-1.48437498 -2.324219,-2.91015628 0,-1.3671875 0.820312,-2.9296875 2.34375,-2.9296875 0.703125,0 1.152344,0.1757813 1.699219,0.5273438 l 0.136718,-0.8203125 C 17.488659,-6.8926693 16.72694,-7.029388 16.082409,-7.029388 c -1.835938,0 -3.242188,1.5625 -3.242188,3.6523437 0,1.5820313 1.171875,3.49609378 3.242188,3.49609378 0.917969,0 1.308594,-0.17578125 1.953125,-0.56640625 z m 0,0"
       style="fill:#000000;fill-opacity:1;fill-rule:nonzero;stroke:none"
       aria-label="D/C"
       transform="matrix(0.8,0,0,0.8,183.94267,108.15867)" />
    <path
       id="path25"
       d="m 129.29492,-58.45805 1.77115,5.31346 24.79631,-6.6e-4 1.77115,-5.31347 -1.77115,-5.31351 -24.79631,0.0014 -1.77115,5.31346"
       style="fill:none;stroke:#000000;stroke-width:0.66414;stroke-linecap:round;stroke-linejoin:round;stroke-miterlimit:10;stroke-dasharray:none;stroke-opacity:1"
       transform="matrix(1.3333333,0,0,-1.3333333,56.753333,28.222667)" />
    <path
       id="path26"
       d="M 4.3159609,-6.9120703 H 3.5737734 v 2.9296875 c -0.5273437,-0.4296875 -1.09375,-0.546875 -1.4453125,-0.546875 -0.9960937,0 -1.77734371,1.0351562 -1.77734371,2.3242187 0,1.30859379 0.78125001,2.32421879 1.71875001,2.32421879 0.3320312,0 0.9179687,-0.09765625 1.484375,-0.64453125 v 0.52734375 h 0.7617187 z m -0.7617187,5.5273437 c 0,0.1367188 -0.019531,0.3125 -0.3320313,0.60546879 -0.234375,0.1953125 -0.4882812,0.29296875 -0.7421875,0.29296875 -0.625,0 -1.3476562,-0.46875 -1.3476562,-1.71875004 0,-1.3085937 0.859375,-1.71875 1.4453125,-1.71875 0.4492187,0 0.7421875,0.234375 0.9765625,0.546875 z m 5.5566406,-1.484375 c 0,-1.015625 -0.7226562,-1.71875 -1.640625,-1.71875 -0.6445312,0 -1.09375,0.15625 -1.5625,0.4296875 l 0.058594,0.6445313 c 0.5273437,-0.3515625 1.015625,-0.4882813 1.5039062,-0.4882813 0.46875,0 0.8789063,0.390625 0.8789063,1.1328125 v 0.4296875 c -1.5039063,0.019531 -2.7734375,0.4296875 -2.7734375,1.3085938 0,0.42968749 0.2734375,1.24999999 1.1523437,1.24999999 0.1367188,0 1.0742188,-0.01953125 1.640625,-0.46875 v 0.3515625 H 9.110883 Z m -0.7617187,1.5625 c 0,0.1757813 0,0.42968754 -0.3515625,0.62500004 -0.2734375,0.17578125 -0.6640625,0.1953125 -0.7617188,0.1953125 -0.4882812,0 -0.9375,-0.234375 -0.9375,-0.66406254 0,-0.6835937 1.6210938,-0.7617187 2.0507813,-0.78125 z m 3.3251949,-2.5390625 h 1.40625 v -0.5664062 h -1.40625 v -1.2695313 h -0.683593 v 1.2695313 h -0.859375 v 0.5664062 h 0.839843 v 2.65625 c 0,0.60546879 0.136719,1.30859379 0.820313,1.30859379 0.703125,0 1.210937,-0.25390625 1.445312,-0.390625 l -0.15625,-0.5859375 c -0.253906,0.21484375 -0.566406,0.33203125 -0.898437,0.33203125 -0.371094,0 -0.507813,-0.29296875 -0.507813,-0.82031254 z m 5.825196,0.9765625 c 0,-1.015625 -0.722657,-1.71875 -1.640625,-1.71875 -0.644532,0 -1.09375,0.15625 -1.5625,0.4296875 l 0.05859,0.6445313 c 0.527344,-0.3515625 1.015625,-0.4882813 1.503907,-0.4882813 0.46875,0 0.878906,0.390625 0.878906,1.1328125 v 0.4296875 c -1.503906,0.019531 -2.773438,0.4296875 -2.773438,1.3085938 0,0.42968749 0.273438,1.24999999 1.152344,1.24999999 0.136719,0 1.074219,-0.01953125 1.640625,-0.46875 v 0.3515625 h 0.742188 z m -0.761719,1.5625 c 0,0.1757813 0,0.42968754 -0.351563,0.62500004 -0.273437,0.17578125 -0.664062,0.1953125 -0.761718,0.1953125 -0.488282,0 -0.9375,-0.234375 -0.9375,-0.66406254 0,-0.6835937 1.621093,-0.7617187 2.050781,-0.78125 z m 4.550781,-5.4492187 h -0.195312 c -0.585938,0.6054687 -1.40625,0.6445312 -1.894532,0.6640625 v 0.5664062 c 0.332032,0 0.820313,-0.019531 1.308594,-0.234375 v 5.17578129 h -1.25 v 0.5859375 h 3.28125 v -0.5859375 h -1.25 z m 0,0"
       style="fill:#000000;fill-opacity:1;fill-rule:nonzero;stroke:none"
       aria-label="data1"
       transform="matrix(0.8,0,0,0.8,238.7152,108.932)" />
    <path
       id="path27"
       d="m 157.63353,-58.45674 1.77115,5.31348 24.79631,-0.0013 m 0,-10.62697 -24.79631,0.0013 -1.77115,5.31348"
       style="fill:none;stroke:#000000;stroke-width:0.66414;stroke-linecap:round;stroke-linejoin:round;stroke-miterlimit:10;stroke-dasharray:none;stroke-opacity:1"
       transform="matrix(1.3333333,0,0,-1.3333333,56.753333,28.222667)" />
    <path
       id="path28"
       d="M 0.95496094,-6.91375 V 3.125e-4 H 3.5721484 c 1.6992188,0 3.046875,-1.5234375 3.046875,-3.3984375 0,-1.9335937 -1.3476562,-3.515625 -3.046875,-3.515625 z M 1.8143359,-0.56609375 V -6.3473437 h 1.5234375 c 1.3867188,0 2.421875,1.1914062 2.421875,2.9492187 0,1.6992188 -1.0351562,2.83203125 -2.421875,2.83203125 z M 11.550664,-7.0895312 c 0.05859,-0.1367188 0.05859,-0.15625 0.05859,-0.1757813 0,-0.1171875 -0.09766,-0.1953125 -0.195313,-0.1953125 -0.136718,0 -0.175781,0.097656 -0.214843,0.1953125 l -3.3984379,9.375 c -0.039063,0.1367188 -0.039063,0.15625 -0.039063,0.1757813 0,0.1171875 0.078125,0.1953125 0.1953125,0.1953125 0.1367187,0 0.1757812,-0.097656 0.1953125,-0.1953125 z M 17.976445,-1.1325 c -0.585937,0.390625 -0.9375,0.5859375 -1.914062,0.5859375 -1.445313,0 -2.324219,-1.484375 -2.324219,-2.9101562 0,-1.3671875 0.820313,-2.9296875 2.34375,-2.9296875 0.703125,0 1.152344,0.1757812 1.699219,0.5273437 l 0.136719,-0.8203125 c -0.429688,-0.2148437 -1.191407,-0.3515625 -1.835938,-0.3515625 -1.835937,0 -3.242187,1.5625 -3.242187,3.6523438 0,1.5820312 1.171875,3.4960937 3.242187,3.4960937 0.917969,0 1.308594,-0.17578125 1.953125,-0.56640625 z m 0,0"
       style="fill:#000000;fill-opacity:1;fill-rule:nonzero;stroke:none"
       aria-label="D/C"
       transform="matrix(0.8,0,0,0.8,278.404,108.156)" />
    <path
       id="path29"
       d="M 1.5590547,-6.9149609 H 0.82077344 V -8.984375e-4 H 1.5942109 V -0.45792969 c 0.234375,0.22265625 0.6679688,0.5625 1.3359375,0.5625 0.9960938,0 1.8515625,-0.99609375 1.8515625,-2.33203121 0,-1.2304688 -0.6796875,-2.3085938 -1.6171875,-2.3085938 -0.3867187,0 -1.0078125,0.1054688 -1.6054687,0.5859375 z m 0.035156,3.5742187 c 0.1640625,-0.234375 0.515625,-0.5859375 1.0664063,-0.5859375 0.5859375,0 1.3476562,0.4335938 1.3476562,1.6992188 0,1.30078121 -0.84375,1.72265621 -1.453125,1.72265621 -0.3867187,0 -0.7148437,-0.17578125 -0.9609375,-0.63281251 z m 7.8896485,-1.078125 H 8.6987031 v 2.8828125 c 0,0.75000001 -0.5507812,1.10156251 -1.1953125,1.10156251 -0.703125,0 -0.7734375,-0.26953125 -0.7734375,-0.69140621 V -4.4188672 H 5.9565156 v 3.328125 c 0,0.72656251 0.2226563,1.19531251 1.0546875,1.19531251 0.5273438,0 1.2304688,-0.15234375 1.7226563,-0.5859375 v 0.4804687525 h 0.75 z m 4.2333988,0.140625 c -0.527344,-0.234375 -0.925781,-0.3164062 -1.441406,-0.3164062 -0.246094,0 -1.652344,0 -1.652344,1.3007812 0,0.4921875 0.292969,0.8085938 0.539062,0.9960938 0.304688,0.2226562 0.527344,0.2695312 1.078125,0.375 0.351563,0.070312 0.9375,0.1875 0.9375,0.7148437 0,0.69140626 -0.785156,0.69140626 -0.9375,0.69140626 -0.808593,0 -1.371093,-0.375 -1.546875,-0.49218746 l -0.117187,0.67968746 c 0.316406,0.1640625 0.867187,0.43359375 1.675781,0.43359375 0.175781,0 0.726563,0 1.148438,-0.31640625 0.316406,-0.234375 0.480468,-0.6328125 0.480468,-1.06640626 0,-0.5507812 -0.363281,-0.8789062 -0.386718,-0.9140625 -0.386719,-0.3515625 -0.65625,-0.4101562 -1.160157,-0.5039062 -0.539062,-0.1054688 -1.007812,-0.1992188 -1.007812,-0.6914063 0,-0.6210937 0.726562,-0.6210937 0.855469,-0.6210937 0.316406,0 0.84375,0.046875 1.40625,0.3867187 z m 4.836914,-0.140625 h -0.75 c -1.289063,3.1640625 -1.3125,3.62109376 -1.324219,3.85546876 h -0.01172 C 16.409641,-1.2313672 15.612766,-3.0946484 15.577609,-3.1766797 l -0.539062,-1.2421875 h -0.785156 l 1.933593,4.4179687625 C 16.069797,0.30378906 15.870578,0.80769531 15.823703,0.90144531 15.565891,1.4756641 15.401828,1.4756641 15.261203,1.4756641 c -0.164062,0 -0.480469,-0.046875 -0.785156,-0.1640625 l 0.07031,0.6445312 c 0.210938,0.058594 0.492188,0.082031 0.714844,0.082031 0.351563,0 0.714844,-0.1171875 1.125,-1.13671879 z m 0,0"
       style="fill:#000000;fill-opacity:1;fill-rule:nonzero;stroke:none"
       aria-label="busy"
       transform="matrix(1.3333333,0,0,1.3333333,22.362667,141.60667)" />
    <path
       id="path30"
       d="m 0,-85.03915 h 102.72746 l 1.77117,10.62696 h 26.56746 l 1.77114,-10.62696 h 51.36374"
       style="fill:none;stroke:#000000;stroke-width:0.66414;stroke-linecap:round;stroke-linejoin:round;stroke-miterlimit:10;stroke-dasharray:none;stroke-opacity:1"
       transform="matrix(1.3333333,0,0,-1.3333333,56.753333,28.222667)" />
    <path
       id="path31"
       d="M 14.1693,15.94044 V -90.38374 M 42.50792,15.94044 V -90.38374 M 70.84653,15.94044 V -90.38374 M 99.18515,15.94044 V -90.38374 M 127.52376,15.94044 V -90.38374 M 155.86238,15.94044 V -90.38374 M 184.20099,15.94044 V -90.38374"
       style="fill:none;stroke:#808080;stroke-width:0.59776;stroke-linecap:round;stroke-linejoin:round;stroke-miterlimit:10;stroke-dasharray:none;stroke-opacity:0.5"
       transform="matrix(1.3333333,0,0,-1.3333333,56.753333,28.222667)" />
    <path
       id="path32"
       d="M 42.50792,15.94044 V -90.38374 M 99.18515,15.94044 V -90.38374"
       style="fill:none;stroke:#ff0000;stroke-width:0.49815;stroke-linecap:round;stroke-linejoin:round;stroke-miterlimit:10;stroke-dasharray:2.98883, 2.98883;stroke-dashoffset:0;stroke-opacity:0.75"
       transform="matrix(1.3333333,0,0,-1.3333333,56.753333,28.222667)" />
  </g>
</svg>
