<?xml version="1.0" encoding="UTF-8" standalone="no"?>
<!-- Created with Inkscape (http://www.inkscape.org/) -->

<svg
   version="1.1"
   id="svg1"
   width="622.56531"
   height="129.91733"
   viewBox="0 0 622.56531 129.91733"
   xmlns="http://www.w3.org/2000/svg"
   xmlns:svg="http://www.w3.org/2000/svg">
  <defs
     id="defs1" />
  <g
     id="g1">
    <path
       id="path1"
       d="M -30.2616,-12.45346 H 30.26161 V 12.45348 H -30.2616 Z"
       style="fill:#fbcce8;fill-opacity:1;fill-rule:nonzero;stroke:#ec008c;stroke-width:0.3985;stroke-linecap:butt;stroke-linejoin:miter;stroke-miterlimit:10;stroke-dasharray:none;stroke-opacity:1"
       transform="matrix(1.3333333,0,0,-1.3333333,41.28,88.470667)" />
    <path
       id="path2"
       d="M 1.8276563,-6.9145391 H 0.93703125 V -4.765625e-4 H 4.9682813 V -0.65672656 C 4.089375,-0.64500781 3.19875,-0.63328906 2.308125,-0.63328906 H 1.8276563 Z m 7.6933593,4.734375 c 0,-0.3398437 -0.011719,-1.0898437 -0.3984375,-1.6875 -0.4101562,-0.6210937 -1.0195312,-0.7265625 -1.3710937,-0.7265625 -1.1132813,0 -2.0039063,1.0546875 -2.0039063,2.34375 0,1.31250004 0.9492188,2.35546879 2.1445313,2.35546879 0.6328125,0 1.1953125,-0.234375 1.59375,-0.515625 L 9.4155469,-1.0551641 c -0.6210938,0.51562504 -1.2773438,0.55078129 -1.5117188,0.55078129 -0.796875,0 -1.4296875,-0.70312499 -1.4648437,-1.67578129 z M 6.4975781,-2.7309453 c 0.1523438,-0.7617188 0.6796875,-1.2539063 1.2539063,-1.2539063 0.515625,0 1.0664062,0.3398438 1.1953125,1.2539063 z m 7.7666019,-1.6875 h -0.75 l -0.785157,2.0625 c -0.210937,0.5507812 -0.515625,1.35937499 -0.597656,1.82812499 h -0.01172 C 12.061055,-0.89110156 11.803242,-1.5707891 11.709492,-1.8403203 l -0.972656,-2.578125 H 9.9633984 l 1.7109376,4.4179687375 h 0.878906 z m 4.277343,2.2382812 c 0,-0.3398437 -0.01172,-1.0898437 -0.398437,-1.6875 -0.410156,-0.6210937 -1.019531,-0.7265625 -1.371094,-0.7265625 -1.113281,0 -2.003906,1.0546875 -2.003906,2.34375 0,1.31250004 0.949219,2.35546879 2.144531,2.35546879 0.632813,0 1.195313,-0.234375 1.59375,-0.515625 l -0.07031,-0.64453129 c -0.621094,0.51562504 -1.277344,0.55078129 -1.511719,0.55078129 -0.796875,0 -1.429688,-0.70312499 -1.464844,-1.67578129 z m -3.023437,-0.5507812 c 0.152344,-0.7617188 0.679687,-1.2539063 1.253906,-1.2539063 0.515625,0 1.066406,0.3398438 1.195313,1.2539063 z m 4.886719,-4.1835938 h -0.75 v 6.9140625375 h 0.75 z m 5.964843,0 h -0.890625 v 6.9140625375 h 0.890625 z m 9.37793,3.6328125 v -0.609375 h -3.28125 v -2.3554687 h 1.371094 c 0.117187,0 0.234375,0.011719 0.351562,0.011719 h 1.828125 v -0.6445312 h -4.441406 v 6.8789062375 h 4.582031 V -0.70360156 h -1.253906 c -0.117187,0 -0.246094,0 -0.363281,0 H 32.466328 V -3.2817266 Z m 3.430664,0.9960938 1.828125,-2.1328125 h -0.820312 l -1.335938,1.640625 -1.371094,-1.640625 h -0.832031 l 1.875,2.1328125 -1.933594,2.2851562375 h 0.820313 L 38.850117,-1.8754766 40.338398,-4.765625e-4 h 0.832032 z m 5.976563,-0.5976563 c 0,-1.0078125 -0.726563,-1.7109375 -1.640625,-1.7109375 -0.644532,0 -1.101563,0.1640625 -1.570313,0.4335938 l 0.07031,0.65625 c 0.515625,-0.375 1.007812,-0.5039063 1.5,-0.5039063 0.46875,0 0.867187,0.3984375 0.867187,1.1367188 v 0.4335937 c -1.5,0.011719 -2.765625,0.4335938 -2.765625,1.3125 0,0.42187504 0.269531,1.23046879 1.136719,1.23046879 0.140625,0 1.078125,-0.01171875 1.652344,-0.46875 v 0.3632812475 h 0.75 z m -0.773438,1.5703125 c 0,0.1875 0,0.43359379 -0.339844,0.62109379 -0.292968,0.1875 -0.667968,0.1875 -0.773437,0.1875 -0.480469,0 -0.925781,-0.22265625 -0.925781,-0.64453129 0,-0.6914062 1.605468,-0.7617187 2.039062,-0.7851562 z m 8.689453,-1.6523437 c 0,-0.6679688 -0.164062,-1.5703125 -1.359375,-1.5703125 -0.597656,0 -1.125,0.28125 -1.488281,0.8203125 -0.257812,-0.7617188 -0.960937,-0.8203125 -1.277344,-0.8203125 -0.714843,0 -1.183593,0.4101562 -1.453125,0.7734375 v -0.7265625 h -0.714843 v 4.4882812375 h 0.773437 V -2.4379766 c 0,-0.6796875 0.269531,-1.4882812 1.007813,-1.4882812 0.925781,0 0.972656,0.6445312 0.972656,1.03125 v 2.8945312375 h 0.785156 V -2.4379766 c 0,-0.6796875 0.269531,-1.4882812 0.996094,-1.4882812 0.9375,0 0.984375,0.6445312 0.984375,1.03125 v 2.8945312375 h 0.773437 z m 0,0"
       style="fill:#000000;fill-opacity:1;fill-rule:nonzero;stroke:none"
       aria-label="LevelIExam"
       transform="matrix(1.3333333,0,0,1.3333333,5.36,93.082667)" />
    <path
       id="path3"
       d="M 132.50386,30.38628 H 82.68993 c -2.75118,0 -4.98139,-2.23021 -4.98139,-4.98139 V 10.46071 c 0,-2.75119 2.23021,-4.98139 4.98139,-4.98139 h 49.81393 c 2.75118,0 4.98138,2.2302 4.98138,4.98139 v 14.94418 c 0,2.75118 -2.2302,4.98139 -4.98138,4.98139 z"
       style="fill:#f9d4d4;fill-opacity:1;fill-rule:nonzero;stroke:#e12729;stroke-width:0.3985;stroke-linecap:butt;stroke-linejoin:miter;stroke-miterlimit:10;stroke-dasharray:none;stroke-opacity:1"
       transform="matrix(1.3333333,0,0,-1.3333333,41.28,88.470667)" />
    <path
       id="path4"
       d="m 2.2155,-1.8522344 c 0,-0.9375 0.5859375,-1.8984375 1.7929688,-1.8984375 0.011719,0.2460938 0.1757812,0.4453125 0.421875,0.4453125 0.2226562,0 0.421875,-0.1640625 0.421875,-0.4335937 0,-0.1992188 -0.1171875,-0.609375 -0.9492188,-0.609375 -0.5039062,0 -1.1484375,0.1757812 -1.6875,0.796875 v -0.3398438 c 0,-0.3046875 -0.058594,-0.3984375 -0.3984375,-0.3984375 H 0.7155 c -0.15234375,0 -0.3984375,0 -0.3984375,0.2929688 0,0.3046875 0.24609375,0.3046875 0.3984375,0.3046875 h 0.8085938 v 3.08203123 H 0.7155 c -0.15234375,0 -0.3984375,0 -0.3984375,0.3046875 0,0.304687495 0.24609375,0.304687495 0.3984375,0.304687495 h 2.6015625 c 0.1523438,0 0.4101563,0 0.4101563,-0.304687495 0,-0.3046875 -0.2578125,-0.3046875 -0.4101563,-0.3046875 H 2.2155 Z m 7.3037109,-1.8398437 h 0.2929688 c 0.1523437,0 0.3984373,0 0.3984373,-0.2929688 0,-0.3046875 -0.2343748,-0.3046875 -0.3984373,-0.3046875 H 8.6520234 c -0.1523437,0 -0.3984375,0 -0.3984375,0.2929688 0,0.3046875 0.234375,0.3046875 0.3984375,0.3046875 H 8.9215547 L 7.8434297,-0.48114062 6.7535859,-3.6920781 h 0.28125 c 0.1523438,0 0.3984375,0 0.3984375,-0.2929688 0,-0.3046875 -0.2460937,-0.3046875 -0.3984375,-0.3046875 h -1.171875 c -0.1523437,0 -0.3984375,0 -0.3984375,0.3046875 0,0.2929688 0.2578125,0.2929688 0.3984375,0.2929688 h 0.3046875 l 1.1484375,3.38671873 c 0.1171875,0.33984375 0.3164063,0.33984375 0.5273438,0.33984375 0.1875,0 0.4101562,0 0.5273437,-0.328125 z m 0,0"
       style="fill:#000000;fill-opacity:1;fill-rule:nonzero;stroke:none"
       aria-label="rv"
       transform="matrix(1.3333333,0,0,1.3333333,164.796,60.649333)" />
    <path
       id="path5"
       d="M 0,0 H 3.138"
       style="fill:none;stroke:#000000;stroke-width:0.398;stroke-linecap:butt;stroke-linejoin:miter;stroke-miterlimit:10;stroke-dasharray:none;stroke-opacity:1"
       transform="matrix(1.3333333,0,0,-1.3333333,179.58,60.384)" />
    <g
       id="g5"
       aria-label="sim&#10;15"
       transform="matrix(1.3333333,0,0,1.3333333,183.76533,60.649333)">
      <path
         id="path6"
         d="M 2.9650625,-2.5436406 C 2.7424062,-2.5787969 2.5431875,-2.6139531 2.2970937,-2.6608281 2.004125,-2.6959844 1.3244375,-2.8248906 1.3244375,-3.2116094 c 0,-0.2578125 0.3164062,-0.5625 1.265625,-0.5625 0.8320312,0 0.9609375,0.2929688 0.9960937,0.5507813 0.011719,0.1757812 0.035156,0.3398437 0.3398438,0.3398437 0.3515625,0 0.3515625,-0.2109375 0.3515625,-0.4101562 v -0.6796875 c 0,-0.1640625 0,-0.4101563 -0.3046875,-0.4101563 -0.234375,0 -0.28125,0.140625 -0.2929688,0.2109375 C 3.2345937,-4.3834844 2.801,-4.3834844 2.6135,-4.3834844 c -1.6640625,0 -1.8984375,0.8203125 -1.8984375,1.171875 0,0.9140625 1.0429687,1.0898438 1.96875,1.2304688 0.4804687,0.082031 1.2773437,0.2109375 1.2773437,0.7382812 0,0.36328128 -0.3632812,0.69140628 -1.265625,0.69140628 -0.46875,0 -1.03125,-0.10546875 -1.2773437,-0.87890628 -0.058594,-0.1875 -0.09375,-0.2929687 -0.3515625,-0.2929687 -0.3515625,0 -0.3515625,0.2109375 -0.3515625,0.4101562 v 0.96093753 c 0,0.1640625 0,0.41015625 0.3046875,0.41015625 0.082031,0 0.2460937,-0.01171875 0.3632812,-0.375 0.4921875,0.3515625 1.0195313,0.375 1.3007813,0.375 1.5703125,0 1.8867187,-0.8203125 1.8867187,-1.30078128 0,-1.0429687 -1.2773437,-1.2539062 -1.6054687,-1.3007812 z m 5.3466797,-1.3476563 c 0,-0.3046875 -0.058594,-0.3984375 -0.3984375,-0.3984375 H 6.4953359 c -0.1523437,0 -0.4101562,0 -0.4101562,0.2929688 0,0.3046875 0.2578125,0.3046875 0.4101562,0.3046875 h 1.125 v 3.08203123 H 6.4133047 c -0.1523438,0 -0.4101563,0 -0.4101563,0.3046875 0,0.304687495 0.2578125,0.304687495 0.4101563,0.304687495 h 2.9414062 c 0.1523438,0 0.4101563,0 0.4101563,-0.304687495 0,-0.3046875 -0.2578125,-0.3046875 -0.4101563,-0.3046875 H 8.3117422 Z m 0,-1.7109375 c 0,-0.28125 -0.2226563,-0.4921875 -0.5039063,-0.4921875 -0.28125,0 -0.4921875,0.2109375 -0.4921875,0.4921875 0,0.28125 0.2109375,0.5039063 0.4921875,0.5039063 0.28125,0 0.5039063,-0.2226563 0.5039063,-0.5039063 z m 3.2402348,1.6054688 c -0.02344,-0.2929688 -0.222657,-0.2929688 -0.398438,-0.2929688 h -0.328125 c -0.140625,0 -0.398437,0 -0.398437,0.2929688 0,0.3046875 0.199218,0.3046875 0.5625,0.3046875 v 3.08203123 c -0.363282,0 -0.5625,0 -0.5625,0.3046875 0,0.304687495 0.269531,0.304687495 0.398437,0.304687495 h 0.878906 c 0.152344,0 0.410157,0 0.410157,-0.304687495 0,-0.3046875 -0.210938,-0.3046875 -0.5625,-0.3046875 V -2.3912969 c 0,-0.890625 0.410156,-1.359375 0.808593,-1.359375 0.234375,0 0.375,0.1757813 0.375,0.8203125 v 2.32031253 c -0.1875,0 -0.445312,0 -0.445312,0.3046875 0,0.304687495 0.269531,0.304687495 0.410156,0.304687495 h 0.75 c 0.152344,0 0.410156,0 0.410156,-0.304687495 0,-0.3046875 -0.210937,-0.3046875 -0.574218,-0.3046875 V -2.3912969 c 0,-0.890625 0.410156,-1.359375 0.820312,-1.359375 0.234375,0 0.375,0.1757813 0.375,0.8203125 v 2.32031253 c -0.199219,0 -0.445312,0 -0.445312,0.3046875 0,0.304687495 0.269531,0.304687495 0.410156,0.304687495 h 0.75 c 0.152344,0 0.410156,0 0.410156,-0.304687495 0,-0.3046875 -0.210937,-0.3046875 -0.574219,-0.3046875 V -3.0241094 c 0,-0.1992187 0,-1.3242187 -0.878906,-1.3242187 -0.304687,0 -0.714844,0.1289062 -0.996094,0.515625 -0.140625,-0.3398438 -0.421875,-0.515625 -0.75,-0.515625 -0.316406,0 -0.621093,0.1289062 -0.855468,0.3515625 z m 0,0"
         style="fill:#000000;fill-opacity:1;fill-rule:nonzero;stroke:none" />
      <path
         id="path7"
         d="m -1.2712656,5.2053828 h -0.1992188 c -0.5859375,0.609375 -1.4179687,0.6328125 -1.8867187,0.65625 v 0.5742188 c 0.328125,-0.011719 0.8085937,-0.023437 1.3007812,-0.234375 v 5.1796874 h -1.2421875 v 0.574219 h 3.26953127 V 11.381164 H -1.2712656 Z m 3.5273437,0.8554688 h 2.625 V 5.4163203 H 1.5412344 v 3.6796875 h 0.65625 C 2.3615469,8.6975703 2.7365469,8.3108516 3.3107656,8.3108516 c 0.46875,0 1.0078125,0.4101562 1.0078125,1.6054687 0,1.6523437 -1.21875,1.6523437 -1.3007812,1.6523437 -0.6679688,0 -1.2773438,-0.386719 -1.5703125,-0.925781 l -0.328125,0.550781 c 0.4101562,0.574219 1.1015625,0.984375 1.9101562,0.984375 1.1835938,0 2.1796875,-0.984375 2.1796875,-2.2499999 0,-1.2421875 -0.8554687,-2.2265625 -1.8867187,-2.2265625 -0.3984375,0 -0.7734375,0.1523437 -1.0664063,0.4101562 z m 0,0"
         style="fill:#000000;fill-opacity:1;fill-rule:nonzero;stroke:none" />
    </g>
    <path
       id="path8"
       d="m 240.10077,30.3862 h -49.81394 c -2.75117,0 -4.98138,-2.23021 -4.98138,-4.98138 V 10.46063 c 0,-2.75119 2.23021,-4.98138 4.98138,-4.98138 h 49.81394 c 2.75117,0 4.98138,2.23019 4.98138,4.98138 v 14.94419 c 0,2.75117 -2.23021,4.98138 -4.98138,4.98138 z"
       style="fill:#f9d4d4;fill-opacity:1;fill-rule:nonzero;stroke:#e12729;stroke-width:0.3985;stroke-linecap:butt;stroke-linejoin:miter;stroke-miterlimit:10;stroke-dasharray:none;stroke-opacity:1"
       transform="matrix(1.3333333,0,0,-1.3333333,41.28,88.470667)" />
    <path
       id="path9"
       d="m 2.2152031,-1.8522344 c 0,-0.9375 0.5859375,-1.8984375 1.7929688,-1.8984375 0.011719,0.2460938 0.1757812,0.4453125 0.421875,0.4453125 0.2226562,0 0.421875,-0.1640625 0.421875,-0.4335937 0,-0.1992188 -0.1171875,-0.609375 -0.9492188,-0.609375 -0.5039062,0 -1.1484375,0.1757812 -1.6875,0.796875 v -0.3398438 c 0,-0.3046875 -0.058594,-0.3984375 -0.3984375,-0.3984375 H 0.71520313 c -0.15234375,0 -0.3984375,0 -0.3984375,0.2929688 0,0.3046875 0.24609375,0.3046875 0.3984375,0.3046875 H 1.5237969 v 3.08203123 H 0.71520313 c -0.15234375,0 -0.3984375,0 -0.3984375,0.3046875 0,0.304687495 0.24609375,0.304687495 0.3984375,0.304687495 H 3.3167656 c 0.1523438,0 0.4101563,0 0.4101563,-0.304687495 0,-0.3046875 -0.2578125,-0.3046875 -0.4101563,-0.3046875 H 2.2152031 Z m 7.303711,-1.8398437 h 0.2929687 c 0.1523438,0 0.3984372,0 0.3984372,-0.2929688 0,-0.3046875 -0.2343747,-0.3046875 -0.3984372,-0.3046875 H 8.6517266 c -0.1523438,0 -0.3984375,0 -0.3984375,0.2929688 0,0.3046875 0.234375,0.3046875 0.3984375,0.3046875 H 8.9212578 L 7.8431328,-0.48114062 6.7532891,-3.6920781 h 0.28125 c 0.1523437,0 0.3984375,0 0.3984375,-0.2929688 0,-0.3046875 -0.2460938,-0.3046875 -0.3984375,-0.3046875 h -1.171875 c -0.1523438,0 -0.3984375,0 -0.3984375,0.3046875 0,0.2929688 0.2578125,0.2929688 0.3984375,0.2929688 h 0.3046875 l 1.1484375,3.38671873 c 0.1171875,0.33984375 0.3164062,0.33984375 0.5273437,0.33984375 0.1875,0 0.4101563,0 0.5273438,-0.328125 z m 0,0"
       style="fill:#000000;fill-opacity:1;fill-rule:nonzero;stroke:none"
       aria-label="rv"
       transform="matrix(1.3333333,0,0,1.3333333,308.25733,60.649333)" />
    <path
       id="path10"
       d="M 0,0 H 3.138"
       style="fill:none;stroke:#000000;stroke-width:0.398;stroke-linecap:butt;stroke-linejoin:miter;stroke-miterlimit:10;stroke-dasharray:none;stroke-opacity:1"
       transform="matrix(1.3333333,0,0,-1.3333333,323.04133,60.384)" />
    <g
       id="g10"
       aria-label="fsm&#10;25"
       transform="matrix(1.3333333,0,0,1.3333333,327.22533,60.649333)">
      <path
         id="path11"
         d="m 2.5204531,-3.6920781 h 1.21875 c 0.1523438,0 0.3984375,0 0.3984375,-0.2929688 0,-0.3046875 -0.2460937,-0.3046875 -0.3984375,-0.3046875 h -1.21875 v -0.46875 c 0,-0.7851562 0.6679688,-0.7851562 0.9726563,-0.7851562 0,0.046875 0.082031,0.4335937 0.4335937,0.4335937 0.1992188,0 0.421875,-0.1640625 0.421875,-0.4335937 0,-0.5976563 -0.796875,-0.5976563 -0.9492187,-0.5976563 -0.796875,0 -1.5703125,0.4570313 -1.5703125,1.3242188 v 0.5273437 H 0.83295313 c -0.15234375,0 -0.3984375,0 -0.3984375,0.3046875 0,0.2929688 0.24609375,0.2929688 0.3984375,0.2929688 H 1.8290469 v 3.08203123 H 0.83295313 c -0.15234375,0 -0.41015625,0 -0.41015625,0.3046875 0,0.304687495 0.2578125,0.304687495 0.41015625,0.304687495 H 3.5282656 c 0.1523438,0 0.4101563,0 0.4101563,-0.304687495 0,-0.3046875 -0.2578125,-0.3046875 -0.4101563,-0.3046875 H 2.5204531 Z m 5.6748047,1.1484375 c -0.2226562,-0.035156 -0.421875,-0.070312 -0.6679687,-0.1171875 -0.2929688,-0.035156 -0.9726563,-0.1640625 -0.9726563,-0.5507813 0,-0.2578125 0.3164063,-0.5625 1.265625,-0.5625 0.8320313,0 0.9609375,0.2929688 0.9960938,0.5507813 0.011719,0.1757812 0.035156,0.3398437 0.3398437,0.3398437 0.3515625,0 0.3515625,-0.2109375 0.3515625,-0.4101562 v -0.6796875 c 0,-0.1640625 0,-0.4101563 -0.3046875,-0.4101563 -0.234375,0 -0.28125,0.140625 -0.2929687,0.2109375 -0.4453125,-0.2109375 -0.8789063,-0.2109375 -1.0664063,-0.2109375 -1.6640625,0 -1.8984375,0.8203125 -1.8984375,1.171875 0,0.9140625 1.0429688,1.0898438 1.96875,1.2304688 0.4804688,0.082031 1.2773438,0.2109375 1.2773438,0.7382812 0,0.36328128 -0.3632813,0.69140628 -1.265625,0.69140628 -0.46875,0 -1.03125,-0.10546875 -1.2773438,-0.87890628 -0.058594,-0.1875 -0.09375,-0.2929687 -0.3515625,-0.2929687 -0.3515625,0 -0.3515625,0.2109375 -0.3515625,0.4101562 v 0.96093753 c 0,0.1640625 0,0.41015625 0.3046875,0.41015625 0.082031,0 0.2460938,-0.01171875 0.3632813,-0.375 0.4921875,0.3515625 1.0195312,0.375 1.3007812,0.375 1.5703125,0 1.8867188,-0.8203125 1.8867188,-1.30078128 0,-1.0429687 -1.2773438,-1.2539062 -1.6054688,-1.3007812 z m 3.3544922,-1.453125 c -0.02344,-0.2929688 -0.222656,-0.2929688 -0.398437,-0.2929688 h -0.328125 c -0.140625,0 -0.398438,0 -0.398438,0.2929688 0,0.3046875 0.199219,0.3046875 0.5625,0.3046875 v 3.08203123 c -0.363281,0 -0.5625,0 -0.5625,0.3046875 0,0.304687495 0.269531,0.304687495 0.398438,0.304687495 h 0.878906 c 0.152344,0 0.410156,0 0.410156,-0.304687495 0,-0.3046875 -0.210937,-0.3046875 -0.5625,-0.3046875 V -2.3912969 c 0,-0.890625 0.410156,-1.359375 0.808594,-1.359375 0.234375,0 0.375,0.1757813 0.375,0.8203125 v 2.32031253 c -0.1875,0 -0.445313,0 -0.445313,0.3046875 0,0.304687495 0.269532,0.304687495 0.410157,0.304687495 h 0.75 c 0.152343,0 0.410156,0 0.410156,-0.304687495 0,-0.3046875 -0.210938,-0.3046875 -0.574219,-0.3046875 V -2.3912969 c 0,-0.890625 0.410156,-1.359375 0.820313,-1.359375 0.234375,0 0.375,0.1757813 0.375,0.8203125 v 2.32031253 c -0.199219,0 -0.445313,0 -0.445313,0.3046875 0,0.304687495 0.269531,0.304687495 0.410156,0.304687495 h 0.75 c 0.152344,0 0.410157,0 0.410157,-0.304687495 0,-0.3046875 -0.210938,-0.3046875 -0.574219,-0.3046875 V -3.0241094 c 0,-0.1992187 0,-1.3242187 -0.878906,-1.3242187 -0.304688,0 -0.714844,0.1289062 -0.996094,0.515625 -0.140625,-0.3398438 -0.421875,-0.515625 -0.75,-0.515625 -0.316406,0 -0.621094,0.1289062 -0.855469,0.3515625 z m 0,0"
         style="fill:#000000;fill-opacity:1;fill-rule:nonzero;stroke:none" />
      <path
         id="path12"
         d="m -2.5156797,10.080383 -1.2304687,1.242187 v 0.632813 H 0.22650781 V 11.252258 H -1.5898984 c -0.1171875,0 -0.234375,0 -0.3632813,0 h -1.078125 c 0.3164063,-0.269531 1.078125,-1.019531 1.3828125,-1.3125002 0.1875,-0.1757812 0.69140626,-0.5976562 0.89062501,-0.7734375 0.4453125,-0.4453125 0.984375,-0.9726562 0.984375,-1.828125 0,-1.1367187 -0.80859375,-2.1328125 -2.12109371,-2.1328125 -1.1367188,0 -1.6992188,0.7734375 -1.9335938,1.6289063 0.1171875,0.1757812 0.1640625,0.234375 0.1875,0.2578125 0.023437,0.023437 0.1171875,0.1523437 0.2226563,0.2929687 0.1992187,-0.7734375 0.46875,-1.546875 1.3828125,-1.546875 0.9375,0 1.44140621,0.75 1.44140621,1.5234375 0,0.84375 -0.56250001,1.4179688 -1.16015621,2.015625 z m 4.772461,-4.0195314 h 2.625 V 5.4163203 H 1.5419375 v 3.6796875 h 0.65625 C 2.36225,8.6975703 2.73725,8.3108516 3.3114688,8.3108516 c 0.46875,0 1.0078125,0.4101562 1.0078125,1.6054687 0,1.6523437 -1.21875,1.6523437 -1.3007813,1.6523437 -0.6679687,0 -1.2773437,-0.386719 -1.5703125,-0.925781 l -0.328125,0.550781 c 0.4101563,0.574219 1.1015625,0.984375 1.9101563,0.984375 1.1835937,0 2.1796875,-0.984375 2.1796875,-2.2499999 0,-1.2421875 -0.8554688,-2.2265625 -1.8867188,-2.2265625 -0.3984375,0 -0.7734375,0.1523437 -1.0664062,0.4101562 z m 0,0"
         style="fill:#000000;fill-opacity:1;fill-rule:nonzero;stroke:none" />
    </g>
    <path
       id="path13"
       d="M 144.43185,-5.47932 H 70.76192 c -2.75118,0 -4.98139,-2.2302 -4.98139,-4.98139 v -14.94418 c 0,-2.75118 2.23021,-4.98139 4.98139,-4.98139 h 73.66993 c 2.75119,0 4.98139,2.23021 4.98139,4.98139 v 14.94418 c 0,2.75119 -2.2302,4.98139 -4.98139,4.98139 z"
       style="fill:#f9d4d4;fill-opacity:1;fill-rule:nonzero;stroke:#e12729;stroke-width:0.3985;stroke-linecap:butt;stroke-linejoin:miter;stroke-miterlimit:10;stroke-dasharray:none;stroke-opacity:1"
       transform="matrix(1.3333333,0,0,-1.3333333,41.28,88.470667)" />
    <path
       id="path14"
       d="M 2.9643906,-2.5434062 C 2.7417344,-2.5785625 2.5425156,-2.6137187 2.2964219,-2.6605937 2.0034531,-2.69575 1.3237656,-2.8246562 1.3237656,-3.211375 c 0,-0.2578125 0.3164063,-0.5625 1.265625,-0.5625 0.8320313,0 0.9609375,0.2929688 0.9960938,0.5507813 0.011719,0.1757812 0.035156,0.3398437 0.3398437,0.3398437 0.3515625,0 0.3515625,-0.2109375 0.3515625,-0.4101562 v -0.6796875 c 0,-0.1640625 0,-0.4101563 -0.3046875,-0.4101563 -0.234375,0 -0.28125,0.140625 -0.2929687,0.2109375 C 3.2339219,-4.38325 2.8003281,-4.38325 2.6128281,-4.38325 c -1.66406247,0 -1.89843747,0.8203125 -1.89843747,1.171875 0,0.9140625 1.04296877,1.0898438 1.96874997,1.2304688 0.4804688,0.082031 1.2773438,0.2109375 1.2773438,0.7382812 0,0.36328125 -0.3632813,0.69140625 -1.265625,0.69140625 -0.46875,0 -1.03125,-0.10546875 -1.2773438,-0.87890625 -0.058594,-0.1875 -0.09375,-0.2929687 -0.3515625,-0.2929687 -0.35156247,0 -0.35156247,0.2109375 -0.35156247,0.4101562 V -0.352 c 0,0.1640625 0,0.41015625 0.30468747,0.41015625 0.082031,0 0.2460938,-0.01171875 0.3632813,-0.375 0.4921875,0.3515625 1.0195312,0.375 1.3007812,0.375 1.5703125,0 1.8867188,-0.8203125 1.8867188,-1.30078125 0,-1.0429687 -1.2773438,-1.2539062 -1.6054688,-1.3007812 z m 6.9169922,0.3867187 c 0,-1.2421875 -0.9257812,-2.2265625 -2.0390625,-2.2265625 -1.1132812,0 -2.0507812,0.984375 -2.0507812,2.2265625 0,1.265625 0.9492187,2.21484375 2.0507812,2.21484375 1.0898438,0 2.0390625,-0.9609375 2.0390625,-2.21484375 z m -2.0390625,1.60546875 c -0.7382812,0 -1.359375,-0.74999995 -1.359375,-1.67578125 0,-0.9023437 0.6445313,-1.546875 1.359375,-1.546875 0.7148438,0 1.3476563,0.6445313 1.3476563,1.546875 0,0.9257813 -0.609375,1.67578125 -1.3476563,1.67578125 z M 12.676305,-1.852 c 0,-0.9375 0.585937,-1.8984375 1.792968,-1.8984375 0.01172,0.2460938 0.175782,0.4453125 0.421875,0.4453125 0.222657,0 0.421875,-0.1640625 0.421875,-0.4335937 0,-0.1992188 -0.117187,-0.609375 -0.949218,-0.609375 -0.503907,0 -1.148438,0.1757812 -1.6875,0.796875 v -0.3398438 c 0,-0.3046875 -0.05859,-0.3984375 -0.398438,-0.3984375 h -1.101562 c -0.152344,0 -0.398438,0 -0.398438,0.2929688 0,0.3046875 0.246094,0.3046875 0.398438,0.3046875 h 0.808593 v 3.0820312 h -0.808593 c -0.152344,0 -0.398438,0 -0.398438,0.3046875 0,0.3046875 0.246094,0.3046875 0.398438,0.3046875 h 2.601562 c 0.152344,0 0.410156,0 0.410156,-0.3046875 0,-0.3046875 -0.257812,-0.3046875 -0.410156,-0.3046875 h -1.101562 z m 5.229492,-1.8398437 h 1.628906 c 0.152344,0 0.398438,0 0.398438,-0.2929688 0,-0.3046875 -0.234375,-0.3046875 -0.398438,-0.3046875 h -1.628906 v -0.8203125 c 0,-0.1875 0,-0.4101562 -0.339844,-0.4101562 -0.351562,0 -0.351562,0.2109375 -0.351562,0.4101562 V -4.2895 h -0.867188 c -0.152344,0 -0.410156,0 -0.410156,0.3046875 0,0.2929688 0.257812,0.2929688 0.398437,0.2929688 h 0.878907 v 2.4375 c 0,0.9492187 0.679687,1.31249995 1.40625,1.31249995 0.738281,0 1.546875,-0.421875 1.546875,-1.31249995 0,-0.1757813 0,-0.3867188 -0.351563,-0.3867188 -0.328125,0 -0.339844,0.2109375 -0.339844,0.375 -0.01172,0.62109375 -0.574218,0.71484375 -0.808593,0.71484375 -0.761719,0 -0.761719,-0.51562495 -0.761719,-0.76171875 z m 6.09668,-0.1992188 c 0,-0.3046875 -0.05859,-0.3984375 -0.398438,-0.3984375 H 22.18607 c -0.152343,0 -0.410156,0 -0.410156,0.2929688 0,0.3046875 0.257813,0.3046875 0.410156,0.3046875 h 1.125 v 3.0820312 h -1.207031 c -0.152344,0 -0.410156,0 -0.410156,0.3046875 0,0.3046875 0.257812,0.3046875 0.410156,0.3046875 h 2.941406 c 0.152344,0 0.410157,0 0.410157,-0.3046875 0,-0.3046875 -0.257813,-0.3046875 -0.410157,-0.3046875 h -1.042968 z m 0,-1.7109375 c 0,-0.28125 -0.222657,-0.4921875 -0.503907,-0.4921875 -0.28125,0 -0.492187,0.2109375 -0.492187,0.4921875 0,0.28125 0.210937,0.5039063 0.492187,0.5039063 0.28125,0 0.503907,-0.2226563 0.503907,-0.5039063 z m 3.802734,1.78125 c 0,-0.328125 0,-0.46875 -0.398438,-0.46875 h -0.726562 c -0.164063,0 -0.410156,0 -0.410156,0.3046875 0,0.2929688 0.257812,0.2929688 0.398437,0.2929688 h 0.445313 v 3.0820312 h -0.433594 c -0.164063,0 -0.410156,0 -0.410156,0.3046875 0,0.3046875 0.257812,0.3046875 0.398437,0.3046875 h 1.582031 c 0.140625,0 0.398438,0 0.398438,-0.3046875 0,-0.3046875 -0.246094,-0.3046875 -0.398438,-0.3046875 H 27.805211 V -2.367625 c 0,-0.9960937 0.738281,-1.3828125 1.242187,-1.3828125 0.527344,0 0.667969,0.28125 0.667969,0.8789063 v 2.2617187 h -0.386719 c -0.152343,0 -0.410156,0 -0.410156,0.3046875 0,0.3046875 0.269531,0.3046875 0.410156,0.3046875 h 1.523438 c 0.140625,0 0.398437,0 0.398437,-0.3046875 0,-0.3046875 -0.246093,-0.3046875 -0.410156,-0.3046875 h -0.433594 v -2.3085937 c 0,-1.0078125 -0.503906,-1.4296875 -1.300781,-1.4296875 -0.65625,0 -1.113281,0.328125 -1.300781,0.5273437 z m 5.897461,2.0625 c -0.539063,0 -0.960938,-0.46875 -0.960938,-0.9960937 0,-0.5625 0.445313,-0.9960938 0.960938,-0.9960938 0.539062,0 0.960937,0.4570313 0.960937,0.9960938 0,0.5625 -0.445312,0.9960937 -0.960937,0.9960937 z m -0.890625,0.3515625 c 0.02344,0.023437 0.398437,0.2460938 0.890625,0.2460938 0.914062,0 1.640625,-0.7148438 1.640625,-1.59375 0,-0.3046875 -0.08203,-0.5976563 -0.257813,-0.8671875 0.210938,-0.1289063 0.445313,-0.1640625 0.585938,-0.1757813 0.05859,0.2695313 0.28125,0.3398438 0.386719,0.3398438 0.164062,0 0.398437,-0.1171875 0.398437,-0.4101563 0,-0.2226562 -0.1875,-0.5390625 -0.726562,-0.5390625 -0.117188,0 -0.597657,0.011719 -1.054688,0.3515625 -0.164062,-0.1054687 -0.515625,-0.2929687 -0.972656,-0.2929687 -0.9375,0 -1.640625,0.7382812 -1.640625,1.59375 0,0.421875 0.164062,0.75 0.316406,0.9375 -0.105469,0.1640625 -0.199219,0.3867187 -0.199219,0.6796875 0,0.35156245 0.140625,0.5976562 0.234375,0.7148437 -0.738281,0.45703125 -0.738281,1.125 -0.738281,1.2421875 0,0.8554688 1.042969,1.4648438 2.320313,1.4648438 1.277343,0 2.320312,-0.6210938 2.320312,-1.4648438 0,-0.375 -0.1875,-0.8671875 -0.691406,-1.13671875 -0.128906,-0.0703125 -0.550781,-0.29296875 -1.441406,-0.29296875 h -0.703125 c -0.07031,0 -0.199219,0 -0.28125,-0.0234375 -0.152344,0 -0.210938,0 -0.328125,-0.12890625 -0.117188,-0.140625 -0.128907,-0.33984375 -0.128907,-0.36328125 0,-0.035156 0.02344,-0.1757812 0.07031,-0.28125 z m 1.183594,3.09375 c -0.996094,0 -1.746094,-0.4335937 -1.746094,-0.8671875 0,-0.1875 0.09375,-0.50390625 0.410156,-0.703125 0.246094,-0.15234375 0.339844,-0.15234375 1.066406,-0.15234375 0.878907,0 2.003907,0 2.003907,0.85546875 0,0.4335938 -0.738282,0.8671875 -1.734375,0.8671875 z m 0,0"
       style="fill:#000000;fill-opacity:1;fill-rule:nonzero;stroke:none"
       aria-label="sorting"
       transform="matrix(1.3333333,0,0,1.3333333,133.41467,108.46933)" />
    <path
       id="path15"
       d="M 0,0 H 3.138"
       style="fill:none;stroke:#000000;stroke-width:0.398;stroke-linecap:butt;stroke-linejoin:miter;stroke-miterlimit:10;stroke-dasharray:none;stroke-opacity:1"
       transform="matrix(1.3333333,0,0,-1.3333333,183.068,108.204)" />
    <g
       id="g15"
       aria-label="network&#10;10"
       transform="matrix(1.3333333,0,0,1.3333333,187.252,108.46933)">
      <path
         id="path16"
         d="m 1.6537734,-3.82075 c 0,-0.328125 0,-0.46875 -0.3984375,-0.46875 H 0.52877344 c -0.1640625,0 -0.41015625,0 -0.41015625,0.3046875 0,0.2929688 0.2578125,0.2929688 0.3984375,0.2929688 h 0.4453125 v 3.0820312 H 0.52877344 c -0.1640625,0 -0.41015625,0 -0.41015625,0.3046875 0,0.3046875 0.2578125,0.3046875 0.3984375,0.3046875 H 2.0990859 c 0.140625,0 0.3984375,0 0.3984375,-0.3046875 0,-0.3046875 -0.2460937,-0.3046875 -0.3984375,-0.3046875 H 1.6537734 V -2.367625 c 0,-0.9960937 0.7382813,-1.3828125 1.2421875,-1.3828125 0.5273438,0 0.6679688,0.28125 0.6679688,0.8789063 v 2.2617187 H 3.1772109 c -0.1523437,0 -0.4101562,0 -0.4101562,0.3046875 0,0.3046875 0.2695312,0.3046875 0.4101562,0.3046875 h 1.5234375 c 0.140625,0 0.3984375,0 0.3984375,-0.3046875 0,-0.3046875 -0.2460937,-0.3046875 -0.4101562,-0.3046875 H 4.2553359 v -2.3085937 c 0,-1.0078125 -0.5039062,-1.4296875 -1.3007812,-1.4296875 -0.65625,0 -1.1132813,0.328125 -1.3007813,0.5273437 z m 7.7958985,1.921875 c 0.2109375,0 0.3984375,0 0.3984375,-0.375 0,-1.1367187 -0.6328125,-2.109375 -1.921875,-2.109375 -1.1953125,0 -2.1445313,0.9960938 -2.1445313,2.2265625 0,1.20703125 1.0078125,2.21484375 2.2851563,2.21484375 1.3125,0 1.78125,-0.890625 1.78125,-1.14843745 0,-0.2695313 -0.28125,-0.2695313 -0.3398438,-0.2695313 -0.1875,0 -0.2578125,0.023437 -0.328125,0.2109375 -0.2226562,0.515625 -0.7617187,0.59765625 -1.0429687,0.59765625 -0.75,0 -1.4882813,-0.49218745 -1.6523438,-1.34765625 z m -2.953125,-0.5976562 c 0.140625,-0.7265625 0.7265625,-1.2773438 1.4296875,-1.2773438 0.515625,0 1.125,0.2460938 1.21875,1.2773438 z m 6.1787111,-1.1953125 h 1.628906 c 0.152344,0 0.398438,0 0.398438,-0.2929688 0,-0.3046875 -0.234375,-0.3046875 -0.398438,-0.3046875 h -1.628906 v -0.8203125 c 0,-0.1875 0,-0.4101562 -0.339844,-0.4101562 -0.351562,0 -0.351562,0.2109375 -0.351562,0.4101562 V -4.2895 h -0.867188 c -0.152344,0 -0.410156,0 -0.410156,0.3046875 0,0.2929688 0.257812,0.2929688 0.398437,0.2929688 h 0.878907 v 2.4375 c 0,0.9492187 0.679687,1.31249995 1.40625,1.31249995 0.738281,0 1.546875,-0.421875 1.546875,-1.31249995 0,-0.1757813 0,-0.3867188 -0.351563,-0.3867188 -0.328125,0 -0.339844,0.2109375 -0.339844,0.375 -0.01172,0.62109375 -0.574218,0.71484375 -0.808593,0.71484375 -0.761719,0 -0.761719,-0.51562495 -0.761719,-0.76171875 z m 7.561523,0 c 0.304688,0 0.515625,0 0.515625,-0.3046875 0,-0.2929688 -0.246093,-0.2929688 -0.421875,-0.2929688 h -1.148437 c -0.175781,0 -0.410156,0 -0.410156,0.2929688 0,0.3046875 0.222656,0.3046875 0.410156,0.3046875 h 0.492187 l -0.492187,2.97656245 h -0.01172 c -0.04687,-0.2578125 -0.17578,-0.71484375 -0.292968,-1.12499995 -0.175781,-0.6328125 -0.210937,-0.7382813 -0.5625,-0.7382813 -0.09375,0 -0.28125,0 -0.398437,0.2226563 -0.02344,0.058594 -0.421875,1.4414062 -0.46875,1.64062495 L 16.920375,-3.6918437 h 0.492188 c 0.175781,0 0.421875,0 0.421875,-0.2929688 0,-0.3046875 -0.234375,-0.3046875 -0.421875,-0.3046875 h -1.148438 c -0.175781,0 -0.410156,0 -0.410156,0.2929688 0,0.3046875 0.199219,0.3046875 0.503906,0.3046875 l 0.597656,3.35156245 c 0.03516,0.234375 0.07031,0.375 0.46875,0.375 0.398438,0 0.421875,-0.08203125 0.609375,-0.69140625 0.246094,-0.8789062 0.257813,-1.0195312 0.28125,-1.2421875 h 0.01172 c 0.05859,0.5273438 0.421875,1.6875 0.457031,1.76953125 0.128907,0.1640625 0.304688,0.1640625 0.421875,0.1640625 0.375,0 0.398438,-0.15234375 0.433594,-0.375 z m 5.337891,1.5351562 c 0,-1.2421875 -0.925781,-2.2265625 -2.039063,-2.2265625 -1.113281,0 -2.050781,0.984375 -2.050781,2.2265625 0,1.265625 0.949219,2.21484375 2.050781,2.21484375 1.089844,0 2.039063,-0.9609375 2.039063,-2.21484375 z m -2.039063,1.60546875 c -0.738281,0 -1.359375,-0.74999995 -1.359375,-1.67578125 0,-0.9023437 0.644532,-1.546875 1.359375,-1.546875 0.714844,0 1.347657,0.6445313 1.347657,1.546875 0,0.9257813 -0.609375,1.67578125 -1.347657,1.67578125 z M 28.366664,-1.852 c 0,-0.9375 0.585938,-1.8984375 1.792969,-1.8984375 0.01172,0.2460938 0.175781,0.4453125 0.421875,0.4453125 0.222656,0 0.421875,-0.1640625 0.421875,-0.4335937 0,-0.1992188 -0.117188,-0.609375 -0.949219,-0.609375 -0.503906,0 -1.148437,0.1757812 -1.6875,0.796875 v -0.3398438 c 0,-0.3046875 -0.05859,-0.3984375 -0.398437,-0.3984375 h -1.101563 c -0.152344,0 -0.398437,0 -0.398437,0.2929688 0,0.3046875 0.246093,0.3046875 0.398437,0.3046875 h 0.808594 v 3.0820312 h -0.808594 c -0.152344,0 -0.398437,0 -0.398437,0.3046875 0,0.3046875 0.246093,0.3046875 0.398437,0.3046875 h 2.601563 c 0.152343,0 0.410156,0 0.410156,-0.3046875 0,-0.3046875 -0.257813,-0.3046875 -0.410156,-0.3046875 h -1.101563 z m 5.874024,-0.6914062 1.230468,-1.1484375 H 35.811 c 0.152344,0 0.410156,0 0.410156,-0.2929688 C 36.221156,-4.2895 35.963344,-4.2895 35.811,-4.2895 h -1.535156 c -0.152344,0 -0.398438,0 -0.398438,0.3046875 0,0.2929688 0.257813,0.2929688 0.398438,0.2929688 h 0.375 l -1.617188,1.5234375 v -3.515625 c 0,-0.3046875 -0.05859,-0.3984375 -0.398437,-0.3984375 h -0.644531 c -0.152344,0 -0.398438,0 -0.398438,0.2929687 0,0.3046875 0.234375,0.3046875 0.398438,0.3046875 h 0.492187 v 4.875 h -0.492187 c -0.152344,0 -0.398438,0 -0.398438,0.3046875 0,0.3046875 0.234375,0.3046875 0.398438,0.3046875 h 1.535156 c 0.152344,0 0.398437,0 0.398437,-0.3046875 0,-0.3046875 -0.246093,-0.3046875 -0.398437,-0.3046875 h -0.492188 v -0.8085937 l 0.796875,-0.7382813 1.183594,1.546875 c -0.351562,0 -0.550781,0 -0.550781,0.3046875 0,0.3046875 0.246094,0.3046875 0.398437,0.3046875 h 1.171875 c 0.152344,0 0.410157,0 0.410157,-0.3046875 0,-0.3046875 -0.257813,-0.3046875 -0.410157,-0.3046875 h -0.304687 z m 0,0"
         style="fill:#000000;fill-opacity:1;fill-rule:nonzero;stroke:none" />
      <path
         id="path17"
         d="m -3.8862656,5.2056172 h -0.1992188 c -0.5859375,0.609375 -1.4179687,0.6328125 -1.8867187,0.65625 v 0.5742187 c 0.328125,-0.011719 0.8085937,-0.023437 1.3007812,-0.234375 v 5.1796871 h -1.2421875 v 0.574219 h 3.2695313 v -0.574219 h -1.2421875 z m 6.5507812,3.5039062 c 0,-0.7851562 -0.035156,-1.7109375 -0.4570312,-2.5195312 -0.3984375,-0.75 -1.0898438,-0.984375 -1.59375002,-0.984375 -0.59765625,0 -1.2890625,0.2695312 -1.69921878,1.1484375 -0.328125,0.7265625 -0.375,1.5585937 -0.375,2.3554687 0,0.7851563 0.035156,1.5117186 0.3398438,2.2382816 0.39843748,0.960937 1.14843748,1.230468 1.72265623,1.230468 0.72656247,0 1.34765627,-0.410156 1.66406247,-1.101562 C 2.5707656,10.43218 2.6645156,9.7759297 2.6645156,8.7095234 Z M 0.61373438,11.568898 c -0.52734375,0 -0.9375,-0.375 -1.13671875,-1.101562 -0.15234375,-0.5625001 -0.1640625,-1.1015626 -0.1640625,-1.8750001 0,-0.6328125 0,-1.2304687 0.1640625,-1.78125 0.0703125,-0.1875 0.31640625,-0.9960937 1.125,-0.9960937 0.77343747,0 1.03124997,0.75 1.10156247,0.9257812 0.1875,0.5625 0.1875,1.2304688 0.1875,1.8515625 0,0.65625 0,1.2773438 -0.1757812,1.9101561 -0.2578125,0.902344 -0.78515627,1.066406 -1.10156252,1.066406 z m 0,0"
         style="fill:#000000;fill-opacity:1;fill-rule:nonzero;stroke:none" />
    </g>
    <path
       id="path18"
       d="m 320.79877,30.3862 h -49.81394 c -2.75117,0 -4.98138,-2.23021 -4.98138,-4.98138 V 10.46063 c 0,-2.75119 2.23021,-4.98138 4.98138,-4.98138 h 49.81394 c 2.75117,0 4.98138,2.23019 4.98138,4.98138 v 14.94419 c 0,2.75117 -2.23021,4.98138 -4.98138,4.98138 z"
       style="fill:#fef5d1;fill-opacity:1;fill-rule:nonzero;stroke:#f8cc1b;stroke-width:0.3985;stroke-linecap:butt;stroke-linejoin:miter;stroke-miterlimit:10;stroke-dasharray:none;stroke-opacity:1"
       transform="matrix(1.3333333,0,0,-1.3333333,41.28,88.470667)" />
    <path
       id="path19"
       d="m 2.2144453,-1.8523437 c 0,-0.9375 0.5859375,-1.8984375 1.7929688,-1.8984375 0.011719,0.2460937 0.1757812,0.4453125 0.421875,0.4453125 0.2226562,0 0.421875,-0.1640625 0.421875,-0.4335938 0,-0.1992187 -0.1171875,-0.609375 -0.9492188,-0.609375 -0.5039062,0 -1.1484375,0.1757813 -1.6875,0.796875 v -0.3398437 c 0,-0.3046875 -0.058594,-0.3984375 -0.3984375,-0.3984375 H 0.71444531 c -0.15234375,0 -0.3984375,0 -0.3984375,0.2929687 0,0.3046875 0.24609375,0.3046875 0.3984375,0.3046875 H 1.5230391 v 3.08203125 H 0.71444531 c -0.15234375,0 -0.3984375,0 -0.3984375,0.3046875 0,0.3046875 0.24609375,0.3046875 0.3984375,0.3046875 H 3.3160078 c 0.1523438,0 0.4101563,0 0.4101563,-0.3046875 0,-0.3046875 -0.2578125,-0.3046875 -0.4101563,-0.3046875 H 2.2144453 Z m 7.303711,-1.8398438 H 9.811125 c 0.1523438,0 0.398438,0 0.398438,-0.2929687 0,-0.3046875 -0.2343755,-0.3046875 -0.398438,-0.3046875 H 8.6509688 c -0.1523438,0 -0.3984375,0 -0.3984375,0.2929687 0,0.3046875 0.234375,0.3046875 0.3984375,0.3046875 H 8.9205 L 7.842375,-0.48125 6.7525313,-3.6921875 h 0.28125 c 0.1523437,0 0.3984375,0 0.3984375,-0.2929687 0,-0.3046875 -0.2460938,-0.3046875 -0.3984375,-0.3046875 h -1.171875 c -0.1523438,0 -0.3984375,0 -0.3984375,0.3046875 0,0.2929687 0.2578125,0.2929687 0.3984375,0.2929687 h 0.3046875 l 1.1484375,3.38671875 C 7.4322188,0.034375 7.6314375,0.034375 7.842375,0.034375 c 0.1875,0 0.4101563,0 0.5273438,-0.328125 z m 0,0"
       style="fill:#000000;fill-opacity:1;fill-rule:nonzero;stroke:none"
       aria-label="rv"
       transform="matrix(1.3333333,0,0,1.3333333,409.856,60.266667)" />
    <path
       id="path20"
       d="M 0,0 H 3.138"
       style="fill:none;stroke:#000000;stroke-width:0.398;stroke-linecap:butt;stroke-linejoin:miter;stroke-miterlimit:10;stroke-dasharray:none;stroke-opacity:1"
       transform="matrix(1.3333333,0,0,-1.3333333,424.64,60.001333)" />
    <path
       id="path21"
       d="M 1.0900078,-3.996875 C 1.0665703,-4.2898437 0.86735156,-4.2898437 0.69157031,-4.2898437 h -0.328125 c -0.140625,0 -0.3984375,0 -0.3984375,0.2929687 0,0.3046875 0.19921875,0.3046875 0.5625,0.3046875 v 3.08203125 c -0.36328125,0 -0.5625,0 -0.5625,0.3046875 0,0.3046875 0.26953125,0.3046875 0.3984375,0.3046875 H 1.2423516 c 0.1523437,0 0.4101562,0 0.4101562,-0.3046875 0,-0.3046875 -0.2109375,-0.3046875 -0.5625,-0.3046875 V -2.3914062 c 0,-0.890625 0.4101563,-1.359375 0.8085938,-1.359375 0.234375,0 0.375,0.1757812 0.375,0.8203125 v 2.32031245 c -0.1875,0 -0.4453125,0 -0.4453125,0.3046875 0,0.3046875 0.2695312,0.3046875 0.4101562,0.3046875 h 0.75 c 0.1523438,0 0.4101563,0 0.4101563,-0.3046875 0,-0.3046875 -0.2109375,-0.3046875 -0.5742188,-0.3046875 V -2.3914062 c 0,-0.890625 0.4101563,-1.359375 0.8203125,-1.359375 0.234375,0 0.375,0.1757812 0.375,0.8203125 v 2.32031245 c -0.1992187,0 -0.4453125,0 -0.4453125,0.3046875 0,0.3046875 0.2695313,0.3046875 0.4101563,0.3046875 h 0.75 c 0.1523437,0 0.4101562,0 0.4101562,-0.3046875 0,-0.3046875 -0.2109375,-0.3046875 -0.5742187,-0.3046875 V -3.0242187 c 0,-0.1992188 0,-1.3242188 -0.8789063,-1.3242188 -0.3046875,0 -0.7148437,0.1289063 -0.9960937,0.515625 -0.140625,-0.3398437 -0.421875,-0.515625 -0.75,-0.515625 -0.3164063,0 -0.6210938,0.1289063 -0.8554688,0.3515625 z m 0,0"
       style="fill:#000000;fill-opacity:1;fill-rule:nonzero;stroke:none"
       aria-label="m"
       transform="matrix(1.3333333,0,0,1.3333333,428.824,60.266667)" />
    <path
       id="path22"
       d="M 0,0 H 3.138"
       style="fill:none;stroke:#000000;stroke-width:0.398;stroke-linecap:butt;stroke-linejoin:miter;stroke-miterlimit:10;stroke-dasharray:none;stroke-opacity:1"
       transform="matrix(1.3333333,0,0,-1.3333333,436.63467,60.001333)" />
    <g
       id="g22"
       aria-label="ext&#10;10"
       transform="matrix(1.3333333,0,0,1.3333333,440.81867,60.266667)">
      <path
         id="path23"
         d="m 4.2199844,-1.8992187 c 0.2109375,0 0.3984375,0 0.3984375,-0.375 0,-1.1367188 -0.6328125,-2.109375 -1.921875,-2.109375 -1.1953125,0 -2.14453127,0.9960937 -2.14453127,2.2265625 0,1.2070312 1.00781247,2.2148437 2.28515627,2.2148437 1.3125,0 1.78125,-0.890625 1.78125,-1.1484375 0,-0.2695312 -0.28125,-0.2695312 -0.3398438,-0.2695312 -0.1875,0 -0.2578125,0.023437 -0.328125,0.2109375 -0.2226562,0.51562495 -0.7617187,0.5976562 -1.0429687,0.5976562 -0.75,0 -1.4882813,-0.4921875 -1.6523438,-1.3476562 z M 1.2668594,-2.496875 c 0.140625,-0.7265625 0.7265625,-1.2773437 1.4296875,-1.2773437 0.515625,0 1.125,0.2460937 1.21875,1.2773437 z m 6.8232422,0.28125 1.1367187,-1.4765625 h 0.3984375 c 0.140625,0 0.4101562,0 0.4101562,-0.2929687 0,-0.3046875 -0.2578124,-0.3046875 -0.4101562,-0.3046875 h -1.171875 c -0.140625,0 -0.3984375,0 -0.3984375,0.2929687 0,0.3046875 0.2226563,0.3046875 0.4921875,0.3046875 l -0.7382812,1.0078125 -0.75,-1.0078125 c 0.2578125,0 0.46875,0 0.46875,-0.3046875 0,-0.2929687 -0.2460938,-0.2929687 -0.3984375,-0.2929687 H 5.9690078 c -0.1523437,0 -0.4101562,0 -0.4101562,0.3046875 0,0.2929687 0.2695312,0.2929687 0.4101562,0.2929687 h 0.3984375 l 1.171875,1.4765625 -1.2304687,1.60546875 H 5.9104141 c -0.1523438,0 -0.4101563,0 -0.4101563,0.3046875 0,0.3046875 0.2695313,0.3046875 0.4101563,0.3046875 h 1.1601562 c 0.1523438,0 0.3984375,0 0.3984375,-0.3046875 0,-0.3046875 -0.2109375,-0.3046875 -0.515625,-0.3046875 l 0.8554688,-1.21874995 0.890625,1.21874995 c -0.28125,0 -0.5039063,0 -0.5039063,0.3046875 0,0.3046875 0.2578125,0.3046875 0.3984375,0.3046875 h 1.171875 c 0.140625,0 0.4101562,0 0.4101562,-0.3046875 0,-0.3046875 -0.2578124,-0.3046875 -0.4101562,-0.3046875 H 9.3674453 Z m 4.5849614,-1.4765625 h 1.628906 c 0.152344,0 0.398437,0 0.398437,-0.2929687 0,-0.3046875 -0.234375,-0.3046875 -0.398437,-0.3046875 h -1.628906 v -0.8203125 c 0,-0.1875 0,-0.4101563 -0.339844,-0.4101563 -0.351563,0 -0.351563,0.2109375 -0.351563,0.4101563 v 0.8203125 h -0.867187 c -0.152344,0 -0.410156,0 -0.410156,0.3046875 0,0.2929687 0.257812,0.2929687 0.398437,0.2929687 h 0.878906 v 2.4375 c 0,0.94921875 0.679688,1.3125 1.40625,1.3125 0.738282,0 1.546875,-0.421875 1.546875,-1.3125 0,-0.1757812 0,-0.3867187 -0.351562,-0.3867187 -0.328125,0 -0.339844,0.2109375 -0.339844,0.375 -0.01172,0.6210937 -0.574219,0.7148437 -0.808594,0.7148437 -0.761718,0 -0.761718,-0.515625 -0.761718,-0.7617187 z m 0,0"
         style="fill:#000000;fill-opacity:1;fill-rule:nonzero;stroke:none" />
      <path
         id="path24"
         d="m -5.77025,5.2052734 h -0.1992187 c -0.5859375,0.609375 -1.4179688,0.6328125 -1.8867188,0.65625 v 0.5742188 c 0.328125,-0.011719 0.8085938,-0.023437 1.3007813,-0.234375 v 5.1796878 h -1.2421875 v 0.574218 h 3.2695312 V 11.381055 H -5.77025 Z m 6.55078125,3.5039063 c 0,-0.7851563 -0.0351563,-1.7109375 -0.45703125,-2.5195313 -0.3984375,-0.75 -1.08984375,-0.984375 -1.59375,-0.984375 -0.5976562,0 -1.2890625,0.2695313 -1.6992187,1.1484375 -0.328125,0.7265625 -0.375,1.5585938 -0.375,2.3554688 0,0.7851562 0.035156,1.5117183 0.3398437,2.2382813 0.3984375,0.960937 1.1484375,1.230469 1.7226563,1.230469 0.72656245,0 1.3476562,-0.410157 1.66406245,-1.101563 0.3046875,-0.644531 0.3984375,-1.3007811 0.3984375,-2.3671873 z M -1.27025,11.568555 c -0.5273437,0 -0.9375,-0.375 -1.1367187,-1.101563 -0.1523438,-0.5624998 -0.1640625,-1.1015623 -0.1640625,-1.8749998 0,-0.6328125 0,-1.2304688 0.1640625,-1.78125 0.070312,-0.1875 0.3164062,-0.9960938 1.125,-0.9960938 0.77343745,0 1.03124995,0.75 1.10156245,0.9257813 0.1875,0.5625 0.1875,1.2304687 0.1875,1.8515625 0,0.65625 0,1.2773437 -0.17578125,1.9101558 -0.2578125,0.902344 -0.78515625,1.066407 -1.1015625,1.066407 z m 0,0"
         style="fill:#000000;fill-opacity:1;fill-rule:nonzero;stroke:none" />
    </g>
    <path
       id="path25"
       d="m 320.79765,-5.47925 h -49.81393 c -2.75118,0 -4.98139,-2.23019 -4.98139,-4.98138 v -14.94419 c 0,-2.75117 2.23021,-4.98138 4.98139,-4.98138 h 49.81393 c 2.75119,0 4.98139,2.23021 4.98139,4.98138 v 14.94419 c 0,2.75119 -2.2302,4.98138 -4.98139,4.98138 z"
       style="fill:#fef5d1;fill-opacity:1;fill-rule:nonzero;stroke:#f8cc1b;stroke-width:0.3985;stroke-linecap:butt;stroke-linejoin:miter;stroke-miterlimit:10;stroke-dasharray:none;stroke-opacity:1"
       transform="matrix(1.3333333,0,0,-1.3333333,41.28,88.470667)" />
    <path
       id="path26"
       d="m 4.2902422,-3.6918437 h 0.2929687 c 0.1523438,0 0.3984375,0 0.3984375,-0.2929688 C 4.9816484,-4.2895 4.7472734,-4.2895 4.5832109,-4.2895 H 3.4230547 c -0.1523438,0 -0.3984375,0 -0.3984375,0.2929688 0,0.3046875 0.234375,0.3046875 0.3984375,0.3046875 H 3.6925859 L 2.6144609,-0.48090625 1.5246172,-3.6918437 h 0.28125 c 0.1523437,0 0.3984375,0 0.3984375,-0.2929688 C 2.2043047,-4.2895 1.9582109,-4.2895 1.8058672,-4.2895 H 0.63399219 c -0.15234375,0 -0.3984375,0 -0.3984375,0.3046875 0,0.2929688 0.2578125,0.2929688 0.3984375,0.2929688 h 0.3046875 L 2.0871172,-0.305125 c 0.1171875,0.33984375 0.3164062,0.33984375 0.5273437,0.33984375 0.1875,0 0.4101563,0 0.5273438,-0.328125 z M 6.8830156,-3.82075 c 0,-0.328125 0,-0.46875 -0.3984375,-0.46875 H 5.7580156 c -0.1640625,0 -0.4101562,0 -0.4101562,0.3046875 0,0.2929688 0.2578125,0.2929688 0.3984375,0.2929688 h 0.4453125 v 3.0820312 H 5.7580156 c -0.1640625,0 -0.4101562,0 -0.4101562,0.3046875 0,0.3046875 0.2578125,0.3046875 0.3984375,0.3046875 h 1.5820312 c 0.140625,0 0.3984375,0 0.3984375,-0.3046875 0,-0.3046875 -0.2460937,-0.3046875 -0.3984375,-0.3046875 H 6.8830156 V -2.367625 c 0,-0.9960937 0.7382813,-1.3828125 1.2421875,-1.3828125 0.5273438,0 0.6679688,0.28125 0.6679688,0.8789063 v 2.2617187 H 8.4064531 c -0.1523437,0 -0.4101562,0 -0.4101562,0.3046875 0,0.3046875 0.2695312,0.3046875 0.4101562,0.3046875 h 1.5234375 c 0.1406254,0 0.3984374,0 0.3984374,-0.3046875 0,-0.3046875 -0.246094,-0.3046875 -0.4101561,-0.3046875 H 9.4845781 v -2.3085937 c 0,-1.0078125 -0.5039062,-1.4296875 -1.3007812,-1.4296875 -0.65625,0 -1.1132813,0.328125 -1.3007813,0.5273437 z m 8.2294924,1.6640625 c 0,-1.2421875 -0.925781,-2.2265625 -2.039063,-2.2265625 -1.113281,0 -2.050781,0.984375 -2.050781,2.2265625 0,1.265625 0.949219,2.21484375 2.050781,2.21484375 1.089844,0 2.039063,-0.9609375 2.039063,-2.21484375 z m -2.039063,1.60546875 c -0.738281,0 -1.359375,-0.74999995 -1.359375,-1.67578125 0,-0.9023437 0.644532,-1.546875 1.359375,-1.546875 0.714844,0 1.347657,0.6445313 1.347657,1.546875 0,0.9257813 -0.609375,1.67578125 -1.347657,1.67578125 z M 17.9045,-1.852 c 0,-0.9375 0.585938,-1.8984375 1.792969,-1.8984375 0.01172,0.2460938 0.175781,0.4453125 0.421875,0.4453125 0.222656,0 0.421875,-0.1640625 0.421875,-0.4335937 0,-0.1992188 -0.117188,-0.609375 -0.949219,-0.609375 -0.503906,0 -1.148437,0.1757812 -1.6875,0.796875 V -3.8910625 C 17.9045,-4.19575 17.845906,-4.2895 17.506063,-4.2895 H 16.4045 c -0.152344,0 -0.398437,0 -0.398437,0.2929688 0,0.3046875 0.246093,0.3046875 0.398437,0.3046875 h 0.808594 v 3.0820312 H 16.4045 c -0.152344,0 -0.398437,0 -0.398437,0.3046875 0,0.3046875 0.246093,0.3046875 0.398437,0.3046875 h 2.601563 c 0.152343,0 0.410156,0 0.410156,-0.3046875 0,-0.3046875 -0.257813,-0.3046875 -0.410156,-0.3046875 H 17.9045 Z m 4.107422,-2.1445312 C 21.988484,-4.2895 21.789266,-4.2895 21.613484,-4.2895 h -0.328125 c -0.140625,0 -0.398437,0 -0.398437,0.2929688 0,0.3046875 0.199219,0.3046875 0.5625,0.3046875 v 3.0820312 c -0.363281,0 -0.5625,0 -0.5625,0.3046875 0,0.3046875 0.269531,0.3046875 0.398437,0.3046875 h 0.878907 c 0.152343,0 0.410156,0 0.410156,-0.3046875 0,-0.3046875 -0.210938,-0.3046875 -0.5625,-0.3046875 v -1.78125 c 0,-0.890625 0.410156,-1.359375 0.808594,-1.359375 0.234375,0 0.375,0.1757813 0.375,0.8203125 v 2.3203125 c -0.1875,0 -0.445313,0 -0.445313,0.3046875 0,0.3046875 0.269531,0.3046875 0.410156,0.3046875 h 0.75 c 0.152344,0 0.410157,0 0.410157,-0.3046875 0,-0.3046875 -0.210938,-0.3046875 -0.574219,-0.3046875 v -1.78125 c 0,-0.890625 0.410156,-1.359375 0.820312,-1.359375 0.234375,0 0.375,0.1757813 0.375,0.8203125 v 2.3203125 c -0.199218,0 -0.445312,0 -0.445312,0.3046875 0,0.3046875 0.269531,0.3046875 0.410156,0.3046875 h 0.75 c 0.152344,0 0.410156,0 0.410156,-0.3046875 0,-0.3046875 -0.210937,-0.3046875 -0.574218,-0.3046875 V -3.023875 c 0,-0.1992187 0,-1.3242187 -0.878907,-1.3242187 -0.304687,0 -0.714843,0.1289062 -0.996093,0.515625 -0.140625,-0.3398438 -0.421875,-0.515625 -0.75,-0.515625 -0.316407,0 -0.621094,0.1289062 -0.855469,0.3515625 z m 0,0"
       style="fill:#000000;fill-opacity:1;fill-rule:nonzero;stroke:none"
       aria-label="vnorm"
       transform="matrix(1.3333333,0,0,1.3333333,408.87733,108.46933)" />
    <path
       id="path27"
       d="M 0,0 H 3.138"
       style="fill:none;stroke:#000000;stroke-width:0.398;stroke-linecap:butt;stroke-linejoin:miter;stroke-miterlimit:10;stroke-dasharray:none;stroke-opacity:1"
       transform="matrix(1.3333333,0,0,-1.3333333,444.584,108.204)" />
    <g
       id="g27"
       aria-label="pl&#10;10"
       transform="matrix(1.3333333,0,0,1.3333333,448.768,108.46933)">
      <path
         id="path28"
         d="m 1.6534922,-2.6254375 c 0,-0.5976562 0.5742187,-1.125 1.2070312,-1.125 0.7382813,0 1.3125,0.7265625 1.3125,1.59375 0,0.9609375 -0.6914062,1.60546875 -1.3945312,1.60546875 -0.7734375,0 -1.125,-0.87890625 -1.125,-1.34765625 z m 0,2.1796875 c 0.4101562,0.41015625 0.84375,0.50390625 1.1601562,0.50390625 1.078125,0 2.0507813,-0.94921875 2.0507813,-2.21484375 0,-1.21875 -0.890625,-2.1914062 -1.9453125,-2.1914062 -0.4804688,0 -0.9257813,0.1757812 -1.265625,0.4804687 0,-0.28125 -0.023437,-0.421875 -0.3984375,-0.421875 H 0.52849219 c -0.1640625,0 -0.41015625,0 -0.41015625,0.3046875 0,0.2929688 0.2578125,0.2929688 0.3984375,0.2929688 h 0.4453125 v 5.296875 H 0.52849219 c -0.1640625,0 -0.41015625,0 -0.41015625,0.3046875 0,0.3046875 0.2578125,0.3046875 0.3984375,0.3046875 H 2.0988047 c 0.140625,0 0.3984375,0 0.3984375,-0.3046875 0,-0.3046875 -0.2460938,-0.3046875 -0.3984375,-0.3046875 H 1.6534922 Z m 6.5302734,-5.2382812 c 0,-0.3046875 -0.058594,-0.3984375 -0.3984375,-0.3984375 H 6.2150156 c -0.1523437,0 -0.4101562,0 -0.4101562,0.3046875 0,0.2929687 0.2578125,0.2929687 0.3984375,0.2929687 h 1.3007812 v 4.875 H 6.2150156 c -0.1523437,0 -0.4101562,0 -0.4101562,0.3046875 0,0.3046875 0.2578125,0.3046875 0.3984375,0.3046875 h 3.28125 c 0.1523437,0 0.3984375,0 0.3984375,-0.3046875 0,-0.3046875 -0.234375,-0.3046875 -0.3984375,-0.3046875 H 8.1837656 Z m 0,0"
         style="fill:#000000;fill-opacity:1;fill-rule:nonzero;stroke:none" />
      <path
         id="path29"
         d="m -11.73225,5.2056172 h -0.199219 c -0.585937,0.609375 -1.417968,0.6328125 -1.886718,0.65625 v 0.5742187 c 0.328125,-0.011719 0.808593,-0.023437 1.300781,-0.234375 v 5.1796871 h -1.242188 v 0.574219 h 3.269532 v -0.574219 h -1.242188 z m 6.5507813,3.5039062 c 0,-0.7851562 -0.035156,-1.7109375 -0.4570313,-2.5195312 -0.3984375,-0.75 -1.0898437,-0.984375 -1.59375,-0.984375 -0.5976562,0 -1.2890625,0.2695312 -1.6992187,1.1484375 -0.328125,0.7265625 -0.375,1.5585937 -0.375,2.3554687 0,0.7851563 0.035156,1.5117186 0.3398437,2.2382816 0.3984375,0.960937 1.1484375,1.230468 1.7226563,1.230468 0.7265625,0 1.3476562,-0.410156 1.6640625,-1.101562 0.3046875,-0.644531 0.3984375,-1.3007813 0.3984375,-2.3671876 z M -7.23225,11.568898 c -0.5273437,0 -0.9375,-0.375 -1.1367187,-1.101562 -0.1523438,-0.5625001 -0.1640625,-1.1015626 -0.1640625,-1.8750001 0,-0.6328125 0,-1.2304687 0.1640625,-1.78125 0.070312,-0.1875 0.3164062,-0.9960937 1.125,-0.9960937 0.7734375,0 1.03125,0.75 1.1015625,0.9257812 0.1875,0.5625 0.1875,1.2304688 0.1875,1.8515625 0,0.65625 0,1.2773438 -0.1757813,1.9101561 -0.2578125,0.902344 -0.7851562,1.066406 -1.1015625,1.066406 z m 0,0"
         style="fill:#000000;fill-opacity:1;fill-rule:nonzero;stroke:none" />
    </g>
    <path
       id="path30"
       d="m 240.09995,65.6543 h -49.81394 c -2.75117,0 -4.98138,-2.23021 -4.98138,-4.98139 V 45.72873 c 0,-2.75118 2.23021,-4.98139 4.98138,-4.98139 h 49.81394 c 2.75117,0 4.98138,2.23021 4.98138,4.98139 v 14.94418 c 0,2.75118 -2.23021,4.98139 -4.98138,4.98139 z"
       style="fill:#cce5dc;fill-opacity:1;fill-rule:nonzero;stroke:#007f4e;stroke-width:0.3985;stroke-linecap:butt;stroke-linejoin:miter;stroke-miterlimit:10;stroke-dasharray:none;stroke-opacity:1"
       transform="matrix(1.3333333,0,0,-1.3333333,41.28,88.470667)" />
    <path
       id="path31"
       d="m 2.2162031,-1.8522266 c 0,-0.9375 0.5859375,-1.8984375 1.7929688,-1.8984375 0.011719,0.2460938 0.1757812,0.4453125 0.421875,0.4453125 0.2226562,0 0.421875,-0.1640625 0.421875,-0.4335937 0,-0.1992188 -0.1171875,-0.609375 -0.9492188,-0.609375 -0.5039062,0 -1.1484375,0.1757812 -1.6875,0.796875 v -0.3398438 c 0,-0.3046875 -0.058594,-0.3984375 -0.3984375,-0.3984375 H 0.71620313 c -0.15234375,0 -0.3984375,0 -0.3984375,0.2929688 0,0.3046875 0.24609375,0.3046875 0.3984375,0.3046875 H 1.5247969 v 3.08203124 H 0.71620313 c -0.15234375,0 -0.3984375,0 -0.3984375,0.3046875 0,0.3046874975 0.24609375,0.3046874975 0.3984375,0.3046874975 H 3.3177656 c 0.1523438,0 0.4101563,0 0.4101563,-0.3046874975 0,-0.3046875 -0.2578125,-0.3046875 -0.4101563,-0.3046875 H 2.2162031 Z m 7.303711,-1.8398437 h 0.2929687 c 0.1523438,0 0.3984372,0 0.3984372,-0.2929688 0,-0.3046875 -0.2343747,-0.3046875 -0.3984372,-0.3046875 H 8.6527266 c -0.1523438,0 -0.3984375,0 -0.3984375,0.2929688 0,0.3046875 0.234375,0.3046875 0.3984375,0.3046875 H 8.9222578 L 7.8441328,-0.48113281 6.7542891,-3.6920703 h 0.28125 c 0.1523437,0 0.3984375,0 0.3984375,-0.2929688 0,-0.3046875 -0.2460938,-0.3046875 -0.3984375,-0.3046875 h -1.171875 c -0.1523438,0 -0.3984375,0 -0.3984375,0.3046875 0,0.2929688 0.2578125,0.2929688 0.3984375,0.2929688 h 0.3046875 l 1.1484375,3.38671874 c 0.1171875,0.33984375 0.3164062,0.33984375 0.5273437,0.33984375 0.1875,0 0.4101563,0 0.5273438,-0.328125 z m 0,0"
       style="fill:#000000;fill-opacity:1;fill-rule:nonzero;stroke:none"
       aria-label="rv"
       transform="matrix(1.3333333,0,0,1.3333333,308.256,12.426667)" />
    <path
       id="path32"
       d="M 0,0 H 3.138"
       style="fill:none;stroke:#000000;stroke-width:0.398;stroke-linecap:butt;stroke-linejoin:miter;stroke-miterlimit:10;stroke-dasharray:none;stroke-opacity:1"
       transform="matrix(1.3333333,0,0,-1.3333333,323.04,12.161333)" />
    <g
       id="g32"
       aria-label="asm&#10;5"
       transform="matrix(1.3333333,0,0,1.3333333,327.224,12.426667)">
      <path
         id="path33"
         d="m 3.6435234,-0.31707031 c 0.2226563,0.3046875 0.703125,0.3164062475 1.078125,0.3164062475 0.28125,0 0.4921875,0 0.4921875,-0.3046874975 0,-0.3046875 -0.2460937,-0.3046875 -0.3984375,-0.3046875 -0.4101562,0 -0.515625,-0.046875 -0.5976562,-0.0820313 V -2.8366016 c 0,-0.7148437 -0.5273438,-1.546875 -1.96875,-1.546875 -0.421875,0 -1.44140626,0 -1.44140626,0.7265625 0,0.3046875 0.21093746,0.4570313 0.44531246,0.4570313 0.1523438,0 0.4335938,-0.09375 0.4453125,-0.4570313 0,-0.082031 0,-0.09375 0.1992188,-0.1054687 0.140625,-0.011719 0.2695312,-0.011719 0.3632812,-0.011719 0.7617188,0 1.2773438,0.3046875 1.2773438,1.0195313 -1.7695313,0.023437 -2.98828126,0.5273437 -2.98828126,1.4765625 0,0.69140624 0.62109376,1.33593749 1.64062496,1.33593749 0.3632813,0 0.984375,-0.0703125 1.453125,-0.3749998 z M 3.5380547,-2.1686328 v 0.8320312 c 0,0.234375 0,0.43359379 -0.3867188,0.62109379 -0.3632812,0.1640625 -0.8085937,0.1640625 -0.890625,0.1640625 -0.6210937,0 -1.03125,-0.33984375 -1.03125,-0.72656249 0,-0.4804688 0.8671875,-0.8554688 2.3085938,-0.890625 z m 4.6582031,-0.375 c -0.2226562,-0.035156 -0.421875,-0.070312 -0.6679687,-0.1171875 -0.2929688,-0.035156 -0.9726563,-0.1640625 -0.9726563,-0.5507813 0,-0.2578125 0.3164063,-0.5625 1.265625,-0.5625 0.8320313,0 0.9609375,0.2929688 0.9960938,0.5507813 0.011719,0.1757812 0.035156,0.3398437 0.3398437,0.3398437 0.3515625,0 0.3515625,-0.2109375 0.3515625,-0.4101562 v -0.6796875 c 0,-0.1640625 0,-0.4101563 -0.3046875,-0.4101563 -0.234375,0 -0.28125,0.140625 -0.2929687,0.2109375 -0.4453125,-0.2109375 -0.8789063,-0.2109375 -1.0664063,-0.2109375 -1.6640625,0 -1.8984375,0.8203125 -1.8984375,1.171875 0,0.9140625 1.0429688,1.0898438 1.96875,1.2304688 0.4804688,0.082031 1.2773438,0.2109375 1.2773438,0.7382812 0,0.36328129 -0.3632813,0.69140629 -1.265625,0.69140629 -0.46875,0 -1.03125,-0.10546875 -1.2773438,-0.87890629 -0.058594,-0.1875 -0.09375,-0.2929687 -0.3515625,-0.2929687 -0.3515625,0 -0.3515625,0.2109375 -0.3515625,0.4101562 v 0.96093754 c 0,0.1640625 0,0.41015625 0.3046875,0.41015625 0.082031,0 0.2460938,-0.01171875 0.3632813,-0.375 0.4921875,0.3515625 1.0195312,0.375 1.3007812,0.375 1.5703125,0 1.8867188,-0.8203125 1.8867188,-1.30078129 0,-1.0429687 -1.2773438,-1.2539062 -1.6054688,-1.3007812 z m 3.3544922,-1.453125 c -0.02344,-0.2929688 -0.222656,-0.2929688 -0.398438,-0.2929688 h -0.328125 c -0.140625,0 -0.398437,0 -0.398437,0.2929688 0,0.3046875 0.199219,0.3046875 0.5625,0.3046875 v 3.08203124 c -0.363281,0 -0.5625,0 -0.5625,0.3046875 0,0.3046874975 0.269531,0.3046874975 0.398437,0.3046874975 h 0.878907 c 0.152343,0 0.410156,0 0.410156,-0.3046874975 0,-0.3046875 -0.210938,-0.3046875 -0.5625,-0.3046875 V -2.3912891 c 0,-0.890625 0.410156,-1.359375 0.808594,-1.359375 0.234375,0 0.375,0.1757813 0.375,0.8203125 v 2.32031254 c -0.1875,0 -0.445313,0 -0.445313,0.3046875 0,0.3046874975 0.269531,0.3046874975 0.410156,0.3046874975 h 0.75 c 0.152344,0 0.410157,0 0.410157,-0.3046874975 0,-0.3046875 -0.210938,-0.3046875 -0.574219,-0.3046875 V -2.3912891 c 0,-0.890625 0.410156,-1.359375 0.820312,-1.359375 0.234375,0 0.375,0.1757813 0.375,0.8203125 v 2.32031254 c -0.199218,0 -0.445312,0 -0.445312,0.3046875 0,0.3046874975 0.269531,0.3046874975 0.410156,0.3046874975 h 0.75 c 0.152344,0 0.410156,0 0.410156,-0.3046874975 0,-0.3046875 -0.210937,-0.3046875 -0.574218,-0.3046875 V -3.0241016 c 0,-0.1992187 0,-1.3242187 -0.878907,-1.3242187 -0.304687,0 -0.714843,0.1289062 -0.996093,0.515625 -0.140625,-0.3398438 -0.421875,-0.515625 -0.75,-0.515625 -0.316407,0 -0.621094,0.1289062 -0.855469,0.3515625 z m 0,0"
         style="fill:#000000;fill-opacity:1;fill-rule:nonzero;stroke:none" />
      <path
         id="path34"
         d="M -0.23538281,6.0608594 H 2.3896172 V 5.4163281 h -3.33984376 v 3.6796875 h 0.65625 c 0.1640625,-0.3984375 0.5390625,-0.7851562 1.11328125,-0.7851562 0.46875001,0 1.00781251,0.4101562 1.00781251,1.6054687 0,1.6523439 -1.21875001,1.6523439 -1.30078126,1.6523439 -0.66796875,0 -1.27734375,-0.386719 -1.57031254,-0.925781 l -0.328125,0.550781 c 0.41015629,0.574219 1.10156254,0.984375 1.91015629,0.984375 1.18359371,0 2.17968751,-0.984375 2.17968751,-2.2500001 0,-1.2421875 -0.8554688,-2.2265625 -1.88671876,-2.2265625 -0.3984375,0 -0.7734375,0.1523437 -1.06640625,0.4101562 z m 0,0"
         style="fill:#000000;fill-opacity:1;fill-rule:nonzero;stroke:none" />
    </g>
    <path
       id="path35"
       d="m 320.79765,65.6543 h -49.81393 c -2.75118,0 -4.98139,-2.23021 -4.98139,-4.98139 V 45.72873 c 0,-2.75118 2.23021,-4.98139 4.98139,-4.98139 h 49.81393 c 2.75119,0 4.98139,2.23021 4.98139,4.98139 v 14.94418 c 0,2.75118 -2.2302,4.98139 -4.98139,4.98139 z"
       style="fill:#cce5dc;fill-opacity:1;fill-rule:nonzero;stroke:#007f4e;stroke-width:0.3985;stroke-linecap:butt;stroke-linejoin:miter;stroke-miterlimit:10;stroke-dasharray:none;stroke-opacity:1"
       transform="matrix(1.3333333,0,0,-1.3333333,41.28,88.470667)" />
    <path
       id="path36"
       d="m 2.2148125,-1.8518125 c 0,-0.9375 0.5859375,-1.8984375 1.7929688,-1.8984375 0.011719,0.2460938 0.1757812,0.4453125 0.421875,0.4453125 0.2226562,0 0.421875,-0.1640625 0.421875,-0.4335937 0,-0.1992188 -0.1171875,-0.609375 -0.9492188,-0.609375 -0.5039062,0 -1.1484375,0.1757812 -1.6875,0.796875 V -3.890875 c 0,-0.3046875 -0.058594,-0.3984375 -0.3984375,-0.3984375 H 0.7148125 c -0.15234375,0 -0.3984375,0 -0.3984375,0.2929688 0,0.3046875 0.24609375,0.3046875 0.3984375,0.3046875 H 1.5234063 V -0.609625 H 0.7148125 c -0.15234375,0 -0.3984375,0 -0.3984375,0.3046875 0,0.3046875 0.24609375,0.3046875 0.3984375,0.3046875 H 3.316375 c 0.1523438,0 0.4101563,0 0.4101563,-0.3046875 0,-0.3046875 -0.2578125,-0.3046875 -0.4101563,-0.3046875 H 2.2148125 Z m 7.3037109,-1.8398437 h 0.2929688 c 0.1523437,0 0.3984378,0 0.3984378,-0.2929688 0,-0.3046875 -0.2343753,-0.3046875 -0.3984378,-0.3046875 H 8.6513359 c -0.1523437,0 -0.3984375,0 -0.3984375,0.2929688 0,0.3046875 0.234375,0.3046875 0.3984375,0.3046875 H 8.9208672 L 7.8427422,-0.48071875 6.7528984,-3.6916562 h 0.28125 c 0.1523438,0 0.3984375,0 0.3984375,-0.2929688 0,-0.3046875 -0.2460937,-0.3046875 -0.3984375,-0.3046875 h -1.171875 c -0.1523437,0 -0.3984375,0 -0.3984375,0.3046875 0,0.2929688 0.2578125,0.2929688 0.3984375,0.2929688 h 0.3046875 l 1.1484375,3.3867187 c 0.1171875,0.33984375 0.3164063,0.33984375 0.5273438,0.33984375 0.1875,0 0.4101562,0 0.5273437,-0.328125 z m 0,0"
       style="fill:#000000;fill-opacity:1;fill-rule:nonzero;stroke:none"
       aria-label="rv"
       transform="matrix(1.3333333,0,0,1.3333333,405.39067,13.625333)" />
    <path
       id="path37"
       d="M 0,0 H 3.138"
       style="fill:none;stroke:#000000;stroke-width:0.398;stroke-linecap:butt;stroke-linejoin:miter;stroke-miterlimit:10;stroke-dasharray:none;stroke-opacity:1"
       transform="matrix(1.3333333,0,0,-1.3333333,420.17467,13.36)" />
    <g
       id="g37"
       aria-label="tetris&#10;5"
       transform="matrix(1.3333333,0,0,1.3333333,424.36,13.625333)">
      <path
         id="path38"
         d="m 2.214375,-3.6916562 h 1.6289063 c 0.1523437,0 0.3984375,0 0.3984375,-0.2929688 0,-0.3046875 -0.234375,-0.3046875 -0.3984375,-0.3046875 H 2.214375 V -5.109625 c 0,-0.1875 0,-0.4101562 -0.3398437,-0.4101562 -0.3515625,0 -0.3515625,0.2109375 -0.3515625,0.4101562 v 0.8203125 H 0.65578125 c -0.15234375,0 -0.41015625,0 -0.41015625,0.3046875 0,0.2929688 0.2578125,0.2929688 0.3984375,0.2929688 h 0.8789063 v 2.4375 c 0,0.9492187 0.6796875,1.31249995 1.40625,1.31249995 0.7382812,0 1.546875,-0.421875 1.546875,-1.31249995 0,-0.1757813 0,-0.3867188 -0.3515625,-0.3867188 -0.328125,0 -0.3398438,0.2109375 -0.3398438,0.375 -0.011719,0.62109375 -0.5742187,0.71484375 -0.8085937,0.71484375 -0.7617188,0 -0.7617188,-0.51562495 -0.7617188,-0.76171875 z m 7.2333984,1.7929687 c 0.2109375,0 0.3984375,0 0.3984375,-0.375 0,-1.1367187 -0.6328125,-2.109375 -1.921875,-2.109375 -1.1953125,0 -2.1445312,0.9960938 -2.1445312,2.2265625 0,1.20703125 1.0078125,2.21484375 2.2851562,2.21484375 1.3125,0 1.78125,-0.890625 1.78125,-1.14843745 0,-0.2695313 -0.28125,-0.2695313 -0.3398437,-0.2695313 -0.1875,0 -0.2578125,0.023437 -0.328125,0.2109375 -0.2226563,0.515625 -0.7617188,0.59765625 -1.0429688,0.59765625 -0.75,0 -1.4882812,-0.49218745 -1.6523437,-1.34765625 z m -2.953125,-0.5976562 c 0.140625,-0.7265625 0.7265625,-1.2773438 1.4296875,-1.2773438 0.515625,0 1.125,0.2460938 1.21875,1.2773438 z m 6.1816406,-1.1953125 h 1.628906 c 0.152344,0 0.398438,0 0.398438,-0.2929688 0,-0.3046875 -0.234375,-0.3046875 -0.398438,-0.3046875 H 12.676289 V -5.109625 c 0,-0.1875 0,-0.4101562 -0.339844,-0.4101562 -0.351562,0 -0.351562,0.2109375 -0.351562,0.4101562 v 0.8203125 h -0.867188 c -0.152343,0 -0.410156,0 -0.410156,0.3046875 0,0.2929688 0.257813,0.2929688 0.398438,0.2929688 h 0.878906 v 2.4375 c 0,0.9492187 0.679687,1.31249995 1.40625,1.31249995 0.738281,0 1.546875,-0.421875 1.546875,-1.31249995 0,-0.1757813 0,-0.3867188 -0.351563,-0.3867188 -0.328125,0 -0.339843,0.2109375 -0.339843,0.375 -0.01172,0.62109375 -0.574219,0.71484375 -0.808594,0.71484375 -0.761719,0 -0.761719,-0.51562495 -0.761719,-0.76171875 z m 5.229492,1.8398437 c 0,-0.9375 0.585938,-1.8984375 1.792969,-1.8984375 0.01172,0.2460938 0.175781,0.4453125 0.421875,0.4453125 0.222656,0 0.421875,-0.1640625 0.421875,-0.4335937 0,-0.1992188 -0.117187,-0.609375 -0.949219,-0.609375 -0.503906,0 -1.148437,0.1757812 -1.6875,0.796875 V -3.890875 c 0,-0.3046875 -0.05859,-0.3984375 -0.398437,-0.3984375 h -1.101563 c -0.152343,0 -0.398437,0 -0.398437,0.2929688 0,0.3046875 0.246094,0.3046875 0.398437,0.3046875 h 0.808594 v 3.0820312 h -0.808594 c -0.152343,0 -0.398437,0 -0.398437,0.3046875 0,0.3046875 0.246094,0.3046875 0.398437,0.3046875 h 2.601563 c 0.152344,0 0.410156,0 0.410156,-0.3046875 0,-0.3046875 -0.257812,-0.3046875 -0.410156,-0.3046875 h -1.101563 z m 6.09668,-2.0390625 c 0,-0.3046875 -0.05859,-0.3984375 -0.398438,-0.3984375 h -1.417968 c -0.152344,0 -0.410157,0 -0.410157,0.2929688 0,0.3046875 0.257813,0.3046875 0.410157,0.3046875 h 1.125 v 3.0820312 h -1.207032 c -0.152343,0 -0.410156,0 -0.410156,0.3046875 0,0.3046875 0.257813,0.3046875 0.410156,0.3046875 h 2.941407 c 0.152343,0 0.410156,0 0.410156,-0.3046875 0,-0.3046875 -0.257813,-0.3046875 -0.410156,-0.3046875 h -1.042969 z m 0,-1.7109375 c 0,-0.28125 -0.222656,-0.4921875 -0.503906,-0.4921875 -0.28125,0 -0.492188,0.2109375 -0.492188,0.4921875 0,0.28125 0.210938,0.5039063 0.492188,0.5039063 0.28125,0 0.503906,-0.2226563 0.503906,-0.5039063 z m 5.115234,3.0585938 c -0.222656,-0.035156 -0.421875,-0.070312 -0.667968,-0.1171875 -0.292969,-0.035156 -0.972657,-0.1640625 -0.972657,-0.5507813 0,-0.2578125 0.316407,-0.5625 1.265625,-0.5625 0.832032,0 0.960938,0.2929688 0.996094,0.5507813 0.01172,0.1757812 0.03516,0.3398437 0.339844,0.3398437 0.351562,0 0.351562,-0.2109375 0.351562,-0.4101562 v -0.6796875 c 0,-0.1640625 0,-0.4101563 -0.304687,-0.4101563 -0.234375,0 -0.28125,0.140625 -0.292969,0.2109375 -0.445312,-0.2109375 -0.878906,-0.2109375 -1.066406,-0.2109375 -1.664063,0 -1.898438,0.8203125 -1.898438,1.171875 0,0.9140625 1.042969,1.0898438 1.96875,1.2304688 0.480469,0.082031 1.277344,0.2109375 1.277344,0.7382812 0,0.36328125 -0.363281,0.69140625 -1.265625,0.69140625 -0.46875,0 -1.03125,-0.10546875 -1.277344,-0.87890625 -0.05859,-0.1875 -0.09375,-0.2929687 -0.351562,-0.2929687 -0.351563,0 -0.351563,0.2109375 -0.351563,0.4101562 v 0.9609375 c 0,0.1640625 0,0.41015625 0.304688,0.41015625 0.08203,0 0.246094,-0.01171875 0.363281,-0.375 0.492188,0.3515625 1.019531,0.375 1.300781,0.375 1.570313,0 1.886719,-0.8203125 1.886719,-1.30078125 0,-1.0429687 -1.277344,-1.2539062 -1.605469,-1.3007812 z m 0,0"
         style="fill:#000000;fill-opacity:1;fill-rule:nonzero;stroke:none" />
      <path
         id="path39"
         d="M 7.6108594,6.0612734 H 10.235859 V 5.4167422 H 6.8960156 v 3.6796875 h 0.65625 C 7.7163281,8.6979922 8.0913281,8.3112734 8.6655469,8.3112734 c 0.46875,0 1.0078125,0.4101563 1.0078125,1.6054688 0,1.6523438 -1.21875,1.6523438 -1.3007813,1.6523438 -0.6679687,0 -1.2773437,-0.386719 -1.5703125,-0.925781 l -0.328125,0.550781 c 0.4101563,0.574219 1.1015625,0.984375 1.9101563,0.984375 1.1835937,0 2.1796871,-0.984375 2.1796871,-2.2500001 0,-1.2421875 -0.8554684,-2.2265625 -1.8867184,-2.2265625 -0.3984375,0 -0.7734375,0.1523438 -1.0664062,0.4101563 z m 0,0"
         style="fill:#000000;fill-opacity:1;fill-rule:nonzero;stroke:none" />
    </g>
    <path
       id="path40"
       d="m 371.70279,-12.45346 h 63.5674 v 24.90694 h -63.5674 z"
       style="fill:#cceffc;fill-opacity:1;fill-rule:nonzero;stroke:#00adef;stroke-width:0.3985;stroke-linecap:butt;stroke-linejoin:miter;stroke-miterlimit:10;stroke-dasharray:none;stroke-opacity:1"
       transform="matrix(1.3333333,0,0,-1.3333333,41.28,88.470667)" />
    <path
       id="path41"
       d="M 1.8276406,-6.9145391 H 0.93701562 V -4.765625e-4 H 4.9682656 V -0.65672656 c -0.8789062,0.0117188 -1.7695312,0.0234375 -2.6601562,0.0234375 H 1.8276406 Z M 9.521,-2.1801641 c 0,-0.3398437 -0.011719,-1.0898437 -0.3984375,-1.6875 -0.4101563,-0.6210937 -1.0195313,-0.7265625 -1.3710938,-0.7265625 -1.1132812,0 -2.0039062,1.0546875 -2.0039062,2.34375 0,1.31250004 0.9492187,2.35546879 2.1445312,2.35546879 0.6328125,0 1.1953125,-0.234375 1.59375,-0.515625 L 9.4155312,-1.0551641 c -0.6210937,0.51562504 -1.2773437,0.55078129 -1.5117187,0.55078129 -0.796875,0 -1.4296875,-0.70312499 -1.4648438,-1.67578129 z M 6.4975625,-2.7309453 c 0.1523437,-0.7617188 0.6796875,-1.2539063 1.2539062,-1.2539063 0.515625,0 1.0664063,0.3398438 1.1953125,1.2539063 z m 7.7666015,-1.6875 h -0.75 l -0.785156,2.0625 c -0.210938,0.5507812 -0.515625,1.35937499 -0.597656,1.82812499 h -0.01172 C 12.061039,-0.89110156 11.803227,-1.5707891 11.709477,-1.8403203 L 10.73682,-4.4184453 H 9.9633828 L 11.67432,-4.765625e-4 h 0.878907 z m 4.277344,2.2382812 c 0,-0.3398437 -0.01172,-1.0898437 -0.398438,-1.6875 -0.410156,-0.6210937 -1.019531,-0.7265625 -1.371093,-0.7265625 -1.113282,0 -2.003907,1.0546875 -2.003907,2.34375 0,1.31250004 0.949219,2.35546879 2.144532,2.35546879 0.632812,0 1.195312,-0.234375 1.59375,-0.515625 l -0.07031,-0.64453129 c -0.621094,0.51562504 -1.277344,0.55078129 -1.511719,0.55078129 -0.796875,0 -1.429687,-0.70312499 -1.464843,-1.67578129 z M 15.51807,-2.7309453 c 0.152344,-0.7617188 0.679688,-1.2539063 1.253907,-1.2539063 0.515625,0 1.066406,0.3398438 1.195312,1.2539063 z m 4.886719,-4.1835938 h -0.75 v 6.9140625375 h 0.75 z m 5.964844,0 h -0.890625 v 6.9140625375 h 0.890625 z m 3.046875,0 h -0.890625 v 6.9140625375 h 0.890625 z m 9.366211,3.6328125 v -0.609375 h -3.28125 v -2.3554687 h 1.371093 c 0.117188,0 0.234375,0.011719 0.351563,0.011719 h 1.828125 v -0.6445312 h -4.441406 v 6.8789062375 h 4.582031 V -0.70360156 h -1.253906 c -0.117188,0 -0.246094,0 -0.363282,0 H 35.501469 V -3.2817266 Z m 3.430664,0.9960938 1.828125,-2.1328125 h -0.820313 l -1.335937,1.640625 -1.371094,-1.640625 h -0.832031 l 1.875,2.1328125 -1.933594,2.2851562375 h 0.820313 L 41.885258,-1.8754766 43.373539,-4.765625e-4 h 0.832031 z m 5.988281,-0.5976563 c 0,-1.0078125 -0.726562,-1.7109375 -1.640625,-1.7109375 -0.644531,0 -1.101562,0.1640625 -1.570312,0.4335938 l 0.07031,0.65625 c 0.515625,-0.375 1.007813,-0.5039063 1.5,-0.5039063 0.46875,0 0.867188,0.3984375 0.867188,1.1367188 v 0.4335937 c -1.5,0.011719 -2.765625,0.4335938 -2.765625,1.3125 0,0.42187504 0.269531,1.23046879 1.136718,1.23046879 0.140625,0 1.078125,-0.01171875 1.652344,-0.46875 v 0.3632812475 h 0.75 z m -0.773437,1.5703125 c 0,0.1875 0,0.43359379 -0.339844,0.62109379 -0.292969,0.1875 -0.667969,0.1875 -0.773438,0.1875 -0.480468,0 -0.925781,-0.22265625 -0.925781,-0.64453129 0,-0.6914062 1.605469,-0.7617187 2.039063,-0.7851562 z m 8.680664,-1.6523437 c 0,-0.6679688 -0.164063,-1.5703125 -1.359375,-1.5703125 -0.597657,0 -1.125,0.28125 -1.488282,0.8203125 -0.257812,-0.7617188 -0.960937,-0.8203125 -1.277343,-0.8203125 -0.714844,0 -1.183594,0.4101562 -1.453125,0.7734375 v -0.7265625 h -0.714844 v 4.4882812375 h 0.773437 V -2.4379766 c 0,-0.6796875 0.269532,-1.4882812 1.007813,-1.4882812 0.925781,0 0.972656,0.6445312 0.972656,1.03125 v 2.8945312375 h 0.785156 V -2.4379766 c 0,-0.6796875 0.269532,-1.4882812 0.996094,-1.4882812 0.9375,0 0.984375,0.6445312 0.984375,1.03125 v 2.8945312375 h 0.773438 z m 0,0"
       style="fill:#000000;fill-opacity:1;fill-rule:nonzero;stroke:none"
       aria-label="LevelIIExam"
       transform="matrix(1.3333333,0,0,1.3333333,541.30533,93.082667)" />
    <path
       id="path42"
       d="M 30.46071,5.36882 C 48.52043,8.55536 57.82263,17.2826 75.51947,17.89832"
       style="fill:none;stroke:#000000;stroke-width:0.3985;stroke-linecap:butt;stroke-linejoin:miter;stroke-miterlimit:10;stroke-dasharray:none;stroke-opacity:1"
       transform="matrix(1.3333333,0,0,-1.3333333,41.28,88.470667)" />
    <path
       id="path43"
       d="M 1.99252,0 -1.19551,1.59401 0,0 -1.19551,-1.59401"
       style="fill:#000000;fill-opacity:1;fill-rule:nonzero;stroke:none"
       transform="matrix(1.3327467,-0.03722667,-0.03722667,-1.3327467,141.96977,64.634547)" />
    <path
       id="path44"
       d="m 30.46071,-5.3674 c 13.7129,-2.42143 19.92552,-11.64685 33.13133,-12.50168"
       style="fill:none;stroke:#000000;stroke-width:0.3985;stroke-linecap:butt;stroke-linejoin:miter;stroke-miterlimit:10;stroke-dasharray:none;stroke-opacity:1"
       transform="matrix(1.3333333,0,0,-1.3333333,41.28,88.470667)" />
    <path
       id="path45"
       d="M 1.99252,0 -1.19551,1.59401 0,0 -1.19551,-1.59401"
       style="fill:#000000;fill-opacity:1;fill-rule:nonzero;stroke:none"
       transform="matrix(1.3315067,0.06936,0.06936,-1.3315067,126.06831,112.24279)" />
    <path
       id="path46"
       d="m 149.61192,-17.93272 114.19764,7e-5"
       style="fill:none;stroke:#000000;stroke-width:0.3985;stroke-linecap:butt;stroke-linejoin:miter;stroke-miterlimit:10;stroke-dasharray:none;stroke-opacity:1"
       transform="matrix(1.3333333,0,0,-1.3333333,41.28,88.470667)" />
    <path
       id="path47"
       d="M 1.99252,0 -1.19551,1.59401 0,0 -1.19551,-1.59401"
       style="fill:#000000;fill-opacity:1;fill-rule:nonzero;stroke:none"
       transform="matrix(1.3333333,0,0,-1.3333333,393.02608,112.38087)" />
    <path
       id="path48"
       d="m 137.68396,17.93272 45.429,-7e-5"
       style="fill:none;stroke:#000000;stroke-width:0.3985;stroke-linecap:butt;stroke-linejoin:miter;stroke-miterlimit:10;stroke-dasharray:none;stroke-opacity:1"
       transform="matrix(1.3333333,0,0,-1.3333333,41.28,88.470667)" />
    <path
       id="path49"
       d="M 1.99252,0 -1.19551,1.59401 0,0 -1.19551,-1.59401"
       style="fill:#000000;fill-opacity:1;fill-rule:nonzero;stroke:none"
       transform="matrix(1.3333333,0,0,-1.3333333,285.43061,64.560467)" />
    <path
       id="path50"
       d="m 245.28047,17.93265 h 18.5302"
       style="fill:none;stroke:#000000;stroke-width:0.3985;stroke-linecap:butt;stroke-linejoin:miter;stroke-miterlimit:10;stroke-dasharray:none;stroke-opacity:1"
       transform="matrix(1.3333333,0,0,-1.3333333,41.28,88.470667)" />
    <path
       id="path51"
       d="M 1.99252,0 -1.19551,1.59401 0,0 -1.19551,-1.59401"
       style="fill:#000000;fill-opacity:1;fill-rule:nonzero;stroke:none"
       transform="matrix(1.3333333,0,0,-1.3333333,393.02756,64.560467)" />
    <path
       id="path52"
       d="m 325.97818,17.93265 c 17.72435,-2e-5 26.73444,-8.44518 43.57155,-11.92099"
       style="fill:none;stroke:#000000;stroke-width:0.3985;stroke-linecap:butt;stroke-linejoin:miter;stroke-miterlimit:10;stroke-dasharray:none;stroke-opacity:1"
       transform="matrix(1.3333333,0,0,-1.3333333,41.28,88.470667)" />
    <path
       id="path53"
       d="M 1.99252,0 -1.19551,1.59401 0,0 -1.19551,-1.59401"
       style="fill:#000000;fill-opacity:1;fill-rule:nonzero;stroke:none"
       transform="matrix(1.3072533,0.26202667,0.26202667,-1.3072533,534.01147,80.431173)" />
    <path
       id="path54"
       d="m 325.97707,-17.93265 c 17.72474,2e-5 26.73513,8.4451 43.57261,11.92099"
       style="fill:none;stroke:#000000;stroke-width:0.3985;stroke-linecap:butt;stroke-linejoin:miter;stroke-miterlimit:10;stroke-dasharray:none;stroke-opacity:1"
       transform="matrix(1.3333333,0,0,-1.3333333,41.28,88.470667)" />
    <path
       id="path55"
       d="M 1.99252,0 -1.19551,1.59401 0,0 -1.19551,-1.59401"
       style="fill:#000000;fill-opacity:1;fill-rule:nonzero;stroke:none"
       transform="matrix(1.3072533,-0.26202667,-0.26202667,-1.3072533,534.01147,96.51016)" />
    <path
       id="path56"
       d="m 215.19298,30.58531 -6.9e-4,7.97013"
       style="fill:none;stroke:#000000;stroke-width:0.3985;stroke-linecap:butt;stroke-linejoin:miter;stroke-miterlimit:10;stroke-dasharray:none;stroke-opacity:1"
       transform="matrix(1.3333333,0,0,-1.3333333,41.28,88.470667)" />
    <path
       id="path57"
       d="M 1.99252,0 -1.19551,1.59401 0,0 -1.19551,-1.59401"
       style="fill:#000000;fill-opacity:1;fill-rule:nonzero;stroke:none"
       transform="matrix(-1.0666667e-4,-1.3333067,-1.3333067,1.0666667e-4,328.20307,37.063413)" />
    <path
       id="path58"
       d="m 245.28047,25.99074 c 12.15457,3.26112 7.77413,24.7068 18.52968,27.00953"
       style="fill:none;stroke:#000000;stroke-width:0.3985;stroke-linecap:butt;stroke-linejoin:miter;stroke-miterlimit:10;stroke-dasharray:none;stroke-opacity:1"
       transform="matrix(1.3333333,0,0,-1.3333333,41.28,88.470667)" />
    <path
       id="path59"
       d="M 1.99252,0 -1.19551,1.59401 0,0 -1.19551,-1.59401"
       style="fill:#000000;fill-opacity:1;fill-rule:nonzero;stroke:none"
       transform="matrix(1.3141067,-0.22524,-0.22524,-1.3141067,393.06439,17.98532)" />
  </g>
</svg>
