<?xml version="1.0" encoding="UTF-8" standalone="no"?>
<!-- Created with Inkscape (http://www.inkscape.org/) -->

<svg
   version="1.1"
   id="svg1"
   width="622.56531"
   height="130.41733"
   viewBox="0 0 622.56531 130.41733"
   xmlns="http://www.w3.org/2000/svg"
   xmlns:svg="http://www.w3.org/2000/svg">
  <defs
     id="defs1" />
  <g
     id="g1">
    <path
       id="path1"
       d="M -30.2616,-6.77985 H 30.26161 V 6.77986 H -30.2616 Z"
       style="fill:#fbcce8;fill-opacity:1;fill-rule:nonzero;stroke:#ec008c;stroke-width:0.3985;stroke-linecap:butt;stroke-linejoin:miter;stroke-miterlimit:10;stroke-dasharray:none;stroke-opacity:1"
       transform="matrix(1.3333333,0,0,-1.3333333,41.28,89.118667)" />
    <path
       id="path2"
       d="M 1.8276563,-6.9142109 H 0.93703125 V -1.484375e-4 H 4.9682813 V -0.65639844 C 4.089375,-0.64467969 3.19875,-0.63296094 2.308125,-0.63296094 H 1.8276563 Z m 7.6933593,4.734375 c 0,-0.3398438 -0.011719,-1.0898438 -0.3984375,-1.6875 -0.4101562,-0.6210938 -1.0195312,-0.7265625 -1.3710937,-0.7265625 -1.1132813,0 -2.0039063,1.0546875 -2.0039063,2.34375 0,1.31249996 0.9492188,2.35546871 2.1445313,2.35546871 0.6328125,0 1.1953125,-0.234375 1.59375,-0.515625 L 9.4155469,-1.0548359 c -0.6210938,0.51562496 -1.2773438,0.55078121 -1.5117188,0.55078121 -0.796875,0 -1.4296875,-0.70312501 -1.4648437,-1.67578121 z M 6.4975781,-2.7306172 c 0.1523438,-0.7617187 0.6796875,-1.2539062 1.2539063,-1.2539062 0.515625,0 1.0664062,0.3398437 1.1953125,1.2539062 z m 7.7666019,-1.6875 h -0.75 l -0.785157,2.0625 c -0.210937,0.5507813 -0.515625,1.35937501 -0.597656,1.82812501 h -0.01172 C 12.061055,-0.89077344 11.803242,-1.5704609 11.709492,-1.8399922 l -0.972656,-2.578125 H 9.9633984 l 1.7109376,4.4179687625 h 0.878906 z m 4.277343,2.2382813 c 0,-0.3398438 -0.01172,-1.0898438 -0.398437,-1.6875 -0.410156,-0.6210938 -1.019531,-0.7265625 -1.371094,-0.7265625 -1.113281,0 -2.003906,1.0546875 -2.003906,2.34375 0,1.31249996 0.949219,2.35546871 2.144531,2.35546871 0.632813,0 1.195313,-0.234375 1.59375,-0.515625 l -0.07031,-0.64453121 c -0.621094,0.51562496 -1.277344,0.55078121 -1.511719,0.55078121 -0.796875,0 -1.429688,-0.70312501 -1.464844,-1.67578121 z m -3.023437,-0.5507813 c 0.152344,-0.7617187 0.679687,-1.2539062 1.253906,-1.2539062 0.515625,0 1.066406,0.3398437 1.195313,1.2539062 z m 4.886719,-4.1835937 h -0.75 v 6.9140624625 h 0.75 z m 5.964843,0 h -0.890625 v 6.9140624625 h 0.890625 z m 9.37793,3.6328125 v -0.609375 h -3.28125 v -2.3554688 h 1.371094 c 0.117187,0 0.234375,0.011719 0.351562,0.011719 h 1.828125 v -0.6445313 h -4.441406 v 6.8789062625 h 4.582031 V -0.70327344 h -1.253906 c -0.117187,0 -0.246094,0 -0.363281,0 H 32.466328 V -3.2813984 Z m 3.430664,0.9960937 1.828125,-2.1328125 h -0.820312 l -1.335938,1.640625 -1.371094,-1.640625 h -0.832031 l 1.875,2.1328125 -1.933594,2.2851562625 h 0.820313 L 38.850117,-1.8751484 40.338398,-1.484375e-4 h 0.832032 z m 5.976563,-0.5976562 c 0,-1.0078125 -0.726563,-1.7109375 -1.640625,-1.7109375 -0.644532,0 -1.101563,0.1640625 -1.570313,0.4335937 l 0.07031,0.65625 c 0.515625,-0.375 1.007812,-0.5039062 1.5,-0.5039062 0.46875,0 0.867187,0.3984375 0.867187,1.1367187 v 0.4335938 c -1.5,0.011719 -2.765625,0.4335937 -2.765625,1.3125 0,0.42187496 0.269531,1.23046871 1.136719,1.23046871 0.140625,0 1.078125,-0.01171875 1.652344,-0.46875 v 0.3632812525 h 0.75 z m -0.773438,1.5703125 c 0,0.1875 0,0.43359371 -0.339844,0.62109371 -0.292968,0.1875 -0.667968,0.1875 -0.773437,0.1875 -0.480469,0 -0.925781,-0.22265625 -0.925781,-0.64453121 0,-0.6914063 1.605468,-0.7617188 2.039062,-0.7851563 z m 8.689453,-1.6523438 c 0,-0.6679687 -0.164062,-1.5703125 -1.359375,-1.5703125 -0.597656,0 -1.125,0.28125 -1.488281,0.8203125 -0.257812,-0.7617187 -0.960937,-0.8203125 -1.277344,-0.8203125 -0.714843,0 -1.183593,0.4101563 -1.453125,0.7734375 v -0.7265625 h -0.714843 v 4.4882812625 h 0.773437 V -2.4376484 c 0,-0.6796875 0.269531,-1.4882813 1.007813,-1.4882813 0.925781,0 0.972656,0.6445313 0.972656,1.03125 v 2.8945312625 h 0.785156 V -2.4376484 c 0,-0.6796875 0.269531,-1.4882813 0.996094,-1.4882813 0.9375,0 0.984375,0.6445313 0.984375,1.03125 v 2.8945312625 h 0.773437 z m 0,0"
       style="fill:#000000;fill-opacity:1;fill-rule:nonzero;stroke:none"
       aria-label="LevelIExam"
       transform="matrix(1.3333333,0,0,1.3333333,5.36,93.730667)" />
    <path
       id="path3"
       d="M 120.89503,30.2752 H 94.29875 c -2.75119,0 -4.98138,-2.2302 -4.98138,-4.98138 V 10.57176 c 0,-2.75117 2.23019,-4.98138 4.98138,-4.98138 h 26.59628 c 2.75118,0 4.98139,2.23021 4.98139,4.98138 v 14.72206 c 0,2.75118 -2.23021,4.98138 -4.98139,4.98138 z"
       style="fill:#f9d4d4;fill-opacity:1;fill-rule:nonzero;stroke:#e12729;stroke-width:0.3985;stroke-linecap:butt;stroke-linejoin:miter;stroke-miterlimit:10;stroke-dasharray:none;stroke-opacity:1"
       transform="matrix(1.3333333,0,0,-1.3333333,41.28,89.118667)" />
    <path
       id="path4"
       d="m 2.2155,-1.8519062 c 0,-0.9375 0.5859375,-1.8984375 1.7929688,-1.8984375 0.011719,0.2460937 0.1757812,0.4453125 0.421875,0.4453125 0.2226562,0 0.421875,-0.1640625 0.421875,-0.4335938 0,-0.1992187 -0.1171875,-0.609375 -0.9492188,-0.609375 -0.5039062,0 -1.1484375,0.1757813 -1.6875,0.796875 v -0.3398437 c 0,-0.3046875 -0.058594,-0.3984375 -0.3984375,-0.3984375 H 0.7155 c -0.15234375,0 -0.3984375,0 -0.3984375,0.2929687 0,0.3046875 0.24609375,0.3046875 0.3984375,0.3046875 h 0.8085938 v 3.08203125 H 0.7155 c -0.15234375,0 -0.3984375,0 -0.3984375,0.3046875 0,0.3046875 0.24609375,0.3046875 0.3984375,0.3046875 h 2.6015625 c 0.1523438,0 0.4101563,0 0.4101563,-0.3046875 0,-0.3046875 -0.2578125,-0.3046875 -0.4101563,-0.3046875 H 2.2155 Z M 9.5192109,-3.69175 h 0.2929688 c 0.1523437,0 0.3984373,0 0.3984373,-0.2929687 0,-0.3046875 -0.2343748,-0.3046875 -0.3984373,-0.3046875 H 8.6520234 c -0.1523437,0 -0.3984375,0 -0.3984375,0.2929687 0,0.3046875 0.234375,0.3046875 0.3984375,0.3046875 H 8.9215547 L 7.8434297,-0.4808125 6.7535859,-3.69175 h 0.28125 c 0.1523438,0 0.3984375,0 0.3984375,-0.2929687 0,-0.3046875 -0.2460937,-0.3046875 -0.3984375,-0.3046875 h -1.171875 c -0.1523437,0 -0.3984375,0 -0.3984375,0.3046875 0,0.2929687 0.2578125,0.2929687 0.3984375,0.2929687 h 0.3046875 l 1.1484375,3.38671875 C 7.4332734,0.0348125 7.6324922,0.0348125 7.8434297,0.0348125 c 0.1875,0 0.4101562,0 0.5273437,-0.328125 z m 0,0"
       style="fill:#000000;fill-opacity:1;fill-rule:nonzero;stroke:none"
       aria-label="rv"
       transform="matrix(1.3333333,0,0,1.3333333,164.796,61.297333)" />
    <path
       id="path5"
       d="M 0,0 H 3.138"
       style="fill:none;stroke:#000000;stroke-width:0.398;stroke-linecap:butt;stroke-linejoin:miter;stroke-miterlimit:10;stroke-dasharray:none;stroke-opacity:1"
       transform="matrix(1.3333333,0,0,-1.3333333,179.58,61.032)" />
    <g
       id="g5"
       aria-label="sim&#10;15"
       transform="matrix(1.3333333,0,0,1.3333333,183.76533,61.297333)">
      <path
         id="path6"
         d="M 2.9650625,-2.5433125 C 2.7424062,-2.5784687 2.5431875,-2.613625 2.2970937,-2.6605 2.004125,-2.6956562 1.3244375,-2.8245625 1.3244375,-3.2112812 c 0,-0.2578125 0.3164062,-0.5625 1.265625,-0.5625 0.8320312,0 0.9609375,0.2929687 0.9960937,0.5507812 0.011719,0.1757813 0.035156,0.3398438 0.3398438,0.3398438 0.3515625,0 0.3515625,-0.2109375 0.3515625,-0.4101563 V -3.973 c 0,-0.1640625 0,-0.4101562 -0.3046875,-0.4101562 -0.234375,0 -0.28125,0.140625 -0.2929688,0.2109375 C 3.2345937,-4.3831562 2.801,-4.3831562 2.6135,-4.3831562 c -1.6640625,0 -1.8984375,0.8203125 -1.8984375,1.171875 0,0.9140625 1.0429687,1.0898437 1.96875,1.2304687 0.4804687,0.082031 1.2773437,0.2109375 1.2773437,0.7382813 0,0.3632812 -0.3632812,0.6914062 -1.265625,0.6914062 -0.46875,0 -1.03125,-0.10546875 -1.2773437,-0.8789062 C 1.3595937,-1.6175312 1.3244375,-1.723 1.066625,-1.723 c -0.3515625,0 -0.3515625,0.2109375 -0.3515625,0.4101563 v 0.96093745 c 0,0.1640625 0,0.41015625 0.3046875,0.41015625 0.082031,0 0.2460937,-0.01171875 0.3632812,-0.375 0.4921875,0.3515625 1.0195313,0.375 1.3007813,0.375 1.5703125,0 1.8867187,-0.8203125 1.8867187,-1.3007812 0,-1.0429688 -1.2773437,-1.2539063 -1.6054687,-1.3007813 z m 5.3466797,-1.3476562 c 0,-0.3046875 -0.058594,-0.3984375 -0.3984375,-0.3984375 H 6.4953359 c -0.1523437,0 -0.4101562,0 -0.4101562,0.2929687 0,0.3046875 0.2578125,0.3046875 0.4101562,0.3046875 h 1.125 v 3.08203125 H 6.4133047 c -0.1523438,0 -0.4101563,0 -0.4101563,0.3046875 0,0.3046875 0.2578125,0.3046875 0.4101563,0.3046875 h 2.9414062 c 0.1523438,0 0.4101563,0 0.4101563,-0.3046875 0,-0.3046875 -0.2578125,-0.3046875 -0.4101563,-0.3046875 H 8.3117422 Z m 0,-1.7109375 c 0,-0.28125 -0.2226563,-0.4921875 -0.5039063,-0.4921875 -0.28125,0 -0.4921875,0.2109375 -0.4921875,0.4921875 0,0.28125 0.2109375,0.5039062 0.4921875,0.5039062 0.28125,0 0.5039063,-0.2226562 0.5039063,-0.5039062 z m 3.2402348,1.6054687 c -0.02344,-0.2929687 -0.222657,-0.2929687 -0.398438,-0.2929687 h -0.328125 c -0.140625,0 -0.398437,0 -0.398437,0.2929687 0,0.3046875 0.199218,0.3046875 0.5625,0.3046875 v 3.08203125 c -0.363282,0 -0.5625,0 -0.5625,0.3046875 0,0.3046875 0.269531,0.3046875 0.398437,0.3046875 h 0.878906 c 0.152344,0 0.410157,0 0.410157,-0.3046875 0,-0.3046875 -0.210938,-0.3046875 -0.5625,-0.3046875 V -2.3909687 c 0,-0.890625 0.410156,-1.359375 0.808593,-1.359375 0.234375,0 0.375,0.1757812 0.375,0.8203125 v 2.32031245 c -0.1875,0 -0.445312,0 -0.445312,0.3046875 0,0.3046875 0.269531,0.3046875 0.410156,0.3046875 h 0.75 c 0.152344,0 0.410156,0 0.410156,-0.3046875 0,-0.3046875 -0.210937,-0.3046875 -0.574218,-0.3046875 V -2.3909687 c 0,-0.890625 0.410156,-1.359375 0.820312,-1.359375 0.234375,0 0.375,0.1757812 0.375,0.8203125 v 2.32031245 c -0.199219,0 -0.445312,0 -0.445312,0.3046875 0,0.3046875 0.269531,0.3046875 0.410156,0.3046875 h 0.75 c 0.152344,0 0.410156,0 0.410156,-0.3046875 0,-0.3046875 -0.210937,-0.3046875 -0.574219,-0.3046875 V -3.0237812 c 0,-0.1992188 0,-1.3242188 -0.878906,-1.3242188 -0.304687,0 -0.714844,0.1289063 -0.996094,0.515625 -0.140625,-0.3398437 -0.421875,-0.515625 -0.75,-0.515625 -0.316406,0 -0.621093,0.1289063 -0.855468,0.3515625 z m 0,0"
         style="fill:#000000;fill-opacity:1;fill-rule:nonzero;stroke:none" />
      <path
         id="path7"
         d="m -1.2712656,5.2057109 h -0.1992188 c -0.5859375,0.609375 -1.4179687,0.6328125 -1.8867187,0.65625 v 0.5742188 c 0.328125,-0.011719 0.8085937,-0.023437 1.3007812,-0.234375 v 5.1796873 h -1.2421875 v 0.574219 h 3.26953127 V 11.381492 H -1.2712656 Z m 3.5273437,0.8554688 h 2.625 V 5.4166484 H 1.5412344 v 3.6796875 h 0.65625 C 2.3615469,8.6978984 2.7365469,8.3111797 3.3107656,8.3111797 c 0.46875,0 1.0078125,0.4101562 1.0078125,1.6054687 0,1.6523436 -1.21875,1.6523436 -1.3007812,1.6523436 -0.6679688,0 -1.2773438,-0.386719 -1.5703125,-0.925781 l -0.328125,0.550781 c 0.4101562,0.574219 1.1015625,0.984375 1.9101562,0.984375 1.1835938,0 2.1796875,-0.984375 2.1796875,-2.2499998 0,-1.2421875 -0.8554687,-2.2265625 -1.8867187,-2.2265625 -0.3984375,0 -0.7734375,0.1523437 -1.0664063,0.4101562 z m 0,0"
         style="fill:#000000;fill-opacity:1;fill-rule:nonzero;stroke:none" />
    </g>
    <path
       id="path8"
       d="m 228.49194,30.27513 h -26.59628 c -2.75117,0 -4.98138,-2.23021 -4.98138,-4.98138 V 10.57169 c 0,-2.75118 2.23021,-4.98139 4.98138,-4.98139 h 26.59628 c 2.75118,0 4.98139,2.23021 4.98139,4.98139 v 14.72206 c 0,2.75117 -2.23021,4.98138 -4.98139,4.98138 z"
       style="fill:#f9d4d4;fill-opacity:1;fill-rule:nonzero;stroke:#e12729;stroke-width:0.3985;stroke-linecap:butt;stroke-linejoin:miter;stroke-miterlimit:10;stroke-dasharray:none;stroke-opacity:1"
       transform="matrix(1.3333333,0,0,-1.3333333,41.28,89.118667)" />
    <path
       id="path9"
       d="m 2.2152031,-1.8519062 c 0,-0.9375 0.5859375,-1.8984375 1.7929688,-1.8984375 0.011719,0.2460937 0.1757812,0.4453125 0.421875,0.4453125 0.2226562,0 0.421875,-0.1640625 0.421875,-0.4335938 0,-0.1992187 -0.1171875,-0.609375 -0.9492188,-0.609375 -0.5039062,0 -1.1484375,0.1757813 -1.6875,0.796875 v -0.3398437 c 0,-0.3046875 -0.058594,-0.3984375 -0.3984375,-0.3984375 H 0.71520313 c -0.15234375,0 -0.3984375,0 -0.3984375,0.2929687 0,0.3046875 0.24609375,0.3046875 0.3984375,0.3046875 H 1.5237969 v 3.08203125 H 0.71520313 c -0.15234375,0 -0.3984375,0 -0.3984375,0.3046875 0,0.3046875 0.24609375,0.3046875 0.3984375,0.3046875 H 3.3167656 c 0.1523438,0 0.4101563,0 0.4101563,-0.3046875 0,-0.3046875 -0.2578125,-0.3046875 -0.4101563,-0.3046875 H 2.2152031 Z M 9.5189141,-3.69175 h 0.2929687 c 0.1523438,0 0.3984372,0 0.3984372,-0.2929687 0,-0.3046875 -0.2343747,-0.3046875 -0.3984372,-0.3046875 H 8.6517266 c -0.1523438,0 -0.3984375,0 -0.3984375,0.2929687 0,0.3046875 0.234375,0.3046875 0.3984375,0.3046875 H 8.9212578 L 7.8431328,-0.4808125 6.7532891,-3.69175 h 0.28125 c 0.1523437,0 0.3984375,0 0.3984375,-0.2929687 0,-0.3046875 -0.2460938,-0.3046875 -0.3984375,-0.3046875 h -1.171875 c -0.1523438,0 -0.3984375,0 -0.3984375,0.3046875 0,0.2929687 0.2578125,0.2929687 0.3984375,0.2929687 h 0.3046875 l 1.1484375,3.38671875 C 7.4329766,0.0348125 7.6321953,0.0348125 7.8431328,0.0348125 c 0.1875,0 0.4101563,0 0.5273438,-0.328125 z m 0,0"
       style="fill:#000000;fill-opacity:1;fill-rule:nonzero;stroke:none"
       aria-label="rv"
       transform="matrix(1.3333333,0,0,1.3333333,308.25733,61.297333)" />
    <path
       id="path10"
       d="M 0,0 H 3.138"
       style="fill:none;stroke:#000000;stroke-width:0.398;stroke-linecap:butt;stroke-linejoin:miter;stroke-miterlimit:10;stroke-dasharray:none;stroke-opacity:1"
       transform="matrix(1.3333333,0,0,-1.3333333,323.04133,61.032)" />
    <g
       id="g10"
       aria-label="fsm&#10;25"
       transform="matrix(1.3333333,0,0,1.3333333,327.22533,61.297333)">
      <path
         id="path11"
         d="m 2.5204531,-3.69175 h 1.21875 c 0.1523438,0 0.3984375,0 0.3984375,-0.2929687 0,-0.3046875 -0.2460937,-0.3046875 -0.3984375,-0.3046875 h -1.21875 v -0.46875 c 0,-0.7851563 0.6679688,-0.7851563 0.9726563,-0.7851563 0,0.046875 0.082031,0.4335938 0.4335937,0.4335938 0.1992188,0 0.421875,-0.1640625 0.421875,-0.4335938 0,-0.5976562 -0.796875,-0.5976562 -0.9492187,-0.5976562 -0.796875,0 -1.5703125,0.4570312 -1.5703125,1.3242187 v 0.5273438 H 0.83295313 c -0.15234375,0 -0.3984375,0 -0.3984375,0.3046875 0,0.2929687 0.24609375,0.2929687 0.3984375,0.2929687 H 1.8290469 v 3.08203125 H 0.83295313 c -0.15234375,0 -0.41015625,0 -0.41015625,0.3046875 0,0.3046875 0.2578125,0.3046875 0.41015625,0.3046875 H 3.5282656 c 0.1523438,0 0.4101563,0 0.4101563,-0.3046875 0,-0.3046875 -0.2578125,-0.3046875 -0.4101563,-0.3046875 H 2.5204531 Z m 5.6748047,1.1484375 C 7.9726016,-2.5784687 7.7733828,-2.613625 7.5272891,-2.6605 7.2343203,-2.6956562 6.5546328,-2.8245625 6.5546328,-3.2112812 c 0,-0.2578125 0.3164063,-0.5625 1.265625,-0.5625 0.8320313,0 0.9609375,0.2929687 0.9960938,0.5507812 0.011719,0.1757813 0.035156,0.3398438 0.3398437,0.3398438 0.3515625,0 0.3515625,-0.2109375 0.3515625,-0.4101563 V -3.973 c 0,-0.1640625 0,-0.4101562 -0.3046875,-0.4101562 -0.234375,0 -0.28125,0.140625 -0.2929687,0.2109375 -0.4453125,-0.2109375 -0.8789063,-0.2109375 -1.0664063,-0.2109375 -1.6640625,0 -1.8984375,0.8203125 -1.8984375,1.171875 0,0.9140625 1.0429688,1.0898437 1.96875,1.2304687 0.4804688,0.082031 1.2773438,0.2109375 1.2773438,0.7382813 0,0.3632812 -0.3632813,0.6914062 -1.265625,0.6914062 -0.46875,0 -1.03125,-0.10546875 -1.2773438,-0.8789062 C 6.5897891,-1.6175312 6.5546328,-1.723 6.2968203,-1.723 c -0.3515625,0 -0.3515625,0.2109375 -0.3515625,0.4101563 v 0.96093745 c 0,0.1640625 0,0.41015625 0.3046875,0.41015625 0.082031,0 0.2460938,-0.01171875 0.3632813,-0.375 0.4921875,0.3515625 1.0195312,0.375 1.3007812,0.375 1.5703125,0 1.8867188,-0.8203125 1.8867188,-1.3007812 0,-1.0429688 -1.2773438,-1.2539063 -1.6054688,-1.3007813 z m 3.3544922,-1.453125 c -0.02344,-0.2929687 -0.222656,-0.2929687 -0.398437,-0.2929687 h -0.328125 c -0.140625,0 -0.398438,0 -0.398438,0.2929687 0,0.3046875 0.199219,0.3046875 0.5625,0.3046875 v 3.08203125 c -0.363281,0 -0.5625,0 -0.5625,0.3046875 0,0.3046875 0.269531,0.3046875 0.398438,0.3046875 h 0.878906 c 0.152344,0 0.410156,0 0.410156,-0.3046875 0,-0.3046875 -0.210937,-0.3046875 -0.5625,-0.3046875 V -2.3909687 c 0,-0.890625 0.410156,-1.359375 0.808594,-1.359375 0.234375,0 0.375,0.1757812 0.375,0.8203125 v 2.32031245 c -0.1875,0 -0.445313,0 -0.445313,0.3046875 0,0.3046875 0.269532,0.3046875 0.410157,0.3046875 h 0.75 c 0.152343,0 0.410156,0 0.410156,-0.3046875 0,-0.3046875 -0.210938,-0.3046875 -0.574219,-0.3046875 V -2.3909687 c 0,-0.890625 0.410156,-1.359375 0.820313,-1.359375 0.234375,0 0.375,0.1757812 0.375,0.8203125 v 2.32031245 c -0.199219,0 -0.445313,0 -0.445313,0.3046875 0,0.3046875 0.269531,0.3046875 0.410156,0.3046875 h 0.75 c 0.152344,0 0.410157,0 0.410157,-0.3046875 0,-0.3046875 -0.210938,-0.3046875 -0.574219,-0.3046875 V -3.0237812 c 0,-0.1992188 0,-1.3242188 -0.878906,-1.3242188 -0.304688,0 -0.714844,0.1289063 -0.996094,0.515625 -0.140625,-0.3398437 -0.421875,-0.515625 -0.75,-0.515625 -0.316406,0 -0.621094,0.1289063 -0.855469,0.3515625 z m 0,0"
         style="fill:#000000;fill-opacity:1;fill-rule:nonzero;stroke:none" />
      <path
         id="path12"
         d="m -2.5156797,10.080711 -1.2304687,1.242187 v 0.632813 H 0.22650781 V 11.252586 H -1.5898984 c -0.1171875,0 -0.234375,0 -0.3632813,0 h -1.078125 c 0.3164063,-0.269531 1.078125,-1.019531 1.3828125,-1.3125001 0.1875,-0.1757812 0.69140626,-0.5976562 0.89062501,-0.7734375 0.4453125,-0.4453125 0.984375,-0.9726562 0.984375,-1.828125 0,-1.1367187 -0.80859375,-2.1328125 -2.12109371,-2.1328125 -1.1367188,0 -1.6992188,0.7734375 -1.9335938,1.6289063 0.1171875,0.1757812 0.1640625,0.234375 0.1875,0.2578125 0.023437,0.023437 0.1171875,0.1523437 0.2226563,0.2929687 0.1992187,-0.7734375 0.46875,-1.546875 1.3828125,-1.546875 0.9375,0 1.44140621,0.75 1.44140621,1.5234375 0,0.84375 -0.56250001,1.4179688 -1.16015621,2.015625 z m 4.772461,-4.0195313 h 2.625 V 5.4166484 H 1.5419375 v 3.6796875 h 0.65625 C 2.36225,8.6978984 2.73725,8.3111797 3.3114688,8.3111797 c 0.46875,0 1.0078125,0.4101562 1.0078125,1.6054687 0,1.6523436 -1.21875,1.6523436 -1.3007813,1.6523436 -0.6679687,0 -1.2773437,-0.386719 -1.5703125,-0.925781 l -0.328125,0.550781 c 0.4101563,0.574219 1.1015625,0.984375 1.9101563,0.984375 1.1835937,0 2.1796875,-0.984375 2.1796875,-2.2499998 0,-1.2421875 -0.8554688,-2.2265625 -1.8867188,-2.2265625 -0.3984375,0 -0.7734375,0.1523437 -1.0664062,0.4101562 z m 0,0"
         style="fill:#000000;fill-opacity:1;fill-rule:nonzero;stroke:none" />
    </g>
    <path
       id="path13"
       d="M 144.43185,-5.59038 H 70.76192 c -2.75118,0 -4.98139,-2.23021 -4.98139,-4.98138 v -14.72206 c 0,-2.75118 2.23021,-4.98138 4.98139,-4.98138 h 73.66993 c 2.75119,0 4.98139,2.2302 4.98139,4.98138 v 14.72206 c 0,2.75117 -2.2302,4.98138 -4.98139,4.98138 z"
       style="fill:#f9d4d4;fill-opacity:1;fill-rule:nonzero;stroke:#e12729;stroke-width:0.3985;stroke-linecap:butt;stroke-linejoin:miter;stroke-miterlimit:10;stroke-dasharray:none;stroke-opacity:1"
       transform="matrix(1.3333333,0,0,-1.3333333,41.28,89.118667)" />
    <path
       id="path14"
       d="m 2.9643906,-2.5430781 c -0.2226562,-0.035156 -0.421875,-0.070312 -0.6679687,-0.1171875 -0.2929688,-0.035156 -0.9726563,-0.1640625 -0.9726563,-0.5507813 0,-0.2578125 0.3164063,-0.5625 1.265625,-0.5625 0.8320313,0 0.9609375,0.2929688 0.9960938,0.5507813 0.011719,0.1757812 0.035156,0.3398437 0.3398437,0.3398437 0.3515625,0 0.3515625,-0.2109375 0.3515625,-0.4101562 v -0.6796875 c 0,-0.1640625 0,-0.4101563 -0.3046875,-0.4101563 -0.234375,0 -0.28125,0.140625 -0.2929687,0.2109375 -0.4453125,-0.2109375 -0.8789063,-0.2109375 -1.0664063,-0.2109375 -1.66406247,0 -1.89843747,0.8203125 -1.89843747,1.171875 0,0.9140625 1.04296877,1.0898438 1.96874997,1.2304688 0.4804688,0.082031 1.2773438,0.2109375 1.2773438,0.7382812 0,0.36328128 -0.3632813,0.69140628 -1.265625,0.69140628 -0.46875,0 -1.03125,-0.10546875 -1.2773438,-0.87890628 -0.058594,-0.1875 -0.09375,-0.2929687 -0.3515625,-0.2929687 -0.35156247,0 -0.35156247,0.2109375 -0.35156247,0.4101562 v 0.96093753 c 0,0.1640625 0,0.41015625 0.30468747,0.41015625 0.082031,0 0.2460938,-0.01171875 0.3632813,-0.375 0.4921875,0.3515625 1.0195312,0.375 1.3007812,0.375 1.5703125,0 1.8867188,-0.8203125 1.8867188,-1.30078128 0,-1.0429687 -1.2773438,-1.2539062 -1.6054688,-1.3007812 z m 6.9169922,0.3867187 c 0,-1.2421875 -0.9257812,-2.2265625 -2.0390625,-2.2265625 -1.1132812,0 -2.0507812,0.984375 -2.0507812,2.2265625 0,1.26562503 0.9492187,2.21484378 2.0507812,2.21484378 1.0898438,0 2.0390625,-0.9609375 2.0390625,-2.21484378 z m -2.0390625,1.60546878 c -0.7382812,0 -1.359375,-0.74999998 -1.359375,-1.67578128 0,-0.9023437 0.6445313,-1.546875 1.359375,-1.546875 0.7148438,0 1.3476563,0.6445313 1.3476563,1.546875 0,0.9257813 -0.609375,1.67578128 -1.3476563,1.67578128 z M 12.676305,-1.8516719 c 0,-0.9375 0.585937,-1.8984375 1.792968,-1.8984375 0.01172,0.2460938 0.175782,0.4453125 0.421875,0.4453125 0.222657,0 0.421875,-0.1640625 0.421875,-0.4335937 0,-0.1992188 -0.117187,-0.609375 -0.949218,-0.609375 -0.503907,0 -1.148438,0.1757812 -1.6875,0.796875 v -0.3398438 c 0,-0.3046875 -0.05859,-0.3984375 -0.398438,-0.3984375 h -1.101562 c -0.152344,0 -0.398438,0 -0.398438,0.2929688 0,0.3046875 0.246094,0.3046875 0.398438,0.3046875 h 0.808593 v 3.08203123 h -0.808593 c -0.152344,0 -0.398438,0 -0.398438,0.3046875 0,0.304687495 0.246094,0.304687495 0.398438,0.304687495 h 2.601562 c 0.152344,0 0.410156,0 0.410156,-0.304687495 0,-0.3046875 -0.257812,-0.3046875 -0.410156,-0.3046875 h -1.101562 z m 5.229492,-1.8398437 h 1.628906 c 0.152344,0 0.398438,0 0.398438,-0.2929688 0,-0.3046875 -0.234375,-0.3046875 -0.398438,-0.3046875 h -1.628906 v -0.8203125 c 0,-0.1875 0,-0.4101562 -0.339844,-0.4101562 -0.351562,0 -0.351562,0.2109375 -0.351562,0.4101562 v 0.8203125 h -0.867188 c -0.152344,0 -0.410156,0 -0.410156,0.3046875 0,0.2929688 0.257812,0.2929688 0.398437,0.2929688 h 0.878907 v 2.4375 c 0,0.94921873 0.679687,1.31249998 1.40625,1.31249998 0.738281,0 1.546875,-0.421875 1.546875,-1.31249998 0,-0.1757813 0,-0.3867188 -0.351563,-0.3867188 -0.328125,0 -0.339844,0.2109375 -0.339844,0.375 -0.01172,0.62109378 -0.574218,0.71484378 -0.808593,0.71484378 -0.761719,0 -0.761719,-0.51562498 -0.761719,-0.76171878 z m 6.09668,-0.1992188 c 0,-0.3046875 -0.05859,-0.3984375 -0.398438,-0.3984375 H 22.18607 c -0.152343,0 -0.410156,0 -0.410156,0.2929688 0,0.3046875 0.257813,0.3046875 0.410156,0.3046875 h 1.125 v 3.08203123 h -1.207031 c -0.152344,0 -0.410156,0 -0.410156,0.3046875 0,0.304687495 0.257812,0.304687495 0.410156,0.304687495 h 2.941406 c 0.152344,0 0.410157,0 0.410157,-0.304687495 0,-0.3046875 -0.257813,-0.3046875 -0.410157,-0.3046875 h -1.042968 z m 0,-1.7109375 c 0,-0.28125 -0.222657,-0.4921875 -0.503907,-0.4921875 -0.28125,0 -0.492187,0.2109375 -0.492187,0.4921875 0,0.28125 0.210937,0.5039063 0.492187,0.5039063 0.28125,0 0.503907,-0.2226563 0.503907,-0.5039063 z m 3.802734,1.78125 c 0,-0.328125 0,-0.46875 -0.398438,-0.46875 h -0.726562 c -0.164063,0 -0.410156,0 -0.410156,0.3046875 0,0.2929688 0.257812,0.2929688 0.398437,0.2929688 h 0.445313 v 3.08203123 h -0.433594 c -0.164063,0 -0.410156,0 -0.410156,0.3046875 0,0.304687495 0.257812,0.304687495 0.398437,0.304687495 h 1.582031 c 0.140625,0 0.398438,0 0.398438,-0.304687495 0,-0.3046875 -0.246094,-0.3046875 -0.398438,-0.3046875 H 27.805211 V -2.3672969 c 0,-0.9960937 0.738281,-1.3828125 1.242187,-1.3828125 0.527344,0 0.667969,0.28125 0.667969,0.8789063 v 2.26171873 h -0.386719 c -0.152343,0 -0.410156,0 -0.410156,0.3046875 0,0.304687495 0.269531,0.304687495 0.410156,0.304687495 h 1.523438 c 0.140625,0 0.398437,0 0.398437,-0.304687495 0,-0.3046875 -0.246093,-0.3046875 -0.410156,-0.3046875 H 30.406773 V -2.9180781 c 0,-1.0078125 -0.503906,-1.4296875 -1.300781,-1.4296875 -0.65625,0 -1.113281,0.328125 -1.300781,0.5273437 z m 5.897461,2.0625 c -0.539063,0 -0.960938,-0.46875 -0.960938,-0.9960937 0,-0.5625 0.445313,-0.9960938 0.960938,-0.9960938 0.539062,0 0.960937,0.4570313 0.960937,0.9960938 0,0.5625 -0.445312,0.9960937 -0.960937,0.9960937 z m -0.890625,0.3515625 c 0.02344,0.023437 0.398437,0.2460938 0.890625,0.2460938 0.914062,0 1.640625,-0.7148438 1.640625,-1.59375 0,-0.3046875 -0.08203,-0.5976563 -0.257813,-0.8671875 0.210938,-0.1289063 0.445313,-0.1640625 0.585938,-0.1757813 0.05859,0.2695313 0.28125,0.3398438 0.386719,0.3398438 0.164062,0 0.398437,-0.1171875 0.398437,-0.4101563 0,-0.2226562 -0.1875,-0.5390625 -0.726562,-0.5390625 -0.117188,0 -0.597657,0.011719 -1.054688,0.3515625 -0.164062,-0.1054687 -0.515625,-0.2929687 -0.972656,-0.2929687 -0.9375,0 -1.640625,0.7382812 -1.640625,1.59375 0,0.421875 0.164062,0.75 0.316406,0.9375 -0.105469,0.1640625 -0.199219,0.3867187 -0.199219,0.6796875 0,0.35156248 0.140625,0.59765623 0.234375,0.71484373 -0.738281,0.45703125 -0.738281,1.125 -0.738281,1.2421875 0,0.85546877 1.042969,1.46484377 2.320313,1.46484377 1.277343,0 2.320312,-0.6210938 2.320312,-1.46484377 0,-0.375 -0.1875,-0.8671875 -0.691406,-1.13671875 -0.128906,-0.0703125 -0.550781,-0.29296875 -1.441406,-0.29296875 h -0.703125 c -0.07031,0 -0.199219,0 -0.28125,-0.0234375 -0.152344,0 -0.210938,0 -0.328125,-0.12890625 -0.117188,-0.140625 -0.128907,-0.33984378 -0.128907,-0.36328128 0,-0.035156 0.02344,-0.1757812 0.07031,-0.28125 z m 1.183594,3.09375 c -0.996094,0 -1.746094,-0.4335937 -1.746094,-0.86718747 0,-0.1875 0.09375,-0.50390625 0.410156,-0.703125 0.246094,-0.15234375 0.339844,-0.15234375 1.066406,-0.15234375 0.878907,0 2.003907,0 2.003907,0.85546875 0,0.43359377 -0.738282,0.86718747 -1.734375,0.86718747 z m 0,0"
       style="fill:#000000;fill-opacity:1;fill-rule:nonzero;stroke:none"
       aria-label="sorting"
       transform="matrix(1.3333333,0,0,1.3333333,133.41467,109.11733)" />
    <path
       id="path15"
       d="M 0,0 H 3.138"
       style="fill:none;stroke:#000000;stroke-width:0.398;stroke-linecap:butt;stroke-linejoin:miter;stroke-miterlimit:10;stroke-dasharray:none;stroke-opacity:1"
       transform="matrix(1.3333333,0,0,-1.3333333,183.068,108.852)" />
    <g
       id="g15"
       aria-label="network&#10;10"
       transform="matrix(1.3333333,0,0,1.3333333,187.252,109.11733)">
      <path
         id="path16"
         d="m 1.6537734,-3.8204219 c 0,-0.328125 0,-0.46875 -0.3984375,-0.46875 H 0.52877344 c -0.1640625,0 -0.41015625,0 -0.41015625,0.3046875 0,0.2929688 0.2578125,0.2929688 0.3984375,0.2929688 h 0.4453125 v 3.08203123 H 0.52877344 c -0.1640625,0 -0.41015625,0 -0.41015625,0.3046875 0,0.304687495 0.2578125,0.304687495 0.3984375,0.304687495 H 2.0990859 c 0.140625,0 0.3984375,0 0.3984375,-0.304687495 0,-0.3046875 -0.2460937,-0.3046875 -0.3984375,-0.3046875 H 1.6537734 V -2.3672969 c 0,-0.9960937 0.7382813,-1.3828125 1.2421875,-1.3828125 0.5273438,0 0.6679688,0.28125 0.6679688,0.8789063 v 2.26171873 H 3.1772109 c -0.1523437,0 -0.4101562,0 -0.4101562,0.3046875 0,0.304687495 0.2695312,0.304687495 0.4101562,0.304687495 h 1.5234375 c 0.140625,0 0.3984375,0 0.3984375,-0.304687495 0,-0.3046875 -0.2460937,-0.3046875 -0.4101562,-0.3046875 H 4.2553359 V -2.9180781 c 0,-1.0078125 -0.5039062,-1.4296875 -1.3007812,-1.4296875 -0.65625,0 -1.1132813,0.328125 -1.3007813,0.5273437 z m 7.7958985,1.921875 c 0.2109375,0 0.3984375,0 0.3984375,-0.375 0,-1.1367187 -0.6328125,-2.109375 -1.921875,-2.109375 -1.1953125,0 -2.1445313,0.9960938 -2.1445313,2.2265625 0,1.20703128 1.0078125,2.21484378 2.2851563,2.21484378 1.3125,0 1.78125,-0.890625 1.78125,-1.14843748 0,-0.2695313 -0.28125,-0.2695313 -0.3398438,-0.2695313 -0.1875,0 -0.2578125,0.023437 -0.328125,0.2109375 -0.2226562,0.51562503 -0.7617187,0.59765628 -1.0429687,0.59765628 -0.75,0 -1.4882813,-0.49218748 -1.6523438,-1.34765628 z m -2.953125,-0.5976562 c 0.140625,-0.7265625 0.7265625,-1.2773438 1.4296875,-1.2773438 0.515625,0 1.125,0.2460938 1.21875,1.2773438 z m 6.1787111,-1.1953125 h 1.628906 c 0.152344,0 0.398438,0 0.398438,-0.2929688 0,-0.3046875 -0.234375,-0.3046875 -0.398438,-0.3046875 h -1.628906 v -0.8203125 c 0,-0.1875 0,-0.4101562 -0.339844,-0.4101562 -0.351562,0 -0.351562,0.2109375 -0.351562,0.4101562 v 0.8203125 h -0.867188 c -0.152344,0 -0.410156,0 -0.410156,0.3046875 0,0.2929688 0.257812,0.2929688 0.398437,0.2929688 h 0.878907 v 2.4375 c 0,0.94921873 0.679687,1.31249998 1.40625,1.31249998 0.738281,0 1.546875,-0.421875 1.546875,-1.31249998 0,-0.1757813 0,-0.3867188 -0.351563,-0.3867188 -0.328125,0 -0.339844,0.2109375 -0.339844,0.375 -0.01172,0.62109378 -0.574218,0.71484378 -0.808593,0.71484378 -0.761719,0 -0.761719,-0.51562498 -0.761719,-0.76171878 z m 7.561523,0 c 0.304688,0 0.515625,0 0.515625,-0.3046875 0,-0.2929688 -0.246093,-0.2929688 -0.421875,-0.2929688 h -1.148437 c -0.175781,0 -0.410156,0 -0.410156,0.2929688 0,0.3046875 0.222656,0.3046875 0.410156,0.3046875 h 0.492187 l -0.492187,2.97656248 h -0.01172 c -0.04687,-0.2578125 -0.175781,-0.71484378 -0.292969,-1.12499998 -0.175781,-0.6328125 -0.210937,-0.7382813 -0.5625,-0.7382813 -0.09375,0 -0.28125,0 -0.398437,0.2226563 -0.02344,0.058594 -0.421875,1.44140623 -0.46875,1.64062498 L 16.920375,-3.6915156 h 0.492188 c 0.175781,0 0.421875,0 0.421875,-0.2929688 0,-0.3046875 -0.234375,-0.3046875 -0.421875,-0.3046875 h -1.148438 c -0.175781,0 -0.410156,0 -0.410156,0.2929688 0,0.3046875 0.199219,0.3046875 0.503906,0.3046875 l 0.597656,3.35156248 c 0.03516,0.234375 0.07031,0.375 0.46875,0.375 0.398438,0 0.421875,-0.08203125 0.609375,-0.69140625 0.246094,-0.87890623 0.257813,-1.01953123 0.28125,-1.24218753 h 0.01172 c 0.05859,0.5273438 0.421875,1.68750003 0.457031,1.76953128 0.128907,0.1640625 0.304688,0.1640625 0.421875,0.1640625 0.375,0 0.398438,-0.15234375 0.433594,-0.375 z m 5.337891,1.5351562 c 0,-1.2421875 -0.925781,-2.2265625 -2.039063,-2.2265625 -1.113281,0 -2.050781,0.984375 -2.050781,2.2265625 0,1.26562503 0.949219,2.21484378 2.050781,2.21484378 1.089844,0 2.039063,-0.9609375 2.039063,-2.21484378 z m -2.039063,1.60546878 c -0.738281,0 -1.359375,-0.74999998 -1.359375,-1.67578128 0,-0.9023437 0.644532,-1.546875 1.359375,-1.546875 0.714844,0 1.347657,0.6445313 1.347657,1.546875 0,0.9257813 -0.609375,1.67578128 -1.347657,1.67578128 z m 4.831055,-1.30078128 c 0,-0.9375 0.585938,-1.8984375 1.792969,-1.8984375 0.01172,0.2460938 0.175781,0.4453125 0.421875,0.4453125 0.222656,0 0.421875,-0.1640625 0.421875,-0.4335937 0,-0.1992188 -0.117188,-0.609375 -0.949219,-0.609375 -0.503906,0 -1.148437,0.1757812 -1.6875,0.796875 v -0.3398438 c 0,-0.3046875 -0.05859,-0.3984375 -0.398437,-0.3984375 h -1.101563 c -0.152344,0 -0.398437,0 -0.398437,0.2929688 0,0.3046875 0.246093,0.3046875 0.398437,0.3046875 h 0.808594 v 3.08203123 h -0.808594 c -0.152344,0 -0.398437,0 -0.398437,0.3046875 0,0.304687495 0.246093,0.304687495 0.398437,0.304687495 h 2.601563 c 0.152343,0 0.410156,0 0.410156,-0.304687495 0,-0.3046875 -0.257813,-0.3046875 -0.410156,-0.3046875 h -1.101563 z m 5.874024,-0.6914062 1.230468,-1.1484375 H 35.811 c 0.152344,0 0.410156,0 0.410156,-0.2929688 0,-0.3046875 -0.257812,-0.3046875 -0.410156,-0.3046875 h -1.535156 c -0.152344,0 -0.398438,0 -0.398438,0.3046875 0,0.2929688 0.257813,0.2929688 0.398438,0.2929688 h 0.375 l -1.617188,1.5234375 v -3.515625 c 0,-0.3046875 -0.05859,-0.3984375 -0.398437,-0.3984375 h -0.644531 c -0.152344,0 -0.398438,0 -0.398438,0.2929687 0,0.3046875 0.234375,0.3046875 0.398438,0.3046875 h 0.492187 v 4.87500003 h -0.492187 c -0.152344,0 -0.398438,0 -0.398438,0.3046875 0,0.304687495 0.234375,0.304687495 0.398438,0.304687495 h 1.535156 c 0.152344,0 0.398437,0 0.398437,-0.304687495 0,-0.3046875 -0.246093,-0.3046875 -0.398437,-0.3046875 H 33.033656 V -1.4180781 l 0.796875,-0.7382813 1.183594,1.54687503 c -0.351562,0 -0.550781,0 -0.550781,0.3046875 0,0.304687495 0.246094,0.304687495 0.398437,0.304687495 h 1.171875 c 0.152344,0 0.410157,0 0.410157,-0.304687495 0,-0.3046875 -0.257813,-0.3046875 -0.410157,-0.3046875 h -0.304687 z m 0,0"
         style="fill:#000000;fill-opacity:1;fill-rule:nonzero;stroke:none" />
      <path
         id="path17"
         d="m -3.8862656,5.2059453 h -0.1992188 c -0.5859375,0.609375 -1.4179687,0.6328125 -1.8867187,0.65625 v 0.5742188 c 0.328125,-0.011719 0.8085937,-0.023437 1.3007812,-0.234375 v 5.1796879 h -1.2421875 v 0.574218 h 3.2695313 v -0.574218 h -1.2421875 z m 6.5507812,3.5039063 c 0,-0.7851563 -0.035156,-1.7109375 -0.4570312,-2.5195313 -0.3984375,-0.75 -1.0898438,-0.984375 -1.59375002,-0.984375 -0.59765625,0 -1.2890625,0.2695313 -1.69921878,1.1484375 -0.328125,0.7265625 -0.375,1.5585938 -0.375,2.3554688 0,0.7851562 0.035156,1.5117184 0.3398438,2.2382814 0.39843748,0.960937 1.14843748,1.230469 1.72265623,1.230469 0.72656247,0 1.34765627,-0.410157 1.66406247,-1.101563 C 2.5707656,10.432508 2.6645156,9.7762578 2.6645156,8.7098516 Z M 0.61373438,11.569227 c -0.52734375,0 -0.9375,-0.375 -1.13671875,-1.101563 -0.15234375,-0.5624999 -0.1640625,-1.1015624 -0.1640625,-1.8749999 0,-0.6328125 0,-1.2304688 0.1640625,-1.78125 0.0703125,-0.1875 0.31640625,-0.9960938 1.125,-0.9960938 0.77343747,0 1.03124997,0.75 1.10156247,0.9257813 0.1875,0.5625 0.1875,1.2304687 0.1875,1.8515625 0,0.65625 0,1.2773437 -0.1757812,1.9101559 -0.2578125,0.902344 -0.78515627,1.066407 -1.10156252,1.066407 z m 0,0"
         style="fill:#000000;fill-opacity:1;fill-rule:nonzero;stroke:none" />
    </g>
    <path
       id="path18"
       d="m 313.6881,29.98851 h -35.59258 c -2.75119,0 -4.98138,-2.23021 -4.98138,-4.98138 V 10.8583 c 0,-2.75117 2.23019,-4.98138 4.98138,-4.98138 h 35.59258 c 2.75117,0 4.98138,2.23021 4.98138,4.98138 v 14.14883 c 0,2.75117 -2.23021,4.98138 -4.98138,4.98138 z"
       style="fill:#fef5d1;fill-opacity:1;fill-rule:nonzero;stroke:#f8cc1b;stroke-width:0.3985;stroke-linecap:butt;stroke-linejoin:miter;stroke-miterlimit:10;stroke-dasharray:none;stroke-opacity:1"
       transform="matrix(1.3333333,0,0,-1.3333333,41.28,89.118667)" />
    <path
       id="path19"
       d="m 2.2144453,-1.8520156 c 0,-0.9375 0.5859375,-1.8984375 1.7929688,-1.8984375 0.011719,0.2460937 0.1757812,0.4453125 0.421875,0.4453125 0.2226562,0 0.421875,-0.1640625 0.421875,-0.4335938 0,-0.1992187 -0.1171875,-0.609375 -0.9492188,-0.609375 -0.5039062,0 -1.1484375,0.1757813 -1.6875,0.796875 v -0.3398437 c 0,-0.3046875 -0.058594,-0.3984375 -0.3984375,-0.3984375 H 0.71444531 c -0.15234375,0 -0.3984375,0 -0.3984375,0.2929687 0,0.3046875 0.24609375,0.3046875 0.3984375,0.3046875 H 1.5230391 v 3.08203128 H 0.71444531 c -0.15234375,0 -0.3984375,0 -0.3984375,0.3046875 0,0.304687495 0.24609375,0.304687495 0.3984375,0.304687495 H 3.3160078 c 0.1523438,0 0.4101563,0 0.4101563,-0.304687495 0,-0.3046875 -0.2578125,-0.3046875 -0.4101563,-0.3046875 H 2.2144453 Z m 7.303711,-1.8398438 H 9.811125 c 0.1523438,0 0.398438,0 0.398438,-0.2929687 0,-0.3046875 -0.2343755,-0.3046875 -0.398438,-0.3046875 H 8.6509688 c -0.1523438,0 -0.3984375,0 -0.3984375,0.2929687 0,0.3046875 0.234375,0.3046875 0.3984375,0.3046875 H 8.9205 L 7.842375,-0.48092187 6.7525313,-3.6918594 h 0.28125 c 0.1523437,0 0.3984375,0 0.3984375,-0.2929687 0,-0.3046875 -0.2460938,-0.3046875 -0.3984375,-0.3046875 h -1.171875 c -0.1523438,0 -0.3984375,0 -0.3984375,0.3046875 0,0.2929687 0.2578125,0.2929687 0.3984375,0.2929687 h 0.3046875 l 1.1484375,3.38671878 c 0.1171875,0.33984375 0.3164062,0.33984375 0.5273437,0.33984375 0.1875,0 0.4101563,0 0.5273438,-0.328125 z m 0,0"
       style="fill:#000000;fill-opacity:1;fill-rule:nonzero;stroke:none"
       aria-label="rv"
       transform="matrix(1.3333333,0,0,1.3333333,409.856,60.914667)" />
    <path
       id="path20"
       d="M 0,0 H 3.138"
       style="fill:none;stroke:#000000;stroke-width:0.398;stroke-linecap:butt;stroke-linejoin:miter;stroke-miterlimit:10;stroke-dasharray:none;stroke-opacity:1"
       transform="matrix(1.3333333,0,0,-1.3333333,424.64,60.649333)" />
    <path
       id="path21"
       d="M 1.0900078,-3.9965469 C 1.0665703,-4.2895156 0.86735156,-4.2895156 0.69157031,-4.2895156 h -0.328125 c -0.140625,0 -0.3984375,0 -0.3984375,0.2929687 0,0.3046875 0.19921875,0.3046875 0.5625,0.3046875 v 3.08203128 c -0.36328125,0 -0.5625,0 -0.5625,0.3046875 0,0.304687495 0.26953125,0.304687495 0.3984375,0.304687495 H 1.2423516 c 0.1523437,0 0.4101562,0 0.4101562,-0.304687495 0,-0.3046875 -0.2109375,-0.3046875 -0.5625,-0.3046875 V -2.3910781 c 0,-0.890625 0.4101563,-1.359375 0.8085938,-1.359375 0.234375,0 0.375,0.1757812 0.375,0.8203125 v 2.32031248 c -0.1875,0 -0.4453125,0 -0.4453125,0.3046875 0,0.304687495 0.2695312,0.304687495 0.4101562,0.304687495 h 0.75 c 0.1523438,0 0.4101563,0 0.4101563,-0.304687495 0,-0.3046875 -0.2109375,-0.3046875 -0.5742188,-0.3046875 V -2.3910781 c 0,-0.890625 0.4101563,-1.359375 0.8203125,-1.359375 0.234375,0 0.375,0.1757812 0.375,0.8203125 v 2.32031248 c -0.1992187,0 -0.4453125,0 -0.4453125,0.3046875 0,0.304687495 0.2695313,0.304687495 0.4101563,0.304687495 h 0.75 c 0.1523437,0 0.4101562,0 0.4101562,-0.304687495 0,-0.3046875 -0.2109375,-0.3046875 -0.5742187,-0.3046875 V -3.0238906 c 0,-0.1992188 0,-1.3242188 -0.8789063,-1.3242188 -0.3046875,0 -0.7148437,0.1289063 -0.9960937,0.515625 -0.140625,-0.3398437 -0.421875,-0.515625 -0.75,-0.515625 -0.3164063,0 -0.6210938,0.1289063 -0.8554688,0.3515625 z m 0,0"
       style="fill:#000000;fill-opacity:1;fill-rule:nonzero;stroke:none"
       aria-label="m"
       transform="matrix(1.3333333,0,0,1.3333333,428.824,60.914667)" />
    <path
       id="path22"
       d="M 0,0 H 3.138"
       style="fill:none;stroke:#000000;stroke-width:0.398;stroke-linecap:butt;stroke-linejoin:miter;stroke-miterlimit:10;stroke-dasharray:none;stroke-opacity:1"
       transform="matrix(1.3333333,0,0,-1.3333333,436.63467,60.649333)" />
    <g
       id="g22"
       aria-label="ext&#10;10"
       transform="matrix(1.3333333,0,0,1.3333333,440.81867,60.914667)">
      <path
         id="path23"
         d="m 4.2199844,-1.8988906 c 0.2109375,0 0.3984375,0 0.3984375,-0.375 0,-1.1367188 -0.6328125,-2.109375 -1.921875,-2.109375 -1.1953125,0 -2.14453127,0.9960937 -2.14453127,2.2265625 0,1.20703123 1.00781247,2.21484373 2.28515627,2.21484373 1.3125,0 1.78125,-0.890625 1.78125,-1.14843753 0,-0.2695312 -0.28125,-0.2695312 -0.3398438,-0.2695312 -0.1875,0 -0.2578125,0.023437 -0.328125,0.2109375 -0.2226562,0.51562498 -0.7617187,0.59765623 -1.0429687,0.59765623 -0.75,0 -1.4882813,-0.49218753 -1.6523438,-1.34765623 z m -2.953125,-0.5976563 c 0.140625,-0.7265625 0.7265625,-1.2773437 1.4296875,-1.2773437 0.515625,0 1.125,0.2460937 1.21875,1.2773437 z m 6.8232422,0.28125 1.1367187,-1.4765625 h 0.3984375 c 0.140625,0 0.4101562,0 0.4101562,-0.2929687 0,-0.3046875 -0.2578124,-0.3046875 -0.4101562,-0.3046875 h -1.171875 c -0.140625,0 -0.3984375,0 -0.3984375,0.2929687 0,0.3046875 0.2226563,0.3046875 0.4921875,0.3046875 l -0.7382812,1.0078125 -0.75,-1.0078125 c 0.2578125,0 0.46875,0 0.46875,-0.3046875 0,-0.2929687 -0.2460938,-0.2929687 -0.3984375,-0.2929687 H 5.9690078 c -0.1523437,0 -0.4101562,0 -0.4101562,0.3046875 0,0.2929687 0.2695312,0.2929687 0.4101562,0.2929687 h 0.3984375 l 1.171875,1.4765625 -1.2304687,1.60546878 H 5.9104141 c -0.1523438,0 -0.4101563,0 -0.4101563,0.3046875 0,0.304687495 0.2695313,0.304687495 0.4101563,0.304687495 h 1.1601562 c 0.1523438,0 0.3984375,0 0.3984375,-0.304687495 0,-0.3046875 -0.2109375,-0.3046875 -0.515625,-0.3046875 l 0.8554688,-1.21874998 0.890625,1.21874998 c -0.28125,0 -0.5039063,0 -0.5039063,0.3046875 0,0.304687495 0.2578125,0.304687495 0.3984375,0.304687495 h 1.171875 c 0.140625,0 0.4101562,0 0.4101562,-0.304687495 0,-0.3046875 -0.2578124,-0.3046875 -0.4101562,-0.3046875 H 9.3674453 Z m 4.5849614,-1.4765625 h 1.628906 c 0.152344,0 0.398437,0 0.398437,-0.2929687 0,-0.3046875 -0.234375,-0.3046875 -0.398437,-0.3046875 h -1.628906 v -0.8203125 c 0,-0.1875 0,-0.4101563 -0.339844,-0.4101563 -0.351563,0 -0.351563,0.2109375 -0.351563,0.4101563 v 0.8203125 h -0.867187 c -0.152344,0 -0.410156,0 -0.410156,0.3046875 0,0.2929687 0.257812,0.2929687 0.398437,0.2929687 h 0.878906 v 2.4375 c 0,0.94921878 0.679688,1.31250003 1.40625,1.31250003 0.738282,0 1.546875,-0.421875 1.546875,-1.31250003 0,-0.1757812 0,-0.3867187 -0.351562,-0.3867187 -0.328125,0 -0.339844,0.2109375 -0.339844,0.375 -0.01172,0.62109373 -0.574219,0.71484373 -0.808594,0.71484373 -0.761718,0 -0.761718,-0.51562503 -0.761718,-0.76171873 z m 0,0"
         style="fill:#000000;fill-opacity:1;fill-rule:nonzero;stroke:none" />
      <path
         id="path24"
         d="m -5.77025,5.2056016 h -0.1992187 c -0.5859375,0.609375 -1.4179688,0.6328125 -1.8867188,0.65625 v 0.5742187 c 0.328125,-0.011719 0.8085938,-0.023437 1.3007813,-0.234375 v 5.1796877 h -1.2421875 v 0.574219 h 3.2695312 V 11.381383 H -5.77025 Z m 6.55078125,3.5039062 c 0,-0.7851562 -0.0351563,-1.7109375 -0.45703125,-2.5195312 -0.3984375,-0.75 -1.08984375,-0.984375 -1.59375,-0.984375 -0.5976562,0 -1.2890625,0.2695312 -1.6992187,1.1484375 -0.328125,0.7265625 -0.375,1.5585937 -0.375,2.3554687 0,0.7851563 0.035156,1.5117192 0.3398437,2.2382812 0.3984375,0.960938 1.1484375,1.230469 1.7226563,1.230469 0.72656245,0 1.3476562,-0.410156 1.66406245,-1.101563 0.3046875,-0.644531 0.3984375,-1.3007809 0.3984375,-2.3671872 z M -1.27025,11.568883 c -0.5273437,0 -0.9375,-0.375 -1.1367187,-1.101563 -0.1523438,-0.5624997 -0.1640625,-1.1015622 -0.1640625,-1.8749997 0,-0.6328125 0,-1.2304687 0.1640625,-1.78125 0.070312,-0.1875 0.3164062,-0.9960937 1.125,-0.9960937 0.77343745,0 1.03124995,0.75 1.10156245,0.9257812 0.1875,0.5625 0.1875,1.2304688 0.1875,1.8515625 0,0.65625 0,1.2773438 -0.17578125,1.9101567 C -0.4265,11.40482 -0.95384375,11.568883 -1.27025,11.568883 Z m 0,0"
         style="fill:#000000;fill-opacity:1;fill-rule:nonzero;stroke:none" />
    </g>
    <path
       id="path25"
       d="m 314.41925,-5.5903 h -37.05711 c -2.75118,0 -4.98139,-2.23021 -4.98139,-4.98139 v -14.72206 c 0,-2.75117 2.23021,-4.98138 4.98139,-4.98138 h 37.05711 c 2.75118,0 4.98138,2.23021 4.98138,4.98138 v 14.72206 c 0,2.75118 -2.2302,4.98139 -4.98138,4.98139 z"
       style="fill:#fef5d1;fill-opacity:1;fill-rule:nonzero;stroke:#f8cc1b;stroke-width:0.3985;stroke-linecap:butt;stroke-linejoin:miter;stroke-miterlimit:10;stroke-dasharray:none;stroke-opacity:1"
       transform="matrix(1.3333333,0,0,-1.3333333,41.28,89.118667)" />
    <path
       id="path26"
       d="m 4.2902422,-3.6915156 h 0.2929687 c 0.1523438,0 0.3984375,0 0.3984375,-0.2929688 0,-0.3046875 -0.234375,-0.3046875 -0.3984375,-0.3046875 H 3.4230547 c -0.1523438,0 -0.3984375,0 -0.3984375,0.2929688 0,0.3046875 0.234375,0.3046875 0.3984375,0.3046875 H 3.6925859 L 2.6144609,-0.48057812 1.5246172,-3.6915156 h 0.28125 c 0.1523437,0 0.3984375,0 0.3984375,-0.2929688 0,-0.3046875 -0.2460938,-0.3046875 -0.3984375,-0.3046875 H 0.63399219 c -0.15234375,0 -0.3984375,0 -0.3984375,0.3046875 0,0.2929688 0.2578125,0.2929688 0.3984375,0.2929688 h 0.3046875 l 1.14843751,3.38671873 c 0.1171875,0.33984375 0.3164062,0.33984375 0.5273437,0.33984375 0.1875,0 0.4101563,0 0.5273438,-0.328125 z m 2.5927734,-0.1289063 c 0,-0.328125 0,-0.46875 -0.3984375,-0.46875 H 5.7580156 c -0.1640625,0 -0.4101562,0 -0.4101562,0.3046875 0,0.2929688 0.2578125,0.2929688 0.3984375,0.2929688 h 0.4453125 v 3.08203123 H 5.7580156 c -0.1640625,0 -0.4101562,0 -0.4101562,0.3046875 0,0.304687495 0.2578125,0.304687495 0.3984375,0.304687495 h 1.5820312 c 0.140625,0 0.3984375,0 0.3984375,-0.304687495 0,-0.3046875 -0.2460937,-0.3046875 -0.3984375,-0.3046875 H 6.8830156 V -2.3672969 c 0,-0.9960937 0.7382813,-1.3828125 1.2421875,-1.3828125 0.5273438,0 0.6679688,0.28125 0.6679688,0.8789063 v 2.26171873 H 8.4064531 c -0.1523437,0 -0.4101562,0 -0.4101562,0.3046875 0,0.304687495 0.2695312,0.304687495 0.4101562,0.304687495 h 1.5234375 c 0.1406254,0 0.3984374,0 0.3984374,-0.304687495 0,-0.3046875 -0.246094,-0.3046875 -0.4101561,-0.3046875 H 9.4845781 V -2.9180781 c 0,-1.0078125 -0.5039062,-1.4296875 -1.3007812,-1.4296875 -0.65625,0 -1.1132813,0.328125 -1.3007813,0.5273437 z m 8.2294924,1.6640625 c 0,-1.2421875 -0.925781,-2.2265625 -2.039063,-2.2265625 -1.113281,0 -2.050781,0.984375 -2.050781,2.2265625 0,1.26562503 0.949219,2.21484378 2.050781,2.21484378 1.089844,0 2.039063,-0.9609375 2.039063,-2.21484378 z m -2.039063,1.60546878 c -0.738281,0 -1.359375,-0.74999998 -1.359375,-1.67578128 0,-0.9023437 0.644532,-1.546875 1.359375,-1.546875 0.714844,0 1.347657,0.6445313 1.347657,1.546875 0,0.9257813 -0.609375,1.67578128 -1.347657,1.67578128 z M 17.9045,-1.8516719 c 0,-0.9375 0.585938,-1.8984375 1.792969,-1.8984375 0.01172,0.2460938 0.175781,0.4453125 0.421875,0.4453125 0.222656,0 0.421875,-0.1640625 0.421875,-0.4335937 0,-0.1992188 -0.117188,-0.609375 -0.949219,-0.609375 -0.503906,0 -1.148437,0.1757812 -1.6875,0.796875 v -0.3398438 c 0,-0.3046875 -0.05859,-0.3984375 -0.398437,-0.3984375 H 16.4045 c -0.152344,0 -0.398437,0 -0.398437,0.2929688 0,0.3046875 0.246093,0.3046875 0.398437,0.3046875 h 0.808594 v 3.08203123 H 16.4045 c -0.152344,0 -0.398437,0 -0.398437,0.3046875 0,0.304687495 0.246093,0.304687495 0.398437,0.304687495 h 2.601563 c 0.152343,0 0.410156,0 0.410156,-0.304687495 0,-0.3046875 -0.257813,-0.3046875 -0.410156,-0.3046875 H 17.9045 Z m 4.107422,-2.1445312 c -0.02344,-0.2929688 -0.222656,-0.2929688 -0.398438,-0.2929688 h -0.328125 c -0.140625,0 -0.398437,0 -0.398437,0.2929688 0,0.3046875 0.199219,0.3046875 0.5625,0.3046875 v 3.08203123 c -0.363281,0 -0.5625,0 -0.5625,0.3046875 0,0.304687495 0.269531,0.304687495 0.398437,0.304687495 h 0.878907 c 0.152343,0 0.410156,0 0.410156,-0.304687495 0,-0.3046875 -0.210938,-0.3046875 -0.5625,-0.3046875 V -2.3907344 c 0,-0.890625 0.410156,-1.359375 0.808594,-1.359375 0.234375,0 0.375,0.1757813 0.375,0.8203125 v 2.32031253 c -0.1875,0 -0.445313,0 -0.445313,0.3046875 0,0.304687495 0.269531,0.304687495 0.410156,0.304687495 h 0.75 c 0.152344,0 0.410157,0 0.410157,-0.304687495 0,-0.3046875 -0.210938,-0.3046875 -0.574219,-0.3046875 V -2.3907344 c 0,-0.890625 0.410156,-1.359375 0.820312,-1.359375 0.234375,0 0.375,0.1757813 0.375,0.8203125 v 2.32031253 c -0.199218,0 -0.445312,0 -0.445312,0.3046875 0,0.304687495 0.269531,0.304687495 0.410156,0.304687495 h 0.75 c 0.152344,0 0.410156,0 0.410156,-0.304687495 0,-0.3046875 -0.210937,-0.3046875 -0.574218,-0.3046875 V -3.0235469 c 0,-0.1992187 0,-1.3242187 -0.878907,-1.3242187 -0.304687,0 -0.714843,0.1289062 -0.996093,0.515625 -0.140625,-0.3398438 -0.421875,-0.515625 -0.75,-0.515625 -0.316407,0 -0.621094,0.1289062 -0.855469,0.3515625 z m 0,0"
       style="fill:#000000;fill-opacity:1;fill-rule:nonzero;stroke:none"
       aria-label="vnorm"
       transform="matrix(1.3333333,0,0,1.3333333,408.87733,109.11733)" />
    <path
       id="path27"
       d="M 0,0 H 3.138"
       style="fill:none;stroke:#000000;stroke-width:0.398;stroke-linecap:butt;stroke-linejoin:miter;stroke-miterlimit:10;stroke-dasharray:none;stroke-opacity:1"
       transform="matrix(1.3333333,0,0,-1.3333333,444.584,108.852)" />
    <g
       id="g27"
       aria-label="pl&#10;10"
       transform="matrix(1.3333333,0,0,1.3333333,448.768,109.11733)">
      <path
         id="path28"
         d="m 1.6534922,-2.6251094 c 0,-0.5976562 0.5742187,-1.125 1.2070312,-1.125 0.7382813,0 1.3125,0.7265625 1.3125,1.59375 0,0.9609375 -0.6914062,1.60546878 -1.3945312,1.60546878 -0.7734375,0 -1.125,-0.87890628 -1.125,-1.34765628 z m 0,2.17968753 c 0.4101562,0.41015625 0.84375,0.50390625 1.1601562,0.50390625 1.078125,0 2.0507813,-0.94921875 2.0507813,-2.21484378 0,-1.21875 -0.890625,-2.1914062 -1.9453125,-2.1914062 -0.4804688,0 -0.9257813,0.1757812 -1.265625,0.4804687 0,-0.28125 -0.023437,-0.421875 -0.3984375,-0.421875 H 0.52849219 c -0.1640625,0 -0.41015625,0 -0.41015625,0.3046875 0,0.2929688 0.2578125,0.2929688 0.3984375,0.2929688 h 0.4453125 v 5.296875 H 0.52849219 c -0.1640625,0 -0.41015625,0 -0.41015625,0.3046875 0,0.3046875 0.2578125,0.3046875 0.3984375,0.3046875 H 2.0988047 c 0.140625,0 0.3984375,0 0.3984375,-0.3046875 0,-0.3046875 -0.2460938,-0.3046875 -0.3984375,-0.3046875 H 1.6534922 Z M 8.1837656,-5.6837031 c 0,-0.3046875 -0.058594,-0.3984375 -0.3984375,-0.3984375 H 6.2150156 c -0.1523437,0 -0.4101562,0 -0.4101562,0.3046875 0,0.2929687 0.2578125,0.2929687 0.3984375,0.2929687 h 1.3007812 v 4.87500003 H 6.2150156 c -0.1523437,0 -0.4101562,0 -0.4101562,0.3046875 0,0.304687495 0.2578125,0.304687495 0.3984375,0.304687495 h 3.28125 c 0.1523437,0 0.3984375,0 0.3984375,-0.304687495 0,-0.3046875 -0.234375,-0.3046875 -0.3984375,-0.3046875 H 8.1837656 Z m 0,0"
         style="fill:#000000;fill-opacity:1;fill-rule:nonzero;stroke:none" />
      <path
         id="path29"
         d="m -11.73225,5.2059453 h -0.199219 c -0.585937,0.609375 -1.417968,0.6328125 -1.886718,0.65625 v 0.5742188 c 0.328125,-0.011719 0.808593,-0.023437 1.300781,-0.234375 v 5.1796879 h -1.242188 v 0.574218 h 3.269532 v -0.574218 h -1.242188 z m 6.5507813,3.5039063 c 0,-0.7851563 -0.035156,-1.7109375 -0.4570313,-2.5195313 -0.3984375,-0.75 -1.0898437,-0.984375 -1.59375,-0.984375 -0.5976562,0 -1.2890625,0.2695313 -1.6992187,1.1484375 -0.328125,0.7265625 -0.375,1.5585938 -0.375,2.3554688 0,0.7851562 0.035156,1.5117184 0.3398437,2.2382814 0.3984375,0.960937 1.1484375,1.230469 1.7226563,1.230469 0.7265625,0 1.3476562,-0.410157 1.6640625,-1.101563 0.3046875,-0.644531 0.3984375,-1.3007812 0.3984375,-2.3671874 z M -7.23225,11.569227 c -0.5273437,0 -0.9375,-0.375 -1.1367187,-1.101563 -0.1523438,-0.5624999 -0.1640625,-1.1015624 -0.1640625,-1.8749999 0,-0.6328125 0,-1.2304688 0.1640625,-1.78125 0.070312,-0.1875 0.3164062,-0.9960938 1.125,-0.9960938 0.7734375,0 1.03125,0.75 1.1015625,0.9257813 0.1875,0.5625 0.1875,1.2304687 0.1875,1.8515625 0,0.65625 0,1.2773437 -0.1757813,1.9101559 -0.2578125,0.902344 -0.7851562,1.066407 -1.1015625,1.066407 z m 0,0"
         style="fill:#000000;fill-opacity:1;fill-rule:nonzero;stroke:none" />
    </g>
    <path
       id="path30"
       d="m 236.33673,66.14084 h -42.28749 c -2.75119,0 -4.98138,-2.23021 -4.98138,-4.98139 V 46.4374 c 0,-2.75118 2.23019,-4.98139 4.98138,-4.98139 h 42.28749 c 2.75117,0 4.98139,2.23021 4.98139,4.98139 v 14.72205 c 0,2.75118 -2.23022,4.98139 -4.98139,4.98139 z"
       style="fill:#cce5dc;fill-opacity:1;fill-rule:nonzero;stroke:#007f4e;stroke-width:0.3985;stroke-linecap:butt;stroke-linejoin:miter;stroke-miterlimit:10;stroke-dasharray:none;stroke-opacity:1"
       transform="matrix(1.3333333,0,0,-1.3333333,41.28,89.118667)" />
    <path
       id="path31"
       d="m 2.2135703,-1.8521406 c 0,-0.9375 0.5859375,-1.8984375 1.7929688,-1.8984375 0.011719,0.2460937 0.1757812,0.4453125 0.421875,0.4453125 0.2226562,0 0.421875,-0.1640625 0.421875,-0.4335938 0,-0.1992187 -0.1171875,-0.609375 -0.9492188,-0.609375 -0.5039062,0 -1.1484375,0.1757813 -1.6875,0.796875 v -0.3398437 c 0,-0.3046875 -0.058594,-0.3984375 -0.3984375,-0.3984375 H 0.71357031 c -0.15234375,0 -0.3984375,0 -0.3984375,0.2929687 0,0.3046875 0.24609375,0.3046875 0.3984375,0.3046875 H 1.5221641 v 3.08203128 H 0.71357031 c -0.15234375,0 -0.3984375,0 -0.3984375,0.3046875 0,0.304687495 0.24609375,0.304687495 0.3984375,0.304687495 H 3.3151328 c 0.1523438,0 0.4101563,0 0.4101563,-0.304687495 0,-0.3046875 -0.2578125,-0.3046875 -0.4101563,-0.3046875 H 2.2135703 Z m 7.3066406,-1.8398438 h 0.2929688 c 0.1523437,0 0.3984373,0 0.3984373,-0.2929687 0,-0.3046875 -0.2343748,-0.3046875 -0.3984373,-0.3046875 H 8.6530234 c -0.1523437,0 -0.3984375,0 -0.3984375,0.2929687 0,0.3046875 0.234375,0.3046875 0.3984375,0.3046875 H 8.9225547 L 7.8444297,-0.48104687 6.7545859,-3.6919844 h 0.28125 c 0.1523438,0 0.3984375,0 0.3984375,-0.2929687 0,-0.3046875 -0.2460937,-0.3046875 -0.3984375,-0.3046875 h -1.171875 c -0.1523437,0 -0.3984375,0 -0.3984375,0.3046875 0,0.2929687 0.2578125,0.2929687 0.3984375,0.2929687 h 0.3046875 l 1.1484375,3.38671878 c 0.1171875,0.33984375 0.3164063,0.33984375 0.5273438,0.33984375 0.1875,0 0.4101562,0 0.5273437,-0.328125 z m 0,0"
       style="fill:#000000;fill-opacity:1;fill-rule:nonzero;stroke:none"
       aria-label="rv"
       transform="matrix(1.3333333,0,0,1.3333333,297.79467,13.477333)" />
    <path
       id="path32"
       d="M 0,0 H 3.138"
       style="fill:none;stroke:#000000;stroke-width:0.398;stroke-linecap:butt;stroke-linejoin:miter;stroke-miterlimit:10;stroke-dasharray:none;stroke-opacity:1"
       transform="matrix(1.3333333,0,0,-1.3333333,312.58,13.210667)" />
    <g
       id="g32"
       aria-label="tetris&#10;5"
       transform="matrix(1.3333333,0,0,1.3333333,316.764,13.477333)">
      <path
         id="path33"
         d="m 2.2160625,-3.6919844 h 1.6289063 c 0.1523437,0 0.3984375,0 0.3984375,-0.2929687 0,-0.3046875 -0.234375,-0.3046875 -0.3984375,-0.3046875 H 2.2160625 v -0.8203125 c 0,-0.1875 0,-0.4101563 -0.3398437,-0.4101563 -0.3515625,0 -0.3515625,0.2109375 -0.3515625,0.4101563 v 0.8203125 H 0.65746875 c -0.15234375,0 -0.41015625,0 -0.41015625,0.3046875 0,0.2929687 0.2578125,0.2929687 0.3984375,0.2929687 h 0.8789063 v 2.4375 c 0,0.94921878 0.6796875,1.31250003 1.40625,1.31250003 0.7382812,0 1.546875,-0.421875 1.546875,-1.31250003 0,-0.1757812 0,-0.3867187 -0.3515625,-0.3867187 -0.328125,0 -0.3398438,0.2109375 -0.3398438,0.375 -0.011719,0.62109373 -0.5742187,0.71484373 -0.8085937,0.71484373 -0.7617188,0 -0.7617188,-0.51562503 -0.7617188,-0.76171873 z m 7.2333984,1.7929688 c 0.2109375,0 0.3984375,0 0.3984375,-0.375 0,-1.1367188 -0.6328125,-2.109375 -1.921875,-2.109375 -1.1953125,0 -2.1445312,0.9960937 -2.1445312,2.2265625 0,1.20703123 1.0078125,2.21484373 2.2851562,2.21484373 1.3125,0 1.78125,-0.890625 1.78125,-1.14843753 0,-0.2695312 -0.28125,-0.2695312 -0.3398437,-0.2695312 -0.1875,0 -0.2578125,0.023437 -0.328125,0.2109375 -0.2226563,0.51562498 -0.7617188,0.59765623 -1.0429688,0.59765623 -0.75,0 -1.4882812,-0.49218753 -1.6523437,-1.34765623 z m -2.953125,-0.5976563 c 0.140625,-0.7265625 0.7265625,-1.2773437 1.4296875,-1.2773437 0.515625,0 1.125,0.2460937 1.21875,1.2773437 z m 6.1787111,-1.1953125 h 1.628906 c 0.152344,0 0.398438,0 0.398438,-0.2929687 0,-0.3046875 -0.234375,-0.3046875 -0.398438,-0.3046875 h -1.628906 v -0.8203125 c 0,-0.1875 0,-0.4101563 -0.339844,-0.4101563 -0.351562,0 -0.351562,0.2109375 -0.351562,0.4101563 v 0.8203125 h -0.867188 c -0.152344,0 -0.410156,0 -0.410156,0.3046875 0,0.2929687 0.257812,0.2929687 0.398437,0.2929687 h 0.878907 v 2.4375 c 0,0.94921878 0.679687,1.31250003 1.40625,1.31250003 0.738281,0 1.546875,-0.421875 1.546875,-1.31250003 0,-0.1757812 0,-0.3867187 -0.351563,-0.3867187 -0.328125,0 -0.339844,0.2109375 -0.339844,0.375 -0.01172,0.62109373 -0.574218,0.71484373 -0.808593,0.71484373 -0.761719,0 -0.761719,-0.51562503 -0.761719,-0.76171873 z m 5.229492,1.8398438 c 0,-0.9375 0.585938,-1.8984375 1.792969,-1.8984375 0.01172,0.2460937 0.175781,0.4453125 0.421875,0.4453125 0.222656,0 0.421875,-0.1640625 0.421875,-0.4335938 0,-0.1992187 -0.117188,-0.609375 -0.949219,-0.609375 -0.503906,0 -1.148437,0.1757813 -1.6875,0.796875 v -0.3398437 c 0,-0.3046875 -0.05859,-0.3984375 -0.398437,-0.3984375 h -1.101563 c -0.152344,0 -0.398437,0 -0.398437,0.2929687 0,0.3046875 0.246093,0.3046875 0.398437,0.3046875 h 0.808594 v 3.08203128 h -0.808594 c -0.152344,0 -0.398437,0 -0.398437,0.3046875 0,0.304687495 0.246093,0.304687495 0.398437,0.304687495 h 2.601563 c 0.152343,0 0.410156,0 0.410156,-0.304687495 0,-0.3046875 -0.257813,-0.3046875 -0.410156,-0.3046875 h -1.101563 z m 6.099609,-2.0390625 c 0,-0.3046875 -0.05859,-0.3984375 -0.398437,-0.3984375 h -1.417969 c -0.152344,0 -0.410156,0 -0.410156,0.2929687 0,0.3046875 0.257812,0.3046875 0.410156,0.3046875 h 1.125 v 3.08203128 h -1.207031 c -0.152344,0 -0.410156,0 -0.410156,0.3046875 0,0.304687495 0.257812,0.304687495 0.410156,0.304687495 h 2.941406 c 0.152344,0 0.410156,0 0.410156,-0.304687495 0,-0.3046875 -0.257812,-0.3046875 -0.410156,-0.3046875 h -1.042969 z m 0,-1.7109375 c 0,-0.28125 -0.222656,-0.4921875 -0.503906,-0.4921875 -0.28125,0 -0.492187,0.2109375 -0.492187,0.4921875 0,0.28125 0.210937,0.5039062 0.492187,0.5039062 0.28125,0 0.503906,-0.2226562 0.503906,-0.5039062 z m 5.112305,3.0585937 c -0.222656,-0.035156 -0.421875,-0.070312 -0.667969,-0.1171875 -0.292968,-0.035156 -0.972656,-0.1640625 -0.972656,-0.5507812 0,-0.2578125 0.316406,-0.5625 1.265625,-0.5625 0.832031,0 0.960938,0.2929687 0.996094,0.5507812 0.01172,0.1757813 0.03516,0.3398438 0.339844,0.3398438 0.351562,0 0.351562,-0.2109375 0.351562,-0.4101563 v -0.6796875 c 0,-0.1640625 0,-0.4101562 -0.304687,-0.4101562 -0.234375,0 -0.28125,0.140625 -0.292969,0.2109375 -0.445313,-0.2109375 -0.878906,-0.2109375 -1.066406,-0.2109375 -1.664063,0 -1.898438,0.8203125 -1.898438,1.171875 0,0.9140625 1.042969,1.0898437 1.96875,1.2304687 0.480469,0.082031 1.277344,0.2109375 1.277344,0.7382813 0,0.36328123 -0.363281,0.69140623 -1.265625,0.69140623 -0.46875,0 -1.03125,-0.10546875 -1.277344,-0.87890623 -0.05859,-0.1875 -0.09375,-0.2929688 -0.351562,-0.2929688 -0.351563,0 -0.351563,0.2109375 -0.351563,0.4101563 v 0.96093748 c 0,0.1640625 0,0.41015625 0.304688,0.41015625 0.08203,0 0.246093,-0.01171875 0.363281,-0.375 0.492187,0.3515625 1.019531,0.375 1.300781,0.375 1.570313,0 1.886719,-0.8203125 1.886719,-1.30078123 0,-1.0429688 -1.277344,-1.2539063 -1.605469,-1.3007813 z m 0,0"
         style="fill:#000000;fill-opacity:1;fill-rule:nonzero;stroke:none" />
      <path
         id="path34"
         d="M 7.6096172,6.0609453 H 10.234617 V 5.4164141 H 6.8947734 v 3.6796875 h 0.65625 C 7.7150859,8.6976641 8.0900859,8.3109453 8.6643047,8.3109453 c 0.46875,0 1.0078125,0.4101563 1.0078125,1.6054688 0,1.6523439 -1.21875,1.6523439 -1.3007813,1.6523439 -0.6679687,0 -1.2773437,-0.386719 -1.5703125,-0.925781 l -0.328125,0.550781 c 0.4101563,0.574219 1.1015625,0.984375 1.9101563,0.984375 1.1835937,0 2.1796873,-0.984375 2.1796873,-2.2500002 0,-1.2421875 -0.8554686,-2.2265625 -1.8867186,-2.2265625 -0.3984375,0 -0.7734375,0.1523438 -1.0664062,0.4101563 z m 0,0"
         style="fill:#000000;fill-opacity:1;fill-rule:nonzero;stroke:none" />
    </g>
    <path
       id="path35"
       d="M 120.89462,65.24147 H 94.29834 c -2.75118,0 -4.98138,-2.23021 -4.98138,-4.98138 V 47.33688 c 0,-2.75117 2.2302,-4.98138 4.98138,-4.98138 h 26.59628 c 2.75118,0 4.98138,2.23021 4.98138,4.98138 v 12.92321 c 0,2.75117 -2.2302,4.98138 -4.98138,4.98138 z"
       style="fill:#cce5dc;fill-opacity:1;fill-rule:nonzero;stroke:#007f4e;stroke-width:0.3985;stroke-linecap:butt;stroke-linejoin:miter;stroke-miterlimit:10;stroke-dasharray:none;stroke-opacity:1"
       transform="matrix(1.3333333,0,0,-1.3333333,41.28,89.118667)" />
    <path
       id="path36"
       d="m 2.2155,-1.8515547 c 0,-0.9375 0.5859375,-1.8984375 1.7929688,-1.8984375 0.011719,0.2460938 0.1757812,0.4453125 0.421875,0.4453125 0.2226562,0 0.421875,-0.1640625 0.421875,-0.4335937 0,-0.1992188 -0.1171875,-0.609375 -0.9492188,-0.609375 -0.5039062,0 -1.1484375,0.1757812 -1.6875,0.796875 v -0.3398438 c 0,-0.3046875 -0.058594,-0.3984375 -0.3984375,-0.3984375 H 0.7155 c -0.15234375,0 -0.3984375,0 -0.3984375,0.2929688 0,0.3046875 0.24609375,0.3046875 0.3984375,0.3046875 h 0.8085938 v 3.08203121 H 0.7155 c -0.15234375,0 -0.3984375,0 -0.3984375,0.3046875 C 0.3170625,7.8125e-6 0.56315625,7.8125e-6 0.7155,7.8125e-6 h 2.6015625 c 0.1523438,0 0.4101563,0 0.4101563,-0.3046875025 0,-0.3046875 -0.2578125,-0.3046875 -0.4101563,-0.3046875 H 2.2155 Z m 7.3037109,-1.8398437 h 0.2929688 c 0.1523437,0 0.3984373,0 0.3984373,-0.2929688 0,-0.3046875 -0.2343748,-0.3046875 -0.3984373,-0.3046875 H 8.6520234 c -0.1523437,0 -0.3984375,0 -0.3984375,0.2929688 0,0.3046875 0.234375,0.3046875 0.3984375,0.3046875 H 8.9215547 L 7.8434297,-0.48046094 6.7535859,-3.6913984 h 0.28125 c 0.1523438,0 0.3984375,0 0.3984375,-0.2929688 0,-0.3046875 -0.2460937,-0.3046875 -0.3984375,-0.3046875 h -1.171875 c -0.1523437,0 -0.3984375,0 -0.3984375,0.3046875 0,0.2929688 0.2578125,0.2929688 0.3984375,0.2929688 h 0.3046875 l 1.1484375,3.38671871 c 0.1171875,0.33984375 0.3164063,0.33984375 0.5273438,0.33984375 0.1875,0 0.4101562,0 0.5273437,-0.328125 z m 0,0"
       style="fill:#000000;fill-opacity:1;fill-rule:nonzero;stroke:none"
       aria-label="rv"
       transform="matrix(1.3333333,0,0,1.3333333,164.796,12.277333)" />
    <path
       id="path37"
       d="M 0,0 H 3.138"
       style="fill:none;stroke:#000000;stroke-width:0.398;stroke-linecap:butt;stroke-linejoin:miter;stroke-miterlimit:10;stroke-dasharray:none;stroke-opacity:1"
       transform="matrix(1.3333333,0,0,-1.3333333,179.58,12.012)" />
    <g
       id="g37"
       aria-label="asm&#10;5"
       transform="matrix(1.3333333,0,0,1.3333333,183.764,12.277333)">
      <path
         id="path38"
         d="M 3.64575,-0.31639844 C 3.8684062,-0.01171094 4.348875,7.8125e-6 4.723875,7.8125e-6 c 0.28125,0 0.4921875,0 0.4921875,-0.3046875025 0,-0.3046875 -0.2460938,-0.3046875 -0.3984375,-0.3046875 -0.4101563,0 -0.515625,-0.046875 -0.5976563,-0.0820313 V -2.8359297 c 0,-0.7148437 -0.5273437,-1.546875 -1.96875,-1.546875 -0.421875,0 -1.4414062,0 -1.4414062,0.7265625 0,0.3046875 0.2109375,0.4570313 0.4453125,0.4570313 0.1523437,0 0.4335937,-0.09375 0.4453125,-0.4570313 0,-0.082031 0,-0.09375 0.1992187,-0.1054687 0.140625,-0.011719 0.2695313,-0.011719 0.3632813,-0.011719 0.7617187,0 1.2773437,0.3046875 1.2773437,1.0195313 C 1.77075,-2.7304609 0.552,-2.2265547 0.552,-1.2773359 c 0,0.69140621 0.6210937,1.33593746 1.640625,1.33593746 0.3632812,0 0.984375,-0.0703125 1.453125,-0.375 z M 3.5402812,-2.1679609 v 0.8320312 c 0,0.234375 0,0.43359376 -0.3867187,0.62109376 -0.3632813,0.1640625 -0.8085938,0.1640625 -0.890625,0.1640625 -0.6210938,0 -1.03125,-0.33984375 -1.03125,-0.72656246 0,-0.4804688 0.8671875,-0.8554688 2.3085937,-0.890625 z m 4.6552735,-0.375 c -0.2226563,-0.035156 -0.421875,-0.070312 -0.6679688,-0.1171875 -0.2929687,-0.035156 -0.9726562,-0.1640625 -0.9726562,-0.5507813 0,-0.2578125 0.3164062,-0.5625 1.265625,-0.5625 0.8320312,0 0.9609375,0.2929688 0.9960937,0.5507813 0.011719,0.1757812 0.035156,0.3398437 0.3398438,0.3398437 0.3515625,0 0.3515625,-0.2109375 0.3515625,-0.4101562 v -0.6796875 c 0,-0.1640625 0,-0.4101563 -0.3046875,-0.4101563 -0.234375,0 -0.28125,0.140625 -0.2929688,0.2109375 -0.4453125,-0.2109375 -0.8789062,-0.2109375 -1.0664062,-0.2109375 -1.6640625,0 -1.8984375,0.8203125 -1.8984375,1.171875 0,0.9140625 1.0429687,1.0898438 1.96875,1.2304688 0.4804687,0.082031 1.2773437,0.2109375 1.2773437,0.7382812 0,0.36328126 -0.3632812,0.69140626 -1.265625,0.69140626 -0.46875,0 -1.03125,-0.10546875 -1.2773437,-0.87890626 -0.058594,-0.1875 -0.09375,-0.2929687 -0.3515625,-0.2929687 -0.3515625,0 -0.3515625,0.2109375 -0.3515625,0.4101562 v 0.96093751 c 0,0.1640625 0,0.41015625 0.3046875,0.41015625 0.082031,0 0.2460937,-0.01171875 0.3632812,-0.375 0.4921875,0.3515625 1.0195313,0.375 1.3007813,0.375 1.5703125,0 1.8867187,-0.8203125 1.8867187,-1.30078126 0,-1.0429687 -1.2773437,-1.2539062 -1.6054687,-1.3007812 z m 3.3544923,-1.453125 c -0.02344,-0.2929688 -0.222656,-0.2929688 -0.398438,-0.2929688 h -0.328125 c -0.140625,0 -0.398437,0 -0.398437,0.2929688 0,0.3046875 0.199219,0.3046875 0.5625,0.3046875 v 3.08203121 c -0.363281,0 -0.5625,0 -0.5625,0.3046875 0,0.3046875025 0.269531,0.3046875025 0.398437,0.3046875025 h 0.878907 c 0.152343,0 0.410156,0 0.410156,-0.3046875025 0,-0.3046875 -0.210938,-0.3046875 -0.5625,-0.3046875 V -2.3906172 c 0,-0.890625 0.410156,-1.359375 0.808594,-1.359375 0.234375,0 0.375,0.1757813 0.375,0.8203125 v 2.32031251 c -0.1875,0 -0.445313,0 -0.445313,0.3046875 0,0.3046875025 0.269531,0.3046875025 0.410156,0.3046875025 h 0.75 c 0.152344,0 0.410157,0 0.410157,-0.3046875025 0,-0.3046875 -0.210938,-0.3046875 -0.574219,-0.3046875 V -2.3906172 c 0,-0.890625 0.410156,-1.359375 0.820312,-1.359375 0.234375,0 0.375,0.1757813 0.375,0.8203125 v 2.32031251 c -0.199218,0 -0.445312,0 -0.445312,0.3046875 0,0.3046875025 0.269531,0.3046875025 0.410156,0.3046875025 h 0.75 c 0.152344,0 0.410156,0 0.410156,-0.3046875025 0,-0.3046875 -0.210937,-0.3046875 -0.574218,-0.3046875 V -3.0234297 c 0,-0.1992187 0,-1.3242187 -0.878907,-1.3242187 -0.304687,0 -0.714843,0.1289062 -0.996093,0.515625 -0.140625,-0.3398438 -0.421875,-0.515625 -0.75,-0.515625 -0.316407,0 -0.621094,0.1289062 -0.855469,0.3515625 z m 0,0"
         style="fill:#000000;fill-opacity:1;fill-rule:nonzero;stroke:none" />
      <path
         id="path39"
         d="M -0.23315625,6.0615313 H 2.3918437 V 5.417 H -0.948 v 3.6796875 h 0.65625 C -0.1276875,8.69825 0.2473125,8.3115313 0.82153125,8.3115313 c 0.46874995,0 1.00781245,0.4101562 1.00781245,1.6054687 0,1.652344 -1.21874995,1.652344 -1.3007812,1.652344 -0.66796875,0 -1.27734375,-0.386719 -1.5703125,-0.925781 l -0.328125,0.550781 c 0.41015625,0.574219 1.1015625,0.984375 1.91015625,0.984375 1.18359375,0 2.17968745,-0.984375 2.17968745,-2.2500002 0,-1.2421875 -0.8554687,-2.2265625 -1.8867187,-2.2265625 -0.3984375,0 -0.7734375,0.1523437 -1.06640625,0.4101562 z m 0,0"
         style="fill:#000000;fill-opacity:1;fill-rule:nonzero;stroke:none" />
    </g>
    <path
       id="path40"
       d="m 371.70279,-6.77985 h 63.5674 V 6.77986 h -63.5674 z"
       style="fill:#cceffc;fill-opacity:1;fill-rule:nonzero;stroke:#00adef;stroke-width:0.3985;stroke-linecap:butt;stroke-linejoin:miter;stroke-miterlimit:10;stroke-dasharray:none;stroke-opacity:1"
       transform="matrix(1.3333333,0,0,-1.3333333,41.28,89.118667)" />
    <path
       id="path41"
       d="M 1.8276406,-6.9142109 H 0.93701562 V -1.484375e-4 H 4.9682656 V -0.65639844 c -0.8789062,0.0117188 -1.7695312,0.0234375 -2.6601562,0.0234375 H 1.8276406 Z M 9.521,-2.1798359 c 0,-0.3398438 -0.011719,-1.0898438 -0.3984375,-1.6875 -0.4101563,-0.6210938 -1.0195313,-0.7265625 -1.3710938,-0.7265625 -1.1132812,0 -2.0039062,1.0546875 -2.0039062,2.34375 0,1.31249996 0.9492187,2.35546871 2.1445312,2.35546871 0.6328125,0 1.1953125,-0.234375 1.59375,-0.515625 L 9.4155312,-1.0548359 c -0.6210937,0.51562496 -1.2773437,0.55078121 -1.5117187,0.55078121 -0.796875,0 -1.4296875,-0.70312501 -1.4648438,-1.67578121 z M 6.4975625,-2.7306172 c 0.1523437,-0.7617187 0.6796875,-1.2539062 1.2539062,-1.2539062 0.515625,0 1.0664063,0.3398437 1.1953125,1.2539062 z m 7.7666015,-1.6875 h -0.75 l -0.785156,2.0625 c -0.210938,0.5507813 -0.515625,1.35937501 -0.597656,1.82812501 h -0.01172 C 12.061039,-0.89077344 11.803227,-1.5704609 11.709477,-1.8399922 L 10.73682,-4.4181172 H 9.9633828 L 11.67432,-1.484375e-4 h 0.878907 z m 4.277344,2.2382813 c 0,-0.3398438 -0.01172,-1.0898438 -0.398438,-1.6875 -0.410156,-0.6210938 -1.019531,-0.7265625 -1.371093,-0.7265625 -1.113282,0 -2.003907,1.0546875 -2.003907,2.34375 0,1.31249996 0.949219,2.35546871 2.144532,2.35546871 0.632812,0 1.195312,-0.234375 1.59375,-0.515625 l -0.07031,-0.64453121 c -0.621094,0.51562496 -1.277344,0.55078121 -1.511719,0.55078121 -0.796875,0 -1.429687,-0.70312501 -1.464843,-1.67578121 z M 15.51807,-2.7306172 c 0.152344,-0.7617187 0.679688,-1.2539062 1.253907,-1.2539062 0.515625,0 1.066406,0.3398437 1.195312,1.2539062 z m 4.886719,-4.1835937 h -0.75 v 6.9140624625 h 0.75 z m 5.964844,0 h -0.890625 v 6.9140624625 h 0.890625 z m 3.046875,0 h -0.890625 v 6.9140624625 h 0.890625 z m 9.366211,3.6328125 v -0.609375 h -3.28125 v -2.3554688 h 1.371093 c 0.117188,0 0.234375,0.011719 0.351563,0.011719 h 1.828125 v -0.6445313 h -4.441406 v 6.8789062625 h 4.582031 V -0.70327344 h -1.253906 c -0.117188,0 -0.246094,0 -0.363282,0 H 35.501469 V -3.2813984 Z m 3.430664,0.9960937 1.828125,-2.1328125 h -0.820313 l -1.335937,1.640625 -1.371094,-1.640625 h -0.832031 l 1.875,2.1328125 -1.933594,2.2851562625 h 0.820313 L 41.885258,-1.8751484 43.373539,-1.484375e-4 h 0.832031 z m 5.988281,-0.5976562 c 0,-1.0078125 -0.726562,-1.7109375 -1.640625,-1.7109375 -0.644531,0 -1.101562,0.1640625 -1.570312,0.4335937 l 0.07031,0.65625 c 0.515625,-0.375 1.007813,-0.5039062 1.5,-0.5039062 0.46875,0 0.867188,0.3984375 0.867188,1.1367187 v 0.4335938 c -1.5,0.011719 -2.765625,0.4335937 -2.765625,1.3125 0,0.42187496 0.269531,1.23046871 1.136718,1.23046871 0.140625,0 1.078125,-0.01171875 1.652344,-0.46875 v 0.3632812525 h 0.75 z m -0.773437,1.5703125 c 0,0.1875 0,0.43359371 -0.339844,0.62109371 -0.292969,0.1875 -0.667969,0.1875 -0.773438,0.1875 -0.480468,0 -0.925781,-0.22265625 -0.925781,-0.64453121 0,-0.6914063 1.605469,-0.7617188 2.039063,-0.7851563 z m 8.680664,-1.6523438 c 0,-0.6679687 -0.164063,-1.5703125 -1.359375,-1.5703125 -0.597657,0 -1.125,0.28125 -1.488282,0.8203125 -0.257812,-0.7617187 -0.960937,-0.8203125 -1.277343,-0.8203125 -0.714844,0 -1.183594,0.4101563 -1.453125,0.7734375 v -0.7265625 h -0.714844 v 4.4882812625 h 0.773437 V -2.4376484 c 0,-0.6796875 0.269532,-1.4882813 1.007813,-1.4882813 0.925781,0 0.972656,0.6445313 0.972656,1.03125 v 2.8945312625 h 0.785156 V -2.4376484 c 0,-0.6796875 0.269532,-1.4882813 0.996094,-1.4882813 0.9375,0 0.984375,0.6445313 0.984375,1.03125 v 2.8945312625 h 0.773438 z m 0,0"
       style="fill:#000000;fill-opacity:1;fill-rule:nonzero;stroke:none"
       aria-label="LevelIIExam"
       transform="matrix(1.3333333,0,0,1.3333333,541.30533,93.730667)" />
    <path
       id="path42"
       d="M 30.46071,0 C 50.23938,12.35887 64.33087,16.8436 87.1258,17.85391"
       style="fill:none;stroke:#000000;stroke-width:0.3985;stroke-linecap:butt;stroke-linejoin:miter;stroke-miterlimit:10;stroke-dasharray:none;stroke-opacity:1"
       transform="matrix(1.3333333,0,0,-1.3333333,41.28,89.118667)" />
    <path
       id="path43"
       d="M 1.99252,0 -1.19551,1.59401 0,0 -1.19551,-1.59401"
       style="fill:#000000;fill-opacity:1;fill-rule:nonzero;stroke:none"
       transform="matrix(1.3320667,-0.05656,-0.05656,-1.3320667,157.44949,65.321067)" />
    <path
       id="path44"
       d="m 30.46071,0 c 10.96185,-9.88681 19.2682,-14.3163 33.17494,-17.50261"
       style="fill:none;stroke:#000000;stroke-width:0.3985;stroke-linecap:butt;stroke-linejoin:miter;stroke-miterlimit:10;stroke-dasharray:none;stroke-opacity:1"
       transform="matrix(1.3333333,0,0,-1.3333333,41.28,89.118667)" />
    <path
       id="path45"
       d="M 1.99252,0 -1.19551,1.59401 0,0 -1.19551,-1.59401"
       style="fill:#000000;fill-opacity:1;fill-rule:nonzero;stroke:none"
       transform="matrix(1.30044,0.29398667,0.29398667,-1.30044,126.13021,112.4432)" />
    <path
       id="path46"
       d="m 149.61192,-17.93272 120.57602,7e-5"
       style="fill:none;stroke:#000000;stroke-width:0.3985;stroke-linecap:butt;stroke-linejoin:miter;stroke-miterlimit:10;stroke-dasharray:none;stroke-opacity:1"
       transform="matrix(1.3333333,0,0,-1.3333333,41.28,89.118667)" />
    <path
       id="path47"
       d="M 1.99252,0 -1.19551,1.59401 0,0 -1.19551,-1.59401"
       style="fill:#000000;fill-opacity:1;fill-rule:nonzero;stroke:none"
       transform="matrix(1.3333333,0,0,-1.3333333,401.53059,113.02887)" />
    <path
       id="path48"
       d="m 126.0752,17.93272 68.64656,-7e-5"
       style="fill:none;stroke:#000000;stroke-width:0.3985;stroke-linecap:butt;stroke-linejoin:miter;stroke-miterlimit:10;stroke-dasharray:none;stroke-opacity:1"
       transform="matrix(1.3333333,0,0,-1.3333333,41.28,89.118667)" />
    <path
       id="path49"
       d="M 1.99252,0 -1.19551,1.59401 0,0 -1.19551,-1.59401"
       style="fill:#000000;fill-opacity:1;fill-rule:nonzero;stroke:none"
       transform="matrix(1.3333333,0,0,-1.3333333,300.90901,65.208467)" />
    <path
       id="path50"
       d="m 233.67169,17.93265 h 37.24964"
       style="fill:none;stroke:#000000;stroke-width:0.3985;stroke-linecap:butt;stroke-linejoin:miter;stroke-miterlimit:10;stroke-dasharray:none;stroke-opacity:1"
       transform="matrix(1.3333333,0,0,-1.3333333,41.28,89.118667)" />
    <path
       id="path51"
       d="M 1.99252,0 -1.19551,1.59401 0,0 -1.19551,-1.59401"
       style="fill:#000000;fill-opacity:1;fill-rule:nonzero;stroke:none"
       transform="matrix(1.3333333,0,0,-1.3333333,402.50844,65.208467)" />
    <path
       id="path52"
       d="M 318.86752,17.93265 369.61612,0.64253"
       style="fill:none;stroke:#000000;stroke-width:0.3985;stroke-linecap:butt;stroke-linejoin:miter;stroke-miterlimit:10;stroke-dasharray:none;stroke-opacity:1"
       transform="matrix(1.3333333,0,0,-1.3333333,41.28,89.118667)" />
    <path
       id="path53"
       d="M 1.99252,0 -1.19551,1.59401 0,0 -1.19551,-1.59401"
       style="fill:#000000;fill-opacity:1;fill-rule:nonzero;stroke:none"
       transform="matrix(1.2620667,0.42997333,0.42997333,-1.2620667,534.10149,88.26196)" />
    <path
       id="path54"
       d="m 319.59866,-17.93265 50.02022,17.282"
       style="fill:none;stroke:#000000;stroke-width:0.3985;stroke-linecap:butt;stroke-linejoin:miter;stroke-miterlimit:10;stroke-dasharray:none;stroke-opacity:1"
       transform="matrix(1.3333333,0,0,-1.3333333,41.28,89.118667)" />
    <path
       id="path55"
       d="M 1.99252,0 -1.19551,1.59401 0,0 -1.19551,-1.59401"
       style="fill:#000000;fill-opacity:1;fill-rule:nonzero;stroke:none"
       transform="matrix(1.2602133,-0.4354,-0.4354,-1.2602133,534.10517,89.986227)" />
    <path
       id="path56"
       d="m 107.59648,30.47433 -4e-4,9.68926"
       style="fill:none;stroke:#000000;stroke-width:0.3985;stroke-linecap:butt;stroke-linejoin:miter;stroke-miterlimit:10;stroke-dasharray:none;stroke-opacity:1"
       transform="matrix(1.3333333,0,0,-1.3333333,41.28,89.118667)" />
    <path
       id="path57"
       d="M 1.99252,0 -1.19551,1.59401 0,0 -1.19551,-1.59401"
       style="fill:#000000;fill-opacity:1;fill-rule:nonzero;stroke:none"
       transform="matrix(-2.6666667e-5,-1.3333067,-1.3333067,2.6666667e-5,184.74147,35.567213)" />
    <path
       id="path58"
       d="m 215.19298,30.47424 -6.9e-4,8.78986"
       style="fill:none;stroke:#000000;stroke-width:0.3985;stroke-linecap:butt;stroke-linejoin:miter;stroke-miterlimit:10;stroke-dasharray:none;stroke-opacity:1"
       transform="matrix(1.3333333,0,0,-1.3333333,41.28,89.118667)" />
    <path
       id="path59"
       d="M 1.99252,0 -1.19551,1.59401 0,0 -1.19551,-1.59401"
       style="fill:#000000;fill-opacity:1;fill-rule:nonzero;stroke:none"
       transform="matrix(-1.0666667e-4,-1.3333067,-1.3333067,1.0666667e-4,328.20307,36.766533)" />
  </g>
</svg>
