<?xml version="1.0" encoding="UTF-8" standalone="no"?>
<!-- Created with Inkscape (http://www.inkscape.org/) -->

<svg
   version="1.1"
   id="svg1"
   width="739.17999"
   height="178.23866"
   viewBox="0 0 739.17999 178.23866"
   xmlns="http://www.w3.org/2000/svg"
   xmlns:svg="http://www.w3.org/2000/svg">
  <defs
     id="defs1" />
  <g
     id="g1">
    <path
       id="path1"
       d="m -20.11894,-6.77985 h 40.2379 V 6.77986 h -40.2379 z"
       style="fill:#fbcce8;fill-opacity:1;fill-rule:nonzero;stroke:#ec008c;stroke-width:0.3985;stroke-linecap:butt;stroke-linejoin:miter;stroke-miterlimit:10;stroke-dasharray:none;stroke-opacity:1"
       transform="matrix(1.3333333,0,0,-1.3333333,27.757333,89.12)" />
    <path
       id="path2"
       d="M 1.8276562,-6.9152109 H 0.93703125 v 6.91406246 H 4.9682812 v -0.65625 C 4.089375,-0.64567969 3.19875,-0.63396094 2.308125,-0.63396094 H 1.8276562 Z m 6.5449219,0.1640625 H 8.1733594 c -0.5859375,0.609375 -1.4179688,0.6328125 -1.8867188,0.65625 v 0.5742187 c 0.328125,-0.011719 0.8085938,-0.023437 1.3007813,-0.234375 v 5.17968751 H 6.3452344 v 0.57421875 H 9.6147656 V -0.57536719 H 8.3725781 Z M 15.523945,-6.9152109 H 14.63332 v 6.91406246 h 0.890625 z m 5.276367,3.9492187 c 0,-0.65625 -0.152343,-1.5703125 -1.371093,-1.5703125 -0.890625,0 -1.382813,0.6796875 -1.441407,0.7617188 v -0.7148438 h -0.714843 v 4.48828126 h 0.773437 V -2.4386484 c 0,-0.65625 0.246094,-1.4882813 1.007813,-1.4882813 0.960937,0 0.960937,0.703125 0.960937,1.03125 v 2.89453126 h 0.785156 z m 2.557618,-0.8789062 h 1.40625 v -0.5742188 h -1.40625 v -1.265625 h -0.691407 v 1.265625 h -0.867187 v 0.5742188 h 0.84375 v 2.6601562 c 0,0.59765626 0.128906,1.28906251 0.820312,1.28906251 0.703125,0 1.207032,-0.24609375 1.453125,-0.375 l -0.152343,-0.5859375 c -0.257813,0.2109375 -0.585938,0.328125 -0.902344,0.328125 -0.363281,0 -0.503906,-0.3046875 -0.503906,-0.83203121 z m 3.410156,1.7109375 c 0,-0.9960938 0.726562,-1.7109375 1.699219,-1.734375 v -0.6679688 c -0.890625,0.011719 -1.429688,0.5039063 -1.746094,0.9609375 v -0.9140625 h -0.691406 v 4.48828126 h 0.738281 z m 6.521484,-0.058594 c 0,-1.3359375 -0.996093,-2.4023437 -2.179687,-2.4023437 -1.230469,0 -2.191406,1.1015625 -2.191406,2.4023437 0,1.31250001 1.007812,2.29687501 2.179687,2.29687501 1.195313,0 2.191406,-1.0078125 2.191406,-2.29687501 z m -2.191406,1.66406251 c -0.691406,0 -1.40625,-0.56250001 -1.40625,-1.76953121 0,-1.1953125 0.75,-1.6875 1.40625,-1.6875 0.691406,0 1.40625,0.515625 1.40625,1.6875 0,1.1835937 -0.667969,1.76953121 -1.40625,1.76953121 z m 0,0"
       style="fill:#000000;fill-opacity:1;fill-rule:nonzero;stroke:none"
       aria-label="L1Intro"
       transform="matrix(1.3333333,0,0,1.3333333,5.36,93.732)" />
    <path
       id="path3"
       d="M 154.16042,30.2752 H 61.03337 c -2.75117,0 -4.98138,-2.2302 -4.98138,-4.98138 V 10.57176 c 0,-2.75117 2.23021,-4.98138 4.98138,-4.98138 h 93.12705 c 2.75117,0 4.98138,2.23021 4.98138,4.98138 v 14.72206 c 0,2.75118 -2.23021,4.98138 -4.98138,4.98138 z"
       style="fill:#f9d4d4;fill-opacity:1;fill-rule:nonzero;stroke:#e12729;stroke-width:0.3985;stroke-linecap:butt;stroke-linejoin:miter;stroke-miterlimit:10;stroke-dasharray:none;stroke-opacity:1"
       transform="matrix(1.3333333,0,0,-1.3333333,27.757333,89.12)" />
    <path
       id="path4"
       d="m 2.3217188,-1.7591562 c -0.5390625,0 -0.9609375,-0.46875 -0.9609375,-0.9960938 0,-0.5625 0.4453125,-0.9960937 0.9609375,-0.9960937 0.5390625,0 0.9609375,0.4570312 0.9609375,0.9960937 0,0.5625 -0.4453125,0.9960938 -0.9609375,0.9960938 z m -0.890625,0.3515625 c 0.023437,0.023437 0.3984375,0.2460937 0.890625,0.2460937 0.9140625,0 1.640625,-0.7148437 1.640625,-1.59375 0,-0.3046875 -0.082031,-0.5976562 -0.2578125,-0.8671875 0.2109375,-0.1289062 0.4453125,-0.1640625 0.5859375,-0.1757812 0.058594,0.2695312 0.28125,0.3398437 0.3867187,0.3398437 0.1640625,0 0.3984375,-0.1171875 0.3984375,-0.4101562 0,-0.2226563 -0.1875,-0.5390625 -0.7265625,-0.5390625 -0.1171875,0 -0.5976562,0.011719 -1.0546875,0.3515625 C 3.1303125,-4.1615 2.77875,-4.349 2.3217188,-4.349 c -0.9375,0 -1.64062505,0.7382813 -1.64062505,1.59375 0,0.421875 0.1640625,0.75 0.31640625,0.9375 -0.10546875,0.1640625 -0.19921875,0.3867188 -0.19921875,0.6796875 0,0.3515625 0.140625,0.59765625 0.23437505,0.71484375 -0.7382813,0.45703125 -0.7382813,1.125 -0.7382813,1.2421875 0,0.85546875 1.0429688,1.46484375 2.3203125,1.46484375 1.2773438,0 2.3203125,-0.6210937 2.3203125,-1.46484375 0,-0.375 -0.1875,-0.8671875 -0.6914062,-1.13671875 C 4.1146875,-0.3880625 3.6928125,-0.61071875 2.8021875,-0.61071875 h -0.703125 c -0.070312,0 -0.1992187,0 -0.28125,-0.0234375 -0.1523437,0 -0.2109375,0 -0.328125,-0.12890625 C 1.3725,-0.9036875 1.3607813,-1.1029062 1.3607813,-1.1263437 c 0,-0.035156 0.023437,-0.1757813 0.070312,-0.28125 z m 1.1835937,3.09375 c -0.9960937,0 -1.74609375,-0.4335938 -1.74609375,-0.86718755 0,-0.1875 0.09375,-0.50390625 0.41015625,-0.703125 C 1.5248438,-0.0365 1.6185938,-0.0365 2.3451563,-0.0365 c 0.8789062,0 2.0039062,0 2.0039062,0.85546875 0,0.43359375 -0.7382812,0.86718755 -1.734375,0.86718755 z M 7.7504297,-3.69275 h 1.21875 c 0.1523437,0 0.3984375,0 0.3984375,-0.2929687 0,-0.3046875 -0.2460938,-0.3046875 -0.3984375,-0.3046875 h -1.21875 v -0.46875 c 0,-0.7851563 0.6679687,-0.7851563 0.9726562,-0.7851563 0,0.046875 0.082031,0.4335938 0.4335938,0.4335938 0.1992187,0 0.421875,-0.1640625 0.421875,-0.4335938 0,-0.5976562 -0.796875,-0.5976562 -0.9492188,-0.5976562 -0.796875,0 -1.5703125,0.4570312 -1.5703125,1.3242187 v 0.5273438 H 6.0629297 c -0.1523438,0 -0.3984375,0 -0.3984375,0.3046875 0,0.2929687 0.2460937,0.2929687 0.3984375,0.2929687 h 0.9960937 v 3.08203125 H 6.0629297 c -0.1523438,0 -0.4101563,0 -0.4101563,0.3046875 0,0.3046875 0.2578125,0.3046875 0.4101563,0.3046875 h 2.6953125 c 0.1523437,0 0.4101562,0 0.4101562,-0.3046875 0,-0.3046875 -0.2578125,-0.3046875 -0.4101562,-0.3046875 H 7.7504297 Z m 5.5693363,1.4765625 1.136718,-1.4765625 h 0.398438 c 0.140625,0 0.410156,0 0.410156,-0.2929687 0,-0.3046875 -0.257812,-0.3046875 -0.410156,-0.3046875 h -1.171875 c -0.140625,0 -0.398438,0 -0.398438,0.2929687 0,0.3046875 0.222657,0.3046875 0.492188,0.3046875 l -0.738281,1.0078125 -0.75,-1.0078125 c 0.257812,0 0.46875,0 0.46875,-0.3046875 0,-0.2929687 -0.246094,-0.2929687 -0.398438,-0.2929687 h -1.160156 c -0.152344,0 -0.410156,0 -0.410156,0.3046875 0,0.2929687 0.269531,0.2929687 0.410156,0.2929687 h 0.398437 l 1.171875,1.4765625 -1.230468,1.60546875 h -0.398438 c -0.152344,0 -0.410156,0 -0.410156,0.3046875 0,0.3046875 0.269531,0.3046875 0.410156,0.3046875 h 1.160156 c 0.152344,0 0.398438,0 0.398438,-0.3046875 0,-0.3046875 -0.210938,-0.3046875 -0.515625,-0.3046875 l 0.855469,-1.21874995 0.890625,1.21874995 c -0.28125,0 -0.503907,0 -0.503907,0.3046875 0,0.3046875 0.257813,0.3046875 0.398438,0.3046875 h 1.171875 c 0.140625,0 0.410156,0 0.410156,-0.3046875 0,-0.3046875 -0.257812,-0.3046875 -0.410156,-0.3046875 h -0.398438 z m 0,0"
       style="fill:#000000;fill-opacity:1;fill-rule:nonzero;stroke:none"
       aria-label="gfx"
       transform="matrix(1.3333333,0,0,1.3333333,106.92,61.298667)" />
    <path
       id="path5"
       d="M 0,0 H 3.138"
       style="fill:none;stroke:#000000;stroke-width:0.398;stroke-linecap:butt;stroke-linejoin:miter;stroke-miterlimit:10;stroke-dasharray:none;stroke-opacity:1"
       transform="matrix(1.3333333,0,0,-1.3333333,128.67733,61.032)" />
    <path
       id="path6"
       d="m 4.6410859,-1.0911875 c 0,-0.2695312 -0.2929687,-0.2695312 -0.3515625,-0.2695312 -0.1523437,0 -0.2578125,0.011719 -0.328125,0.2109375 -0.058594,0.1289062 -0.2460937,0.5976562 -0.984375,0.5976562 -0.84375,0 -1.5585937,-0.6914062 -1.5585937,-1.6054687 0,-0.46875 0.28125,-1.6171875 1.6171875,-1.6171875 0.2109375,0 0.5976562,0 0.5976562,0.082031 0.011719,0.3515625 0.1992188,0.4921875 0.4453125,0.4921875 0.234375,0 0.4453125,-0.1640625 0.4453125,-0.4570312 0,-0.7265625 -1.03125,-0.7265625 -1.4882812,-0.7265625 -1.7109375,0 -2.30859376,1.359375 -2.30859376,2.2265625 0,1.19531245 0.93749996,2.2148437 2.19140626,2.2148437 1.3828125,0 1.7226562,-0.97265625 1.7226562,-1.1484373 z m 1.678711,-2.90625 C 6.2963594,-4.2904062 6.0971406,-4.2904062 5.9213594,-4.2904062 h -0.328125 c -0.140625,0 -0.3984375,0 -0.3984375,0.2929687 0,0.3046875 0.1992187,0.3046875 0.5625,0.3046875 v 3.08203125 c -0.3632813,0 -0.5625,0 -0.5625,0.3046875 0,0.3046875 0.2695312,0.3046875 0.3984375,0.3046875 h 0.8789062 c 0.1523438,0 0.4101563,0 0.4101563,-0.3046875 0,-0.3046875 -0.2109375,-0.3046875 -0.5625,-0.3046875 V -2.3919687 c 0,-0.890625 0.4101562,-1.359375 0.8085937,-1.359375 0.234375,0 0.375,0.1757812 0.375,0.8203125 v 2.32031245 c -0.1875,0 -0.4453125,0 -0.4453125,0.3046875 0,0.3046875 0.2695313,0.3046875 0.4101563,0.3046875 h 0.75 c 0.1523437,0 0.4101562,0 0.4101562,-0.3046875 0,-0.3046875 -0.2109375,-0.3046875 -0.5742187,-0.3046875 V -2.3919687 c 0,-0.890625 0.4101562,-1.359375 0.8203125,-1.359375 0.234375,0 0.375,0.1757812 0.375,0.8203125 v 2.32031245 c -0.1992188,0 -0.4453125,0 -0.4453125,0.3046875 0,0.3046875 0.2695312,0.3046875 0.4101562,0.3046875 h 0.75 c 0.1523439,0 0.4101559,0 0.4101559,-0.3046875 0,-0.3046875 -0.210937,-0.3046875 -0.5742184,-0.3046875 V -3.0247812 c 0,-0.1992188 0,-1.3242188 -0.8789062,-1.3242188 -0.3046875,0 -0.7148438,0.1289063 -0.9960938,0.515625 -0.140625,-0.3398437 -0.421875,-0.515625 -0.75,-0.515625 -0.3164062,0 -0.6210937,0.1289063 -0.8554687,0.3515625 z M 14.021945,-0.50525 c 0,0.36328125 0,0.50390625 0.398438,0.50390625 h 0.726562 c 0.164063,0 0.410157,0 0.410157,-0.3046875 0,-0.3046875 -0.257813,-0.3046875 -0.398438,-0.3046875 H 14.713352 V -5.6849375 c 0,-0.3046875 -0.05859,-0.3984375 -0.398438,-0.3984375 h -0.726562 c -0.164063,0 -0.410157,0 -0.410157,0.3046875 0,0.2929688 0.257813,0.2929688 0.398438,0.2929688 h 0.445312 v 1.5820312 C 13.69382,-4.1966562 13.283664,-4.349 12.861789,-4.349 c -1.089844,0 -2.039062,0.9375 -2.039062,2.203125 0,1.2421875 0.890625,2.203125 1.945312,2.203125 0.5625,0 0.984375,-0.26953125 1.253906,-0.5625 z m 0,-2.1328125 v 0.703125 c 0,0.5625 -0.445312,1.3828125 -1.207031,1.3828125 -0.714844,0 -1.3125,-0.703125 -1.3125,-1.59375 0,-0.9492187 0.703125,-1.6054687 1.394531,-1.6054687 0.644532,0 1.125,0.5625 1.125,1.1132812 z m 0,0"
       style="fill:#000000;fill-opacity:1;fill-rule:nonzero;stroke:none"
       aria-label="cmd"
       transform="matrix(1.3333333,0,0,1.3333333,132.86267,61.298667)" />
    <path
       id="path7"
       d="M 0,0 H 3.138"
       style="fill:none;stroke:#000000;stroke-width:0.398;stroke-linecap:butt;stroke-linejoin:miter;stroke-miterlimit:10;stroke-dasharray:none;stroke-opacity:1"
       transform="matrix(1.3333333,0,0,-1.3333333,154.62,61.032)" />
    <g
       id="g7"
       aria-label="interpreter&#10;15"
       transform="matrix(1.3333333,0,0,1.3333333,158.804,61.298667)">
      <path
         id="path8"
         d="m 3.0825469,-3.8919687 c 0,-0.3046875 -0.058594,-0.3984375 -0.3984375,-0.3984375 H 1.2661406 c -0.1523437,0 -0.41015622,0 -0.41015622,0.2929687 0,0.3046875 0.25781252,0.3046875 0.41015622,0.3046875 h 1.125 v 3.08203125 H 1.1841094 c -0.1523438,0 -0.41015627,0 -0.41015627,0.3046875 0,0.3046875 0.25781247,0.3046875 0.41015627,0.3046875 h 2.9414062 c 0.1523438,0 0.4101563,0 0.4101563,-0.3046875 0,-0.3046875 -0.2578125,-0.3046875 -0.4101563,-0.3046875 H 3.0825469 Z m 0,-1.7109375 c 0,-0.28125 -0.2226563,-0.4921875 -0.5039063,-0.4921875 -0.28125,0 -0.4921875,0.2109375 -0.4921875,0.4921875 0,0.28125 0.2109375,0.5039062 0.4921875,0.5039062 0.28125,0 0.5039063,-0.2226562 0.5039063,-0.5039062 z m 3.7998047,1.78125 c 0,-0.328125 0,-0.46875 -0.3984375,-0.46875 H 5.7573516 c -0.1640625,0 -0.4101563,0 -0.4101563,0.3046875 0,0.2929687 0.2578125,0.2929687 0.3984375,0.2929687 h 0.4453125 v 3.08203125 H 5.7573516 c -0.1640625,0 -0.4101563,0 -0.4101563,0.3046875 0,0.3046875 0.2578125,0.3046875 0.3984375,0.3046875 h 1.5820313 c 0.140625,0 0.3984375,0 0.3984375,-0.3046875 0,-0.3046875 -0.2460938,-0.3046875 -0.3984375,-0.3046875 H 6.8823516 V -2.3685312 c 0,-0.9960938 0.7382812,-1.3828125 1.2421875,-1.3828125 0.5273437,0 0.6679687,0.28125 0.6679687,0.8789062 v 2.26171875 H 8.4057891 c -0.1523438,0 -0.4101563,0 -0.4101563,0.3046875 0,0.3046875 0.2695313,0.3046875 0.4101563,0.3046875 h 1.5234375 c 0.1406254,0 0.3984374,0 0.3984374,-0.3046875 0,-0.3046875 -0.246094,-0.3046875 -0.4101562,-0.3046875 H 9.4839141 V -2.9193125 C 9.4839141,-3.927125 8.9800078,-4.349 8.1831328,-4.349 c -0.65625,0 -1.1132812,0.328125 -1.3007812,0.5273438 z M 12.674344,-3.69275 h 1.628906 c 0.152344,0 0.398438,0 0.398438,-0.2929687 0,-0.3046875 -0.234375,-0.3046875 -0.398438,-0.3046875 h -1.628906 v -0.8203125 c 0,-0.1875 0,-0.4101563 -0.339844,-0.4101563 -0.351562,0 -0.351562,0.2109375 -0.351562,0.4101563 v 0.8203125 H 11.11575 c -0.152344,0 -0.410156,0 -0.410156,0.3046875 0,0.2929687 0.257812,0.2929687 0.398437,0.2929687 h 0.878907 v 2.4375 c 0,0.94921875 0.679687,1.3125 1.40625,1.3125 0.738281,0 1.546875,-0.421875 1.546875,-1.3125 0,-0.1757812 0,-0.3867187 -0.351563,-0.3867187 -0.328125,0 -0.339844,0.2109375 -0.339844,0.375 -0.01172,0.6210937 -0.574218,0.7148437 -0.808593,0.7148437 -0.761719,0 -0.761719,-0.515625 -0.761719,-0.7617187 z m 7.236328,1.7929688 c 0.210937,0 0.398437,0 0.398437,-0.375 0,-1.1367188 -0.632812,-2.109375 -1.921875,-2.109375 -1.195312,0 -2.144531,0.9960937 -2.144531,2.2265625 0,1.2070312 1.007813,2.2148437 2.285156,2.2148437 1.3125,0 1.78125,-0.890625 1.78125,-1.1484375 0,-0.2695312 -0.28125,-0.2695312 -0.339843,-0.2695312 -0.1875,0 -0.257813,0.023437 -0.328125,0.2109375 -0.222657,0.51562495 -0.761719,0.5976562 -1.042969,0.5976562 -0.75,0 -1.488281,-0.4921875 -1.652344,-1.3476562 z m -2.953125,-0.5976563 c 0.140625,-0.7265625 0.726562,-1.2773437 1.429687,-1.2773437 0.515625,0 1.125,0.2460937 1.21875,1.2773437 z m 6.178711,0.6445313 c 0,-0.9375 0.585937,-1.8984375 1.792969,-1.8984375 0.01172,0.2460937 0.175781,0.4453125 0.421875,0.4453125 0.222656,0 0.421875,-0.1640625 0.421875,-0.4335938 0,-0.1992187 -0.117188,-0.609375 -0.949219,-0.609375 -0.503906,0 -1.148438,0.1757813 -1.6875,0.796875 v -0.3398437 c 0,-0.3046875 -0.05859,-0.3984375 -0.398438,-0.3984375 h -1.101562 c -0.152344,0 -0.398438,0 -0.398438,0.2929687 0,0.3046875 0.246094,0.3046875 0.398438,0.3046875 h 0.808594 v 3.08203125 h -0.808594 c -0.152344,0 -0.398438,0 -0.398438,0.3046875 0,0.3046875 0.246094,0.3046875 0.398438,0.3046875 h 2.601562 c 0.152344,0 0.410157,0 0.410157,-0.3046875 0,-0.3046875 -0.257813,-0.3046875 -0.410157,-0.3046875 h -1.101562 z m 4.666992,-0.7734375 c 0,-0.5976563 0.574219,-1.125 1.207031,-1.125 0.738282,0 1.3125,0.7265625 1.3125,1.59375 0,0.9609375 -0.691406,1.6054687 -1.394531,1.6054687 -0.773437,0 -1.125,-0.8789062 -1.125,-1.3476562 z m 0,2.17968745 C 28.213406,-0.0365 28.647,0.05725 28.963406,0.05725 c 1.078125,0 2.050782,-0.94921875 2.050782,-2.2148437 0,-1.21875 -0.890625,-2.1914063 -1.945313,-2.1914063 -0.480469,0 -0.925781,0.1757813 -1.265625,0.4804688 0,-0.28125 -0.02344,-0.421875 -0.398437,-0.421875 H 26.67825 c -0.164062,0 -0.410156,0 -0.410156,0.3046875 0,0.2929687 0.257812,0.2929687 0.398437,0.2929687 h 0.445313 V 1.604125 H 26.67825 c -0.164062,0 -0.410156,0 -0.410156,0.3046875 0,0.3046875 0.257812,0.3046875 0.398437,0.3046875 h 1.582032 c 0.140625,0 0.398437,0 0.398437,-0.3046875 0,-0.3046875 -0.246094,-0.3046875 -0.398437,-0.3046875 H 27.80325 Z m 5.794922,-1.40624995 c 0,-0.9375 0.585937,-1.8984375 1.792969,-1.8984375 0.01172,0.2460937 0.175781,0.4453125 0.421875,0.4453125 0.222656,0 0.421875,-0.1640625 0.421875,-0.4335938 0,-0.1992187 -0.117188,-0.609375 -0.949219,-0.609375 -0.503906,0 -1.148438,0.1757813 -1.6875,0.796875 v -0.3398437 c 0,-0.3046875 -0.05859,-0.3984375 -0.398438,-0.3984375 h -1.101562 c -0.152344,0 -0.398438,0 -0.398438,0.2929687 0,0.3046875 0.246094,0.3046875 0.398438,0.3046875 h 0.808594 v 3.08203125 h -0.808594 c -0.152344,0 -0.398438,0 -0.398438,0.3046875 0,0.3046875 0.246094,0.3046875 0.398438,0.3046875 h 2.601562 c 0.152344,0 0.410157,0 0.410157,-0.3046875 0,-0.3046875 -0.257813,-0.3046875 -0.410157,-0.3046875 h -1.101562 z m 7.233398,-0.046875 c 0.210938,0 0.398438,0 0.398438,-0.375 0,-1.1367188 -0.632813,-2.109375 -1.921875,-2.109375 -1.195313,0 -2.144531,0.9960937 -2.144531,2.2265625 0,1.2070312 1.007812,2.2148437 2.285156,2.2148437 1.3125,0 1.78125,-0.890625 1.78125,-1.1484375 0,-0.2695312 -0.28125,-0.2695312 -0.339844,-0.2695312 -0.1875,0 -0.257812,0.023437 -0.328125,0.2109375 -0.222656,0.51562495 -0.761719,0.5976562 -1.042969,0.5976562 -0.75,0 -1.488281,-0.4921875 -1.652343,-1.3476562 z m -2.953125,-0.5976563 c 0.140625,-0.7265625 0.726563,-1.2773437 1.429688,-1.2773437 0.515625,0 1.125,0.2460937 1.21875,1.2773437 z M 44.057156,-3.69275 h 1.628907 c 0.152343,0 0.398437,0 0.398437,-0.2929687 0,-0.3046875 -0.234375,-0.3046875 -0.398437,-0.3046875 h -1.628907 v -0.8203125 c 0,-0.1875 0,-0.4101563 -0.339843,-0.4101563 -0.351563,0 -0.351563,0.2109375 -0.351563,0.4101563 v 0.8203125 h -0.867187 c -0.152344,0 -0.410157,0 -0.410157,0.3046875 0,0.2929687 0.257813,0.2929687 0.398438,0.2929687 h 0.878906 v 2.4375 c 0,0.94921875 0.679688,1.3125 1.40625,1.3125 0.738281,0 1.546875,-0.421875 1.546875,-1.3125 0,-0.1757812 0,-0.3867187 -0.351562,-0.3867187 -0.328125,0 -0.339844,0.2109375 -0.339844,0.375 -0.01172,0.6210937 -0.574219,0.7148437 -0.808594,0.7148437 -0.761719,0 -0.761719,-0.515625 -0.761719,-0.7617187 z m 7.236328,1.7929688 c 0.210938,0 0.398438,0 0.398438,-0.375 0,-1.1367188 -0.632813,-2.109375 -1.921875,-2.109375 -1.195313,0 -2.144531,0.9960937 -2.144531,2.2265625 0,1.2070312 1.007812,2.2148437 2.285156,2.2148437 1.3125,0 1.78125,-0.890625 1.78125,-1.1484375 0,-0.2695312 -0.28125,-0.2695312 -0.339844,-0.2695312 -0.1875,0 -0.257812,0.023437 -0.328125,0.2109375 -0.222656,0.51562495 -0.761719,0.5976562 -1.042969,0.5976562 -0.75,0 -1.488281,-0.4921875 -1.652343,-1.3476562 z m -2.953125,-0.5976563 c 0.140625,-0.7265625 0.726563,-1.2773437 1.429688,-1.2773437 0.515625,0 1.125,0.2460937 1.21875,1.2773437 z m 6.178711,0.6445313 c 0,-0.9375 0.585938,-1.8984375 1.792969,-1.8984375 0.01172,0.2460937 0.175781,0.4453125 0.421875,0.4453125 0.222656,0 0.421875,-0.1640625 0.421875,-0.4335938 0,-0.1992187 -0.117187,-0.609375 -0.949219,-0.609375 -0.503906,0 -1.148437,0.1757813 -1.6875,0.796875 v -0.3398437 c 0,-0.3046875 -0.05859,-0.3984375 -0.398437,-0.3984375 H 53.01907 c -0.152343,0 -0.398437,0 -0.398437,0.2929687 0,0.3046875 0.246094,0.3046875 0.398437,0.3046875 h 0.808594 v 3.08203125 H 53.01907 c -0.152343,0 -0.398437,0 -0.398437,0.3046875 0,0.3046875 0.246094,0.3046875 0.398437,0.3046875 h 2.601563 c 0.152344,0 0.410156,0 0.410156,-0.3046875 0,-0.3046875 -0.257812,-0.3046875 -0.410156,-0.3046875 H 54.51907 Z m 0,0"
         style="fill:#000000;fill-opacity:1;fill-rule:nonzero;stroke:none" />
      <path
         id="path9"
         d="M 7.3042266,5.2047109 H 7.1050078 c -0.5859375,0.609375 -1.4179687,0.6328125 -1.8867187,0.65625 v 0.5742188 c 0.328125,-0.011719 0.8085937,-0.023437 1.3007812,-0.234375 V 11.380492 H 5.2768828 v 0.574219 H 8.5464141 V 11.380492 H 7.3042266 Z M 10.8345,6.0601797 h 2.625 V 5.4156484 h -3.339844 v 3.6796875 h 0.65625 c 0.164063,-0.3984375 0.539063,-0.7851562 1.113282,-0.7851562 0.46875,0 1.007812,0.4101562 1.007812,1.6054687 0,1.6523436 -1.21875,1.6523436 -1.300781,1.6523436 -0.667969,0 -1.277344,-0.386719 -1.570313,-0.925781 l -0.3281247,0.550781 c 0.4101567,0.574219 1.1015627,0.984375 1.9101567,0.984375 1.183593,0 2.179687,-0.984375 2.179687,-2.2499998 0,-1.2421875 -0.855469,-2.2265625 -1.886719,-2.2265625 -0.398437,0 -0.773437,0.1523437 -1.066406,0.4101562 z m 0,0"
         style="fill:#000000;fill-opacity:1;fill-rule:nonzero;stroke:none" />
    </g>
    <path
       id="path10"
       d="M 128.74063,-5.59038 H 86.45314 c -2.75117,0 -4.98138,-2.23021 -4.98138,-4.98138 v -14.72206 c 0,-2.75118 2.23021,-4.98138 4.98138,-4.98138 h 42.28749 c 2.75119,0 4.98139,2.2302 4.98139,4.98138 v 14.72206 c 0,2.75117 -2.2302,4.98138 -4.98139,4.98138 z"
       style="fill:#f9d4d4;fill-opacity:1;fill-rule:nonzero;stroke:#e12729;stroke-width:0.3985;stroke-linecap:butt;stroke-linejoin:miter;stroke-miterlimit:10;stroke-dasharray:none;stroke-opacity:1"
       transform="matrix(1.3333333,0,0,-1.3333333,27.757333,89.12)" />
    <path
       id="path11"
       d="M 2.9652187,-2.5440781 C 2.7425625,-2.5792344 2.5433437,-2.6143906 2.29725,-2.6612656 2.0042812,-2.6964219 1.3245937,-2.8253281 1.3245937,-3.2120469 c 0,-0.2578125 0.3164063,-0.5625 1.265625,-0.5625 0.8320313,0 0.9609375,0.2929688 0.9960938,0.5507813 0.011719,0.1757812 0.035156,0.3398437 0.3398437,0.3398437 0.3515625,0 0.3515625,-0.2109375 0.3515625,-0.4101562 v -0.6796875 c 0,-0.1640625 0,-0.4101563 -0.3046875,-0.4101563 -0.234375,0 -0.28125,0.140625 -0.2929687,0.2109375 C 3.23475,-4.3839219 2.8011562,-4.3839219 2.6136562,-4.3839219 c -1.66406245,0 -1.89843745,0.8203125 -1.89843745,1.171875 0,0.9140625 1.04296875,1.0898438 1.96874995,1.2304688 0.4804688,0.082031 1.2773438,0.2109375 1.2773438,0.7382812 0,0.36328128 -0.3632813,0.69140628 -1.265625,0.69140628 -0.46875,0 -1.03125,-0.10546875 -1.2773438,-0.87890628 -0.058594,-0.1875 -0.09375,-0.2929687 -0.3515625,-0.2929687 -0.35156245,0 -0.35156245,0.2109375 -0.35156245,0.4101562 v 0.96093753 c 0,0.1640625 0,0.41015625 0.30468745,0.41015625 0.082031,0 0.2460938,-0.01171875 0.3632813,-0.375 0.4921875,0.3515625 1.0195312,0.375 1.3007812,0.375 1.5703125,0 1.8867188,-0.8203125 1.8867188,-1.30078128 0,-1.0429687 -1.2773438,-1.2539062 -1.6054688,-1.3007812 z m 3.9169922,-1.2773438 c 0,-0.328125 0,-0.46875 -0.3984375,-0.46875 H 5.7572109 c -0.1640625,0 -0.4101562,0 -0.4101562,0.3046875 0,0.2929688 0.2578125,0.2929688 0.3984375,0.2929688 h 0.4453125 v 3.08203123 H 5.7572109 c -0.1640625,0 -0.4101562,0 -0.4101562,0.3046875 0,0.3046875 0.2578125,0.3046875 0.3984375,0.3046875 h 1.5820312 c 0.140625,0 0.3984375,0 0.3984375,-0.3046875 0,-0.3046875 -0.2460937,-0.3046875 -0.3984375,-0.3046875 H 6.8822109 V -2.3682969 c 0,-0.9960937 0.7382813,-1.3828125 1.2421875,-1.3828125 0.5273438,0 0.6679688,0.28125 0.6679688,0.8789063 v 2.26171873 H 8.4056484 c -0.1523437,0 -0.4101562,0 -0.4101562,0.3046875 0,0.3046875 0.2695312,0.3046875 0.4101562,0.3046875 h 1.5234375 c 0.1406251,0 0.3984371,0 0.3984371,-0.3046875 0,-0.3046875 -0.246093,-0.3046875 -0.4101558,-0.3046875 H 9.4837734 V -2.9190781 c 0,-1.0078125 -0.5039062,-1.4296875 -1.3007812,-1.4296875 -0.65625,0 -1.1132813,0.328125 -1.3007813,0.5273437 z m 7.7958981,1.921875 c 0.210938,0 0.398438,0 0.398438,-0.375 0,-1.1367187 -0.632813,-2.109375 -1.921875,-2.109375 -1.195313,0 -2.144531,0.9960938 -2.144531,2.2265625 0,1.20703128 1.007812,2.21484378 2.285156,2.21484378 1.3125,0 1.78125,-0.890625 1.78125,-1.14843748 0,-0.2695313 -0.28125,-0.2695313 -0.339844,-0.2695313 -0.1875,0 -0.257812,0.023437 -0.328125,0.2109375 -0.222656,0.51562503 -0.761719,0.59765628 -1.042969,0.59765628 -0.75,0 -1.488281,-0.49218748 -1.652343,-1.34765628 z m -2.953125,-0.5976562 c 0.140625,-0.7265625 0.726563,-1.2773438 1.429688,-1.2773438 0.515625,0 1.125,0.2460938 1.21875,1.2773438 z m 6.931641,-0.046875 C 18.433969,-2.5792344 18.23475,-2.6143906 17.988656,-2.6612656 17.695687,-2.6964219 17.016,-2.8253281 17.016,-3.2120469 c 0,-0.2578125 0.316406,-0.5625 1.265625,-0.5625 0.832031,0 0.960937,0.2929688 0.996094,0.5507813 0.01172,0.1757812 0.03516,0.3398437 0.339843,0.3398437 0.351563,0 0.351563,-0.2109375 0.351563,-0.4101562 v -0.6796875 c 0,-0.1640625 0,-0.4101563 -0.304688,-0.4101563 -0.234375,0 -0.28125,0.140625 -0.292968,0.2109375 -0.445313,-0.2109375 -0.878907,-0.2109375 -1.066407,-0.2109375 -1.664062,0 -1.898437,0.8203125 -1.898437,1.171875 0,0.9140625 1.042969,1.0898438 1.96875,1.2304688 0.480469,0.082031 1.277344,0.2109375 1.277344,0.7382812 0,0.36328128 -0.363282,0.69140628 -1.265625,0.69140628 -0.46875,0 -1.03125,-0.10546875 -1.277344,-0.87890628 -0.05859,-0.1875 -0.09375,-0.2929687 -0.351563,-0.2929687 -0.351562,0 -0.351562,0.2109375 -0.351562,0.4101562 v 0.96093753 c 0,0.1640625 0,0.41015625 0.304687,0.41015625 0.08203,0 0.246094,-0.01171875 0.363282,-0.375 0.492187,0.3515625 1.019531,0.375 1.300781,0.375 1.570312,0 1.886719,-0.8203125 1.886719,-1.30078128 0,-1.0429687 -1.277344,-1.2539062 -1.605469,-1.3007812 z m 0,0"
       style="fill:#000000;fill-opacity:1;fill-rule:nonzero;stroke:none"
       aria-label="snes"
       transform="matrix(1.3333333,0,0,1.3333333,140.812,109.11867)" />
    <path
       id="path12"
       d="M 0,0 H 3.138"
       style="fill:none;stroke:#000000;stroke-width:0.398;stroke-linecap:butt;stroke-linejoin:miter;stroke-miterlimit:10;stroke-dasharray:none;stroke-opacity:1"
       transform="matrix(1.3333333,0,0,-1.3333333,169.544,108.85333)" />
    <g
       id="g12"
       aria-label="ctrl&#10;10"
       transform="matrix(1.3333333,0,0,1.3333333,173.728,109.11867)">
      <path
         id="path13"
         d="m 4.6395469,-1.0909531 c 0,-0.2695313 -0.2929688,-0.2695313 -0.3515625,-0.2695313 -0.1523438,0 -0.2578125,0.011719 -0.328125,0.2109375 -0.058594,0.1289063 -0.2460938,0.59765628 -0.984375,0.59765628 -0.84375,0 -1.5585938,-0.69140628 -1.5585938,-1.60546878 0,-0.46875 0.28125,-1.6171875 1.6171875,-1.6171875 0.2109375,0 0.5976563,0 0.5976563,0.082031 0.011719,0.3515625 0.1992187,0.4921875 0.4453125,0.4921875 0.234375,0 0.4453125,-0.1640625 0.4453125,-0.4570313 0,-0.7265625 -1.03125,-0.7265625 -1.4882813,-0.7265625 -1.7109375,0 -2.30859372,1.359375 -2.30859372,2.2265625 0,1.19531253 0.93750002,2.21484378 2.19140622,2.21484378 1.3828125,0 1.7226563,-0.97265625 1.7226563,-1.14843718 z m 2.8066406,-2.6015625 h 1.6289063 c 0.1523437,0 0.3984375,0 0.3984375,-0.2929688 0,-0.3046875 -0.234375,-0.3046875 -0.3984375,-0.3046875 H 7.4461875 v -0.8203125 c 0,-0.1875 0,-0.4101562 -0.3398437,-0.4101562 -0.3515625,0 -0.3515625,0.2109375 -0.3515625,0.4101562 v 0.8203125 H 5.8875938 c -0.1523438,0 -0.4101563,0 -0.4101563,0.3046875 0,0.2929688 0.2578125,0.2929688 0.3984375,0.2929688 h 0.8789063 v 2.4375 c 0,0.94921873 0.6796875,1.31249998 1.40625,1.31249998 0.7382812,0 1.546875,-0.421875 1.546875,-1.31249998 0,-0.1757813 0,-0.3867188 -0.3515625,-0.3867188 -0.328125,0 -0.3398438,0.2109375 -0.3398438,0.375 -0.011719,0.62109378 -0.5742187,0.71484378 -0.8085937,0.71484378 -0.7617188,0 -0.7617188,-0.51562498 -0.7617188,-0.76171878 z m 5.2294925,1.8398437 c 0,-0.9375 0.585937,-1.8984375 1.792968,-1.8984375 0.01172,0.2460938 0.175782,0.4453125 0.421875,0.4453125 0.222657,0 0.421875,-0.1640625 0.421875,-0.4335937 0,-0.1992188 -0.117187,-0.609375 -0.949218,-0.609375 -0.503907,0 -1.148438,0.1757812 -1.6875,0.796875 v -0.3398438 c 0,-0.3046875 -0.05859,-0.3984375 -0.398438,-0.3984375 H 11.17568 c -0.152344,0 -0.398438,0 -0.398438,0.2929688 0,0.3046875 0.246094,0.3046875 0.398438,0.3046875 h 0.808593 v 3.08203123 H 11.17568 c -0.152344,0 -0.398438,0 -0.398438,0.3046875 0,0.3046875 0.246094,0.3046875 0.398438,0.3046875 h 2.601562 c 0.152344,0 0.410156,0 0.410156,-0.3046875 0,-0.3046875 -0.257812,-0.3046875 -0.410156,-0.3046875 H 12.67568 Z m 5.967773,-3.8320312 c 0,-0.3046875 -0.05859,-0.3984375 -0.398437,-0.3984375 h -1.570313 c -0.152344,0 -0.410156,0 -0.410156,0.3046875 0,0.2929687 0.257812,0.2929687 0.398437,0.2929687 h 1.300782 v 4.87500003 h -1.289063 c -0.152344,0 -0.410156,0 -0.410156,0.3046875 0,0.3046875 0.257812,0.3046875 0.398437,0.3046875 h 3.28125 c 0.152344,0 0.398438,0 0.398438,-0.3046875 0,-0.3046875 -0.234375,-0.3046875 -0.398438,-0.3046875 h -1.300781 z m 0,0"
         style="fill:#000000;fill-opacity:1;fill-rule:nonzero;stroke:none" />
      <path
         id="path14"
         d="m -3.8887734,5.2049453 h -0.1992188 c -0.5859375,0.609375 -1.4179687,0.6328125 -1.8867187,0.65625 v 0.5742188 c 0.328125,-0.011719 0.8085937,-0.023437 1.3007812,-0.234375 v 5.1796879 h -1.2421875 v 0.574218 h 3.2695313 v -0.574218 h -1.2421875 z m 6.5537109,3.5039063 c 0,-0.7851563 -0.035156,-1.7109375 -0.4570312,-2.5195313 -0.3984375,-0.75 -1.0898438,-0.984375 -1.59375005,-0.984375 -0.59765625,0 -1.2890625,0.2695313 -1.69921875,1.1484375 -0.328125,0.7265625 -0.375,1.5585938 -0.375,2.3554688 0,0.7851562 0.035156,1.5117184 0.3398438,2.2382814 0.39843745,0.960937 1.14843745,1.230469 1.7226562,1.230469 0.7265625,0 1.3476563,-0.410157 1.6640625,-1.101563 C 2.5711875,10.431508 2.6649375,9.7752578 2.6649375,8.7088516 Z M 0.61415625,11.568227 c -0.52734375,0 -0.9375,-0.375 -1.13671875,-1.101563 C -0.67490625,9.9041641 -0.686625,9.3651016 -0.686625,8.5916641 c 0,-0.6328125 0,-1.2304688 0.1640625,-1.78125 0.0703125,-0.1875 0.31640625,-0.9960938 1.125,-0.9960938 0.7734375,0 1.03125,0.75 1.1015625,0.9257813 0.1875,0.5625 0.1875,1.2304687 0.1875,1.8515625 0,0.65625 0,1.2773437 -0.1757812,1.9101559 -0.2578125,0.902344 -0.7851563,1.066407 -1.10156255,1.066407 z m 0,0"
         style="fill:#000000;fill-opacity:1;fill-rule:nonzero;stroke:none" />
    </g>
    <path
       id="path15"
       d="m 229.22421,-5.5903 h -28.06082 c -2.75117,0 -4.98139,-2.23021 -4.98139,-4.98139 v -14.72206 c 0,-2.75117 2.23022,-4.98138 4.98139,-4.98138 h 28.06082 c 2.75118,0 4.98139,2.23021 4.98139,4.98138 v 14.72206 c 0,2.75118 -2.23021,4.98139 -4.98139,4.98139 z"
       style="fill:#f9d4d4;fill-opacity:1;fill-rule:nonzero;stroke:#e12729;stroke-width:0.3985;stroke-linecap:butt;stroke-linejoin:miter;stroke-miterlimit:10;stroke-dasharray:none;stroke-opacity:1"
       transform="matrix(1.3333333,0,0,-1.3333333,27.757333,89.12)" />
    <g
       id="g15"
       aria-label="tetris&#10;25"
       transform="matrix(1.3333333,0,0,1.3333333,293.75733,109.11867)">
      <path
         id="path16"
         d="m 2.2152031,-3.6925156 h 1.6289063 c 0.1523437,0 0.3984375,0 0.3984375,-0.2929688 0,-0.3046875 -0.234375,-0.3046875 -0.3984375,-0.3046875 H 2.2152031 v -0.8203125 c 0,-0.1875 0,-0.4101562 -0.3398437,-0.4101562 -0.3515625,0 -0.3515625,0.2109375 -0.3515625,0.4101562 v 0.8203125 H 0.65660937 c -0.15234375,0 -0.41015625,0 -0.41015625,0.3046875 0,0.2929688 0.2578125,0.2929688 0.3984375,0.2929688 H 1.5237969 v 2.4375 c 0,0.94921873 0.6796875,1.31249998 1.40625,1.31249998 0.7382812,0 1.546875,-0.421875 1.546875,-1.31249998 0,-0.1757813 0,-0.3867188 -0.3515625,-0.3867188 -0.328125,0 -0.3398438,0.2109375 -0.3398438,0.375 -0.011719,0.62109378 -0.5742187,0.71484378 -0.8085937,0.71484378 -0.7617188,0 -0.7617188,-0.51562498 -0.7617188,-0.76171878 z m 7.2333985,1.7929687 c 0.2109375,0 0.3984375,0 0.3984375,-0.375 0,-1.1367187 -0.6328125,-2.109375 -1.921875,-2.109375 -1.1953125,0 -2.1445313,0.9960938 -2.1445313,2.2265625 0,1.20703128 1.0078125,2.21484378 2.2851563,2.21484378 1.3125,0 1.78125,-0.890625 1.78125,-1.14843748 0,-0.2695313 -0.28125,-0.2695313 -0.3398438,-0.2695313 -0.1875,0 -0.2578125,0.023437 -0.328125,0.2109375 -0.2226562,0.51562503 -0.7617187,0.59765628 -1.0429687,0.59765628 -0.75,0 -1.4882813,-0.49218748 -1.6523438,-1.34765628 z m -2.953125,-0.5976562 c 0.140625,-0.7265625 0.7265625,-1.2773438 1.4296875,-1.2773438 0.515625,0 1.125,0.2460938 1.21875,1.2773438 z m 6.1787104,-1.1953125 h 1.628907 c 0.152343,0 0.398437,0 0.398437,-0.2929688 0,-0.3046875 -0.234375,-0.3046875 -0.398437,-0.3046875 h -1.628907 v -0.8203125 c 0,-0.1875 0,-0.4101562 -0.339843,-0.4101562 -0.351563,0 -0.351563,0.2109375 -0.351563,0.4101562 v 0.8203125 h -0.867187 c -0.152344,0 -0.410157,0 -0.410157,0.3046875 0,0.2929688 0.257813,0.2929688 0.398438,0.2929688 h 0.878906 v 2.4375 c 0,0.94921873 0.679688,1.31249998 1.40625,1.31249998 0.738281,0 1.546875,-0.421875 1.546875,-1.31249998 0,-0.1757813 0,-0.3867188 -0.351562,-0.3867188 -0.328125,0 -0.339844,0.2109375 -0.339844,0.375 -0.01172,0.62109378 -0.574219,0.71484378 -0.808594,0.71484378 -0.761719,0 -0.761719,-0.51562498 -0.761719,-0.76171878 z m 5.232422,1.8398437 c 0,-0.9375 0.585938,-1.8984375 1.792969,-1.8984375 0.01172,0.2460938 0.175781,0.4453125 0.421875,0.4453125 0.222656,0 0.421875,-0.1640625 0.421875,-0.4335937 0,-0.1992188 -0.117187,-0.609375 -0.949219,-0.609375 -0.503906,0 -1.148437,0.1757812 -1.6875,0.796875 v -0.3398438 c 0,-0.3046875 -0.05859,-0.3984375 -0.398437,-0.3984375 h -1.101563 c -0.152343,0 -0.398437,0 -0.398437,0.2929688 0,0.3046875 0.246094,0.3046875 0.398437,0.3046875 h 0.808594 v 3.08203123 h -0.808594 c -0.152343,0 -0.398437,0 -0.398437,0.3046875 0,0.3046875 0.246094,0.3046875 0.398437,0.3046875 h 2.601563 c 0.152344,0 0.410156,0 0.410156,-0.3046875 0,-0.3046875 -0.257812,-0.3046875 -0.410156,-0.3046875 h -1.101563 z m 6.09668,-2.0390625 c 0,-0.3046875 -0.05859,-0.3984375 -0.398437,-0.3984375 h -1.417969 c -0.152344,0 -0.410156,0 -0.410156,0.2929688 0,0.3046875 0.257812,0.3046875 0.410156,0.3046875 h 1.125 v 3.08203123 h -1.207031 c -0.152344,0 -0.410157,0 -0.410157,0.3046875 0,0.3046875 0.257813,0.3046875 0.410157,0.3046875 h 2.941406 c 0.152344,0 0.410156,0 0.410156,-0.3046875 0,-0.3046875 -0.257812,-0.3046875 -0.410156,-0.3046875 h -1.042969 z m 0,-1.7109375 c 0,-0.28125 -0.222656,-0.4921875 -0.503906,-0.4921875 -0.28125,0 -0.492188,0.2109375 -0.492188,0.4921875 0,0.28125 0.210938,0.5039063 0.492188,0.5039063 0.28125,0 0.503906,-0.2226563 0.503906,-0.5039063 z m 5.112305,3.0585938 c -0.222657,-0.035156 -0.421875,-0.070312 -0.667969,-0.1171875 -0.292969,-0.035156 -0.972656,-0.1640625 -0.972656,-0.5507813 0,-0.2578125 0.316406,-0.5625 1.265625,-0.5625 0.832031,0 0.960937,0.2929688 0.996093,0.5507813 0.01172,0.1757812 0.03516,0.3398437 0.339844,0.3398437 0.351563,0 0.351563,-0.2109375 0.351563,-0.4101562 v -0.6796875 c 0,-0.1640625 0,-0.4101563 -0.304688,-0.4101563 -0.234375,0 -0.28125,0.140625 -0.292969,0.2109375 -0.445312,-0.2109375 -0.878906,-0.2109375 -1.066406,-0.2109375 -1.664062,0 -1.898437,0.8203125 -1.898437,1.171875 0,0.9140625 1.042968,1.0898438 1.96875,1.2304688 0.480468,0.082031 1.277343,0.2109375 1.277343,0.7382812 0,0.36328128 -0.363281,0.69140628 -1.265625,0.69140628 -0.46875,0 -1.03125,-0.10546875 -1.277343,-0.87890628 -0.05859,-0.1875 -0.09375,-0.2929687 -0.351563,-0.2929687 -0.351562,0 -0.351562,0.2109375 -0.351562,0.4101562 v 0.96093753 c 0,0.1640625 0,0.41015625 0.304687,0.41015625 0.08203,0 0.246094,-0.01171875 0.363281,-0.375 0.492188,0.3515625 1.019532,0.375 1.300782,0.375 1.570312,0 1.886718,-0.8203125 1.886718,-1.30078128 0,-1.0429687 -1.277343,-1.2539062 -1.605468,-1.3007812 z m 0,0"
         style="fill:#000000;fill-opacity:1;fill-rule:nonzero;stroke:none" />
      <path
         id="path17"
         d="m 12.445672,10.079945 -1.230469,1.242188 v 0.632812 h 3.972656 V 11.25182 h -1.816406 c -0.117187,0 -0.234375,0 -0.363281,0 h -1.078125 c 0.316406,-0.269531 1.078125,-1.019531 1.382812,-1.3124997 0.1875,-0.1757812 0.691407,-0.5976562 0.890625,-0.7734375 0.445313,-0.4453125 0.984375,-0.9726562 0.984375,-1.828125 0,-1.1367187 -0.808593,-2.1328125 -2.121093,-2.1328125 -1.136719,0 -1.699219,0.7734375 -1.933594,1.6289063 0.117187,0.1757812 0.164062,0.234375 0.1875,0.2578125 0.02344,0.023437 0.117187,0.1523437 0.222656,0.2929687 0.199219,-0.7734375 0.46875,-1.546875 1.382813,-1.546875 0.9375,0 1.441406,0.75 1.441406,1.5234375 0,0.84375 -0.5625,1.4179688 -1.160156,2.015625 z m 4.769531,-4.0195309 h 2.625 V 5.4158828 h -3.339844 v 3.6796875 h 0.65625 c 0.164063,-0.3984375 0.539063,-0.7851562 1.113282,-0.7851562 0.46875,0 1.007812,0.4101562 1.007812,1.6054687 0,1.6523442 -1.21875,1.6523442 -1.300781,1.6523442 -0.667969,0 -1.277344,-0.386719 -1.570313,-0.925782 l -0.328125,0.550782 c 0.410157,0.574218 1.101563,0.984375 1.910157,0.984375 1.183593,0 2.179687,-0.984375 2.179687,-2.2500004 0,-1.2421875 -0.855469,-2.2265625 -1.886719,-2.2265625 -0.398437,0 -0.773437,0.1523437 -1.066406,0.4101562 z m 0,0"
         style="fill:#000000;fill-opacity:1;fill-rule:nonzero;stroke:none" />
    </g>
    <path
       id="path18"
       d="M 123.50981,-41.45607 H 91.68314 c -2.75118,0 -4.98139,-2.23021 -4.98139,-4.98138 v -14.72207 c 0,-2.75117 2.23021,-4.98138 4.98139,-4.98138 h 31.82667 c 2.75119,0 4.98139,2.23021 4.98139,4.98138 v 14.72207 c 0,2.75117 -2.2302,4.98138 -4.98139,4.98138 z"
       style="fill:#cce5dc;fill-opacity:1;fill-rule:nonzero;stroke:#007f4e;stroke-width:0.3985;stroke-linecap:butt;stroke-linejoin:miter;stroke-miterlimit:10;stroke-dasharray:none;stroke-opacity:1"
       transform="matrix(1.3333333,0,0,-1.3333333,27.757333,89.12)" />
    <path
       id="path19"
       d="m 2.3201797,-1.7586875 c -0.5390625,0 -0.9609375,-0.46875 -0.9609375,-0.9960937 0,-0.5625 0.4453125,-0.9960938 0.9609375,-0.9960938 0.5390625,0 0.9609375,0.4570313 0.9609375,0.9960938 0,0.5625 -0.4453125,0.9960937 -0.9609375,0.9960937 z m -0.890625,0.3515625 c 0.023437,0.023437 0.3984375,0.2460938 0.890625,0.2460938 0.9140625,0 1.640625,-0.7148438 1.640625,-1.59375 0,-0.3046875 -0.082031,-0.5976563 -0.2578125,-0.8671875 0.2109375,-0.1289063 0.4453125,-0.1640625 0.5859375,-0.1757813 0.058594,0.2695313 0.28125,0.3398438 0.3867187,0.3398438 0.1640625,0 0.3984375,-0.1171875 0.3984375,-0.4101563 0,-0.2226562 -0.1875,-0.5390625 -0.7265625,-0.5390625 -0.1171875,0 -0.5976562,0.011719 -1.0546875,0.3515625 -0.1640625,-0.1054687 -0.515625,-0.2929687 -0.9726562,-0.2929687 -0.9375,0 -1.64062501,0.7382812 -1.64062501,1.59375 0,0.421875 0.1640625,0.75 0.31640625,0.9375 -0.10546875,0.1640625 -0.19921875,0.3867187 -0.19921875,0.6796875 0,0.35156245 0.140625,0.5976562 0.23437501,0.7148437 -0.73828126,0.45703125 -0.73828126,1.125 -0.73828126,1.2421875 0,0.8554688 1.04296876,1.4648438 2.32031246,1.4648438 1.2773438,0 2.3203125,-0.6210938 2.3203125,-1.4648438 0,-0.375 -0.1875,-0.8671875 -0.6914062,-1.13671875 C 4.1131484,-0.38759375 3.6912734,-0.61025 2.8006484,-0.61025 h -0.703125 c -0.070312,0 -0.1992187,0 -0.28125,-0.0234375 -0.1523437,0 -0.2109375,0 -0.328125,-0.12890625 -0.1171875,-0.140625 -0.1289062,-0.33984375 -0.1289062,-0.36328125 0,-0.035156 0.023437,-0.1757812 0.070312,-0.28125 z m 1.1835937,3.09375 c -0.9960937,0 -1.74609371,-0.4335937 -1.74609371,-0.8671875 0,-0.1875 0.09375,-0.50390625 0.41015621,-0.703125 0.2460938,-0.15234375 0.3398438,-0.15234375 1.0664063,-0.15234375 0.8789062,0 2.0039062,0 2.0039062,0.85546875 0,0.4335938 -0.7382812,0.8671875 -1.734375,0.8671875 z m 7.256836,-2.7773437 c 0,-0.2695313 -0.2929688,-0.2695313 -0.3515625,-0.2695313 -0.1523438,0 -0.2578125,0.011719 -0.328125,0.2109375 -0.058594,0.1289063 -0.2460938,0.59765625 -0.984375,0.59765625 -0.84375,0 -1.5585938,-0.69140625 -1.5585938,-1.60546875 0,-0.46875 0.28125,-1.6171875 1.6171875,-1.6171875 0.2109375,0 0.5976563,0 0.5976563,0.082031 0.011719,0.3515625 0.1992187,0.4921875 0.4453125,0.4921875 0.234375,0 0.4453125,-0.1640625 0.4453125,-0.4570313 0,-0.7265625 -1.03125,-0.7265625 -1.4882813,-0.7265625 -1.7109375,0 -2.3085937,1.359375 -2.3085937,2.2265625 0,1.1953125 0.9375,2.21484375 2.1914062,2.21484375 1.3828125,0 1.7226563,-0.97265625 1.7226563,-1.14843715 z m 0,0"
       style="fill:#000000;fill-opacity:1;fill-rule:nonzero;stroke:none"
       aria-label="gc"
       transform="matrix(1.3333333,0,0,1.3333333,147.78533,156.93867)" />
    <path
       id="path20"
       d="M 0,0 H 3.138"
       style="fill:none;stroke:#000000;stroke-width:0.398;stroke-linecap:butt;stroke-linejoin:miter;stroke-miterlimit:10;stroke-dasharray:none;stroke-opacity:1"
       transform="matrix(1.3333333,0,0,-1.3333333,162.56933,156.67333)" />
    <g
       id="g20"
       aria-label="ctrl&#10;5"
       transform="matrix(1.3333333,0,0,1.3333333,166.75467,156.93867)">
      <path
         id="path21"
         d="m 4.6400547,-1.0907187 c 0,-0.2695313 -0.2929688,-0.2695313 -0.3515625,-0.2695313 -0.1523438,0 -0.2578125,0.011719 -0.328125,0.2109375 -0.058594,0.1289063 -0.2460938,0.59765625 -0.984375,0.59765625 -0.84375,0 -1.5585938,-0.69140625 -1.5585938,-1.60546875 0,-0.46875 0.28125,-1.6171875 1.6171875,-1.6171875 0.2109375,0 0.5976563,0 0.5976563,0.082031 0.011719,0.3515625 0.1992187,0.4921875 0.4453125,0.4921875 0.234375,0 0.4453125,-0.1640625 0.4453125,-0.4570313 0,-0.7265625 -1.03125,-0.7265625 -1.4882813,-0.7265625 -1.7109375,0 -2.30859371,1.359375 -2.30859371,2.2265625 0,1.1953125 0.93750001,2.21484375 2.19140621,2.21484375 1.3828125,0 1.7226563,-0.97265625 1.7226563,-1.14843715 z m 2.8037109,-2.6015625 h 1.6289063 c 0.1523437,0 0.3984375,0 0.3984375,-0.2929688 0,-0.3046875 -0.234375,-0.3046875 -0.3984375,-0.3046875 H 7.4437656 V -5.11025 c 0,-0.1875 0,-0.4101562 -0.3398437,-0.4101562 -0.3515625,0 -0.3515625,0.2109375 -0.3515625,0.4101562 v 0.8203125 H 5.8851719 c -0.1523438,0 -0.4101563,0 -0.4101563,0.3046875 0,0.2929688 0.2578125,0.2929688 0.3984375,0.2929688 h 0.8789063 v 2.4375 c 0,0.9492187 0.6796875,1.31249995 1.40625,1.31249995 0.7382812,0 1.546875,-0.421875 1.546875,-1.31249995 0,-0.1757813 0,-0.3867188 -0.3515625,-0.3867188 -0.328125,0 -0.3398438,0.2109375 -0.3398438,0.375 -0.011719,0.62109375 -0.5742187,0.71484375 -0.8085937,0.71484375 -0.7617188,0 -0.7617188,-0.51562495 -0.7617188,-0.76171875 z m 5.2324224,1.8398437 c 0,-0.9375 0.585937,-1.8984375 1.792968,-1.8984375 0.01172,0.2460938 0.175782,0.4453125 0.421875,0.4453125 0.222657,0 0.421875,-0.1640625 0.421875,-0.4335937 0,-0.1992188 -0.117187,-0.609375 -0.949218,-0.609375 -0.503907,0 -1.148438,0.1757812 -1.6875,0.796875 V -3.8915 c 0,-0.3046875 -0.05859,-0.3984375 -0.398438,-0.3984375 h -1.101562 c -0.152344,0 -0.398438,0 -0.398438,0.2929688 0,0.3046875 0.246094,0.3046875 0.398438,0.3046875 h 0.808593 V -0.61025 h -0.808593 c -0.152344,0 -0.398438,0 -0.398438,0.3046875 0,0.3046875 0.246094,0.3046875 0.398438,0.3046875 h 2.601562 c 0.152344,0 0.410156,0 0.410156,-0.3046875 0,-0.3046875 -0.257812,-0.3046875 -0.410156,-0.3046875 h -1.101562 z m 5.967773,-3.8320312 c 0,-0.3046875 -0.05859,-0.3984375 -0.398438,-0.3984375 h -1.570312 c -0.152344,0 -0.410156,0 -0.410156,0.3046875 0,0.2929687 0.257812,0.2929687 0.398437,0.2929687 h 1.300781 v 4.875 h -1.289062 c -0.152344,0 -0.410156,0 -0.410156,0.3046875 0,0.3046875 0.257812,0.3046875 0.398437,0.3046875 h 3.28125 c 0.152344,0 0.398438,0 0.398438,-0.3046875 0,-0.3046875 -0.234375,-0.3046875 -0.398438,-0.3046875 h -1.300781 z m 0,0"
         style="fill:#000000;fill-opacity:1;fill-rule:nonzero;stroke:none" />
      <path
         id="path22"
         d="m 2.3783359,6.0606484 h 2.625 V 5.4161172 H 1.6634922 v 3.6796875 h 0.65625 C 2.4838047,8.6973672 2.8588047,8.3106484 3.4330234,8.3106484 c 0.46875,0 1.0078125,0.4101563 1.0078125,1.6054688 0,1.6523438 -1.21875,1.6523438 -1.3007812,1.6523438 -0.6679688,0 -1.2773438,-0.386719 -1.5703125,-0.925781 l -0.328125,0.550781 c 0.4101562,0.574219 1.1015625,0.984375 1.9101562,0.984375 1.1835938,0 2.1796875,-0.984375 2.1796875,-2.2500001 0,-1.2421875 -0.8554687,-2.2265625 -1.8867187,-2.2265625 -0.3984375,0 -0.7734375,0.1523438 -1.0664063,0.4101563 z m 0,0"
         style="fill:#000000;fill-opacity:1;fill-rule:nonzero;stroke:none" />
    </g>
    <path
       id="path23"
       d="m 314.42035,30.27513 h -37.0571 c -2.75117,0 -4.98138,-2.23021 -4.98138,-4.98138 V 10.57169 c 0,-2.75118 2.23021,-4.98139 4.98138,-4.98139 h 37.0571 c 2.75117,0 4.98138,2.23021 4.98138,4.98139 v 14.72206 c 0,2.75117 -2.23021,4.98138 -4.98138,4.98138 z"
       style="fill:#fef5d1;fill-opacity:1;fill-rule:nonzero;stroke:#f8cc1b;stroke-width:0.3985;stroke-linecap:butt;stroke-linejoin:miter;stroke-miterlimit:10;stroke-dasharray:none;stroke-opacity:1"
       transform="matrix(1.3333333,0,0,-1.3333333,27.757333,89.12)" />
    <path
       id="path24"
       d="m 4.2886641,-3.69275 h 0.2929687 c 0.1523438,0 0.3984375,0 0.3984375,-0.2929687 0,-0.3046875 -0.234375,-0.3046875 -0.3984375,-0.3046875 H 3.4214766 c -0.1523438,0 -0.3984375,0 -0.3984375,0.2929687 0,0.3046875 0.234375,0.3046875 0.3984375,0.3046875 H 3.6910078 L 2.6128828,-0.4818125 1.5230391,-3.69275 h 0.28125 c 0.1523437,0 0.3984375,0 0.3984375,-0.2929687 0,-0.3046875 -0.2460938,-0.3046875 -0.3984375,-0.3046875 H 0.63241406 c -0.15234375,0 -0.3984375,0 -0.3984375,0.3046875 0,0.2929687 0.2578125,0.2929687 0.3984375,0.2929687 h 0.3046875 L 2.0855391,-0.30603125 C 2.2027266,0.0338125 2.4019453,0.0338125 2.6128828,0.0338125 c 0.1875,0 0.4101563,0 0.5273438,-0.328125 z m 3.2607422,1.9335938 c -0.5390625,0 -0.9609375,-0.46875 -0.9609375,-0.9960938 0,-0.5625 0.4453125,-0.9960937 0.9609375,-0.9960937 0.5390625,0 0.9609375,0.4570312 0.9609375,0.9960937 0,0.5625 -0.4453125,0.9960938 -0.9609375,0.9960938 z m -0.890625,0.3515625 c 0.023437,0.023437 0.3984375,0.2460937 0.890625,0.2460937 0.9140625,0 1.640625,-0.7148437 1.640625,-1.59375 0,-0.3046875 -0.082031,-0.5976562 -0.2578125,-0.8671875 0.2109375,-0.1289062 0.4453125,-0.1640625 0.5859375,-0.1757812 0.058594,0.2695312 0.28125,0.3398437 0.3867187,0.3398437 0.164063,0 0.398438,-0.1171875 0.398438,-0.4101562 0,-0.2226563 -0.1875,-0.5390625 -0.726563,-0.5390625 -0.1171875,0 -0.5976562,0.011719 -1.0546875,0.3515625 C 8.358,-4.1615 8.0064375,-4.349 7.5494063,-4.349 c -0.9375,0 -1.640625,0.7382813 -1.640625,1.59375 0,0.421875 0.1640625,0.75 0.3164062,0.9375 -0.1054687,0.1640625 -0.1992187,0.3867188 -0.1992187,0.6796875 0,0.3515625 0.140625,0.59765625 0.234375,0.71484375 -0.7382813,0.45703125 -0.7382813,1.125 -0.7382813,1.2421875 0,0.85546875 1.0429688,1.46484375 2.3203125,1.46484375 1.2773438,0 2.320313,-0.6210937 2.320313,-1.46484375 0,-0.375 -0.1875005,-0.8671875 -0.6914067,-1.13671875 C 9.342375,-0.3880625 8.9205,-0.61071875 8.029875,-0.61071875 H 7.32675 c -0.070312,0 -0.1992187,0 -0.28125,-0.0234375 -0.1523437,0 -0.2109375,0 -0.328125,-0.12890625 -0.1171875,-0.140625 -0.1289062,-0.3398437 -0.1289062,-0.3632812 0,-0.035156 0.023437,-0.1757813 0.070312,-0.28125 z m 1.1835937,3.09375 c -0.9960937,0 -1.7460937,-0.4335938 -1.7460937,-0.86718755 0,-0.1875 0.09375,-0.50390625 0.4101562,-0.703125 C 6.7525313,-0.0365 6.8462813,-0.0365 7.5728438,-0.0365 c 0.8789062,0 2.0039062,0 2.0039062,0.85546875 0,0.43359375 -0.7382812,0.86718755 -1.734375,0.86718755 z M 14.106047,-0.31775 c 0.222656,0.3046875 0.703125,0.31640625 1.078125,0.31640625 0.28125,0 0.492187,0 0.492187,-0.3046875 0,-0.3046875 -0.246093,-0.3046875 -0.398437,-0.3046875 -0.410156,0 -0.515625,-0.046875 -0.597656,-0.0820313 V -2.8372812 c 0,-0.7148439 -0.527344,-1.546875 -1.96875,-1.546875 -0.421875,0 -1.441407,0 -1.441407,0.7265624 0,0.3046875 0.210938,0.4570312 0.445313,0.4570312 0.152344,0 0.433594,-0.09375 0.445312,-0.4570312 0,-0.082031 0,-0.09375 0.199219,-0.1054688 0.140625,-0.011719 0.269531,-0.011719 0.363281,-0.011719 0.761719,0 1.277344,0.3046875 1.277344,1.0195313 -1.769531,0.023437 -2.988281,0.5273438 -2.988281,1.4765625 0,0.6914062 0.621094,1.33593745 1.640625,1.33593745 0.363281,0 0.984375,-0.0703125 1.453125,-0.37499965 z m -0.105469,-1.8515625 v 0.8320313 c 0,0.234375 0,0.4335937 -0.386719,0.6210937 -0.363281,0.1640625 -0.808593,0.1640625 -0.890625,0.1640625 -0.621093,0 -1.03125,-0.33984375 -1.03125,-0.7265625 0,-0.4804687 0.867188,-0.8554687 2.308594,-0.890625 z m 0,0"
       style="fill:#000000;fill-opacity:1;fill-rule:nonzero;stroke:none"
       aria-label="vga"
       transform="matrix(1.3333333,0,0,1.3333333,395.356,61.298667)" />
    <path
       id="path25"
       d="M 0,0 H 3.138"
       style="fill:none;stroke:#000000;stroke-width:0.398;stroke-linecap:butt;stroke-linejoin:miter;stroke-miterlimit:10;stroke-dasharray:none;stroke-opacity:1"
       transform="matrix(1.3333333,0,0,-1.3333333,417.11333,61.033333)" />
    <g
       id="g25"
       aria-label="ctrl&#10;10"
       transform="matrix(1.3333333,0,0,1.3333333,421.29867,61.298667)">
      <path
         id="path26"
         d="m 4.6392813,-1.0911875 c 0,-0.2695312 -0.2929688,-0.2695312 -0.3515625,-0.2695312 -0.1523438,0 -0.2578125,0.011719 -0.328125,0.2109375 C 3.901,-1.020875 3.7135,-0.552125 2.9752188,-0.552125 c -0.84375,0 -1.5585938,-0.6914062 -1.5585938,-1.6054687 0,-0.46875 0.28125,-1.6171875 1.6171875,-1.6171875 0.2109375,0 0.5976563,0 0.5976563,0.082031 0.011719,0.3515625 0.1992187,0.4921875 0.4453125,0.4921875 0.234375,0 0.4453125,-0.1640625 0.4453125,-0.4570312 0,-0.7265625 -1.03125,-0.7265625 -1.4882813,-0.7265625 -1.7109375,0 -2.30859375,1.359375 -2.30859375,2.2265625 0,1.19531245 0.93750005,2.2148437 2.19140625,2.2148437 1.3828125,0 1.7226563,-0.97265625 1.7226563,-1.1484373 z M 7.4459219,-3.69275 h 1.6289062 c 0.1523438,0 0.3984375,0 0.3984375,-0.2929687 0,-0.3046875 -0.234375,-0.3046875 -0.3984375,-0.3046875 H 7.4459219 v -0.8203125 c 0,-0.1875 0,-0.4101563 -0.3398438,-0.4101563 -0.3515625,0 -0.3515625,0.2109375 -0.3515625,0.4101563 v 0.8203125 H 5.8873281 c -0.1523437,0 -0.4101562,0 -0.4101562,0.3046875 0,0.2929687 0.2578125,0.2929687 0.3984375,0.2929687 h 0.8789062 v 2.4375 c 0,0.94921875 0.6796875,1.3125 1.40625,1.3125 0.7382813,0 1.546875,-0.421875 1.546875,-1.3125 0,-0.1757812 0,-0.3867187 -0.3515625,-0.3867187 -0.328125,0 -0.3398437,0.2109375 -0.3398437,0.375 -0.011719,0.6210937 -0.5742188,0.7148437 -0.8085938,0.7148437 -0.7617187,0 -0.7617187,-0.515625 -0.7617187,-0.7617187 z m 5.2294921,1.8398438 c 0,-0.9375 0.585938,-1.8984375 1.792969,-1.8984375 0.01172,0.2460937 0.175781,0.4453125 0.421875,0.4453125 0.222656,0 0.421875,-0.1640625 0.421875,-0.4335938 0,-0.1992187 -0.117188,-0.609375 -0.949219,-0.609375 -0.503906,0 -1.148437,0.1757813 -1.6875,0.796875 v -0.3398437 c 0,-0.3046875 -0.05859,-0.3984375 -0.398437,-0.3984375 h -1.101563 c -0.152344,0 -0.398437,0 -0.398437,0.2929687 0,0.3046875 0.246093,0.3046875 0.398437,0.3046875 h 0.808594 v 3.08203125 h -0.808594 c -0.152344,0 -0.398437,0 -0.398437,0.3046875 0,0.3046875 0.246093,0.3046875 0.398437,0.3046875 h 2.601563 c 0.152343,0 0.410156,0 0.410156,-0.3046875 0,-0.3046875 -0.257813,-0.3046875 -0.410156,-0.3046875 h -1.101563 z m 5.967774,-3.8320313 c 0,-0.3046875 -0.05859,-0.3984375 -0.398438,-0.3984375 h -1.570312 c -0.152344,0 -0.410157,0 -0.410157,0.3046875 0,0.2929688 0.257813,0.2929688 0.398438,0.2929688 H 17.9635 v 4.87499995 h -1.289062 c -0.152344,0 -0.410157,0 -0.410157,0.3046875 0,0.3046875 0.257813,0.3046875 0.398438,0.3046875 h 3.28125 c 0.152344,0 0.398437,0 0.398437,-0.3046875 0,-0.3046875 -0.234375,-0.3046875 -0.398437,-0.3046875 h -1.300781 z m 0,0"
         style="fill:#000000;fill-opacity:1;fill-rule:nonzero;stroke:none" />
      <path
         id="path27"
         d="m -1.2728281,5.2047109 h -0.1992188 c -0.5859375,0.609375 -1.4179687,0.6328125 -1.8867187,0.65625 v 0.5742188 c 0.328125,-0.011719 0.8085937,-0.023437 1.3007812,-0.234375 v 5.1796873 h -1.2421875 v 0.574219 h 3.26953128 V 11.380492 H -1.2728281 Z m 6.5507812,3.5039063 c 0,-0.7851563 -0.035156,-1.7109375 -0.4570312,-2.5195313 -0.3984375,-0.75 -1.0898438,-0.984375 -1.59375,-0.984375 -0.5976563,0 -1.2890625,0.2695313 -1.6992188,1.1484375 -0.328125,0.7265625 -0.375,1.5585938 -0.375,2.3554688 0,0.7851562 0.035156,1.5117188 0.3398438,2.2382808 0.3984375,0.960938 1.1484375,1.230469 1.7226562,1.230469 0.7265625,0 1.3476563,-0.410156 1.6640625,-1.101562 C 5.1842031,10.431273 5.2779531,9.7750234 5.2779531,8.7086172 Z M 3.2271719,11.567992 c -0.5273438,0 -0.9375,-0.375 -1.1367188,-1.101562 C 1.9381094,9.9039297 1.9263906,9.3648672 1.9263906,8.5914297 c 0,-0.6328125 0,-1.2304688 0.1640625,-1.78125 0.070312,-0.1875 0.3164063,-0.9960938 1.125,-0.9960938 0.7734375,0 1.03125,0.75 1.1015625,0.9257813 0.1875,0.5625 0.1875,1.2304687 0.1875,1.8515625 0,0.65625 0,1.2773437 -0.1757812,1.9101563 -0.2578125,0.902344 -0.7851563,1.066406 -1.1015625,1.066406 z m 0,0"
         style="fill:#000000;fill-opacity:1;fill-rule:nonzero;stroke:none" />
    </g>
    <path
       id="path28"
       d="m 435.82484,30.27505 h -64.67366 c -2.75117,0 -4.98138,-2.2302 -4.98138,-4.98138 V 10.57161 c 0,-2.75118 2.23021,-4.98138 4.98138,-4.98138 h 64.67366 c 2.75118,0 4.98139,2.2302 4.98139,4.98138 v 14.72206 c 0,2.75118 -2.23021,4.98138 -4.98139,4.98138 z"
       style="fill:#fef5d1;fill-opacity:1;fill-rule:nonzero;stroke:#f8cc1b;stroke-width:0.3985;stroke-linecap:butt;stroke-linejoin:miter;stroke-miterlimit:10;stroke-dasharray:none;stroke-opacity:1"
       transform="matrix(1.3333333,0,0,-1.3333333,27.757333,89.12)" />
    <g
       id="g28"
       aria-label="graphicstask&#10;10"
       transform="matrix(1.3333333,0,0,1.3333333,520.40533,61.298667)">
      <path
         id="path29"
         d="m 2.321,-1.7591562 c -0.5390625,0 -0.9609375,-0.46875 -0.9609375,-0.9960938 0,-0.5625 0.4453125,-0.9960937 0.9609375,-0.9960937 0.5390625,0 0.9609375,0.4570312 0.9609375,0.9960937 0,0.5625 -0.4453125,0.9960938 -0.9609375,0.9960938 z M 1.430375,-1.4075937 C 1.4538125,-1.3841562 1.8288125,-1.1615 2.321,-1.1615 c 0.9140625,0 1.640625,-0.7148437 1.640625,-1.59375 0,-0.3046875 -0.082031,-0.5976562 -0.2578125,-0.8671875 C 3.91475,-3.7513437 4.149125,-3.7865 4.28975,-3.7982187 4.348344,-3.5286875 4.571,-3.458375 4.6764688,-3.458375 c 0.1640625,0 0.3984375,-0.1171875 0.3984375,-0.4101562 0,-0.2226563 -0.1875,-0.5390625 -0.7265625,-0.5390625 -0.1171875,0 -0.5976563,0.011719 -1.0546875,0.3515625 C 3.1295938,-4.1615 2.7780313,-4.349 2.321,-4.349 c -0.9375,0 -1.640625,0.7382813 -1.640625,1.59375 0,0.421875 0.1640625,0.75 0.31640625,0.9375 -0.10546875,0.1640625 -0.19921875,0.3867188 -0.19921875,0.6796875 0,0.3515625 0.140625,0.59765625 0.234375,0.71484375 -0.73828125,0.45703125 -0.73828125,1.125 -0.73828125,1.2421875 0,0.85546875 1.04296875,1.46484375 2.32031255,1.46484375 1.2773437,0 2.3203125,-0.6210937 2.3203125,-1.46484375 0,-0.375 -0.1875,-0.8671875 -0.6914063,-1.13671875 C 4.1139688,-0.3880625 3.6920938,-0.61071875 2.8014688,-0.61071875 h -0.703125 c -0.070312,0 -0.1992188,0 -0.28125,-0.0234375 -0.1523438,0 -0.2109375,0 -0.328125,-0.12890625 -0.1171875,-0.140625 -0.1289063,-0.3398437 -0.1289063,-0.3632812 0,-0.035156 0.023437,-0.1757813 0.070312,-0.28125 z m 1.1835938,3.09375 c -0.9960938,0 -1.7460938,-0.4335938 -1.7460938,-0.86718755 0,-0.1875 0.09375,-0.50390625 0.4101563,-0.703125 C 1.524125,-0.0365 1.617875,-0.0365 2.3444375,-0.0365 c 0.8789063,0 2.0039063,0 2.0039063,0.85546875 0,0.43359375 -0.7382813,0.86718755 -1.734375,0.86718755 z m 4.8310546,-3.5390625 c 0,-0.9375 0.5859375,-1.8984375 1.7929688,-1.8984375 0.011719,0.2460937 0.1757812,0.4453125 0.421875,0.4453125 0.2226562,0 0.4218748,-0.1640625 0.4218748,-0.4335938 0,-0.1992187 -0.1171873,-0.609375 -0.9492186,-0.609375 -0.5039062,0 -1.1484375,0.1757813 -1.6875,0.796875 v -0.3398437 c 0,-0.3046875 -0.058594,-0.3984375 -0.3984375,-0.3984375 H 5.9450234 c -0.1523437,0 -0.3984375,0 -0.3984375,0.2929687 0,0.3046875 0.2460938,0.3046875 0.3984375,0.3046875 h 0.8085938 v 3.08203125 H 5.9450234 c -0.1523437,0 -0.3984375,0 -0.3984375,0.3046875 0,0.3046875 0.2460938,0.3046875 0.3984375,0.3046875 h 2.6015625 c 0.1523438,0 0.4101563,0 0.4101563,-0.3046875 0,-0.3046875 -0.2578125,-0.3046875 -0.4101563,-0.3046875 H 7.4450234 Z M 14.104203,-0.31775 c 0.222656,0.3046875 0.703125,0.31640625 1.078125,0.31640625 0.28125,0 0.492188,0 0.492188,-0.3046875 0,-0.3046875 -0.246094,-0.3046875 -0.398438,-0.3046875 -0.410156,0 -0.515625,-0.046875 -0.597656,-0.0820313 V -2.8372812 c 0,-0.7148439 -0.527344,-1.546875 -1.96875,-1.546875 -0.421875,0 -1.441406,0 -1.441406,0.7265624 0,0.3046875 0.210937,0.4570312 0.445312,0.4570312 0.152344,0 0.433594,-0.09375 0.445313,-0.4570312 0,-0.082031 0,-0.09375 0.199218,-0.1054688 0.140625,-0.011719 0.269532,-0.011719 0.363282,-0.011719 0.761718,0 1.277343,0.3046875 1.277343,1.0195313 -1.769531,0.023437 -2.988281,0.5273438 -2.988281,1.4765625 0,0.6914062 0.621094,1.33593745 1.640625,1.33593745 0.363281,0 0.984375,-0.0703125 1.453125,-0.37499965 z m -0.105469,-1.8515625 v 0.8320313 c 0,0.234375 0,0.4335937 -0.386718,0.6210937 -0.363282,0.1640625 -0.808594,0.1640625 -0.890625,0.1640625 -0.621094,0 -1.03125,-0.33984375 -1.03125,-0.7265625 0,-0.4804687 0.867187,-0.8554687 2.308593,-0.890625 z m 3.345704,-0.4570312 c 0,-0.5976563 0.574218,-1.125 1.207031,-1.125 0.738281,0 1.3125,0.7265625 1.3125,1.59375 0,0.9609375 -0.691406,1.6054687 -1.394531,1.6054687 -0.773438,0 -1.125,-0.8789062 -1.125,-1.3476562 z m 0,2.17968745 C 17.754594,-0.0365 18.188188,0.05725 18.504594,0.05725 c 1.078125,0 2.050781,-0.94921875 2.050781,-2.2148437 0,-1.21875 -0.890625,-2.1914063 -1.945312,-2.1914063 -0.480469,0 -0.925782,0.1757813 -1.265625,0.4804688 0,-0.28125 -0.02344,-0.421875 -0.398438,-0.421875 h -0.726562 c -0.164063,0 -0.410157,0 -0.410157,0.3046875 0,0.2929687 0.257813,0.2929687 0.398438,0.2929687 h 0.445312 v 5.296875 h -0.433593 c -0.164063,0 -0.410157,0 -0.410157,0.3046875 0,0.3046875 0.257813,0.3046875 0.398438,0.3046875 h 1.582031 c 0.140625,0 0.398438,0 0.398438,-0.3046875 0,-0.3046875 -0.246094,-0.3046875 -0.398438,-0.3046875 h -0.445312 z m 7.831054,-2.47265625 c 0,-1.0078125 -0.503906,-1.4296875 -1.300781,-1.4296875 -0.65625,0 -1.113281,0.328125 -1.300781,0.5273438 v -1.8632813 c 0,-0.3046875 -0.05859,-0.3984375 -0.398438,-0.3984375 H 21.44893 c -0.164063,0 -0.410157,0 -0.410157,0.3046875 0,0.2929688 0.257813,0.2929688 0.398438,0.2929688 h 0.445312 v 4.87499995 H 21.44893 c -0.164063,0 -0.410157,0 -0.410157,0.3046875 0,0.3046875 0.257813,0.3046875 0.398438,0.3046875 h 1.582031 c 0.140625,0 0.398438,0 0.398438,-0.3046875 0,-0.3046875 -0.246094,-0.3046875 -0.398438,-0.3046875 H 22.57393 V -2.3685312 c 0,-0.9960938 0.738281,-1.3828125 1.242187,-1.3828125 0.527344,0 0.667969,0.28125 0.667969,0.8789062 v 2.26171875 h -0.386719 c -0.152344,0 -0.410156,0 -0.410156,0.3046875 0,0.3046875 0.269531,0.3046875 0.410156,0.3046875 h 1.523438 c 0.140625,0 0.398437,0 0.398437,-0.3046875 0,-0.3046875 -0.246094,-0.3046875 -0.410156,-0.3046875 h -0.433594 z m 4.057617,-0.9726562 c 0,-0.3046875 -0.05859,-0.3984375 -0.398437,-0.3984375 h -1.417969 c -0.152344,0 -0.410156,0 -0.410156,0.2929687 0,0.3046875 0.257812,0.3046875 0.410156,0.3046875 h 1.125 v 3.08203125 h -1.207031 c -0.152344,0 -0.410156,0 -0.410156,0.3046875 0,0.3046875 0.257812,0.3046875 0.410156,0.3046875 h 2.941406 c 0.152344,0 0.410156,0 0.410156,-0.3046875 0,-0.3046875 -0.257812,-0.3046875 -0.410156,-0.3046875 h -1.042969 z m 0,-1.7109375 c 0,-0.28125 -0.222656,-0.4921875 -0.503906,-0.4921875 -0.28125,0 -0.492187,0.2109375 -0.492187,0.4921875 0,0.28125 0.210937,0.5039062 0.492187,0.5039062 0.28125,0 0.503906,-0.2226562 0.503906,-0.5039062 z m 6.791016,4.5117187 c 0,-0.2695312 -0.292969,-0.2695312 -0.351562,-0.2695312 -0.152344,0 -0.257813,0.011719 -0.328125,0.2109375 -0.05859,0.1289062 -0.246094,0.5976562 -0.984375,0.5976562 -0.84375,0 -1.558594,-0.6914062 -1.558594,-1.6054687 0,-0.46875 0.28125,-1.6171875 1.617187,-1.6171875 0.210938,0 0.597657,0 0.597657,0.082031 0.01172,0.3515625 0.199218,0.4921875 0.445312,0.4921875 0.234375,0 0.445313,-0.1640625 0.445313,-0.4570312 0,-0.7265625 -1.03125,-0.7265625 -1.488282,-0.7265625 -1.710937,0 -2.308593,1.359375 -2.308593,2.2265625 0,1.19531245 0.9375,2.2148437 2.191406,2.2148437 1.382812,0 1.722656,-0.97265625 1.722656,-1.1484373 z m 3.553711,-1.453125 C 39.35518,-2.5794687 39.155961,-2.614625 38.909867,-2.6615 c -0.292969,-0.035156 -0.972656,-0.1640625 -0.972656,-0.5507812 0,-0.2578125 0.316406,-0.5625 1.265625,-0.5625 0.832031,0 0.960937,0.2929687 0.996094,0.5507812 0.01172,0.1757813 0.03516,0.3398438 0.339843,0.3398438 0.351563,0 0.351563,-0.2109375 0.351563,-0.4101563 V -3.974 c 0,-0.1640625 0,-0.4101562 -0.304688,-0.4101562 -0.234375,0 -0.28125,0.140625 -0.292968,0.2109375 -0.445313,-0.2109375 -0.878907,-0.2109375 -1.066407,-0.2109375 -1.664062,0 -1.898437,0.8203125 -1.898437,1.171875 0,0.9140625 1.042969,1.0898437 1.96875,1.2304687 0.480469,0.082031 1.277344,0.2109375 1.277344,0.7382813 0,0.3632812 -0.363282,0.6914062 -1.265625,0.6914062 -0.46875,0 -1.03125,-0.10546875 -1.277344,-0.8789062 -0.05859,-0.1875 -0.09375,-0.2929688 -0.351563,-0.2929688 -0.351562,0 -0.351562,0.2109375 -0.351562,0.4101563 v 0.96093745 c 0,0.1640625 0,0.41015625 0.304687,0.41015625 0.08203,0 0.246094,-0.01171875 0.363282,-0.375 0.492187,0.3515625 1.019531,0.375 1.300781,0.375 1.570312,0 1.886719,-0.8203125 1.886719,-1.3007812 0,-1.0429688 -1.277344,-1.2539063 -1.605469,-1.3007813 z M 49.28682,-3.69275 h 1.628907 c 0.152343,0 0.398437,0 0.398437,-0.2929687 0,-0.3046875 -0.234375,-0.3046875 -0.398437,-0.3046875 H 49.28682 v -0.8203125 c 0,-0.1875 0,-0.4101563 -0.339843,-0.4101563 -0.351563,0 -0.351563,0.2109375 -0.351563,0.4101563 v 0.8203125 h -0.867187 c -0.152344,0 -0.410157,0 -0.410157,0.3046875 0,0.2929687 0.257813,0.2929687 0.398438,0.2929687 h 0.878906 v 2.4375 c 0,0.94921875 0.679688,1.3125 1.40625,1.3125 0.738281,0 1.546875,-0.421875 1.546875,-1.3125 0,-0.1757812 0,-0.3867187 -0.351562,-0.3867187 -0.328125,0 -0.339844,0.2109375 -0.339844,0.375 -0.01172,0.6210937 -0.574219,0.7148437 -0.808594,0.7148437 -0.761719,0 -0.761719,-0.515625 -0.761719,-0.7617187 z m 6.66211,3.375 c 0.222656,0.3046875 0.703125,0.31640625 1.078125,0.31640625 0.28125,0 0.492187,0 0.492187,-0.3046875 0,-0.3046875 -0.246094,-0.3046875 -0.398437,-0.3046875 -0.410157,0 -0.515625,-0.046875 -0.597657,-0.0820313 V -2.8372813 c 0,-0.7148438 -0.527343,-1.5468749 -1.96875,-1.5468749 -0.421875,0 -1.441406,0 -1.441406,0.7265624 0,0.3046875 0.210938,0.4570312 0.445313,0.4570312 0.152343,0 0.433593,-0.09375 0.445312,-0.4570312 0,-0.082031 0,-0.09375 0.199219,-0.1054688 0.140625,-0.011719 0.269531,-0.011719 0.363281,-0.011719 0.761719,0 1.277344,0.3046875 1.277344,1.0195313 -1.769531,0.023437 -2.988281,0.5273438 -2.988281,1.4765625 0,0.6914062 0.621093,1.33593745 1.640625,1.33593745 0.363281,0 0.984375,-0.0703125 1.453125,-0.37499965 z m -0.105469,-1.8515625 v 0.8320313 c 0,0.234375 0,0.4335937 -0.386719,0.6210937 -0.363281,0.1640625 -0.808594,0.1640625 -0.890625,0.1640625 -0.621094,0 -1.03125,-0.33984375 -1.03125,-0.7265625 0,-0.4804687 0.867188,-0.8554687 2.308594,-0.890625 z m 4.655273,-0.375 c -0.222656,-0.035156 -0.421875,-0.070312 -0.667968,-0.1171875 -0.292969,-0.035156 -0.972657,-0.1640625 -0.972657,-0.5507812 0,-0.2578125 0.316407,-0.5625 1.265625,-0.5625 0.832032,0 0.960938,0.2929687 0.996094,0.5507812 0.01172,0.1757813 0.03516,0.3398438 0.339844,0.3398438 0.351562,0 0.351562,-0.2109375 0.351562,-0.4101563 V -3.974 c 0,-0.1640625 0,-0.4101562 -0.304687,-0.4101562 -0.234375,0 -0.28125,0.140625 -0.292969,0.2109375 -0.445312,-0.2109375 -0.878906,-0.2109375 -1.066406,-0.2109375 -1.664063,0 -1.898438,0.8203125 -1.898438,1.171875 0,0.9140625 1.042969,1.0898437 1.96875,1.2304687 0.480469,0.082031 1.277344,0.2109375 1.277344,0.7382813 0,0.3632812 -0.363281,0.6914062 -1.265625,0.6914062 -0.46875,0 -1.03125,-0.10546875 -1.277344,-0.8789062 -0.05859,-0.1875 -0.09375,-0.2929688 -0.351562,-0.2929688 -0.351563,0 -0.351563,0.2109375 -0.351563,0.4101563 v 0.96093745 c 0,0.1640625 0,0.41015625 0.304688,0.41015625 0.08203,0 0.246094,-0.01171875 0.363281,-0.375 0.492188,0.3515625 1.019531,0.375 1.300781,0.375 1.570313,0 1.886719,-0.8203125 1.886719,-1.3007812 0,-1.0429688 -1.277344,-1.2539063 -1.605469,-1.3007813 z m 5.124024,0 1.230469,-1.1484375 h 0.339843 c 0.152344,0 0.410157,0 0.410157,-0.2929687 0,-0.3046875 -0.257813,-0.3046875 -0.410157,-0.3046875 h -1.535156 c -0.152344,0 -0.398437,0 -0.398437,0.3046875 0,0.2929687 0.257812,0.2929687 0.398437,0.2929687 h 0.375 l -1.617187,1.5234375 v -3.515625 c 0,-0.3046875 -0.05859,-0.3984375 -0.398438,-0.3984375 h -0.644531 c -0.152344,0 -0.398438,0 -0.398438,0.2929688 0,0.3046875 0.234375,0.3046875 0.398438,0.3046875 h 0.492187 v 4.87499995 h -0.492187 c -0.152344,0 -0.398438,0 -0.398438,0.3046875 0,0.3046875 0.234375,0.3046875 0.398438,0.3046875 h 1.535156 c 0.152344,0 0.398438,0 0.398438,-0.3046875 0,-0.3046875 -0.246094,-0.3046875 -0.398438,-0.3046875 H 64.415727 V -1.4193125 l 0.796875,-0.7382812 1.183593,1.54687495 c -0.351562,0 -0.550781,0 -0.550781,0.3046875 0,0.3046875 0.246094,0.3046875 0.398438,0.3046875 h 1.171875 c 0.152343,0 0.410156,0 0.410156,-0.3046875 0,-0.3046875 -0.257813,-0.3046875 -0.410156,-0.3046875 h -0.304688 z m 0,0"
         style="fill:#000000;fill-opacity:1;fill-rule:nonzero;stroke:none" />
      <path
         id="path30"
         d="m 31.992875,5.2047109 h -0.199219 c -0.585937,0.609375 -1.417968,0.6328125 -1.886718,0.65625 v 0.5742188 c 0.328125,-0.011719 0.808593,-0.023437 1.300781,-0.234375 v 5.1796873 h -1.242188 v 0.574219 h 3.269532 v -0.574219 h -1.242188 z m 6.550781,3.5039063 c 0,-0.7851563 -0.03516,-1.7109375 -0.457031,-2.5195313 -0.398437,-0.75 -1.089844,-0.984375 -1.59375,-0.984375 -0.597656,0 -1.289062,0.2695313 -1.699219,1.1484375 -0.328125,0.7265625 -0.375,1.5585938 -0.375,2.3554688 0,0.7851562 0.03516,1.5117188 0.339844,2.2382808 0.398438,0.960938 1.148438,1.230469 1.722656,1.230469 0.726563,0 1.347657,-0.410156 1.664063,-1.101562 0.304687,-0.644532 0.398437,-1.3007816 0.398437,-2.3671878 z m -2.050781,2.8593748 c -0.527344,0 -0.9375,-0.375 -1.136719,-1.101562 -0.152343,-0.5625003 -0.164062,-1.1015628 -0.164062,-1.8750003 0,-0.6328125 0,-1.2304688 0.164062,-1.78125 0.07031,-0.1875 0.316407,-0.9960938 1.125,-0.9960938 0.773438,0 1.03125,0.75 1.101563,0.9257813 0.1875,0.5625 0.1875,1.2304687 0.1875,1.8515625 0,0.65625 0,1.2773437 -0.175781,1.9101563 -0.257813,0.902344 -0.785157,1.066406 -1.101563,1.066406 z m 0,0"
         style="fill:#000000;fill-opacity:1;fill-rule:nonzero;stroke:none" />
    </g>
    <path
       id="path31"
       d="m 317.03444,66.14084 h -42.28749 c -2.75118,0 -4.98139,-2.23021 -4.98139,-4.98139 V 46.4374 c 0,-2.75118 2.23021,-4.98139 4.98139,-4.98139 h 42.28749 c 2.75117,0 4.98138,2.23021 4.98138,4.98139 v 14.72205 c 0,2.75118 -2.23021,4.98139 -4.98138,4.98139 z"
       style="fill:#cce5dc;fill-opacity:1;fill-rule:nonzero;stroke:#007f4e;stroke-width:0.3985;stroke-linecap:butt;stroke-linejoin:miter;stroke-miterlimit:10;stroke-dasharray:none;stroke-opacity:1"
       transform="matrix(1.3333333,0,0,-1.3333333,27.757333,89.12)" />
    <path
       id="path32"
       d="m 2.9642344,-2.5416172 c -0.2226563,-0.035156 -0.421875,-0.070312 -0.6679688,-0.1171875 -0.2929687,-0.035156 -0.9726562,-0.1640625 -0.9726562,-0.5507812 0,-0.2578125 0.3164062,-0.5625 1.265625,-0.5625 0.8320312,0 0.9609375,0.2929687 0.9960937,0.5507812 0.011719,0.1757813 0.035156,0.3398438 0.3398438,0.3398438 0.3515625,0 0.3515625,-0.2109375 0.3515625,-0.4101563 v -0.6796875 c 0,-0.1640625 0,-0.4101562 -0.3046875,-0.4101562 -0.234375,0 -0.28125,0.140625 -0.2929688,0.2109375 -0.4453125,-0.2109375 -0.8789062,-0.2109375 -1.0664062,-0.2109375 -1.66406252,0 -1.89843752,0.8203125 -1.89843752,1.171875 0,0.9140625 1.04296872,1.0898437 1.96875002,1.2304687 0.4804687,0.082031 1.2773437,0.2109375 1.2773437,0.7382813 0,0.36328121 -0.3632812,0.69140621 -1.265625,0.69140621 -0.46875,0 -1.03125,-0.10546875 -1.2773437,-0.87890621 -0.058594,-0.1875 -0.09375,-0.2929688 -0.3515625,-0.2929688 -0.35156252,0 -0.35156252,0.2109375 -0.35156252,0.4101563 v 0.96093746 c 0,0.1640625 0,0.41015625 0.30468752,0.41015625 0.082031,0 0.2460937,-0.01171875 0.3632812,-0.375 0.4921875,0.3515625 1.0195313,0.375 1.3007813,0.375 1.5703125,0 1.8867187,-0.8203125 1.8867187,-1.30078121 0,-1.0429688 -1.2773437,-1.2539063 -1.6054687,-1.3007813 z m 4.4824219,0.6914063 c 0,-0.9375 0.5859375,-1.8984375 1.7929687,-1.8984375 0.011719,0.2460937 0.1757813,0.4453125 0.421875,0.4453125 0.2226563,0 0.421875,-0.1640625 0.421875,-0.4335938 0,-0.1992187 -0.1171875,-0.609375 -0.9492187,-0.609375 -0.5039063,0 -1.1484375,0.1757813 -1.6875,0.796875 v -0.3398437 c 0,-0.3046875 -0.058594,-0.3984375 -0.3984375,-0.3984375 H 5.9466563 c -0.1523438,0 -0.3984375,0 -0.3984375,0.2929687 0,0.3046875 0.2460937,0.3046875 0.3984375,0.3046875 H 6.75525 v 3.08203126 H 5.9466563 c -0.1523438,0 -0.3984375,0 -0.3984375,0.3046875 0,0.3046875 0.2460937,0.3046875 0.3984375,0.3046875 h 2.6015625 c 0.1523437,0 0.4101562,0 0.4101562,-0.3046875 0,-0.3046875 -0.2578125,-0.3046875 -0.4101562,-0.3046875 H 7.4466563 Z m 6.6591797,1.53515621 c 0.222656,0.3046875 0.703125,0.31640625 1.078125,0.31640625 0.28125,0 0.492187,0 0.492187,-0.3046875 0,-0.3046875 -0.246093,-0.3046875 -0.398437,-0.3046875 -0.410156,0 -0.515625,-0.046875 -0.597656,-0.0820313 V -2.8345859 c 0,-0.7148438 -0.527344,-1.546875 -1.96875,-1.546875 -0.421875,0 -1.441407,0 -1.441407,0.7265625 0,0.3046875 0.210938,0.4570312 0.445313,0.4570312 0.152344,0 0.433594,-0.09375 0.445312,-0.4570312 0,-0.082031 0,-0.09375 0.199219,-0.1054688 0.140625,-0.011719 0.269531,-0.011719 0.363281,-0.011719 0.761719,0 1.277344,0.3046875 1.277344,1.0195312 -1.769531,0.023437 -2.988281,0.5273438 -2.988281,1.4765625 0,0.69140626 0.621094,1.33593751 1.640625,1.33593751 0.363281,0 0.984375,-0.0703125 1.453125,-0.3749997 z M 14.000367,-2.1666172 v 0.8320313 c 0,0.234375 0,0.43359371 -0.386719,0.62109371 -0.363281,0.1640625 -0.808593,0.1640625 -0.890625,0.1640625 -0.621093,0 -1.03125,-0.33984375 -1.03125,-0.72656251 0,-0.4804687 0.867188,-0.8554687 2.308594,-0.890625 z m 2.780274,-1.828125 c -0.02344,-0.2929687 -0.222657,-0.2929687 -0.398438,-0.2929687 h -0.328125 c -0.140625,0 -0.398437,0 -0.398437,0.2929687 0,0.3046875 0.199218,0.3046875 0.5625,0.3046875 v 3.08203126 c -0.363282,0 -0.5625,0 -0.5625,0.3046875 0,0.3046875 0.269531,0.3046875 0.398437,0.3046875 h 0.878906 c 0.152344,0 0.410157,0 0.410157,-0.3046875 0,-0.3046875 -0.210938,-0.3046875 -0.5625,-0.3046875 V -2.3892734 c 0,-0.890625 0.410156,-1.359375 0.808593,-1.359375 0.234375,0 0.375,0.1757812 0.375,0.8203125 v 2.32031246 c -0.1875,0 -0.445312,0 -0.445312,0.3046875 0,0.3046875 0.269531,0.3046875 0.410156,0.3046875 h 0.75 c 0.152344,0 0.410156,0 0.410156,-0.3046875 0,-0.3046875 -0.210937,-0.3046875 -0.574218,-0.3046875 V -2.3892734 c 0,-0.890625 0.410156,-1.359375 0.820312,-1.359375 0.234375,0 0.375,0.1757812 0.375,0.8203125 v 2.32031246 c -0.199219,0 -0.445312,0 -0.445312,0.3046875 0,0.3046875 0.269531,0.3046875 0.410156,0.3046875 h 0.75 c 0.152344,0 0.410156,0 0.410156,-0.3046875 0,-0.3046875 -0.210937,-0.3046875 -0.574219,-0.3046875 V -3.0220859 c 0,-0.1992188 0,-1.3242188 -0.878906,-1.3242188 -0.304687,0 -0.714844,0.1289063 -0.996094,0.515625 -0.140625,-0.3398437 -0.421875,-0.515625 -0.75,-0.515625 -0.316406,0 -0.621093,0.1289063 -0.855468,0.3515625 z m 0,0"
       style="fill:#000000;fill-opacity:1;fill-rule:nonzero;stroke:none"
       aria-label="sram"
       transform="matrix(1.3333333,0,0,1.3333333,391.868,13.478667)" />
    <path
       id="path33"
       d="M 0,0 H 3.138"
       style="fill:none;stroke:#000000;stroke-width:0.398;stroke-linecap:butt;stroke-linejoin:miter;stroke-miterlimit:10;stroke-dasharray:none;stroke-opacity:1"
       transform="matrix(1.3333333,0,0,-1.3333333,420.6,13.212)" />
    <g
       id="g33"
       aria-label="ctrl&#10;5"
       transform="matrix(1.3333333,0,0,1.3333333,424.784,13.478667)">
      <path
         id="path34"
         d="m 4.6414922,-1.0884922 c 0,-0.2695312 -0.2929688,-0.2695312 -0.3515625,-0.2695312 -0.1523438,0 -0.2578125,0.011719 -0.328125,0.2109375 -0.058594,0.1289062 -0.2460938,0.59765621 -0.984375,0.59765621 -0.84375,0 -1.5585938,-0.69140621 -1.5585938,-1.60546871 0,-0.46875 0.28125,-1.6171875 1.6171875,-1.6171875 0.2109375,0 0.5976563,0 0.5976563,0.082031 0.011719,0.3515625 0.1992187,0.4921875 0.4453125,0.4921875 0.234375,0 0.4453125,-0.1640625 0.4453125,-0.4570312 0,-0.7265625 -1.03125,-0.7265625 -1.4882813,-0.7265625 -1.7109375,0 -2.30859371,1.359375 -2.30859371,2.2265625 0,1.19531246 0.93750001,2.21484371 2.19140621,2.21484371 1.3828125,0 1.7226563,-0.97265625 1.7226563,-1.14843731 z m 2.8037109,-2.6015625 h 1.6289063 c 0.1523437,0 0.3984375,0 0.3984375,-0.2929687 0,-0.3046875 -0.234375,-0.3046875 -0.3984375,-0.3046875 H 7.4452031 v -0.8203125 c 0,-0.1875 0,-0.4101563 -0.3398437,-0.4101563 -0.3515625,0 -0.3515625,0.2109375 -0.3515625,0.4101563 v 0.8203125 H 5.8866094 c -0.1523438,0 -0.4101563,0 -0.4101563,0.3046875 0,0.2929687 0.2578125,0.2929687 0.3984375,0.2929687 h 0.8789063 v 2.4375 c 0,0.94921876 0.6796875,1.31250001 1.40625,1.31250001 0.7382812,0 1.546875,-0.421875 1.546875,-1.31250001 0,-0.1757812 0,-0.3867187 -0.3515625,-0.3867187 -0.328125,0 -0.3398438,0.2109375 -0.3398438,0.375 -0.011719,0.62109371 -0.5742187,0.71484371 -0.8085937,0.71484371 -0.7617188,0 -0.7617188,-0.51562501 -0.7617188,-0.76171871 z m 5.2294919,1.8398438 c 0,-0.9375 0.585938,-1.8984375 1.792969,-1.8984375 0.01172,0.2460937 0.175781,0.4453125 0.421875,0.4453125 0.222656,0 0.421875,-0.1640625 0.421875,-0.4335938 0,-0.1992187 -0.117187,-0.609375 -0.949219,-0.609375 -0.503906,0 -1.148437,0.1757813 -1.6875,0.796875 v -0.3398437 c 0,-0.3046875 -0.05859,-0.3984375 -0.398437,-0.3984375 h -1.101563 c -0.152343,0 -0.398437,0 -0.398437,0.2929687 0,0.3046875 0.246094,0.3046875 0.398437,0.3046875 h 0.808594 v 3.08203126 h -0.808594 c -0.152343,0 -0.398437,0 -0.398437,0.3046875 0,0.3046875 0.246094,0.3046875 0.398437,0.3046875 h 2.601563 c 0.152344,0 0.410156,0 0.410156,-0.3046875 0,-0.3046875 -0.257812,-0.3046875 -0.410156,-0.3046875 h -1.101563 z m 5.970703,-3.8320313 c 0,-0.3046875 -0.05859,-0.3984375 -0.398437,-0.3984375 h -1.570313 c -0.152343,0 -0.410156,0 -0.410156,0.3046875 0,0.2929688 0.257813,0.2929688 0.398438,0.2929688 h 1.300781 v 4.87499996 h -1.289063 c -0.152343,0 -0.410156,0 -0.410156,0.3046875 0,0.3046875 0.257813,0.3046875 0.398438,0.3046875 h 3.28125 c 0.152343,0 0.398437,0 0.398437,-0.3046875 0,-0.3046875 -0.234375,-0.3046875 -0.398437,-0.3046875 h -1.300782 z m 0,0"
         style="fill:#000000;fill-opacity:1;fill-rule:nonzero;stroke:none" />
      <path
         id="path35"
         d="m -2.8497187,6.0599453 h 2.62499995 V 5.4154141 H -3.5645625 v 3.6796875 h 0.65625 C -2.74425,8.6966641 -2.36925,8.3099453 -1.7950312,8.3099453 c 0.46875,0 1.00781245,0.4101563 1.00781245,1.6054688 0,1.6523439 -1.21874995,1.6523439 -1.30078125,1.6523439 -0.6679687,0 -1.2773437,-0.386719 -1.5703125,-0.925781 l -0.328125,0.550781 c 0.4101563,0.574219 1.1015625,0.984375 1.9101563,0.984375 1.1835937,0 2.17968745,-0.984375 2.17968745,-2.2500002 0,-1.2421875 -0.85546875,-2.2265625 -1.88671875,-2.2265625 -0.3984375,0 -0.7734375,0.1523438 -1.0664062,0.4101563 z m 0,0"
         style="fill:#000000;fill-opacity:1;fill-rule:nonzero;stroke:none" />
    </g>
    <path
       id="path36"
       d="m 489.28867,-6.77985 h 43.58647 V 6.77986 h -43.58647 z"
       style="fill:#cceffc;fill-opacity:1;fill-rule:nonzero;stroke:#00adef;stroke-width:0.3985;stroke-linecap:butt;stroke-linejoin:miter;stroke-miterlimit:10;stroke-dasharray:none;stroke-opacity:1"
       transform="matrix(1.3333333,0,0,-1.3333333,27.757333,89.12)" />
    <path
       id="path37"
       d="M 1.829,-6.9152109 H 0.938375 v 6.91406246 h 4.03125 v -0.65625 c -0.8789063,0.0117188 -1.7695313,0.0234375 -2.6601563,0.0234375 H 1.829 Z m 6.5449219,0.1640625 H 8.1747031 c -0.5859375,0.609375 -1.4179687,0.6328125 -1.8867187,0.65625 v 0.5742187 c 0.328125,-0.011719 0.8085937,-0.023437 1.3007812,-0.234375 v 5.17968751 H 6.3465781 v 0.57421875 H 9.6161094 V -0.57536719 H 8.3739219 Z m 10.4296871,3.46875 v -0.609375 h -3.28125 v -2.3554688 h 1.371094 c 0.117188,0 0.234375,0.011719 0.351563,0.011719 h 1.828125 v -0.6445313 h -4.441407 v 6.87890626 h 4.582032 v -0.703125 h -1.253907 c -0.117187,0 -0.246093,0 -0.363281,0 H 15.522359 V -3.2823984 Z m 3.430664,0.9960937 1.828125,-2.1328125 h -0.820312 l -1.335938,1.640625 -1.371093,-1.640625 h -0.832032 l 1.875,2.1328125 -1.933593,2.28515626 h 0.820312 l 1.441406,-1.87499996 1.488282,1.87499996 h 0.832031 z m 5.976563,-0.5976562 c 0,-1.0078125 -0.726563,-1.7109375 -1.640625,-1.7109375 -0.644531,0 -1.101563,0.1640625 -1.570313,0.4335937 l 0.07031,0.65625 c 0.515625,-0.375 1.007812,-0.5039062 1.5,-0.5039062 0.46875,0 0.867187,0.3984375 0.867187,1.1367187 v 0.4335938 c -1.5,0.011719 -2.765625,0.4335937 -2.765625,1.3125 0,0.42187496 0.269532,1.23046871 1.136719,1.23046871 0.140625,0 1.078125,-0.01171875 1.652344,-0.46875 v 0.36328125 h 0.75 z m -0.773438,1.5703125 c 0,0.1875 0,0.43359371 -0.339843,0.62109371 -0.292969,0.1875 -0.667969,0.1875 -0.773438,0.1875 -0.480469,0 -0.925781,-0.22265625 -0.925781,-0.64453121 0,-0.6914063 1.605469,-0.7617188 2.039062,-0.7851563 z m 8.692383,-1.6523438 c 0,-0.6679687 -0.164062,-1.5703125 -1.359375,-1.5703125 -0.597656,0 -1.125,0.28125 -1.488281,0.8203125 -0.257813,-0.7617187 -0.960938,-0.8203125 -1.277344,-0.8203125 -0.714844,0 -1.183594,0.4101563 -1.453125,0.7734375 v -0.7265625 h -0.714844 v 4.48828126 H 30.61025 V -2.4386484 c 0,-0.6796875 0.269531,-1.4882813 1.007812,-1.4882813 0.925782,0 0.972657,0.6445313 0.972657,1.03125 v 2.89453126 h 0.785156 V -2.4386484 c 0,-0.6796875 0.269531,-1.4882813 0.996094,-1.4882813 0.9375,0 0.984375,0.6445313 0.984375,1.03125 v 2.89453126 h 0.773437 z m 0,0"
       style="fill:#000000;fill-opacity:1;fill-rule:nonzero;stroke:none"
       aria-label="L1Exam"
       transform="matrix(1.3333333,0,0,1.3333333,684.56133,93.732)" />
    <path
       id="path38"
       d="M 20.3181,0 C 31.41074,9.9099 39.86517,14.3647 53.90181,17.51108"
       style="fill:none;stroke:#000000;stroke-width:0.3985;stroke-linecap:butt;stroke-linejoin:miter;stroke-miterlimit:10;stroke-dasharray:none;stroke-opacity:1"
       transform="matrix(1.3333333,0,0,-1.3333333,27.757333,89.12)" />
    <path
       id="path39"
       d="M 1.99252,0 -1.19551,1.59401 0,0 -1.19551,-1.59401"
       style="fill:#000000;fill-opacity:1;fill-rule:nonzero;stroke:none"
       transform="matrix(1.3018133,-0.2878,-0.2878,-1.3018133,99.633427,65.783147)" />
    <path
       id="path40"
       d="M 20.3181,0 C 40.94206,-12.58514 55.63623,-17.08554 79.28099,-17.87535"
       style="fill:none;stroke:#000000;stroke-width:0.3985;stroke-linecap:butt;stroke-linejoin:miter;stroke-miterlimit:10;stroke-dasharray:none;stroke-opacity:1"
       transform="matrix(1.3333333,0,0,-1.3333333,27.757333,89.12)" />
    <path
       id="path41"
       d="M 1.99252,0 -1.19551,1.59401 0,0 -1.19551,-1.59401"
       style="fill:#000000;fill-opacity:1;fill-rule:nonzero;stroke:none"
       transform="matrix(1.3326267,0.04213333,0.04213333,-1.3326267,133.46497,112.94636)" />
    <path
       id="path42"
       d="m 133.92076,-17.93272 60.06873,7e-5"
       style="fill:none;stroke:#000000;stroke-width:0.3985;stroke-linecap:butt;stroke-linejoin:miter;stroke-miterlimit:10;stroke-dasharray:none;stroke-opacity:1"
       transform="matrix(1.3333333,0,0,-1.3333333,27.757333,89.12)" />
    <path
       id="path43"
       d="M 1.99252,0 -1.19551,1.59401 0,0 -1.19551,-1.59401"
       style="fill:#000000;fill-opacity:1;fill-rule:nonzero;stroke:none"
       transform="matrix(1.3333333,0,0,-1.3333333,286.40999,113.0302)" />
    <path
       id="path44"
       d="m 159.34044,17.93272 54.01398,-22.556"
       style="fill:none;stroke:#000000;stroke-width:0.3985;stroke-linecap:butt;stroke-linejoin:miter;stroke-miterlimit:10;stroke-dasharray:none;stroke-opacity:1"
       transform="matrix(1.3333333,0,0,-1.3333333,27.757333,89.12)" />
    <path
       id="path45"
       d="M 1.99252,0 -1.19551,1.59401 0,0 -1.19551,-1.59401"
       style="fill:#000000;fill-opacity:1;fill-rule:nonzero;stroke:none"
       transform="matrix(1.2303067,0.51374667,0.51374667,-1.2303067,312.22989,95.284347)" />
    <path
       id="path46"
       d="m 159.34044,17.93272 110.84862,-7e-5"
       style="fill:none;stroke:#000000;stroke-width:0.3985;stroke-linecap:butt;stroke-linejoin:miter;stroke-miterlimit:10;stroke-dasharray:none;stroke-opacity:1"
       transform="matrix(1.3333333,0,0,-1.3333333,27.757333,89.12)" />
    <path
       id="path47"
       d="M 1.99252,0 -1.19551,1.59401 0,0 -1.19551,-1.59401"
       style="fill:#000000;fill-opacity:1;fill-rule:nonzero;stroke:none"
       transform="matrix(1.3333333,0,0,-1.3333333,388.00941,65.2098)" />
    <path
       id="path48"
       d="m 319.59978,17.93265 44.37686,-8e-5"
       style="fill:none;stroke:#000000;stroke-width:0.3985;stroke-linecap:butt;stroke-linejoin:miter;stroke-miterlimit:10;stroke-dasharray:none;stroke-opacity:1"
       transform="matrix(1.3333333,0,0,-1.3333333,27.757333,89.12)" />
    <path
       id="path49"
       d="M 1.99252,0 -1.19551,1.59401 0,0 -1.19551,-1.59401"
       style="fill:#000000;fill-opacity:1;fill-rule:nonzero;stroke:none"
       transform="matrix(1.3333333,0,0,-1.3333333,513.05952,65.209907)" />
    <path
       id="path50"
       d="M 441.00381,17.93257 487.22073,0.6962"
       style="fill:none;stroke:#000000;stroke-width:0.3985;stroke-linecap:butt;stroke-linejoin:miter;stroke-miterlimit:10;stroke-dasharray:none;stroke-opacity:1"
       transform="matrix(1.3333333,0,0,-1.3333333,27.757333,89.12)" />
    <path
       id="path51"
       d="M 1.99252,0 -1.19551,1.59401 0,0 -1.19551,-1.59401"
       style="fill:#000000;fill-opacity:1;fill-rule:nonzero;stroke:none"
       transform="matrix(1.2492267,0.46588,0.46588,-1.2492267,677.38497,88.191733)" />
    <path
       id="path52"
       d="m 234.40396,-17.93265 h 161.396 L 489.08757,0"
       style="fill:none;stroke:#000000;stroke-width:0.3985;stroke-linecap:butt;stroke-linejoin:miter;stroke-miterlimit:10;stroke-dasharray:none;stroke-opacity:1"
       transform="matrix(1.3333333,0,0,-1.3333333,27.757333,89.12)" />
    <path
       id="path53"
       d="m 295.89069,30.47424 -9.3e-4,8.78986"
       style="fill:none;stroke:#000000;stroke-width:0.3985;stroke-linecap:butt;stroke-linejoin:miter;stroke-miterlimit:10;stroke-dasharray:none;stroke-opacity:1"
       transform="matrix(1.3333333,0,0,-1.3333333,27.757333,89.12)" />
    <path
       id="path54"
       d="M 1.99252,0 -1.19551,1.59401 0,0 -1.19551,-1.59401"
       style="fill:#000000;fill-opacity:1;fill-rule:nonzero;stroke:none"
       transform="matrix(-1.2e-4,-1.3333067,-1.3333067,1.2e-4,422.27703,36.767867)" />
    <path
       id="path55"
       d="m 107.59648,-30.47433 -4e-4,-8.78981"
       style="fill:none;stroke:#000000;stroke-width:0.3985;stroke-linecap:butt;stroke-linejoin:miter;stroke-miterlimit:10;stroke-dasharray:none;stroke-opacity:1"
       transform="matrix(1.3333333,0,0,-1.3333333,27.757333,89.12)" />
    <path
       id="path56"
       d="M 1.99252,0 -1.19551,1.59401 0,0 -1.19551,-1.59401"
       style="fill:#000000;fill-opacity:1;fill-rule:nonzero;stroke:none"
       transform="matrix(-2.6666667e-5,1.3333067,1.3333067,2.6666667e-5,171.2188,141.47219)" />
  </g>
</svg>
