<?xml version="1.0" encoding="UTF-8" standalone="no"?>
<!-- Created with Inkscape (http://www.inkscape.org/) -->

<svg
   version="1.1"
   id="svg1"
   width="763.49731"
   height="178.53467"
   viewBox="0 0 763.49731 178.53467"
   xmlns="http://www.w3.org/2000/svg"
   xmlns:svg="http://www.w3.org/2000/svg">
  <defs
     id="defs1" />
  <g
     id="g1">
    <path
       id="path1"
       d="M -29.88834,-12.45346 H 29.88835 V 12.45348 H -29.88834 Z"
       style="fill:#fbcce8;fill-opacity:1;fill-rule:nonzero;stroke:#ec008c;stroke-width:0.3985;stroke-linecap:butt;stroke-linejoin:miter;stroke-miterlimit:10;stroke-dasharray:none;stroke-opacity:1"
       transform="matrix(1.3333333,0,0,-1.3333333,40.782667,89.268)" />
    <path
       id="path2"
       d="m 1.8274375,-6.9148828 h -0.890625 v 6.9140624875 h 4.03125 V -0.65707031 c -0.8789063,0.0117188 -1.7695313,0.0234375 -2.6601563,0.0234375 H 1.8274375 Z m 7.6933594,4.734375 c 0,-0.3398438 -0.011719,-1.0898438 -0.3984375,-1.6875 -0.4101563,-0.6210938 -1.0195313,-0.7265625 -1.3710938,-0.7265625 -1.1132812,0 -2.0039062,1.0546875 -2.0039062,2.34375 0,1.31249999 0.9492187,2.35546874 2.1445312,2.35546874 0.6328125,0 1.1953125,-0.234375 1.59375,-0.515625 L 9.4153281,-1.0555078 c -0.6210937,0.51562499 -1.2773437,0.55078124 -1.5117187,0.55078124 -0.796875,0 -1.4296875,-0.70312504 -1.4648438,-1.67578124 z M 6.4973594,-2.7312891 c 0.1523437,-0.7617187 0.6796875,-1.2539062 1.2539062,-1.2539062 0.515625,0 1.0664063,0.3398437 1.1953125,1.2539062 z m 7.7695316,-1.6875 h -0.75 l -0.785157,2.0625 c -0.210937,0.5507813 -0.515625,1.35937504 -0.597656,1.82812504 h -0.01172 C 12.063766,-0.89144531 11.805953,-1.5711328 11.712203,-1.8406641 l -0.972656,-2.578125 H 9.9661094 l 1.7109376,4.4179687875 h 0.878906 z m 4.277343,2.2382813 c 0,-0.3398438 -0.01172,-1.0898438 -0.398437,-1.6875 -0.410156,-0.6210938 -1.019531,-0.7265625 -1.371094,-0.7265625 -1.113281,0 -2.003906,1.0546875 -2.003906,2.34375 0,1.31249999 0.949219,2.35546874 2.144531,2.35546874 0.632813,0 1.195313,-0.234375 1.59375,-0.515625 l -0.07031,-0.64453124 c -0.621094,0.51562499 -1.277344,0.55078124 -1.511719,0.55078124 -0.796875,0 -1.429688,-0.70312504 -1.464844,-1.67578124 z m -3.023437,-0.5507813 c 0.152344,-0.7617187 0.679687,-1.2539062 1.253906,-1.2539062 0.515625,0 1.066406,0.3398437 1.195313,1.2539062 z m 4.883789,-4.1835937 h -0.75 v 6.9140624875 h 0.75 z m 5.967773,0 h -0.890625 v 6.9140624875 h 0.890625 z m 6.09375,0 h -0.890625 v 6.9140624875 h 0.890625 z m 5.276368,3.9492187 c 0,-0.65625 -0.152344,-1.5703125 -1.371094,-1.5703125 -0.890625,0 -1.382813,0.6796875 -1.441406,0.7617188 V -4.4891016 H 34.215133 V -8.203125e-4 H 34.98857 V -2.4383203 c 0,-0.65625 0.246094,-1.4882813 1.007813,-1.4882813 0.960937,0 0.960937,0.703125 0.960937,1.03125 v 2.8945312875 h 0.785157 z m 2.557617,-0.8789062 h 1.40625 v -0.5742188 h -1.40625 v -1.265625 h -0.691406 v 1.265625 H 38.7415 v 0.5742188 h 0.84375 v 2.6601562 c 0,0.59765629 0.128906,1.28906254 0.820313,1.28906254 0.703125,0 1.207031,-0.24609375 1.453125,-0.375 l -0.152344,-0.5859375 c -0.257813,0.2109375 -0.585938,0.328125 -0.902344,0.328125 -0.363281,0 -0.503906,-0.3046875 -0.503906,-0.83203124 z m 3.410156,1.7109375 c 0,-0.9960938 0.726563,-1.7109375 1.699219,-1.734375 v -0.6679688 c -0.890625,0.011719 -1.429688,0.5039063 -1.746094,0.9609375 v -0.9140625 h -0.691406 v 4.4882812875 h 0.738281 z m 6.521484,-0.058594 c 0,-1.3359375 -0.996093,-2.4023437 -2.179687,-2.4023437 -1.230469,0 -2.191406,1.1015625 -2.191406,2.4023437 0,1.31250004 1.007812,2.29687504 2.179687,2.29687504 1.195313,0 2.191406,-1.0078125 2.191406,-2.29687504 z m -2.191406,1.66406254 c -0.691406,0 -1.40625,-0.56250004 -1.40625,-1.76953124 0,-1.1953125 0.75,-1.6875 1.40625,-1.6875 0.691406,0 1.40625,0.515625 1.40625,1.6875 0,1.1835937 -0.667969,1.76953124 -1.40625,1.76953124 z m 0,0"
       style="fill:#000000;fill-opacity:1;fill-rule:nonzero;stroke:none"
       aria-label="LevelIIntro"
       transform="matrix(1.3333333,0,0,1.3333333,7.0946667,93.88)" />
    <path
       id="path3"
       d="M 154.16042,30.38628 H 61.03337 c -2.75117,0 -4.98138,-2.23021 -4.98138,-4.98139 V 10.46071 c 0,-2.75119 2.23021,-4.98139 4.98138,-4.98139 h 93.12705 c 2.75117,0 4.98138,2.2302 4.98138,4.98139 v 14.94418 c 0,2.75118 -2.23021,4.98139 -4.98138,4.98139 z"
       style="fill:#f9d4d4;fill-opacity:1;fill-rule:nonzero;stroke:#e12729;stroke-width:0.3985;stroke-linecap:butt;stroke-linejoin:miter;stroke-miterlimit:10;stroke-dasharray:none;stroke-opacity:1"
       transform="matrix(1.3333333,0,0,-1.3333333,40.782667,89.268)" />
    <path
       id="path4"
       d="m 2.3202969,-1.7588281 c -0.5390625,0 -0.9609375,-0.46875 -0.9609375,-0.9960938 0,-0.5625 0.4453125,-0.9960937 0.9609375,-0.9960937 0.5390625,0 0.9609375,0.4570312 0.9609375,0.9960937 0,0.5625 -0.4453125,0.9960938 -0.9609375,0.9960938 z m -0.890625,0.3515625 c 0.023437,0.023437 0.3984375,0.2460937 0.890625,0.2460937 0.9140625,0 1.640625,-0.7148437 1.640625,-1.59375 0,-0.3046875 -0.082031,-0.5976562 -0.2578125,-0.8671875 0.2109375,-0.1289062 0.4453125,-0.1640625 0.5859375,-0.1757812 0.058594,0.2695312 0.28125,0.3398437 0.3867187,0.3398437 0.1640625,0 0.3984375,-0.1171875 0.3984375,-0.4101562 0,-0.2226563 -0.1875,-0.5390625 -0.7265625,-0.5390625 -0.1171875,0 -0.5976562,0.011719 -1.0546875,0.3515625 -0.1640625,-0.1054688 -0.515625,-0.2929688 -0.9726562,-0.2929688 -0.9375,0 -1.64062503,0.7382813 -1.64062503,1.59375 0,0.421875 0.1640625,0.75 0.31640625,0.9375 -0.10546875,0.1640625 -0.19921875,0.3867188 -0.19921875,0.6796875 0,0.35156252 0.140625,0.59765627 0.23437503,0.71484377 -0.73828128,0.45703125 -0.73828128,1.125 -0.73828128,1.2421875 0,0.85546873 1.04296878,1.46484373 2.32031248,1.46484373 1.2773438,0 2.3203125,-0.6210937 2.3203125,-1.46484373 0,-0.375 -0.1875,-0.8671875 -0.6914062,-1.13671875 -0.1289063,-0.0703125 -0.5507813,-0.29296875 -1.4414063,-0.29296875 h -0.703125 c -0.070312,0 -0.1992187,0 -0.28125,-0.0234375 -0.1523437,0 -0.2109375,0 -0.328125,-0.12890625 -0.1171875,-0.140625 -0.1289062,-0.33984372 -0.1289062,-0.36328122 0,-0.035156 0.023437,-0.1757813 0.070312,-0.28125 z m 1.1835937,3.09375 c -0.9960937,0 -1.74609373,-0.4335938 -1.74609373,-0.86718753 0,-0.1875 0.09375,-0.50390625 0.41015623,-0.703125 0.2460938,-0.15234375 0.3398438,-0.15234375 1.0664063,-0.15234375 0.8789062,0 2.0039062,0 2.0039062,0.85546875 0,0.43359373 -0.7382812,0.86718753 -1.734375,0.86718753 z m 5.1357422,-5.3789063 h 1.21875 c 0.1523438,0 0.3984375,0 0.3984375,-0.2929687 0,-0.3046875 -0.2460937,-0.3046875 -0.3984375,-0.3046875 h -1.21875 v -0.46875 c 0,-0.7851563 0.6679688,-0.7851563 0.9726563,-0.7851563 0,0.046875 0.082031,0.4335938 0.4335937,0.4335938 0.1992188,0 0.421875,-0.1640625 0.421875,-0.4335938 0,-0.5976562 -0.796875,-0.5976562 -0.9492187,-0.5976562 -0.796875,0 -1.5703125,0.4570312 -1.5703125,1.3242187 v 0.5273438 H 6.0615078 c -0.1523437,0 -0.3984375,0 -0.3984375,0.3046875 0,0.2929687 0.2460938,0.2929687 0.3984375,0.2929687 h 0.9960938 v 3.08203127 H 6.0615078 c -0.1523437,0 -0.4101562,0 -0.4101562,0.3046875 0,0.3046875 0.2578125,0.3046875 0.4101562,0.3046875 h 2.6953125 c 0.1523438,0 0.4101563,0 0.4101563,-0.3046875 0,-0.3046875 -0.2578125,-0.3046875 -0.4101563,-0.3046875 H 7.7490078 Z m 5.5722652,1.4765625 1.136719,-1.4765625 h 0.398438 c 0.140625,0 0.410156,0 0.410156,-0.2929687 0,-0.3046875 -0.257813,-0.3046875 -0.410156,-0.3046875 h -1.171875 c -0.140625,0 -0.398438,0 -0.398438,0.2929687 0,0.3046875 0.222656,0.3046875 0.492188,0.3046875 l -0.738282,1.0078125 -0.75,-1.0078125 c 0.257813,0 0.46875,0 0.46875,-0.3046875 0,-0.2929687 -0.246093,-0.2929687 -0.398437,-0.2929687 H 11.20018 c -0.152344,0 -0.410157,0 -0.410157,0.3046875 0,0.2929687 0.269532,0.2929687 0.410157,0.2929687 h 0.398437 l 1.171875,1.4765625 -1.230469,1.60546877 h -0.398437 c -0.152344,0 -0.410156,0 -0.410156,0.3046875 0,0.3046875 0.269531,0.3046875 0.410156,0.3046875 h 1.160156 c 0.152344,0 0.398438,0 0.398438,-0.3046875 0,-0.3046875 -0.210938,-0.3046875 -0.515625,-0.3046875 l 0.855468,-1.21874997 0.890625,1.21874997 c -0.28125,0 -0.503906,0 -0.503906,0.3046875 0,0.3046875 0.257813,0.3046875 0.398438,0.3046875 h 1.171875 c 0.140625,0 0.410156,0 0.410156,-0.3046875 0,-0.3046875 -0.257813,-0.3046875 -0.410156,-0.3046875 h -0.398438 z m 0,0"
       style="fill:#000000;fill-opacity:1;fill-rule:nonzero;stroke:none"
       aria-label="gfx"
       transform="matrix(1.3333333,0,0,1.3333333,119.94533,61.446667)" />
    <path
       id="path5"
       d="M 0,0 H 3.138"
       style="fill:none;stroke:#000000;stroke-width:0.398;stroke-linecap:butt;stroke-linejoin:miter;stroke-miterlimit:10;stroke-dasharray:none;stroke-opacity:1"
       transform="matrix(1.3333333,0,0,-1.3333333,141.704,61.18)" />
    <path
       id="path6"
       d="m 4.6396641,-1.0908594 c 0,-0.2695312 -0.2929688,-0.2695312 -0.3515625,-0.2695312 -0.1523438,0 -0.2578125,0.011719 -0.328125,0.2109375 -0.058594,0.1289062 -0.2460938,0.59765622 -0.984375,0.59765622 -0.84375,0 -1.5585938,-0.69140622 -1.5585938,-1.60546872 0,-0.46875 0.28125,-1.6171875 1.6171875,-1.6171875 0.2109375,0 0.5976563,0 0.5976563,0.082031 0.011719,0.3515625 0.1992187,0.4921875 0.4453125,0.4921875 0.234375,0 0.4453125,-0.1640625 0.4453125,-0.4570312 0,-0.7265625 -1.03125,-0.7265625 -1.4882813,-0.7265625 -1.7109375,0 -2.30859374,1.359375 -2.30859374,2.2265625 0,1.19531247 0.93750004,2.21484372 2.19140624,2.21484372 1.3828125,0 1.7226563,-0.97265625 1.7226563,-1.14843732 z m 1.6816406,-2.90625 C 6.2978672,-4.2900781 6.0986484,-4.2900781 5.9228672,-4.2900781 h -0.328125 c -0.140625,0 -0.3984375,0 -0.3984375,0.2929687 0,0.3046875 0.1992187,0.3046875 0.5625,0.3046875 v 3.08203127 c -0.3632813,0 -0.5625,0 -0.5625,0.3046875 0,0.3046875 0.2695312,0.3046875 0.3984375,0.3046875 h 0.8789062 c 0.1523438,0 0.4101563,0 0.4101563,-0.3046875 0,-0.3046875 -0.2109375,-0.3046875 -0.5625,-0.3046875 V -2.3916406 c 0,-0.890625 0.4101562,-1.359375 0.8085937,-1.359375 0.234375,0 0.375,0.1757812 0.375,0.8203125 v 2.32031247 c -0.1875,0 -0.4453125,0 -0.4453125,0.3046875 0,0.3046875 0.2695313,0.3046875 0.4101563,0.3046875 h 0.75 c 0.1523437,0 0.4101562,0 0.4101562,-0.3046875 0,-0.3046875 -0.2109375,-0.3046875 -0.5742187,-0.3046875 V -2.3916406 c 0,-0.890625 0.4101562,-1.359375 0.8203125,-1.359375 0.234375,0 0.375,0.1757812 0.375,0.8203125 v 2.32031247 c -0.1992188,0 -0.4453125,0 -0.4453125,0.3046875 0,0.3046875 0.2695312,0.3046875 0.4101562,0.3046875 h 0.75 c 0.1523441,0 0.4101561,0 0.4101561,-0.3046875 0,-0.3046875 -0.210937,-0.3046875 -0.5742186,-0.3046875 V -3.0244531 c 0,-0.1992188 0,-1.3242188 -0.8789062,-1.3242188 -0.3046875,0 -0.7148438,0.1289063 -0.9960938,0.515625 -0.140625,-0.3398437 -0.421875,-0.515625 -0.75,-0.515625 -0.3164062,0 -0.6210937,0.1289063 -0.8554687,0.3515625 z m 7.7021483,3.49218752 c 0,0.36328125 0,0.50390625 0.398438,0.50390625 h 0.726562 c 0.164063,0 0.410156,0 0.410156,-0.3046875 0,-0.3046875 -0.257812,-0.3046875 -0.398437,-0.3046875 H 14.714859 V -5.6846094 c 0,-0.3046875 -0.05859,-0.3984375 -0.398437,-0.3984375 h -0.726563 c -0.164062,0 -0.410156,0 -0.410156,0.3046875 0,0.2929688 0.257813,0.2929688 0.398438,0.2929688 h 0.445312 v 1.5820312 c -0.328125,-0.2929687 -0.738281,-0.4453125 -1.160156,-0.4453125 -1.089844,0 -2.039063,0.9375 -2.039063,2.203125 0,1.24218752 0.890625,2.20312502 1.945313,2.20312502 0.5625,0 0.984375,-0.26953125 1.253906,-0.5625 z m 0,-2.13281252 v 0.703125 c 0,0.5625 -0.445312,1.38281252 -1.207031,1.38281252 -0.714844,0 -1.3125,-0.70312502 -1.3125,-1.59375002 0,-0.9492187 0.703125,-1.6054687 1.394531,-1.6054687 0.644531,0 1.125,0.5625 1.125,1.1132812 z m 0,0"
       style="fill:#000000;fill-opacity:1;fill-rule:nonzero;stroke:none"
       aria-label="cmd"
       transform="matrix(1.3333333,0,0,1.3333333,145.888,61.446667)" />
    <path
       id="path7"
       d="M 0,0 H 3.138"
       style="fill:none;stroke:#000000;stroke-width:0.398;stroke-linecap:butt;stroke-linejoin:miter;stroke-miterlimit:10;stroke-dasharray:none;stroke-opacity:1"
       transform="matrix(1.3333333,0,0,-1.3333333,167.64533,61.18)" />
    <g
       id="g7"
       aria-label="interpreter&#10;15"
       transform="matrix(1.3333333,0,0,1.3333333,171.83067,61.446667)">
      <path
         id="path8"
         d="m 3.0830547,-3.8916406 c 0,-0.3046875 -0.058594,-0.3984375 -0.3984375,-0.3984375 H 1.2666484 c -0.1523437,0 -0.41015621,0 -0.41015621,0.2929687 0,0.3046875 0.25781251,0.3046875 0.41015621,0.3046875 h 1.125 v 3.08203127 H 1.1846172 c -0.1523438,0 -0.41015626,0 -0.41015626,0.3046875 0,0.3046875 0.25781246,0.3046875 0.41015626,0.3046875 h 2.9414062 c 0.1523438,0 0.4101563,0 0.4101563,-0.3046875 0,-0.3046875 -0.2578125,-0.3046875 -0.4101563,-0.3046875 H 3.0830547 Z m 0,-1.7109375 c 0,-0.28125 -0.2226563,-0.4921875 -0.5039063,-0.4921875 -0.28125,0 -0.4921875,0.2109375 -0.4921875,0.4921875 0,0.28125 0.2109375,0.5039062 0.4921875,0.5039062 0.28125,0 0.5039063,-0.2226562 0.5039063,-0.5039062 z m 3.7998047,1.78125 c 0,-0.328125 0,-0.46875 -0.3984375,-0.46875 H 5.7578594 c -0.1640625,0 -0.4101563,0 -0.4101563,0.3046875 0,0.2929687 0.2578125,0.2929687 0.3984375,0.2929687 h 0.4453125 v 3.08203127 H 5.7578594 c -0.1640625,0 -0.4101563,0 -0.4101563,0.3046875 0,0.3046875 0.2578125,0.3046875 0.3984375,0.3046875 h 1.5820313 c 0.140625,0 0.3984375,0 0.3984375,-0.3046875 0,-0.3046875 -0.2460938,-0.3046875 -0.3984375,-0.3046875 H 6.8828594 V -2.3682031 c 0,-0.9960938 0.7382812,-1.3828125 1.2421875,-1.3828125 0.5273437,0 0.6679687,0.28125 0.6679687,0.8789062 v 2.26171877 H 8.4062969 c -0.1523438,0 -0.4101563,0 -0.4101563,0.3046875 0,0.3046875 0.2695313,0.3046875 0.4101563,0.3046875 h 1.5234375 c 0.1406246,0 0.3984376,0 0.3984376,-0.3046875 0,-0.3046875 -0.246094,-0.3046875 -0.4101564,-0.3046875 H 9.4844219 V -2.9189844 c 0,-1.0078125 -0.5039063,-1.4296875 -1.3007813,-1.4296875 -0.65625,0 -1.1132812,0.328125 -1.3007812,0.5273438 z m 5.7919926,0.1289062 h 1.628906 c 0.152344,0 0.398437,0 0.398437,-0.2929687 0,-0.3046875 -0.234375,-0.3046875 -0.398437,-0.3046875 h -1.628906 v -0.8203125 c 0,-0.1875 0,-0.4101563 -0.339844,-0.4101563 -0.351563,0 -0.351563,0.2109375 -0.351563,0.4101563 v 0.8203125 h -0.867187 c -0.152344,0 -0.410156,0 -0.410156,0.3046875 0,0.2929687 0.257812,0.2929687 0.398437,0.2929687 h 0.878906 v 2.4375 c 0,0.94921877 0.679688,1.31250002 1.40625,1.31250002 0.738282,0 1.546875,-0.421875 1.546875,-1.31250002 0,-0.1757812 0,-0.3867187 -0.351562,-0.3867187 -0.328125,0 -0.339844,0.2109375 -0.339844,0.375 -0.01172,0.62109372 -0.574219,0.71484372 -0.808594,0.71484372 -0.761718,0 -0.761718,-0.51562502 -0.761718,-0.76171872 z m 7.236328,1.7929688 c 0.210937,0 0.398437,0 0.398437,-0.375 0,-1.1367188 -0.632812,-2.109375 -1.921875,-2.109375 -1.195312,0 -2.144531,0.9960937 -2.144531,2.2265625 0,1.20703122 1.007812,2.21484372 2.285156,2.21484372 1.3125,0 1.78125,-0.890625 1.78125,-1.14843752 0,-0.2695312 -0.28125,-0.2695312 -0.339844,-0.2695312 -0.1875,0 -0.257812,0.023437 -0.328125,0.2109375 -0.222656,0.51562497 -0.761718,0.59765622 -1.042968,0.59765622 -0.75,0 -1.488282,-0.49218752 -1.652344,-1.34765622 z m -2.953125,-0.5976563 c 0.140625,-0.7265625 0.726562,-1.2773437 1.429687,-1.2773437 0.515625,0 1.125,0.2460937 1.21875,1.2773437 z m 6.178711,0.6445313 c 0,-0.9375 0.585937,-1.8984375 1.792968,-1.8984375 0.01172,0.2460937 0.175782,0.4453125 0.421875,0.4453125 0.222657,0 0.421875,-0.1640625 0.421875,-0.4335938 0,-0.1992187 -0.117187,-0.609375 -0.949218,-0.609375 -0.503907,0 -1.148438,0.1757813 -1.6875,0.796875 v -0.3398437 c 0,-0.3046875 -0.05859,-0.3984375 -0.398438,-0.3984375 h -1.101562 c -0.152344,0 -0.398438,0 -0.398438,0.2929687 0,0.3046875 0.246094,0.3046875 0.398438,0.3046875 h 0.808593 v 3.08203127 h -0.808593 c -0.152344,0 -0.398438,0 -0.398438,0.3046875 0,0.3046875 0.246094,0.3046875 0.398438,0.3046875 h 2.601562 c 0.152344,0 0.410156,0 0.410156,-0.3046875 0,-0.3046875 -0.257812,-0.3046875 -0.410156,-0.3046875 h -1.101562 z m 4.666992,-0.7734375 c 0,-0.5976563 0.574219,-1.125 1.207031,-1.125 0.738281,0 1.3125,0.7265625 1.3125,1.59375 0,0.9609375 -0.691406,1.60546872 -1.394531,1.60546872 -0.773438,0 -1.125,-0.87890622 -1.125,-1.34765622 z m 0,2.17968747 c 0.410156,0.41015625 0.84375,0.50390625 1.160156,0.50390625 1.078125,0 2.050781,-0.94921875 2.050781,-2.21484372 0,-1.21875 -0.890625,-2.1914063 -1.945312,-2.1914063 -0.480469,0 -0.925781,0.1757813 -1.265625,0.4804688 0,-0.28125 -0.02344,-0.421875 -0.398438,-0.421875 h -0.726562 c -0.164063,0 -0.410156,0 -0.410156,0.3046875 0,0.2929687 0.257812,0.2929687 0.398437,0.2929687 h 0.445313 v 5.296875 h -0.433594 c -0.164063,0 -0.410156,0 -0.410156,0.3046875 0,0.3046875 0.257812,0.3046875 0.398437,0.3046875 h 1.582031 c 0.140625,0 0.398438,0 0.398438,-0.3046875 0,-0.3046875 -0.246094,-0.3046875 -0.398438,-0.3046875 H 27.803758 Z M 33.59575,-1.8525781 c 0,-0.9375 0.585938,-1.8984375 1.792969,-1.8984375 0.01172,0.2460937 0.175781,0.4453125 0.421875,0.4453125 0.222656,0 0.421875,-0.1640625 0.421875,-0.4335938 0,-0.1992187 -0.117188,-0.609375 -0.949219,-0.609375 -0.503906,0 -1.148437,0.1757813 -1.6875,0.796875 v -0.3398437 c 0,-0.3046875 -0.05859,-0.3984375 -0.398437,-0.3984375 H 32.09575 c -0.152344,0 -0.398437,0 -0.398437,0.2929687 0,0.3046875 0.246093,0.3046875 0.398437,0.3046875 h 0.808594 v 3.08203127 H 32.09575 c -0.152344,0 -0.398437,0 -0.398437,0.3046875 0,0.3046875 0.246093,0.3046875 0.398437,0.3046875 h 2.601563 c 0.152343,0 0.410156,0 0.410156,-0.3046875 0,-0.3046875 -0.257813,-0.3046875 -0.410156,-0.3046875 H 33.59575 Z m 7.236328,-0.046875 c 0.210938,0 0.398438,0 0.398438,-0.375 0,-1.1367188 -0.632813,-2.109375 -1.921875,-2.109375 -1.195313,0 -2.144532,0.9960937 -2.144532,2.2265625 0,1.20703122 1.007813,2.21484372 2.285157,2.21484372 1.3125,0 1.78125,-0.890625 1.78125,-1.14843752 0,-0.2695312 -0.28125,-0.2695312 -0.339844,-0.2695312 -0.1875,0 -0.257813,0.023437 -0.328125,0.2109375 -0.222656,0.51562497 -0.761719,0.59765622 -1.042969,0.59765622 -0.75,0 -1.488281,-0.49218752 -1.652344,-1.34765622 z m -2.953125,-0.5976563 c 0.140625,-0.7265625 0.726563,-1.2773437 1.429688,-1.2773437 0.515625,0 1.125,0.2460937 1.21875,1.2773437 z m 6.178711,-1.1953125 h 1.628906 c 0.152344,0 0.398438,0 0.398438,-0.2929687 0,-0.3046875 -0.234375,-0.3046875 -0.398438,-0.3046875 h -1.628906 v -0.8203125 c 0,-0.1875 0,-0.4101563 -0.339844,-0.4101563 -0.351562,0 -0.351562,0.2109375 -0.351562,0.4101563 v 0.8203125 H 42.49907 c -0.152343,0 -0.410156,0 -0.410156,0.3046875 0,0.2929687 0.257813,0.2929687 0.398438,0.2929687 h 0.878906 v 2.4375 c 0,0.94921877 0.679687,1.31250002 1.40625,1.31250002 0.738281,0 1.546875,-0.421875 1.546875,-1.31250002 0,-0.1757812 0,-0.3867187 -0.351563,-0.3867187 -0.328125,0 -0.339843,0.2109375 -0.339843,0.375 -0.01172,0.62109372 -0.574219,0.71484372 -0.808594,0.71484372 -0.761719,0 -0.761719,-0.51562502 -0.761719,-0.76171872 z m 7.233399,1.7929688 c 0.210937,0 0.398437,0 0.398437,-0.375 0,-1.1367188 -0.632812,-2.109375 -1.921875,-2.109375 -1.195312,0 -2.144531,0.9960937 -2.144531,2.2265625 0,1.20703122 1.007812,2.21484372 2.285156,2.21484372 1.3125,0 1.78125,-0.890625 1.78125,-1.14843752 0,-0.2695312 -0.28125,-0.2695312 -0.339844,-0.2695312 -0.1875,0 -0.257812,0.023437 -0.328125,0.2109375 -0.222656,0.51562497 -0.761718,0.59765622 -1.042968,0.59765622 -0.75,0 -1.488282,-0.49218752 -1.652344,-1.34765622 z m -2.953125,-0.5976563 c 0.140625,-0.7265625 0.726562,-1.2773437 1.429687,-1.2773437 0.515625,0 1.125,0.2460937 1.21875,1.2773437 z m 6.18164,0.6445313 c 0,-0.9375 0.585938,-1.8984375 1.792969,-1.8984375 0.01172,0.2460937 0.175781,0.4453125 0.421875,0.4453125 0.222656,0 0.421875,-0.1640625 0.421875,-0.4335938 0,-0.1992187 -0.117188,-0.609375 -0.949219,-0.609375 -0.503906,0 -1.148437,0.1757813 -1.6875,0.796875 v -0.3398437 c 0,-0.3046875 -0.05859,-0.3984375 -0.398437,-0.3984375 h -1.101563 c -0.152344,0 -0.398437,0 -0.398437,0.2929687 0,0.3046875 0.246093,0.3046875 0.398437,0.3046875 h 0.808594 v 3.08203127 h -0.808594 c -0.152344,0 -0.398437,0 -0.398437,0.3046875 0,0.3046875 0.246093,0.3046875 0.398437,0.3046875 h 2.601563 c 0.152343,0 0.410156,0 0.410156,-0.3046875 0,-0.3046875 -0.257813,-0.3046875 -0.410156,-0.3046875 h -1.101563 z m 0,0"
         style="fill:#000000;fill-opacity:1;fill-rule:nonzero;stroke:none" />
      <path
         id="path9"
         d="M 7.3047344,5.2050391 H 7.1055156 c -0.5859375,0.609375 -1.4179687,0.6328125 -1.8867187,0.65625 v 0.5742187 c 0.328125,-0.011719 0.8085937,-0.023437 1.3007812,-0.234375 V 11.38082 H 5.2773906 v 0.574219 H 8.5469219 V 11.38082 H 7.3047344 Z m 3.5273436,0.8554687 h 2.625 V 5.4159766 h -3.339844 v 3.6796875 h 0.65625 c 0.164063,-0.3984375 0.539063,-0.7851563 1.113282,-0.7851563 0.46875,0 1.007812,0.4101563 1.007812,1.6054688 0,1.6523434 -1.21875,1.6523434 -1.300781,1.6523434 -0.667969,0 -1.277344,-0.386718 -1.570313,-0.925781 L 9.6953594,11.19332 c 0.4101566,0.574219 1.1015626,0.984375 1.9101566,0.984375 1.183593,0 2.179687,-0.984375 2.179687,-2.2499997 0,-1.2421875 -0.855469,-2.2265625 -1.886719,-2.2265625 -0.398437,0 -0.773437,0.1523438 -1.066406,0.4101563 z m 0,0"
         style="fill:#000000;fill-opacity:1;fill-rule:nonzero;stroke:none" />
    </g>
    <path
       id="path10"
       d="M 132.50386,-5.47932 H 82.68993 c -2.75118,0 -4.98139,-2.2302 -4.98139,-4.98139 v -14.94418 c 0,-2.75118 2.23021,-4.98139 4.98139,-4.98139 h 49.81393 c 2.75118,0 4.98138,2.23021 4.98138,4.98139 v 14.94418 c 0,2.75119 -2.2302,4.98139 -4.98138,4.98139 z"
       style="fill:#f9d4d4;fill-opacity:1;fill-rule:nonzero;stroke:#e12729;stroke-width:0.3985;stroke-linecap:butt;stroke-linejoin:miter;stroke-miterlimit:10;stroke-dasharray:none;stroke-opacity:1"
       transform="matrix(1.3333333,0,0,-1.3333333,40.782667,89.268)" />
    <path
       id="path11"
       d="M 2.9637969,-2.54375 C 2.7411406,-2.5789063 2.5419219,-2.6140625 2.2958281,-2.6609375 2.0028594,-2.6960938 1.3231719,-2.825 1.3231719,-3.2117188 c 0,-0.2578125 0.3164062,-0.5625 1.265625,-0.5625 0.8320312,0 0.9609375,0.2929688 0.9960937,0.5507813 0.011719,0.1757812 0.035156,0.3398437 0.3398438,0.3398437 0.3515625,0 0.3515625,-0.2109375 0.3515625,-0.4101562 v -0.6796875 c 0,-0.1640625 0,-0.4101563 -0.3046875,-0.4101563 -0.234375,0 -0.28125,0.140625 -0.2929688,0.2109375 -0.4453125,-0.2109375 -0.8789062,-0.2109375 -1.0664062,-0.2109375 -1.66406253,0 -1.89843753,0.8203125 -1.89843753,1.171875 0,0.9140625 1.04296873,1.0898438 1.96875003,1.2304688 0.4804687,0.082031 1.2773437,0.2109375 1.2773437,0.7382812 0,0.3632813 -0.3632812,0.6914063 -1.265625,0.6914063 -0.46875,0 -1.03125,-0.10546875 -1.2773437,-0.8789063 -0.058594,-0.1875 -0.09375,-0.2929687 -0.3515625,-0.2929687 -0.35156253,0 -0.35156253,0.2109375 -0.35156253,0.4101562 v 0.96093755 c 0,0.1640625 0,0.41015625 0.30468753,0.41015625 0.082031,0 0.2460937,-0.01171875 0.3632812,-0.375 0.4921875,0.3515625 1.0195313,0.375 1.3007813,0.375 1.5703125,0 1.8867187,-0.8203125 1.8867187,-1.3007813 0,-1.0429687 -1.2773437,-1.2539062 -1.6054687,-1.3007812 z m 3.9199218,-1.2773438 c 0,-0.328125 0,-0.46875 -0.3984375,-0.46875 H 5.7587187 c -0.1640625,0 -0.4101562,0 -0.4101562,0.3046875 0,0.2929688 0.2578125,0.2929688 0.3984375,0.2929688 h 0.4453125 v 3.08203125 H 5.7587187 c -0.1640625,0 -0.4101562,0 -0.4101562,0.3046875 0,0.3046875 0.2578125,0.3046875 0.3984375,0.3046875 h 1.5820312 c 0.140625,0 0.3984375,0 0.3984375,-0.3046875 0,-0.3046875 -0.2460937,-0.3046875 -0.3984375,-0.3046875 H 6.8837187 V -2.3679688 c 0,-0.9960937 0.7382813,-1.3828125 1.2421876,-1.3828125 0.5273437,0 0.6679687,0.28125 0.6679687,0.8789063 v 2.26171875 H 8.4071563 c -0.1523438,0 -0.4101563,0 -0.4101563,0.3046875 0,0.3046875 0.2695313,0.3046875 0.4101563,0.3046875 h 1.5234375 c 0.1406252,0 0.3984372,0 0.3984372,-0.3046875 0,-0.3046875 -0.246093,-0.3046875 -0.410156,-0.3046875 H 9.4852813 V -2.91875 c 0,-1.0078125 -0.5039063,-1.4296875 -1.3007813,-1.4296875 -0.65625,0 -1.1132813,0.328125 -1.3007813,0.5273437 z m 7.7958983,1.921875 c 0.210938,0 0.398438,0 0.398438,-0.375 0,-1.1367187 -0.632813,-2.109375 -1.921875,-2.109375 -1.195313,0 -2.144532,0.9960938 -2.144532,2.2265625 0,1.2070313 1.007813,2.2148438 2.285157,2.2148438 1.3125,0 1.78125,-0.890625 1.78125,-1.1484375 0,-0.2695313 -0.28125,-0.2695313 -0.339844,-0.2695313 -0.1875,0 -0.257813,0.023437 -0.328125,0.2109375 -0.222656,0.51562505 -0.761719,0.5976563 -1.042969,0.5976563 -0.75,0 -1.488281,-0.4921875 -1.652344,-1.3476563 z M 11.726492,-2.496875 c 0.140625,-0.7265625 0.726563,-1.2773438 1.429688,-1.2773438 0.515625,0 1.125,0.2460938 1.21875,1.2773438 z M 18.655203,-2.54375 C 18.432547,-2.578906 18.233328,-2.614062 17.987234,-2.6609375 17.694266,-2.6960935 17.014578,-2.825 17.014578,-3.2117188 c 0,-0.2578125 0.316406,-0.5625 1.265625,-0.5625 0.832031,0 0.960938,0.2929688 0.996094,0.5507813 0.01172,0.1757812 0.03516,0.3398437 0.339844,0.3398437 0.351562,0 0.351562,-0.2109375 0.351562,-0.4101562 v -0.6796875 c 0,-0.1640625 0,-0.4101563 -0.304687,-0.4101563 -0.234375,0 -0.28125,0.140625 -0.292969,0.2109375 -0.445313,-0.2109375 -0.878906,-0.2109375 -1.066406,-0.2109375 -1.664063,0 -1.898438,0.8203125 -1.898438,1.171875 0,0.9140625 1.042969,1.0898438 1.96875,1.2304688 0.480469,0.082031 1.277344,0.2109375 1.277344,0.7382812 0,0.3632813 -0.363281,0.6914063 -1.265625,0.6914063 -0.46875,0 -1.03125,-0.10546875 -1.277344,-0.8789063 -0.05859,-0.1875 -0.09375,-0.2929687 -0.351562,-0.2929687 -0.351563,0 -0.351563,0.2109375 -0.351563,0.4101562 v 0.96093755 c 0,0.1640625 0,0.41015625 0.304688,0.41015625 0.08203,0 0.246093,-0.01171875 0.363281,-0.375 0.492187,0.3515625 1.019531,0.375 1.300781,0.375 1.570313,0 1.886719,-0.8203125 1.886719,-1.3007813 0,-1.0429687 -1.277344,-1.2539062 -1.605469,-1.3007812 z m 0,0"
       style="fill:#000000;fill-opacity:1;fill-rule:nonzero;stroke:none"
       aria-label="snes"
       transform="matrix(1.3333333,0,0,1.3333333,153.83733,109.26667)" />
    <path
       id="path12"
       d="M 0,0 H 3.138"
       style="fill:none;stroke:#000000;stroke-width:0.398;stroke-linecap:butt;stroke-linejoin:miter;stroke-miterlimit:10;stroke-dasharray:none;stroke-opacity:1"
       transform="matrix(1.3333333,0,0,-1.3333333,182.56933,109.00133)" />
    <g
       id="g12"
       aria-label="ctrl&#10;10"
       transform="matrix(1.3333333,0,0,1.3333333,186.75467,109.26667)">
      <path
         id="path13"
         d="m 4.6400547,-1.090625 c 0,-0.2695313 -0.2929688,-0.2695313 -0.3515625,-0.2695313 -0.1523438,0 -0.2578125,0.011719 -0.328125,0.2109375 -0.058594,0.1289063 -0.2460938,0.5976563 -0.984375,0.5976563 -0.84375,0 -1.5585938,-0.6914063 -1.5585938,-1.6054688 0,-0.46875 0.28125,-1.6171875 1.6171875,-1.6171875 0.2109375,0 0.5976563,0 0.5976563,0.082031 C 3.6439609,-3.340625 3.8314609,-3.2 4.0775547,-3.2 c 0.234375,0 0.4453125,-0.1640625 0.4453125,-0.4570313 0,-0.7265625 -1.03125,-0.7265625 -1.4882813,-0.7265625 -1.7109375,0 -2.30859371,1.359375 -2.30859371,2.2265625 0,1.19531255 0.93750001,2.2148438 2.19140621,2.2148438 1.3828125,0 1.7226563,-0.97265625 1.7226563,-1.1484375 z m 2.8037109,-2.6015625 h 1.6289063 c 0.1523437,0 0.3984375,0 0.3984375,-0.2929688 0,-0.3046875 -0.234375,-0.3046875 -0.3984375,-0.3046875 H 7.4437656 v -0.8203125 c 0,-0.1875 0,-0.4101562 -0.3398437,-0.4101562 -0.3515625,0 -0.3515625,0.2109375 -0.3515625,0.4101562 v 0.8203125 H 5.8851719 c -0.1523438,0 -0.4101563,0 -0.4101563,0.3046875 0,0.2929688 0.2578125,0.2929688 0.3984375,0.2929688 h 0.8789063 v 2.4375 c 0,0.94921875 0.6796875,1.3125 1.40625,1.3125 0.7382812,0 1.546875,-0.421875 1.546875,-1.3125 0,-0.1757813 0,-0.3867188 -0.3515625,-0.3867188 -0.328125,0 -0.3398438,0.2109375 -0.3398438,0.375 -0.011719,0.6210938 -0.5742187,0.7148438 -0.8085937,0.7148438 -0.7617188,0 -0.7617188,-0.515625 -0.7617188,-0.7617188 z m 5.2324214,1.8398437 c 0,-0.9375 0.585938,-1.8984375 1.792969,-1.8984375 0.01172,0.2460938 0.175781,0.4453125 0.421875,0.4453125 0.222656,0 0.421875,-0.1640625 0.421875,-0.4335937 0,-0.1992188 -0.117187,-0.609375 -0.949219,-0.609375 -0.503906,0 -1.148437,0.1757812 -1.6875,0.796875 v -0.3398438 c 0,-0.3046875 -0.05859,-0.3984375 -0.398437,-0.3984375 h -1.101563 c -0.152343,0 -0.398437,0 -0.398437,0.2929688 0,0.3046875 0.246094,0.3046875 0.398437,0.3046875 h 0.808594 v 3.08203125 h -0.808594 c -0.152343,0 -0.398437,0 -0.398437,0.3046875 0,0.3046875 0.246094,0.3046875 0.398437,0.3046875 h 2.601563 c 0.152344,0 0.410156,0 0.410156,-0.3046875 0,-0.3046875 -0.257812,-0.3046875 -0.410156,-0.3046875 h -1.101563 z m 5.967774,-3.8320312 c 0,-0.3046875 -0.05859,-0.3984375 -0.398438,-0.3984375 h -1.570312 c -0.152344,0 -0.410156,0 -0.410156,0.3046875 0,0.2929687 0.257812,0.2929687 0.398437,0.2929687 h 1.300781 v 4.87500005 h -1.289062 c -0.152344,0 -0.410156,0 -0.410156,0.3046875 0,0.3046875 0.257812,0.3046875 0.398437,0.3046875 h 3.28125 c 0.152344,0 0.398438,0 0.398438,-0.3046875 0,-0.3046875 -0.234375,-0.3046875 -0.398438,-0.3046875 h -1.300781 z m 0,0"
         style="fill:#000000;fill-opacity:1;fill-rule:nonzero;stroke:none" />
      <path
         id="path14"
         d="m -3.8882656,5.2052734 h -0.1992188 c -0.5859375,0.609375 -1.4179687,0.6328125 -1.8867187,0.65625 v 0.5742188 c 0.328125,-0.011719 0.8085937,-0.023437 1.3007812,-0.234375 v 5.1796878 h -1.2421875 v 0.574218 h 3.2695313 v -0.574218 h -1.2421875 z m 6.5507812,3.5039063 c 0,-0.7851563 -0.035156,-1.7109375 -0.4570312,-2.5195313 -0.3984375,-0.75 -1.0898438,-0.984375 -1.59375003,-0.984375 -0.59765625,0 -1.2890625,0.2695313 -1.69921877,1.1484375 -0.328125,0.7265625 -0.375,1.5585938 -0.375,2.3554688 0,0.7851562 0.035156,1.5117183 0.3398438,2.2382813 0.39843747,0.960937 1.14843747,1.230469 1.72265622,1.230469 0.72656248,0 1.34765628,-0.410157 1.66406248,-1.101563 C 2.5687656,10.431836 2.6625156,9.7755859 2.6625156,8.7091797 Z M 0.61173437,11.568555 c -0.52734375,0 -0.9375,-0.375 -1.13671875,-1.101563 -0.15234375,-0.5624998 -0.1640625,-1.1015623 -0.1640625,-1.8749998 0,-0.6328125 0,-1.2304688 0.1640625,-1.78125 0.0703125,-0.1875 0.31640625,-0.9960938 1.125,-0.9960938 0.77343748,0 1.03124998,0.75 1.10156248,0.9257813 0.1875,0.5625 0.1875,1.2304687 0.1875,1.8515625 0,0.65625 0,1.2773437 -0.1757812,1.9101558 -0.2578125,0.902344 -0.78515628,1.066407 -1.10156253,1.066407 z m 0,0"
         style="fill:#000000;fill-opacity:1;fill-rule:nonzero;stroke:none" />
    </g>
    <path
       id="path15"
       d="m 240.10077,-5.47925 h -49.81394 c -2.75117,0 -4.98138,-2.23019 -4.98138,-4.98138 v -14.94419 c 0,-2.75117 2.23021,-4.98138 4.98138,-4.98138 h 49.81394 c 2.75117,0 4.98138,2.23021 4.98138,4.98138 v 14.94419 c 0,2.75119 -2.23021,4.98138 -4.98138,4.98138 z"
       style="fill:#f9d4d4;fill-opacity:1;fill-rule:nonzero;stroke:#e12729;stroke-width:0.3985;stroke-linecap:butt;stroke-linejoin:miter;stroke-miterlimit:10;stroke-dasharray:none;stroke-opacity:1"
       transform="matrix(1.3333333,0,0,-1.3333333,40.782667,89.268)" />
    <g
       id="g15"
       aria-label="tetris&#10;25"
       transform="matrix(1.3333333,0,0,1.3333333,306.78267,109.26667)">
      <path
         id="path16"
         d="m 2.2137813,-3.6921875 h 1.6289062 c 0.1523438,0 0.3984375,0 0.3984375,-0.2929688 0,-0.3046875 -0.234375,-0.3046875 -0.3984375,-0.3046875 H 2.2137813 v -0.8203125 c 0,-0.1875 0,-0.4101562 -0.3398438,-0.4101562 -0.3515625,0 -0.3515625,0.2109375 -0.3515625,0.4101562 v 0.8203125 H 0.6551875 c -0.15234375,0 -0.41015625,0 -0.41015625,0.3046875 0,0.2929688 0.2578125,0.2929688 0.3984375,0.2929688 H 1.522375 v 2.4375 c 0,0.94921875 0.6796875,1.3125 1.40625,1.3125 0.7382813,0 1.546875,-0.421875 1.546875,-1.3125 0,-0.1757813 0,-0.3867188 -0.3515625,-0.3867188 -0.328125,0 -0.3398437,0.2109375 -0.3398437,0.375 -0.011719,0.6210938 -0.5742188,0.7148438 -0.8085938,0.7148438 -0.7617187,0 -0.7617187,-0.515625 -0.7617187,-0.7617188 z m 7.2363281,1.7929687 c 0.2109375,0 0.3984375,0 0.3984375,-0.375 0,-1.1367187 -0.6328125,-2.109375 -1.921875,-2.109375 -1.1953125,0 -2.1445313,0.9960938 -2.1445313,2.2265625 0,1.2070313 1.0078125,2.2148438 2.2851563,2.2148438 1.3125,0 1.78125,-0.890625 1.78125,-1.1484375 0,-0.2695313 -0.28125,-0.2695313 -0.3398438,-0.2695313 -0.1875,0 -0.2578125,0.023437 -0.328125,0.2109375 -0.2226562,0.51562505 -0.7617187,0.5976563 -1.0429687,0.5976563 -0.75,0 -1.4882813,-0.4921875 -1.6523438,-1.3476563 z M 6.4969844,-2.496875 c 0.140625,-0.7265625 0.7265625,-1.2773438 1.4296875,-1.2773438 0.515625,0 1.125,0.2460938 1.21875,1.2773438 z m 6.1787106,-1.1953125 h 1.628907 c 0.152343,0 0.398437,0 0.398437,-0.2929688 0,-0.3046875 -0.234375,-0.3046875 -0.398437,-0.3046875 h -1.628907 v -0.8203125 c 0,-0.1875 0,-0.4101562 -0.339843,-0.4101562 -0.351563,0 -0.351563,0.2109375 -0.351563,0.4101562 v 0.8203125 h -0.867187 c -0.152344,0 -0.410157,0 -0.410157,0.3046875 0,0.2929688 0.257813,0.2929688 0.398438,0.2929688 h 0.878906 v 2.4375 c 0,0.94921875 0.679688,1.3125 1.40625,1.3125 0.738281,0 1.546875,-0.421875 1.546875,-1.3125 0,-0.1757813 0,-0.3867188 -0.351562,-0.3867188 -0.328125,0 -0.339844,0.2109375 -0.339844,0.375 -0.01172,0.6210938 -0.574219,0.7148438 -0.808594,0.7148438 -0.761719,0 -0.761719,-0.515625 -0.761719,-0.7617188 z m 5.229493,1.8398437 c 0,-0.9375 0.585937,-1.8984375 1.792968,-1.8984375 0.01172,0.2460938 0.175782,0.4453125 0.421875,0.4453125 0.222657,0 0.421875,-0.1640625 0.421875,-0.4335937 0,-0.1992188 -0.117187,-0.609375 -0.949218,-0.609375 -0.503907,0 -1.148438,0.1757812 -1.6875,0.796875 v -0.3398438 c 0,-0.3046875 -0.05859,-0.3984375 -0.398438,-0.3984375 h -1.101562 c -0.152344,0 -0.398438,0 -0.398438,0.2929688 0,0.3046875 0.246094,0.3046875 0.398438,0.3046875 h 0.808593 v 3.08203125 h -0.808593 c -0.152344,0 -0.398438,0 -0.398438,0.3046875 0,0.3046875 0.246094,0.3046875 0.398438,0.3046875 h 2.601562 c 0.152344,0 0.410156,0 0.410156,-0.3046875 0,-0.3046875 -0.257812,-0.3046875 -0.410156,-0.3046875 h -1.101562 z m 6.099609,-2.0390625 c 0,-0.3046875 -0.05859,-0.3984375 -0.398438,-0.3984375 h -1.417968 c -0.152344,0 -0.410157,0 -0.410157,0.2929688 0,0.3046875 0.257813,0.3046875 0.410157,0.3046875 h 1.125 v 3.08203125 h -1.207032 c -0.152343,0 -0.410156,0 -0.410156,0.3046875 0,0.3046875 0.257813,0.3046875 0.410156,0.3046875 h 2.941407 c 0.152343,0 0.410156,0 0.410156,-0.3046875 0,-0.3046875 -0.257813,-0.3046875 -0.410156,-0.3046875 h -1.042969 z m 0,-1.7109375 c 0,-0.28125 -0.222656,-0.4921875 -0.503906,-0.4921875 -0.28125,0 -0.492188,0.2109375 -0.492188,0.4921875 0,0.28125 0.210938,0.5039063 0.492188,0.5039063 0.28125,0 0.503906,-0.2226563 0.503906,-0.5039063 z M 29.117102,-2.54375 C 28.894445,-2.578906 28.695227,-2.614062 28.449133,-2.6609375 28.156164,-2.6960935 27.476477,-2.825 27.476477,-3.2117188 c 0,-0.2578125 0.316406,-0.5625 1.265625,-0.5625 0.832031,0 0.960937,0.2929688 0.996093,0.5507813 0.01172,0.1757812 0.03516,0.3398437 0.339844,0.3398437 0.351563,0 0.351563,-0.2109375 0.351563,-0.4101562 v -0.6796875 c 0,-0.1640625 0,-0.4101563 -0.304688,-0.4101563 -0.234375,0 -0.28125,0.140625 -0.292969,0.2109375 -0.445312,-0.2109375 -0.878906,-0.2109375 -1.066406,-0.2109375 -1.664062,0 -1.898437,0.8203125 -1.898437,1.171875 0,0.9140625 1.042968,1.0898438 1.96875,1.2304688 0.480468,0.082031 1.277343,0.2109375 1.277343,0.7382812 0,0.3632813 -0.363281,0.6914063 -1.265625,0.6914063 -0.46875,0 -1.03125,-0.10546875 -1.277343,-0.8789063 -0.05859,-0.1875 -0.09375,-0.2929687 -0.351563,-0.2929687 -0.351562,0 -0.351562,0.2109375 -0.351562,0.4101562 v 0.96093755 c 0,0.1640625 0,0.41015625 0.304687,0.41015625 0.08203,0 0.246094,-0.01171875 0.363281,-0.375 0.492188,0.3515625 1.019532,0.375 1.300782,0.375 1.570312,0 1.886718,-0.8203125 1.886718,-1.3007813 0,-1.0429687 -1.277343,-1.2539062 -1.605468,-1.3007812 z m 0,0"
         style="fill:#000000;fill-opacity:1;fill-rule:nonzero;stroke:none" />
      <path
         id="path17"
         d="m 12.44425,10.080273 -1.230469,1.242188 v 0.632812 h 3.972657 v -0.703125 h -1.816407 c -0.117187,0 -0.234375,0 -0.363281,0 h -1.078125 c 0.316406,-0.269531 1.078125,-1.019531 1.382813,-1.3124996 0.1875,-0.1757812 0.691406,-0.5976562 0.890625,-0.7734375 0.445312,-0.4453125 0.984375,-0.9726562 0.984375,-1.828125 0,-1.1367187 -0.808594,-2.1328125 -2.121094,-2.1328125 -1.136719,0 -1.699219,0.7734375 -1.933594,1.6289063 0.117188,0.1757812 0.164063,0.234375 0.1875,0.2578125 0.02344,0.023437 0.117188,0.1523437 0.222656,0.2929687 0.199219,-0.7734375 0.46875,-1.546875 1.382813,-1.546875 0.9375,0 1.441406,0.75 1.441406,1.5234375 0,0.84375 -0.5625,1.4179688 -1.160156,2.015625 z m 4.769531,-4.0195308 h 2.625 V 5.4162109 h -3.339843 v 3.6796875 h 0.65625 c 0.164062,-0.3984375 0.539062,-0.7851562 1.113281,-0.7851562 0.46875,0 1.007812,0.4101562 1.007812,1.6054687 0,1.6523441 -1.21875,1.6523441 -1.300781,1.6523441 -0.667969,0 -1.277344,-0.386719 -1.570312,-0.925782 l -0.328125,0.550782 c 0.410156,0.574218 1.101562,0.984375 1.910156,0.984375 1.183594,0 2.179687,-0.984375 2.179687,-2.2500003 0,-1.2421875 -0.855468,-2.2265625 -1.886718,-2.2265625 -0.398438,0 -0.773438,0.1523437 -1.066407,0.4101562 z m 0,0"
         style="fill:#000000;fill-opacity:1;fill-rule:nonzero;stroke:none" />
    </g>
    <path
       id="path18"
       d="M 132.50345,-41.34502 H 82.68951 c -2.75117,0 -4.98138,-2.23019 -4.98138,-4.98138 v -14.94418 c 0,-2.75118 2.23021,-4.98139 4.98138,-4.98139 h 49.81394 c 2.75117,0 4.98138,2.23021 4.98138,4.98139 v 14.94418 c 0,2.75119 -2.23021,4.98138 -4.98138,4.98138 z"
       style="fill:#cce5dc;fill-opacity:1;fill-rule:nonzero;stroke:#007f4e;stroke-width:0.3985;stroke-linecap:butt;stroke-linejoin:miter;stroke-miterlimit:10;stroke-dasharray:none;stroke-opacity:1"
       transform="matrix(1.3333333,0,0,-1.3333333,40.782667,89.268)" />
    <path
       id="path19"
       d="m 2.3216875,-1.7583594 c -0.5390625,0 -0.9609375,-0.46875 -0.9609375,-0.9960937 0,-0.5625 0.4453125,-0.9960938 0.9609375,-0.9960938 0.5390625,0 0.9609375,0.4570313 0.9609375,0.9960938 0,0.5625 -0.4453125,0.9960937 -0.9609375,0.9960937 z m -0.890625,0.3515625 c 0.023437,0.023437 0.3984375,0.2460938 0.890625,0.2460938 0.9140625,0 1.640625,-0.7148438 1.640625,-1.59375 0,-0.3046875 -0.082031,-0.5976563 -0.2578125,-0.8671875 0.2109375,-0.1289063 0.4453125,-0.1640625 0.5859375,-0.1757813 0.058594,0.2695313 0.28125,0.3398438 0.3867187,0.3398438 0.1640625,0 0.3984375,-0.1171875 0.3984375,-0.4101563 0,-0.2226562 -0.1875,-0.5390625 -0.7265625,-0.5390625 -0.1171875,0 -0.5976562,0.011719 -1.0546875,0.3515625 -0.1640625,-0.1054687 -0.515625,-0.2929687 -0.9726562,-0.2929687 -0.9375,0 -1.640625,0.7382812 -1.640625,1.59375 0,0.421875 0.1640625,0.75 0.31640625,0.9375 C 0.892,-1.6528906 0.79825,-1.4302344 0.79825,-1.1372656 c 0,0.35156248 0.140625,0.59765623 0.234375,0.71484373 -0.73828125,0.45703125 -0.73828125,1.125 -0.73828125,1.2421875 0,0.85546877 1.04296875,1.46484377 2.32031245,1.46484377 1.2773438,0 2.3203125,-0.6210938 2.3203125,-1.46484377 0,-0.375 -0.1875,-0.8671875 -0.6914062,-1.13671875 -0.1289063,-0.0703125 -0.5507813,-0.29296875 -1.4414063,-0.29296875 h -0.703125 c -0.070312,0 -0.1992187,0 -0.28125,-0.0234375 -0.1523437,0 -0.2109375,0 -0.328125,-0.12890625 C 1.3724687,-0.90289062 1.36075,-1.1021094 1.36075,-1.1255469 c 0,-0.035156 0.023437,-0.1757812 0.070312,-0.28125 z m 1.1835937,3.09375 c -0.9960937,0 -1.7460937,-0.4335937 -1.7460937,-0.86718747 0,-0.1875 0.09375,-0.50390625 0.4101562,-0.703125 0.2460938,-0.15234375 0.3398438,-0.15234375 1.0664063,-0.15234375 0.8789062,0 2.0039062,0 2.0039062,0.85546875 0,0.43359377 -0.7382812,0.86718747 -1.734375,0.86718747 z m 7.256836,-2.7773437 c 0,-0.2695313 -0.2929688,-0.2695313 -0.3515625,-0.2695313 -0.1523438,0 -0.2578125,0.011719 -0.328125,0.2109375 -0.058594,0.1289063 -0.2460938,0.59765628 -0.984375,0.59765628 -0.84375,0 -1.5585938,-0.69140628 -1.5585938,-1.60546878 0,-0.46875 0.28125,-1.6171875 1.6171875,-1.6171875 0.2109375,0 0.5976563,0 0.5976563,0.082031 0.011719,0.3515625 0.1992187,0.4921875 0.4453125,0.4921875 0.234375,0 0.4453125,-0.1640625 0.4453125,-0.4570313 0,-0.7265625 -1.03125,-0.7265625 -1.4882813,-0.7265625 -1.7109375,0 -2.3085937,1.359375 -2.3085937,2.2265625 0,1.19531253 0.9375,2.21484378 2.1914062,2.21484378 1.3828125,0 1.7226563,-0.97265625 1.7226563,-1.14843718 z m 0,0"
       style="fill:#000000;fill-opacity:1;fill-rule:nonzero;stroke:none"
       aria-label="gc"
       transform="matrix(1.3333333,0,0,1.3333333,160.81067,157.08667)" />
    <path
       id="path20"
       d="M 0,0 H 3.138"
       style="fill:none;stroke:#000000;stroke-width:0.398;stroke-linecap:butt;stroke-linejoin:miter;stroke-miterlimit:10;stroke-dasharray:none;stroke-opacity:1"
       transform="matrix(1.3333333,0,0,-1.3333333,175.596,156.82133)" />
    <g
       id="g20"
       aria-label="ctrl&#10;5"
       transform="matrix(1.3333333,0,0,1.3333333,179.78,157.08667)">
      <path
         id="path21"
         d="m 4.6415625,-1.0903906 c 0,-0.2695313 -0.2929688,-0.2695313 -0.3515625,-0.2695313 -0.1523438,0 -0.2578125,0.011719 -0.328125,0.2109375 -0.058594,0.1289063 -0.2460938,0.59765628 -0.984375,0.59765628 -0.84375,0 -1.5585938,-0.69140628 -1.5585938,-1.60546878 0,-0.46875 0.28125,-1.6171875 1.6171875,-1.6171875 0.2109375,0 0.5976563,0 0.5976563,0.082031 0.011719,0.3515625 0.1992187,0.4921875 0.4453125,0.4921875 0.234375,0 0.4453125,-0.1640625 0.4453125,-0.4570313 0,-0.7265625 -1.03125,-0.7265625 -1.4882813,-0.7265625 -1.7109375,0 -2.3085937,1.359375 -2.3085937,2.2265625 0,1.19531253 0.9375,2.21484378 2.1914062,2.21484378 1.3828125,0 1.7226563,-0.97265625 1.7226563,-1.14843718 z m 2.8037109,-2.6015625 h 1.6289063 c 0.1523437,0 0.3984375,0 0.3984375,-0.2929688 0,-0.3046875 -0.234375,-0.3046875 -0.3984375,-0.3046875 H 7.4452734 v -0.8203125 c 0,-0.1875 0,-0.4101562 -0.3398437,-0.4101562 -0.3515625,0 -0.3515625,0.2109375 -0.3515625,0.4101562 v 0.8203125 H 5.8866797 c -0.1523438,0 -0.4101563,0 -0.4101563,0.3046875 0,0.2929688 0.2578125,0.2929688 0.3984375,0.2929688 h 0.8789063 v 2.4375 c 0,0.94921873 0.6796875,1.31249998 1.40625,1.31249998 0.7382812,0 1.546875,-0.421875 1.546875,-1.31249998 0,-0.1757813 0,-0.3867188 -0.3515625,-0.3867188 -0.328125,0 -0.3398438,0.2109375 -0.3398438,0.375 -0.011719,0.62109378 -0.5742187,0.71484378 -0.8085937,0.71484378 -0.7617188,0 -0.7617188,-0.51562498 -0.7617188,-0.76171878 z m 5.2294926,1.8398437 c 0,-0.9375 0.585937,-1.8984375 1.792968,-1.8984375 0.01172,0.2460938 0.175782,0.4453125 0.421875,0.4453125 0.222657,0 0.421875,-0.1640625 0.421875,-0.4335937 0,-0.1992188 -0.117187,-0.609375 -0.949218,-0.609375 -0.503907,0 -1.148438,0.1757812 -1.6875,0.796875 v -0.3398438 c 0,-0.3046875 -0.05859,-0.3984375 -0.398438,-0.3984375 h -1.101562 c -0.152344,0 -0.398438,0 -0.398438,0.2929688 0,0.3046875 0.246094,0.3046875 0.398438,0.3046875 h 0.808593 v 3.08203123 h -0.808593 c -0.152344,0 -0.398438,0 -0.398438,0.3046875 0,0.304687495 0.246094,0.304687495 0.398438,0.304687495 h 2.601562 c 0.152344,0 0.410156,0 0.410156,-0.304687495 0,-0.3046875 -0.257812,-0.3046875 -0.410156,-0.3046875 h -1.101562 z m 5.970703,-3.8320312 c 0,-0.3046875 -0.05859,-0.3984375 -0.398438,-0.3984375 h -1.570312 c -0.152344,0 -0.410157,0 -0.410157,0.3046875 0,0.2929687 0.257813,0.2929687 0.398438,0.2929687 h 1.300781 v 4.87500003 h -1.289062 c -0.152344,0 -0.410157,0 -0.410157,0.3046875 0,0.304687495 0.257813,0.304687495 0.398438,0.304687495 h 3.28125 c 0.152344,0 0.398437,0 0.398437,-0.304687495 0,-0.3046875 -0.234375,-0.3046875 -0.398437,-0.3046875 h -1.300781 z m 0,0"
         style="fill:#000000;fill-opacity:1;fill-rule:nonzero;stroke:none" />
      <path
         id="path22"
         d="m 2.3798437,6.0609766 h 2.625 V 5.4164453 H 1.665 V 9.0961328 H 2.32125 C 2.4853125,8.6976953 2.8603125,8.3109766 3.4345312,8.3109766 c 0.46875,0 1.0078125,0.4101562 1.0078125,1.6054687 0,1.6523437 -1.21875,1.6523437 -1.3007812,1.6523437 -0.6679688,0 -1.2773438,-0.386719 -1.5703125,-0.925781 l -0.328125,0.550781 c 0.4101562,0.574219 1.1015625,0.984375 1.9101562,0.984375 1.1835938,0 2.1796875,-0.984375 2.1796875,-2.2499999 0,-1.2421875 -0.8554687,-2.2265625 -1.8867187,-2.2265625 -0.3984375,0 -0.7734375,0.1523437 -1.0664063,0.4101562 z m 0,0"
         style="fill:#000000;fill-opacity:1;fill-rule:nonzero;stroke:none" />
    </g>
    <path
       id="path23"
       d="m 320.79877,30.3862 h -49.81394 c -2.75117,0 -4.98138,-2.23021 -4.98138,-4.98138 V 10.46063 c 0,-2.75119 2.23021,-4.98138 4.98138,-4.98138 h 49.81394 c 2.75117,0 4.98138,2.23019 4.98138,4.98138 v 14.94419 c 0,2.75117 -2.23021,4.98138 -4.98138,4.98138 z"
       style="fill:#fef5d1;fill-opacity:1;fill-rule:nonzero;stroke:#f8cc1b;stroke-width:0.3985;stroke-linecap:butt;stroke-linejoin:miter;stroke-miterlimit:10;stroke-dasharray:none;stroke-opacity:1"
       transform="matrix(1.3333333,0,0,-1.3333333,40.782667,89.268)" />
    <path
       id="path24"
       d="m 4.2901719,-3.6924219 h 0.2929687 c 0.1523438,0 0.3984375,0 0.3984375,-0.2929687 0,-0.3046875 -0.234375,-0.3046875 -0.3984375,-0.3046875 H 3.4229844 c -0.1523438,0 -0.3984375,0 -0.3984375,0.2929687 0,0.3046875 0.234375,0.3046875 0.3984375,0.3046875 H 3.6925156 L 2.6143906,-0.48148438 1.5245469,-3.6924219 h 0.28125 c 0.1523437,0 0.3984375,0 0.3984375,-0.2929687 0,-0.3046875 -0.2460938,-0.3046875 -0.3984375,-0.3046875 H 0.63392187 c -0.15234375,0 -0.3984375,0 -0.3984375,0.3046875 0,0.2929687 0.2578125,0.2929687 0.3984375,0.2929687 h 0.3046875 l 1.14843753,3.38671877 c 0.1171875,0.33984375 0.3164062,0.33984375 0.5273437,0.33984375 0.1875,0 0.4101563,0 0.5273438,-0.328125 z m 3.2607422,1.9335938 c -0.5390625,0 -0.9609375,-0.46875 -0.9609375,-0.9960938 0,-0.5625 0.4453125,-0.9960937 0.9609375,-0.9960937 0.5390625,0 0.9609375,0.4570312 0.9609375,0.9960937 0,0.5625 -0.4453125,0.9960938 -0.9609375,0.9960938 z m -0.890625,0.3515625 c 0.023437,0.023437 0.3984375,0.2460937 0.890625,0.2460937 0.9140625,0 1.640625,-0.7148437 1.640625,-1.59375 0,-0.3046875 -0.082031,-0.5976562 -0.2578125,-0.8671875 0.2109375,-0.1289062 0.4453125,-0.1640625 0.5859375,-0.1757812 0.058594,0.2695312 0.28125,0.3398437 0.3867187,0.3398437 0.1640622,0 0.3984372,-0.1171875 0.3984372,-0.4101562 0,-0.2226563 -0.1875,-0.5390625 -0.7265622,-0.5390625 -0.1171875,0 -0.5976562,0.011719 -1.0546875,0.3515625 -0.1640625,-0.1054688 -0.515625,-0.2929688 -0.9726562,-0.2929688 -0.9375,0 -1.640625,0.7382813 -1.640625,1.59375 0,0.421875 0.1640625,0.75 0.3164062,0.9375 -0.1054687,0.1640625 -0.1992187,0.3867188 -0.1992187,0.6796875 0,0.35156252 0.140625,0.59765627 0.234375,0.71484377 -0.7382813,0.45703125 -0.7382813,1.125 -0.7382813,1.2421875 0,0.85546873 1.0429688,1.46484373 2.3203125,1.46484373 1.2773438,0 2.3203122,-0.6210937 2.3203122,-1.46484373 0,-0.375 -0.1874997,-0.8671875 -0.6914059,-1.13671875 -0.1289063,-0.0703125 -0.5507813,-0.29296875 -1.4414063,-0.29296875 h -0.703125 c -0.070312,0 -0.1992187,0 -0.28125,-0.0234375 -0.1523437,0 -0.2109375,0 -0.328125,-0.12890625 -0.1171875,-0.140625 -0.1289062,-0.33984372 -0.1289062,-0.36328122 0,-0.035156 0.023437,-0.1757813 0.070312,-0.28125 z m 1.1835937,3.09375 c -0.9960937,0 -1.7460937,-0.4335938 -1.7460937,-0.86718753 0,-0.1875 0.09375,-0.50390625 0.4101562,-0.703125 0.2460938,-0.15234375 0.3398438,-0.15234375 1.0664063,-0.15234375 0.8789062,0 2.0039062,0 2.0039062,0.85546875 0,0.43359373 -0.7382812,0.86718753 -1.734375,0.86718753 z m 6.2607422,-2.00390628 c 0.222656,0.3046875 0.703125,0.31640625 1.078125,0.31640625 0.28125,0 0.492187,0 0.492187,-0.3046875 0,-0.3046875 -0.246093,-0.3046875 -0.398437,-0.3046875 -0.410156,0 -0.515625,-0.046875 -0.597656,-0.0820313 V -2.8369531 c 0,-0.7148438 -0.527344,-1.546875 -1.96875,-1.546875 -0.421875,0 -1.441407,0 -1.441407,0.7265625 0,0.3046875 0.210938,0.4570312 0.445313,0.4570312 0.152344,0 0.433594,-0.09375 0.445312,-0.4570312 0,-0.082031 0,-0.09375 0.199219,-0.1054688 0.140625,-0.011719 0.269531,-0.011719 0.363281,-0.011719 0.761719,0 1.277344,0.3046875 1.277344,1.0195312 -1.769531,0.023437 -2.988281,0.5273438 -2.988281,1.4765625 0,0.69140627 0.621094,1.33593752 1.640625,1.33593752 0.363281,0 0.984375,-0.0703125 1.453125,-0.3749997 z M 13.999156,-2.1689844 v 0.8320313 c 0,0.234375 0,0.43359372 -0.386719,0.62109372 -0.363281,0.1640625 -0.808593,0.1640625 -0.890625,0.1640625 -0.621093,0 -1.03125,-0.33984375 -1.03125,-0.72656252 0,-0.4804687 0.867188,-0.8554687 2.308594,-0.890625 z m 0,0"
       style="fill:#000000;fill-opacity:1;fill-rule:nonzero;stroke:none"
       aria-label="vga"
       transform="matrix(1.3333333,0,0,1.3333333,408.38133,61.446667)" />
    <path
       id="path25"
       d="M 0,0 H 3.138"
       style="fill:none;stroke:#000000;stroke-width:0.398;stroke-linecap:butt;stroke-linejoin:miter;stroke-miterlimit:10;stroke-dasharray:none;stroke-opacity:1"
       transform="matrix(1.3333333,0,0,-1.3333333,430.14,61.18)" />
    <g
       id="g25"
       aria-label="ctrl&#10;10"
       transform="matrix(1.3333333,0,0,1.3333333,434.324,61.446667)">
      <path
         id="path26"
         d="m 4.6407891,-1.0908594 c 0,-0.2695312 -0.2929688,-0.2695312 -0.3515625,-0.2695312 -0.1523438,0 -0.2578125,0.011719 -0.328125,0.2109375 -0.058594,0.1289062 -0.2460938,0.59765622 -0.984375,0.59765622 -0.84375,0 -1.5585938,-0.69140622 -1.5585938,-1.60546872 0,-0.46875 0.28125,-1.6171875 1.6171875,-1.6171875 0.2109375,0 0.5976563,0 0.5976563,0.082031 0.011719,0.3515625 0.1992187,0.4921875 0.4453125,0.4921875 0.234375,0 0.4453125,-0.1640625 0.4453125,-0.4570312 0,-0.7265625 -1.03125,-0.7265625 -1.4882813,-0.7265625 -1.7109375,0 -2.30859374,1.359375 -2.30859374,2.2265625 0,1.19531247 0.93750004,2.21484372 2.19140624,2.21484372 1.3828125,0 1.7226563,-0.97265625 1.7226563,-1.14843732 z M 7.4445,-3.6924219 h 1.6289063 c 0.1523437,0 0.3984375,0 0.3984375,-0.2929687 0,-0.3046875 -0.234375,-0.3046875 -0.3984375,-0.3046875 H 7.4445 v -0.8203125 c 0,-0.1875 0,-0.4101563 -0.3398437,-0.4101563 -0.3515625,0 -0.3515625,0.2109375 -0.3515625,0.4101563 v 0.8203125 H 5.8859063 c -0.1523438,0 -0.4101563,0 -0.4101563,0.3046875 0,0.2929687 0.2578125,0.2929687 0.3984375,0.2929687 h 0.8789063 v 2.4375 c 0,0.94921877 0.6796875,1.31250002 1.40625,1.31250002 0.7382812,0 1.546875,-0.421875 1.546875,-1.31250002 0,-0.1757812 0,-0.3867187 -0.3515625,-0.3867187 -0.328125,0 -0.3398438,0.2109375 -0.3398438,0.375 -0.011719,0.62109372 -0.5742187,0.71484372 -0.8085937,0.71484372 C 7.4445,-0.55179688 7.4445,-1.0674219 7.4445,-1.3135156 Z m 5.232422,1.8398438 c 0,-0.9375 0.585937,-1.8984375 1.792969,-1.8984375 0.01172,0.2460937 0.175781,0.4453125 0.421875,0.4453125 0.222656,0 0.421875,-0.1640625 0.421875,-0.4335938 0,-0.1992187 -0.117188,-0.609375 -0.949219,-0.609375 -0.503906,0 -1.148438,0.1757813 -1.6875,0.796875 v -0.3398437 c 0,-0.3046875 -0.05859,-0.3984375 -0.398438,-0.3984375 h -1.101562 c -0.152344,0 -0.398438,0 -0.398438,0.2929687 0,0.3046875 0.246094,0.3046875 0.398438,0.3046875 h 0.808594 v 3.08203127 h -0.808594 c -0.152344,0 -0.398438,0 -0.398438,0.3046875 0,0.3046875 0.246094,0.3046875 0.398438,0.3046875 h 2.601562 c 0.152344,0 0.410157,0 0.410157,-0.3046875 0,-0.3046875 -0.257813,-0.3046875 -0.410157,-0.3046875 h -1.101562 z m 5.967773,-3.8320313 c 0,-0.3046875 -0.05859,-0.3984375 -0.398437,-0.3984375 h -1.570313 c -0.152343,0 -0.410156,0 -0.410156,0.3046875 0,0.2929688 0.257813,0.2929688 0.398438,0.2929688 h 1.300781 v 4.87499997 h -1.289063 c -0.152343,0 -0.410156,0 -0.410156,0.3046875 0,0.3046875 0.257813,0.3046875 0.398438,0.3046875 h 3.28125 c 0.152343,0 0.398437,0 0.398437,-0.3046875 0,-0.3046875 -0.234375,-0.3046875 -0.398437,-0.3046875 h -1.300782 z m 0,0"
         style="fill:#000000;fill-opacity:1;fill-rule:nonzero;stroke:none" />
      <path
         id="path27"
         d="m -1.2713203,5.2050391 h -0.1992188 c -0.5859375,0.609375 -1.4179687,0.6328125 -1.8867187,0.65625 v 0.5742187 c 0.328125,-0.011719 0.8085937,-0.023437 1.3007812,-0.234375 V 11.38082 h -1.2421875 v 0.574219 h 3.26953129 V 11.38082 H -1.2713203 Z m 6.5507812,3.5039062 c 0,-0.7851562 -0.035156,-1.7109375 -0.4570312,-2.5195312 -0.3984375,-0.75 -1.0898438,-0.984375 -1.59375,-0.984375 -0.5976563,0 -1.2890625,0.2695312 -1.6992188,1.1484375 -0.328125,0.7265625 -0.375,1.5585937 -0.375,2.3554687 0,0.7851563 0.035156,1.5117187 0.3398438,2.2382817 0.3984375,0.960937 1.1484375,1.230468 1.7226562,1.230468 0.7265625,0 1.3476563,-0.410156 1.6640625,-1.101562 C 5.1857109,10.431602 5.2794609,9.7753516 5.2794609,8.7089453 Z M 3.2286797,11.56832 c -0.5273438,0 -0.9375,-0.375 -1.1367188,-1.101562 C 1.9396172,9.9042578 1.9278984,9.3651953 1.9278984,8.5917578 c 0,-0.6328125 0,-1.2304687 0.1640625,-1.78125 0.070312,-0.1875 0.3164063,-0.9960937 1.125,-0.9960937 0.7734375,0 1.03125,0.75 1.1015625,0.9257812 0.1875,0.5625 0.1875,1.2304688 0.1875,1.8515625 0,0.65625 0,1.2773438 -0.1757812,1.9101562 -0.2578125,0.902344 -0.7851563,1.066406 -1.1015625,1.066406 z m 0,0"
         style="fill:#000000;fill-opacity:1;fill-rule:nonzero;stroke:none" />
    </g>
    <path
       id="path28"
       d="m 428.39497,30.38612 h -49.81392 c -2.75119,0 -4.98138,-2.23021 -4.98138,-4.98138 V 10.46056 c 0,-2.75119 2.23019,-4.98139 4.98138,-4.98139 h 49.81392 c 2.75119,0 4.98139,2.2302 4.98139,4.98139 v 14.94418 c 0,2.75117 -2.2302,4.98138 -4.98139,4.98138 z"
       style="fill:#fef5d1;fill-opacity:1;fill-rule:nonzero;stroke:#f8cc1b;stroke-width:0.3985;stroke-linecap:butt;stroke-linejoin:miter;stroke-miterlimit:10;stroke-dasharray:none;stroke-opacity:1"
       transform="matrix(1.3333333,0,0,-1.3333333,40.782667,89.268)" />
    <g
       id="g28"
       aria-label="rasterizer&#10;10"
       transform="matrix(1.3333333,0,0,1.3333333,543.89067,61.446667)">
      <path
         id="path29"
         d="m 2.2148125,-1.8525781 c 0,-0.9375 0.5859375,-1.8984375 1.7929688,-1.8984375 0.011719,0.2460937 0.1757812,0.4453125 0.421875,0.4453125 0.2226562,0 0.421875,-0.1640625 0.421875,-0.4335938 0,-0.1992187 -0.1171875,-0.609375 -0.9492188,-0.609375 -0.5039062,0 -1.1484375,0.1757813 -1.6875,0.796875 v -0.3398437 c 0,-0.3046875 -0.058594,-0.3984375 -0.3984375,-0.3984375 H 0.7148125 c -0.15234375,0 -0.3984375,0 -0.3984375,0.2929687 0,0.3046875 0.24609375,0.3046875 0.3984375,0.3046875 h 0.8085938 v 3.08203127 H 0.7148125 c -0.15234375,0 -0.3984375,0 -0.3984375,0.3046875 0,0.3046875 0.24609375,0.3046875 0.3984375,0.3046875 H 3.316375 c 0.1523438,0 0.4101563,0 0.4101563,-0.3046875 0,-0.3046875 -0.2578125,-0.3046875 -0.4101563,-0.3046875 H 2.2148125 Z m 6.6591797,1.53515622 c 0.2226562,0.3046875 0.703125,0.31640625 1.078125,0.31640625 0.2812498,0 0.4921878,0 0.4921878,-0.3046875 0,-0.3046875 -0.246094,-0.3046875 -0.398438,-0.3046875 -0.4101561,0 -0.5156248,-0.046875 -0.5976561,-0.0820313 V -2.8369531 c 0,-0.7148438 -0.5273437,-1.546875 -1.96875,-1.546875 -0.421875,0 -1.4414062,0 -1.4414062,0.7265625 0,0.3046875 0.2109375,0.4570312 0.4453125,0.4570312 0.1523437,0 0.4335937,-0.09375 0.4453125,-0.4570312 0,-0.082031 0,-0.09375 0.1992187,-0.1054688 0.140625,-0.011719 0.2695313,-0.011719 0.3632813,-0.011719 0.7617187,0 1.2773437,0.3046875 1.2773437,1.0195312 -1.7695312,0.023437 -2.9882812,0.5273438 -2.9882812,1.4765625 0,0.69140627 0.6210937,1.33593752 1.640625,1.33593752 0.3632812,0 0.984375,-0.0703125 1.453125,-0.3749997 z M 8.7685234,-2.1689844 v 0.8320313 c 0,0.234375 0,0.43359372 -0.3867187,0.62109372 -0.3632813,0.1640625 -0.8085938,0.1640625 -0.890625,0.1640625 -0.6210938,0 -1.03125,-0.33984375 -1.03125,-0.72656252 0,-0.4804687 0.8671875,-0.8554687 2.3085937,-0.890625 z m 4.6582036,-0.375 c -0.222657,-0.035156 -0.421875,-0.070312 -0.667969,-0.1171875 -0.292969,-0.035156 -0.972656,-0.1640625 -0.972656,-0.5507812 0,-0.2578125 0.316406,-0.5625 1.265625,-0.5625 0.832031,0 0.960937,0.2929687 0.996093,0.5507812 0.01172,0.1757813 0.03516,0.3398438 0.339844,0.3398438 0.351563,0 0.351563,-0.2109375 0.351563,-0.4101563 v -0.6796875 c 0,-0.1640625 0,-0.4101562 -0.304688,-0.4101562 -0.234375,0 -0.28125,0.140625 -0.292969,0.2109375 -0.445312,-0.2109375 -0.878906,-0.2109375 -1.066406,-0.2109375 -1.664062,0 -1.898437,0.8203125 -1.898437,1.171875 0,0.9140625 1.042968,1.0898437 1.96875,1.2304687 0.480468,0.082031 1.277343,0.2109375 1.277343,0.7382813 0,0.36328122 -0.363281,0.69140622 -1.265625,0.69140622 -0.46875,0 -1.03125,-0.10546875 -1.277343,-0.87890622 -0.05859,-0.1875 -0.09375,-0.2929688 -0.351563,-0.2929688 -0.351562,0 -0.351562,0.2109375 -0.351562,0.4101563 v 0.96093747 c 0,0.1640625 0,0.41015625 0.304687,0.41015625 0.08203,0 0.246094,-0.01171875 0.363281,-0.375 0.492188,0.3515625 1.019532,0.375 1.300782,0.375 1.570312,0 1.886718,-0.8203125 1.886718,-1.30078122 0,-1.0429688 -1.277343,-1.2539063 -1.605468,-1.3007813 z m 4.479492,-1.1484375 h 1.628906 c 0.152344,0 0.398438,0 0.398438,-0.2929687 0,-0.3046875 -0.234375,-0.3046875 -0.398438,-0.3046875 h -1.628906 v -0.8203125 c 0,-0.1875 0,-0.4101563 -0.339844,-0.4101563 -0.351562,0 -0.351562,0.2109375 -0.351562,0.4101563 v 0.8203125 h -0.867188 c -0.152344,0 -0.410156,0 -0.410156,0.3046875 0,0.2929687 0.257812,0.2929687 0.398437,0.2929687 h 0.878907 v 2.4375 c 0,0.94921877 0.679687,1.31250002 1.40625,1.31250002 0.738281,0 1.546875,-0.421875 1.546875,-1.31250002 0,-0.1757812 0,-0.3867187 -0.351563,-0.3867187 -0.328125,0 -0.339844,0.2109375 -0.339844,0.375 -0.01172,0.62109372 -0.574218,0.71484372 -0.808593,0.71484372 -0.761719,0 -0.761719,-0.51562502 -0.761719,-0.76171872 z m 7.233398,1.7929688 c 0.210938,0 0.398438,0 0.398438,-0.375 0,-1.1367188 -0.632813,-2.109375 -1.921875,-2.109375 -1.195313,0 -2.144532,0.9960937 -2.144532,2.2265625 0,1.20703122 1.007813,2.21484372 2.285157,2.21484372 1.3125,0 1.78125,-0.890625 1.78125,-1.14843752 0,-0.2695312 -0.28125,-0.2695312 -0.339844,-0.2695312 -0.1875,0 -0.257813,0.023437 -0.328125,0.2109375 -0.222656,0.51562497 -0.761719,0.59765622 -1.042969,0.59765622 -0.75,0 -1.488281,-0.49218752 -1.652344,-1.34765622 z m -2.953125,-0.5976563 c 0.140625,-0.7265625 0.726563,-1.2773437 1.429688,-1.2773437 0.515625,0 1.125,0.2460937 1.21875,1.2773437 z m 6.181641,0.6445313 c 0,-0.9375 0.585937,-1.8984375 1.792969,-1.8984375 0.01172,0.2460937 0.175781,0.4453125 0.421875,0.4453125 0.222656,0 0.421875,-0.1640625 0.421875,-0.4335938 0,-0.1992187 -0.117188,-0.609375 -0.949219,-0.609375 -0.503906,0 -1.148438,0.1757813 -1.6875,0.796875 v -0.3398437 c 0,-0.3046875 -0.05859,-0.3984375 -0.398438,-0.3984375 h -1.101562 c -0.152344,0 -0.398438,0 -0.398438,0.2929687 0,0.3046875 0.246094,0.3046875 0.398438,0.3046875 h 0.808594 v 3.08203127 h -0.808594 c -0.152344,0 -0.398438,0 -0.398438,0.3046875 0,0.3046875 0.246094,0.3046875 0.398438,0.3046875 h 2.601562 c 0.152344,0 0.410157,0 0.410157,-0.3046875 0,-0.3046875 -0.257813,-0.3046875 -0.410157,-0.3046875 h -1.101562 z m 6.09668,-2.0390625 c 0,-0.3046875 -0.05859,-0.3984375 -0.398438,-0.3984375 h -1.417969 c -0.152343,0 -0.410156,0 -0.410156,0.2929687 0,0.3046875 0.257813,0.3046875 0.410156,0.3046875 h 1.125 v 3.08203127 h -1.207031 c -0.152344,0 -0.410156,0 -0.410156,0.3046875 0,0.3046875 0.257812,0.3046875 0.410156,0.3046875 h 2.941406 c 0.152344,0 0.410157,0 0.410157,-0.3046875 0,-0.3046875 -0.257813,-0.3046875 -0.410157,-0.3046875 h -1.042968 z m 0,-1.7109375 c 0,-0.28125 -0.222657,-0.4921875 -0.503907,-0.4921875 -0.28125,0 -0.492187,0.2109375 -0.492187,0.4921875 0,0.28125 0.210937,0.5039062 0.492187,0.5039062 0.28125,0 0.503907,-0.2226562 0.503907,-0.5039062 z m 6.624023,2.0507812 c 0.210937,-0.1992187 0.210937,-0.234375 0.210937,-0.3984375 0,-0.3398437 -0.210937,-0.3398437 -0.398437,-0.3398437 h -3.386719 c -0.339844,0 -0.410156,0.070312 -0.410156,0.3984375 v 0.46875 c 0,0.1875 0,0.3984375 0.339844,0.3984375 0.339843,0 0.339843,-0.1992188 0.339843,-0.3984375 v -0.2695313 h 2.484375 l -3.105468,2.95312502 c -0.210938,0.19921875 -0.222657,0.234375 -0.222657,0.3984375 0,0.33984375 0.222657,0.33984375 0.410157,0.33984375 h 3.773437 c 0.222656,-0.05859375 0.222656,-0.2578125 0.222656,-0.41015625 v -0.57421875 c 0,-0.18749997 0,-0.41015627 -0.339843,-0.41015627 -0.351563,0 -0.351563,0.2109375 -0.351563,0.41015627 v 0.375 h -2.683594 z m 4.97168,1.6523438 c 0.210937,0 0.398437,0 0.398437,-0.375 0,-1.1367188 -0.632812,-2.109375 -1.921875,-2.109375 -1.195312,0 -2.144531,0.9960937 -2.144531,2.2265625 0,1.20703122 1.007812,2.21484372 2.285156,2.21484372 1.3125,0 1.78125,-0.890625 1.78125,-1.14843752 0,-0.2695312 -0.28125,-0.2695312 -0.339844,-0.2695312 -0.1875,0 -0.257812,0.023437 -0.328125,0.2109375 -0.222656,0.51562497 -0.761718,0.59765622 -1.042968,0.59765622 -0.75,0 -1.488282,-0.49218752 -1.652344,-1.34765622 z m -2.953125,-0.5976563 c 0.140625,-0.7265625 0.726562,-1.2773437 1.429687,-1.2773437 0.515625,0 1.125,0.2460937 1.21875,1.2773437 z m 6.18164,0.6445313 c 0,-0.9375 0.585938,-1.8984375 1.792969,-1.8984375 0.01172,0.2460937 0.175781,0.4453125 0.421875,0.4453125 0.222656,0 0.421875,-0.1640625 0.421875,-0.4335938 0,-0.1992187 -0.117187,-0.609375 -0.949219,-0.609375 -0.503906,0 -1.148437,0.1757813 -1.6875,0.796875 v -0.3398437 c 0,-0.3046875 -0.05859,-0.3984375 -0.398437,-0.3984375 h -1.101563 c -0.152343,0 -0.398437,0 -0.398437,0.2929687 0,0.3046875 0.246094,0.3046875 0.398437,0.3046875 h 0.808594 v 3.08203127 h -0.808594 c -0.152343,0 -0.398437,0 -0.398437,0.3046875 0,0.3046875 0.246094,0.3046875 0.398437,0.3046875 h 2.601563 c 0.152344,0 0.410156,0 0.410156,-0.3046875 0,-0.3046875 -0.257812,-0.3046875 -0.410156,-0.3046875 h -1.101563 z m 0,0"
         style="fill:#000000;fill-opacity:1;fill-rule:nonzero;stroke:none" />
      <path
         id="path30"
         d="m 24.146453,5.2050391 h -0.199219 c -0.585937,0.609375 -1.417968,0.6328125 -1.886718,0.65625 v 0.5742187 c 0.328125,-0.011719 0.808593,-0.023437 1.300781,-0.234375 V 11.38082 h -1.242188 v 0.574219 h 3.269532 V 11.38082 h -1.242188 z m 6.553711,3.5039062 c 0,-0.7851562 -0.03516,-1.7109375 -0.457031,-2.5195312 -0.398438,-0.75 -1.089844,-0.984375 -1.59375,-0.984375 -0.597656,0 -1.289063,0.2695312 -1.699219,1.1484375 -0.328125,0.7265625 -0.375,1.5585937 -0.375,2.3554687 0,0.7851563 0.03516,1.5117187 0.339844,2.2382817 0.398437,0.960937 1.148437,1.230468 1.722656,1.230468 0.726563,0 1.347656,-0.410156 1.664063,-1.101562 0.304687,-0.644531 0.398437,-1.3007814 0.398437,-2.3671877 z M 28.649383,11.56832 c -0.527344,0 -0.9375,-0.375 -1.136719,-1.101562 -0.152344,-0.5625002 -0.164062,-1.1015627 -0.164062,-1.8750002 0,-0.6328125 0,-1.2304687 0.164062,-1.78125 0.07031,-0.1875 0.316406,-0.9960937 1.125,-0.9960937 0.773438,0 1.03125,0.75 1.101563,0.9257812 0.1875,0.5625 0.1875,1.2304688 0.1875,1.8515625 0,0.65625 0,1.2773438 -0.175782,1.9101562 -0.257812,0.902344 -0.785156,1.066406 -1.101562,1.066406 z m 0,0"
         style="fill:#000000;fill-opacity:1;fill-rule:nonzero;stroke:none" />
    </g>
    <path
       id="path31"
       d="m 320.79765,66.2519 h -49.81393 c -2.75118,0 -4.98139,-2.2302 -4.98139,-4.98138 V 46.32634 c 0,-2.75119 2.23021,-4.98138 4.98139,-4.98138 h 49.81393 c 2.75119,0 4.98139,2.23019 4.98139,4.98138 v 14.94418 c 0,2.75118 -2.2302,4.98138 -4.98139,4.98138 z"
       style="fill:#cce5dc;fill-opacity:1;fill-rule:nonzero;stroke:#007f4e;stroke-width:0.3985;stroke-linecap:butt;stroke-linejoin:miter;stroke-miterlimit:10;stroke-dasharray:none;stroke-opacity:1"
       transform="matrix(1.3333333,0,0,-1.3333333,40.782667,89.268)" />
    <path
       id="path32"
       d="M 2.9657422,-2.5442188 C 2.7430859,-2.579375 2.5438672,-2.6145313 2.2977734,-2.6614063 2.0048047,-2.6965625 1.3251172,-2.8254688 1.3251172,-3.2121875 c 0,-0.2578125 0.3164062,-0.5625 1.265625,-0.5625 0.8320312,0 0.9609375,0.2929687 0.9960937,0.5507812 0.011719,0.1757813 0.035156,0.3398438 0.3398438,0.3398438 0.3515625,0 0.3515625,-0.2109375 0.3515625,-0.4101563 v -0.6796875 c 0,-0.1640625 0,-0.4101562 -0.3046875,-0.4101562 -0.234375,0 -0.28125,0.140625 -0.2929688,0.2109375 -0.4453125,-0.2109375 -0.8789062,-0.2109375 -1.0664062,-0.2109375 -1.66406251,0 -1.89843751,0.8203125 -1.89843751,1.171875 0,0.9140625 1.04296871,1.0898437 1.96875001,1.2304687 0.4804687,0.082031 1.2773437,0.2109375 1.2773437,0.7382813 0,0.36328125 -0.3632812,0.69140625 -1.265625,0.69140625 -0.46875,0 -1.03125,-0.10546875 -1.2773437,-0.87890625 -0.058594,-0.1875 -0.09375,-0.2929688 -0.3515625,-0.2929688 -0.35156251,0 -0.35156251,0.2109375 -0.35156251,0.4101563 v 0.9609375 c 0,0.1640625 0,0.41015625 0.30468751,0.41015625 0.082031,0 0.2460937,-0.01171875 0.3632812,-0.375 0.4921875,0.3515625 1.0195313,0.375 1.3007813,0.375 1.5703125,0 1.8867187,-0.8203125 1.8867187,-1.30078125 0,-1.0429688 -1.2773437,-1.2539063 -1.6054687,-1.3007813 z m 4.4794922,0.6914063 c 0,-0.9375 0.5859375,-1.8984375 1.7929687,-1.8984375 0.011719,0.2460937 0.1757813,0.4453125 0.421875,0.4453125 0.2226563,0 0.4218749,-0.1640625 0.4218749,-0.4335938 0,-0.1992187 -0.1171874,-0.609375 -0.9492186,-0.609375 -0.5039063,0 -1.1484375,0.1757813 -1.6875,0.796875 V -3.891875 c 0,-0.3046875 -0.058594,-0.3984375 -0.3984375,-0.3984375 H 5.9452344 c -0.1523438,0 -0.3984375,0 -0.3984375,0.2929687 0,0.3046875 0.2460937,0.3046875 0.3984375,0.3046875 H 6.7538281 V -0.610625 H 5.9452344 c -0.1523438,0 -0.3984375,0 -0.3984375,0.3046875 0,0.3046875 0.2460937,0.3046875 0.3984375,0.3046875 h 2.6015625 c 0.1523437,0 0.4101562,0 0.4101562,-0.3046875 0,-0.3046875 -0.2578125,-0.3046875 -0.4101562,-0.3046875 H 7.4452344 Z m 6.6591796,1.53515625 c 0.222656,0.3046875 0.703125,0.31640625 1.078125,0.31640625 0.28125,0 0.492188,0 0.492188,-0.3046875 0,-0.3046875 -0.246094,-0.3046875 -0.398438,-0.3046875 -0.410156,0 -0.515625,-0.046875 -0.597656,-0.0820313 v -2.1445312 c 0,-0.7148438 -0.527344,-1.546875 -1.96875,-1.546875 -0.421875,0 -1.441406,0 -1.441406,0.7265625 0,0.3046875 0.210937,0.4570312 0.445312,0.4570312 0.152344,0 0.433594,-0.09375 0.445313,-0.4570312 0,-0.082031 0,-0.09375 0.199218,-0.1054688 0.140625,-0.011719 0.269532,-0.011719 0.363282,-0.011719 0.761718,0 1.277343,0.3046875 1.277343,1.0195312 -1.769531,0.023437 -2.988281,0.5273438 -2.988281,1.4765625 0,0.6914063 0.621094,1.33593755 1.640625,1.33593755 0.363281,0 0.984375,-0.0703125 1.453125,-0.3749997 z M 13.998945,-2.1692188 v 0.8320313 c 0,0.234375 0,0.43359375 -0.386718,0.62109375 -0.363282,0.1640625 -0.808594,0.1640625 -0.890625,0.1640625 -0.621094,0 -1.03125,-0.33984375 -1.03125,-0.72656255 0,-0.4804687 0.867187,-0.8554687 2.308593,-0.890625 z m 2.783203,-1.828125 c -0.02344,-0.2929687 -0.222656,-0.2929687 -0.398437,-0.2929687 h -0.328125 c -0.140625,0 -0.398438,0 -0.398438,0.2929687 0,0.3046875 0.199219,0.3046875 0.5625,0.3046875 v 3.0820313 c -0.363281,0 -0.5625,0 -0.5625,0.3046875 0,0.3046875 0.269532,0.3046875 0.398438,0.3046875 h 0.878906 c 0.152344,0 0.410156,0 0.410156,-0.3046875 0,-0.3046875 -0.210937,-0.3046875 -0.5625,-0.3046875 v -1.78125 c 0,-0.890625 0.410157,-1.359375 0.808594,-1.359375 0.234375,0 0.375,0.1757812 0.375,0.8203125 v 2.3203125 c -0.1875,0 -0.445312,0 -0.445312,0.3046875 0,0.3046875 0.269531,0.3046875 0.410156,0.3046875 h 0.75 c 0.152344,0 0.410156,0 0.410156,-0.3046875 0,-0.3046875 -0.210937,-0.3046875 -0.574219,-0.3046875 v -1.78125 c 0,-0.890625 0.410157,-1.359375 0.820313,-1.359375 0.234375,0 0.375,0.1757812 0.375,0.8203125 v 2.3203125 c -0.199219,0 -0.445313,0 -0.445313,0.3046875 0,0.3046875 0.269532,0.3046875 0.410157,0.3046875 h 0.75 c 0.152343,0 0.410156,0 0.410156,-0.3046875 0,-0.3046875 -0.210938,-0.3046875 -0.574219,-0.3046875 v -2.4140625 c 0,-0.1992188 0,-1.3242188 -0.878906,-1.3242188 -0.304688,0 -0.714844,0.1289063 -0.996094,0.515625 -0.140625,-0.3398437 -0.421875,-0.515625 -0.75,-0.515625 -0.316406,0 -0.621094,0.1289063 -0.855469,0.3515625 z m 0,0"
       style="fill:#000000;fill-opacity:1;fill-rule:nonzero;stroke:none"
       aria-label="sram"
       transform="matrix(1.3333333,0,0,1.3333333,404.89333,13.626667)" />
    <path
       id="path33"
       d="M 0,0 H 3.138"
       style="fill:none;stroke:#000000;stroke-width:0.398;stroke-linecap:butt;stroke-linejoin:miter;stroke-miterlimit:10;stroke-dasharray:none;stroke-opacity:1"
       transform="matrix(1.3333333,0,0,-1.3333333,433.62533,13.36)" />
    <g
       id="g33"
       aria-label="ctrl&#10;5"
       transform="matrix(1.3333333,0,0,1.3333333,437.80933,13.626667)">
      <path
         id="path34"
         d="m 4.6400703,-1.0910938 c 0,-0.2695312 -0.2929687,-0.2695312 -0.3515625,-0.2695312 -0.1523437,0 -0.2578125,0.011719 -0.328125,0.2109375 -0.058594,0.1289062 -0.2460937,0.59765625 -0.984375,0.59765625 -0.84375,0 -1.5585937,-0.69140625 -1.5585937,-1.60546875 0,-0.46875 0.28125,-1.6171875 1.6171875,-1.6171875 0.2109375,0 0.5976562,0 0.5976562,0.082031 0.011719,0.3515625 0.1992188,0.4921875 0.4453125,0.4921875 0.234375,0 0.4453125,-0.1640625 0.4453125,-0.4570312 0,-0.7265625 -1.03125,-0.7265625 -1.4882812,-0.7265625 -1.7109375,0 -2.30859379,1.359375 -2.30859379,2.2265625 0,1.1953125 0.93749999,2.21484375 2.19140629,2.21484375 1.3828125,0 1.7226562,-0.97265625 1.7226562,-1.14843735 z m 2.803711,-2.6015625 h 1.6289062 c 0.1523438,0 0.3984375,0 0.3984375,-0.2929687 0,-0.3046875 -0.234375,-0.3046875 -0.3984375,-0.3046875 H 7.4437813 V -5.110625 c 0,-0.1875 0,-0.4101563 -0.3398438,-0.4101563 -0.3515625,0 -0.3515625,0.2109375 -0.3515625,0.4101563 v 0.8203125 H 5.8851875 c -0.1523437,0 -0.4101562,0 -0.4101562,0.3046875 0,0.2929687 0.2578125,0.2929687 0.3984375,0.2929687 H 6.752375 v 2.4375 c 0,0.9492188 0.6796875,1.31250005 1.40625,1.31250005 0.7382813,0 1.546875,-0.421875 1.546875,-1.31250005 0,-0.1757812 0,-0.3867187 -0.3515625,-0.3867187 -0.328125,0 -0.3398437,0.2109375 -0.3398437,0.375 -0.011719,0.62109375 -0.5742188,0.71484375 -0.8085938,0.71484375 -0.7617187,0 -0.7617187,-0.51562505 -0.7617187,-0.76171875 z m 5.2324217,1.8398438 c 0,-0.9375 0.585938,-1.8984375 1.792969,-1.8984375 0.01172,0.2460937 0.175781,0.4453125 0.421875,0.4453125 0.222656,0 0.421875,-0.1640625 0.421875,-0.4335938 0,-0.1992187 -0.117188,-0.609375 -0.949219,-0.609375 -0.503906,0 -1.148437,0.1757813 -1.6875,0.796875 V -3.891875 c 0,-0.3046875 -0.05859,-0.3984375 -0.398437,-0.3984375 h -1.101563 c -0.152344,0 -0.398437,0 -0.398437,0.2929687 0,0.3046875 0.246093,0.3046875 0.398437,0.3046875 h 0.808594 v 3.0820313 h -0.808594 c -0.152344,0 -0.398437,0 -0.398437,0.3046875 0,0.3046875 0.246093,0.3046875 0.398437,0.3046875 h 2.601563 c 0.152343,0 0.410156,0 0.410156,-0.3046875 0,-0.3046875 -0.257813,-0.3046875 -0.410156,-0.3046875 h -1.101563 z m 5.967774,-3.8320313 c 0,-0.3046875 -0.05859,-0.3984375 -0.398438,-0.3984375 h -1.570312 c -0.152344,0 -0.410157,0 -0.410157,0.3046875 0,0.2929688 0.257813,0.2929688 0.398438,0.2929688 h 1.300781 v 4.875 h -1.289062 c -0.152344,0 -0.410157,0 -0.410157,0.3046875 0,0.3046875 0.257813,0.3046875 0.398438,0.3046875 h 3.28125 c 0.152344,0 0.398437,0 0.398437,-0.3046875 0,-0.3046875 -0.234375,-0.3046875 -0.398437,-0.3046875 h -1.300781 z m 0,0"
         style="fill:#000000;fill-opacity:1;fill-rule:nonzero;stroke:none" />
      <path
         id="path35"
         d="m -2.8511406,6.0602734 h 2.62499998 V 5.4157422 H -3.5659844 v 3.6796875 h 0.65625 c 0.1640625,-0.3984375 0.5390625,-0.7851563 1.1132813,-0.7851563 0.46875,0 1.00781248,0.4101563 1.00781248,1.6054688 0,1.6523438 -1.21874998,1.6523438 -1.30078128,1.6523438 -0.6679687,0 -1.2773437,-0.386719 -1.5703125,-0.925781 l -0.328125,0.550781 c 0.4101563,0.574219 1.1015625,0.984375 1.9101563,0.984375 1.18359373,0 2.17968748,-0.984375 2.17968748,-2.2500001 0,-1.2421875 -0.85546875,-2.2265625 -1.88671878,-2.2265625 -0.3984375,0 -0.7734375,0.1523438 -1.0664062,0.4101563 z m 0,0"
         style="fill:#000000;fill-opacity:1;fill-rule:nonzero;stroke:none" />
    </g>
    <path
       id="path36"
       d="m 480.8203,-12.45346 h 60.52321 V 12.45348 H 480.8203 Z"
       style="fill:#cceffc;fill-opacity:1;fill-rule:nonzero;stroke:#00adef;stroke-width:0.3985;stroke-linecap:butt;stroke-linejoin:miter;stroke-miterlimit:10;stroke-dasharray:none;stroke-opacity:1"
       transform="matrix(1.3333333,0,0,-1.3333333,40.782667,89.268)" />
    <path
       id="path37"
       d="M 1.8287813,-6.9148828 H 0.93815625 V -8.203125e-4 H 4.9694063 V -0.65707031 C 4.0905,-0.64535156 3.199875,-0.63363281 2.30925,-0.63363281 H 1.8287813 Z m 7.6933593,4.734375 c 0,-0.3398438 -0.011719,-1.0898438 -0.3984375,-1.6875 -0.4101562,-0.6210938 -1.0195312,-0.7265625 -1.3710937,-0.7265625 -1.1132813,0 -2.0039063,1.0546875 -2.0039063,2.34375 0,1.31249999 0.9492188,2.35546874 2.1445313,2.35546874 0.6328125,0 1.1953125,-0.234375 1.59375,-0.515625 L 9.4166719,-1.0555078 c -0.6210938,0.51562499 -1.2773438,0.55078124 -1.5117188,0.55078124 -0.796875,0 -1.4296875,-0.70312504 -1.4648437,-1.67578124 z M 6.4987031,-2.7312891 c 0.1523438,-0.7617187 0.6796875,-1.2539062 1.2539063,-1.2539062 0.515625,0 1.0664062,0.3398437 1.1953125,1.2539062 z m 7.7666019,-1.6875 h -0.75 l -0.785157,2.0625 c -0.210937,0.5507813 -0.515625,1.35937504 -0.597656,1.82812504 h -0.01172 C 12.06218,-0.89144531 11.804367,-1.5711328 11.710617,-1.8406641 l -0.972656,-2.578125 H 9.9645234 l 1.7109376,4.4179687875 h 0.878906 z m 4.277343,2.2382813 c 0,-0.3398438 -0.01172,-1.0898438 -0.398437,-1.6875 -0.410156,-0.6210938 -1.019531,-0.7265625 -1.371094,-0.7265625 -1.113281,0 -2.003906,1.0546875 -2.003906,2.34375 0,1.31249999 0.949219,2.35546874 2.144531,2.35546874 0.632813,0 1.195313,-0.234375 1.59375,-0.515625 L 18.43718,-1.0555078 c -0.621094,0.51562499 -1.277344,0.55078124 -1.511719,0.55078124 -0.796875,0 -1.429688,-0.70312504 -1.464844,-1.67578124 z m -3.023437,-0.5507813 c 0.152344,-0.7617187 0.679687,-1.2539062 1.253906,-1.2539062 0.515625,0 1.066406,0.3398437 1.195313,1.2539062 z M 20.403,-6.9148828 h -0.75 v 6.9140624875 h 0.75 z m 5.967773,0 h -0.890625 v 6.9140624875 h 0.890625 z m 9.37793,3.6328125 v -0.609375 h -3.28125 v -2.3554688 h 1.371094 c 0.117187,0 0.234375,0.011719 0.351562,0.011719 h 1.828125 v -0.6445313 h -4.441406 v 6.8789062875 h 4.582031 V -0.70394531 h -1.253906 c -0.117187,0 -0.246094,0 -0.363281,0 H 32.467453 V -3.2820703 Z m 3.427735,0.9960937 1.828125,-2.1328125 H 40.18425 l -1.335937,1.640625 -1.371094,-1.640625 h -0.832031 l 1.875,2.1328125 -1.933594,2.2851562875 h 0.820312 L 38.848313,-1.8758203 40.336594,-8.203125e-4 h 0.832031 z M 45.153,-2.8836328 c 0,-1.0078125 -0.726562,-1.7109375 -1.640625,-1.7109375 -0.644531,0 -1.101562,0.1640625 -1.570312,0.4335937 l 0.07031,0.65625 c 0.515625,-0.375 1.007813,-0.5039062 1.5,-0.5039062 0.46875,0 0.867188,0.3984375 0.867188,1.1367187 v 0.4335938 c -1.5,0.011719 -2.765625,0.4335937 -2.765625,1.3125 0,0.42187499 0.269531,1.23046874 1.136718,1.23046874 0.140625,0 1.078125,-0.01171875 1.652344,-0.46875 v 0.3632812475 h 0.75 z m -0.773437,1.5703125 c 0,0.1875 0,0.43359374 -0.339844,0.62109374 -0.292969,0.1875 -0.667969,0.1875 -0.773438,0.1875 -0.480468,0 -0.925781,-0.22265625 -0.925781,-0.64453124 0,-0.6914063 1.605469,-0.7617188 2.039063,-0.7851563 z m 8.692382,-1.6523438 c 0,-0.6679687 -0.164062,-1.5703125 -1.359375,-1.5703125 -0.597656,0 -1.125,0.28125 -1.488281,0.8203125 -0.257812,-0.7617187 -0.960937,-0.8203125 -1.277344,-0.8203125 -0.714843,0 -1.183593,0.4101563 -1.453125,0.7734375 v -0.7265625 h -0.714843 v 4.4882812875 h 0.773437 V -2.4383203 c 0,-0.6796875 0.269531,-1.4882813 1.007813,-1.4882813 0.925781,0 0.972656,0.6445313 0.972656,1.03125 v 2.8945312875 h 0.785156 V -2.4383203 c 0,-0.6796875 0.269531,-1.4882813 0.996094,-1.4882813 0.9375,0 0.984375,0.6445313 0.984375,1.03125 v 2.8945312875 h 0.773437 z m 0,0"
       style="fill:#000000;fill-opacity:1;fill-rule:nonzero;stroke:none"
       aria-label="LevelIExam"
       transform="matrix(1.3333333,0,0,1.3333333,686.296,93.88)" />
    <path
       id="path38"
       d="m 30.08746,0 c 7.49207,8.87767 13.50101,13.26234 23.89518,17.23845"
       style="fill:none;stroke:#000000;stroke-width:0.3985;stroke-linecap:butt;stroke-linejoin:miter;stroke-miterlimit:10;stroke-dasharray:none;stroke-opacity:1"
       transform="matrix(1.3333333,0,0,-1.3333333,40.782667,89.268)" />
    <path
       id="path39"
       d="M 1.99252,0 -1.19551,1.59401 0,0 -1.19551,-1.59401"
       style="fill:#000000;fill-opacity:1;fill-rule:nonzero;stroke:none"
       transform="matrix(1.2470133,-0.47172,-0.47172,-1.2470133,112.76797,66.297627)" />
    <path
       id="path40"
       d="M 30.08746,0 C 45.61942,-11.16681 57.00937,-15.6537 75.5286,-17.72316"
       style="fill:none;stroke:#000000;stroke-width:0.3985;stroke-linecap:butt;stroke-linejoin:miter;stroke-miterlimit:10;stroke-dasharray:none;stroke-opacity:1"
       transform="matrix(1.3333333,0,0,-1.3333333,40.782667,89.268)" />
    <path
       id="path41"
       d="M 1.99252,0 -1.19551,1.59401 0,0 -1.19551,-1.59401"
       style="fill:#000000;fill-opacity:1;fill-rule:nonzero;stroke:none"
       transform="matrix(1.32536,0.14510667,0.14510667,-1.32536,141.48717,112.8892)" />
    <path
       id="path42"
       d="m 137.68396,-17.93272 45.429,7e-5"
       style="fill:none;stroke:#000000;stroke-width:0.3985;stroke-linecap:butt;stroke-linejoin:miter;stroke-miterlimit:10;stroke-dasharray:none;stroke-opacity:1"
       transform="matrix(1.3333333,0,0,-1.3333333,40.782667,89.268)" />
    <path
       id="path43"
       d="M 1.99252,0 -1.19551,1.59401 0,0 -1.19551,-1.59401"
       style="fill:#000000;fill-opacity:1;fill-rule:nonzero;stroke:none"
       transform="matrix(1.3333333,0,0,-1.3333333,284.93328,113.1782)" />
    <path
       id="path44"
       d="M 159.34044,17.93272 213.35315,-4.51535"
       style="fill:none;stroke:#000000;stroke-width:0.3985;stroke-linecap:butt;stroke-linejoin:miter;stroke-miterlimit:10;stroke-dasharray:none;stroke-opacity:1"
       transform="matrix(1.3333333,0,0,-1.3333333,40.782667,89.268)" />
    <path
       id="path45"
       d="M 1.99252,0 -1.19551,1.59401 0,0 -1.19551,-1.59401"
       style="fill:#000000;fill-opacity:1;fill-rule:nonzero;stroke:none"
       transform="matrix(1.23116,0.51165333,0.51165333,-1.23116,325.25353,95.288467)" />
    <path
       id="path46"
       d="m 159.34044,17.93272 104.47023,-7e-5"
       style="fill:none;stroke:#000000;stroke-width:0.3985;stroke-linecap:butt;stroke-linejoin:miter;stroke-miterlimit:10;stroke-dasharray:none;stroke-opacity:1"
       transform="matrix(1.3333333,0,0,-1.3333333,40.782667,89.268)" />
    <path
       id="path47"
       d="M 1.99252,0 -1.19551,1.59401 0,0 -1.19551,-1.59401"
       style="fill:#000000;fill-opacity:1;fill-rule:nonzero;stroke:none"
       transform="matrix(1.3333333,0,0,-1.3333333,392.53023,65.3578)" />
    <path
       id="path48"
       d="m 325.97818,17.93265 45.42832,-8e-5"
       style="fill:none;stroke:#000000;stroke-width:0.3985;stroke-linecap:butt;stroke-linejoin:miter;stroke-miterlimit:10;stroke-dasharray:none;stroke-opacity:1"
       transform="matrix(1.3333333,0,0,-1.3333333,40.782667,89.268)" />
    <path
       id="path49"
       d="M 1.99252,0 -1.19551,1.59401 0,0 -1.19551,-1.59401"
       style="fill:#000000;fill-opacity:1;fill-rule:nonzero;stroke:none"
       transform="matrix(1.3333333,0,0,-1.3333333,535.99133,65.357907)" />
    <path
       id="path50"
       d="M 433.57397,17.93257 478.75745,0.70964"
       style="fill:none;stroke:#000000;stroke-width:0.3985;stroke-linecap:butt;stroke-linejoin:miter;stroke-miterlimit:10;stroke-dasharray:none;stroke-opacity:1"
       transform="matrix(1.3333333,0,0,-1.3333333,40.782667,89.268)" />
    <path
       id="path51"
       d="M 1.99252,0 -1.19551,1.59401 0,0 -1.19551,-1.59401"
       style="fill:#000000;fill-opacity:1;fill-rule:nonzero;stroke:none"
       transform="matrix(1.2458533,0.47488,0.47488,-1.2458533,679.12593,88.321787)" />
    <path
       id="path52"
       d="M 245.28047,-17.93265 H 406.67648 L 480.61923,0"
       style="fill:none;stroke:#000000;stroke-width:0.3985;stroke-linecap:butt;stroke-linejoin:miter;stroke-miterlimit:10;stroke-dasharray:none;stroke-opacity:1"
       transform="matrix(1.3333333,0,0,-1.3333333,40.782667,89.268)" />
    <path
       id="path53"
       d="m 295.89069,30.58531 -9.3e-4,8.56772"
       style="fill:none;stroke:#000000;stroke-width:0.3985;stroke-linecap:butt;stroke-linejoin:miter;stroke-miterlimit:10;stroke-dasharray:none;stroke-opacity:1"
       transform="matrix(1.3333333,0,0,-1.3333333,40.782667,89.268)" />
    <path
       id="path54"
       d="M 1.99252,0 -1.19551,1.59401 0,0 -1.19551,-1.59401"
       style="fill:#000000;fill-opacity:1;fill-rule:nonzero;stroke:none"
       transform="matrix(-1.2e-4,-1.3333067,-1.3333067,1.2e-4,435.30236,37.06396)" />
    <path
       id="path55"
       d="m 107.59648,-30.5854 -4e-4,-8.56769"
       style="fill:none;stroke:#000000;stroke-width:0.3985;stroke-linecap:butt;stroke-linejoin:miter;stroke-miterlimit:10;stroke-dasharray:none;stroke-opacity:1"
       transform="matrix(1.3333333,0,0,-1.3333333,40.782667,89.268)" />
    <path
       id="path56"
       d="M 1.99252,0 -1.19551,1.59401 0,0 -1.19551,-1.59401"
       style="fill:#000000;fill-opacity:1;fill-rule:nonzero;stroke:none"
       transform="matrix(-2.6666667e-5,1.3333067,1.3333067,2.6666667e-5,184.24413,141.47212)" />
  </g>
</svg>
