<?xml version="1.0" encoding="UTF-8" standalone="no"?>
<!-- Created with Inkscape (http://www.inkscape.org/) -->

<svg
   version="1.1"
   id="svg1"
   width="919.776"
   height="92.409332"
   viewBox="0 0 919.776 92.409332"
   xmlns="http://www.w3.org/2000/svg"
   xmlns:svg="http://www.w3.org/2000/svg">
  <defs
     id="defs1" />
  <g
     id="g1">
    <path
       id="path1"
       d="M -344.42049,-34.15381 V 34.15382 H 344.4205 v -68.30763 z"
       style="fill:#ffffff;fill-opacity:1;fill-rule:nonzero;stroke:none"
       transform="matrix(1.3333333,0,0,-1.3333333,459.888,46.205333)" />
    <path
       id="path2"
       d="M 2.203775,-17.203575 V -4.5e-4 H 8.3069 c 4.059375,0 7.18125,-3.815625 7.18125,-8.45625 0,-4.78125 -3.121875,-8.746875 -7.18125,-8.746875 z M 4.23815,-1.38795 v -14.428125 h 3.525 c 3.31875,0 5.7,3.046875 5.7,7.359375 0,4.14375 -2.353125,7.06875 -5.7,7.06875 z m 16.364063,-14.925 h -2.090625 v 2.08125 h 2.090625 z m -0.13125,5.653125 H 18.642838 V -4.5e-4 h 1.828125 z M 33.3569,-10.8567 c -1.415625,0.02812 -2.634375,0.3 -3.61875,0.76875 -0.825,-0.646875 -1.66875,-0.76875 -2.23125,-0.76875 -2.15625,0 -3.796875,1.78125 -3.796875,3.8625 0,1.340625 0.740625,2.3625 0.796875,2.409375 -0.45,0.61875 -0.69375,1.284375 -0.69375,2.034375 0,0.8625 0.346875,1.48125 0.61875,1.828125 -1.29375,0.796875 -1.4625,2.00625 -1.4625,2.484375 0,1.809375 2.25,3.290625 5.15625,3.290625 2.925,0 5.175,-1.48125 5.175,-3.31875 0,-3.421875 -3.7875,-3.440625 -4.828125,-3.440625 h -2.00625 c -0.375,0 -1.36875,0 -1.36875,-1.265625 0,-0.496875 0.225,-0.825 0.253125,-0.84375 0.365625,0.271875 1.134375,0.69375 2.15625,0.69375 2.053125,0 3.759375,-1.734375 3.759375,-3.871875 0,-1.190625 -0.54375,-2.053125 -0.759375,-2.353125 h 0.06562 c 0.075,0 1.115625,-0.075 1.490625,-0.075 0.796875,0 0.871875,0.028125 1.565625,0.103125 z m -5.85,6.365625 c -0.84375,0 -2.034375,-0.515625 -2.034375,-2.503125 0,-2.15625 1.359375,-2.503125 2.00625,-2.503125 0.84375,0 2.034375,0.525 2.034375,2.503125 0,2.15625 -1.36875,2.503125 -2.00625,2.503125 z m 0.9375,4.59375 c 0.6,0 3.103125,0 3.103125,1.678125 0,1.06875 -1.5375,1.9125 -3.403125,1.9125 -1.884375,0 -3.421875,-0.815625 -3.421875,-1.93125 0,-0.121875 0,-1.659375 1.715625,-1.659375 z m 9.330469,-16.415625 h -2.090625 v 2.08125 h 2.090625 z m -0.13125,5.653125 H 35.815494 V -4.5e-4 h 1.828125 z m 5.995312,1.434375 h 3.215625 v -1.434375 H 43.638931 V -13.7067 h -1.7625 v 3.046875 h -1.959375 v 1.434375 h 1.9125 v 6.271875 c 0,1.415625 0.31875,3.15 1.95,3.15 1.246875,0 2.38125,-0.346875 3.478125,-0.91875 l -0.403125,-1.4625 c -0.590625,0.525 -1.3125,0.825 -2.08125,0.825 -1.0875,0 -1.134375,-1.3875 -1.134375,-2.015625 z m 13.59375,2.2125 c 0,-2.334375 -1.659375,-3.946875 -3.890625,-3.946875 -1.0875,0 -2.278125,0.20625 -3.646875,0.99375 l 0.15,1.640625 c 0.61875,-0.45 1.6875,-1.171875 3.46875,-1.171875 1.265625,0 2.034375,0.965625 2.034375,2.503125 v 0.946875 c -3.965625,0.121875 -6.440625,1.265625 -6.440625,3.225 0,1.0125 0.61875,3.01875 2.671875,3.01875 0.375,0 2.38125,-0.046875 3.815625,-1.115625 v 0.91875 h 1.8375 z m -1.884375,3.740625 c 0,0.45 0,1.040625 -0.740625,1.490625 -0.646875,0.421875 -1.4625,0.46875 -1.809375,0.46875 -1.2375,0 -2.08125,-0.69375 -2.08125,-1.565625 0,-1.734375 3.8625,-1.903125 4.63125,-1.93125 z m 7.40625,-13.93125 H 60.926431 V -4.5e-4 h 1.828125 z m 11.838282,0 V -4.5e-4 h 6.103125 c 4.059375,0 7.18125,-3.815625 7.18125,-8.45625 0,-4.78125 -3.121875,-8.746875 -7.18125,-8.746875 z m 2.034375,15.815625 v -14.428125 h 3.525 c 3.31875,0 5.7,3.046875 5.7,7.359375 0,4.14375 -2.353125,7.06875 -5.7,7.06875 z m 22.2375,-4.040625 c 0,-0.815625 -0.04687,-2.409375 -0.84375,-3.721875 -0.871875,-1.40625 -2.278125,-1.809375 -3.346875,-1.809375 -2.578125,0 -4.7625,2.428125 -4.7625,5.578125 0,3.075 2.259375,5.578125 5.109375,5.578125 1.115625,0 2.475,-0.31875 3.721875,-1.209375 0,-0.103125 -0.05625,-0.646875 -0.075,-0.675 0,-0.046875 -0.075,-0.815625 -0.075,-0.91875 -1.190625,0.965625 -2.559375,1.29375 -3.54375,1.29375 -1.59375,0 -3.3,-1.340625 -3.375,-4.115625 z m -6.99375,-1.359375 c 0.328125,-1.36875 1.415625,-2.653125 2.803125,-2.653125 0.375,0 2.109375,0.046875 2.55,2.653125 z m 15.660937,-3.421875 c -1.4625,-0.69375 -2.59687,-0.75 -3.34687,-0.75 -1.75313,0 -3.8625,0.61875 -3.8625,3.121875 0,2.5125 2.72812,3.05625 3.46875,3.20625 1.14375,0.215625 2.40937,0.46875 2.40937,1.70625 0,1.565625 -1.79062,1.565625 -2.10937,1.565625 -0.99375,0 -2.35313,-0.28125 -3.6,-1.171875 l -0.29063,1.659375 c 1.40625,0.825 2.775,1.06875 3.90938,1.06875 3.05625,0 3.825,-1.85625 3.825,-3.271875 0,-1.209375 -0.69375,-2.034375 -1.17188,-2.4 -0.81562,-0.646875 -1.11562,-0.721875 -3.14062,-1.14375 -0.34688,-0.046875 -1.56563,-0.31875 -1.56563,-1.434375 0,-1.415625 1.56563,-1.415625 1.9125,-1.415625 1.60313,0 2.59688,0.496875 3.27188,0.871875 z m 4.72969,-6.103125 h -2.09063 v 2.08125 h 2.09063 z m -0.13125,5.653125 h -1.82813 V -4.5e-4 h 1.82813 z m 12.91172,-0.196875 c -1.41563,0.02812 -2.63438,0.3 -3.61875,0.76875 -0.825,-0.646875 -1.66875,-0.76875 -2.23125,-0.76875 -2.15625,0 -3.79688,1.78125 -3.79688,3.8625 0,1.340625 0.74063,2.3625 0.79688,2.409375 -0.45,0.61875 -0.69375,1.284375 -0.69375,2.034375 0,0.8625 0.34687,1.48125 0.61875,1.828125 -1.29375,0.796875 -1.4625,2.00625 -1.4625,2.484375 0,1.809375 2.25,3.290625 5.15625,3.290625 2.925,0 5.175,-1.48125 5.175,-3.31875 0,-3.421875 -3.7875,-3.440625 -4.82813,-3.440625 h -2.00625 c -0.375,0 -1.36875,0 -1.36875,-1.265625 0,-0.496875 0.225,-0.825 0.25313,-0.84375 0.36562,0.271875 1.13437,0.69375 2.15625,0.69375 2.05312,0 3.75937,-1.734375 3.75937,-3.871875 0,-1.190625 -0.54375,-2.053125 -0.75937,-2.353125 h 0.0656 c 0.075,0 1.11563,-0.075 1.49063,-0.075 0.79687,0 0.87187,0.028125 1.56562,0.103125 z m -5.85,6.365625 c -0.84375,0 -2.03438,-0.515625 -2.03438,-2.503125 0,-2.15625 1.35938,-2.503125 2.00625,-2.503125 0.84375,0 2.03438,0.525 2.03438,2.503125 0,2.15625 -1.36875,2.503125 -2.00625,2.503125 z m 0.9375,4.59375 c 0.6,0 3.10312,0 3.10312,1.678125 0,1.06875 -1.5375,1.9125 -3.40312,1.9125 -1.88438,0 -3.42188,-0.815625 -3.42188,-1.93125 0,-0.121875 0,-1.659375 1.71563,-1.659375 z m 15.66797,-7.340625 c 0,-1.565625 -0.36563,-3.61875 -3.16875,-3.61875 -1.58438,0 -2.625,0.815625 -3.31875,1.659375 v -1.5375 h -1.80938 V -4.5e-4 h 1.88438 v -6 c 0,-1.55625 0.59062,-3.346875 2.27812,-3.346875 2.18438,0 2.25,1.4625 2.25,2.30625 V -4.5e-4 h 1.88438 z m 18.9375,0.225 c 0,-2.334375 -1.65938,-3.946875 -3.89063,-3.946875 -1.0875,0 -2.27812,0.20625 -3.64687,0.99375 l 0.15,1.640625 c 0.61875,-0.45 1.6875,-1.171875 3.46875,-1.171875 1.26562,0 2.03437,0.965625 2.03437,2.503125 v 0.946875 c -3.96562,0.121875 -6.44062,1.265625 -6.44062,3.225 0,1.0125 0.61875,3.01875 2.67187,3.01875 0.375,0 2.38125,-0.046875 3.81563,-1.115625 v 0.91875 h 1.8375 z m -1.88438,3.740625 c 0,0.45 0,1.040625 -0.74062,1.490625 -0.64688,0.421875 -1.4625,0.46875 -1.80938,0.46875 -1.2375,0 -2.08125,-0.69375 -2.08125,-1.565625 0,-1.734375 3.8625,-1.903125 4.63125,-1.93125 z m 13.87734,-3.965625 c 0,-1.565625 -0.36562,-3.61875 -3.16875,-3.61875 -1.58437,0 -2.625,0.815625 -3.31875,1.659375 v -1.5375 h -1.80937 V -4.5e-4 h 1.88437 v -6 c 0,-1.55625 0.59063,-3.346875 2.27813,-3.346875 2.18437,0 2.25,1.4625 2.25,2.30625 V -4.5e-4 h 1.88437 z m 11.97422,-9.965625 h -1.8375 V -9.6192 c -0.76875,-0.646875 -2.03437,-1.2375 -3.42187,-1.2375 -2.25,0 -4.04063,2.45625 -4.04063,5.53125 0,3.065625 1.7625,5.521875 3.96563,5.521875 1.71562,0 2.85,-0.91875 3.45,-1.434375 v 1.2375 h 1.88437 z M 176.81784,-3.3192 c 0,0.346875 0,0.7125 -0.76875,1.3875 -0.49688,0.421875 -1.0875,0.61875 -1.65938,0.61875 -1.34062,0 -3.10312,-0.99375 -3.10312,-3.99375 0,-3.121875 1.9875,-4.040625 3.34687,-4.040625 0.91875,0 1.65938,0.45 2.18438,1.190625 z m 25.07812,0.46875 c -1.65937,1.115625 -2.42812,1.434375 -4.43437,1.434375 -3.46875,0 -5.50313,-3.740625 -5.50313,-7.1625 0,-3.6375 2.08125,-7.2375 5.60625,-7.2375 1.58438,0 2.625,0.45 3.89063,1.2375 l 0.34687,-1.959375 c -1.19062,-0.590625 -2.70937,-0.8625 -4.21875,-0.8625 -4.75312,0 -7.70625,4.3875 -7.70625,8.821875 0,4.884375 3.49688,8.75625 7.4625,8.75625 2.12813,0 2.86875,-0.178125 4.70625,-1.340625 z m 12.29532,-2.45625 c 0,-3.16875 -2.3625,-5.653125 -5.1375,-5.653125 -2.85,0 -5.15625,2.559375 -5.15625,5.653125 0,3.15 2.38125,5.503125 5.1375,5.503125 2.82187,0 5.15625,-2.428125 5.15625,-5.503125 z m -5.1375,3.946875 c -1.75313,0 -3.27188,-1.44375 -3.27188,-4.14375 0,-2.878125 1.7625,-3.9375 3.25313,-3.9375 1.6125,0 3.27187,1.1625 3.27187,3.9375 0,2.803125 -1.6125,4.14375 -3.25312,4.14375 z m 22.43671,-5.878125 c 0,-1.659375 -0.4125,-3.61875 -3.19687,-3.61875 -1.85625,0 -2.97188,1.1625 -3.46875,1.884375 -0.44063,-1.3125 -1.48125,-1.884375 -2.97188,-1.884375 -1.6875,0 -2.75625,0.965625 -3.31875,1.659375 v -1.5375 h -1.80937 V -4.5e-4 h 1.88437 v -6 c 0,-1.4625 0.54375,-3.346875 2.29688,-3.346875 2.25937,0 2.25937,1.584375 2.25937,2.30625 V -4.5e-4 h 1.88438 v -6 c 0,-1.4625 0.54375,-3.346875 2.30625,-3.346875 2.25937,0 2.25937,1.584375 2.25937,2.30625 V -4.5e-4 h 1.875 z m 5.60625,6.121875 c 0.81563,0.796875 1.93125,1.3125 3.12188,1.3125 2.30625,0 4.29375,-2.38125 4.29375,-5.55 0,-2.925 -1.49063,-5.503125 -3.61875,-5.503125 -1.2375,0 -2.72813,0.45 -3.84375,1.340625 v -1.14375 h -1.8375 V 4.83705 h 1.88437 z m 0,-6.9375 c 0.19688,-0.3 1.04063,-1.2375 2.40938,-1.2375 1.73437,0 3.12187,1.78125 3.12187,3.9375 0,2.45625 -1.6875,4.040625 -3.34687,4.040625 -0.49688,0 -1.0125,-0.121875 -1.50938,-0.54375 -0.675,-0.6 -0.675,-0.965625 -0.675,-1.3125 z m 18.38672,-2.60625 h -1.88437 v 6.84375 c 0,1.828125 -1.33125,2.578125 -2.74688,2.578125 -1.64062,0 -1.78125,-0.54375 -1.78125,-1.565625 v -7.85625 h -1.88437 V -2.6817 c 0,1.940625 0.66562,2.878125 2.37187,2.878125 0.84375,0 2.75625,-0.196875 4.09688,-1.434375 v 1.2375 h 1.82812 z m 6.00469,1.434375 h 3.21563 v -1.434375 h -3.21563 V -13.7067 h -1.7625 v 3.046875 h -1.95937 v 1.434375 h 1.9125 v 6.271875 c 0,1.415625 0.31875,3.15 1.95,3.15 1.24687,0 2.38125,-0.346875 3.47812,-0.91875 l -0.40312,-1.4625 c -0.59063,0.525 -1.3125,0.825 -2.08125,0.825 -1.0875,0 -1.13438,-1.3875 -1.13438,-2.015625 z m 13.96875,3.796875 c 0,-0.815625 -0.0469,-2.409375 -0.84375,-3.721875 -0.87187,-1.40625 -2.27812,-1.809375 -3.34687,-1.809375 -2.57813,0 -4.7625,2.428125 -4.7625,5.578125 0,3.075 2.25937,5.578125 5.10937,5.578125 1.11563,0 2.475,-0.31875 3.72188,-1.209375 0,-0.103125 -0.0563,-0.646875 -0.075,-0.675 0,-0.046875 -0.075,-0.815625 -0.075,-0.91875 -1.19063,0.965625 -2.55938,1.29375 -3.54375,1.29375 -1.59375,0 -3.3,-1.340625 -3.375,-4.115625 z m -6.99375,-1.359375 c 0.32813,-1.36875 1.41563,-2.653125 2.80313,-2.653125 0.375,0 2.10937,0.046875 2.55,2.653125 z m 11.35078,1.509375 c 0,-2.334375 1.70625,-3.890625 3.89063,-3.946875 v -1.63125 c -1.58438,0.02812 -3.075,0.815625 -3.96563,2.109375 v -1.9875 h -1.7625 V -4.5e-4 h 1.8375 z m 20.8336,-11.925 h -2.1375 L 292.49128,-4.5e-4 h 1.88437 l 1.73438,-5.00625 h 6.6375 l 1.7625,5.00625 h 2.15625 z m 1.63125,10.809375 h -5.7 c 1.19062,-3.46875 2.68125,-7.78125 2.85,-8.896875 h 0.0281 c 0.16875,1.0125 0.66563,2.503125 1.0875,3.76875 z m 8.7375,1.115625 c 0,-2.334375 1.70625,-3.890625 3.89062,-3.946875 v -1.63125 c -1.58437,0.02812 -3.075,0.815625 -3.96562,2.109375 v -1.9875 h -1.7625 V -4.5e-4 h 1.8375 z m 13.79062,-4.6125 c 0,-0.16875 -1.14375,-0.665625 -1.43437,-0.76875 -0.825,-0.3 -1.86563,-0.3 -2.1375,-0.3 -3.225,0 -5.15625,2.803125 -5.15625,5.634375 0,2.971875 2.15625,5.521875 5.0625,5.521875 1.65937,0 2.85,-0.54375 3.81562,-1.190625 l -0.15,-1.63125 c -1.06875,0.815625 -2.30625,1.265625 -3.64687,1.265625 -1.93125,0 -3.19688,-1.6875 -3.19688,-3.99375 0,-1.78125 0.81563,-4.040625 3.3,-4.040625 1.35938,0 2.12813,0.271875 3.27188,1.040625 z m 10.94766,2.653125 c 0,-1.565625 -0.36563,-3.61875 -3.16875,-3.61875 -1.56563,0 -2.57813,0.76875 -3.3,1.6125 v -7.959375 h -1.82813 V -4.5e-4 h 1.88438 v -6 c 0,-1.55625 0.59062,-3.346875 2.27812,-3.346875 2.18438,0 2.25,1.4625 2.25,2.30625 V -4.5e-4 h 1.88438 z m 5.65781,-9.075 h -2.09063 v 2.08125 h 2.09063 z m -0.13125,5.653125 h -1.82813 V -4.5e-4 h 1.82813 z m 5.99531,1.434375 h 3.21563 v -1.434375 h -3.21563 V -13.7067 h -1.7625 v 3.046875 h -1.95937 v 1.434375 h 1.9125 v 6.271875 c 0,1.415625 0.31875,3.15 1.95,3.15 1.24687,0 2.38125,-0.346875 3.47812,-0.91875 l -0.40312,-1.4625 c -0.59063,0.525 -1.3125,0.825 -2.08125,0.825 -1.0875,0 -1.13438,-1.3875 -1.13438,-2.015625 z m 13.96875,3.796875 c 0,-0.815625 -0.0469,-2.409375 -0.84375,-3.721875 -0.87187,-1.40625 -2.27812,-1.809375 -3.34687,-1.809375 -2.57813,0 -4.7625,2.428125 -4.7625,5.578125 0,3.075 2.25937,5.578125 5.10937,5.578125 1.11563,0 2.475,-0.31875 3.72188,-1.209375 0,-0.103125 -0.0562,-0.646875 -0.075,-0.675 0,-0.046875 -0.075,-0.815625 -0.075,-0.91875 -1.19063,0.965625 -2.55938,1.29375 -3.54375,1.29375 -1.59375,0 -3.3,-1.340625 -3.375,-4.115625 z m -6.99375,-1.359375 c 0.32813,-1.36875 1.41563,-2.653125 2.80313,-2.653125 0.375,0 2.10937,0.046875 2.55,2.653125 z m 17.20078,-3.103125 c 0,-0.16875 -1.14375,-0.665625 -1.43437,-0.76875 -0.825,-0.3 -1.86563,-0.3 -2.1375,-0.3 -3.225,0 -5.15625,2.803125 -5.15625,5.634375 0,2.971875 2.15625,5.521875 5.0625,5.521875 1.65937,0 2.85,-0.54375 3.81562,-1.190625 l -0.15,-1.63125 c -1.06875,0.815625 -2.30625,1.265625 -3.64687,1.265625 -1.93125,0 -3.19688,-1.6875 -3.19688,-3.99375 0,-1.78125 0.81563,-4.040625 3.3,-4.040625 1.35938,0 2.12813,0.271875 3.27188,1.040625 z m 4.95938,0.665625 h 3.21562 v -1.434375 h -3.21562 V -13.7067 h -1.7625 v 3.046875 h -1.95938 v 1.434375 h 1.9125 v 6.271875 c 0,1.415625 0.31875,3.15 1.95,3.15 1.24688,0 2.38125,-0.346875 3.47813,-0.91875 l -0.40313,-1.4625 c -0.59062,0.525 -1.3125,0.825 -2.08125,0.825 -1.0875,0 -1.13437,-1.3875 -1.13437,-2.015625 z m 14.40703,-1.434375 h -1.88438 v 6.84375 c 0,1.828125 -1.33125,2.578125 -2.74687,2.578125 -1.64063,0 -1.78125,-0.54375 -1.78125,-1.565625 v -7.85625 h -1.88438 V -2.6817 c 0,1.940625 0.66563,2.878125 2.37188,2.878125 0.84375,0 2.75625,-0.196875 4.09687,-1.434375 v 1.2375 h 1.82813 z m 5.55469,5.38125 c 0,-2.334375 1.70625,-3.890625 3.89062,-3.946875 v -1.63125 c -1.58437,0.02812 -3.075,0.815625 -3.96562,2.109375 v -1.9875 h -1.7625 V -4.5e-4 h 1.8375 z m 13.94062,-0.15 c 0,-0.815625 -0.0469,-2.409375 -0.84375,-3.721875 -0.87187,-1.40625 -2.27812,-1.809375 -3.34687,-1.809375 -2.57813,0 -4.7625,2.428125 -4.7625,5.578125 0,3.075 2.25937,5.578125 5.10937,5.578125 1.11563,0 2.475,-0.31875 3.72188,-1.209375 0,-0.103125 -0.0563,-0.646875 -0.075,-0.675 0,-0.046875 -0.075,-0.815625 -0.075,-0.91875 -1.19063,0.965625 -2.55938,1.29375 -3.54375,1.29375 -1.59375,0 -3.3,-1.340625 -3.375,-4.115625 z m -6.99375,-1.359375 c 0.32813,-1.36875 1.41563,-2.653125 2.80313,-2.653125 0.375,0 2.10937,0.046875 2.55,2.653125 z m 27.03985,0.965625 v -1.51875 h -11.625 v 1.51875 z m 18.64218,-10.565625 c -1.0875,-0.6375 -2.27812,-1.209375 -4.28437,-1.209375 -3.19688,0 -5.25938,2.353125 -5.25938,4.753125 0,0.946875 0.28125,2.015625 1.24688,3.103125 0.96562,1.0875 2.05312,1.3875 3.44062,1.734375 0.57188,0.15 1.5375,0.421875 1.71563,0.496875 1.3875,0.54375 2.05312,1.809375 2.05312,3 0,1.55625 -1.20937,3.225 -3.36562,3.225 -0.75,0 -2.925,-0.13125 -4.9875,-2.015625 l -0.34688,1.959375 c 2.03438,1.490625 4.2375,1.734375 5.35313,1.734375 3.04687,0 5.23125,-2.4 5.23125,-5.128125 0,-0.99375 -0.3,-2.259375 -1.34063,-3.421875 -1.0125,-1.115625 -1.90312,-1.359375 -3.9375,-1.903125 -1.1625,-0.3 -1.9125,-0.496875 -2.53125,-1.265625 -0.42187,-0.54375 -0.64687,-1.06875 -0.64687,-1.734375 0,-1.3875 1.19062,-2.90625 3.375,-2.90625 1.0875,0 2.50312,0.225 3.9375,1.565625 z m 12.94922,0 c -1.0875,-0.6375 -2.27812,-1.209375 -4.28437,-1.209375 -3.19688,0 -5.25938,2.353125 -5.25938,4.753125 0,0.946875 0.28125,2.015625 1.24688,3.103125 0.96562,1.0875 2.05312,1.3875 3.44062,1.734375 0.57188,0.15 1.5375,0.421875 1.71563,0.496875 1.3875,0.54375 2.05312,1.809375 2.05312,3 0,1.55625 -1.20937,3.225 -3.36562,3.225 -0.75,0 -2.925,-0.13125 -4.9875,-2.015625 l -0.34688,1.959375 c 2.03438,1.490625 4.2375,1.734375 5.35313,1.734375 3.04687,0 5.23125,-2.4 5.23125,-5.128125 0,-0.99375 -0.3,-2.259375 -1.34063,-3.421875 -1.0125,-1.115625 -1.90312,-1.359375 -3.9375,-1.903125 -1.1625,-0.3 -1.9125,-0.496875 -2.53125,-1.265625 -0.42187,-0.54375 -0.64687,-1.06875 -0.64687,-1.734375 0,-1.3875 1.19062,-2.90625 3.375,-2.90625 1.0875,0 2.50312,0.225 3.9375,1.565625 z m 16.27266,11.128125 c 0.69375,-0.7125 1.73437,-1.584375 2.45625,-2.446875 0.69375,-0.84375 1.6125,-2.034375 1.6125,-3.76875 0,-2.728125 -1.8375,-5.184375 -4.95938,-5.184375 -2.45625,0 -3.8625,1.5375 -4.5375,3.946875 l 0.96563,1.33125 c 0.54375,-2.25 1.3125,-3.69375 3.25312,-3.69375 2.12813,0 3.31875,1.74375 3.31875,3.646875 0,2.278125 -1.73437,4.040625 -3.04687,5.353125 -1.4625,1.4625 -2.90625,2.953125 -4.29375,4.490625 V -4.5e-4 h 9.3 v -1.6875 h -4.21875 c -0.29063,0 -0.59063,0.028125 -0.89063,0.028125 h -2.475 V -1.68795 Z m 15.94922,-2.85 c 0,-1.40625 -0.0281,-4.040625 -1.04063,-6.065625 -1.02187,-1.959375 -2.65312,-2.484375 -3.825,-2.484375 -1.67812,0 -3.12187,0.99375 -3.8625,2.578125 -0.79687,1.659375 -1.02187,3.375 -1.02187,5.971875 0,1.790625 0.075,3.965625 0.975,5.878125 1.0125,2.109375 2.71875,2.625 3.89062,2.625 1.5375,0 3.01875,-0.815625 3.8625,-2.521875 0.87188,-1.790625 1.02188,-3.75 1.02188,-5.98125 z m -4.88438,6.99375 c -1.88437,0 -2.45625,-2.15625 -2.63437,-2.878125 -0.29063,-1.2375 -0.34688,-2.428125 -0.34688,-4.3875 0,-1.5375 0,-3.271875 0.47813,-4.63125 0.5625,-1.584375 1.55625,-2.128125 2.50312,-2.128125 1.82813,0 2.42813,1.828125 2.625,2.475 0.375,1.3125 0.375,2.85 0.375,4.284375 0,2.30625 0,7.265625 -3,7.265625 z m 12.24375,-4.14375 c 0.69375,-0.7125 1.73438,-1.584375 2.45625,-2.446875 0.69375,-0.84375 1.6125,-2.034375 1.6125,-3.76875 0,-2.728125 -1.8375,-5.184375 -4.95937,-5.184375 -2.45625,0 -3.8625,1.5375 -4.5375,3.946875 l 0.96562,1.33125 c 0.54375,-2.25 1.3125,-3.69375 3.25313,-3.69375 2.12812,0 3.31875,1.74375 3.31875,3.646875 0,2.278125 -1.73438,4.040625 -3.04688,5.353125 -1.4625,1.4625 -2.90625,2.953125 -4.29375,4.490625 V -4.5e-4 h 9.3 v -1.6875 h -4.21875 c -0.29062,0 -0.59062,0.028125 -0.89062,0.028125 h -2.475 V -1.68795 Z m 8.88047,-9.4125 h 6.075 V -16.2567 h -7.88437 v 9.140625 h 1.65937 c 0.45,-1.040625 1.36875,-1.809375 2.55,-1.809375 1.11563,0 2.3625,0.99375 2.3625,3.84375 0,3.046875 -1.7625,3.9375 -3.05625,3.9375 -1.58437,0 -3.04687,-0.965625 -3.68437,-2.30625 l -0.79688,1.396875 c 1.14375,1.753125 3,2.446875 4.48125,2.446875 2.87813,0 5.1375,-2.446875 5.1375,-5.428125 0,-3.046875 -2.00625,-5.4 -4.41562,-5.4 -0.8625,0 -1.70625,0.3 -2.42813,0.890625 z m 0,0"
       style="fill:#000000;fill-opacity:1;fill-rule:nonzero;stroke:none"
       aria-label="DigitalDesignandComputerArchitecture–SS2025"
       transform="matrix(1.6666667,0,0,1.6666667,27.842667,56.532)" />
  </g>
</svg>
