<?xml version="1.0" encoding="UTF-8" standalone="no"?>
<!-- Created with Inkscape (http://www.inkscape.org/) -->

<svg
   version="1.1"
   id="svg1"
   width="915.776"
   height="205.28934"
   viewBox="0 0 915.776 205.28934"
   sodipodi:docname="main.pdf"
   xmlns:inkscape="http://www.inkscape.org/namespaces/inkscape"
   xmlns:sodipodi="http://sodipodi.sourceforge.net/DTD/sodipodi-0.dtd"
   xmlns="http://www.w3.org/2000/svg"
   xmlns:svg="http://www.w3.org/2000/svg">
  <defs
     id="defs1" />
  <sodipodi:namedview
     id="namedview1"
     pagecolor="#ffffff"
     bordercolor="#000000"
     borderopacity="0.25"
     inkscape:showpageshadow="2"
     inkscape:pageopacity="0.0"
     inkscape:pagecheckerboard="0"
     inkscape:deskcolor="#d1d1d1">
    <inkscape:page
       x="0"
       y="0"
       inkscape:label="1"
       id="page1"
       width="915.776"
       height="205.28934"
       margin="0"
       bleed="0" />
  </sodipodi:namedview>
  <g
     id="g1"
     inkscape:groupmode="layer"
     inkscape:label="1">
    <path
       id="path1"
       d="M 0,0 H 686.832 V 153.967 H 0 Z"
       style="fill:#ffffff;fill-opacity:1;fill-rule:nonzero;stroke:none"
       transform="matrix(1.3333333,0,0,-1.3333333,0,205.28933)" />
    <path
       id="path2"
       d="M 20.40372,22.9542 V -99.52046 M 61.21118,22.9542 V -99.52046 M 102.01865,22.9542 V -99.52046 M 142.82611,22.9542 V -99.52046 M 183.63356,22.9542 V -99.52046 M 224.44102,22.9542 V -99.52046 M 265.24849,22.9542 V -99.52046 M 306.05595,22.9542 V -99.52046 M 346.86342,22.9542 V -99.52046 M 387.67087,22.9542 V -99.52046 M 428.47833,22.9542 V -99.52046 M 469.2858,22.9542 V -99.52046 M 510.09326,22.9542 V -99.52046 M 550.90071,22.9542 V -99.52046 M 591.70818,22.9542 V -99.52046"
       style="fill:none;stroke:#808080;stroke-width:0.59776;stroke-linecap:butt;stroke-linejoin:miter;stroke-miterlimit:10;stroke-dasharray:none;stroke-opacity:0.3"
       transform="matrix(1.3333333,0,0,-1.3333333,119.37333,31.74)" />
    <path
       id="path3"
       d="M 102.01865,22.9542 V -99.52046 M 346.86342,22.9542 V -99.52046 M 428.47833,22.9542 V -99.52046 M 469.2858,22.9542 V -99.52046 M 510.09326,22.9542 V -99.52046"
       style="fill:none;stroke:#ff8000;stroke-width:0.7024;stroke-linecap:butt;stroke-linejoin:miter;stroke-miterlimit:10;stroke-dasharray:2.98883, 2.98883;stroke-dashoffset:0;stroke-opacity:0.75"
       transform="matrix(1.3333333,0,0,-1.3333333,119.37333,31.74)" />
    <path
       id="path4"
       d="m 5.7548828,-1.5480938 c -0.65625,0.5273438 -1.3945312,0.79687505 -2.1914062,0.79687505 -1.1953125,0 -1.96875,-1.05468755 -1.96875,-2.44921875 0,-1.1953125 0.5742187,-2.4960938 2.0039062,-2.4960938 0.9609375,0 1.3710938,0.234375 1.9804688,0.6445313 l 0.1757812,-0.9257813 c -0.8320312,-0.4921875 -1.3125,-0.609375 -2.15625,-0.609375 -1.9804687,0 -3.09374999,1.7578125 -3.09374999,3.3867188 0,1.8398437 1.31249999,3.33984375 3.03515629,3.33984375 0.703125,0 1.5117187,-0.1640625 2.296875,-0.73828125 0,-0.046875 -0.046875,-0.4921875 -0.058594,-0.5507813 z M 8.4238281,-9.9504375 H 7.3574219 v 9.94921875 H 8.4238281 Z M 13.451172,-3.9152813 15.806641,-6.3645 h -1.324219 l -2.765625,2.8828125 v -6.46875 h -1.054688 v 9.94921875 h 1.007813 V -2.0637188 l 1.089844,-1.1367187 2.179687,3.19921875 h 1.183594 z m 11.408203,-6.8437497 c -2.15625,1.9218747 -2.707031,4.8281247 -2.707031,7.1718747 0,2.5195313 0.621093,5.3320313 2.707031,7.1835938 h 0.855469 c -0.5625,-0.515625 -1.429688,-1.6289063 -1.933594,-3.2578125 -0.386719,-1.27734375 -0.539063,-2.6015625 -0.539063,-3.9140625 0,-4.2304688 1.511719,-6.2929688 2.472657,-7.1835935 z m 2.34668,9.8554685 v 0.90234375 h 5.613281 V -0.973875 h -2.554688 c -0.175781,0 -0.351562,0.0117188 -0.515625,0.0117188 h -1.535156 c 0.363281,-0.3867187 1.699219,-1.7109376 2.636719,-2.5429688 1.054687,-0.9257812 1.96875,-1.8164062 1.96875,-3.1406249 0,-1.59375 -1.113281,-3.046875 -3,-3.046875 -1.546875,0 -2.34375,1.0078125 -2.730469,2.34375 0.457031,0.5742187 0.457031,0.609375 0.585938,0.7734375 0.363281,-1.5351564 0.890625,-2.2382814 1.957031,-2.2382814 1.230469,0 2.039062,0.9609376 2.039062,2.2031251 0,0.7382813 -0.304687,1.5703125 -1.265625,2.5195313 z m 8.478515,-7.6054688 h 3.679688 v -0.890625 H 34.665039 V -4.1145 h 0.925781 c 0.363282,-0.8203125 0.996094,-1.1367188 1.582032,-1.1367188 0.667968,0 1.429687,0.5976563 1.429687,2.3085938 0,1.8046875 -1.03125,2.37890625 -1.863281,2.37890625 -0.785156,0 -1.734375,-0.421875 -2.191406,-1.33593755 L 34.079102,-1.1145 c 0.9375,1.34765625 2.285156,1.41796875 2.671875,1.41796875 1.699218,0 3.09375,-1.41796875 3.09375,-3.21093755 0,-1.7929687 -1.207032,-3.1992187 -2.660157,-3.1992187 -0.574218,0 -1.101562,0.2109375 -1.5,0.5742187 z m 12.556641,-1.4414062 h -1.640625 v 9.94921875 h 1.113281 V -8.848875 h 0.01172 c 0.199219,0.9726562 2.519531,7.1132812 3.070312,8.54296875 h 1.042969 c 0.46875,-1.23046875 2.835938,-7.48828125 3.09375,-8.55468755 h 0.02344 v 8.85937505 H 56.05762 V -9.9504375 h -1.640625 l -1.628906,4.4179687 c -0.75,2.0039063 -1.3125,3.5039063 -1.453125,4.171875 h -0.01172 C 51.276374,-1.6066875 51.088869,-2.1340313 50.901369,-2.6965313 50.643557,-3.4699688 50.643557,-3.505125 50.4209,-4.0910625 Z m 17.71875,0 H 64.729492 V -5.6145 h -4.78125 v -4.3359375 h -1.230469 v 9.94921875 h 1.230469 V -4.7473125 h 4.78125 v 4.74609375 h 1.230469 z m 6.905273,4.1367187 V -6.3645 h -5.003906 v 0.84375 h 1.933594 c 0.175781,0 0.351562,-0.011719 0.515625,-0.011719 h 1.101562 l -3.75,4.9570313 v 0.57421875 h 5.25 V -0.880125 h -2.050781 c -0.175781,0 -0.339844,0.0234375 -0.515625,0.0234375 h -1.21875 z m 2.144532,9.4101563 c 2.144531,-1.921875 2.695312,-4.828125 2.695312,-7.171875 0,-2.5195313 -0.621094,-5.3320313 -2.695312,-7.1835935 h -0.867188 c 0.5625,0.515625 1.429688,1.6406247 1.933594,3.2578122 0.386719,1.2773438 0.539062,2.6132813 0.539062,3.9140625 0,4.2304688 -1.511718,6.2929688 -2.472656,7.1835938 z m 0,0"
       style="fill:#000000;fill-opacity:1;fill-rule:nonzero;stroke:none"
       aria-label="clk(25MHz)"
       transform="matrix(1.3333333,0,0,1.3333333,0.66666667,31.736)" />
    <path
       id="path5"
       d="M 0,0.0037 H 20.40372 V 15.30649 H 40.80745 V 0.0037 H 61.21118 V 15.30649 H 81.61491 V 0.0037 h 20.40374 v 15.30279 h 20.40373 V 0.0037 h 20.40373"
       style="fill:none;stroke:#000000;stroke-width:0.95636;stroke-linecap:round;stroke-linejoin:round;stroke-miterlimit:10;stroke-dasharray:none;stroke-opacity:1"
       transform="matrix(1.3333333,0,0,-1.3333333,119.37333,31.74)" />
    <path
       id="path6"
       d="m 142.82611,0.0037 v 15.30279 h 20.40373 V 0.0037 h 20.40372 V 15.30649 H 204.0373 V 0.0037 h 20.40372"
       style="fill:none;stroke:#000000;stroke-width:0.95636;stroke-linecap:round;stroke-linejoin:round;stroke-miterlimit:10;stroke-dasharray:2.98883, 2.98883;stroke-dashoffset:0;stroke-opacity:1"
       transform="matrix(1.3333333,0,0,-1.3333333,119.37333,31.74)" />
    <path
       id="path7"
       d="m 224.44102,0.0037 v 15.30279 h 20.40374 V 0.0037 h 20.40373 v 15.30279 h 20.40373 V 0.0037 h 20.40373 v 15.30279 h 20.40374 V 0.0037 h 20.40373 v 15.30279 h 20.40372 V 0.0037 h 20.40373 V 15.30649 H 408.0746 V 0.0037 h 20.40373 v 15.30279 h 20.40373 V 0.0037 h 20.40374 v 15.30279 h 20.40373 V 0.0037 h 20.40373 V 15.30649 H 530.497 V 0.0037 h 20.40371 v 15.30279 h 20.40373 V 0.0037 h 20.40374"
       style="fill:none;stroke:#000000;stroke-width:0.95636;stroke-linecap:round;stroke-linejoin:round;stroke-miterlimit:10;stroke-dasharray:none;stroke-opacity:1"
       transform="matrix(1.3333333,0,0,-1.3333333,119.37333,31.74)" />
    <path
       id="path8"
       d="M 2.4836094,-5.5310938 H 4.0187656 V -6.363125 H 2.4484531 v -1.7226563 c 0,-0.984375 0.8203125,-1.1484375 1.2890625,-1.1484375 0.5039063,0 0.9492188,0.1523438 1.125,0.2226563 v -0.9375 c -0.1054687,-0.035156 -0.5742187,-0.1523435 -1.1015625,-0.1523435 -1.3710937,0 -2.34375,1.0546872 -2.34375,2.4374997 V -6.363125 H 0.37423437 v 0.8320312 H 1.4172031 V 1.5625e-4 h 1.0664063 z m 3.9873047,2.390625 c 0,-1.453125 1.0898437,-2.390625 2.3789062,-2.4140625 v -0.9609375 c -1.3007812,0.023437 -2.0625,0.7734375 -2.4492187,1.3359375 v -1.265625 H 5.4045078 V 1.5625e-4 H 6.4709141 Z M 14.679898,-4.206875 c 0,-1.3710938 -0.996093,-2.3789063 -2.332031,-2.3789063 -0.855469,0 -1.5,0.1992188 -2.203125,0.609375 l 0.08203,0.9375 c 0.632813,-0.4570312 1.289063,-0.7148437 2.121094,-0.7148437 0.667969,0 1.242188,0.5273437 1.242188,1.5820312 v 0.5859375 c -0.65625,0.023437 -1.511719,0.070312 -2.367188,0.3632813 -0.960937,0.328125 -1.5234373,0.8554687 -1.5234373,1.5703125 0,0.6328125 0.3750003,1.79296875 1.5937503,1.79296875 0.785156,0 1.792968,-0.22265625 2.320312,-0.66796875 V 1.5625e-4 h 1.066406 z m -1.089843,2.2851562 c 0,0.28125 0,0.6328125 -0.480469,0.9140625 -0.386719,0.2460938 -0.867188,0.2929688 -1.089844,0.2929688 -0.773437,0 -1.300781,-0.421875 -1.300781,-0.9492188 0,-0.9726562 1.992187,-1.1953125 2.871094,-1.1953125 z m 12.196289,-2.390625 c 0,-0.9960937 -0.257813,-2.203125 -1.933594,-2.203125 -1.21875,0 -1.898438,0.8554688 -2.109375,1.1601563 -0.257813,-0.9023438 -1.042969,-1.1601563 -1.792969,-1.1601563 -1.171875,0 -1.792969,0.7617188 -2.039062,1.0664063 V -6.4451563 H 16.891812 V 1.5625e-4 h 1.089844 V -3.5740625 c 0,-0.9492188 0.375,-2.0742188 1.417969,-2.0742188 1.324219,0 1.394531,0.9023438 1.394531,1.4296875 V 1.5625e-4 H 21.884 V -3.5740625 c 0,-0.9492188 0.375,-2.0742188 1.417969,-2.0742188 1.324218,0 1.394531,0.9023438 1.394531,1.4296875 V 1.5625e-4 h 1.089844 z M 32.735562,-3.2225 c 0,-0.6210938 -0.05859,-1.5 -0.515625,-2.2617188 -0.585937,-0.984375 -1.59375,-1.1015625 -2.003906,-1.1015625 -1.546875,0 -2.847656,1.4882813 -2.847656,3.3632813 0,1.8867187 1.382812,3.36328125 3.046875,3.36328125 0.65625,0 1.453125,-0.1875 2.238281,-0.76171875 0,-0.0585938 -0.04687,-0.4921875 -0.04687,-0.5273438 -0.01172,-0.011719 -0.04687,-0.328125 -0.04687,-0.3867187 -0.84375,0.71484375 -1.6875,0.8203125 -2.121094,0.8203125 -1.101562,0 -2.050781,-0.9960938 -2.074218,-2.5078125 z M 28.4465,-3.9959375 c 0.246094,-0.9726563 0.925781,-1.7226563 1.769531,-1.7226563 0.445313,0 1.429688,0.1992188 1.675781,1.7226563 z m 0,0"
       style="fill:#000000;fill-opacity:1;fill-rule:nonzero;stroke:none"
       aria-label="frame"
       transform="matrix(1.3333333,0,0,1.3333333,19.321333,72.546667)" />
    <path
       id="path9"
       d="M 0,0 H 4.214"
       style="fill:none;stroke:#000000;stroke-width:0.398;stroke-linecap:butt;stroke-linejoin:round;stroke-miterlimit:10;stroke-dasharray:none;stroke-opacity:1"
       transform="matrix(1.3333333,0,0,-1.3333333,64.634667,72.281333)" />
    <path
       id="path10"
       d="m 4.8168359,-6.1404688 c -0.9140625,-0.4335937 -1.6875,-0.4453125 -2.015625,-0.4453125 -0.328125,0 -2.33203121,0 -2.33203121,1.8632813 0,0.6328125 0.3515625,1.0664062 0.56250001,1.265625 0.515625,0.4453125 0.8789062,0.515625 1.7226562,0.6914062 0.46875,0.09375 1.3007813,0.2695313 1.3007813,1.03125 0,0.98437505 -1.1132813,0.98437505 -1.3125,0.98437505 -0.5742188,0 -1.40625,-0.15234375 -2.17968751,-0.71484375 l -0.17578125,0.97265625 c 0.0703125,0.046875 1.04296876,0.6328125 2.36718746,0.6328125 1.8515625,0 2.296875,-1.11328125 2.296875,-1.95703125 0,-0.7382813 -0.4453125,-1.1953125 -0.5039062,-1.265625 -0.5273438,-0.5507813 -0.9609375,-0.6328125 -1.8398438,-0.8085938 -0.515625,-0.09375 -1.2421875,-0.2460937 -1.2421875,-0.9609375 0,-0.890625 1.0078125,-0.890625 1.1835938,-0.890625 0.7617187,0 1.3710937,0.1757813 2.0039062,0.5390625 z m 3.0175782,0.609375 H 9.8148828 V -6.363125 H 7.8344141 V -8.19125 h -0.984375 v 1.828125 H 5.6430078 v 0.8320312 h 1.171875 v 3.8554688 c 0,0.83203125 0.1875,1.81640625 1.1835938,1.81640625 0.9609375,0 1.6171875,-0.328125 2.0625004,-0.55078125 L 9.8500391,-1.2420313 c -0.5039063,0.4335938 -1.03125,0.49218755 -1.2890625,0.49218755 -0.6328125,0 -0.7265625,-0.66796875 -0.7265625,-1.17187505 z m 8.2353519,1.3242188 c 0,-1.3710938 -0.996094,-2.3789063 -2.332032,-2.3789063 -0.855468,0 -1.5,0.1992188 -2.203125,0.609375 l 0.08203,0.9375 c 0.632812,-0.4570312 1.289062,-0.7148437 2.121093,-0.7148437 0.667969,0 1.242188,0.5273437 1.242188,1.5820312 v 0.5859375 c -0.65625,0.023437 -1.511719,0.070312 -2.367188,0.3632813 -0.960937,0.328125 -1.523437,0.8554687 -1.523437,1.5703125 0,0.6328125 0.375,1.79296875 1.59375,1.79296875 0.785156,0 1.792969,-0.22265625 2.320312,-0.66796875 V 1.5625e-4 h 1.066407 z m -1.089844,2.2851562 c 0,0.28125 0,0.6328125 -0.480469,0.9140625 -0.386719,0.2460938 -0.867187,0.2929688 -1.089844,0.2929688 -0.773437,0 -1.300781,-0.421875 -1.300781,-0.9492188 0,-0.9726562 1.992188,-1.1953125 2.871094,-1.1953125 z m 3.993164,-1.21875 c 0,-1.453125 1.089844,-2.390625 2.378906,-2.4140625 v -0.9609375 c -1.300781,0.023437 -2.0625,0.7734375 -2.449219,1.3359375 v -1.265625 H 17.90668 V 1.5625e-4 h 1.066406 z m 5.044922,-2.390625 h 1.980469 V -6.363125 H 24.018008 V -8.19125 h -0.984375 v 1.828125 h -1.207031 v 0.8320312 h 1.171875 v 3.8554688 c 0,0.83203125 0.1875,1.81640625 1.183593,1.81640625 0.960938,0 1.617188,-0.328125 2.0625,-0.55078125 l -0.210937,-0.8320313 c -0.503906,0.4335938 -1.03125,0.49218755 -1.289063,0.49218755 -0.632812,0 -0.726562,-0.66796875 -0.726562,-1.17187505 z m 0,0"
       style="fill:#000000;fill-opacity:1;fill-rule:nonzero;stroke:none"
       aria-label="start"
       transform="matrix(1.3333333,0,0,1.3333333,70.253333,72.546667)" />
    <path
       id="path11"
       d="m 0,-30.6056 h 66.31212 l 2.55046,15.30279 h 38.257 l 2.55046,-15.30279 h 201.48684 285.65223"
       style="fill:none;stroke:#000000;stroke-width:0.95636;stroke-linecap:round;stroke-linejoin:round;stroke-miterlimit:10;stroke-dasharray:none;stroke-opacity:1"
       transform="matrix(1.3333333,0,0,-1.3333333,119.37333,31.74)" />
    <path
       id="path12"
       d="m 2.2019297,-0.64507031 c 0.4921875,0.4453125 1.1015625,0.78515625 1.875,0.78515625 1.3710937,0 2.6015625,-1.38281254 2.6015625,-3.33984374 0,-1.734375 -0.9140625,-3.3164063 -2.25,-3.3164063 -0.5859375,0 -1.5,0.1875 -2.25,0.8203125 V -6.3638203 H 1.1120859 v 9.140625 h 1.0898438 z m 0,-4.17187499 c 0.3398437,-0.4921875 0.8789062,-0.8085938 1.4648437,-0.8085938 1.0664063,0 1.921875,1.078125 1.921875,2.4375 0,1.4414063 -0.984375,2.47265629 -2.0507812,2.47265629 -0.3984375,0 -0.6679688,-0.140625 -0.9257813,-0.35156249 -0.3632812,-0.3164063 -0.4101562,-0.5742188 -0.4101562,-0.796875 z m 7.265625,-4.921875 H 8.2370859 v 1.2304687 h 1.2304688 z m -0.082031,3.375 H 8.3191172 v 6.3632812375 h 1.0664062 z m 4.7695313,3.0820312 2.542968,-3.0820312 h -1.207031 l -1.804687,2.3203125 -1.886719,-2.3203125 h -1.21875 l 2.613281,3.0820312 -2.683594,3.2812500375 h 1.195313 L 13.686305,-2.6724141 15.713648,-5.390625e-4 h 1.207032 z m 0,0"
       style="fill:#000000;fill-opacity:1;fill-rule:nonzero;stroke:none"
       aria-label="pix"
       transform="matrix(1.3333333,0,0,1.3333333,50.068,113.364)" />
    <path
       id="path13"
       d="M 0,0 H 4.214"
       style="fill:none;stroke:#000000;stroke-width:0.398;stroke-linecap:butt;stroke-linejoin:round;stroke-miterlimit:10;stroke-dasharray:none;stroke-opacity:1"
       transform="matrix(1.3333333,0,0,-1.3333333,73.773333,113.09867)" />
    <path
       id="path14"
       d="m 5.61225,-4.2075703 c 0,-1.3710938 -0.9960938,-2.3789063 -2.3320313,-2.3789063 -0.8554687,0 -1.5,0.1992188 -2.203125,0.609375 l 0.082031,0.9375 c 0.6328125,-0.4570312 1.2890625,-0.7148437 2.1210937,-0.7148437 0.6679688,0 1.2421875,0.5273437 1.2421875,1.5820312 v 0.5859375 c -0.65625,0.023437 -1.5117187,0.070312 -2.3671875,0.3632813 -0.9609375,0.328125 -1.52343745,0.8554687 -1.52343745,1.5703125 0,0.6328125 0.37499995,1.79296874 1.59374995,1.79296874 0.7851563,0 1.7929688,-0.22265625 2.3203125,-0.66796875 V -5.390625e-4 H 5.61225 Z m -1.0898438,2.2851562 c 0,0.28125 0,0.6328125 -0.4804687,0.9140625 -0.3867188,0.24609379 -0.8671875,0.29296879 -1.0898438,0.29296879 -0.7734375,0 -1.3007812,-0.42187499 -1.3007812,-0.94921879 0,-0.9726562 1.9921875,-1.1953125 2.8710937,-1.1953125 z m 7.9541018,0.375 c -0.65625,0.5273438 -1.394531,0.79687504 -2.191406,0.79687504 -1.1953129,0 -1.9687504,-1.05468754 -1.9687504,-2.44921874 0,-1.1953125 0.5742187,-2.4960938 2.0039064,-2.4960938 0.960937,0 1.371094,0.234375 1.980469,0.6445313 l 0.175781,-0.9257813 c -0.832031,-0.4921875 -1.3125,-0.609375 -2.15625,-0.609375 -1.9804689,0 -3.0937502,1.7578125 -3.0937502,3.3867188 0,1.8398437 1.3125,3.33984374 3.0351562,3.33984374 0.703125,0 1.511719,-0.1640625 2.296875,-0.73828125 0,-0.046875 -0.04687,-0.49218749 -0.05859,-0.55078129 z m 4.394531,-2.3671875 2.355469,-2.4492187 h -1.324219 l -2.765625,2.8828125 v -6.46875 h -1.054687 v 9.9492187375 h 1.007812 V -2.0630391 l 1.089844,-1.1367187 2.179687,3.1992187375 h 1.183594 z m 0,0"
       style="fill:#000000;fill-opacity:1;fill-rule:nonzero;stroke:none"
       aria-label="ack"
       transform="matrix(1.3333333,0,0,1.3333333,79.392,113.364)" />
    <path
       id="path15"
       d="m 0,-61.21866 h 311.15688 l 2.55047,15.3028 h 283.10176"
       style="fill:none;stroke:#000000;stroke-width:0.95636;stroke-linecap:round;stroke-linejoin:round;stroke-miterlimit:10;stroke-dasharray:none;stroke-opacity:1"
       transform="matrix(1.3333333,0,0,-1.3333333,119.37333,31.74)" />
    <path
       id="path16"
       d="m 2.2034922,-0.64583594 c 0.4921875,0.4453125 1.1015625,0.78515625 1.875,0.78515625 1.3710937,0 2.6015625,-1.38281251 2.6015625,-3.33984371 0,-1.734375 -0.9140625,-3.3164063 -2.25,-3.3164063 -0.5859375,0 -1.5,0.1875 -2.25,0.8203125 V -6.3645859 H 1.1136484 v 9.140625 h 1.0898438 z m 0,-4.17187496 c 0.3398437,-0.4921875 0.8789062,-0.8085938 1.4648437,-0.8085938 1.0664063,0 1.921875,1.078125 1.921875,2.4375 0,1.4414063 -0.984375,2.47265626 -2.0507812,2.47265626 -0.3984375,0 -0.6679688,-0.140625 -0.9257813,-0.35156246 -0.3632812,-0.3164063 -0.4101562,-0.5742188 -0.4101562,-0.796875 z m 7.265625,-4.921875 H 8.2386484 v 1.2304687 h 1.2304688 z m -0.082031,3.375 H 8.3206797 v 6.36328121 h 1.0664062 z m 4.7666018,3.0820312 2.542968,-3.0820312 h -1.207031 l -1.804687,2.3203125 -1.886719,-2.3203125 h -1.21875 l 2.613281,3.0820312 -2.683594,3.28125001 h 1.195313 l 1.980469,-2.67187501 2.027343,2.67187501 h 1.207031 z m 0,0"
       style="fill:#000000;fill-opacity:1;fill-rule:nonzero;stroke:none"
       aria-label="pix"
       transform="matrix(1.3333333,0,0,1.3333333,26.034667,154.18533)" />
    <path
       id="path17"
       d="M 0,0 H 4.214"
       style="fill:none;stroke:#000000;stroke-width:0.398;stroke-linecap:butt;stroke-linejoin:round;stroke-miterlimit:10;stroke-dasharray:none;stroke-opacity:1"
       transform="matrix(1.3333333,0,0,-1.3333333,49.74,153.92)" />
    <path
       id="path18"
       d="M 6.0698438,-9.9505234 H 5.0034375 v 4.1835937 c -0.65625,-0.5507812 -1.40625,-0.75 -2.015625,-0.75 -1.3710937,0 -2.484375,1.4648438 -2.484375,3.328125 0,1.8515625 1.0546875,3.32812501 2.4257813,3.32812501 0.5273437,0 1.3359375,-0.1640625 2.0507812,-0.8671875 v 0.7265625 H 6.0698438 Z M 4.98,-1.6888047 c -0.3515625,0.609375 -0.84375,0.97265626 -1.4765625,0.97265626 -0.8789062,0 -1.9101562,-0.67968746 -1.9101562,-2.46093746 0,-1.8984375 1.21875,-2.4726563 2.0507812,-2.4726563 0.5625,0 1.0195313,0.28125 1.3359375,0.7617188 z m 7.839844,-2.5195312 c 0,-1.3710938 -0.996094,-2.3789063 -2.332031,-2.3789063 -0.8554692,0 -1.5000005,0.1992188 -2.2031255,0.609375 l 0.082031,0.9375 c 0.6328125,-0.4570312 1.2890625,-0.7148437 2.1210945,-0.7148437 0.667968,0 1.242187,0.5273437 1.242187,1.5820312 v 0.5859375 c -0.65625,0.023437 -1.511719,0.070312 -2.3671878,0.3632813 -0.9609375,0.328125 -1.5234375,0.8554687 -1.5234375,1.5703125 0,0.6328125 0.375,1.79296871 1.59375,1.79296871 0.7851563,0 1.7929693,-0.22265625 2.3203133,-0.66796875 v 0.52734375 h 1.066406 z M 11.73,-1.9231797 c 0,0.28125 0,0.6328125 -0.480469,0.9140625 -0.386718,0.24609376 -0.867187,0.29296876 -1.089843,0.29296876 -0.773438,0 -1.3007817,-0.42187496 -1.3007817,-0.94921876 0,-0.9726562 1.9921877,-1.1953125 2.8710937,-1.1953125 z m 4.649414,-3.609375 h 1.980469 v -0.8320312 h -1.980469 v -1.828125 h -0.984375 v 1.828125 h -1.207031 v 0.8320312 h 1.171875 v 3.8554688 c 0,0.83203121 0.1875,1.81640621 1.183594,1.81640621 0.960937,0 1.617187,-0.328125 2.0625,-0.55078125 L 18.395039,-1.2434922 c -0.503906,0.43359376 -1.03125,0.49218751 -1.289062,0.49218751 -0.632813,0 -0.726563,-0.66796871 -0.726563,-1.17187501 z m 8.238281,1.3242188 c 0,-1.3710938 -0.996093,-2.3789063 -2.332031,-2.3789063 -0.855469,0 -1.5,0.1992188 -2.203125,0.609375 l 0.08203,0.9375 c 0.632813,-0.4570312 1.289063,-0.7148437 2.121094,-0.7148437 0.667969,0 1.242188,0.5273437 1.242188,1.5820312 v 0.5859375 c -0.65625,0.023437 -1.511719,0.070312 -2.367188,0.3632813 -0.960937,0.328125 -1.523437,0.8554687 -1.523437,1.5703125 0,0.6328125 0.375,1.79296871 1.59375,1.79296871 0.785156,0 1.792968,-0.22265625 2.320312,-0.66796875 v 0.52734375 h 1.066406 z m -1.089843,2.2851562 c 0,0.28125 0,0.6328125 -0.480469,0.9140625 -0.386719,0.24609376 -0.867188,0.29296876 -1.089844,0.29296876 -0.773437,0 -1.300781,-0.42187496 -1.300781,-0.94921876 0,-0.9726562 1.992187,-1.1953125 2.871094,-1.1953125 z m 0,0"
       style="fill:#000000;fill-opacity:1;fill-rule:nonzero;stroke:none"
       aria-label="data"
       transform="matrix(1.3333333,0,0,1.3333333,55.36,154.18533)" />
    <path
       id="path19"
       d="M 0,0 H 4.214"
       style="fill:none;stroke:#000000;stroke-width:0.398;stroke-linecap:butt;stroke-linejoin:round;stroke-miterlimit:10;stroke-dasharray:none;stroke-opacity:1"
       transform="matrix(1.3333333,0,0,-1.3333333,90.788,153.92)" />
    <path
       id="path20"
       d="m 3.866875,-6.9036484 1.4296875,1.0195312 c 0.1640625,0.1289063 0.2929688,0.1289063 0.3398438,0.1289063 0.2695312,0 0.46875,-0.2460938 0.46875,-0.4804688 0,-0.1523437 -0.035156,-0.3164062 -0.2929688,-0.46875 L 4.1832813,-7.5716172 5.8121875,-8.4505234 C 6.07,-8.5911484 6.1051563,-8.7669297 6.1051563,-8.9075547 c 0,-0.2460937 -0.1992188,-0.4921875 -0.46875,-0.4921875 -0.140625,0 -0.2109375,0.046875 -0.328125,0.1289063 L 3.866875,-8.2513047 3.9840625,-10.26693 c 0,-0.339843 -0.2578125,-0.492187 -0.46875,-0.492187 -0.2578125,0 -0.4921875,0.175781 -0.4921875,0.492187 L 3.1403125,-8.2513047 1.7223438,-9.2708359 C 1.5465625,-9.3997422 1.4176563,-9.3997422 1.3825,-9.3997422 c -0.28125,0 -0.48046875,0.2460938 -0.48046875,0.4921875 0,0.140625 0.046875,0.3164063 0.30468755,0.4570313 l 1.6171875,0.8789062 -1.6171875,0.8671875 c -0.25781255,0.1523438 -0.30468755,0.3164063 -0.30468755,0.46875 0,0.234375 0.19921875,0.4804688 0.48046875,0.4804688 0.140625,0 0.2109375,-0.035156 0.328125,-0.1289063 L 3.1403125,-6.9036484 3.023125,-4.8763047 c 0,0.328125 0.2578125,0.4804688 0.4804688,0.4804688 0.2578125,0 0.4804687,-0.1640625 0.4804687,-0.4804688 l -0.011719,-0.1289062 z m 0,0"
       style="fill:#000000;fill-opacity:1;fill-rule:nonzero;stroke:none"
       aria-label="*"
       transform="matrix(1.3333333,0,0,1.3333333,96.406667,154.18533)" />
    <path
       id="path21"
       d="m 0,-76.53078 209.13823,-9.4e-4 2.55046,-7.6514 -2.55046,-7.6514 L 0,-91.83357"
       style="fill:none;stroke:#000000;stroke-width:0.95636;stroke-linecap:round;stroke-linejoin:round;stroke-miterlimit:10;stroke-dasharray:none;stroke-opacity:1"
       transform="matrix(1.3333333,0,0,-1.3333333,119.37333,31.74)" />
    <path
       id="path22"
       d="m 6.0941667,-6.3694661 h -1.09375 v 4.1015625 c 0,1.09375 -0.7617188,1.6210937 -1.6992188,1.6210937 -0.9960937,0 -1.1132812,-0.3710937 -1.1132812,-1.015625 V -6.3694661 H 1.1136979 v 4.765625 c 0,1.0351562 0.3320313,1.7382812 1.5039063,1.7382812 0.390625,0 1.5234375,-0.05859375 2.4023437,-0.859375 v 0.72265625 h 1.0742188 z m 7.2070313,2.0507812 c 0,-0.8789062 -0.195313,-2.2070312 -1.933594,-2.2070312 -0.800781,0 -1.4843748,0.3710937 -2.0312498,1.0546875 v -0.9765625 h -1.015625 v 6.44531245 H 9.3949479 V -3.5764974 c 0,-0.8984375 0.3320313,-2.0898437 1.4257811,-2.0898437 1.347656,0 1.386719,0.9375 1.386719,1.4453125 v 4.21874995 h 1.09375 z m 7.1875,-5.6445312 H 19.43401 v 4.1992187 c -0.664062,-0.546875 -1.425781,-0.7617187 -2.03125,-0.7617187 -1.367187,0 -2.480468,1.4648437 -2.480468,3.3398437 0,1.8554688 1.054687,3.3203125 2.421875,3.3203125 0.527343,0 1.328125,-0.15625 2.050781,-0.859375 v 0.72265625 h 1.09375 z m -1.09375,8.2617187 c -0.351563,0.625 -0.839844,0.9765625 -1.484375,0.9765625 -0.859375,0 -1.894531,-0.6640625 -1.894531,-2.4414062 0,-1.9140625 1.210937,-2.5 2.050781,-2.5 0.546875,0 1.015625,0.2929687 1.328125,0.7617187 z m 8.061523,-1.5234375 c 0,-0.625 -0.05859,-1.5039062 -0.507812,-2.265625 -0.585938,-0.9765625 -1.601563,-1.09375 -2.011719,-1.09375 -1.5625,0 -2.851562,1.484375 -2.851562,3.359375 0,1.8945313 1.386718,3.359375 3.046875,3.359375 0.664062,0 1.445312,-0.17578125 2.246093,-0.76171875 0,-0.0585938 -0.03906,-0.48828125 -0.03906,-0.52734375 -0.01953,-0.019531 -0.05859,-0.3320312 -0.05859,-0.390625 -0.839844,0.72265625 -1.679687,0.8203125 -2.109375,0.8203125 -1.113281,0 -2.070312,-0.9765625 -2.089844,-2.5 z m -4.296875,-0.78125 c 0.253907,-0.9570312 0.917969,-1.71875 1.777344,-1.71875 0.449219,0 1.425781,0.1953125 1.679688,1.71875 z m 7.182618,-1.5429687 h 1.542968 v -0.8203125 h -1.5625 v -1.7382813 c 0,-0.9765625 0.820313,-1.1328125 1.289063,-1.1328125 0.507812,0 0.9375,0.15625 1.113281,0.2148438 v -0.9375 c -0.09766,-0.039063 -0.566406,-0.1367189 -1.09375,-0.1367189 -1.367187,0 -2.34375,1.0351564 -2.34375,2.4414064 v 1.2890625 h -1.054687 v 0.8203125 h 1.054687 v 5.54687495 h 1.054688 z m 4.331054,4.375 h -1.152344 v 1.17187495 h 1.152344 z m 0,0"
       style="fill:#000000;fill-opacity:1;fill-rule:nonzero;stroke:none"
       aria-label="undef."
       transform="matrix(0.8,0,0,0.8,244.37467,147.96667)" />
    <path
       id="path23"
       d="m 211.68869,-84.18126 2.55048,7.65141 137.72517,-9.3e-4 2.55048,-7.65139 -2.55048,-7.6514 -137.72517,0.0019 -2.55048,7.6514"
       style="fill:none;stroke:#000000;stroke-width:0.95636;stroke-linecap:round;stroke-linejoin:round;stroke-miterlimit:10;stroke-dasharray:none;stroke-opacity:1"
       transform="matrix(1.3333333,0,0,-1.3333333,119.37333,31.74)" />
    <path
       id="path24"
       d="m 2.205013,-0.6466276 c 0.4882813,0.44921875 1.09375,0.78125 1.875,0.78125 1.3671875,0 2.6171875,-1.3867188 2.6171875,-3.3398438 0,-1.7382812 -0.9375,-3.3203125 -2.265625,-3.3203125 -0.5859375,0 -1.5039062,0.1953125 -2.2460937,0.8203125 V -6.3692839 H 1.111263 v 9.1601563 h 1.09375 z m 0,-4.1796875 c 0.3320313,-0.4882813 0.8789063,-0.8007813 1.4648438,-0.8007813 1.0742187,0 1.9335937,1.0742188 1.9335937,2.4414063 0,1.4257812 -0.9960937,2.4609375 -2.0507812,2.4609375 -0.4101563,0 -0.6835938,-0.13671875 -0.9375,-0.3320313 C 2.2440755,-1.3888151 2.205013,-1.6427214 2.205013,-1.8770964 Z m 7.265625,-4.921875 H 8.2401693 v 1.2304687 H 9.470638 Z M 9.392513,-6.3692839 H 8.3182943 v 6.36718755 H 9.392513 Z m 4.770508,3.0859375 2.539062,-3.0859375 h -1.210937 l -1.816406,2.3242188 -1.875,-2.3242188 h -1.210938 l 2.597656,3.0859375 -2.675781,3.28125005 h 1.191406 l 1.972657,-2.67578125 2.050781,2.67578125 h 1.210937 z m 6.601562,-7.4804686 c -2.167968,1.9140624 -2.714843,4.8242186 -2.714843,7.1679686 0,2.5390625 0.625,5.3515625 2.714843,7.1875 h 0.859375 C 21.057552,3.0838411 20.178646,1.9705599 19.670833,0.34946615 19.29974,-0.93959635 19.14349,-2.2677214 19.14349,-3.5763151 c 0,-4.2382813 1.503906,-6.3085938 2.480468,-7.1874999 z m 8.061524,6.0742186 c 0,-0.9570312 -0.03906,-2.0507812 -0.410156,-3.0859375 -0.625,-1.6015625 -1.738282,-1.9335937 -2.5,-1.9335937 -0.9375,0 -1.835938,0.46875 -2.363282,1.6015625 -0.46875,1.0351562 -0.566406,2.1875 -0.566406,3.4179687 0,1.5820313 0.136719,2.4609375 0.585938,3.4765625 0.429687,0.93750005 1.347656,1.5039063 2.324218,1.5039063 0.957032,0 1.855469,-0.5078125 2.34375,-1.5039063 0.488282,-1.015625 0.585938,-2.0703125 0.585938,-3.4765625 z m -2.910156,4.1210938 c -1.835938,0 -1.835938,-2.9296875 -1.835938,-4.2773438 0,-0.9375 0,-1.8164062 0.253906,-2.6367187 0.351563,-1.015625 0.976563,-1.3671875 1.5625,-1.3671875 1.835938,0 1.835938,2.6757812 1.835938,4.0039062 0,0.9179688 0,1.8554688 -0.253906,2.7539063 -0.390625,1.3671875 -1.191407,1.5234375 -1.5625,1.5234375 z m 6.02539,0.546875 v -1.1523438 h -1.152344 v 1.17187505 H 31.14056 L 30.788997,1.7947786 h 0.566407 z m 7.807617,-4.6679688 c 0,-0.9570312 -0.03906,-2.0507812 -0.410156,-3.0859375 -0.625,-1.6015625 -1.738281,-1.9335937 -2.5,-1.9335937 -0.9375,0 -1.835937,0.46875 -2.363281,1.6015625 -0.46875,1.0351562 -0.566406,2.1875 -0.566406,3.4179687 0,1.5820313 0.136718,2.4609375 0.585937,3.4765625 0.429688,0.93750005 1.347656,1.5039063 2.324219,1.5039063 0.957031,0 1.855469,-0.5078125 2.34375,-1.5039063 0.488281,-1.015625 0.585937,-2.0703125 0.585937,-3.4765625 z m -2.910156,4.1210938 c -1.835937,0 -1.835937,-2.9296875 -1.835937,-4.2773438 0,-0.9375 0,-1.8164062 0.253906,-2.6367187 0.351562,-1.015625 0.976562,-1.3671875 1.5625,-1.3671875 1.835937,0 1.835937,2.6757812 1.835937,4.0039062 0,0.9179688 0,1.8554688 -0.253906,2.7539063 -0.390625,1.3671875 -1.191406,1.5234375 -1.5625,1.5234375 z m 5.151367,4.1601562 c 2.148438,-1.9140625 2.695313,-4.8242187 2.695313,-7.1679687 0,-2.5195313 -0.625,-5.3320313 -2.695313,-7.1874999 h -0.859375 c 0.546875,0.507812 1.425782,1.6406249 1.933594,3.2617186 0.390625,1.2695313 0.527344,2.5976563 0.527344,3.90625 0,4.2382813 -1.503906,6.3085938 -2.460938,7.1875 z m 0,0"
       style="fill:#000000;fill-opacity:1;fill-rule:nonzero;stroke:none"
       aria-label="pix(0,0)"
       transform="matrix(0.8,0,0,0.8,478.51333,146.84933)" />
    <path
       id="path25"
       d="m 354.51482,-84.18031 2.55046,7.65139 35.70652,-9.3e-4 2.55047,-7.65141 -2.55047,-7.6514 -35.70652,0.0019 -2.55046,7.6514"
       style="fill:none;stroke:#000000;stroke-width:0.95636;stroke-linecap:round;stroke-linejoin:round;stroke-miterlimit:10;stroke-dasharray:none;stroke-opacity:1"
       transform="matrix(1.3333333,0,0,-1.3333333,119.37333,31.74)" />
    <path
       id="path26"
       d="m 2.2073568,-0.64496094 c 0.4882812,0.44921875 1.09375,0.78125 1.875,0.78125 1.3671875,0 2.6171875,-1.38671876 2.6171875,-3.33984376 0,-1.7382812 -0.9375,-3.3203125 -2.265625,-3.3203125 -0.5859375,0 -1.5039063,0.1953125 -2.2460938,0.8203125 V -6.3676172 H 1.1136068 v 9.1601563 h 1.09375 z m 0,-4.17968746 c 0.3320312,-0.4882813 0.8789062,-0.8007813 1.4648437,-0.8007813 1.0742188,0 1.9335938,1.0742188 1.9335938,2.4414063 0,1.4257812 -0.9960938,2.46093746 -2.0507813,2.46093746 -0.4101562,0 -0.6835937,-0.13671875 -0.9375,-0.33203126 C 2.2464193,-1.3871484 2.2073568,-1.6410547 2.2073568,-1.8754297 Z m 7.265625,-4.921875 H 8.242513 v 1.2304687 h 1.2304688 z m -0.078125,3.3789062 H 8.320638 v 6.3671875125 h 1.0742188 z m 4.7656252,3.0859375 2.539062,-3.0859375 h -1.210937 l -1.816406,2.3242188 -1.875,-2.3242188 h -1.210938 l 2.597656,3.0859375 -2.675781,3.2812500125 h 1.191406 L 13.672201,-2.6762109 15.722982,-4.296875e-4 h 1.210937 z m 6.601562,-7.4804683 c -2.167968,1.9140621 -2.714843,4.8242183 -2.714843,7.1679683 0,2.5390625 0.625,5.3515625 2.714843,7.1875 h 0.859375 C 21.055013,3.0855078 20.176107,1.9722266 19.668294,0.35113281 19.297201,-0.93792969 19.140951,-2.2660547 19.140951,-3.5746484 c 0,-4.2382813 1.503906,-6.3085938 2.480468,-7.1874996 z m 5.854492,1.0546871 h -0.273437 c -0.234375,0.234375 -0.917969,0.8984375 -2.460938,0.9375 -0.214843,0 -0.214843,0.019531 -0.214843,0.2734375 v 0.5664062 c 0.878906,0 1.523437,-0.2148437 1.835937,-0.3320312 v 7.42187496 h -1.757812 v 0.8398437525 h 4.628906 V -0.84027344 h -1.757813 z m 5.327149,9.68749996 V -1.1723047 h -1.152344 v 1.1718750125 h 0.351563 L 30.791341,1.7964453 h 0.566406 z m 7.807617,-4.66796876 c 0,-0.9570312 -0.03906,-2.0507812 -0.410156,-3.0859375 -0.625,-1.6015625 -1.738281,-1.9335937 -2.5,-1.9335937 -0.9375,0 -1.835938,0.46875 -2.363281,1.6015625 -0.46875,1.0351562 -0.566407,2.1875 -0.566407,3.4179687 0,1.5820313 0.136719,2.4609375 0.585938,3.4765625 0.429687,0.93750001 1.347656,1.50390626 2.324219,1.50390626 0.957031,0 1.855468,-0.5078125 2.34375,-1.50390626 0.488281,-1.015625 0.585937,-2.0703125 0.585937,-3.4765625 z m -2.910156,4.12109376 c -1.835938,0 -1.835938,-2.92968746 -1.835938,-4.27734376 0,-0.9375 0,-1.8164062 0.253907,-2.6367187 0.351562,-1.015625 0.976562,-1.3671875 1.5625,-1.3671875 1.835937,0 1.835937,2.6757812 1.835937,4.0039062 0,0.9179688 0,1.8554688 -0.253906,2.7539063 -0.390625,1.36718746 -1.191406,1.52343746 -1.5625,1.52343746 z M 41.98763,3.5933203 c 2.148438,-1.9140625 2.695313,-4.8242187 2.695313,-7.1679687 0,-2.5195313 -0.625,-5.3320313 -2.695313,-7.1874996 h -0.859375 c 0.546875,0.507812 1.425781,1.6406246 1.933594,3.2617183 0.390625,1.2695313 0.527344,2.5976563 0.527344,3.90625 0,4.23828126 -1.503907,6.3085938 -2.460938,7.1875 z m 0,0"
       style="fill:#000000;fill-opacity:1;fill-rule:nonzero;stroke:none"
       aria-label="pix(1,0)"
       transform="matrix(0.8,0,0,0.8,600.93333,146.848)" />
    <path
       id="path27"
       d="m 395.32227,-84.17938 2.55047,7.6514 35.70653,-9.4e-4 2.55046,-7.65139 -2.55046,-7.6514 -35.70653,0.0019 -2.55047,7.65139"
       style="fill:none;stroke:#000000;stroke-width:0.95636;stroke-linecap:round;stroke-linejoin:round;stroke-miterlimit:10;stroke-dasharray:none;stroke-opacity:1"
       transform="matrix(1.3333333,0,0,-1.3333333,119.37333,31.74)" />
    <path
       id="path28"
       d="m 2.2083854,-0.64329427 c 0.4882813,0.44921875 1.09375,0.78125 1.875,0.78125 1.3671875,0 2.6171875,-1.38671873 2.6171875,-3.33984373 0,-1.7382813 -0.9375,-3.3203125 -2.265625,-3.3203125 -0.5859375,0 -1.5039062,0.1953125 -2.2460937,0.8203125 V -6.3659505 H 1.1146354 v 9.1601562 h 1.09375 z m 0,-4.17968753 C 2.5404167,-5.311263 3.0872917,-5.623763 3.6732292,-5.623763 c 1.0742187,0 1.9335937,1.0742187 1.9335937,2.4414062 0,1.4257813 -0.9960937,2.46093753 -2.0507812,2.46093753 -0.4101563,0 -0.6835938,-0.13671875 -0.9375,-0.33203123 C 2.2474479,-1.3854818 2.2083854,-1.639388 2.2083854,-1.873763 Z m 7.265625,-4.921875 H 8.2435417 v 1.2304688 h 1.2304687 z m -0.078125,3.3789063 H 8.3216667 v 6.36718748 h 1.0742187 z m 4.7656246,3.0859375 2.539063,-3.0859375 h -1.210938 l -1.816406,2.3242187 -1.875,-2.3242187 h -1.210937 l 2.597656,3.0859375 -2.675781,3.28124998 h 1.191406 l 1.972656,-2.67578128 2.050781,2.67578128 h 1.210938 z m 6.601563,-7.480469 c -2.167969,1.9140627 -2.714844,4.824219 -2.714844,7.167969 0,2.5390625 0.625,5.3515625 2.714844,7.1875 h 0.859375 C 21.056042,3.0871745 20.177135,1.9738932 19.669323,0.35279948 19.298229,-0.93626302 19.141979,-2.264388 19.141979,-3.5729818 c 0,-4.2382812 1.503906,-6.3085937 2.480469,-7.1875002 z m 2.338867,9.86328148 v 0.8984375 h 5.605469 v -0.9765625 h -2.539063 c -0.175781,0 -0.351562,0.0195313 -0.527343,0.0195313 h -1.542969 c 0.390625,-0.39062498 1.71875,-1.71875008 2.65625,-2.53906248 1.054687,-0.9375 1.953125,-1.8359375 1.953125,-3.1445312 0,-1.6015626 -1.09375,-3.0664064 -2.988281,-3.0664064 -1.5625,0 -2.34375,1.015625 -2.734375,2.3632814 0.46875,0.5664062 0.46875,0.6054687 0.585937,0.7617187 0.371094,-1.5234376 0.898438,-2.2265626 1.953125,-2.2265626 1.230469,0 2.050781,0.9570313 2.050781,2.1875001 0,0.7421875 -0.3125,1.5820312 -1.269531,2.5390625 z m 8.837891,0.87890625 V -1.170638 h -1.152344 v 1.17187498 h 0.351562 L 30.787487,1.798112 h 0.566406 z m 7.8125,-4.66796873 c 0,-0.9570313 -0.03906,-2.0507813 -0.410157,-3.0859375 -0.625,-1.6015625 -1.738281,-1.9335938 -2.5,-1.9335938 -0.9375,0 -1.835937,0.46875 -2.363281,1.6015625 -0.46875,1.0351563 -0.566406,2.1875 -0.566406,3.4179688 0,1.5820312 0.136719,2.4609375 0.585937,3.4765625 0.429688,0.93749998 1.347657,1.50390623 2.324219,1.50390623 0.957031,0 1.855469,-0.5078125 2.34375,-1.50390623 0.488281,-1.015625 0.585938,-2.0703125 0.585938,-3.4765625 z m -2.910157,4.12109373 c -1.835937,0 -1.835937,-2.92968753 -1.835937,-4.27734373 0,-0.9375 0,-1.8164063 0.253906,-2.6367188 0.351563,-1.015625 0.976563,-1.3671875 1.5625,-1.3671875 1.835938,0 1.835938,2.6757813 1.835938,4.0039063 0,0.9179687 0,1.8554687 -0.253907,2.7539062 -0.390625,1.36718753 -1.191406,1.52343753 -1.5625,1.52343753 z M 41.988659,3.594987 c 2.148437,-1.9140625 2.695312,-4.8242188 2.695312,-7.1679688 0,-2.5195312 -0.625,-5.3320312 -2.695312,-7.1875002 h -0.859375 c 0.546875,0.507813 1.425781,1.6406252 1.933594,3.261719 0.390625,1.2695312 0.527343,2.5976562 0.527343,3.90625 0,4.23828123 -1.503906,6.3085937 -2.460937,7.1875 z m 0,0"
       style="fill:#000000;fill-opacity:1;fill-rule:nonzero;stroke:none"
       aria-label="pix(2,0)"
       transform="matrix(0.8,0,0,0.8,655.34267,146.84667)" />
    <path
       id="path29"
       d="m 436.12973,-84.17844 2.55047,7.6514 35.70653,-9.4e-4 2.55047,-7.6514 -2.55047,-7.6514 -35.70653,0.0019 -2.55047,7.65142"
       style="fill:none;stroke:#000000;stroke-width:0.95636;stroke-linecap:round;stroke-linejoin:round;stroke-miterlimit:10;stroke-dasharray:none;stroke-opacity:1"
       transform="matrix(1.3333333,0,0,-1.3333333,119.37333,31.74)" />
    <path
       id="path30"
       d="m 2.2094141,-0.64651042 c 0.4882812,0.44921875 1.09375,0.78125 1.875,0.78125 1.3671875,0 2.6171875,-1.38671878 2.6171875,-3.33984378 0,-1.7382812 -0.9375,-3.3203125 -2.265625,-3.3203125 -0.5859375,0 -1.5039063,0.1953125 -2.2460938,0.8203125 V -6.3691667 H 1.1156641 v 9.1601563 h 1.09375 z m 0,-4.17968748 c 0.3320312,-0.4882813 0.8789062,-0.8007813 1.4648437,-0.8007813 1.0742188,0 1.9335938,1.0742188 1.9335938,2.4414063 0,1.4257812 -0.9960938,2.46093748 -2.0507813,2.46093748 -0.4101562,0 -0.6835937,-0.13671875 -0.9375,-0.33203128 C 2.2484766,-1.3886979 2.2094141,-1.6426042 2.2094141,-1.8769792 Z m 7.2607422,-4.921875 H 8.2396875 v 1.2304687 h 1.2304688 z m -0.078125,3.3789062 H 8.3178125 v 6.36718753 h 1.0742188 z m 4.7705077,3.0859375 2.539063,-3.0859375 h -1.210938 l -1.816406,2.3242188 -1.875,-2.3242188 H 10.58832 l 2.597657,3.0859375 -2.675782,3.28125003 h 1.191407 l 1.972656,-2.67578123 2.050781,2.67578123 h 1.210938 z m 6.601563,-7.4804688 c -2.167969,1.9140626 -2.714844,4.8242188 -2.714844,7.1679688 0,2.5390625 0.625,5.3515625 2.714844,7.1875 h 0.859375 C 21.05707,3.0839583 20.178164,1.9706771 19.670352,0.34958333 19.299258,-0.93947917 19.143008,-2.2676042 19.143008,-3.5761979 c 0,-4.2382813 1.503906,-6.3085938 2.480469,-7.1875001 z m 2.905273,3.4179688 c 0.371094,-0.9179687 1.25,-1.5429687 2.207031,-1.5429687 0.722657,0 1.425782,0.4101562 1.425782,1.3476562 0,0.9570313 -0.664063,1.7578125 -1.445313,1.9335938 -0.07813,0 -0.976562,0.078125 -1.113281,0.097656 v 0.859375 h 1.015625 c 1.484375,0 1.835937,1.2695313 1.835937,2.0507813 0,1.1523437 -0.703125,2.03124998 -1.738281,2.03124998 -0.917969,0 -2.050781,-0.44921878 -2.714844,-1.48437498 l -0.15625,0.8398437 c 0.9375,1.28906253 2.207032,1.50390628 2.910157,1.50390628 1.679687,0 2.929687,-1.34765628 2.929687,-2.87109378 0,-1.1132812 -0.722656,-2.0898437 -1.953125,-2.5 1.015625,-0.546875 1.5625,-1.5039062 1.5625,-2.4609375 0,-1.2304687 -1.152344,-2.1679687 -2.539062,-2.1679687 -1.152344,0 -2.167969,0.625 -2.714844,1.5820312 z m 8.271484,7.32421878 V -1.1738542 h -1.152343 v 1.17187503 h 0.351562 L 30.788516,1.7948958 h 0.566406 z m 7.807618,-4.66796878 c 0,-0.9570312 -0.03906,-2.0507812 -0.410157,-3.0859375 -0.625,-1.6015625 -1.738281,-1.9335937 -2.5,-1.9335937 -0.9375,0 -1.835937,0.46875 -2.363281,1.6015625 -0.46875,1.0351562 -0.566406,2.1875 -0.566406,3.4179687 0,1.5820313 0.136719,2.4609375 0.585937,3.4765625 0.429688,0.93750003 1.347657,1.50390628 2.324219,1.50390628 0.957031,0 1.855469,-0.5078125 2.34375,-1.50390628 0.488281,-1.015625 0.585938,-2.0703125 0.585938,-3.4765625 z m -2.910157,4.12109378 c -1.835937,0 -1.835937,-2.92968748 -1.835937,-4.27734378 0,-0.9375 0,-1.8164062 0.253906,-2.6367187 0.351563,-1.015625 0.976563,-1.3671875 1.5625,-1.3671875 1.835938,0 1.835938,2.6757812 1.835938,4.0039062 0,0.9179688 0,1.8554688 -0.253907,2.7539063 -0.390625,1.36718748 -1.191406,1.52343748 -1.5625,1.52343748 z M 41.989688,3.5917708 C 44.138125,1.6777083 44.685,-1.2324479 44.685,-3.5761979 c 0,-2.5195313 -0.625,-5.3320313 -2.695312,-7.1875001 h -0.859375 c 0.546875,0.507813 1.425781,1.6406251 1.933593,3.2617188 0.390625,1.2695313 0.527344,2.5976563 0.527344,3.90625 0,4.23828128 -1.503906,6.3085938 -2.460937,7.1875 z m 0,0"
       style="fill:#000000;fill-opacity:1;fill-rule:nonzero;stroke:none"
       aria-label="pix(3,0)"
       transform="matrix(0.8,0,0,0.8,709.752,146.84533)" />
    <path
       id="path31"
       d="m 476.9372,-84.1775 2.55046,7.65139 35.70652,-9.3e-4 2.55048,-7.6514 -2.55048,-7.65139 -35.70652,0.0019 -2.55046,7.6514"
       style="fill:none;stroke:#000000;stroke-width:0.95636;stroke-linecap:round;stroke-linejoin:round;stroke-miterlimit:10;stroke-dasharray:none;stroke-opacity:1"
       transform="matrix(1.3333333,0,0,-1.3333333,119.37333,31.74)" />
    <path
       id="path32"
       d="m 2.2055599,-0.64484375 c 0.4882812,0.44921875 1.09375,0.78125 1.875,0.78125 1.3671875,0 2.6171875,-1.38671875 2.6171875,-3.33984375 0,-1.7382813 -0.9375,-3.3203125 -2.265625,-3.3203125 -0.5859375,0 -1.5039063,0.1953125 -2.2460938,0.8203125 V -6.3675 H 1.1118099 v 9.1601562 h 1.09375 z m 0,-4.17968755 c 0.3320312,-0.4882812 0.8789062,-0.8007812 1.4648437,-0.8007812 1.0742188,0 1.9335938,1.0742187 1.9335938,2.4414062 0,1.4257813 -0.9960938,2.46093755 -2.0507813,2.46093755 -0.4101562,0 -0.6835937,-0.13671875 -0.9375,-0.33203125 C 2.2446224,-1.3870313 2.2055599,-1.6409375 2.2055599,-1.8753125 Z m 7.265625,-4.921875 H 8.2407161 v 1.2304688 H 9.4711849 Z M 9.3930599,-6.3675 H 8.3188411 V -3.125e-4 H 9.3930599 Z M 14.163568,-3.2815625 16.70263,-6.3675 h -1.210937 l -1.816407,2.3242187 -1.875,-2.3242187 h -1.210937 l 2.597656,3.0859375 -2.675781,3.28125 h 1.191406 l 1.972656,-2.6757813 2.050782,2.6757813 h 1.210937 z m 6.601562,-7.4804685 c -2.167969,1.9140622 -2.714844,4.8242185 -2.714844,7.1679685 0,2.5390625 0.625,5.3515625 2.714844,7.1875 h 0.859375 C 21.058099,3.085625 20.179193,1.9723437 19.67138,0.35125 c -0.371094,-1.2890625 -0.527344,-2.6171875 -0.527344,-3.9257813 0,-4.2382812 1.503907,-6.3085937 2.480469,-7.1874997 z m 6.870117,8.300781 h 1.40625 v -0.8789063 h -1.40625 v -6.0546875 h -1.289062 l -3.554688,6.0546875 V -2.46125 h 3.710938 v 2.4609375 h 1.132812 z m -3.75,-0.8789063 c 0.429688,-0.7226562 0.976563,-1.640625 1.582032,-2.7929687 0.175781,-0.3320313 1.113281,-2.0898438 1.113281,-2.6171875 v 5.4101562 z m 8.056641,3.32031255 V -1.1721875 h -1.152344 v 1.171875 h 0.351563 l -0.351563,1.796875 h 0.566407 z m 7.807617,-4.66796875 c 0,-0.9570313 -0.03906,-2.0507813 -0.410156,-3.0859375 -0.625,-1.6015625 -1.738281,-1.9335938 -2.5,-1.9335938 -0.9375,0 -1.835938,0.46875 -2.363281,1.6015625 -0.46875,1.0351563 -0.566407,2.1875 -0.566407,3.4179688 0,1.5820312 0.136719,2.4609375 0.585938,3.4765625 0.429687,0.9375 1.347656,1.50390625 2.324219,1.50390625 0.957031,0 1.855468,-0.5078125 2.34375,-1.50390625 0.488281,-1.015625 0.585937,-2.0703125 0.585937,-3.4765625 z m -2.910156,4.12109375 c -1.835938,0 -1.835938,-2.92968755 -1.835938,-4.27734375 0,-0.9375 0,-1.8164063 0.253907,-2.6367188 0.351562,-1.015625 0.976562,-1.3671875 1.5625,-1.3671875 1.835937,0 1.835937,2.6757813 1.835937,4.0039063 0,0.9179687 0,1.8554687 -0.253906,2.7539062 -0.390625,1.36718755 -1.191406,1.52343755 -1.5625,1.52343755 z m 5.151367,4.16015625 c 2.148438,-1.9140625 2.695313,-4.8242188 2.695313,-7.1679688 0,-2.5195312 -0.625,-5.3320312 -2.695313,-7.1874997 h -0.859375 c 0.546875,0.507812 1.425781,1.6406247 1.933594,3.2617185 0.390625,1.2695312 0.527344,2.5976562 0.527344,3.90625 0,4.23828125 -1.503907,6.3085937 -2.460938,7.1875 z m 0,0"
       style="fill:#000000;fill-opacity:1;fill-rule:nonzero;stroke:none"
       aria-label="pix(4,0)"
       transform="matrix(0.8,0,0,0.8,764.16133,146.844)" />
    <path
       id="path33"
       d="m 517.74466,-84.17657 2.55046,7.65139 35.70653,-9.3e-4 2.55046,-7.65139 -2.55046,-7.65142 -35.70653,0.0019 -2.55046,7.6514"
       style="fill:none;stroke:#000000;stroke-width:0.95636;stroke-linecap:round;stroke-linejoin:round;stroke-miterlimit:10;stroke-dasharray:none;stroke-opacity:1"
       transform="matrix(1.3333333,0,0,-1.3333333,119.37333,31.74)" />
    <path
       id="path34"
       d="m 2.2065885,-0.64317708 c 0.4882813,0.44921875 1.09375,0.78125 1.875,0.78125 1.3671875,0 2.6171875,-1.38671872 2.6171875,-3.33984372 0,-1.7382813 -0.9375,-3.3203125 -2.265625,-3.3203125 -0.5859375,0 -1.5039062,0.1953125 -2.2460937,0.8203125 V -6.3658333 H 1.1128385 v 9.1601562 h 1.09375 z m 0,-4.17968752 c 0.3320313,-0.4882812 0.8789063,-0.8007812 1.4648438,-0.8007812 1.0742187,0 1.9335937,1.0742187 1.9335937,2.4414062 0,1.4257813 -0.9960937,2.46093752 -2.0507812,2.46093752 -0.4101563,0 -0.6835938,-0.13671875 -0.9375,-0.33203122 C 2.245651,-1.3853646 2.2065885,-1.6392708 2.2065885,-1.8736458 Z m 7.265625,-4.921875 H 8.2417448 v 1.2304688 h 1.2304687 z m -0.078125,3.3789063 H 8.3198698 v 6.36718747 h 1.0742187 z m 4.7705075,3.0859375 2.539063,-3.0859375 h -1.210938 l -1.816406,2.3242187 -1.875,-2.3242187 h -1.210937 l 2.597656,3.0859375 -2.675781,3.28124997 h 1.191406 l 1.972656,-2.67578127 2.050781,2.67578127 h 1.210938 z m 6.601563,-7.4804692 c -2.167969,1.9140629 -2.714844,4.8242192 -2.714844,7.1679692 0,2.5390625 0.625,5.3515625 2.714844,7.1875 h 0.859375 C 21.059128,3.0872917 20.180221,1.9740104 19.672409,0.35291667 19.301315,-0.93614583 19.145065,-2.2642708 19.145065,-3.5728646 c 0,-4.2382812 1.503906,-6.3085937 2.480469,-7.1875004 z m 3.779297,2.2460942 h 3.691406 v -0.8789063 h -4.707031 v 5.2734375 h 0.9375 c 0.351562,-0.8203125 0.996093,-1.1328125 1.582031,-1.1328125 0.664062,0 1.425781,0.6054688 1.425781,2.3046875 0,1.8164063 -1.035156,2.38281252 -1.855469,2.38281252 -0.800781,0 -1.738281,-0.4296875 -2.207031,-1.32812502 l -0.46875,0.78125 c 0.9375,1.34765627 2.304688,1.40625002 2.675781,1.40625002 1.699219,0 3.085938,-1.40625002 3.085938,-3.20312502 0,-1.796875 -1.191406,-3.203125 -2.65625,-3.203125 -0.566406,0 -1.09375,0.2148438 -1.503906,0.5664063 z m 7.397461,8.49609372 V -1.1705208 h -1.152344 v 1.17187497 h 0.351562 L 30.790573,1.7982292 h 0.566406 z m 7.807617,-4.66796872 c 0,-0.9570313 -0.03906,-2.0507813 -0.410156,-3.0859375 -0.625,-1.6015625 -1.738282,-1.9335938 -2.5,-1.9335938 -0.9375,0 -1.835938,0.46875 -2.363282,1.6015625 -0.46875,1.0351563 -0.566406,2.1875 -0.566406,3.4179688 0,1.5820312 0.136719,2.4609375 0.585938,3.4765625 0.429687,0.93749997 1.347656,1.50390622 2.324218,1.50390622 0.957032,0 1.855469,-0.5078125 2.34375,-1.50390622 0.488282,-1.015625 0.585938,-2.0703125 0.585938,-3.4765625 z m -2.910156,4.12109372 c -1.835938,0 -1.835938,-2.92968752 -1.835938,-4.27734372 0,-0.9375 0,-1.8164063 0.253906,-2.6367188 0.351563,-1.015625 0.976563,-1.3671875 1.5625,-1.3671875 1.835938,0 1.835938,2.6757813 1.835938,4.0039063 0,0.9179687 0,1.8554687 -0.253906,2.7539062 -0.390625,1.36718752 -1.191407,1.52343752 -1.5625,1.52343752 z m 5.151367,4.16015628 c 2.148437,-1.9140625 2.695312,-4.8242188 2.695312,-7.1679688 0,-2.5195312 -0.625,-5.3320312 -2.695312,-7.1875004 H 41.13237 c 0.546875,0.507813 1.425781,1.6406254 1.933594,3.2617192 0.390625,1.2695312 0.527343,2.5976562 0.527343,3.90625 0,4.23828122 -1.503906,6.3085937 -2.460937,7.1875 z m 0,0"
       style="fill:#000000;fill-opacity:1;fill-rule:nonzero;stroke:none"
       aria-label="pix(5,0)"
       transform="matrix(0.8,0,0,0.8,818.57067,146.84267)" />
    <path
       id="path35"
       d="m 558.55211,-84.1747 2.55047,7.6514 35.70653,-0.0019 m 0,-15.30279 -35.70653,0.0019 -2.55047,7.6514"
       style="fill:none;stroke:#000000;stroke-width:0.95636;stroke-linecap:round;stroke-linejoin:round;stroke-miterlimit:10;stroke-dasharray:none;stroke-opacity:1"
       transform="matrix(1.3333333,0,0,-1.3333333,119.37333,31.74)" />
    <path
       id="path36"
       d="m 2.2076172,-0.64472656 c 0.4882812,0.44921875 1.09375,0.78125 1.875,0.78125 1.3671875,0 2.6171875,-1.38671874 2.6171875,-3.33984374 0,-1.7382813 -0.9375,-3.3203125 -2.265625,-3.3203125 -0.5859375,0 -1.5039063,0.1953125 -2.2460938,0.8203125 V -6.3673828 H 1.1138672 v 9.1601562 h 1.09375 z m 0,-4.17968754 c 0.3320312,-0.4882812 0.8789062,-0.8007812 1.4648437,-0.8007812 1.0742188,0 1.9335938,1.0742187 1.9335938,2.4414062 0,1.4257813 -0.9960938,2.46093754 -2.0507813,2.46093754 -0.4101562,0 -0.6835937,-0.13671875 -0.9375,-0.33203124 C 2.2466797,-1.3869141 2.2076172,-1.6408203 2.2076172,-1.8751953 Z m 7.265625,-4.921875 H 8.2427734 v 1.2304688 h 1.2304688 z m -0.078125,3.3789063 H 8.3208984 v 6.3671874875 h 1.0742188 z m 4.7656248,3.0859375 2.539063,-3.0859375 h -1.210938 l -1.816406,2.3242187 -1.875,-2.3242187 h -1.210938 l 2.597657,3.0859375 -2.675782,3.2812499875 h 1.191407 L 13.672461,-2.6759766 15.723242,-1.953125e-4 h 1.210938 z m 6.601563,-7.4804687 c -2.167969,1.9140624 -2.714844,4.8242187 -2.714844,7.1679687 0,2.5390625 0.625,5.3515625 2.714844,7.1875 H 21.62168 C 21.055273,3.0857422 20.176367,1.9724609 19.668555,0.35136719 19.297461,-0.93769531 19.141211,-2.2658203 19.141211,-3.5744141 c 0,-4.2382812 1.503906,-6.3085937 2.480469,-7.1874999 z m 7.475586,1.3476562 c -0.585938,-0.2148438 -0.996094,-0.2929688 -1.503907,-0.2929688 -1.933593,0 -3.730468,1.9921875 -3.730468,5.078125 0,4.12109379 1.796875,4.92187504 2.929687,4.92187504 0.859375,0 1.484375,-0.33203125 2.03125,-0.99609375 0.644531,-0.78124999 0.859375,-1.44531249 0.859375,-2.48046879 0,-1.8359375 -0.957031,-3.3984375 -2.265625,-3.3984375 -1.054687,0 -1.855469,0.5078125 -2.402344,1.1523438 0.15625,-2.1289063 1.191407,-3.4570313 2.597657,-3.4570313 0.625,0 1.074218,0.1367188 1.484375,0.2929688 z m -4.0625,6.2890625 c 0,-0.1171875 0,-0.3125 0.01953,-0.4101563 0,-0.9960937 0.566406,-2.1875 1.796875,-2.1875 0.488281,0 0.9375,0.1171875 1.367187,0.8398438 0.3125,0.5664062 0.3125,1.1523437 0.3125,1.71875 0,0.5859375 0,1.1914062 -0.429687,1.8359375 -0.253906,0.39062499 -0.605469,0.76171874 -1.308594,0.76171874 -1.503906,0 -1.71875,-2.10937504 -1.757812,-2.55859374 z m 7.768554,3.10546874 V -1.1720703 h -1.152343 v 1.1718749875 h 0.351562 L 30.791602,1.7966797 h 0.566406 z m 7.807618,-4.66796874 c 0,-0.9570313 -0.03906,-2.0507813 -0.410157,-3.0859375 -0.625,-1.6015625 -1.738281,-1.9335938 -2.5,-1.9335938 -0.9375,0 -1.835937,0.46875 -2.363281,1.6015625 -0.46875,1.0351563 -0.566406,2.1875 -0.566406,3.4179688 0,1.5820312 0.136719,2.4609375 0.585937,3.4765625 0.429688,0.93749999 1.347657,1.50390624 2.324219,1.50390624 0.957031,0 1.855469,-0.5078125 2.34375,-1.50390624 0.488281,-1.015625 0.585938,-2.0703125 0.585938,-3.4765625 z m -2.910157,4.12109374 c -1.835937,0 -1.835937,-2.92968754 -1.835937,-4.27734374 0,-0.9375 0,-1.8164063 0.253906,-2.6367188 0.351563,-1.015625 0.976563,-1.3671875 1.5625,-1.3671875 1.835938,0 1.835938,2.6757813 1.835938,4.0039063 0,0.9179687 0,1.8554687 -0.253907,2.7539062 -0.390625,1.36718754 -1.191406,1.52343754 -1.5625,1.52343754 z m 5.146485,4.16015626 c 2.148437,-1.9140625 2.695312,-4.8242188 2.695312,-7.1679688 0,-2.5195312 -0.625,-5.3320312 -2.695312,-7.1874999 h -0.859375 c 0.546875,0.507812 1.425781,1.6406249 1.933593,3.2617187 0.390625,1.2695312 0.527344,2.5976562 0.527344,3.90625 0,4.23828124 -1.503906,6.3085937 -2.460937,7.1875 z m 0,0"
       style="fill:#000000;fill-opacity:1;fill-rule:nonzero;stroke:none"
       aria-label="pix(6,0)"
       transform="matrix(0.8,0,0,0.8,872.98,146.84)" />
    <path
       id="path37"
       d="M 110.38733,-126.35083 H 309.16435"
       style="fill:none;stroke:#000000;stroke-width:0.3985;stroke-linecap:round;stroke-linejoin:round;stroke-miterlimit:10;stroke-dasharray:none;stroke-opacity:1"
       transform="matrix(1.3333333,0,0,-1.3333333,119.37333,31.74)" />
    <path
       id="path38"
       d="M 1.99252,0 -1.19551,1.59401 0,0 -1.19551,-1.59401"
       style="fill:#000000;fill-opacity:1;fill-rule:nonzero;stroke:none"
       transform="matrix(-1.3333333,0,0,1.3333333,266.55644,200.20777)" />
    <path
       id="path39"
       d="M 1.99252,0 -1.19551,1.59401 0,0 -1.19551,-1.59401"
       style="fill:#000000;fill-opacity:1;fill-rule:nonzero;stroke:none"
       transform="matrix(1.3333333,0,0,-1.3333333,531.59247,200.20777)" />
    <path
       id="path40"
       d="m 6.5855313,-3.1531641 c 0,-1.9453125 -1.4179688,-3.4335937 -3.0703125,-3.4335937 -1.6992188,0 -3.0820313,1.5234375 -3.0820313,3.4335937 0,1.875 1.4296875,3.29296879 3.0703125,3.29296879 1.6875,0 3.0820313,-1.44140629 3.0820313,-3.29296879 z m -3.0703125,2.40234379 c -1.03125,0 -1.9921875,-0.85546879 -1.9921875,-2.55468749 0,-1.734375 1.078125,-2.4140625 1.9804687,-2.4140625 0.984375,0 1.9921875,0.7382812 1.9921875,2.4140625 0,1.7695312 -1.0195312,2.55468749 -1.9804687,2.55468749 z M 13.107016,-4.3133203 c 0,-0.8789063 -0.1875,-2.203125 -1.921875,-2.203125 -0.808594,0 -1.4882816,0.3632812 -2.0390629,1.0546875 v -0.984375 H 8.1265469 V -8.203125e-4 H 9.2163906 V -3.5750391 c 0,-0.890625 0.328125,-2.0742187 1.4179684,-2.0742187 1.335938,0 1.382813,0.9257812 1.382813,1.4296875 v 4.2187499875 h 1.089844 z m 6.958007,1.0898437 c 0,-0.6210937 -0.05859,-1.5 -0.515625,-2.2617187 -0.585937,-0.984375 -1.59375,-1.1015625 -2.003906,-1.1015625 -1.546875,0 -2.847656,1.4882812 -2.847656,3.3632812 0,1.8867188 1.382812,3.36328129 3.046875,3.36328129 0.65625,0 1.453125,-0.1875 2.238281,-0.76171875 0,-0.0585938 -0.04687,-0.49218754 -0.04687,-0.52734374 -0.01172,-0.011719 -0.04687,-0.328125 -0.04687,-0.3867188 -0.84375,0.71484379 -1.6875,0.82031254 -2.121094,0.82031254 -1.101562,0 -2.050781,-0.99609374 -2.074218,-2.50781254 z m -4.289062,-0.7734375 c 0.246094,-0.9726562 0.925781,-1.7226562 1.769531,-1.7226562 0.445313,0 1.429688,0.1992187 1.675781,1.7226562 z m 15.457031,-0.3164062 c 0,-0.8789063 -0.1875,-2.203125 -1.921875,-2.203125 -0.984375,0 -1.652344,0.5625 -1.992187,0.9960937 v -4.4296875 h -1.066407 v 9.9492187875 h 1.089844 V -3.5750391 c 0,-0.890625 0.328125,-2.0742187 1.417969,-2.0742187 1.335937,0 1.382812,0.9257812 1.382812,1.4296875 v 4.2187499875 h 1.089844 z M 38.941,-3.1531641 c 0,-1.9453125 -1.417969,-3.4335937 -3.070312,-3.4335937 -1.699219,0 -3.082032,1.5234375 -3.082032,3.4335937 0,1.875 1.429688,3.29296879 3.070313,3.29296879 1.6875,0 3.082031,-1.44140629 3.082031,-3.29296879 z m -3.070312,2.40234379 c -1.03125,0 -1.992188,-0.85546879 -1.992188,-2.55468749 0,-1.734375 1.078125,-2.4140625 1.980469,-2.4140625 0.984375,0 1.992187,0.7382812 1.992187,2.4140625 0,1.7695312 -1.019531,2.55468749 -1.980468,2.55468749 z m 5.302734,-2.39062499 c 0,-1.453125 1.089844,-2.390625 2.378906,-2.4140625 v -0.9609375 c -1.300781,0.023437 -2.0625,0.7734375 -2.449219,1.3359375 v -1.265625 h -0.996093 v 6.4453124875 h 1.066406 z m 4.854492,-6.5976563 h -1.230469 v 1.2304688 h 1.230469 z m -0.08203,3.375 h -1.066406 v 6.3632812875 h 1.066406 z m 6.714844,0.5507813 V -6.3641016 H 47.65682 v 0.84375 h 1.933594 c 0.175781,0 0.351563,-0.011719 0.515625,-0.011719 h 1.101563 l -3.75,4.95703124 v 0.5742187475 h 5.25 V -0.87972656 H 50.65682 c -0.175781,0 -0.339843,0.0234375 -0.515625,0.0234375 h -1.21875 z m 7.089843,2.6601562 c 0,-1.9453125 -1.417968,-3.4335937 -3.070312,-3.4335937 -1.699219,0 -3.082031,1.5234375 -3.082031,3.4335937 0,1.875 1.429687,3.29296879 3.070312,3.29296879 1.6875,0 3.082031,-1.44140629 3.082031,-3.29296879 z m -3.070312,2.40234379 c -1.03125,0 -1.992188,-0.85546879 -1.992188,-2.55468749 0,-1.734375 1.078125,-2.4140625 1.980469,-2.4140625 0.984375,0 1.992188,0.7382812 1.992188,2.4140625 0,1.7695312 -1.019532,2.55468749 -1.980469,2.55468749 z m 9.591797,-3.56249999 c 0,-0.8789063 -0.1875,-2.203125 -1.921875,-2.203125 -0.808594,0 -1.488282,0.3632812 -2.039063,1.0546875 v -0.984375 H 61.291586 V -8.203125e-4 H 62.38143 V -3.5750391 c 0,-0.890625 0.328125,-2.0742187 1.417968,-2.0742187 1.335938,0 1.382813,0.9257812 1.382813,1.4296875 v 4.2187499875 h 1.089844 z m 3.571289,-1.21875 h 1.980469 v -0.8320313 h -1.980469 v -1.828125 H 68.85897 v 1.828125 h -1.207031 v 0.8320313 h 1.171875 v 3.8554687 c 0,0.83203129 0.1875,1.81640629 1.183593,1.81640629 0.960938,0 1.617188,-0.328125 2.0625,-0.55078125 L 71.858969,-1.2430078 c -0.503906,0.43359374 -1.03125,0.49218749 -1.289063,0.49218749 -0.632812,0 -0.726562,-0.66796879 -0.726562,-1.17187499 z m 8.238281,1.3242187 c 0,-1.3710937 -0.996094,-2.3789062 -2.332031,-2.3789062 -0.855469,0 -1.5,0.1992187 -2.203125,0.609375 l 0.08203,0.9375 c 0.632813,-0.4570313 1.289063,-0.7148438 2.121094,-0.7148438 0.667969,0 1.242187,0.5273438 1.242187,1.5820313 v 0.5859375 c -0.65625,0.023437 -1.511718,0.070312 -2.367187,0.3632812 -0.960938,0.328125 -1.523438,0.8554688 -1.523438,1.5703125 0,0.6328125 0.375,1.79296879 1.59375,1.79296879 0.785157,0 1.792969,-0.22265625 2.320313,-0.66796875 v 0.5273437475 h 1.066406 z m -1.089844,2.2851563 c 0,0.28125 0,0.6328125 -0.480468,0.9140625 -0.386719,0.24609374 -0.867188,0.29296874 -1.089844,0.29296874 -0.773438,0 -1.300781,-0.42187504 -1.300781,-0.94921874 0,-0.9726563 1.992187,-1.1953125 2.871093,-1.1953125 z m 4.379883,-8.0273438 h -1.066406 v 9.9492187875 h 1.066406 z m 7.980469,0 h -1.066406 v 9.9492187875 h 1.066406 z m 3.401367,0.2109375 h -1.230469 v 1.2304688 H 92.7535 Z m -0.08203,3.375 h -1.066406 v 6.3632812875 h 1.066406 z m 7.207031,2.0507813 c 0,-0.8789063 -0.1875,-2.203125 -1.921875,-2.203125 -0.808594,0 -1.488281,0.3632812 -2.039062,1.0546875 v -0.984375 h -1.019532 v 6.4453124875 h 1.089844 V -3.5750391 c 0,-0.890625 0.328125,-2.0742187 1.417969,-2.0742187 1.335937,0 1.382812,0.9257812 1.382812,1.4296875 V -8.203125e-4 H 99.8785 Z m 6.958008,1.0898437 c 0,-0.6210937 -0.0586,-1.5 -0.51563,-2.2617187 -0.58593,-0.984375 -1.59375,-1.1015625 -2.0039,-1.1015625 -1.54688,0 -2.84766,1.4882812 -2.84766,3.3632812 0,1.8867188 1.38281,3.36328129 3.04688,3.36328129 0.65625,0 1.45312,-0.1875 2.23828,-0.76171875 0,-0.0585938 -0.0469,-0.49218754 -0.0469,-0.52734374 -0.0117,-0.011719 -0.0469,-0.328125 -0.0469,-0.3867188 -0.84375,0.71484379 -1.6875,0.82031254 -2.1211,0.82031254 -1.10156,0 -2.05078,-0.99609374 -2.07422,-2.50781254 z m -4.28906,-0.7734375 c 0.24609,-0.9726562 0.92578,-1.7226562 1.76953,-1.7226562 0.44531,0 1.42968,0.1992187 1.67578,1.7226562 z m 0,0"
       style="fill:#000000;fill-opacity:1;fill-rule:nonzero;stroke:none"
       aria-label="onehorizontalline"
       transform="matrix(1.3333333,0,0,1.3333333,327.57867,198.38)" />
  </g>
</svg>
