<?xml version="1.0" encoding="UTF-8" standalone="no"?>
<!-- Created with Inkscape (http://www.inkscape.org/) -->

<svg
   version="1.1"
   id="svg1"
   width="565.80798"
   height="188.63333"
   viewBox="0 0 565.80798 188.63333"
   sodipodi:docname="main.pdf"
   xmlns:inkscape="http://www.inkscape.org/namespaces/inkscape"
   xmlns:sodipodi="http://sodipodi.sourceforge.net/DTD/sodipodi-0.dtd"
   xmlns="http://www.w3.org/2000/svg"
   xmlns:svg="http://www.w3.org/2000/svg">
  <defs
     id="defs1" />
  <sodipodi:namedview
     id="namedview1"
     pagecolor="#ffffff"
     bordercolor="#000000"
     borderopacity="0.25"
     inkscape:showpageshadow="2"
     inkscape:pageopacity="0.0"
     inkscape:pagecheckerboard="0"
     inkscape:deskcolor="#d1d1d1">
    <inkscape:page
       x="0"
       y="0"
       inkscape:label="1"
       id="page1"
       width="565.80798"
       height="188.63333"
       margin="0"
       bleed="0" />
  </sodipodi:namedview>
  <g
     id="g1"
     inkscape:groupmode="layer"
     inkscape:label="1">
    <path
       id="path1"
       d="M 0,0 H 424.356 V 141.475 H 0 Z"
       style="fill:#ffffff;fill-opacity:1;fill-rule:nonzero;stroke:none"
       transform="matrix(1.3333333,0,0,-1.3333333,0,188.63333)" />
    <path
       id="path2"
       d="M -103.74463,-85.06174 V 55.41483 H 319.61716 V -85.06174 Z"
       style="fill:#ffffff;fill-opacity:1;fill-rule:nonzero;stroke:none"
       transform="matrix(1.3333333,0,0,-1.3333333,138.99067,74.552)" />
    <path
       id="path3"
       d="M 5.55742,0 C 5.55742,3.0693 3.0693,5.55742 0,5.55742 -3.0693,5.55742 -5.55742,3.0693 -5.55742,0 c 0,-3.0693 2.48812,-5.55742 5.55742,-5.55742 3.0693,0 5.55742,2.48812 5.55742,5.55742 z"
       style="fill:none;stroke:#000000;stroke-width:0.3985;stroke-linecap:butt;stroke-linejoin:miter;stroke-miterlimit:10;stroke-dasharray:none;stroke-opacity:1"
       transform="matrix(1.3333333,0,0,-1.3333333,138.99067,74.552)" />
    <path
       id="path4"
       d="M 2.2369297,-4.7215547 H 2.0845859 c -0.4570312,0.421875 -1.03125,0.4453125 -1.44140621,0.4570313 v 0.4453125 c 0.26953125,-0.011719 0.62109371,-0.023437 0.96093751,-0.1640625 v 3.55078121 H 0.67833594 V 0.00110156 H 3.1627109 V -0.43249219 H 2.2369297 Z m 0,0"
       style="fill:#000000;fill-opacity:1;fill-rule:nonzero;stroke:none"
       aria-label="1"
       transform="matrix(1.3333333,0,0,1.3333333,136.52133,77.604)" />
    <path
       id="path5"
       d="m 13.89357,-16.67229 c 0,3.06931 -2.48813,5.55744 -5.55743,5.55744 -3.06931,0 -5.55744,-2.48813 -5.55744,-5.55744 0,-3.06932 2.48813,-5.55743 5.55744,-5.55743 3.0693,0 5.55743,2.48811 5.55743,5.55743 z"
       style="fill:none;stroke:#000000;stroke-width:0.3985;stroke-linecap:butt;stroke-linejoin:miter;stroke-miterlimit:10;stroke-dasharray:none;stroke-opacity:1"
       transform="matrix(1.3333333,0,0,-1.3333333,138.99067,74.552)" />
    <path
       id="path6"
       d="m 3.0591328,-4.5830078 c -0.375,-0.140625 -0.6445312,-0.140625 -0.7734375,-0.140625 -1.0546875,0 -1.98046874,0.9960937 -1.98046874,2.4726562 0,1.88671879 0.85546874,2.39062504 1.55859374,2.39062504 0.5625,0 0.8554688,-0.2578125 1.0664063,-0.48046875 0.4570312,-0.48046875 0.4570312,-0.97265629 0.4570312,-1.21874999 0,-0.9140625 -0.4921875,-1.6640625 -1.171875,-1.6640625 -0.6796875,0 -1.0546875,0.3515625 -1.25390624,0.5507812 0.09375,-0.9492187 0.57421874,-1.6171875 1.33593754,-1.6171875 0.140625,0 0.4101562,0.011719 0.7617187,0.1523438 z m -2.08593749,3.046875 c 0,-0.035156 0,-0.140625 0,-0.1757813 0,-0.4804687 0.30468749,-1.0546875 0.92578129,-1.0546875 0.84375,0 0.84375,0.9726563 0.84375,1.2070313 0,0.2695312 0,0.56249999 -0.1875,0.85546874 -0.1640625,0.24609375 -0.375,0.38671875 -0.6914063,0.38671875 -0.7382812,0 -0.8554687,-0.91406249 -0.89062499,-1.21874999 z m 0,0"
       style="fill:#000000;fill-opacity:1;fill-rule:nonzero;stroke:none"
       aria-label="6"
       transform="matrix(1.3333333,0,0,1.3333333,147.636,99.833333)" />
    <path
       id="path7"
       d="m 5.55742,-33.34459 c 0,3.06931 -2.48812,5.55743 -5.55742,5.55743 -3.0693,0 -5.55742,-2.48812 -5.55742,-5.55743 0,-3.06931 2.48812,-5.55743 5.55742,-5.55743 3.0693,0 5.55742,2.48812 5.55742,5.55743 z"
       style="fill:none;stroke:#000000;stroke-width:0.3985;stroke-linecap:butt;stroke-linejoin:miter;stroke-miterlimit:10;stroke-dasharray:none;stroke-opacity:1"
       transform="matrix(1.3333333,0,0,-1.3333333,138.99067,74.552)" />
    <path
       id="path8"
       d="M 2.2383672,-4.7227812 H 2.0860234 c -0.4570312,0.421875 -1.03125,0.4453125 -1.44140621,0.4570312 v 0.4453125 C 0.91414844,-3.8321562 1.2657109,-3.843875 1.6055547,-3.9845 v 3.55078125 H 0.67977344 V -1.25e-4 H 3.1641484 V -0.43371875 H 2.2383672 Z m 3.7060547,0 H 5.7920781 c -0.4570312,0.421875 -1.03125,0.4453125 -1.4414062,0.4570312 v 0.4453125 C 4.6202031,-3.8321562 4.9717656,-3.843875 5.3116094,-3.9845 v 3.55078125 H 4.3858281 V -1.25e-4 h 2.484375 V -0.43371875 H 5.9444219 Z m 0,0"
       style="fill:#000000;fill-opacity:1;fill-rule:nonzero;stroke:none"
       aria-label="11"
       transform="matrix(1.3333333,0,0,1.3333333,134.05067,122.06267)" />
    <path
       id="path9"
       d="m -11.11485,0 c 0,3.0693 -2.48813,5.55742 -5.55744,5.55742 -3.06932,0 -5.55743,-2.48812 -5.55743,-5.55742 0,-3.0693 2.48811,-5.55742 5.55743,-5.55742 3.06931,0 5.55744,2.48812 5.55744,5.55742 z"
       style="fill:none;stroke:#000000;stroke-width:0.3985;stroke-linecap:butt;stroke-linejoin:miter;stroke-miterlimit:10;stroke-dasharray:none;stroke-opacity:1"
       transform="matrix(1.3333333,0,0,-1.3333333,138.99067,74.552)" />
    <path
       id="path10"
       d="m 1.9694766,-0.53796094 c -0.082031,0 -0.1640625,0.0117188 -0.2460938,0.0117188 H 0.92650781 L 2.0046328,-1.4871797 c 0.1289063,-0.1054687 0.46875,-0.3632812 0.609375,-0.4804687 0.3046875,-0.28125 0.7148438,-0.6445313 0.7148438,-1.2421875 0,-0.796875 -0.5859375,-1.5117188 -1.5820313,-1.5117188 -0.7382812,0 -1.20703124,0.3984375 -1.44140624,1.1132813 l 0.328125,0.4101562 c 0.1640625,-0.5859375 0.41015624,-1.0429687 1.00781254,-1.0429687 0.5859375,0 1.03125,0.4101562 1.03125,1.0429687 0,0.5742188 -0.3398438,0.9023438 -0.75,1.3007813 -0.140625,0.140625 -0.515625,0.4570312 -0.6679688,0.5976562 -0.1992187,0.1757813 -0.67968749,0.64453126 -0.87890624,0.82031251 V 0.00110156 H 3.3288516 v -0.5390625 z m 0,0"
       style="fill:#000000;fill-opacity:1;fill-rule:nonzero;stroke:none"
       aria-label="2"
       transform="matrix(1.3333333,0,0,1.3333333,114.292,77.604)" />
    <path
       id="path11"
       d="m -2.77872,-16.67229 c 0,3.06931 -2.48813,5.55744 -5.55743,5.55744 -3.06931,0 -5.55744,-2.48813 -5.55744,-5.55744 0,-3.06932 2.48813,-5.55743 5.55744,-5.55743 3.0693,0 5.55743,2.48811 5.55743,5.55743 z"
       style="fill:none;stroke:#000000;stroke-width:0.3985;stroke-linecap:butt;stroke-linejoin:miter;stroke-miterlimit:10;stroke-dasharray:none;stroke-opacity:1"
       transform="matrix(1.3333333,0,0,-1.3333333,138.99067,74.552)" />
    <path
       id="path12"
       d="m 1.7223437,-4.0439453 c 0.082031,0 0.1640625,0 0.2460938,0 h 0.8789062 c -1.0546875,1.0429687 -1.734375,2.4960937 -1.734375,4.11328124 h 0.65625 c 0,-2.03906254 0.9960938,-3.50390624 1.6171875,-4.16015624 V -4.5712891 H 0.304375 v 0.5273438 z m 0,0"
       style="fill:#000000;fill-opacity:1;fill-rule:nonzero;stroke:none"
       aria-label="7"
       transform="matrix(1.3333333,0,0,1.3333333,125.40667,99.833333)" />
    <path
       id="path13"
       d="m -11.11485,-33.34459 c 0,3.06931 -2.48813,5.55743 -5.55744,5.55743 -3.06932,0 -5.55743,-2.48812 -5.55743,-5.55743 0,-3.06931 2.48811,-5.55743 5.55743,-5.55743 3.06931,0 5.55744,2.48812 5.55744,5.55743 z"
       style="fill:none;stroke:#000000;stroke-width:0.3985;stroke-linecap:butt;stroke-linejoin:miter;stroke-miterlimit:10;stroke-dasharray:none;stroke-opacity:1"
       transform="matrix(1.3333333,0,0,-1.3333333,138.99067,74.552)" />
    <path
       id="path14"
       d="M 2.2375156,-4.7227812 H 2.0851719 c -0.4570313,0.421875 -1.03125,0.4453125 -1.44140628,0.4570312 v 0.4453125 C 0.91329687,-3.8321562 1.2648594,-3.843875 1.6047031,-3.9845 v 3.55078125 H 0.67892187 V -1.25e-4 H 3.1632969 V -0.43371875 H 2.2375156 Z m 3.4365235,4.1835937 c -0.082031,0 -0.1640625,0.0117188 -0.2460938,0.0117188 h -0.796875 l 1.078125,-0.9609374 c 0.1289063,-0.1054688 0.46875,-0.3632813 0.609375,-0.4804688 0.3046875,-0.28125 0.7148438,-0.6445312 0.7148438,-1.2421875 0,-0.796875 -0.5859375,-1.5117187 -1.5820313,-1.5117187 -0.7382812,0 -1.2070312,0.3984375 -1.4414062,1.1132812 l 0.328125,0.4101563 c 0.1640625,-0.5859375 0.4101562,-1.0429688 1.0078125,-1.0429688 0.5859375,0 1.03125,0.4101563 1.03125,1.0429688 0,0.5742187 -0.3398438,0.9023437 -0.75,1.3007812 -0.140625,0.140625 -0.515625,0.4570313 -0.6679688,0.5976563 C 4.7599766,-1.125125 4.2795078,-0.656375 4.0802891,-0.48059375 V -1.25e-4 h 2.953125 v -0.5390625 z m 0,0"
       style="fill:#000000;fill-opacity:1;fill-rule:nonzero;stroke:none"
       aria-label="12"
       transform="matrix(1.3333333,0,0,1.3333333,111.82133,122.06267)" />
    <path
       id="path15"
       d="m -27.78716,0 c 0,3.0693 -2.48812,5.55742 -5.55743,5.55742 -3.06931,0 -5.55743,-2.48812 -5.55743,-5.55742 0,-3.0693 2.48812,-5.55742 5.55743,-5.55742 3.06931,0 5.55743,2.48812 5.55743,5.55742 z"
       style="fill:none;stroke:#000000;stroke-width:0.3985;stroke-linecap:butt;stroke-linejoin:miter;stroke-miterlimit:10;stroke-dasharray:none;stroke-opacity:1"
       transform="matrix(1.3333333,0,0,-1.3333333,138.99067,74.552)" />
    <path
       id="path16"
       d="m 0.703,-3.5731172 c 0.28125,-0.5625 0.7851563,-0.7148437 1.1132813,-0.7148437 0.4101562,0 0.7265625,0.234375 0.7265625,0.6328125 0,0.375 -0.2578125,0.8203125 -0.7851563,0.9140625 -0.035156,0.011719 -0.058594,0.011719 -0.5273437,0.046875 v 0.4570312 H 1.781125 c 0.65625,0 0.9023438,0.5273438 0.9023438,0.9609375 0,0.55078126 -0.328125,0.96093751 -0.8789063,0.96093751 -0.4921875,0 -1.0546875,-0.234375 -1.40625,-0.6796875 l -0.09375,0.45703125 c 0.41015625,0.4453125 0.9726563,0.6796875 1.5117188,0.6796875 0.9140625,0 1.5703125,-0.6796875 1.5703125,-1.40624996 0,-0.5742188 -0.4570313,-1.03125 -1.0078125,-1.1953125 0.5273437,-0.2695313 0.796875,-0.7382813 0.796875,-1.1953125 0,-0.5859375 -0.5976563,-1.0664063 -1.3476563,-1.0664063 -0.609375,0 -1.125,0.328125 -1.41796875,0.7382813 z m 0,0"
       style="fill:#000000;fill-opacity:1;fill-rule:nonzero;stroke:none"
       aria-label="3"
       transform="matrix(1.3333333,0,0,1.3333333,92.062667,77.604)" />
    <path
       id="path17"
       d="m -19.45102,-16.67229 c 0,3.06931 -2.48811,5.55744 -5.55743,5.55744 -3.06931,0 -5.55744,-2.48813 -5.55744,-5.55744 0,-3.06932 2.48813,-5.55743 5.55744,-5.55743 3.06932,0 5.55743,2.48811 5.55743,5.55743 z"
       style="fill:none;stroke:#000000;stroke-width:0.3985;stroke-linecap:butt;stroke-linejoin:miter;stroke-miterlimit:10;stroke-dasharray:none;stroke-opacity:1"
       transform="matrix(1.3333333,0,0,-1.3333333,138.99067,74.552)" />
    <path
       id="path18"
       d="m 2.3777422,-2.4736328 c 0.46875,-0.140625 0.9023437,-0.515625 0.9023437,-1.03125 0,-0.6328125 -0.609375,-1.21875 -1.4296875,-1.21875 -0.8320312,0 -1.44140621,0.5859375 -1.44140621,1.21875 0,0.5273437 0.45703125,0.890625 0.90234371,1.03125 -0.60937496,0.1875 -1.00781246,0.6679687 -1.00781246,1.2070312 0,0.73828129 0.66796875,1.40625004 1.54687496,1.40625004 0.8789063,0 1.5351563,-0.66796875 1.5351563,-1.40625004 0,-0.5390625 -0.3984375,-1.0195312 -1.0078125,-1.2070312 z M 1.8503984,-2.6962891 c -0.5039062,0 -0.90234371,-0.2929687 -0.90234371,-0.796875 0,-0.4453125 0.31640621,-0.796875 0.90234371,-0.796875 0.5742188,0 0.890625,0.3515625 0.890625,0.796875 0,0.4921875 -0.3867187,0.796875 -0.890625,0.796875 z m 0,2.37890629 c -0.4804687,0 -0.91406246,-0.3046875 -0.91406246,-0.96093749 0,-0.6210938 0.41015626,-0.9609375 0.91406246,-0.9609375 0.5039063,0 0.9023438,0.3398437 0.9023438,0.9609375 0,0.65624999 -0.4335938,0.96093749 -0.9023438,0.96093749 z m 0,0"
       style="fill:#000000;fill-opacity:1;fill-rule:nonzero;stroke:none"
       aria-label="8"
       transform="matrix(1.3333333,0,0,1.3333333,103.17733,99.833333)" />
    <path
       id="path19"
       d="m -27.78716,-33.34459 c 0,3.06931 -2.48812,5.55743 -5.55743,5.55743 -3.06931,0 -5.55743,-2.48812 -5.55743,-5.55743 0,-3.06931 2.48812,-5.55743 5.55743,-5.55743 3.06931,0 5.55743,2.48812 5.55743,5.55743 z"
       style="fill:none;stroke:#000000;stroke-width:0.3985;stroke-linecap:butt;stroke-linejoin:miter;stroke-miterlimit:10;stroke-dasharray:none;stroke-opacity:1"
       transform="matrix(1.3333333,0,0,-1.3333333,138.99067,74.552)" />
    <path
       id="path20"
       d="M 2.2395937,-4.7227812 H 2.08725 C 1.6302187,-4.3009062 1.056,-4.2774687 0.64584375,-4.26575 v 0.4453125 C 0.915375,-3.8321562 1.2669375,-3.843875 1.6067812,-3.9845 v 3.55078125 H 0.681 V -1.25e-4 H 3.165375 V -0.43371875 H 2.2395937 Z m 2.1679688,1.1484375 c 0.28125,-0.5625 0.7851562,-0.7148438 1.1132812,-0.7148438 0.4101563,0 0.7265625,0.234375 0.7265625,0.6328125 0,0.375 -0.2578125,0.8203125 -0.7851562,0.9140625 -0.035156,0.011719 -0.058594,0.011719 -0.5273438,0.046875 v 0.4570313 h 0.5507813 c 0.65625,0 0.9023437,0.5273437 0.9023437,0.9609375 0,0.5507812 -0.328125,0.96093745 -0.8789062,0.96093745 -0.4921875,0 -1.0546875,-0.234375 -1.40625,-0.6796875 L 4.009125,-0.5391875 C 4.4192812,-0.093875 4.9817812,0.1405 5.5208437,0.1405 c 0.9140625,0 1.5703125,-0.6796875 1.5703125,-1.40625 0,-0.5742187 -0.4570312,-1.03125 -1.0078125,-1.1953125 0.5273438,-0.2695312 0.796875,-0.7382812 0.796875,-1.1953125 0,-0.5859375 -0.5976562,-1.0664062 -1.3476562,-1.0664062 -0.609375,0 -1.125,0.328125 -1.4179688,0.7382812 z m 0,0"
       style="fill:#000000;fill-opacity:1;fill-rule:nonzero;stroke:none"
       aria-label="13"
       transform="matrix(1.3333333,0,0,1.3333333,89.592,122.06267)" />
    <path
       id="path21"
       d="m -44.45946,0 c 0,3.0693 -2.48811,5.55742 -5.55743,5.55742 -3.06931,0 -5.55744,-2.48812 -5.55744,-5.55742 0,-3.0693 2.48813,-5.55742 5.55744,-5.55742 3.06932,0 5.55743,2.48812 5.55743,5.55742 z"
       style="fill:none;stroke:#000000;stroke-width:0.3985;stroke-linecap:butt;stroke-linejoin:miter;stroke-miterlimit:10;stroke-dasharray:none;stroke-opacity:1"
       transform="matrix(1.3333333,0,0,-1.3333333,138.99067,74.552)" />
    <path
       id="path22"
       d="m 2.7646484,-1.1590547 h 0.7265625 v -0.46875 H 2.7646484 V -4.5692109 H 2.0732422 l -1.86328126,2.9414062 v 0.46875 H 2.1552734 v 1.16015626 h 0.609375 z m -1.96874996,-0.46875 C 1.0068359,-1.9559297 2.2138672,-3.8074922 2.2138672,-4.2293672 v 2.6015625 z m 0,0"
       style="fill:#000000;fill-opacity:1;fill-rule:nonzero;stroke:none"
       aria-label="4"
       transform="matrix(1.3333333,0,0,1.3333333,69.833333,77.604)" />
    <path
       id="path23"
       d="m -36.1233,-16.67229 c 0,3.06931 -2.48813,5.55744 -5.55744,5.55744 -3.06932,0 -5.55743,-2.48813 -5.55743,-5.55744 0,-3.06932 2.48811,-5.55743 5.55743,-5.55743 3.06931,0 5.55744,2.48811 5.55744,5.55743 z"
       style="fill:none;stroke:#000000;stroke-width:0.3985;stroke-linecap:butt;stroke-linejoin:miter;stroke-miterlimit:10;stroke-dasharray:none;stroke-opacity:1"
       transform="matrix(1.3333333,0,0,-1.3333333,138.99067,74.552)" />
    <path
       id="path24"
       d="m 0.53997656,-0.17675781 c 0.33984375,0.2578125 0.65625004,0.31640625 0.98437504,0.31640625 0.9726562,0 1.8632812,-0.97265625 1.8632812,-2.47265624 0,-1.9101563 -0.84375,-2.390625 -1.5117187,-2.390625 -0.6210938,0 -0.90234379,0.2929687 -1.11328129,0.4921875 -0.4453125,0.4570312 -0.45703125,0.9375 -0.45703125,1.2070312 0,0.9023438 0.4921875,1.6757813 1.17187504,1.6757813 0.7851562,0 1.21875,-0.515625 1.2539062,-0.5625 -0.09375,1.11328124 -0.6328125,1.59374999 -1.2070312,1.59374999 -0.3632813,0 -0.58593754,-0.12890625 -0.75000004,-0.2578125 z M 2.7079453,-3.0244141 c 0.011719,0.035156 0.011719,0.1054688 0.011719,0.1523438 0,0.515625 -0.3164063,1.0664062 -0.9140625,1.0664062 -0.2695313,0 -0.4804688,-0.082031 -0.65625,-0.3632812 -0.18750004,-0.2695313 -0.19921879,-0.5390625 -0.19921879,-0.8554688 0,-0.2695312 0,-0.5859375 0.21093749,-0.890625 0.1523438,-0.2109375 0.3632813,-0.375 0.703125,-0.375 0.6796875,0 0.8320313,0.8203125 0.8437498,1.265625 z m 0,0"
       style="fill:#000000;fill-opacity:1;fill-rule:nonzero;stroke:none"
       aria-label="9"
       transform="matrix(1.3333333,0,0,1.3333333,80.948,99.833333)" />
    <path
       id="path25"
       d="m -44.45946,-33.34459 c 0,3.06931 -2.48811,5.55743 -5.55743,5.55743 -3.06931,0 -5.55744,-2.48812 -5.55744,-5.55743 0,-3.06931 2.48813,-5.55743 5.55744,-5.55743 3.06932,0 5.55743,2.48812 5.55743,5.55743 z"
       style="fill:none;stroke:#000000;stroke-width:0.3985;stroke-linecap:butt;stroke-linejoin:miter;stroke-miterlimit:10;stroke-dasharray:none;stroke-opacity:1"
       transform="matrix(1.3333333,0,0,-1.3333333,138.99067,74.552)" />
    <path
       id="path26"
       d="M 2.2387422,-4.7227812 H 2.0863984 c -0.4570312,0.421875 -1.03125,0.4453125 -1.44140621,0.4570312 v 0.4453125 C 0.91452344,-3.8321562 1.2660859,-3.843875 1.6059297,-3.9845 v 3.55078125 H 0.68014844 V -1.25e-4 H 3.1645234 V -0.43371875 H 2.2387422 Z m 4.2333984,3.5625 h 0.7265625 v -0.46875 H 6.4721406 V -4.5704375 H 5.7807344 l -1.8632813,2.9414063 v 0.46875 H 5.8627656 V -1.25e-4 h 0.609375 z m -1.96875,-0.46875 c 0.2109375,-0.328125 1.4179688,-2.1796875 1.4179688,-2.6015625 v 2.6015625 z m 0,0"
       style="fill:#000000;fill-opacity:1;fill-rule:nonzero;stroke:none"
       aria-label="14"
       transform="matrix(1.3333333,0,0,1.3333333,67.362667,122.06267)" />
    <path
       id="path27"
       d="m -61.13176,0 c 0,3.0693 -2.48811,5.55742 -5.55744,5.55742 -3.0693,0 -5.55741,-2.48812 -5.55741,-5.55742 0,-3.0693 2.48811,-5.55742 5.55741,-5.55742 3.06933,0 5.55744,2.48812 5.55744,5.55742 z"
       style="fill:none;stroke:#000000;stroke-width:0.3985;stroke-linecap:butt;stroke-linejoin:miter;stroke-miterlimit:10;stroke-dasharray:none;stroke-opacity:1"
       transform="matrix(1.3333333,0,0,-1.3333333,138.99067,74.552)" />
    <path
       id="path28"
       d="m 1.1495391,-4.0887422 h 1.921875 V -4.5692109 H 0.58703906 v 2.6015625 H 1.0909453 c 0.1757813,-0.375 0.5039063,-0.5390625 0.8085938,-0.5390625 0.2929687,0 0.7265625,0.1875 0.7265625,1.078125 0,0.91406246 -0.5859375,1.11328121 -0.9375,1.11328121 -0.4570313,0 -0.90234379,-0.24609375 -1.14843754,-0.64453125 l -0.2578125,0.421875 c 0.33984375,0.421875 0.85546874,0.6796875 1.40625004,0.6796875 0.9257812,0 1.640625,-0.703125 1.640625,-1.55859376 0,-0.8671875 -0.6445313,-1.546875 -1.40625,-1.546875 -0.3046875,0 -0.5742188,0.09375 -0.7734375,0.2695313 z m 0,0"
       style="fill:#000000;fill-opacity:1;fill-rule:nonzero;stroke:none"
       aria-label="5"
       transform="matrix(1.3333333,0,0,1.3333333,47.604,77.604)" />
    <path
       id="path29"
       d="m -52.79561,-16.67229 c 0,3.06931 -2.48813,5.55744 -5.55743,5.55744 -3.06931,0 -5.55744,-2.48813 -5.55744,-5.55744 0,-3.06932 2.48813,-5.55743 5.55744,-5.55743 3.0693,0 5.55743,2.48811 5.55743,5.55743 z"
       style="fill:none;stroke:#000000;stroke-width:0.3985;stroke-linecap:butt;stroke-linejoin:miter;stroke-miterlimit:10;stroke-dasharray:none;stroke-opacity:1"
       transform="matrix(1.3333333,0,0,-1.3333333,138.99067,74.552)" />
    <path
       id="path30"
       d="M 2.2368516,-4.7236328 H 2.0845078 c -0.4570312,0.421875 -1.03125,0.4453125 -1.44140624,0.4570312 v 0.4453125 c 0.26953125,-0.011719 0.62109374,-0.023437 0.96093754,-0.1640625 v 3.55078129 H 0.67825781 V -9.765625e-4 H 3.1626328 V -0.43457031 H 2.2368516 Z m 4.8662109,2.4609375 c 0,-0.3398438 0,-1.1601563 -0.328125,-1.7226563 -0.3515625,-0.6328125 -0.890625,-0.7382812 -1.21875,-0.7382812 -0.3164063,0 -0.8671875,0.1054687 -1.2070313,0.703125 -0.3398437,0.5507812 -0.3515625,1.3125 -0.3515625,1.7578125 0,0.515625 0.023438,1.1484375 0.3164063,1.67578124 0.3164062,0.5625 0.8320312,0.7265625 1.2421875,0.7265625 0.6914062,0 1.078125,-0.3984375 1.2890625,-0.84375 C 7.0913437,-1.1962891 7.1030625,-1.8291016 7.1030625,-2.2626953 Z m -1.546875,1.94531249 c -0.2929688,0 -0.6328125,-0.1640625 -0.8085938,-0.66796875 -0.140625,-0.42187504 -0.140625,-0.86718754 -0.140625,-1.37109374 0,-0.6445313 0,-1.9101563 0.9492188,-1.9101563 0.9492187,0 0.9492187,1.265625 0.9492187,1.9101563 0,0.4570312 0,0.984375 -0.1757812,1.42968749 -0.1875,0.50390625 -0.5507813,0.609375 -0.7734375,0.609375 z m 0,0"
       style="fill:#000000;fill-opacity:1;fill-rule:nonzero;stroke:none"
       aria-label="10"
       transform="matrix(1.3333333,0,0,1.3333333,56.248,99.833333)" />
    <path
       id="path31"
       d="m -61.13176,-33.34459 c 0,3.06931 -2.48811,5.55743 -5.55744,5.55743 -3.0693,0 -5.55741,-2.48812 -5.55741,-5.55743 0,-3.06931 2.48811,-5.55743 5.55741,-5.55743 3.06933,0 5.55744,2.48812 5.55744,5.55743 z"
       style="fill:none;stroke:#000000;stroke-width:0.3985;stroke-linecap:butt;stroke-linejoin:miter;stroke-miterlimit:10;stroke-dasharray:none;stroke-opacity:1"
       transform="matrix(1.3333333,0,0,-1.3333333,138.99067,74.552)" />
    <path
       id="path32"
       d="M 2.2378906,-4.7227812 H 2.0855469 c -0.4570313,0.421875 -1.03125,0.4453125 -1.44140628,0.4570312 v 0.4453125 C 0.91367187,-3.8321562 1.2652344,-3.843875 1.6050781,-3.9845 v 3.55078125 H 0.67929687 V -1.25e-4 H 3.1636719 V -0.43371875 H 2.2378906 Z m 2.616211,0.6328125 h 1.921875 v -0.4804688 h -2.484375 v 2.6015625 h 0.5039062 c 0.1757813,-0.375 0.5039063,-0.5390625 0.8085938,-0.5390625 0.2929687,0 0.7265625,0.1875 0.7265625,1.078125 0,0.9140625 -0.5859375,1.11328125 -0.9375,1.11328125 -0.4570313,0 -0.9023438,-0.24609375 -1.1484375,-0.64453125 l -0.2578125,0.421875 c 0.3398437,0.421875 0.8554687,0.6796875 1.40625,0.6796875 0.9257812,0 1.640625,-0.703125 1.640625,-1.5585937 0,-0.8671875 -0.6445313,-1.546875 -1.40625,-1.546875 -0.3046875,0 -0.5742188,0.09375 -0.7734375,0.2695312 z m 0,0"
       style="fill:#000000;fill-opacity:1;fill-rule:nonzero;stroke:none"
       aria-label="15"
       transform="matrix(1.3333333,0,0,1.3333333,45.133333,122.06267)" />
    <path
       id="path33"
       d="M 27.97618,-3.81367 21.27374,-29.5309 C 18.32579,-40.84514 6.45753,-50.0169 -5.2351,-50.0169 h -56.21897 c -11.69266,0 -23.56091,9.17176 -26.50887,20.486 l -6.70243,25.71723 c -2.94796,11.31422 4.14083,20.48597 15.83349,20.48597 h 90.97456 c 11.69266,0 18.78145,-9.17175 15.8335,-20.48597 z"
       style="fill:none;stroke:#000000;stroke-width:0.3985;stroke-linecap:butt;stroke-linejoin:miter;stroke-miterlimit:10;stroke-dasharray:none;stroke-opacity:1"
       transform="matrix(1.3333333,0,0,-1.3333333,138.99067,74.552)" />
    <path
       id="path34"
       d="M 5.5189219,-5.5308438 H 4.8157969 L 3.8197031,-3.081625 c -0.058594,0.1289062 -0.84375,2.0507812 -0.9140625,2.44921875 H 2.8939219 C 2.8118906,-1.0308438 2.0150156,-2.9644375 1.9798594,-3.0464688 l -1.01953128,-2.484375 h -0.84375 L 2.4134531,4.0625e-4 H 3.2220469 Z M 10.478883,-2.3785 H 8.6976328 v 0.5273437 h 1.078125 v 1.21875005 C 9.4241953,-0.550375 9.0843516,-0.4800625 8.7327891,-0.4800625 c -1.2304688,0 -1.9921875,-1.1484375 -1.9921875,-2.296875 0,-1.0898438 0.7382812,-2.2851563 1.9453125,-2.2851563 0.7382812,0 1.1953125,0.2226563 1.5937499,0.5507813 L 10.40857,-5.237875 C 9.8577891,-5.4956875 9.3773203,-5.6245938 8.7679453,-5.6245938 c -1.6054687,0 -2.8242187,1.2539063 -2.8242187,2.8476563 0,1.5585937 1.2070312,2.859375 2.7773437,2.859375 0.5742188,0 1.2539063,-0.12890625 1.7578127,-0.3984375 z M 14.25818,-5.5308438 H 13.484742 L 11.293336,4.0625e-4 h 0.65625 L 12.57068,-1.581625 h 2.425781 l 0.621094,1.58203125 h 0.832031 z m -0.46875,0.609375 1.007812,2.8710938 h -2.027344 z m 9.205078,4.05468755 c -0.398438,0.2578125 -0.832031,0.3984375 -1.324219,0.3984375 -0.738281,0 -1.160156,-0.58593755 -1.160156,-1.31250005 0,-0.609375 0.316406,-1.3242187 1.183594,-1.3242187 0.539062,0 0.796875,0.1054687 1.207031,0.3632812 L 22.994508,-3.316 c -0.46875,-0.234375 -0.679688,-0.3398438 -1.300781,-0.3398438 -1.195313,0 -1.886719,0.9609375 -1.886719,1.8867188 0,0.97265625 0.773437,1.8515625 1.851562,1.8515625 0.5625,0 1.042969,-0.1640625 1.382813,-0.36328125 z m 4.280273,-0.87890625 c 0,-1.0546875 -0.832031,-1.9101563 -1.875,-1.9101563 -1.03125,0 -1.875,0.8671875 -1.875,1.9101563 0,1.0078125 0.84375,1.828125 1.875,1.828125 1.042969,0 1.875,-0.8203125 1.875,-1.828125 z m -1.875,1.27734375 c -0.632812,0 -1.171875,-0.46875 -1.171875,-1.35937505 0,-0.9023437 0.585938,-1.3007812 1.171875,-1.3007812 0.597656,0 1.183594,0.4101562 1.183594,1.3007812 0,0.9023438 -0.5625,1.35937505 -1.183594,1.35937505 z M 31.22693,-2.3550625 c 0,-0.6210938 -0.175782,-1.265625 -1.160157,-1.265625 -0.457031,0 -0.890625,0.1875 -1.242187,0.609375 V -3.59725 H 28.180055 V 4.0625e-4 H 28.88318 V -1.9331875 c 0,-0.5273438 0.222656,-1.1601563 0.832031,-1.1601563 0.820312,0 0.820312,0.5625 0.820312,0.7851563 V 4.0625e-4 h 0.691407 z m 4.371093,0 c 0,-0.6210938 -0.175781,-1.265625 -1.160156,-1.265625 -0.457031,0 -0.890625,0.1875 -1.242187,0.609375 V -3.59725 H 32.551148 V 4.0625e-4 h 0.703125 V -1.9331875 c 0,-0.5273438 0.222657,-1.1601563 0.832032,-1.1601563 0.820312,0 0.820312,0.5625 0.820312,0.7851563 V 4.0625e-4 h 0.691406 z m 4.092774,1.48828125 c -0.445313,0.31640625 -0.949219,0.421875 -1.289063,0.421875 -0.691406,0 -1.21875,-0.56250005 -1.242187,-1.30078125 h 2.613281 c 0,-0.3632813 -0.03516,-0.9023438 -0.351562,-1.359375 -0.28125,-0.3984375 -0.761719,-0.5507813 -1.148438,-0.5507813 -0.972656,0 -1.722656,0.8554688 -1.722656,1.8632813 0,1.01953125 0.796875,1.875 1.851562,1.875 0.457032,0 0.9375,-0.140625 1.335938,-0.38671875 z M 37.218141,-2.2261563 c 0.1875,-0.6328125 0.65625,-0.9023437 1.054687,-0.9023437 0.351563,0 0.867188,0.1640625 1.019531,0.9023437 z m 6.284179,1.35937505 c -0.398437,0.2578125 -0.832031,0.3984375 -1.324218,0.3984375 -0.738282,0 -1.160157,-0.58593755 -1.160157,-1.31250005 0,-0.609375 0.316407,-1.3242187 1.183594,-1.3242187 0.539063,0 0.796875,0.1054687 1.207031,0.3632812 L 43.50232,-3.316 c -0.46875,-0.234375 -0.679687,-0.3398438 -1.300781,-0.3398438 -1.195312,0 -1.886719,0.9609375 -1.886719,1.8867188 0,0.97265625 0.773438,1.8515625 1.851563,1.8515625 0.5625,0 1.042969,-0.1640625 1.382812,-0.36328125 z M 45.295289,-3.03475 h 1.171875 v -0.5039063 h -1.171875 v -1.0078125 h -0.621094 v 1.0078125 H 43.959352 V -3.03475 h 0.691406 v 2.015625 c 0,0.5390625 0.140625,1.1015625 0.714844,1.1015625 0.574218,0 1.007812,-0.1875 1.253906,-0.29296875 l -0.140625,-0.515625 c -0.257813,0.1875 -0.539063,0.2578125 -0.761719,0.2578125 -0.339844,0 -0.421875,-0.328125 -0.421875,-0.69140625 z m 5.542969,1.2890625 c 0,-1.0546875 -0.832031,-1.9101563 -1.875,-1.9101563 -1.03125,0 -1.875,0.8671875 -1.875,1.9101563 0,1.0078125 0.84375,1.828125 1.875,1.828125 1.042969,0 1.875,-0.8203125 1.875,-1.828125 z m -1.875,1.27734375 c -0.632813,0 -1.171875,-0.46875 -1.171875,-1.35937505 0,-0.9023437 0.585937,-1.3007812 1.171875,-1.3007812 0.597656,0 1.183594,0.4101562 1.183594,1.3007812 0,0.9023438 -0.5625,1.35937505 -1.183594,1.35937505 z m 3.234375,-1.23046875 c 0,-0.8554688 0.714844,-1.3242188 1.417969,-1.3242188 v -0.5976562 c -0.667969,0.011719 -1.160157,0.3398437 -1.476563,0.7617187 V -3.59725 H 51.529664 V 4.0625e-4 h 0.667969 z m 0,0"
       style="fill:#000000;fill-opacity:1;fill-rule:nonzero;stroke:none"
       aria-label="VGAconnector"
       transform="matrix(1.3333333,0,0,1.3333333,103.868,152.92133)" />
    <path
       id="path35"
       d="m 59.34624,-59.01466 h 84.68474 V 25.67008 H 59.34624 Z"
       style="fill:none;stroke:#000000;stroke-width:0.3985;stroke-linecap:butt;stroke-linejoin:miter;stroke-miterlimit:10;stroke-dasharray:none;stroke-opacity:1"
       transform="matrix(1.3333333,0,0,-1.3333333,138.99067,74.552)" />
    <path
       id="path36"
       d="M 3.2001719,-5.5311797 H 2.4267344 L 0.23532812,7.03125e-5 h 0.65625 L 1.5126719,-1.5819609 H 3.9384531 L 4.5595469,7.03125e-5 h 0.8320312 z m -0.46875,0.609375 1.0078125,2.8710938 H 1.7118906 Z m 3.7001953,-0.609375 V 7.03125e-5 h 2.2617187 c 1.4296871,0 2.5898441,-1.2070312125 2.5898441,-2.7187500125 0,-1.5585937 -1.171875,-2.8125 -2.5898441,-2.8125 z m 0.7734375,5.06250001 V -5.0624297 h 1.265625 c 1.1015625,0 2.0273433,0.8671875 2.0273433,2.3320313 0,1.4882812 -0.9726558,2.26171871 -2.0273433,2.26171871 z M 17.048805,-5.5311797 H 16.34568 l -0.996094,2.4492188 c -0.05859,0.1289062 -0.84375,2.0507812 -0.914063,2.44921871 h -0.01172 C 14.341773,-1.0311797 13.544898,-2.9647734 13.509742,-3.0468047 l -1.019531,-2.484375 h -0.84375 L 13.943336,7.03125e-5 h 0.808594 z m 2.094726,0.9140625 c 0.09375,0 0.1875,0 0.28125,0 h 1.007813 c -1.207032,1.1835938 -1.980469,2.8476563 -1.980469,4.69921876 h 0.75 c 0,-2.33203126 1.125,-4.00781246 1.839844,-4.74609376 v -0.5625 h -3.515625 v 0.609375 z m 4.822266,-0.7734375 h -0.175781 c -0.515625,0.46875 -1.171875,0.5039063 -1.640625,0.5273438 v 0.4921875 c 0.304687,0 0.703125,-0.023437 1.101562,-0.1757813 v 4.04296876 H 22.196266 V 7.03125e-5 h 2.835937 V -0.50383594 h -1.066406 z m 3.919922,4.78125001 c -0.09375,0 -0.1875,0 -0.28125,0 h -0.914063 l 1.242188,-1.08984371 c 0.140625,-0.1289063 0.527343,-0.421875 0.679687,-0.5507813 0.351563,-0.3164062 0.820313,-0.7265625 0.820313,-1.4179687 0,-0.9023438 -0.667969,-1.7226563 -1.804688,-1.7226563 -0.84375,0 -1.371094,0.4453125 -1.640625,1.265625 l 0.375,0.46875 c 0.1875,-0.6679687 0.457031,-1.1835937 1.148438,-1.1835937 0.679687,0 1.183593,0.46875 1.183593,1.1835937 0,0.65625 -0.386718,1.03125 -0.867187,1.4882813 -0.164063,0.1640625 -0.585938,0.515625 -0.761719,0.6796875 -0.222656,0.2109375 -0.773437,0.73828121 -1.007812,0.93749996 V 7.03125e-5 h 3.375 V -0.60930469 Z m 2.783203,-3.48046871 c 0.328125,-0.6328125 0.902344,-0.8085938 1.277344,-0.8085938 0.480468,0 0.832031,0.2695313 0.832031,0.7265625 0,0.421875 -0.292969,0.9375 -0.902344,1.0429688 -0.03516,0 -0.07031,0 -0.597656,0.046875 v 0.5273437 h 0.621094 c 0.761718,0 1.042968,0.5976563 1.042968,1.1015625 0,0.62109376 -0.386718,1.08984376 -1.007812,1.08984376 -0.5625,0 -1.207031,-0.26953125 -1.605469,-0.77343746 l -0.105469,0.51562496 c 0.457032,0.515625 1.101563,0.78515625 1.722657,0.78515625 1.054687,0 1.792968,-0.7734375 1.792968,-1.61718751 0,-0.65625 -0.515625,-1.171875 -1.148437,-1.359375 0.609375,-0.3164062 0.914062,-0.84375 0.914062,-1.359375 0,-0.6796875 -0.691406,-1.21875 -1.546875,-1.21875 -0.703125,0 -1.277343,0.3632813 -1.617187,0.84375 z M 9.4902109,3.9346406 v 5.53125 H 11.75193 c 1.429687,0 2.589843,-1.2070312 2.589843,-2.71875 0,-1.5585937 -1.171875,-2.8125 -2.589843,-2.8125 z m 0.7734371,5.0625 v -4.59375 h 1.265625 c 1.101563,0 2.027344,0.8671875 2.027344,2.3320313 0,1.4882812 -0.972656,2.2617187 -2.027344,2.2617187 z m 7.517579,-5.0625 h -0.773438 l -2.191406,5.53125 h 0.65625 l 0.621094,-1.5820312 h 2.425781 l 0.621094,1.5820312 h 0.832031 z m -0.46875,0.609375 1.007812,2.8710938 h -2.027344 z m 7.617187,3.9492188 c -0.5625,0.3398437 -0.808594,0.4921875 -1.605469,0.4921875 -1.242187,0 -1.992187,-1.1484375 -1.992187,-2.296875 0,-1.1835938 0.820312,-2.2851563 1.992187,-2.2851563 0.515625,0 1.066407,0.1640625 1.429688,0.4453125 l 0.128906,-0.7265625 c -0.5625,-0.2109375 -1.007812,-0.2695312 -1.582031,-0.2695312 -1.582031,0 -2.765625,1.3007812 -2.765625,2.8359375 0,1.640625 1.253906,2.859375 2.8125,2.859375 0.773437,0 1.101562,-0.1640625 1.628906,-0.4453125 z m 0,0"
       style="fill:#000000;fill-opacity:1;fill-rule:nonzero;stroke:none"
       aria-label="ADV7123&#10;DAC"
       transform="matrix(1.3333333,0,0,1.3333333,251.83467,92.996)" />
    <path
       id="path37"
       d="m 212.17729,-59.01466 h 84.68474 v 84.68474 h -84.68474 z"
       style="fill:none;stroke:#000000;stroke-width:0.3985;stroke-linecap:butt;stroke-linejoin:miter;stroke-miterlimit:10;stroke-dasharray:none;stroke-opacity:1"
       transform="matrix(1.3333333,0,0,-1.3333333,138.99067,74.552)" />
    <path
       id="path38"
       d="M 4.1262813,-2.4956016 V -3.0229453 H 1.5833125 V -4.9565391 H 2.684875 c 0.09375,0 0.1875,0.011719 0.2929688,0.011719 h 1.5117187 v -0.5625 H 0.77471875 V 4.921875e-4 H 1.5833125 V -2.4956016 Z m 3.7060546,0.2226563 c 1.03125,0 1.9453125,-0.7265625 1.9453125,-1.640625 0,-0.8554688 -0.84375,-1.6171875 -2.0039062,-1.6171875 H 5.6292109 V 4.921875e-4 h 0.796875 V -2.2729453 Z M 7.5745234,-5.0620078 c 0.9023438,0 1.4765625,0.4804687 1.4765625,1.1484375 0,0.65625 -0.5390625,1.1484375 -1.4765625,1.1484375 h -1.171875 v -2.296875 z m 7.7519536,2.6835937 h -1.78125 v 0.5273438 h 1.078125 v 1.21874999 c -0.351563,0.0820313 -0.691407,0.15234375 -1.042969,0.15234375 -1.230469,0 -1.992188,-1.14843754 -1.992188,-2.29687504 0,-1.0898437 0.738282,-2.2851562 1.945313,-2.2851562 0.738281,0 1.195312,0.2226562 1.59375,0.5507812 l 0.128906,-0.7265625 c -0.550781,-0.2578125 -1.03125,-0.3867187 -1.640625,-0.3867187 -1.605469,0 -2.824219,1.2539062 -2.824219,2.8476562 0,1.5585938 1.207032,2.85937504 2.777344,2.85937504 0.574219,0 1.253906,-0.12890625 1.757813,-0.3984375 z m 3.770507,-3.1523437 H 18.323547 L 16.132141,4.921875e-4 h 0.65625 L 17.409484,-1.5815391 h 2.425782 l 0.621093,1.5820312875 h 0.832032 z m -0.46875,0.609375 1.007813,2.8710937 h -2.027344 z m 0,0"
       style="fill:#000000;fill-opacity:1;fill-rule:nonzero;stroke:none"
       aria-label="FPGA"
       transform="matrix(1.3333333,0,0,1.3333333,463.98267,100.472)" />
    <path
       id="path39"
       d="M 80.41779,25.86932 V 34.3378 H 0 V 8.94476"
       style="fill:none;stroke:#ff0000;stroke-width:1.19553;stroke-linecap:butt;stroke-linejoin:miter;stroke-miterlimit:10;stroke-dasharray:none;stroke-opacity:1"
       transform="matrix(1.3333333,0,0,-1.3333333,138.99067,74.552)" />
    <path
       id="path40"
       d="M 3.18808,0 -1.91284,2.55046 0,0 -1.91284,-2.55046"
       style="fill:#ff0000;fill-opacity:1;fill-rule:nonzero;stroke:none"
       transform="matrix(0,1.3333333,1.3333333,0,138.99067,62.625653)" />
    <path
       id="path41"
       d="M 101.6886,25.86932 V 42.80627 H -16.67229 V 8.94476"
       style="fill:none;stroke:#00ff00;stroke-width:1.19553;stroke-linecap:butt;stroke-linejoin:miter;stroke-miterlimit:10;stroke-dasharray:none;stroke-opacity:1"
       transform="matrix(1.3333333,0,0,-1.3333333,138.99067,74.552)" />
    <path
       id="path42"
       d="M 3.18808,0 -1.91284,2.55046 0,0 -1.91284,-2.55046"
       style="fill:#00ff00;fill-opacity:1;fill-rule:nonzero;stroke:none"
       transform="matrix(0,1.3333333,1.3333333,0,116.76095,62.625653)" />
    <path
       id="path43"
       d="M 122.9594,25.86932 V 51.27475 H -33.34459 V 8.94476"
       style="fill:none;stroke:#0000ff;stroke-width:1.19553;stroke-linecap:butt;stroke-linejoin:miter;stroke-miterlimit:10;stroke-dasharray:none;stroke-opacity:1"
       transform="matrix(1.3333333,0,0,-1.3333333,138.99067,74.552)" />
    <path
       id="path44"
       d="M 3.18808,0 -1.91284,2.55046 0,0 -1.91284,-2.55046"
       style="fill:#0000ff;fill-opacity:1;fill-rule:nonzero;stroke:none"
       transform="matrix(0,1.3333333,1.3333333,0,94.531213,62.625653)" />
    <path
       id="path45"
       d="M 211.97803,17.36047 H 146.22276"
       style="fill:none;stroke:#000000;stroke-width:0.3985;stroke-linecap:butt;stroke-linejoin:miter;stroke-miterlimit:10;stroke-dasharray:none;stroke-opacity:1"
       transform="matrix(1.3333333,0,0,-1.3333333,138.99067,74.552)" />
    <path
       id="path46"
       d="M 1.99252,0 -1.19551,1.59401 0,0 -1.19551,-1.59401"
       style="fill:#000000;fill-opacity:1;fill-rule:nonzero;stroke:none"
       transform="matrix(-1.3333333,0,0,1.3333333,333.95435,51.404707)" />
    <path
       id="path47"
       d="M 3.7719922,-3.5405156 H 3.1391797 c -1.0898438,2.67187498 -1.1367188,2.88281248 -1.171875,3.07031248 H 1.9555859 C 1.8969922,-0.78660937 1.6743359,-1.3373906 1.4282422,-1.9584844 L 0.78371094,-3.5405156 H 0.11574219 l 1.46484371,3.53906248 h 0.7382813 z m 4.1367187,-0.082031 c -0.1757812,0 -0.703125,0.011719 -1.3125,0.2460938 h -0.023437 c -0.28125,-0.1875 -0.5625,-0.2460938 -0.796875,-0.2460938 -0.7734375,0 -1.359375,0.6210938 -1.359375,1.3007813 0,0.28125 0.09375,0.5625 0.28125,0.7851562 -0.1171875,0.140625 -0.234375,0.3632813 -0.234375,0.66796878 0,0.3046875 0.1289063,0.50390625 0.1992188,0.609375 -0.4335938,0.24609375 -0.5273438,0.62109375 -0.5273438,0.80859375 0,0.60937497 0.84375,1.07812497 1.875,1.07812497 1.0429688,0 1.875,-0.46875 1.875,-1.07812497 0,-1.125 -1.3945312,-1.125 -1.734375,-1.125 H 5.4126172 c -0.1289063,0 -0.4804688,0 -0.4804688,-0.41015625 0,-0.16406248 0.058594,-0.24609378 0.070312,-0.25781248 0.28125,0.1757812 0.5507813,0.234375 0.7734375,0.234375 0.7734375,0 1.359375,-0.6210938 1.359375,-1.3007813 0,-0.2578125 -0.070312,-0.4921875 -0.2109375,-0.703125 -0.035156,-0.046875 -0.035156,-0.058594 -0.035156,-0.058594 0,-0.035156 0.4804687,-0.035156 0.515625,-0.035156 0.011719,0 0.3164062,0 0.5976562,0.035156 z m -2.1328125,2.109375 c -0.421875,0 -0.7382812,-0.2695312 -0.7382812,-0.796875 0,-0.6210937 0.3984375,-0.8203125 0.7382812,-0.8203125 0.4335938,0 0.75,0.28125 0.75,0.8085938 0,0.6210937 -0.3984375,0.8085937 -0.75,0.8085937 z m 0.375,1.55859378 c 0.1875,0 1.125,0 1.125,0.515625 0,0.33984375 -0.5976562,0.57421872 -1.265625,0.57421872 -0.6679687,0 -1.265625,-0.23437497 -1.265625,-0.57421872 0,-0.046875 0,-0.515625 0.6445313,-0.515625 z M 11.535664,-2.2983281 c 0,-0.8085938 -0.621094,-1.359375 -1.417969,-1.359375 -0.5039059,0 -0.8789059,0.1054687 -1.3242184,0.3398437 l 0.046875,0.5859375 c 0.2578125,-0.1757812 0.65625,-0.421875 1.2773434,-0.421875 0.351563,0 0.726563,0.2695313 0.726563,0.8671875 v 0.3164063 c -1.1835939,0.035156 -2.3437502,0.2929687 -2.3437502,1.03124998 0,0.3984375 0.2695313,1.01953125 0.9726563,1.01953125 0.3398437,0 0.9726559,-0.0703125 1.3945309,-0.38671875 v 0.3046875 h 0.667969 z m -0.691406,1.1601562 c 0,0.16406253 0,0.37500003 -0.28125,0.53906253 -0.257813,0.140625 -0.5742189,0.15234375 -0.6562502,0.15234375 -0.4335937,0 -0.7734375,-0.19921875 -0.7734375,-0.50390625 0,-0.50390623 1.3476567,-0.56250003 1.7109377,-0.57421873 z m 0,0"
       style="fill:#000000;fill-opacity:1;fill-rule:nonzero;stroke:none"
       aria-label="vga"
       transform="matrix(1.3333333,0,0,1.3333333,363.69333,48.416)" />
    <path
       id="path48"
       d="M 0,0 H 2.541"
       style="fill:none;stroke:#000000;stroke-width:0.398;stroke-linecap:butt;stroke-linejoin:miter;stroke-miterlimit:10;stroke-dasharray:none;stroke-opacity:1"
       transform="matrix(1.3333333,0,0,-1.3333333,380.64267,48.150667)" />
    <path
       id="path49"
       d="M 3.6918437,-5.5327031 H 3.023875 v 2.3320312 c -0.515625,-0.375 -1.03125,-0.421875 -1.265625,-0.421875 -0.83203125,0 -1.4765625,0.84375 -1.4765625,1.8515625 0,1.00781253 0.6328125,1.85156253 1.453125,1.85156253 0.4921875,0 0.9609375,-0.22265625 1.265625,-0.4921875 v 0.41015625 h 0.6914062 z m -0.6914062,4.54687498 c -0.1992188,0.328125 -0.5039063,0.5390625 -0.890625,0.5390625 -0.5507813,0 -1.125,-0.38671875 -1.125,-1.31249998 0,-0.9960938 0.6679687,-1.3359375 1.21875,-1.3359375 0.3164062,0 0.5859375,0.140625 0.796875,0.4101562 z M 7.7699687,-2.2983281 c 0,-0.8085938 -0.6210937,-1.359375 -1.4179687,-1.359375 -0.5039063,0 -0.8789063,0.1054687 -1.3242188,0.3398437 l 0.046875,0.5859375 c 0.2578125,-0.1757812 0.65625,-0.421875 1.2773438,-0.421875 0.3515625,0 0.7265625,0.2695313 0.7265625,0.8671875 v 0.3164063 c -1.1835938,0.035156 -2.34375,0.2929687 -2.34375,1.03124998 0,0.3984375 0.2695312,1.01953125 0.9726562,1.01953125 0.3398438,0 0.9726563,-0.0703125 1.3945313,-0.38671875 v 0.3046875 h 0.6679687 z m -0.6914062,1.1601562 c 0,0.16406253 0,0.37500003 -0.28125,0.53906253 -0.2578125,0.140625 -0.5742188,0.15234375 -0.65625,0.15234375 -0.4335938,0 -0.7734375,-0.19921875 -0.7734375,-0.50390625 0,-0.50390623 1.3476562,-0.56250003 1.7109375,-0.57421873 z m 4.8310545,0.26953128 c -0.398437,0.2578125 -0.832031,0.3984375 -1.324219,0.3984375 -0.7382808,0 -1.1601558,-0.58593748 -1.1601558,-1.31249998 0,-0.609375 0.3164062,-1.3242188 1.1835938,-1.3242188 0.539062,0 0.796875,0.1054688 1.207031,0.3632813 l 0.09375,-0.5742188 c -0.46875,-0.234375 -0.679687,-0.3398437 -1.300781,-0.3398437 -1.1953126,0 -1.8867188,0.9609375 -1.8867188,1.8867187 0,0.97265628 0.7734375,1.85156253 1.8515628,1.85156253 0.5625,0 1.042968,-0.1640625 1.382812,-0.36328125 z m 0,0"
       style="fill:#000000;fill-opacity:1;fill-rule:nonzero;stroke:none"
       aria-label="dac"
       transform="matrix(1.3333333,0,0,1.3333333,384.03067,48.416)" />
    <path
       id="path50"
       d="M 0,0 H 2.541"
       style="fill:none;stroke:#000000;stroke-width:0.398;stroke-linecap:butt;stroke-linejoin:miter;stroke-miterlimit:10;stroke-dasharray:none;stroke-opacity:1"
       transform="matrix(1.3333333,0,0,-1.3333333,400.98,48.150667)" />
    <path
       id="path51"
       d="m 3.4681406,-0.86864062 c -0.3984375,0.2578125 -0.8320312,0.3984375 -1.3242187,0.3984375 -0.7382813,0 -1.16015628,-0.58593748 -1.16015628,-1.31249998 0,-0.609375 0.31640628,-1.3242188 1.18359378,-1.3242188 0.5390625,0 0.796875,0.1054688 1.2070312,0.3632813 l 0.09375,-0.5742188 c -0.46875,-0.234375 -0.6796875,-0.3398437 -1.3007812,-0.3398437 -1.19531253,0 -1.88671878,0.9609375 -1.88671878,1.8867187 0,0.97265628 0.77343748,1.85156253 1.85156248,1.85156253 0.5625,0 1.0429688,-0.1640625 1.3828125,-0.36328125 z M 5.0999766,-5.5327031 H 4.4320078 v 5.53124998 H 5.0999766 Z M 8.1615,-2.1694219 9.5794687,-3.5405156 H 8.8060312 L 7.1068125,-1.8881719 V -5.5327031 H 6.4857187 v 5.53124998 H 7.0716562 V -1.1147344 l 0.6796875,-0.65625 1.3125,1.76953128 h 0.703125 z m 0,0"
       style="fill:#000000;fill-opacity:1;fill-rule:nonzero;stroke:none"
       aria-label="clk"
       transform="matrix(1.3333333,0,0,1.3333333,404.368,48.416)" />
    <path
       id="path52"
       d="M 211.97803,3.74686 H 146.22276"
       style="fill:none;stroke:#000000;stroke-width:0.3985;stroke-linecap:butt;stroke-linejoin:miter;stroke-miterlimit:10;stroke-dasharray:none;stroke-opacity:1"
       transform="matrix(1.3333333,0,0,-1.3333333,138.99067,74.552)" />
    <path
       id="path53"
       d="M 1.99252,0 -1.19551,1.59401 0,0 -1.19551,-1.59401"
       style="fill:#000000;fill-opacity:1;fill-rule:nonzero;stroke:none"
       transform="matrix(-1.3333333,0,0,1.3333333,333.95435,69.556187)" />
    <path
       id="path54"
       d="M 3.7722891,-3.5402578 H 3.1394766 c -1.0898438,2.67187499 -1.1367188,2.88281249 -1.171875,3.07031249 H 1.9558828 C 1.8972891,-0.78635156 1.6746328,-1.3371328 1.4285391,-1.9582266 L 0.78400781,-3.5402578 H 0.11603906 l 1.46484374,3.53906249 h 0.7382813 z m 4.1367187,-0.082031 c -0.1757812,0 -0.703125,0.011719 -1.3125,0.2460938 h -0.023437 c -0.28125,-0.1875 -0.5625,-0.2460938 -0.796875,-0.2460938 -0.7734375,0 -1.359375,0.6210938 -1.359375,1.3007813 0,0.28125 0.09375,0.5625 0.28125,0.7851562 -0.1171875,0.140625 -0.234375,0.3632813 -0.234375,0.66796879 0,0.3046875 0.1289063,0.50390625 0.1992188,0.609375 -0.4335938,0.24609375 -0.5273438,0.62109375 -0.5273438,0.80859375 0,0.60937496 0.84375,1.07812496 1.875,1.07812496 1.0429688,0 1.875,-0.46875 1.875,-1.07812496 0,-1.125 -1.3945312,-1.125 -1.734375,-1.125 H 5.4129141 c -0.1289063,0 -0.4804688,0 -0.4804688,-0.41015625 0,-0.16406249 0.058594,-0.24609379 0.070312,-0.25781249 0.28125,0.1757812 0.5507813,0.234375 0.7734375,0.234375 0.7734375,0 1.359375,-0.6210938 1.359375,-1.3007813 0,-0.2578125 -0.070312,-0.4921875 -0.2109375,-0.703125 -0.035156,-0.046875 -0.035156,-0.058594 -0.035156,-0.058594 0,-0.035156 0.4804687,-0.035156 0.515625,-0.035156 0.011719,0 0.3164062,0 0.5976562,0.035156 z m -2.1328125,2.109375 c -0.421875,0 -0.7382812,-0.2695312 -0.7382812,-0.796875 0,-0.6210937 0.3984375,-0.8203125 0.7382812,-0.8203125 0.4335938,0 0.75,0.28125 0.75,0.8085938 0,0.6210937 -0.3984375,0.8085937 -0.75,0.8085937 z m 0.375,1.55859379 c 0.1875,0 1.125,0 1.125,0.515625 0,0.33984375 -0.5976562,0.57421871 -1.265625,0.57421871 -0.6679687,0 -1.265625,-0.23437496 -1.265625,-0.57421871 0,-0.046875 0,-0.515625 0.6445313,-0.515625 z M 11.535961,-2.2980703 c 0,-0.8085938 -0.621094,-1.359375 -1.417969,-1.359375 -0.5039061,0 -0.8789061,0.1054687 -1.3242186,0.3398437 l 0.046875,0.5859375 c 0.2578125,-0.1757812 0.65625,-0.421875 1.2773436,-0.421875 0.351563,0 0.726563,0.2695313 0.726563,0.8671875 v 0.3164063 c -1.1835941,0.035156 -2.3437503,0.2929687 -2.3437503,1.03124999 0,0.3984375 0.2695312,1.01953125 0.9726562,1.01953125 0.3398438,0 0.9726561,-0.0703125 1.3945311,-0.38671875 v 0.3046875 h 0.667969 z m -0.691406,1.1601562 c 0,0.16406254 0,0.37500004 -0.28125,0.53906254 -0.257813,0.140625 -0.5742191,0.15234375 -0.6562503,0.15234375 -0.4335938,0 -0.7734375,-0.19921875 -0.7734375,-0.50390625 0,-0.50390624 1.3476558,-0.56250004 1.7109378,-0.57421874 z m 0,0"
       style="fill:#000000;fill-opacity:1;fill-rule:nonzero;stroke:none"
       aria-label="vga"
       transform="matrix(1.3333333,0,0,1.3333333,341.732,66.568)" />
    <path
       id="path55"
       d="M 0,0 H 2.541"
       style="fill:none;stroke:#000000;stroke-width:0.398;stroke-linecap:butt;stroke-linejoin:miter;stroke-miterlimit:10;stroke-dasharray:none;stroke-opacity:1"
       transform="matrix(1.3333333,0,0,-1.3333333,358.68133,66.302667)" />
    <path
       id="path56"
       d="M 3.6921406,-5.5324453 H 3.0241719 v 2.3320312 c -0.515625,-0.375 -1.03125,-0.421875 -1.265625,-0.421875 -0.83203128,0 -1.47656253,0.84375 -1.47656253,1.8515625 0,1.00781254 0.6328125,1.85156254 1.45312503,1.85156254 0.4921875,0 0.9609375,-0.22265625 1.265625,-0.4921875 v 0.41015625 h 0.6914062 z m -0.6914062,4.54687499 c -0.1992188,0.328125 -0.5039063,0.5390625 -0.890625,0.5390625 -0.5507813,0 -1.12500003,-0.38671875 -1.12500003,-1.31249999 0,-0.9960938 0.66796873,-1.3359375 1.21875003,-1.3359375 0.3164062,0 0.5859375,0.140625 0.796875,0.4101562 z M 7.7702656,-2.2980703 c 0,-0.8085938 -0.6210937,-1.359375 -1.4179687,-1.359375 -0.5039063,0 -0.8789063,0.1054687 -1.3242188,0.3398437 l 0.046875,0.5859375 c 0.2578125,-0.1757812 0.65625,-0.421875 1.2773438,-0.421875 0.3515625,0 0.7265625,0.2695313 0.7265625,0.8671875 v 0.3164063 c -1.1835938,0.035156 -2.34375,0.2929687 -2.34375,1.03124999 0,0.3984375 0.2695312,1.01953125 0.9726562,1.01953125 0.3398438,0 0.9726563,-0.0703125 1.3945313,-0.38671875 v 0.3046875 h 0.6679687 z m -0.6914062,1.1601562 c 0,0.16406254 0,0.37500004 -0.28125,0.53906254 -0.2578125,0.140625 -0.5742188,0.15234375 -0.65625,0.15234375 -0.4335938,0 -0.7734375,-0.19921875 -0.7734375,-0.50390625 0,-0.50390624 1.3476562,-0.56250004 1.7109375,-0.57421874 z m 4.8310546,0.26953129 c -0.398437,0.2578125 -0.832031,0.3984375 -1.324219,0.3984375 -0.7382809,0 -1.1601559,-0.58593749 -1.1601559,-1.31249999 0,-0.609375 0.3164062,-1.3242188 1.1835939,-1.3242188 0.539062,0 0.796875,0.1054688 1.207031,0.3632813 l 0.09375,-0.5742188 c -0.46875,-0.234375 -0.679687,-0.3398437 -1.300781,-0.3398437 -1.1953127,0 -1.8867189,0.9609375 -1.8867189,1.8867187 0,0.97265629 0.7734375,1.85156254 1.8515629,1.85156254 0.5625,0 1.042968,-0.1640625 1.382812,-0.36328125 z m 0,0"
       style="fill:#000000;fill-opacity:1;fill-rule:nonzero;stroke:none"
       aria-label="dac"
       transform="matrix(1.3333333,0,0,1.3333333,362.06933,66.568)" />
    <path
       id="path57"
       d="M 0,0 H 2.541"
       style="fill:none;stroke:#000000;stroke-width:0.398;stroke-linecap:butt;stroke-linejoin:miter;stroke-miterlimit:10;stroke-dasharray:none;stroke-opacity:1"
       transform="matrix(1.3333333,0,0,-1.3333333,379.01867,66.302667)" />
    <path
       id="path58"
       d="M 1.3473438,-5.5324453 H 0.679375 v 5.53124999 h 0.6914063 v -0.375 c 0.1757812,0.15234375 0.5625,0.45703125 1.1367187,0.45703125 0.8671875,0 1.5703125,-0.8203125 1.5703125,-1.86328124 0,-0.9609375 -0.5507812,-1.8398438 -1.3476562,-1.8398438 -0.5039063,0 -0.984375,0.1640625 -1.3828125,0.4570313 z m 0.023437,3.0234375 c 0,-0.1289063 0,-0.2226563 0.28125,-0.4101563 0.1171875,-0.070312 0.328125,-0.1757812 0.5976562,-0.1757812 0.5390625,0 1.1367188,0.3632812 1.1367188,1.3125 0,0.97265624 -0.65625,1.33593749 -1.21875,1.33593749 -0.2929688,0 -0.5742188,-0.140625 -0.796875,-0.4921875 z M 5.7096484,-5.5324453 H 5.0416797 v 5.53124999 h 0.6679687 z m 4.0810547,3.234375 c 0,-0.8085938 -0.6210937,-1.359375 -1.4179687,-1.359375 -0.5039063,0 -0.8789063,0.1054687 -1.3242188,0.3398437 l 0.046875,0.5859375 c 0.2578125,-0.1757812 0.65625,-0.421875 1.2773438,-0.421875 0.3515625,0 0.7265625,0.2695313 0.7265625,0.8671875 v 0.3164063 c -1.1835938,0.035156 -2.34375,0.2929687 -2.34375,1.03124999 0,0.3984375 0.2695312,1.01953125 0.9726562,1.01953125 0.3398438,0 0.9726563,-0.0703125 1.3945313,-0.38671875 v 0.3046875 h 0.6679687 z m -0.6914062,1.1601562 c 0,0.16406254 0,0.37500004 -0.28125,0.53906254 -0.2578125,0.140625 -0.5742188,0.15234375 -0.65625,0.15234375 -0.4335938,0 -0.7734375,-0.19921875 -0.7734375,-0.50390625 0,-0.50390624 1.3476562,-0.56250004 1.7109375,-0.57421874 z m 5.0654301,-1.21875 c 0,-0.6210937 -0.175782,-1.265625 -1.160157,-1.265625 -0.457031,0 -0.890625,0.1875 -1.242187,0.609375 v -0.5859375 h -0.644531 v 3.59765629 h 0.703125 V -1.9347891 c 0,-0.5273437 0.222656,-1.1601562 0.832031,-1.1601562 0.820312,0 0.820312,0.5625 0.820312,0.7851562 v 2.30859379 h 0.691407 z m 3.046875,0.1875 1.417968,-1.3710937 h -0.773437 l -1.699219,1.6523437 V -5.5324453 H 15.53582 v 5.53124999 h 0.585938 V -1.1144766 l 0.679687,-0.65625 1.3125,1.76953129 h 0.703125 z m 0,0"
       style="fill:#000000;fill-opacity:1;fill-rule:nonzero;stroke:none"
       aria-label="blank"
       transform="matrix(1.3333333,0,0,1.3333333,382.40667,66.568)" />
    <path
       id="path59"
       d="M 0,0 H 2.541"
       style="fill:none;stroke:#000000;stroke-width:0.398;stroke-linecap:butt;stroke-linejoin:miter;stroke-miterlimit:10;stroke-dasharray:none;stroke-opacity:1"
       transform="matrix(1.3333333,0,0,-1.3333333,408.37867,66.302667)" />
    <path
       id="path60"
       d="m 3.7033437,-2.3566641 c 0,-0.6210937 -0.1757812,-1.265625 -1.1601562,-1.265625 -0.4570313,0 -0.890625,0.1875 -1.2421875,0.609375 V -3.5988516 H 0.65646875 v 3.59765629 H 1.3595937 V -1.9347891 c 0,-0.5273437 0.2226563,-1.1601562 0.8320313,-1.1601562 0.8203125,0 0.8203125,0.5625 0.8203125,0.7851562 v 2.30859379 h 0.6914062 z m 0,0"
       style="fill:#000000;fill-opacity:1;fill-rule:nonzero;stroke:none"
       aria-label="n"
       transform="matrix(1.3333333,0,0,1.3333333,411.76533,66.568)" />
    <path
       id="path61"
       d="M 211.97803,-9.86678 H 146.22276"
       style="fill:none;stroke:#000000;stroke-width:0.3985;stroke-linecap:butt;stroke-linejoin:miter;stroke-miterlimit:10;stroke-dasharray:none;stroke-opacity:1"
       transform="matrix(1.3333333,0,0,-1.3333333,138.99067,74.552)" />
    <path
       id="path62"
       d="M 1.99252,0 -1.19551,1.59401 0,0 -1.19551,-1.59401"
       style="fill:#000000;fill-opacity:1;fill-rule:nonzero;stroke:none"
       transform="matrix(-1.3333333,0,0,1.3333333,333.95435,87.707707)" />
    <path
       id="path63"
       d="M 3.7747656,-3.539 H 3.1419531 c -1.0898437,2.671875 -1.1367187,2.8828125 -1.171875,3.0703125 H 1.9583594 C 1.8997656,-0.78509375 1.6771094,-1.335875 1.4310156,-1.9569687 L 0.78648437,-3.539 H 0.11851562 L 1.5833594,6.25e-5 h 0.7382812 z m 4.1337891,-0.082031 c -0.1757813,0 -0.703125,0.011719 -1.3125,0.2460937 h -0.023437 c -0.28125,-0.1875 -0.5625,-0.2460937 -0.796875,-0.2460937 -0.7734375,0 -1.359375,0.6210937 -1.359375,1.3007812 0,0.28125 0.09375,0.5625 0.28125,0.7851563 -0.1171875,0.140625 -0.234375,0.3632812 -0.234375,0.6679687 0,0.3046875 0.1289062,0.50390625 0.1992187,0.609375 -0.4335937,0.24609375 -0.5273437,0.62109375 -0.5273437,0.80859375 0,0.60937505 0.84375,1.07812505 1.875,1.07812505 1.0429687,0 1.875,-0.46875 1.875,-1.07812505 0,-1.125 -1.3945313,-1.125 -1.734375,-1.125 H 5.4124609 c -0.1289062,0 -0.4804687,0 -0.4804687,-0.41015625 0,-0.1640625 0.058594,-0.2460937 0.070312,-0.2578125 0.28125,0.1757813 0.5507812,0.234375 0.7734375,0.234375 0.7734375,0 1.359375,-0.6210937 1.359375,-1.3007812 0,-0.2578125 -0.070312,-0.4921875 -0.2109375,-0.703125 -0.035156,-0.046875 -0.035156,-0.058594 -0.035156,-0.058594 0,-0.035156 0.4804688,-0.035156 0.515625,-0.035156 0.011719,0 0.3164063,0 0.5976563,0.035156 z m -2.1328125,2.109375 c -0.421875,0 -0.7382813,-0.2695313 -0.7382813,-0.796875 0,-0.6210938 0.3984375,-0.8203125 0.7382813,-0.8203125 0.4335937,0 0.75,0.28125 0.75,0.8085937 0,0.6210938 -0.3984375,0.8085938 -0.75,0.8085938 z m 0.375,1.5585937 c 0.1875,0 1.125,0 1.125,0.515625 0,0.33984375 -0.5976563,0.5742188 -1.265625,0.5742188 -0.6679688,0 -1.265625,-0.23437505 -1.265625,-0.5742188 0,-0.046875 0,-0.515625 0.6445312,-0.515625 z m 5.3847658,-2.34375 c 0,-0.8085937 -0.621094,-1.359375 -1.417969,-1.359375 -0.5039062,0 -0.8789062,0.1054688 -1.3242187,0.3398438 l 0.046875,0.5859375 c 0.2578125,-0.1757813 0.65625,-0.421875 1.2773437,-0.421875 0.351563,0 0.726563,0.2695312 0.726563,0.8671875 v 0.3164062 c -1.1835942,0.035156 -2.3437504,0.2929688 -2.3437504,1.03125 0,0.3984375 0.2695312,1.01953125 0.9726562,1.01953125 0.3398438,0 0.9726562,-0.0703125 1.3945312,-0.38671875 V 6.25e-5 h 0.667969 z m -0.691406,1.1601563 c 0,0.16406245 0,0.37499995 -0.28125,0.53906245 -0.257813,0.140625 -0.5742192,0.15234375 -0.6562504,0.15234375 -0.4335938,0 -0.7734375,-0.19921875 -0.7734375,-0.50390625 0,-0.50390625 1.3476559,-0.56249995 1.7109379,-0.57421875 z m 0,0"
       style="fill:#000000;fill-opacity:1;fill-rule:nonzero;stroke:none"
       aria-label="vga"
       transform="matrix(1.3333333,0,0,1.3333333,346.64667,84.718667)" />
    <path
       id="path64"
       d="M 0,0 H 2.541"
       style="fill:none;stroke:#000000;stroke-width:0.398;stroke-linecap:butt;stroke-linejoin:miter;stroke-miterlimit:10;stroke-dasharray:none;stroke-opacity:1"
       transform="matrix(1.3333333,0,0,-1.3333333,363.59733,84.453333)" />
    <path
       id="path65"
       d="M 3.6916875,-5.5311875 H 3.0237188 v 2.3320313 c -0.515625,-0.375 -1.03125,-0.421875 -1.265625,-0.421875 -0.8320313,0 -1.47656255,0.84375 -1.47656255,1.8515625 0,1.00781245 0.6328125,1.85156245 1.45312505,1.85156245 0.4921875,0 0.9609375,-0.22265625 1.265625,-0.4921875 V 6.25e-5 h 0.6914062 z m -0.6914062,4.546875 C 2.8010625,-0.6561875 2.496375,-0.44525 2.1096563,-0.44525 c -0.5507813,0 -1.12500005,-0.38671875 -1.12500005,-1.3125 0,-0.9960937 0.66796875,-1.3359375 1.21875005,-1.3359375 0.3164062,0 0.5859375,0.140625 0.796875,0.4101563 z m 4.7695312,-1.3125 c 0,-0.8085937 -0.6210937,-1.359375 -1.4179687,-1.359375 -0.5039063,0 -0.8789063,0.1054688 -1.3242188,0.3398438 L 5.0745,-2.7304062 c 0.2578125,-0.1757813 0.65625,-0.421875 1.2773438,-0.421875 0.3515625,0 0.7265625,0.2695312 0.7265625,0.8671875 v 0.3164062 c -1.1835938,0.035156 -2.34375,0.2929688 -2.34375,1.03125 0,0.3984375 0.2695312,1.01953125 0.9726562,1.01953125 0.3398438,0 0.9726563,-0.0703125 1.3945313,-0.38671875 V 6.25e-5 h 0.6679687 z m -0.6914062,1.1601563 c 0,0.16406245 0,0.37499995 -0.28125,0.53906245 -0.2578125,0.140625 -0.5742188,0.15234375 -0.65625,0.15234375 -0.4335938,0 -0.7734375,-0.19921875 -0.7734375,-0.50390625 0,-0.50390625 1.3476562,-0.56249995 1.7109375,-0.57421875 z m 4.8310547,0.2695312 c -0.398438,0.2578125 -0.832031,0.3984375 -1.324219,0.3984375 -0.7382811,0 -1.1601561,-0.5859375 -1.1601561,-1.3125 0,-0.609375 0.3164063,-1.3242187 1.1835941,-1.3242187 0.539062,0 0.796875,0.1054687 1.207031,0.3632812 l 0.09375,-0.5742187 c -0.46875,-0.234375 -0.679688,-0.3398438 -1.300781,-0.3398438 -1.1953128,0 -1.8867191,0.9609375 -1.8867191,1.8867188 0,0.9726562 0.7734375,1.85156245 1.8515621,1.85156245 0.5625,0 1.042969,-0.1640625 1.382813,-0.36328125 z m 0,0"
       style="fill:#000000;fill-opacity:1;fill-rule:nonzero;stroke:none"
       aria-label="dac"
       transform="matrix(1.3333333,0,0,1.3333333,366.984,84.718667)" />
    <path
       id="path66"
       d="M 0,0 H 2.541"
       style="fill:none;stroke:#000000;stroke-width:0.398;stroke-linecap:butt;stroke-linejoin:miter;stroke-miterlimit:10;stroke-dasharray:none;stroke-opacity:1"
       transform="matrix(1.3333333,0,0,-1.3333333,383.93467,84.453333)" />
    <path
       id="path67"
       d="m 2.9054844,-3.4100937 c -0.5390625,-0.2226563 -0.9375,-0.2460938 -1.2304688,-0.2460938 -0.1992187,0 -1.39453122,0 -1.39453122,1.0546875 0,0.375 0.19921875,0.5859375 0.3046875,0.6796875 0.28125,0.28125 0.62109372,0.3398438 1.04296872,0.421875 0.375,0.070312 0.796875,0.1523438 0.796875,0.5390625 0,0.50390625 -0.65625,0.50390625 -0.7734375,0.50390625 -0.5039062,0 -0.98437497,-0.1875 -1.30078122,-0.41015625 l -0.1171875,0.59765625 c 0.28125,0.12890625 0.76171875,0.3515625 1.41796872,0.3515625 0.3632813,0 0.7148438,-0.05859375 1.0078125,-0.26953125 0.2929688,-0.22265625 0.3867188,-0.57421875 0.3867188,-0.84375 0,-0.1523437 -0.011719,-0.4570312 -0.3398438,-0.7617187 C 2.4015781,-2.0507187 2.1203281,-2.1093125 1.7336094,-2.179625 1.2648594,-2.273375 0.90157813,-2.3436875 0.90157813,-2.69525 c 0,-0.4570312 0.57421877,-0.4570312 0.70312497,-0.4570312 0.4453125,0 0.796875,0.1054687 1.1953125,0.3046875 z M 7.0187656,-3.539 H 6.3742344 c -0.6445313,1.5234375 -1.0898438,2.5546875 -1.125,3.03515625 C 5.2375156,-0.7265 5.0968906,-1.1249375 4.9562656,-1.4999375 4.8273594,-1.8163437 4.6984531,-2.13275 4.5578281,-2.4491562 L 4.0539219,-3.539 H 3.3625156 L 5.0148594,6.25e-5 C 4.9211094,0.2344375 4.7570469,0.59771875 4.7101719,0.7031875 4.5461094,1.0313125 4.4289219,1.1485 4.2179844,1.1485 c -0.035156,0 -0.328125,0 -0.6679688,-0.140625 l 0.046875,0.5507813 c 0.070312,0.023437 0.3632813,0.070312 0.609375,0.070312 0.3164063,0 0.609375,-0.1171875 0.9492188,-0.89062505 z m 3.8320314,1.1835938 c 0,-0.6210938 -0.175781,-1.265625 -1.1601564,-1.265625 -0.4570312,0 -0.890625,0.1875 -1.2421875,0.609375 V -3.5975937 H 7.8039219 V 6.25e-5 h 0.703125 v -1.9335937 c 0,-0.5273438 0.2226562,-1.1601563 0.8320312,-1.1601563 0.8203129,0 0.8203129,0.5625 0.8203129,0.7851563 V 6.25e-5 h 0.691406 z m 4.139648,1.4882812 c -0.398437,0.2578125 -0.832031,0.3984375 -1.324218,0.3984375 -0.738282,0 -1.160157,-0.5859375 -1.160157,-1.3125 0,-0.609375 0.316407,-1.3242187 1.183594,-1.3242187 0.539063,0 0.796875,0.1054687 1.207031,0.3632812 l 0.09375,-0.5742187 c -0.46875,-0.234375 -0.679687,-0.3398438 -1.300781,-0.3398438 -1.195312,0 -1.886719,0.9609375 -1.886719,1.8867188 0,0.9726562 0.773438,1.85156245 1.851563,1.85156245 0.5625,0 1.042969,-0.1640625 1.382812,-0.36328125 z m 0,0"
       style="fill:#000000;fill-opacity:1;fill-rule:nonzero;stroke:none"
       aria-label="sync"
       transform="matrix(1.3333333,0,0,1.3333333,387.32133,84.718667)" />
    <path
       id="path68"
       d="M 0,0 H 2.541"
       style="fill:none;stroke:#000000;stroke-width:0.398;stroke-linecap:butt;stroke-linejoin:miter;stroke-miterlimit:10;stroke-dasharray:none;stroke-opacity:1"
       transform="matrix(1.3333333,0,0,-1.3333333,408.37867,84.453333)" />
    <path
       id="path69"
       d="m 3.7033437,-2.3554062 c 0,-0.6210938 -0.1757812,-1.265625 -1.1601562,-1.265625 -0.4570313,0 -0.890625,0.1875 -1.2421875,0.609375 V -3.5975937 H 0.65646875 V 6.25e-5 H 1.3595937 v -1.9335937 c 0,-0.5273438 0.2226563,-1.1601563 0.8320313,-1.1601563 0.8203125,0 0.8203125,0.5625 0.8203125,0.7851563 V 6.25e-5 h 0.6914062 z m 0,0"
       style="fill:#000000;fill-opacity:1;fill-rule:nonzero;stroke:none"
       aria-label="n"
       transform="matrix(1.3333333,0,0,1.3333333,411.76533,84.718667)" />
    <path
       id="path70"
       d="M 211.97803,-23.48041 H 146.22276"
       style="fill:none;stroke:#000000;stroke-width:0.3985;stroke-linecap:butt;stroke-linejoin:miter;stroke-miterlimit:10;stroke-dasharray:none;stroke-opacity:1"
       transform="matrix(1.3333333,0,0,-1.3333333,138.99067,74.552)" />
    <path
       id="path71"
       d="M 1.99252,0 -1.19551,1.59401 0,0 -1.19551,-1.59401"
       style="fill:#000000;fill-opacity:1;fill-rule:nonzero;stroke:none"
       transform="matrix(-1.3333333,0,0,1.3333333,333.95435,105.85921)" />
    <path
       id="path72"
       d="M 3.7742422,-3.5387422 H 3.1414297 c -1.0898438,2.67187501 -1.1367188,2.88281251 -1.171875,3.07031251 H 1.9578359 C 1.8992422,-0.78483594 1.6765859,-1.3356172 1.4304922,-1.9567109 L 0.78596094,-3.5387422 H 0.11799219 L 1.5828359,3.203125e-4 h 0.7382813 z m 4.1367187,-0.082031 c -0.1757812,0 -0.703125,0.011719 -1.3125,0.2460937 h -0.023437 c -0.28125,-0.1875 -0.5625,-0.2460937 -0.796875,-0.2460937 -0.7734375,0 -1.359375,0.6210937 -1.359375,1.3007812 0,0.28125 0.09375,0.5625 0.28125,0.7851563 -0.1171875,0.140625 -0.234375,0.3632812 -0.234375,0.66796871 0,0.3046875 0.1289063,0.50390625 0.1992188,0.609375 -0.4335938,0.24609375 -0.5273438,0.62109375 -0.5273438,0.80859375 0,0.60937504 0.84375,1.07812504 1.875,1.07812504 1.0429688,0 1.875,-0.46875 1.875,-1.07812504 0,-1.125 -1.3945312,-1.125 -1.734375,-1.125 H 5.4148672 c -0.1289063,0 -0.4804688,0 -0.4804688,-0.41015625 0,-0.16406251 0.058594,-0.24609371 0.070312,-0.25781251 0.28125,0.1757813 0.5507813,0.234375 0.7734375,0.234375 0.7734375,0 1.359375,-0.6210937 1.359375,-1.3007812 0,-0.2578125 -0.070312,-0.4921875 -0.2109375,-0.703125 -0.035156,-0.046875 -0.035156,-0.058594 -0.035156,-0.058594 0,-0.035156 0.4804687,-0.035156 0.515625,-0.035156 0.011719,0 0.3164062,0 0.5976562,0.035156 z m -2.1328125,2.109375 c -0.421875,0 -0.7382812,-0.2695313 -0.7382812,-0.796875 0,-0.6210938 0.3984375,-0.8203125 0.7382812,-0.8203125 0.4335938,0 0.75,0.28125 0.75,0.8085937 0,0.6210938 -0.3984375,0.8085938 -0.75,0.8085938 z m 0.375,1.55859371 c 0.1875,0 1.125,0 1.125,0.515625 0,0.33984375 -0.5976562,0.57421879 -1.265625,0.57421879 -0.6679687,0 -1.265625,-0.23437504 -1.265625,-0.57421879 0,-0.046875 0,-0.515625 0.6445313,-0.515625 z M 11.534984,-2.2965547 c 0,-0.8085937 -0.621093,-1.359375 -1.417968,-1.359375 -0.5039066,0 -0.8789066,0.1054688 -1.3242191,0.3398438 l 0.046875,0.5859375 c 0.2578125,-0.1757813 0.65625,-0.421875 1.2773441,-0.421875 0.351562,0 0.726562,0.2695312 0.726562,0.8671875 v 0.3164062 c -1.1835936,0.035156 -2.3437499,0.2929688 -2.3437499,1.03125001 0,0.3984375 0.2695313,1.01953125 0.9726563,1.01953125 0.3398437,0 0.9726566,-0.0703125 1.3945316,-0.38671875 V 3.203125e-4 h 0.667968 z m -0.691406,1.1601563 c 0,0.16406246 0,0.37499996 -0.28125,0.53906246 -0.257812,0.140625 -0.5742186,0.15234375 -0.6562499,0.15234375 -0.4335937,0 -0.7734375,-0.19921875 -0.7734375,-0.50390625 0,-0.50390626 1.3476564,-0.56249996 1.7109374,-0.57421876 z m 0,0"
       style="fill:#000000;fill-opacity:1;fill-rule:nonzero;stroke:none"
       aria-label="vga"
       transform="matrix(1.3333333,0,0,1.3333333,373.06533,102.87067)" />
    <path
       id="path73"
       d="M 0,0 H 2.541"
       style="fill:none;stroke:#000000;stroke-width:0.398;stroke-linecap:butt;stroke-linejoin:miter;stroke-miterlimit:10;stroke-dasharray:none;stroke-opacity:1"
       transform="matrix(1.3333333,0,0,-1.3333333,390.01467,102.60533)" />
    <path
       id="path74"
       d="M 3.6911641,-5.5309297 H 3.0231953 v 2.3320313 c -0.515625,-0.375 -1.03125,-0.421875 -1.265625,-0.421875 -0.83203124,0 -1.47656249,0.84375 -1.47656249,1.8515625 0,1.00781246 0.6328125,1.85156246 1.45312499,1.85156246 0.4921875,0 0.9609375,-0.22265625 1.265625,-0.4921875 V 3.203125e-4 h 0.6914063 z m -0.6914063,4.54687501 c -0.1992187,0.328125 -0.5039062,0.5390625 -0.890625,0.5390625 -0.5507812,0 -1.12499999,-0.38671875 -1.12499999,-1.31250001 0,-0.9960937 0.66796879,-1.3359375 1.21874999,-1.3359375 0.3164063,0 0.5859375,0.140625 0.796875,0.4101563 z M 7.7722187,-2.2965547 c 0,-0.8085937 -0.6210937,-1.359375 -1.4179687,-1.359375 -0.5039063,0 -0.8789063,0.1054688 -1.3242188,0.3398438 l 0.046875,0.5859375 c 0.2578125,-0.1757813 0.65625,-0.421875 1.2773438,-0.421875 0.3515625,0 0.7265625,0.2695312 0.7265625,0.8671875 v 0.3164062 c -1.1835938,0.035156 -2.34375,0.2929688 -2.34375,1.03125001 0,0.3984375 0.2695312,1.01953125 0.9726562,1.01953125 0.3398438,0 0.9726563,-0.0703125 1.3945313,-0.38671875 V 3.203125e-4 h 0.6679687 z m -0.6914062,1.1601563 c 0,0.16406246 0,0.37499996 -0.28125,0.53906246 -0.2578125,0.140625 -0.5742188,0.15234375 -0.65625,0.15234375 -0.4335938,0 -0.7734375,-0.19921875 -0.7734375,-0.50390625 0,-0.50390626 1.3476562,-0.56249996 1.7109375,-0.57421876 z m 4.8281245,0.26953121 c -0.398437,0.2578125 -0.832031,0.3984375 -1.324218,0.3984375 -0.7382815,0 -1.1601565,-0.58593751 -1.1601565,-1.31250001 0,-0.609375 0.3164062,-1.3242187 1.1835935,-1.3242187 0.539063,0 0.796875,0.1054687 1.207031,0.3632812 l 0.09375,-0.5742187 c -0.46875,-0.234375 -0.679687,-0.3398438 -1.300781,-0.3398438 -1.1953123,0 -1.8867185,0.9609375 -1.8867185,1.8867188 0,0.97265621 0.7734375,1.85156246 1.8515625,1.85156246 0.5625,0 1.042969,-0.1640625 1.382812,-0.36328125 z m 0,0"
       style="fill:#000000;fill-opacity:1;fill-rule:nonzero;stroke:none"
       aria-label="dac"
       transform="matrix(1.3333333,0,0,1.3333333,393.40267,102.87067)" />
    <path
       id="path75"
       d="M 0,0 H 2.541"
       style="fill:none;stroke:#000000;stroke-width:0.398;stroke-linecap:butt;stroke-linejoin:miter;stroke-miterlimit:10;stroke-dasharray:none;stroke-opacity:1"
       transform="matrix(1.3333333,0,0,-1.3333333,410.352,102.60533)" />
    <path
       id="path76"
       d="m 1.3463672,-1.6988984 c 0,-0.8554688 0.7148437,-1.3242188 1.4179687,-1.3242188 v -0.5976562 c -0.6679687,0.011719 -1.1601562,0.3398437 -1.4765625,0.7617187 V -3.5973359 H 0.67839844 V 3.203125e-4 H 1.3463672 Z m 0,0"
       style="fill:#000000;fill-opacity:1;fill-rule:nonzero;stroke:none"
       aria-label="r"
       transform="matrix(1.3333333,0,0,1.3333333,413.74,102.87067)" />
    <path
       id="path77"
       d="M 211.97803,-37.09404 H 146.22276"
       style="fill:none;stroke:#000000;stroke-width:0.3985;stroke-linecap:butt;stroke-linejoin:miter;stroke-miterlimit:10;stroke-dasharray:none;stroke-opacity:1"
       transform="matrix(1.3333333,0,0,-1.3333333,138.99067,74.552)" />
    <path
       id="path78"
       d="M 1.99252,0 -1.19551,1.59401 0,0 -1.19551,-1.59401"
       style="fill:#000000;fill-opacity:1;fill-rule:nonzero;stroke:none"
       transform="matrix(-1.3333333,0,0,1.3333333,333.95435,124.01072)" />
    <path
       id="path79"
       d="M 3.7744453,-3.5404141 H 3.1416328 c -1.0898437,2.67187504 -1.1367187,2.88281254 -1.171875,3.07031254 H 1.9580391 C 1.8994453,-0.78650781 1.6767891,-1.3372891 1.4306953,-1.9583828 L 0.78616406,-3.5404141 H 0.11819531 l 1.46484379,3.53906254 h 0.7382812 z m 4.1367188,-0.082031 c -0.1757813,0 -0.703125,0.011719 -1.3125,0.2460937 h -0.023437 c -0.28125,-0.1875 -0.5625,-0.2460937 -0.796875,-0.2460937 -0.7734375,0 -1.359375,0.6210937 -1.359375,1.3007812 0,0.28125 0.09375,0.5625 0.28125,0.7851563 -0.1171875,0.140625 -0.234375,0.3632812 -0.234375,0.66796874 0,0.3046875 0.1289062,0.50390625 0.1992187,0.609375 -0.4335937,0.24609375 -0.5273437,0.62109375 -0.5273437,0.80859375 0,0.60937501 0.84375,1.07812501 1.875,1.07812501 1.0429687,0 1.875,-0.46875 1.875,-1.07812501 0,-1.125 -1.3945313,-1.125 -1.734375,-1.125 H 5.4150703 c -0.1289062,0 -0.4804687,0 -0.4804687,-0.41015625 0,-0.16406254 0.058594,-0.24609374 0.070312,-0.25781254 0.28125,0.1757813 0.5507812,0.234375 0.7734375,0.234375 0.7734375,0 1.359375,-0.6210937 1.359375,-1.3007812 0,-0.2578125 -0.070312,-0.4921875 -0.2109375,-0.703125 -0.035156,-0.046875 -0.035156,-0.058594 -0.035156,-0.058594 0,-0.035156 0.4804688,-0.035156 0.515625,-0.035156 0.011719,0 0.3164063,0 0.5976563,0.035156 z m -2.1328125,2.109375 c -0.421875,0 -0.7382813,-0.2695313 -0.7382813,-0.796875 0,-0.6210938 0.3984375,-0.8203125 0.7382813,-0.8203125 0.4335937,0 0.75,0.28125 0.75,0.8085937 0,0.6210938 -0.3984375,0.8085938 -0.75,0.8085938 z m 0.375,1.55859374 c 0.1875,0 1.125,0 1.125,0.515625 0,0.33984375 -0.5976563,0.57421876 -1.265625,0.57421876 -0.6679688,0 -1.265625,-0.23437501 -1.265625,-0.57421876 0,-0.046875 0,-0.515625 0.6445312,-0.515625 z M 11.535188,-2.2982266 c 0,-0.8085937 -0.621094,-1.359375 -1.417969,-1.359375 -0.5039065,0 -0.8789065,0.1054688 -1.324219,0.3398438 l 0.046875,0.5859375 c 0.2578125,-0.1757813 0.65625,-0.421875 1.277344,-0.421875 0.351562,0 0.726562,0.2695312 0.726562,0.8671875 v 0.3164062 c -1.1835935,0.035156 -2.3437497,0.2929688 -2.3437497,1.03125004 0,0.3984375 0.2695312,1.01953125 0.9726562,1.01953125 0.3398438,0 0.9726565,-0.0703125 1.3945315,-0.38671875 v 0.3046875 h 0.667969 z m -0.691407,1.1601563 c 0,0.16406249 0,0.37499999 -0.28125,0.53906249 -0.257812,0.140625 -0.5742185,0.15234375 -0.6562497,0.15234375 -0.4335938,0 -0.7734375,-0.19921875 -0.7734375,-0.50390625 0,-0.50390629 1.3476562,-0.56249999 1.7109372,-0.57421879 z m 0,0"
       style="fill:#000000;fill-opacity:1;fill-rule:nonzero;stroke:none"
       aria-label="vga"
       transform="matrix(1.3333333,0,0,1.3333333,371.276,121.02133)" />
    <path
       id="path80"
       d="M 0,0 H 2.541"
       style="fill:none;stroke:#000000;stroke-width:0.398;stroke-linecap:butt;stroke-linejoin:miter;stroke-miterlimit:10;stroke-dasharray:none;stroke-opacity:1"
       transform="matrix(1.3333333,0,0,-1.3333333,388.22533,120.756)" />
    <path
       id="path81"
       d="M 3.6913672,-5.5326016 H 3.0233984 v 2.3320313 c -0.515625,-0.375 -1.03125,-0.421875 -1.265625,-0.421875 -0.83203121,0 -1.47656246,0.84375 -1.47656246,1.8515625 0,1.00781249 0.6328125,1.85156249 1.45312496,1.85156249 0.4921875,0 0.9609375,-0.22265625 1.265625,-0.4921875 v 0.41015625 h 0.6914063 z m -0.6914063,4.54687504 c -0.1992187,0.328125 -0.5039062,0.5390625 -0.890625,0.5390625 -0.5507812,0 -1.12499996,-0.38671875 -1.12499996,-1.31250004 0,-0.9960937 0.66796876,-1.3359375 1.21874996,-1.3359375 0.3164063,0 0.5859375,0.140625 0.796875,0.4101563 z M 7.7694922,-2.2982266 c 0,-0.8085937 -0.6210938,-1.359375 -1.4179688,-1.359375 -0.5039062,0 -0.8789062,0.1054688 -1.3242187,0.3398438 l 0.046875,0.5859375 c 0.2578125,-0.1757813 0.65625,-0.421875 1.2773437,-0.421875 0.3515625,0 0.7265625,0.2695312 0.7265625,0.8671875 v 0.3164062 c -1.1835937,0.035156 -2.34375,0.2929688 -2.34375,1.03125004 0,0.3984375 0.2695313,1.01953125 0.9726563,1.01953125 0.3398437,0 0.9726562,-0.0703125 1.3945312,-0.38671875 v 0.3046875 h 0.6679688 z m -0.6914063,1.1601563 c 0,0.16406249 0,0.37499999 -0.28125,0.53906249 -0.2578125,0.140625 -0.5742187,0.15234375 -0.65625,0.15234375 -0.4335937,0 -0.7734375,-0.19921875 -0.7734375,-0.50390625 0,-0.50390629 1.3476563,-0.56249999 1.7109375,-0.57421879 z m 4.8310551,0.26953124 c -0.398438,0.2578125 -0.832032,0.3984375 -1.324219,0.3984375 -0.7382814,0 -1.1601564,-0.58593754 -1.1601564,-1.31250004 0,-0.609375 0.3164063,-1.3242187 1.1835934,-1.3242187 0.539063,0 0.796875,0.1054687 1.207032,0.3632812 l 0.09375,-0.5742187 c -0.46875,-0.234375 -0.679688,-0.3398438 -1.300782,-0.3398438 -1.1953121,0 -1.8867184,0.9609375 -1.8867184,1.8867188 0,0.97265624 0.7734375,1.85156249 1.8515624,1.85156249 0.5625,0 1.042969,-0.1640625 1.382813,-0.36328125 z m 0,0"
       style="fill:#000000;fill-opacity:1;fill-rule:nonzero;stroke:none"
       aria-label="dac"
       transform="matrix(1.3333333,0,0,1.3333333,391.61333,121.02133)" />
    <path
       id="path82"
       d="M 0,0 H 2.541"
       style="fill:none;stroke:#000000;stroke-width:0.398;stroke-linecap:butt;stroke-linejoin:miter;stroke-miterlimit:10;stroke-dasharray:none;stroke-opacity:1"
       transform="matrix(1.3333333,0,0,-1.3333333,408.56267,120.756)" />
    <path
       id="path83"
       d="m 4.0067266,-3.6224453 c -0.1757813,0 -0.703125,0.011719 -1.3125,0.2460937 h -0.023437 c -0.28125,-0.1875 -0.5625,-0.2460937 -0.796875,-0.2460937 -0.7734375,0 -1.35937504,0.6210937 -1.35937504,1.3007812 0,0.28125 0.09375,0.5625 0.28125,0.7851563 -0.1171875,0.140625 -0.234375,0.3632812 -0.234375,0.66796874 0,0.3046875 0.12890625,0.50390625 0.19921875,0.609375 -0.43359375,0.24609375 -0.52734375,0.62109375 -0.52734375,0.80859375 0,0.60937501 0.84375004,1.07812501 1.87500004,1.07812501 1.0429687,0 1.875,-0.46875 1.875,-1.07812501 0,-1.125 -1.3945313,-1.125 -1.734375,-1.125 H 1.5106328 c -0.1289062,0 -0.4804687,0 -0.4804687,-0.41015625 0,-0.16406254 0.058594,-0.24609374 0.070312,-0.25781254 0.28125,0.1757813 0.5507812,0.234375 0.7734375,0.234375 0.7734375,0 1.359375,-0.6210937 1.359375,-1.3007812 0,-0.2578125 -0.070312,-0.4921875 -0.2109375,-0.703125 -0.035156,-0.046875 -0.035156,-0.058594 -0.035156,-0.058594 0,-0.035156 0.4804688,-0.035156 0.515625,-0.035156 0.011719,0 0.3164063,0 0.5976563,0.035156 z m -2.1328125,2.109375 c -0.421875,0 -0.7382813,-0.2695313 -0.7382813,-0.796875 0,-0.6210938 0.3984375,-0.8203125 0.7382813,-0.8203125 0.4335937,0 0.75,0.28125 0.75,0.8085937 0,0.6210938 -0.3984375,0.8085938 -0.75,0.8085938 z m 0.375,1.55859374 c 0.1875,0 1.125,0 1.125,0.515625 0,0.33984375 -0.5976563,0.57421876 -1.265625,0.57421876 -0.6679688,0 -1.26562504,-0.23437501 -1.26562504,-0.57421876 0,-0.046875 0,-0.515625 0.64453124,-0.515625 z m 0,0"
       style="fill:#000000;fill-opacity:1;fill-rule:nonzero;stroke:none"
       aria-label="g"
       transform="matrix(1.3333333,0,0,1.3333333,411.95067,121.02133)" />
    <path
       id="path84"
       d="M 211.97803,-50.70767 H 146.22276"
       style="fill:none;stroke:#000000;stroke-width:0.3985;stroke-linecap:butt;stroke-linejoin:miter;stroke-miterlimit:10;stroke-dasharray:none;stroke-opacity:1"
       transform="matrix(1.3333333,0,0,-1.3333333,138.99067,74.552)" />
    <path
       id="path85"
       d="M 1.99252,0 -1.19551,1.59401 0,0 -1.19551,-1.59401"
       style="fill:#000000;fill-opacity:1;fill-rule:nonzero;stroke:none"
       transform="matrix(-1.3333333,0,0,1.3333333,333.95435,142.16223)" />
    <path
       id="path86"
       d="M 3.7728203,-3.5401562 H 3.1400078 c -1.0898437,2.67187495 -1.1367187,2.88281245 -1.171875,3.07031245 H 1.9564141 C 1.8978203,-0.78625 1.6751641,-1.3370312 1.4290703,-1.958125 L 0.78453906,-3.5401562 H 0.11657031 l 1.46484379,3.53906245 h 0.7382812 z m 4.1367188,-0.082031 c -0.1757813,0 -0.703125,0.011719 -1.3125,0.2460938 h -0.023437 c -0.28125,-0.1875 -0.5625,-0.2460938 -0.796875,-0.2460938 -0.7734375,0 -1.359375,0.6210938 -1.359375,1.3007813 0,0.28125 0.09375,0.5625 0.28125,0.7851562 -0.1171875,0.140625 -0.234375,0.3632813 -0.234375,0.66796875 0,0.3046875 0.1289062,0.50390625 0.1992187,0.609375 C 4.2298516,-0.0128125 4.1361016,0.3621875 4.1361016,0.5496875 c 0,0.609375 0.84375,1.078125 1.875,1.078125 1.0429687,0 1.875,-0.46875 1.875,-1.078125 0,-1.125 -1.3945313,-1.125 -1.734375,-1.125 H 5.4134453 c -0.1289062,0 -0.4804687,0 -0.4804687,-0.41015625 0,-0.16406245 0.058594,-0.24609375 0.070312,-0.25781245 0.28125,0.1757812 0.5507812,0.234375 0.7734375,0.234375 0.7734375,0 1.359375,-0.6210938 1.359375,-1.3007813 0,-0.2578125 -0.070312,-0.4921875 -0.2109375,-0.703125 -0.035156,-0.046875 -0.035156,-0.058594 -0.035156,-0.058594 0,-0.035156 0.4804688,-0.035156 0.515625,-0.035156 0.011719,0 0.3164063,0 0.5976563,0.035156 z m -2.1328125,2.109375 c -0.421875,0 -0.7382813,-0.2695312 -0.7382813,-0.796875 0,-0.6210937 0.3984375,-0.8203125 0.7382813,-0.8203125 0.4335937,0 0.75,0.28125 0.75,0.8085938 0,0.6210937 -0.3984375,0.8085937 -0.75,0.8085937 z m 0.375,1.55859375 c 0.1875,0 1.125,0 1.125,0.515625 0,0.33984375 -0.5976563,0.57421875 -1.265625,0.57421875 -0.6679688,0 -1.265625,-0.234375 -1.265625,-0.57421875 0,-0.046875 0,-0.515625 0.6445312,-0.515625 z M 11.536492,-2.2979687 c 0,-0.8085938 -0.621094,-1.359375 -1.417969,-1.359375 -0.5039058,0 -0.8789058,0.1054687 -1.3242183,0.3398437 l 0.046875,0.5859375 c 0.2578125,-0.1757812 0.65625,-0.421875 1.2773433,-0.421875 0.351563,0 0.726563,0.2695313 0.726563,0.8671875 v 0.3164063 c -1.1835938,0.035156 -2.3437501,0.2929687 -2.3437501,1.03124995 0,0.3984375 0.2695313,1.01953125 0.9726563,1.01953125 0.3398437,0 0.9726558,-0.0703125 1.3945308,-0.38671875 v 0.3046875 h 0.667969 z m -0.691406,1.1601562 c 0,0.1640625 0,0.375 -0.28125,0.5390625 -0.257813,0.140625 -0.5742188,0.15234375 -0.6562501,0.15234375 -0.4335937,0 -0.7734375,-0.19921875 -0.7734375,-0.50390625 0,-0.5039062 1.3476566,-0.5625 1.7109376,-0.5742187 z m 0,0"
       style="fill:#000000;fill-opacity:1;fill-rule:nonzero;stroke:none"
       aria-label="vga"
       transform="matrix(1.3333333,0,0,1.3333333,371.09067,139.17333)" />
    <path
       id="path87"
       d="M 0,0 H 2.541"
       style="fill:none;stroke:#000000;stroke-width:0.398;stroke-linecap:butt;stroke-linejoin:miter;stroke-miterlimit:10;stroke-dasharray:none;stroke-opacity:1"
       transform="matrix(1.3333333,0,0,-1.3333333,388.04133,138.90667)" />
    <path
       id="path88"
       d="M 3.6926719,-5.5323437 H 3.0247031 v 2.3320312 c -0.515625,-0.375 -1.03125,-0.421875 -1.265625,-0.421875 -0.83203122,0 -1.47656247,0.84375 -1.47656247,1.8515625 0,1.0078125 0.6328125,1.8515625 1.45312497,1.8515625 0.4921875,0 0.9609375,-0.22265625 1.265625,-0.4921875 v 0.41015625 h 0.6914063 z m -0.6914063,4.54687495 c -0.1992187,0.328125 -0.5039062,0.5390625 -0.890625,0.5390625 -0.5507812,0 -1.12499997,-0.38671875 -1.12499997,-1.31249995 0,-0.9960938 0.66796877,-1.3359375 1.21874997,-1.3359375 0.3164063,0 0.5859375,0.140625 0.796875,0.4101562 z M 7.7707969,-2.2979687 c 0,-0.8085938 -0.6210938,-1.359375 -1.4179688,-1.359375 -0.5039062,0 -0.8789062,0.1054687 -1.3242187,0.3398437 l 0.046875,0.5859375 c 0.2578125,-0.1757812 0.65625,-0.421875 1.2773437,-0.421875 0.3515625,0 0.7265625,0.2695313 0.7265625,0.8671875 v 0.3164063 c -1.1835937,0.035156 -2.34375,0.2929687 -2.34375,1.03124995 0,0.3984375 0.2695313,1.01953125 0.9726563,1.01953125 0.3398437,0 0.9726562,-0.0703125 1.3945312,-0.38671875 v 0.3046875 h 0.6679688 z m -0.6914063,1.1601562 c 0,0.1640625 0,0.375 -0.28125,0.5390625 -0.2578125,0.140625 -0.5742187,0.15234375 -0.65625,0.15234375 -0.4335937,0 -0.7734375,-0.19921875 -0.7734375,-0.50390625 0,-0.5039062 1.3476563,-0.5625 1.7109375,-0.5742187 z m 4.8310544,0.26953125 c -0.398437,0.2578125 -0.832031,0.3984375 -1.324218,0.3984375 -0.7382817,0 -1.1601567,-0.58593745 -1.1601567,-1.31249995 0,-0.609375 0.3164063,-1.3242188 1.1835937,-1.3242188 0.539063,0 0.796875,0.1054688 1.207031,0.3632813 L 11.910445,-3.3175 c -0.46875,-0.234375 -0.679687,-0.3398437 -1.300781,-0.3398437 -1.1953124,0 -1.8867187,0.9609375 -1.8867187,1.8867187 0,0.97265625 0.7734375,1.8515625 1.8515627,1.8515625 0.5625,0 1.042969,-0.1640625 1.382812,-0.36328125 z m 0,0"
       style="fill:#000000;fill-opacity:1;fill-rule:nonzero;stroke:none"
       aria-label="dac"
       transform="matrix(1.3333333,0,0,1.3333333,391.428,139.17333)" />
    <path
       id="path89"
       d="M 0,0 H 2.541"
       style="fill:none;stroke:#000000;stroke-width:0.398;stroke-linecap:butt;stroke-linejoin:miter;stroke-miterlimit:10;stroke-dasharray:none;stroke-opacity:1"
       transform="matrix(1.3333333,0,0,-1.3333333,408.37867,138.90667)" />
    <path
       id="path90"
       d="M 1.347875,-5.5323437 H 0.67990625 v 5.53124995 H 1.3713125 v -0.375 c 0.1757812,0.15234375 0.5625,0.45703125 1.1367187,0.45703125 0.8671875,0 1.5703125,-0.8203125 1.5703125,-1.8632812 0,-0.9609375 -0.5507812,-1.8398438 -1.3476562,-1.8398438 -0.5039063,0 -0.984375,0.1640625 -1.3828125,0.4570313 z m 0.023437,3.0234375 c 0,-0.1289063 0,-0.2226563 0.28125,-0.4101563 0.1171875,-0.070312 0.328125,-0.1757812 0.5976562,-0.1757812 0.5390625,0 1.1367188,0.3632812 1.1367188,1.3125 0,0.9726562 -0.65625,1.33593745 -1.21875,1.33593745 -0.2929688,0 -0.5742188,-0.140625 -0.796875,-0.4921875 z m 0,0"
       style="fill:#000000;fill-opacity:1;fill-rule:nonzero;stroke:none"
       aria-label="b"
       transform="matrix(1.3333333,0,0,1.3333333,411.76533,139.17333)" />
    <path
       id="path91"
       d="m 233.24883,-59.2139 v -8.46847 H -33.34459 v 26.58857"
       style="fill:none;stroke:#000000;stroke-width:0.3985;stroke-linecap:butt;stroke-linejoin:miter;stroke-miterlimit:10;stroke-dasharray:none;stroke-opacity:1"
       transform="matrix(1.3333333,0,0,-1.3333333,138.99067,74.552)" />
    <path
       id="path92"
       d="M 1.99252,0 -1.19551,1.59401 0,0 -1.19551,-1.59401"
       style="fill:#000000;fill-opacity:1;fill-rule:nonzero;stroke:none"
       transform="matrix(0,-1.3333333,-1.3333333,0,94.531213,129.34373)" />
    <path
       id="path93"
       d="M 3.7741562,-3.5401484 H 3.1413437 C 2.0515,-0.86827344 2.004625,-0.65733594 1.9694687,-0.46983594 H 1.95775 C 1.8991562,-0.78624219 1.6765,-1.3370234 1.4304062,-1.9581172 L 0.785875,-3.5401484 H 0.11790625 L 1.58275,-0.00108594 h 0.7382812 z m 4.1367188,-0.082031 c -0.1757813,0 -0.703125,0.011719 -1.3125,0.2460938 H 6.574938 c -0.28125,-0.1875 -0.5625,-0.2460938 -0.796875,-0.2460938 -0.7734375,0 -1.359375,0.6210938 -1.359375,1.3007813 0,0.28125 0.09375,0.5625 0.28125,0.7851562 -0.1171875,0.140625 -0.234375,0.3632813 -0.234375,0.66796876 0,0.3046875 0.1289062,0.50390625 0.1992187,0.609375 C 4.231188,-0.01280439 4.137438,0.36219561 4.137438,0.54969561 c 0,0.60937499 0.84375,1.07812499 1.875,1.07812499 1.0429687,0 1.875,-0.46875 1.875,-1.07812499 0,-1.125 -1.3945313,-1.125 -1.734375,-1.125 H 5.4147812 c -0.1289062,0 -0.4804687,0 -0.4804687,-0.41015625 0,-0.16406246 0.058594,-0.24609376 0.070312,-0.25781246 0.28125,0.1757812 0.5507812,0.234375 0.7734375,0.234375 0.7734375,0 1.359375,-0.6210938 1.359375,-1.3007813 0,-0.2578125 -0.070312,-0.4921875 -0.2109375,-0.703125 -0.035156,-0.046875 -0.035156,-0.058594 -0.035156,-0.058594 0,-0.035156 0.4804688,-0.035156 0.515625,-0.035156 0.011719,0 0.3164063,0 0.5976563,0.035156 z m -2.1328125,2.109375 c -0.421875,0 -0.7382813,-0.2695312 -0.7382813,-0.796875 0,-0.6210937 0.3984375,-0.8203125 0.7382813,-0.8203125 0.4335937,0 0.75,0.28125 0.75,0.8085938 0,0.6210937 -0.3984375,0.8085937 -0.75,0.8085937 z m 0.375,1.55859376 c 0.1875,0 1.125,0 1.125,0.515625 0,0.33984375 -0.5976563,0.57421874 -1.265625,0.57421874 -0.6679688,0 -1.265625,-0.23437499 -1.265625,-0.57421874 0,-0.046875 0,-0.515625 0.6445312,-0.515625 z M 11.534898,-2.2979609 c 0,-0.8085938 -0.621093,-1.359375 -1.417968,-1.359375 -0.5039066,0 -0.8789066,0.1054687 -1.3242191,0.3398437 l 0.046875,0.5859375 c 0.2578125,-0.1757812 0.65625,-0.421875 1.2773441,-0.421875 0.351562,0 0.726562,0.2695313 0.726562,0.8671875 v 0.3164063 c -1.1835936,0.035156 -2.3437498,0.2929687 -2.3437498,1.03124996 0,0.3984375 0.2695312,1.01953125 0.9726562,1.01953125 0.3398438,0 0.9726566,-0.0703125 1.3945316,-0.38671875 v 0.3046875 h 0.667968 z m -0.691406,1.1601562 c 0,0.16406251 0,0.37500001 -0.28125,0.53906251 -0.257812,0.140625 -0.5742186,0.15234375 -0.6562498,0.15234375 -0.4335938,0 -0.7734375,-0.19921875 -0.7734375,-0.50390625 0,-0.50390621 1.3476563,-0.56250001 1.7109373,-0.57421871 z m 0,0"
       style="fill:#000000;fill-opacity:1;fill-rule:nonzero;stroke:none"
       aria-label="vga"
       transform="matrix(1.3333333,0,0,1.3333333,454.01467,167.45067)" />
    <path
       id="path94"
       d="M 0,0 H 2.541"
       style="fill:none;stroke:#000000;stroke-width:0.398;stroke-linecap:butt;stroke-linejoin:miter;stroke-miterlimit:10;stroke-dasharray:none;stroke-opacity:1"
       transform="matrix(1.3333333,0,0,-1.3333333,470.964,167.18533)" />
    <path
       id="path95"
       d="m 3.7027969,-2.3565547 c 0,-0.6210937 -0.1757813,-1.265625 -1.1601563,-1.265625 -0.6914062,0 -1.0546875,0.3984375 -1.2070312,0.5742188 v -2.484375 H 0.65592187 v 5.53124996 H 1.3590469 V -1.9346797 c 0,-0.5273437 0.2226562,-1.1601562 0.8320312,-1.1601562 0.8203125,0 0.8203125,0.5625 0.8203125,0.7851562 v 2.30859376 h 0.6914063 z m 3.5771484,-1.0546875 c -0.5390625,-0.2226562 -0.9375,-0.2460937 -1.2304687,-0.2460937 -0.1992188,0 -1.3945313,0 -1.3945313,1.0546875 0,0.375 0.1992188,0.5859375 0.3046875,0.6796875 0.28125,0.28125 0.6210938,0.3398437 1.0429688,0.421875 0.375,0.070312 0.796875,0.1523437 0.796875,0.53906246 0,0.50390625 -0.65625,0.50390625 -0.7734375,0.50390625 -0.5039063,0 -0.984375,-0.1875 -1.3007813,-0.41015625 l -0.1171875,0.59765625 c 0.28125,0.12890625 0.7617188,0.3515625 1.4179688,0.3515625 0.3632812,0 0.7148437,-0.05859375 1.0078125,-0.26953125 0.2929687,-0.22265625 0.3867187,-0.57421875 0.3867187,-0.84374996 0,-0.1523438 -0.011719,-0.4570313 -0.3398437,-0.7617188 -0.3046875,-0.2578125 -0.5859375,-0.3164062 -0.9726563,-0.3867187 -0.46875,-0.09375 -0.8320312,-0.1640625 -0.8320312,-0.515625 0,-0.4570313 0.5742187,-0.4570313 0.703125,-0.4570313 0.4453125,0 0.796875,0.1054688 1.1953125,0.3046875 z M 11.393227,-3.5401484 H 10.748695 C 10.104164,-2.0167109 9.6588516,-0.98546094 9.6236953,-0.50499219 9.6119766,-0.72764844 9.4713516,-1.1260859 9.3307266,-1.5010859 9.2018203,-1.8174922 9.0729141,-2.1338984 8.9322891,-2.4503047 L 8.4283828,-3.5401484 H 7.7369766 l 1.6523437,3.53906246 c -0.09375,0.234375 -0.2578125,0.59765625 -0.3046875,0.703125 -0.1640625,0.32812504 -0.28125,0.44531254 -0.4921875,0.44531254 -0.035156,0 -0.328125,0 -0.6679687,-0.140625 l 0.046875,0.5507812 c 0.070312,0.023437 0.3632812,0.070312 0.609375,0.070312 0.3164062,0 0.609375,-0.1171875 0.9492187,-0.89062499 z m 3.832031,1.1835937 c 0,-0.6210937 -0.175781,-1.265625 -1.160156,-1.265625 -0.457032,0 -0.890625,0.1875 -1.242188,0.609375 v -0.5859375 h -0.644531 v 3.59765626 h 0.703125 V -1.9346797 c 0,-0.5273437 0.222656,-1.1601562 0.832031,-1.1601562 0.820313,0 0.820313,0.5625 0.820313,0.7851562 v 2.30859376 h 0.691406 z m 4.136719,1.48828126 c -0.398438,0.2578125 -0.832032,0.3984375 -1.324219,0.3984375 -0.738281,0 -1.160156,-0.58593746 -1.160156,-1.31249996 0,-0.609375 0.316406,-1.3242188 1.183593,-1.3242188 0.539063,0 0.796875,0.1054688 1.207032,0.3632813 l 0.09375,-0.5742188 c -0.46875,-0.234375 -0.679688,-0.3398437 -1.300782,-0.3398437 -1.195312,0 -1.886718,0.9609375 -1.886718,1.8867187 0,0.97265626 0.773437,1.85156251 1.851562,1.85156251 0.5625,0 1.042969,-0.1640625 1.382813,-0.36328125 z m 0,0"
       style="fill:#000000;fill-opacity:1;fill-rule:nonzero;stroke:none"
       aria-label="hsync"
       transform="matrix(1.3333333,0,0,1.3333333,474.352,167.45067)" />
    <path
       id="path96"
       d="M 275.79047,-59.2139 V -76.15085 H -50.01689 v 35.05705"
       style="fill:none;stroke:#000000;stroke-width:0.3985;stroke-linecap:butt;stroke-linejoin:miter;stroke-miterlimit:10;stroke-dasharray:none;stroke-opacity:1"
       transform="matrix(1.3333333,0,0,-1.3333333,138.99067,74.552)" />
    <path
       id="path97"
       d="M 1.99252,0 -1.19551,1.59401 0,0 -1.19551,-1.59401"
       style="fill:#000000;fill-opacity:1;fill-rule:nonzero;stroke:none"
       transform="matrix(0,-1.3333333,-1.3333333,0,72.30148,129.34373)" />
    <path
       id="path98"
       d="M 3.7722187,-3.5385156 H 3.1394062 c -1.0898437,2.67187497 -1.1367187,2.88281247 -1.171875,3.07031247 H 1.9558125 C 1.8972187,-0.78460938 1.6745625,-1.3353906 1.4284687,-1.9564844 L 0.7839375,-3.5385156 H 0.11596875 L 1.5808125,5.46875e-4 h 0.7382812 z m 4.1367188,-0.082031 c -0.1757813,0 -0.703125,0.011719 -1.3125,0.2460938 H 6.573 c -0.28125,-0.1875 -0.5625,-0.2460938 -0.796875,-0.2460938 -0.7734375,0 -1.359375,0.6210938 -1.359375,1.3007813 0,0.28125 0.09375,0.5625 0.28125,0.7851562 -0.1171875,0.140625 -0.234375,0.3632813 -0.234375,0.66796877 0,0.3046875 0.1289062,0.50390625 0.1992187,0.609375 C 4.22925,-0.01117188 4.1355,0.36382812 4.1355,0.55132812 c 0,0.60937498 0.84375,1.07812498 1.875,1.07812498 1.0429687,0 1.875,-0.46875 1.875,-1.07812498 0,-1.125 -1.3945313,-1.125 -1.734375,-1.125 H 5.4128437 c -0.1289062,0 -0.4804687,0 -0.4804687,-0.41015625 0,-0.16406247 0.058594,-0.24609377 0.070312,-0.25781247 0.28125,0.1757812 0.5507812,0.234375 0.7734375,0.234375 0.7734375,0 1.359375,-0.6210938 1.359375,-1.3007813 0,-0.2578125 -0.070312,-0.4921875 -0.2109375,-0.703125 -0.035156,-0.046875 -0.035156,-0.058594 -0.035156,-0.058594 0,-0.035156 0.4804688,-0.035156 0.515625,-0.035156 0.011719,0 0.3164063,0 0.5976563,0.035156 z m -2.1328125,2.109375 c -0.421875,0 -0.7382813,-0.2695312 -0.7382813,-0.796875 0,-0.6210937 0.3984375,-0.8203125 0.7382813,-0.8203125 0.4335937,0 0.75,0.28125 0.75,0.8085938 0,0.6210937 -0.3984375,0.8085937 -0.75,0.8085937 z m 0.375,1.55859377 c 0.1875,0 1.125,0 1.125,0.515625 0,0.33984375 -0.5976563,0.57421873 -1.265625,0.57421873 -0.6679688,0 -1.265625,-0.23437498 -1.265625,-0.57421873 0,-0.046875 0,-0.515625 0.6445312,-0.515625 z m 5.384766,-2.34374997 c 0,-0.8085938 -0.621094,-1.359375 -1.417969,-1.359375 -0.5039064,0 -0.8789064,0.1054687 -1.3242189,0.3398437 l 0.046875,0.5859375 c 0.2578125,-0.1757812 0.65625,-0.421875 1.2773439,-0.421875 0.351562,0 0.726562,0.2695313 0.726562,0.8671875 v 0.3164063 c -1.1835934,0.035156 -2.3437496,0.2929687 -2.3437496,1.03124997 0,0.3984375 0.2695312,1.01953125 0.9726562,1.01953125 0.3398438,0 0.9726564,-0.0703125 1.3945314,-0.38671875 V 5.46875e-4 h 0.667969 z m -0.691407,1.1601562 c 0,0.16406252 0,0.37500002 -0.28125,0.53906252 -0.257812,0.140625 -0.5742184,0.15234375 -0.6562496,0.15234375 -0.4335938,0 -0.7734375,-0.19921875 -0.7734375,-0.50390625 0,-0.50390622 1.3476561,-0.56250002 1.7109371,-0.57421872 z m 0,0"
       style="fill:#000000;fill-opacity:1;fill-rule:nonzero;stroke:none"
       aria-label="vga"
       transform="matrix(1.3333333,0,0,1.3333333,510.736,177.41333)" />
    <path
       id="path99"
       d="M 0,0 H 2.541"
       style="fill:none;stroke:#000000;stroke-width:0.398;stroke-linecap:butt;stroke-linejoin:miter;stroke-miterlimit:10;stroke-dasharray:none;stroke-opacity:1"
       transform="matrix(1.3333333,0,0,-1.3333333,527.68533,177.148)" />
    <path
       id="path100"
       d="M 3.7741016,-3.5385156 H 3.1412891 c -1.0898438,2.67187497 -1.1367188,2.88281247 -1.171875,3.07031247 H 1.9576953 C 1.8991016,-0.78460938 1.6764453,-1.3353906 1.4303516,-1.9564844 L 0.78582031,-3.5385156 H 0.11785156 L 1.5826953,5.46875e-4 h 0.7382813 z m 3.0351562,0.1289062 c -0.5390625,-0.2226562 -0.9375,-0.2460937 -1.2304687,-0.2460937 -0.1992188,0 -1.3945313,0 -1.3945313,1.0546875 0,0.375 0.1992188,0.5859375 0.3046875,0.6796875 0.28125,0.28125 0.6210938,0.3398437 1.0429688,0.421875 0.375,0.070312 0.796875,0.1523437 0.796875,0.53906247 0,0.50390625 -0.65625,0.50390625 -0.7734375,0.50390625 -0.5039063,0 -0.984375,-0.1875 -1.3007813,-0.41015625 l -0.1171875,0.59765625 c 0.28125,0.12890625 0.7617188,0.3515625 1.4179688,0.3515625 0.3632812,0 0.7148437,-0.05859375 1.0078125,-0.26953125 0.2929687,-0.22265625 0.3867187,-0.57421875 0.3867187,-0.84374997 0,-0.1523438 -0.011719,-0.4570313 -0.3398437,-0.7617188 -0.3046875,-0.2578125 -0.5859375,-0.3164062 -0.9726563,-0.3867187 -0.46875,-0.09375 -0.8320312,-0.1640625 -0.8320312,-0.515625 0,-0.4570313 0.5742187,-0.4570313 0.703125,-0.4570313 0.4453125,0 0.796875,0.1054688 1.1953125,0.3046875 z M 10.922539,-3.5385156 H 10.278008 C 9.6334766,-2.0150781 9.1881641,-0.98382813 9.1530078,-0.50335938 9.1412891,-0.72601563 9.0006641,-1.1244531 8.8600391,-1.4994531 8.7311328,-1.8158594 8.6022266,-2.1322656 8.4616016,-2.4486719 L 7.9576953,-3.5385156 H 7.2662891 L 8.9186328,5.46875e-4 C 8.8248828,0.23492187 8.6608203,0.59820312 8.6139453,0.70367187 8.4498828,1.0317969 8.3326953,1.1489844 8.1217578,1.1489844 c -0.035156,0 -0.328125,0 -0.6679687,-0.140625 l 0.046875,0.5507812 c 0.070312,0.023437 0.3632812,0.070312 0.609375,0.070312 0.3164062,0 0.609375,-0.1171875 0.9492187,-0.89062498 z m 3.832031,1.1835937 c 0,-0.6210937 -0.175781,-1.265625 -1.160156,-1.265625 -0.457031,0 -0.890625,0.1875 -1.242187,0.609375 V -3.5971094 H 11.707695 V 5.46875e-4 H 12.41082 V -1.9330469 c 0,-0.5273437 0.222657,-1.1601562 0.832032,-1.1601562 0.820312,0 0.820312,0.5625 0.820312,0.7851562 V 5.46875e-4 h 0.691406 z m 4.136719,1.48828127 c -0.398437,0.2578125 -0.832031,0.3984375 -1.324219,0.3984375 -0.738281,0 -1.160156,-0.58593747 -1.160156,-1.31249997 0,-0.609375 0.316406,-1.3242188 1.183594,-1.3242188 0.539062,0 0.796875,0.1054688 1.207031,0.3632813 l 0.09375,-0.5742188 c -0.46875,-0.234375 -0.679687,-0.3398437 -1.300781,-0.3398437 -1.195313,0 -1.886719,0.9609375 -1.886719,1.8867187 0,0.97265627 0.773438,1.85156252 1.851563,1.85156252 0.5625,0 1.042968,-0.1640625 1.382812,-0.36328125 z m 0,0"
       style="fill:#000000;fill-opacity:1;fill-rule:nonzero;stroke:none"
       aria-label="vsync"
       transform="matrix(1.3333333,0,0,1.3333333,531.07333,177.41333)" />
  </g>
</svg>
