<?xml version="1.0" encoding="UTF-8" standalone="no"?>
<!-- Created with Inkscape (http://www.inkscape.org/) -->

<svg
   version="1.1"
   id="svg1"
   width="333.67068"
   height="149.46667"
   viewBox="0 0 333.67068 149.46667"
   sodipodi:docname="main.pdf"
   xmlns:inkscape="http://www.inkscape.org/namespaces/inkscape"
   xmlns:sodipodi="http://sodipodi.sourceforge.net/DTD/sodipodi-0.dtd"
   xmlns="http://www.w3.org/2000/svg"
   xmlns:svg="http://www.w3.org/2000/svg">
  <defs
     id="defs1" />
  <sodipodi:namedview
     id="namedview1"
     pagecolor="#ffffff"
     bordercolor="#000000"
     borderopacity="0.25"
     inkscape:showpageshadow="2"
     inkscape:pageopacity="0.0"
     inkscape:pagecheckerboard="0"
     inkscape:deskcolor="#d1d1d1">
    <inkscape:page
       x="0"
       y="0"
       inkscape:label="1"
       id="page1"
       width="333.67068"
       height="149.46667"
       margin="0"
       bleed="0" />
  </sodipodi:namedview>
  <g
     id="g1"
     inkscape:groupmode="layer"
     inkscape:label="1">
    <path
       id="path1"
       d="M 0,0 H 250.253 V 112.1 H 0 Z"
       style="fill:#ffffff;fill-opacity:1;fill-rule:nonzero;stroke:none"
       transform="matrix(1.3333333,0,0,-1.3333333,0,149.46667)" />
    <path
       id="path2"
       d="M -69.5812,-95.60002 V 15.50166 H 179.67473 V -95.60002 Z"
       style="fill:#ffffff;fill-opacity:1;fill-rule:nonzero;stroke:none"
       transform="matrix(1.3333333,0,0,-1.3333333,93.44,21.334667)" />
    <path
       id="path3"
       d="M 10.81918,0 C 10.81918,5.97533 5.97533,10.81918 0,10.81918 -5.97533,10.81918 -10.81918,5.97533 -10.81918,0 c 0,-5.97533 4.84385,-10.81918 10.81918,-10.81918 5.97533,0 10.81918,4.84385 10.81918,10.81918 z"
       style="fill:none;stroke:#000000;stroke-width:0.3985;stroke-linecap:butt;stroke-linejoin:miter;stroke-miterlimit:10;stroke-dasharray:none;stroke-opacity:1"
       transform="matrix(1.3333333,0,0,-1.3333333,93.44,21.334667)" />
    <g
       id="g3"
       aria-label="x&#10;2"
       transform="matrix(1.3333333,0,0,1.3333333,87.682667,26.961333)">
      <path
         id="path4"
         d="m 4.0085078,-1.1018594 c -0.082031,0.082031 -0.1289062,0.14062503 -0.2226562,0.26953128 -0.234375,0.29296875 -0.3515625,0.3984375 -0.4570313,0.3984375 -0.1523437,0 -0.234375,-0.12890625 -0.3046875,-0.41015625 -0.023437,-0.0820313 -0.035156,-0.140625 -0.046875,-0.17578123 -0.2460937,-1.0078125 -0.3515625,-1.4648438 -0.3515625,-1.6054688 0.4335938,-0.7734375 0.796875,-1.2070312 0.9726563,-1.2070312 0.058594,0 0.140625,0.023437 0.234375,0.082031 0.1171875,0.058594 0.1875,0.082031 0.2695312,0.082031 0.2109375,0 0.3515625,-0.1523438 0.3515625,-0.3515625 0,-0.2109375 -0.1640625,-0.375 -0.4101562,-0.375 -0.4335938,0 -0.8203125,0.3632812 -1.5,1.4296875 L 2.4264766,-3.5159219 c -0.1289063,-0.6796875 -0.2460938,-0.8789062 -0.515625,-0.8789062 -0.2109375,0 -0.5507813,0.09375 -1.16015629,0.2929687 l -0.1171875,0.035156 0.046875,0.1523437 c 0.37499999,-0.09375 0.46874999,-0.1054687 0.55078129,-0.1054687 0.2578125,0 0.3164062,0.082031 0.4570312,0.6796875 l 0.28125,1.2304687 -0.8085937,1.16015628 c -0.19921879,0.3046875 -0.39843754,0.48046875 -0.51562504,0.48046875 -0.0585938,0 -0.15234375,-0.0351563 -0.2578125,-0.09375 -0.12890625,-0.0703125 -0.234375,-0.09375 -0.31640625,-0.09375 -0.1875,0 -0.33984375,0.15234375 -0.33984375,0.3515625 0,0.2578125 0.19921875,0.41015625 0.50390625,0.41015625 0.3046875,0 0.421875,-0.08203125 0.92578129,-0.69140625 0.2695312,-0.31640625 0.46875,-0.58593753 0.890625,-1.17187503 l 0.3046875,1.19531253 c 0.1289062,0.515625 0.2578125,0.66796875 0.5742187,0.66796875 0.375,0 0.6328125,-0.234375 1.21875,-1.13671878 z m 0,0"
         style="fill:#000000;fill-opacity:1;fill-rule:nonzero;stroke:none" />
      <path
         id="path5"
         d="m 7.9577266,-4.6262734 -0.09375,-0.035156 c -0.28125,0.421875 -0.375,0.4804688 -0.703125,0.4804688 H 5.4030391 l 1.2304687,-1.3007813 c 0.65625,-0.6796875 0.9492188,-1.2421875 0.9492188,-1.8164062 0,-0.7382813 -0.5976563,-1.3007813 -1.3710938,-1.3007813 -0.3984375,0 -0.7851562,0.1640625 -1.0546875,0.4570313 -0.234375,0.2460937 -0.3515625,0.4804687 -0.4804687,1.0078125 l 0.1640625,0.035156 c 0.2929687,-0.7265625 0.5625,-0.9609375 1.0664062,-0.9609375 0.6210938,0 1.0429688,0.421875 1.0429688,1.0429688 0,0.5742187 -0.3398438,1.265625 -0.9609375,1.921875 l -1.3125,1.3828125 v 0.09375 h 2.8710937 z m 0,0"
         style="fill:#000000;fill-opacity:1;fill-rule:nonzero;stroke:none" />
    </g>
    <path
       id="path6"
       d="m 11.48126,-37.6431 c 0,6.341 -5.14026,11.48127 -11.48126,11.48127 -6.341,0 -11.48126,-5.14027 -11.48126,-11.48127 0,-6.341 5.14026,-11.48126 11.48126,-11.48126 6.341,0 11.48126,5.14026 11.48126,11.48126 z"
       style="fill:none;stroke:#000000;stroke-width:0.3985;stroke-linecap:butt;stroke-linejoin:miter;stroke-miterlimit:10;stroke-dasharray:none;stroke-opacity:1"
       transform="matrix(1.3333333,0,0,-1.3333333,93.44,21.334667)" />
    <g
       id="g6"
       aria-label="y&#10;2"
       transform="matrix(1.3333333,0,0,1.3333333,87.702667,75.869333)">
      <path
         id="path7"
         d="m 0.1526875,-3.9830547 c 0.12890625,-0.035156 0.19921875,-0.035156 0.3046875,-0.035156 0.5742187,0 0.7148437,0.2460937 1.171875,1.9570312 0.1757812,0.6445313 0.4101562,1.81640626 0.4101562,1.98046876 0,0.1640625 -0.058594,0.31640625 -0.2109375,0.50390625 C 1.5237812,0.83335156 1.3245625,1.0911641 1.2190937,1.2083516 1.0081562,1.4310078 0.89096875,1.5013203 0.7620625,1.5013203 0.7034687,1.5013203 0.63315625,1.4778833 0.51596875,1.3958516 0.363625,1.2786641 0.25815625,1.2317891 0.1526875,1.2317891 c -0.22265625,0 -0.38671875,0.1640625 -0.38671875,0.3867187 0,0.2460938 0.2109375,0.4335938 0.50390625,0.4335938 0.6328125,0 1.9453125,-1.48828129 3.0234375,-3.46875 0.6679687,-1.21875 0.9492187,-1.9335938 0.9492187,-2.4257813 0,-0.3046875 -0.2460937,-0.5507812 -0.5507812,-0.5507812 -0.2226563,0 -0.3867188,0.1523437 -0.3867188,0.375 0,0.140625 0.082031,0.2578125 0.28125,0.3867187 0.1875,0.1054688 0.2578125,0.1992188 0.2578125,0.3398438 0,0.3984375 -0.3632812,1.171875 -1.21875,2.57812496 L 2.426125,-1.8736797 C 2.2855,-2.7525859 1.723,-4.3932109 1.5706562,-4.3932109 H 1.5355 c -0.011719,0.011719 -0.046875,0.011719 -0.09375,0.011719 -0.082031,0.011719 -0.4453125,0.070312 -0.97265625,0.1640625 -0.046875,0.011719 -0.17578125,0.046875 -0.31640625,0.070312 z m 0,0"
         style="fill:#000000;fill-opacity:1;fill-rule:nonzero;stroke:none" />
      <path
         id="path8"
         d="m 7.9280781,-4.6246562 -0.09375,-0.035156 c -0.28125,0.421875 -0.375,0.4804688 -0.703125,0.4804688 H 5.3733906 L 6.6038594,-5.480125 c 0.65625,-0.6796875 0.9492187,-1.2421875 0.9492187,-1.8164062 0,-0.7382813 -0.5976562,-1.3007813 -1.3710937,-1.3007813 -0.3984375,0 -0.7851563,0.1640625 -1.0546875,0.4570313 -0.234375,0.2460937 -0.3515625,0.4804687 -0.4804688,1.0078125 l 0.1640625,0.035156 c 0.2929688,-0.7265625 0.5625,-0.9609375 1.0664063,-0.9609375 0.6210937,0 1.0429687,0.421875 1.0429687,1.0429688 0,0.5742187 -0.3398437,1.265625 -0.9609375,1.921875 l -1.3125,1.3828125 v 0.09375 h 2.8710938 z m 0,0"
         style="fill:#000000;fill-opacity:1;fill-rule:nonzero;stroke:none" />
    </g>
    <path
       id="path9"
       d="m 10.83353,-75.30055 c 0,5.98326 -4.85027,10.83352 -10.83353,10.83352 -5.98326,0 -10.83353,-4.85026 -10.83353,-10.83352 0,-5.98328 4.85027,-10.83355 10.83353,-10.83355 5.98326,0 10.83353,4.85027 10.83353,10.83355 z"
       style="fill:none;stroke:#000000;stroke-width:0.3985;stroke-linecap:butt;stroke-linejoin:miter;stroke-miterlimit:10;stroke-dasharray:none;stroke-opacity:1"
       transform="matrix(1.3333333,0,0,-1.3333333,93.44,21.334667)" />
    <g
       id="g9"
       aria-label="z&#10;2"
       transform="matrix(1.3333333,0,0,1.3333333,88.068,126.896)">
      <path
         id="path10"
         d="M 0.80739844,-3.0831328 C 1.0183359,-3.5753203 1.1472422,-3.6690703 1.6159922,-3.6690703 h 1.453125 l -3.09375001,3.70312499 0.09375,0.09375 c 0.1640625,-0.12890625 0.29296875,-0.17578125 0.45703125,-0.17578125 0.234375,0 0.57421876,0.12890625 1.03124996,0.41015625 0.5039063,0.31640625 0.84375,0.4453125 1.125,0.4453125 0.4921875,0 0.9375,-0.36328125 0.9375,-0.76171875 0,-0.2109375 -0.140625,-0.3515625 -0.3515625,-0.3515625 -0.1992187,0 -0.3398437,0.12890625 -0.3398437,0.3046875 0,0.09375 0.023437,0.1875 0.09375,0.3046875 0.023437,0.0585938 0.046875,0.1171875 0.046875,0.140625 0,0.09375 -0.1171875,0.15234375 -0.2695313,0.15234375 -0.2460937,0 -0.375,-0.0820313 -0.703125,-0.4921875 -0.4335937,-0.57421875 -0.6210937,-0.703125 -1.19531246,-0.83203125 L 3.7839609,-4.1495391 V -4.2667266 H 0.95974219 l -0.31640625,1.1484375 z m 0,0"
         style="fill:#000000;fill-opacity:1;fill-rule:nonzero;stroke:none" />
      <path
         id="path11"
         d="m 7.3786875,-4.6241484 -0.09375,-0.035156 c -0.28125,0.421875 -0.375,0.4804688 -0.703125,0.4804688 H 4.824 l 1.2304687,-1.3007813 c 0.65625,-0.6796875 0.9492188,-1.2421875 0.9492188,-1.8164062 0,-0.7382813 -0.5976563,-1.3007813 -1.3710938,-1.3007813 -0.3984375,0 -0.7851562,0.1640625 -1.0546875,0.4570313 -0.234375,0.2460937 -0.3515625,0.4804687 -0.4804687,1.0078125 L 4.2615,-7.0968047 c 0.2929687,-0.7265625 0.5625,-0.9609375 1.0664062,-0.9609375 0.6210938,0 1.0429688,0.421875 1.0429688,1.0429688 0,0.5742187 -0.3398438,1.265625 -0.9609375,1.921875 l -1.3125,1.3828125 v 0.09375 h 2.8710937 z m 0,0"
         style="fill:#000000;fill-opacity:1;fill-rule:nonzero;stroke:none" />
    </g>
    <path
       id="path12"
       d="m 46.74945,-37.6431 c 0,5.50235 -4.46042,9.96277 -9.96277,9.96277 -5.50235,0 -9.96277,-4.46042 -9.96277,-9.96277 0,-5.50236 4.46042,-9.96277 9.96277,-9.96277 5.50235,0 9.96277,4.46041 9.96277,9.96277 z"
       style="fill:none;stroke:#000000;stroke-width:0.3985;stroke-linecap:butt;stroke-linejoin:miter;stroke-miterlimit:10;stroke-dasharray:none;stroke-opacity:1"
       transform="matrix(1.3333333,0,0,-1.3333333,93.44,21.334667)" />
    <path
       id="path13"
       d="m 4.0782188,-2.2960625 h 2.7773437 c 0.140625,0 0.328125,0 0.328125,-0.1992187 0,-0.1992188 -0.1875,-0.1992188 -0.328125,-0.1992188 H 4.0782188 v -2.7890625 c 0,-0.1289062 0,-0.328125 -0.1992188,-0.328125 -0.1992187,0 -0.1992187,0.1992188 -0.1992187,0.328125 V -2.6945 H 0.89071875 c -0.140625,0 -0.328125,0 -0.328125,0.1992188 0,0.1992187 0.1875,0.1992187 0.328125,0.1992187 H 3.6797813 v 2.80078125 c 0,0.12890625 0,0.328125 0.1992187,0.328125 0.1992188,0 0.1992188,-0.19921875 0.1992188,-0.328125 z m 0,0"
       style="fill:#000000;fill-opacity:1;fill-rule:nonzero;stroke:none"
       aria-label="+"
       transform="matrix(1.3333333,0,0,1.3333333,137.328,74.842667)" />
    <path
       id="path14"
       d="m 82.01764,-37.6431 c 0,5.50235 -4.4604,9.96277 -9.96277,9.96277 -5.50235,0 -9.96277,-4.46042 -9.96277,-9.96277 0,-5.50236 4.46042,-9.96277 9.96277,-9.96277 5.50237,0 9.96277,4.46041 9.96277,9.96277 z"
       style="fill:none;stroke:#000000;stroke-width:0.3985;stroke-linecap:butt;stroke-linejoin:miter;stroke-miterlimit:10;stroke-dasharray:none;stroke-opacity:1"
       transform="matrix(1.3333333,0,0,-1.3333333,93.44,21.334667)" />
    <path
       id="path15"
       d="M 3.8792578,8.5205078 2.1214453,4.6416016 C 2.0511328,4.4892578 2.0042578,4.4892578 1.9691016,4.4892578 c -0.011719,0 -0.058594,0 -0.1640625,0.070312 l -0.94921879,0.726563 c -0.12890625,0.09375 -0.12890625,0.1289063 -0.12890625,0.1523438 0,0.046875 0.0351563,0.1054687 0.10546875,0.1054687 0.0585938,0 0.22265629,-0.1289062 0.32812499,-0.2109375 0.070312,-0.046875 0.2109375,-0.1640625 0.328125,-0.2460937 l 1.9570313,4.3125 c 0.070312,0.1640625 0.1171875,0.1640625 0.2109375,0.1640625 0.1523437,0 0.1757812,-0.058594 0.2460937,-0.1992188 L 8.4261328,9.765625e-4 C 8.4964453,-0.13964844 8.4964453,-0.17480469 8.4964453,-0.19824219 c 0,-0.10546875 -0.082031,-0.19921875 -0.1992187,-0.19921875 -0.082031,0 -0.1523438,0.046875 -0.2226563,0.2109375 z m 0,0"
       style="fill:#000000;fill-opacity:1;fill-rule:nonzero;stroke:none"
       aria-label="√"
       transform="matrix(1.3333333,0,0,1.3333333,183.98,65.666667)" />
    <path
       id="path16"
       d="m 132.47809,-37.6431 c 0,5.57085 -4.51596,10.08681 -10.08682,10.08681 -5.57085,0 -10.08681,-4.51596 -10.08681,-10.08681 0,-5.57086 4.51596,-10.08682 10.08681,-10.08682 5.57086,0 10.08682,4.51596 10.08682,10.08682 z"
       style="fill:none;stroke:#000000;stroke-width:0.3985;stroke-linecap:butt;stroke-linejoin:miter;stroke-miterlimit:10;stroke-dasharray:none;stroke-opacity:1"
       transform="matrix(1.3333333,0,0,-1.3333333,93.44,21.334667)" />
    <path
       id="path17"
       d="m 4.3706094,-7.0903984 c 0.046875,-0.1289063 0.046875,-0.1757813 0.046875,-0.1875 0,-0.1054688 -0.082031,-0.1992188 -0.1992188,-0.1992188 -0.070312,0 -0.1289062,0.035156 -0.1640625,0.09375 L 0.59717188,2.1088203 c -0.046875,0.1289063 -0.046875,0.1757813 -0.046875,0.1875 0,0.1054688 0.0820313,0.1992188 0.19921875,0.1992188 0.12890625,0 0.15234375,-0.070312 0.2109375,-0.2460938 z m 0,0"
       style="fill:#000000;fill-opacity:1;fill-rule:nonzero;stroke:none"
       aria-label="/"
       transform="matrix(1.3333333,0,0,1.3333333,253.30533,74.809333)" />
    <path
       id="path18"
       d="m 132.47809,-2.12682 c 0,5.57085 -4.51596,10.08681 -10.08682,10.08681 -5.57085,0 -10.08681,-4.51596 -10.08681,-10.08681 0,-5.57084 4.51596,-10.0868 10.08681,-10.0868 5.57086,0 10.08682,4.51596 10.08682,10.0868 z"
       style="fill:none;stroke:#000000;stroke-width:0.3985;stroke-linecap:butt;stroke-linejoin:miter;stroke-miterlimit:10;stroke-dasharray:none;stroke-opacity:1"
       transform="matrix(1.3333333,0,0,-1.3333333,93.44,21.334667)" />
    <path
       id="path19"
       d="m 4.3706094,-7.091 c 0.046875,-0.1289062 0.046875,-0.1757812 0.046875,-0.1875 0,-0.1054687 -0.082031,-0.1992187 -0.1992188,-0.1992187 -0.070312,0 -0.1289062,0.035156 -0.1640625,0.09375 L 0.59717188,2.1082188 c -0.046875,0.1289062 -0.046875,0.1757812 -0.046875,0.1875 0,0.1054687 0.0820313,0.1992187 0.19921875,0.1992187 0.12890625,0 0.15234375,-0.070312 0.2109375,-0.2460937 z m 0,0"
       style="fill:#000000;fill-opacity:1;fill-rule:nonzero;stroke:none"
       aria-label="/"
       transform="matrix(1.3333333,0,0,1.3333333,253.30533,27.454667)" />
    <path
       id="path20"
       d="m 132.47809,-73.1594 c 0,5.57087 -4.51596,10.08683 -10.08682,10.08683 -5.57085,0 -10.08681,-4.51596 -10.08681,-10.08683 0,-5.57086 4.51596,-10.08682 10.08681,-10.08682 5.57086,0 10.08682,4.51596 10.08682,10.08682 z"
       style="fill:none;stroke:#000000;stroke-width:0.3985;stroke-linecap:butt;stroke-linejoin:miter;stroke-miterlimit:10;stroke-dasharray:none;stroke-opacity:1"
       transform="matrix(1.3333333,0,0,-1.3333333,93.44,21.334667)" />
    <path
       id="path21"
       d="m 4.3706094,-7.0897969 c 0.046875,-0.1289062 0.046875,-0.1757812 0.046875,-0.1875 0,-0.1054687 -0.082031,-0.1992187 -0.1992188,-0.1992187 -0.070312,0 -0.1289062,0.035156 -0.1640625,0.09375 L 0.59717188,2.1094219 c -0.046875,0.1289062 -0.046875,0.1757812 -0.046875,0.1875 0,0.1054687 0.0820313,0.1992187 0.19921875,0.1992187 0.12890625,0 0.15234375,-0.070312 0.2109375,-0.2460937 z m 0,0"
       style="fill:#000000;fill-opacity:1;fill-rule:nonzero;stroke:none"
       aria-label="/"
       transform="matrix(1.3333333,0,0,1.3333333,253.30533,122.164)" />
    <path
       id="path22"
       d="M 46.9487,-37.6431 H 59.90033"
       style="fill:none;stroke:#000000;stroke-width:0.3985;stroke-linecap:butt;stroke-linejoin:miter;stroke-miterlimit:10;stroke-dasharray:none;stroke-opacity:1"
       transform="matrix(1.3333333,0,0,-1.3333333,93.44,21.334667)" />
    <path
       id="path23"
       d="M 1.99252,0 -1.19551,1.59401 0,0 -1.19551,-1.59401"
       style="fill:#000000;fill-opacity:1;fill-rule:nonzero;stroke:none"
       transform="matrix(1.3333333,0,0,-1.3333333,173.30711,71.525467)" />
    <path
       id="path24"
       d="m 11.01843,0 h 14.94416 l 7.46556,-25.96205"
       style="fill:none;stroke:#000000;stroke-width:0.3985;stroke-linecap:butt;stroke-linejoin:miter;stroke-miterlimit:10;stroke-dasharray:none;stroke-opacity:1"
       transform="matrix(1.3333333,0,0,-1.3333333,93.44,21.334667)" />
    <path
       id="path25"
       d="M 1.99252,0 -1.19551,1.59401 0,0 -1.19551,-1.59401"
       style="fill:#000000;fill-opacity:1;fill-rule:nonzero;stroke:none"
       transform="matrix(0.36842667,1.2813867,1.2813867,-0.36842667,138.01087,55.950733)" />
    <path
       id="path26"
       d="M 11.68051,-37.6431 H 24.63214"
       style="fill:none;stroke:#000000;stroke-width:0.3985;stroke-linecap:butt;stroke-linejoin:miter;stroke-miterlimit:10;stroke-dasharray:none;stroke-opacity:1"
       transform="matrix(1.3333333,0,0,-1.3333333,93.44,21.334667)" />
    <path
       id="path27"
       d="M 1.99252,0 -1.19551,1.59401 0,0 -1.19551,-1.59401"
       style="fill:#000000;fill-opacity:1;fill-rule:nonzero;stroke:none"
       transform="matrix(1.3333333,0,0,-1.3333333,126.28285,71.525467)" />
    <path
       id="path28"
       d="m 11.03278,-75.30055 h 14.94415 l 7.45639,25.97491"
       style="fill:none;stroke:#000000;stroke-width:0.3985;stroke-linecap:butt;stroke-linejoin:miter;stroke-miterlimit:10;stroke-dasharray:none;stroke-opacity:1"
       transform="matrix(1.3333333,0,0,-1.3333333,93.44,21.334667)" />
    <path
       id="path29"
       d="M 1.99252,0 -1.19551,1.59401 0,0 -1.19551,-1.59401"
       style="fill:#000000;fill-opacity:1;fill-rule:nonzero;stroke:none"
       transform="matrix(0.36786667,-1.28156,-1.28156,-0.36786667,138.01773,87.102187)" />
    <path
       id="path30"
       d="m 76.57039,-28.54015 13.10252,26.41333 h 20.43978"
       style="fill:none;stroke:#000000;stroke-width:0.3985;stroke-linecap:butt;stroke-linejoin:miter;stroke-miterlimit:10;stroke-dasharray:none;stroke-opacity:1"
       transform="matrix(1.3333333,0,0,-1.3333333,93.44,21.334667)" />
    <path
       id="path31"
       d="M 1.99252,0 -1.19551,1.59401 0,0 -1.19551,-1.59401"
       style="fill:#000000;fill-opacity:1;fill-rule:nonzero;stroke:none"
       transform="matrix(1.3333333,0,0,-1.3333333,240.25692,24.170427)" />
    <path
       id="path32"
       d="m 82.2169,-37.6431 h 27.89579"
       style="fill:none;stroke:#000000;stroke-width:0.3985;stroke-linecap:butt;stroke-linejoin:miter;stroke-miterlimit:10;stroke-dasharray:none;stroke-opacity:1"
       transform="matrix(1.3333333,0,0,-1.3333333,93.44,21.334667)" />
    <path
       id="path33"
       d="M 1.99252,0 -1.19551,1.59401 0,0 -1.19551,-1.59401"
       style="fill:#000000;fill-opacity:1;fill-rule:nonzero;stroke:none"
       transform="matrix(1.3333333,0,0,-1.3333333,240.25692,71.525467)" />
    <path
       id="path34"
       d="M 76.57039,-46.74606 89.67291,-73.1594 h 20.43978"
       style="fill:none;stroke:#000000;stroke-width:0.3985;stroke-linecap:butt;stroke-linejoin:miter;stroke-miterlimit:10;stroke-dasharray:none;stroke-opacity:1"
       transform="matrix(1.3333333,0,0,-1.3333333,93.44,21.334667)" />
    <path
       id="path35"
       d="M 1.99252,0 -1.19551,1.59401 0,0 -1.19551,-1.59401"
       style="fill:#000000;fill-opacity:1;fill-rule:nonzero;stroke:none"
       transform="matrix(1.3333333,0,0,-1.3333333,240.25692,118.88053)" />
    <path
       id="path36"
       d="m 132.67734,-2.12682 h 2.66556"
       style="fill:none;stroke:#000000;stroke-width:0.3985;stroke-linecap:butt;stroke-linejoin:miter;stroke-miterlimit:10;stroke-dasharray:none;stroke-opacity:1"
       transform="matrix(1.3333333,0,0,-1.3333333,93.44,21.334667)" />
    <path
       id="path37"
       d="M 1.99252,0 -1.19551,1.59401 0,0 -1.19551,-1.59401"
       style="fill:#000000;fill-opacity:1;fill-rule:nonzero;stroke:none"
       transform="matrix(1.3333333,0,0,-1.3333333,273.8972,24.170427)" />
    <path
       id="path38"
       d="m 2.1685391,-1.8175469 h 0.1289062 c 0.082031,0 0.2226563,0 0.2226563,-0.1640625 0,-0.1640625 -0.140625,-0.1640625 -0.2226563,-0.1640625 H 1.7232266 c -0.082031,0 -0.2109375,0 -0.2109375,0.1640625 0,0.1640625 0.1289062,0.1640625 0.2109375,0.1640625 H 1.8404141 L 1.3247891,-0.28239062 0.79744531,-1.8175469 h 0.1171875 c 0.0820313,0 0.21093749,0 0.21093749,-0.1640625 0,-0.1640625 -0.12890624,-0.1640625 -0.21093749,-0.1640625 H 0.34041406 c -0.0703125,0 -0.2109375,0 -0.2109375,0.1640625 0,0.1640625 0.140625,0.1640625 0.2109375,0.1640625 h 0.12890625 l 0.56249999,1.65234378 c 0.070312,0.1875 0.1875,0.1875 0.2929688,0.1875 0.1054687,0 0.2226562,0 0.28125,-0.1875 z m 2.5986328,0.87890628 c 0.1054687,0 0.2226562,0 0.2226562,-0.18749998 0,-0.5976563 -0.3398437,-1.0664063 -0.984375,-1.0664063 -0.609375,0 -1.0898437,0.5039063 -1.0898437,1.1132813 0,0.58593748 0.4921875,1.10156248 1.171875,1.10156248 0.6796875,0 0.9023437,-0.43359375 0.9023437,-0.5625 0,-0.10546875 -0.082031,-0.15234375 -0.1875,-0.15234375 -0.09375,0 -0.140625,0 -0.1875,0.1171875 -0.1054687,0.22265625 -0.3398437,0.26953125 -0.5039062,0.26953125 -0.3632813,0 -0.7265625,-0.234375 -0.8085938,-0.6328125 z M 3.3140469,-1.2667656 c 0.070312,-0.3398438 0.3632812,-0.5976563 0.6914062,-0.5976563 0.4453125,0 0.5625,0.3515625 0.5976563,0.5976563 z m 4.3242187,0.72656248 c 0,-0.10546875 -0.082031,-0.15234375 -0.1875,-0.15234375 -0.070312,0 -0.140625,0 -0.1875,0.1171875 -0.09375,0.2109375 -0.2929687,0.26953125 -0.46875,0.26953125 -0.4101562,0 -0.7617187,-0.33984375 -0.7617187,-0.77343748 0,-0.2460938 0.1640625,-0.7851563 0.7851562,-0.7851563 0.1523438,0 0.234375,0.011719 0.2578125,0.023437 0.011719,0 0.023437,0.011719 0.023437,0.046875 0.011719,0.1523438 0.1171875,0.234375 0.234375,0.234375 0.1523438,0 0.2460938,-0.1054687 0.2460938,-0.2460937 0,-0.3867188 -0.515625,-0.3867188 -0.75,-0.3867188 -0.8789063,0 -1.171875,0.6914063 -1.171875,1.1132813 0,0.59765623 0.46875,1.10156248 1.1132812,1.10156248 0.703125,0 0.8671875,-0.48046875 0.867188,-0.5624995 z M 9.0767422,-1.8175469 h 0.796875 c 0.070312,0 0.2109378,0 0.2109378,-0.1640625 0,-0.1640625 -0.1406253,-0.1640625 -0.2109378,-0.1640625 h -0.796875 v -0.3984375 c 0,-0.09375 0,-0.2109375 -0.1875,-0.2109375 -0.1875,0 -0.1875,0.1171875 -0.1875,0.2109375 v 0.3984375 h -0.421875 c -0.070312,0 -0.2109375,0 -0.2109375,0.1640625 0,0.1640625 0.140625,0.1640625 0.2109375,0.1640625 h 0.421875 v 1.13671878 c 0,0.5390625 0.375,0.703125 0.7265625,0.703125 0.4453125,0 0.7734373,-0.31640625 0.7734373,-0.66796875 0,-0.17578125 -0.140625,-0.17578125 -0.1875,-0.17578125 -0.1289061,0 -0.1874998,0.0585938 -0.1874998,0.17578125 -0.011719,0.2109375 -0.1875,0.33984375 -0.3867188,0.33984375 -0.3632812,0 -0.3632812,-0.26953125 -0.3632812,-0.38671875 z m 3.8759768,0.7382813 c 0,-0.609375 -0.46875,-1.1132813 -1.042969,-1.1132813 -0.585938,0 -1.054688,0.5039063 -1.054688,1.1132813 0,0.62109373 0.480469,1.10156248 1.054688,1.10156248 0.5625,0 1.042969,-0.48046875 1.042969,-1.10156248 z m -1.042969,0.77343748 c -0.363281,0 -0.667969,-0.3515625 -0.667969,-0.80859378 0,-0.4335937 0.304688,-0.75 0.667969,-0.75 0.351562,0 0.667969,0.3164063 0.667969,0.75 0,0.45703128 -0.316407,0.80859378 -0.667969,0.80859378 z m 2.449219,-0.609375 c 0,-0.53906248 0.386718,-0.92578128 0.867187,-0.92578128 0.01172,0.1875 0.152344,0.234375 0.234375,0.234375 0.128906,0 0.234375,-0.09375 0.234375,-0.234375 0,-0.1289062 -0.09375,-0.328125 -0.480469,-0.328125 -0.457031,0 -0.726562,0.2578125 -0.855468,0.3867188 v -0.1523438 c 0,-0.1640625 -0.04687,-0.2109375 -0.210938,-0.2109375 H 13.59725 c -0.05859,0 -0.210938,0 -0.210938,0.1640625 0,0.1640625 0.152344,0.1640625 0.210938,0.1640625 h 0.386719 v 1.48828128 H 13.59725 c -0.05859,0 -0.210938,0 -0.210938,0.1640625 0,0.1640625 0.152344,0.1640625 0.210938,0.1640625 h 1.289062 c 0.08203,0 0.210938,0 0.210938,-0.1640625 0,-0.1640625 -0.128906,-0.1640625 -0.210938,-0.1640625 h -0.527343 z m 0,0"
       style="fill:#000000;fill-opacity:1;fill-rule:nonzero;stroke:none"
       aria-label="vector"
       transform="matrix(1.3333333,0,0,1.3333333,281.24533,26.009333)" />
    <path
       id="path39"
       d="M 0,0 H 1.588"
       style="fill:none;stroke:#000000;stroke-width:0.398;stroke-linecap:butt;stroke-linejoin:miter;stroke-miterlimit:10;stroke-dasharray:none;stroke-opacity:1"
       transform="matrix(1.3333333,0,0,-1.3333333,302.83867,25.742667)" />
    <path
       id="path40"
       d="m 2.3679609,-1.0792656 c 0,-0.609375 -0.46875,-1.1132813 -1.0429687,-1.1132813 -0.58593751,0 -1.05468751,0.5039063 -1.05468751,1.1132813 0,0.62109373 0.48046875,1.10156248 1.05468751,1.10156248 0.5625,0 1.0429687,-0.48046875 1.0429687,-1.10156248 z m -1.0429687,0.77343748 c -0.36328126,0 -0.66796876,-0.3515625 -0.66796876,-0.80859378 0,-0.4335937 0.3046875,-0.75 0.66796876,-0.75 0.3515625,0 0.6679687,0.3164063 0.6679687,0.75 0,0.45703128 -0.3164062,0.80859378 -0.6679687,0.80859378 z M 4.81425,-1.9347344 c 0,-0.1640625 -0.046875,-0.2109375 -0.2109375,-0.2109375 h -0.375 c -0.082031,0 -0.2109375,0 -0.2109375,0.1640625 0,0.1640625 0.1289062,0.1640625 0.2109375,0.1640625 H 4.43925 v 1.04296878 c 0,0.3984375 -0.3632813,0.46875 -0.5625,0.46875 -0.375,0 -0.375,-0.140625 -0.375,-0.29296875 V -1.9347344 c 0,-0.1640625 -0.058594,-0.2109375 -0.2226563,-0.2109375 H 2.9158125 c -0.082031,0 -0.2109375,0 -0.2109375,0.1640625 0,0.1640625 0.1289062,0.1640625 0.2109375,0.1640625 h 0.1992187 v 1.24218753 c 0,0.45703125 0.3164063,0.59765625 0.7382813,0.59765625 0.2578125,0 0.4570312,-0.0703125 0.5742187,-0.1640625 0.023437,0.140625 0.140625,0.140625 0.2226563,0.140625 h 0.3632812 c 0.082031,0 0.2226563,0 0.2226563,-0.1640625 0,-0.1640625 -0.140625,-0.1640625 -0.2226563,-0.1640625 H 4.81425 Z m 1.6142578,0.1171875 h 0.796875 c 0.070312,0 0.2109375,0 0.2109375,-0.1640625 0,-0.1640625 -0.140625,-0.1640625 -0.2109375,-0.1640625 h -0.796875 v -0.3984375 c 0,-0.09375 0,-0.2109375 -0.1875,-0.2109375 -0.1875,0 -0.1875,0.1171875 -0.1875,0.2109375 v 0.3984375 h -0.421875 c -0.070312,0 -0.2109375,0 -0.2109375,0.1640625 0,0.1640625 0.140625,0.1640625 0.2109375,0.1640625 h 0.421875 v 1.13671878 c 0,0.5390625 0.375,0.703125 0.7265625,0.703125 0.4453125,0 0.7734375,-0.31640625 0.7734375,-0.66796875 0,-0.17578125 -0.140625,-0.17578125 -0.1875,-0.17578125 -0.1289062,0 -0.1875,0.0585938 -0.1875,0.17578125 -0.011719,0.2109375 -0.1875,0.33984375 -0.3867187,0.33984375 -0.3632813,0 -0.3632813,-0.26953125 -0.3632813,-0.38671875 z m 3.1757813,1.48828128 c 0,-0.19921875 -0.1640625,-0.33984375 -0.3398438,-0.33984375 -0.1992187,0 -0.3398437,0.15234375 -0.3398437,0.328125 0,0.19921875 0.1640625,0.33984375 0.3398437,0.33984375 0.1992188,0 0.3398438,-0.1640625 0.3398438,-0.328125 z m 2.4462889,-0.77343748 0.550781,-0.7148438 h 0.175782 c 0.07031,0 0.222656,0 0.222656,-0.1640625 0,-0.1640625 -0.152344,-0.1640625 -0.222656,-0.1640625 h -0.574219 c -0.07031,0 -0.210938,0 -0.210938,0.1640625 0,0.1640625 0.128907,0.1640625 0.234375,0.1640625 l -0.339843,0.4453125 -0.339844,-0.4453125 c 0.09375,0 0.234375,0 0.234375,-0.1640625 0,-0.1640625 -0.140625,-0.1640625 -0.222656,-0.1640625 h -0.574219 c -0.07031,0 -0.222656,0 -0.222656,0.1640625 0,0.1640625 0.152343,0.1640625 0.222656,0.1640625 h 0.1875 l 0.574219,0.7148438 -0.609375,0.77343748 h -0.1875 c -0.07031,0 -0.210938,0 -0.210938,0.1640625 0,0.1640625 0.152344,0.1640625 0.210938,0.1640625 h 0.574218 c 0.08203,0 0.222657,0 0.222657,-0.1640625 0,-0.1640625 -0.140625,-0.1640625 -0.246094,-0.1640625 l 0.386719,-0.57421875 0.410156,0.57421875 c -0.105469,0 -0.234375,0 -0.234375,0.1640625 0,0.1640625 0.140625,0.1640625 0.210937,0.1640625 h 0.574219 c 0.07031,0 0.222656,0 0.222656,-0.1640625 0,-0.1640625 -0.152343,-0.1640625 -0.222656,-0.1640625 h -0.1875 z m 0,0"
       style="fill:#000000;fill-opacity:1;fill-rule:nonzero;stroke:none"
       aria-label="out.x"
       transform="matrix(1.3333333,0,0,1.3333333,304.956,26.009333)" />
    <path
       id="path41"
       d="m 132.67734,-37.6431 h 2.66556"
       style="fill:none;stroke:#000000;stroke-width:0.3985;stroke-linecap:butt;stroke-linejoin:miter;stroke-miterlimit:10;stroke-dasharray:none;stroke-opacity:1"
       transform="matrix(1.3333333,0,0,-1.3333333,93.44,21.334667)" />
    <path
       id="path42"
       d="M 1.99252,0 -1.19551,1.59401 0,0 -1.19551,-1.59401"
       style="fill:#000000;fill-opacity:1;fill-rule:nonzero;stroke:none"
       transform="matrix(1.3333333,0,0,-1.3333333,273.8972,71.525467)" />
    <path
       id="path43"
       d="m 2.1685391,-1.8166562 h 0.1289062 c 0.082031,0 0.2226563,0 0.2226563,-0.1640625 0,-0.1640625 -0.140625,-0.1640625 -0.2226563,-0.1640625 H 1.7232266 c -0.082031,0 -0.2109375,0 -0.2109375,0.1640625 0,0.1640625 0.1289062,0.1640625 0.2109375,0.1640625 H 1.8404141 L 1.3247891,-0.2815 0.79744531,-1.8166562 h 0.1171875 c 0.0820313,0 0.21093749,0 0.21093749,-0.1640625 0,-0.1640625 -0.12890624,-0.1640625 -0.21093749,-0.1640625 H 0.34041406 c -0.0703125,0 -0.2109375,0 -0.2109375,0.1640625 0,0.1640625 0.140625,0.1640625 0.2109375,0.1640625 h 0.12890625 l 0.56249999,1.6523437 c 0.070312,0.1875 0.1875,0.1875 0.2929688,0.1875 0.1054687,0 0.2226562,0 0.28125,-0.1875 z M 4.7671719,-0.93775 c 0.1054687,0 0.2226562,0 0.2226562,-0.1875 0,-0.5976562 -0.3398437,-1.0664062 -0.984375,-1.0664062 -0.609375,0 -1.0898437,0.5039062 -1.0898437,1.1132812 0,0.5859375 0.4921875,1.1015625 1.171875,1.1015625 0.6796875,0 0.9023437,-0.43359375 0.9023437,-0.5625 0,-0.10546875 -0.082031,-0.15234375 -0.1875,-0.15234375 -0.09375,0 -0.140625,0 -0.1875,0.1171875 -0.1054687,0.22265625 -0.3398437,0.26953125 -0.5039062,0.26953125 -0.3632813,0 -0.7265625,-0.234375 -0.8085938,-0.6328125 z m -1.453125,-0.328125 c 0.070312,-0.3398437 0.3632812,-0.5976562 0.6914062,-0.5976562 0.4453125,0 0.5625,0.3515625 0.5976563,0.5976562 z m 4.3242187,0.7265625 c 0,-0.10546875 -0.082031,-0.15234375 -0.1875,-0.15234375 -0.070312,0 -0.140625,0 -0.1875,0.1171875 -0.09375,0.2109375 -0.2929687,0.26953125 -0.46875,0.26953125 -0.4101562,0 -0.7617187,-0.33984375 -0.7617187,-0.7734375 0,-0.2460937 0.1640625,-0.7851562 0.7851562,-0.7851562 0.1523438,0 0.234375,0.011719 0.2578125,0.023437 0.011719,0 0.023437,0.011719 0.023437,0.046875 0.011719,0.1523437 0.1171875,0.234375 0.234375,0.234375 0.1523438,0 0.2460938,-0.1054688 0.2460938,-0.2460938 0,-0.3867187 -0.515625,-0.3867187 -0.75,-0.3867187 -0.8789063,0 -1.171875,0.6914062 -1.171875,1.1132812 0,0.59765625 0.46875,1.1015625 1.1132812,1.1015625 0.703125,0 0.8671875,-0.48046875 0.867188,-0.5624995 z m 1.4384766,-1.2773437 h 0.796875 c 0.070312,0 0.2109378,0 0.2109378,-0.1640625 0,-0.1640625 -0.1406253,-0.1640625 -0.2109378,-0.1640625 h -0.796875 v -0.3984375 c 0,-0.09375 0,-0.2109375 -0.1875,-0.2109375 -0.1875,0 -0.1875,0.1171875 -0.1875,0.2109375 v 0.3984375 h -0.421875 c -0.070312,0 -0.2109375,0 -0.2109375,0.1640625 0,0.1640625 0.140625,0.1640625 0.2109375,0.1640625 h 0.421875 v 1.1367187 c 0,0.5390625 0.375,0.703125 0.7265625,0.703125 0.4453125,0 0.7734373,-0.31640625 0.7734373,-0.66796875 0,-0.17578125 -0.140625,-0.17578125 -0.1875,-0.17578125 -0.1289061,0 -0.1874998,0.0585938 -0.1874998,0.17578125 -0.011719,0.2109375 -0.1875,0.33984375 -0.3867188,0.33984375 -0.3632812,0 -0.3632812,-0.26953125 -0.3632812,-0.38671875 z m 3.8759768,0.7382812 c 0,-0.609375 -0.46875,-1.1132812 -1.042969,-1.1132812 -0.585938,0 -1.054688,0.5039062 -1.054688,1.1132812 0,0.62109375 0.480469,1.1015625 1.054688,1.1015625 0.5625,0 1.042969,-0.48046875 1.042969,-1.1015625 z m -1.042969,0.7734375 c -0.363281,0 -0.667969,-0.3515625 -0.667969,-0.8085937 0,-0.4335938 0.304688,-0.75 0.667969,-0.75 0.351562,0 0.667969,0.3164062 0.667969,0.75 0,0.4570312 -0.316407,0.8085937 -0.667969,0.8085937 z m 2.449219,-0.609375 c 0,-0.5390625 0.386718,-0.9257812 0.867187,-0.9257812 0.01172,0.1875 0.152344,0.234375 0.234375,0.234375 0.128906,0 0.234375,-0.09375 0.234375,-0.234375 0,-0.1289063 -0.09375,-0.328125 -0.480469,-0.328125 -0.457031,0 -0.726562,0.2578125 -0.855468,0.3867187 v -0.1523437 c 0,-0.1640625 -0.04687,-0.2109375 -0.210938,-0.2109375 H 13.59725 c -0.05859,0 -0.210938,0 -0.210938,0.1640625 0,0.1640625 0.152344,0.1640625 0.210938,0.1640625 h 0.386719 V -0.328375 H 13.59725 c -0.05859,0 -0.210938,0 -0.210938,0.1640625 0,0.1640625 0.152344,0.1640625 0.210938,0.1640625 h 1.289062 c 0.08203,0 0.210938,0 0.210938,-0.1640625 0,-0.1640625 -0.128906,-0.1640625 -0.210938,-0.1640625 h -0.527343 z m 0,0"
       style="fill:#000000;fill-opacity:1;fill-rule:nonzero;stroke:none"
       aria-label="vector"
       transform="matrix(1.3333333,0,0,1.3333333,281.24533,72.625333)" />
    <path
       id="path44"
       d="M 0,0 H 1.588"
       style="fill:none;stroke:#000000;stroke-width:0.398;stroke-linecap:butt;stroke-linejoin:miter;stroke-miterlimit:10;stroke-dasharray:none;stroke-opacity:1"
       transform="matrix(1.3333333,0,0,-1.3333333,302.83867,72.36)" />
    <path
       id="path45"
       d="m 2.3679609,-1.078375 c 0,-0.609375 -0.46875,-1.1132812 -1.0429687,-1.1132812 -0.58593751,0 -1.05468751,0.5039062 -1.05468751,1.1132812 0,0.62109375 0.48046875,1.1015625 1.05468751,1.1015625 0.5625,0 1.0429687,-0.48046875 1.0429687,-1.1015625 z m -1.0429687,0.7734375 c -0.36328126,0 -0.66796876,-0.3515625 -0.66796876,-0.8085937 0,-0.4335938 0.3046875,-0.75 0.66796876,-0.75 0.3515625,0 0.6679687,0.3164062 0.6679687,0.75 0,0.4570312 -0.3164062,0.8085937 -0.6679687,0.8085937 z M 4.81425,-1.9338437 c 0,-0.1640625 -0.046875,-0.2109375 -0.2109375,-0.2109375 h -0.375 c -0.082031,0 -0.2109375,0 -0.2109375,0.1640625 0,0.1640625 0.1289062,0.1640625 0.2109375,0.1640625 H 4.43925 v 1.0429687 c 0,0.3984375 -0.3632813,0.46875 -0.5625,0.46875 -0.375,0 -0.375,-0.140625 -0.375,-0.29296875 V -1.9338437 c 0,-0.1640625 -0.058594,-0.2109375 -0.2226563,-0.2109375 H 2.9158125 c -0.082031,0 -0.2109375,0 -0.2109375,0.1640625 0,0.1640625 0.1289062,0.1640625 0.2109375,0.1640625 h 0.1992187 v 1.24218745 c 0,0.45703125 0.3164063,0.59765625 0.7382813,0.59765625 0.2578125,0 0.4570312,-0.0703125 0.5742187,-0.1640625 0.023437,0.140625 0.140625,0.140625 0.2226563,0.140625 h 0.3632812 c 0.082031,0 0.2226563,0 0.2226563,-0.1640625 0,-0.1640625 -0.140625,-0.1640625 -0.2226563,-0.1640625 H 4.81425 Z m 1.6142578,0.1171875 h 0.796875 c 0.070312,0 0.2109375,0 0.2109375,-0.1640625 0,-0.1640625 -0.140625,-0.1640625 -0.2109375,-0.1640625 h -0.796875 v -0.3984375 c 0,-0.09375 0,-0.2109375 -0.1875,-0.2109375 -0.1875,0 -0.1875,0.1171875 -0.1875,0.2109375 v 0.3984375 h -0.421875 c -0.070312,0 -0.2109375,0 -0.2109375,0.1640625 0,0.1640625 0.140625,0.1640625 0.2109375,0.1640625 h 0.421875 v 1.1367187 c 0,0.5390625 0.375,0.703125 0.7265625,0.703125 0.4453125,0 0.7734375,-0.31640625 0.7734375,-0.66796875 0,-0.17578125 -0.140625,-0.17578125 -0.1875,-0.17578125 -0.1289062,0 -0.1875,0.0585938 -0.1875,0.17578125 -0.011719,0.2109375 -0.1875,0.33984375 -0.3867187,0.33984375 -0.3632813,0 -0.3632813,-0.26953125 -0.3632813,-0.38671875 z m 3.1757813,1.4882812 c 0,-0.19921875 -0.1640625,-0.33984375 -0.3398438,-0.33984375 -0.1992187,0 -0.3398437,0.15234375 -0.3398437,0.328125 0,0.19921875 0.1640625,0.33984375 0.3398437,0.33984375 0.1992188,0 0.3398438,-0.1640625 0.3398438,-0.328125 z m 3.1376949,-1.4882812 c 0.09375,0 0.222657,0 0.257813,-0.011719 0.04687,-0.023437 0.105469,-0.070312 0.105469,-0.1523437 0,-0.1640625 -0.152344,-0.1640625 -0.234375,-0.1640625 h -0.550782 c -0.08203,0 -0.234375,0 -0.234375,0.1640625 0,0.011719 0.01172,0.1054687 0.09375,0.1523437 0.03516,0.011719 0.164063,0.011719 0.246094,0.011719 -0.05859,0.1640625 -0.175781,0.515625 -0.257812,0.75 -0.07031,0.2226562 -0.1875,0.5507812 -0.210938,0.67968745 h -0.01172 c -0.01172,-0.0703125 -0.03516,-0.1640625 -0.246093,-0.70312495 l -0.28125,-0.7265625 c 0.07031,0 0.1875,0 0.222656,-0.011719 0.04687,-0.023437 0.09375,-0.070312 0.09375,-0.1523437 0,-0.1640625 -0.152344,-0.1640625 -0.234375,-0.1640625 h -0.550781 c -0.08203,0 -0.234375,0 -0.234375,0.1640625 0,0.023437 0.01172,0.1171875 0.105468,0.1523437 0.03516,0.011719 0.175782,0.011719 0.257813,0.011719 l 0.703125,1.7460937 c 0.01172,0.046875 0.01172,0.05859375 0.01172,0.0703125 0,0.01171875 -0.128907,0.41015625 -0.175782,0.50390625 -0.08203,0.1640625 -0.210937,0.28125 -0.398437,0.29296875 l 0.04687,-0.09375 c 0,-0.15234375 -0.117188,-0.234375 -0.234375,-0.234375 -0.128906,0 -0.234375,0.09375 -0.234375,0.24609375 0,0.19921875 0.164062,0.41015625 0.421875,0.41015625 0.398437,0 0.65625,-0.375 0.761719,-0.71484375 z m 0,0"
       style="fill:#000000;fill-opacity:1;fill-rule:nonzero;stroke:none"
       aria-label="out.y"
       transform="matrix(1.3333333,0,0,1.3333333,304.956,72.625333)" />
    <path
       id="path46"
       d="m 132.67734,-73.1594 h 2.66556"
       style="fill:none;stroke:#000000;stroke-width:0.3985;stroke-linecap:butt;stroke-linejoin:miter;stroke-miterlimit:10;stroke-dasharray:none;stroke-opacity:1"
       transform="matrix(1.3333333,0,0,-1.3333333,93.44,21.334667)" />
    <path
       id="path47"
       d="M 1.99252,0 -1.19551,1.59401 0,0 -1.19551,-1.59401"
       style="fill:#000000;fill-opacity:1;fill-rule:nonzero;stroke:none"
       transform="matrix(1.3333333,0,0,-1.3333333,273.8972,118.88053)" />
    <path
       id="path48"
       d="m 2.1685391,-1.8153437 h 0.1289062 c 0.082031,0 0.2226563,0 0.2226563,-0.1640625 0,-0.1640625 -0.140625,-0.1640625 -0.2226563,-0.1640625 H 1.7232266 c -0.082031,0 -0.2109375,0 -0.2109375,0.1640625 0,0.1640625 0.1289062,0.1640625 0.2109375,0.1640625 h 0.1171875 l -0.515625,1.5351562 -0.52734379,-1.5351562 h 0.1171875 c 0.0820313,0 0.21093749,0 0.21093749,-0.1640625 0,-0.1640625 -0.12890624,-0.1640625 -0.21093749,-0.1640625 H 0.34041406 c -0.0703125,0 -0.2109375,0 -0.2109375,0.1640625 0,0.1640625 0.140625,0.1640625 0.2109375,0.1640625 H 0.46932031 L 1.0318203,-0.163 c 0.070312,0.1875 0.1875,0.1875 0.2929688,0.1875 0.1054687,0 0.2226562,0 0.28125,-0.1875 z m 2.5986328,0.8789062 c 0.1054687,0 0.2226562,0 0.2226562,-0.1875 0,-0.5976562 -0.3398437,-1.0664062 -0.984375,-1.0664062 -0.609375,0 -1.0898437,0.5039062 -1.0898437,1.1132812 0,0.5859375 0.4921875,1.1015625 1.171875,1.1015625 0.6796875,0 0.9023437,-0.43359375 0.9023437,-0.5625 0,-0.10546875 -0.082031,-0.15234375 -0.1875,-0.15234375 -0.09375,0 -0.140625,0 -0.1875,0.1171875 C 4.5093594,-0.3505 4.2749844,-0.303625 4.1109219,-0.303625 c -0.3632813,0 -0.7265625,-0.234375 -0.8085938,-0.6328125 z m -1.453125,-0.328125 c 0.070312,-0.3398437 0.3632812,-0.5976562 0.6914062,-0.5976562 0.4453125,0 0.5625,0.3515625 0.5976563,0.5976562 z M 7.6382656,-0.538 c 0,-0.10546875 -0.082031,-0.15234375 -0.1875,-0.15234375 -0.070312,0 -0.140625,0 -0.1875,0.1171875 -0.09375,0.2109375 -0.2929687,0.26953125 -0.46875,0.26953125 -0.4101562,0 -0.7617187,-0.33984375 -0.7617187,-0.7734375 0,-0.2460937 0.1640625,-0.7851562 0.7851562,-0.7851562 0.1523438,0 0.234375,0.011719 0.2578125,0.023437 0.011719,0 0.023437,0.011719 0.023437,0.046875 0.011719,0.1523437 0.1171875,0.234375 0.234375,0.234375 0.1523438,0 0.2460938,-0.1054688 0.2460938,-0.2460938 0,-0.3867187 -0.515625,-0.3867187 -0.75,-0.3867187 -0.8789063,0 -1.171875,0.6914062 -1.171875,1.1132812 0,0.59765625 0.46875,1.1015625 1.1132812,1.1015625 0.703125,0 0.8671875,-0.48046875 0.867188,-0.5624995 z m 1.4384766,-1.2773437 h 0.796875 c 0.070312,0 0.2109378,0 0.2109378,-0.1640625 0,-0.1640625 -0.1406253,-0.1640625 -0.2109378,-0.1640625 h -0.796875 v -0.3984375 c 0,-0.09375 0,-0.2109375 -0.1875,-0.2109375 -0.1875,0 -0.1875,0.1171875 -0.1875,0.2109375 v 0.3984375 h -0.421875 c -0.070312,0 -0.2109375,0 -0.2109375,0.1640625 0,0.1640625 0.140625,0.1640625 0.2109375,0.1640625 h 0.421875 v 1.1367187 c 0,0.5390625 0.375,0.703125 0.7265625,0.703125 0.4453125,0 0.7734373,-0.31640625 0.7734373,-0.66796875 0,-0.17578125 -0.140625,-0.17578125 -0.1875,-0.17578125 -0.1289061,0 -0.1874998,0.0585938 -0.1874998,0.17578125 -0.011719,0.2109375 -0.1875,0.33984375 -0.3867188,0.33984375 -0.3632812,0 -0.3632812,-0.26953125 -0.3632812,-0.38671875 z m 3.8759768,0.7382812 c 0,-0.609375 -0.46875,-1.1132812 -1.042969,-1.1132812 -0.585938,0 -1.054688,0.5039062 -1.054688,1.1132812 0,0.62109375 0.480469,1.1015625 1.054688,1.1015625 0.5625,0 1.042969,-0.48046875 1.042969,-1.1015625 z M 11.90975,-0.303625 c -0.363281,0 -0.667969,-0.3515625 -0.667969,-0.8085937 0,-0.4335938 0.304688,-0.75 0.667969,-0.75 0.351562,0 0.667969,0.3164062 0.667969,0.75 0,0.4570312 -0.316407,0.8085937 -0.667969,0.8085937 z M 14.358969,-0.913 c 0,-0.5390625 0.386718,-0.9257812 0.867187,-0.9257812 0.01172,0.1875 0.152344,0.234375 0.234375,0.234375 0.128906,0 0.234375,-0.09375 0.234375,-0.234375 0,-0.1289063 -0.09375,-0.328125 -0.480469,-0.328125 -0.457031,0 -0.726562,0.2578125 -0.855468,0.3867187 v -0.1523437 c 0,-0.1640625 -0.04687,-0.2109375 -0.210938,-0.2109375 H 13.59725 c -0.05859,0 -0.210938,0 -0.210938,0.1640625 0,0.1640625 0.152344,0.1640625 0.210938,0.1640625 h 0.386719 v 1.4882812 H 13.59725 c -0.05859,0 -0.210938,0 -0.210938,0.1640625 0,0.1640625 0.152344,0.1640625 0.210938,0.1640625 h 1.289062 c 0.08203,0 0.210938,0 0.210938,-0.1640625 0,-0.1640625 -0.128906,-0.1640625 -0.210938,-0.1640625 h -0.527343 z m 0,0"
       style="fill:#000000;fill-opacity:1;fill-rule:nonzero;stroke:none"
       aria-label="vector"
       transform="matrix(1.3333333,0,0,1.3333333,281.24533,120.71733)" />
    <path
       id="path49"
       d="M 0,0 H 1.588"
       style="fill:none;stroke:#000000;stroke-width:0.398;stroke-linecap:butt;stroke-linejoin:miter;stroke-miterlimit:10;stroke-dasharray:none;stroke-opacity:1"
       transform="matrix(1.3333333,0,0,-1.3333333,302.83867,120.452)" />
    <path
       id="path50"
       d="m 2.3679609,-1.0770625 c 0,-0.609375 -0.46875,-1.1132812 -1.0429687,-1.1132812 -0.58593751,0 -1.05468751,0.5039062 -1.05468751,1.1132812 0,0.62109375 0.48046875,1.1015625 1.05468751,1.1015625 0.5625,0 1.0429687,-0.48046875 1.0429687,-1.1015625 z M 1.3249922,-0.303625 c -0.36328126,0 -0.66796876,-0.3515625 -0.66796876,-0.8085937 0,-0.4335938 0.3046875,-0.75 0.66796876,-0.75 0.3515625,0 0.6679687,0.3164062 0.6679687,0.75 0,0.4570312 -0.3164062,0.8085937 -0.6679687,0.8085937 z M 4.81425,-1.9325312 c 0,-0.1640625 -0.046875,-0.2109375 -0.2109375,-0.2109375 h -0.375 c -0.082031,0 -0.2109375,0 -0.2109375,0.1640625 0,0.1640625 0.1289062,0.1640625 0.2109375,0.1640625 H 4.43925 v 1.0429687 c 0,0.3984375 -0.3632813,0.46875 -0.5625,0.46875 -0.375,0 -0.375,-0.140625 -0.375,-0.29296875 V -1.9325312 c 0,-0.1640625 -0.058594,-0.2109375 -0.2226563,-0.2109375 H 2.9158125 c -0.082031,0 -0.2109375,0 -0.2109375,0.1640625 0,0.1640625 0.1289062,0.1640625 0.2109375,0.1640625 h 0.1992187 v 1.24218745 c 0,0.45703125 0.3164063,0.59765625 0.7382813,0.59765625 0.2578125,0 0.4570312,-0.0703125 0.5742187,-0.1640625 0.023437,0.140625 0.140625,0.140625 0.2226563,0.140625 h 0.3632812 c 0.082031,0 0.2226563,0 0.2226563,-0.1640625 0,-0.1640625 -0.140625,-0.1640625 -0.2226563,-0.1640625 H 4.81425 Z m 1.6142578,0.1171875 h 0.796875 c 0.070312,0 0.2109375,0 0.2109375,-0.1640625 0,-0.1640625 -0.140625,-0.1640625 -0.2109375,-0.1640625 h -0.796875 v -0.3984375 c 0,-0.09375 0,-0.2109375 -0.1875,-0.2109375 -0.1875,0 -0.1875,0.1171875 -0.1875,0.2109375 v 0.3984375 h -0.421875 c -0.070312,0 -0.2109375,0 -0.2109375,0.1640625 0,0.1640625 0.140625,0.1640625 0.2109375,0.1640625 h 0.421875 v 1.1367187 c 0,0.5390625 0.375,0.703125 0.7265625,0.703125 0.4453125,0 0.7734375,-0.31640625 0.7734375,-0.66796875 0,-0.17578125 -0.140625,-0.17578125 -0.1875,-0.17578125 -0.1289062,0 -0.1875,0.0585938 -0.1875,0.17578125 -0.011719,0.2109375 -0.1875,0.33984375 -0.3867187,0.33984375 -0.3632813,0 -0.3632813,-0.26953125 -0.3632813,-0.38671875 z m 3.1757813,1.4882812 c 0,-0.19921875 -0.1640625,-0.33984375 -0.3398438,-0.33984375 -0.1992187,0 -0.3398437,0.15234375 -0.3398437,0.328125 0,0.19921875 0.1640625,0.33984375 0.3398437,0.33984375 0.1992188,0 0.3398438,-0.1640625 0.3398438,-0.328125 z m 3.2783199,-1.4648437 c 0.08203,-0.070312 0.08203,-0.1054688 0.08203,-0.1640625 0,-0.1875 -0.128907,-0.1875 -0.222657,-0.1875 h -1.6875 c -0.152343,0 -0.222656,0.023437 -0.222656,0.2109375 v 0.234375 c 0,0.09375 0,0.2109375 0.1875,0.2109375 0.199219,0 0.199219,-0.1171875 0.199219,-0.2109375 v -0.1171875 h 1.171875 l -1.570313,1.45312495 c -0.07031,0.0703125 -0.07031,0.1171875 -0.07031,0.17578125 0,0.1875 0.128906,0.1875 0.210937,0.1875 h 1.804688 c 0.164062,0 0.210937,-0.03515625 0.210937,-0.2109375 v -0.29296875 c 0,-0.09375 0,-0.2109375 -0.1875,-0.2109375 -0.1875,0 -0.1875,0.1171875 -0.1875,0.2109375 v 0.17578125 h -1.277343 z m 0,0"
       style="fill:#000000;fill-opacity:1;fill-rule:nonzero;stroke:none"
       aria-label="out.z"
       transform="matrix(1.3333333,0,0,1.3333333,304.956,120.71733)" />
    <path
       id="path51"
       d="M -13.01096,0 H -29.8883"
       style="fill:none;stroke:#000000;stroke-width:0.3985;stroke-linecap:butt;stroke-linejoin:miter;stroke-miterlimit:10;stroke-dasharray:none;stroke-opacity:1"
       transform="matrix(1.3333333,0,0,-1.3333333,93.44,21.334667)" />
    <path
       id="path52"
       d="M 1.99252,0 -1.19551,1.59401 0,0 -1.19551,-1.59401"
       style="fill:#000000;fill-opacity:1;fill-rule:nonzero;stroke:none"
       transform="matrix(1.3333333,0,0,-1.3333333,76.092053,21.334667)" />
    <path
       id="path53"
       d="m 2.1667031,-1.8169453 h 0.1289063 c 0.082031,0 0.2226562,0 0.2226562,-0.1640625 0,-0.1640625 -0.140625,-0.1640625 -0.2226562,-0.1640625 H 1.7213906 c -0.082031,0 -0.2109375,0 -0.2109375,0.1640625 0,0.1640625 0.1289063,0.1640625 0.2109375,0.1640625 H 1.8385781 L 1.3229531,-0.28178906 0.79560937,-1.8169453 h 0.1171875 c 0.0820313,0 0.21093753,0 0.21093753,-0.1640625 0,-0.1640625 -0.12890628,-0.1640625 -0.21093753,-0.1640625 H 0.33857812 c -0.0703125,0 -0.2109375,0 -0.2109375,0.1640625 0,0.1640625 0.140625,0.1640625 0.2109375,0.1640625 h 0.12890625 l 0.56250003,1.65234374 c 0.070312,0.1875 0.1875,0.1875 0.2929687,0.1875 0.1054688,0 0.2226563,0 0.28125,-0.1875 z m 2.6015625,0.87890624 c 0.1054688,0 0.2226563,0 0.2226563,-0.18750004 0,-0.5976562 -0.3398438,-1.0664062 -0.984375,-1.0664062 -0.609375,0 -1.0898438,0.5039062 -1.0898438,1.1132812 0,0.58593754 0.4921875,1.10156254 1.171875,1.10156254 0.6796875,0 0.9023438,-0.43359375 0.9023438,-0.5625 0,-0.10546875 -0.082031,-0.15234375 -0.1875,-0.15234375 -0.09375,0 -0.140625,0 -0.1875,0.1171875 -0.1054688,0.22265625 -0.3398438,0.26953125 -0.5039063,0.26953125 -0.3632812,0 -0.7265625,-0.234375 -0.8085937,-0.6328125 z M 3.3151406,-1.2661641 c 0.070312,-0.3398437 0.3632813,-0.5976562 0.6914063,-0.5976562 0.4453125,0 0.5625,0.3515625 0.5976562,0.5976562 z m 4.3212891,0.72656254 c 0,-0.10546875 -0.082031,-0.15234375 -0.1875,-0.15234375 -0.070312,0 -0.140625,0 -0.1875,0.1171875 -0.09375,0.2109375 -0.2929688,0.26953125 -0.46875,0.26953125 -0.4101563,0 -0.7617188,-0.33984375 -0.7617188,-0.77343754 0,-0.2460937 0.1640625,-0.7851562 0.7851563,-0.7851562 0.1523437,0 0.234375,0.011719 0.2578125,0.023437 0.011719,0 0.023437,0.011719 0.023437,0.046875 0.011719,0.1523437 0.1171875,0.234375 0.234375,0.234375 0.1523437,0 0.2460937,-0.1054688 0.2460937,-0.2460938 0,-0.3867187 -0.515625,-0.3867187 -0.75,-0.3867187 -0.8789062,0 -1.171875,0.6914062 -1.171875,1.1132812 0,0.59765629 0.46875,1.10156254 1.1132813,1.10156254 0.703125,0 0.8671875,-0.48046875 0.867188,-0.5624995 z M 9.0778359,-1.8169453 h 0.796875 c 0.070312,0 0.2109371,0 0.2109371,-0.1640625 0,-0.1640625 -0.1406246,-0.1640625 -0.2109371,-0.1640625 h -0.796875 v -0.3984375 c 0,-0.09375 0,-0.2109375 -0.1875,-0.2109375 -0.1875,0 -0.1875,0.1171875 -0.1875,0.2109375 v 0.3984375 h -0.421875 c -0.070312,0 -0.2109375,0 -0.2109375,0.1640625 0,0.1640625 0.140625,0.1640625 0.2109375,0.1640625 h 0.421875 v 1.13671874 c 0,0.5390625 0.375,0.703125 0.7265625,0.703125 0.4453125,0 0.7734376,-0.31640625 0.7734376,-0.66796875 0,-0.17578125 -0.140625,-0.17578125 -0.1875,-0.17578125 -0.1289063,0 -0.1875001,0.0585938 -0.1875001,0.17578125 -0.011719,0.2109375 -0.1875,0.33984375 -0.3867187,0.33984375 -0.3632813,0 -0.3632813,-0.26953125 -0.3632813,-0.38671875 z m 3.8759761,0.7382812 c 0,-0.609375 -0.46875,-1.1132812 -1.042968,-1.1132812 -0.585938,0 -1.054688,0.5039062 -1.054688,1.1132812 0,0.62109379 0.480469,1.10156254 1.054688,1.10156254 0.5625,0 1.042968,-0.48046875 1.042968,-1.10156254 z m -1.042968,0.77343754 c -0.363282,0 -0.667969,-0.3515625 -0.667969,-0.80859374 0,-0.4335938 0.304687,-0.75 0.667969,-0.75 0.351562,0 0.667968,0.3164062 0.667968,0.75 0,0.45703124 -0.316406,0.80859374 -0.667968,0.80859374 z m 2.446289,-0.609375 c 0,-0.53906254 0.386719,-0.92578124 0.867187,-0.92578124 0.01172,0.1875 0.152344,0.234375 0.234375,0.234375 0.128907,0 0.234375,-0.09375 0.234375,-0.234375 0,-0.1289063 -0.09375,-0.328125 -0.480468,-0.328125 -0.457032,0 -0.726563,0.2578125 -0.855469,0.3867187 v -0.1523437 c 0,-0.1640625 -0.04687,-0.2109375 -0.210938,-0.2109375 h -0.550781 c -0.05859,0 -0.210937,0 -0.210937,0.1640625 0,0.1640625 0.152343,0.1640625 0.210937,0.1640625 h 0.386719 v 1.48828124 h -0.386719 c -0.05859,0 -0.210937,0 -0.210937,0.1640625 0,0.1640624975 0.152343,0.1640624975 0.210937,0.1640624975 h 1.289063 c 0.08203,0 0.210937,0 0.210937,-0.1640624975 0,-0.1640625 -0.128906,-0.1640625 -0.210937,-0.1640625 h -0.527344 z m 0,0"
       style="fill:#000000;fill-opacity:1;fill-rule:nonzero;stroke:none"
       aria-label="vector"
       transform="matrix(1.3333333,0,0,1.3333333,11.072,23.364)" />
    <path
       id="path54"
       d="M 0,0 H 1.588"
       style="fill:none;stroke:#000000;stroke-width:0.398;stroke-linecap:butt;stroke-linejoin:miter;stroke-miterlimit:10;stroke-dasharray:none;stroke-opacity:1"
       transform="matrix(1.3333333,0,0,-1.3333333,32.665333,23.098667)" />
    <path
       id="path55"
       d="m 1.56925,-2.7778828 c 0,-0.1523438 -0.1171875,-0.2695313 -0.2695313,-0.2695313 -0.140625,0 -0.2695312,0.1171875 -0.2695312,0.2695313 0,0.1523437 0.1289062,0.2695312 0.2695312,0.2695312 0.1523438,0 0.2695313,-0.1171875 0.2695313,-0.2695312 z m -0.9140625,0.6328125 c -0.0820313,0 -0.22265625,0 -0.22265625,0.1640625 0,0.1640625 0.15234375,0.1640625 0.22265625,0.1640625 H 1.19425 v 1.48828124 H 0.6083125 c -0.0703125,0 -0.2109375,0 -0.2109375,0.1640625 0,0.1640624975 0.140625,0.1640624975 0.2109375,0.1640624975 h 1.4648437 c 0.070312,0 0.2226563,0 0.2226563,-0.1640624975 0,-0.1640625 -0.1523438,-0.1640625 -0.2226563,-0.1640625 H 1.56925 V -1.9341328 c 0,-0.1640625 -0.046875,-0.2109375 -0.2109375,-0.2109375 z m 4.1601562,0.6914062 c 0,-0.4921875 -0.2460937,-0.7148437 -0.65625,-0.7148437 -0.375,0 -0.609375,0.1992187 -0.65625,0.2460937 0,-0.1523437 -0.023437,-0.2226562 -0.2226562,-0.2226562 H 2.9169062 c -0.082031,0 -0.2109375,0 -0.2109375,0.1640625 0,0.1640625 0.1289063,0.1640625 0.2109375,0.1640625 H 3.116125 v 1.48828124 H 2.9169062 c -0.082031,0 -0.2109375,0 -0.2109375,0.1640625 0,0.1640624975 0.1289063,0.1640624975 0.2109375,0.1640624975 h 0.7851563 c 0.082031,0 0.2109375,0 0.2109375,-0.1640624975 0,-0.1640625 -0.1289063,-0.1640625 -0.2109375,-0.1640625 H 3.5028437 V -1.1841328 c 0,-0.4804688 0.375,-0.65625 0.6328125,-0.65625 0.2226563,0 0.3046875,0.1054687 0.3046875,0.3984375 v 1.11328124 H 4.2762812 c -0.082031,0 -0.2226562,0 -0.2226562,0.1640625 0,0.1640624975 0.140625,0.1640624975 0.2226562,0.1640624975 h 0.7382813 c 0.082031,0 0.2226562,0 0.2226562,-0.1640624975 0,-0.1640625 -0.140625,-0.1640625 -0.2226562,-0.1640625 H 4.8153437 Z m 2.1416016,1.12500004 c 0,-0.19921875 -0.1640625,-0.33984375 -0.3398437,-0.33984375 -0.1992188,0 -0.3398438,0.15234375 -0.3398438,0.328125 0,0.19921875 0.1640625,0.3398437475 0.3398438,0.3398437475 0.1992187,0 0.3398437,-0.1640624975 0.3398437,-0.3281249975 z M 9.4032344,-1.1021016 9.9540156,-1.8169453 h 0.1757814 c 0.07031,0 0.222656,0 0.222656,-0.1640625 0,-0.1640625 -0.152344,-0.1640625 -0.222656,-0.1640625 H 9.5555781 c -0.070312,0 -0.2109375,0 -0.2109375,0.1640625 0,0.1640625 0.1289063,0.1640625 0.234375,0.1640625 L 9.2391719,-1.3716328 8.8993281,-1.8169453 c 0.09375,0 0.234375,0 0.234375,-0.1640625 0,-0.1640625 -0.140625,-0.1640625 -0.2226562,-0.1640625 H 8.3368281 c -0.070312,0 -0.2226562,0 -0.2226562,0.1640625 0,0.1640625 0.1523437,0.1640625 0.2226562,0.1640625 h 0.1875 l 0.5742188,0.7148437 -0.609375,0.77343754 h -0.1875 c -0.070312,0 -0.2109375,0 -0.2109375,0.1640625 0,0.1640624975 0.1523437,0.1640624975 0.2109375,0.1640624975 h 0.5742187 c 0.082031,0 0.2226563,0 0.2226563,-0.1640624975 0,-0.1640625 -0.140625,-0.1640625 -0.2460938,-0.1640625 l 0.3867188,-0.57421875 0.4101562,0.57421875 c -0.1054687,0 -0.234375,0 -0.234375,0.1640625 0,0.1640624975 0.140625,0.1640624975 0.2109375,0.1640624975 h 0.5742184 c 0.07031,0 0.222657,0 0.222657,-0.1640624975 0,-0.1640625 -0.152344,-0.1640625 -0.222657,-0.1640625 h -0.1875 z m 0,0"
       style="fill:#000000;fill-opacity:1;fill-rule:nonzero;stroke:none"
       aria-label="in.x"
       transform="matrix(1.3333333,0,0,1.3333333,34.782667,23.364)" />
    <path
       id="path56"
       d="M -13.67303,-37.6431 H -29.8883"
       style="fill:none;stroke:#000000;stroke-width:0.3985;stroke-linecap:butt;stroke-linejoin:miter;stroke-miterlimit:10;stroke-dasharray:none;stroke-opacity:1"
       transform="matrix(1.3333333,0,0,-1.3333333,93.44,21.334667)" />
    <path
       id="path57"
       d="M 1.99252,0 -1.19551,1.59401 0,0 -1.19551,-1.59401"
       style="fill:#000000;fill-opacity:1;fill-rule:nonzero;stroke:none"
       transform="matrix(1.3333333,0,0,-1.3333333,75.209293,71.525467)" />
    <path
       id="path58"
       d="m 2.1667031,-1.8161016 h 0.1289063 c 0.082031,0 0.2226562,0 0.2226562,-0.1640625 0,-0.1640625 -0.140625,-0.1640625 -0.2226562,-0.1640625 H 1.7213906 c -0.082031,0 -0.2109375,0 -0.2109375,0.1640625 0,0.1640625 0.1289063,0.1640625 0.2109375,0.1640625 H 1.8385781 L 1.3229531,-0.28094531 0.79560937,-1.8161016 h 0.1171875 c 0.0820313,0 0.21093753,0 0.21093753,-0.1640625 0,-0.1640625 -0.12890628,-0.1640625 -0.21093753,-0.1640625 H 0.33857812 c -0.0703125,0 -0.2109375,0 -0.2109375,0.1640625 0,0.1640625 0.140625,0.1640625 0.2109375,0.1640625 h 0.12890625 l 0.56250003,1.65234379 c 0.070312,0.1875 0.1875,0.1875 0.2929687,0.1875 0.1054688,0 0.2226563,0 0.28125,-0.1875 z m 2.6015625,0.87890629 c 0.1054688,0 0.2226563,0 0.2226563,-0.18749999 0,-0.5976563 -0.3398438,-1.0664063 -0.984375,-1.0664063 -0.609375,0 -1.0898438,0.5039063 -1.0898438,1.1132813 0,0.58593749 0.4921875,1.10156249 1.171875,1.10156249 0.6796875,0 0.9023438,-0.43359375 0.9023438,-0.5625 0,-0.10546875 -0.082031,-0.15234375 -0.1875,-0.15234375 -0.09375,0 -0.140625,0 -0.1875,0.1171875 -0.1054688,0.22265625 -0.3398438,0.26953125 -0.5039063,0.26953125 -0.3632812,0 -0.7265625,-0.234375 -0.8085937,-0.6328125 z M 3.3151406,-1.2653203 c 0.070312,-0.3398438 0.3632813,-0.5976563 0.6914063,-0.5976563 0.4453125,0 0.5625,0.3515625 0.5976562,0.5976563 z m 4.3212891,0.72656249 c 0,-0.10546875 -0.082031,-0.15234375 -0.1875,-0.15234375 -0.070312,0 -0.140625,0 -0.1875,0.1171875 -0.09375,0.2109375 -0.2929688,0.26953125 -0.46875,0.26953125 -0.4101563,0 -0.7617188,-0.33984375 -0.7617188,-0.77343749 0,-0.2460938 0.1640625,-0.7851563 0.7851563,-0.7851563 0.1523437,0 0.234375,0.011719 0.2578125,0.023437 0.011719,0 0.023437,0.011719 0.023437,0.046875 0.011719,0.1523438 0.1171875,0.234375 0.234375,0.234375 0.1523437,0 0.2460937,-0.1054687 0.2460937,-0.2460937 0,-0.3867188 -0.515625,-0.3867188 -0.75,-0.3867188 -0.8789062,0 -1.171875,0.6914063 -1.171875,1.1132813 0,0.59765624 0.46875,1.10156249 1.1132813,1.10156249 0.703125,0 0.8671875,-0.48046875 0.867188,-0.5624995 z M 9.0778359,-1.8161016 h 0.796875 c 0.070312,0 0.2109371,0 0.2109371,-0.1640625 0,-0.1640625 -0.1406246,-0.1640625 -0.2109371,-0.1640625 h -0.796875 v -0.3984375 c 0,-0.09375 0,-0.2109375 -0.1875,-0.2109375 -0.1875,0 -0.1875,0.1171875 -0.1875,0.2109375 v 0.3984375 h -0.421875 c -0.070312,0 -0.2109375,0 -0.2109375,0.1640625 0,0.1640625 0.140625,0.1640625 0.2109375,0.1640625 h 0.421875 v 1.13671879 c 0,0.5390625 0.375,0.703125 0.7265625,0.703125 0.4453125,0 0.7734376,-0.31640625 0.7734376,-0.66796875 0,-0.17578125 -0.140625,-0.17578125 -0.1875,-0.17578125 -0.1289063,0 -0.1875001,0.0585938 -0.1875001,0.17578125 -0.011719,0.2109375 -0.1875,0.33984375 -0.3867187,0.33984375 -0.3632813,0 -0.3632813,-0.26953125 -0.3632813,-0.38671875 z m 3.8759761,0.7382813 c 0,-0.609375 -0.46875,-1.1132813 -1.042968,-1.1132813 -0.585938,0 -1.054688,0.5039063 -1.054688,1.1132813 0,0.62109374 0.480469,1.10156249 1.054688,1.10156249 0.5625,0 1.042968,-0.48046875 1.042968,-1.10156249 z m -1.042968,0.77343749 c -0.363282,0 -0.667969,-0.3515625 -0.667969,-0.80859379 0,-0.4335937 0.304687,-0.75 0.667969,-0.75 0.351562,0 0.667968,0.3164063 0.667968,0.75 0,0.45703129 -0.316406,0.80859379 -0.667968,0.80859379 z m 2.446289,-0.609375 c 0,-0.53906249 0.386719,-0.92578129 0.867187,-0.92578129 0.01172,0.1875 0.152344,0.234375 0.234375,0.234375 0.128907,0 0.234375,-0.09375 0.234375,-0.234375 0,-0.1289062 -0.09375,-0.328125 -0.480468,-0.328125 -0.457032,0 -0.726563,0.2578125 -0.855469,0.3867188 v -0.1523438 c 0,-0.1640625 -0.04687,-0.2109375 -0.210938,-0.2109375 h -0.550781 c -0.05859,0 -0.210937,0 -0.210937,0.1640625 0,0.1640625 0.152343,0.1640625 0.210937,0.1640625 h 0.386719 v 1.48828129 h -0.386719 c -0.05859,0 -0.210937,0 -0.210937,0.1640625 0,0.1640624975 0.152343,0.1640624975 0.210937,0.1640624975 h 1.289063 c 0.08203,0 0.210937,0 0.210937,-0.1640624975 0,-0.1640625 -0.128906,-0.1640625 -0.210937,-0.1640625 h -0.527344 z m 0,0"
       style="fill:#000000;fill-opacity:1;fill-rule:nonzero;stroke:none"
       aria-label="vector"
       transform="matrix(1.3333333,0,0,1.3333333,11.072,72.816)" />
    <path
       id="path59"
       d="M 0,0 H 1.588"
       style="fill:none;stroke:#000000;stroke-width:0.398;stroke-linecap:butt;stroke-linejoin:miter;stroke-miterlimit:10;stroke-dasharray:none;stroke-opacity:1"
       transform="matrix(1.3333333,0,0,-1.3333333,32.665333,72.550667)" />
    <path
       id="path60"
       d="m 1.56925,-2.7770391 c 0,-0.1523437 -0.1171875,-0.2695312 -0.2695313,-0.2695312 -0.140625,0 -0.2695312,0.1171875 -0.2695312,0.2695312 0,0.1523438 0.1289062,0.2695313 0.2695312,0.2695313 0.1523438,0 0.2695313,-0.1171875 0.2695313,-0.2695313 z m -0.9140625,0.6328125 c -0.0820313,0 -0.22265625,0 -0.22265625,0.1640625 0,0.1640625 0.15234375,0.1640625 0.22265625,0.1640625 H 1.19425 v 1.48828129 H 0.6083125 c -0.0703125,0 -0.2109375,0 -0.2109375,0.1640625 0,0.1640624975 0.140625,0.1640624975 0.2109375,0.1640624975 h 1.4648437 c 0.070312,0 0.2226563,0 0.2226563,-0.1640624975 0,-0.1640625 -0.1523438,-0.1640625 -0.2226563,-0.1640625 H 1.56925 V -1.9332891 c 0,-0.1640625 -0.046875,-0.2109375 -0.2109375,-0.2109375 z m 4.1601562,0.6914063 c 0,-0.4921875 -0.2460937,-0.7148438 -0.65625,-0.7148438 -0.375,0 -0.609375,0.1992188 -0.65625,0.2460938 0,-0.1523438 -0.023437,-0.2226563 -0.2226562,-0.2226563 H 2.9169062 c -0.082031,0 -0.2109375,0 -0.2109375,0.1640625 0,0.1640625 0.1289063,0.1640625 0.2109375,0.1640625 H 3.116125 v 1.48828129 H 2.9169062 c -0.082031,0 -0.2109375,0 -0.2109375,0.1640625 0,0.1640624975 0.1289063,0.1640624975 0.2109375,0.1640624975 h 0.7851563 c 0.082031,0 0.2109375,0 0.2109375,-0.1640624975 0,-0.1640625 -0.1289063,-0.1640625 -0.2109375,-0.1640625 H 3.5028437 V -1.1832891 c 0,-0.4804687 0.375,-0.65625 0.6328125,-0.65625 0.2226563,0 0.3046875,0.1054688 0.3046875,0.3984375 v 1.11328129 H 4.2762812 c -0.082031,0 -0.2226562,0 -0.2226562,0.1640625 0,0.1640624975 0.140625,0.1640624975 0.2226562,0.1640624975 h 0.7382813 c 0.082031,0 0.2226562,0 0.2226562,-0.1640624975 0,-0.1640625 -0.140625,-0.1640625 -0.2226562,-0.1640625 H 4.8153437 Z m 2.1416016,1.12499999 c 0,-0.19921875 -0.1640625,-0.33984375 -0.3398437,-0.33984375 -0.1992188,0 -0.3398438,0.15234375 -0.3398438,0.328125 0,0.19921875 0.1640625,0.3398437475 0.3398438,0.3398437475 0.1992187,0 0.3398437,-0.1640624975 0.3398437,-0.3281249975 z M 10.094641,-1.8161016 c 0.09375,0 0.222656,0 0.257812,-0.011719 0.04687,-0.023437 0.105469,-0.070312 0.105469,-0.1523438 0,-0.1640625 -0.152344,-0.1640625 -0.234375,-0.1640625 H 9.6727656 c -0.082031,0 -0.234375,0 -0.234375,0.1640625 0,0.011719 0.011719,0.1054688 0.09375,0.1523438 0.035156,0.011719 0.1640625,0.011719 0.2460938,0.011719 -0.058594,0.1640625 -0.1757813,0.515625 -0.2578125,0.75 -0.070312,0.22265629 -0.1875,0.55078129 -0.2109375,0.67968754 h -0.011719 c -0.011719,-0.0703125 -0.035156,-0.1640625 -0.2460937,-0.70312504 l -0.28125,-0.7265625 c 0.070312,0 0.1875,0 0.2226562,-0.011719 0.046875,-0.023437 0.09375,-0.070312 0.09375,-0.1523438 0,-0.1640625 -0.1523437,-0.1640625 -0.234375,-0.1640625 h -0.550781 c -0.082031,0 -0.234375,0 -0.234375,0.1640625 0,0.023437 0.011719,0.1171875 0.1054687,0.1523438 0.035156,0.011719 0.1757813,0.011719 0.2578125,0.011719 l 0.703125,1.74609379 c 0.011719,0.046875 0.011719,0.05859375 0.011719,0.0703124975 0,0.0117187525 -0.1289063,0.4101562525 -0.1757813,0.5039062525 -0.082031,0.1640625 -0.2109375,0.28125 -0.3984375,0.29296875 l 0.046875,-0.09375 c 0,-0.15234375 -0.1171875,-0.234375 -0.234375,-0.234375 -0.1289062,0 -0.234375,0.09375 -0.234375,0.24609375 0,0.19921875 0.1640625,0.41015626 0.421875,0.41015626 0.3984375,0 0.65625,-0.37500001 0.7617188,-0.71484376 z m 0,0"
       style="fill:#000000;fill-opacity:1;fill-rule:nonzero;stroke:none"
       aria-label="in.y"
       transform="matrix(1.3333333,0,0,1.3333333,34.782667,72.816)" />
    <path
       id="path61"
       d="m -13.0253,-75.30055 h -16.863"
       style="fill:none;stroke:#000000;stroke-width:0.3985;stroke-linecap:butt;stroke-linejoin:miter;stroke-miterlimit:10;stroke-dasharray:none;stroke-opacity:1"
       transform="matrix(1.3333333,0,0,-1.3333333,93.44,21.334667)" />
    <path
       id="path62"
       d="M 1.99252,0 -1.19551,1.59401 0,0 -1.19551,-1.59401"
       style="fill:#000000;fill-opacity:1;fill-rule:nonzero;stroke:none"
       transform="matrix(1.3333333,0,0,-1.3333333,76.072933,121.7354)" />
    <path
       id="path63"
       d="m 2.1667031,-1.8151875 h 0.1289063 c 0.082031,0 0.2226562,0 0.2226562,-0.1640625 0,-0.1640625 -0.140625,-0.1640625 -0.2226562,-0.1640625 H 1.7213906 c -0.082031,0 -0.2109375,0 -0.2109375,0.1640625 0,0.1640625 0.1289063,0.1640625 0.2109375,0.1640625 H 1.8385781 L 1.3229531,-0.28003125 0.79560937,-1.8151875 h 0.1171875 c 0.0820313,0 0.21093753,0 0.21093753,-0.1640625 0,-0.1640625 -0.12890628,-0.1640625 -0.21093753,-0.1640625 H 0.33857812 c -0.0703125,0 -0.2109375,0 -0.2109375,0.1640625 0,0.1640625 0.140625,0.1640625 0.2109375,0.1640625 h 0.12890625 l 0.56250003,1.65234375 c 0.070312,0.1875 0.1875,0.1875 0.2929687,0.1875 0.1054688,0 0.2226563,0 0.28125,-0.1875 z m 2.6015625,0.87890625 c 0.1054688,0 0.2226563,0 0.2226563,-0.18749995 0,-0.5976563 -0.3398438,-1.0664063 -0.984375,-1.0664063 -0.609375,0 -1.0898438,0.5039063 -1.0898438,1.1132813 0,0.58593745 0.4921875,1.10156245 1.171875,1.10156245 0.6796875,0 0.9023438,-0.43359375 0.9023438,-0.5625 0,-0.10546875 -0.082031,-0.15234375 -0.1875,-0.15234375 -0.09375,0 -0.140625,0 -0.1875,0.1171875 -0.1054688,0.22265625 -0.3398438,0.26953125 -0.5039063,0.26953125 -0.3632812,0 -0.7265625,-0.234375 -0.8085937,-0.6328125 z M 3.3151406,-1.2644062 c 0.070312,-0.3398438 0.3632813,-0.5976563 0.6914063,-0.5976563 0.4453125,0 0.5625,0.3515625 0.5976562,0.5976563 z m 4.3212891,0.72656245 c 0,-0.10546875 -0.082031,-0.15234375 -0.1875,-0.15234375 -0.070312,0 -0.140625,0 -0.1875,0.1171875 -0.09375,0.2109375 -0.2929688,0.26953125 -0.46875,0.26953125 -0.4101563,0 -0.7617188,-0.33984375 -0.7617188,-0.77343745 0,-0.2460938 0.1640625,-0.7851563 0.7851563,-0.7851563 0.1523437,0 0.234375,0.011719 0.2578125,0.023437 0.011719,0 0.023437,0.011719 0.023437,0.046875 0.011719,0.1523438 0.1171875,0.234375 0.234375,0.234375 0.1523437,0 0.2460937,-0.1054687 0.2460937,-0.2460937 0,-0.3867188 -0.515625,-0.3867188 -0.75,-0.3867188 -0.8789062,0 -1.171875,0.6914063 -1.171875,1.1132813 0,0.5976562 0.46875,1.10156245 1.1132813,1.10156245 0.703125,0 0.8671875,-0.48046875 0.867188,-0.5624995 z M 9.0778359,-1.8151875 h 0.796875 c 0.070312,0 0.2109371,0 0.2109371,-0.1640625 0,-0.1640625 -0.1406246,-0.1640625 -0.2109371,-0.1640625 H 9.0778359 V -2.54175 c 0,-0.09375 0,-0.2109375 -0.1875,-0.2109375 -0.1875,0 -0.1875,0.1171875 -0.1875,0.2109375 v 0.3984375 h -0.421875 c -0.070312,0 -0.2109375,0 -0.2109375,0.1640625 0,0.1640625 0.140625,0.1640625 0.2109375,0.1640625 h 0.421875 v 1.13671875 c 0,0.5390625 0.375,0.703125 0.7265625,0.703125 0.4453125,0 0.7734376,-0.31640625 0.7734376,-0.66796875 0,-0.17578125 -0.140625,-0.17578125 -0.1875,-0.17578125 -0.1289063,0 -0.1875001,0.0585938 -0.1875001,0.17578125 -0.011719,0.2109375 -0.1875,0.33984375 -0.3867187,0.33984375 -0.3632813,0 -0.3632813,-0.26953125 -0.3632813,-0.38671875 z m 3.8759761,0.7382813 c 0,-0.609375 -0.46875,-1.1132813 -1.042968,-1.1132813 -0.585938,0 -1.054688,0.5039063 -1.054688,1.1132813 0,0.6210937 0.480469,1.10156245 1.054688,1.10156245 0.5625,0 1.042968,-0.48046875 1.042968,-1.10156245 z m -1.042968,0.77343745 c -0.363282,0 -0.667969,-0.3515625 -0.667969,-0.80859375 0,-0.4335937 0.304687,-0.75 0.667969,-0.75 0.351562,0 0.667968,0.3164063 0.667968,0.75 0,0.45703125 -0.316406,0.80859375 -0.667968,0.80859375 z m 2.446289,-0.609375 c 0,-0.53906245 0.386719,-0.92578125 0.867187,-0.92578125 0.01172,0.1875 0.152344,0.234375 0.234375,0.234375 0.128907,0 0.234375,-0.09375 0.234375,-0.234375 0,-0.1289062 -0.09375,-0.328125 -0.480468,-0.328125 -0.457032,0 -0.726563,0.2578125 -0.855469,0.3867188 V -1.932375 c 0,-0.1640625 -0.04687,-0.2109375 -0.210938,-0.2109375 h -0.550781 c -0.05859,0 -0.210937,0 -0.210937,0.1640625 0,0.1640625 0.152343,0.1640625 0.210937,0.1640625 h 0.386719 v 1.48828125 h -0.386719 c -0.05859,0 -0.210937,0 -0.210937,0.1640625 0,0.1640625 0.152343,0.1640625 0.210937,0.1640625 h 1.289063 c 0.08203,0 0.210937,0 0.210937,-0.1640625 0,-0.1640625 -0.128906,-0.1640625 -0.210937,-0.1640625 h -0.527344 z m 0,0"
       style="fill:#000000;fill-opacity:1;fill-rule:nonzero;stroke:none"
       aria-label="vector"
       transform="matrix(1.3333333,0,0,1.3333333,11.072,123.764)" />
    <path
       id="path64"
       d="M 0,0 H 1.588"
       style="fill:none;stroke:#000000;stroke-width:0.398;stroke-linecap:butt;stroke-linejoin:miter;stroke-miterlimit:10;stroke-dasharray:none;stroke-opacity:1"
       transform="matrix(1.3333333,0,0,-1.3333333,32.665333,123.49867)" />
    <path
       id="path65"
       d="m 1.56925,-2.776125 c 0,-0.1523437 -0.1171875,-0.2695312 -0.2695313,-0.2695312 -0.140625,0 -0.2695312,0.1171875 -0.2695312,0.2695312 0,0.1523438 0.1289062,0.2695313 0.2695312,0.2695313 0.1523438,0 0.2695313,-0.1171875 0.2695313,-0.2695313 z m -0.9140625,0.6328125 c -0.0820313,0 -0.22265625,0 -0.22265625,0.1640625 0,0.1640625 0.15234375,0.1640625 0.22265625,0.1640625 H 1.19425 v 1.48828125 H 0.6083125 c -0.0703125,0 -0.2109375,0 -0.2109375,0.1640625 0,0.1640625 0.140625,0.1640625 0.2109375,0.1640625 h 1.4648437 c 0.070312,0 0.2226563,0 0.2226563,-0.1640625 0,-0.1640625 -0.1523438,-0.1640625 -0.2226563,-0.1640625 H 1.56925 V -1.932375 c 0,-0.1640625 -0.046875,-0.2109375 -0.2109375,-0.2109375 z m 4.1601562,0.6914063 c 0,-0.4921875 -0.2460937,-0.7148438 -0.65625,-0.7148438 -0.375,0 -0.609375,0.1992188 -0.65625,0.2460938 0,-0.1523438 -0.023437,-0.2226563 -0.2226562,-0.2226563 H 2.9169062 c -0.082031,0 -0.2109375,0 -0.2109375,0.1640625 0,0.1640625 0.1289063,0.1640625 0.2109375,0.1640625 H 3.116125 v 1.48828125 H 2.9169062 c -0.082031,0 -0.2109375,0 -0.2109375,0.1640625 0,0.1640625 0.1289063,0.1640625 0.2109375,0.1640625 h 0.7851563 c 0.082031,0 0.2109375,0 0.2109375,-0.1640625 0,-0.1640625 -0.1289063,-0.1640625 -0.2109375,-0.1640625 H 3.5028437 V -1.182375 c 0,-0.4804687 0.375,-0.65625 0.6328125,-0.65625 0.2226563,0 0.3046875,0.1054688 0.3046875,0.3984375 v 1.11328125 H 4.2762812 c -0.082031,0 -0.2226562,0 -0.2226562,0.1640625 0,0.1640625 0.140625,0.1640625 0.2226562,0.1640625 h 0.7382813 c 0.082031,0 0.2226562,0 0.2226562,-0.1640625 0,-0.1640625 -0.140625,-0.1640625 -0.2226562,-0.1640625 H 4.8153437 Z m 2.1416016,1.12499995 c 0,-0.19921875 -0.1640625,-0.33984375 -0.3398437,-0.33984375 -0.1992188,0 -0.3398438,0.15234375 -0.3398438,0.328125 0,0.19921875 0.1640625,0.33984375 0.3398438,0.33984375 0.1992187,0 0.3398437,-0.1640625 0.3398437,-0.328125 z M 10.235266,-1.79175 c 0.08203,-0.070312 0.08203,-0.1054687 0.08203,-0.1640625 0,-0.1875 -0.128906,-0.1875 -0.222656,-0.1875 H 8.4071406 c -0.1523437,0 -0.2226562,0.023437 -0.2226562,0.2109375 V -1.698 c 0,0.09375 0,0.2109375 0.1875,0.2109375 0.1992187,0 0.1992187,-0.1171875 0.1992187,-0.2109375 v -0.1171875 h 1.171875 l -1.5703125,1.453125 c -0.070312,0.0703125 -0.070312,0.1171875 -0.070312,0.17578125 0,0.1875 0.1289063,0.1875 0.2109375,0.1875 h 1.8046879 c 0.164063,0 0.210938,-0.03515625 0.210938,-0.2109375 V -0.5026875 c 0,-0.09375 0,-0.2109375 -0.1875,-0.2109375 -0.1875009,0 -0.1875009,0.1171875 -0.1875009,0.2109375 v 0.17578125 H 8.6766719 Z m 0,0"
       style="fill:#000000;fill-opacity:1;fill-rule:nonzero;stroke:none"
       aria-label="in.z"
       transform="matrix(1.3333333,0,0,1.3333333,34.782667,123.764)" />
    <path
       id="path66"
       d="m 122.39127,-14.4054 v -5.47953 H -20.45335 V 0"
       style="fill:none;stroke:#000000;stroke-width:0.3985;stroke-linecap:butt;stroke-linejoin:miter;stroke-miterlimit:10;stroke-dasharray:none;stroke-opacity:1"
       transform="matrix(1.3333333,0,0,-1.3333333,93.44,21.334667)" />
    <path
       id="path67"
       d="M 1.99252,0 -1.19551,1.59401 0,0 -1.19551,-1.59401"
       style="fill:#000000;fill-opacity:1;fill-rule:nonzero;stroke:none"
       transform="matrix(0,-1.3333333,-1.3333333,0,256.62836,40.541867)" />
    <path
       id="path68"
       d="m -19.20801,0 c 0,0.68777 -0.55757,1.24535 -1.24534,1.24535 -0.68779,0 -1.24535,-0.55758 -1.24535,-1.24535 0,-0.68777 0.55756,-1.24535 1.24535,-1.24535 0.68777,0 1.24534,0.55758 1.24534,1.24535 z"
       style="fill:#000000;fill-opacity:1;fill-rule:nonzero;stroke:none"
       transform="matrix(1.3333333,0,0,-1.3333333,93.44,21.334667)" />
    <path
       id="path69"
       d="m 122.39127,-49.92169 v -5.47954 H -20.45335 v 17.75813"
       style="fill:none;stroke:#000000;stroke-width:0.3985;stroke-linecap:butt;stroke-linejoin:miter;stroke-miterlimit:10;stroke-dasharray:none;stroke-opacity:1"
       transform="matrix(1.3333333,0,0,-1.3333333,93.44,21.334667)" />
    <path
       id="path70"
       d="M 1.99252,0 -1.19551,1.59401 0,0 -1.19551,-1.59401"
       style="fill:#000000;fill-opacity:1;fill-rule:nonzero;stroke:none"
       transform="matrix(0,-1.3333333,-1.3333333,0,256.62836,87.89692)" />
    <path
       id="path71"
       d="m -19.20801,-37.6431 c 0,0.68778 -0.55757,1.24535 -1.24534,1.24535 -0.68779,0 -1.24535,-0.55757 -1.24535,-1.24535 0,-0.68779 0.55756,-1.24534 1.24535,-1.24534 0.68777,0 1.24534,0.55755 1.24534,1.24534 z"
       style="fill:#000000;fill-opacity:1;fill-rule:nonzero;stroke:none"
       transform="matrix(1.3333333,0,0,-1.3333333,93.44,21.334667)" />
    <path
       id="path72"
       d="m 122.39127,-85.43799 v -5.47955 H -20.45335 v 15.61699"
       style="fill:none;stroke:#000000;stroke-width:0.3985;stroke-linecap:butt;stroke-linejoin:miter;stroke-miterlimit:10;stroke-dasharray:none;stroke-opacity:1"
       transform="matrix(1.3333333,0,0,-1.3333333,93.44,21.334667)" />
    <path
       id="path73"
       d="M 1.99252,0 -1.19551,1.59401 0,0 -1.19551,-1.59401"
       style="fill:#000000;fill-opacity:1;fill-rule:nonzero;stroke:none"
       transform="matrix(0,-1.3333333,-1.3333333,0,256.62836,135.25199)" />
    <path
       id="path74"
       d="m -19.20801,-75.30055 c 0,0.68777 -0.55757,1.24535 -1.24534,1.24535 -0.68779,0 -1.24535,-0.55758 -1.24535,-1.24535 0,-0.68779 0.55756,-1.24535 1.24535,-1.24535 0.68777,0 1.24534,0.55756 1.24534,1.24535 z"
       style="fill:#000000;fill-opacity:1;fill-rule:nonzero;stroke:none"
       transform="matrix(1.3333333,0,0,-1.3333333,93.44,21.334667)" />
  </g>
</svg>
