<?xml version="1.0" encoding="UTF-8" standalone="no"?>
<!-- Created with Inkscape (http://www.inkscape.org/) -->

<svg
   version="1.1"
   id="svg1"
   width="600.67865"
   height="160.468"
   viewBox="0 0 600.67865 160.468"
   sodipodi:docname="main.pdf"
   xmlns:inkscape="http://www.inkscape.org/namespaces/inkscape"
   xmlns:sodipodi="http://sodipodi.sourceforge.net/DTD/sodipodi-0.dtd"
   xmlns="http://www.w3.org/2000/svg"
   xmlns:svg="http://www.w3.org/2000/svg">
  <defs
     id="defs1" />
  <sodipodi:namedview
     id="namedview1"
     pagecolor="#ffffff"
     bordercolor="#000000"
     borderopacity="0.25"
     inkscape:showpageshadow="2"
     inkscape:pageopacity="0.0"
     inkscape:pagecheckerboard="0"
     inkscape:deskcolor="#d1d1d1">
    <inkscape:page
       x="0"
       y="0"
       inkscape:label="1"
       id="page1"
       width="600.67865"
       height="160.468"
       margin="0"
       bleed="0" />
  </sodipodi:namedview>
  <g
     id="g1"
     inkscape:groupmode="layer"
     inkscape:label="1">
    <path
       id="path1"
       d="M 0,0 H 450.509 V 120.351 H 0 Z"
       style="fill:#ffffff;fill-opacity:1;fill-rule:nonzero;stroke:none"
       transform="matrix(1.3333333,0,0,-1.3333333,0,160.468)" />
    <path
       id="path2"
       d="M -224.75748,-59.67639 H 224.75747 V 59.67641 H -224.75748 Z"
       style="fill:#ffffff;fill-opacity:1;fill-rule:nonzero;stroke:none"
       transform="matrix(1.3333333,0,0,-1.3333333,300.34,80.233333)" />
    <path
       id="path3"
       d="M 4.2195859,-9.6920078 H 3.9500547 c -0.234375,0.2226562 -0.9257813,0.9023437 -2.4726563,0.9257812 -0.1992187,0 -0.2109375,0.011719 -0.2109375,0.2695313 v 0.5742187 c 0.8671875,0 1.5351563,-0.2109375 1.828125,-0.3398437 v 7.42968749 H 1.3484922 V -6.015625e-4 H 5.9656797 V -0.83263281 H 4.2195859 Z m 4.959961,1.1835937 h 3.6796871 v -0.890625 H 8.1600156 v 5.2851563 h 0.9257813 c 0.3632812,-0.8203125 0.9960941,-1.1367188 1.5820311,-1.1367188 0.667969,0 1.429688,0.5976563 1.429688,2.3085938 0,1.8046875 -1.03125,2.37890624 -1.863282,2.37890624 -0.7851559,0 -1.7343746,-0.421875 -2.1914059,-1.33593754 l -0.46875,0.7851563 c 0.9375,1.34765624 2.2851563,1.41796874 2.6718749,1.41796874 1.699219,0 3.09375,-1.41796874 3.09375,-3.21093754 0,-1.7929687 -1.207031,-3.1992187 -2.660156,-3.1992187 -0.574219,0 -1.1015626,0.2109375 -1.5000001,0.5742187 z M 30.217633,-9.6920078 h -0.269531 c -0.234375,0.2226562 -0.925782,0.9023437 -2.472657,0.9257812 -0.199218,0 -0.210937,0.011719 -0.210937,0.2695313 v 0.5742187 c 0.867187,0 1.535156,-0.2109375 1.828125,-0.3398437 v 7.42968749 h -1.746094 v 0.8320312475 h 4.617188 V -0.83263281 h -1.746094 z m 8.041992,7.21875 h 1.382812 v -0.8554688 h -1.382812 v -6.0703125 h -1.289063 l -3.5625,6.0703125 v 0.8554688 h 3.714844 v 2.4726562375 h 1.136719 z m -3.75,-0.8554688 c 0.421875,-0.7265625 0.984375,-1.6523437 1.582031,-2.8007812 0.175781,-0.328125 1.101563,-2.0859375 1.101563,-2.625 v 5.4257812 z m 21.720703,-6.3632812 h -0.269531 c -0.234375,0.2226562 -0.925781,0.9023437 -2.472656,0.9257812 -0.199219,0 -0.210938,0.011719 -0.210938,0.2695313 v 0.5742187 c 0.867188,0 1.535156,-0.2109375 1.828125,-0.3398437 v 7.42968749 h -1.746094 v 0.8320312475 h 4.617188 V -0.83263281 h -1.746094 z m 4.081055,2.34375 c 0.363281,-0.9140625 1.230469,-1.5351563 2.191406,-1.5351563 0.738281,0 1.417969,0.421875 1.417969,1.3476563 0,0.9609375 -0.65625,1.7578125 -1.429688,1.921875 -0.07031,0.023437 -0.972656,0.09375 -1.113281,0.1054687 v 0.8554688 h 1.007813 c 1.476562,0 1.839843,1.265625 1.839843,2.0507812 0,1.171875 -0.703125,2.03906254 -1.734375,2.03906254 -0.914062,0 -2.050781,-0.45703124 -2.707031,-1.48828124 l -0.164062,0.84375 c 0.9375,1.27734374 2.191406,1.51171874 2.894531,1.51171874 1.6875,0 2.941406,-1.37109374 2.941406,-2.88281254 0,-1.1132812 -0.726562,-2.0859375 -1.945312,-2.4960937 1.007812,-0.5507813 1.558593,-1.5117188 1.558593,-2.4609375 0,-1.2304688 -1.160156,-2.15625 -2.554687,-2.15625 -1.136719,0 -2.15625,0.6210937 -2.707031,1.5703125 z m 21.916992,-2.34375 h -0.269531 c -0.234375,0.2226562 -0.925782,0.9023437 -2.472657,0.9257812 -0.199218,0 -0.210937,0.011719 -0.210937,0.2695313 v 0.5742187 c 0.867187,0 1.535156,-0.2109375 1.828125,-0.3398437 v 7.42968749 h -1.746094 v 0.8320312475 h 4.617188 V -0.83263281 h -1.746094 z m 3.506836,8.78906249 v 0.9023437475 h 5.613281 V -0.97325781 h -2.554687 c -0.175782,0 -0.351563,0.0117188 -0.515625,0.0117188 h -1.535157 c 0.363282,-0.38671869 1.699219,-1.71093749 2.636719,-2.54296879 1.054688,-0.9257812 1.96875,-1.8164062 1.96875,-3.1406249 0,-1.5937501 -1.113281,-3.0468751 -3,-3.0468751 -1.546875,0 -2.34375,1.0078125 -2.730469,2.3437501 0.457032,0.5742187 0.457032,0.609375 0.585938,0.7734375 0.363281,-1.5351564 0.890625,-2.2382814 1.957031,-2.2382814 1.230469,0 2.039063,0.9609375 2.039063,2.203125 0,0.7382813 -0.304688,1.5703125 -1.265625,2.5195314 z M 108.22642,-9.6920078 h -0.26953 c -0.23437,0.2226562 -0.92578,0.9023437 -2.47266,0.9257812 -0.19921,0 -0.21093,0.011719 -0.21093,0.2695313 v 0.5742187 c 0.86718,0 1.53515,-0.2109375 1.82812,-0.3398437 v 7.42968749 h -1.74609 v 0.8320312475 h 4.61719 V -0.83263281 h -1.7461 z m 7.02246,0 h -0.26953 c -0.23437,0.2226562 -0.92578,0.9023437 -2.47265,0.9257812 -0.19922,0 -0.21094,0.011719 -0.21094,0.2695313 v 0.5742187 c 0.86719,0 1.53515,-0.2109375 1.82812,-0.3398437 v 7.42968749 h -1.74609 v 0.8320312475 h 4.61719 V -0.83263281 h -1.7461 z m 21.07032,0 h -0.26954 c -0.23437,0.2226562 -0.92578,0.9023437 -2.47265,0.9257812 -0.19922,0 -0.21094,0.011719 -0.21094,0.2695313 v 0.5742187 c 0.86719,0 1.53516,-0.2109375 1.82813,-0.3398437 v 7.42968749 h -1.7461 v 0.8320312475 h 4.61719 V -0.83263281 h -1.74609 z m 9.22558,5.015625 c 0,-0.9609375 -0.0352,-2.0625 -0.41016,-3.0820313 -0.62109,-1.6054687 -1.73437,-1.9335937 -2.49609,-1.9335937 -0.9375,0 -1.83984,0.46875 -2.36719,1.6054687 -0.46875,1.0195313 -0.5625,2.1796875 -0.5625,3.4101563 0,1.5585937 0.12891,2.4492187 0.58594,3.4570312 0.43359,0.94921879 1.34766,1.52343754 2.33203,1.52343754 0.9375,0 1.85156,-0.515625 2.33203,-1.51171874 0.49219,-1.0195313 0.58594,-2.0625 0.58594,-3.46875 z m -2.90625,4.11328124 c -1.83984,0 -1.83984,-2.94140624 -1.83984,-4.28906254 0,-0.9257812 0,-1.8046875 0.25781,-2.625 0.35156,-1.0195312 0.97266,-1.359375 1.57031,-1.359375 1.82813,0 1.82813,2.671875 1.82813,3.984375 0,0.9257813 0,1.8632813 -0.25782,2.7539063 -0.38671,1.38281249 -1.18359,1.53515624 -1.55859,1.53515624 z m 18.57422,0.19921875 c 0.64453,0.50390625 1.23047,0.66796875 1.86328,0.66796875 1.81641,0 3.52734,-1.96875004 3.52734,-5.10937504 0,-3.9023437 -1.59375,-4.8867187 -2.84765,-4.8867187 -1.04297,0 -1.64063,0.46875 -2.14453,1.0664062 -0.69141,0.8203125 -0.82032,1.5820313 -0.82032,2.4023438 0,1.8515625 0.94922,3.4101562 2.26172,3.4101562 1.04297,0 1.83985,-0.5039062 2.39063,-1.171875 -0.11719,2.0039063 -1.04297,3.42187504 -2.36719,3.42187504 -0.58594,0 -1.03125,-0.1875 -1.41797,-0.55078124 z m 4.18359,-5.87109379 c 0.0234,0.09375 0.0234,0.234375 0.0234,0.3398438 0,1.0898437 -0.62109,2.2265625 -1.81641,2.2265625 -0.23437,0 -0.86718,0 -1.34765,-0.8554688 -0.26953,-0.515625 -0.32813,-0.9257812 -0.32813,-1.6992187 0,-0.6328125 0.0117,-1.2304688 0.44532,-1.8867188 0.21093,-0.3046875 0.59765,-0.7734375 1.38281,-0.7734375 1.37109,0 1.61719,1.9453125 1.64062,2.6484375 z m 18.26075,1.1601563 c 0.90234,-0.28125 1.75781,-1.0664063 1.75781,-2.1210938 0,-1.359375 -1.19531,-2.4960937 -2.71875,-2.4960937 -1.58203,0 -2.74219,1.1835937 -2.74219,2.4960937 0,1.0664063 0.87891,1.8632813 1.76953,2.1210938 -1.16015,0.3867187 -1.95703,1.3476562 -1.95703,2.4960937 0,1.5351563 1.27734,2.88281254 2.91797,2.88281254 1.6875,0 2.91797,-1.38281254 2.91797,-2.88281254 0,-1.1484375 -0.78516,-2.109375 -1.94531,-2.4960937 z m -0.96094,-0.4335938 c -1.13672,0 -1.7461,-0.7617187 -1.7461,-1.6757812 0,-1.0898438 0.77344,-1.6992188 1.73438,-1.6992188 1.03125,0 1.74609,0.6445313 1.74609,1.6992188 0,0.9609375 -0.65625,1.6757812 -1.73437,1.6757812 z m 0,4.94531254 c -0.96094,0 -1.79297,-0.67968754 -1.79297,-2.03906254 0,-1.5351562 1.03125,-2.0507812 1.78125,-2.0507812 0.79687,0 1.79297,0.5625 1.79297,2.0507812 0,1.3945313 -0.87891,2.03906254 -1.78125,2.03906254 z m 18.71777,-7.85156254 c 0.17578,0 0.33985,-0.023437 0.51563,-0.023437 h 1.72265 c -0.86718,1.0078125 -3.33984,3.8789063 -3.33984,8.57812504 h 1.16016 c 0,-3.72656254 1.53515,-6.78515624 3.10546,-8.63671874 v -0.9023438 h -5.83593 v 0.984375 z m 21.55078,-0.9960937 c -0.58593,-0.2109375 -1.00781,-0.28125 -1.5,-0.28125 -1.94531,0 -3.73828,1.9921875 -3.73828,5.0742187 0,4.11328129 1.79297,4.92187504 2.92969,4.92187504 0.86719,0 1.47656,-0.3515625 2.03906,-1.0078125 0.64453,-0.77343754 0.84375,-1.45312504 0.84375,-2.48437504 0,-1.828125 -0.94922,-3.3984375 -2.25,-3.3984375 -1.0664,0 -1.86328,0.515625 -2.39062,1.1601563 0.15234,-2.1210938 1.17187,-3.4570313 2.58984,-3.4570313 0.62109,0 1.06641,0.1523438 1.47656,0.3046875 z m -4.05468,6.28125 c 0,-0.1171875 0,-0.3046875 0.0117,-0.3984375 0,-1.0078125 0.57422,-2.1914063 1.80469,-2.1914063 0.48047,0 0.9375,0.1289063 1.34766,0.84375 0.3164,0.5742188 0.32812,1.1484375 0.32812,1.6992188 0,0.5976562 0,1.2070312 -0.42187,1.8515625 -0.25781,0.38671874 -0.6211,0.76171874 -1.32422,0.76171874 -1.48828,0 -1.71094,-2.10937504 -1.74609,-2.56640624 z m 24.81738,-5.3789063 h 3.67969 v -0.890625 h -4.69922 v 5.2851563 h 0.92578 c 0.36328,-0.8203125 0.99609,-1.1367188 1.58203,-1.1367188 0.66797,0 1.42969,0.5976563 1.42969,2.3085938 0,1.8046875 -1.03125,2.37890624 -1.86328,2.37890624 -0.78516,0 -1.73438,-0.421875 -2.19141,-1.33593754 l -0.46875,0.7851563 c 0.9375,1.34765624 2.28516,1.41796874 2.67187,1.41796874 1.69922,0 3.09375,-1.41796874 3.09375,-3.21093754 0,-1.7929687 -1.20703,-3.1992187 -2.66015,-3.1992187 -0.57422,0 -1.10156,0.2109375 -1.5,0.5742187 z m 32.97363,6.0351563 h 1.38281 v -0.8554688 h -1.38281 v -6.0703125 h -1.28906 l -3.5625,6.0703125 v 0.8554688 h 3.71484 v 2.4726562375 h 1.13672 z m -3.75,-0.8554688 c 0.42188,-0.7265625 0.98438,-1.6523437 1.58203,-2.8007812 0.17578,-0.328125 1.10157,-2.0859375 1.10157,-2.625 v 5.4257812 z m 24.41602,-4.0195312 c 0.36328,-0.9140625 1.23047,-1.5351563 2.1914,-1.5351563 0.73828,0 1.41797,0.421875 1.41797,1.3476563 0,0.9609375 -0.65625,1.7578125 -1.42969,1.921875 -0.0703,0.023437 -0.97265,0.09375 -1.11328,0.1054687 v 0.8554688 h 1.00782 c 1.47656,0 1.83984,1.265625 1.83984,2.0507812 0,1.171875 -0.70313,2.03906254 -1.73438,2.03906254 -0.91406,0 -2.05078,-0.45703124 -2.70703,-1.48828124 l -0.16406,0.84375 c 0.9375,1.27734374 2.19141,1.51171874 2.89453,1.51171874 1.6875,0 2.94141,-1.37109374 2.94141,-2.88281254 0,-1.1132812 -0.72656,-2.0859375 -1.94531,-2.4960937 1.00781,-0.5507813 1.55859,-1.5117188 1.55859,-2.4609375 0,-1.2304688 -1.16016,-2.15625 -2.55469,-2.15625 -1.13672,0 -2.15625,0.6210937 -2.70703,1.5703125 z m 18.60058,6.44531249 v 0.9023437475 h 5.61328 V -0.97325781 h -2.55468 c -0.17578,0 -0.35157,0.0117188 -0.51563,0.0117188 h -1.53515 c 0.36328,-0.38671869 1.69921,-1.71093749 2.63671,-2.54296879 1.05469,-0.9257812 1.96875,-1.8164062 1.96875,-3.1406249 0,-1.5937501 -1.11328,-3.0468751 -3,-3.0468751 -1.54687,0 -2.34375,1.0078125 -2.73046,2.3437501 0.45703,0.5742187 0.45703,0.609375 0.58593,0.7734375 0.36328,-1.5351564 0.89063,-2.2382814 1.95703,-2.2382814 1.23047,0 2.03907,0.9609375 2.03907,2.203125 0,0.7382813 -0.30469,1.5703125 -1.26563,2.5195314 z m 22.48828,-8.78906249 h -0.26953 c -0.23437,0.2226562 -0.92578,0.9023437 -2.47265,0.9257812 -0.19922,0 -0.21094,0.011719 -0.21094,0.2695313 v 0.5742187 c 0.86719,0 1.53516,-0.2109375 1.82812,-0.3398437 v 7.42968749 h -1.74609 v 0.8320312475 h 4.61719 V -0.83263281 h -1.7461 z m 21.19336,5.015625 c 0,-0.9609375 -0.0351,-2.0625 -0.41015,-3.0820313 -0.6211,-1.6054687 -1.73438,-1.9335937 -2.4961,-1.9335937 -0.9375,0 -1.83984,0.46875 -2.36718,1.6054687 -0.46875,1.0195313 -0.5625,2.1796875 -0.5625,3.4101563 0,1.5585937 0.1289,2.4492187 0.58593,3.4570312 0.4336,0.94921879 1.34766,1.52343754 2.33203,1.52343754 0.9375,0 1.85157,-0.515625 2.33204,-1.51171874 0.49218,-1.0195313 0.58593,-2.0625 0.58593,-3.46875 z m -2.90625,4.11328124 c -1.83984,0 -1.83984,-2.94140624 -1.83984,-4.28906254 0,-0.9257812 0,-1.8046875 0.25781,-2.625 0.35156,-1.0195312 0.97266,-1.359375 1.57031,-1.359375 1.82813,0 1.82813,2.671875 1.82813,3.984375 0,0.9257813 0,1.8632813 -0.25781,2.7539063 -0.38672,1.38281249 -1.1836,1.53515624 -1.5586,1.53515624 z m 0,0"
       style="fill:#000000;fill-opacity:1;fill-rule:nonzero;stroke:none"
       aria-label="1514131211109876543210"
       transform="matrix(1.3333333,0,0,1.3333333,60.174667,23.645333)" />
    <path
       id="path4"
       d="M 0,0 H 372.202"
       style="fill:none;stroke:#000000;stroke-width:0.398;stroke-linecap:butt;stroke-linejoin:miter;stroke-miterlimit:10;stroke-dasharray:none;stroke-opacity:1"
       transform="matrix(1.3333333,0,0,-1.3333333,52.205333,31.085333)" />
    <path
       id="path5"
       d="M 0,0 V 17.933"
       style="fill:none;stroke:#000000;stroke-width:0.398;stroke-linecap:butt;stroke-linejoin:miter;stroke-miterlimit:10;stroke-dasharray:none;stroke-opacity:1"
       transform="matrix(1.3333333,0,0,-1.3333333,52.470667,55.261333)" />
    <path
       id="path6"
       d="m 6.5845703,-3.1509609 c 0,-1.9453125 -1.4179687,-3.4335938 -3.0703125,-3.4335938 -1.6992187,0 -3.08203124,1.5234375 -3.08203124,3.4335938 0,1.875 1.42968754,3.29296871 3.07031254,3.29296871 1.6875,0 3.0820312,-1.44140621 3.0820312,-3.29296871 z m -3.0703125,2.40234371 c -1.03125,0 -1.9921875,-0.85546871 -1.9921875,-2.55468751 0,-1.734375 1.078125,-2.4140625 1.9804688,-2.4140625 0.984375,0 1.9921875,0.7382813 1.9921875,2.4140625 0,1.7695313 -1.0195313,2.55468751 -1.9804688,2.55468751 z m 5.7128906,0.10546875 c 0.4921875,0.4453125 1.1015626,0.78515625 1.8749996,0.78515625 1.371094,0 2.601563,-1.38281251 2.601563,-3.33984371 0,-1.734375 -0.914063,-3.3164063 -2.25,-3.3164063 -0.585938,0 -1.5000001,0.1875 -2.2500001,0.8203125 V -6.3618984 H 8.1373047 v 9.140625 h 1.0898437 z m 0,-4.17187496 c 0.3398438,-0.4921875 0.8789066,-0.8085938 1.4648436,-0.8085938 1.066406,0 1.921875,1.078125 1.921875,2.4375 0,1.4414063 -0.984375,2.47265626 -2.050781,2.47265626 -0.398438,0 -0.6679688,-0.140625 -0.9257813,-0.35156246 C 9.2740234,-1.3814297 9.2271484,-1.6392422 9.2271484,-1.8618984 Z M 20.37168,-1.5454922 c -0.65625,0.5273438 -1.394532,0.79687501 -2.191407,0.79687501 -1.195312,0 -1.96875,-1.05468751 -1.96875,-2.44921871 0,-1.1953125 0.574219,-2.4960938 2.003907,-2.4960938 0.960937,0 1.371093,0.234375 1.980468,0.6445313 l 0.175782,-0.9257813 c -0.832032,-0.4921875 -1.3125,-0.609375 -2.15625,-0.609375 -1.980469,0 -3.09375,1.7578125 -3.09375,3.3867188 0,1.8398437 1.3125,3.33984371 3.035156,3.33984371 0.703125,0 1.511719,-0.1640625 2.296875,-0.73828125 0,-0.046875 -0.04687,-0.49218746 -0.05859,-0.55078126 z m 7.075195,-1.6054687 c 0,-1.9453125 -1.417969,-3.4335938 -3.070312,-3.4335938 -1.699219,0 -3.082032,1.5234375 -3.082032,3.4335938 0,1.875 1.429688,3.29296871 3.070313,3.29296871 1.6875,0 3.082031,-1.44140621 3.082031,-3.29296871 z m -3.070312,2.40234371 c -1.03125,0 -1.992188,-0.85546871 -1.992188,-2.55468751 0,-1.734375 1.078125,-2.4140625 1.980469,-2.4140625 0.984375,0 1.992187,0.7382813 1.992187,2.4140625 0,1.7695313 -1.019531,2.55468751 -1.980468,2.55468751 z m 9.966796,-9.19921871 h -1.066406 v 4.1835937 c -0.65625,-0.5507812 -1.40625,-0.75 -2.015625,-0.75 -1.371094,0 -2.484375,1.4648438 -2.484375,3.328125 0,1.8515625 1.054688,3.32812501 2.425781,3.32812501 0.527344,0 1.335938,-0.1640625 2.050782,-0.8671875 v 0.7265625 h 1.089843 z m -1.089843,8.2617187 c -0.351563,0.609375 -0.84375,0.97265626 -1.476563,0.97265626 -0.878906,0 -1.910156,-0.67968746 -1.910156,-2.46093746 0,-1.8984375 1.21875,-2.4726563 2.050781,-2.4726563 0.5625,0 1.019531,0.28125 1.335938,0.7617188 z m 8.05957,-1.5351562 c 0,-0.6210938 -0.05859,-1.5 -0.515625,-2.2617188 -0.585938,-0.984375 -1.59375,-1.1015625 -2.003906,-1.1015625 -1.546875,0 -2.847657,1.4882813 -2.847657,3.3632813 0,1.8867187 1.382813,3.36328121 3.046875,3.36328121 0.65625,0 1.453125,-0.1875 2.238282,-0.76171875 0,-0.0585938 -0.04687,-0.49218746 -0.04687,-0.52734376 -0.01172,-0.011719 -0.04687,-0.328125 -0.04687,-0.3867187 -0.84375,0.71484371 -1.6875,0.82031246 -2.121094,0.82031246 -1.101563,0 -2.050781,-0.99609376 -2.074219,-2.50781246 z m -4.289063,-0.7734375 c 0.246094,-0.9726563 0.925782,-1.7226563 1.769532,-1.7226563 0.445312,0 1.429687,0.1992188 1.675781,1.7226563 z m 7.215821,-2.3671875 h -1.160156 v 1.1601562 h 1.160156 z m -1.160156,5.203125 v 1.16015621 h 1.160156 V -1.1587734 Z m 15.219726,-3.515625 c 0,-0.9609375 -0.03516,-2.0625 -0.410156,-3.0820313 -0.621094,-1.6054687 -1.734375,-1.9335937 -2.496094,-1.9335937 -0.9375,0 -1.839844,0.46875 -2.367187,1.6054687 -0.46875,1.0195313 -0.5625,2.1796875 -0.5625,3.4101563 0,1.5585937 0.128906,2.4492187 0.585937,3.4570312 0.433594,0.94921876 1.347656,1.52343751 2.332031,1.52343751 0.9375,0 1.851563,-0.515625 2.332032,-1.51171871 0.492187,-1.0195313 0.585937,-2.0625 0.585937,-3.46875 z m -2.90625,4.11328121 c -1.839844,0 -1.839844,-2.94140621 -1.839844,-4.28906251 0,-0.9257812 0,-1.8046875 0.257813,-2.625 0.351562,-1.0195312 0.972656,-1.359375 1.570312,-1.359375 1.828125,0 1.828125,2.671875 1.828125,3.984375 0,0.9257813 0,1.8632813 -0.257812,2.7539063 -0.386719,1.38281246 -1.183594,1.53515621 -1.558594,1.53515621 z m 7.139649,-2.71875001 2.542968,-3.0820312 H 63.86875 l -1.804687,2.3203125 -1.886719,-2.3203125 h -1.21875 l 2.613281,3.0820312 -2.683594,3.28125001 h 1.195313 l 1.980469,-2.67187501 2.027343,2.67187501 h 1.207032 z m 7.013671,-6.4101562 h -0.269531 c -0.234375,0.2226562 -0.925781,0.9023437 -2.472656,0.9257812 -0.199219,0 -0.210938,0.011719 -0.210938,0.2695313 v 0.5742187 c 0.867188,0 1.535157,-0.2109375 1.828125,-0.3398437 v 7.42968746 h -1.746093 v 0.83203125 h 4.617187 v -0.83203125 h -1.746094 z m 7.268555,4.6171875 c 0.902344,-0.28125 1.757813,-1.0664063 1.757813,-2.1210938 0,-1.359375 -1.195313,-2.4960937 -2.71875,-2.4960937 -1.582032,0 -2.742188,1.1835937 -2.742188,2.4960937 0,1.0664063 0.878906,1.8632813 1.769531,2.1210938 -1.160156,0.3867187 -1.957031,1.3476562 -1.957031,2.4960937 0,1.5351563 1.277344,2.88281251 2.917969,2.88281251 1.6875,0 2.917969,-1.38281251 2.917969,-2.88281251 0,-1.1484375 -0.785157,-2.109375 -1.945313,-2.4960937 z m -0.960937,-0.4335938 c -1.136719,0 -1.746094,-0.7617187 -1.746094,-1.6757812 0,-1.0898438 0.773437,-1.6992188 1.734375,-1.6992188 1.03125,0 1.746094,0.6445313 1.746094,1.6992188 0,0.9609375 -0.65625,1.6757812 -1.734375,1.6757812 z m 0,4.94531251 c -0.960938,0 -1.792969,-0.67968751 -1.792969,-2.03906251 0,-1.5351562 1.03125,-2.0507812 1.78125,-2.0507812 0.796875,0 1.792969,0.5625 1.792969,2.0507812 0,1.3945313 -0.878907,2.03906251 -1.78125,2.03906251 z m 0,0"
       style="fill:#000000;fill-opacity:1;fill-rule:nonzero;stroke:none"
       aria-label="opcode:0x18"
       transform="matrix(1.3333333,0,0,1.3333333,85.966667,48.088)" />
    <path
       id="path7"
       d="M 0,0 V 17.933"
       style="fill:none;stroke:#000000;stroke-width:0.398;stroke-linecap:butt;stroke-linejoin:miter;stroke-miterlimit:10;stroke-dasharray:none;stroke-opacity:1"
       transform="matrix(1.3333333,0,0,-1.3333333,225.288,55.261333)" />
    <path
       id="path8"
       d="m 5.6128594,-4.2056484 c 0,-1.3710938 -0.9960938,-2.3789063 -2.3320313,-2.3789063 -0.8554687,0 -1.5,0.1992188 -2.203125,0.609375 l 0.082031,0.9375 c 0.6328125,-0.4570312 1.2890625,-0.7148437 2.1210937,-0.7148437 0.6679688,0 1.2421875,0.5273437 1.2421875,1.5820312 v 0.5859375 c -0.65625,0.023437 -1.5117187,0.070312 -2.3671875,0.3632813 -0.9609375,0.328125 -1.52343747,0.8554687 -1.52343747,1.5703125 0,0.6328125 0.37499997,1.79296871 1.59374997,1.79296871 0.7851563,0 1.7929688,-0.22265625 2.3203125,-0.66796875 v 0.52734375 h 1.0664063 z m -1.0898438,2.2851562 c 0,0.28125 0,0.6328125 -0.4804687,0.9140625 -0.3867188,0.24609376 -0.8671875,0.29296876 -1.0898438,0.29296876 -0.7734375,0 -1.3007812,-0.42187496 -1.3007812,-0.94921876 0,-0.9726562 1.9921875,-1.1953125 2.8710937,-1.1953125 z m 12.1962894,-2.390625 c 0,-0.9960937 -0.257813,-2.203125 -1.933594,-2.203125 -1.21875,0 -1.898438,0.8554688 -2.109375,1.1601563 -0.257813,-0.9023438 -1.042969,-1.1601563 -1.792969,-1.1601563 -1.1718748,0 -1.7929686,0.7617188 -2.0390623,1.0664063 V -6.4439297 H 7.8247734 V 0.00138281 H 8.9146172 V -3.5728359 c 0,-0.9492188 0.375,-2.0742188 1.4179688,-2.0742188 1.324219,0 1.394531,0.9023438 1.394531,1.4296875 v 4.21875001 h 1.089844 V -3.5728359 c 0,-0.9492188 0.375,-2.0742188 1.417969,-2.0742188 1.324218,0 1.394531,0.9023438 1.394531,1.4296875 v 4.21875001 h 1.089844 z m 0,0"
       style="fill:#000000;fill-opacity:1;fill-rule:nonzero;stroke:none"
       aria-label="am"
       transform="matrix(1.3333333,0,0,1.3333333,233.524,48.088)" />
    <path
       id="path9"
       d="M 0,0 V 17.933"
       style="fill:none;stroke:#000000;stroke-width:0.398;stroke-linecap:butt;stroke-linejoin:miter;stroke-miterlimit:10;stroke-dasharray:none;stroke-opacity:1"
       transform="matrix(1.3333333,0,0,-1.3333333,265.53733,55.261333)" />
    <path
       id="path10"
       d="m 2.179,-3.1392422 c 0,-1.453125 1.0898438,-2.390625 2.3789063,-2.4140625 v -0.9609375 c -1.3007813,0.023437 -2.0625,0.7734375 -2.4492188,1.3359375 v -1.265625 H 1.1125938 V 0.00138281 H 2.179 Z m 9.181641,-0.011719 c 0,-1.9453125 -1.4179691,-3.4335938 -3.0703129,-3.4335938 -1.6992187,0 -3.0820312,1.5234375 -3.0820312,3.4335938 0,1.875 1.4296875,3.29296871 3.0703125,3.29296871 1.6875,0 3.0820316,-1.44140621 3.0820316,-3.29296871 z m -3.0703129,2.40234371 c -1.03125,0 -1.9921875,-0.85546871 -1.9921875,-2.55468751 0,-1.734375 1.078125,-2.4140625 1.9804688,-2.4140625 0.984375,0 1.9921876,0.7382813 1.9921876,2.4140625 0,1.7695313 -1.0195314,2.55468751 -1.9804689,2.55468751 z M 14.246383,-5.5298672 h 1.980469 v -0.8320312 h -1.980469 v -1.828125 h -0.984375 v 1.828125 h -1.207031 v 0.8320312 h 1.171875 v 3.8554688 c 0,0.83203121 0.1875,1.81640621 1.183593,1.81640621 0.960938,0 1.617188,-0.328125 2.0625,-0.55078125 L 16.262008,-1.2408047 c -0.503906,0.43359376 -1.03125,0.49218751 -1.289063,0.49218751 -0.632812,0 -0.726562,-0.66796871 -0.726562,-1.17187501 z m 0,0"
       style="fill:#000000;fill-opacity:1;fill-rule:nonzero;stroke:none"
       aria-label="rot"
       transform="matrix(1.3333333,0,0,1.3333333,279.59467,48.088)" />
    <path
       id="path11"
       d="M 0,0 V 17.933"
       style="fill:none;stroke:#000000;stroke-width:0.398;stroke-linecap:butt;stroke-linejoin:miter;stroke-miterlimit:10;stroke-dasharray:none;stroke-opacity:1"
       transform="matrix(1.3333333,0,0,-1.3333333,316.14667,55.261333)" />
    <path
       id="path12"
       d="M 0,0 H 37.559 V 17.933 H 0 Z"
       style="fill:#808080;fill-opacity:1;fill-rule:nonzero;stroke:none"
       transform="matrix(1.3333333,0,0,-1.3333333,316.412,55.261333)" />
    <path
       id="path13"
       d="m 6.4220234,-4.6743984 c 0,-0.9609375 -0.035156,-2.0625 -0.4101562,-3.0820313 -0.6210938,-1.6054687 -1.734375,-1.9335937 -2.4960938,-1.9335937 -0.9375,0 -1.8398437,0.46875 -2.3671875,1.6054687 -0.46874996,1.0195313 -0.56249996,2.1796875 -0.56249996,3.4101563 0,1.5585937 0.12890625,2.4492187 0.58593746,3.4570312 0.4335938,0.94921876 1.3476563,1.52343751 2.3320313,1.52343751 0.9375,0 1.8515625,-0.515625 2.3320312,-1.51171871 0.4921875,-1.0195313 0.5859375,-2.0625 0.5859375,-3.46875 z m -2.90625,4.11328121 c -1.8398437,0 -1.8398437,-2.94140621 -1.8398437,-4.28906251 0,-0.9257812 0,-1.8046875 0.2578125,-2.625 0.3515625,-1.0195312 0.9726562,-1.359375 1.5703125,-1.359375 1.828125,0 1.828125,2.671875 1.828125,3.984375 0,0.9257813 0,1.8632813 -0.2578125,2.7539063 -0.3867188,1.38281246 -1.1835938,1.53515621 -1.5585938,1.53515621 z m 0,0"
       style="fill:#000000;fill-opacity:1;fill-rule:nonzero;stroke:none"
       aria-label="0"
       transform="matrix(1.3333333,0,0,1.3333333,336.76933,48.088)" />
    <path
       id="path14"
       d="M 0,0 V 17.933"
       style="fill:none;stroke:#000000;stroke-width:0.398;stroke-linecap:butt;stroke-linejoin:miter;stroke-miterlimit:10;stroke-dasharray:none;stroke-opacity:1"
       transform="matrix(1.3333333,0,0,-1.3333333,366.756,55.261333)" />
    <path
       id="path15"
       d="m 9.9962344,-4.3111172 c 0,-0.9960937 -0.2578125,-2.203125 -1.9335938,-2.203125 -1.21875,0 -1.8984375,0.8554688 -2.109375,1.1601563 -0.2578125,-0.9023438 -1.0429687,-1.1601563 -1.7929687,-1.1601563 -1.171875,0 -1.7929688,0.7617188 -2.0390625,1.0664063 V -6.4439297 H 1.1017031 V 0.00138281 H 2.1915469 V -3.5728359 c 0,-0.9492188 0.375,-2.0742188 1.4179687,-2.0742188 1.3242188,0 1.3945313,0.9023438 1.3945313,1.4296875 V 0.00138281 H 6.0938906 V -3.5728359 c 0,-0.9492188 0.375,-2.0742188 1.4179688,-2.0742188 1.3242187,0 1.3945312,0.9023438 1.3945312,1.4296875 v 4.21875001 h 1.0898438 z m 7.3242186,-2.0507812 h -1.078125 c -0.65625,1.6875 -1.757812,4.5 -1.816406,5.53124996 h -0.01172 C 14.332172,-1.6743984 13.582172,-3.5728359 13.464984,-3.8540859 l -1.019531,-2.5078125 h -1.136719 l 2.671875,6.36328121 -0.503906,1.30078129 c -0.316406,0.7265625 -0.527344,0.796875 -0.785156,0.796875 -0.199219,0 -0.667969,-0.046875 -1.113281,-0.2226563 l 0.09375,0.9375 c 0.08203,0.011719 0.550781,0.1171875 1.019531,0.1171875 0.339844,0 1.019531,0 1.628906,-1.5820312 z m 0,0"
       style="fill:#000000;fill-opacity:1;fill-rule:nonzero;stroke:none"
       aria-label="my"
       transform="matrix(1.3333333,0,0,1.3333333,374.992,48.088)" />
    <path
       id="path16"
       d="M 0,0 V 17.933"
       style="fill:none;stroke:#000000;stroke-width:0.398;stroke-linecap:butt;stroke-linejoin:miter;stroke-miterlimit:10;stroke-dasharray:none;stroke-opacity:1"
       transform="matrix(1.3333333,0,0,-1.3333333,406.60667,55.261333)" />
    <path
       id="path17"
       d="m 9.9969062,-4.3111172 c 0,-0.9960937 -0.2578125,-2.203125 -1.9335937,-2.203125 -1.21875,0 -1.8984375,0.8554688 -2.109375,1.1601563 -0.2578125,-0.9023438 -1.0429688,-1.1601563 -1.7929688,-1.1601563 -1.171875,0 -1.7929687,0.7617188 -2.0390625,1.0664063 V -6.4439297 H 1.102375 V 0.00138281 H 2.1922187 V -3.5728359 c 0,-0.9492188 0.375,-2.0742188 1.4179688,-2.0742188 1.3242187,0 1.3945312,0.9023438 1.3945312,1.4296875 V 0.00138281 H 6.0945625 V -3.5728359 c 0,-0.9492188 0.375,-2.0742188 1.4179687,-2.0742188 1.3242188,0 1.3945313,0.9023438 1.3945313,1.4296875 v 4.21875001 h 1.0898437 z m 4.7548828,1.03125 2.542969,-3.0820312 h -1.207031 l -1.804688,2.3203125 -1.886719,-2.3203125 h -1.21875 l 2.613282,3.0820312 -2.683594,3.28125001 h 1.195312 l 1.980469,-2.67187501 2.027344,2.67187501 h 1.207031 z m 0,0"
       style="fill:#000000;fill-opacity:1;fill-rule:nonzero;stroke:none"
       aria-label="mx"
       transform="matrix(1.3333333,0,0,1.3333333,414.84267,48.088)" />
    <path
       id="path18"
       d="M 0,0 V 17.933"
       style="fill:none;stroke:#000000;stroke-width:0.398;stroke-linecap:butt;stroke-linejoin:miter;stroke-miterlimit:10;stroke-dasharray:none;stroke-opacity:1"
       transform="matrix(1.3333333,0,0,-1.3333333,446.45733,55.261333)" />
    <path
       id="path19"
       d="M 0,0 H 18.979 V 17.933 H 0 Z"
       style="fill:#808080;fill-opacity:1;fill-rule:nonzero;stroke:none"
       transform="matrix(1.3333333,0,0,-1.3333333,446.72267,55.261333)" />
    <path
       id="path20"
       d="m 6.4204297,-4.6743984 c 0,-0.9609375 -0.035156,-2.0625 -0.4101563,-3.0820313 -0.6210937,-1.6054687 -1.734375,-1.9335937 -2.4960937,-1.9335937 -0.9375,0 -1.8398438,0.46875 -2.3671875,1.6054687 -0.46875001,1.0195313 -0.56250001,2.1796875 -0.56250001,3.4101563 0,1.5585937 0.12890625,2.4492187 0.58593751,3.4570312 0.4335937,0.94921876 1.3476562,1.52343751 2.3320312,1.52343751 0.9375,0 1.8515625,-0.515625 2.3320313,-1.51171871 0.4921875,-1.0195313 0.5859375,-2.0625 0.5859375,-3.46875 z m -2.90625,4.11328121 c -1.8398438,0 -1.8398438,-2.94140621 -1.8398438,-4.28906251 0,-0.9257812 0,-1.8046875 0.2578125,-2.625 0.3515625,-1.0195312 0.9726563,-1.359375 1.5703125,-1.359375 1.828125,0 1.828125,2.671875 1.828125,3.984375 0,0.9257813 0,1.8632813 -0.2578125,2.7539063 -0.3867187,1.38281246 -1.1835937,1.53515621 -1.5585937,1.53515621 z m 0,0"
       style="fill:#000000;fill-opacity:1;fill-rule:nonzero;stroke:none"
       aria-label="0"
       transform="matrix(1.3333333,0,0,1.3333333,454.69333,48.088)" />
    <path
       id="path21"
       d="M 0,0 V 17.933"
       style="fill:none;stroke:#000000;stroke-width:0.398;stroke-linecap:butt;stroke-linejoin:miter;stroke-miterlimit:10;stroke-dasharray:none;stroke-opacity:1"
       transform="matrix(1.3333333,0,0,-1.3333333,472.29333,55.261333)" />
    <path
       id="path22"
       d="M 2.1786719,-9.9478359 H 1.1122656 v 9.94921871 h 1.0898438 v -0.64453125 c 0.6679687,0.6328125 1.3710937,0.78515625 1.875,0.78515625 1.359375,0 2.6015625,-1.38281251 2.6015625,-3.33984371 0,-1.7695313 -0.9375,-3.3164063 -2.2734375,-3.3164063 -0.421875,0 -1.3359375,0.09375 -2.2265625,0.8085938 z m 0.023437,5.1210937 c 0.2695312,-0.4101562 0.7851562,-0.8203125 1.4882812,-0.8203125 0.8671875,0 1.8984375,0.65625 1.8984375,2.4492188 0,1.8632812 -1.171875,2.48437496 -2.0507812,2.48437496 -0.3984375,0 -0.6679688,-0.140625 -0.9257813,-0.35156246 -0.3515625,-0.2929688 -0.4101562,-0.5507813 -0.4101562,-0.796875 z m 15.0000001,0.515625 c 0,-0.9960937 -0.257813,-2.203125 -1.933593,-2.203125 -1.21875,0 -1.898438,0.8554688 -2.109375,1.1601563 -0.257813,-0.9023438 -1.042969,-1.1601563 -1.792969,-1.1601563 -1.171875,0 -1.7929694,0.7617188 -2.0390631,1.0664063 V -6.4439297 H 8.3075781 V 0.00138281 H 9.3974219 V -3.5728359 c 0,-0.9492188 0.375,-2.0742188 1.4179691,-2.0742188 1.324218,0 1.394531,0.9023438 1.394531,1.4296875 v 4.21875001 h 1.089844 V -3.5728359 c 0,-0.9492188 0.375,-2.0742188 1.417968,-2.0742188 1.324219,0 1.394532,0.9023438 1.394532,1.4296875 v 4.21875001 h 1.089843 z m 3.316406,3.66796876 c 0.492187,0.4453125 1.101562,0.78515625 1.875,0.78515625 1.371093,0 2.601562,-1.38281251 2.601562,-3.33984371 0,-1.734375 -0.914062,-3.3164063 -2.25,-3.3164063 -0.585937,0 -1.5,0.1875 -2.25,0.8203125 v -0.6679687 h -1.066406 v 9.140625 h 1.089844 z m 0,-4.17187496 c 0.339843,-0.4921875 0.878906,-0.8085938 1.464843,-0.8085938 1.066407,0 1.921875,1.078125 1.921875,2.4375 0,1.4414063 -0.984375,2.47265626 -2.050781,2.47265626 -0.398437,0 -0.667969,-0.140625 -0.925781,-0.35156246 -0.363281,-0.3164063 -0.410156,-0.5742188 -0.410156,-0.796875 z m 7.262695,-4.921875 h -1.230469 v 1.2304687 h 1.230469 z m -0.08203,3.375 h -1.066407 v 6.36328121 h 1.066407 z m 7.195312,-3.5859375 h -1.066406 v 4.1835937 c -0.65625,-0.5507812 -1.40625,-0.75 -2.015625,-0.75 -1.371094,0 -2.484375,1.4648438 -2.484375,3.328125 0,1.8515625 1.054687,3.32812501 2.425781,3.32812501 0.527344,0 1.335938,-0.1640625 2.050781,-0.8671875 v 0.7265625 h 1.089844 z m -1.089844,8.2617187 c -0.351562,0.609375 -0.84375,0.97265626 -1.476562,0.97265626 -0.878906,0 -1.910156,-0.67968746 -1.910156,-2.46093746 0,-1.8984375 1.21875,-2.4726563 2.050781,-2.4726563 0.5625,0 1.019531,0.28125 1.335937,0.7617188 z m 5.871094,-1.59375 2.542969,-3.0820312 H 41.01168 l -1.804688,2.3203125 -1.886719,-2.3203125 h -1.21875 l 2.613282,3.0820312 -2.683594,3.28125001 h 1.195312 l 1.980469,-2.67187501 2.027344,2.67187501 h 1.207031 z m 0,0"
       style="fill:#000000;fill-opacity:1;fill-rule:nonzero;stroke:none"
       aria-label="bmpidx"
       transform="matrix(1.3333333,0,0,1.3333333,481.94667,48.088)" />
    <path
       id="path23"
       d="M 0,0 V 17.933"
       style="fill:none;stroke:#000000;stroke-width:0.398;stroke-linecap:butt;stroke-linejoin:miter;stroke-miterlimit:10;stroke-dasharray:none;stroke-opacity:1"
       transform="matrix(1.3333333,0,0,-1.3333333,548.208,55.261333)" />
    <path
       id="path24"
       d="M 0,0 H 372.202"
       style="fill:none;stroke:#000000;stroke-width:0.398;stroke-linecap:butt;stroke-linejoin:miter;stroke-miterlimit:10;stroke-dasharray:none;stroke-opacity:1"
       transform="matrix(1.3333333,0,0,-1.3333333,52.205333,55.526667)" />
    <path
       id="path25"
       d="M 0,0 V 17.933"
       style="fill:none;stroke:#000000;stroke-width:0.398;stroke-linecap:butt;stroke-linejoin:miter;stroke-miterlimit:10;stroke-dasharray:none;stroke-opacity:1"
       transform="matrix(1.3333333,0,0,-1.3333333,52.470667,79.702667)" />
    <path
       id="path26"
       d="M 0,0 H 25.205 V 17.933 H 0 Z"
       style="fill:#808080;fill-opacity:1;fill-rule:nonzero;stroke:none"
       transform="matrix(1.3333333,0,0,-1.3333333,52.736,79.702667)" />
    <path
       id="path27"
       d="m 6.4204766,-4.6743437 c 0,-0.9609375 -0.035156,-2.0625 -0.4101563,-3.0820313 -0.6210937,-1.6054687 -1.734375,-1.9335937 -2.4960937,-1.9335937 -0.9375,0 -1.8398438,0.46875 -2.3671875,1.6054687 -0.46875004,1.0195313 -0.56250004,2.1796875 -0.56250004,3.4101563 0,1.5585937 0.12890625,2.4492187 0.58593754,3.4570312 0.4335937,0.94921875 1.3476562,1.5234375 2.3320312,1.5234375 0.9375,0 1.8515625,-0.515625 2.3320313,-1.5117187 0.4921875,-1.0195313 0.5859375,-2.0625 0.5859375,-3.46875 z m -2.90625,4.1132812 c -1.8398438,0 -1.8398438,-2.9414062 -1.8398438,-4.2890625 0,-0.9257812 0,-1.8046875 0.2578125,-2.625 0.3515625,-1.0195312 0.9726563,-1.359375 1.5703125,-1.359375 1.828125,0 1.828125,2.671875 1.828125,3.984375 0,0.9257813 0,1.8632813 -0.2578125,2.7539063 -0.3867187,1.38281245 -1.1835937,1.5351562 -1.5585937,1.5351562 z m 0,0"
       style="fill:#000000;fill-opacity:1;fill-rule:nonzero;stroke:none"
       aria-label="0"
       transform="matrix(1.3333333,0,0,1.3333333,64.857333,72.529333)" />
    <path
       id="path28"
       d="M 0,0 V 17.933"
       style="fill:none;stroke:#000000;stroke-width:0.398;stroke-linecap:butt;stroke-linejoin:miter;stroke-miterlimit:10;stroke-dasharray:none;stroke-opacity:1"
       transform="matrix(1.3333333,0,0,-1.3333333,86.609333,79.702667)" />
    <path
       id="path29"
       d="M 3.6442813,-3.2798125 6.18725,-6.3618437 H 4.9802188 L 3.1755313,-4.0415312 1.2888125,-6.3618437 h -1.21875 l 2.6132813,3.0820312 -2.6835938,3.28125 h 1.1953125 l 1.9804688,-2.671875 2.0273437,2.671875 h 1.2070313 z m 0,0"
       style="fill:#000000;fill-opacity:1;fill-rule:nonzero;stroke:none"
       aria-label="x"
       transform="matrix(1.3333333,0,0,1.3333333,313.12533,72.529333)" />
    <path
       id="path30"
       d="M 0,0 V 17.933"
       style="fill:none;stroke:#000000;stroke-width:0.398;stroke-linecap:butt;stroke-linejoin:miter;stroke-miterlimit:10;stroke-dasharray:none;stroke-opacity:1"
       transform="matrix(1.3333333,0,0,-1.3333333,548.208,79.702667)" />
    <path
       id="path31"
       d="M 0,0 H 372.202"
       style="fill:none;stroke:#000000;stroke-width:0.398;stroke-linecap:butt;stroke-linejoin:miter;stroke-miterlimit:10;stroke-dasharray:none;stroke-opacity:1"
       transform="matrix(1.3333333,0,0,-1.3333333,52.205333,79.968)" />
    <path
       id="path32"
       d="M 0,0 V 17.933"
       style="fill:none;stroke:#000000;stroke-width:0.398;stroke-linecap:butt;stroke-linejoin:miter;stroke-miterlimit:10;stroke-dasharray:none;stroke-opacity:1"
       transform="matrix(1.3333333,0,0,-1.3333333,52.470667,104.144)" />
    <path
       id="path33"
       d="M 0,0 H 25.205 V 17.933 H 0 Z"
       style="fill:#808080;fill-opacity:1;fill-rule:nonzero;stroke:none"
       transform="matrix(1.3333333,0,0,-1.3333333,52.736,104.144)" />
    <path
       id="path34"
       d="m 6.4204766,-4.6772187 c 0,-0.9609375 -0.035156,-2.0625 -0.4101563,-3.0820313 -0.6210937,-1.6054687 -1.734375,-1.9335937 -2.4960937,-1.9335937 -0.9375,0 -1.8398438,0.46875 -2.3671875,1.6054687 -0.46875004,1.0195313 -0.56250004,2.1796875 -0.56250004,3.4101563 0,1.5585937 0.12890625,2.4492187 0.58593754,3.4570312 0.4335937,0.94921875 1.3476562,1.5234375 2.3320312,1.5234375 0.9375,0 1.8515625,-0.515625 2.3320313,-1.5117187 0.4921875,-1.0195313 0.5859375,-2.0625 0.5859375,-3.46875 z m -2.90625,4.1132812 c -1.8398438,0 -1.8398438,-2.9414062 -1.8398438,-4.2890625 0,-0.9257812 0,-1.8046875 0.2578125,-2.625 0.3515625,-1.0195312 0.9726563,-1.359375 1.5703125,-1.359375 1.828125,0 1.828125,2.671875 1.828125,3.984375 0,0.9257813 0,1.8632813 -0.2578125,2.7539063 -0.3867187,1.38281245 -1.1835937,1.5351562 -1.5585937,1.5351562 z m 0,0"
       style="fill:#000000;fill-opacity:1;fill-rule:nonzero;stroke:none"
       aria-label="0"
       transform="matrix(1.3333333,0,0,1.3333333,64.857333,96.970667)" />
    <path
       id="path35"
       d="M 0,0 V 17.933"
       style="fill:none;stroke:#000000;stroke-width:0.398;stroke-linecap:butt;stroke-linejoin:miter;stroke-miterlimit:10;stroke-dasharray:none;stroke-opacity:1"
       transform="matrix(1.3333333,0,0,-1.3333333,86.609333,104.144)" />
    <path
       id="path36"
       d="m 6.2106875,-6.3647187 h -1.078125 c -0.65625,1.6875 -1.7578125,4.5 -1.8164062,5.53124995 H 3.3044375 C 3.2224063,-1.6772187 2.4724063,-3.5756562 2.3552188,-3.8569062 L 1.3356875,-6.3647187 H 0.19896875 L 2.8708438,-0.0014375 2.3669375,1.2993438 c -0.3164062,0.7265625 -0.5273437,0.796875 -0.7851562,0.796875 -0.1992188,0 -0.6679688,-0.046875 -1.1132813,-0.2226563 l 0.09375,0.9375 C 0.6442813,2.8227815 1.1130313,2.92825 1.5817813,2.92825 c 0.3398437,0 1.0195312,0 1.6289062,-1.5820312 z m 0,0"
       style="fill:#000000;fill-opacity:1;fill-rule:nonzero;stroke:none"
       aria-label="y"
       transform="matrix(1.3333333,0,0,1.3333333,313.12533,96.970667)" />
    <path
       id="path37"
       d="M 0,0 V 17.933"
       style="fill:none;stroke:#000000;stroke-width:0.398;stroke-linecap:butt;stroke-linejoin:miter;stroke-miterlimit:10;stroke-dasharray:none;stroke-opacity:1"
       transform="matrix(1.3333333,0,0,-1.3333333,548.208,104.144)" />
    <path
       id="path38"
       d="M 0,0 H 372.202"
       style="fill:none;stroke:#000000;stroke-width:0.398;stroke-linecap:butt;stroke-linejoin:miter;stroke-miterlimit:10;stroke-dasharray:none;stroke-opacity:1"
       transform="matrix(1.3333333,0,0,-1.3333333,52.205333,104.40933)" />
    <path
       id="path39"
       d="M 0,0 V 17.933"
       style="fill:none;stroke:#000000;stroke-width:0.398;stroke-linecap:butt;stroke-linejoin:miter;stroke-miterlimit:10;stroke-dasharray:none;stroke-opacity:1"
       transform="matrix(1.3333333,0,0,-1.3333333,52.470667,128.58533)" />
    <path
       id="path40"
       d="M 0,0 H 25.205 V 17.933 H 0 Z"
       style="fill:#808080;fill-opacity:1;fill-rule:nonzero;stroke:none"
       transform="matrix(1.3333333,0,0,-1.3333333,52.736,128.58533)" />
    <path
       id="path41"
       d="m 6.4204766,-4.6771641 c 0,-0.9609375 -0.035156,-2.0625 -0.4101563,-3.0820312 -0.6210937,-1.6054688 -1.734375,-1.9335938 -2.4960937,-1.9335938 -0.9375,0 -1.8398438,0.46875 -2.3671875,1.6054688 -0.46875004,1.0195312 -0.56250004,2.1796875 -0.56250004,3.4101562 0,1.5585938 0.12890625,2.4492188 0.58593754,3.4570313 0.4335937,0.94921874 1.3476562,1.52343749 2.3320312,1.52343749 0.9375,0 1.8515625,-0.515625 2.3320313,-1.51171879 0.4921875,-1.0195312 0.5859375,-2.0625 0.5859375,-3.46875 z m -2.90625,4.11328129 c -1.8398438,0 -1.8398438,-2.94140629 -1.8398438,-4.28906249 0,-0.9257813 0,-1.8046875 0.2578125,-2.625 0.3515625,-1.0195313 0.9726563,-1.359375 1.5703125,-1.359375 1.828125,0 1.828125,2.671875 1.828125,3.984375 0,0.9257812 0,1.8632812 -0.2578125,2.7539062 -0.3867187,1.38281254 -1.1835937,1.53515629 -1.5585937,1.53515629 z m 0,0"
       style="fill:#000000;fill-opacity:1;fill-rule:nonzero;stroke:none"
       aria-label="0"
       transform="matrix(1.3333333,0,0,1.3333333,64.857333,121.412)" />
    <path
       id="path42"
       d="M 0,0 V 17.933"
       style="fill:none;stroke:#000000;stroke-width:0.398;stroke-linecap:butt;stroke-linejoin:miter;stroke-miterlimit:10;stroke-dasharray:none;stroke-opacity:1"
       transform="matrix(1.3333333,0,0,-1.3333333,86.609333,128.58533)" />
    <path
       id="path43"
       d="M 9.3287969,-6.3646641 H 8.2741094 l -0.8554688,2.90625 c -0.1992187,0.6914063 -0.609375,2.0390625 -0.65625,2.64843754 H 6.7389531 C 6.7037969,-1.1498203 6.4694219,-2.1107578 6.1647344,-3.1302891 l -0.9375,-3.234375 H 4.2311406 l -0.8203125,2.8007813 c -0.2578125,0.890625 -0.5976562,2.1328125 -0.6445312,2.73046874 H 2.7545781 C 2.7428594,-1.1029453 2.5787969,-1.8646641 2.3092656,-2.8256016 L 1.2897344,-6.3646641 H 0.19989062 L 2.1217656,-0.00138281 H 3.2233281 C 3.7741094,-1.8060703 4.6061406,-4.5365391 4.6881719,-5.5326328 h 0.011719 c 0.035156,0.5859375 0.3164063,1.6171875 0.421875,1.9453125 l 1.0195313,3.58593749 h 1.265625 z m 2.4814451,-3.375 h -1.230469 v 1.2304688 h 1.230469 z m -0.08203,3.375 h -1.066406 v 6.36328129 h 1.066406 z m 7.192383,-3.5859375 h -1.066407 v 4.1835938 c -0.65625,-0.5507813 -1.40625,-0.75 -2.015625,-0.75 -1.371093,0 -2.484375,1.4648437 -2.484375,3.328125 0,1.8515625 1.054688,3.32812499 2.425782,3.32812499 0.527343,0 1.335937,-0.1640625 2.050781,-0.8671875 v 0.7265625 h 1.089844 z m -1.089844,8.2617188 c -0.351563,0.609375 -0.84375,0.97265624 -1.476563,0.97265624 -0.878906,0 -1.910156,-0.67968754 -1.910156,-2.46093754 0,-1.8984375 1.21875,-2.4726562 2.050781,-2.4726562 0.5625,0 1.019532,0.28125 1.335938,0.7617187 z m 4.675781,-3.84375 H 24.487 v -0.8320313 h -1.980469 v -1.828125 h -0.984375 v 1.828125 h -1.207031 v 0.8320313 H 21.487 v 3.8554687 c 0,0.83203129 0.1875,1.81640629 1.183594,1.81640629 0.960937,0 1.617187,-0.328125 2.0625,-0.55078125 L 24.522156,-1.2435703 c -0.503906,0.43359374 -1.03125,0.49218749 -1.289062,0.49218749 -0.632813,0 -0.726563,-0.66796879 -0.726563,-1.17187499 z m 8.707031,1.21875 c 0,-0.8789063 -0.1875,-2.203125 -1.921875,-2.203125 -0.984375,0 -1.652343,0.5625 -1.992187,0.9960937 v -4.4296875 h -1.066406 v 9.94921879 h 1.089843 V -3.5756016 c 0,-0.890625 0.328125,-2.0742187 1.417969,-2.0742187 1.335938,0 1.382813,0.9257812 1.382813,1.4296875 v 4.21874999 h 1.089843 z m 0,0"
       style="fill:#000000;fill-opacity:1;fill-rule:nonzero;stroke:none"
       aria-label="width"
       transform="matrix(1.3333333,0,0,1.3333333,295.85067,121.412)" />
    <path
       id="path44"
       d="M 0,0 V 17.933"
       style="fill:none;stroke:#000000;stroke-width:0.398;stroke-linecap:butt;stroke-linejoin:miter;stroke-miterlimit:10;stroke-dasharray:none;stroke-opacity:1"
       transform="matrix(1.3333333,0,0,-1.3333333,548.208,128.58533)" />
    <path
       id="path45"
       d="M 0,0 H 372.202"
       style="fill:none;stroke:#000000;stroke-width:0.398;stroke-linecap:butt;stroke-linejoin:miter;stroke-miterlimit:10;stroke-dasharray:none;stroke-opacity:1"
       transform="matrix(1.3333333,0,0,-1.3333333,52.205333,128.852)" />
    <path
       id="path46"
       d="M 0,0 V 17.933"
       style="fill:none;stroke:#000000;stroke-width:0.398;stroke-linecap:butt;stroke-linejoin:miter;stroke-miterlimit:10;stroke-dasharray:none;stroke-opacity:1"
       transform="matrix(1.3333333,0,0,-1.3333333,52.470667,153.028)" />
    <path
       id="path47"
       d="M 0,0 H 25.205 V 17.933 H 0 Z"
       style="fill:#808080;fill-opacity:1;fill-rule:nonzero;stroke:none"
       transform="matrix(1.3333333,0,0,-1.3333333,52.736,153.028)" />
    <path
       id="path48"
       d="m 6.4204766,-4.6751797 c 0,-0.9609375 -0.035156,-2.0625 -0.4101563,-3.0820312 -0.6210937,-1.6054688 -1.734375,-1.9335938 -2.4960937,-1.9335938 -0.9375,0 -1.8398438,0.46875 -2.3671875,1.6054688 -0.46875004,1.0195312 -0.56250004,2.1796875 -0.56250004,3.4101562 0,1.5585938 0.12890625,2.4492188 0.58593754,3.4570313 0.4335937,0.94921871 1.3476562,1.52343746 2.3320312,1.52343746 0.9375,0 1.8515625,-0.515625 2.3320313,-1.51171876 0.4921875,-1.0195312 0.5859375,-2.0625 0.5859375,-3.46875 z m -2.90625,4.11328126 c -1.8398438,0 -1.8398438,-2.94140626 -1.8398438,-4.28906246 0,-0.9257813 0,-1.8046875 0.2578125,-2.625 0.3515625,-1.0195313 0.9726563,-1.359375 1.5703125,-1.359375 1.828125,0 1.828125,2.671875 1.828125,3.984375 0,0.9257812 0,1.8632812 -0.2578125,2.7539062 -0.3867187,1.38281251 -1.1835937,1.53515626 -1.5585937,1.53515626 z m 0,0"
       style="fill:#000000;fill-opacity:1;fill-rule:nonzero;stroke:none"
       aria-label="0"
       transform="matrix(1.3333333,0,0,1.3333333,64.857333,145.85467)" />
    <path
       id="path49"
       d="M 0,0 V 17.933"
       style="fill:none;stroke:#000000;stroke-width:0.398;stroke-linecap:butt;stroke-linejoin:miter;stroke-miterlimit:10;stroke-dasharray:none;stroke-opacity:1"
       transform="matrix(1.3333333,0,0,-1.3333333,86.609333,153.028)" />
    <path
       id="path50"
       d="m 6.0813516,-4.3118984 c 0,-0.8789063 -0.1875,-2.203125 -1.921875,-2.203125 -0.984375,0 -1.6523438,0.5625 -1.9921875,0.9960937 V -9.9486172 H 1.1008828 V 6.015625e-4 H 2.1907266 V -3.5736172 c 0,-0.890625 0.328125,-2.0742187 1.4179687,-2.0742187 1.3359375,0 1.3828125,0.9257812 1.3828125,1.4296875 V 6.015625e-4 h 1.0898438 z m 6.9609374,1.0898437 c 0,-0.6210937 -0.05859,-1.5 -0.515625,-2.2617187 -0.585937,-0.984375 -1.59375,-1.1015625 -2.003906,-1.1015625 -1.5468752,0 -2.8476564,1.4882812 -2.8476564,3.3632812 0,1.8867188 1.3828125,3.36328126 3.0468754,3.36328126 0.65625,0 1.453125,-0.1875 2.238281,-0.76171875 0,-0.0585938 -0.04687,-0.49218751 -0.04687,-0.52734371 -0.01172,-0.011719 -0.04687,-0.328125 -0.04687,-0.3867188 -0.84375,0.71484376 -1.6875,0.82031251 -2.121094,0.82031251 -1.1015624,0 -2.0507812,-0.99609371 -2.0742187,-2.50781251 z M 8.7532266,-3.9954922 c 0.2460937,-0.9726562 0.9257812,-1.7226562 1.7695314,-1.7226562 0.445312,0 1.429687,0.1992187 1.675781,1.7226562 z m 6.9580074,-5.7421875 h -1.230468 v 1.2304688 h 1.230468 z m -0.08203,3.375 H 14.562797 V 6.015625e-4 h 1.066406 z m 6.011719,0.7148438 c 0,0 0.03516,0.023437 0.04687,0.058594 0.304687,-0.035156 0.621094,-0.070312 1.148437,-0.070312 0.04687,0 0.375,0 0.726563,0.023437 l -0.152344,-0.8789062 c -0.269531,0 -1.253906,0.023437 -2.191406,0.4804687 -0.480469,-0.4101562 -1.054688,-0.4804687 -1.335938,-0.4804687 -1.253906,0 -2.25,1.0546875 -2.25,2.3085937 0,0.515625 0.152344,0.9960938 0.46875,1.4296875 -0.328125,0.4570313 -0.410156,0.8789063 -0.410156,1.2304688 0,0.5273437 0.199219,0.89062496 0.351563,1.07812496 -0.726563,0.4687500025 -0.902344,1.08984375 -0.902344,1.48828124 0,1.0429688 1.359375,1.921875 3.117187,1.921875 1.746094,0 3.117188,-0.84375 3.117188,-1.9335937 0,-2.015625 -2.320313,-2.015625 -2.90625,-2.015625 h -1.21875 c -0.199219,0 -0.820313,0 -0.820313,-0.7617188 0,-0.3046875 0.05859,-0.3984375 0.140625,-0.5273437 0.246094,0.1757812 0.726563,0.421875 1.300782,0.421875 1.230468,0 2.25,-1.0195313 2.25,-2.3320313 0,-0.515625 -0.1875,-1.0429687 -0.492188,-1.4296875 z m -1.757813,2.9765625 c -0.632812,0 -1.265625,-0.421875 -1.265625,-1.5117188 0,-1.2773437 0.808594,-1.5351562 1.253907,-1.5351562 0.621093,0 1.253906,0.421875 1.253906,1.5117187 0,1.2773438 -0.796875,1.5351563 -1.242188,1.5351563 z m 0.597657,2.69531246 c 0.316406,0 1.898437,0 1.898437,0.99609374 0,0.65625 -0.996094,1.1367188 -2.109375,1.1367188 -1.125,0 -2.121094,-0.4453125 -2.121094,-1.1484375 0,-0.046875 0,-0.98437504 1.089844,-0.98437504 z m 9.377929,-4.33593746 c 0,-0.8789063 -0.1875,-2.203125 -1.921875,-2.203125 -0.984375,0 -1.652343,0.5625 -1.992187,0.9960937 V -9.9486172 H 24.878227 V 6.015625e-4 H 25.96807 V -3.5736172 c 0,-0.890625 0.328125,-2.0742187 1.417969,-2.0742187 1.335938,0 1.382813,0.9257812 1.382813,1.4296875 V 6.015625e-4 h 1.089843 z m 3.574219,-1.21875 h 1.980469 v -0.8320313 h -1.980469 v -1.828125 H 32.44854 v 1.828125 h -1.207031 v 0.8320313 h 1.171875 v 3.8554687 c 0,0.83203126 0.1875,1.81640626 1.183594,1.81640626 0.960937,0 1.617187,-0.328125 2.0625,-0.55078125 L 35.448539,-1.2415859 c -0.503906,0.43359371 -1.03125,0.49218746 -1.289062,0.49218746 -0.632813,0 -0.726563,-0.66796876 -0.726563,-1.17187496 z m 0,0"
       style="fill:#000000;fill-opacity:1;fill-rule:nonzero;stroke:none"
       aria-label="height"
       transform="matrix(1.3333333,0,0,1.3333333,293.372,145.85467)" />
    <path
       id="path51"
       d="M 0,0 V 17.933"
       style="fill:none;stroke:#000000;stroke-width:0.398;stroke-linecap:butt;stroke-linejoin:miter;stroke-miterlimit:10;stroke-dasharray:none;stroke-opacity:1"
       transform="matrix(1.3333333,0,0,-1.3333333,548.208,153.028)" />
    <path
       id="path52"
       d="M 0,0 H 372.202"
       style="fill:none;stroke:#000000;stroke-width:0.398;stroke-linecap:butt;stroke-linejoin:miter;stroke-miterlimit:10;stroke-dasharray:none;stroke-opacity:1"
       transform="matrix(1.3333333,0,0,-1.3333333,52.205333,153.29333)" />
  </g>
</svg>
