<?xml version="1.0" encoding="UTF-8" standalone="no"?>
<!-- Created with Inkscape (http://www.inkscape.org/) -->

<svg
   version="1.1"
   id="svg1"
   width="600.67865"
   height="87.143997"
   viewBox="0 0 600.67865 87.143997"
   sodipodi:docname="main.pdf"
   xmlns:inkscape="http://www.inkscape.org/namespaces/inkscape"
   xmlns:sodipodi="http://sodipodi.sourceforge.net/DTD/sodipodi-0.dtd"
   xmlns="http://www.w3.org/2000/svg"
   xmlns:svg="http://www.w3.org/2000/svg">
  <defs
     id="defs1" />
  <sodipodi:namedview
     id="namedview1"
     pagecolor="#ffffff"
     bordercolor="#000000"
     borderopacity="0.25"
     inkscape:showpageshadow="2"
     inkscape:pageopacity="0.0"
     inkscape:pagecheckerboard="0"
     inkscape:deskcolor="#d1d1d1">
    <inkscape:page
       x="0"
       y="0"
       inkscape:label="1"
       id="page1"
       width="600.67865"
       height="87.143997"
       margin="0"
       bleed="0" />
  </sodipodi:namedview>
  <g
     id="g1"
     inkscape:groupmode="layer"
     inkscape:label="1">
    <path
       id="path1"
       d="M 0,0 H 450.509 V 65.358 H 0 Z"
       style="fill:#ffffff;fill-opacity:1;fill-rule:nonzero;stroke:none"
       transform="matrix(1.3333333,0,0,-1.3333333,0,87.144)" />
    <path
       id="path2"
       d="M -224.75748,-32.17915 H 224.75747 V 32.17917 H -224.75748 Z"
       style="fill:#ffffff;fill-opacity:1;fill-rule:nonzero;stroke:none"
       transform="matrix(1.3333333,0,0,-1.3333333,300.34,43.572)" />
    <path
       id="path3"
       d="M 4.2195859,-9.6900781 H 3.9500547 c -0.234375,0.2226562 -0.9257813,0.9023437 -2.4726563,0.9257812 -0.1992187,0 -0.2109375,0.011719 -0.2109375,0.2695313 v 0.5742187 c 0.8671875,0 1.5351563,-0.2109375 1.828125,-0.3398437 v 7.42968748 H 1.3484922 V 0.00132813 H 5.9656797 V -0.83070312 H 4.2195859 Z m 4.959961,1.1835937 h 3.6796871 v -0.890625 H 8.1600156 v 5.2851563 h 0.9257813 c 0.3632812,-0.8203125 0.9960941,-1.1367188 1.5820311,-1.1367188 0.667969,0 1.429688,0.5976563 1.429688,2.3085938 0,1.8046875 -1.03125,2.37890623 -1.863282,2.37890623 -0.7851559,0 -1.7343746,-0.421875 -2.1914059,-1.33593753 l -0.46875,0.7851563 c 0.9375,1.34765623 2.2851563,1.41796873 2.6718749,1.41796873 1.699219,0 3.09375,-1.41796873 3.09375,-3.21093753 0,-1.7929687 -1.207031,-3.1992187 -2.660156,-3.1992187 -0.574219,0 -1.1015626,0.2109375 -1.5000001,0.5742187 z M 30.217633,-9.6900781 h -0.269531 c -0.234375,0.2226562 -0.925782,0.9023437 -2.472657,0.9257812 -0.199218,0 -0.210937,0.011719 -0.210937,0.2695313 v 0.5742187 c 0.867187,0 1.535156,-0.2109375 1.828125,-0.3398437 v 7.42968748 h -1.746094 v 0.83203125 h 4.617188 v -0.83203125 h -1.746094 z m 8.041992,7.21875 h 1.382812 v -0.8554688 h -1.382812 v -6.0703125 h -1.289063 l -3.5625,6.0703125 v 0.8554688 h 3.714844 v 2.47265623 h 1.136719 z m -3.75,-0.8554688 c 0.421875,-0.7265625 0.984375,-1.6523437 1.582031,-2.8007812 0.175781,-0.328125 1.101563,-2.0859375 1.101563,-2.625 v 5.4257812 z m 21.720703,-6.3632812 h -0.269531 c -0.234375,0.2226562 -0.925781,0.9023437 -2.472656,0.9257812 -0.199219,0 -0.210938,0.011719 -0.210938,0.2695313 v 0.5742187 c 0.867188,0 1.535156,-0.2109375 1.828125,-0.3398437 v 7.42968748 h -1.746094 v 0.83203125 h 4.617188 v -0.83203125 h -1.746094 z m 4.081055,2.34375 c 0.363281,-0.9140625 1.230469,-1.5351563 2.191406,-1.5351563 0.738281,0 1.417969,0.421875 1.417969,1.3476563 0,0.9609375 -0.65625,1.7578125 -1.429688,1.921875 -0.07031,0.023437 -0.972656,0.09375 -1.113281,0.1054687 v 0.8554688 h 1.007813 c 1.476562,0 1.839843,1.265625 1.839843,2.0507812 0,1.171875 -0.703125,2.03906253 -1.734375,2.03906253 -0.914062,0 -2.050781,-0.45703123 -2.707031,-1.48828123 l -0.164062,0.84375 c 0.9375,1.27734373 2.191406,1.51171873 2.894531,1.51171873 1.6875,0 2.941406,-1.37109373 2.941406,-2.88281253 0,-1.1132812 -0.726562,-2.0859375 -1.945312,-2.4960937 1.007812,-0.5507813 1.558593,-1.5117188 1.558593,-2.4609375 0,-1.2304688 -1.160156,-2.15625 -2.554687,-2.15625 -1.136719,0 -2.15625,0.6210937 -2.707031,1.5703125 z m 21.916992,-2.34375 h -0.269531 c -0.234375,0.2226562 -0.925782,0.9023437 -2.472657,0.9257812 -0.199218,0 -0.210937,0.011719 -0.210937,0.2695313 v 0.5742187 c 0.867187,0 1.535156,-0.2109375 1.828125,-0.3398437 v 7.42968748 h -1.746094 v 0.83203125 h 4.617188 v -0.83203125 h -1.746094 z m 3.506836,8.78906248 v 0.90234375 h 5.613281 v -0.97265625 h -2.554687 c -0.175782,0 -0.351563,0.0117188 -0.515625,0.0117188 h -1.535157 c 0.363282,-0.38671868 1.699219,-1.71093748 2.636719,-2.54296868 1.054688,-0.9257813 1.96875,-1.8164063 1.96875,-3.140625 0,-1.59375 -1.113281,-3.046875 -3,-3.046875 -1.546875,0 -2.34375,1.0078125 -2.730469,2.34375 0.457032,0.5742187 0.457032,0.609375 0.585938,0.7734375 0.363281,-1.5351563 0.890625,-2.2382813 1.957031,-2.2382813 1.230469,0 2.039063,0.9609375 2.039063,2.203125 0,0.7382813 -0.304688,1.5703125 -1.265625,2.5195313 z M 108.22642,-9.6900781 h -0.26953 c -0.23437,0.2226562 -0.92578,0.9023437 -2.47266,0.9257812 -0.19921,0 -0.21093,0.011719 -0.21093,0.2695313 v 0.5742187 c 0.86718,0 1.53515,-0.2109375 1.82812,-0.3398437 v 7.42968748 h -1.74609 v 0.83203125 h 4.61719 v -0.83203125 h -1.7461 z m 7.02246,0 h -0.26953 c -0.23437,0.2226562 -0.92578,0.9023437 -2.47265,0.9257812 -0.19922,0 -0.21094,0.011719 -0.21094,0.2695313 v 0.5742187 c 0.86719,0 1.53515,-0.2109375 1.82812,-0.3398437 v 7.42968748 h -1.74609 v 0.83203125 h 4.61719 v -0.83203125 h -1.7461 z m 21.07032,0 h -0.26954 c -0.23437,0.2226562 -0.92578,0.9023437 -2.47265,0.9257812 -0.19922,0 -0.21094,0.011719 -0.21094,0.2695313 v 0.5742187 c 0.86719,0 1.53516,-0.2109375 1.82813,-0.3398437 v 7.42968748 h -1.7461 v 0.83203125 h 4.61719 v -0.83203125 h -1.74609 z m 9.22558,5.015625 c 0,-0.9609375 -0.0352,-2.0625 -0.41016,-3.0820313 -0.62109,-1.6054687 -1.73437,-1.9335937 -2.49609,-1.9335937 -0.9375,0 -1.83984,0.46875 -2.36719,1.6054687 -0.46875,1.0195313 -0.5625,2.1796875 -0.5625,3.4101563 0,1.5585937 0.12891,2.4492187 0.58594,3.4570312 0.43359,0.94921878 1.34766,1.52343753 2.33203,1.52343753 0.9375,0 1.85156,-0.515625 2.33203,-1.51171873 0.49219,-1.0195313 0.58594,-2.0625 0.58594,-3.46875 z m -2.90625,4.11328123 c -1.83984,0 -1.83984,-2.94140623 -1.83984,-4.28906253 0,-0.9257812 0,-1.8046875 0.25781,-2.625 0.35156,-1.0195312 0.97266,-1.359375 1.57031,-1.359375 1.82813,0 1.82813,2.671875 1.82813,3.984375 0,0.9257813 0,1.8632813 -0.25782,2.7539063 -0.38671,1.38281248 -1.18359,1.53515623 -1.55859,1.53515623 z m 18.57422,0.19921875 c 0.64453,0.50390625 1.23047,0.66796875 1.86328,0.66796875 1.81641,0 3.52734,-1.96875003 3.52734,-5.10937503 0,-3.9023437 -1.59375,-4.8867187 -2.84765,-4.8867187 -1.04297,0 -1.64063,0.46875 -2.14453,1.0664062 -0.69141,0.8203125 -0.82032,1.5820313 -0.82032,2.4023438 0,1.8515625 0.94922,3.4101562 2.26172,3.4101562 1.04297,0 1.83985,-0.5039062 2.39063,-1.171875 -0.11719,2.0039063 -1.04297,3.42187503 -2.36719,3.42187503 -0.58594,0 -1.03125,-0.1875 -1.41797,-0.55078123 z m 4.18359,-5.87109378 c 0.0234,0.09375 0.0234,0.234375 0.0234,0.3398438 0,1.0898437 -0.62109,2.2265625 -1.81641,2.2265625 -0.23437,0 -0.86718,0 -1.34765,-0.8554688 -0.26953,-0.515625 -0.32813,-0.9257812 -0.32813,-1.6992187 0,-0.6328125 0.0117,-1.2304688 0.44532,-1.8867188 0.21093,-0.3046875 0.59765,-0.7734375 1.38281,-0.7734375 1.37109,0 1.61719,1.9453125 1.64062,2.6484375 z m 18.26075,1.1601563 c 0.90234,-0.28125 1.75781,-1.0664063 1.75781,-2.1210938 0,-1.359375 -1.19531,-2.4960937 -2.71875,-2.4960937 -1.58203,0 -2.74219,1.1835937 -2.74219,2.4960937 0,1.0664063 0.87891,1.8632813 1.76953,2.1210938 -1.16015,0.3867187 -1.95703,1.3476562 -1.95703,2.4960937 0,1.5351563 1.27734,2.88281253 2.91797,2.88281253 1.6875,0 2.91797,-1.38281253 2.91797,-2.88281253 0,-1.1484375 -0.78516,-2.109375 -1.94531,-2.4960937 z m -0.96094,-0.4335938 c -1.13672,0 -1.7461,-0.7617187 -1.7461,-1.6757812 0,-1.0898438 0.77344,-1.6992188 1.73438,-1.6992188 1.03125,0 1.74609,0.6445313 1.74609,1.6992188 0,0.9609375 -0.65625,1.6757812 -1.73437,1.6757812 z m 0,4.94531253 c -0.96094,0 -1.79297,-0.67968753 -1.79297,-2.03906253 0,-1.5351562 1.03125,-2.0507812 1.78125,-2.0507812 0.79687,0 1.79297,0.5625 1.79297,2.0507812 0,1.3945313 -0.87891,2.03906253 -1.78125,2.03906253 z m 18.71777,-7.85156253 c 0.17578,0 0.33985,-0.023437 0.51563,-0.023437 h 1.72265 c -0.86718,1.0078125 -3.33984,3.8789063 -3.33984,8.57812503 h 1.16016 c 0,-3.72656253 1.53515,-6.78515623 3.10546,-8.63671873 v -0.9023438 h -5.83593 v 0.984375 z m 21.55078,-0.9960937 c -0.58593,-0.2109375 -1.00781,-0.28125 -1.5,-0.28125 -1.94531,0 -3.73828,1.9921875 -3.73828,5.0742187 0,4.11328128 1.79297,4.92187503 2.92969,4.92187503 0.86719,0 1.47656,-0.3515625 2.03906,-1.0078125 0.64453,-0.77343753 0.84375,-1.45312503 0.84375,-2.48437503 0,-1.828125 -0.94922,-3.3984375 -2.25,-3.3984375 -1.0664,0 -1.86328,0.515625 -2.39062,1.1601563 0.15234,-2.1210938 1.17187,-3.4570313 2.58984,-3.4570313 0.62109,0 1.06641,0.1523438 1.47656,0.3046875 z m -4.05468,6.28125 c 0,-0.1171875 0,-0.3046875 0.0117,-0.3984375 0,-1.0078125 0.57422,-2.1914063 1.80469,-2.1914063 0.48047,0 0.9375,0.1289063 1.34766,0.84375 0.3164,0.5742188 0.32812,1.1484375 0.32812,1.6992188 0,0.5976562 0,1.2070312 -0.42187,1.8515625 -0.25781,0.38671873 -0.6211,0.76171873 -1.32422,0.76171873 -1.48828,0 -1.71094,-2.10937503 -1.74609,-2.56640623 z m 24.81738,-5.3789063 h 3.67969 v -0.890625 h -4.69922 v 5.2851563 h 0.92578 c 0.36328,-0.8203125 0.99609,-1.1367188 1.58203,-1.1367188 0.66797,0 1.42969,0.5976563 1.42969,2.3085938 0,1.8046875 -1.03125,2.37890623 -1.86328,2.37890623 -0.78516,0 -1.73438,-0.421875 -2.19141,-1.33593753 l -0.46875,0.7851563 c 0.9375,1.34765623 2.28516,1.41796873 2.67187,1.41796873 1.69922,0 3.09375,-1.41796873 3.09375,-3.21093753 0,-1.7929687 -1.20703,-3.1992187 -2.66015,-3.1992187 -0.57422,0 -1.10156,0.2109375 -1.5,0.5742187 z m 32.97363,6.0351563 h 1.38281 v -0.8554688 h -1.38281 v -6.0703125 h -1.28906 l -3.5625,6.0703125 v 0.8554688 h 3.71484 v 2.47265623 h 1.13672 z m -3.75,-0.8554688 c 0.42188,-0.7265625 0.98438,-1.6523437 1.58203,-2.8007812 0.17578,-0.328125 1.10157,-2.0859375 1.10157,-2.625 v 5.4257812 z m 24.41602,-4.0195312 c 0.36328,-0.9140625 1.23047,-1.5351563 2.1914,-1.5351563 0.73828,0 1.41797,0.421875 1.41797,1.3476563 0,0.9609375 -0.65625,1.7578125 -1.42969,1.921875 -0.0703,0.023437 -0.97265,0.09375 -1.11328,0.1054687 v 0.8554688 h 1.00782 c 1.47656,0 1.83984,1.265625 1.83984,2.0507812 0,1.171875 -0.70313,2.03906253 -1.73438,2.03906253 -0.91406,0 -2.05078,-0.45703123 -2.70703,-1.48828123 l -0.16406,0.84375 c 0.9375,1.27734373 2.19141,1.51171873 2.89453,1.51171873 1.6875,0 2.94141,-1.37109373 2.94141,-2.88281253 0,-1.1132812 -0.72656,-2.0859375 -1.94531,-2.4960937 1.00781,-0.5507813 1.55859,-1.5117188 1.55859,-2.4609375 0,-1.2304688 -1.16016,-2.15625 -2.55469,-2.15625 -1.13672,0 -2.15625,0.6210937 -2.70703,1.5703125 z m 18.60058,6.44531248 v 0.90234375 h 5.61328 v -0.97265625 h -2.55468 c -0.17578,0 -0.35157,0.0117188 -0.51563,0.0117188 h -1.53515 c 0.36328,-0.38671868 1.69921,-1.71093748 2.63671,-2.54296868 1.05469,-0.9257813 1.96875,-1.8164063 1.96875,-3.140625 0,-1.59375 -1.11328,-3.046875 -3,-3.046875 -1.54687,0 -2.34375,1.0078125 -2.73046,2.34375 0.45703,0.5742187 0.45703,0.609375 0.58593,0.7734375 0.36328,-1.5351563 0.89063,-2.2382813 1.95703,-2.2382813 1.23047,0 2.03907,0.9609375 2.03907,2.203125 0,0.7382813 -0.30469,1.5703125 -1.26563,2.5195313 z m 22.48828,-8.78906248 h -0.26953 c -0.23437,0.2226562 -0.92578,0.9023437 -2.47265,0.9257812 -0.19922,0 -0.21094,0.011719 -0.21094,0.2695313 v 0.5742187 c 0.86719,0 1.53516,-0.2109375 1.82812,-0.3398437 v 7.42968748 h -1.74609 v 0.83203125 h 4.61719 v -0.83203125 h -1.7461 z m 21.19336,5.015625 c 0,-0.9609375 -0.0351,-2.0625 -0.41015,-3.0820313 -0.6211,-1.6054687 -1.73438,-1.9335937 -2.4961,-1.9335937 -0.9375,0 -1.83984,0.46875 -2.36718,1.6054687 -0.46875,1.0195313 -0.5625,2.1796875 -0.5625,3.4101563 0,1.5585937 0.1289,2.4492187 0.58593,3.4570312 0.4336,0.94921878 1.34766,1.52343753 2.33203,1.52343753 0.9375,0 1.85157,-0.515625 2.33204,-1.51171873 0.49218,-1.0195313 0.58593,-2.0625 0.58593,-3.46875 z m -2.90625,4.11328123 c -1.83984,0 -1.83984,-2.94140623 -1.83984,-4.28906253 0,-0.9257812 0,-1.8046875 0.25781,-2.625 0.35156,-1.0195312 0.97266,-1.359375 1.57031,-1.359375 1.82813,0 1.82813,2.671875 1.82813,3.984375 0,0.9257813 0,1.8632813 -0.25781,2.7539063 -0.38672,1.38281248 -1.1836,1.53515623 -1.5586,1.53515623 z m 0,0"
       style="fill:#000000;fill-opacity:1;fill-rule:nonzero;stroke:none"
       aria-label="1514131211109876543210"
       transform="matrix(1.3333333,0,0,1.3333333,60.174667,23.646667)" />
    <path
       id="path4"
       d="M 0,0 H 372.202"
       style="fill:none;stroke:#000000;stroke-width:0.398;stroke-linecap:butt;stroke-linejoin:miter;stroke-miterlimit:10;stroke-dasharray:none;stroke-opacity:1"
       transform="matrix(1.3333333,0,0,-1.3333333,52.205333,31.085333)" />
    <path
       id="path5"
       d="M 0,0 V 17.933"
       style="fill:none;stroke:#000000;stroke-width:0.398;stroke-linecap:butt;stroke-linejoin:miter;stroke-miterlimit:10;stroke-dasharray:none;stroke-opacity:1"
       transform="matrix(1.3333333,0,0,-1.3333333,52.470667,55.261333)" />
    <path
       id="path6"
       d="m 6.5869141,-3.1509609 c 0,-1.9453125 -1.4179688,-3.4335938 -3.0703125,-3.4335938 -1.6992188,0 -3.08203129,1.5234375 -3.08203129,3.4335938 0,1.875 1.42968749,3.29296871 3.07031249,3.29296871 1.6875,0 3.0820313,-1.44140621 3.0820313,-3.29296871 z m -3.0703125,2.40234371 c -1.03125,0 -1.9921875,-0.85546871 -1.9921875,-2.55468751 0,-1.734375 1.078125,-2.4140625 1.9804687,-2.4140625 0.984375,0 1.9921875,0.7382813 1.9921875,2.4140625 0,1.7695313 -1.0195312,2.55468751 -1.9804687,2.55468751 z m 5.7099609,0.10546875 c 0.4921875,0.4453125 1.1015625,0.78515625 1.8750005,0.78515625 1.371093,0 2.601562,-1.38281251 2.601562,-3.33984371 0,-1.734375 -0.914062,-3.3164063 -2.25,-3.3164063 -0.585937,0 -1.5,0.1875 -2.25,0.8203125 V -6.3618984 H 8.1367188 v 9.140625 h 1.0898437 z m 0,-4.17187496 c 0.3398438,-0.4921875 0.8789065,-0.8085938 1.4648435,-0.8085938 1.066407,0 1.921875,1.078125 1.921875,2.4375 0,1.4414063 -0.984375,2.47265626 -2.050781,2.47265626 -0.398437,0 -0.6679687,-0.140625 -0.9257812,-0.35156246 -0.3632813,-0.3164063 -0.4101563,-0.5742188 -0.4101563,-0.796875 z m 11.1445315,3.2695312 c -0.65625,0.5273438 -1.394531,0.79687501 -2.191406,0.79687501 -1.195313,0 -1.96875,-1.05468751 -1.96875,-2.44921871 0,-1.1953125 0.574218,-2.4960938 2.003906,-2.4960938 0.960937,0 1.371094,0.234375 1.980469,0.6445313 l 0.175781,-0.9257813 c -0.832031,-0.4921875 -1.3125,-0.609375 -2.15625,-0.609375 -1.980469,0 -3.09375,1.7578125 -3.09375,3.3867188 0,1.8398437 1.3125,3.33984371 3.035156,3.33984371 0.703125,0 1.511719,-0.1640625 2.296875,-0.73828125 0,-0.046875 -0.04687,-0.49218746 -0.05859,-0.55078126 z m 7.075195,-1.6054687 c 0,-1.9453125 -1.417969,-3.4335938 -3.070312,-3.4335938 -1.699219,0 -3.082032,1.5234375 -3.082032,3.4335938 0,1.875 1.429688,3.29296871 3.070313,3.29296871 1.6875,0 3.082031,-1.44140621 3.082031,-3.29296871 z m -3.070312,2.40234371 c -1.03125,0 -1.992188,-0.85546871 -1.992188,-2.55468751 0,-1.734375 1.078125,-2.4140625 1.980469,-2.4140625 0.984375,0 1.992187,0.7382813 1.992187,2.4140625 0,1.7695313 -1.019531,2.55468751 -1.980468,2.55468751 z m 9.966796,-9.19921871 h -1.066406 v 4.1835937 c -0.65625,-0.5507812 -1.40625,-0.75 -2.015625,-0.75 -1.371094,0 -2.484375,1.4648438 -2.484375,3.328125 0,1.8515625 1.054688,3.32812501 2.425781,3.32812501 0.527344,0 1.335938,-0.1640625 2.050782,-0.8671875 v 0.7265625 h 1.089843 z m -1.089843,8.2617187 c -0.351563,0.609375 -0.84375,0.97265626 -1.476563,0.97265626 -0.878906,0 -1.910156,-0.67968746 -1.910156,-2.46093746 0,-1.8984375 1.21875,-2.4726563 2.050781,-2.4726563 0.5625,0 1.019531,0.28125 1.335938,0.7617188 z m 8.0625,-1.5351562 c 0,-0.6210938 -0.05859,-1.5 -0.515625,-2.2617188 -0.585938,-0.984375 -1.59375,-1.1015625 -2.003907,-1.1015625 -1.546875,0 -2.847656,1.4882813 -2.847656,3.3632813 0,1.8867187 1.382813,3.36328121 3.046875,3.36328121 0.65625,0 1.453125,-0.1875 2.238281,-0.76171875 0,-0.0585938 -0.04687,-0.49218746 -0.04687,-0.52734376 -0.01172,-0.011719 -0.04687,-0.328125 -0.04687,-0.3867187 -0.84375,0.71484371 -1.6875,0.82031246 -2.121093,0.82031246 -1.101563,0 -2.050782,-0.99609376 -2.074219,-2.50781246 z m -4.289063,-0.7734375 c 0.246094,-0.9726563 0.925781,-1.7226563 1.769531,-1.7226563 0.445313,0 1.429688,0.1992188 1.675782,1.7226563 z m 7.215821,-2.3671875 h -1.160157 v 1.1601562 h 1.160157 z m -1.160157,5.203125 v 1.16015621 h 1.160157 V -1.1587734 Z m 15.205078,-3.515625 c 0,-0.9609375 -0.03516,-2.0625 -0.410156,-3.0820313 -0.621094,-1.6054687 -1.734375,-1.9335937 -2.496094,-1.9335937 -0.9375,0 -1.839843,0.46875 -2.367187,1.6054687 -0.46875,1.0195313 -0.5625,2.1796875 -0.5625,3.4101563 0,1.5585937 0.128906,2.4492187 0.585937,3.4570312 0.433594,0.94921876 1.347657,1.52343751 2.332032,1.52343751 0.9375,0 1.851562,-0.515625 2.332031,-1.51171871 0.492187,-1.0195313 0.585937,-2.0625 0.585937,-3.46875 z m -2.90625,4.11328121 c -1.839843,0 -1.839843,-2.94140621 -1.839843,-4.28906251 0,-0.9257812 0,-1.8046875 0.257812,-2.625 0.351563,-1.0195312 0.972656,-1.359375 1.570313,-1.359375 1.828125,0 1.828125,2.671875 1.828125,3.984375 0,0.9257813 0,1.8632813 -0.257813,2.7539063 -0.386719,1.38281246 -1.183594,1.53515621 -1.558594,1.53515621 z m 7.151368,-2.71875001 2.542968,-3.0820312 h -1.207031 l -1.804687,2.3203125 -1.886719,-2.3203125 h -1.21875 l 2.613281,3.0820312 -2.683594,3.28125001 h 1.195313 l 1.980469,-2.67187501 2.027343,2.67187501 h 1.207032 z m 6.999023,-6.4101562 h -0.269531 c -0.234375,0.2226562 -0.925781,0.9023437 -2.472656,0.9257812 -0.199219,0 -0.210938,0.011719 -0.210938,0.2695313 v 0.5742187 c 0.867188,0 1.535156,-0.2109375 1.828125,-0.3398437 v 7.42968746 h -1.746094 v 0.83203125 h 4.617188 V -0.83064844 H 69.53125 Z m 8.419922,5.484375 c 0,-1.3710938 -0.996094,-2.3789063 -2.332031,-2.3789063 -0.855469,0 -1.5,0.1992188 -2.203125,0.609375 l 0.08203,0.9375 c 0.632812,-0.4570312 1.289062,-0.7148437 2.121094,-0.7148437 0.667968,0 1.242187,0.5273437 1.242187,1.5820312 v 0.5859375 c -0.65625,0.023437 -1.511719,0.070312 -2.367187,0.3632813 -0.960938,0.328125 -1.523438,0.8554687 -1.523438,1.5703125 0,0.6328125 0.375,1.79296871 1.59375,1.79296871 0.785156,0 1.792969,-0.22265625 2.320313,-0.66796875 v 0.52734375 h 1.066406 z m -1.089844,2.2851562 c 0,0.28125 0,0.6328125 -0.480469,0.9140625 -0.386718,0.24609376 -0.867187,0.29296876 -1.089843,0.29296876 -0.773438,0 -1.300782,-0.42187496 -1.300782,-0.94921876 0,-0.9726562 1.992188,-1.1953125 2.871094,-1.1953125 z m 0,0"
       style="fill:#000000;fill-opacity:1;fill-rule:nonzero;stroke:none"
       aria-label="opcode:0x1a"
       transform="matrix(1.3333333,0,0,1.3333333,86.166667,48.088)" />
    <path
       id="path7"
       d="M 0,0 V 17.933"
       style="fill:none;stroke:#000000;stroke-width:0.398;stroke-linecap:butt;stroke-linejoin:miter;stroke-miterlimit:10;stroke-dasharray:none;stroke-opacity:1"
       transform="matrix(1.3333333,0,0,-1.3333333,225.288,55.261333)" />
    <path
       id="path8"
       d="m 5.6128594,-4.2056484 c 0,-1.3710938 -0.9960938,-2.3789063 -2.3320313,-2.3789063 -0.8554687,0 -1.5,0.1992188 -2.203125,0.609375 l 0.082031,0.9375 c 0.6328125,-0.4570312 1.2890625,-0.7148437 2.1210937,-0.7148437 0.6679688,0 1.2421875,0.5273437 1.2421875,1.5820312 v 0.5859375 c -0.65625,0.023437 -1.5117187,0.070312 -2.3671875,0.3632813 -0.9609375,0.328125 -1.52343747,0.8554687 -1.52343747,1.5703125 0,0.6328125 0.37499997,1.79296871 1.59374997,1.79296871 0.7851563,0 1.7929688,-0.22265625 2.3203125,-0.66796875 v 0.52734375 h 1.0664063 z m -1.0898438,2.2851562 c 0,0.28125 0,0.6328125 -0.4804687,0.9140625 -0.3867188,0.24609376 -0.8671875,0.29296876 -1.0898438,0.29296876 -0.7734375,0 -1.3007812,-0.42187496 -1.3007812,-0.94921876 0,-0.9726562 1.9921875,-1.1953125 2.8710937,-1.1953125 z m 12.1962894,-2.390625 c 0,-0.9960937 -0.257813,-2.203125 -1.933594,-2.203125 -1.21875,0 -1.898438,0.8554688 -2.109375,1.1601563 -0.257813,-0.9023438 -1.042969,-1.1601563 -1.792969,-1.1601563 -1.1718748,0 -1.7929686,0.7617188 -2.0390623,1.0664063 V -6.4439297 H 7.8247734 V 0.00138281 H 8.9146172 V -3.5728359 c 0,-0.9492188 0.375,-2.0742188 1.4179688,-2.0742188 1.324219,0 1.394531,0.9023438 1.394531,1.4296875 v 4.21875001 h 1.089844 V -3.5728359 c 0,-0.9492188 0.375,-2.0742188 1.417969,-2.0742188 1.324218,0 1.394531,0.9023438 1.394531,1.4296875 v 4.21875001 h 1.089844 z m 0,0"
       style="fill:#000000;fill-opacity:1;fill-rule:nonzero;stroke:none"
       aria-label="am"
       transform="matrix(1.3333333,0,0,1.3333333,233.524,48.088)" />
    <path
       id="path9"
       d="M 0,0 V 17.933"
       style="fill:none;stroke:#000000;stroke-width:0.398;stroke-linecap:butt;stroke-linejoin:miter;stroke-miterlimit:10;stroke-dasharray:none;stroke-opacity:1"
       transform="matrix(1.3333333,0,0,-1.3333333,265.53733,55.261333)" />
    <path
       id="path10"
       d="m 2.179,-3.1392422 c 0,-1.453125 1.0898438,-2.390625 2.3789063,-2.4140625 v -0.9609375 c -1.3007813,0.023437 -2.0625,0.7734375 -2.4492188,1.3359375 v -1.265625 H 1.1125938 V 0.00138281 H 2.179 Z m 9.181641,-0.011719 c 0,-1.9453125 -1.4179691,-3.4335938 -3.0703129,-3.4335938 -1.6992187,0 -3.0820312,1.5234375 -3.0820312,3.4335938 0,1.875 1.4296875,3.29296871 3.0703125,3.29296871 1.6875,0 3.0820316,-1.44140621 3.0820316,-3.29296871 z m -3.0703129,2.40234371 c -1.03125,0 -1.9921875,-0.85546871 -1.9921875,-2.55468751 0,-1.734375 1.078125,-2.4140625 1.9804688,-2.4140625 0.984375,0 1.9921876,0.7382813 1.9921876,2.4140625 0,1.7695313 -1.0195314,2.55468751 -1.9804689,2.55468751 z M 14.246383,-5.5298672 h 1.980469 v -0.8320312 h -1.980469 v -1.828125 h -0.984375 v 1.828125 h -1.207031 v 0.8320312 h 1.171875 v 3.8554688 c 0,0.83203121 0.1875,1.81640621 1.183593,1.81640621 0.960938,0 1.617188,-0.328125 2.0625,-0.55078125 L 16.262008,-1.2408047 c -0.503906,0.43359376 -1.03125,0.49218751 -1.289063,0.49218751 -0.632812,0 -0.726562,-0.66796871 -0.726562,-1.17187501 z m 0,0"
       style="fill:#000000;fill-opacity:1;fill-rule:nonzero;stroke:none"
       aria-label="rot"
       transform="matrix(1.3333333,0,0,1.3333333,279.59467,48.088)" />
    <path
       id="path11"
       d="M 0,0 V 17.933"
       style="fill:none;stroke:#000000;stroke-width:0.398;stroke-linecap:butt;stroke-linejoin:miter;stroke-miterlimit:10;stroke-dasharray:none;stroke-opacity:1"
       transform="matrix(1.3333333,0,0,-1.3333333,316.14667,55.261333)" />
    <path
       id="path12"
       d="M 0,0 H 37.559 V 17.933 H 0 Z"
       style="fill:#808080;fill-opacity:1;fill-rule:nonzero;stroke:none"
       transform="matrix(1.3333333,0,0,-1.3333333,316.412,55.261333)" />
    <path
       id="path13"
       d="m 6.4220234,-4.6743984 c 0,-0.9609375 -0.035156,-2.0625 -0.4101562,-3.0820313 -0.6210938,-1.6054687 -1.734375,-1.9335937 -2.4960938,-1.9335937 -0.9375,0 -1.8398437,0.46875 -2.3671875,1.6054687 -0.46874996,1.0195313 -0.56249996,2.1796875 -0.56249996,3.4101563 0,1.5585937 0.12890625,2.4492187 0.58593746,3.4570312 0.4335938,0.94921876 1.3476563,1.52343751 2.3320313,1.52343751 0.9375,0 1.8515625,-0.515625 2.3320312,-1.51171871 0.4921875,-1.0195313 0.5859375,-2.0625 0.5859375,-3.46875 z m -2.90625,4.11328121 c -1.8398437,0 -1.8398437,-2.94140621 -1.8398437,-4.28906251 0,-0.9257812 0,-1.8046875 0.2578125,-2.625 0.3515625,-1.0195312 0.9726562,-1.359375 1.5703125,-1.359375 1.828125,0 1.828125,2.671875 1.828125,3.984375 0,0.9257813 0,1.8632813 -0.2578125,2.7539063 -0.3867188,1.38281246 -1.1835938,1.53515621 -1.5585938,1.53515621 z m 0,0"
       style="fill:#000000;fill-opacity:1;fill-rule:nonzero;stroke:none"
       aria-label="0"
       transform="matrix(1.3333333,0,0,1.3333333,336.76933,48.088)" />
    <path
       id="path14"
       d="M 0,0 V 17.933"
       style="fill:none;stroke:#000000;stroke-width:0.398;stroke-linecap:butt;stroke-linejoin:miter;stroke-miterlimit:10;stroke-dasharray:none;stroke-opacity:1"
       transform="matrix(1.3333333,0,0,-1.3333333,366.756,55.261333)" />
    <path
       id="path15"
       d="m 9.9962344,-4.3111172 c 0,-0.9960937 -0.2578125,-2.203125 -1.9335938,-2.203125 -1.21875,0 -1.8984375,0.8554688 -2.109375,1.1601563 -0.2578125,-0.9023438 -1.0429687,-1.1601563 -1.7929687,-1.1601563 -1.171875,0 -1.7929688,0.7617188 -2.0390625,1.0664063 V -6.4439297 H 1.1017031 V 0.00138281 H 2.1915469 V -3.5728359 c 0,-0.9492188 0.375,-2.0742188 1.4179687,-2.0742188 1.3242188,0 1.3945313,0.9023438 1.3945313,1.4296875 V 0.00138281 H 6.0938906 V -3.5728359 c 0,-0.9492188 0.375,-2.0742188 1.4179688,-2.0742188 1.3242187,0 1.3945312,0.9023438 1.3945312,1.4296875 v 4.21875001 h 1.0898438 z m 7.3242186,-2.0507812 h -1.078125 c -0.65625,1.6875 -1.757812,4.5 -1.816406,5.53124996 h -0.01172 C 14.332172,-1.6743984 13.582172,-3.5728359 13.464984,-3.8540859 l -1.019531,-2.5078125 h -1.136719 l 2.671875,6.36328121 -0.503906,1.30078129 c -0.316406,0.7265625 -0.527344,0.796875 -0.785156,0.796875 -0.199219,0 -0.667969,-0.046875 -1.113281,-0.2226563 l 0.09375,0.9375 c 0.08203,0.011719 0.550781,0.1171875 1.019531,0.1171875 0.339844,0 1.019531,0 1.628906,-1.5820312 z m 0,0"
       style="fill:#000000;fill-opacity:1;fill-rule:nonzero;stroke:none"
       aria-label="my"
       transform="matrix(1.3333333,0,0,1.3333333,374.992,48.088)" />
    <path
       id="path16"
       d="M 0,0 V 17.933"
       style="fill:none;stroke:#000000;stroke-width:0.398;stroke-linecap:butt;stroke-linejoin:miter;stroke-miterlimit:10;stroke-dasharray:none;stroke-opacity:1"
       transform="matrix(1.3333333,0,0,-1.3333333,406.60667,55.261333)" />
    <path
       id="path17"
       d="m 9.9969062,-4.3111172 c 0,-0.9960937 -0.2578125,-2.203125 -1.9335937,-2.203125 -1.21875,0 -1.8984375,0.8554688 -2.109375,1.1601563 -0.2578125,-0.9023438 -1.0429688,-1.1601563 -1.7929688,-1.1601563 -1.171875,0 -1.7929687,0.7617188 -2.0390625,1.0664063 V -6.4439297 H 1.102375 V 0.00138281 H 2.1922187 V -3.5728359 c 0,-0.9492188 0.375,-2.0742188 1.4179688,-2.0742188 1.3242187,0 1.3945312,0.9023438 1.3945312,1.4296875 V 0.00138281 H 6.0945625 V -3.5728359 c 0,-0.9492188 0.375,-2.0742188 1.4179687,-2.0742188 1.3242188,0 1.3945313,0.9023438 1.3945313,1.4296875 v 4.21875001 h 1.0898437 z m 4.7548828,1.03125 2.542969,-3.0820312 h -1.207031 l -1.804688,2.3203125 -1.886719,-2.3203125 h -1.21875 l 2.613282,3.0820312 -2.683594,3.28125001 h 1.195312 l 1.980469,-2.67187501 2.027344,2.67187501 h 1.207031 z m 0,0"
       style="fill:#000000;fill-opacity:1;fill-rule:nonzero;stroke:none"
       aria-label="mx"
       transform="matrix(1.3333333,0,0,1.3333333,414.84267,48.088)" />
    <path
       id="path18"
       d="M 0,0 V 17.933"
       style="fill:none;stroke:#000000;stroke-width:0.398;stroke-linecap:butt;stroke-linejoin:miter;stroke-miterlimit:10;stroke-dasharray:none;stroke-opacity:1"
       transform="matrix(1.3333333,0,0,-1.3333333,446.45733,55.261333)" />
    <path
       id="path19"
       d="M 0,0 H 18.979 V 17.933 H 0 Z"
       style="fill:#808080;fill-opacity:1;fill-rule:nonzero;stroke:none"
       transform="matrix(1.3333333,0,0,-1.3333333,446.72267,55.261333)" />
    <path
       id="path20"
       d="m 6.4204297,-4.6743984 c 0,-0.9609375 -0.035156,-2.0625 -0.4101563,-3.0820313 -0.6210937,-1.6054687 -1.734375,-1.9335937 -2.4960937,-1.9335937 -0.9375,0 -1.8398438,0.46875 -2.3671875,1.6054687 -0.46875001,1.0195313 -0.56250001,2.1796875 -0.56250001,3.4101563 0,1.5585937 0.12890625,2.4492187 0.58593751,3.4570312 0.4335937,0.94921876 1.3476562,1.52343751 2.3320312,1.52343751 0.9375,0 1.8515625,-0.515625 2.3320313,-1.51171871 0.4921875,-1.0195313 0.5859375,-2.0625 0.5859375,-3.46875 z m -2.90625,4.11328121 c -1.8398438,0 -1.8398438,-2.94140621 -1.8398438,-4.28906251 0,-0.9257812 0,-1.8046875 0.2578125,-2.625 0.3515625,-1.0195312 0.9726563,-1.359375 1.5703125,-1.359375 1.828125,0 1.828125,2.671875 1.828125,3.984375 0,0.9257813 0,1.8632813 -0.2578125,2.7539063 -0.3867187,1.38281246 -1.1835937,1.53515621 -1.5585937,1.53515621 z m 0,0"
       style="fill:#000000;fill-opacity:1;fill-rule:nonzero;stroke:none"
       aria-label="0"
       transform="matrix(1.3333333,0,0,1.3333333,454.69333,48.088)" />
    <path
       id="path21"
       d="M 0,0 V 17.933"
       style="fill:none;stroke:#000000;stroke-width:0.398;stroke-linecap:butt;stroke-linejoin:miter;stroke-miterlimit:10;stroke-dasharray:none;stroke-opacity:1"
       transform="matrix(1.3333333,0,0,-1.3333333,472.29333,55.261333)" />
    <path
       id="path22"
       d="M 2.1786719,-9.9478359 H 1.1122656 v 9.94921871 h 1.0898438 v -0.64453125 c 0.6679687,0.6328125 1.3710937,0.78515625 1.875,0.78515625 1.359375,0 2.6015625,-1.38281251 2.6015625,-3.33984371 0,-1.7695313 -0.9375,-3.3164063 -2.2734375,-3.3164063 -0.421875,0 -1.3359375,0.09375 -2.2265625,0.8085938 z m 0.023437,5.1210937 c 0.2695312,-0.4101562 0.7851562,-0.8203125 1.4882812,-0.8203125 0.8671875,0 1.8984375,0.65625 1.8984375,2.4492188 0,1.8632812 -1.171875,2.48437496 -2.0507812,2.48437496 -0.3984375,0 -0.6679688,-0.140625 -0.9257813,-0.35156246 -0.3515625,-0.2929688 -0.4101562,-0.5507813 -0.4101562,-0.796875 z m 15.0000001,0.515625 c 0,-0.9960937 -0.257813,-2.203125 -1.933593,-2.203125 -1.21875,0 -1.898438,0.8554688 -2.109375,1.1601563 -0.257813,-0.9023438 -1.042969,-1.1601563 -1.792969,-1.1601563 -1.171875,0 -1.7929694,0.7617188 -2.0390631,1.0664063 V -6.4439297 H 8.3075781 V 0.00138281 H 9.3974219 V -3.5728359 c 0,-0.9492188 0.375,-2.0742188 1.4179691,-2.0742188 1.324218,0 1.394531,0.9023438 1.394531,1.4296875 v 4.21875001 h 1.089844 V -3.5728359 c 0,-0.9492188 0.375,-2.0742188 1.417968,-2.0742188 1.324219,0 1.394532,0.9023438 1.394532,1.4296875 v 4.21875001 h 1.089843 z m 3.316406,3.66796876 c 0.492187,0.4453125 1.101562,0.78515625 1.875,0.78515625 1.371093,0 2.601562,-1.38281251 2.601562,-3.33984371 0,-1.734375 -0.914062,-3.3164063 -2.25,-3.3164063 -0.585937,0 -1.5,0.1875 -2.25,0.8203125 v -0.6679687 h -1.066406 v 9.140625 h 1.089844 z m 0,-4.17187496 c 0.339843,-0.4921875 0.878906,-0.8085938 1.464843,-0.8085938 1.066407,0 1.921875,1.078125 1.921875,2.4375 0,1.4414063 -0.984375,2.47265626 -2.050781,2.47265626 -0.398437,0 -0.667969,-0.140625 -0.925781,-0.35156246 -0.363281,-0.3164063 -0.410156,-0.5742188 -0.410156,-0.796875 z m 7.262695,-4.921875 h -1.230469 v 1.2304687 h 1.230469 z m -0.08203,3.375 h -1.066407 v 6.36328121 h 1.066407 z m 7.195312,-3.5859375 h -1.066406 v 4.1835937 c -0.65625,-0.5507812 -1.40625,-0.75 -2.015625,-0.75 -1.371094,0 -2.484375,1.4648438 -2.484375,3.328125 0,1.8515625 1.054687,3.32812501 2.425781,3.32812501 0.527344,0 1.335938,-0.1640625 2.050781,-0.8671875 v 0.7265625 h 1.089844 z m -1.089844,8.2617187 c -0.351562,0.609375 -0.84375,0.97265626 -1.476562,0.97265626 -0.878906,0 -1.910156,-0.67968746 -1.910156,-2.46093746 0,-1.8984375 1.21875,-2.4726563 2.050781,-2.4726563 0.5625,0 1.019531,0.28125 1.335937,0.7617188 z m 5.871094,-1.59375 2.542969,-3.0820312 H 41.01168 l -1.804688,2.3203125 -1.886719,-2.3203125 h -1.21875 l 2.613282,3.0820312 -2.683594,3.28125001 h 1.195312 l 1.980469,-2.67187501 2.027344,2.67187501 h 1.207031 z m 0,0"
       style="fill:#000000;fill-opacity:1;fill-rule:nonzero;stroke:none"
       aria-label="bmpidx"
       transform="matrix(1.3333333,0,0,1.3333333,481.94667,48.088)" />
    <path
       id="path23"
       d="M 0,0 V 17.933"
       style="fill:none;stroke:#000000;stroke-width:0.398;stroke-linecap:butt;stroke-linejoin:miter;stroke-miterlimit:10;stroke-dasharray:none;stroke-opacity:1"
       transform="matrix(1.3333333,0,0,-1.3333333,548.208,55.261333)" />
    <path
       id="path24"
       d="M 0,0 H 372.202"
       style="fill:none;stroke:#000000;stroke-width:0.398;stroke-linecap:butt;stroke-linejoin:miter;stroke-miterlimit:10;stroke-dasharray:none;stroke-opacity:1"
       transform="matrix(1.3333333,0,0,-1.3333333,52.205333,55.528)" />
    <path
       id="path25"
       d="M 0,0 V 17.933"
       style="fill:none;stroke:#000000;stroke-width:0.398;stroke-linecap:butt;stroke-linejoin:miter;stroke-miterlimit:10;stroke-dasharray:none;stroke-opacity:1"
       transform="matrix(1.3333333,0,0,-1.3333333,52.470667,79.704)" />
    <path
       id="path26"
       d="M 3.6446172,-3.2808125 6.1875859,-6.3628437 H 4.9805547 L 3.1758672,-4.0425312 1.2891484,-6.3628437 H 0.07039844 L 2.6836797,-3.2808125 8.59375e-5,4.375e-4 H 1.1953984 l 1.9804688,-2.671875 2.0273437,2.671875 h 1.2070313 z m 9.3662108,0.1289063 c 0,-1.9453125 -1.417969,-3.4335938 -3.0703124,-3.4335938 -1.6992187,0 -3.0820312,1.5234375 -3.0820312,3.4335938 0,1.875 1.4296875,3.2929687 3.0703125,3.2929687 1.6875001,0 3.0820311,-1.4414062 3.0820311,-3.2929687 z m -3.0703124,2.4023437 c -1.03125,0 -1.9921875,-0.8554687 -1.9921875,-2.5546875 0,-1.734375 1.078125,-2.4140625 1.9804688,-2.4140625 0.9843751,0 1.9921871,0.7382813 1.9921871,2.4140625 0,1.7695313 -1.019531,2.5546875 -1.9804684,2.5546875 z m 5.9941404,-4.78125 h 1.546875 V -6.3628437 H 15.8995 V -8.0855 c 0,-1.0078125 0.878906,-1.1484375 1.289062,-1.1484375 0.527344,0 0.949219,0.1523438 1.136719,0.2226563 v -0.9375 C 18.1495,-9.9956562 17.715906,-10.101125 17.212,-10.101125 c -1.3125,0 -2.34375,0.9960938 -2.34375,2.4375 v 1.3007813 h -1.042969 v 0.8320312 h 1.042969 v 5.53125 h 1.066406 z m 3.878906,0 h 1.558594 V -6.3628437 H 19.790125 V -8.0855 c 0,-1.0078125 0.878906,-1.1484375 1.289062,-1.1484375 0.515625,0 0.949219,0.1523438 1.136719,0.2226563 v -0.9375 c -0.175781,-0.046875 -0.621094,-0.1523438 -1.125,-0.1523438 -1.300781,0 -2.332031,0.9960938 -2.332031,2.4375 V 4.375e-4 h 1.054687 z m 6.647461,-0.609375 C 25.546961,-6.5737812 24.773523,-6.5855 24.445398,-6.5855 c -0.328125,0 -2.332031,0 -2.332031,1.8632813 0,0.6328125 0.351563,1.0664062 0.5625,1.265625 0.515625,0.4453125 0.878906,0.515625 1.722656,0.6914062 0.46875,0.09375 1.300782,0.2695313 1.300782,1.03125 0,0.984375 -1.113282,0.984375 -1.3125,0.984375 -0.574219,0 -1.40625,-0.15234375 -2.179688,-0.7148437 L 22.031336,-0.49175 c 0.07031,0.046875 1.042969,0.6328125 2.367187,0.6328125 1.851563,0 2.296875,-1.11328125 2.296875,-1.9570312 0,-0.7382813 -0.445312,-1.1953125 -0.503906,-1.265625 -0.527344,-0.5507813 -0.960937,-0.6328125 -1.839844,-0.8085938 -0.515625,-0.09375 -1.242187,-0.2460937 -1.242187,-0.9609375 0,-0.890625 1.007812,-0.890625 1.183594,-0.890625 0.761718,0 1.371093,0.1757813 2.003906,0.5390625 z m 6.404297,2.9179688 c 0,-0.6210938 -0.05859,-1.5 -0.515625,-2.2617188 -0.585937,-0.984375 -1.59375,-1.1015625 -2.003906,-1.1015625 -1.546875,0 -2.847656,1.4882813 -2.847656,3.3632813 0,1.8867187 1.382812,3.3632812 3.046875,3.3632812 0.65625,0 1.453125,-0.1875 2.238281,-0.76171875 0,-0.0585938 -0.04687,-0.49218745 -0.04687,-0.52734375 -0.01172,-0.011719 -0.04687,-0.328125 -0.04687,-0.3867187 -0.84375,0.7148437 -1.6875,0.82031245 -2.121094,0.82031245 -1.101562,0 -2.050781,-0.99609375 -2.074218,-2.50781245 z m -4.289062,-0.7734375 c 0.246094,-0.9726563 0.925781,-1.7226563 1.769531,-1.7226563 0.445313,0 1.429688,0.1992188 1.675781,1.7226563 z m 7.145508,-1.5351563 h 1.980468 v -0.8320312 h -1.980468 v -1.828125 h -0.984375 v 1.828125 h -1.207032 v 0.8320312 h 1.171875 v 3.8554688 c 0,0.8320312 0.1875,1.8164062 1.183594,1.8164062 0.960938,0 1.617188,-0.328125 2.0625,-0.55078125 L 37.737391,-1.24175 c -0.503907,0.43359375 -1.03125,0.4921875 -1.289063,0.4921875 -0.632812,0 -0.726562,-0.6679687 -0.726562,-1.171875 z m 0,0"
       style="fill:#000000;fill-opacity:1;fill-rule:nonzero;stroke:none"
       aria-label="xofset"
       transform="matrix(1.3333333,0,0,1.3333333,184.05067,72.530667)" />
    <path
       id="path27"
       d="M 0,0 V 17.933"
       style="fill:none;stroke:#000000;stroke-width:0.398;stroke-linecap:butt;stroke-linejoin:miter;stroke-miterlimit:10;stroke-dasharray:none;stroke-opacity:1"
       transform="matrix(1.3333333,0,0,-1.3333333,366.756,79.704)" />
    <path
       id="path28"
       d="m 5.7549219,-1.5464375 c -0.65625,0.5273438 -1.3945313,0.796875 -2.1914063,0.796875 -1.1953125,0 -1.96875,-1.0546875 -1.96875,-2.4492187 0,-1.1953125 0.5742188,-2.4960938 2.0039063,-2.4960938 0.9609375,0 1.3710937,0.234375 1.9804687,0.6445313 L 5.7549219,-5.976125 c -0.8320313,-0.4921875 -1.3125,-0.609375 -2.15625,-0.609375 -1.9804688,0 -3.09375003,1.7578125 -3.09375003,3.3867188 0,1.8398437 1.31250003,3.3398437 3.03515623,3.3398437 0.703125,0 1.5117188,-0.1640625 2.296875,-0.73828125 0,-0.046875 -0.046875,-0.49218745 -0.058594,-0.55078125 z m 6.5712891,-2.765625 c 0,-0.8789062 -0.1875,-2.203125 -1.921875,-2.203125 -0.9843751,0 -1.6523438,0.5625 -1.9921876,0.9960938 V -9.9487812 H 7.3457422 V 4.375e-4 h 1.0898437 v -3.5742187 c 0,-0.890625 0.328125,-2.0742188 1.4179688,-2.0742188 1.3359373,0 1.3828123,0.9257813 1.3828123,1.4296875 v 4.21875 h 1.089844 z m 6.735351,0.1054688 c 0,-1.3710938 -0.996093,-2.3789063 -2.332031,-2.3789063 -0.855469,0 -1.5,0.1992188 -2.203125,0.609375 l 0.08203,0.9375 c 0.632813,-0.4570312 1.289063,-0.7148437 2.121094,-0.7148437 0.667969,0 1.242188,0.5273437 1.242188,1.5820312 V -3.5855 c -0.65625,0.023437 -1.511719,0.070312 -2.367188,0.3632813 -0.960937,0.328125 -1.523437,0.8554687 -1.523437,1.5703125 0,0.6328125 0.375,1.7929687 1.59375,1.7929687 0.785156,0 1.792968,-0.22265625 2.320312,-0.66796875 V 4.375e-4 h 1.066406 z m -1.089843,2.2851562 c 0,0.28125 0,0.6328125 -0.480469,0.9140625 -0.386719,0.24609375 -0.867188,0.29296875 -1.089844,0.29296875 -0.773437,0 -1.300781,-0.42187495 -1.300781,-0.94921875 0,-0.9726562 1.992187,-1.1953125 2.871094,-1.1953125 z m 3.993164,-1.21875 c 0,-1.453125 1.089844,-2.390625 2.378906,-2.4140625 V -6.5151875 C 23.043008,-6.49175 22.281289,-5.74175 21.89457,-5.17925 V -6.444875 H 20.898477 V 4.375e-4 h 1.066406 z m 11.923828,-3.2226562 h -1.054688 l -0.855468,2.90625 c -0.199219,0.6914062 -0.609375,2.0390625 -0.65625,2.64843745 h -0.02344 C 31.263711,-1.148 31.029336,-2.1089375 30.724648,-3.1284687 l -0.9375,-3.234375 h -0.996093 l -0.820313,2.8007812 c -0.257812,0.890625 -0.597656,2.1328125 -0.644531,2.73046875 h -0.01172 C 27.302773,-1.101125 27.138711,-1.8628437 26.86918,-2.8237812 L 25.849648,-6.3628437 H 24.759805 L 26.68168,4.375e-4 h 1.101562 c 0.550781,-1.8046875 1.382813,-4.5351562 1.464844,-5.53125 h 0.01172 c 0.03516,0.5859375 0.316406,1.6171875 0.421875,1.9453125 l 1.019531,3.5859375 h 1.265625 z m 2.481445,-3.375 h -1.230469 v 1.2304687 h 1.230469 z m -0.08203,3.375 H 35.221719 V 4.375e-4 h 1.066406 z m 7.195312,-3.5859375 h -1.066406 v 4.1835937 c -0.65625,-0.5507812 -1.40625,-0.75 -2.015625,-0.75 -1.371094,0 -2.484375,1.4648438 -2.484375,3.328125 0,1.8515625 1.054688,3.328125 2.425781,3.328125 0.527344,0 1.335938,-0.1640625 2.050782,-0.8671875 V 4.375e-4 h 1.089843 z m -1.089843,8.2617187 c -0.351563,0.609375 -0.84375,0.97265625 -1.476563,0.97265625 -0.878906,0 -1.910156,-0.67968745 -1.910156,-2.46093745 0,-1.8984375 1.21875,-2.4726563 2.050781,-2.4726563 0.5625,0 1.019531,0.28125 1.335938,0.7617188 z m 4.672851,-3.84375 h 1.980469 v -0.8320312 h -1.980469 v -1.828125 H 46.08207 v 1.828125 h -1.207031 v 0.8320312 h 1.171875 v 3.8554688 c 0,0.8320312 0.1875,1.8164062 1.183594,1.8164062 0.960937,0 1.617187,-0.328125 2.0625,-0.55078125 L 49.08207,-1.24175 c -0.503906,0.43359375 -1.03125,0.4921875 -1.289062,0.4921875 -0.632813,0 -0.726563,-0.6679687 -0.726563,-1.171875 z m 8.707032,1.21875 c 0,-0.8789062 -0.1875,-2.203125 -1.921875,-2.203125 -0.984375,0 -1.652344,0.5625 -1.992188,0.9960938 V -9.9487812 H 50.793008 V 4.375e-4 h 1.089844 v -3.5742187 c 0,-0.890625 0.328125,-2.0742188 1.417968,-2.0742188 1.335938,0 1.382813,0.9257813 1.382813,1.4296875 v 4.21875 h 1.089844 z m 0,0"
       style="fill:#000000;fill-opacity:1;fill-rule:nonzero;stroke:none"
       aria-label="charwidth"
       transform="matrix(1.3333333,0,0,1.3333333,419.55333,72.530667)" />
    <path
       id="path29"
       d="M 0,0 V 17.933"
       style="fill:none;stroke:#000000;stroke-width:0.398;stroke-linecap:butt;stroke-linejoin:miter;stroke-miterlimit:10;stroke-dasharray:none;stroke-opacity:1"
       transform="matrix(1.3333333,0,0,-1.3333333,548.208,79.704)" />
    <path
       id="path30"
       d="M 0,0 H 372.202"
       style="fill:none;stroke:#000000;stroke-width:0.398;stroke-linecap:butt;stroke-linejoin:miter;stroke-miterlimit:10;stroke-dasharray:none;stroke-opacity:1"
       transform="matrix(1.3333333,0,0,-1.3333333,52.205333,79.969333)" />
  </g>
</svg>
