<?xml version="1.0" encoding="UTF-8" standalone="no"?>
<!-- Created with Inkscape (http://www.inkscape.org/) -->

<svg
   version="1.1"
   id="svg1"
   width="600.67865"
   height="160.468"
   viewBox="0 0 600.67865 160.468"
   sodipodi:docname="main.pdf"
   xmlns:inkscape="http://www.inkscape.org/namespaces/inkscape"
   xmlns:sodipodi="http://sodipodi.sourceforge.net/DTD/sodipodi-0.dtd"
   xmlns="http://www.w3.org/2000/svg"
   xmlns:svg="http://www.w3.org/2000/svg">
  <defs
     id="defs1" />
  <sodipodi:namedview
     id="namedview1"
     pagecolor="#ffffff"
     bordercolor="#000000"
     borderopacity="0.25"
     inkscape:showpageshadow="2"
     inkscape:pageopacity="0.0"
     inkscape:pagecheckerboard="0"
     inkscape:deskcolor="#d1d1d1">
    <inkscape:page
       x="0"
       y="0"
       inkscape:label="1"
       id="page1"
       width="600.67865"
       height="160.468"
       margin="0"
       bleed="0" />
  </sodipodi:namedview>
  <g
     id="g1"
     inkscape:groupmode="layer"
     inkscape:label="1">
    <path
       id="path1"
       d="M 0,0 H 450.509 V 120.351 H 0 Z"
       style="fill:#ffffff;fill-opacity:1;fill-rule:nonzero;stroke:none"
       transform="matrix(1.3333333,0,0,-1.3333333,0,160.468)" />
    <path
       id="path2"
       d="M -224.75748,-59.67639 H 224.75747 V 59.67641 H -224.75748 Z"
       style="fill:#ffffff;fill-opacity:1;fill-rule:nonzero;stroke:none"
       transform="matrix(1.3333333,0,0,-1.3333333,300.34,80.233333)" />
    <path
       id="path3"
       d="M 4.2197578,-9.6920078 H 3.9502266 c -0.234375,0.2226562 -0.9257813,0.9023437 -2.4726563,0.9257812 -0.1992187,0 -0.2109375,0.011719 -0.2109375,0.2695313 v 0.5742187 c 0.8671875,0 1.5351563,-0.2109375 1.828125,-0.3398437 v 7.42968749 H 1.3486641 V -6.015625e-4 H 5.9658516 V -0.83263281 H 4.2197578 Z m 4.959961,1.1835937 h 3.6796872 v -0.890625 H 8.1601875 v 5.2851563 H 9.0859688 C 9.44925,-4.9341953 10.082063,-5.2506016 10.668,-5.2506016 c 0.667969,0 1.429688,0.5976563 1.429688,2.3085938 0,1.8046875 -1.03125,2.37890624 -1.863282,2.37890624 -0.785156,0 -1.7343747,-0.421875 -2.191406,-1.33593754 l -0.46875,0.7851563 c 0.9375,1.34765624 2.2851563,1.41796874 2.671875,1.41796874 1.699219,0 3.09375,-1.41796874 3.09375,-3.21093754 0,-1.7929687 -1.207031,-3.1992187 -2.660156,-3.1992187 -0.574219,0 -1.1015627,0.2109375 -1.5000002,0.5742187 z M 30.217805,-9.6920078 h -0.269532 c -0.234375,0.2226562 -0.925781,0.9023437 -2.472656,0.9257812 -0.199219,0 -0.210937,0.011719 -0.210937,0.2695313 v 0.5742187 c 0.867187,0 1.535156,-0.2109375 1.828125,-0.3398437 v 7.42968749 h -1.746094 v 0.8320312475 h 4.617187 V -0.83263281 h -1.746093 z m 8.041992,7.21875 h 1.382812 v -0.8554688 h -1.382812 v -6.0703125 h -1.289063 l -3.5625,6.0703125 v 0.8554688 h 3.714844 v 2.4726562375 h 1.136719 z m -3.75,-0.8554688 c 0.421875,-0.7265625 0.984375,-1.6523437 1.582031,-2.8007812 0.175781,-0.328125 1.101563,-2.0859375 1.101563,-2.625 v 5.4257812 z M 56.2305,-9.6920078 h -0.269531 c -0.234375,0.2226562 -0.925781,0.9023437 -2.472656,0.9257812 -0.199219,0 -0.210938,0.011719 -0.210938,0.2695313 v 0.5742187 c 0.867188,0 1.535156,-0.2109375 1.828125,-0.3398437 v 7.42968749 h -1.746094 v 0.8320312475 h 4.617188 V -0.83263281 H 56.2305 Z m 4.081055,2.34375 c 0.363281,-0.9140625 1.230468,-1.5351563 2.191406,-1.5351563 0.738281,0 1.417969,0.421875 1.417969,1.3476563 0,0.9609375 -0.65625,1.7578125 -1.429688,1.921875 -0.07031,0.023437 -0.972656,0.09375 -1.113281,0.1054687 v 0.8554688 h 1.007812 c 1.476563,0 1.839844,1.265625 1.839844,2.0507812 0,1.171875 -0.703125,2.03906254 -1.734375,2.03906254 -0.914062,0 -2.050781,-0.45703124 -2.707031,-1.48828124 l -0.164063,0.84375 c 0.9375,1.27734374 2.191407,1.51171874 2.894532,1.51171874 1.6875,0 2.941406,-1.37109374 2.941406,-2.88281254 0,-1.1132812 -0.726563,-2.0859375 -1.945313,-2.4960937 1.007813,-0.5507813 1.558594,-1.5117188 1.558594,-2.4609375 0,-1.2304688 -1.160156,-2.15625 -2.554687,-2.15625 -1.136719,0 -2.15625,0.6210937 -2.707032,1.5703125 z m 21.916992,-2.34375 h -0.269531 c -0.234375,0.2226562 -0.925782,0.9023437 -2.472657,0.9257812 -0.199218,0 -0.210937,0.011719 -0.210937,0.2695313 v 0.5742187 c 0.867187,0 1.535156,-0.2109375 1.828125,-0.3398437 v 7.42968749 h -1.746094 v 0.8320312475 h 4.617188 V -0.83263281 h -1.746094 z m 3.506836,8.78906249 v 0.9023437475 h 5.613281 V -0.97325781 h -2.554687 c -0.175782,0 -0.351563,0.0117188 -0.515625,0.0117188 h -1.535157 c 0.363282,-0.38671869 1.699219,-1.71093749 2.636719,-2.54296879 1.054688,-0.9257812 1.96875,-1.8164062 1.96875,-3.1406249 0,-1.5937501 -1.113281,-3.0468751 -3,-3.0468751 -1.546875,0 -2.34375,1.0078125 -2.730469,2.3437501 0.457032,0.5742187 0.457032,0.609375 0.585938,0.7734375 0.363281,-1.5351564 0.890625,-2.2382814 1.957031,-2.2382814 1.230469,0 2.039063,0.9609375 2.039063,2.203125 0,0.7382813 -0.304688,1.5703125 -1.265625,2.5195314 z M 108.22659,-9.6920078 h -0.26953 c -0.23437,0.2226562 -0.92578,0.9023437 -2.47265,0.9257812 -0.19922,0 -0.21094,0.011719 -0.21094,0.2695313 v 0.5742187 c 0.86719,0 1.53516,-0.2109375 1.82812,-0.3398437 v 7.42968749 h -1.74609 v 0.8320312475 h 4.61719 V -0.83263281 h -1.7461 z m 7.02246,0 h -0.26953 c -0.23437,0.2226562 -0.92578,0.9023437 -2.47265,0.9257812 -0.19922,0 -0.21094,0.011719 -0.21094,0.2695313 v 0.5742187 c 0.86719,0 1.53516,-0.2109375 1.82812,-0.3398437 v 7.42968749 h -1.74609 v 0.8320312475 h 4.61719 V -0.83263281 h -1.7461 z m 18.97559,0 h -0.26953 c -0.23438,0.2226562 -0.92578,0.9023437 -2.47266,0.9257812 -0.19922,0 -0.21093,0.011719 -0.21093,0.2695313 v 0.5742187 c 0.86718,0 1.53515,-0.2109375 1.82812,-0.3398437 v 7.42968749 h -1.74609 v 0.8320312475 h 4.61718 V -0.83263281 h -1.74609 z m 9.22559,5.015625 c 0,-0.9609375 -0.0352,-2.0625 -0.41016,-3.0820313 -0.62109,-1.6054687 -1.73437,-1.9335937 -2.49609,-1.9335937 -0.9375,0 -1.83985,0.46875 -2.36719,1.6054687 -0.46875,1.0195313 -0.5625,2.1796875 -0.5625,3.4101563 0,1.5585937 0.12891,2.4492187 0.58594,3.4570312 0.43359,0.94921879 1.34765,1.52343754 2.33203,1.52343754 0.9375,0 1.85156,-0.515625 2.33203,-1.51171874 0.49219,-1.0195313 0.58594,-2.0625 0.58594,-3.46875 z m -2.90625,4.11328124 c -1.83985,0 -1.83985,-2.94140624 -1.83985,-4.28906254 0,-0.9257812 0,-1.8046875 0.25782,-2.625 0.35156,-1.0195312 0.97265,-1.359375 1.57031,-1.359375 1.82812,0 1.82812,2.671875 1.82812,3.984375 0,0.9257813 0,1.8632813 -0.25781,2.7539063 -0.38672,1.38281249 -1.18359,1.53515624 -1.55859,1.53515624 z m 16.49414,0.19921875 c 0.64453,0.50390625 1.23047,0.66796875 1.86328,0.66796875 1.8164,0 3.52734,-1.96875004 3.52734,-5.10937504 0,-3.9023437 -1.59375,-4.8867187 -2.84765,-4.8867187 -1.04297,0 -1.64063,0.46875 -2.14454,1.0664062 -0.6914,0.8203125 -0.82031,1.5820313 -0.82031,2.4023438 0,1.8515625 0.94922,3.4101562 2.26172,3.4101562 1.04297,0 1.83984,-0.5039062 2.39063,-1.171875 -0.11719,2.0039063 -1.04297,3.42187504 -2.36719,3.42187504 -0.58594,0 -1.03125,-0.1875 -1.41797,-0.55078124 z m 4.18359,-5.87109379 c 0.0234,0.09375 0.0234,0.234375 0.0234,0.3398438 0,1.0898437 -0.6211,2.2265625 -1.81641,2.2265625 -0.23437,0 -0.86719,0 -1.34765,-0.8554688 -0.26954,-0.515625 -0.32813,-0.9257812 -0.32813,-1.6992187 0,-0.6328125 0.0117,-1.2304688 0.44531,-1.8867188 0.21094,-0.3046875 0.59766,-0.7734375 1.38282,-0.7734375 1.37109,0 1.61718,1.9453125 1.64062,2.6484375 z m 18.24609,1.1601563 c 0.90235,-0.28125 1.75782,-1.0664063 1.75782,-2.1210938 0,-1.359375 -1.19532,-2.4960937 -2.71875,-2.4960937 -1.58203,0 -2.74219,1.1835937 -2.74219,2.4960937 0,1.0664063 0.87891,1.8632813 1.76953,2.1210938 -1.16016,0.3867187 -1.95703,1.3476562 -1.95703,2.4960937 0,1.5351563 1.27734,2.88281254 2.91797,2.88281254 1.6875,0 2.91797,-1.38281254 2.91797,-2.88281254 0,-1.1484375 -0.78516,-2.109375 -1.94532,-2.4960937 z m -0.96093,-0.4335938 c -1.13672,0 -1.7461,-0.7617187 -1.7461,-1.6757812 0,-1.0898438 0.77344,-1.6992188 1.73438,-1.6992188 1.03125,0 1.74609,0.6445313 1.74609,1.6992188 0,0.9609375 -0.65625,1.6757812 -1.73437,1.6757812 z m 0,4.94531254 c -0.96094,0 -1.79297,-0.67968754 -1.79297,-2.03906254 0,-1.5351562 1.03125,-2.0507812 1.78125,-2.0507812 0.79687,0 1.79297,0.5625 1.79297,2.0507812 0,1.3945313 -0.87891,2.03906254 -1.78125,2.03906254 z m 18.71777,-7.85156254 c 0.17578,0 0.33984,-0.023437 0.51563,-0.023437 h 1.72265 c -0.86719,1.0078125 -3.33984,3.8789063 -3.33984,8.57812504 h 1.16015 c 0,-3.72656254 1.53516,-6.78515624 3.10547,-8.63671874 v -0.9023438 h -5.83593 v 0.984375 z m 21.56543,-0.9960937 c -0.58594,-0.2109375 -1.00781,-0.28125 -1.5,-0.28125 -1.94531,0 -3.73828,1.9921875 -3.73828,5.0742187 0,4.11328129 1.79297,4.92187504 2.92969,4.92187504 0.86718,0 1.47656,-0.3515625 2.03906,-1.0078125 0.64453,-0.77343754 0.84375,-1.45312504 0.84375,-2.48437504 0,-1.828125 -0.94922,-3.3984375 -2.25,-3.3984375 -1.06641,0 -1.86328,0.515625 -2.39063,1.1601563 0.15235,-2.1210938 1.17188,-3.4570313 2.58985,-3.4570313 0.62109,0 1.0664,0.1523438 1.47656,0.3046875 z m -4.05469,6.28125 c 0,-0.1171875 0,-0.3046875 0.0117,-0.3984375 0,-1.0078125 0.57422,-2.1914063 1.80469,-2.1914063 0.48047,0 0.9375,0.1289063 1.34766,0.84375 0.3164,0.5742188 0.32812,1.1484375 0.32812,1.6992188 0,0.5976562 0,1.2070312 -0.42187,1.8515625 -0.25782,0.38671874 -0.6211,0.76171874 -1.32422,0.76171874 -1.48828,0 -1.71094,-2.10937504 -1.7461,-2.56640624 z m 19.35059,-5.3789063 h 3.67969 v -0.890625 h -4.69922 v 5.2851563 h 0.92578 c 0.36328,-0.8203125 0.99609,-1.1367188 1.58203,-1.1367188 0.66797,0 1.42969,0.5976563 1.42969,2.3085938 0,1.8046875 -1.03125,2.37890624 -1.86328,2.37890624 -0.78516,0 -1.73438,-0.421875 -2.19141,-1.33593754 l -0.46875,0.7851563 c 0.9375,1.34765624 2.28516,1.41796874 2.67187,1.41796874 1.69922,0 3.09375,-1.41796874 3.09375,-3.21093754 0,-1.7929687 -1.20703,-3.1992187 -2.66015,-3.1992187 -0.57422,0 -1.10156,0.2109375 -1.5,0.5742187 z m 22.05469,6.0351563 h 1.38281 v -0.8554688 h -1.38281 v -6.0703125 h -1.28907 l -3.5625,6.0703125 v 0.8554688 h 3.71485 v 2.4726562375 h 1.13672 z m -3.75,-0.8554688 c 0.42187,-0.7265625 0.98437,-1.6523437 1.58203,-2.8007812 0.17578,-0.328125 1.10156,-2.0859375 1.10156,-2.625 v 5.4257812 z m 18.77929,-4.0195312 c 0.36328,-0.9140625 1.23047,-1.5351563 2.19141,-1.5351563 0.73828,0 1.41797,0.421875 1.41797,1.3476563 0,0.9609375 -0.65625,1.7578125 -1.42969,1.921875 -0.0703,0.023437 -0.97266,0.09375 -1.11328,0.1054687 v 0.8554688 h 1.00781 c 1.47656,0 1.83985,1.265625 1.83985,2.0507812 0,1.171875 -0.70313,2.03906254 -1.73438,2.03906254 -0.91406,0 -2.05078,-0.45703124 -2.70703,-1.48828124 l -0.16406,0.84375 c 0.9375,1.27734374 2.1914,1.51171874 2.89453,1.51171874 1.6875,0 2.9414,-1.37109374 2.9414,-2.88281254 0,-1.1132812 -0.72656,-2.0859375 -1.94531,-2.4960937 1.00781,-0.5507813 1.5586,-1.5117188 1.5586,-2.4609375 0,-1.2304688 -1.16016,-2.15625 -2.55469,-2.15625 -1.13672,0 -2.15625,0.6210937 -2.70703,1.5703125 z m 18.39844,6.44531249 v 0.9023437475 h 5.61328 V -0.97325781 h -2.55469 c -0.17578,0 -0.35156,0.0117188 -0.51562,0.0117188 h -1.53516 c 0.36328,-0.38671869 1.69922,-1.71093749 2.63672,-2.54296879 1.05469,-0.9257812 1.96875,-1.8164062 1.96875,-3.1406249 0,-1.5937501 -1.11328,-3.0468751 -3,-3.0468751 -1.54687,0 -2.34375,1.0078125 -2.73047,2.3437501 0.45703,0.5742187 0.45703,0.609375 0.58594,0.7734375 0.36328,-1.5351564 0.89063,-2.2382814 1.95703,-2.2382814 1.23047,0 2.03906,0.9609375 2.03906,2.203125 0,0.7382813 -0.30468,1.5703125 -1.26562,2.5195314 z M 312.0596,-9.6920078 h -0.26953 c -0.23437,0.2226562 -0.92578,0.9023437 -2.47266,0.9257812 -0.19921,0 -0.21093,0.011719 -0.21093,0.2695313 v 0.5742187 c 0.86718,0 1.53515,-0.2109375 1.82812,-0.3398437 v 7.42968749 h -1.74609 v 0.8320312475 h 4.61719 V -0.83263281 h -1.7461 z m 21.19043,5.015625 c 0,-0.9609375 -0.0352,-2.0625 -0.41016,-3.0820313 -0.62109,-1.6054687 -1.73437,-1.9335937 -2.49609,-1.9335937 -0.9375,0 -1.83984,0.46875 -2.36719,1.6054687 -0.46875,1.0195313 -0.5625,2.1796875 -0.5625,3.4101563 0,1.5585937 0.12891,2.4492187 0.58594,3.4570312 0.43359,0.94921879 1.34766,1.52343754 2.33203,1.52343754 0.9375,0 1.85156,-0.515625 2.33203,-1.51171874 0.49219,-1.0195313 0.58594,-2.0625 0.58594,-3.46875 z m -2.90625,4.11328124 c -1.83984,0 -1.83984,-2.94140624 -1.83984,-4.28906254 0,-0.9257812 0,-1.8046875 0.25781,-2.625 0.35156,-1.0195312 0.97266,-1.359375 1.57031,-1.359375 1.82813,0 1.82813,2.671875 1.82813,3.984375 0,0.9257813 0,1.8632813 -0.25782,2.7539063 -0.38671,1.38281249 -1.18359,1.53515624 -1.55859,1.53515624 z m 0,0"
       style="fill:#000000;fill-opacity:1;fill-rule:nonzero;stroke:none"
       aria-label="1514131211109876543210"
       transform="matrix(1.3333333,0,0,1.3333333,77.776,23.645333)" />
    <path
       id="path4"
       d="M 0,0 H 345.801"
       style="fill:none;stroke:#000000;stroke-width:0.398;stroke-linecap:butt;stroke-linejoin:miter;stroke-miterlimit:10;stroke-dasharray:none;stroke-opacity:1"
       transform="matrix(1.3333333,0,0,-1.3333333,69.805333,31.085333)" />
    <path
       id="path5"
       d="M 0,0 V 17.933"
       style="fill:none;stroke:#000000;stroke-width:0.398;stroke-linecap:butt;stroke-linejoin:miter;stroke-miterlimit:10;stroke-dasharray:none;stroke-opacity:1"
       transform="matrix(1.3333333,0,0,-1.3333333,70.070667,55.261333)" />
    <path
       id="path6"
       d="m 6.5847422,-3.1509609 c 0,-1.9453125 -1.4179688,-3.4335938 -3.0703125,-3.4335938 -1.6992188,0 -3.08203126,1.5234375 -3.08203126,3.4335938 0,1.875 1.42968746,3.29296871 3.07031246,3.29296871 1.6875,0 3.0820313,-1.44140621 3.0820313,-3.29296871 z m -3.0703125,2.40234371 c -1.03125,0 -1.9921875,-0.85546871 -1.9921875,-2.55468751 0,-1.734375 1.078125,-2.4140625 1.9804687,-2.4140625 0.984375,0 1.9921875,0.7382813 1.9921875,2.4140625 0,1.7695313 -1.0195312,2.55468751 -1.9804687,2.55468751 z m 5.7128906,0.10546875 c 0.4921875,0.4453125 1.1015627,0.78515625 1.8749997,0.78515625 1.371094,0 2.601563,-1.38281251 2.601563,-3.33984371 0,-1.734375 -0.914063,-3.3164063 -2.25,-3.3164063 -0.585938,0 -1.5000002,0.1875 -2.2500002,0.8203125 V -6.3618984 H 8.1374766 v 9.140625 h 1.0898437 z m 0,-4.17187496 c 0.3398438,-0.4921875 0.8789067,-0.8085938 1.4648437,-0.8085938 1.066406,0 1.921875,1.078125 1.921875,2.4375 0,1.4414063 -0.984375,2.47265626 -2.050781,2.47265626 -0.398438,0 -0.6679689,-0.140625 -0.9257814,-0.35156246 -0.3632813,-0.3164063 -0.4101563,-0.5742188 -0.4101563,-0.796875 z m 11.1445317,3.2695312 c -0.65625,0.5273438 -1.394532,0.79687501 -2.191407,0.79687501 -1.195312,0 -1.96875,-1.05468751 -1.96875,-2.44921871 0,-1.1953125 0.574219,-2.4960938 2.003907,-2.4960938 0.960937,0 1.371093,0.234375 1.980468,0.6445313 l 0.175782,-0.9257813 c -0.832032,-0.4921875 -1.3125,-0.609375 -2.15625,-0.609375 -1.980469,0 -3.09375,1.7578125 -3.09375,3.3867188 0,1.8398437 1.3125,3.33984371 3.035156,3.33984371 0.703125,0 1.511719,-0.1640625 2.296875,-0.73828125 0,-0.046875 -0.04687,-0.49218746 -0.05859,-0.55078126 z m 7.075195,-1.6054687 c 0,-1.9453125 -1.417969,-3.4335938 -3.070313,-3.4335938 -1.699218,0 -3.082031,1.5234375 -3.082031,3.4335938 0,1.875 1.429688,3.29296871 3.070313,3.29296871 1.6875,0 3.082031,-1.44140621 3.082031,-3.29296871 z m -3.070313,2.40234371 c -1.03125,0 -1.992187,-0.85546871 -1.992187,-2.55468751 0,-1.734375 1.078125,-2.4140625 1.980469,-2.4140625 0.984375,0 1.992187,0.7382813 1.992187,2.4140625 0,1.7695313 -1.019531,2.55468751 -1.980469,2.55468751 z m 9.966797,-9.19921871 h -1.066406 v 4.1835937 c -0.65625,-0.5507812 -1.40625,-0.75 -2.015625,-0.75 -1.371094,0 -2.484375,1.4648438 -2.484375,3.328125 0,1.8515625 1.054688,3.32812501 2.425781,3.32812501 0.527344,0 1.335938,-0.1640625 2.050782,-0.8671875 v 0.7265625 h 1.089843 z m -1.089843,8.2617187 c -0.351563,0.609375 -0.84375,0.97265626 -1.476563,0.97265626 -0.878906,0 -1.910156,-0.67968746 -1.910156,-2.46093746 0,-1.8984375 1.21875,-2.4726563 2.050781,-2.4726563 0.5625,0 1.019531,0.28125 1.335938,0.7617188 z m 8.05957,-1.5351562 c 0,-0.6210938 -0.05859,-1.5 -0.515625,-2.2617188 -0.585938,-0.984375 -1.59375,-1.1015625 -2.003906,-1.1015625 -1.546875,0 -2.847657,1.4882813 -2.847657,3.3632813 0,1.8867187 1.382813,3.36328121 3.046875,3.36328121 0.65625,0 1.453125,-0.1875 2.238282,-0.76171875 0,-0.0585938 -0.04687,-0.49218746 -0.04687,-0.52734376 -0.01172,-0.011719 -0.04687,-0.328125 -0.04687,-0.3867187 -0.84375,0.71484371 -1.6875,0.82031246 -2.121094,0.82031246 -1.101563,0 -2.050781,-0.99609376 -2.074219,-2.50781246 z m -4.289063,-0.7734375 c 0.246094,-0.9726563 0.925782,-1.7226563 1.769532,-1.7226563 0.445312,0 1.429687,0.1992188 1.675781,1.7226563 z m 7.215821,-2.3671875 h -1.160157 v 1.1601562 h 1.160157 z m -1.160157,5.203125 v 1.16015621 h 1.160157 V -1.1587734 Z m 15.205079,-3.515625 c 0,-0.9609375 -0.03516,-2.0625 -0.410157,-3.0820313 -0.621093,-1.6054687 -1.734375,-1.9335937 -2.496093,-1.9335937 -0.9375,0 -1.839844,0.46875 -2.367188,1.6054687 -0.46875,1.0195313 -0.5625,2.1796875 -0.5625,3.4101563 0,1.5585937 0.128906,2.4492187 0.585938,3.4570312 0.433593,0.94921876 1.347656,1.52343751 2.332031,1.52343751 0.9375,0 1.851562,-0.515625 2.332031,-1.51171871 0.492188,-1.0195313 0.585938,-2.0625 0.585938,-3.46875 z m -2.90625,4.11328121 c -1.839844,0 -1.839844,-2.94140621 -1.839844,-4.28906251 0,-0.9257812 0,-1.8046875 0.257812,-2.625 0.351563,-1.0195312 0.972657,-1.359375 1.570313,-1.359375 1.828125,0 1.828125,2.671875 1.828125,3.984375 0,0.9257813 0,1.8632813 -0.257813,2.7539063 -0.386718,1.38281246 -1.183593,1.53515621 -1.558593,1.53515621 z m 7.154296,-2.71875001 2.542969,-3.0820312 h -1.207031 l -1.804688,2.3203125 -1.886718,-2.3203125 h -1.21875 l 2.613281,3.0820312 -2.683594,3.28125001 h 1.195313 l 1.980468,-2.67187501 2.027344,2.67187501 h 1.207031 z m 6.999024,-6.4101562 h -0.269531 c -0.234375,0.2226562 -0.925782,0.9023437 -2.472657,0.9257812 -0.199218,0 -0.210937,0.011719 -0.210937,0.2695313 v 0.5742187 c 0.867187,0 1.535156,-0.2109375 1.828125,-0.3398437 v 7.42968746 h -1.746094 v 0.83203125 h 4.617188 v -0.83203125 h -1.746094 z m 3.509765,8.78906246 v 0.90234375 h 5.613282 v -0.97265625 h -2.554688 c -0.175781,0 -0.351562,0.0117188 -0.515625,0.0117188 h -1.535156 c 0.363281,-0.38671876 1.699219,-1.71093756 2.636719,-2.54296876 1.054687,-0.9257812 1.96875,-1.8164062 1.96875,-3.140625 0,-1.59375 -1.113282,-3.046875 -3,-3.046875 -1.546875,0 -2.34375,1.0078125 -2.730469,2.34375 0.457031,0.5742188 0.457031,0.609375 0.585937,0.7734375 0.363282,-1.5351563 0.890625,-2.2382813 1.957032,-2.2382813 1.230468,0 2.039062,0.9609375 2.039062,2.203125 0,0.7382813 -0.304687,1.5703125 -1.265625,2.5195313 z m 0,0"
       style="fill:#000000;fill-opacity:1;fill-rule:nonzero;stroke:none"
       aria-label="opcode:0x12"
       transform="matrix(1.3333333,0,0,1.3333333,103.568,48.088)" />
    <path
       id="path7"
       d="M 0,0 V 17.933"
       style="fill:none;stroke:#000000;stroke-width:0.398;stroke-linecap:butt;stroke-linejoin:miter;stroke-miterlimit:10;stroke-dasharray:none;stroke-opacity:1"
       transform="matrix(1.3333333,0,0,-1.3333333,242.888,55.261333)" />
    <path
       id="path8"
       d="M 0,0 H 158.455 V 17.933 H 0 Z"
       style="fill:#808080;fill-opacity:1;fill-rule:nonzero;stroke:none"
       transform="matrix(1.3333333,0,0,-1.3333333,243.15467,55.261333)" />
    <path
       id="path9"
       d="m 6.4229063,-4.6743984 c 0,-0.9609375 -0.035156,-2.0625 -0.4101563,-3.0820313 -0.6210937,-1.6054687 -1.734375,-1.9335937 -2.4960937,-1.9335937 -0.9375,0 -1.8398438,0.46875 -2.3671875,1.6054687 -0.46875005,1.0195313 -0.56250005,2.1796875 -0.56250005,3.4101563 0,1.5585937 0.12890625,2.4492187 0.58593755,3.4570312 0.4335937,0.94921876 1.3476562,1.52343751 2.3320312,1.52343751 0.9375,0 1.8515625,-0.515625 2.3320313,-1.51171871 0.4921875,-1.0195313 0.5859375,-2.0625 0.5859375,-3.46875 z m -2.90625,4.11328121 c -1.8398438,0 -1.8398438,-2.94140621 -1.8398438,-4.28906251 0,-0.9257812 0,-1.8046875 0.2578125,-2.625 0.3515625,-1.0195312 0.9726563,-1.359375 1.5703125,-1.359375 1.828125,0 1.828125,2.671875 1.828125,3.984375 0,0.9257813 0,1.8632813 -0.2578125,2.7539063 -0.3867187,1.38281246 -1.1835937,1.53515621 -1.5585937,1.53515621 z m 0,0"
       style="fill:#000000;fill-opacity:1;fill-rule:nonzero;stroke:none"
       aria-label="0"
       transform="matrix(1.3333333,0,0,1.3333333,344.108,48.088)" />
    <path
       id="path10"
       d="M 0,0 V 17.933"
       style="fill:none;stroke:#000000;stroke-width:0.398;stroke-linecap:butt;stroke-linejoin:miter;stroke-miterlimit:10;stroke-dasharray:none;stroke-opacity:1"
       transform="matrix(1.3333333,0,0,-1.3333333,454.69333,55.261333)" />
    <path
       id="path11"
       d="M 2.1785,-9.9478359 H 1.1120937 v 9.94921871 h 1.0898438 v -0.64453125 c 0.6679687,0.6328125 1.3710937,0.78515625 1.875,0.78515625 1.359375,0 2.6015625,-1.38281251 2.6015625,-3.33984371 0,-1.7695313 -0.9375,-3.3164063 -2.2734375,-3.3164063 -0.421875,0 -1.3359375,0.09375 -2.2265625,0.8085938 z m 0.023437,5.1210937 c 0.2695312,-0.4101562 0.7851562,-0.8203125 1.4882812,-0.8203125 0.8671875,0 1.8984375,0.65625 1.8984375,2.4492188 0,1.8632812 -1.171875,2.48437496 -2.0507812,2.48437496 -0.3984375,0 -0.6679688,-0.140625 -0.9257813,-0.35156246 C 2.2605307,-1.3579922 2.201937,-1.6158047 2.201937,-1.8618984 Z m 14.999999,0.515625 c 0,-0.9960937 -0.257812,-2.203125 -1.933593,-2.203125 -1.21875,0 -1.898438,0.8554688 -2.109375,1.1601563 C 12.901156,-6.2564297 12.116,-6.5142422 11.366,-6.5142422 c -1.171875,0 -1.7929688,0.7617188 -2.0390625,1.0664063 V -6.4439297 H 8.3074062 V 0.00138281 H 9.39725 V -3.5728359 c 0,-0.9492188 0.375,-2.0742188 1.417969,-2.0742188 1.324218,0 1.394531,0.9023438 1.394531,1.4296875 v 4.21875001 h 1.089844 V -3.5728359 c 0,-0.9492188 0.375,-2.0742188 1.417968,-2.0742188 1.324219,0 1.394532,0.9023438 1.394532,1.4296875 v 4.21875001 h 1.089843 z m 3.316407,3.66796876 c 0.492188,0.4453125 1.101563,0.78515625 1.875,0.78515625 1.371093,0 2.601563,-1.38281251 2.601563,-3.33984371 0,-1.734375 -0.914063,-3.3164063 -2.25,-3.3164063 -0.585938,0 -1.5,0.1875 -2.25,0.8203125 V -6.3618984 H 19.4285 v 9.140625 h 1.089844 z m 0,-4.17187496 c 0.339843,-0.4921875 0.878906,-0.8085938 1.464843,-0.8085938 1.066407,0 1.921875,1.078125 1.921875,2.4375 0,1.4414063 -0.984375,2.47265626 -2.050781,2.47265626 -0.398437,0 -0.667969,-0.140625 -0.925781,-0.35156246 -0.363281,-0.3164063 -0.410156,-0.5742188 -0.410156,-0.796875 z m 7.262695,-4.921875 H 26.55057 v 1.2304687 h 1.230469 z m -0.08203,3.375 h -1.066407 v 6.36328121 h 1.066407 z m 7.195311,-3.5859375 h -1.066406 v 4.1835937 c -0.65625,-0.5507812 -1.40625,-0.75 -2.015625,-0.75 -1.371094,0 -2.484375,1.4648438 -2.484375,3.328125 0,1.8515625 1.054688,3.32812501 2.425781,3.32812501 0.527344,0 1.335938,-0.1640625 2.050782,-0.8671875 v 0.7265625 h 1.089843 z m -1.089843,8.2617187 c -0.351563,0.609375 -0.84375,0.97265626 -1.476563,0.97265626 -0.878906,0 -1.910156,-0.67968746 -1.910156,-2.46093746 0,-1.8984375 1.21875,-2.4726563 2.050781,-2.4726563 0.5625,0 1.019531,0.28125 1.335938,0.7617188 z m 5.871093,-1.59375 2.542969,-3.0820312 h -1.207031 l -1.804688,2.3203125 -1.886718,-2.3203125 h -1.21875 l 2.613281,3.0820312 -2.683594,3.28125001 h 1.195313 l 1.980468,-2.67187501 2.027344,2.67187501 h 1.207031 z m 0,0"
       style="fill:#000000;fill-opacity:1;fill-rule:nonzero;stroke:none"
       aria-label="bmpidx"
       transform="matrix(1.3333333,0,0,1.3333333,464.34533,48.088)" />
    <path
       id="path12"
       d="M 0,0 V 17.933"
       style="fill:none;stroke:#000000;stroke-width:0.398;stroke-linecap:butt;stroke-linejoin:miter;stroke-miterlimit:10;stroke-dasharray:none;stroke-opacity:1"
       transform="matrix(1.3333333,0,0,-1.3333333,530.608,55.261333)" />
    <path
       id="path13"
       d="M 0,0 H 345.801"
       style="fill:none;stroke:#000000;stroke-width:0.398;stroke-linecap:butt;stroke-linejoin:miter;stroke-miterlimit:10;stroke-dasharray:none;stroke-opacity:1"
       transform="matrix(1.3333333,0,0,-1.3333333,69.805333,55.526667)" />
    <path
       id="path14"
       d="M 0,0 V 17.933"
       style="fill:none;stroke:#000000;stroke-width:0.398;stroke-linecap:butt;stroke-linejoin:miter;stroke-miterlimit:10;stroke-dasharray:none;stroke-opacity:1"
       transform="matrix(1.3333333,0,0,-1.3333333,70.070667,79.702667)" />
    <path
       id="path15"
       d="m 5.6130469,-4.2055937 c 0,-1.3710938 -0.9960938,-2.3789063 -2.3320313,-2.3789063 -0.8554687,0 -1.5,0.1992188 -2.203125,0.609375 l 0.082031,0.9375 c 0.6328125,-0.4570312 1.2890625,-0.7148437 2.1210937,-0.7148437 0.6679688,0 1.2421875,0.5273437 1.2421875,1.5820312 V -3.5845 c -0.65625,0.023437 -1.5117187,0.070312 -2.3671875,0.3632813 -0.9609375,0.328125 -1.52343747,0.8554687 -1.52343747,1.5703125 0,0.6328125 0.37499997,1.7929687 1.59374997,1.7929687 0.7851563,0 1.7929688,-0.22265625 2.3203125,-0.66796875 V 0.0014375 h 1.0664063 z m -1.0898438,2.2851562 c 0,0.28125 0,0.6328125 -0.4804687,0.9140625 -0.3867188,0.24609375 -0.8671875,0.29296875 -1.0898438,0.29296875 -0.7734375,0 -1.3007812,-0.42187495 -1.3007812,-0.94921875 0,-0.9726562 1.9921875,-1.1953125 2.8710937,-1.1953125 z m 8.2705079,-8.0273437 h -1.066406 v 4.1835937 c -0.65625,-0.5507812 -1.40625,-0.75 -2.0156253,-0.75 -1.3710938,0 -2.484375,1.4648438 -2.484375,3.328125 0,1.8515625 1.0546875,3.328125 2.4257812,3.328125 0.5273441,0 1.3359371,-0.1640625 2.0507811,-0.8671875 v 0.7265625 h 1.089844 z m -1.089844,8.2617187 c -0.351562,0.609375 -0.84375,0.97265625 -1.476562,0.97265625 -0.8789066,0 -1.9101566,-0.67968745 -1.9101566,-2.46093745 0,-1.8984375 1.21875,-2.4726563 2.0507816,-2.4726563 0.5625,0 1.019531,0.28125 1.335937,0.7617188 z m 8.296875,-8.2617187 h -1.066406 v 4.1835937 c -0.65625,-0.5507812 -1.40625,-0.75 -2.015625,-0.75 -1.371094,0 -2.484375,1.4648438 -2.484375,3.328125 0,1.8515625 1.054687,3.328125 2.425781,3.328125 0.527344,0 1.335938,-0.1640625 2.050781,-0.8671875 v 0.7265625 h 1.089844 z m -1.089844,8.2617187 c -0.351562,0.609375 -0.84375,0.97265625 -1.476562,0.97265625 -0.878906,0 -1.910156,-0.67968745 -1.910156,-2.46093745 0,-1.8984375 1.21875,-2.4726563 2.050781,-2.4726563 0.5625,0 1.019531,0.28125 1.335937,0.7617188 z m 4.40625,-1.453125 c 0,-1.453125 1.089844,-2.390625 2.378907,-2.4140625 v -0.9609375 c -1.300782,0.023437 -2.0625,0.7734375 -2.449219,1.3359375 v -1.265625 h -0.996094 v 6.4453125 h 1.066406 z m 4.772461,-6.8085937 h -1.066406 v 9.9492187 h 1.066406 z m 7.710938,6.796875 c 0,-1.9453125 -1.417969,-3.4335938 -3.070313,-3.4335938 -1.699218,0 -3.082031,1.5234375 -3.082031,3.4335938 0,1.875 1.429688,3.2929687 3.070313,3.2929687 1.6875,0 3.082031,-1.4414062 3.082031,-3.2929687 z m -3.070313,2.4023437 c -1.03125,0 -1.992187,-0.8554687 -1.992187,-2.5546875 0,-1.734375 1.078125,-2.4140625 1.980469,-2.4140625 0.984375,0 1.992187,0.7382813 1.992187,2.4140625 0,1.7695313 -1.019531,2.5546875 -1.980469,2.5546875 z m 0,0"
       style="fill:#000000;fill-opacity:1;fill-rule:nonzero;stroke:none"
       aria-label="addrlo"
       transform="matrix(1.3333333,0,0,1.3333333,276.18,72.529333)" />
    <path
       id="path16"
       d="M 0,0 V 17.933"
       style="fill:none;stroke:#000000;stroke-width:0.398;stroke-linecap:butt;stroke-linejoin:miter;stroke-miterlimit:10;stroke-dasharray:none;stroke-opacity:1"
       transform="matrix(1.3333333,0,0,-1.3333333,530.608,79.702667)" />
    <path
       id="path17"
       d="M 0,0 H 345.801"
       style="fill:none;stroke:#000000;stroke-width:0.398;stroke-linecap:butt;stroke-linejoin:miter;stroke-miterlimit:10;stroke-dasharray:none;stroke-opacity:1"
       transform="matrix(1.3333333,0,0,-1.3333333,69.805333,79.968)" />
    <path
       id="path18"
       d="M 0,0 V 17.933"
       style="fill:none;stroke:#000000;stroke-width:0.398;stroke-linecap:butt;stroke-linejoin:miter;stroke-miterlimit:10;stroke-dasharray:none;stroke-opacity:1"
       transform="matrix(1.3333333,0,0,-1.3333333,70.070667,104.144)" />
    <path
       id="path19"
       d="m 5.6132266,-4.2084687 c 0,-1.3710938 -0.9960938,-2.3789063 -2.3320313,-2.3789063 -0.8554687,0 -1.5,0.1992188 -2.203125,0.609375 l 0.082031,0.9375 c 0.6328125,-0.4570312 1.2890625,-0.7148437 2.1210937,-0.7148437 0.6679688,0 1.2421875,0.5273437 1.2421875,1.5820312 v 0.5859375 c -0.65625,0.023437 -1.5117187,0.070312 -2.3671875,0.3632813 -0.9609375,0.328125 -1.52343749,0.8554687 -1.52343749,1.5703125 0,0.6328125 0.37499999,1.7929687 1.59374999,1.7929687 0.7851563,0 1.7929688,-0.22265625 2.3203125,-0.66796875 v 0.52734375 h 1.0664063 z m -1.0898438,2.2851562 c 0,0.28125 0,0.6328125 -0.4804687,0.9140625 -0.3867188,0.24609375 -0.8671875,0.29296875 -1.0898438,0.29296875 -0.7734375,0 -1.3007812,-0.42187495 -1.3007812,-0.94921875 0,-0.9726562 1.9921875,-1.1953125 2.8710937,-1.1953125 z m 8.2705082,-8.0273437 h -1.066407 v 4.1835937 c -0.65625,-0.5507812 -1.40625,-0.75 -2.0156246,-0.75 -1.3710938,0 -2.484375,1.4648438 -2.484375,3.328125 0,1.8515625 1.0546875,3.328125 2.4257812,3.328125 0.5273434,0 1.3359374,-0.1640625 2.0507814,-0.8671875 v 0.7265625 h 1.089844 z m -1.089844,8.2617187 c -0.351563,0.609375 -0.84375,0.97265625 -1.476563,0.97265625 -0.8789059,0 -1.9101559,-0.67968745 -1.9101559,-2.46093745 0,-1.8984375 1.21875,-2.4726563 2.0507809,-2.4726563 0.5625,0 1.019532,0.28125 1.335938,0.7617188 z m 8.296875,-8.2617187 h -1.066406 v 4.1835937 c -0.65625,-0.5507812 -1.40625,-0.75 -2.015625,-0.75 -1.371094,0 -2.484375,1.4648438 -2.484375,3.328125 0,1.8515625 1.054687,3.328125 2.425781,3.328125 0.527344,0 1.335937,-0.1640625 2.050781,-0.8671875 v 0.7265625 h 1.089844 z m -1.089844,8.2617187 c -0.351562,0.609375 -0.84375,0.97265625 -1.476562,0.97265625 -0.878907,0 -1.910157,-0.67968745 -1.910157,-2.46093745 0,-1.8984375 1.21875,-2.4726563 2.050782,-2.4726563 0.5625,0 1.019531,0.28125 1.335937,0.7617188 z m 4.40625,-1.453125 c 0,-1.453125 1.089844,-2.390625 2.378906,-2.4140625 v -0.9609375 c -1.300781,0.023437 -2.0625,0.7734375 -2.449218,1.3359375 V -6.44675 h -0.996094 v 6.4453125 h 1.066406 z m 8.674805,-1.171875 c 0,-0.8789062 -0.1875,-2.203125 -1.921875,-2.203125 -0.984375,0 -1.652344,0.5625 -1.992188,0.9960938 v -4.4296875 h -1.066406 v 9.9492187 h 1.089844 v -3.5742187 c 0,-0.890625 0.328125,-2.0742188 1.417969,-2.0742188 1.335937,0 1.382812,0.9257813 1.382812,1.4296875 v 4.21875 h 1.089844 z m 3.386719,-5.4257812 H 34.148383 V -8.50925 h 1.230469 z m -0.08203,3.375 h -1.066406 v 6.3632812 h 1.066406 z m 0,0"
       style="fill:#000000;fill-opacity:1;fill-rule:nonzero;stroke:none"
       aria-label="addrhi"
       transform="matrix(1.3333333,0,0,1.3333333,276.05867,96.970667)" />
    <path
       id="path20"
       d="M 0,0 V 17.933"
       style="fill:none;stroke:#000000;stroke-width:0.398;stroke-linecap:butt;stroke-linejoin:miter;stroke-miterlimit:10;stroke-dasharray:none;stroke-opacity:1"
       transform="matrix(1.3333333,0,0,-1.3333333,530.608,104.144)" />
    <path
       id="path21"
       d="M 0,0 H 345.801"
       style="fill:none;stroke:#000000;stroke-width:0.398;stroke-linecap:butt;stroke-linejoin:miter;stroke-miterlimit:10;stroke-dasharray:none;stroke-opacity:1"
       transform="matrix(1.3333333,0,0,-1.3333333,69.805333,104.40933)" />
    <path
       id="path22"
       d="M 0,0 V 17.933"
       style="fill:none;stroke:#000000;stroke-width:0.398;stroke-linecap:butt;stroke-linejoin:miter;stroke-miterlimit:10;stroke-dasharray:none;stroke-opacity:1"
       transform="matrix(1.3333333,0,0,-1.3333333,70.070667,128.58533)" />
    <path
       id="path23"
       d="M 0,0 H 25.205 V 17.933 H 0 Z"
       style="fill:#808080;fill-opacity:1;fill-rule:nonzero;stroke:none"
       transform="matrix(1.3333333,0,0,-1.3333333,70.336,128.58533)" />
    <path
       id="path24"
       d="m 6.4216484,-4.6771641 c 0,-0.9609375 -0.035156,-2.0625 -0.4101562,-3.0820312 -0.6210938,-1.6054688 -1.734375,-1.9335938 -2.4960938,-1.9335938 -0.9375,0 -1.8398437,0.46875 -2.3671875,1.6054688 -0.46874996,1.0195312 -0.56249996,2.1796875 -0.56249996,3.4101562 0,1.5585938 0.12890625,2.4492188 0.58593746,3.4570313 0.4335938,0.94921874 1.3476563,1.52343749 2.3320313,1.52343749 0.9375,0 1.8515625,-0.515625 2.3320312,-1.51171879 0.4921875,-1.0195312 0.5859375,-2.0625 0.5859375,-3.46875 z m -2.90625,4.11328129 c -1.8398437,0 -1.8398437,-2.94140629 -1.8398437,-4.28906249 0,-0.9257813 0,-1.8046875 0.2578125,-2.625 0.3515625,-1.0195313 0.9726562,-1.359375 1.5703125,-1.359375 1.828125,0 1.828125,2.671875 1.828125,3.984375 0,0.9257812 0,1.8632812 -0.2578125,2.7539062 -0.3867188,1.38281254 -1.1835938,1.53515629 -1.5585938,1.53515629 z m 0,0"
       style="fill:#000000;fill-opacity:1;fill-rule:nonzero;stroke:none"
       aria-label="0"
       transform="matrix(1.3333333,0,0,1.3333333,82.457333,121.412)" />
    <path
       id="path25"
       d="M 0,0 V 17.933"
       style="fill:none;stroke:#000000;stroke-width:0.398;stroke-linecap:butt;stroke-linejoin:miter;stroke-miterlimit:10;stroke-dasharray:none;stroke-opacity:1"
       transform="matrix(1.3333333,0,0,-1.3333333,104.20933,128.58533)" />
    <path
       id="path26"
       d="M 9.3287969,-6.3646641 H 8.2741094 l -0.8554688,2.90625 c -0.1992187,0.6914063 -0.609375,2.0390625 -0.65625,2.64843754 H 6.7389531 C 6.7037969,-1.1498203 6.4694219,-2.1107578 6.1647344,-3.1302891 l -0.9375,-3.234375 H 4.2311406 l -0.8203125,2.8007813 c -0.2578125,0.890625 -0.5976562,2.1328125 -0.6445312,2.73046874 H 2.7545781 C 2.7428594,-1.1029453 2.5787969,-1.8646641 2.3092656,-2.8256016 L 1.2897344,-6.3646641 H 0.19989062 L 2.1217656,-0.00138281 H 3.2233281 C 3.7741094,-1.8060703 4.6061406,-4.5365391 4.6881719,-5.5326328 h 0.011719 c 0.035156,0.5859375 0.3164063,1.6171875 0.421875,1.9453125 l 1.0195313,3.58593749 h 1.265625 z m 2.4814451,-3.375 h -1.230469 v 1.2304688 h 1.230469 z m -0.08203,3.375 h -1.066406 v 6.36328129 h 1.066406 z m 7.192383,-3.5859375 h -1.066407 v 4.1835938 c -0.65625,-0.5507813 -1.40625,-0.75 -2.015625,-0.75 -1.371093,0 -2.484375,1.4648437 -2.484375,3.328125 0,1.8515625 1.054688,3.32812499 2.425782,3.32812499 0.527343,0 1.335937,-0.1640625 2.050781,-0.8671875 v 0.7265625 h 1.089844 z m -1.089844,8.2617188 c -0.351563,0.609375 -0.84375,0.97265624 -1.476563,0.97265624 -0.878906,0 -1.910156,-0.67968754 -1.910156,-2.46093754 0,-1.8984375 1.21875,-2.4726562 2.050781,-2.4726562 0.5625,0 1.019532,0.28125 1.335938,0.7617187 z m 4.675781,-3.84375 H 24.487 v -0.8320313 h -1.980469 v -1.828125 h -0.984375 v 1.828125 h -1.207031 v 0.8320313 H 21.487 v 3.8554687 c 0,0.83203129 0.1875,1.81640629 1.183594,1.81640629 0.960937,0 1.617187,-0.328125 2.0625,-0.55078125 L 24.522156,-1.2435703 c -0.503906,0.43359374 -1.03125,0.49218749 -1.289062,0.49218749 -0.632813,0 -0.726563,-0.66796879 -0.726563,-1.17187499 z m 8.707031,1.21875 c 0,-0.8789063 -0.1875,-2.203125 -1.921875,-2.203125 -0.984375,0 -1.652343,0.5625 -1.992187,0.9960937 v -4.4296875 h -1.066406 v 9.94921879 h 1.089843 V -3.5756016 c 0,-0.890625 0.328125,-2.0742187 1.417969,-2.0742187 1.335938,0 1.382813,0.9257812 1.382813,1.4296875 v 4.21874999 h 1.089843 z m 0,0"
       style="fill:#000000;fill-opacity:1;fill-rule:nonzero;stroke:none"
       aria-label="width"
       transform="matrix(1.3333333,0,0,1.3333333,295.85067,121.412)" />
    <path
       id="path27"
       d="M 0,0 V 17.933"
       style="fill:none;stroke:#000000;stroke-width:0.398;stroke-linecap:butt;stroke-linejoin:miter;stroke-miterlimit:10;stroke-dasharray:none;stroke-opacity:1"
       transform="matrix(1.3333333,0,0,-1.3333333,530.608,128.58533)" />
    <path
       id="path28"
       d="M 0,0 H 345.801"
       style="fill:none;stroke:#000000;stroke-width:0.398;stroke-linecap:butt;stroke-linejoin:miter;stroke-miterlimit:10;stroke-dasharray:none;stroke-opacity:1"
       transform="matrix(1.3333333,0,0,-1.3333333,69.805333,128.852)" />
    <path
       id="path29"
       d="M 0,0 V 17.933"
       style="fill:none;stroke:#000000;stroke-width:0.398;stroke-linecap:butt;stroke-linejoin:miter;stroke-miterlimit:10;stroke-dasharray:none;stroke-opacity:1"
       transform="matrix(1.3333333,0,0,-1.3333333,70.070667,153.028)" />
    <path
       id="path30"
       d="M 0,0 H 25.205 V 17.933 H 0 Z"
       style="fill:#808080;fill-opacity:1;fill-rule:nonzero;stroke:none"
       transform="matrix(1.3333333,0,0,-1.3333333,70.336,153.028)" />
    <path
       id="path31"
       d="m 6.4216484,-4.6751797 c 0,-0.9609375 -0.035156,-2.0625 -0.4101562,-3.0820312 -0.6210938,-1.6054688 -1.734375,-1.9335938 -2.4960938,-1.9335938 -0.9375,0 -1.8398437,0.46875 -2.3671875,1.6054688 -0.46874996,1.0195312 -0.56249996,2.1796875 -0.56249996,3.4101562 0,1.5585938 0.12890625,2.4492188 0.58593746,3.4570313 0.4335938,0.94921871 1.3476563,1.52343746 2.3320313,1.52343746 0.9375,0 1.8515625,-0.515625 2.3320312,-1.51171876 0.4921875,-1.0195312 0.5859375,-2.0625 0.5859375,-3.46875 z m -2.90625,4.11328126 c -1.8398437,0 -1.8398437,-2.94140626 -1.8398437,-4.28906246 0,-0.9257813 0,-1.8046875 0.2578125,-2.625 0.3515625,-1.0195313 0.9726562,-1.359375 1.5703125,-1.359375 1.828125,0 1.828125,2.671875 1.828125,3.984375 0,0.9257812 0,1.8632812 -0.2578125,2.7539062 -0.3867188,1.38281251 -1.1835938,1.53515626 -1.5585938,1.53515626 z m 0,0"
       style="fill:#000000;fill-opacity:1;fill-rule:nonzero;stroke:none"
       aria-label="0"
       transform="matrix(1.3333333,0,0,1.3333333,82.457333,145.85467)" />
    <path
       id="path32"
       d="M 0,0 V 17.933"
       style="fill:none;stroke:#000000;stroke-width:0.398;stroke-linecap:butt;stroke-linejoin:miter;stroke-miterlimit:10;stroke-dasharray:none;stroke-opacity:1"
       transform="matrix(1.3333333,0,0,-1.3333333,104.20933,153.028)" />
    <path
       id="path33"
       d="m 6.0813516,-4.3118984 c 0,-0.8789063 -0.1875,-2.203125 -1.921875,-2.203125 -0.984375,0 -1.6523438,0.5625 -1.9921875,0.9960937 V -9.9486172 H 1.1008828 V 6.015625e-4 H 2.1907266 V -3.5736172 c 0,-0.890625 0.328125,-2.0742187 1.4179687,-2.0742187 1.3359375,0 1.3828125,0.9257812 1.3828125,1.4296875 V 6.015625e-4 h 1.0898438 z m 6.9609374,1.0898437 c 0,-0.6210937 -0.05859,-1.5 -0.515625,-2.2617187 -0.585937,-0.984375 -1.59375,-1.1015625 -2.003906,-1.1015625 -1.5468752,0 -2.8476564,1.4882812 -2.8476564,3.3632812 0,1.8867188 1.3828125,3.36328126 3.0468754,3.36328126 0.65625,0 1.453125,-0.1875 2.238281,-0.76171875 0,-0.0585938 -0.04687,-0.49218751 -0.04687,-0.52734371 -0.01172,-0.011719 -0.04687,-0.328125 -0.04687,-0.3867188 -0.84375,0.71484376 -1.6875,0.82031251 -2.121094,0.82031251 -1.1015624,0 -2.0507812,-0.99609371 -2.0742187,-2.50781251 z M 8.7532266,-3.9954922 c 0.2460937,-0.9726562 0.9257812,-1.7226562 1.7695314,-1.7226562 0.445312,0 1.429687,0.1992187 1.675781,1.7226562 z m 6.9580074,-5.7421875 h -1.230468 v 1.2304688 h 1.230468 z m -0.08203,3.375 H 14.562797 V 6.015625e-4 h 1.066406 z m 6.011719,0.7148438 c 0,0 0.03516,0.023437 0.04687,0.058594 0.304687,-0.035156 0.621094,-0.070312 1.148437,-0.070312 0.04687,0 0.375,0 0.726563,0.023437 l -0.152344,-0.8789062 c -0.269531,0 -1.253906,0.023437 -2.191406,0.4804687 -0.480469,-0.4101562 -1.054688,-0.4804687 -1.335938,-0.4804687 -1.253906,0 -2.25,1.0546875 -2.25,2.3085937 0,0.515625 0.152344,0.9960938 0.46875,1.4296875 -0.328125,0.4570313 -0.410156,0.8789063 -0.410156,1.2304688 0,0.5273437 0.199219,0.89062496 0.351563,1.07812496 -0.726563,0.4687500025 -0.902344,1.08984375 -0.902344,1.48828124 0,1.0429688 1.359375,1.921875 3.117187,1.921875 1.746094,0 3.117188,-0.84375 3.117188,-1.9335937 0,-2.015625 -2.320313,-2.015625 -2.90625,-2.015625 h -1.21875 c -0.199219,0 -0.820313,0 -0.820313,-0.7617188 0,-0.3046875 0.05859,-0.3984375 0.140625,-0.5273437 0.246094,0.1757812 0.726563,0.421875 1.300782,0.421875 1.230468,0 2.25,-1.0195313 2.25,-2.3320313 0,-0.515625 -0.1875,-1.0429687 -0.492188,-1.4296875 z m -1.757813,2.9765625 c -0.632812,0 -1.265625,-0.421875 -1.265625,-1.5117188 0,-1.2773437 0.808594,-1.5351562 1.253907,-1.5351562 0.621093,0 1.253906,0.421875 1.253906,1.5117187 0,1.2773438 -0.796875,1.5351563 -1.242188,1.5351563 z m 0.597657,2.69531246 c 0.316406,0 1.898437,0 1.898437,0.99609374 0,0.65625 -0.996094,1.1367188 -2.109375,1.1367188 -1.125,0 -2.121094,-0.4453125 -2.121094,-1.1484375 0,-0.046875 0,-0.98437504 1.089844,-0.98437504 z m 9.377929,-4.33593746 c 0,-0.8789063 -0.1875,-2.203125 -1.921875,-2.203125 -0.984375,0 -1.652343,0.5625 -1.992187,0.9960937 V -9.9486172 H 24.878227 V 6.015625e-4 H 25.96807 V -3.5736172 c 0,-0.890625 0.328125,-2.0742187 1.417969,-2.0742187 1.335938,0 1.382813,0.9257812 1.382813,1.4296875 V 6.015625e-4 h 1.089843 z m 3.574219,-1.21875 h 1.980469 v -0.8320313 h -1.980469 v -1.828125 H 32.44854 v 1.828125 h -1.207031 v 0.8320313 h 1.171875 v 3.8554687 c 0,0.83203126 0.1875,1.81640626 1.183594,1.81640626 0.960937,0 1.617187,-0.328125 2.0625,-0.55078125 L 35.448539,-1.2415859 c -0.503906,0.43359371 -1.03125,0.49218746 -1.289062,0.49218746 -0.632813,0 -0.726563,-0.66796876 -0.726563,-1.17187496 z m 0,0"
       style="fill:#000000;fill-opacity:1;fill-rule:nonzero;stroke:none"
       aria-label="height"
       transform="matrix(1.3333333,0,0,1.3333333,293.372,145.85467)" />
    <path
       id="path34"
       d="M 0,0 V 17.933"
       style="fill:none;stroke:#000000;stroke-width:0.398;stroke-linecap:butt;stroke-linejoin:miter;stroke-miterlimit:10;stroke-dasharray:none;stroke-opacity:1"
       transform="matrix(1.3333333,0,0,-1.3333333,530.608,153.028)" />
    <path
       id="path35"
       d="M 0,0 H 345.801"
       style="fill:none;stroke:#000000;stroke-width:0.398;stroke-linecap:butt;stroke-linejoin:miter;stroke-miterlimit:10;stroke-dasharray:none;stroke-opacity:1"
       transform="matrix(1.3333333,0,0,-1.3333333,69.805333,153.29333)" />
  </g>
</svg>
