<?xml version="1.0" encoding="UTF-8" standalone="no"?>
<!-- Created with Inkscape (http://www.inkscape.org/) -->

<svg
   version="1.1"
   id="svg1"
   width="600.67865"
   height="111.58533"
   viewBox="0 0 600.67865 111.58533"
   sodipodi:docname="main.pdf"
   xmlns:inkscape="http://www.inkscape.org/namespaces/inkscape"
   xmlns:sodipodi="http://sodipodi.sourceforge.net/DTD/sodipodi-0.dtd"
   xmlns="http://www.w3.org/2000/svg"
   xmlns:svg="http://www.w3.org/2000/svg">
  <defs
     id="defs1" />
  <sodipodi:namedview
     id="namedview1"
     pagecolor="#ffffff"
     bordercolor="#000000"
     borderopacity="0.25"
     inkscape:showpageshadow="2"
     inkscape:pageopacity="0.0"
     inkscape:pagecheckerboard="0"
     inkscape:deskcolor="#d1d1d1">
    <inkscape:page
       x="0"
       y="0"
       inkscape:label="1"
       id="page1"
       width="600.67865"
       height="111.58533"
       margin="0"
       bleed="0" />
  </sodipodi:namedview>
  <g
     id="g1"
     inkscape:groupmode="layer"
     inkscape:label="1">
    <path
       id="path1"
       d="M 0,0 H 450.509 V 83.689 H 0 Z"
       style="fill:#ffffff;fill-opacity:1;fill-rule:nonzero;stroke:none"
       transform="matrix(1.3333333,0,0,-1.3333333,0,111.58533)" />
    <path
       id="path2"
       d="M -224.75748,-41.34491 H 224.75747 V 41.34491 H -224.75748 Z"
       style="fill:#ffffff;fill-opacity:1;fill-rule:nonzero;stroke:none"
       transform="matrix(1.3333333,0,0,-1.3333333,300.34,55.793333)" />
    <path
       id="path3"
       d="M 4.2181484,-9.6900781 H 3.9486172 c -0.234375,0.2226562 -0.9257813,0.9023437 -2.4726563,0.9257812 -0.1992187,0 -0.2109375,0.011719 -0.2109375,0.2695313 v 0.5742187 c 0.8671875,0 1.5351563,-0.2109375 1.828125,-0.3398437 v 7.42968748 H 1.3470547 V 0.00132813 H 5.9642422 V -0.83070312 H 4.2181484 Z m 4.9628907,1.1835937 h 3.6796879 v -0.890625 H 8.1615078 v 5.2851563 h 0.9257813 c 0.3632812,-0.8203125 0.9960939,-1.1367188 1.5820309,-1.1367188 0.667969,0 1.429688,0.5976563 1.429688,2.3085938 0,1.8046875 -1.03125,2.37890623 -1.863281,2.37890623 -0.7851567,0 -1.7343754,-0.421875 -2.1914067,-1.33593753 l -0.46875,0.7851563 c 0.9375,1.34765623 2.2851563,1.41796873 2.6718747,1.41796873 1.699219,0 3.09375,-1.41796873 3.09375,-3.21093753 0,-1.7929687 -1.207031,-3.1992187 -2.660156,-3.1992187 -0.574219,0 -1.1015624,0.2109375 -1.4999999,0.5742187 z M 30.216195,-9.6900781 h -0.269531 c -0.234375,0.2226562 -0.925781,0.9023437 -2.472656,0.9257812 -0.199219,0 -0.210938,0.011719 -0.210938,0.2695313 v 0.5742187 c 0.867188,0 1.535157,-0.2109375 1.828125,-0.3398437 v 7.42968748 h -1.746093 v 0.83203125 h 4.617187 v -0.83203125 h -1.746094 z m 8.044922,7.21875 h 1.382813 v -0.8554688 h -1.382813 v -6.0703125 h -1.289062 l -3.5625,6.0703125 v 0.8554688 h 3.714843 v 2.47265623 h 1.136719 z m -3.75,-0.8554688 c 0.421875,-0.7265625 0.984375,-1.6523437 1.582031,-2.8007812 0.175782,-0.328125 1.101563,-2.0859375 1.101563,-2.625 v 5.4257812 z m 21.717774,-6.3632812 h -0.269532 c -0.234375,0.2226562 -0.925781,0.9023437 -2.472656,0.9257812 -0.199219,0 -0.210937,0.011719 -0.210937,0.2695313 v 0.5742187 c 0.867187,0 1.535156,-0.2109375 1.828125,-0.3398437 v 7.42968748 h -1.746094 v 0.83203125 h 4.617187 v -0.83203125 h -1.746093 z m 4.083984,2.34375 c 0.363281,-0.9140625 1.230469,-1.5351563 2.191406,-1.5351563 0.738281,0 1.417969,0.421875 1.417969,1.3476563 0,0.9609375 -0.65625,1.7578125 -1.429688,1.921875 -0.07031,0.023437 -0.972656,0.09375 -1.113281,0.1054687 v 0.8554688 h 1.007813 c 1.476562,0 1.839843,1.265625 1.839843,2.0507812 0,1.171875 -0.703125,2.03906253 -1.734375,2.03906253 -0.914062,0 -2.050781,-0.45703123 -2.707031,-1.48828123 l -0.164062,0.84375 c 0.9375,1.27734373 2.191406,1.51171873 2.894531,1.51171873 1.6875,0 2.941406,-1.37109373 2.941406,-2.88281253 0,-1.1132812 -0.726562,-2.0859375 -1.945312,-2.4960937 1.007812,-0.5507813 1.558593,-1.5117188 1.558593,-2.4609375 0,-1.2304688 -1.160156,-2.15625 -2.554687,-2.15625 -1.136719,0 -2.15625,0.6210937 -2.707031,1.5703125 z m 21.914062,-2.34375 h -0.269531 c -0.234375,0.2226562 -0.925781,0.9023437 -2.472656,0.9257812 -0.199219,0 -0.210938,0.011719 -0.210938,0.2695313 v 0.5742187 c 0.867188,0 1.535157,-0.2109375 1.828125,-0.3398437 v 7.42968748 h -1.746093 v 0.83203125 h 4.617187 v -0.83203125 h -1.746094 z m 3.509766,8.78906248 v 0.90234375 h 5.613281 v -0.97265625 h -2.554687 c -0.175781,0 -0.351563,0.0117188 -0.515625,0.0117188 h -1.535156 c 0.363281,-0.38671868 1.699218,-1.71093748 2.636718,-2.54296868 1.054688,-0.9257813 1.96875,-1.8164063 1.96875,-3.140625 0,-1.59375 -1.113281,-3.046875 -3,-3.046875 -1.546875,0 -2.34375,1.0078125 -2.730468,2.34375 0.457031,0.5742187 0.457031,0.609375 0.585937,0.7734375 0.363281,-1.5351563 0.890625,-2.2382813 1.957031,-2.2382813 1.230469,0 2.039063,0.9609375 2.039063,2.203125 0,0.7382813 -0.304688,1.5703125 -1.265625,2.5195313 z M 108.22498,-9.6900781 h -0.26953 c -0.23437,0.2226562 -0.92578,0.9023437 -2.47265,0.9257812 -0.19922,0 -0.21094,0.011719 -0.21094,0.2695313 v 0.5742187 c 0.86719,0 1.53516,-0.2109375 1.82812,-0.3398437 v 7.42968748 h -1.74609 v 0.83203125 h 4.61719 v -0.83203125 h -1.7461 z m 7.02539,0 h -0.26953 c -0.23437,0.2226562 -0.92578,0.9023437 -2.47265,0.9257812 -0.19922,0 -0.21094,0.011719 -0.21094,0.2695313 v 0.5742187 c 0.86719,0 1.53516,-0.2109375 1.82812,-0.3398437 v 7.42968748 h -1.74609 v 0.83203125 h 4.61719 v -0.83203125 h -1.7461 z m 18.97266,0 h -0.26953 c -0.23438,0.2226562 -0.92578,0.9023437 -2.47266,0.9257812 -0.19922,0 -0.21093,0.011719 -0.21093,0.2695313 v 0.5742187 c 0.86718,0 1.53515,-0.2109375 1.82812,-0.3398437 v 7.42968748 h -1.74609 v 0.83203125 h 4.61718 v -0.83203125 h -1.74609 z m 9.22852,5.015625 c 0,-0.9609375 -0.0352,-2.0625 -0.41016,-3.0820313 -0.62109,-1.6054687 -1.73437,-1.9335937 -2.49609,-1.9335937 -0.9375,0 -1.83985,0.46875 -2.36719,1.6054687 -0.46875,1.0195313 -0.5625,2.1796875 -0.5625,3.4101563 0,1.5585937 0.12891,2.4492187 0.58594,3.4570312 0.43359,0.94921878 1.34765,1.52343753 2.33203,1.52343753 0.9375,0 1.85156,-0.515625 2.33203,-1.51171873 0.49219,-1.0195313 0.58594,-2.0625 0.58594,-3.46875 z m -2.90625,4.11328123 c -1.83985,0 -1.83985,-2.94140623 -1.83985,-4.28906253 0,-0.9257812 0,-1.8046875 0.25782,-2.625 0.35156,-1.0195312 0.97265,-1.359375 1.57031,-1.359375 1.82812,0 1.82812,2.671875 1.82812,3.984375 0,0.9257813 0,1.8632813 -0.25781,2.7539063 -0.38672,1.38281248 -1.18359,1.53515623 -1.55859,1.53515623 z m 16.49121,0.19921875 c 0.64453,0.50390625 1.23047,0.66796875 1.86328,0.66796875 1.81641,0 3.52734,-1.96875003 3.52734,-5.10937503 0,-3.9023437 -1.59375,-4.8867187 -2.84765,-4.8867187 -1.04297,0 -1.64063,0.46875 -2.14453,1.0664062 -0.69141,0.8203125 -0.82032,1.5820313 -0.82032,2.4023438 0,1.8515625 0.94922,3.4101562 2.26172,3.4101562 1.04297,0 1.83985,-0.5039062 2.39063,-1.171875 -0.11719,2.0039063 -1.04297,3.42187503 -2.36719,3.42187503 -0.58594,0 -1.03125,-0.1875 -1.41797,-0.55078123 z m 4.18359,-5.87109378 c 0.0234,0.09375 0.0234,0.234375 0.0234,0.3398438 0,1.0898437 -0.62109,2.2265625 -1.81641,2.2265625 -0.23437,0 -0.86718,0 -1.34765,-0.8554688 -0.26953,-0.515625 -0.32813,-0.9257812 -0.32813,-1.6992187 0,-0.6328125 0.0117,-1.2304688 0.44531,-1.8867188 0.21094,-0.3046875 0.59766,-0.7734375 1.38282,-0.7734375 1.37109,0 1.61718,1.9453125 1.64062,2.6484375 z m 18.24902,1.1601563 c 0.90235,-0.28125 1.75782,-1.0664063 1.75782,-2.1210938 0,-1.359375 -1.19532,-2.4960937 -2.71875,-2.4960937 -1.58203,0 -2.74219,1.1835937 -2.74219,2.4960937 0,1.0664063 0.87891,1.8632813 1.76953,2.1210938 -1.16016,0.3867187 -1.95703,1.3476562 -1.95703,2.4960937 0,1.5351563 1.27734,2.88281253 2.91797,2.88281253 1.6875,0 2.91797,-1.38281253 2.91797,-2.88281253 0,-1.1484375 -0.78516,-2.109375 -1.94532,-2.4960937 z m -0.96093,-0.4335938 c -1.13672,0 -1.7461,-0.7617187 -1.7461,-1.6757812 0,-1.0898438 0.77344,-1.6992188 1.73438,-1.6992188 1.03125,0 1.74609,0.6445313 1.74609,1.6992188 0,0.9609375 -0.65625,1.6757812 -1.73437,1.6757812 z m 0,4.94531253 c -0.96094,0 -1.79297,-0.67968753 -1.79297,-2.03906253 0,-1.5351562 1.03125,-2.0507812 1.78125,-2.0507812 0.79687,0 1.79297,0.5625 1.79297,2.0507812 0,1.3945313 -0.87891,2.03906253 -1.78125,2.03906253 z m 18.71484,-7.85156253 c 0.17578,0 0.33984,-0.023437 0.51563,-0.023437 h 1.72265 c -0.86719,1.0078125 -3.33984,3.8789063 -3.33984,8.57812503 h 1.16015 c 0,-3.72656253 1.53516,-6.78515623 3.10547,-8.63671873 v -0.9023438 h -5.83593 v 0.984375 z m 21.56836,-0.9960937 c -0.58594,-0.2109375 -1.00781,-0.28125 -1.5,-0.28125 -1.94531,0 -3.73828,1.9921875 -3.73828,5.0742187 0,4.11328128 1.79297,4.92187503 2.92969,4.92187503 0.86718,0 1.47656,-0.3515625 2.03906,-1.0078125 0.64453,-0.77343753 0.84375,-1.45312503 0.84375,-2.48437503 0,-1.828125 -0.94922,-3.3984375 -2.25,-3.3984375 -1.06641,0 -1.86328,0.515625 -2.39063,1.1601563 0.15235,-2.1210938 1.17188,-3.4570313 2.58985,-3.4570313 0.62109,0 1.0664,0.1523438 1.47656,0.3046875 z m -4.05469,6.28125 c 0,-0.1171875 0,-0.3046875 0.0117,-0.3984375 0,-1.0078125 0.57422,-2.1914063 1.80469,-2.1914063 0.48047,0 0.9375,0.1289063 1.34766,0.84375 0.3164,0.5742188 0.32812,1.1484375 0.32812,1.6992188 0,0.5976562 0,1.2070312 -0.42187,1.8515625 -0.25782,0.38671873 -0.6211,0.76171873 -1.32422,0.76171873 -1.48828,0 -1.71094,-2.10937503 -1.7461,-2.56640623 z m 19.34766,-5.3789063 h 3.67969 v -0.890625 h -4.69922 v 5.2851563 h 0.92578 c 0.36328,-0.8203125 0.99609,-1.1367188 1.58203,-1.1367188 0.66797,0 1.42969,0.5976563 1.42969,2.3085938 0,1.8046875 -1.03125,2.37890623 -1.86328,2.37890623 -0.78516,0 -1.73438,-0.421875 -2.19141,-1.33593753 l -0.46875,0.7851563 c 0.9375,1.34765623 2.28516,1.41796873 2.67188,1.41796873 1.69921,0 3.09375,-1.41796873 3.09375,-3.21093753 0,-1.7929687 -1.20704,-3.1992187 -2.66016,-3.1992187 -0.57422,0 -1.10156,0.2109375 -1.5,0.5742187 z m 22.05762,6.0351563 h 1.38281 v -0.8554688 h -1.38281 v -6.0703125 h -1.28907 l -3.5625,6.0703125 v 0.8554688 h 3.71485 v 2.47265623 h 1.13672 z m -3.75,-0.8554688 c 0.42187,-0.7265625 0.98437,-1.6523437 1.58203,-2.8007812 0.17578,-0.328125 1.10156,-2.0859375 1.10156,-2.625 v 5.4257812 z m 18.77636,-4.0195312 c 0.36328,-0.9140625 1.23047,-1.5351563 2.19141,-1.5351563 0.73828,0 1.41797,0.421875 1.41797,1.3476563 0,0.9609375 -0.65625,1.7578125 -1.42969,1.921875 -0.0703,0.023437 -0.97266,0.09375 -1.11328,0.1054687 v 0.8554688 h 1.00781 c 1.47656,0 1.83985,1.265625 1.83985,2.0507812 0,1.171875 -0.70313,2.03906253 -1.73438,2.03906253 -0.91406,0 -2.05078,-0.45703123 -2.70703,-1.48828123 l -0.16406,0.84375 c 0.9375,1.27734373 2.1914,1.51171873 2.89453,1.51171873 1.6875,0 2.9414,-1.37109373 2.9414,-2.88281253 0,-1.1132812 -0.72656,-2.0859375 -1.94531,-2.4960937 1.00781,-0.5507813 1.5586,-1.5117188 1.5586,-2.4609375 0,-1.2304688 -1.16016,-2.15625 -2.55469,-2.15625 -1.13672,0 -2.15625,0.6210937 -2.70703,1.5703125 z m 22.24512,6.44531248 v 0.90234375 h 5.61328 v -0.97265625 h -2.55469 c -0.17578,0 -0.35156,0.0117188 -0.51562,0.0117188 h -1.53516 c 0.36328,-0.38671868 1.69922,-1.71093748 2.63672,-2.54296868 1.05469,-0.9257813 1.96875,-1.8164063 1.96875,-3.140625 0,-1.59375 -1.11328,-3.046875 -3,-3.046875 -1.54687,0 -2.34375,1.0078125 -2.73047,2.34375 0.45703,0.5742187 0.45703,0.609375 0.58594,0.7734375 0.36328,-1.5351563 0.89063,-2.2382813 1.95703,-2.2382813 1.23047,0 2.03906,0.9609375 2.03906,2.203125 0,0.7382813 -0.30468,1.5703125 -1.26562,2.5195313 z m 26.34961,-8.78906248 h -0.26953 c -0.23438,0.2226562 -0.92578,0.9023437 -2.47266,0.9257812 -0.19922,0 -0.21093,0.011719 -0.21093,0.2695313 v 0.5742187 c 0.86718,0 1.53515,-0.2109375 1.82812,-0.3398437 v 7.42968748 h -1.74609 v 0.83203125 h 4.61718 v -0.83203125 h -1.74609 z m 21.17871,5.015625 c 0,-0.9609375 -0.0352,-2.0625 -0.41016,-3.0820313 -0.62109,-1.6054687 -1.73437,-1.9335937 -2.49609,-1.9335937 -0.9375,0 -1.83984,0.46875 -2.36719,1.6054687 -0.46875,1.0195313 -0.5625,2.1796875 -0.5625,3.4101563 0,1.5585937 0.12891,2.4492187 0.58594,3.4570312 0.43359,0.94921878 1.34766,1.52343753 2.33203,1.52343753 0.9375,0 1.85156,-0.515625 2.33203,-1.51171873 0.49219,-1.0195313 0.58594,-2.0625 0.58594,-3.46875 z m -2.90625,4.11328123 c -1.83984,0 -1.83984,-2.94140623 -1.83984,-4.28906253 0,-0.9257812 0,-1.8046875 0.25781,-2.625 0.35156,-1.0195312 0.97266,-1.359375 1.57031,-1.359375 1.82813,0 1.82813,2.671875 1.82813,3.984375 0,0.9257813 0,1.8632813 -0.25782,2.7539063 -0.38671,1.38281248 -1.18359,1.53515623 -1.55859,1.53515623 z m 0,0"
       style="fill:#000000;fill-opacity:1;fill-rule:nonzero;stroke:none"
       aria-label="1514131211109876543210"
       transform="matrix(1.3333333,0,0,1.3333333,72.645333,23.646667)" />
    <path
       id="path4"
       d="M 0,0 H 353.497"
       style="fill:none;stroke:#000000;stroke-width:0.398;stroke-linecap:butt;stroke-linejoin:miter;stroke-miterlimit:10;stroke-dasharray:none;stroke-opacity:1"
       transform="matrix(1.3333333,0,0,-1.3333333,64.674667,31.085333)" />
    <path
       id="path5"
       d="M 0,0 V 17.933"
       style="fill:none;stroke:#000000;stroke-width:0.398;stroke-linecap:butt;stroke-linejoin:miter;stroke-miterlimit:10;stroke-dasharray:none;stroke-opacity:1"
       transform="matrix(1.3333333,0,0,-1.3333333,64.94,55.261333)" />
    <path
       id="path6"
       d="m 6.5867578,-3.1509609 c 0,-1.9453125 -1.4179687,-3.4335938 -3.0703125,-3.4335938 -1.6992187,0 -3.08203124,1.5234375 -3.08203124,3.4335938 0,1.875 1.42968754,3.29296871 3.07031254,3.29296871 1.6875,0 3.0820312,-1.44140621 3.0820312,-3.29296871 z m -3.0703125,2.40234371 c -1.03125,0 -1.9921875,-0.85546871 -1.9921875,-2.55468751 0,-1.734375 1.078125,-2.4140625 1.9804688,-2.4140625 0.984375,0 1.9921875,0.7382813 1.9921875,2.4140625 0,1.7695313 -1.0195313,2.55468751 -1.9804688,2.55468751 z m 5.7099609,0.10546875 c 0.4921875,0.4453125 1.1015628,0.78515625 1.8749998,0.78515625 1.371094,0 2.601563,-1.38281251 2.601563,-3.33984371 0,-1.734375 -0.914063,-3.3164063 -2.25,-3.3164063 -0.585938,0 -1.5000003,0.1875 -2.2500003,0.8203125 V -6.3618984 H 8.1365625 v 9.140625 h 1.0898437 z m 0,-4.17187496 C 9.56625,-5.3072109 10.105312,-5.6236172 10.69125,-5.6236172 c 1.066406,0 1.921875,1.078125 1.921875,2.4375 0,1.4414063 -0.984375,2.47265626 -2.050781,2.47265626 -0.398438,0 -0.667969,-0.140625 -0.9257815,-0.35156246 -0.3632813,-0.3164063 -0.4101563,-0.5742188 -0.4101563,-0.796875 z m 11.1445308,3.2695312 c -0.65625,0.5273438 -1.394531,0.79687501 -2.191406,0.79687501 -1.195312,0 -1.96875,-1.05468751 -1.96875,-2.44921871 0,-1.1953125 0.574219,-2.4960938 2.003906,-2.4960938 0.960938,0 1.371094,0.234375 1.980469,0.6445313 l 0.175781,-0.9257813 c -0.832031,-0.4921875 -1.3125,-0.609375 -2.15625,-0.609375 -1.980468,0 -3.09375,1.7578125 -3.09375,3.3867188 0,1.8398437 1.3125,3.33984371 3.035157,3.33984371 0.703125,0 1.511718,-0.1640625 2.296875,-0.73828125 0,-0.046875 -0.04687,-0.49218746 -0.05859,-0.55078126 z m 7.075196,-1.6054687 c 0,-1.9453125 -1.417969,-3.4335938 -3.070313,-3.4335938 -1.699218,0 -3.082031,1.5234375 -3.082031,3.4335938 0,1.875 1.429688,3.29296871 3.070313,3.29296871 1.6875,0 3.082031,-1.44140621 3.082031,-3.29296871 z m -3.070313,2.40234371 c -1.03125,0 -1.992187,-0.85546871 -1.992187,-2.55468751 0,-1.734375 1.078125,-2.4140625 1.980469,-2.4140625 0.984375,0 1.992187,0.7382813 1.992187,2.4140625 0,1.7695313 -1.019531,2.55468751 -1.980469,2.55468751 z m 9.966797,-9.19921871 h -1.066406 v 4.1835937 c -0.65625,-0.5507812 -1.40625,-0.75 -2.015625,-0.75 -1.371094,0 -2.484375,1.4648438 -2.484375,3.328125 0,1.8515625 1.054687,3.32812501 2.425781,3.32812501 0.527344,0 1.335938,-0.1640625 2.050781,-0.8671875 v 0.7265625 h 1.089844 z m -1.089844,8.2617187 c -0.351562,0.609375 -0.84375,0.97265626 -1.476562,0.97265626 -0.878906,0 -1.910156,-0.67968746 -1.910156,-2.46093746 0,-1.8984375 1.21875,-2.4726563 2.050781,-2.4726563 0.5625,0 1.019531,0.28125 1.335937,0.7617188 z m 8.0625,-1.5351562 c 0,-0.6210938 -0.05859,-1.5 -0.515625,-2.2617188 -0.585937,-0.984375 -1.59375,-1.1015625 -2.003906,-1.1015625 -1.546875,0 -2.847656,1.4882813 -2.847656,3.3632813 0,1.8867187 1.382812,3.36328121 3.046875,3.36328121 0.65625,0 1.453125,-0.1875 2.238281,-0.76171875 0,-0.0585938 -0.04687,-0.49218746 -0.04687,-0.52734376 -0.01172,-0.011719 -0.04687,-0.328125 -0.04687,-0.3867187 -0.84375,0.71484371 -1.6875,0.82031246 -2.121094,0.82031246 -1.101562,0 -2.050781,-0.99609376 -2.074218,-2.50781246 z m -4.289062,-0.7734375 c 0.246094,-0.9726563 0.925781,-1.7226563 1.769531,-1.7226563 0.445313,0 1.429688,0.1992188 1.675781,1.7226563 z m 7.21582,-2.3671875 h -1.160156 v 1.1601562 h 1.160156 z m -1.160156,5.203125 v 1.16015621 h 1.160156 V -1.1587734 Z m 15.205078,-3.515625 c 0,-0.9609375 -0.03516,-2.0625 -0.410156,-3.0820313 -0.621094,-1.6054687 -1.734375,-1.9335937 -2.496094,-1.9335937 -0.9375,0 -1.839844,0.46875 -2.367187,1.6054687 -0.46875,1.0195313 -0.5625,2.1796875 -0.5625,3.4101563 0,1.5585937 0.128906,2.4492187 0.585937,3.4570312 0.433594,0.94921876 1.347656,1.52343751 2.332031,1.52343751 0.9375,0 1.851563,-0.515625 2.332032,-1.51171871 0.492187,-1.0195313 0.585937,-2.0625 0.585937,-3.46875 z m -2.90625,4.11328121 c -1.839844,0 -1.839844,-2.94140621 -1.839844,-4.28906251 0,-0.9257812 0,-1.8046875 0.257813,-2.625 0.351562,-1.0195312 0.972656,-1.359375 1.570312,-1.359375 1.828125,0 1.828125,2.671875 1.828125,3.984375 0,0.9257813 0,1.8632813 -0.257812,2.7539063 -0.386719,1.38281246 -1.183594,1.53515621 -1.558594,1.53515621 z m 7.151367,-2.71875001 2.542969,-3.0820312 h -1.207031 l -1.804688,2.3203125 -1.886718,-2.3203125 h -1.21875 l 2.613281,3.0820312 -2.683594,3.28125001 h 1.195313 l 1.980468,-2.67187501 2.027344,2.67187501 h 1.207031 z m 7.001953,-6.4101562 h -0.269531 c -0.234375,0.2226562 -0.925781,0.9023437 -2.472656,0.9257812 -0.199219,0 -0.210938,0.011719 -0.210938,0.2695313 v 0.5742187 c 0.867188,0 1.535157,-0.2109375 1.828125,-0.3398437 v 7.42968746 H 66.66293 v 0.83203125 h 4.617187 v -0.83203125 h -1.746094 z m 0,0"
       style="fill:#000000;fill-opacity:1;fill-rule:nonzero;stroke:none"
       aria-label="opcode:0x1"
       transform="matrix(1.3333333,0,0,1.3333333,103.12,48.088)" />
    <path
       id="path7"
       d="M 0,0 V 17.933"
       style="fill:none;stroke:#000000;stroke-width:0.398;stroke-linecap:butt;stroke-linejoin:miter;stroke-miterlimit:10;stroke-dasharray:none;stroke-opacity:1"
       transform="matrix(1.3333333,0,0,-1.3333333,237.75733,55.261333)" />
    <path
       id="path8"
       d="M 0,0 H 158.455 V 17.933 H 0 Z"
       style="fill:#808080;fill-opacity:1;fill-rule:nonzero;stroke:none"
       transform="matrix(1.3333333,0,0,-1.3333333,238.024,55.261333)" />
    <path
       id="path9"
       d="m 6.4212969,-4.6743984 c 0,-0.9609375 -0.035156,-2.0625 -0.4101563,-3.0820313 -0.6210937,-1.6054687 -1.734375,-1.9335937 -2.4960937,-1.9335937 -0.9375,0 -1.8398438,0.46875 -2.3671875,1.6054687 -0.46875002,1.0195313 -0.56250002,2.1796875 -0.56250002,3.4101563 0,1.5585937 0.12890625,2.4492187 0.58593752,3.4570312 0.4335937,0.94921876 1.3476562,1.52343751 2.3320312,1.52343751 0.9375,0 1.8515625,-0.515625 2.3320313,-1.51171871 0.4921875,-1.0195313 0.5859375,-2.0625 0.5859375,-3.46875 z m -2.90625,4.11328121 c -1.8398438,0 -1.8398438,-2.94140621 -1.8398438,-4.28906251 0,-0.9257812 0,-1.8046875 0.2578125,-2.625 0.3515625,-1.0195312 0.9726563,-1.359375 1.5703125,-1.359375 1.828125,0 1.828125,2.671875 1.828125,3.984375 0,0.9257813 0,1.8632813 -0.2578125,2.7539063 -0.3867187,1.38281246 -1.1835937,1.53515621 -1.5585937,1.53515621 z m 0,0"
       style="fill:#000000;fill-opacity:1;fill-rule:nonzero;stroke:none"
       aria-label="0"
       transform="matrix(1.3333333,0,0,1.3333333,338.97733,48.088)" />
    <path
       id="path10"
       d="M 0,0 V 17.933"
       style="fill:none;stroke:#000000;stroke-width:0.398;stroke-linecap:butt;stroke-linejoin:miter;stroke-miterlimit:10;stroke-dasharray:none;stroke-opacity:1"
       transform="matrix(1.3333333,0,0,-1.3333333,449.56267,55.261333)" />
    <path
       id="path11"
       d="m 2.1783437,-3.1392422 c 0,-1.453125 1.0898438,-2.390625 2.3789063,-2.4140625 v -0.9609375 c -1.3007813,0.023437 -2.0625,0.7734375 -2.4492188,1.3359375 v -1.265625 H 1.1119375 v 6.44531251 h 1.0664062 z m 8.4316403,-0.082031 c 0,-0.6210938 -0.05859,-1.5 -0.515625,-2.2617188 -0.5859371,-0.984375 -1.5937496,-1.1015625 -2.0039059,-1.1015625 -1.546875,0 -2.8476562,1.4882813 -2.8476562,3.3632813 0,1.8867187 1.3828125,3.36328121 3.046875,3.36328121 0.65625,0 1.453125,-0.1875 2.2382811,-0.76171875 0,-0.0585938 -0.04687,-0.49218746 -0.04687,-0.52734376 -0.01172,-0.011719 -0.04687,-0.328125 -0.04687,-0.3867187 -0.8437499,0.71484371 -1.6874999,0.82031246 -2.1210936,0.82031246 -1.1015625,0 -2.0507813,-0.99609376 -2.0742188,-2.50781246 z M 6.3209219,-3.9947109 c 0.2460937,-0.9726563 0.9257812,-1.7226563 1.7695312,-1.7226563 0.4453125,0 1.4296875,0.1992188 1.6757813,1.7226563 z m 6.8759761,-5.953125 h -1.066406 v 9.94921871 h 1.066406 z m 0,0"
       style="fill:#000000;fill-opacity:1;fill-rule:nonzero;stroke:none"
       aria-label="rel"
       transform="matrix(1.3333333,0,0,1.3333333,457.79867,48.088)" />
    <path
       id="path12"
       d="M 0,0 V 17.933"
       style="fill:none;stroke:#000000;stroke-width:0.398;stroke-linecap:butt;stroke-linejoin:miter;stroke-miterlimit:10;stroke-dasharray:none;stroke-opacity:1"
       transform="matrix(1.3333333,0,0,-1.3333333,485.12933,55.261333)" />
    <path
       id="path13"
       d="M 0,0 H 37.559 V 17.933 H 0 Z"
       style="fill:#808080;fill-opacity:1;fill-rule:nonzero;stroke:none"
       transform="matrix(1.3333333,0,0,-1.3333333,485.39467,55.261333)" />
    <path
       id="path14"
       d="m 6.4233047,-4.6743984 c 0,-0.9609375 -0.035156,-2.0625 -0.4101563,-3.0820313 -0.6210937,-1.6054687 -1.734375,-1.9335937 -2.4960937,-1.9335937 -0.9375,0 -1.8398438,0.46875 -2.3671875,1.6054687 -0.46875001,1.0195313 -0.56250001,2.1796875 -0.56250001,3.4101563 0,1.5585937 0.12890625,2.4492187 0.58593751,3.4570312 0.4335937,0.94921876 1.3476562,1.52343751 2.3320312,1.52343751 0.9375,0 1.8515625,-0.515625 2.3320313,-1.51171871 0.4921875,-1.0195313 0.5859375,-2.0625 0.5859375,-3.46875 z m -2.90625,4.11328121 c -1.8398438,0 -1.8398438,-2.94140621 -1.8398438,-4.28906251 0,-0.9257812 0,-1.8046875 0.2578125,-2.625 0.3515625,-1.0195312 0.9726563,-1.359375 1.5703125,-1.359375 1.828125,0 1.828125,2.671875 1.828125,3.984375 0,0.9257813 0,1.8632813 -0.2578125,2.7539063 -0.3867187,1.38281246 -1.1835937,1.53515621 -1.5585937,1.53515621 z m 0,0"
       style="fill:#000000;fill-opacity:1;fill-rule:nonzero;stroke:none"
       aria-label="0"
       transform="matrix(1.3333333,0,0,1.3333333,505.752,48.088)" />
    <path
       id="path15"
       d="M 0,0 V 17.933"
       style="fill:none;stroke:#000000;stroke-width:0.398;stroke-linecap:butt;stroke-linejoin:miter;stroke-miterlimit:10;stroke-dasharray:none;stroke-opacity:1"
       transform="matrix(1.3333333,0,0,-1.3333333,535.73867,55.261333)" />
    <path
       id="path16"
       d="M 0,0 H 353.497"
       style="fill:none;stroke:#000000;stroke-width:0.398;stroke-linecap:butt;stroke-linejoin:miter;stroke-miterlimit:10;stroke-dasharray:none;stroke-opacity:1"
       transform="matrix(1.3333333,0,0,-1.3333333,64.674667,55.526667)" />
    <path
       id="path17"
       d="M 0,0 V 17.933"
       style="fill:none;stroke:#000000;stroke-width:0.398;stroke-linecap:butt;stroke-linejoin:miter;stroke-miterlimit:10;stroke-dasharray:none;stroke-opacity:1"
       transform="matrix(1.3333333,0,0,-1.3333333,64.94,79.702667)" />
    <path
       id="path18"
       d="M 3.6435469,-3.2798125 6.1865156,-6.3618438 H 4.9794844 L 3.1747969,-4.0415313 1.2880781,-6.3618438 H 0.06932812 l 2.61328128,3.0820313 -2.683593775,3.28125 H 1.1943281 l 1.9804688,-2.671875 2.0273437,2.671875 h 1.2070313 z m 0,0"
       style="fill:#000000;fill-opacity:1;fill-rule:nonzero;stroke:none"
       aria-label="x"
       transform="matrix(1.3333333,0,0,1.3333333,296.056,72.529333)" />
    <path
       id="path19"
       d="M 0,0 V 17.933"
       style="fill:none;stroke:#000000;stroke-width:0.398;stroke-linecap:butt;stroke-linejoin:miter;stroke-miterlimit:10;stroke-dasharray:none;stroke-opacity:1"
       transform="matrix(1.3333333,0,0,-1.3333333,535.73867,79.702667)" />
    <path
       id="path20"
       d="M 0,0 H 353.497"
       style="fill:none;stroke:#000000;stroke-width:0.398;stroke-linecap:butt;stroke-linejoin:miter;stroke-miterlimit:10;stroke-dasharray:none;stroke-opacity:1"
       transform="matrix(1.3333333,0,0,-1.3333333,64.674667,79.969333)" />
    <path
       id="path21"
       d="M 0,0 V 17.933"
       style="fill:none;stroke:#000000;stroke-width:0.398;stroke-linecap:butt;stroke-linejoin:miter;stroke-miterlimit:10;stroke-dasharray:none;stroke-opacity:1"
       transform="matrix(1.3333333,0,0,-1.3333333,64.94,104.14533)" />
    <path
       id="path22"
       d="m 6.2099531,-6.3627891 h -1.078125 c -0.65625,1.6875 -1.7578125,4.5 -1.8164062,5.53125004 H 3.3037031 C 3.2216719,-1.6752891 2.4716719,-3.5737266 2.3544844,-3.8549766 L 1.3349531,-6.3627891 H 0.19823437 L 2.8701094,4.921875e-4 2.3662031,1.3012734 c -0.3164062,0.7265625 -0.5273437,0.796875 -0.7851562,0.796875 -0.1992188,0 -0.66796878,-0.046875 -1.11328128,-0.2226562 l 0.09375,0.9375 c 0.0820313,0.011719 0.55078128,0.1171875 1.01953128,0.1171875 0.3398437,0 1.0195312,0 1.6289062,-1.5820313 z m 0,0"
       style="fill:#000000;fill-opacity:1;fill-rule:nonzero;stroke:none"
       aria-label="y"
       transform="matrix(1.3333333,0,0,1.3333333,296.056,96.972)" />
    <path
       id="path23"
       d="M 0,0 V 17.933"
       style="fill:none;stroke:#000000;stroke-width:0.398;stroke-linecap:butt;stroke-linejoin:miter;stroke-miterlimit:10;stroke-dasharray:none;stroke-opacity:1"
       transform="matrix(1.3333333,0,0,-1.3333333,535.73867,104.14533)" />
    <path
       id="path24"
       d="M 0,0 H 353.497"
       style="fill:none;stroke:#000000;stroke-width:0.398;stroke-linecap:butt;stroke-linejoin:miter;stroke-miterlimit:10;stroke-dasharray:none;stroke-opacity:1"
       transform="matrix(1.3333333,0,0,-1.3333333,64.674667,104.41067)" />
  </g>
</svg>
