<?xml version="1.0" encoding="UTF-8" standalone="no"?>
<!-- Created with Inkscape (http://www.inkscape.org/) -->

<svg
   version="1.1"
   id="svg1"
   width="600.67865"
   height="62.701332"
   viewBox="0 0 600.67865 62.701332"
   sodipodi:docname="main.pdf"
   xmlns:inkscape="http://www.inkscape.org/namespaces/inkscape"
   xmlns:sodipodi="http://sodipodi.sourceforge.net/DTD/sodipodi-0.dtd"
   xmlns="http://www.w3.org/2000/svg"
   xmlns:svg="http://www.w3.org/2000/svg">
  <defs
     id="defs1" />
  <sodipodi:namedview
     id="namedview1"
     pagecolor="#ffffff"
     bordercolor="#000000"
     borderopacity="0.25"
     inkscape:showpageshadow="2"
     inkscape:pageopacity="0.0"
     inkscape:pagecheckerboard="0"
     inkscape:deskcolor="#d1d1d1">
    <inkscape:page
       x="0"
       y="0"
       inkscape:label="1"
       id="page1"
       width="600.67865"
       height="62.701332"
       margin="0"
       bleed="0" />
  </sodipodi:namedview>
  <g
     id="g1"
     inkscape:groupmode="layer"
     inkscape:label="1">
    <path
       id="path1"
       d="M 0,0 H 450.509 V 47.026 H 0 Z"
       style="fill:#ffffff;fill-opacity:1;fill-rule:nonzero;stroke:none"
       transform="matrix(1.3333333,0,0,-1.3333333,0,62.701333)" />
    <path
       id="path2"
       d="M -224.75748,-23.01341 H 224.75747 V 23.01343 H -224.75748 Z"
       style="fill:#ffffff;fill-opacity:1;fill-rule:nonzero;stroke:none"
       transform="matrix(1.3333333,0,0,-1.3333333,300.34,31.350667)" />
    <path
       id="path3"
       d="M 4.2199922,-9.6920078 H 3.9504609 c -0.234375,0.2226562 -0.9257812,0.9023437 -2.4726562,0.9257812 -0.1992188,0 -0.2109375,0.011719 -0.2109375,0.2695313 v 0.5742187 c 0.8671875,0 1.5351562,-0.2109375 1.828125,-0.3398437 v 7.42968749 H 1.3488984 V -6.015625e-4 H 5.9660859 V -0.83263281 H 4.2199922 Z m 4.9599609,1.1835937 h 3.6796879 v -0.890625 H 8.1604219 v 5.2851563 h 0.9257812 c 0.3632813,-0.8203125 0.9960939,-1.1367188 1.5820309,-1.1367188 0.667969,0 1.429688,0.5976563 1.429688,2.3085938 0,1.8046875 -1.03125,2.37890624 -1.863281,2.37890624 -0.7851566,0 -1.7343754,-0.421875 -2.1914066,-1.33593754 l -0.46875,0.7851563 c 0.9375,1.34765624 2.2851562,1.41796874 2.6718746,1.41796874 1.699219,0 3.09375,-1.41796874 3.09375,-3.21093754 0,-1.7929687 -1.207031,-3.1992187 -2.660156,-3.1992187 -0.574219,0 -1.1015624,0.2109375 -1.4999999,0.5742187 z M 30.218039,-9.6920078 h -0.269531 c -0.234375,0.2226562 -0.925781,0.9023437 -2.472656,0.9257812 -0.199219,0 -0.210938,0.011719 -0.210938,0.2695313 v 0.5742187 c 0.867188,0 1.535156,-0.2109375 1.828125,-0.3398437 v 7.42968749 h -1.746094 v 0.8320312475 h 4.617188 V -0.83263281 h -1.746094 z m 8.041992,7.21875 h 1.382813 v -0.8554688 h -1.382813 v -6.0703125 h -1.289062 l -3.5625,6.0703125 v 0.8554688 h 3.714844 v 2.4726562375 h 1.136718 z m -3.75,-0.8554688 c 0.421875,-0.7265625 0.984375,-1.6523437 1.582032,-2.8007812 0.175781,-0.328125 1.101562,-2.0859375 1.101562,-2.625 v 5.4257812 z m 21.720703,-6.3632812 h -0.269531 c -0.234375,0.2226562 -0.925781,0.9023437 -2.472656,0.9257812 -0.199219,0 -0.210938,0.011719 -0.210938,0.2695313 v 0.5742187 c 0.867188,0 1.535157,-0.2109375 1.828125,-0.3398437 v 7.42968749 h -1.746093 v 0.8320312475 h 4.617187 V -0.83263281 h -1.746094 z m 4.081055,2.34375 c 0.363281,-0.9140625 1.230469,-1.5351563 2.191406,-1.5351563 0.738282,0 1.417969,0.421875 1.417969,1.3476563 0,0.9609375 -0.65625,1.7578125 -1.429687,1.921875 -0.07031,0.023437 -0.972657,0.09375 -1.113282,0.1054687 v 0.8554688 h 1.007813 c 1.476562,0 1.839844,1.265625 1.839844,2.0507812 0,1.171875 -0.703125,2.03906254 -1.734375,2.03906254 -0.914063,0 -2.050782,-0.45703124 -2.707032,-1.48828124 l -0.164062,0.84375 c 0.9375,1.27734374 2.191406,1.51171874 2.894531,1.51171874 1.6875,0 2.941406,-1.37109374 2.941406,-2.88281254 0,-1.1132812 -0.726562,-2.0859375 -1.945312,-2.4960937 1.007812,-0.5507813 1.558594,-1.5117188 1.558594,-2.4609375 0,-1.2304688 -1.160157,-2.15625 -2.554688,-2.15625 -1.136719,0 -2.15625,0.6210937 -2.707031,1.5703125 z m 21.916992,-2.34375 H 81.95925 c -0.234375,0.2226562 -0.925781,0.9023437 -2.472656,0.9257812 -0.199219,0 -0.210938,0.011719 -0.210938,0.2695313 v 0.5742187 c 0.867188,0 1.535157,-0.2109375 1.828125,-0.3398437 v 7.42968749 h -1.746093 v 0.8320312475 h 4.617187 V -0.83263281 h -1.746094 z m 3.506836,8.78906249 v 0.9023437475 h 5.613281 V -0.97325781 h -2.554687 c -0.175781,0 -0.351563,0.0117188 -0.515625,0.0117188 H 86.74343 c 0.363281,-0.38671869 1.699218,-1.71093749 2.636718,-2.54296879 1.054688,-0.9257812 1.96875,-1.8164062 1.96875,-3.1406249 0,-1.5937501 -1.113281,-3.0468751 -3,-3.0468751 -1.546875,0 -2.34375,1.0078125 -2.730468,2.3437501 0.457031,0.5742187 0.457031,0.609375 0.585937,0.7734375 0.363281,-1.5351564 0.890625,-2.2382814 1.957031,-2.2382814 1.230469,0 2.039063,0.9609375 2.039063,2.203125 0,0.7382813 -0.304688,1.5703125 -1.265625,2.5195314 z M 108.22683,-9.6920078 h -0.26953 c -0.23438,0.2226562 -0.92578,0.9023437 -2.47266,0.9257812 -0.19922,0 -0.21094,0.011719 -0.21094,0.2695313 v 0.5742187 c 0.86719,0 1.53516,-0.2109375 1.82813,-0.3398437 v 7.42968749 h -1.7461 v 0.8320312475 h 4.61719 V -0.83263281 h -1.74609 z m 7.02246,0 h -0.26953 c -0.23438,0.2226562 -0.92578,0.9023437 -2.47266,0.9257812 -0.19922,0 -0.21094,0.011719 -0.21094,0.2695313 v 0.5742187 c 0.86719,0 1.53516,-0.2109375 1.82813,-0.3398437 v 7.42968749 h -1.74609 v 0.8320312475 h 4.61718 V -0.83263281 h -1.74609 z m 18.97558,0 h -0.26953 c -0.23437,0.2226562 -0.92578,0.9023437 -2.47265,0.9257812 -0.19922,0 -0.21094,0.011719 -0.21094,0.2695313 v 0.5742187 c 0.86719,0 1.53516,-0.2109375 1.82812,-0.3398437 v 7.42968749 h -1.74609 v 0.8320312475 h 4.61719 V -0.83263281 h -1.7461 z m 9.22559,5.015625 c 0,-0.9609375 -0.0352,-2.0625 -0.41016,-3.0820313 -0.62109,-1.6054687 -1.73437,-1.9335937 -2.49609,-1.9335937 -0.9375,0 -1.83984,0.46875 -2.36719,1.6054687 -0.46875,1.0195313 -0.5625,2.1796875 -0.5625,3.4101563 0,1.5585937 0.12891,2.4492187 0.58594,3.4570312 0.43359,0.94921879 1.34766,1.52343754 2.33203,1.52343754 0.9375,0 1.85156,-0.515625 2.33203,-1.51171874 0.49219,-1.0195313 0.58594,-2.0625 0.58594,-3.46875 z m -2.90625,4.11328124 c -1.83984,0 -1.83984,-2.94140624 -1.83984,-4.28906254 0,-0.9257812 0,-1.8046875 0.25781,-2.625 0.35156,-1.0195312 0.97266,-1.359375 1.57031,-1.359375 1.82813,0 1.82813,2.671875 1.82813,3.984375 0,0.9257813 0,1.8632813 -0.25782,2.7539063 -0.38671,1.38281249 -1.18359,1.53515624 -1.55859,1.53515624 z m 16.49414,0.19921875 c 0.64453,0.50390625 1.23047,0.66796875 1.86328,0.66796875 1.81641,0 3.52735,-1.96875004 3.52735,-5.10937504 0,-3.9023437 -1.59375,-4.8867187 -2.84766,-4.8867187 -1.04297,0 -1.64062,0.46875 -2.14453,1.0664062 -0.69141,0.8203125 -0.82031,1.5820313 -0.82031,2.4023438 0,1.8515625 0.94922,3.4101562 2.26172,3.4101562 1.04296,0 1.83984,-0.5039062 2.39062,-1.171875 -0.11719,2.0039063 -1.04297,3.42187504 -2.36719,3.42187504 -0.58593,0 -1.03125,-0.1875 -1.41797,-0.55078124 z m 4.1836,-5.87109379 c 0.0234,0.09375 0.0234,0.234375 0.0234,0.3398438 0,1.0898437 -0.62109,2.2265625 -1.8164,2.2265625 -0.23438,0 -0.86719,0 -1.34766,-0.8554688 -0.26953,-0.515625 -0.32812,-0.9257812 -0.32812,-1.6992187 0,-0.6328125 0.0117,-1.2304688 0.44531,-1.8867188 0.21094,-0.3046875 0.59765,-0.7734375 1.38281,-0.7734375 1.37109,0 1.61719,1.9453125 1.64063,2.6484375 z m 27.38378,1.1601563 c 0.90235,-0.28125 1.75782,-1.0664063 1.75782,-2.1210938 0,-1.359375 -1.19532,-2.4960937 -2.71875,-2.4960937 -1.58203,0 -2.74219,1.1835937 -2.74219,2.4960937 0,1.0664063 0.87891,1.8632813 1.76953,2.1210938 -1.16016,0.3867187 -1.95703,1.3476562 -1.95703,2.4960937 0,1.5351563 1.27734,2.88281254 2.91797,2.88281254 1.6875,0 2.91797,-1.38281254 2.91797,-2.88281254 0,-1.1484375 -0.78516,-2.109375 -1.94532,-2.4960937 z m -0.96093,-0.4335938 c -1.13672,0 -1.7461,-0.7617187 -1.7461,-1.6757812 0,-1.0898438 0.77344,-1.6992188 1.73438,-1.6992188 1.03125,0 1.74609,0.6445313 1.74609,1.6992188 0,0.9609375 -0.65625,1.6757812 -1.73437,1.6757812 z m 0,4.94531254 c -0.96094,0 -1.79297,-0.67968754 -1.79297,-2.03906254 0,-1.5351562 1.03125,-2.0507812 1.78125,-2.0507812 0.79687,0 1.79297,0.5625 1.79297,2.0507812 0,1.3945313 -0.87891,2.03906254 -1.78125,2.03906254 z m 27.85547,-7.85156254 c 0.17578,0 0.33984,-0.023437 0.51562,-0.023437 h 1.72266 c -0.86719,1.0078125 -3.33985,3.8789063 -3.33985,8.57812504 h 1.16016 c 0,-3.72656254 1.53516,-6.78515624 3.10547,-8.63671874 v -0.9023438 h -5.83594 v 0.984375 z m 21.55371,-0.9960937 c -0.58594,-0.2109375 -1.00782,-0.28125 -1.5,-0.28125 -1.94532,0 -3.73828,1.9921875 -3.73828,5.0742187 0,4.11328129 1.79296,4.92187504 2.92968,4.92187504 0.86719,0 1.47657,-0.3515625 2.03907,-1.0078125 0.64453,-0.77343754 0.84375,-1.45312504 0.84375,-2.48437504 0,-1.828125 -0.94922,-3.3984375 -2.25,-3.3984375 -1.06641,0 -1.86329,0.515625 -2.39063,1.1601563 0.15234,-2.1210938 1.17188,-3.4570313 2.58984,-3.4570313 0.6211,0 1.06641,0.1523438 1.47657,0.3046875 z m -4.05469,6.28125 c 0,-0.1171875 0,-0.3046875 0.0117,-0.3984375 0,-1.0078125 0.57422,-2.1914063 1.80469,-2.1914063 0.48046,0 0.9375,0.1289063 1.34765,0.84375 0.31641,0.5742188 0.32813,1.1484375 0.32813,1.6992188 0,0.5976562 0,1.2070312 -0.42188,1.8515625 -0.25781,0.38671874 -0.62109,0.76171874 -1.32422,0.76171874 -1.48828,0 -1.71093,-2.10937504 -1.74609,-2.56640624 z m 19.34766,-5.3789063 h 3.67968 v -0.890625 h -4.69922 v 5.2851563 h 0.92579 c 0.36328,-0.8203125 0.99609,-1.1367188 1.58203,-1.1367188 0.66797,0 1.42968,0.5976563 1.42968,2.3085938 0,1.8046875 -1.03125,2.37890624 -1.86328,2.37890624 -0.78515,0 -1.73437,-0.421875 -2.1914,-1.33593754 l -0.46875,0.7851563 c 0.9375,1.34765624 2.28515,1.41796874 2.67187,1.41796874 1.69922,0 3.09375,-1.41796874 3.09375,-3.21093754 0,-1.7929687 -1.20703,-3.1992187 -2.66015,-3.1992187 -0.57422,0 -1.10157,0.2109375 -1.5,0.5742187 z m 22.07226,6.0351563 h 1.38281 v -0.8554688 h -1.38281 v -6.0703125 h -1.28906 l -3.5625,6.0703125 v 0.8554688 h 3.71484 v 2.4726562375 h 1.13672 z m -3.75,-0.8554688 c 0.42188,-0.7265625 0.98438,-1.6523437 1.58203,-2.8007812 0.17578,-0.328125 1.10156,-2.0859375 1.10156,-2.625 v 5.4257812 z m 18.76172,-4.0195312 c 0.36328,-0.9140625 1.23047,-1.5351563 2.19141,-1.5351563 0.73828,0 1.41796,0.421875 1.41796,1.3476563 0,0.9609375 -0.65625,1.7578125 -1.42968,1.921875 -0.0703,0.023437 -0.97266,0.09375 -1.11328,0.1054687 v 0.8554688 h 1.00781 c 1.47656,0 1.83984,1.265625 1.83984,2.0507812 0,1.171875 -0.70312,2.03906254 -1.73437,2.03906254 -0.91407,0 -2.05078,-0.45703124 -2.70703,-1.48828124 l -0.16407,0.84375 c 0.9375,1.27734374 2.19141,1.51171874 2.89453,1.51171874 1.6875,0 2.94141,-1.37109374 2.94141,-2.88281254 0,-1.1132812 -0.72656,-2.0859375 -1.94531,-2.4960937 1.00781,-0.5507813 1.55859,-1.5117188 1.55859,-2.4609375 0,-1.2304688 -1.16015,-2.15625 -2.55469,-2.15625 -1.13671,0 -2.15625,0.6210937 -2.70703,1.5703125 z m 18.40137,6.44531249 v 0.9023437475 h 5.61328 V -0.97325781 h -2.55469 c -0.17578,0 -0.35156,0.0117188 -0.51562,0.0117188 h -1.53516 c 0.36328,-0.38671869 1.69922,-1.71093749 2.63672,-2.54296879 1.05469,-0.9257812 1.96875,-1.8164062 1.96875,-3.1406249 0,-1.5937501 -1.11328,-3.0468751 -3,-3.0468751 -1.54688,0 -2.34375,1.0078125 -2.73047,2.3437501 0.45703,0.5742187 0.45703,0.609375 0.58594,0.7734375 0.36328,-1.5351564 0.89062,-2.2382814 1.95703,-2.2382814 1.23047,0 2.03906,0.9609375 2.03906,2.203125 0,0.7382813 -0.30469,1.5703125 -1.26562,2.5195314 z m 22.50293,-8.78906249 h -0.26953 c -0.23438,0.2226562 -0.92579,0.9023437 -2.47266,0.9257812 -0.19922,0 -0.21094,0.011719 -0.21094,0.2695313 v 0.5742187 c 0.86719,0 1.53516,-0.2109375 1.82813,-0.3398437 v 7.42968749 h -1.7461 v 0.8320312475 h 4.61719 V -0.83263281 h -1.74609 z m 21.17871,5.015625 c 0,-0.9609375 -0.0352,-2.0625 -0.41016,-3.0820313 -0.62109,-1.6054687 -1.73437,-1.9335937 -2.49609,-1.9335937 -0.9375,0 -1.83985,0.46875 -2.36719,1.6054687 -0.46875,1.0195313 -0.5625,2.1796875 -0.5625,3.4101563 0,1.5585937 0.12891,2.4492187 0.58594,3.4570312 0.43359,0.94921879 1.34765,1.52343754 2.33203,1.52343754 0.9375,0 1.85156,-0.515625 2.33203,-1.51171874 0.49219,-1.0195313 0.58594,-2.0625 0.58594,-3.46875 z m -2.90625,4.11328124 c -1.83985,0 -1.83985,-2.94140624 -1.83985,-4.28906254 0,-0.9257812 0,-1.8046875 0.25782,-2.625 0.35156,-1.0195312 0.97265,-1.359375 1.57031,-1.359375 1.82812,0 1.82812,2.671875 1.82812,3.984375 0,0.9257813 0,1.8632813 -0.25781,2.7539063 -0.38672,1.38281249 -1.18359,1.53515624 -1.55859,1.53515624 z m 0,0"
       style="fill:#000000;fill-opacity:1;fill-rule:nonzero;stroke:none"
       aria-label="1514131211109876543210"
       transform="matrix(1.3333333,0,0,1.3333333,65.596,23.645333)" />
    <path
       id="path4"
       d="M 0,0 H 364.071"
       style="fill:none;stroke:#000000;stroke-width:0.398;stroke-linecap:butt;stroke-linejoin:miter;stroke-miterlimit:10;stroke-dasharray:none;stroke-opacity:1"
       transform="matrix(1.3333333,0,0,-1.3333333,57.625333,31.085333)" />
    <path
       id="path5"
       d="M 0,0 V 17.933"
       style="fill:none;stroke:#000000;stroke-width:0.398;stroke-linecap:butt;stroke-linejoin:miter;stroke-miterlimit:10;stroke-dasharray:none;stroke-opacity:1"
       transform="matrix(1.3333333,0,0,-1.3333333,57.890667,55.261333)" />
    <path
       id="path6"
       d="m 6.5849766,-3.1509609 c 0,-1.9453125 -1.4179688,-3.4335938 -3.0703125,-3.4335938 -1.6992188,0 -3.08203129,1.5234375 -3.08203129,3.4335938 0,1.875 1.42968749,3.29296871 3.07031249,3.29296871 1.6875,0 3.0820313,-1.44140621 3.0820313,-3.29296871 z m -3.0703125,2.40234371 c -1.03125,0 -1.9921875,-0.85546871 -1.9921875,-2.55468751 0,-1.734375 1.078125,-2.4140625 1.9804687,-2.4140625 0.984375,0 1.9921875,0.7382813 1.9921875,2.4140625 0,1.7695313 -1.0195312,2.55468751 -1.9804687,2.55468751 z m 5.7128906,0.10546875 c 0.4921875,0.4453125 1.1015623,0.78515625 1.8750003,0.78515625 1.371093,0 2.601562,-1.38281251 2.601562,-3.33984371 0,-1.734375 -0.914062,-3.3164063 -2.25,-3.3164063 -0.585937,0 -1.4999998,0.1875 -2.2499998,0.8203125 V -6.3618984 H 8.1377109 v 9.140625 h 1.0898438 z m 0,-4.17187496 c 0.3398437,-0.4921875 0.8789063,-0.8085938 1.4648433,-0.8085938 1.066407,0 1.921875,1.078125 1.921875,2.4375 0,1.4414063 -0.984375,2.47265626 -2.050781,2.47265626 -0.398437,0 -0.6679686,-0.140625 -0.9257811,-0.35156246 -0.3632812,-0.3164063 -0.4101562,-0.5742188 -0.4101562,-0.796875 z m 11.1445313,3.2695312 c -0.65625,0.5273438 -1.394531,0.79687501 -2.191406,0.79687501 -1.195313,0 -1.96875,-1.05468751 -1.96875,-2.44921871 0,-1.1953125 0.574218,-2.4960938 2.003906,-2.4960938 0.960937,0 1.371094,0.234375 1.980469,0.6445313 l 0.175781,-0.9257813 c -0.832031,-0.4921875 -1.3125,-0.609375 -2.15625,-0.609375 -1.980469,0 -3.09375,1.7578125 -3.09375,3.3867188 0,1.8398437 1.3125,3.33984371 3.035156,3.33984371 0.703125,0 1.511719,-0.1640625 2.296875,-0.73828125 0,-0.046875 -0.04687,-0.49218746 -0.05859,-0.55078126 z m 7.075195,-1.6054687 c 0,-1.9453125 -1.417968,-3.4335938 -3.070312,-3.4335938 -1.699219,0 -3.082031,1.5234375 -3.082031,3.4335938 0,1.875 1.429687,3.29296871 3.070312,3.29296871 1.6875,0 3.082031,-1.44140621 3.082031,-3.29296871 z m -3.070312,2.40234371 c -1.03125,0 -1.992188,-0.85546871 -1.992188,-2.55468751 0,-1.734375 1.078125,-2.4140625 1.980469,-2.4140625 0.984375,0 1.992188,0.7382813 1.992188,2.4140625 0,1.7695313 -1.019532,2.55468751 -1.980469,2.55468751 z m 9.966797,-9.19921871 h -1.066407 v 4.1835937 c -0.65625,-0.5507812 -1.40625,-0.75 -2.015625,-0.75 -1.371093,0 -2.484375,1.4648438 -2.484375,3.328125 0,1.8515625 1.054688,3.32812501 2.425782,3.32812501 0.527343,0 1.335937,-0.1640625 2.050781,-0.8671875 v 0.7265625 h 1.089844 z m -1.089844,8.2617187 c -0.351563,0.609375 -0.84375,0.97265626 -1.476563,0.97265626 -0.878906,0 -1.910156,-0.67968746 -1.910156,-2.46093746 0,-1.8984375 1.21875,-2.4726563 2.050781,-2.4726563 0.5625,0 1.019532,0.28125 1.335938,0.7617188 z m 8.05957,-1.5351562 c 0,-0.6210938 -0.05859,-1.5 -0.515625,-2.2617188 -0.585937,-0.984375 -1.59375,-1.1015625 -2.003906,-1.1015625 -1.546875,0 -2.847656,1.4882813 -2.847656,3.3632813 0,1.8867187 1.382812,3.36328121 3.046875,3.36328121 0.65625,0 1.453125,-0.1875 2.238281,-0.76171875 0,-0.0585938 -0.04687,-0.49218746 -0.04687,-0.52734376 -0.01172,-0.011719 -0.04687,-0.328125 -0.04687,-0.3867187 -0.84375,0.71484371 -1.6875,0.82031246 -2.121094,0.82031246 -1.101562,0 -2.050781,-0.99609376 -2.074219,-2.50781246 z M 37.02443,-3.9947109 c 0.246093,-0.9726563 0.925781,-1.7226563 1.769531,-1.7226563 0.445312,0 1.429687,0.1992188 1.675781,1.7226563 z m 7.21582,-2.3671875 h -1.160156 v 1.1601562 h 1.160156 z m -1.160156,5.203125 V 0.00138281 H 44.24025 V -1.1587734 Z m 15.205078,-3.515625 c 0,-0.9609375 -0.03516,-2.0625 -0.410156,-3.0820313 -0.621094,-1.6054687 -1.734375,-1.9335937 -2.496094,-1.9335937 -0.9375,0 -1.839844,0.46875 -2.367188,1.6054687 -0.46875,1.0195313 -0.5625,2.1796875 -0.5625,3.4101563 0,1.5585937 0.128907,2.4492187 0.585938,3.4570312 0.433594,0.94921876 1.347656,1.52343751 2.332031,1.52343751 0.9375,0 1.851563,-0.515625 2.332031,-1.51171871 0.492188,-1.0195313 0.585938,-2.0625 0.585938,-3.46875 z m -2.90625,4.11328121 c -1.839844,0 -1.839844,-2.94140621 -1.839844,-4.28906251 0,-0.9257812 0,-1.8046875 0.257813,-2.625 0.351562,-1.0195312 0.972656,-1.359375 1.570312,-1.359375 1.828125,0 1.828125,2.671875 1.828125,3.984375 0,0.9257813 0,1.8632813 -0.257812,2.7539063 -0.386719,1.38281246 -1.183594,1.53515621 -1.558594,1.53515621 z m 7.154297,-2.71875001 2.542969,-3.0820312 H 63.869156 L 62.064469,-4.0415859 60.17775,-6.3618984 H 58.959 l 2.613281,3.0820312 -2.683593,3.28125001 H 60.084 l 1.980469,-2.67187501 2.027344,2.67187501 h 1.207031 z m 6.999023,-6.4101562 h -0.269531 c -0.234375,0.2226562 -0.925781,0.9023437 -2.472656,0.9257812 -0.199219,0 -0.210938,0.011719 -0.210938,0.2695313 v 0.5742187 c 0.867188,0 1.535156,-0.2109375 1.828125,-0.3398437 v 7.42968746 h -1.746094 v 0.83203125 h 4.617188 v -0.83203125 h -1.746094 z m 7.025391,0 h -0.269531 c -0.234375,0.2226562 -0.925782,0.9023437 -2.472657,0.9257812 -0.199218,0 -0.210937,0.011719 -0.210937,0.2695313 v 0.5742187 c 0.867187,0 1.535156,-0.2109375 1.828125,-0.3398437 v 7.42968746 h -1.746094 v 0.83203125 h 4.617188 v -0.83203125 h -1.746094 z m 0,0"
       style="fill:#000000;fill-opacity:1;fill-rule:nonzero;stroke:none"
       aria-label="opcode:0x11"
       transform="matrix(1.3333333,0,0,1.3333333,91.388,48.088)" />
    <path
       id="path7"
       d="M 0,0 V 17.933"
       style="fill:none;stroke:#000000;stroke-width:0.398;stroke-linecap:butt;stroke-linejoin:miter;stroke-miterlimit:10;stroke-dasharray:none;stroke-opacity:1"
       transform="matrix(1.3333333,0,0,-1.3333333,230.70933,55.261333)" />
    <path
       id="path8"
       d="M 0,0 H 25.604 V 17.933 H 0 Z"
       style="fill:#808080;fill-opacity:1;fill-rule:nonzero;stroke:none"
       transform="matrix(1.3333333,0,0,-1.3333333,230.97467,55.261333)" />
    <path
       id="path9"
       d="m 6.4233359,-4.6743984 c 0,-0.9609375 -0.035156,-2.0625 -0.4101562,-3.0820313 -0.6210938,-1.6054687 -1.734375,-1.9335937 -2.4960938,-1.9335937 -0.9375,0 -1.8398437,0.46875 -2.3671875,1.6054687 -0.46874996,1.0195313 -0.56249996,2.1796875 -0.56249996,3.4101563 0,1.5585937 0.12890625,2.4492187 0.58593746,3.4570312 0.4335938,0.94921876 1.3476563,1.52343751 2.3320313,1.52343751 0.9375,0 1.8515625,-0.515625 2.3320312,-1.51171871 0.4921875,-1.0195313 0.5859375,-2.0625 0.5859375,-3.46875 z m -2.90625,4.11328121 c -1.8398437,0 -1.8398437,-2.94140621 -1.8398437,-4.28906251 0,-0.9257812 0,-1.8046875 0.2578125,-2.625 0.3515625,-1.0195312 0.9726562,-1.359375 1.5703125,-1.359375 1.828125,0 1.828125,2.671875 1.828125,3.984375 0,0.9257813 0,1.8632813 -0.2578125,2.7539063 -0.3867188,1.38281246 -1.1835938,1.53515621 -1.5585938,1.53515621 z m 0,0"
       style="fill:#000000;fill-opacity:1;fill-rule:nonzero;stroke:none"
       aria-label="0"
       transform="matrix(1.3333333,0,0,1.3333333,243.36133,48.088)" />
    <path
       id="path10"
       d="M 0,0 V 17.933"
       style="fill:none;stroke:#000000;stroke-width:0.398;stroke-linecap:butt;stroke-linejoin:miter;stroke-miterlimit:10;stroke-dasharray:none;stroke-opacity:1"
       transform="matrix(1.3333333,0,0,-1.3333333,265.37867,55.261333)" />
    <path
       id="path11"
       d="m 9.9950547,-4.3111172 c 0,-0.9960937 -0.2578125,-2.203125 -1.9335938,-2.203125 -1.21875,0 -1.8984375,0.8554688 -2.109375,1.1601563 -0.2578125,-0.9023438 -1.0429687,-1.1601563 -1.7929687,-1.1601563 -1.171875,0 -1.7929688,0.7617188 -2.0390625,1.0664063 V -6.4439297 H 1.1005234 V 0.00138281 H 2.1903672 V -3.5728359 c 0,-0.9492188 0.375,-2.0742188 1.4179687,-2.0742188 1.3242188,0 1.3945313,0.9023438 1.3945313,1.4296875 V 0.00138281 H 6.0927109 V -3.5728359 c 0,-0.9492188 0.375,-2.0742188 1.4179688,-2.0742188 1.3242187,0 1.3945312,0.9023438 1.3945312,1.4296875 v 4.21875001 h 1.0898438 z m 6.7265623,0.1054688 c 0,-1.3710938 -0.996094,-2.3789063 -2.332031,-2.3789063 -0.855469,0 -1.5,0.1992188 -2.203125,0.609375 l 0.08203,0.9375 c 0.632813,-0.4570312 1.289063,-0.7148437 2.121094,-0.7148437 0.667969,0 1.242187,0.5273437 1.242187,1.5820312 v 0.5859375 c -0.65625,0.023437 -1.511718,0.070312 -2.367187,0.3632813 -0.960938,0.328125 -1.523438,0.8554687 -1.523438,1.5703125 0,0.6328125 0.375,1.79296871 1.59375,1.79296871 0.785157,0 1.792969,-0.22265625 2.320313,-0.66796875 v 0.52734375 h 1.066406 z m -1.089844,2.2851562 c 0,0.28125 0,0.6328125 -0.480468,0.9140625 -0.386719,0.24609376 -0.867188,0.29296876 -1.089844,0.29296876 -0.773438,0 -1.300781,-0.42187496 -1.300781,-0.94921876 0,-0.9726562 1.992187,-1.1953125 2.871093,-1.1953125 z m 7.016602,-4.21875 c -0.914062,-0.4335937 -1.6875,-0.4453125 -2.015625,-0.4453125 -0.328125,0 -2.332031,0 -2.332031,1.8632813 0,0.6328125 0.351562,1.0664062 0.5625,1.265625 0.515625,0.4453125 0.878906,0.515625 1.722656,0.6914062 0.46875,0.09375 1.300781,0.2695313 1.300781,1.03125 0,0.98437501 -1.113281,0.98437501 -1.3125,0.98437501 -0.574218,0 -1.40625,-0.15234375 -2.179687,-0.71484371 l -0.175781,0.97265621 c 0.07031,0.046875 1.042968,0.6328125 2.367187,0.6328125 1.851563,0 2.296875,-1.11328125 2.296875,-1.95703121 0,-0.7382813 -0.445312,-1.1953125 -0.503906,-1.265625 C 21.8515,-3.6314297 21.417906,-3.7134609 20.539,-3.8892422 c -0.515625,-0.09375 -1.242187,-0.2460937 -1.242187,-0.9609375 0,-0.890625 1.007812,-0.890625 1.183593,-0.890625 0.761719,0 1.371094,0.1757813 2.003907,0.5390625 z m 4.470703,2.2265625 2.355469,-2.4492187 h -1.324219 l -2.765625,2.8828125 v -6.46875 h -1.054687 v 9.94921871 h 1.007812 V -2.0611172 l 1.089844,-1.1367187 2.179687,3.19921871 h 1.183594 z m 9.111328,0.7617188 c 0,-1.9453125 -1.417968,-3.4335938 -3.070312,-3.4335938 -1.699219,0 -3.082031,1.5234375 -3.082031,3.4335938 0,1.875 1.429687,3.29296871 3.070312,3.29296871 1.6875,0 3.082031,-1.44140621 3.082031,-3.29296871 z m -3.070312,2.40234371 c -1.03125,0 -1.992188,-0.85546871 -1.992188,-2.55468751 0,-1.734375 1.078125,-2.4140625 1.980469,-2.4140625 0.984375,0 1.992188,0.7382813 1.992188,2.4140625 0,1.7695313 -1.019532,2.55468751 -1.980469,2.55468751 z m 5.71289,0.10546875 c 0.492188,0.4453125 1.101563,0.78515625 1.875,0.78515625 1.371094,0 2.601563,-1.38281251 2.601563,-3.33984371 0,-1.734375 -0.914063,-3.3164063 -2.25,-3.3164063 -0.585938,0 -1.5,0.1875 -2.25,0.8203125 v -0.6679687 h -1.066406 v 9.140625 h 1.089843 z m 0,-4.17187496 c 0.339844,-0.4921875 0.878907,-0.8085938 1.464844,-0.8085938 1.066406,0 1.921875,1.078125 1.921875,2.4375 0,1.4414063 -0.984375,2.47265626 -2.050781,2.47265626 -0.398438,0 -0.667969,-0.140625 -0.925781,-0.35156246 -0.363282,-0.3164063 -0.410157,-0.5742188 -0.410157,-0.796875 z m 0,0"
       style="fill:#000000;fill-opacity:1;fill-rule:nonzero;stroke:none"
       aria-label="maskop"
       transform="matrix(1.3333333,0,0,1.3333333,273.61467,48.088)" />
    <path
       id="path12"
       d="M 0,0 V 17.933"
       style="fill:none;stroke:#000000;stroke-width:0.398;stroke-linecap:butt;stroke-linejoin:miter;stroke-miterlimit:10;stroke-dasharray:none;stroke-opacity:1"
       transform="matrix(1.3333333,0,0,-1.3333333,340.348,55.261333)" />
    <path
       id="path13"
       d="m 9.99725,-4.3111172 c 0,-0.9960937 -0.2578125,-2.203125 -1.9335937,-2.203125 -1.21875,0 -1.8984375,0.8554688 -2.109375,1.1601563 -0.2578125,-0.9023438 -1.0429688,-1.1601563 -1.7929688,-1.1601563 -1.171875,0 -1.7929687,0.7617188 -2.0390625,1.0664063 V -6.4439297 H 1.1027188 V 0.00138281 H 2.1925625 V -3.5728359 c 0,-0.9492188 0.375,-2.0742188 1.4179688,-2.0742188 1.3242187,0 1.3945312,0.9023438 1.3945312,1.4296875 V 0.00138281 H 6.0949063 V -3.5728359 c 0,-0.9492188 0.375,-2.0742188 1.4179687,-2.0742188 1.3242188,0 1.3945313,0.9023438 1.3945313,1.4296875 V 0.00138281 H 9.99725 Z m 6.723633,0.1054688 c 0,-1.3710938 -0.996094,-2.3789063 -2.332031,-2.3789063 -0.855469,0 -1.5,0.1992188 -2.203125,0.609375 l 0.08203,0.9375 c 0.632812,-0.4570312 1.289062,-0.7148437 2.121094,-0.7148437 0.667968,0 1.242187,0.5273437 1.242187,1.5820312 v 0.5859375 c -0.65625,0.023437 -1.511719,0.070312 -2.367187,0.3632813 -0.960938,0.328125 -1.523438,0.8554687 -1.523438,1.5703125 0,0.6328125 0.375,1.79296871 1.59375,1.79296871 0.785156,0 1.792969,-0.22265625 2.320313,-0.66796875 v 0.52734375 h 1.066406 z m -1.089844,2.2851562 c 0,0.28125 0,0.6328125 -0.480469,0.9140625 -0.386718,0.24609376 -0.867187,0.29296876 -1.089843,0.29296876 -0.773438,0 -1.300782,-0.42187496 -1.300782,-0.94921876 0,-0.9726562 1.992188,-1.1953125 2.871094,-1.1953125 z m 7.016602,-4.21875 c -0.914063,-0.4335937 -1.6875,-0.4453125 -2.015625,-0.4453125 -0.328125,0 -2.332032,0 -2.332032,1.8632813 0,0.6328125 0.351563,1.0664062 0.5625,1.265625 0.515625,0.4453125 0.878907,0.515625 1.722657,0.6914062 0.46875,0.09375 1.300781,0.2695313 1.300781,1.03125 0,0.98437501 -1.113281,0.98437501 -1.3125,0.98437501 -0.574219,0 -1.40625,-0.15234375 -2.179688,-0.71484371 l -0.175781,0.97265621 c 0.07031,0.046875 1.042969,0.6328125 2.367188,0.6328125 1.851562,0 2.296875,-1.11328125 2.296875,-1.95703121 0,-0.7382813 -0.445313,-1.1953125 -0.503907,-1.265625 -0.527343,-0.5507813 -0.960937,-0.6328125 -1.839843,-0.8085938 -0.515625,-0.09375 -1.242188,-0.2460937 -1.242188,-0.9609375 0,-0.890625 1.007813,-0.890625 1.183594,-0.890625 0.761719,0 1.371094,0.1757813 2.003906,0.5390625 z m 4.470703,2.2265625 2.355469,-2.4492187 h -1.324219 l -2.765625,2.8828125 v -6.46875 h -1.054688 v 9.94921871 h 1.007813 V -2.0611172 l 1.089844,-1.1367187 2.179687,3.19921871 h 1.183594 z m 0,0"
       style="fill:#000000;fill-opacity:1;fill-rule:nonzero;stroke:none"
       aria-label="mask"
       transform="matrix(1.3333333,0,0,1.3333333,421.54533,48.088)" />
    <path
       id="path14"
       d="M 0,0 V 17.933"
       style="fill:none;stroke:#000000;stroke-width:0.398;stroke-linecap:butt;stroke-linejoin:miter;stroke-miterlimit:10;stroke-dasharray:none;stroke-opacity:1"
       transform="matrix(1.3333333,0,0,-1.3333333,542.788,55.261333)" />
    <path
       id="path15"
       d="M 0,0 H 364.071"
       style="fill:none;stroke:#000000;stroke-width:0.398;stroke-linecap:butt;stroke-linejoin:miter;stroke-miterlimit:10;stroke-dasharray:none;stroke-opacity:1"
       transform="matrix(1.3333333,0,0,-1.3333333,57.625333,55.526667)" />
  </g>
</svg>
