<?xml version="1.0" encoding="UTF-8" standalone="no"?>
<!-- Created with Inkscape (http://www.inkscape.org/) -->

<svg
   version="1.1"
   id="svg1"
   width="600.67865"
   height="111.58533"
   viewBox="0 0 600.67865 111.58533"
   sodipodi:docname="main.pdf"
   xmlns:inkscape="http://www.inkscape.org/namespaces/inkscape"
   xmlns:sodipodi="http://sodipodi.sourceforge.net/DTD/sodipodi-0.dtd"
   xmlns="http://www.w3.org/2000/svg"
   xmlns:svg="http://www.w3.org/2000/svg">
  <defs
     id="defs1" />
  <sodipodi:namedview
     id="namedview1"
     pagecolor="#ffffff"
     bordercolor="#000000"
     borderopacity="0.25"
     inkscape:showpageshadow="2"
     inkscape:pageopacity="0.0"
     inkscape:pagecheckerboard="0"
     inkscape:deskcolor="#d1d1d1">
    <inkscape:page
       x="0"
       y="0"
       inkscape:label="1"
       id="page1"
       width="600.67865"
       height="111.58533"
       margin="0"
       bleed="0" />
  </sodipodi:namedview>
  <g
     id="g1"
     inkscape:groupmode="layer"
     inkscape:label="1">
    <path
       id="path1"
       d="M 0,0 H 450.509 V 83.689 H 0 Z"
       style="fill:#ffffff;fill-opacity:1;fill-rule:nonzero;stroke:none"
       transform="matrix(1.3333333,0,0,-1.3333333,0,111.58533)" />
    <path
       id="path2"
       d="M -224.75748,-41.34491 H 224.75747 V 41.34491 H -224.75748 Z"
       style="fill:#ffffff;fill-opacity:1;fill-rule:nonzero;stroke:none"
       transform="matrix(1.3333333,0,0,-1.3333333,300.34,55.793333)" />
    <path
       id="path3"
       d="M 4.2176172,-9.6900781 H 3.9480859 c -0.234375,0.2226562 -0.9257812,0.9023437 -2.4726562,0.9257812 -0.1992188,0 -0.2109375,0.011719 -0.2109375,0.2695313 v 0.5742187 c 0.8671875,0 1.5351562,-0.2109375 1.828125,-0.3398437 v 7.42968748 H 1.3465234 V 0.00132813 H 5.9637109 V -0.83070312 H 4.2176172 Z m 4.9628906,1.1835937 h 3.6796872 v -0.890625 H 8.1609766 v 5.2851563 h 0.9257812 c 0.3632813,-0.8203125 0.9960942,-1.1367188 1.5820312,-1.1367188 0.667969,0 1.429688,0.5976563 1.429688,2.3085938 0,1.8046875 -1.03125,2.37890623 -1.863282,2.37890623 -0.7851559,0 -1.7343747,-0.421875 -2.1914059,-1.33593753 l -0.46875,0.7851563 c 0.9375,1.34765623 2.2851562,1.41796873 2.6718749,1.41796873 1.699219,0 3.09375,-1.41796873 3.09375,-3.21093753 0,-1.7929687 -1.207031,-3.1992187 -2.660156,-3.1992187 -0.574219,0 -1.1015627,0.2109375 -1.5000002,0.5742187 z M 30.215664,-9.6900781 h -0.269531 c -0.234375,0.2226562 -0.925781,0.9023437 -2.472656,0.9257812 -0.199219,0 -0.210938,0.011719 -0.210938,0.2695313 v 0.5742187 c 0.867188,0 1.535156,-0.2109375 1.828125,-0.3398437 v 7.42968748 H 27.34457 v 0.83203125 h 4.617188 v -0.83203125 h -1.746094 z m 8.044922,7.21875 h 1.382812 v -0.8554688 h -1.382812 v -6.0703125 h -1.289063 l -3.5625,6.0703125 v 0.8554688 h 3.714844 v 2.47265623 h 1.136719 z m -3.75,-0.8554688 c 0.421875,-0.7265625 0.984375,-1.6523437 1.582031,-2.8007812 0.175781,-0.328125 1.101563,-2.0859375 1.101563,-2.625 v 5.4257812 z m 21.717773,-6.3632812 h -0.269531 c -0.234375,0.2226562 -0.925781,0.9023437 -2.472656,0.9257812 -0.199219,0 -0.210938,0.011719 -0.210938,0.2695313 v 0.5742187 c 0.867188,0 1.535157,-0.2109375 1.828125,-0.3398437 v 7.42968748 h -1.746093 v 0.83203125 h 4.617187 v -0.83203125 h -1.746094 z m 4.083985,2.34375 c 0.363281,-0.9140625 1.230468,-1.5351563 2.191406,-1.5351563 0.738281,0 1.417969,0.421875 1.417969,1.3476563 0,0.9609375 -0.65625,1.7578125 -1.429688,1.921875 -0.07031,0.023437 -0.972656,0.09375 -1.113281,0.1054687 v 0.8554688 h 1.007812 c 1.476563,0 1.839844,1.265625 1.839844,2.0507812 0,1.171875 -0.703125,2.03906253 -1.734375,2.03906253 -0.914062,0 -2.050781,-0.45703123 -2.707031,-1.48828123 l -0.164063,0.84375 c 0.9375,1.27734373 2.191407,1.51171873 2.894532,1.51171873 1.6875,0 2.941406,-1.37109373 2.941406,-2.88281253 0,-1.1132812 -0.726563,-2.0859375 -1.945313,-2.4960937 1.007813,-0.5507813 1.558594,-1.5117188 1.558594,-2.4609375 0,-1.2304688 -1.160156,-2.15625 -2.554687,-2.15625 -1.136719,0 -2.15625,0.6210937 -2.707032,1.5703125 z m 21.914062,-2.34375 h -0.269531 c -0.234375,0.2226562 -0.925781,0.9023437 -2.472656,0.9257812 -0.199219,0 -0.210938,0.011719 -0.210938,0.2695313 v 0.5742187 c 0.867188,0 1.535156,-0.2109375 1.828125,-0.3398437 v 7.42968748 H 79.355312 V 0.00132813 H 83.9725 v -0.83203125 h -1.746094 z m 3.509766,8.78906248 v 0.90234375 h 5.613281 v -0.97265625 h -2.554687 c -0.175782,0 -0.351563,0.0117188 -0.515625,0.0117188 h -1.535157 c 0.363282,-0.38671868 1.699219,-1.71093748 2.636719,-2.54296868 1.054688,-0.9257813 1.96875,-1.8164063 1.96875,-3.140625 0,-1.59375 -1.113281,-3.046875 -3,-3.046875 -1.546875,0 -2.34375,1.0078125 -2.730469,2.34375 0.457032,0.5742187 0.457032,0.609375 0.585938,0.7734375 0.363281,-1.5351563 0.890625,-2.2382813 1.957031,-2.2382813 1.230469,0 2.039063,0.9609375 2.039063,2.203125 0,0.7382813 -0.304688,1.5703125 -1.265625,2.5195313 z M 108.22445,-9.6900781 h -0.26953 c -0.23437,0.2226562 -0.92578,0.9023437 -2.47265,0.9257812 -0.19922,0 -0.21094,0.011719 -0.21094,0.2695313 v 0.5742187 c 0.86719,0 1.53515,-0.2109375 1.82812,-0.3398437 v 7.42968748 h -1.74609 v 0.83203125 h 4.61719 v -0.83203125 h -1.7461 z m 7.02539,0 h -0.26953 c -0.23437,0.2226562 -0.92578,0.9023437 -2.47265,0.9257812 -0.19922,0 -0.21094,0.011719 -0.21094,0.2695313 v 0.5742187 c 0.86719,0 1.53515,-0.2109375 1.82812,-0.3398437 v 7.42968748 h -1.74609 v 0.83203125 h 4.61719 v -0.83203125 h -1.7461 z m 18.97559,0 h -0.26953 c -0.23438,0.2226562 -0.92578,0.9023437 -2.47266,0.9257812 -0.19922,0 -0.21094,0.011719 -0.21094,0.2695313 v 0.5742187 c 0.86719,0 1.53516,-0.2109375 1.82813,-0.3398437 v 7.42968748 h -1.74609 v 0.83203125 h 4.61718 v -0.83203125 h -1.74609 z m 9.22559,5.015625 c 0,-0.9609375 -0.0352,-2.0625 -0.41016,-3.0820313 -0.62109,-1.6054687 -1.73438,-1.9335937 -2.49609,-1.9335937 -0.9375,0 -1.83985,0.46875 -2.36719,1.6054687 -0.46875,1.0195313 -0.5625,2.1796875 -0.5625,3.4101563 0,1.5585937 0.1289,2.4492187 0.58594,3.4570312 0.43359,0.94921878 1.34765,1.52343753 2.33203,1.52343753 0.9375,0 1.85156,-0.515625 2.33203,-1.51171873 0.49219,-1.0195313 0.58594,-2.0625 0.58594,-3.46875 z m -2.90625,4.11328123 c -1.83985,0 -1.83985,-2.94140623 -1.83985,-4.28906253 0,-0.9257812 0,-1.8046875 0.25781,-2.625 0.35157,-1.0195312 0.97266,-1.359375 1.57032,-1.359375 1.82812,0 1.82812,2.671875 1.82812,3.984375 0,0.9257813 0,1.8632813 -0.25781,2.7539063 -0.38672,1.38281248 -1.18359,1.53515623 -1.55859,1.53515623 z m 16.49121,0.19921875 c 0.64453,0.50390625 1.23047,0.66796875 1.86328,0.66796875 1.8164,0 3.52734,-1.96875003 3.52734,-5.10937503 0,-3.9023437 -1.59375,-4.8867187 -2.84765,-4.8867187 -1.04297,0 -1.64063,0.46875 -2.14454,1.0664062 -0.6914,0.8203125 -0.82031,1.5820313 -0.82031,2.4023438 0,1.8515625 0.94922,3.4101562 2.26172,3.4101562 1.04297,0 1.83984,-0.5039062 2.39063,-1.171875 -0.11719,2.0039063 -1.04297,3.42187503 -2.36719,3.42187503 -0.58594,0 -1.03125,-0.1875 -1.41797,-0.55078123 z m 4.18359,-5.87109378 c 0.0234,0.09375 0.0234,0.234375 0.0234,0.3398438 0,1.0898437 -0.6211,2.2265625 -1.81641,2.2265625 -0.23437,0 -0.86719,0 -1.34765,-0.8554688 -0.26954,-0.515625 -0.32813,-0.9257812 -0.32813,-1.6992187 0,-0.6328125 0.0117,-1.2304688 0.44531,-1.8867188 0.21094,-0.3046875 0.59766,-0.7734375 1.38282,-0.7734375 1.37109,0 1.61718,1.9453125 1.64062,2.6484375 z m 18.24902,1.1601563 c 0.90235,-0.28125 1.75782,-1.0664063 1.75782,-2.1210938 0,-1.359375 -1.19532,-2.4960937 -2.71875,-2.4960937 -1.58204,0 -2.74219,1.1835937 -2.74219,2.4960937 0,1.0664063 0.8789,1.8632813 1.76953,2.1210938 -1.16016,0.3867187 -1.95703,1.3476562 -1.95703,2.4960937 0,1.5351563 1.27734,2.88281253 2.91797,2.88281253 1.6875,0 2.91797,-1.38281253 2.91797,-2.88281253 0,-1.1484375 -0.78516,-2.109375 -1.94532,-2.4960937 z m -0.96093,-0.4335938 c -1.13672,0 -1.7461,-0.7617187 -1.7461,-1.6757812 0,-1.0898438 0.77344,-1.6992188 1.73438,-1.6992188 1.03125,0 1.74609,0.6445313 1.74609,1.6992188 0,0.9609375 -0.65625,1.6757812 -1.73437,1.6757812 z m 0,4.94531253 c -0.96094,0 -1.79297,-0.67968753 -1.79297,-2.03906253 0,-1.5351562 1.03125,-2.0507812 1.78125,-2.0507812 0.79687,0 1.79297,0.5625 1.79297,2.0507812 0,1.3945313 -0.87891,2.03906253 -1.78125,2.03906253 z m 18.71777,-7.85156253 c 0.17578,0 0.33984,-0.023437 0.51562,-0.023437 h 1.72266 c -0.86719,1.0078125 -3.33984,3.8789063 -3.33984,8.57812503 h 1.16015 c 0,-3.72656253 1.53516,-6.78515623 3.10547,-8.63671873 v -0.9023438 h -5.83594 v 0.984375 z m 21.56543,-0.9960937 c -0.58594,-0.2109375 -1.00781,-0.28125 -1.5,-0.28125 -1.94531,0 -3.73828,1.9921875 -3.73828,5.0742187 0,4.11328128 1.79297,4.92187503 2.92969,4.92187503 0.86718,0 1.47656,-0.3515625 2.03906,-1.0078125 0.64453,-0.77343753 0.84375,-1.45312503 0.84375,-2.48437503 0,-1.828125 -0.94922,-3.3984375 -2.25,-3.3984375 -1.06641,0 -1.86328,0.515625 -2.39063,1.1601563 0.15235,-2.1210938 1.17188,-3.4570313 2.58985,-3.4570313 0.62109,0 1.0664,0.1523438 1.47656,0.3046875 z m -4.05469,6.28125 c 0,-0.1171875 0,-0.3046875 0.0117,-0.3984375 0,-1.0078125 0.57422,-2.1914063 1.80469,-2.1914063 0.48047,0 0.9375,0.1289063 1.34765,0.84375 0.31641,0.5742188 0.32813,1.1484375 0.32813,1.6992188 0,0.5976562 0,1.2070312 -0.42188,1.8515625 -0.25781,0.38671873 -0.62109,0.76171873 -1.32421,0.76171873 -1.48829,0 -1.71094,-2.10937503 -1.7461,-2.56640623 z m 19.35059,-5.3789063 h 3.67969 v -0.890625 h -4.69922 v 5.2851563 h 0.92578 c 0.36328,-0.8203125 0.99609,-1.1367188 1.58203,-1.1367188 0.66797,0 1.42969,0.5976563 1.42969,2.3085938 0,1.8046875 -1.03125,2.37890623 -1.86328,2.37890623 -0.78516,0 -1.73438,-0.421875 -2.19141,-1.33593753 l -0.46875,0.7851563 c 0.9375,1.34765623 2.28516,1.41796873 2.67187,1.41796873 1.69922,0 3.09375,-1.41796873 3.09375,-3.21093753 0,-1.7929687 -1.20703,-3.1992187 -2.66015,-3.1992187 -0.57422,0 -1.10156,0.2109375 -1.5,0.5742187 z m 22.05469,6.0351563 h 1.38281 v -0.8554688 h -1.38281 v -6.0703125 h -1.28907 l -3.5625,6.0703125 v 0.8554688 h 3.71485 v 2.47265623 h 1.13672 z m -3.75,-0.8554688 c 0.42187,-0.7265625 0.98437,-1.6523437 1.58203,-2.8007812 0.17578,-0.328125 1.10156,-2.0859375 1.10156,-2.625 v 5.4257812 z m 18.77929,-4.0195312 c 0.36328,-0.9140625 1.23047,-1.5351563 2.19141,-1.5351563 0.73828,0 1.41797,0.421875 1.41797,1.3476563 0,0.9609375 -0.65625,1.7578125 -1.42969,1.921875 -0.0703,0.023437 -0.97266,0.09375 -1.11328,0.1054687 v 0.8554688 h 1.00781 c 1.47656,0 1.83984,1.265625 1.83984,2.0507812 0,1.171875 -0.70312,2.03906253 -1.73437,2.03906253 -0.91406,0 -2.05078,-0.45703123 -2.70703,-1.48828123 l -0.16406,0.84375 c 0.9375,1.27734373 2.1914,1.51171873 2.89453,1.51171873 1.6875,0 2.9414,-1.37109373 2.9414,-2.88281253 0,-1.1132812 -0.72656,-2.0859375 -1.94531,-2.4960937 1.00781,-0.5507813 1.55859,-1.5117188 1.55859,-2.4609375 0,-1.2304688 -1.16015,-2.15625 -2.55468,-2.15625 -1.13672,0 -2.15625,0.6210937 -2.70703,1.5703125 z m 18.39844,6.44531248 v 0.90234375 h 5.61328 v -0.97265625 h -2.55469 c -0.17578,0 -0.35156,0.0117188 -0.51562,0.0117188 h -1.53516 c 0.36328,-0.38671868 1.69922,-1.71093748 2.63672,-2.54296868 1.05469,-0.9257813 1.96875,-1.8164063 1.96875,-3.140625 0,-1.59375 -1.11328,-3.046875 -3,-3.046875 -1.54687,0 -2.34375,1.0078125 -2.73047,2.34375 0.45703,0.5742187 0.45703,0.609375 0.58594,0.7734375 0.36328,-1.5351563 0.89062,-2.2382813 1.95703,-2.2382813 1.23047,0 2.03906,0.9609375 2.03906,2.203125 0,0.7382813 -0.30468,1.5703125 -1.26562,2.5195313 z m 22.49121,-8.78906248 h -0.26953 c -0.23438,0.2226562 -0.92578,0.9023437 -2.47266,0.9257812 -0.19922,0 -0.21093,0.011719 -0.21093,0.2695313 v 0.5742187 c 0.86718,0 1.53515,-0.2109375 1.82812,-0.3398437 v 7.42968748 h -1.74609 v 0.83203125 h 4.61718 v -0.83203125 h -1.74609 z m 23.42871,5.015625 c 0,-0.9609375 -0.0351,-2.0625 -0.41015,-3.0820313 -0.6211,-1.6054687 -1.73438,-1.9335937 -2.4961,-1.9335937 -0.9375,0 -1.83984,0.46875 -2.36719,1.6054687 -0.46875,1.0195313 -0.5625,2.1796875 -0.5625,3.4101563 0,1.5585937 0.12891,2.4492187 0.58594,3.4570312 0.4336,0.94921878 1.34766,1.52343753 2.33203,1.52343753 0.9375,0 1.85157,-0.515625 2.33203,-1.51171873 0.49219,-1.0195313 0.58594,-2.0625 0.58594,-3.46875 z m -2.90625,4.11328123 c -1.83984,0 -1.83984,-2.94140623 -1.83984,-4.28906253 0,-0.9257812 0,-1.8046875 0.25781,-2.625 0.35156,-1.0195312 0.97266,-1.359375 1.57031,-1.359375 1.82813,0 1.82813,2.671875 1.82813,3.984375 0,0.9257813 0,1.8632813 -0.25781,2.7539063 -0.38672,1.38281248 -1.1836,1.53515623 -1.5586,1.53515623 z m 0,0"
       style="fill:#000000;fill-opacity:1;fill-rule:nonzero;stroke:none"
       aria-label="1514131211109876543210"
       transform="matrix(1.3333333,0,0,1.3333333,74.786667,23.646667)" />
    <path
       id="path4"
       d="M 0,0 H 350.284"
       style="fill:none;stroke:#000000;stroke-width:0.398;stroke-linecap:butt;stroke-linejoin:miter;stroke-miterlimit:10;stroke-dasharray:none;stroke-opacity:1"
       transform="matrix(1.3333333,0,0,-1.3333333,66.816,31.085333)" />
    <path
       id="path5"
       d="M 0,0 V 17.933"
       style="fill:none;stroke:#000000;stroke-width:0.398;stroke-linecap:butt;stroke-linejoin:miter;stroke-miterlimit:10;stroke-dasharray:none;stroke-opacity:1"
       transform="matrix(1.3333333,0,0,-1.3333333,67.082667,55.261333)" />
    <path
       id="path6"
       d="m 6.585875,-3.1509609 c 0,-1.9453125 -1.4179688,-3.4335938 -3.0703125,-3.4335938 -1.6992188,0 -3.08203125,1.5234375 -3.08203125,3.4335938 0,1.875 1.42968745,3.29296871 3.07031245,3.29296871 1.6875,0 3.0820313,-1.44140621 3.0820313,-3.29296871 z m -3.0703125,2.40234371 c -1.03125,0 -1.9921875,-0.85546871 -1.9921875,-2.55468751 0,-1.734375 1.078125,-2.4140625 1.9804687,-2.4140625 0.984375,0 1.9921875,0.7382813 1.9921875,2.4140625 0,1.7695313 -1.0195312,2.55468751 -1.9804687,2.55468751 z m 5.7128906,0.10546875 c 0.4921875,0.4453125 1.1015629,0.78515625 1.8749999,0.78515625 1.371094,0 2.601563,-1.38281251 2.601563,-3.33984371 0,-1.734375 -0.914063,-3.3164063 -2.25,-3.3164063 -0.585938,0 -1.5000004,0.1875 -2.2500004,0.8203125 V -6.3618984 H 8.1386094 v 9.140625 h 1.0898437 z m 0,-4.17187496 c 0.3398438,-0.4921875 0.8789059,-0.8085938 1.4648439,-0.8085938 1.066406,0 1.921875,1.078125 1.921875,2.4375 0,1.4414063 -0.984375,2.47265626 -2.050781,2.47265626 -0.398438,0 -0.6679691,-0.140625 -0.9257816,-0.35156246 -0.3632813,-0.3164063 -0.4101563,-0.5742188 -0.4101563,-0.796875 z m 11.1416019,3.2695312 c -0.65625,0.5273438 -1.394532,0.79687501 -2.191407,0.79687501 -1.195312,0 -1.96875,-1.05468751 -1.96875,-2.44921871 0,-1.1953125 0.574219,-2.4960938 2.003907,-2.4960938 0.960937,0 1.371093,0.234375 1.980468,0.6445313 l 0.175782,-0.9257813 c -0.832032,-0.4921875 -1.3125,-0.609375 -2.15625,-0.609375 -1.980469,0 -3.09375,1.7578125 -3.09375,3.3867188 0,1.8398437 1.3125,3.33984371 3.035156,3.33984371 0.703125,0 1.511719,-0.1640625 2.296875,-0.73828125 0,-0.046875 -0.04687,-0.49218746 -0.05859,-0.55078126 z m 7.078125,-1.6054687 c 0,-1.9453125 -1.417969,-3.4335938 -3.070313,-3.4335938 -1.699219,0 -3.082031,1.5234375 -3.082031,3.4335938 0,1.875 1.429687,3.29296871 3.070312,3.29296871 1.6875,0 3.082032,-1.44140621 3.082032,-3.29296871 z m -3.070313,2.40234371 c -1.03125,0 -1.992187,-0.85546871 -1.992187,-2.55468751 0,-1.734375 1.078125,-2.4140625 1.980468,-2.4140625 0.984375,0 1.992188,0.7382813 1.992188,2.4140625 0,1.7695313 -1.019531,2.55468751 -1.980469,2.55468751 z m 9.963867,-9.19921871 h -1.066406 v 4.1835937 c -0.65625,-0.5507812 -1.40625,-0.75 -2.015625,-0.75 -1.371094,0 -2.484375,1.4648438 -2.484375,3.328125 0,1.8515625 1.054688,3.32812501 2.425781,3.32812501 0.527344,0 1.335938,-0.1640625 2.050782,-0.8671875 v 0.7265625 h 1.089843 z m -1.089843,8.2617187 c -0.351563,0.609375 -0.84375,0.97265626 -1.476563,0.97265626 -0.878906,0 -1.910156,-0.67968746 -1.910156,-2.46093746 0,-1.8984375 1.21875,-2.4726563 2.050781,-2.4726563 0.5625,0 1.019531,0.28125 1.335938,0.7617188 z m 8.0625,-1.5351562 c 0,-0.6210938 -0.05859,-1.5 -0.515625,-2.2617188 -0.585938,-0.984375 -1.59375,-1.1015625 -2.003907,-1.1015625 -1.546875,0 -2.847656,1.4882813 -2.847656,3.3632813 0,1.8867187 1.382813,3.36328121 3.046875,3.36328121 0.65625,0 1.453125,-0.1875 2.238281,-0.76171875 0,-0.0585938 -0.04687,-0.49218746 -0.04687,-0.52734376 -0.01172,-0.011719 -0.04687,-0.328125 -0.04687,-0.3867187 -0.84375,0.71484371 -1.6875,0.82031246 -2.121093,0.82031246 -1.101563,0 -2.050782,-0.99609376 -2.074219,-2.50781246 z m -4.289063,-0.7734375 c 0.246094,-0.9726563 0.925781,-1.7226563 1.769531,-1.7226563 0.445313,0 1.429688,0.1992188 1.675782,1.7226563 z m 7.21582,-2.3671875 h -1.160156 v 1.1601562 h 1.160156 z m -1.160156,5.203125 v 1.16015621 h 1.160156 V -1.1587734 Z m 15.219727,-3.515625 c 0,-0.9609375 -0.03516,-2.0625 -0.410157,-3.0820313 -0.621093,-1.6054687 -1.734375,-1.9335937 -2.496093,-1.9335937 -0.9375,0 -1.839844,0.46875 -2.367188,1.6054687 -0.46875,1.0195313 -0.5625,2.1796875 -0.5625,3.4101563 0,1.5585937 0.128906,2.4492187 0.585938,3.4570312 0.433593,0.94921876 1.347656,1.52343751 2.332031,1.52343751 0.9375,0 1.851562,-0.515625 2.332031,-1.51171871 0.492188,-1.0195313 0.585938,-2.0625 0.585938,-3.46875 z m -2.90625,4.11328121 c -1.839844,0 -1.839844,-2.94140621 -1.839844,-4.28906251 0,-0.9257812 0,-1.8046875 0.257812,-2.625 0.351563,-1.0195312 0.972657,-1.359375 1.570313,-1.359375 1.828125,0 1.828125,2.671875 1.828125,3.984375 0,0.9257813 0,1.8632813 -0.257813,2.7539063 -0.386718,1.38281246 -1.183593,1.53515621 -1.558593,1.53515621 z m 7.139648,-2.71875001 2.542969,-3.0820312 h -1.207031 l -1.804688,2.3203125 -1.886719,-2.3203125 h -1.21875 l 2.613282,3.0820312 -2.683594,3.28125001 h 1.195312 l 1.980469,-2.67187501 2.027344,2.67187501 h 1.207031 z m 8.53418,1.734375 c -0.65625,0.5273438 -1.394531,0.79687501 -2.191406,0.79687501 -1.195313,0 -1.96875,-1.05468751 -1.96875,-2.44921871 0,-1.1953125 0.574218,-2.4960938 2.003906,-2.4960938 0.960937,0 1.371094,0.234375 1.980469,0.6445313 l 0.175781,-0.9257813 c -0.832031,-0.4921875 -1.3125,-0.609375 -2.15625,-0.609375 -1.980469,0 -3.09375,1.7578125 -3.09375,3.3867188 0,1.8398437 1.3125,3.33984371 3.035156,3.33984371 0.703125,0 1.511719,-0.1640625 2.296875,-0.73828125 0,-0.046875 -0.04687,-0.49218746 -0.05859,-0.55078126 z m 0,0"
       style="fill:#000000;fill-opacity:1;fill-rule:nonzero;stroke:none"
       aria-label="opcode:0xc"
       transform="matrix(1.3333333,0,0,1.3333333,105.78133,48.088)" />
    <path
       id="path7"
       d="M 0,0 V 17.933"
       style="fill:none;stroke:#000000;stroke-width:0.398;stroke-linecap:butt;stroke-linejoin:miter;stroke-miterlimit:10;stroke-dasharray:none;stroke-opacity:1"
       transform="matrix(1.3333333,0,0,-1.3333333,239.9,55.261333)" />
    <path
       id="path8"
       d="M 0,0 H 196.412 V 17.933 H 0 Z"
       style="fill:#808080;fill-opacity:1;fill-rule:nonzero;stroke:none"
       transform="matrix(1.3333333,0,0,-1.3333333,240.16533,55.261333)" />
    <path
       id="path9"
       d="m 6.4232109,-4.6743984 c 0,-0.9609375 -0.035156,-2.0625 -0.4101562,-3.0820313 -0.6210938,-1.6054687 -1.734375,-1.9335937 -2.4960938,-1.9335937 -0.9375,0 -1.8398437,0.46875 -2.3671875,1.6054687 -0.46874996,1.0195313 -0.56249996,2.1796875 -0.56249996,3.4101563 0,1.5585937 0.12890625,2.4492187 0.58593746,3.4570312 0.4335938,0.94921876 1.3476563,1.52343751 2.3320313,1.52343751 0.9375,0 1.8515625,-0.515625 2.3320312,-1.51171871 0.4921875,-1.0195313 0.5859375,-2.0625 0.5859375,-3.46875 z m -2.90625,4.11328121 c -1.8398437,0 -1.8398437,-2.94140621 -1.8398437,-4.28906251 0,-0.9257812 0,-1.8046875 0.2578125,-2.625 0.3515625,-1.0195312 0.9726562,-1.359375 1.5703125,-1.359375 1.828125,0 1.828125,2.671875 1.828125,3.984375 0,0.9257813 0,1.8632813 -0.2578125,2.7539063 -0.3867188,1.38281246 -1.1835938,1.53515621 -1.5585938,1.53515621 z m 0,0"
       style="fill:#000000;fill-opacity:1;fill-rule:nonzero;stroke:none"
       aria-label="0"
       transform="matrix(1.3333333,0,0,1.3333333,366.424,48.088)" />
    <path
       id="path10"
       d="M 0,0 V 17.933"
       style="fill:none;stroke:#000000;stroke-width:0.398;stroke-linecap:butt;stroke-linejoin:miter;stroke-miterlimit:10;stroke-dasharray:none;stroke-opacity:1"
       transform="matrix(1.3333333,0,0,-1.3333333,502.31467,55.261333)" />
    <path
       id="path11"
       d="m 9.9961797,-4.3111172 c 0,-0.9960937 -0.2578125,-2.203125 -1.9335938,-2.203125 -1.21875,0 -1.8984375,0.8554688 -2.109375,1.1601563 -0.2578125,-0.9023438 -1.0429687,-1.1601563 -1.7929687,-1.1601563 -1.171875,0 -1.7929688,0.7617188 -2.0390625,1.0664063 V -6.4439297 H 1.1016484 V 0.00138281 H 2.1914922 V -3.5728359 c 0,-0.9492188 0.375,-2.0742188 1.4179687,-2.0742188 1.3242188,0 1.3945313,0.9023438 1.3945313,1.4296875 V 0.00138281 H 6.0938359 V -3.5728359 c 0,-0.9492188 0.375,-2.0742188 1.4179688,-2.0742188 1.3242187,0 1.3945312,0.9023438 1.3945312,1.4296875 v 4.21875001 h 1.0898438 z m 0,0"
       style="fill:#000000;fill-opacity:1;fill-rule:nonzero;stroke:none"
       aria-label="m"
       transform="matrix(1.3333333,0,0,1.3333333,510.55067,48.088)" />
    <path
       id="path12"
       d="M 0,0 V 17.933"
       style="fill:none;stroke:#000000;stroke-width:0.398;stroke-linecap:butt;stroke-linejoin:miter;stroke-miterlimit:10;stroke-dasharray:none;stroke-opacity:1"
       transform="matrix(1.3333333,0,0,-1.3333333,533.59733,55.261333)" />
    <path
       id="path13"
       d="M 0,0 H 350.284"
       style="fill:none;stroke:#000000;stroke-width:0.398;stroke-linecap:butt;stroke-linejoin:miter;stroke-miterlimit:10;stroke-dasharray:none;stroke-opacity:1"
       transform="matrix(1.3333333,0,0,-1.3333333,66.816,55.526667)" />
    <path
       id="path14"
       d="M 0,0 V 17.933"
       style="fill:none;stroke:#000000;stroke-width:0.398;stroke-linecap:butt;stroke-linejoin:miter;stroke-miterlimit:10;stroke-dasharray:none;stroke-opacity:1"
       transform="matrix(1.3333333,0,0,-1.3333333,67.082667,79.702667)" />
    <path
       id="path15"
       d="m 5.6130469,-4.2055938 c 0,-1.3710937 -0.9960938,-2.3789062 -2.3320313,-2.3789062 -0.8554687,0 -1.5,0.1992187 -2.203125,0.609375 l 0.082031,0.9375 c 0.6328125,-0.4570313 1.2890625,-0.7148438 2.1210937,-0.7148438 0.6679688,0 1.2421875,0.5273438 1.2421875,1.5820313 V -3.5845 c -0.65625,0.023437 -1.5117187,0.070312 -2.3671875,0.3632812 -0.9609375,0.328125 -1.52343747,0.8554688 -1.52343747,1.5703125 0,0.6328125 0.37499997,1.7929688 1.59374997,1.7929688 0.7851563,0 1.7929688,-0.22265625 2.3203125,-0.66796875 V 0.0014375 h 1.0664063 z m -1.0898438,2.2851563 c 0,0.28125 0,0.6328125 -0.4804687,0.9140625 -0.3867188,0.24609375 -0.8671875,0.29296875 -1.0898438,0.29296875 -0.7734375,0 -1.3007812,-0.42187505 -1.3007812,-0.94921875 0,-0.9726563 1.9921875,-1.1953125 2.8710937,-1.1953125 z m 8.2705079,-8.0273438 h -1.066406 v 4.1835938 c -0.65625,-0.5507813 -1.40625,-0.75 -2.0156253,-0.75 -1.3710938,0 -2.484375,1.4648437 -2.484375,3.328125 0,1.8515625 1.0546875,3.328125 2.4257812,3.328125 0.5273441,0 1.3359371,-0.1640625 2.0507811,-0.8671875 v 0.7265625 h 1.089844 z m -1.089844,8.2617188 c -0.351562,0.609375 -0.84375,0.97265625 -1.476562,0.97265625 -0.8789066,0 -1.9101566,-0.67968755 -1.9101566,-2.46093755 0,-1.8984375 1.21875,-2.4726562 2.0507816,-2.4726562 0.5625,0 1.019531,0.28125 1.335937,0.7617187 z m 8.296875,-8.2617188 h -1.066406 v 4.1835938 c -0.65625,-0.5507813 -1.40625,-0.75 -2.015625,-0.75 -1.371094,0 -2.484375,1.4648437 -2.484375,3.328125 0,1.8515625 1.054687,3.328125 2.425781,3.328125 0.527344,0 1.335938,-0.1640625 2.050781,-0.8671875 v 0.7265625 h 1.089844 z m -1.089844,8.2617188 c -0.351562,0.609375 -0.84375,0.97265625 -1.476562,0.97265625 -0.878906,0 -1.910156,-0.67968755 -1.910156,-2.46093755 0,-1.8984375 1.21875,-2.4726562 2.050781,-2.4726562 0.5625,0 1.019531,0.28125 1.335937,0.7617187 z m 4.40625,-1.453125 c 0,-1.453125 1.089844,-2.390625 2.378907,-2.4140625 v -0.9609375 c -1.300782,0.023437 -2.0625,0.7734375 -2.449219,1.3359375 v -1.265625 h -0.996094 v 6.4453125 h 1.066406 z m 4.772461,-6.8085938 h -1.066406 v 9.9492188 h 1.066406 z m 7.710938,6.796875 c 0,-1.9453125 -1.417969,-3.4335937 -3.070313,-3.4335937 -1.699218,0 -3.082031,1.5234375 -3.082031,3.4335937 0,1.875 1.429688,3.2929688 3.070313,3.2929688 1.6875,0 3.082031,-1.4414063 3.082031,-3.2929688 z m -3.070313,2.4023438 c -1.03125,0 -1.992187,-0.8554688 -1.992187,-2.5546875 0,-1.734375 1.078125,-2.4140625 1.980469,-2.4140625 0.984375,0 1.992187,0.7382812 1.992187,2.4140625 0,1.7695312 -1.019531,2.5546875 -1.980469,2.5546875 z m 0,0"
       style="fill:#000000;fill-opacity:1;fill-rule:nonzero;stroke:none"
       aria-label="addrlo"
       transform="matrix(1.3333333,0,0,1.3333333,276.18,72.529333)" />
    <path
       id="path16"
       d="M 0,0 V 17.933"
       style="fill:none;stroke:#000000;stroke-width:0.398;stroke-linecap:butt;stroke-linejoin:miter;stroke-miterlimit:10;stroke-dasharray:none;stroke-opacity:1"
       transform="matrix(1.3333333,0,0,-1.3333333,533.59733,79.702667)" />
    <path
       id="path17"
       d="M 0,0 H 350.284"
       style="fill:none;stroke:#000000;stroke-width:0.398;stroke-linecap:butt;stroke-linejoin:miter;stroke-miterlimit:10;stroke-dasharray:none;stroke-opacity:1"
       transform="matrix(1.3333333,0,0,-1.3333333,66.816,79.969333)" />
    <path
       id="path18"
       d="M 0,0 V 17.933"
       style="fill:none;stroke:#000000;stroke-width:0.398;stroke-linecap:butt;stroke-linejoin:miter;stroke-miterlimit:10;stroke-dasharray:none;stroke-opacity:1"
       transform="matrix(1.3333333,0,0,-1.3333333,67.082667,104.14533)" />
    <path
       id="path19"
       d="m 5.6132266,-4.2065391 c 0,-1.3710937 -0.9960938,-2.3789062 -2.3320313,-2.3789062 -0.8554687,0 -1.5,0.1992187 -2.203125,0.609375 l 0.082031,0.9375 c 0.6328125,-0.4570313 1.2890625,-0.7148438 2.1210937,-0.7148438 0.6679688,0 1.2421875,0.5273438 1.2421875,1.5820313 v 0.5859375 c -0.65625,0.023437 -1.5117187,0.070312 -2.3671875,0.3632812 -0.9609375,0.328125 -1.52343749,0.8554688 -1.52343749,1.5703125 0,0.6328125 0.37499999,1.79296879 1.59374999,1.79296879 0.7851563,0 1.7929688,-0.22265625 2.3203125,-0.66796875 V 4.921875e-4 h 1.0664063 z m -1.0898438,2.2851563 c 0,0.28125 0,0.6328125 -0.4804687,0.9140625 -0.3867188,0.24609374 -0.8671875,0.29296874 -1.0898438,0.29296874 -0.7734375,0 -1.3007812,-0.42187504 -1.3007812,-0.94921874 0,-0.9726563 1.9921875,-1.1953125 2.8710937,-1.1953125 z m 8.2705082,-8.0273438 h -1.066407 v 4.1835938 c -0.65625,-0.5507813 -1.40625,-0.75 -2.0156246,-0.75 -1.3710938,0 -2.484375,1.4648437 -2.484375,3.328125 0,1.8515625 1.0546875,3.32812499 2.4257812,3.32812499 0.5273434,0 1.3359374,-0.1640625 2.0507814,-0.8671875 V 4.921875e-4 h 1.089844 z m -1.089844,8.2617188 c -0.351563,0.609375 -0.84375,0.97265624 -1.476563,0.97265624 -0.8789059,0 -1.9101559,-0.67968754 -1.9101559,-2.46093754 0,-1.8984375 1.21875,-2.4726562 2.0507809,-2.4726562 0.5625,0 1.019532,0.28125 1.335938,0.7617187 z m 8.296875,-8.2617188 h -1.066406 v 4.1835938 c -0.65625,-0.5507813 -1.40625,-0.75 -2.015625,-0.75 -1.371094,0 -2.484375,1.4648437 -2.484375,3.328125 0,1.8515625 1.054687,3.32812499 2.425781,3.32812499 0.527344,0 1.335937,-0.1640625 2.050781,-0.8671875 V 4.921875e-4 h 1.089844 z m -1.089844,8.2617188 c -0.351562,0.609375 -0.84375,0.97265624 -1.476562,0.97265624 -0.878907,0 -1.910157,-0.67968754 -1.910157,-2.46093754 0,-1.8984375 1.21875,-2.4726562 2.050782,-2.4726562 0.5625,0 1.019531,0.28125 1.335937,0.7617187 z m 4.40625,-1.453125 c 0,-1.453125 1.089844,-2.390625 2.378906,-2.4140625 v -0.9609375 c -1.300781,0.023437 -2.0625,0.7734375 -2.449218,1.3359375 v -1.265625 H 22.250922 V 4.921875e-4 h 1.066406 z m 8.674805,-1.171875 c 0,-0.8789063 -0.1875,-2.203125 -1.921875,-2.203125 -0.984375,0 -1.652344,0.5625 -1.992188,0.9960937 V -9.9487266 H 27.011664 V 4.921875e-4 h 1.089844 V -3.5737266 c 0,-0.890625 0.328125,-2.0742187 1.417969,-2.0742187 1.335937,0 1.382812,0.9257812 1.382812,1.4296875 V 4.921875e-4 h 1.089844 z m 3.386719,-5.4257813 h -1.230469 v 1.2304688 h 1.230469 z m -0.08203,3.375 H 34.230414 V 4.921875e-4 h 1.066406 z m 0,0"
       style="fill:#000000;fill-opacity:1;fill-rule:nonzero;stroke:none"
       aria-label="addrhi"
       transform="matrix(1.3333333,0,0,1.3333333,276.05867,96.972)" />
    <path
       id="path20"
       d="M 0,0 V 17.933"
       style="fill:none;stroke:#000000;stroke-width:0.398;stroke-linecap:butt;stroke-linejoin:miter;stroke-miterlimit:10;stroke-dasharray:none;stroke-opacity:1"
       transform="matrix(1.3333333,0,0,-1.3333333,533.59733,104.14533)" />
    <path
       id="path21"
       d="M 0,0 H 350.284"
       style="fill:none;stroke:#000000;stroke-width:0.398;stroke-linecap:butt;stroke-linejoin:miter;stroke-miterlimit:10;stroke-dasharray:none;stroke-opacity:1"
       transform="matrix(1.3333333,0,0,-1.3333333,66.816,104.41067)" />
  </g>
</svg>
