<?xml version="1.0" encoding="UTF-8" standalone="no"?>
<!-- Created with Inkscape (http://www.inkscape.org/) -->

<svg
   version="1.1"
   id="svg1"
   width="742.7973"
   height="305.11066"
   viewBox="0 0 742.7973 305.11066"
   sodipodi:docname="main.pdf"
   xmlns:inkscape="http://www.inkscape.org/namespaces/inkscape"
   xmlns:sodipodi="http://sodipodi.sourceforge.net/DTD/sodipodi-0.dtd"
   xmlns="http://www.w3.org/2000/svg"
   xmlns:svg="http://www.w3.org/2000/svg">
  <defs
     id="defs1" />
  <sodipodi:namedview
     id="namedview1"
     pagecolor="#ffffff"
     bordercolor="#000000"
     borderopacity="0.25"
     inkscape:showpageshadow="2"
     inkscape:pageopacity="0.0"
     inkscape:pagecheckerboard="0"
     inkscape:deskcolor="#d1d1d1">
    <inkscape:page
       x="0"
       y="0"
       inkscape:label="1"
       id="page1"
       width="742.7973"
       height="305.11066"
       margin="0"
       bleed="0" />
  </sodipodi:namedview>
  <g
     id="g1"
     inkscape:groupmode="layer"
     inkscape:label="1">
    <path
       id="path1"
       d="M 0,0 H 557.098 V 228.833 H 0 Z"
       style="fill:#ffffff;fill-opacity:1;fill-rule:nonzero;stroke:none"
       transform="matrix(1.3333333,0,0,-1.3333333,0,305.11067)" />
    <path
       id="path2"
       d="M -116.14993,-198.15425 V 29.68153 h 556.10534 v -227.83578 z"
       style="fill:#ffffff;fill-opacity:1;fill-rule:nonzero;stroke:none"
       transform="matrix(1.3333333,0,0,-1.3333333,155.53067,40.241333)" />
    <path
       id="path3"
       d="m 5.7529375,-1.5461641 c -0.65625,0.5273438 -1.3945312,0.79687504 -2.1914062,0.79687504 -1.1953125,0 -1.96875,-1.05468754 -1.96875,-2.44921874 0,-1.1953125 0.5742187,-2.4960938 2.0039062,-2.4960938 0.9609375,0 1.3710938,0.234375 1.9804688,0.6445313 l 0.1757812,-0.9257813 c -0.8320312,-0.4921875 -1.3125,-0.609375 -2.15625,-0.609375 -1.9804687,0 -3.09375,1.7578125 -3.09375,3.3867188 0,1.8398437 1.3125,3.33984374 3.0351563,3.33984374 0.703125,0 1.5117187,-0.1640625 2.296875,-0.73828125 0,-0.046875 -0.046875,-0.49218749 -0.058594,-0.55078129 z M 8.4218828,-9.9485078 H 7.3554766 V 7.109375e-4 h 1.0664062 z m 5.0273442,6.0351562 2.355468,-2.4492187 h -1.324218 l -2.765625,2.8828125 v -6.46875 H 10.660164 V 7.109375e-4 h 1.007813 V -2.0617891 l 1.089843,-1.1367187 2.179688,3.1992187375 h 1.183594 z m 0,0"
       style="fill:#000000;fill-opacity:1;fill-rule:nonzero;stroke:none"
       aria-label="clk"
       transform="matrix(1.3333333,0,0,1.3333333,120.11067,40.237333)" />
    <path
       id="path4"
       d="M 0,0.0037 H 20.40372 V 15.30649 H 40.80745 V 0.0037 H 61.21118 V 15.30649 H 81.61491 V 0.0037 h 20.40374 v 15.30279 h 20.40373 V 0.0037 h 20.40373 v 15.30279 h 20.40373 V 0.0037 h 20.40372 V 15.30649 H 204.0373 V 0.0037 h 20.40372 v 15.30279 h 20.40374 V 0.0037 h 20.40373 v 15.30279 h 20.40373 V 0.0037 h 20.40373 v 15.30279 h 20.40374 V 0.0037 h 20.40373 v 15.30279 h 20.40372 V 0.0037 h 20.40373 V 15.30649 H 408.0746 V 0.0037 h 20.40373"
       style="fill:none;stroke:#000000;stroke-width:0.95636;stroke-linecap:round;stroke-linejoin:round;stroke-miterlimit:10;stroke-dasharray:none;stroke-opacity:1"
       transform="matrix(1.3333333,0,0,-1.3333333,155.53067,40.241333)" />
    <path
       id="path5"
       d="m 2.1782812,-3.1414688 c 0,-1.453125 1.0898438,-2.390625 2.3789063,-2.4140625 v -0.9609375 c -1.3007813,0.023437 -2.0625,0.7734375 -2.4492188,1.3359375 v -1.265625 H 1.111875 V -8.4375e-4 H 2.1782812 Z M 10.844297,-9.9500625 H 9.7778906 v 4.1835937 c -0.65625,-0.5507812 -1.40625,-0.75 -2.015625,-0.75 -1.3710937,0 -2.484375,1.4648438 -2.484375,3.328125 0,1.8515625 1.0546875,3.32812505 2.4257813,3.32812505 0.5273437,0 1.3359375,-0.1640625 2.0507812,-0.8671875 v 0.7265625 h 1.0898439 z m -1.0898439,8.2617187 c -0.3515625,0.609375 -0.84375,0.9726563 -1.4765625,0.9726563 -0.8789062,0 -1.9101562,-0.6796875 -1.9101562,-2.4609375 0,-1.8984375 1.21875,-2.4726563 2.0507812,-2.4726563 0.5625,0 1.0195313,0.28125 1.3359375,0.7617188 z m 7.3593749,-3.5625 3.363281,-4.6992187 h -1.335937 l -2.625,3.75 -2.695313,-3.75 h -1.453125 l 3.539063,4.6992187 -3.726563,5.25000005 h 1.324219 l 3.011719,-4.39453125 3.09375,4.39453125 h 1.441406 z m 0,0"
       style="fill:#000000;fill-opacity:1;fill-rule:nonzero;stroke:none"
       aria-label="rdX"
       transform="matrix(1.3333333,0,0,1.3333333,113.58,81.048)" />
    <path
       id="path6"
       d="m 0,-30.6056 h 25.50465 l 2.55046,15.30279 h 79.06447 l 2.55046,-15.30279 h 79.06446 l 2.55047,15.30279 h 38.25699 l 2.55046,-15.30279 h 201.48685"
       style="fill:none;stroke:#000000;stroke-width:0.95636;stroke-linecap:round;stroke-linejoin:round;stroke-miterlimit:10;stroke-dasharray:none;stroke-opacity:1"
       transform="matrix(1.3333333,0,0,-1.3333333,155.53067,40.241333)" />
    <path
       id="path7"
       d="m 2.1794844,-3.1392344 c 0,-1.453125 1.0898437,-2.390625 2.3789062,-2.4140625 v -0.9609375 c -1.3007812,0.023437 -2.0625,0.7734375 -2.4492187,1.3359375 v -1.265625 H 1.1130781 V 0.00139062 H 2.1794844 Z M 10.8455,-9.9478281 H 9.7790938 v 4.1835937 c -0.65625,-0.5507812 -1.40625,-0.75 -2.015625,-0.75 -1.3710938,0 -2.484375,1.4648438 -2.484375,3.328125 0,1.8515625 1.0546875,3.32812502 2.4257812,3.32812502 0.5273438,0 1.3359375,-0.1640625 2.0507813,-0.8671875 v 0.7265625 H 10.8455 Z m -1.0898437,8.2617187 c -0.3515625,0.609375 -0.84375,0.97265627 -1.4765625,0.97265627 -0.8789063,0 -1.9101563,-0.67968747 -1.9101563,-2.46093747 0,-1.8984375 1.21875,-2.4726563 2.0507813,-2.4726563 0.5625,0 1.0195312,0.28125 1.3359375,0.7617188 z m 7.3564457,-3.5625 3.363281,-4.6992187 h -1.335938 l -2.625,3.75 -2.695312,-3.75 h -1.453125 l 3.539062,4.6992187 -3.726562,5.25000002 h 1.324219 l 3.011718,-4.39453122 3.09375,4.39453122 h 1.441407 z m 0,0"
       style="fill:#000000;fill-opacity:1;fill-rule:nonzero;stroke:none"
       aria-label="rdX"
       transform="matrix(1.3333333,0,0,1.3333333,72.289333,121.86533)" />
    <path
       id="path8"
       d="M 0,0 H 4.214"
       style="fill:none;stroke:#000000;stroke-width:0.398;stroke-linecap:butt;stroke-linejoin:round;stroke-miterlimit:10;stroke-dasharray:none;stroke-opacity:1"
       transform="matrix(1.3333333,0,0,-1.3333333,101.76267,121.6)" />
    <path
       id="path9"
       d="m 5.6143906,-4.2056406 c 0,-1.3710938 -0.9960937,-2.3789063 -2.3320312,-2.3789063 -0.8554688,0 -1.5,0.1992188 -2.203125,0.609375 l 0.082031,0.9375 c 0.6328125,-0.4570312 1.2890625,-0.7148437 2.1210938,-0.7148437 0.6679687,0 1.2421875,0.5273437 1.2421875,1.5820312 v 0.5859375 c -0.65625,0.023437 -1.5117188,0.070312 -2.3671875,0.3632813 -0.9609375,0.328125 -1.52343753,0.8554687 -1.52343753,1.5703125 0,0.6328125 0.37500003,1.79296872 1.59375003,1.79296872 0.7851562,0 1.7929687,-0.22265625 2.3203125,-0.66796875 v 0.52734375 h 1.0664062 z m -1.0898437,2.2851562 c 0,0.28125 0,0.6328125 -0.4804688,0.9140625 -0.3867187,0.24609377 -0.8671875,0.29296877 -1.0898437,0.29296877 -0.7734375,0 -1.3007813,-0.42187497 -1.3007813,-0.94921877 0,-0.9726562 1.9921875,-1.1953125 2.8710938,-1.1953125 z m 8.2705081,-8.0273437 h -1.066407 v 4.1835937 c -0.65625,-0.5507812 -1.40625,-0.75 -2.0156246,-0.75 -1.3710937,0 -2.484375,1.4648438 -2.484375,3.328125 0,1.8515625 1.0546875,3.32812502 2.4257813,3.32812502 0.5273433,0 1.3359373,-0.1640625 2.0507813,-0.8671875 v 0.7265625 h 1.089844 z m -1.089844,8.2617187 c -0.351563,0.609375 -0.84375,0.97265627 -1.476563,0.97265627 -0.8789058,0 -1.9101558,-0.67968747 -1.9101558,-2.46093747 0,-1.8984375 1.21875,-2.4726563 2.0507808,-2.4726563 0.5625,0 1.019532,0.28125 1.335938,0.7617188 z m 8.293945,-8.2617187 H 18.93275 v 4.1835937 c -0.65625,-0.5507812 -1.40625,-0.75 -2.015625,-0.75 -1.371094,0 -2.484375,1.4648438 -2.484375,3.328125 0,1.8515625 1.054687,3.32812502 2.425781,3.32812502 0.527344,0 1.335938,-0.1640625 2.050781,-0.8671875 v 0.7265625 h 1.089844 z m -1.089844,8.2617187 c -0.351562,0.609375 -0.84375,0.97265627 -1.476562,0.97265627 -0.878906,0 -1.910156,-0.67968747 -1.910156,-2.46093747 0,-1.8984375 1.21875,-2.4726563 2.050781,-2.4726563 0.5625,0 1.019531,0.28125 1.335937,0.7617188 z m 4.40625,-1.453125 c 0,-1.453125 1.089844,-2.390625 2.378907,-2.4140625 v -0.9609375 c -1.300782,0.023437 -2.0625,0.7734375 -2.449219,1.3359375 v -1.265625 h -0.996094 v 6.44531252 h 1.066406 z m 0,0"
       style="fill:#000000;fill-opacity:1;fill-rule:nonzero;stroke:none"
       aria-label="addr"
       transform="matrix(1.3333333,0,0,1.3333333,107.38133,121.86533)" />
    <path
       id="path10"
       d="m 0,-45.91403 25.50465,-9e-4 2.55046,-7.6514 -2.55046,-7.65141 L 0,-61.21683"
       style="fill:none;stroke:#000000;stroke-width:0.95636;stroke-linecap:round;stroke-linejoin:round;stroke-miterlimit:10;stroke-dasharray:none;stroke-opacity:1"
       transform="matrix(1.3333333,0,0,-1.3333333,155.53067,40.241333)" />
    <path
       id="path11"
       d="m 1.3091146,-9.9585417 v 9.96093753 h 3.6914062 c 2.4023438,0 4.3164063,-2.16796873 4.3164063,-4.90234373 0,-2.7929688 -1.9140625,-5.0585938 -4.3164063,-5.0585938 z m 1.2109375,9.16015628 V -9.1577604 h 2.1484375 c 1.9140625,0 3.4375,1.6601562 3.4375,4.2578125 0,2.6171875 -1.5820313,4.10156248 -3.4375,4.10156248 z M 16.274935,-10.25151 c 0.07813,-0.175782 0.07813,-0.214844 0.07813,-0.234375 0,-0.195313 -0.15625,-0.273438 -0.273438,-0.273438 -0.175781,0 -0.214843,0.117188 -0.292968,0.3125 l -4.84375,13.5156251 c -0.05859,0.1953125 -0.05859,0.2148437 -0.05859,0.2539062 0,0.15625 0.117187,0.2734375 0.273437,0.2734375 0.175782,0 0.214844,-0.15625 0.273438,-0.3125 z m 9.038086,8.5937496 c -0.878906,0.66406248 -1.484375,0.89843748 -2.734375,0.89843748 -1.855469,0 -3.28125,-1.93359378 -3.28125,-4.25781248 0,-1.9335938 1.171875,-4.21875 3.339844,-4.21875 0.957031,0 1.679687,0.2929687 2.382812,0.78125 l 0.214844,-1.171875 c -0.917969,-0.3710938 -1.640625,-0.4882816 -2.617188,-0.4882816 -2.441406,0 -4.53125,2.1484378 -4.53125,5.1171878 0,3.1445313 2.304688,5.13671878 4.394532,5.13671878 1.445312,0 1.757812,-0.09765625 2.910156,-0.80078125 z m 0,0"
       style="fill:#000000;fill-opacity:1;fill-rule:nonzero;stroke:none"
       aria-label="D/C"
       transform="matrix(0.8,0,0,0.8,162.09333,114.52933)" />
    <path
       id="path12"
       d="m 28.05511,-53.56451 2.55048,7.65139 35.70653,-9.1e-4 2.55046,-7.6514 -2.55046,-7.6514 -35.70653,0.0018 -2.55048,7.6514"
       style="fill:none;stroke:#000000;stroke-width:0.95636;stroke-linecap:round;stroke-linejoin:round;stroke-miterlimit:10;stroke-dasharray:none;stroke-opacity:1"
       transform="matrix(1.3333333,0,0,-1.3333333,155.53067,40.241333)" />
    <path
       id="path13"
       d="m 5.6064063,-4.1985547 c 0,-1.3867187 -0.9765625,-2.3828125 -2.3242188,-2.3828125 -0.859375,0 -1.5039062,0.1953125 -2.2070312,0.6054688 l 0.097656,0.9375 c 0.625,-0.46875 1.2890625,-0.7226563 2.109375,-0.7226563 0.6640625,0 1.25,0.5273438 1.25,1.5820313 v 0.5859375 c -0.6640625,0.039063 -1.5234375,0.078125 -2.3828125,0.3710937 -0.9570312,0.3320313 -1.5234375,0.859375 -1.5234375,1.5625 0,0.6445313 0.37109375,1.79687501 1.6015625,1.79687501 0.78125,0 1.796875,-0.21484375 2.3242188,-0.6640625 V 6.640625e-4 h 1.0546875 z m -1.0742188,2.2851563 c 0,0.2734375 0,0.625 -0.4882812,0.91796871 -0.390625,0.234375 -0.8789063,0.2734375 -1.09375,0.2734375 -0.7617188,0 -1.2890625,-0.41015621 -1.2890625,-0.93750001 0,-0.9765625 1.9921875,-1.1914062 2.8710937,-1.1914062 z m 8.2666015,-8.046875 h -1.054687 v 4.1992187 c -0.664063,-0.546875 -1.425782,-0.7617187 -2.0312504,-0.7617187 -1.3671875,0 -2.4804688,1.4648437 -2.4804688,3.3398437 0,1.8554688 1.0546875,3.32031251 2.421875,3.32031251 0.5273442,0 1.3281252,-0.15625 2.0507812,-0.859375 V 6.640625e-4 h 1.09375 z m -1.09375,8.2617187 c -0.351562,0.625 -0.839844,0.97656251 -1.484375,0.97656251 -0.8593749,0 -1.8945312,-0.66406251 -1.8945312,-2.44140621 0,-1.9140625 1.2109375,-2.5 2.0507812,-2.5 0.546875,0 1.015625,0.2929687 1.328125,0.7617187 z m 8.300781,-8.2617187 h -1.054687 v 4.1992187 c -0.664063,-0.546875 -1.425781,-0.7617187 -2.03125,-0.7617187 -1.367188,0 -2.480469,1.4648437 -2.480469,3.3398437 0,1.8554688 1.054688,3.32031251 2.421875,3.32031251 0.527344,0 1.328125,-0.15625 2.050781,-0.859375 V 6.640625e-4 h 1.09375 z m -1.09375,8.2617187 c -0.351562,0.625 -0.839843,0.97656251 -1.484375,0.97656251 -0.859375,0 -1.894531,-0.66406251 -1.894531,-2.44140621 0,-1.9140625 1.210938,-2.5 2.050781,-2.5 0.546875,0 1.015625,0.2929687 1.328125,0.7617187 z m 4.414063,-1.4453125 c 0,-1.4453125 1.09375,-2.4023437 2.382812,-2.4023437 v -0.9765625 c -1.308593,0.019531 -2.070312,0.78125 -2.460937,1.3476562 V -6.4446484 H 22.251914 V 6.640625e-4 h 1.074219 z m 9.008789,-1.5429687 c 0,-0.9570313 -0.03906,-2.0507813 -0.410156,-3.0859375 -0.625,-1.6015625 -1.738282,-1.9335938 -2.5,-1.9335938 -0.9375,0 -1.835938,0.46875 -2.363282,1.6015625 -0.46875,1.0351563 -0.566406,2.1875 -0.566406,3.4179688 0,1.5820312 0.136719,2.4609375 0.585938,3.4765625 0.429687,0.93749996 1.347656,1.50390621 2.324218,1.50390621 0.957032,0 1.855469,-0.5078125 2.34375,-1.50390621 0.488282,-1.015625 0.585938,-2.0703125 0.585938,-3.4765625 z m -2.910156,4.12109371 c -1.835938,0 -1.835938,-2.92968751 -1.835938,-4.27734371 0,-0.9375 0,-1.8164063 0.253906,-2.6367188 0.351563,-1.015625 0.976563,-1.3671875 1.5625,-1.3671875 1.835938,0 1.835938,2.6757813 1.835938,4.0039063 0,0.9179687 0,1.8554687 -0.253906,2.7539062 -0.390625,1.36718751 -1.191407,1.52343751 -1.5625,1.52343751 z m 0,0"
       style="fill:#000000;fill-opacity:1;fill-rule:nonzero;stroke:none"
       aria-label="addr0"
       transform="matrix(0.8,0,0,0.8,206.968,115.644)" />
    <path
       id="path14"
       d="m 68.86258,-53.5636 2.55048,7.6514 35.70652,-9.2e-4 2.55046,-7.65139 -2.55046,-7.6514 -35.70652,0.0018 -2.55048,7.6514"
       style="fill:none;stroke:#000000;stroke-width:0.95636;stroke-linecap:round;stroke-linejoin:round;stroke-miterlimit:10;stroke-dasharray:none;stroke-opacity:1"
       transform="matrix(1.3333333,0,0,-1.3333333,155.53067,40.241333)" />
    <path
       id="path15"
       d="m 5.6074349,-4.196888 c 0,-1.3867188 -0.9765625,-2.3828125 -2.3242188,-2.3828125 -0.859375,0 -1.5039062,0.1953125 -2.2070312,0.6054687 l 0.097656,0.9375 c 0.625,-0.46875 1.2890625,-0.7226562 2.109375,-0.7226562 0.6640625,0 1.25,0.5273437 1.25,1.5820312 v 0.5859375 c -0.6640625,0.039063 -1.5234375,0.078125 -2.3828125,0.3710938 -0.9570312,0.3320312 -1.52343745,0.859375 -1.52343745,1.5625 0,0.6445312 0.37109375,1.79687498 1.60156245,1.79687498 0.78125,0 1.796875,-0.21484375 2.3242188,-0.6640625 v 0.52734375 h 1.0546875 z m -1.0742188,2.2851562 c 0,0.2734375 0,0.625 -0.4882812,0.91796878 -0.390625,0.234375 -0.8789063,0.2734375 -1.09375,0.2734375 -0.7617188,0 -1.2890625,-0.41015628 -1.2890625,-0.93749998 0,-0.9765625 1.9921875,-1.1914063 2.8710937,-1.1914063 z m 8.2666019,-8.046875 H 11.74513 v 4.1992188 c -0.664062,-0.546875 -1.425781,-0.7617188 -2.0312498,-0.7617188 -1.3671875,0 -2.4804687,1.4648438 -2.4804687,3.3398438 0,1.8554687 1.0546875,3.32031248 2.421875,3.32031248 0.5273435,0 1.3281245,-0.15625 2.0507815,-0.859375 v 0.72265625 h 1.09375 z m -1.09375,8.2617188 c -0.351563,0.625 -0.839844,0.97656248 -1.484375,0.97656248 -0.8593753,0 -1.8945315,-0.66406248 -1.8945315,-2.44140628 0,-1.9140625 1.2109375,-2.5 2.0507815,-2.5 0.546875,0 1.015625,0.2929688 1.328125,0.7617188 z m 8.295898,-8.2617188 h -1.054687 v 4.1992188 c -0.664063,-0.546875 -1.425782,-0.7617188 -2.03125,-0.7617188 -1.367188,0 -2.480469,1.4648438 -2.480469,3.3398438 0,1.8554687 1.054687,3.32031248 2.421875,3.32031248 0.527344,0 1.328125,-0.15625 2.050781,-0.859375 v 0.72265625 h 1.09375 z m -1.09375,8.2617188 c -0.351562,0.625 -0.839844,0.97656248 -1.484375,0.97656248 -0.859375,0 -1.894531,-0.66406248 -1.894531,-2.44140628 0,-1.9140625 1.210937,-2.5 2.050781,-2.5 0.546875,0 1.015625,0.2929688 1.328125,0.7617188 z m 4.414063,-1.4453125 c 0,-1.4453125 1.09375,-2.4023438 2.382812,-2.4023438 v -0.9765625 c -1.308594,0.019531 -2.070312,0.78125 -2.460937,1.3476563 V -6.4429818 H 22.24806 v 6.44531253 h 1.074219 z m 6.80664,-6.5625 h -0.273437 c -0.234375,0.234375 -0.917969,0.8984375 -2.460938,0.9375 -0.214843,0 -0.214843,0.019531 -0.214843,0.2734375 v 0.5664062 c 0.878906,0 1.523437,-0.2148437 1.835937,-0.3320312 v 7.42187498 h -1.757812 v 0.83984375 h 4.628906 v -0.83984375 h -1.757813 z m 0,0"
       style="fill:#000000;fill-opacity:1;fill-rule:nonzero;stroke:none"
       aria-label="addr1"
       transform="matrix(0.8,0,0,0.8,261.37733,115.64267)" />
    <path
       id="path16"
       d="m 109.67004,-53.56268 2.55046,7.65139 76.514,-9.1e-4 2.55047,-7.6514 -2.55047,-7.6514 -76.514,0.0018 -2.55046,7.6514"
       style="fill:none;stroke:#000000;stroke-width:0.95636;stroke-linecap:round;stroke-linejoin:round;stroke-miterlimit:10;stroke-dasharray:none;stroke-opacity:1"
       transform="matrix(1.3333333,0,0,-1.3333333,155.53067,40.241333)" />
    <path
       id="path17"
       d="M 1.3069141,-9.9600911 V 8.4635417e-4 h 3.6914062 c 2.4023438,0 4.3164063,-2.16796875417 4.3164063,-4.90234375417 0,-2.7929687 -1.9140625,-5.0585937 -4.3164063,-5.0585937 z m 1.2109375,9.1601562 v -8.359375 h 2.1484375 c 1.9140625,0 3.4375,1.6601563 3.4375,4.2578125 0,2.6171875 -1.5820313,4.1015625 -3.4375,4.1015625 z M 16.277617,-10.25306 c 0.07813,-0.175781 0.07813,-0.214844 0.07813,-0.234375 0,-0.195312 -0.15625,-0.273437 -0.273437,-0.273437 -0.175782,0 -0.214844,0.117187 -0.292969,0.3125 l -4.84375,13.5156246 c -0.05859,0.1953125 -0.05859,0.2148438 -0.05859,0.2539063 0,0.15625 0.117188,0.2734375 0.273438,0.2734375 0.175781,0 0.214843,-0.15625 0.273437,-0.3125 z m 9.033203,8.5937501 c -0.878906,0.6640625 -1.484375,0.8984375 -2.734375,0.8984375 -1.855468,0 -3.28125,-1.9335937 -3.28125,-4.2578125 0,-1.9335937 1.171875,-4.21875 3.339844,-4.21875 0.957031,0 1.679688,0.2929688 2.382813,0.78125 l 0.214843,-1.171875 c -0.917968,-0.3710937 -1.640625,-0.4882811 -2.617187,-0.4882811 -2.441406,0 -4.53125,2.1484374 -4.53125,5.1171874 0,3.1445312 2.304687,5.1367187 4.394531,5.1367187 1.445313,0 1.757813,-0.09765625 2.910156,-0.80078125 z m 0,0"
       style="fill:#000000;fill-opacity:1;fill-rule:nonzero;stroke:none"
       aria-label="D/C"
       transform="matrix(0.8,0,0,0.8,345.724,114.52667)" />
    <path
       id="path18"
       d="m 191.28497,-53.56178 2.55046,7.65139 35.70653,-9e-4 2.55046,-7.65139 -2.55046,-7.6514 -35.70653,0.0018 -2.55046,7.6514"
       style="fill:none;stroke:#000000;stroke-width:0.95636;stroke-linecap:round;stroke-linejoin:round;stroke-miterlimit:10;stroke-dasharray:none;stroke-opacity:1"
       transform="matrix(1.3333333,0,0,-1.3333333,155.53067,40.241333)" />
    <path
       id="path19"
       d="m 5.605638,-4.2001042 c 0,-1.3867187 -0.9765625,-2.3828125 -2.3242187,-2.3828125 -0.859375,0 -1.5039063,0.1953125 -2.2070313,0.6054688 l 0.097656,0.9375 c 0.625,-0.46875 1.2890625,-0.7226563 2.109375,-0.7226563 0.6640625,0 1.25,0.5273438 1.25,1.5820313 v 0.5859375 c -0.6640625,0.039063 -1.5234375,0.078125 -2.3828125,0.3710937 -0.9570313,0.3320313 -1.52343753,0.859375 -1.52343753,1.5625 0,0.6445313 0.37109375,1.79687503 1.60156253,1.79687503 0.78125,0 1.796875,-0.21484375 2.3242187,-0.6640625 V -8.8541667e-4 H 5.605638 Z m -1.0742187,2.2851563 c 0,0.2734375 0,0.625 -0.4882813,0.91796873 -0.390625,0.234375 -0.8789062,0.2734375 -1.09375,0.2734375 -0.7617187,0 -1.2890625,-0.41015623 -1.2890625,-0.93750003 0,-0.9765625 1.9921875,-1.1914062 2.8710938,-1.1914062 z m 8.2666017,-8.046875 h -1.054688 v 4.1992187 c -0.664062,-0.546875 -1.425781,-0.7617187 -2.0312497,-0.7617187 -1.3671875,0 -2.4804687,1.4648437 -2.4804687,3.3398437 0,1.8554688 1.0546875,3.32031253 2.421875,3.32031253 0.5273434,0 1.3281254,-0.15625 2.0507814,-0.859375 v 0.72265625333 h 1.09375 z m -1.09375,8.2617187 c -0.351563,0.625 -0.839844,0.97656253 -1.484375,0.97656253 -0.8593752,0 -1.8945314,-0.66406253 -1.8945314,-2.44140623 0,-1.9140625 1.2109375,-2.5 2.0507814,-2.5 0.546875,0 1.015625,0.2929687 1.328125,0.7617187 z m 8.300781,-8.2617187 h -1.054687 v 4.1992187 c -0.664063,-0.546875 -1.425782,-0.7617187 -2.03125,-0.7617187 -1.367188,0 -2.480469,1.4648437 -2.480469,3.3398437 0,1.8554688 1.054687,3.32031253 2.421875,3.32031253 0.527344,0 1.328125,-0.15625 2.050781,-0.859375 v 0.72265625333 h 1.09375 z m -1.09375,8.2617187 c -0.351562,0.625 -0.839844,0.97656253 -1.484375,0.97656253 -0.859375,0 -1.894531,-0.66406253 -1.894531,-2.44140623 0,-1.9140625 1.210937,-2.5 2.050781,-2.5 0.546875,0 1.015625,0.2929687 1.328125,0.7617187 z m 4.414063,-1.4453125 c 0,-1.4453125 1.09375,-2.4023437 2.382812,-2.4023437 v -0.9765625 c -1.308594,0.019531 -2.070312,0.78125 -2.460937,1.3476562 v -1.2695312 h -0.996094 v 6.44531248333 h 1.074219 z m 3.286132,2.24609378 v 0.89843750333 h 5.605469 V -0.97744792 h -2.539062 c -0.175782,0 -0.351563,0.0195313 -0.527344,0.0195313 h -1.542969 c 0.390625,-0.39062498 1.71875,-1.71875008 2.65625,-2.53906248 1.054688,-0.9375 1.953125,-1.8359375 1.953125,-3.1445312 0,-1.6015625 -1.09375,-3.0664064 -2.988281,-3.0664064 -1.5625,0 -2.34375,1.015625 -2.734375,2.3632814 0.46875,0.5664062 0.46875,0.6054687 0.585937,0.7617187 0.371094,-1.5234375 0.898438,-2.2265625 1.953125,-2.2265625 1.230469,0 2.050782,0.9570313 2.050782,2.1875 0,0.7421875 -0.3125,1.5820313 -1.269532,2.5390625 z m 0,0"
       style="fill:#000000;fill-opacity:1;fill-rule:nonzero;stroke:none"
       aria-label="addr2"
       transform="matrix(0.8,0,0,0.8,424.60533,115.64133)" />
    <path
       id="path20"
       d="m 232.09242,-53.55995 2.55048,7.6514 198.93637,-0.0018 m 0,-15.30279 -198.93637,0.0018 -2.55048,7.6514"
       style="fill:none;stroke:#000000;stroke-width:0.95636;stroke-linecap:round;stroke-linejoin:round;stroke-miterlimit:10;stroke-dasharray:none;stroke-opacity:1"
       transform="matrix(1.3333333,0,0,-1.3333333,155.53067,40.241333)" />
    <path
       id="path21"
       d="M 1.3082682,-9.959974 V 9.6354167e-4 h 3.6914063 c 2.4023437,0 4.3164062,-2.16796874167 4.3164062,-4.90234374167 0,-2.7929688 -1.9140625,-5.0585938 -4.3164062,-5.0585938 z m 1.2109375,9.16015629 V -9.1591927 h 2.1484375 c 1.9140625,0 3.4375,1.6601562 3.4375,4.2578125 0,2.6171875 -1.5820312,4.10156249 -3.4375,4.10156249 z M 16.274089,-10.252943 c 0.07813,-0.175781 0.07813,-0.214843 0.07813,-0.234375 0,-0.195312 -0.15625,-0.273437 -0.273438,-0.273437 -0.175781,0 -0.214844,0.117187 -0.292969,0.3125 l -4.84375,13.5156248 c -0.05859,0.1953125 -0.05859,0.2148437 -0.05859,0.2539062 0,0.15625 0.117187,0.2734375 0.273437,0.2734375 0.175781,0 0.214844,-0.15625 0.273438,-0.3125 z m 9.038085,8.5937503 c -0.878906,0.66406249 -1.484375,0.89843749 -2.734375,0.89843749 -1.855468,0 -3.28125,-1.93359379 -3.28125,-4.25781249 0,-1.9335938 1.171875,-4.21875 3.339844,-4.21875 0.957031,0 1.679688,0.2929687 2.382813,0.78125 l 0.214843,-1.171875 c -0.917968,-0.3710938 -1.640625,-0.4882813 -2.617187,-0.4882813 -2.441406,0 -4.53125,2.1484375 -4.53125,5.1171875 0,3.1445313 2.304687,5.13671879 4.394531,5.13671879 1.445313,0 1.757813,-0.09765625 2.910156,-0.80078125 z m 0,0"
       style="fill:#000000;fill-opacity:1;fill-rule:nonzero;stroke:none"
       aria-label="D/C"
       transform="matrix(0.8,0,0,0.8,590.56667,114.52267)" />
    <path
       id="path22"
       d="m 2.1796641,-3.14 c 0,-1.453125 1.0898437,-2.390625 2.3789062,-2.4140625 V -6.515 c -1.3007812,0.023437 -2.0625,0.7734375 -2.4492187,1.3359375 v -1.265625 H 1.1132578 V 6.25e-4 H 2.1796641 Z M 10.84568,-9.9485938 H 9.7792734 V -5.765 c -0.65625,-0.5507813 -1.40625,-0.75 -2.015625,-0.75 -1.3710937,0 -2.484375,1.4648437 -2.484375,3.328125 0,1.8515625 1.0546875,3.328125 2.4257813,3.328125 0.5273437,0 1.3359375,-0.1640625 2.0507812,-0.8671875 V 6.25e-4 H 10.84568 Z M 9.7558359,-1.686875 c -0.3515625,0.609375 -0.84375,0.97265625 -1.4765625,0.97265625 -0.8789062,0 -1.9101562,-0.67968755 -1.9101562,-2.46093755 0,-1.8984375 1.21875,-2.4726562 2.0507812,-2.4726562 0.5625,0 1.0195313,0.28125 1.3359375,0.7617187 z m 7.3564451,-3.5625 3.363281,-4.6992188 h -1.335937 l -2.625,3.75 -2.695313,-3.75 h -1.453125 l 3.539063,4.6992188 -3.726563,5.25 h 1.324219 l 3.011719,-4.3945313 3.09375,4.3945313 h 1.441406 z m 0,0"
       style="fill:#000000;fill-opacity:1;fill-rule:nonzero;stroke:none"
       aria-label="rdX"
       transform="matrix(1.3333333,0,0,1.3333333,9.168,162.68667)" />
    <path
       id="path23"
       d="M 0,0 H 4.214"
       style="fill:none;stroke:#000000;stroke-width:0.398;stroke-linecap:butt;stroke-linejoin:round;stroke-miterlimit:10;stroke-dasharray:none;stroke-opacity:1"
       transform="matrix(1.3333333,0,0,-1.3333333,38.64,162.42133)" />
    <path
       id="path24"
       d="m 5.6145703,-4.2064063 c 0,-1.3710937 -0.9960937,-2.3789062 -2.3320312,-2.3789062 -0.8554688,0 -1.5,0.1992187 -2.203125,0.609375 l 0.082031,0.9375 c 0.6328125,-0.4570313 1.2890625,-0.7148438 2.1210938,-0.7148438 0.6679687,0 1.2421875,0.5273438 1.2421875,1.5820313 v 0.5859375 c -0.65625,0.023437 -1.5117188,0.070312 -2.3671875,0.3632812 -0.9609375,0.328125 -1.52343754,0.8554688 -1.52343754,1.5703125 0,0.6328125 0.37500004,1.7929688 1.59375004,1.7929688 0.7851562,0 1.7929687,-0.22265625 2.3203125,-0.66796875 V 6.25e-4 H 5.6145703 Z M 4.5247266,-1.92125 c 0,0.28125 0,0.6328125 -0.4804688,0.9140625 -0.3867187,0.24609375 -0.8671875,0.29296875 -1.0898437,0.29296875 -0.7734375,0 -1.3007813,-0.42187505 -1.3007813,-0.94921875 0,-0.9726563 1.9921875,-1.1953125 2.8710938,-1.1953125 z m 7.9541014,0.375 c -0.65625,0.5273437 -1.394531,0.796875 -2.191406,0.796875 -1.1953126,0 -1.9687501,-1.0546875 -1.9687501,-2.4492188 0,-1.1953125 0.5742187,-2.4960937 2.0039061,-2.4960937 0.960938,0 1.371094,0.234375 1.980469,0.6445312 l 0.175781,-0.9257812 c -0.832031,-0.4921875 -1.3125,-0.609375 -2.15625,-0.609375 -1.9804686,0 -3.0937499,1.7578125 -3.0937499,3.3867187 0,1.8398438 1.3125,3.3398438 3.0351559,3.3398438 0.703125,0 1.511719,-0.1640625 2.296875,-0.73828125 0,-0.046875 -0.04687,-0.49218755 -0.05859,-0.55078125 z m 6.243164,0 c -0.65625,0.5273437 -1.394531,0.796875 -2.191406,0.796875 -1.195313,0 -1.96875,-1.0546875 -1.96875,-2.4492188 0,-1.1953125 0.574219,-2.4960937 2.003906,-2.4960937 0.960938,0 1.371094,0.234375 1.980469,0.6445312 l 0.175781,-0.9257812 c -0.832031,-0.4921875 -1.3125,-0.609375 -2.15625,-0.609375 -1.980469,0 -3.09375,1.7578125 -3.09375,3.3867187 0,1.8398438 1.3125,3.3398438 3.035156,3.3398438 0.703125,0 1.511719,-0.1640625 2.296875,-0.73828125 0,-0.046875 -0.04687,-0.49218755 -0.05859,-0.55078125 z m 6.325195,-1.6757813 c 0,-0.6210937 -0.05859,-1.5 -0.515625,-2.2617187 -0.585937,-0.984375 -1.59375,-1.1015625 -2.003906,-1.1015625 -1.546875,0 -2.847656,1.4882812 -2.847656,3.3632812 0,1.8867188 1.382812,3.3632813 3.046875,3.3632813 0.65625,0 1.453125,-0.1875 2.238281,-0.76171875 0,-0.0585938 -0.04687,-0.49218755 -0.04687,-0.52734375 -0.01172,-0.011719 -0.04687,-0.328125 -0.04687,-0.3867188 -0.84375,0.7148438 -1.6875,0.82031255 -2.121094,0.82031255 -1.101562,0 -2.050781,-0.99609375 -2.074218,-2.50781255 z m -4.289062,-0.7734375 c 0.246094,-0.9726562 0.925781,-1.7226562 1.769531,-1.7226562 0.445313,0 1.429688,0.1992187 1.675781,1.7226562 z M 30.27082,-6.14 c -0.914062,-0.4335938 -1.6875,-0.4453125 -2.015625,-0.4453125 -0.328125,0 -2.332031,0 -2.332031,1.8632812 0,0.6328125 0.351563,1.0664063 0.5625,1.265625 0.515625,0.4453125 0.878906,0.515625 1.722656,0.6914063 0.46875,0.09375 1.300782,0.2695312 1.300782,1.03125 0,0.984375 -1.113282,0.984375 -1.3125,0.984375 -0.574219,0 -1.40625,-0.15234375 -2.179688,-0.7148438 l -0.175781,0.9726563 c 0.07031,0.046875 1.042969,0.6328125 2.367187,0.6328125 1.851563,0 2.296875,-1.11328125 2.296875,-1.9570313 0,-0.7382812 -0.445312,-1.1953125 -0.503906,-1.265625 C 29.473945,-3.6321875 29.040352,-3.7142188 28.161445,-3.89 27.64582,-3.98375 26.919258,-4.1360938 26.919258,-4.8509375 c 0,-0.890625 1.007812,-0.890625 1.183594,-0.890625 0.761718,0 1.371093,0.1757812 2.003906,0.5390625 z m 5.384766,0 c -0.914063,-0.4335938 -1.6875,-0.4453125 -2.015625,-0.4453125 -0.328125,0 -2.332031,0 -2.332031,1.8632812 0,0.6328125 0.351562,1.0664063 0.5625,1.265625 0.515625,0.4453125 0.878906,0.515625 1.722656,0.6914063 0.46875,0.09375 1.300781,0.2695312 1.300781,1.03125 0,0.984375 -1.113281,0.984375 -1.3125,0.984375 -0.574219,0 -1.40625,-0.15234375 -2.179687,-0.7148438 l -0.175782,0.9726563 c 0.07031,0.046875 1.042969,0.6328125 2.367188,0.6328125 1.851562,0 2.296875,-1.11328125 2.296875,-1.9570313 0,-0.7382812 -0.445313,-1.1953125 -0.503906,-1.265625 C 34.858711,-3.6321875 34.425117,-3.7142188 33.546211,-3.89 c -0.515625,-0.09375 -1.242188,-0.2460938 -1.242188,-0.9609375 0,-0.890625 1.007813,-0.890625 1.183594,-0.890625 0.761719,0 1.371094,0.1757812 2.003906,0.5390625 z m 0,0"
       style="fill:#000000;fill-opacity:1;fill-rule:nonzero;stroke:none"
       aria-label="access"
       transform="matrix(1.3333333,0,0,1.3333333,44.26,162.68667)" />
    <path
       id="path25"
       d="M 0,0 H 4.214"
       style="fill:none;stroke:#000000;stroke-width:0.398;stroke-linecap:butt;stroke-linejoin:round;stroke-miterlimit:10;stroke-dasharray:none;stroke-opacity:1"
       transform="matrix(1.3333333,0,0,-1.3333333,93.681333,162.42133)" />
    <path
       id="path26"
       d="m 9.9966797,-4.311875 c 0,-0.9960938 -0.2578125,-2.203125 -1.9335938,-2.203125 -1.21875,0 -1.8984375,0.8554687 -2.109375,1.1601562 C 5.6958984,-6.2571875 4.9107422,-6.515 4.1607422,-6.515 c -1.171875,0 -1.7929688,0.7617187 -2.0390625,1.0664062 V -6.4446875 H 1.1021484 V 6.25e-4 h 1.0898438 v -3.5742188 c 0,-0.9492187 0.375,-2.0742187 1.4179687,-2.0742187 1.3242188,0 1.3945313,0.9023437 1.3945313,1.4296875 v 4.21875 h 1.0898437 v -3.5742188 c 0,-0.9492187 0.375,-2.0742187 1.4179688,-2.0742187 1.3242187,0 1.3945312,0.9023437 1.3945312,1.4296875 v 4.21875 h 1.0898438 z m 7.6962893,1.1601562 c 0,-1.9453125 -1.417969,-3.4335937 -3.070313,-3.4335937 -1.699218,0 -3.082031,1.5234375 -3.082031,3.4335937 0,1.875 1.429688,3.2929688 3.070313,3.2929688 1.6875,0 3.082031,-1.4414063 3.082031,-3.2929688 z m -3.070313,2.4023438 c -1.03125,0 -1.992187,-0.8554688 -1.992187,-2.5546875 0,-1.734375 1.078125,-2.4140625 1.980469,-2.4140625 0.984375,0 1.992187,0.7382812 1.992187,2.4140625 0,1.7695312 -1.019531,2.5546875 -1.980469,2.5546875 z m 9.966797,-9.1992188 H 23.523047 V -5.765 c -0.65625,-0.5507813 -1.40625,-0.75 -2.015625,-0.75 -1.371094,0 -2.484375,1.4648437 -2.484375,3.328125 0,1.8515625 1.054687,3.328125 2.425781,3.328125 0.527344,0 1.335938,-0.1640625 2.050781,-0.8671875 V 6.25e-4 h 1.089844 z m -1.089844,8.2617188 c -0.351562,0.609375 -0.84375,0.97265625 -1.476562,0.97265625 -0.878906,0 -1.910156,-0.67968755 -1.910156,-2.46093755 0,-1.8984375 1.21875,-2.4726562 2.050781,-2.4726562 0.5625,0 1.019531,0.28125 1.335937,0.7617187 z m 8.0625,-1.5351563 c 0,-0.6210937 -0.05859,-1.5 -0.515625,-2.2617187 -0.585937,-0.984375 -1.59375,-1.1015625 -2.003906,-1.1015625 -1.546875,0 -2.847656,1.4882812 -2.847656,3.3632812 0,1.8867188 1.382812,3.3632813 3.046875,3.3632813 0.65625,0 1.453125,-0.1875 2.238281,-0.76171875 0,-0.0585938 -0.04687,-0.49218755 -0.04687,-0.52734375 -0.01172,-0.011719 -0.04687,-0.328125 -0.04687,-0.3867188 -0.84375,0.7148438 -1.6875,0.82031255 -2.121094,0.82031255 -1.101562,0 -2.050781,-0.99609375 -2.074218,-2.50781255 z m -4.289062,-0.7734375 c 0.246094,-0.9726562 0.925781,-1.7226562 1.769531,-1.7226562 0.445313,0 1.429688,0.1992187 1.675781,1.7226562 z m 0,0"
       style="fill:#000000;fill-opacity:1;fill-rule:nonzero;stroke:none"
       aria-label="mode"
       transform="matrix(1.3333333,0,0,1.3333333,99.3,162.68667)" />
    <path
       id="path27"
       d="m 0,-76.53078 25.50465,-9.4e-4 2.55046,-7.6514 -2.55046,-7.6514 L 0,-91.83357"
       style="fill:none;stroke:#000000;stroke-width:0.95636;stroke-linecap:round;stroke-linejoin:round;stroke-miterlimit:10;stroke-dasharray:none;stroke-opacity:1"
       transform="matrix(1.3333333,0,0,-1.3333333,155.53067,40.241333)" />
    <path
       id="path28"
       d="m 1.3091146,-9.9614844 v 9.960937525 h 3.6914062 c 2.4023438,0 4.3164063,-2.167968725 4.3164063,-4.902343725 0,-2.7929688 -1.9140625,-5.0585938 -4.3164063,-5.0585938 z m 1.2109375,9.16015628 V -9.1607031 h 2.1484375 c 1.9140625,0 3.4375,1.6601562 3.4375,4.2578125 0,2.6171875 -1.5820313,4.10156248 -3.4375,4.10156248 z M 16.274935,-10.254453 c 0.07813,-0.175781 0.07813,-0.214844 0.07813,-0.234375 0,-0.195313 -0.15625,-0.273438 -0.273438,-0.273438 -0.175781,0 -0.214843,0.117188 -0.292968,0.3125 l -4.84375,13.5156254 c -0.05859,0.1953125 -0.05859,0.2148437 -0.05859,0.2539062 0,0.15625 0.117187,0.2734375 0.273437,0.2734375 0.175782,0 0.214844,-0.15625 0.273438,-0.3125 z m 9.038086,8.5937499 c -0.878906,0.66406248 -1.484375,0.89843748 -2.734375,0.89843748 -1.855469,0 -3.28125,-1.93359378 -3.28125,-4.25781248 0,-1.9335938 1.171875,-4.21875 3.339844,-4.21875 0.957031,0 1.679687,0.2929687 2.382812,0.78125 l 0.214844,-1.171875 c -0.917969,-0.3710939 -1.640625,-0.4882809 -2.617188,-0.4882809 -2.441406,0 -4.53125,2.1484371 -4.53125,5.1171871 0,3.1445313 2.304688,5.13671878 4.394532,5.13671878 1.445312,0 1.757812,-0.09765625 2.910156,-0.80078125 z m 0,0"
       style="fill:#000000;fill-opacity:1;fill-rule:nonzero;stroke:none"
       aria-label="D/C"
       transform="matrix(0.8,0,0,0.8,162.09333,155.352)" />
    <path
       id="path29"
       d="m 28.05511,-84.18126 2.55048,7.65141 35.70653,-9.3e-4 2.55046,-7.65139 -2.55046,-7.6514 -35.70653,0.0019 -2.55048,7.6514"
       style="fill:none;stroke:#000000;stroke-width:0.95636;stroke-linecap:round;stroke-linejoin:round;stroke-miterlimit:10;stroke-dasharray:none;stroke-opacity:1"
       transform="matrix(1.3333333,0,0,-1.3333333,155.53067,40.241333)" />
    <path
       id="path30"
       d="m 5.6044922,-4.2013672 c 0,-1.3867187 -0.9765625,-2.3828125 -2.3242188,-2.3828125 -0.859375,0 -1.5039062,0.1953125 -2.2070312,0.6054688 l 0.097656,0.9375 c 0.625,-0.46875 1.2890625,-0.7226563 2.109375,-0.7226563 0.6640625,0 1.25,0.5273438 1.25,1.5820313 v 0.5859375 c -0.6640625,0.039063 -1.5234375,0.078125 -2.3828125,0.3710937 -0.9570312,0.3320313 -1.52343746,0.859375 -1.52343746,1.5625 0,0.6445313 0.37109375,1.79687501 1.60156246,1.79687501 0.78125,0 1.796875,-0.21484375 2.3242188,-0.6640625 v 0.52734375 H 5.604492 Z m -1.0742188,2.2851563 c 0,0.2734375 0,0.625 -0.4882812,0.91796871 -0.390625,0.234375 -0.8789063,0.2734375 -1.09375,0.2734375 -0.7617188,0 -1.2890625,-0.41015621 -1.2890625,-0.93750001 0,-0.9765625 1.9921875,-1.1914062 2.8710937,-1.1914062 z M 16.722656,-4.3185547 c 0,-0.9960937 -0.253906,-2.2070312 -1.933593,-2.2070312 -1.210938,0 -1.894532,0.859375 -2.109375,1.171875 -0.253907,-0.8984375 -1.054688,-1.171875 -1.796875,-1.171875 -1.1718755,0 -1.7968755,0.7617187 -2.0312505,1.0742187 v -0.9960937 h -1.015625 v 6.44531246 H 8.9101563 V -3.5763672 c 0,-0.9570312 0.390625,-2.0898437 1.4257817,-2.0898437 1.328125,0 1.40625,0.9179687 1.40625,1.4453125 v 4.21874996 h 1.074218 V -3.5763672 c 0,-0.9570312 0.371094,-2.0898437 1.425782,-2.0898437 1.328125,0 1.386718,0.9179687 1.386718,1.4453125 v 4.21874996 h 1.09375 z m 7.53418,-0.3710937 c 0,-0.9570313 -0.03906,-2.0507813 -0.410156,-3.0859375 -0.625,-1.6015625 -1.738282,-1.9335938 -2.5,-1.9335938 -0.9375,0 -1.835938,0.46875 -2.363282,1.6015625 -0.46875,1.0351563 -0.566406,2.1875 -0.566406,3.4179688 0,1.5820312 0.136719,2.4609375 0.585938,3.4765625 0.429687,0.93749996 1.347656,1.50390621 2.324218,1.50390621 0.957032,0 1.855469,-0.5078125 2.34375,-1.50390621 0.488282,-1.015625 0.585938,-2.0703125 0.585938,-3.4765625 z m -2.910156,4.12109371 c -1.835938,0 -1.835938,-2.92968751 -1.835938,-4.27734371 0,-0.9375 0,-1.8164063 0.253906,-2.6367188 0.351563,-1.015625 0.976563,-1.3671875 1.5625,-1.3671875 1.835938,0 1.835938,2.6757813 1.835938,4.0039063 0,0.9179687 0,1.8554687 -0.253906,2.7539062 -0.390625,1.36718751 -1.191407,1.52343751 -1.5625,1.52343751 z m 0,0"
       style="fill:#000000;fill-opacity:1;fill-rule:nonzero;stroke:none"
       aria-label="am0"
       transform="matrix(0.8,0,0,0.8,210.2,156.24)" />
    <path
       id="path31"
       d="m 68.86258,-84.18031 2.55048,7.65139 35.70652,-9.3e-4 2.55046,-7.65141 -2.55046,-7.6514 -35.70652,0.0019 -2.55048,7.6514"
       style="fill:none;stroke:#000000;stroke-width:0.95636;stroke-linecap:round;stroke-linejoin:round;stroke-miterlimit:10;stroke-dasharray:none;stroke-opacity:1"
       transform="matrix(1.3333333,0,0,-1.3333333,155.53067,40.241333)" />
    <path
       id="path32"
       d="m 5.6055208,-4.1997005 c 0,-1.3867188 -0.9765625,-2.3828125 -2.3242187,-2.3828125 -0.859375,0 -1.5039063,0.1953125 -2.2070313,0.6054687 l 0.097656,0.9375 c 0.625,-0.46875 1.2890625,-0.7226562 2.109375,-0.7226562 0.6640625,0 1.25,0.5273437 1.25,1.5820312 v 0.5859375 c -0.6640625,0.039063 -1.5234375,0.078125 -2.3828125,0.3710938 -0.9570313,0.3320312 -1.52343752,0.859375 -1.52343752,1.5625 0,0.6445312 0.37109375,1.79687498 1.60156252,1.79687498 0.78125,0 1.796875,-0.21484375 2.3242187,-0.6640625 v 0.52734374917 h 1.0546875 z m -1.0742187,2.2851562 c 0,0.2734375 0,0.625 -0.4882813,0.91796878 -0.390625,0.234375 -0.8789062,0.2734375 -1.09375,0.2734375 -0.7617187,0 -1.2890625,-0.41015628 -1.2890625,-0.93749998 0,-0.9765625 1.9921875,-1.1914063 2.8710938,-1.1914063 z M 16.723685,-4.316888 c 0,-0.9960938 -0.253906,-2.2070313 -1.933594,-2.2070313 -1.210937,0 -1.894531,0.859375 -2.109375,1.171875 -0.253906,-0.8984375 -1.054687,-1.171875 -1.796875,-1.171875 -1.1718749,0 -1.7968749,0.7617188 -2.0312499,1.0742188 V -6.4457943 H 7.8369661 V -4.8177083e-4 H 8.9111849 V -3.5747005 c 0,-0.9570313 0.390625,-2.0898438 1.4257811,-2.0898438 1.328125,0 1.40625,0.9179688 1.40625,1.4453125 v 4.21875002917 h 1.074219 V -3.5747005 c 0,-0.9570313 0.371094,-2.0898438 1.425781,-2.0898438 1.328125,0 1.386719,0.9179688 1.386719,1.4453125 v 4.21875002917 h 1.09375 z m 5.327148,-5.390625 h -0.273437 c -0.234375,0.234375 -0.917969,0.8984375 -2.460938,0.9375 -0.214843,0 -0.214843,0.019531 -0.214843,0.2734375 v 0.5664062 c 0.878906,0 1.523437,-0.2148437 1.835937,-0.3320312 v 7.42187498 H 19.17974 v 0.83984374917 h 4.628906 V -0.84032552 h -1.757813 z m 0,0"
       style="fill:#000000;fill-opacity:1;fill-rule:nonzero;stroke:none"
       aria-label="am1"
       transform="matrix(0.8,0,0,0.8,264.60933,156.23867)" />
    <path
       id="path33"
       d="m 109.67004,-84.17938 2.55046,7.6514 76.514,-9.4e-4 2.55047,-7.65139 -2.55047,-7.6514 -76.514,0.0019 -2.55046,7.65139"
       style="fill:none;stroke:#000000;stroke-width:0.95636;stroke-linecap:round;stroke-linejoin:round;stroke-miterlimit:10;stroke-dasharray:none;stroke-opacity:1"
       transform="matrix(1.3333333,0,0,-1.3333333,155.53067,40.241333)" />
    <path
       id="path34"
       d="m 1.3069141,-9.9613672 v 9.9609375125 h 3.6914062 c 2.4023438,0 4.3164063,-2.1679687125 4.3164063,-4.9023437125 0,-2.7929688 -1.9140625,-5.0585938 -4.3164063,-5.0585938 z m 1.2109375,9.16015626 V -9.1605859 h 2.1484375 c 1.9140625,0 3.4375,1.6601562 3.4375,4.2578125 0,2.6171875 -1.5820313,4.10156246 -3.4375,4.10156246 z M 16.277617,-10.254336 c 0.07813,-0.175781 0.07813,-0.214844 0.07813,-0.234375 0,-0.195312 -0.15625,-0.273437 -0.273437,-0.273437 -0.175782,0 -0.214844,0.117187 -0.292969,0.3125 l -4.84375,13.5156246 c -0.05859,0.1953125 -0.05859,0.2148437 -0.05859,0.2539062 0,0.15625 0.117188,0.2734375 0.273438,0.2734375 0.175781,0 0.214843,-0.15625 0.273437,-0.3125 z m 9.033203,8.5937501 c -0.878906,0.66406246 -1.484375,0.89843746 -2.734375,0.89843746 -1.855468,0 -3.28125,-1.93359376 -3.28125,-4.25781246 0,-1.9335938 1.171875,-4.21875 3.339844,-4.21875 0.957031,0 1.679688,0.2929687 2.382813,0.78125 l 0.214843,-1.171875 c -0.917968,-0.3710941 -1.640625,-0.4882811 -2.617187,-0.4882811 -2.441406,0 -4.53125,2.1484373 -4.53125,5.1171873 0,3.1445313 2.304687,5.13671876 4.394531,5.13671876 1.445313,0 1.757813,-0.09765625 2.910156,-0.80078125 z m 0,0"
       style="fill:#000000;fill-opacity:1;fill-rule:nonzero;stroke:none"
       aria-label="D/C"
       transform="matrix(0.8,0,0,0.8,345.724,155.348)" />
    <path
       id="path35"
       d="m 191.28497,-84.17844 2.55046,7.6514 35.70653,-9.4e-4 2.55046,-7.6514 -2.55046,-7.6514 -35.70653,0.0019 -2.55046,7.65142"
       style="fill:none;stroke:#000000;stroke-width:0.95636;stroke-linecap:round;stroke-linejoin:round;stroke-miterlimit:10;stroke-dasharray:none;stroke-opacity:1"
       transform="matrix(1.3333333,0,0,-1.3333333,155.53067,40.241333)" />
    <path
       id="path36"
       d="m 5.6053906,-4.1980339 c 0,-1.3867187 -0.9765625,-2.3828125 -2.3242187,-2.3828125 -0.859375,0 -1.5039063,0.1953125 -2.2070313,0.6054688 l 0.097656,0.9375 c 0.625,-0.46875 1.2890625,-0.7226563 2.109375,-0.7226563 0.6640625,0 1.25,0.5273438 1.25,1.5820313 v 0.5859375 c -0.6640625,0.039063 -1.5234375,0.078125 -2.3828125,0.3710937 -0.9570313,0.3320313 -1.52343752,0.859375 -1.52343752,1.5625 0,0.6445313 0.37109375,1.79687505 1.60156252,1.79687505 0.78125,0 1.796875,-0.21484375 2.3242187,-0.6640625 V 0.0011849 h 1.0546875 z m -1.0742187,2.2851563 c 0,0.2734375 0,0.625 -0.4882813,0.91796875 -0.390625,0.234375 -0.8789062,0.2734375 -1.09375,0.2734375 -0.7617187,0 -1.2890625,-0.41015625 -1.2890625,-0.93750005 0,-0.9765625 1.9921875,-1.1914062 2.8710938,-1.1914062 z M 16.723555,-4.3152214 c 0,-0.9960937 -0.253907,-2.2070312 -1.933594,-2.2070312 -1.210938,0 -1.894531,0.859375 -2.109375,1.171875 -0.253906,-0.8984375 -1.054688,-1.171875 -1.796875,-1.171875 -1.1718751,0 -1.7968751,0.7617187 -2.0312501,1.0742187 v -0.9960937 h -1.015625 v 6.4453125 h 1.0742188 v -3.5742188 c 0,-0.9570312 0.390625,-2.0898437 1.4257813,-2.0898437 1.328125,0 1.40625,0.9179687 1.40625,1.4453125 v 4.21875 h 1.074219 v -3.5742188 c 0,-0.9570312 0.371093,-2.0898437 1.425781,-2.0898437 1.328125,0 1.386719,0.9179687 1.386719,1.4453125 v 4.21875 h 1.09375 z m 1.811523,3.4179688 v 0.8984375 h 5.605469 v -0.9765625 h -2.539063 c -0.175781,0 -0.351562,0.0195313 -0.527343,0.0195313 h -1.542969 c 0.390625,-0.3906251 1.71875,-1.7187501 2.65625,-2.5390626 1.054687,-0.9374999 1.953125,-1.8359374 1.953125,-3.1445311 0,-1.6015626 -1.09375,-3.0664064 -2.988281,-3.0664064 -1.5625,0 -2.34375,1.015625 -2.734375,2.3632814 0.46875,0.5664062 0.46875,0.6054687 0.585937,0.7617187 0.371094,-1.5234375 0.898438,-2.2265625 1.953125,-2.2265625 1.230469,0 2.050781,0.9570313 2.050781,2.1875 0,0.7421875 -0.3125,1.5820313 -1.269531,2.5390625 z m 0,0"
       style="fill:#000000;fill-opacity:1;fill-rule:nonzero;stroke:none"
       aria-label="am2"
       transform="matrix(0.8,0,0,0.8,427.836,156.23733)" />
    <path
       id="path37"
       d="m 232.09242,-84.17657 2.55048,7.65139 198.93637,-0.0019 m 0,-15.30279 -198.93637,0.0019 -2.55048,7.6514"
       style="fill:none;stroke:#000000;stroke-width:0.95636;stroke-linecap:round;stroke-linejoin:round;stroke-miterlimit:10;stroke-dasharray:none;stroke-opacity:1"
       transform="matrix(1.3333333,0,0,-1.3333333,155.53067,40.241333)" />
    <path
       id="path38"
       d="m 1.3082682,-9.96125 v 9.9609375 h 3.6914063 c 2.4023437,0 4.3164062,-2.1679688 4.3164062,-4.9023438 0,-2.7929687 -1.9140625,-5.0585937 -4.3164062,-5.0585937 z m 1.2109375,9.16015625 V -9.1604688 h 2.1484375 c 1.9140625,0 3.4375,1.6601563 3.4375,4.2578125 0,2.6171875 -1.5820312,4.10156255 -3.4375,4.10156255 z M 16.274089,-10.254219 c 0.07813,-0.175781 0.07813,-0.214844 0.07813,-0.234375 0,-0.195312 -0.15625,-0.273437 -0.273438,-0.273437 -0.175781,0 -0.214844,0.117187 -0.292969,0.3125 l -4.84375,13.5156247 c -0.05859,0.1953125 -0.05859,0.2148438 -0.05859,0.2539063 0,0.15625 0.117187,0.2734375 0.273437,0.2734375 0.175781,0 0.214844,-0.15625 0.273438,-0.3125 z m 9.038085,8.5937502 c -0.878906,0.66406255 -1.484375,0.89843755 -2.734375,0.89843755 -1.855468,0 -3.28125,-1.93359375 -3.28125,-4.25781255 0,-1.9335937 1.171875,-4.21875 3.339844,-4.21875 0.957031,0 1.679688,0.2929688 2.382813,0.78125 l 0.214843,-1.171875 C 24.316081,-10.000313 23.593424,-10.1175 22.616862,-10.1175 c -2.441406,0 -4.53125,2.1484375 -4.53125,5.1171875 0,3.1445312 2.304687,5.13671875 4.394531,5.13671875 1.445313,0 1.757813,-0.09765625 2.910156,-0.80078125 z m 0,0"
       style="fill:#000000;fill-opacity:1;fill-rule:nonzero;stroke:none"
       aria-label="D/C"
       transform="matrix(0.8,0,0,0.8,590.56667,155.344)" />
    <path
       id="path39"
       d="m 2.1809375,-3.1399062 c 0,-1.453125 1.0898437,-2.390625 2.3789062,-2.4140625 v -0.9609375 c -1.3007812,0.023437 -2.0625,0.7734375 -2.4492187,1.3359375 v -1.265625 H 1.1145312 V 7.1875e-4 H 2.1809375 Z M 10.844023,-9.9485 H 9.7776172 v 4.1835938 c -0.65625,-0.5507813 -1.40625,-0.75 -2.015625,-0.75 -1.3710938,0 -2.484375,1.4648437 -2.484375,3.328125 0,1.8515625 1.0546875,3.32812495 2.4257812,3.32812495 0.5273438,0 1.3359375,-0.1640625 2.0507813,-0.8671875 v 0.7265625 h 1.0898433 z m -1.0898433,8.2617188 c -0.3515625,0.609375 -0.84375,0.9726562 -1.4765625,0.9726562 -0.8789063,0 -1.9101563,-0.6796875 -1.9101563,-2.4609375 0,-1.8984375 1.21875,-2.4726562 2.0507813,-2.4726562 0.5625,0 1.0195312,0.28125 1.3359375,0.7617187 z m 7.3593753,-3.5625 3.363281,-4.6992188 h -1.335938 l -2.625,3.75 -2.695312,-3.75 h -1.453125 l 3.539062,4.6992188 -3.726562,5.24999995 h 1.324219 l 3.011718,-4.39453125 3.09375,4.39453125 h 1.441407 z m 0,0"
       style="fill:#000000;fill-opacity:1;fill-rule:nonzero;stroke:none"
       aria-label="rdX"
       transform="matrix(1.3333333,0,0,1.3333333,71.873333,203.51467)" />
    <path
       id="path40"
       d="M 0,0 H 4.214"
       style="fill:none;stroke:#000000;stroke-width:0.398;stroke-linecap:butt;stroke-linejoin:round;stroke-miterlimit:10;stroke-dasharray:none;stroke-opacity:1"
       transform="matrix(1.3333333,0,0,-1.3333333,101.34533,203.248)" />
    <path
       id="path41"
       d="M 2.1793203,-9.9485 H 1.1129141 V 7.1875e-4 H 2.2027578 V -0.6438125 c 0.6679688,0.6328125 1.3710938,0.78515625 1.875,0.78515625 1.359375,0 2.6015625,-1.38281245 2.6015625,-3.33984375 0,-1.7695312 -0.9375,-3.3164062 -2.2734375,-3.3164062 -0.421875,0 -1.3359375,0.09375 -2.2265625,0.8085937 z m 0.023437,5.1210938 c 0.2695313,-0.4101563 0.7851563,-0.8203125 1.4882813,-0.8203125 0.8671875,0 1.8984375,0.65625 1.8984375,2.4492187 0,1.8632813 -1.171875,2.484375 -2.0507813,2.484375 -0.3984375,0 -0.6679687,-0.140625 -0.9257812,-0.3515625 -0.351562,-0.2929687 -0.4101558,-0.5507812 -0.4101558,-0.796875 z M 13.288695,-6.3625625 H 12.198852 V -2.261 c 0,1.0898438 -0.761719,1.6171875 -1.6875,1.6171875 -1.0078129,0 -1.1132817,-0.375 -1.1132817,-1.0078125 V -6.3625625 H 8.3082266 v 4.7695313 c 0,1.03124995 0.328125,1.73437495 1.5117187,1.73437495 0.3984377,0 1.5351567,-0.0703125 2.4023437,-0.85546875 V 7.1875e-4 h 1.066406 z m 5.938477,0.2226563 c -0.914063,-0.4335938 -1.6875,-0.4453125 -2.015625,-0.4453125 -0.328125,0 -2.332031,0 -2.332031,1.8632812 0,0.6328125 0.351562,1.0664063 0.5625,1.265625 0.515625,0.4453125 0.878906,0.515625 1.722656,0.6914063 0.46875,0.09375 1.300781,0.2695312 1.300781,1.03125 0,0.98437495 -1.113281,0.98437495 -1.3125,0.98437495 -0.574219,0 -1.40625,-0.15234375 -2.179687,-0.71484375 l -0.175782,0.97265625 c 0.07031,0.046875 1.042969,0.6328125 2.367188,0.6328125 1.851562,0 2.296875,-1.11328125 2.296875,-1.95703125 0,-0.7382812 -0.445313,-1.1953125 -0.503906,-1.265625 -0.527344,-0.5507812 -0.960938,-0.6328125 -1.839844,-0.8085937 -0.515625,-0.09375 -1.242188,-0.2460938 -1.242188,-0.9609375 0,-0.890625 1.007813,-0.890625 1.183594,-0.890625 0.761719,0 1.371094,0.1757812 2.003906,0.5390625 z m 6.779297,-0.2226563 h -1.078125 c -0.65625,1.6875 -1.757813,4.5 -1.816407,5.53125 h -0.01172 C 23.018187,-1.6750625 22.268187,-3.5735 22.151,-3.85475 L 21.131469,-6.3625625 H 19.99475 L 22.666625,7.1875e-4 22.162719,1.3015 c -0.316407,0.7265625 -0.527344,0.796875 -0.785157,0.796875 -0.199218,0 -0.667968,-0.046875 -1.113281,-0.2226562 l 0.09375,0.9375 c 0.08203,0.011719 0.550781,0.1171875 1.019531,0.1171875 0.339844,0 1.019532,0 1.628907,-1.5820313 z m 0,0"
       style="fill:#000000;fill-opacity:1;fill-rule:nonzero;stroke:none"
       aria-label="busy"
       transform="matrix(1.3333333,0,0,1.3333333,106.96533,203.51467)" />
    <path
       id="path42"
       d="m 0,-122.456 h 107.11958 l 2.55046,15.30282 h 79.06446 l 2.55047,-15.30282 h 119.87191 l 2.55047,15.30282 h 79.06445 l 2.55047,-15.30282 h 38.257"
       style="fill:none;stroke:#000000;stroke-width:0.95636;stroke-linecap:round;stroke-linejoin:round;stroke-miterlimit:10;stroke-dasharray:none;stroke-opacity:1"
       transform="matrix(1.3333333,0,0,-1.3333333,155.53067,40.241333)" />
    <path
       id="path43"
       d="m 2.1810547,-3.1418125 c 0,-1.453125 1.0898437,-2.390625 2.3789062,-2.4140625 v -0.9609375 c -1.3007812,0.023437 -2.0625,0.7734375 -2.4492187,1.3359375 V -6.4465 H 1.1146484 v 6.4453125 H 2.1810547 Z M 10.844141,-9.9504062 H 9.7777344 v 4.1835937 c -0.65625,-0.5507812 -1.40625,-0.75 -2.015625,-0.75 -1.3710938,0 -2.484375,1.4648438 -2.484375,3.328125 0,1.8515625 1.0546875,3.328125 2.4257812,3.328125 0.5273438,0 1.3359375,-0.1640625 2.0507813,-0.8671875 v 0.7265625 h 1.0898441 z m -1.0898441,8.2617187 c -0.3515625,0.609375 -0.84375,0.97265625 -1.4765625,0.97265625 -0.8789063,0 -1.9101563,-0.67968745 -1.9101563,-2.46093745 0,-1.8984375 1.21875,-2.4726563 2.0507813,-2.4726563 0.5625,0 1.0195312,0.28125 1.3359375,0.7617188 z m 7.3593751,-3.5625 3.363281,-4.6992187 h -1.335937 l -2.625,3.75 -2.695313,-3.75 h -1.453125 l 3.539063,4.6992187 -3.726563,5.25 h 1.324219 l 3.011719,-4.3945312 3.09375,4.3945312 h 1.441406 z m 0,0"
       style="fill:#000000;fill-opacity:1;fill-rule:nonzero;stroke:none"
       aria-label="rdX"
       transform="matrix(1.3333333,0,0,1.3333333,72.533333,244.34533)" />
    <path
       id="path44"
       d="M 0,0 H 4.214"
       style="fill:none;stroke:#000000;stroke-width:0.398;stroke-linecap:butt;stroke-linejoin:round;stroke-miterlimit:10;stroke-dasharray:none;stroke-opacity:1"
       transform="matrix(1.3333333,0,0,-1.3333333,102.00533,244.08)" />
    <path
       id="path45"
       d="M 6.0710625,-9.9504062 H 5.0046563 v 4.1835937 c -0.65625,-0.5507812 -1.40625,-0.75 -2.015625,-0.75 -1.3710938,0 -2.48437505,1.4648438 -2.48437505,3.328125 0,1.8515625 1.05468755,3.328125 2.42578125,3.328125 0.5273438,0 1.3359375,-0.1640625 2.0507813,-0.8671875 v 0.7265625 h 1.0898437 z m -1.0898437,8.2617187 c -0.3515625,0.609375 -0.84375,0.97265625 -1.4765625,0.97265625 -0.8789063,0 -1.9101563,-0.67968745 -1.9101563,-2.46093745 0,-1.8984375 1.21875,-2.4726563 2.0507813,-2.4726563 0.5625,0 1.0195312,0.28125 1.3359375,0.7617188 z m 7.8369142,-2.5195312 c 0,-1.3710938 -0.996094,-2.3789063 -2.332031,-2.3789063 -0.8554692,0 -1.5000004,0.1992188 -2.2031254,0.609375 l 0.082031,0.9375 c 0.6328125,-0.4570312 1.2890625,-0.7148437 2.1210944,-0.7148437 0.667968,0 1.242187,0.5273437 1.242187,1.5820312 v 0.5859375 c -0.65625,0.023437 -1.511719,0.070312 -2.3671876,0.3632813 -0.9609375,0.328125 -1.5234375,0.8554687 -1.5234375,1.5703125 0,0.6328125 0.375,1.7929687 1.59375,1.7929687 0.7851561,0 1.7929691,-0.22265625 2.3203131,-0.66796875 v 0.52734375 h 1.066406 z m -1.089844,2.2851562 c 0,0.28125 0,0.6328125 -0.480469,0.9140625 -0.386718,0.24609375 -0.867187,0.29296875 -1.089843,0.29296875 -0.7734379,0 -1.3007817,-0.42187495 -1.3007817,-0.94921875 0,-0.9726562 1.9921877,-1.1953125 2.8710937,-1.1953125 z m 4.652344,-3.609375 h 1.980469 v -0.8320312 h -1.980469 v -1.828125 h -0.984375 v 1.828125 h -1.207031 v 0.8320312 h 1.171875 v 3.8554688 c 0,0.8320312 0.1875,1.8164062 1.183593,1.8164062 0.960938,0 1.617188,-0.328125 2.0625,-0.55078125 L 18.396258,-1.243375 c -0.503906,0.43359375 -1.03125,0.4921875 -1.289063,0.4921875 -0.632812,0 -0.726562,-0.6679687 -0.726562,-1.171875 z m 8.235351,1.3242188 c 0,-1.3710938 -0.996093,-2.3789063 -2.332031,-2.3789063 -0.855469,0 -1.5,0.1992188 -2.203125,0.609375 l 0.08203,0.9375 c 0.632813,-0.4570312 1.289063,-0.7148437 2.121094,-0.7148437 0.667969,0 1.242188,0.5273437 1.242188,1.5820312 v 0.5859375 c -0.65625,0.023437 -1.511719,0.070312 -2.367188,0.3632813 -0.960937,0.328125 -1.523437,0.8554687 -1.523437,1.5703125 0,0.6328125 0.375,1.7929687 1.59375,1.7929687 0.785156,0 1.792968,-0.22265625 2.320312,-0.66796875 v 0.52734375 h 1.066406 z m -1.089843,2.2851562 c 0,0.28125 0,0.6328125 -0.480469,0.9140625 -0.386719,0.24609375 -0.867188,0.29296875 -1.089844,0.29296875 -0.773437,0 -1.300781,-0.42187495 -1.300781,-0.94921875 0,-0.9726562 1.992187,-1.1953125 2.871094,-1.1953125 z m 0,0"
       style="fill:#000000;fill-opacity:1;fill-rule:nonzero;stroke:none"
       aria-label="data"
       transform="matrix(1.3333333,0,0,1.3333333,107.624,244.34533)" />
    <path
       id="path46"
       d="m 0,-137.77559 107.11958,-9.3e-4 2.55046,-7.6514 -2.55046,-7.65141 L 0,-153.07838"
       style="fill:none;stroke:#000000;stroke-width:0.95636;stroke-linecap:round;stroke-linejoin:round;stroke-miterlimit:10;stroke-dasharray:none;stroke-opacity:1"
       transform="matrix(1.3333333,0,0,-1.3333333,155.53067,40.241333)" />
    <path
       id="path47"
       d="m 6.4248307,-4.6894531 c 0,-0.9570313 -0.039063,-2.0507813 -0.4101562,-3.0859375 -0.625,-1.6015625 -1.7382813,-1.9335938 -2.5,-1.9335938 -0.9375,0 -1.8359375,0.46875 -2.3632813,1.6015625 -0.46874997,1.0351563 -0.56640622,2.1875 -0.56640622,3.4179688 0,1.5820312 0.13671875,2.4609375 0.58593752,3.4765625 0.4296875,0.93749998 1.3476562,1.50390623 2.3242187,1.50390623 0.9570313,0 1.8554688,-0.5078125 2.34375,-1.50390623 0.4882813,-1.015625 0.5859375,-2.0703125 0.5859375,-3.4765625 z m -2.9101562,4.12109373 c -1.8359375,0 -1.8359375,-2.92968753 -1.8359375,-4.27734373 0,-0.9375 0,-1.8164063 0.2539062,-2.6367188 0.3515625,-1.015625 0.9765625,-1.3671875 1.5625,-1.3671875 1.8359375,0 1.8359375,2.6757813 1.8359375,4.0039063 0,0.9179687 0,1.8554687 -0.2539062,2.7539062 -0.390625,1.36718753 -1.1914063,1.52343753 -1.5625,1.52343753 z M 10.67776,-3.2832031 13.216823,-6.3691406 H 12.005885 L 10.189479,-4.0449219 8.3144792,-6.3691406 H 7.1035417 l 2.5976562,3.0859375 -2.6757812,3.28124998 h 1.1914062 l 1.9726561,-2.67578128 2.050781,2.67578128 h 1.210938 z m 9.199219,-1.40625 c 0,-0.9570313 -0.03906,-2.0507813 -0.410156,-3.0859375 -0.625,-1.6015625 -1.738281,-1.9335938 -2.5,-1.9335938 -0.9375,0 -1.835938,0.46875 -2.363281,1.6015625 -0.46875,1.0351563 -0.566407,2.1875 -0.566407,3.4179688 0,1.5820312 0.136719,2.4609375 0.585938,3.4765625 0.429687,0.93749998 1.347656,1.50390623 2.324219,1.50390623 0.957031,0 1.855468,-0.5078125 2.34375,-1.50390623 0.488281,-1.015625 0.585937,-2.0703125 0.585937,-3.4765625 z m -2.910156,4.12109373 c -1.835938,0 -1.835938,-2.92968753 -1.835938,-4.27734373 0,-0.9375 0,-1.8164063 0.253907,-2.6367188 0.351562,-1.015625 0.976562,-1.3671875 1.5625,-1.3671875 1.835937,0 1.835937,2.6757813 1.835937,4.0039063 0,0.9179687 0,1.8554687 -0.253906,2.7539062 -0.390625,1.36718753 -1.191406,1.52343753 -1.5625,1.52343753 z m 0,0"
       style="fill:#000000;fill-opacity:1;fill-rule:nonzero;stroke:none"
       aria-label="0x0"
       transform="matrix(0.8,0,0,0.8,218.75467,237.9)" />
    <path
       id="path48"
       d="m 109.67004,-145.42606 2.55046,7.6514 35.70653,-9.3e-4 2.55048,-7.6514 -2.55048,-7.65139 -35.70653,0.002 -2.55046,7.65139"
       style="fill:none;stroke:#000000;stroke-width:0.95636;stroke-linecap:round;stroke-linejoin:round;stroke-miterlimit:10;stroke-dasharray:none;stroke-opacity:1"
       transform="matrix(1.3333333,0,0,-1.3333333,155.53067,40.241333)" />
    <path
       id="path49"
       d="M 6.0734375,-9.9613542 H 5.01875 v 4.1992188 C 4.3546875,-6.3090104 3.5929687,-6.5238542 2.9875,-6.5238542 c -1.3671875,0 -2.48046875,1.4648438 -2.48046875,3.3398438 0,1.8554687 1.05468745,3.32031248 2.42187495,3.32031248 0.5273438,0 1.328125,-0.15625 2.0507813,-0.859375 v 0.72265625333 h 1.09375 z m -1.09375,8.2617188 c -0.3515625,0.625 -0.8398438,0.97656248 -1.484375,0.97656248 -0.859375,0 -1.8945313,-0.66406248 -1.8945313,-2.44140628 0,-1.9140625 1.2109375,-2.5 2.0507813,-2.5 0.546875,0 1.015625,0.2929688 1.328125,0.7617188 z m 7.8320315,-2.5 c 0,-1.3867188 -0.976563,-2.3828125 -2.324219,-2.3828125 -0.859375,0 -1.5039063,0.1953125 -2.2070313,0.6054687 l 0.097656,0.9375 c 0.625,-0.46875 1.2890625,-0.7226562 2.1093753,-0.7226562 0.664062,0 1.25,0.5273437 1.25,1.5820312 v 0.5859375 c -0.664063,0.039063 -1.523438,0.078125 -2.3828128,0.3710938 -0.9570313,0.3320312 -1.5234375,0.859375 -1.5234375,1.5625 0,0.6445312 0.3710937,1.79687498 1.6015625,1.79687498 0.7812498,0 1.7968748,-0.21484375 2.3242188,-0.6640625 v 0.52734375333 h 1.054688 z M 11.7375,-1.9144792 c 0,0.2734375 0,0.625 -0.488281,0.91796878 -0.390625,0.234375 -0.878907,0.2734375 -1.09375,0.2734375 -0.761719,0 -1.2890628,-0.41015628 -1.2890628,-0.93749998 0,-0.9765625 1.9921878,-1.1914063 2.8710938,-1.1914063 z m 4.65332,-3.6328125 h 1.972657 V -6.3676042 H 16.39082 v -1.8359375 h -0.996093 v 1.8359375 h -1.210938 v 0.8203125 h 1.191406 v 3.8671875 c 0,0.83984378 0.175782,1.81640628 1.171875,1.81640628 0.957032,0 1.621094,-0.33203125 2.070313,-0.546875 L 18.402539,-1.2504167 c -0.507812,0.44921878 -1.035156,0.50781253 -1.308594,0.50781253 -0.625,0 -0.703125,-0.68359373 -0.703125,-1.17187503 z m 8.217774,1.3476563 c 0,-1.3867188 -0.976563,-2.3828125 -2.324219,-2.3828125 -0.859375,0 -1.503906,0.1953125 -2.207031,0.6054687 l 0.09766,0.9375 c 0.625,-0.46875 1.289062,-0.7226562 2.109375,-0.7226562 0.664062,0 1.25,0.5273437 1.25,1.5820312 v 0.5859375 c -0.664063,0.039063 -1.523438,0.078125 -2.382813,0.3710938 -0.957031,0.3320312 -1.523437,0.859375 -1.523437,1.5625 0,0.6445312 0.371094,1.79687498 1.601562,1.79687498 0.78125,0 1.796875,-0.21484375 2.324219,-0.6640625 v 0.52734375333 h 1.054688 z m -1.074219,2.2851562 c 0,0.2734375 0,0.625 -0.488281,0.91796878 -0.390625,0.234375 -0.878907,0.2734375 -1.09375,0.2734375 -0.761719,0 -1.289063,-0.41015628 -1.289063,-0.93749998 0,-0.9765625 1.992188,-1.1914063 2.871094,-1.1914063 z m 8.618164,-2.7734375 c 0,-0.9570312 -0.03906,-2.0507812 -0.410156,-3.0859375 -0.625,-1.6015625 -1.738281,-1.9335937 -2.5,-1.9335937 -0.9375,0 -1.835938,0.46875 -2.363281,1.6015625 -0.46875,1.0351562 -0.566407,2.1875 -0.566407,3.4179687 0,1.5820313 0.136719,2.4609375 0.585938,3.4765625 0.429687,0.93750003 1.347656,1.50390628 2.324219,1.50390628 0.957031,0 1.855468,-0.5078125 2.34375,-1.50390628 0.488281,-1.015625 0.585937,-2.0703125 0.585937,-3.4765625 z m -2.910156,4.12109378 c -1.835938,0 -1.835938,-2.92968748 -1.835938,-4.27734378 0,-0.9375 0,-1.8164062 0.253907,-2.6367187 0.351562,-1.015625 0.976562,-1.3671875 1.5625,-1.3671875 1.835937,0 1.835937,2.6757812 1.835937,4.0039062 0,0.9179688 0,1.8554688 -0.253906,2.7539063 -0.390625,1.36718748 -1.191406,1.52343748 -1.5625,1.52343748 z m 0,0"
       style="fill:#000000;fill-opacity:1;fill-rule:nonzero;stroke:none"
       aria-label="data0"
       transform="matrix(0.8,0,0,0.8,315.86,238.12533)" />
    <path
       id="path50"
       d="m 150.47751,-145.42511 2.55046,7.6514 35.70653,-9.5e-4 2.55047,-7.6514 -2.55047,-7.65139 -35.70653,0.002 -2.55046,7.6514"
       style="fill:none;stroke:#000000;stroke-width:0.95636;stroke-linecap:round;stroke-linejoin:round;stroke-miterlimit:10;stroke-dasharray:none;stroke-opacity:1"
       transform="matrix(1.3333333,0,0,-1.3333333,155.53067,40.241333)" />
    <path
       id="path51"
       d="M 6.0744661,-9.9596875 H 5.0197786 v 4.1992187 c -0.6640625,-0.546875 -1.4257812,-0.7617187 -2.03125,-0.7617187 -1.3671875,0 -2.4804687,1.4648437 -2.4804687,3.3398437 0,1.8554688 1.0546875,3.32031255 2.421875,3.32031255 0.5273437,0 1.328125,-0.15625 2.0507812,-0.859375 V 0.00125 h 1.09375 z m -1.09375,8.2617187 c -0.3515625,0.625 -0.8398437,0.97656255 -1.484375,0.97656255 -0.859375,0 -1.8945312,-0.66406255 -1.8945312,-2.44140625 0,-1.9140625 1.2109375,-2.5 2.0507812,-2.5 0.546875,0 1.015625,0.2929687 1.328125,0.7617187 z m 7.8320309,-2.5 c 0,-1.3867187 -0.976562,-2.3828125 -2.324218,-2.3828125 -0.8593754,0 -1.5039066,0.1953125 -2.2070316,0.6054688 l 0.097656,0.9375 c 0.625,-0.46875 1.2890625,-0.7226563 2.1093756,-0.7226563 0.664062,0 1.25,0.5273438 1.25,1.5820313 V -3.5925 c -0.664063,0.039063 -1.523438,0.078125 -2.3828131,0.3710937 -0.9570312,0.3320313 -1.5234375,0.859375 -1.5234375,1.5625 0,0.6445313 0.3710938,1.79687505 1.6015625,1.79687505 0.7812501,0 1.7968751,-0.21484375 2.3242191,-0.6640625 V 0.00125 h 1.054687 z m -1.074218,2.2851563 c 0,0.2734375 0,0.625 -0.488282,0.91796875 -0.390625,0.234375 -0.878906,0.2734375 -1.09375,0.2734375 -0.7617184,0 -1.2890621,-0.41015625 -1.2890621,-0.93750005 0,-0.9765625 1.9921871,-1.1914062 2.8710941,-1.1914062 z m 4.65332,-3.6328125 h 1.972656 V -6.3659375 H 16.391849 V -8.201875 h -0.996094 v 1.8359375 h -1.210937 v 0.8203125 h 1.191406 v 3.8671875 c 0,0.83984375 0.175781,1.81640625 1.171875,1.81640625 0.957031,0 1.621094,-0.33203125 2.070312,-0.546875 L 18.403568,-1.24875 c -0.507813,0.44921875 -1.035157,0.5078125 -1.308594,0.5078125 -0.625,0 -0.703125,-0.6835938 -0.703125,-1.171875 z m 8.217773,1.3476562 c 0,-1.3867187 -0.976562,-2.3828125 -2.324218,-2.3828125 -0.859375,0 -1.503907,0.1953125 -2.207032,0.6054688 l 0.09766,0.9375 c 0.625,-0.46875 1.289062,-0.7226563 2.109375,-0.7226563 0.664062,0 1.25,0.5273438 1.25,1.5820313 V -3.5925 c -0.664063,0.039063 -1.523438,0.078125 -2.382813,0.3710937 -0.957031,0.3320313 -1.523437,0.859375 -1.523437,1.5625 0,0.6445313 0.371093,1.79687505 1.601562,1.79687505 0.78125,0 1.796875,-0.21484375 2.324219,-0.6640625 V 0.00125 h 1.054687 z m -1.074218,2.2851563 c 0,0.2734375 0,0.625 -0.488282,0.91796875 -0.390625,0.234375 -0.878906,0.2734375 -1.09375,0.2734375 -0.761718,0 -1.289062,-0.41015625 -1.289062,-0.93750005 0,-0.9765625 1.992187,-1.1914062 2.871094,-1.1914062 z m 6.411132,-7.7929688 h -0.273437 c -0.234375,0.234375 -0.917969,0.8984375 -2.460938,0.9375 -0.214843,0 -0.214843,0.019531 -0.214843,0.2734375 v 0.5664063 c 0.878906,0 1.523437,-0.2148438 1.835937,-0.3320313 v 7.42187505 H 27.075443 V 0.00125 h 4.628906 v -0.83984375 h -1.757813 z m 0,0"
       style="fill:#000000;fill-opacity:1;fill-rule:nonzero;stroke:none"
       aria-label="data1"
       transform="matrix(0.8,0,0,0.8,370.26933,238.124)" />
    <path
       id="path52"
       d="m 191.28497,-145.42418 2.55046,7.6514 76.514,-9.3e-4 2.55046,-7.6514 -2.55046,-7.65139 -76.514,0.002 -2.55046,7.6514"
       style="fill:none;stroke:#000000;stroke-width:0.95636;stroke-linecap:round;stroke-linejoin:round;stroke-miterlimit:10;stroke-dasharray:none;stroke-opacity:1"
       transform="matrix(1.3333333,0,0,-1.3333333,155.53067,40.241333)" />
    <path
       id="path53"
       d="m 6.4236589,-4.6893359 c 0,-0.9570313 -0.039063,-2.0507813 -0.4101563,-3.0859375 -0.625,-1.6015625 -1.7382812,-1.9335938 -2.5,-1.9335938 -0.9375,0 -1.8359375,0.46875 -2.3632812,1.6015625 -0.46875005,1.0351563 -0.5664063,2.1875 -0.5664063,3.4179688 0,1.5820312 0.13671875,2.4609375 0.5859375,3.4765625 0.4296875,0.93749996 1.3476563,1.50390621 2.3242188,1.50390621 0.9570312,0 1.8554687,-0.5078125 2.34375,-1.50390621 0.4882812,-1.015625 0.5859375,-2.0703125 0.5859375,-3.4765625 z m -2.9101563,4.12109371 c -1.8359375,0 -1.8359375,-2.92968751 -1.8359375,-4.27734371 0,-0.9375 0,-1.8164063 0.2539063,-2.6367188 0.3515625,-1.015625 0.9765625,-1.3671875 1.5625,-1.3671875 1.8359375,0 1.8359375,2.6757813 1.8359375,4.0039063 0,0.9179687 0,1.8554687 -0.2539063,2.7539062 -0.390625,1.36718751 -1.1914062,1.52343751 -1.5625,1.52343751 z M 10.676589,-3.2830859 13.215651,-6.3690234 H 12.004714 L 10.188307,-4.0448047 8.3133073,-6.3690234 H 7.1023698 L 9.700026,-3.2830859 7.0242448,-0.00183594 H 8.215651 l 1.972656,-2.67578126 2.050782,2.67578126 h 1.210937 z m 9.199218,-1.40625 c 0,-0.9570313 -0.03906,-2.0507813 -0.410156,-3.0859375 -0.625,-1.6015625 -1.738281,-1.9335938 -2.5,-1.9335938 -0.9375,0 -1.835937,0.46875 -2.363281,1.6015625 -0.46875,1.0351563 -0.566406,2.1875 -0.566406,3.4179688 0,1.5820312 0.136718,2.4609375 0.585937,3.4765625 0.429688,0.93749996 1.347656,1.50390621 2.324219,1.50390621 0.957031,0 1.855469,-0.5078125 2.34375,-1.50390621 0.488281,-1.015625 0.585937,-2.0703125 0.585937,-3.4765625 z m -2.910156,4.12109371 c -1.835937,0 -1.835937,-2.92968751 -1.835937,-4.27734371 0,-0.9375 0,-1.8164063 0.253906,-2.6367188 0.351562,-1.015625 0.976562,-1.3671875 1.5625,-1.3671875 1.835937,0 1.835937,2.6757813 1.835937,4.0039063 0,0.9179687 0,1.8554687 -0.253906,2.7539062 -0.390625,1.36718751 -1.191406,1.52343751 -1.5625,1.52343751 z m 0,0"
       style="fill:#000000;fill-opacity:1;fill-rule:nonzero;stroke:none"
       aria-label="0x0"
       transform="matrix(0.8,0,0,0.8,456.79467,237.896)" />
    <path
       id="path54"
       d="m 272.89989,-145.42325 2.55046,7.6514 35.70653,-9.3e-4 2.55047,-7.6514 -2.55047,-7.6514 -35.70653,0.002 -2.55046,7.6514"
       style="fill:none;stroke:#000000;stroke-width:0.95636;stroke-linecap:round;stroke-linejoin:round;stroke-miterlimit:10;stroke-dasharray:none;stroke-opacity:1"
       transform="matrix(1.3333333,0,0,-1.3333333,155.53067,40.241333)" />
    <path
       id="path55"
       d="M 6.0726693,-9.961237 H 5.0179818 v 4.1992188 c -0.6640625,-0.546875 -1.4257813,-0.7617188 -2.03125,-0.7617188 -1.3671875,0 -2.48046878,1.4648438 -2.48046878,3.3398438 0,1.8554687 1.05468748,3.32031247 2.42187498,3.32031247 0.5273438,0 1.328125,-0.15625 2.0507813,-0.859375 v 0.72265625083 h 1.09375 z m -1.09375,8.2617188 c -0.3515625,0.625 -0.8398438,0.97656247 -1.484375,0.97656247 -0.859375,0 -1.8945313,-0.66406247 -1.8945313,-2.44140627 0,-1.9140625 1.2109375,-2.5 2.0507813,-2.5 0.546875,0 1.015625,0.2929688 1.328125,0.7617188 z m 7.8320317,-2.5 c 0,-1.3867188 -0.976563,-2.3828125 -2.324219,-2.3828125 -0.8593752,0 -1.5039065,0.1953125 -2.2070315,0.6054687 l 0.097656,0.9375 c 0.625,-0.46875 1.2890625,-0.7226562 2.1093755,-0.7226562 0.664062,0 1.25,0.5273437 1.25,1.5820312 v 0.5859375 c -0.664063,0.039063 -1.523438,0.078125 -2.382813,0.3710938 -0.9570313,0.3320312 -1.5234375,0.859375 -1.5234375,1.5625 0,0.6445312 0.3710937,1.79687497 1.6015625,1.79687497 0.78125,0 1.796875,-0.21484375 2.324219,-0.6640625 v 0.52734375083 h 1.054688 z m -1.074219,2.2851562 c 0,0.2734375 0,0.625 -0.488281,0.91796877 -0.390625,0.234375 -0.878907,0.2734375 -1.09375,0.2734375 -0.7617192,0 -1.289063,-0.41015627 -1.289063,-0.93749997 0,-0.9765625 1.992188,-1.1914063 2.871094,-1.1914063 z m 4.65332,-3.6328125 h 1.972656 V -6.367487 h -1.972656 v -1.8359375 h -0.996094 v 1.8359375 h -1.210937 v 0.8203125 h 1.191406 v 3.8671875 c 0,0.83984377 0.175781,1.81640627 1.171875,1.81640627 0.957031,0 1.621094,-0.33203125 2.070313,-0.546875 L 18.401771,-1.2502995 c -0.507813,0.44921877 -1.035156,0.50781252 -1.308594,0.50781252 -0.625,0 -0.703125,-0.68359372 -0.703125,-1.17187502 z m 8.217774,1.3476563 c 0,-1.3867188 -0.976563,-2.3828125 -2.324219,-2.3828125 -0.859375,0 -1.503906,0.1953125 -2.207031,0.6054687 l 0.09766,0.9375 c 0.625,-0.46875 1.289062,-0.7226562 2.109375,-0.7226562 0.664062,0 1.25,0.5273437 1.25,1.5820312 v 0.5859375 c -0.664063,0.039063 -1.523438,0.078125 -2.382813,0.3710938 -0.957031,0.3320312 -1.523437,0.859375 -1.523437,1.5625 0,0.6445312 0.371094,1.79687497 1.601562,1.79687497 0.78125,0 1.796875,-0.21484375 2.324219,-0.6640625 v 0.52734375083 h 1.054688 z m -1.074219,2.2851562 c 0,0.2734375 0,0.625 -0.488281,0.91796877 -0.390625,0.234375 -0.878907,0.2734375 -1.09375,0.2734375 -0.761719,0 -1.289063,-0.41015627 -1.289063,-0.93749997 0,-0.9765625 1.992188,-1.1914063 2.871094,-1.1914063 z m 2.895508,1.01562502 v 0.89843750083 h 5.605468 V -0.97686198 h -2.539062 c -0.175781,0 -0.351563,0.0195313 -0.527344,0.0195313 h -1.542969 c 0.390625,-0.39062492 1.71875,-1.71874992 2.65625,-2.53906252 1.054688,-0.9374999 1.953125,-1.8359374 1.953125,-3.1445312 0,-1.6015626 -1.09375,-3.0664062 -2.988281,-3.0664062 -1.5625,0 -2.34375,1.015625 -2.734375,2.3632812 0.46875,0.5664063 0.46875,0.6054688 0.585938,0.7617188 0.371093,-1.5234375 0.898437,-2.2265625 1.953125,-2.2265625 1.230468,0 2.050781,0.9570312 2.050781,2.1875 0,0.7421875 -0.3125,1.5820312 -1.269531,2.5390625 z m 0,0"
       style="fill:#000000;fill-opacity:1;fill-rule:nonzero;stroke:none"
       aria-label="data2"
       transform="matrix(0.8,0,0,0.8,533.49733,238.12133)" />
    <path
       id="path56"
       d="m 313.70735,-145.42137 2.55046,7.6514 117.32146,-0.002 m 0,-15.3028 -117.32146,0.002 -2.55046,7.6514"
       style="fill:none;stroke:#000000;stroke-width:0.95636;stroke-linecap:round;stroke-linejoin:round;stroke-miterlimit:10;stroke-dasharray:none;stroke-opacity:1"
       transform="matrix(1.3333333,0,0,-1.3333333,155.53067,40.241333)" />
    <path
       id="path57"
       d="m 6.425651,-4.6860026 c 0,-0.9570313 -0.039063,-2.0507813 -0.4101562,-3.0859375 -0.625,-1.6015625 -1.7382813,-1.9335938 -2.5,-1.9335938 -0.9375,0 -1.8359375,0.46875 -2.3632813,1.6015625 -0.46874996,1.0351563 -0.56640621,2.1875 -0.56640621,3.4179688 0,1.5820312 0.13671875,2.4609375 0.58593751,3.4765625 0.4296875,0.9375 1.3476562,1.50390625 2.3242187,1.50390625 0.9570313,0 1.8554688,-0.5078125 2.34375,-1.50390625 0.4882813,-1.015625 0.5859375,-2.0703125 0.5859375,-3.4765625 z m -2.9101562,4.12109375 c -1.8359375,0 -1.8359375,-2.92968755 -1.8359375,-4.27734375 0,-0.9375 0,-1.8164063 0.2539062,-2.6367188 0.3515625,-1.015625 0.9765625,-1.3671875 1.5625,-1.3671875 1.8359375,0 1.8359375,2.6757813 1.8359375,4.0039063 0,0.9179687 0,1.8554687 -0.2539062,2.7539062 -0.390625,1.36718755 -1.1914063,1.52343755 -1.5625,1.52343755 z M 10.678581,-3.2797526 13.217643,-6.3656901 H 12.006706 L 10.190299,-4.0414714 8.3152995,-6.3656901 H 7.104362 l 2.5976562,3.0859375 -2.6757812,3.28125 h 1.1914062 l 1.9726558,-2.6757813 2.050782,2.6757813 h 1.210937 z m 9.194336,-1.40625 c 0,-0.9570313 -0.03906,-2.0507813 -0.410157,-3.0859375 -0.625,-1.6015625 -1.738281,-1.9335938 -2.5,-1.9335938 -0.9375,0 -1.835937,0.46875 -2.363281,1.6015625 -0.46875,1.0351563 -0.566406,2.1875 -0.566406,3.4179688 0,1.5820312 0.136719,2.4609375 0.585937,3.4765625 0.429688,0.9375 1.347657,1.50390625 2.324219,1.50390625 0.957031,0 1.855469,-0.5078125 2.34375,-1.50390625 0.488281,-1.015625 0.585938,-2.0703125 0.585938,-3.4765625 z m -2.910157,4.12109375 c -1.835937,0 -1.835937,-2.92968755 -1.835937,-4.27734375 0,-0.9375 0,-1.8164063 0.253906,-2.6367188 0.351563,-1.015625 0.976563,-1.3671875 1.5625,-1.3671875 1.835938,0 1.835938,2.6757813 1.835938,4.0039063 0,0.9179687 0,1.8554687 -0.253907,2.7539062 -0.390625,1.36718755 -1.191406,1.52343755 -1.5625,1.52343755 z m 0,0"
       style="fill:#000000;fill-opacity:1;fill-rule:nonzero;stroke:none"
       aria-label="0x0"
       transform="matrix(0.8,0,0,0.8,647.22667,237.89333)" />
    <path
       id="path58"
       d="m 2.1787969,-3.1399297 c 0,-1.453125 1.0898437,-2.390625 2.3789062,-2.4140625 v -0.9609375 c -1.3007812,0.023437 -2.0625,0.7734375 -2.4492187,1.3359375 v -1.265625 H 1.1123906 V 6.953125e-4 H 2.1787969 Z M 10.844813,-9.9485234 H 9.7784063 v 4.1835937 c -0.65625,-0.5507812 -1.40625,-0.75 -2.015625,-0.75 -1.3710938,0 -2.484375,1.4648438 -2.484375,3.328125 0,1.8515625 1.0546875,3.32812501 2.4257812,3.32812501 0.5273438,0 1.3359375,-0.1640625 2.0507813,-0.8671875 V 6.953125e-4 h 1.0898442 z m -1.0898442,8.2617187 c -0.3515625,0.609375 -0.84375,0.97265626 -1.4765625,0.97265626 -0.8789063,0 -1.9101563,-0.67968746 -1.9101563,-2.46093746 0,-1.8984375 1.21875,-2.4726563 2.0507813,-2.4726563 0.5625,0 1.0195312,0.28125 1.3359375,0.7617188 z m 7.3593752,-3.5625 3.363281,-4.6992187 h -1.335937 l -2.625,3.75 -2.695313,-3.75 H 12.36825 l 3.539063,4.6992187 -3.726563,5.2500000125 h 1.324219 L 16.516688,-4.3938359 19.610438,6.953125e-4 h 1.441406 z m 0,0"
       style="fill:#000000;fill-opacity:1;fill-rule:nonzero;stroke:none"
       aria-label="rdX"
       transform="matrix(1.3333333,0,0,1.3333333,70.884,285.18267)" />
    <path
       id="path59"
       d="M 0,0 H 4.214"
       style="fill:none;stroke:#000000;stroke-width:0.398;stroke-linecap:butt;stroke-linejoin:round;stroke-miterlimit:10;stroke-dasharray:none;stroke-opacity:1"
       transform="matrix(1.3333333,0,0,-1.3333333,100.356,284.91733)" />
    <path
       id="path60"
       d="M 6.2113594,-6.3625859 H 5.1332344 L 4.0902656,-3.5149297 C 3.8441719,-2.8235234 3.3168281,-1.3000859 3.2230781,-0.77274219 H 3.2113594 C 3.1410469,-1.2766484 2.8597969,-2.0618047 2.6371406,-2.6828984 l -1.3125,-3.6796875 H 0.19964063 L 2.5668281,6.953125e-4 h 1.2773438 z m 5.8271486,2.15625 c 0,-1.3710938 -0.996094,-2.3789063 -2.3320314,-2.3789063 -0.8554688,0 -1.5,0.1992188 -2.203125,0.609375 l 0.082031,0.9375 c 0.6328125,-0.4570312 1.2890625,-0.7148437 2.1210938,-0.7148437 0.6679686,0 1.2421876,0.5273437 1.2421876,1.5820312 v 0.5859375 c -0.65625,0.023437 -1.5117189,0.070312 -2.3671876,0.3632813 -0.9609375,0.328125 -1.5234375,0.8554687 -1.5234375,1.5703125 0,0.6328125 0.375,1.79296871 1.59375,1.79296871 0.7851562,0 1.7929691,-0.22265625 2.3203131,-0.66796875 V 6.953125e-4 h 1.066406 z m -1.089844,2.2851562 c 0,0.28125 0,0.6328125 -0.480469,0.9140625 -0.386718,0.24609376 -0.8671872,0.29296876 -1.0898434,0.29296876 -0.7734375,0 -1.3007813,-0.42187496 -1.3007813,-0.94921876 0,-0.9726562 1.9921877,-1.1953125 2.8710937,-1.1953125 z m 4.379883,-8.0273437 H 14.262141 V 6.953125e-4 h 1.066406 z m 3.386719,0.2109375 h -1.230469 v 1.2304687 h 1.230469 z m -0.08203,3.375 H 17.566828 V 6.953125e-4 h 1.066406 z m 7.195313,-3.5859375 h -1.066406 v 4.1835937 c -0.65625,-0.5507812 -1.40625,-0.75 -2.015625,-0.75 -1.371094,0 -2.484375,1.4648438 -2.484375,3.328125 0,1.8515625 1.054687,3.32812501 2.425781,3.32812501 0.527344,0 1.335937,-0.1640625 2.050781,-0.8671875 V 6.953125e-4 h 1.089844 z m -1.089844,8.2617187 c -0.351562,0.609375 -0.84375,0.97265626 -1.476562,0.97265626 -0.878907,0 -1.910157,-0.67968746 -1.910157,-2.46093746 0,-1.8984375 1.21875,-2.4726563 2.050782,-2.4726563 0.5625,0 1.019531,0.28125 1.335937,0.7617188 z m 0,0"
       style="fill:#000000;fill-opacity:1;fill-rule:nonzero;stroke:none"
       aria-label="valid"
       transform="matrix(1.3333333,0,0,1.3333333,105.976,285.18267)" />
    <path
       id="path61"
       d="m 0,-183.70824 h 107.11958 l 2.55046,15.3028 h 79.06446 l 2.55047,-15.3028 h 79.06446 l 2.55046,15.3028 h 38.25699 l 2.55047,-15.3028 h 119.87192"
       style="fill:none;stroke:#000000;stroke-width:0.95636;stroke-linecap:round;stroke-linejoin:round;stroke-miterlimit:10;stroke-dasharray:none;stroke-opacity:1"
       transform="matrix(1.3333333,0,0,-1.3333333,155.53067,40.241333)" />
    <path
       id="path62"
       d="M 20.40372,22.9542 V -191.42691 M 40.80745,22.9542 V -191.42691 M 61.21118,22.9542 V -191.42691 M 81.61491,22.9542 V -191.42691 M 102.01865,22.9542 V -191.42691 M 122.42238,22.9542 V -191.42691 M 142.82611,22.9542 V -191.42691 M 163.22984,22.9542 V -191.42691 M 183.63356,22.9542 V -191.42691 M 204.0373,22.9542 V -191.42691 M 224.44102,22.9542 V -191.42691 M 244.84476,22.9542 V -191.42691 M 265.24849,22.9542 V -191.42691 M 285.65222,22.9542 V -191.42691 M 306.05595,22.9542 V -191.42691 M 326.45969,22.9542 V -191.42691 M 346.86342,22.9542 V -191.42691 M 367.26714,22.9542 V -191.42691 M 387.67087,22.9542 V -191.42691 M 408.0746,22.9542 v -214.38111"
       style="fill:none;stroke:#808080;stroke-width:0.59776;stroke-linecap:round;stroke-linejoin:round;stroke-miterlimit:10;stroke-dasharray:none;stroke-opacity:0.5"
       transform="matrix(1.3333333,0,0,-1.3333333,155.53067,40.241333)" />
    <path
       id="path63"
       d="M 61.21118,22.9542 V -191.42691 M 102.01865,22.9542 V -191.42691 M 224.44102,22.9542 v -214.38111"
       style="fill:none;stroke:#ff0000;stroke-width:0.7024;stroke-linecap:round;stroke-linejoin:round;stroke-miterlimit:10;stroke-dasharray:2.98883, 2.98883;stroke-dashoffset:0;stroke-opacity:0.75"
       transform="matrix(1.3333333,0,0,-1.3333333,155.53067,40.241333)" />
  </g>
</svg>
