<?xml version="1.0" encoding="UTF-8" standalone="no"?>
<!-- Created with Inkscape (http://www.inkscape.org/) -->

<svg
   version="1.1"
   id="svg1"
   width="678.07068"
   height="304.97067"
   viewBox="0 0 678.07068 304.97067"
   sodipodi:docname="main.pdf"
   xmlns:inkscape="http://www.inkscape.org/namespaces/inkscape"
   xmlns:sodipodi="http://sodipodi.sourceforge.net/DTD/sodipodi-0.dtd"
   xmlns="http://www.w3.org/2000/svg"
   xmlns:svg="http://www.w3.org/2000/svg">
  <defs
     id="defs1" />
  <sodipodi:namedview
     id="namedview1"
     pagecolor="#ffffff"
     bordercolor="#000000"
     borderopacity="0.25"
     inkscape:showpageshadow="2"
     inkscape:pageopacity="0.0"
     inkscape:pagecheckerboard="0"
     inkscape:deskcolor="#d1d1d1">
    <inkscape:page
       x="0"
       y="0"
       inkscape:label="1"
       id="page1"
       width="678.07068"
       height="304.97067"
       margin="0"
       bleed="0" />
  </sodipodi:namedview>
  <g
     id="g1"
     inkscape:groupmode="layer"
     inkscape:label="1">
    <path
       id="path1"
       d="M 0,0 H 508.553 V 228.728 H 0 Z"
       style="fill:#ffffff;fill-opacity:1;fill-rule:nonzero;stroke:none"
       transform="matrix(1.3333333,0,0,-1.3333333,0,304.97067)" />
    <path
       id="path2"
       d="M -67.6043,-198.10194 V 29.62923 h 507.55971 v -227.73117 z"
       style="fill:#ffffff;fill-opacity:1;fill-rule:nonzero;stroke:none"
       transform="matrix(1.3333333,0,0,-1.3333333,90.804,40.172)" />
    <path
       id="path3"
       d="m 5.7530156,-1.5458984 c -0.65625,0.5273437 -1.3945312,0.79687496 -2.1914062,0.79687496 -1.1953125,0 -1.96875,-1.05468746 -1.96875,-2.44921876 0,-1.1953125 0.5742187,-2.4960937 2.0039062,-2.4960937 0.9609375,0 1.3710938,0.234375 1.9804688,0.6445312 l 0.1757812,-0.9257812 c -0.8320312,-0.4921875 -1.3125,-0.609375 -2.15625,-0.609375 -1.9804687,0 -3.09374997,1.7578125 -3.09374997,3.3867187 0,1.8398438 1.31249997,3.33984376 3.03515627,3.33984376 0.703125,0 1.5117187,-0.1640625 2.296875,-0.73828125 0,-0.046875 -0.046875,-0.49218751 -0.058594,-0.55078121 z M 8.4219609,-9.9482422 H 7.3555547 V 9.765625e-4 h 1.0664062 z m 5.0273441,6.0351563 2.355468,-2.4492188 h -1.324218 l -2.765625,2.8828125 v -6.46875 H 10.660242 V 9.765625e-4 h 1.007813 V -2.0615234 l 1.089843,-1.1367188 2.179688,3.1992187625 h 1.183594 z m 0,0"
       style="fill:#000000;fill-opacity:1;fill-rule:nonzero;stroke:none"
       aria-label="clk"
       transform="matrix(1.3333333,0,0,1.3333333,55.384,40.166667)" />
    <path
       id="path4"
       d="M 0,0.0037 H 20.40372 V 15.30649 H 40.80745 V 0.0037 H 61.21118 V 15.30649 H 81.61491 V 0.0037 h 20.40374 v 15.30279 h 20.40373 V 0.0037 h 20.40373 v 15.30279 h 20.40373 V 0.0037 h 20.40372 V 15.30649 H 204.0373 V 0.0037 h 20.40372 v 15.30279 h 20.40374 V 0.0037 h 20.40373 v 15.30279 h 20.40373 V 0.0037 h 20.40373 v 15.30279 h 20.40374 V 0.0037 h 20.40373 v 15.30279 h 20.40372 V 0.0037 h 20.40373 V 15.30649 H 408.0746 V 0.0037 h 20.40373"
       style="fill:none;stroke:#000000;stroke-width:0.95636;stroke-linecap:round;stroke-linejoin:round;stroke-miterlimit:10;stroke-dasharray:none;stroke-opacity:1"
       transform="matrix(1.3333333,0,0,-1.3333333,90.804,40.172)" />
    <path
       id="path5"
       d="m 2.1791484,-3.1392734 c 0,-1.453125 1.0898438,-2.390625 2.3789063,-2.4140625 v -0.9609375 c -1.3007813,0.023437 -2.0625,0.7734375 -2.4492188,1.3359375 v -1.265625 H 1.1127422 V 0.00135156 H 2.1791484 Z M 10.845164,-9.9478672 H 9.7787578 v 4.1835938 c -0.65625,-0.5507813 -1.40625,-0.75 -2.015625,-0.75 -1.3710937,0 -2.484375,1.4648437 -2.484375,3.328125 0,1.8515625 1.0546875,3.32812496 2.4257813,3.32812496 0.5273437,0 1.3359375,-0.1640625 2.0507812,-0.8671875 v 0.7265625 h 1.0898437 z m -1.0898437,8.2617188 c -0.3515625,0.609375 -0.84375,0.97265621 -1.4765625,0.97265621 -0.8789062,0 -1.9101562,-0.67968751 -1.9101562,-2.46093751 0,-1.8984375 1.21875,-2.4726562 2.0507812,-2.4726562 0.5625,0 1.0195313,0.28125 1.3359375,0.7617187 z m 6.4453127,-8.0039063 h -0.269531 c -0.234375,0.2226563 -0.925782,0.9023438 -2.472657,0.9257813 -0.199218,0 -0.210937,0.011719 -0.210937,0.2695312 v 0.5742188 c 0.867187,0 1.535156,-0.2109375 1.828125,-0.3398438 v 7.42968751 h -1.746094 v 0.83203125 h 4.617188 v -0.83203125 h -1.746094 z m 0,0"
       style="fill:#000000;fill-opacity:1;fill-rule:nonzero;stroke:none"
       aria-label="rd1"
       transform="matrix(1.3333333,0,0,1.3333333,51.864,80.978667)" />
    <path
       id="path6"
       d="m 0,-30.6056 h 25.50465 l 2.55046,15.30279 H 45.90839 66.31212 L 68.86258,-30.6056 H 188.7345 l 2.55047,15.30279 h 17.85326 40.80747 20.40373 l 2.55046,-15.30279 h 160.67938"
       style="fill:none;stroke:#000000;stroke-width:0.95636;stroke-linecap:round;stroke-linejoin:round;stroke-miterlimit:10;stroke-dasharray:none;stroke-opacity:1"
       transform="matrix(1.3333333,0,0,-1.3333333,90.804,40.172)" />
    <path
       id="path7"
       d="m 2.178875,-3.1399688 c 0,-1.453125 1.0898438,-2.390625 2.3789063,-2.4140625 v -0.9609375 c -1.3007813,0.023437 -2.0625,0.7734375 -2.4492188,1.3359375 v -1.265625 H 1.1124688 V 6.5625e-4 H 2.178875 Z m 8.666016,-6.8085937 H 9.7784844 v 4.1835937 c -0.65625,-0.5507812 -1.40625,-0.75 -2.015625,-0.75 -1.3710938,0 -2.484375,1.4648438 -2.484375,3.328125 0,1.8515625 1.0546875,3.32812505 2.4257812,3.32812505 0.5273438,0 1.3359375,-0.1640625 2.0507813,-0.8671875 v 0.7265625 h 1.0898441 z m -1.0898441,8.2617187 c -0.3515625,0.609375 -0.84375,0.9726563 -1.4765625,0.9726563 -0.8789063,0 -1.9101563,-0.6796875 -1.9101563,-2.4609375 0,-1.8984375 1.21875,-2.4726563 2.0507813,-2.4726563 0.5625,0 1.0195312,0.28125 1.3359375,0.7617188 z M 16.200359,-9.69075 h -0.269531 c -0.234375,0.2226562 -0.925781,0.9023437 -2.472656,0.9257812 -0.199219,0 -0.210938,0.011719 -0.210938,0.2695313 v 0.5742187 c 0.867188,0 1.535157,-0.2109375 1.828125,-0.3398437 V -0.831375 H 13.329266 V 6.5625e-4 h 4.617187 V -0.831375 h -1.746094 z m 0,0"
       style="fill:#000000;fill-opacity:1;fill-rule:nonzero;stroke:none"
       aria-label="rd1"
       transform="matrix(1.3333333,0,0,1.3333333,10.157333,121.796)" />
    <path
       id="path8"
       d="M 0,0 H 4.214"
       style="fill:none;stroke:#000000;stroke-width:0.398;stroke-linecap:butt;stroke-linejoin:round;stroke-miterlimit:10;stroke-dasharray:none;stroke-opacity:1"
       transform="matrix(1.3333333,0,0,-1.3333333,36.618667,121.52933)" />
    <path
       id="path9"
       d="M 2.1793984,-9.9485625 H 1.1129922 V 6.5625e-4 H 2.2028359 V -0.643875 c 0.6679688,0.6328125 1.3710938,0.78515625 1.875,0.78515625 1.359375,0 2.6015625,-1.38281255 2.6015625,-3.33984375 0,-1.7695313 -0.9375,-3.3164063 -2.2734375,-3.3164063 -0.421875,0 -1.3359375,0.09375 -2.2265625,0.8085938 z m 0.023437,5.1210937 c 0.2695313,-0.4101562 0.7851563,-0.8203125 1.4882813,-0.8203125 0.8671875,0 1.8984375,0.65625 1.8984375,2.4492188 0,1.8632812 -1.171875,2.484375 -2.0507813,2.484375 -0.3984375,0 -0.6679687,-0.140625 -0.9257812,-0.3515625 C 2.2614297,-1.3587188 2.2028359,-1.6165313 2.2028359,-1.862625 Z M 13.288773,-6.362625 H 12.19893 v 4.1015625 c 0,1.0898437 -0.761719,1.6171875 -1.6875,1.6171875 -1.0078128,0 -1.1132816,-0.375 -1.1132816,-1.0078125 V -6.362625 H 8.3083047 v 4.7695312 c 0,1.03125005 0.328125,1.73437505 1.5117187,1.73437505 0.3984376,0 1.5351566,-0.0703125 2.4023436,-0.85546875 V 6.5625e-4 h 1.066406 z m 5.938477,0.2226562 c -0.914062,-0.4335937 -1.6875,-0.4453125 -2.015625,-0.4453125 -0.328125,0 -2.332031,0 -2.332031,1.8632813 0,0.6328125 0.351562,1.0664062 0.5625,1.265625 0.515625,0.4453125 0.878906,0.515625 1.722656,0.6914062 0.46875,0.09375 1.300781,0.2695313 1.300781,1.03125 0,0.98437505 -1.113281,0.98437505 -1.3125,0.98437505 -0.574218,0 -1.40625,-0.15234375 -2.179687,-0.71484375 l -0.175781,0.97265625 c 0.07031,0.046875 1.042968,0.6328125 2.367187,0.6328125 1.851563,0 2.296875,-1.11328125 2.296875,-1.95703125 0,-0.7382813 -0.445312,-1.1953125 -0.503906,-1.265625 -0.527344,-0.5507813 -0.960938,-0.6328125 -1.839844,-0.8085938 -0.515625,-0.09375 -1.242187,-0.2460937 -1.242187,-0.9609375 0,-0.890625 1.007812,-0.890625 1.183593,-0.890625 0.761719,0 1.371094,0.1757813 2.003907,0.5390625 z m 6.779297,-0.2226562 h -1.078125 c -0.65625,1.6875 -1.757813,4.5 -1.816406,5.53125 h -0.01172 c -0.08203,-0.84375 -0.832031,-2.7421875 -0.949219,-3.0234375 L 21.131547,-6.362625 H 19.994828 L 22.666703,6.5625e-4 22.162797,1.3014375 c -0.316406,0.7265625 -0.527344,0.796875 -0.785156,0.796875 -0.199219,0 -0.667969,-0.046875 -1.113282,-0.2226563 l 0.09375,0.9375 c 0.08203,0.011719 0.550782,0.1171875 1.019532,0.1171875 0.339843,0 1.019531,0 1.628906,-1.5820312 z m 0,0"
       style="fill:#000000;fill-opacity:1;fill-rule:nonzero;stroke:none"
       aria-label="busy"
       transform="matrix(1.3333333,0,0,1.3333333,42.238667,121.796)" />
    <path
       id="path10"
       d="M 0,-61.21866 H 433.57927"
       style="fill:none;stroke:#000000;stroke-width:0.95636;stroke-linecap:round;stroke-linejoin:round;stroke-miterlimit:10;stroke-dasharray:none;stroke-opacity:1"
       transform="matrix(1.3333333,0,0,-1.3333333,90.804,40.172)" />
    <path
       id="path11"
       d="m 2.1796641,-3.1407344 c 0,-1.453125 1.0898437,-2.390625 2.3789062,-2.4140625 v -0.9609375 c -1.3007812,0.023437 -2.0625,0.7734375 -2.4492187,1.3359375 v -1.265625 H 1.1132578 V -1.09375e-4 H 2.1796641 Z M 10.84568,-9.9493281 H 9.7792734 v 4.1835937 c -0.65625,-0.5507812 -1.40625,-0.75 -2.015625,-0.75 -1.3710937,0 -2.484375,1.4648438 -2.484375,3.328125 0,1.8515625 1.0546875,3.32812502 2.4257813,3.32812502 0.5273437,0 1.3359375,-0.1640625 2.0507812,-0.8671875 V -1.09375e-4 H 10.84568 Z m -1.0898441,8.2617187 c -0.3515625,0.609375 -0.84375,0.97265627 -1.4765625,0.97265627 -0.8789062,0 -1.9101562,-0.67968747 -1.9101562,-2.46093747 0,-1.8984375 1.21875,-2.4726563 2.0507812,-2.4726563 0.5625,0 1.0195313,0.28125 1.3359375,0.7617188 z m 6.4423831,-8.0039062 h -0.269531 c -0.234375,0.2226562 -0.925782,0.9023437 -2.472657,0.9257812 -0.199218,0 -0.210937,0.011719 -0.210937,0.2695313 v 0.5742187 c 0.867187,0 1.535156,-0.2109375 1.828125,-0.3398437 v 7.42968747 h -1.746094 v 0.832031255 h 4.617188 V -0.83214063 h -1.746094 z m 0,0"
       style="fill:#000000;fill-opacity:1;fill-rule:nonzero;stroke:none"
       aria-label="rd1"
       transform="matrix(1.3333333,0,0,1.3333333,9.168,162.61733)" />
    <path
       id="path12"
       d="M 0,0 H 4.214"
       style="fill:none;stroke:#000000;stroke-width:0.398;stroke-linecap:butt;stroke-linejoin:round;stroke-miterlimit:10;stroke-dasharray:none;stroke-opacity:1"
       transform="matrix(1.3333333,0,0,-1.3333333,35.629333,162.352)" />
    <path
       id="path13"
       d="M 6.2095078,-6.3633906 H 5.1313828 L 4.0884141,-3.5157344 C 3.8423203,-2.8243281 3.3149766,-1.3008906 3.2212266,-0.77354688 H 3.2095078 C 3.1391953,-1.2774531 2.8579453,-2.0626094 2.6352891,-2.6837031 l -1.3125,-3.6796875 H 0.19778906 L 2.5649766,-1.09375e-4 h 1.2773437 z m 5.8300782,2.15625 c 0,-1.3710938 -0.996094,-2.3789063 -2.3320313,-2.3789063 -0.8554688,0 -1.5,0.1992188 -2.203125,0.609375 l 0.082031,0.9375 c 0.6328125,-0.4570312 1.2890625,-0.7148437 2.1210938,-0.7148437 0.6679685,0 1.2421875,0.5273437 1.2421875,1.5820312 v 0.5859375 c -0.65625,0.023437 -1.5117188,0.070312 -2.3671875,0.3632813 -0.9609375,0.328125 -1.5234375,0.8554687 -1.5234375,1.5703125 0,0.6328125 0.375,1.79296872 1.59375,1.79296872 0.7851562,0 1.792969,-0.22265625 2.320313,-0.66796875 v 0.527343755 h 1.066406 z m -1.089844,2.2851562 c 0,0.28125 0,0.6328125 -0.480469,0.9140625 -0.386718,0.24609377 -0.8671871,0.29296877 -1.0898433,0.29296877 -0.7734375,0 -1.3007813,-0.42187497 -1.3007813,-0.94921877 0,-0.9726562 1.9921876,-1.1953125 2.8710936,-1.1953125 z m 4.379883,-8.0273437 h -1.066406 v 9.949218725 h 1.066406 z m 3.386719,0.2109375 h -1.230469 v 1.2304687 h 1.230469 z m -0.08203,3.375 h -1.066407 v 6.363281225 h 1.066407 z m 7.192382,-3.5859375 H 24.76029 v 4.1835937 c -0.65625,-0.5507812 -1.40625,-0.75 -2.015625,-0.75 -1.371094,0 -2.484375,1.4648438 -2.484375,3.328125 0,1.8515625 1.054688,3.32812502 2.425781,3.32812502 0.527344,0 1.335938,-0.1640625 2.050782,-0.8671875 v 0.726562505 h 1.089843 z m -1.089843,8.2617187 c -0.351563,0.609375 -0.84375,0.97265627 -1.476563,0.97265627 -0.878906,0 -1.910156,-0.67968747 -1.910156,-2.46093747 0,-1.8984375 1.21875,-2.4726563 2.050781,-2.4726563 0.5625,0 1.019531,0.28125 1.335938,0.7617188 z m 0,0"
       style="fill:#000000;fill-opacity:1;fill-rule:nonzero;stroke:none"
       aria-label="valid"
       transform="matrix(1.3333333,0,0,1.3333333,41.248,162.61733)" />
    <path
       id="path14"
       d="m 0,-91.83545 h 107.11958 l 2.55046,15.3028 h 17.85328 20.40371 l 2.55048,-15.3028 h 119.87192 l 2.55046,15.3028 h 17.85327 40.80745 20.40373 l 2.55048,-15.3028 h 79.06445"
       style="fill:none;stroke:#000000;stroke-width:0.95636;stroke-linecap:round;stroke-linejoin:round;stroke-miterlimit:10;stroke-dasharray:none;stroke-opacity:1"
       transform="matrix(1.3333333,0,0,-1.3333333,90.804,40.172)" />
    <path
       id="path15"
       d="m 2.1791484,-3.1396406 c 0,-1.453125 1.0898438,-2.390625 2.3789063,-2.4140625 v -0.9609375 c -1.3007813,0.023437 -2.0625,0.7734375 -2.4492188,1.3359375 v -1.265625 H 1.1127422 V 9.84375e-4 H 2.1791484 Z M 10.845164,-9.9482344 H 9.7787578 v 4.1835938 c -0.65625,-0.5507813 -1.40625,-0.75 -2.015625,-0.75 -1.3710937,0 -2.484375,1.4648437 -2.484375,3.328125 0,1.8515625 1.0546875,3.32812497 2.4257813,3.32812497 0.5273437,0 1.3359375,-0.1640625 2.0507812,-0.8671875 V 9.84375e-4 h 1.0898437 z m -1.0898437,8.2617188 c -0.3515625,0.609375 -0.84375,0.97265622 -1.4765625,0.97265622 -0.8789062,0 -1.9101562,-0.67968752 -1.9101562,-2.46093752 0,-1.8984375 1.21875,-2.4726562 2.0507812,-2.4726562 0.5625,0 1.0195313,0.28125 1.3359375,0.7617187 z m 2.9296877,0.78515622 V 9.84375e-4 h 5.613281 V -0.97167188 h -2.554687 c -0.175782,0 -0.351563,0.0117188 -0.515625,0.0117188 H 13.69282 c 0.363282,-0.38671872 1.699219,-1.71093752 2.636719,-2.54296882 1.054688,-0.9257811 1.96875,-1.8164061 1.96875,-3.1406249 0,-1.5937501 -1.113281,-3.0468751 -3,-3.0468751 -1.546875,0 -2.34375,1.0078125 -2.730469,2.3437501 0.457032,0.5742188 0.457032,0.609375 0.585938,0.7734375 0.363281,-1.5351562 0.890625,-2.2382812 1.957031,-2.2382812 1.230469,0 2.039063,0.9609375 2.039063,2.203125 0,0.7382812 -0.304688,1.5703125 -1.265625,2.5195312 z m 0,0"
       style="fill:#000000;fill-opacity:1;fill-rule:nonzero;stroke:none"
       aria-label="rd2"
       transform="matrix(1.3333333,0,0,1.3333333,51.864,203.444)" />
    <path
       id="path16"
       d="m 0,-122.456 h 25.50465 l 2.55046,15.30282 H 45.90839 66.31212 L 68.86258,-122.456 H 188.7345 l 2.55047,15.30282 h 17.85326 20.40373 l 2.55046,-15.30282 h 201.48685"
       style="fill:none;stroke:#000000;stroke-width:0.95636;stroke-linecap:round;stroke-linejoin:round;stroke-miterlimit:10;stroke-dasharray:none;stroke-opacity:1"
       transform="matrix(1.3333333,0,0,-1.3333333,90.804,40.172)" />
    <path
       id="path17"
       d="m 2.178875,-3.1396172 c 0,-1.453125 1.0898438,-2.390625 2.3789063,-2.4140625 v -0.9609375 c -1.3007813,0.023437 -2.0625,0.7734375 -2.4492188,1.3359375 v -1.265625 H 1.1124688 V 0.00100781 H 2.178875 Z m 8.666016,-6.8085937 H 9.7784844 v 4.1835937 c -0.65625,-0.5507812 -1.40625,-0.75 -2.015625,-0.75 -1.3710938,0 -2.484375,1.4648438 -2.484375,3.328125 0,1.8515625 1.0546875,3.32812501 2.4257812,3.32812501 0.5273438,0 1.3359375,-0.1640625 2.0507813,-0.8671875 v 0.7265625 h 1.0898441 z m -1.0898441,8.2617187 c -0.3515625,0.609375 -0.84375,0.97265626 -1.4765625,0.97265626 -0.8789063,0 -1.9101563,-0.67968746 -1.9101563,-2.46093746 0,-1.8984375 1.21875,-2.4726563 2.0507813,-2.4726563 0.5625,0 1.0195312,0.28125 1.3359375,0.7617188 z m 2.9296871,0.78515626 v 0.90234375 h 5.613282 v -0.97265625 h -2.554688 c -0.175781,0 -0.351562,0.0117188 -0.515625,0.0117188 h -1.535156 c 0.363281,-0.38671866 1.699219,-1.71093746 2.636719,-2.54296866 1.054687,-0.9257813 1.96875,-1.8164063 1.96875,-3.140625 0,-1.59375 -1.113282,-3.046875 -3,-3.046875 -1.546875,0 -2.34375,1.0078125 -2.730469,2.34375 0.457031,0.5742187 0.457031,0.609375 0.585937,0.7734375 0.363282,-1.5351563 0.890625,-2.2382813 1.957032,-2.2382813 1.230468,0 2.039062,0.9609375 2.039062,2.203125 0,0.7382813 -0.304687,1.5703125 -1.265625,2.5195313 z m 0,0"
       style="fill:#000000;fill-opacity:1;fill-rule:nonzero;stroke:none"
       aria-label="rd2"
       transform="matrix(1.3333333,0,0,1.3333333,10.157333,244.276)" />
    <path
       id="path18"
       d="M 0,0 H 4.214"
       style="fill:none;stroke:#000000;stroke-width:0.398;stroke-linecap:butt;stroke-linejoin:round;stroke-miterlimit:10;stroke-dasharray:none;stroke-opacity:1"
       transform="matrix(1.3333333,0,0,-1.3333333,36.618667,244.01067)" />
    <path
       id="path19"
       d="M 2.1793984,-9.9482109 H 1.1129922 v 9.94921871 h 1.0898437 v -0.64453125 c 0.6679688,0.6328125 1.3710938,0.78515625 1.875,0.78515625 1.359375,0 2.6015625,-1.38281251 2.6015625,-3.33984371 0,-1.7695313 -0.9375,-3.3164063 -2.2734375,-3.3164063 -0.421875,0 -1.3359375,0.09375 -2.2265625,0.8085938 z m 0.023437,5.1210937 c 0.2695313,-0.4101562 0.7851563,-0.8203125 1.4882813,-0.8203125 0.8671875,0 1.8984375,0.65625 1.8984375,2.4492188 0,1.8632812 -1.171875,2.48437496 -2.0507813,2.48437496 -0.3984375,0 -0.6679687,-0.140625 -0.9257812,-0.35156246 -0.351562,-0.2929688 -0.4101558,-0.5507813 -0.4101558,-0.796875 z M 13.288773,-6.3622734 H 12.19893 v 4.1015625 c 0,1.0898437 -0.761719,1.61718746 -1.6875,1.61718746 -1.0078128,0 -1.1132816,-0.37499996 -1.1132816,-1.00781246 V -6.3622734 H 8.3083047 v 4.7695312 c 0,1.03125001 0.328125,1.73437501 1.5117187,1.73437501 0.3984376,0 1.5351566,-0.0703125 2.4023436,-0.85546875 v 0.71484375 h 1.066406 z m 5.938477,0.2226562 c -0.914062,-0.4335937 -1.6875,-0.4453125 -2.015625,-0.4453125 -0.328125,0 -2.332031,0 -2.332031,1.8632813 0,0.6328125 0.351562,1.0664062 0.5625,1.265625 0.515625,0.4453125 0.878906,0.515625 1.722656,0.6914062 0.46875,0.09375 1.300781,0.2695313 1.300781,1.03125 0,0.98437501 -1.113281,0.98437501 -1.3125,0.98437501 -0.574218,0 -1.40625,-0.15234375 -2.179687,-0.71484371 l -0.175781,0.97265621 c 0.07031,0.046875 1.042968,0.6328125 2.367187,0.6328125 1.851563,0 2.296875,-1.11328125 2.296875,-1.95703121 0,-0.7382813 -0.445312,-1.1953125 -0.503906,-1.265625 -0.527344,-0.5507813 -0.960938,-0.6328125 -1.839844,-0.8085938 -0.515625,-0.09375 -1.242187,-0.2460937 -1.242187,-0.9609375 0,-0.890625 1.007812,-0.890625 1.183593,-0.890625 0.761719,0 1.371094,0.1757813 2.003907,0.5390625 z m 6.779297,-0.2226562 h -1.078125 c -0.65625,1.6875 -1.757813,4.5 -1.816406,5.53124996 h -0.01172 C 23.018266,-1.6747734 22.268266,-3.5732109 22.151078,-3.8544609 l -1.019531,-2.5078125 h -1.136719 l 2.671875,6.36328121 -0.503906,1.30078129 c -0.316406,0.7265625 -0.527344,0.796875 -0.785156,0.796875 -0.199219,0 -0.667969,-0.046875 -1.113282,-0.2226563 l 0.09375,0.9375 c 0.08203,0.011719 0.550782,0.1171875 1.019532,0.1171875 0.339843,0 1.019531,0 1.628906,-1.5820312 z m 0,0"
       style="fill:#000000;fill-opacity:1;fill-rule:nonzero;stroke:none"
       aria-label="busy"
       transform="matrix(1.3333333,0,0,1.3333333,42.238667,244.276)" />
    <path
       id="path20"
       d="m 0,-153.08025 h 66.31212 l 2.55046,15.3028 h 38.257 l 2.55046,-15.3028 h 119.87192 l 2.55046,15.3028 h 79.06446 l 2.55047,-15.3028 h 119.87192"
       style="fill:none;stroke:#000000;stroke-width:0.95636;stroke-linecap:round;stroke-linejoin:round;stroke-miterlimit:10;stroke-dasharray:none;stroke-opacity:1"
       transform="matrix(1.3333333,0,0,-1.3333333,90.804,40.172)" />
    <path
       id="path21"
       d="m 2.1796641,-3.1406641 c 0,-1.453125 1.0898437,-2.390625 2.3789062,-2.4140625 v -0.9609375 c -1.3007812,0.023437 -2.0625,0.7734375 -2.4492187,1.3359375 v -1.265625 H 1.1132578 V -3.90625e-5 H 2.1796641 Z M 10.84568,-9.9492578 H 9.7792734 v 4.1835937 c -0.65625,-0.5507812 -1.40625,-0.75 -2.015625,-0.75 -1.3710937,0 -2.484375,1.4648438 -2.484375,3.328125 0,1.8515625 1.0546875,3.32812504 2.4257813,3.32812504 0.5273437,0 1.3359375,-0.1640625 2.0507812,-0.8671875 V -3.90625e-5 H 10.84568 Z m -1.0898441,8.2617187 c -0.3515625,0.609375 -0.84375,0.97265629 -1.4765625,0.97265629 -0.8789062,0 -1.9101562,-0.67968749 -1.9101562,-2.46093749 0,-1.8984375 1.21875,-2.4726563 2.0507812,-2.4726563 0.5625,0 1.0195313,0.28125 1.3359375,0.7617188 z m 2.9267581,0.78515629 V -3.90625e-5 h 5.613281 V -0.97269531 h -2.554687 c -0.175782,0 -0.351563,0.0117188 -0.515625,0.0117188 h -1.535157 c 0.363282,-0.38671869 1.699219,-1.71093749 2.636719,-2.54296879 1.054688,-0.9257812 1.96875,-1.8164062 1.96875,-3.1406249 0,-1.5937501 -1.113281,-3.0468751 -3,-3.0468751 -1.546875,0 -2.34375,1.0078125 -2.730469,2.34375 0.457032,0.5742187 0.457032,0.609375 0.585938,0.7734375 0.363281,-1.5351563 0.890625,-2.2382813 1.957031,-2.2382813 1.230469,0 2.039063,0.9609375 2.039063,2.203125 0,0.7382813 -0.304688,1.5703125 -1.265625,2.5195313 z m 0,0"
       style="fill:#000000;fill-opacity:1;fill-rule:nonzero;stroke:none"
       aria-label="rd2"
       transform="matrix(1.3333333,0,0,1.3333333,9.168,285.11333)" />
    <path
       id="path22"
       d="M 0,0 H 4.214"
       style="fill:none;stroke:#000000;stroke-width:0.398;stroke-linecap:butt;stroke-linejoin:round;stroke-miterlimit:10;stroke-dasharray:none;stroke-opacity:1"
       transform="matrix(1.3333333,0,0,-1.3333333,35.629333,284.84667)" />
    <path
       id="path23"
       d="M 6.2095078,-6.3633203 H 5.1313828 L 4.0884141,-3.5156641 C 3.8423203,-2.8242578 3.3149766,-1.3008203 3.2212266,-0.77347656 H 3.2095078 C 3.1391953,-1.2773828 2.8579453,-2.0625391 2.6352891,-2.6836328 l -1.3125,-3.6796875 H 0.19778906 L 2.5649766,-3.90625e-5 h 1.2773437 z m 5.8300782,2.15625 c 0,-1.3710938 -0.996094,-2.3789063 -2.3320313,-2.3789063 -0.8554688,0 -1.5,0.1992188 -2.203125,0.609375 l 0.082031,0.9375 c 0.6328125,-0.4570312 1.2890625,-0.7148437 2.1210938,-0.7148437 0.6679685,0 1.2421875,0.5273437 1.2421875,1.5820312 v 0.5859375 c -0.65625,0.023437 -1.5117188,0.070312 -2.3671875,0.3632813 -0.9609375,0.328125 -1.5234375,0.8554687 -1.5234375,1.5703125 0,0.6328125 0.375,1.79296874 1.59375,1.79296874 0.7851562,0 1.792969,-0.22265625 2.320313,-0.66796875 V -3.90625e-5 h 1.066406 z m -1.089844,2.2851562 c 0,0.28125 0,0.6328125 -0.480469,0.9140625 -0.386718,0.24609379 -0.8671871,0.29296879 -1.0898433,0.29296879 -0.7734375,0 -1.3007813,-0.42187499 -1.3007813,-0.94921879 0,-0.9726562 1.9921876,-1.1953125 2.8710936,-1.1953125 z m 4.379883,-8.0273437 H 14.263219 V -3.90625e-5 h 1.066406 z m 3.386719,0.2109375 h -1.230469 v 1.2304687 h 1.230469 z m -0.08203,3.375 H 17.567906 V -3.90625e-5 h 1.066407 z m 7.192382,-3.5859375 H 24.76029 v 4.1835937 c -0.65625,-0.5507812 -1.40625,-0.75 -2.015625,-0.75 -1.371094,0 -2.484375,1.4648438 -2.484375,3.328125 0,1.8515625 1.054688,3.32812504 2.425781,3.32812504 0.527344,0 1.335938,-0.1640625 2.050782,-0.8671875 V -3.90625e-5 h 1.089843 z m -1.089843,8.2617187 c -0.351563,0.609375 -0.84375,0.97265629 -1.476563,0.97265629 -0.878906,0 -1.910156,-0.67968749 -1.910156,-2.46093749 0,-1.8984375 1.21875,-2.4726563 2.050781,-2.4726563 0.5625,0 1.019531,0.28125 1.335938,0.7617188 z m 0,0"
       style="fill:#000000;fill-opacity:1;fill-rule:nonzero;stroke:none"
       aria-label="valid"
       transform="matrix(1.3333333,0,0,1.3333333,41.248,285.11333)" />
    <path
       id="path24"
       d="m 0,-183.70824 h 147.92703 l 2.55048,15.3028 h 17.85325 20.40374 l 2.55047,-15.3028 h 160.67937 l 2.55048,15.3028 h 17.85325 20.40373 l 2.55047,-15.3028 h 38.257"
       style="fill:none;stroke:#000000;stroke-width:0.95636;stroke-linecap:round;stroke-linejoin:round;stroke-miterlimit:10;stroke-dasharray:none;stroke-opacity:1"
       transform="matrix(1.3333333,0,0,-1.3333333,90.804,40.172)" />
    <path
       id="path25"
       d="M 20.40372,22.9542 V -191.42691 M 40.80745,22.9542 V -191.42691 M 61.21118,22.9542 V -191.42691 M 81.61491,22.9542 V -191.42691 M 102.01865,22.9542 V -191.42691 M 122.42238,22.9542 V -191.42691 M 142.82611,22.9542 V -191.42691 M 163.22984,22.9542 V -191.42691 M 183.63356,22.9542 V -191.42691 M 204.0373,22.9542 V -191.42691 M 224.44102,22.9542 V -191.42691 M 244.84476,22.9542 V -191.42691 M 265.24849,22.9542 V -191.42691 M 285.65222,22.9542 V -191.42691 M 306.05595,22.9542 V -191.42691 M 326.45969,22.9542 V -191.42691 M 346.86342,22.9542 V -191.42691 M 367.26714,22.9542 V -191.42691 M 387.67087,22.9542 V -191.42691 M 408.0746,22.9542 v -214.38111"
       style="fill:none;stroke:#808080;stroke-width:0.59776;stroke-linecap:round;stroke-linejoin:round;stroke-miterlimit:10;stroke-dasharray:none;stroke-opacity:0.5"
       transform="matrix(1.3333333,0,0,-1.3333333,90.804,40.172)" />
    <path
       id="path26"
       d="M 5.2628125,-9.9478984 H 3.9971875 L 0.3878125,0.00132031 H 1.4542188 L 2.4971875,-2.9049297 h 4.0429688 l 1.0664062,2.90625001 h 1.2773438 z m -0.7382812,1.03125 1.7109375,5.203125 h -3.421875 z m 0,0"
       style="fill:#000000;fill-opacity:1;fill-rule:nonzero;stroke:none"
       aria-label="A"
       transform="matrix(1.3333333,0,0,1.3333333,145.82667,80.369333)" />
    <path
       id="path27"
       d="M 5.2611172,-9.9485703 H 3.9954922 L 0.38611719,6.484375e-4 H 1.4525234 L 2.4954922,-2.9056016 H 6.5384609 L 7.6048672,6.484375e-4 h 1.2773437 z m -0.7382813,1.03125 1.7109375,5.203125 h -3.421875 z m 0,0"
       style="fill:#000000;fill-opacity:1;fill-rule:nonzero;stroke:none"
       aria-label="A"
       transform="matrix(1.3333333,0,0,1.3333333,254.64533,162.01867)" />
    <path
       id="path28"
       d="m 1.3370625,-9.9478984 v 9.94921871 h 3.703125 c 2.015625,0 3.4921875,-1.28906251 3.4921875,-2.69531251 0,-1.265625 -1.2421875,-2.2851562 -2.71875,-2.5078125 1.6757813,-0.4570312 2.3203125,-1.4179687 2.3203125,-2.25 0,-1.3007812 -1.4648437,-2.4960937 -3.4804687,-2.4960937 z m 1.1601563,4.3359375 V -9.1510234 H 4.26675 c 1.5234375,0 2.765625,0.7617187 2.765625,1.7109375 0,0.9960937 -1.2421875,1.828125 -2.7539062,1.828125 z m 0,4.80468746 V -4.7447734 H 4.407375 c 1.8515625,0 3,1.03125 3,2.0390625 0,0.9960937 -1.171875,1.89843746 -2.7773437,1.89843746 z m 0,0"
       style="fill:#000000;fill-opacity:1;fill-rule:nonzero;stroke:none"
       aria-label="B"
       transform="matrix(1.3333333,0,0,1.3333333,363.436,80.369333)" />
    <path
       id="path29"
       d="M 1.3353672,-9.9485703 V 6.484375e-4 h 3.703125 c 2.015625,0 3.4921875,-1.2890625375 3.4921875,-2.6953125375 0,-1.265625 -1.2421875,-2.2851562 -2.71875,-2.5078125 1.6757812,-0.4570312 2.3203125,-1.4179687 2.3203125,-2.25 0,-1.3007812 -1.4648438,-2.4960937 -3.4804688,-2.4960937 z m 1.1601562,4.3359375 v -3.5390625 h 1.7695313 c 1.5234375,0 2.765625,0.7617187 2.765625,1.7109375 0,0.9960937 -1.2421875,1.828125 -2.7539063,1.828125 z m 0,4.80468749 V -4.7454453 h 1.9101563 c 1.8515625,0 3,1.03125 3,2.0390625 0,0.9960937 -1.171875,1.89843749 -2.7773438,1.89843749 z m 0,0"
       style="fill:#000000;fill-opacity:1;fill-rule:nonzero;stroke:none"
       aria-label="B"
       transform="matrix(1.3333333,0,0,1.3333333,472.25467,162.01867)" />
    <path
       id="path30"
       d="m 8.1802813,-1.6510234 c -0.8789063,0.6445312 -1.4765625,0.89062496 -2.7304688,0.89062496 -1.8632812,0 -3.28125,-1.93359376 -3.28125,-4.24218746 0,-1.9335938 1.1601563,-4.21875 3.3398438,-4.21875 0.9492187,0 1.6640625,0.28125 2.3789062,0.7734375 l 0.2226563,-1.171875 c -0.9375,-0.3632813 -1.640625,-0.4921876 -2.625,-0.4921876 -2.4492188,0 -4.5351563,2.1562501 -4.5351563,5.1210938 0,3.140625 2.3085938,5.12109376 4.40625,5.12109376 1.4296875,0 1.7460938,-0.08203125 2.90625,-0.78515625 z m 0,0"
       style="fill:#000000;fill-opacity:1;fill-rule:nonzero;stroke:none"
       aria-label="C"
       transform="matrix(1.3333333,0,0,1.3333333,418.07733,80.369333)" />
    <path
       id="path31"
       d="m 8.1785859,-1.6516953 c -0.8789062,0.6445312 -1.4765625,0.89062499 -2.7304687,0.89062499 -1.8632813,0 -3.28125,-1.93359379 -3.28125,-4.24218749 0,-1.9335938 1.1601562,-4.21875 3.3398437,-4.21875 0.9492188,0 1.6640625,0.28125 2.3789063,0.7734375 l 0.2226562,-1.171875 c -0.9375,-0.3632813 -1.640625,-0.4921877 -2.625,-0.4921877 -2.4492187,0 -4.53515621,2.1562502 -4.53515621,5.1210939 0,3.140625 2.30859371,5.12109379 4.40625001,5.12109379 1.4296875,0 1.7460937,-0.08203125 2.90625,-0.78515625 z m 0,0"
       style="fill:#000000;fill-opacity:1;fill-rule:nonzero;stroke:none"
       aria-label="C"
       transform="matrix(1.3333333,0,0,1.3333333,526.896,162.01867)" />
    <path
       id="path32"
       d="M 5.1339063,-5.2512578 8.4971875,-9.9504766 H 7.16125 l -2.625,3.75 -2.6953125,-3.75 H 0.3878125 L 3.926875,-5.2512578 0.2003125,-0.00125781 H 1.5245313 L 4.53625,-4.3957891 7.63,-0.00125781 h 1.4414063 z m 0,0"
       style="fill:#000000;fill-opacity:1;fill-rule:nonzero;stroke:none"
       aria-label="X"
       transform="matrix(1.3333333,0,0,1.3333333,145.82667,202.84933)" />
    <path
       id="path33"
       d="M 5.1328281,-5.2504922 8.4961094,-9.9497109 H 7.1601719 l -2.625,3.75 -2.6953125,-3.75 H 0.38673438 L 3.9257969,-5.2504922 0.19923438,-4.921875e-4 H 1.5234531 L 4.5351719,-4.3950234 l 3.09375,4.3945312125 h 1.4414062 z m 0,0"
       style="fill:#000000;fill-opacity:1;fill-rule:nonzero;stroke:none"
       aria-label="X"
       transform="matrix(1.3333333,0,0,1.3333333,309.05467,284.528)" />
    <path
       id="path34"
       d="M 9.2232891,-9.9504766 H 7.9928203 l -2.4726562,3.7148438 c -0.2695313,0.3984375 -0.5507813,0.84375 -0.7851563,1.2304687 -0.046875,-0.070312 -0.1992187,-0.3632812 -0.8203125,-1.2890625 l -2.4375,-3.65625 H 0.04750781 l 3.98437499,5.9648438 v 3.98437499 H 5.2389141 V -3.9856328 Z m 0,0"
       style="fill:#000000;fill-opacity:1;fill-rule:nonzero;stroke:none"
       aria-label="Y"
       transform="matrix(1.3333333,0,0,1.3333333,363.464,202.84933)" />
    <path
       id="path35"
       d="M 9.2228281,-9.9497109 H 7.9923594 l -2.4726563,3.7148437 c -0.2695312,0.3984375 -0.5507812,0.84375 -0.7851562,1.2304688 -0.046875,-0.070312 -0.1992188,-0.3632813 -0.8203125,-1.2890625 l -2.4375,-3.65625 H 0.04704688 L 4.0314219,-3.9848672 V -4.921875e-4 H 5.2384531 V -3.9848672 Z m 0,0"
       style="fill:#000000;fill-opacity:1;fill-rule:nonzero;stroke:none"
       aria-label="Y"
       transform="matrix(1.3333333,0,0,1.3333333,581.10133,284.528)" />
  </g>
</svg>
