<?xml version="1.0" encoding="UTF-8" standalone="no"?>
<!-- Created with Inkscape (http://www.inkscape.org/) -->

<svg
   version="1.1"
   id="svg1"
   width="516.99335"
   height="142.99068"
   viewBox="0 0 516.99335 142.99068"
   sodipodi:docname="main.pdf"
   xmlns:inkscape="http://www.inkscape.org/namespaces/inkscape"
   xmlns:sodipodi="http://sodipodi.sourceforge.net/DTD/sodipodi-0.dtd"
   xmlns="http://www.w3.org/2000/svg"
   xmlns:svg="http://www.w3.org/2000/svg">
  <defs
     id="defs1" />
  <sodipodi:namedview
     id="namedview1"
     pagecolor="#ffffff"
     bordercolor="#000000"
     borderopacity="0.25"
     inkscape:showpageshadow="2"
     inkscape:pageopacity="0.0"
     inkscape:pagecheckerboard="0"
     inkscape:deskcolor="#d1d1d1">
    <inkscape:page
       x="0"
       y="0"
       inkscape:label="1"
       id="page1"
       width="516.99335"
       height="142.99068"
       margin="0"
       bleed="0" />
  </sodipodi:namedview>
  <g
     id="g1"
     inkscape:groupmode="layer"
     inkscape:label="1">
    <path
       id="path1"
       d="M 0,0 H 387.745 V 107.243 H 0 Z"
       style="fill:#ffffff;fill-opacity:1;fill-rule:nonzero;stroke:none"
       transform="matrix(1.3333333,0,0,-1.3333333,0,142.99067)" />
    <path
       id="path2"
       d="M -133.19952,-81.69177 V 24.5527 H 253.54994 V -81.69177 Z"
       style="fill:#ffffff;fill-opacity:1;fill-rule:nonzero;stroke:none"
       transform="matrix(1.3333333,0,0,-1.3333333,178.264,33.402667)" />
    <path
       id="path3"
       d="m 5.3083438,-0.32797656 c 1.0898437,-0.84375004 1.453125,-2.06250004 1.453125,-3.10546874 0,-2.0976563 -1.4414063,-3.703125 -3.09375,-3.703125 -1.6992188,0 -3.1054688,1.6289062 -3.1054688,3.703125 0,2.109375 1.4648438,3.65624999 3.09375,3.65624999 0.1640625,0 0.5273438,-0.0117188 0.9609375,-0.1875 L 5.4724063,1.2423359 H 6.4919375 Z M 4.2185,-0.50375781 c 0,0 -0.2695312,0.0820313 -0.5507812,0.0820313 -1.171875,0 -2.25,-1.16015619 -2.25,-3.01171879 0,-1.8632812 1.078125,-3.0585938 2.2382812,-3.0585938 1.1953125,0 2.25,1.2070313 2.25,3.0585938 0,0.6445312 -0.1171875,1.734375 -1.0195312,2.54296879 L 4.1013125,-1.9334453 H 3.2224063 Z m 0,0"
       style="fill:#000000;fill-opacity:1;fill-rule:nonzero;stroke:none"
       aria-label="Q"
       transform="matrix(1.3333333,0,0,1.3333333,190.62533,23.769333)" />
    <path
       id="path4"
       d="m 0.9616875,-6.9148203 v 6.9140624875 h 2.6132812 c 1.6992188,0 3.046875,-1.5117187875 3.046875,-3.3984374875 0,-1.9335938 -1.3359375,-3.515625 -3.0585937,-3.515625 z m 0.8554687,6.35156249 V -6.3523203 h 1.5234375 c 1.3945313,0 2.4257813,1.2070312 2.4257813,2.953125 0,1.6992187 -1.03125,2.83593749 -2.4257813,2.83593749 z m 0,0"
       style="fill:#000000;fill-opacity:1;fill-rule:nonzero;stroke:none"
       aria-label="D"
       transform="matrix(1.3333333,0,0,1.3333333,156.124,24.598667)" />
    <path
       id="path5"
       d="M 0,0 H 11.651"
       style="fill:none;stroke:#000000;stroke-width:0.398;stroke-linecap:butt;stroke-linejoin:miter;stroke-miterlimit:10;stroke-dasharray:none;stroke-opacity:1"
       transform="matrix(1.3333333,0,0,-1.3333333,183.91333,47.78)" />
    <path
       id="path6"
       d="m 1.5591406,-2.1325859 c 0,-0.9960938 0.7265625,-1.7109375 1.6992188,-1.734375 v -0.6679688 c -0.890625,0.011719 -1.4296875,0.5039063 -1.7460938,0.9609375 V -4.4880547 H 0.82085937 V 2.265625e-4 H 1.5591406 Z m 5.9707031,-0.046875 c 0,-0.3398438 -0.011719,-1.0898438 -0.3984375,-1.6875 C 6.72125,-4.4880547 6.111875,-4.5935234 5.7603125,-4.5935234 c -1.1132813,0 -2.0039063,1.0546875 -2.0039063,2.34375 0,1.31249996 0.9492188,2.35546871 2.1445313,2.35546871 0.6328125,0 1.1953125,-0.234375 1.59375,-0.515625 L 7.424375,-1.0544609 c -0.6210938,0.51562496 -1.2773438,0.55078121 -1.5117188,0.55078121 -0.796875,0 -1.4296875,-0.70312501 -1.4648437,-1.67578121 z M 4.5064062,-2.7302422 c 0.1523438,-0.7617187 0.6796875,-1.2539062 1.2539063,-1.2539062 0.515625,0 1.0664062,0.3398437 1.1953125,1.2539062 z m 6.7470708,-1.546875 c -0.527344,-0.234375 -0.925782,-0.3164062 -1.4414067,-0.3164062 -0.2460937,0 -1.6523437,0 -1.6523437,1.3007812 0,0.4921875 0.2929687,0.8085938 0.5390625,0.9960938 0.3046875,0.2226562 0.5273437,0.2695312 1.078125,0.375 0.3515629,0.070312 0.9374999,0.1875 0.9374999,0.7148437 0,0.69140626 -0.7851562,0.69140626 -0.9374999,0.69140626 -0.8085938,0 -1.3710938,-0.375 -1.546875,-0.49218746 l -0.1171875,0.67968746 c 0.3164062,0.1640625 0.8671875,0.43359375 1.6757812,0.43359375 0.1757813,0 0.7265622,0 1.1484372,-0.31640625 0.316407,-0.234375 0.480469,-0.6328125 0.480469,-1.06640626 0,-0.5507812 -0.363281,-0.8789062 -0.386719,-0.9140625 -0.386718,-0.3515625 -0.65625,-0.4101562 -1.1601559,-0.5039062 -0.5390625,-0.1054688 -1.0078125,-0.1992188 -1.0078125,-0.6914063 0,-0.6210937 0.7265625,-0.6210937 0.8554687,-0.6210937 0.3164067,0 0.8437497,0.046875 1.4062497,0.3867187 z m 0,0"
       style="fill:#000000;fill-opacity:1;fill-rule:nonzero;stroke:none"
       aria-label="res"
       transform="matrix(1.3333333,0,0,1.3333333,183.91333,55.542667)" />
    <path
       id="path7"
       d="m -20.1248,-5.08101 4.98138,-4.98139 -4.98138,-4.98138"
       style="fill:none;stroke:#000000;stroke-width:0.3985;stroke-linecap:butt;stroke-linejoin:miter;stroke-miterlimit:10;stroke-dasharray:none;stroke-opacity:1"
       transform="matrix(1.3333333,0,0,-1.3333333,178.264,33.402667)" />
    <path
       id="path8"
       d="M -19.92555,-19.92555 H 19.92557 V 19.92557 H -19.92555 Z"
       style="fill:none;stroke:#000000;stroke-width:0.3985;stroke-linecap:butt;stroke-linejoin:miter;stroke-miterlimit:10;stroke-dasharray:none;stroke-opacity:1"
       transform="matrix(1.3333333,0,0,-1.3333333,178.264,33.402667)" />
    <path
       id="path9"
       d="m 5.3071953,-0.32797656 c 1.0898438,-0.84375004 1.453125,-2.06250004 1.453125,-3.10546874 0,-2.0976563 -1.4414062,-3.703125 -3.09375,-3.703125 -1.6992187,0 -3.10546874,1.6289062 -3.10546874,3.703125 0,2.109375 1.46484374,3.65624999 3.09375004,3.65624999 0.1640625,0 0.5273437,-0.0117188 0.9609375,-0.1875 L 5.4712578,1.2423359 H 6.4907891 Z M 4.2173516,-0.50375781 c 0,0 -0.2695313,0.0820313 -0.5507813,0.0820313 -1.171875,0 -2.25,-1.16015619 -2.25,-3.01171879 0,-1.8632812 1.078125,-3.0585938 2.2382813,-3.0585938 1.1953125,0 2.25,1.2070313 2.25,3.0585938 0,0.6445312 -0.1171875,1.734375 -1.0195313,2.54296879 L 4.1001641,-1.9334453 H 3.2212578 Z m 0,0"
       style="fill:#000000;fill-opacity:1;fill-rule:nonzero;stroke:none"
       aria-label="Q"
       transform="matrix(1.3333333,0,0,1.3333333,270.85733,23.769333)" />
    <path
       id="path10"
       d="M 0.96053906,-6.9148203 V -7.578125e-4 H 3.5738203 c 1.6992188,0 3.046875,-1.5117187875 3.046875,-3.3984374875 0,-1.9335938 -1.3359375,-3.515625 -3.0585937,-3.515625 z M 1.8160078,-0.56325781 V -6.3523203 h 1.5234375 c 1.3945313,0 2.4257813,1.2070312 2.4257813,2.953125 0,1.6992187 -1.03125,2.83593749 -2.4257813,2.83593749 z m 0,0"
       style="fill:#000000;fill-opacity:1;fill-rule:nonzero;stroke:none"
       aria-label="D"
       transform="matrix(1.3333333,0,0,1.3333333,236.356,24.598667)" />
    <path
       id="path11"
       d="M 0,0 H 11.651"
       style="fill:none;stroke:#000000;stroke-width:0.398;stroke-linecap:butt;stroke-linejoin:miter;stroke-miterlimit:10;stroke-dasharray:none;stroke-opacity:1"
       transform="matrix(1.3333333,0,0,-1.3333333,264.14533,47.78)" />
    <path
       id="path12"
       d="m 1.5579922,-2.1325859 c 0,-0.9960938 0.7265625,-1.7109375 1.6992187,-1.734375 v -0.6679688 c -0.890625,0.011719 -1.4296875,0.5039063 -1.7460937,0.9609375 V -4.4880547 H 0.81971094 V 2.265625e-4 H 1.5579922 Z m 5.9707031,-0.046875 c 0,-0.3398438 -0.011719,-1.0898438 -0.3984375,-1.6875 -0.4101562,-0.6210938 -1.0195312,-0.7265625 -1.3710937,-0.7265625 -1.1132813,0 -2.0039063,1.0546875 -2.0039063,2.34375 0,1.31249996 0.9492188,2.35546871 2.1445313,2.35546871 0.6328125,0 1.1953125,-0.234375 1.59375,-0.515625 L 7.4232266,-1.0544609 c -0.6210938,0.51562496 -1.2773438,0.55078121 -1.5117188,0.55078121 -0.796875,0 -1.4296875,-0.70312501 -1.4648437,-1.67578121 z M 4.5052578,-2.7302422 c 0.1523438,-0.7617187 0.6796875,-1.2539062 1.2539063,-1.2539062 0.515625,0 1.0664062,0.3398437 1.1953125,1.2539062 z m 6.7470702,-1.546875 c -0.527344,-0.234375 -0.925781,-0.3164062 -1.4414061,-0.3164062 -0.2460938,0 -1.6523438,0 -1.6523438,1.3007812 0,0.4921875 0.2929688,0.8085938 0.5390625,0.9960938 0.3046875,0.2226562 0.5273438,0.2695312 1.078125,0.375 0.3515624,0.070312 0.9375004,0.1875 0.9375004,0.7148437 0,0.69140626 -0.7851566,0.69140626 -0.9375004,0.69140626 -0.8085937,0 -1.3710937,-0.375 -1.546875,-0.49218746 l -0.1171875,0.67968746 c 0.3164063,0.1640625 0.8671875,0.43359375 1.6757813,0.43359375 0.1757812,0 0.7265626,0 1.1484376,-0.31640625 0.316406,-0.234375 0.480469,-0.6328125 0.480469,-1.06640626 0,-0.5507812 -0.363282,-0.8789062 -0.386719,-0.9140625 -0.386719,-0.3515625 -0.65625,-0.4101562 -1.1601564,-0.5039062 -0.5390625,-0.1054688 -1.0078125,-0.1992188 -1.0078125,-0.6914063 0,-0.6210937 0.7265625,-0.6210937 0.8554688,-0.6210937 0.3164061,0 0.8437501,0.046875 1.4062501,0.3867187 z m 0,0"
       style="fill:#000000;fill-opacity:1;fill-rule:nonzero;stroke:none"
       aria-label="res"
       transform="matrix(1.3333333,0,0,1.3333333,264.14533,55.542667)" />
    <path
       id="path13"
       d="m 40.05037,-5.08101 4.98138,-4.98139 -4.98138,-4.98138"
       style="fill:none;stroke:#000000;stroke-width:0.3985;stroke-linecap:butt;stroke-linejoin:miter;stroke-miterlimit:10;stroke-dasharray:none;stroke-opacity:1"
       transform="matrix(1.3333333,0,0,-1.3333333,178.264,33.402667)" />
    <path
       id="path14"
       d="M 40.24963,-19.92555 H 80.10075 V 19.92557 H 40.24963 Z"
       style="fill:none;stroke:#000000;stroke-width:0.3985;stroke-linecap:butt;stroke-linejoin:miter;stroke-miterlimit:10;stroke-dasharray:none;stroke-opacity:1"
       transform="matrix(1.3333333,0,0,-1.3333333,178.264,33.402667)" />
    <path
       id="path15"
       d="m 5.3079766,-0.32797656 c 1.0898437,-0.84375004 1.453125,-2.06250004 1.453125,-3.10546874 0,-2.0976563 -1.4414063,-3.703125 -3.09375,-3.703125 -1.6992188,0 -3.10546879,1.6289062 -3.10546879,3.703125 0,2.109375 1.46484379,3.65624999 3.09374999,3.65624999 0.1640625,0 0.5273438,-0.0117188 0.9609375,-0.1875 L 5.4720391,1.2423359 H 6.4915703 Z M 4.2181328,-0.50375781 c 0,0 -0.2695312,0.0820313 -0.5507812,0.0820313 -1.171875,0 -2.25,-1.16015619 -2.25,-3.01171879 0,-1.8632812 1.078125,-3.0585938 2.2382812,-3.0585938 1.1953125,0 2.25,1.2070313 2.25,3.0585938 0,0.6445312 -0.1171875,1.734375 -1.0195312,2.54296879 L 4.1009453,-1.9334453 H 3.2220391 Z m 0,0"
       style="fill:#000000;fill-opacity:1;fill-rule:nonzero;stroke:none"
       aria-label="Q"
       transform="matrix(1.3333333,0,0,1.3333333,351.09067,23.769333)" />
    <path
       id="path16"
       d="M 0.96132031,-6.9148203 V -7.578125e-4 H 3.5746016 c 1.6992187,0 3.046875,-1.5117187875 3.046875,-3.3984374875 0,-1.9335938 -1.3359375,-3.515625 -3.0585938,-3.515625 z M 1.8167891,-0.56325781 V -6.3523203 h 1.5234375 c 1.3945312,0 2.4257812,1.2070312 2.4257812,2.953125 0,1.6992187 -1.03125,2.83593749 -2.4257812,2.83593749 z m 0,0"
       style="fill:#000000;fill-opacity:1;fill-rule:nonzero;stroke:none"
       aria-label="D"
       transform="matrix(1.3333333,0,0,1.3333333,316.58933,24.598667)" />
    <path
       id="path17"
       d="M 0,0 H 11.651"
       style="fill:none;stroke:#000000;stroke-width:0.398;stroke-linecap:butt;stroke-linejoin:miter;stroke-miterlimit:10;stroke-dasharray:none;stroke-opacity:1"
       transform="matrix(1.3333333,0,0,-1.3333333,344.37867,47.78)" />
    <path
       id="path18"
       d="m 1.5587734,-2.1325859 c 0,-0.9960938 0.7265625,-1.7109375 1.6992188,-1.734375 v -0.6679688 c -0.890625,0.011719 -1.4296875,0.5039063 -1.7460938,0.9609375 V -4.4880547 H 0.82049219 V 2.265625e-4 H 1.5587734 Z m 5.9707032,-0.046875 c 0,-0.3398438 -0.011719,-1.0898438 -0.3984375,-1.6875 -0.4101563,-0.6210938 -1.0195313,-0.7265625 -1.3710938,-0.7265625 -1.1132812,0 -2.0039062,1.0546875 -2.0039062,2.34375 0,1.31249996 0.9492187,2.35546871 2.1445312,2.35546871 0.6328125,0 1.1953125,-0.234375 1.59375,-0.515625 L 7.4240078,-1.0544609 c -0.6210937,0.51562496 -1.2773437,0.55078121 -1.5117187,0.55078121 -0.796875,0 -1.4296875,-0.70312501 -1.4648438,-1.67578121 z M 4.5060391,-2.7302422 c 0.1523437,-0.7617187 0.6796875,-1.2539062 1.2539062,-1.2539062 0.515625,0 1.0664063,0.3398437 1.1953125,1.2539062 z m 6.7470699,-1.546875 c -0.527343,-0.234375 -0.925781,-0.3164062 -1.4414059,-0.3164062 -0.2460937,0 -1.6523437,0 -1.6523437,1.3007812 0,0.4921875 0.2929687,0.8085938 0.5390625,0.9960938 0.3046875,0.2226562 0.5273437,0.2695312 1.078125,0.375 0.3515621,0.070312 0.9375001,0.1875 0.9375001,0.7148437 0,0.69140626 -0.7851564,0.69140626 -0.9375001,0.69140626 -0.8085938,0 -1.3710938,-0.375 -1.546875,-0.49218746 l -0.1171875,0.67968746 c 0.3164062,0.1640625 0.8671875,0.43359375 1.6757812,0.43359375 0.1757813,0 0.7265624,0 1.1484374,-0.31640625 0.316406,-0.234375 0.480469,-0.6328125 0.480469,-1.06640626 0,-0.5507812 -0.363281,-0.8789062 -0.386719,-0.9140625 -0.386719,-0.3515625 -0.65625,-0.4101562 -1.1601561,-0.5039062 -0.5390625,-0.1054688 -1.0078125,-0.1992188 -1.0078125,-0.6914063 0,-0.6210937 0.7265625,-0.6210937 0.8554687,-0.6210937 0.3164059,0 0.8437499,0.046875 1.4062499,0.3867187 z m 0,0"
       style="fill:#000000;fill-opacity:1;fill-rule:nonzero;stroke:none"
       aria-label="res"
       transform="matrix(1.3333333,0,0,1.3333333,344.37867,55.542667)" />
    <path
       id="path19"
       d="m 100.22557,-5.08101 4.98138,-4.98139 -4.98138,-4.98138"
       style="fill:none;stroke:#000000;stroke-width:0.3985;stroke-linecap:butt;stroke-linejoin:miter;stroke-miterlimit:10;stroke-dasharray:none;stroke-opacity:1"
       transform="matrix(1.3333333,0,0,-1.3333333,178.264,33.402667)" />
    <path
       id="path20"
       d="m 100.42484,-19.92555 h 39.85112 v 39.85112 h -39.85112 z"
       style="fill:none;stroke:#000000;stroke-width:0.3985;stroke-linecap:butt;stroke-linejoin:miter;stroke-miterlimit:10;stroke-dasharray:none;stroke-opacity:1"
       transform="matrix(1.3333333,0,0,-1.3333333,178.264,33.402667)" />
    <path
       id="path21"
       d="m 178.7848,17.23555 -9.96278,-7.17315 9.96278,-7.17316 h 70.13799 v 14.34631 z"
       style="fill:none;stroke:#000000;stroke-width:0.3985;stroke-linecap:butt;stroke-linejoin:miter;stroke-miterlimit:10;stroke-dasharray:none;stroke-opacity:1"
       transform="matrix(1.3333333,0,0,-1.3333333,178.264,33.402667)" />
    <path
       id="path22"
       d="m 4.3232188,-6.9135234 h -0.75 v 2.9296875 c -0.5273438,-0.4335938 -1.078125,-0.5507813 -1.453125,-0.5507813 -0.984375,0 -1.75781255,1.0429688 -1.75781255,2.3203125 0,1.31250001 0.76171875,2.32031251 1.71093755,2.32031251 0.328125,0 0.9140625,-0.08203125 1.4765625,-0.62109375 V 5.390625e-4 h 0.7734375 z m -0.7734375,5.53125 c 0,0.140625 -0.011719,0.3164062 -0.328125,0.60937496 -0.234375,0.19921875 -0.4804688,0.26953125 -0.7382813,0.26953125 -0.6210937,0 -1.3476562,-0.45703125 -1.3476562,-1.69921871 0,-1.3125 0.8554687,-1.7226563 1.4414062,-1.7226563 0.4453125,0 0.75,0.234375 0.9726563,0.5507813 z m 5.5693359,-1.5 c 0,-1.0078125 -0.7265625,-1.7109375 -1.640625,-1.7109375 -0.6445313,0 -1.1015625,0.1640625 -1.5703125,0.4335937 l 0.070312,0.65625 c 0.515625,-0.375 1.0078125,-0.5039062 1.5,-0.5039062 0.46875,0 0.8671875,0.3984375 0.8671875,1.1367187 v 0.4335938 c -1.5,0.011719 -2.765625,0.4335937 -2.765625,1.3125 0,0.42187496 0.2695312,1.23046871 1.1367187,1.23046871 0.140625,0 1.078125,-0.01171875 1.6523438,-0.46875 V 5.390625e-4 h 0.75 z m -0.7734375,1.5703125 c 0,0.1875 0,0.43359371 -0.3398438,0.62109371 -0.2929687,0.1875 -0.6679687,0.1875 -0.7734375,0.1875 -0.4804687,0 -0.9257812,-0.22265625 -0.9257812,-0.64453121 0,-0.6914063 1.6054687,-0.7617188 2.0390625,-0.7851563 z m 3.3369143,-2.53125 h 1.40625 v -0.5742188 h -1.40625 v -1.265625 h -0.691406 v 1.265625 H 10.124 v 0.5742188 h 0.84375 v 2.6601562 c 0,0.59765626 0.128906,1.28906251 0.820313,1.28906251 0.703125,0 1.207031,-0.24609375 1.453125,-0.375 l -0.152344,-0.5859375 c -0.257813,0.2109375 -0.585938,0.328125 -0.902344,0.328125 -0.363281,0 -0.503906,-0.3046875 -0.503906,-0.83203121 z m 5.824219,0.9609375 c 0,-1.0078125 -0.726563,-1.7109375 -1.640625,-1.7109375 -0.644532,0 -1.101563,0.1640625 -1.570313,0.4335937 l 0.07031,0.65625 c 0.515625,-0.375 1.007812,-0.5039062 1.5,-0.5039062 0.46875,0 0.867187,0.3984375 0.867187,1.1367187 v 0.4335938 c -1.5,0.011719 -2.765625,0.4335937 -2.765625,1.3125 0,0.42187496 0.269531,1.23046871 1.136719,1.23046871 0.140625,0 1.078125,-0.01171875 1.652344,-0.46875 V 5.390625e-4 h 0.75 z m -0.773438,1.5703125 c 0,0.1875 0,0.43359371 -0.339844,0.62109371 -0.292968,0.1875 -0.667968,0.1875 -0.773437,0.1875 -0.480469,0 -0.925781,-0.22265625 -0.925781,-0.64453121 0,-0.6914063 1.605468,-0.7617188 2.039062,-0.7851563 z m 0,0"
       style="fill:#000000;fill-opacity:1;fill-rule:nonzero;stroke:none"
       aria-label="data"
       transform="matrix(1.3333333,0,0,1.3333333,433.00133,24.636)" />
    <path
       id="path23"
       d="M 0,0 H 2.989"
       style="fill:none;stroke:#000000;stroke-width:0.398;stroke-linecap:butt;stroke-linejoin:miter;stroke-miterlimit:10;stroke-dasharray:none;stroke-opacity:1"
       transform="matrix(1.3333333,0,0,-1.3333333,458.22533,24.370667)" />
    <path
       id="path24"
       d="m 4.6759844,-2.1908672 c 0,-1.3359375 -0.9960938,-2.4023437 -2.1796875,-2.4023437 -1.2304688,0 -2.19140628,1.1015625 -2.19140628,2.4023437 0,1.31250001 1.00781248,2.29687501 2.17968748,2.29687501 1.1953125,0 2.1914063,-1.0078125 2.1914063,-2.29687501 z m -2.1914063,1.66406251 c -0.6914062,0 -1.40625,-0.56250001 -1.40625,-1.76953121 0,-1.1953125 0.75,-1.6875 1.40625,-1.6875 0.6914063,0 1.40625,0.515625 1.40625,1.6875 0,1.1835937 -0.6679687,1.76953121 -1.40625,1.76953121 z M 9.3166094,-4.4174297 H 8.5314531 v 2.8828125 c 0,0.75000001 -0.5507812,1.10156251 -1.1953125,1.10156251 -0.703125,0 -0.7734375,-0.26953125 -0.7734375,-0.69140621 V -4.4174297 H 5.7892656 v 3.328125 c 0,0.72656251 0.2226563,1.19531251 1.0546875,1.19531251 0.5273438,0 1.2304688,-0.15234375 1.7226563,-0.5859375 V 5.390625e-4 h 0.75 z m 2.5576176,0.5742188 h 1.40625 v -0.5742188 h -1.40625 v -1.265625 H 11.18282 v 1.265625 h -0.867187 v 0.5742188 h 0.84375 v 2.6601562 c 0,0.59765626 0.128906,1.28906251 0.820312,1.28906251 0.703125,0 1.207032,-0.24609375 1.453125,-0.375 l -0.152343,-0.5859375 c -0.257813,0.2109375 -0.585938,0.328125 -0.902344,0.328125 -0.363281,0 -0.503906,-0.3046875 -0.503906,-0.83203121 z m 0,0"
       style="fill:#000000;fill-opacity:1;fill-rule:nonzero;stroke:none"
       aria-label="out"
       transform="matrix(1.3333333,0,0,1.3333333,462.21067,24.636)" />
    <path
       id="path25"
       d="M -128.57239,17.23555 V 2.88924 h 70.138 l 9.96279,7.17316 -9.96279,7.17315 z"
       style="fill:none;stroke:#000000;stroke-width:0.3985;stroke-linecap:butt;stroke-linejoin:miter;stroke-miterlimit:10;stroke-dasharray:none;stroke-opacity:1"
       transform="matrix(1.3333333,0,0,-1.3333333,178.264,33.402667)" />
    <path
       id="path26"
       d="m 4.3241797,-6.9135234 h -0.75 v 2.9296875 c -0.5273438,-0.4335938 -1.078125,-0.5507813 -1.453125,-0.5507813 -0.984375,0 -1.75781251,1.0429688 -1.75781251,2.3203125 0,1.31250001 0.76171871,2.32031251 1.71093751,2.32031251 0.328125,0 0.9140625,-0.08203125 1.4765625,-0.62109375 V 5.390625e-4 h 0.7734375 z m -0.7734375,5.53125 c 0,0.140625 -0.011719,0.3164062 -0.328125,0.60937496 -0.234375,0.19921875 -0.4804688,0.26953125 -0.7382813,0.26953125 -0.6210937,0 -1.3476562,-0.45703125 -1.3476562,-1.69921871 0,-1.3125 0.8554687,-1.7226563 1.4414062,-1.7226563 0.4453125,0 0.75,0.234375 0.9726563,0.5507813 z m 5.5693359,-1.5 c 0,-1.0078125 -0.7265625,-1.7109375 -1.640625,-1.7109375 -0.6445312,0 -1.1015625,0.1640625 -1.5703125,0.4335937 l 0.070312,0.65625 c 0.515625,-0.375 1.0078125,-0.5039062 1.5,-0.5039062 0.46875,0 0.8671875,0.3984375 0.8671875,1.1367187 v 0.4335938 c -1.5,0.011719 -2.765625,0.4335937 -2.765625,1.3125 0,0.42187496 0.2695313,1.23046871 1.1367188,1.23046871 0.140625,0 1.078125,-0.01171875 1.6523437,-0.46875 V 5.390625e-4 h 0.75 z m -0.7734375,1.5703125 c 0,0.1875 0,0.43359371 -0.3398437,0.62109371 -0.2929688,0.1875 -0.6679688,0.1875 -0.7734375,0.1875 -0.4804688,0 -0.9257813,-0.22265625 -0.9257813,-0.64453121 0,-0.6914063 1.6054688,-0.7617188 2.0390625,-0.7851563 z m 3.3339844,-2.53125 h 1.40625 v -0.5742188 h -1.40625 v -1.265625 h -0.691406 v 1.265625 h -0.867188 v 0.5742188 h 0.84375 v 2.6601562 c 0,0.59765626 0.128906,1.28906251 0.820313,1.28906251 0.703125,0 1.207031,-0.24609375 1.453125,-0.375 l -0.152344,-0.5859375 c -0.257813,0.2109375 -0.585938,0.328125 -0.902344,0.328125 -0.363281,0 -0.503906,-0.3046875 -0.503906,-0.83203121 z m 5.824219,0.9609375 c 0,-1.0078125 -0.726563,-1.7109375 -1.640625,-1.7109375 -0.644532,0 -1.101563,0.1640625 -1.570313,0.4335937 l 0.07031,0.65625 c 0.515625,-0.375 1.007812,-0.5039062 1.5,-0.5039062 0.46875,0 0.867187,0.3984375 0.867187,1.1367187 v 0.4335938 c -1.5,0.011719 -2.765625,0.4335937 -2.765625,1.3125 0,0.42187496 0.269531,1.23046871 1.136719,1.23046871 0.140625,0 1.078125,-0.01171875 1.652344,-0.46875 V 5.390625e-4 h 0.75 z m -0.773438,1.5703125 c 0,0.1875 0,0.43359371 -0.339844,0.62109371 -0.292968,0.1875 -0.667968,0.1875 -0.773437,0.1875 -0.480469,0 -0.925781,-0.22265625 -0.925781,-0.64453121 0,-0.6914063 1.605468,-0.7617188 2.039062,-0.7851563 z m 0,0"
       style="fill:#000000;fill-opacity:1;fill-rule:nonzero;stroke:none"
       aria-label="data"
       transform="matrix(1.3333333,0,0,1.3333333,40.613333,24.636)" />
    <path
       id="path27"
       d="M 0,0 H 2.989"
       style="fill:none;stroke:#000000;stroke-width:0.398;stroke-linecap:butt;stroke-linejoin:miter;stroke-miterlimit:10;stroke-dasharray:none;stroke-opacity:1"
       transform="matrix(1.3333333,0,0,-1.3333333,65.837333,24.370667)" />
    <path
       id="path28"
       d="M 1.6300703,-6.7728984 H 0.73944531 v 0.890625 H 1.6300703 Z m -0.070312,2.3554687 H 0.80975781 V 5.390625e-4 H 1.5597578 Z m 5.15625,1.453125 c 0,-0.65625 -0.1523437,-1.5703125 -1.3710937,-1.5703125 -0.890625,0 -1.3828125,0.6796875 -1.4414063,0.7617188 V -4.4877422 H 3.1886641 V 5.390625e-4 H 3.9621016 V -2.4369609 c 0,-0.65625 0.2460937,-1.4882813 1.0078125,-1.4882813 0.9609375,0 0.9609375,0.703125 0.9609375,1.03125 V 5.390625e-4 h 0.7851562 z m 0,0"
       style="fill:#000000;fill-opacity:1;fill-rule:nonzero;stroke:none"
       aria-label="in"
       transform="matrix(1.3333333,0,0,1.3333333,69.822667,24.636)" />
    <path
       id="path29"
       d="m -48.4716,10.0624 h 28.3468"
       style="fill:none;stroke:#000000;stroke-width:0.3985;stroke-linecap:butt;stroke-linejoin:miter;stroke-miterlimit:10;stroke-dasharray:none;stroke-opacity:1"
       transform="matrix(1.3333333,0,0,-1.3333333,178.264,33.402667)" />
    <path
       id="path30"
       d="M 168.82202,10.0624 H 140.4752"
       style="fill:none;stroke:#000000;stroke-width:0.3985;stroke-linecap:butt;stroke-linejoin:miter;stroke-miterlimit:10;stroke-dasharray:none;stroke-opacity:1"
       transform="matrix(1.3333333,0,0,-1.3333333,178.264,33.402667)" />
    <path
       id="path31"
       d="M 20.1248,10.0624 H 40.05037"
       style="fill:none;stroke:#000000;stroke-width:0.3985;stroke-linecap:butt;stroke-linejoin:miter;stroke-miterlimit:10;stroke-dasharray:none;stroke-opacity:1"
       transform="matrix(1.3333333,0,0,-1.3333333,178.264,33.402667)" />
    <path
       id="path32"
       d="m 80.3,10.0624 h 19.92557"
       style="fill:none;stroke:#000000;stroke-width:0.3985;stroke-linecap:butt;stroke-linejoin:miter;stroke-miterlimit:10;stroke-dasharray:none;stroke-opacity:1"
       transform="matrix(1.3333333,0,0,-1.3333333,178.264,33.402667)" />
    <path
       id="path33"
       d="m -128.57239,-38.40921 v -14.34631 h 70.138 l 9.96279,7.17315 -9.96279,7.17316 z"
       style="fill:none;stroke:#000000;stroke-width:0.3985;stroke-linecap:butt;stroke-linejoin:miter;stroke-miterlimit:10;stroke-dasharray:none;stroke-opacity:1"
       transform="matrix(1.3333333,0,0,-1.3333333,178.264,33.402667)" />
    <path
       id="path34"
       d="m 4.0887578,-4.1600625 c -0.5976562,-0.3398438 -0.9375,-0.4335938 -1.5351562,-0.4335938 -1.3945313,0 -2.19140629,1.2070313 -2.19140629,2.3789063 0,1.2421875 0.90234379,2.3203125 2.14453129,2.3203125 0.5390625,0 1.0898437,-0.140625 1.6289062,-0.50390625 L 4.0770391,-1.0663125 C 3.5614141,-0.667875 3.0223516,-0.52725 2.5184453,-0.52725 c -0.8203125,0 -1.3828125,-0.7148438 -1.3828125,-1.6992188 0,-0.7734375 0.3632813,-1.7226562 1.4179688,-1.7226562 0.5273437,0 0.8671875,0.070312 1.40625,0.4335937 z m 1.8984375,-2.7539063 h -0.75 V 9.375e-5 h 0.75 z M 9.6082891,-2.7069375 11.28407,-4.417875 h -0.902343 l -2.0156254,2.0625 V -6.9139688 H 7.6395391 V 9.375e-5 H 8.3309453 V -1.4061563 L 9.1278203,-2.2264688 10.686414,9.375e-5 h 0.808594 z m 0,0"
       style="fill:#000000;fill-opacity:1;fill-rule:nonzero;stroke:none"
       aria-label="clk"
       transform="matrix(1.3333333,0,0,1.3333333,52.450667,98.828)" />
    <path
       id="path35"
       d="m -20.1248,-10.0624 h -9.96279 V -45.58237 H -48.4716"
       style="fill:none;stroke:#000000;stroke-width:0.3985;stroke-linecap:butt;stroke-linejoin:miter;stroke-miterlimit:10;stroke-dasharray:none;stroke-opacity:1"
       transform="matrix(1.3333333,0,0,-1.3333333,178.264,33.402667)" />
    <path
       id="path36"
       d="m -28.84224,-45.58237 c 0,0.68779 -0.55756,1.24535 -1.24535,1.24535 -0.68777,0 -1.24534,-0.55756 -1.24534,-1.24535 0,-0.68777 0.55757,-1.24534 1.24534,-1.24534 0.68779,0 1.24535,0.55757 1.24535,1.24534 z"
       style="fill:#000000;fill-opacity:1;fill-rule:nonzero;stroke:none"
       transform="matrix(1.3333333,0,0,-1.3333333,178.264,33.402667)" />
    <path
       id="path37"
       d="M 40.05037,-10.0624 H 30.08759 V -45.58237 H -28.84224"
       style="fill:none;stroke:#000000;stroke-width:0.3985;stroke-linecap:butt;stroke-linejoin:miter;stroke-miterlimit:10;stroke-dasharray:none;stroke-opacity:1"
       transform="matrix(1.3333333,0,0,-1.3333333,178.264,33.402667)" />
    <path
       id="path38"
       d="m 31.33293,-45.58237 c 0,0.68779 -0.55757,1.24535 -1.24534,1.24535 -0.68779,0 -1.24535,-0.55756 -1.24535,-1.24535 0,-0.68777 0.55756,-1.24534 1.24535,-1.24534 0.68777,0 1.24534,0.55757 1.24534,1.24534 z"
       style="fill:#000000;fill-opacity:1;fill-rule:nonzero;stroke:none"
       transform="matrix(1.3333333,0,0,-1.3333333,178.264,33.402667)" />
    <path
       id="path39"
       d="M 100.22557,-10.0624 H 90.26279 V -45.58237 H 31.33293"
       style="fill:none;stroke:#000000;stroke-width:0.3985;stroke-linecap:butt;stroke-linejoin:miter;stroke-miterlimit:10;stroke-dasharray:none;stroke-opacity:1"
       transform="matrix(1.3333333,0,0,-1.3333333,178.264,33.402667)" />
    <path
       id="path40"
       d="m -128.57239,-62.7183 v -14.34632 h 70.138 l 9.96279,7.17316 -9.96279,7.17316 z"
       style="fill:none;stroke:#000000;stroke-width:0.3985;stroke-linecap:butt;stroke-linejoin:miter;stroke-miterlimit:10;stroke-dasharray:none;stroke-opacity:1"
       transform="matrix(1.3333333,0,0,-1.3333333,178.264,33.402667)" />
    <path
       id="path41"
       d="m 1.5599219,-2.1341016 c 0,-0.9960937 0.7265625,-1.7109375 1.6992187,-1.734375 v -0.6679687 c -0.890625,0.011719 -1.4296875,0.5039062 -1.7460937,0.9609375 V -4.4895703 H 0.82164062 v 4.48828124 H 1.5599219 Z m 5.9707031,-0.046875 c 0,-0.3398437 -0.011719,-1.0898437 -0.3984375,-1.6875 -0.4101563,-0.6210937 -1.0195313,-0.7265625 -1.3710938,-0.7265625 -1.1132812,0 -2.0039062,1.0546875 -2.0039062,2.34375 0,1.31250004 0.9492187,2.35546879 2.1445312,2.35546879 0.6328125,0 1.1953125,-0.234375 1.59375,-0.515625 L 7.4251562,-1.0559766 c -0.6210937,0.51562504 -1.2773437,0.55078129 -1.5117187,0.55078129 -0.796875,0 -1.4296875,-0.70312499 -1.4648438,-1.67578129 z M 4.5071875,-2.7317578 c 0.1523437,-0.7617188 0.6796875,-1.2539063 1.2539062,-1.2539063 0.515625,0 1.0664063,0.3398438 1.1953125,1.2539063 z m 6.7470705,-1.546875 c -0.527344,-0.234375 -0.925781,-0.3164063 -1.4414064,-0.3164063 -0.2460938,0 -1.6523438,0 -1.6523438,1.3007813 0,0.4921875 0.2929688,0.8085937 0.5390625,0.9960937 0.3046875,0.2226563 0.5273438,0.2695313 1.078125,0.375 0.3515627,0.070312 0.9374997,0.1875 0.9374997,0.7148438 0,0.69140624 -0.7851559,0.69140624 -0.9374997,0.69140624 -0.8085937,0 -1.3710937,-0.375 -1.546875,-0.49218754 l -0.1171875,0.67968754 c 0.3164063,0.1640625 0.8671875,0.43359375 1.6757813,0.43359375 0.1757812,0 0.7265629,0 1.1484379,-0.31640625 0.316406,-0.234375 0.480468,-0.6328125 0.480468,-1.06640624 0,-0.5507813 -0.363281,-0.8789063 -0.386718,-0.9140625 -0.386719,-0.3515625 -0.65625,-0.4101563 -1.1601567,-0.5039063 -0.5390625,-0.1054687 -1.0078125,-0.1992187 -1.0078125,-0.6914062 0,-0.6210938 0.7265625,-0.6210938 0.8554688,-0.6210938 0.3164064,0 0.8437504,0.046875 1.4062504,0.3867188 z m 0,0"
       style="fill:#000000;fill-opacity:1;fill-rule:nonzero;stroke:none"
       aria-label="res"
       transform="matrix(1.3333333,0,0,1.3333333,46.646667,131.24)" />
    <path
       id="path42"
       d="M 0,0 H 2.989"
       style="fill:none;stroke:#000000;stroke-width:0.398;stroke-linecap:butt;stroke-linejoin:miter;stroke-miterlimit:10;stroke-dasharray:none;stroke-opacity:1"
       transform="matrix(1.3333333,0,0,-1.3333333,62.977333,130.97333)" />
    <path
       id="path43"
       d="m 4.3346406,-2.9661328 c 0,-0.65625 -0.1523437,-1.5703125 -1.3710937,-1.5703125 -0.890625,0 -1.3828125,0.6796875 -1.4414063,0.7617187 V -4.4895703 H 0.80729687 v 4.48828124 H 1.5807344 V -2.4387891 c 0,-0.65625 0.2460937,-1.4882812 1.0078125,-1.4882812 0.9609375,0 0.9609375,0.703125 0.9609375,1.03125 v 2.89453124 h 0.7851562 z m 0,0"
       style="fill:#000000;fill-opacity:1;fill-rule:nonzero;stroke:none"
       aria-label="n"
       transform="matrix(1.3333333,0,0,1.3333333,66.962667,131.24)" />
    <path
       id="path44"
       d="m -48.4716,-69.89146 h 58.534 v 49.76666"
       style="fill:none;stroke:#000000;stroke-width:0.3985;stroke-linecap:butt;stroke-linejoin:miter;stroke-miterlimit:10;stroke-dasharray:none;stroke-opacity:1"
       transform="matrix(1.3333333,0,0,-1.3333333,178.264,33.402667)" />
    <path
       id="path45"
       d="m 11.30774,-69.89146 c 0,0.68777 -0.55756,1.24534 -1.24534,1.24534 -0.68778,0 -1.24535,-0.55757 -1.24535,-1.24534 0,-0.68779 0.55757,-1.24535 1.24535,-1.24535 0.68778,0 1.24534,0.55756 1.24534,1.24535 z"
       style="fill:#000000;fill-opacity:1;fill-rule:nonzero;stroke:none"
       transform="matrix(1.3333333,0,0,-1.3333333,178.264,33.402667)" />
    <path
       id="path46"
       d="M 11.30774,-69.89146 H 70.23758 V -20.1248"
       style="fill:none;stroke:#000000;stroke-width:0.3985;stroke-linecap:butt;stroke-linejoin:miter;stroke-miterlimit:10;stroke-dasharray:none;stroke-opacity:1"
       transform="matrix(1.3333333,0,0,-1.3333333,178.264,33.402667)" />
    <path
       id="path47"
       d="m 71.48293,-69.89146 c 0,0.68777 -0.55756,1.24534 -1.24535,1.24534 -0.68778,0 -1.24535,-0.55757 -1.24535,-1.24534 0,-0.68779 0.55757,-1.24535 1.24535,-1.24535 0.68779,0 1.24535,0.55756 1.24535,1.24535 z"
       style="fill:#000000;fill-opacity:1;fill-rule:nonzero;stroke:none"
       transform="matrix(1.3333333,0,0,-1.3333333,178.264,33.402667)" />
    <path
       id="path48"
       d="M 71.48293,-69.89146 H 130.4128 V -20.1248"
       style="fill:none;stroke:#000000;stroke-width:0.3985;stroke-linecap:butt;stroke-linejoin:miter;stroke-miterlimit:10;stroke-dasharray:none;stroke-opacity:1"
       transform="matrix(1.3333333,0,0,-1.3333333,178.264,33.402667)" />
  </g>
</svg>
