<?xml version="1.0" encoding="UTF-8" standalone="no"?>
<!-- Created with Inkscape (http://www.inkscape.org/) -->

<svg
   version="1.1"
   id="svg1"
   width="507.33066"
   height="120.14"
   viewBox="0 0 507.33066 120.14"
   sodipodi:docname="main.pdf"
   xmlns:inkscape="http://www.inkscape.org/namespaces/inkscape"
   xmlns:sodipodi="http://sodipodi.sourceforge.net/DTD/sodipodi-0.dtd"
   xmlns="http://www.w3.org/2000/svg"
   xmlns:svg="http://www.w3.org/2000/svg">
  <defs
     id="defs1" />
  <sodipodi:namedview
     id="namedview1"
     pagecolor="#ffffff"
     bordercolor="#000000"
     borderopacity="0.25"
     inkscape:showpageshadow="2"
     inkscape:pageopacity="0.0"
     inkscape:pagecheckerboard="0"
     inkscape:deskcolor="#d1d1d1">
    <inkscape:page
       x="0"
       y="0"
       inkscape:label="1"
       id="page1"
       width="507.33066"
       height="120.14"
       margin="0"
       bleed="0" />
  </sodipodi:namedview>
  <g
     id="g1"
     inkscape:groupmode="layer"
     inkscape:label="1">
    <path
       id="path1"
       d="M 0,0 H 380.498 V 90.105 H 0 Z"
       style="fill:#ffffff;fill-opacity:1;fill-rule:nonzero;stroke:none"
       transform="matrix(1.3333333,0,0,-1.3333333,0,120.14)" />
    <path
       id="path2"
       d="m -47.1461,-68.43886 v 89.1061 h 379.50242 v -89.1061 z"
       style="fill:#ffffff;fill-opacity:1;fill-rule:nonzero;stroke:none"
       transform="matrix(1.3333333,0,0,-1.3333333,63.528,28.222667)" />
    <path
       id="path3"
       d="m 4.0906328,-4.1600937 c -0.5976562,-0.3398438 -0.9375,-0.4335938 -1.5351562,-0.4335938 -1.3945313,0 -2.19140629,1.2070313 -2.19140629,2.3789063 0,1.24218745 0.90234379,2.32031245 2.14453129,2.32031245 0.5390625,0 1.0898437,-0.140625 1.6289062,-0.50390625 l -0.058594,-0.6679687 c -0.515625,0.39843745 -1.0546875,0.53906245 -1.5585938,0.53906245 -0.8203125,0 -1.3828125,-0.71484375 -1.3828125,-1.69921875 0,-0.7734375 0.3632813,-1.7226562 1.4179688,-1.7226562 0.5273437,0 0.8671875,0.070312 1.40625,0.4335937 z M 5.9861406,-6.914 h -0.75 V 6.25e-5 h 0.75 z m 3.6210938,4.2070313 1.6757816,-1.7109375 h -0.902344 l -2.0156251,2.0625 V -6.914 H 7.6384844 V 6.25e-5 h 0.6914062 v -1.40625 L 9.1267656,-2.2265 10.685359,6.25e-5 h 0.808594 z m 0,0"
       style="fill:#000000;fill-opacity:1;fill-rule:nonzero;stroke:none"
       aria-label="clk"
       transform="matrix(1.3333333,0,0,1.3333333,38.510667,28.218667)" />
    <path
       id="path4"
       d="M 0,0.00255 H 14.1693 V 10.62952 H 28.33861 V 0.00255 H 42.50792 V 10.62952 H 56.67723 V 0.00255 h 14.1693 V 10.62952 H 85.01584 V 0.00255 h 14.16931 v 10.62697 h 14.16931 V 0.00255 h 14.1693 v 10.62697 h 14.16931 V 0.00255 h 14.16931 V 10.62952 H 170.0317 V 0.00255 h 14.16929 V 10.62952 H 198.3703 V 0.00255 h 14.16931 v 10.62697 h 14.16931 V 0.00255 h 14.16931 v 10.62697 h 14.1693 V 0.00255 h 14.16931"
       style="fill:none;stroke:#000000;stroke-width:0.66414;stroke-linecap:round;stroke-linejoin:round;stroke-miterlimit:10;stroke-dasharray:none;stroke-opacity:1"
       transform="matrix(1.3333333,0,0,-1.3333333,63.528,28.222667)" />
    <path
       id="path5"
       d="m 4.3241719,-6.9131875 h -0.75 V -3.9835 c -0.5273438,-0.4335937 -1.078125,-0.5507812 -1.453125,-0.5507812 -0.984375,0 -1.75781253,1.0429687 -1.75781253,2.3203125 0,1.31249995 0.76171873,2.32031245 1.71093753,2.32031245 0.328125,0 0.9140625,-0.08203125 1.4765625,-0.62109375 V 8.75e-4 h 0.7734375 z m -0.7734375,5.53125 c 0,0.140625 -0.011719,0.3164063 -0.328125,0.609375 -0.234375,0.19921875 -0.4804688,0.26953125 -0.7382813,0.26953125 -0.6210937,0 -1.3476562,-0.45703125 -1.3476562,-1.69921875 0,-1.3125 0.8554687,-1.7226562 1.4414062,-1.7226562 0.4453125,0 0.75,0.234375 0.9726563,0.5507812 z m 5.5693359,-1.5 c 0,-1.0078125 -0.7265625,-1.7109375 -1.640625,-1.7109375 -0.6445312,0 -1.1015625,0.1640625 -1.5703125,0.4335938 l 0.070312,0.65625 c 0.515625,-0.375 1.0078125,-0.5039063 1.5,-0.5039063 0.46875,0 0.8671875,0.3984375 0.8671875,1.1367188 v 0.4335937 c -1.5,0.011719 -2.765625,0.4335938 -2.765625,1.3125 0,0.421875 0.2695313,1.23046875 1.1367188,1.23046875 0.140625,0 1.078125,-0.01171875 1.6523437,-0.46875 V 8.75e-4 h 0.75 z M 8.3466328,-1.311625 c 0,0.1875 0,0.43359375 -0.3398437,0.62109375 -0.2929688,0.1875 -0.6679688,0.1875 -0.7734375,0.1875 -0.4804688,0 -0.9257813,-0.22265625 -0.9257813,-0.64453125 0,-0.6914062 1.6054688,-0.7617187 2.0390625,-0.7851562 z m 3.3339842,-2.53125 h 1.40625 v -0.5742187 h -1.40625 v -1.265625 h -0.691406 v 1.265625 h -0.867188 v 0.5742187 h 0.84375 v 2.6601563 c 0,0.5976562 0.128907,1.28906245 0.820313,1.28906245 0.703125,0 1.207031,-0.24609375 1.453125,-0.375 l -0.152344,-0.5859375 c -0.257812,0.2109375 -0.585937,0.328125 -0.902344,0.328125 -0.363281,0 -0.503906,-0.3046875 -0.503906,-0.83203125 z m 5.824219,0.9609375 c 0,-1.0078125 -0.726563,-1.7109375 -1.640625,-1.7109375 -0.644531,0 -1.101563,0.1640625 -1.570313,0.4335938 l 0.07031,0.65625 c 0.515625,-0.375 1.007812,-0.5039063 1.5,-0.5039063 0.46875,0 0.867187,0.3984375 0.867187,1.1367188 v 0.4335937 c -1.5,0.011719 -2.765625,0.4335938 -2.765625,1.3125 0,0.421875 0.269532,1.23046875 1.136719,1.23046875 0.140625,0 1.078125,-0.01171875 1.652344,-0.46875 V 8.75e-4 h 0.75 z m -0.773438,1.5703125 c 0,0.1875 0,0.43359375 -0.339843,0.62109375 -0.292969,0.1875 -0.667969,0.1875 -0.773438,0.1875 -0.480469,0 -0.925781,-0.22265625 -0.925781,-0.64453125 0,-0.6914062 1.605469,-0.7617187 2.039062,-0.7851562 z m 0,0"
       style="fill:#000000;fill-opacity:1;fill-rule:nonzero;stroke:none"
       aria-label="data"
       transform="matrix(1.3333333,0,0,1.3333333,14.836,56.561333)" />
    <path
       id="path6"
       d="M 0,0 H 2.989"
       style="fill:none;stroke:#000000;stroke-width:0.398;stroke-linecap:butt;stroke-linejoin:round;stroke-miterlimit:10;stroke-dasharray:none;stroke-opacity:1"
       transform="matrix(1.3333333,0,0,-1.3333333,40.06,56.294667)" />
    <path
       id="path7"
       d="m 1.6300625,-6.7725625 h -0.890625 v 0.890625 h 0.890625 z M 1.55975,-4.4170937 h -0.75 V 8.75e-4 h 0.75 z m 5.15625,1.453125 c 0,-0.65625 -0.1523438,-1.5703125 -1.3710938,-1.5703125 -0.890625,0 -1.3828125,0.6796875 -1.4414062,0.7617187 V -4.4874062 H 3.1886562 V 8.75e-4 h 0.7734375 v -2.4375 c 0,-0.65625 0.2460938,-1.4882812 1.0078125,-1.4882812 0.9609375,0 0.9609375,0.703125 0.9609375,1.03125 V 8.75e-4 H 6.716 Z m 0,0"
       style="fill:#000000;fill-opacity:1;fill-rule:nonzero;stroke:none"
       aria-label="in"
       transform="matrix(1.3333333,0,0,1.3333333,44.045333,56.561333)" />
    <path
       id="path8"
       d="M 0,-21.25397 H 21.25395 L 23.0251,-10.627 h 90.32936 l 1.77115,-10.62697 h 33.6521 l 1.77115,10.62697 h 12.39816 l 1.77115,-10.62697 h 26.56744 l 1.77117,10.62697 h 12.39815 l 1.77114,-10.62697 h 61.99073"
       style="fill:none;stroke:#000000;stroke-width:0.66414;stroke-linecap:round;stroke-linejoin:round;stroke-miterlimit:10;stroke-dasharray:none;stroke-opacity:1"
       transform="matrix(1.3333333,0,0,-1.3333333,63.528,28.222667)" />
    <path
       id="path9"
       d="m 4.3239531,-6.914375 h -0.75 v 2.9296875 c -0.5273437,-0.4335937 -1.078125,-0.5507812 -1.453125,-0.5507812 -0.984375,0 -1.75781247,1.0429687 -1.75781247,2.3203125 0,1.31249995 0.76171877,2.32031245 1.71093747,2.32031245 0.328125,0 0.9140625,-0.08203125 1.4765625,-0.62109375 v 0.515625 h 0.7734375 z m -0.7734375,5.53125 c 0,0.140625 -0.011719,0.3164063 -0.328125,0.609375 -0.234375,0.19921875 -0.4804687,0.26953125 -0.7382812,0.26953125 -0.6210938,0 -1.3476563,-0.45703125 -1.3476563,-1.69921875 0,-1.3125 0.8554688,-1.7226562 1.4414063,-1.7226562 0.4453125,0 0.75,0.234375 0.9726562,0.5507812 z m 5.569336,-1.5 c 0,-1.0078125 -0.7265625,-1.7109375 -1.640625,-1.7109375 -0.6445313,0 -1.1015625,0.1640625 -1.5703125,0.4335938 l 0.070312,0.65625 c 0.515625,-0.375 1.0078125,-0.5039063 1.5,-0.5039063 0.46875,0 0.8671875,0.3984375 0.8671875,1.1367188 v 0.4335937 c -1.5,0.011719 -2.765625,0.4335938 -2.765625,1.3125 0,0.421875 0.2695312,1.23046875 1.1367187,1.23046875 0.140625,0 1.078125,-0.01171875 1.6523438,-0.46875 V -3.125e-4 h 0.75 z m -0.7734375,1.5703125 c 0,0.1875 0,0.43359375 -0.3398438,0.62109375 -0.2929687,0.1875 -0.6679687,0.1875 -0.7734375,0.1875 -0.4804687,0 -0.9257812,-0.22265625 -0.9257812,-0.64453125 0,-0.6914062 1.6054687,-0.7617187 2.0390625,-0.7851562 z m 3.3339839,-2.53125 h 1.40625 v -0.5742187 h -1.40625 v -1.265625 h -0.691406 v 1.265625 h -0.867187 v 0.5742187 h 0.84375 v 2.6601563 c 0,0.5976562 0.128906,1.28906245 0.820312,1.28906245 0.703125,0 1.207031,-0.24609375 1.453125,-0.375 l -0.152344,-0.5859375 c -0.257812,0.2109375 -0.585937,0.328125 -0.902343,0.328125 -0.363282,0 -0.503907,-0.3046875 -0.503907,-0.83203125 z m 5.824219,0.9609375 c 0,-1.0078125 -0.726562,-1.7109375 -1.640625,-1.7109375 -0.644531,0 -1.101562,0.1640625 -1.570312,0.4335938 l 0.07031,0.65625 c 0.515625,-0.375 1.007813,-0.5039063 1.5,-0.5039063 0.46875,0 0.867188,0.3984375 0.867188,1.1367188 v 0.4335937 c -1.5,0.011719 -2.765625,0.4335938 -2.765625,1.3125 0,0.421875 0.269531,1.23046875 1.136718,1.23046875 0.140625,0 1.078125,-0.01171875 1.652344,-0.46875 V -3.125e-4 h 0.75 z m -0.773437,1.5703125 c 0,0.1875 0,0.43359375 -0.339844,0.62109375 -0.292969,0.1875 -0.667969,0.1875 -0.773438,0.1875 -0.480468,0 -0.925781,-0.22265625 -0.925781,-0.64453125 0,-0.6914062 1.605469,-0.7617187 2.039063,-0.7851562 z m 0,0"
       style="fill:#000000;fill-opacity:1;fill-rule:nonzero;stroke:none"
       aria-label="data"
       transform="matrix(1.3333333,0,0,1.3333333,6.5706667,84.906667)" />
    <path
       id="path10"
       d="M 0,0 H 2.989"
       style="fill:none;stroke:#000000;stroke-width:0.398;stroke-linecap:butt;stroke-linejoin:round;stroke-miterlimit:10;stroke-dasharray:none;stroke-opacity:1"
       transform="matrix(1.3333333,0,0,-1.3333333,31.794667,84.64)" />
    <path
       id="path11"
       d="m 4.6767188,-2.1917187 c 0,-1.3359375 -0.9960938,-2.4023438 -2.1796875,-2.4023438 -1.2304688,0 -2.1914063,1.1015625 -2.1914063,2.4023438 0,1.31249995 1.0078125,2.29687495 2.1796875,2.29687495 1.1953125,0 2.1914063,-1.0078125 2.1914063,-2.29687495 z m -2.1914063,1.66406245 c -0.6914062,0 -1.40625,-0.56249995 -1.40625,-1.76953125 0,-1.1953125 0.75,-1.6875 1.40625,-1.6875 0.6914063,0 1.40625,0.515625 1.40625,1.6875 0,1.1835938 -0.6679687,1.76953125 -1.40625,1.76953125 z M 9.3173438,-4.4182812 H 8.5321875 v 2.8828125 c 0,0.74999995 -0.5507812,1.10156245 -1.1953125,1.10156245 -0.703125,0 -0.7734375,-0.26953125 -0.7734375,-0.69140625 V -4.4182812 H 5.79 v 3.328125 c 0,0.72656245 0.2226563,1.19531245 1.0546875,1.19531245 0.5273438,0 1.2304688,-0.15234375 1.7226563,-0.5859375 V -3.125e-4 h 0.75 z m 2.5576172,0.5742187 h 1.40625 v -0.5742187 h -1.40625 v -1.265625 h -0.691406 v 1.265625 h -0.867188 v 0.5742187 h 0.84375 v 2.6601563 c 0,0.5976562 0.128906,1.28906245 0.820313,1.28906245 0.703125,0 1.207031,-0.24609375 1.453125,-0.375 l -0.152344,-0.5859375 c -0.257813,0.2109375 -0.585938,0.328125 -0.902344,0.328125 -0.363281,0 -0.503906,-0.3046875 -0.503906,-0.83203125 z m 0,0"
       style="fill:#000000;fill-opacity:1;fill-rule:nonzero;stroke:none"
       aria-label="out"
       transform="matrix(1.3333333,0,0,1.3333333,35.78,84.906667)" />
    <path
       id="path12"
       d="m 0,-42.51312 h 99.18515 l 1.77115,10.62698 h 83.24469 l 1.77116,-10.62698 h 26.56745 l 1.77115,10.62698 h 26.56747 l 1.77115,-10.62698 h 26.56744"
       style="fill:none;stroke:#000000;stroke-width:0.66414;stroke-linecap:round;stroke-linejoin:round;stroke-miterlimit:10;stroke-dasharray:none;stroke-opacity:1"
       transform="matrix(1.3333333,0,0,-1.3333333,63.528,28.222667)" />
    <path
       id="path13"
       d="m 7.08464,15.94044 v -63.78256 m 7.08466,63.78256 v -63.78256 m 7.08465,63.78256 v -63.78256 m 7.08466,63.78256 v -63.78256 m 7.08465,63.78256 v -63.78256 m 7.08466,63.78256 v -63.78256 m 7.08466,63.78256 v -63.78256 m 7.08465,63.78256 v -63.78256 m 7.08464,63.78256 v -63.78256 m 7.08466,63.78256 v -63.78256 m 7.08465,63.78256 v -63.78256 m 7.08466,63.78256 v -63.78256 m 7.08466,63.78256 v -63.78256 m 7.08465,63.78256 v -63.78256 m 7.08465,63.78256 v -63.78256 m 7.08466,63.78256 v -63.78256 m 7.08466,63.78256 v -63.78256 m 7.08464,63.78256 v -63.78256 m 7.08465,63.78256 v -63.78256 m 7.08466,63.78256 v -63.78256 m 7.08466,63.78256 v -63.78256 m 7.08465,63.78256 v -63.78256 m 7.08466,63.78256 v -63.78256 m 7.08466,63.78256 v -63.78256 m 7.08465,63.78256 v -63.78256 m 7.08464,63.78256 v -63.78256 m 7.08465,63.78256 v -63.78256 m 7.08466,63.78256 v -63.78256 m 7.08466,63.78256 v -63.78256 m 7.08465,63.78256 v -63.78256 m 7.08466,63.78256 v -63.78256 m 7.08465,63.78256 v -63.78256 m 7.08466,63.78256 v -63.78256 m 7.08465,63.78256 v -63.78256 m 7.08465,63.78256 v -63.78256 m 7.08465,63.78256 v -63.78256 m 7.08466,63.78256 v -63.78256 m 7.08465,63.78256 v -63.78256"
       style="fill:none;stroke:#808080;stroke-width:0.59776;stroke-linecap:round;stroke-linejoin:round;stroke-miterlimit:10;stroke-dasharray:none;stroke-opacity:0.5"
       transform="matrix(1.3333333,0,0,-1.3333333,63.528,28.222667)" />
    <path
       id="path14"
       d="m 210.52846,-15.94044 c 0,6.22574 -5.04683,11.27256 -11.27259,11.27256 -6.22573,0 -11.27257,-5.04682 -11.27257,-11.27256 0,-6.22576 5.04684,-11.27259 11.27257,-11.27259 6.22576,0 11.27259,5.04683 11.27259,11.27259 z"
       style="fill:none;stroke:#ff0000;stroke-width:0.3985;stroke-linecap:round;stroke-linejoin:round;stroke-miterlimit:10;stroke-dasharray:2.98883, 2.98883;stroke-dashoffset:0;stroke-opacity:1"
       transform="matrix(1.3333333,0,0,-1.3333333,63.528,28.222667)" />
    <path
       id="path15"
       d="M 2.5201563,-5.3314687 C 2.4498438,-5.4720937 2.344375,-5.69475 2.2975,-5.7533437 2.2389063,-5.8588125 2.1217188,-6.116625 2.063125,-6.2220937 H 0.87953125 V 5.625e-4 H 1.6178125 V -5.5189687 L 3.985,-0.8900625 c 0.082031,0.15234375 0.1875,0.36328125 0.234375,0.421875 0.046875,0.10546875 0.1757813,0.375 0.2226563,0.46875 H 5.625625 V -6.2220937 H 4.8990625 v 5.5195312 h -0.011719 z m 8.3203127,3.3632812 c 0,-1.1835937 -0.8906252,-2.1679687 -2.027344,-2.1679687 -1.1132812,0 -2.0273437,0.9726562 -2.0273437,2.1679687 0,1.18359375 0.9375,2.0625 2.0273437,2.0625 1.1132813,0 2.027344,-0.90234375 2.027344,-2.0625 z m -2.0156252,1.453125 c -0.6914063,0 -1.3007813,-0.5390625 -1.3007813,-1.546875 0,-1.0429687 0.6796875,-1.4882812 1.2890625,-1.4882812 0.6445313,0 1.289063,0.4570312 1.289063,1.4882812 0,1.0429688 -0.632813,1.546875 -1.2773442,1.546875 z m 3.9169922,-2.90625 h 1.300781 v -0.5625 h -1.300781 v -1.1367187 h -0.65625 v 1.1367187 H 11.30043 v 0.5625 h 0.761718 v 2.296875 c 0,0.52734375 0.117188,1.21875 0.761719,1.21875 0.398438,0 0.867188,-0.0703125 1.371094,-0.328125 l -0.152344,-0.5625 c -0.234375,0.17578125 -0.550781,0.28125 -0.832031,0.28125 -0.351563,0 -0.46875,-0.3046875 -0.46875,-0.7734375 z m 6.275391,3.01171875 c 0.328125,0.31640625 0.785156,0.50390625 1.242187,0.50390625 0.914063,0 1.699219,-0.87890625 1.699219,-2.0976562 0,-1.0664063 -0.5625,-2.0742188 -1.429688,-2.0742188 -0.257812,0 -0.925781,0.046875 -1.535156,0.5273438 v -0.4335938 h -0.726562 v 5.71875 h 0.75 z m 0,-2.56640625 c 0.117187,-0.1640625 0.445312,-0.4921875 0.960937,-0.4921875 0.667969,0 1.230469,0.6328125 1.230469,1.4765625 0,0.8671875 -0.621094,1.51171875 -1.324219,1.51171875 -0.28125,0 -0.609375,-0.1171875 -0.867187,-0.56249995 z m 4.476562,1.0664063 c 0,-0.9375 0.726563,-1.5117188 1.546875,-1.5234375 v -0.6445313 c -0.644531,0.011719 -1.242187,0.328125 -1.605469,0.8554688 v -0.8085938 h -0.667968 v 4.03125 h 0.726562 z m 6.005859,-0.058594 c 0,-1.1835937 -0.890625,-2.1679687 -2.027343,-2.1679687 -1.113282,0 -2.027344,0.9726562 -2.027344,2.1679687 0,1.18359375 0.9375,2.0625 2.027344,2.0625 1.113281,0 2.027343,-0.90234375 2.027343,-2.0625 z m -2.015625,1.453125 c -0.691406,0 -1.300781,-0.5390625 -1.300781,-1.546875 0,-1.0429687 0.679688,-1.4882812 1.289063,-1.4882812 0.644531,0 1.289062,0.4570312 1.289062,1.4882812 0,1.0429688 -0.632812,1.546875 -1.277344,1.546875 z m 6.333985,-0.45703125 c -0.433594,0.3046875 -0.902344,0.45703125 -1.441406,0.45703125 -0.761719,0 -1.265625,-0.6328125 -1.265625,-1.4882812 0,-0.6796875 0.339843,-1.5234375 1.300781,-1.5234375 0.5625,0 0.855469,0.1171875 1.300781,0.421875 l 0.117188,-0.6328125 c -0.503907,-0.28125 -0.785157,-0.3984375 -1.429688,-0.3984375 -1.265625,0 -2.027344,1.078125 -2.027344,2.1445312 0,1.11328125 0.832032,2.0859375 1.992188,2.0859375 0.632812,0 1.101562,-0.1875 1.511719,-0.421875 z m 4.154297,-0.99609375 c 0,-0.2695312 -0.01172,-0.9492187 -0.363282,-1.4882812 -0.375,-0.5625 -0.949218,-0.6796875 -1.289062,-0.6796875 -1.042969,0 -1.863281,0.9609375 -1.863281,2.109375 0,1.1835937 0.878906,2.1210937 1.992187,2.1210937 0.433594,0 0.949219,-0.10546875 1.476563,-0.43359375 L 37.866836,-0.960375 c -0.5625,0.41015625 -1.089844,0.48046875 -1.40625,0.48046875 -0.738281,0 -1.3125,-0.65624995 -1.347656,-1.48828125 z m -2.800782,-0.5273437 c 0.140625,-0.5742188 0.585938,-1.0546875 1.148438,-1.0546875 0.328125,0 0.9375,0.1523437 1.113281,1.0546875 z m 6.228516,-1.3476563 C 40.849258,-4.101 40.427383,-4.1361562 40.064102,-4.1361562 c -0.210938,0 -1.523438,0 -1.523438,1.1835937 0,0.4335938 0.257813,0.703125 0.363281,0.796875 0.339844,0.3046875 0.574219,0.3398438 1.183594,0.4570313 0.28125,0.058594 0.796875,0.1523437 0.796875,0.609375 0,0.58593745 -0.726562,0.58593745 -0.84375,0.58593745 -0.527344,0 -1.042969,-0.17578125 -1.429687,-0.4453125 l -0.117188,0.65625 c 0.539063,0.28125 1.089844,0.38671875 1.546875,0.38671875 0.574219,0 1.511719,-0.1875 1.511719,-1.2539062 0,-0.3046875 -0.128906,-0.6210938 -0.433594,-0.890625 -0.304687,-0.2578125 -0.574219,-0.3164063 -1.136719,-0.421875 -0.316406,-0.058594 -0.773437,-0.140625 -0.773437,-0.5625 0,-0.5273438 0.644531,-0.5273438 0.773437,-0.5273438 0.65625,0 1.042969,0.1992188 1.300782,0.3398438 z m 3.533203,0 C 44.382461,-4.101 43.960586,-4.1361562 43.597305,-4.1361562 c -0.210938,0 -1.523438,0 -1.523438,1.1835937 0,0.4335938 0.257813,0.703125 0.363281,0.796875 0.339844,0.3046875 0.574219,0.3398438 1.183594,0.4570313 0.28125,0.058594 0.796875,0.1523437 0.796875,0.609375 0,0.58593745 -0.726562,0.58593745 -0.84375,0.58593745 -0.527344,0 -1.042969,-0.17578125 -1.429687,-0.4453125 l -0.117188,0.65625 c 0.539063,0.28125 1.089844,0.38671875 1.546875,0.38671875 0.574219,0 1.511719,-0.1875 1.511719,-1.2539062 0,-0.3046875 -0.128906,-0.6210938 -0.433594,-0.890625 -0.304687,-0.2578125 -0.574219,-0.3164063 -1.136719,-0.421875 -0.316406,-0.058594 -0.773437,-0.140625 -0.773437,-0.5625 0,-0.5273438 0.644531,-0.5273438 0.773437,-0.5273438 0.65625,0 1.042969,0.1992188 1.300782,0.3398438 z m 4.201172,1.875 c 0,-0.2695312 -0.01172,-0.9492187 -0.363281,-1.4882812 -0.375,-0.5625 -0.949219,-0.6796875 -1.289063,-0.6796875 -1.042968,0 -1.863281,0.9609375 -1.863281,2.109375 0,1.1835937 0.878906,2.1210937 1.992188,2.1210937 0.433593,0 0.949218,-0.10546875 1.476562,-0.43359375 L 49.028945,-0.960375 c -0.5625,0.41015625 -1.089843,0.48046875 -1.40625,0.48046875 -0.738281,0 -1.3125,-0.65624995 -1.347656,-1.48828125 z m -2.800781,-0.5273437 c 0.140625,-0.5742188 0.585937,-1.0546875 1.148437,-1.0546875 0.328125,0 0.9375,0.1523437 1.113282,1.0546875 z m 7.072265,-3.7265625 h -0.714843 v 2.6367187 c -0.503907,-0.421875 -1.078125,-0.4921875 -1.371094,-0.4921875 -0.902344,0 -1.59375,0.9375 -1.59375,2.0859375 0,1.16015625 0.679687,2.0859375 1.558594,2.0859375 0.269531,0 0.84375,-0.05859375 1.371093,-0.5625 v 0.46875 h 0.75 z m -0.75,4.9570312 c 0,0.1757813 0,0.1875 -0.09375,0.31640625 -0.246093,0.31640625 -0.550781,0.46875 -0.867187,0.46875 -0.585938,0 -1.230469,-0.421875 -1.230469,-1.49999995 0,-1.1484375 0.761719,-1.5117188 1.324219,-1.5117188 0.410156,0 0.703125,0.234375 0.867187,0.4570313 z m 6.032227,-4.9570312 H 57.961563 V 5.625e-4 h 0.75 v -0.421875 c 0.117187,0.12890625 0.574218,0.515625 1.242187,0.515625 0.925781,0 1.699219,-0.90234375 1.699219,-2.0976562 0,-1.078125 -0.597656,-2.0742188 -1.476563,-2.0742188 -0.234375,0 -0.878906,0.046875 -1.488281,0.515625 z m 0.02344,3.2226562 c 0.128906,-0.1875 0.457031,-0.4921875 0.972656,-0.4921875 0.539062,0 1.21875,0.375 1.21875,1.4882813 0,1.1601562 -0.761719,1.52343745 -1.3125,1.52343745 -0.574219,0 -0.832031,-0.48046875 -0.878906,-0.56249995 z m 7.125,-0.984375 H 65.13344 c -0.679688,1.640625 -1.183594,2.8242188 -1.21875,3.45703125 C 63.87953,-0.9369377 63.504533,-1.8627189 63.399065,-2.1205314 63.035783,-3.0345939 62.88344,-3.3392814 62.60219,-3.9838127 h -0.75 l 1.792968,3.984375 -0.339843,0.796875 c -0.222657,0.5039063 -0.398438,0.5039063 -0.527344,0.5039063 -0.140625,0 -0.457031,-0.035156 -0.726563,-0.1523438 L 62.11,1.7700938 c 0.02344,0 0.351563,0.070312 0.667969,0.070312 0.234375,0 0.621094,0 1.066406,-1.0664063 z m 4.828125,0.5625 h 1.300781 v -0.5625 H 70.66469 v -1.1367187 h -0.65625 v 1.1367187 h -0.785157 v 0.5625 H 69.985 v 2.296875 c 0,0.52734375 0.117188,1.21875 0.761719,1.21875 0.398437,0 0.867187,-0.0703125 1.371094,-0.328125 l -0.152344,-0.5625 c -0.234375,0.17578125 -0.550781,0.28125 -0.832031,0.28125 -0.351563,0 -0.46875,-0.3046875 -0.46875,-0.7734375 z m 5.730468,0.7617188 c 0,-0.6679688 -0.175781,-1.4179688 -1.253906,-1.4179688 -0.515625,0 -0.996094,0.2460938 -1.324219,0.6445313 V -6.2220937 H 73.102188 V 5.625e-4 h 0.738281 v -2.1914062 c 0,-0.5859375 0.234375,-1.3007813 0.914062,-1.3007813 0.902344,0 0.902344,0.6328125 0.902344,0.890625 V 5.625e-4 h 0.738281 z m 4.573242,0.6914062 c 0,-0.2695312 -0.01172,-0.9492187 -0.363281,-1.4882812 -0.375,-0.5625 -0.949219,-0.6796875 -1.289062,-0.6796875 -1.042969,0 -1.863282,0.9609375 -1.863282,2.109375 0,1.1835937 0.878907,2.1210937 1.992188,2.1210937 0.433594,0 0.949219,-0.10546875 1.476562,-0.43359375 L 80.86293,-0.960375 c -0.5625,0.41015625 -1.089844,0.48046875 -1.40625,0.48046875 -0.738282,0 -1.3125,-0.65624995 -1.347657,-1.48828125 z m -2.800781,-0.5273437 c 0.140625,-0.5742188 0.585938,-1.0546875 1.148438,-1.0546875 0.328125,0 0.9375,0.1523437 1.113281,1.0546875 z m 9.301758,-1.3476563 C 86.918594,-4.101 86.496719,-4.1361562 86.133438,-4.1361562 c -0.210938,0 -1.523438,0 -1.523438,1.1835937 0,0.4335938 0.257813,0.703125 0.363281,0.796875 0.339844,0.3046875 0.574219,0.3398438 1.183594,0.4570313 0.28125,0.058594 0.796875,0.1523437 0.796875,0.609375 0,0.58593745 -0.726562,0.58593745 -0.84375,0.58593745 -0.527344,0 -1.042969,-0.17578125 -1.429687,-0.4453125 l -0.117188,0.65625 c 0.539063,0.28125 1.089844,0.38671875 1.546875,0.38671875 0.574219,0 1.511719,-0.1875 1.511719,-1.2539062 0,-0.3046875 -0.128906,-0.6210938 -0.433594,-0.890625 -0.304687,-0.2578125 -0.574219,-0.3164063 -1.136719,-0.421875 -0.316406,-0.058594 -0.773437,-0.140625 -0.773437,-0.5625 0,-0.5273438 0.644531,-0.5273438 0.773437,-0.5273438 0.65625,0 1.042969,0.1992188 1.300782,0.3398438 z m 4.482422,-0.140625 h -0.703125 c -0.679688,1.640625 -1.183594,2.8242188 -1.21875,3.45703125 -0.03516,-0.41015625 -0.410156,-1.33593745 -0.515625,-1.59374995 -0.363281,-0.9140625 -0.515625,-1.21875 -0.796875,-1.8632813 h -0.75 l 1.792969,3.984375 -0.339844,0.796875 c -0.222656,0.5039063 -0.398438,0.5039063 -0.527344,0.5039063 -0.140625,0 -0.457031,-0.035156 -0.726562,-0.1523438 l 0.05859,0.6210938 c 0.02344,0 0.351563,0.070312 0.667969,0.070312 0.234375,0 0.621094,0 1.066406,-1.0664063 z m 3.298828,0.140625 C 94.699844,-4.101 94.277969,-4.1361562 93.914688,-4.1361562 c -0.210938,0 -1.523438,0 -1.523438,1.1835937 0,0.4335938 0.257813,0.703125 0.363281,0.796875 0.339844,0.3046875 0.574219,0.3398438 1.183594,0.4570313 0.28125,0.058594 0.796875,0.1523437 0.796875,0.609375 0,0.58593745 -0.726562,0.58593745 -0.84375,0.58593745 -0.527344,0 -1.042969,-0.17578125 -1.429687,-0.4453125 l -0.117188,0.65625 c 0.539063,0.28125 1.089844,0.38671875 1.546875,0.38671875 0.574219,0 1.511719,-0.1875 1.511719,-1.2539062 0,-0.3046875 -0.128906,-0.6210938 -0.433594,-0.890625 -0.304687,-0.2578125 -0.574219,-0.3164063 -1.136719,-0.421875 -0.316406,-0.058594 -0.773437,-0.140625 -0.773437,-0.5625 0,-0.5273438 0.644531,-0.5273438 0.773437,-0.5273438 0.65625,0 1.042969,0.1992188 1.300782,0.3398438 z m 1.986328,0.421875 h 1.300781 v -0.5625 h -1.300781 v -1.1367187 h -0.65625 v 1.1367187 h -0.785156 v 0.5625 h 0.761719 v 2.296875 c 0,0.52734375 0.117187,1.21875 0.761718,1.21875 0.398438,0 0.867188,-0.0703125 1.371094,-0.328125 l -0.152344,-0.5625 c -0.234375,0.17578125 -0.550781,0.28125 -0.832031,0.28125 -0.351562,0 -0.46875,-0.3046875 -0.46875,-0.7734375 z m 5.542965,1.453125 c 0,-0.2695312 -0.0117,-0.9492187 -0.36328,-1.4882812 -0.375,-0.5625 -0.94922,-0.6796875 -1.28906,-0.6796875 -1.04297,0 -1.863281,0.9609375 -1.863281,2.109375 0,1.1835937 0.878901,2.1210937 1.992181,2.1210937 0.4336,0 0.94922,-0.10546875 1.47657,-0.43359375 l -0.0586,-0.62109375 c -0.5625,0.41015625 -1.08984,0.48046875 -1.40625,0.48046875 -0.73828,0 -1.312495,-0.65624995 -1.347651,-1.48828125 z m -2.800777,-0.5273437 c 0.140627,-0.5742188 0.585937,-1.0546875 1.148437,-1.0546875 0.32812,0 0.9375,0.1523437 1.11328,1.0546875 z m 9.650387,-0.1640625 c 0,-0.6679688 -0.1875,-1.4179688 -1.26562,-1.4179688 -0.76172,0 -1.1836,0.4570313 -1.39453,0.7382813 -0.0586,-0.1875 -0.2461,-0.7382813 -1.16016,-0.7382813 -0.71484,0 -1.14844,0.4101563 -1.34766,0.6796875 v -0.6328125 h -0.6914 v 4.03125 h 0.73828 v -2.1914062 c 0,-0.5859375 0.23437,-1.3007813 0.91406,-1.3007813 0.90234,0 0.90234,0.6328125 0.90234,0.890625 V 5.625e-4 h 0.73829 v -2.1914062 c 0,-0.5859375 0.23437,-1.3007813 0.92578,-1.3007813 0.89062,0 0.89062,0.6328125 0.89062,0.890625 V 5.625e-4 h 0.75 z m 0,0"
       style="fill:#ff0000;fill-opacity:1;fill-rule:nonzero;stroke:none"
       aria-label="Notprocessedbythesystem"
       transform="matrix(1.3333333,0,0,1.3333333,349.18667,52.468)" />
    <path
       id="path16"
       d="M 42.50792,10.62697 V -63.76187"
       style="fill:none;stroke:#ff0000;stroke-width:0.49815;stroke-linecap:round;stroke-linejoin:round;stroke-miterlimit:10;stroke-dasharray:2.98883, 2.98883;stroke-dashoffset:0;stroke-opacity:0.75"
       transform="matrix(1.3333333,0,0,-1.3333333,63.528,28.222667)" />
    <path
       id="path17"
       d="M 99.18515,-26.56743 V -63.76184"
       style="fill:none;stroke:#40bf00;stroke-width:0.49815;stroke-linecap:round;stroke-linejoin:round;stroke-miterlimit:10;stroke-dasharray:none;stroke-opacity:1"
       transform="matrix(1.3333333,0,0,-1.3333333,63.528,28.222667)" />
    <path
       id="path18"
       d="m 44.64995,-60.78082 52.39315,2e-5"
       style="fill:none;stroke:#40bf00;stroke-width:0.49815;stroke-linecap:round;stroke-linejoin:round;stroke-miterlimit:10;stroke-dasharray:none;stroke-opacity:1"
       transform="matrix(1.3333333,0,0,-1.3333333,63.528,28.222667)" />
    <path
       id="path19"
       d="M 2.14203,0 -1.28522,1.71362 0,0 -1.28522,-1.71362"
       style="fill:#40bf00;fill-opacity:1;fill-rule:nonzero;stroke:none"
       transform="matrix(-1.3333333,0,0,1.3333333,123.06127,109.26376)" />
    <path
       id="path20"
       d="M 2.14203,0 -1.28522,1.71362 0,0 -1.28522,-1.71362"
       style="fill:#40bf00;fill-opacity:1;fill-rule:nonzero;stroke:none"
       transform="matrix(1.3333333,0,0,-1.3333333,192.9188,109.26373)" />
    <path
       id="path21"
       d="m 4.768125,-1.1125156 h 2.0507813 c 0.140625,0 0.328125,0 0.328125,-0.1992188 0,-0.1875 -0.1640625,-0.1875 -0.2929688,-0.1875 h -1.96875 l 0.3984375,-1.5 h 1.5703125 c 0.1289063,0 0.2929688,0 0.2929688,-0.1875 0,-0.1875 -0.1875,-0.1875 -0.328125,-0.1875 H 5.4009375 l 0.6914063,-2.484375 C 6.1275,-5.9640781 6.1275,-5.9875156 6.1275,-6.0226719 c 0,-0.1171875 -0.082031,-0.1992187 -0.1992187,-0.1992187 -0.1289063,0 -0.1640625,0.1054687 -0.1875,0.2109375 L 5.0025,-3.3742344 H 3.3032813 l 0.6796875,-2.484375 c 0.035156,-0.1054687 0.035156,-0.1289062 0.035156,-0.1640625 0,-0.1171875 -0.070313,-0.1992187 -0.1875,-0.1992187 -0.140625,0 -0.1757812,0.1054687 -0.1992187,0.2109375 L 2.893125,-3.3742344 H 0.84234375 c -0.140625,0 -0.328125,0 -0.328125,0.1875 0,0.1875 0.17578125,0.1875 0.29296875,0.1875 h 1.96875 l -0.3984375,1.5 H 0.8071875 c -0.1171875,0 -0.29296875,0 -0.29296875,0.1875 0,0.1992188 0.1875,0.1992188 0.328125,0.1992188 H 2.2603125 L 1.5689063,1.3835781 C 1.53375,1.4890469 1.53375,1.5124844 1.53375,1.5476406 c 0,0.1171875 0.082031,0.1875 0.1992188,0.1875 0.1289062,0 0.1640625,-0.1054687 0.1875,-0.2109375 L 2.65875,-1.1125156 H 4.3696875 L 3.6782813,1.3835781 C 3.643125,1.4890469 3.643125,1.5124844 3.643125,1.5476406 c 0,0.1171875 0.070312,0.1875 0.1875,0.1875 0.140625,0 0.1757813,-0.1054687 0.1992188,-0.2109375 z m -1.9921875,-0.3867188 0.4101563,-1.5 h 1.6992187 l -0.4101562,1.5 z M 12.947813,-3.7609531 c -0.457032,-0.1054688 -0.914063,-0.46875 -0.914063,-0.984375 0,-0.515625 0.492188,-1.03125 1.300781,-1.03125 0.644532,0 1.101563,0.1875 1.558594,0.5742187 l 0.152344,-0.7734375 c -0.457031,-0.2226562 -0.878906,-0.4453125 -1.699219,-0.4453125 -1.277344,0 -2.074219,0.890625 -2.074219,1.78125 0,0.234375 0.03516,0.5859375 0.339844,0.9960938 0.421875,0.5390625 0.996094,0.6796875 1.371094,0.7617187 0.117187,0.035156 0.679687,0.1757813 0.75,0.1992188 0.410156,0.1171875 0.855469,0.515625 0.855469,1.0664062 0,0.5976563 -0.503907,1.14843753 -1.300782,1.14843753 -0.726562,0 -1.40625,-0.26953125 -1.980468,-0.73828123 l -0.140625,0.78515623 c 0.878906,0.55078125 1.699218,0.62109375 2.121093,0.62109375 1.230469,0 2.0625,-0.9140625 2.0625,-1.91015628 0,-1.0195312 -0.832031,-1.6757812 -1.5,-1.8398437 z m 4.543945,0.3398437 h 1.300781 v -0.5625 h -1.300781 v -1.1367187 h -0.65625 v 1.1367187 h -0.785156 v 0.5625 h 0.761718 v 2.296875 c 0,0.52734378 0.117188,1.21875003 0.761719,1.21875003 0.398438,0 0.867188,-0.0703125 1.371094,-0.328125 l -0.152344,-0.5625 c -0.234375,0.17578125 -0.550781,0.28125 -0.832031,0.28125 -0.351563,0 -0.46875,-0.3046875 -0.46875,-0.77343753 z m 5.402344,0.8320313 c 0,-0.890625 -0.65625,-1.546875 -1.535157,-1.546875 -0.585937,0 -1.019531,0.1523437 -1.453125,0.3984375 l 0.05859,0.6328125 c 0.445313,-0.328125 0.890625,-0.4570313 1.382813,-0.4570313 0.503906,0 0.808593,0.3984375 0.808593,0.984375 v 0.375 c -1.546875,0.035156 -2.554687,0.4335938 -2.554687,1.1601563 0,0.42187498 0.269531,1.13671873 1.054687,1.13671873 0.175782,0 0.960938,-0.01171875 1.523438,-0.43359375 V 7.65625e-4 h 0.714844 z m -0.738282,1.3359375 c 0,0.1875 0,0.41015623 -0.328125,0.59765623 -0.222656,0.140625 -0.515625,0.17578125 -0.703125,0.17578125 -0.457031,0 -0.832031,-0.22265625 -0.832031,-0.57421878 0,-0.6445312 1.746094,-0.6679687 1.863281,-0.6679687 z m 5.844727,-2.8242188 c -0.175781,0 -0.773438,0 -1.441406,0.28125 -0.128907,-0.09375 -0.46875,-0.28125 -0.890625,-0.28125 -0.820313,0 -1.476563,0.6679688 -1.476563,1.4648438 0,0.2226562 0.05859,0.5507812 0.304688,0.9023437 -0.164063,0.2226563 -0.257813,0.4921875 -0.257813,0.73828128 0,0.2578125 0.09375,0.50390625 0.222656,0.6796875 -0.46875,0.292968745 -0.574218,0.6796875 -0.574218,0.92578125 0,0.65624997 0.878906,1.21874997 2.039062,1.21874997 1.160156,0 2.039063,-0.5507812 2.039063,-1.21874997 0,-1.25390625 -1.488282,-1.265625 -1.875,-1.265625 h -0.832032 c -0.117187,0 -0.515625,0 -0.515625,-0.46875003 0,-0.1757812 0.03516,-0.234375 0.08203,-0.3046875 0.234375,0.1640625 0.539062,0.2578125 0.84375,0.2578125 0.832031,0 1.488281,-0.6679687 1.488281,-1.4648437 0,-0.3046875 -0.09375,-0.5507813 -0.234375,-0.796875 -0.03516,-0.046875 -0.03516,-0.046875 -0.03516,-0.058594 0,-0.046875 0.433593,-0.046875 0.550781,-0.046875 0.07031,0 0.410156,0 0.667969,0.035156 z m -2.332031,2.390625 c -0.410157,0 -0.808594,-0.2578125 -0.808594,-0.9257812 0,-0.7265625 0.457031,-0.9257813 0.808594,-0.9257813 0.421875,0 0.820312,0.2578125 0.820312,0.9257813 0,0.7265625 -0.457031,0.9257812 -0.820312,0.9257812 z m 0.421875,1.73437503 c 0.1875,0 1.21875,0 1.21875,0.5859375 0,0.39843747 -0.65625,0.67968747 -1.371094,0.67968747 -0.703125,0 -1.382813,-0.2578125 -1.382813,-0.67968747 0,-0.0234375 0,-0.5859375 0.691407,-0.5859375 z m 5.979492,-2.01562503 c 0,-0.2695312 -0.01172,-0.9492187 -0.363281,-1.4882812 -0.375,-0.5625 -0.949219,-0.6796875 -1.289063,-0.6796875 -1.042969,0 -1.863281,0.9609375 -1.863281,2.109375 0,1.18359373 0.878906,2.12109373 1.992187,2.12109373 0.433594,0 0.949219,-0.10546875 1.476563,-0.43359375 l -0.05859,-0.62109375 c -0.5625,0.41015625 -1.089844,0.48046875 -1.40625,0.48046875 -0.738281,0 -1.3125,-0.65624998 -1.347656,-1.48828128 z m -2.800781,-0.5273437 c 0.140625,-0.5742188 0.585937,-1.0546875 1.148437,-1.0546875 0.328125,0 0.9375,0.1523437 1.113281,1.0546875 z m 6.228515,-1.3476563 c -0.550781,-0.2578125 -0.972656,-0.2929687 -1.335937,-0.2929687 -0.210938,0 -1.523438,0 -1.523438,1.1835937 0,0.4335938 0.257813,0.703125 0.363281,0.796875 0.339844,0.3046875 0.574219,0.3398438 1.183594,0.4570313 0.28125,0.058594 0.796875,0.1523437 0.796875,0.609375 0,0.58593748 -0.726562,0.58593748 -0.84375,0.58593748 -0.527344,0 -1.042969,-0.17578125 -1.429687,-0.4453125 l -0.117188,0.65625 c 0.539063,0.28125 1.089844,0.38671875 1.546875,0.38671875 0.574219,0 1.511719,-0.1875 1.511719,-1.25390623 0,-0.3046875 -0.128906,-0.6210938 -0.433594,-0.890625 -0.304687,-0.2578125 -0.574219,-0.3164063 -1.136719,-0.421875 -0.316406,-0.058594 -0.773437,-0.140625 -0.773437,-0.5625 0,-0.5273438 0.644531,-0.5273438 0.773437,-0.5273438 0.65625,0 1.042969,0.1992188 1.300782,0.3398438 z m 0,0"
       style="fill:#40bf00;fill-opacity:1;fill-rule:nonzero;stroke:none"
       aria-label="#Stages"
       transform="matrix(1.3333333,0,0,1.3333333,134.08,102.17867)" />
    <path
       id="path22"
       d="M 127.52376,10.62697 V -63.76187"
       style="fill:none;stroke:#ff0000;stroke-width:0.49815;stroke-linecap:round;stroke-linejoin:round;stroke-miterlimit:10;stroke-dasharray:2.98883, 2.98883;stroke-dashoffset:0;stroke-opacity:0.75"
       transform="matrix(1.3333333,0,0,-1.3333333,63.528,28.222667)" />
    <path
       id="path23"
       d="M 184.20099,-26.56743 V -63.76184"
       style="fill:none;stroke:#40bf00;stroke-width:0.49815;stroke-linecap:round;stroke-linejoin:round;stroke-miterlimit:10;stroke-dasharray:none;stroke-opacity:1"
       transform="matrix(1.3333333,0,0,-1.3333333,63.528,28.222667)" />
    <path
       id="path24"
       d="m 129.6658,-60.78082 52.39316,2e-5"
       style="fill:none;stroke:#40bf00;stroke-width:0.49815;stroke-linecap:round;stroke-linejoin:round;stroke-miterlimit:10;stroke-dasharray:none;stroke-opacity:1"
       transform="matrix(1.3333333,0,0,-1.3333333,63.528,28.222667)" />
    <path
       id="path25"
       d="M 2.14203,0 -1.28522,1.71362 0,0 -1.28522,-1.71362"
       style="fill:#40bf00;fill-opacity:1;fill-rule:nonzero;stroke:none"
       transform="matrix(-1.3333333,0,0,1.3333333,236.41573,109.26376)" />
    <path
       id="path26"
       d="M 2.14203,0 -1.28522,1.71362 0,0 -1.28522,-1.71362"
       style="fill:#40bf00;fill-opacity:1;fill-rule:nonzero;stroke:none"
       transform="matrix(1.3333333,0,0,-1.3333333,306.27328,109.26373)" />
    <path
       id="path27"
       d="M 155.86238,10.62697 V -58.44838"
       style="fill:none;stroke:#ff0000;stroke-width:0.49815;stroke-linecap:round;stroke-linejoin:round;stroke-miterlimit:10;stroke-dasharray:2.98883, 2.98883;stroke-dashoffset:0;stroke-opacity:0.75"
       transform="matrix(1.3333333,0,0,-1.3333333,63.528,28.222667)" />
    <path
       id="path28"
       d="M 212.53961,-26.56743 V -58.44838"
       style="fill:none;stroke:#40bf00;stroke-width:0.49815;stroke-linecap:round;stroke-linejoin:round;stroke-miterlimit:10;stroke-dasharray:none;stroke-opacity:1"
       transform="matrix(1.3333333,0,0,-1.3333333,63.528,28.222667)" />
    <path
       id="path29"
       d="m 158.00441,-55.46666 h 52.39317"
       style="fill:none;stroke:#40bf00;stroke-width:0.49815;stroke-linecap:round;stroke-linejoin:round;stroke-miterlimit:10;stroke-dasharray:none;stroke-opacity:1"
       transform="matrix(1.3333333,0,0,-1.3333333,63.528,28.222667)" />
    <path
       id="path30"
       d="M 2.14203,0 -1.28522,1.71362 0,0 -1.28522,-1.71362"
       style="fill:#40bf00;fill-opacity:1;fill-rule:nonzero;stroke:none"
       transform="matrix(-1.3333333,0,0,1.3333333,274.20055,102.17821)" />
    <path
       id="path31"
       d="M 2.14203,0 -1.28522,1.71362 0,0 -1.28522,-1.71362"
       style="fill:#40bf00;fill-opacity:1;fill-rule:nonzero;stroke:none"
       transform="matrix(1.3333333,0,0,-1.3333333,344.05811,102.17821)" />
    <path
       id="path32"
       d="M 184.20099,10.62697 V -53.13489"
       style="fill:none;stroke:#ff0000;stroke-width:0.49815;stroke-linecap:round;stroke-linejoin:round;stroke-miterlimit:10;stroke-dasharray:2.98883, 2.98883;stroke-dashoffset:0;stroke-opacity:0.75"
       transform="matrix(1.3333333,0,0,-1.3333333,63.528,28.222667)" />
    <path
       id="path33"
       d="M 240.87823,-26.56743 V -53.13487"
       style="fill:none;stroke:#40bf00;stroke-width:0.49815;stroke-linecap:round;stroke-linejoin:round;stroke-miterlimit:10;stroke-dasharray:none;stroke-opacity:1"
       transform="matrix(1.3333333,0,0,-1.3333333,63.528,28.222667)" />
    <path
       id="path34"
       d="m 186.34303,-50.15254 52.39316,1e-5"
       style="fill:none;stroke:#40bf00;stroke-width:0.49815;stroke-linecap:round;stroke-linejoin:round;stroke-miterlimit:10;stroke-dasharray:none;stroke-opacity:1"
       transform="matrix(1.3333333,0,0,-1.3333333,63.528,28.222667)" />
    <path
       id="path35"
       d="M 2.14203,0 -1.28522,1.71362 0,0 -1.28522,-1.71362"
       style="fill:#40bf00;fill-opacity:1;fill-rule:nonzero;stroke:none"
       transform="matrix(-1.3333333,0,0,1.3333333,311.98537,95.09272)" />
    <path
       id="path36"
       d="M 2.14203,0 -1.28522,1.71362 0,0 -1.28522,-1.71362"
       style="fill:#40bf00;fill-opacity:1;fill-rule:nonzero;stroke:none"
       transform="matrix(1.3333333,0,0,-1.3333333,381.84292,95.092707)" />
  </g>
</svg>
