<?xml version="1.0" encoding="UTF-8" standalone="no"?>
<!-- Created with Inkscape (http://www.inkscape.org/) -->

<svg
   version="1.1"
   id="svg1"
   width="505.52533"
   height="223.412"
   viewBox="0 0 505.52533 223.412"
   sodipodi:docname="main.pdf"
   xmlns:inkscape="http://www.inkscape.org/namespaces/inkscape"
   xmlns:sodipodi="http://sodipodi.sourceforge.net/DTD/sodipodi-0.dtd"
   xmlns="http://www.w3.org/2000/svg"
   xmlns:svg="http://www.w3.org/2000/svg">
  <defs
     id="defs1" />
  <sodipodi:namedview
     id="namedview1"
     pagecolor="#ffffff"
     bordercolor="#000000"
     borderopacity="0.25"
     inkscape:showpageshadow="2"
     inkscape:pageopacity="0.0"
     inkscape:pagecheckerboard="0"
     inkscape:deskcolor="#d1d1d1">
    <inkscape:page
       x="0"
       y="0"
       inkscape:label="1"
       id="page1"
       width="505.52533"
       height="223.412"
       margin="0"
       bleed="0" />
  </sodipodi:namedview>
  <g
     id="g1"
     inkscape:groupmode="layer"
     inkscape:label="1">
    <path
       id="path1"
       d="M 0,0 H 379.144 V 167.559 H 0 Z"
       style="fill:#ffffff;fill-opacity:1;fill-rule:nonzero;stroke:none"
       transform="matrix(1.3333333,0,0,-1.3333333,0,223.412)" />
    <path
       id="path2"
       d="M -65.41753,-136.87953 V 29.68153 h 378.14852 v -166.56106 z"
       style="fill:#ffffff;fill-opacity:1;fill-rule:nonzero;stroke:none"
       transform="matrix(1.3333333,0,0,-1.3333333,87.889333,40.241333)" />
    <path
       id="path3"
       d="m 5.7534687,-1.5461641 c -0.65625,0.5273438 -1.3945312,0.79687504 -2.1914062,0.79687504 -1.1953125,0 -1.96875,-1.05468754 -1.96875,-2.44921874 0,-1.1953125 0.5742187,-2.4960938 2.0039062,-2.4960938 0.9609375,0 1.3710938,0.234375 1.9804688,0.6445313 l 0.1757812,-0.9257813 c -0.8320312,-0.4921875 -1.3125,-0.609375 -2.15625,-0.609375 -1.9804687,0 -3.09374995,1.7578125 -3.09374995,3.3867188 0,1.8398437 1.31249995,3.33984374 3.03515625,3.33984374 0.703125,0 1.5117187,-0.1640625 2.296875,-0.73828125 0,-0.046875 -0.046875,-0.49218749 -0.058594,-0.55078129 z M 8.4224141,-9.9485078 H 7.3560078 V 7.109375e-4 h 1.0664063 z m 5.0273439,6.0351562 2.355469,-2.4492187 h -1.324219 l -2.765625,2.8828125 v -6.46875 H 10.660695 V 7.109375e-4 h 1.007813 V -2.0617891 l 1.089844,-1.1367187 2.179687,3.1992187375 h 1.183594 z m 0,0"
       style="fill:#000000;fill-opacity:1;fill-rule:nonzero;stroke:none"
       aria-label="clk"
       transform="matrix(1.3333333,0,0,1.3333333,52.469333,40.237333)" />
    <path
       id="path4"
       d="M 0,0.0037 H 20.40372 V 15.30649 H 40.80745 V 0.0037 H 61.21118 V 15.30649 H 81.61491 V 0.0037 h 20.40374 v 15.30279 h 20.40373 V 0.0037 h 20.40373 v 15.30279 h 20.40373 V 0.0037 h 20.40372 V 15.30649 H 204.0373 V 0.0037 h 20.40372 v 15.30279 h 20.40374 V 0.0037 h 20.40373 v 15.30279 h 20.40373 V 0.0037 h 20.40373"
       style="fill:none;stroke:#000000;stroke-width:0.95636;stroke-linecap:round;stroke-linejoin:round;stroke-miterlimit:10;stroke-dasharray:none;stroke-opacity:1"
       transform="matrix(1.3333333,0,0,-1.3333333,87.889333,40.241333)" />
    <path
       id="path5"
       d="m 6.0822578,-4.3133437 c 0,-0.8789063 -0.1875,-2.203125 -1.921875,-2.203125 -0.984375,0 -1.6523437,0.5625 -1.9921875,0.9960937 V -9.9500625 H 1.1017891 V -8.4375e-4 H 2.1916328 V -3.5750625 c 0,-0.890625 0.328125,-2.0742187 1.4179688,-2.0742187 1.3359375,0 1.3828125,0.9257812 1.3828125,1.4296875 v 4.21874995 h 1.0898437 z m 6.7382812,0.1054687 c 0,-1.3710937 -0.996094,-2.3789062 -2.332031,-2.3789062 -0.8554689,0 -1.5000002,0.1992187 -2.2031252,0.609375 l 0.082031,0.9375 C 9.0002266,-5.4969375 9.6564766,-5.75475 10.488508,-5.75475 c 0.667969,0 1.242187,0.5273438 1.242187,1.5820313 v 0.5859375 c -0.65625,0.023437 -1.511718,0.070312 -2.3671872,0.3632812 -0.9609375,0.328125 -1.5234375,0.8554688 -1.5234375,1.5703125 0,0.6328125 0.375,1.79296875 1.59375,1.79296875 0.7851567,0 1.7929687,-0.22265625 2.3203127,-0.66796875 v 0.52734375 h 1.066406 z m -1.089844,2.2851563 c 0,0.28125 0,0.6328125 -0.480468,0.9140625 -0.386719,0.2460937 -0.867188,0.2929687 -1.089844,0.2929687 -0.7734377,0 -1.3007814,-0.421875 -1.3007814,-0.9492187 0,-0.9726563 1.9921874,-1.1953125 2.8710934,-1.1953125 z m 4.379883,-8.0273438 h -1.066406 v 9.94921875 h 1.066406 z m 3.571289,4.4179688 h 1.980469 V -6.364125 H 19.681867 V -8.19225 h -0.984375 v 1.828125 h -1.207031 v 0.8320313 h 1.171875 v 3.8554687 c 0,0.83203125 0.1875,1.81640625 1.183594,1.81640625 0.960937,0 1.617187,-0.328125 2.0625,-0.55078125 l -0.210938,-0.8320312 c -0.503906,0.4335937 -1.03125,0.49218745 -1.289062,0.49218745 -0.632813,0 -0.726563,-0.66796875 -0.726563,-1.17187495 z m 0,0"
       style="fill:#000000;fill-opacity:1;fill-rule:nonzero;stroke:none"
       aria-label="halt"
       transform="matrix(1.3333333,0,0,1.3333333,44.542667,81.048)" />
    <path
       id="path6"
       d="m 0,-15.30281 h 25.50465 l 2.55046,-15.30279 h 38.25701 l 2.55046,15.30279 h 38.257 l 2.55046,-15.30279 h 196.38591"
       style="fill:none;stroke:#000000;stroke-width:0.95636;stroke-linecap:round;stroke-linejoin:round;stroke-miterlimit:10;stroke-dasharray:none;stroke-opacity:1"
       transform="matrix(1.3333333,0,0,-1.3333333,87.889333,40.241333)" />
    <path
       id="path7"
       d="m 6.5860937,-3.1509531 c 0,-1.9453125 -1.4179687,-3.4335938 -3.0703125,-3.4335938 -1.6992187,0 -3.0820312,1.5234375 -3.0820312,3.4335938 0,1.875 1.4296875,3.29296873 3.0703125,3.29296873 1.6875,0 3.0820312,-1.44140623 3.0820312,-3.29296873 z m -3.0703125,2.40234373 c -1.03125,0 -1.9921875,-0.85546873 -1.9921875,-2.55468753 0,-1.734375 1.078125,-2.4140625 1.9804688,-2.4140625 0.984375,0 1.9921875,0.7382813 1.9921875,2.4140625 0,1.7695313 -1.0195313,2.55468753 -1.9804688,2.55468753 z M 11.839023,-6.1392344 c -0.914062,-0.4335937 -1.6875,-0.4453125 -2.0156246,-0.4453125 -0.328125,0 -2.3320312,0 -2.3320312,1.8632813 0,0.6328125 0.3515625,1.0664062 0.5625,1.265625 0.515625,0.4453125 0.8789062,0.515625 1.7226562,0.6914062 0.4687496,0.09375 1.3007816,0.2695313 1.3007816,1.03125 0,0.98437503 -1.1132816,0.98437503 -1.3125003,0.98437503 -0.5742188,0 -1.40625,-0.15234375 -2.1796875,-0.71484373 l -0.1757813,0.97265623 c 0.070312,0.046875 1.0429688,0.6328125 2.3671875,0.6328125 1.8515626,0 2.2968746,-1.11328125 2.2968746,-1.95703123 0,-0.7382813 -0.445312,-1.1953125 -0.503906,-1.265625 -0.527344,-0.5507813 -0.960937,-0.6328125 -1.8398436,-0.8085938 -0.515625,-0.09375 -1.2421875,-0.2460937 -1.2421875,-0.9609375 0,-0.890625 1.0078125,-0.890625 1.1835938,-0.890625 0.7617183,0 1.3710933,0.1757813 2.0039063,0.5390625 z m 0,0"
       style="fill:#000000;fill-opacity:1;fill-rule:nonzero;stroke:none"
       aria-label="os"
       transform="matrix(1.3333333,0,0,1.3333333,15.046667,121.86533)" />
    <path
       id="path8"
       d="M 0,0 H 4.214"
       style="fill:none;stroke:#000000;stroke-width:0.398;stroke-linecap:butt;stroke-linejoin:round;stroke-miterlimit:10;stroke-dasharray:none;stroke-opacity:1"
       transform="matrix(1.3333333,0,0,-1.3333333,32.714667,121.6)" />
    <path
       id="path9"
       d="M 6.2099609,-6.3618906 H 5.1318359 L 4.0888672,-3.5142344 C 3.8427734,-2.8228281 3.3154297,-1.2993906 3.2216797,-0.77204687 H 3.2099609 C 3.1396484,-1.2759531 2.8583984,-2.0611094 2.6357422,-2.6822031 l -1.3125,-3.6796875 H 0.19824219 L 2.5654297,0.00139063 h 1.2773437 z m 5.8300781,2.15625 c 0,-1.3710938 -0.996094,-2.3789063 -2.3320312,-2.3789063 -0.8554687,0 -1.5,0.1992188 -2.203125,0.609375 l 0.082031,0.9375 c 0.6328125,-0.4570312 1.2890625,-0.7148437 2.1210937,-0.7148437 0.6679695,0 1.2421875,0.5273437 1.2421875,1.5820312 v 0.5859375 c -0.65625,0.023437 -1.5117187,0.070312 -2.3671875,0.3632813 C 7.62207,-2.8931406 7.05957,-2.3657969 7.05957,-1.6509531 c 0,0.6328125 0.375,1.79296873 1.59375,1.79296873 0.7851563,0 1.792969,-0.22265625 2.320313,-0.66796875 v 0.52734375 h 1.066406 z m -1.089844,2.2851562 c 0,0.28125 0,0.6328125 -0.480468,0.9140625 -0.386719,0.24609378 -0.8671879,0.29296878 -1.0898442,0.29296878 -0.7734375,0 -1.3007812,-0.42187498 -1.3007812,-0.94921878 0,-0.9726562 1.9921874,-1.1953125 2.8710934,-1.1953125 z m 4.379883,-8.0273437 h -1.066406 v 9.94921873 h 1.066406 z m 3.386719,0.2109375 h -1.230469 v 1.2304687 h 1.230469 z m -0.08203,3.375 H 17.56836 v 6.36328123 h 1.066407 z m 7.192382,-3.5859375 h -1.066406 v 4.1835937 c -0.65625,-0.5507812 -1.40625,-0.75 -2.015625,-0.75 -1.371094,0 -2.484375,1.4648438 -2.484375,3.328125 0,1.8515625 1.054688,3.32812503 2.425781,3.32812503 0.527344,0 1.335938,-0.1640625 2.050782,-0.8671875 v 0.7265625 h 1.089843 z m -1.089843,8.2617187 c -0.351563,0.609375 -0.84375,0.97265628 -1.476563,0.97265628 -0.878906,0 -1.910156,-0.67968748 -1.910156,-2.46093748 0,-1.8984375 1.21875,-2.4726563 2.050781,-2.4726563 0.5625,0 1.019531,0.28125 1.335938,0.7617188 z m 0,0"
       style="fill:#000000;fill-opacity:1;fill-rule:nonzero;stroke:none"
       aria-label="valid"
       transform="matrix(1.3333333,0,0,1.3333333,38.333333,121.86533)" />
    <path
       id="path10"
       d="m 0,-61.21866 h 25.50465 l 2.55046,15.3028 h 38.25701 l 2.55046,-15.3028 h 38.257 l 2.55046,15.3028 h 160.67939 l 2.55046,-15.3028 h 33.15606"
       style="fill:none;stroke:#000000;stroke-width:0.95636;stroke-linecap:round;stroke-linejoin:round;stroke-miterlimit:10;stroke-dasharray:none;stroke-opacity:1"
       transform="matrix(1.3333333,0,0,-1.3333333,87.889333,40.241333)" />
    <path
       id="path11"
       d="m 6.5854219,-3.1517188 c 0,-1.9453125 -1.4179688,-3.4335937 -3.0703125,-3.4335937 -1.6992188,0 -3.08203128,1.5234375 -3.08203128,3.4335937 0,1.875 1.42968748,3.2929688 3.07031248,3.2929688 1.6875,0 3.0820313,-1.4414063 3.0820313,-3.2929688 z M 3.5151094,-0.749375 c -1.03125,0 -1.9921875,-0.8554688 -1.9921875,-2.5546875 0,-1.734375 1.078125,-2.4140625 1.9804687,-2.4140625 0.984375,0 1.9921875,0.7382812 1.9921875,2.4140625 0,1.7695312 -1.0195312,2.5546875 -1.9804687,2.5546875 z M 11.841281,-6.14 c -0.914062,-0.4335938 -1.6875,-0.4453125 -2.0156248,-0.4453125 -0.328125,0 -2.3320312,0 -2.3320312,1.8632812 0,0.6328125 0.3515625,1.0664063 0.5625,1.265625 0.515625,0.4453125 0.8789062,0.515625 1.7226562,0.6914063 0.4687498,0.09375 1.3007808,0.2695312 1.3007808,1.03125 0,0.984375 -1.1132808,0.984375 -1.3124995,0.984375 -0.5742188,0 -1.40625,-0.15234375 -2.1796875,-0.7148438 l -0.1757813,0.9726563 c 0.070312,0.046875 1.0429688,0.6328125 2.3671875,0.6328125 1.8515628,0 2.2968748,-1.11328125 2.2968748,-1.9570313 0,-0.7382812 -0.445312,-1.1953125 -0.503906,-1.265625 C 11.044406,-3.6321875 10.610812,-3.7142188 9.7319062,-3.89 9.2162812,-3.98375 8.4897187,-4.1360938 8.4897187,-4.8509375 c 0,-0.890625 1.0078125,-0.890625 1.1835938,-0.890625 0.7617185,0 1.3710935,0.1757812 2.0039065,0.5390625 z m 0,0"
       style="fill:#000000;fill-opacity:1;fill-rule:nonzero;stroke:none"
       aria-label="os"
       transform="matrix(1.3333333,0,0,1.3333333,16.696,162.68667)" />
    <path
       id="path12"
       d="M 0,0 H 4.214"
       style="fill:none;stroke:#000000;stroke-width:0.398;stroke-linecap:butt;stroke-linejoin:round;stroke-miterlimit:10;stroke-dasharray:none;stroke-opacity:1"
       transform="matrix(1.3333333,0,0,-1.3333333,34.364,162.42133)" />
    <path
       id="path13"
       d="M 6.0715937,-9.9485938 H 5.0051875 V -5.765 c -0.65625,-0.5507813 -1.40625,-0.75 -2.015625,-0.75 -1.3710938,0 -2.484375,1.4648437 -2.484375,3.328125 0,1.8515625 1.0546875,3.328125 2.4257812,3.328125 0.5273438,0 1.3359375,-0.1640625 2.0507813,-0.8671875 V 6.25e-4 H 6.0715937 Z M 4.98175,-1.686875 C 4.6301875,-1.0775 4.138,-0.71421875 3.5051875,-0.71421875 c -0.8789063,0 -1.9101563,-0.67968755 -1.9101563,-2.46093755 0,-1.8984375 1.21875,-2.4726562 2.0507813,-2.4726562 0.5625,0 1.0195312,0.28125 1.3359375,0.7617187 z m 7.836914,-2.5195313 c 0,-1.3710937 -0.996094,-2.3789062 -2.332031,-2.3789062 -0.8554689,0 -1.5000002,0.1992187 -2.2031252,0.609375 l 0.082031,0.9375 c 0.6328125,-0.4570313 1.2890625,-0.7148438 2.1210942,-0.7148438 0.667969,0 1.242187,0.5273438 1.242187,1.5820313 v 0.5859375 c -0.65625,0.023437 -1.511718,0.070312 -2.3671875,0.3632812 -0.9609375,0.328125 -1.5234375,0.8554688 -1.5234375,1.5703125 0,0.6328125 0.375,1.7929688 1.59375,1.7929688 0.785157,0 1.792969,-0.22265625 2.320313,-0.66796875 V 6.25e-4 h 1.066406 z M 11.72882,-1.92125 c 0,0.28125 0,0.6328125 -0.480468,0.9140625 -0.386719,0.24609375 -0.867188,0.29296875 -1.089844,0.29296875 -0.7734377,0 -1.3007814,-0.42187505 -1.3007814,-0.94921875 0,-0.9726563 1.9921874,-1.1953125 2.8710934,-1.1953125 z m 4.649414,-3.609375 h 1.980469 v -0.8320313 h -1.980469 v -1.828125 h -0.984375 v 1.828125 h -1.207031 v 0.8320313 h 1.171875 v 3.8554687 c 0,0.8320313 0.1875,1.8164063 1.183594,1.8164063 0.960937,0 1.617187,-0.328125 2.0625,-0.55078125 L 18.393859,-1.2415625 c -0.503906,0.43359375 -1.03125,0.4921875 -1.289062,0.4921875 -0.632813,0 -0.726563,-0.6679688 -0.726563,-1.171875 z m 8.238282,1.3242187 c 0,-1.3710937 -0.996094,-2.3789062 -2.332032,-2.3789062 -0.855468,0 -1.5,0.1992187 -2.203125,0.609375 l 0.08203,0.9375 c 0.632812,-0.4570313 1.289062,-0.7148438 2.121093,-0.7148438 0.667969,0 1.242188,0.5273438 1.242188,1.5820313 v 0.5859375 c -0.65625,0.023437 -1.511719,0.070312 -2.367188,0.3632812 -0.960937,0.328125 -1.523437,0.8554688 -1.523437,1.5703125 0,0.6328125 0.375,1.7929688 1.59375,1.7929688 0.785156,0 1.792969,-0.22265625 2.320312,-0.66796875 V 6.25e-4 h 1.066407 z M 23.526672,-1.92125 c 0,0.28125 0,0.6328125 -0.480469,0.9140625 -0.386719,0.24609375 -0.867187,0.29296875 -1.089844,0.29296875 -0.773437,0 -1.300781,-0.42187505 -1.300781,-0.94921875 0,-0.9726563 1.992188,-1.1953125 2.871094,-1.1953125 z m 0,0"
       style="fill:#000000;fill-opacity:1;fill-rule:nonzero;stroke:none"
       aria-label="data"
       transform="matrix(1.3333333,0,0,1.3333333,39.982667,162.68667)" />
    <path
       id="path14"
       d="m 0,-84.18312 v 7.6514 h 25.50465 l 2.55046,-7.6514 -2.55046,-7.6514 H 0 v 7.6514"
       style="fill:#808080;fill-opacity:1;fill-rule:nonzero;stroke:none"
       transform="matrix(1.3333333,0,0,-1.3333333,87.889333,40.241333)" />
    <path
       id="path15"
       d="m 0,-76.53078 25.50465,-9.4e-4 2.55046,-7.6514 -2.55046,-7.6514 L 0,-91.83357"
       style="fill:none;stroke:#000000;stroke-width:0.95636;stroke-linecap:round;stroke-linejoin:round;stroke-miterlimit:10;stroke-dasharray:none;stroke-opacity:1"
       transform="matrix(1.3333333,0,0,-1.3333333,87.889333,40.241333)" />
    <path
       id="path16"
       d="m 28.05511,-84.18126 2.55048,7.65141 35.70653,-9.3e-4 2.55046,-7.65139 -2.55046,-7.6514 -35.70653,0.0019 -2.55048,7.6514"
       style="fill:none;stroke:#000000;stroke-width:0.95636;stroke-linecap:round;stroke-linejoin:round;stroke-miterlimit:10;stroke-dasharray:none;stroke-opacity:1"
       transform="matrix(1.3333333,0,0,-1.3333333,87.889333,40.241333)" />
    <g
       id="g16"
       aria-label="data&#10;0"
       transform="matrix(0.8,0,0,0.8,139.37067,155.41867)">
      <path
         id="path17"
         d="m 6.6411589,-1.6024349 c -0.7617188,0.8984375 -0.9179688,1.03515625 -1.171875,1.03515625 -0.1367188,0 -0.2539063,-0.13671875 -0.2539063,-0.29296875 0,-0.1953125 0.4492188,-1.953125 0.9375,-3.5351562 0.3710938,-1.328125 0.6835938,-2.4609375 1.40625,-5.3320313 l -0.058594,-0.078125 c -0.7617188,0.15625 -1.2890625,0.234375 -2.2070313,0.3320313 v 0.234375 c 0.8007813,0.039063 0.8984375,0.078125 0.8984375,0.390625 0,0.1757812 -0.019531,0.2539062 -0.2148437,0.9960937 l -0.6445313,2.34375 c -0.097656,-0.5859375 -0.3710937,-0.8203125 -0.9179687,-0.8203125 -1.875,0 -4.1992188,2.6953125 -4.1992188,4.84375 0,1.015625 0.56640625,1.640625 1.5039063,1.640625 0.9765625,0 1.6210937,-0.44921875 2.5976562,-1.8945312 -0.1757812,0.74218745 -0.1953125,0.9570312 -0.1953125,1.2695312 0,0.390625 0.234375,0.6640625 0.6054688,0.6640625 0.6054687,0 1.3476562,-0.60546875 2.0898437,-1.640625 z M 4.4731901,-5.9969661 c 0.4296875,0.019531 0.6445313,0.2929687 0.6445313,0.8203125 0,2.1679687 -1.5039063,4.64843745 -2.8125,4.64843745 -0.4882813,0 -0.8398438,-0.390625 -0.8398438,-0.95703125 0,-1.1914062 0.7226563,-2.8515625 1.6601563,-3.8476562 0.4101562,-0.4296875 0.9375,-0.703125 1.3476562,-0.6640625 z m 10.1074219,4.4140625 c -0.214844,0.2148437 -0.292969,0.2929687 -0.410156,0.4101562 -0.429688,0.44921875 -0.605469,0.5859375 -0.742188,0.5859375 -0.117187,0 -0.195312,-0.0976563 -0.195312,-0.1953125 0,-0.2734375 0.605468,-2.734375 1.269531,-5.1953125 0.05859,-0.15625 0.05859,-0.1757812 0.09766,-0.3125 l -0.09766,-0.039063 -0.878906,0.097656 -0.03906,0.039063 -0.15625,0.6835937 c -0.117187,-0.5273437 -0.546875,-0.8203125 -1.152344,-0.8203125 -1.894531,0 -4.1210933,2.6171875 -4.1210933,4.8828125 0,1.015625 0.546875,1.6015625 1.4648438,1.6015625 1.0156245,0 1.6406245,-0.46875 2.8906245,-2.2460937 -0.273437,1.1132812 -0.332031,1.3085937 -0.332031,1.64062495 0,0.4296875 0.175781,0.5859375 0.585938,0.5859375 0.566406,0 0.917968,-0.2734375 1.992187,-1.58203125 z m -2.226563,-4.4335938 c 0.488282,0.039063 0.800782,0.3710938 0.800782,0.8789063 0,1.2109375 -0.703125,2.890625 -1.699219,3.9648437 -0.351563,0.390625 -0.839844,0.625 -1.25,0.625 -0.5078125,0 -0.8398438,-0.41015625 -0.8398438,-1.0742187 0,-0.78125 0.546875,-2.2460938 1.1718748,-3.1445313 0.566406,-0.8398437 1.25,-1.2890625 1.816406,-1.25 z m 6.635743,-0.1367187 h -1.152344 l 0.390625,-1.4648438 c 0.01953,-0.039063 0.01953,-0.058594 0.01953,-0.078125 0,-0.097656 -0.03906,-0.1367187 -0.117187,-0.1367187 -0.07813,0 -0.117188,0 -0.214844,0.1171875 -0.546875,0.7421875 -1.445313,1.4648437 -1.914063,1.5820312 -0.351562,0.1171875 -0.449218,0.1953125 -0.449218,0.3710938 0,0 0,0.039063 0.01953,0.078125 h 1.054687 l -1.035156,3.9453125 c -0.01953,0.1367187 -0.03906,0.1757812 -0.07813,0.2929687 -0.136719,0.44921875 -0.253906,0.9375 -0.253906,1.0546875 0,0.3125 0.3125,0.546875 0.683594,0.546875 0.664062,0 1.152343,-0.390625 2.050781,-1.7382812 l -0.195313,-0.097656 c -0.703125,0.8984375 -0.917968,1.1328125 -1.152343,1.1328125 -0.136719,0 -0.214844,-0.1171875 -0.214844,-0.29296875 0,0 0,-0.0195313 0,-0.0585938 l 1.269531,-4.78515625 h 1.210938 z m 7.368164,4.5703125 c -0.214844,0.2148437 -0.292969,0.2929687 -0.410157,0.4101562 -0.429687,0.44921875 -0.605468,0.5859375 -0.742187,0.5859375 -0.117188,0 -0.195313,-0.0976563 -0.195313,-0.1953125 0,-0.2734375 0.605469,-2.734375 1.269532,-5.1953125 0.05859,-0.15625 0.05859,-0.1757812 0.09766,-0.3125 l -0.09766,-0.039063 -0.878907,0.097656 -0.03906,0.039063 -0.15625,0.6835937 c -0.117188,-0.5273437 -0.546875,-0.8203125 -1.152344,-0.8203125 -1.894531,0 -4.121094,2.6171875 -4.121094,4.8828125 0,1.015625 0.546875,1.6015625 1.464844,1.6015625 1.015625,0 1.640625,-0.46875 2.890625,-2.2460937 -0.273437,1.1132812 -0.332031,1.3085937 -0.332031,1.64062495 0,0.4296875 0.175781,0.5859375 0.585937,0.5859375 0.566407,0 0.917969,-0.2734375 1.992188,-1.58203125 z m -2.226563,-4.4335938 c 0.488281,0.039063 0.800781,0.3710938 0.800781,0.8789063 0,1.2109375 -0.703125,2.890625 -1.699218,3.9648437 -0.351563,0.390625 -0.839844,0.625 -1.25,0.625 -0.507813,0 -0.839844,-0.41015625 -0.839844,-1.0742187 0,-0.78125 0.546875,-2.2460938 1.171875,-3.1445313 0.566406,-0.8398437 1.25,-1.2890625 1.816406,-1.25 z m 0,0"
         style="fill:#000000;fill-opacity:1;fill-rule:nonzero;stroke:none" />
      <path
         id="path18"
         d="m 29.644089,-5.0204036 c -0.605469,0 -1.054688,0.1953125 -1.464844,0.5664062 -0.625,0.6054688 -1.054688,1.875 -1.054688,3.1445313 0,1.1914062 0.371094,2.4804687 0.878907,3.0859375 0.410156,0.46875 0.957031,0.7421875 1.601562,0.7421875 0.546875,0 1.015625,-0.1953125 1.40625,-0.5664063 0.644531,-0.6054687 1.054688,-1.875 1.054688,-3.1835937 0,-2.2460938 -0.996094,-3.7890625 -2.421875,-3.7890625 z m -0.03906,0.2929687 c 0.917969,0 1.40625,1.2304688 1.40625,3.515625 0,2.265625 -0.46875,3.4375 -1.40625,3.4375 -0.9375,0 -1.425781,-1.171875 -1.425781,-3.4375 0,-2.3046875 0.488281,-3.515625 1.425781,-3.515625 z m 0,0"
         style="fill:#000000;fill-opacity:1;fill-rule:nonzero;stroke:none" />
    </g>
    <path
       id="path19"
       d="m 68.86258,-84.18031 2.55048,7.65139 76.51397,-9.3e-4 2.55048,-7.65141 -2.55048,-7.6514 -76.51397,0.0019 -2.55048,7.6514"
       style="fill:none;stroke:#000000;stroke-width:0.95636;stroke-linecap:round;stroke-linejoin:round;stroke-miterlimit:10;stroke-dasharray:none;stroke-opacity:1"
       transform="matrix(1.3333333,0,0,-1.3333333,87.889333,40.241333)" />
    <g
       id="g19"
       aria-label="data&#10;1"
       transform="matrix(0.8,0,0,0.8,220.98533,155.48533)">
      <path
         id="path20"
         d="m 6.6394271,-1.6027604 c -0.7617188,0.89843748 -0.9179688,1.03515623 -1.171875,1.03515623 -0.1367188,0 -0.2539063,-0.13671875 -0.2539063,-0.29296875 0,-0.19531248 0.4492188,-1.95312498 0.9375,-3.53515628 0.3710938,-1.328125 0.6835938,-2.4609375 1.40625,-5.3320312 l -0.058594,-0.078125 c -0.7617188,0.15625 -1.2890625,0.234375 -2.2070313,0.3320312 v 0.234375 c 0.8007813,0.039063 0.8984375,0.078125 0.8984375,0.390625 0,0.1757813 -0.019531,0.2539063 -0.2148437,0.9960938 l -0.6445313,2.34375 C 5.233177,-6.0949479 4.9597393,-6.3293229 4.4128643,-6.3293229 c -1.875,0 -4.19921877,2.6953125 -4.19921877,4.84375 0,1.01562498 0.56640625,1.64062498 1.50390627,1.64062498 0.9765625,0 1.6210937,-0.44921875 2.5976562,-1.89453128 -0.1757812,0.74218753 -0.1953125,0.95703128 -0.1953125,1.26953128 0,0.390625 0.234375,0.6640625 0.6054688,0.6640625 0.6054687,0 1.3476562,-0.60546875 2.0898437,-1.64062498 z M 4.4714583,-5.9972917 c 0.4296875,0.019531 0.6445313,0.2929688 0.6445313,0.8203125 0,2.1679688 -1.5039063,4.64843753 -2.8125,4.64843753 -0.4882813,0 -0.8398438,-0.390625 -0.8398438,-0.95703123 0,-1.1914063 0.7226563,-2.8515625 1.6601563,-3.8476563 0.4101562,-0.4296875 0.9375,-0.703125 1.3476562,-0.6640625 z M 14.57888,-1.5832292 c -0.214844,0.2148438 -0.292969,0.2929688 -0.410156,0.4101563 -0.429688,0.44921873 -0.605469,0.58593748 -0.742188,0.58593748 -0.117187,0 -0.195312,-0.0976563 -0.195312,-0.1953125 0,-0.27343748 0.605469,-2.73437498 1.269531,-5.19531248 0.05859,-0.15625 0.05859,-0.1757813 0.09766,-0.3125 l -0.09766,-0.039063 -0.878906,0.097656 -0.03906,0.039063 -0.15625,0.6835938 c -0.117187,-0.5273438 -0.546875,-0.8203125 -1.152343,-0.8203125 -1.894532,0 -4.121094,2.6171875 -4.121094,4.8828125 0,1.01562498 0.546875,1.60156248 1.4648437,1.60156248 1.0156253,0 1.6406253,-0.46875 2.8906253,-2.24609378 -0.273438,1.11328128 -0.332032,1.30859378 -0.332032,1.64062503 0,0.4296875 0.175782,0.5859375 0.585938,0.5859375 0.566406,0 0.917969,-0.2734375 1.992187,-1.58203123 z m -2.226562,-4.4335937 c 0.488281,0.039063 0.800781,0.3710937 0.800781,0.8789062 0,1.2109375 -0.703125,2.890625 -1.699219,3.9648438 -0.351562,0.39062498 -0.839844,0.62499998 -1.25,0.62499998 -0.5078123,0 -0.8398435,-0.41015625 -0.8398435,-1.07421878 0,-0.78125 0.546875,-2.2460937 1.1718745,-3.1445312 0.566407,-0.8398438 1.25,-1.2890625 1.816407,-1.25 z m 6.640625,-0.1367188 h -1.152344 l 0.390625,-1.4648437 c 0.01953,-0.039063 0.01953,-0.058594 0.01953,-0.078125 0,-0.097656 -0.03906,-0.1367188 -0.117187,-0.1367188 -0.07813,0 -0.117188,0 -0.214844,0.1171875 -0.546875,0.7421875 -1.445313,1.4648438 -1.914063,1.5820313 -0.351562,0.1171875 -0.449218,0.1953125 -0.449218,0.3710937 0,0 0,0.039063 0.01953,0.078125 h 1.054687 l -1.035156,3.9453125 c -0.01953,0.1367188 -0.03906,0.1757813 -0.07813,0.2929688 -0.136719,0.44921873 -0.253906,0.93749998 -0.253906,1.05468748 0,0.3125 0.3125,0.546875 0.683594,0.546875 0.664062,0 1.152343,-0.390625 2.050781,-1.73828128 l -0.195313,-0.097656 c -0.703125,0.89843748 -0.917968,1.13281248 -1.152343,1.13281248 -0.136719,0 -0.214844,-0.1171875 -0.214844,-0.29296875 0,0 0,-0.0195313 0,-0.0585938 L 17.70388,-5.6847917 h 1.210938 z m 7.363281,4.5703125 c -0.214844,0.2148438 -0.292969,0.2929688 -0.410156,0.4101563 -0.429688,0.44921873 -0.605469,0.58593748 -0.742188,0.58593748 -0.117187,0 -0.195312,-0.0976563 -0.195312,-0.1953125 0,-0.27343748 0.605468,-2.73437498 1.269531,-5.19531248 0.05859,-0.15625 0.05859,-0.1757813 0.09766,-0.3125 l -0.09766,-0.039063 -0.878906,0.097656 -0.03906,0.039063 -0.15625,0.6835938 c -0.117187,-0.5273438 -0.546875,-0.8203125 -1.152344,-0.8203125 -1.894531,0 -4.121093,2.6171875 -4.121093,4.8828125 0,1.01562498 0.546875,1.60156248 1.464843,1.60156248 1.015625,0 1.640625,-0.46875 2.890625,-2.24609378 -0.273437,1.11328128 -0.332031,1.30859378 -0.332031,1.64062503 0,0.4296875 0.175781,0.5859375 0.585938,0.5859375 0.566406,0 0.917968,-0.2734375 1.992187,-1.58203123 z m -2.226563,-4.4335937 c 0.488282,0.039063 0.800782,0.3710937 0.800782,0.8789062 0,1.2109375 -0.703125,2.890625 -1.699219,3.9648438 -0.351563,0.39062498 -0.839844,0.62499998 -1.25,0.62499998 -0.507813,0 -0.839844,-0.41015625 -0.839844,-1.07421878 0,-0.78125 0.546875,-2.2460937 1.171875,-3.1445312 0.566406,-0.8398438 1.25,-1.2890625 1.816406,-1.25 z m 0,0"
         style="fill:#000000;fill-opacity:1;fill-rule:nonzero;stroke:none" />
      <path
         id="path21"
         d="m 30.052513,-5.0207292 -1.972656,0.9960938 v 0.15625 c 0.136719,-0.058594 0.253906,-0.097656 0.292969,-0.1171875 0.195312,-0.078125 0.390625,-0.1171875 0.488281,-0.1171875 0.234375,0 0.332031,0.15625 0.332031,0.5078125 v 4.9414062 c 0,0.3515625 -0.07813,0.6054688 -0.253906,0.703125 -0.175781,0.097656 -0.332031,0.1367188 -0.78125,0.15625 v 0.15625 h 3.007812 v -0.15625 C 30.306419,2.1863021 30.130638,2.0691146 30.130638,1.5613021 v -6.5625 z m 0,0"
         style="fill:#000000;fill-opacity:1;fill-rule:nonzero;stroke:none" />
    </g>
    <path
       id="path22"
       d="m 150.47751,-84.17938 2.55046,7.6514 35.70653,-9.4e-4 2.55047,-7.65139 -2.55047,-7.6514 -35.70653,0.0019 -2.55046,7.65139"
       style="fill:none;stroke:#000000;stroke-width:0.95636;stroke-linecap:round;stroke-linejoin:round;stroke-miterlimit:10;stroke-dasharray:none;stroke-opacity:1"
       transform="matrix(1.3333333,0,0,-1.3333333,87.889333,40.241333)" />
    <g
       id="g22"
       aria-label="data&#10;2"
       transform="matrix(0.8,0,0,0.8,302.59867,155.484)">
      <path
         id="path23"
         d="m 6.639362,-1.6010937 c -0.7617188,0.89843745 -0.9179688,1.0351562 -1.171875,1.0351562 -0.1367188,0 -0.2539063,-0.13671875 -0.2539063,-0.29296875 0,-0.19531245 0.4492188,-1.95312495 0.9375,-3.53515625 0.3710938,-1.328125 0.6835938,-2.4609375 1.40625,-5.3320312 l -0.058594,-0.078125 c -0.7617188,0.15625 -1.2890625,0.234375 -2.2070313,0.3320312 v 0.234375 c 0.8007813,0.039063 0.8984375,0.078125 0.8984375,0.390625 0,0.1757813 -0.019531,0.2539063 -0.2148437,0.9960938 l -0.6445313,2.34375 C 5.233112,-6.0932812 4.9596745,-6.3276562 4.4127995,-6.3276562 c -1.875,0 -4.19921877,2.6953125 -4.19921877,4.84375 0,1.01562495 0.56640625,1.64062495 1.50390627,1.64062495 0.9765625,0 1.6210937,-0.44921875 2.5976562,-1.89453125 -0.1757812,0.7421875 -0.1953125,0.95703125 -0.1953125,1.26953125 0,0.390625 0.234375,0.6640625 0.6054688,0.6640625 0.6054687,0 1.3476562,-0.60546875 2.0898437,-1.64062495 z M 4.4713932,-5.995625 c 0.4296875,0.019531 0.6445313,0.2929688 0.6445313,0.8203125 0,2.1679688 -1.5039063,4.6484375 -2.8125,4.6484375 -0.4882813,0 -0.8398438,-0.390625 -0.8398438,-0.9570312 0,-1.1914063 0.7226563,-2.8515625 1.6601563,-3.8476563 0.4101562,-0.4296875 0.9375,-0.703125 1.3476562,-0.6640625 z m 10.1074218,4.4140625 c -0.214844,0.2148438 -0.292969,0.2929688 -0.410156,0.4101563 -0.429688,0.4492187 -0.605469,0.58593745 -0.742188,0.58593745 -0.117187,0 -0.195312,-0.0976563 -0.195312,-0.1953125 0,-0.27343745 0.605469,-2.73437495 1.269531,-5.19531245 0.05859,-0.15625 0.05859,-0.1757813 0.09766,-0.3125 l -0.09766,-0.039063 -0.878906,0.097656 -0.03906,0.039063 -0.15625,0.6835938 c -0.117187,-0.5273438 -0.546875,-0.8203125 -1.152343,-0.8203125 -1.894532,0 -4.1210941,2.6171875 -4.1210941,4.8828125 0,1.01562495 0.546875,1.60156245 1.4648437,1.60156245 1.0156254,0 1.6406254,-0.46875 2.8906254,-2.24609375 -0.273438,1.11328125 -0.332032,1.30859375 -0.332032,1.640625 0,0.4296875 0.175782,0.5859375 0.585938,0.5859375 0.566406,0 0.917969,-0.2734375 1.992187,-1.5820312 z m -2.226562,-4.4335937 c 0.488281,0.039063 0.800781,0.3710937 0.800781,0.8789062 0,1.2109375 -0.703125,2.890625 -1.699219,3.9648438 -0.351562,0.39062495 -0.839844,0.62499995 -1.25,0.62499995 -0.5078124,0 -0.8398436,-0.41015625 -0.8398436,-1.07421875 0,-0.78125 0.546875,-2.2460937 1.1718746,-3.1445312 0.566407,-0.8398438 1.25,-1.2890625 1.816407,-1.25 z m 6.640625,-0.1367188 h -1.152344 l 0.390625,-1.4648437 c 0.01953,-0.039063 0.01953,-0.058594 0.01953,-0.078125 0,-0.097656 -0.03906,-0.1367188 -0.117187,-0.1367188 -0.07813,0 -0.117188,0 -0.214844,0.1171875 -0.546875,0.7421875 -1.445313,1.4648438 -1.914063,1.5820313 -0.351562,0.1171875 -0.449218,0.1953125 -0.449218,0.3710937 0,0 0,0.039063 0.01953,0.078125 h 1.054687 l -1.035156,3.9453125 c -0.01953,0.1367188 -0.03906,0.1757813 -0.07813,0.2929688 -0.136719,0.4492187 -0.253906,0.93749995 -0.253906,1.05468745 0,0.3125 0.3125,0.546875 0.683594,0.546875 0.664062,0 1.152343,-0.390625 2.050781,-1.73828125 l -0.195313,-0.097656 c -0.703125,0.89843745 -0.917968,1.13281245 -1.152343,1.13281245 -0.136719,0 -0.214844,-0.1171875 -0.214844,-0.29296875 0,0 0,-0.0195313 0,-0.0585938 l 1.269538,-4.7851564 h 1.210938 z m 7.363281,4.5703125 c -0.214844,0.2148438 -0.292969,0.2929688 -0.410156,0.4101563 -0.429688,0.4492187 -0.605469,0.58593745 -0.742188,0.58593745 -0.117187,0 -0.195312,-0.0976563 -0.195312,-0.1953125 0,-0.27343745 0.605468,-2.73437495 1.269531,-5.19531245 0.05859,-0.15625 0.05859,-0.1757813 0.09766,-0.3125 l -0.09766,-0.039063 -0.878906,0.097656 -0.03906,0.039063 -0.15625,0.6835938 c -0.117187,-0.5273438 -0.546875,-0.8203125 -1.152344,-0.8203125 -1.894531,0 -4.121093,2.6171875 -4.121093,4.8828125 0,1.01562495 0.546875,1.60156245 1.464843,1.60156245 1.015625,0 1.640625,-0.46875 2.890625,-2.24609375 -0.273437,1.11328125 -0.332031,1.30859375 -0.332031,1.640625 0,0.4296875 0.175781,0.5859375 0.585938,0.5859375 0.566406,0 0.917968,-0.2734375 1.992187,-1.5820312 z m -2.226563,-4.4335937 c 0.488282,0.039063 0.800782,0.3710937 0.800782,0.8789062 0,1.2109375 -0.703125,2.890625 -1.699219,3.9648438 -0.351563,0.39062495 -0.839844,0.62499995 -1.25,0.62499995 -0.507813,0 -0.839844,-0.41015625 -0.839844,-1.07421875 0,-0.78125 0.546875,-2.2460937 1.171875,-3.1445312 0.566406,-0.8398438 1.25,-1.2890625 1.816406,-1.25 z m 0,0"
         style="fill:#000000;fill-opacity:1;fill-rule:nonzero;stroke:none" />
      <path
         id="path24"
         d="m 32.064167,0.85984375 -0.15625,-0.0390625 C 31.517292,1.42625 31.361042,1.5434375 30.87276,1.5434375 h -2.597656 l 1.816406,-1.93359375 c 0.976563,-1.01562495 1.40625,-1.83593745 1.40625,-2.69531245 0,-1.09375 -0.878906,-1.9335938 -2.011718,-1.9335938 -0.605469,0 -1.171875,0.234375 -1.582032,0.6835938 -0.351562,0.3710937 -0.507812,0.7226562 -0.703125,1.484375 L 27.43526,-2.7925 c 0.429688,-1.0742187 0.839844,-1.4257812 1.582032,-1.4257812 0.917968,0 1.542968,0.625 1.542968,1.5429687 0,0.859375 -0.507812,1.875 -1.425781,2.8515625 L 27.200885,2.2270313 V 2.36375 h 4.257813 z m 0,0"
         style="fill:#000000;fill-opacity:1;fill-rule:nonzero;stroke:none" />
    </g>
    <path
       id="path25"
       d="m 191.28497,-84.17844 2.55046,7.6514 76.514,-9.4e-4 2.55046,-7.6514 -2.55046,-7.6514 -76.514,0.0019 -2.55046,7.65142"
       style="fill:none;stroke:#000000;stroke-width:0.95636;stroke-linecap:round;stroke-linejoin:round;stroke-miterlimit:10;stroke-dasharray:none;stroke-opacity:1"
       transform="matrix(1.3333333,0,0,-1.3333333,87.889333,40.241333)" />
    <g
       id="g25"
       aria-label="data&#10;3"
       transform="matrix(0.8,0,0,0.8,384.212,155.416)">
      <path
         id="path26"
         d="m 6.6392969,-1.6039844 c -0.7617188,0.89843753 -0.9179688,1.03515628 -1.171875,1.03515628 -0.1367188,0 -0.2539063,-0.13671875 -0.2539063,-0.29296875 0,-0.19531253 0.4492188,-1.95312503 0.9375,-3.53515623 0.3710938,-1.328125 0.6835938,-2.4609375 1.40625,-5.3320313 l -0.058594,-0.078125 c -0.7617188,0.15625 -1.2890625,0.234375 -2.2070313,0.3320313 v 0.234375 c 0.8007813,0.039063 0.8984375,0.078125 0.8984375,0.390625 0,0.1757812 -0.019531,0.2539062 -0.2148437,0.9960937 l -0.6445313,2.34375 c -0.097656,-0.5859375 -0.3710937,-0.8203125 -0.9179687,-0.8203125 -1.875,0 -4.19921877,2.6953125 -4.19921877,4.84375 0,1.01562503 0.56640625,1.64062503 1.50390627,1.64062503 0.9765625,0 1.6210937,-0.44921875 2.5976562,-1.89453123 -0.1757812,0.74218748 -0.1953125,0.95703123 -0.1953125,1.26953123 0,0.390625 0.234375,0.6640625 0.6054688,0.6640625 0.6054687,0 1.3476562,-0.60546875 2.0898437,-1.64062503 z M 4.4713281,-5.9985156 c 0.4296875,0.019531 0.6445313,0.2929687 0.6445313,0.8203125 0,2.1679687 -1.5039063,4.64843748 -2.8125,4.64843748 -0.4882813,0 -0.8398438,-0.390625 -0.8398438,-0.95703128 0,-1.1914062 0.7226563,-2.8515625 1.6601563,-3.8476562 0.4101562,-0.4296875 0.9375,-0.703125 1.3476562,-0.6640625 z M 14.57875,-1.5844531 c -0.214844,0.2148437 -0.292969,0.2929687 -0.410156,0.4101562 -0.429688,0.44921878 -0.605469,0.58593753 -0.742188,0.58593753 -0.117187,0 -0.195312,-0.0976563 -0.195312,-0.1953125 0,-0.27343753 0.605469,-2.73437503 1.269531,-5.19531253 0.05859,-0.15625 0.05859,-0.1757812 0.09766,-0.3125 l -0.09766,-0.039063 -0.878906,0.097656 -0.03906,0.039063 -0.15625,0.6835937 c -0.117187,-0.5273437 -0.546875,-0.8203125 -1.152343,-0.8203125 -1.894532,0 -4.1210942,2.6171875 -4.1210942,4.8828125 0,1.01562503 0.546875,1.60156253 1.4648437,1.60156253 1.0156255,0 1.6406255,-0.46875 2.8906255,-2.24609373 -0.273438,1.11328123 -0.332032,1.30859373 -0.332032,1.64062498 0,0.4296875 0.175782,0.5859375 0.585938,0.5859375 0.566406,0 0.917969,-0.2734375 1.992187,-1.58203128 z m -2.226562,-4.4335938 c 0.488281,0.039063 0.800781,0.3710938 0.800781,0.8789063 0,1.2109375 -0.703125,2.890625 -1.699219,3.9648437 -0.351562,0.39062503 -0.839844,0.62500003 -1.25,0.62500003 -0.5078125,0 -0.8398437,-0.41015625 -0.8398437,-1.07421873 0,-0.78125 0.546875,-2.2460938 1.1718747,-3.1445313 0.566407,-0.8398437 1.25,-1.2890625 1.816407,-1.25 z m 6.640625,-0.1367187 h -1.152344 l 0.390625,-1.4648438 c 0.01953,-0.039063 0.01953,-0.058594 0.01953,-0.078125 0,-0.097656 -0.03906,-0.1367187 -0.117187,-0.1367187 -0.07813,0 -0.117188,0 -0.214844,0.1171875 -0.546875,0.7421875 -1.445313,1.4648437 -1.914063,1.5820312 -0.351562,0.1171875 -0.449218,0.1953125 -0.449218,0.3710938 0,0 0,0.039063 0.01953,0.078125 h 1.054687 l -1.035156,3.9453125 c -0.01953,0.1367187 -0.03906,0.1757812 -0.07813,0.2929687 -0.136719,0.44921878 -0.253906,0.93750003 -0.253906,1.05468753 0,0.3125 0.3125,0.546875 0.683594,0.546875 0.664062,0 1.152343,-0.390625 2.050781,-1.73828123 l -0.195313,-0.097656 c -0.703125,0.89843753 -0.917968,1.13281253 -1.152343,1.13281253 -0.136719,0 -0.214844,-0.1171875 -0.214844,-0.29296875 0,0 0,-0.0195313 0,-0.0585938 L 17.70375,-5.6860156 h 1.210938 z m 7.363281,4.5703125 c -0.214844,0.2148437 -0.292969,0.2929687 -0.410156,0.4101562 -0.429688,0.44921878 -0.605469,0.58593753 -0.742188,0.58593753 -0.117187,0 -0.195312,-0.0976563 -0.195312,-0.1953125 0,-0.27343753 0.605468,-2.73437503 1.269531,-5.19531253 0.05859,-0.15625 0.05859,-0.1757812 0.09766,-0.3125 l -0.09766,-0.039063 -0.878906,0.097656 -0.03906,0.039063 -0.15625,0.6835937 c -0.117187,-0.5273437 -0.546875,-0.8203125 -1.152344,-0.8203125 -1.894531,0 -4.121093,2.6171875 -4.121093,4.8828125 0,1.01562503 0.546875,1.60156253 1.464843,1.60156253 1.015625,0 1.640625,-0.46875 2.890625,-2.24609373 -0.273437,1.11328123 -0.332031,1.30859373 -0.332031,1.64062498 0,0.4296875 0.175781,0.5859375 0.585938,0.5859375 0.566406,0 0.917968,-0.2734375 1.992187,-1.58203128 z m -2.226563,-4.4335938 c 0.488282,0.039063 0.800782,0.3710938 0.800782,0.8789063 0,1.2109375 -0.703125,2.890625 -1.699219,3.9648437 -0.351563,0.39062503 -0.839844,0.62500003 -1.25,0.62500003 -0.507813,0 -0.839844,-0.41015625 -0.839844,-1.07421873 0,-0.78125 0.546875,-2.2460938 1.171875,-3.1445313 0.566406,-0.8398437 1.25,-1.2890625 1.816406,-1.25 z m 0,0"
         style="fill:#000000;fill-opacity:1;fill-rule:nonzero;stroke:none" />
      <path
         id="path27"
         d="m 28.548477,-1.2328906 c 0.644531,0 0.878906,0.019531 1.152343,0.1171875 0.664063,0.23437498 1.09375,0.85937498 1.09375,1.60156248 0,0.91796872 -0.625,1.64062502 -1.425781,1.64062502 -0.292969,0 -0.507812,-0.078125 -0.917969,-0.3515625 -0.332031,-0.1953125 -0.507812,-0.2734375 -0.703125,-0.2734375 -0.253906,0 -0.410156,0.15625 -0.410156,0.390625 0,0.390625 0.46875,0.625 1.230469,0.625 0.839844,0 1.699219,-0.2929688 2.226562,-0.7421875 0.507813,-0.4492188 0.78125,-1.07421877 0.78125,-1.79687502 0,-0.56640625 -0.15625,-1.07421878 -0.488281,-1.42578128 -0.214844,-0.234375 -0.410156,-0.3710937 -0.898437,-0.5664062 0.761718,-0.5078125 1.015625,-0.9179688 1.015625,-1.5039063 0,-0.8984375 -0.683594,-1.5039062 -1.699219,-1.5039062 -0.546875,0 -1.015625,0.1953125 -1.40625,0.546875 -0.332031,0.2929687 -0.507813,0.5664062 -0.742188,1.2304687 l 0.175782,0.039063 c 0.429687,-0.8007812 0.9375,-1.1523437 1.621093,-1.1523437 0.703125,0 1.191407,0.46875 1.191407,1.1523437 0,0.4101563 -0.15625,0.8007813 -0.429688,1.0742188 -0.332031,0.3125 -0.625,0.4882812 -1.367187,0.7421875 z m 0,0"
         style="fill:#000000;fill-opacity:1;fill-rule:nonzero;stroke:none" />
    </g>
    <path
       id="path28"
       d="m 272.89989,-84.1775 2.55046,7.65139 30.6056,-9.3e-4 v -15.30279 l -30.6056,9.1e-4 -2.55046,7.65142"
       style="fill:#808080;fill-opacity:1;fill-rule:nonzero;stroke:none"
       transform="matrix(1.3333333,0,0,-1.3333333,87.889333,40.241333)" />
    <path
       id="path29"
       d="m 272.89989,-84.17657 2.55046,7.65139 30.6056,-0.0019 m 0,-15.30279 -30.6056,0.0019 -2.55046,7.6514"
       style="fill:none;stroke:#000000;stroke-width:0.95636;stroke-linecap:round;stroke-linejoin:round;stroke-miterlimit:10;stroke-dasharray:none;stroke-opacity:1"
       transform="matrix(1.3333333,0,0,-1.3333333,87.889333,40.241333)" />
    <path
       id="path30"
       d="m 6.5859141,-3.151625 c 0,-1.9453125 -1.4179688,-3.4335937 -3.0703125,-3.4335937 -1.6992188,0 -3.08203129,1.5234375 -3.08203129,3.4335937 0,1.875 1.42968749,3.29296875 3.07031249,3.29296875 1.6875,0 3.0820313,-1.44140625 3.0820313,-3.29296875 z m -3.0703125,2.40234375 c -1.03125,0 -1.9921875,-0.85546875 -1.9921875,-2.55468745 0,-1.734375 1.078125,-2.4140625 1.9804687,-2.4140625 0.984375,0 1.9921875,0.7382812 1.9921875,2.4140625 0,1.7695312 -1.0195312,2.55468745 -1.9804687,2.55468745 z M 11.838844,-6.1399062 c -0.914063,-0.4335938 -1.6875,-0.4453125 -2.0156253,-0.4453125 -0.328125,0 -2.3320312,0 -2.3320312,1.8632812 0,0.6328125 0.3515625,1.0664063 0.5625,1.265625 0.515625,0.4453125 0.8789062,0.515625 1.7226562,0.6914063 0.4687503,0.09375 1.3007813,0.2695312 1.3007813,1.03125 0,0.98437495 -1.1132813,0.98437495 -1.3125,0.98437495 -0.5742188,0 -1.40625,-0.15234375 -2.1796875,-0.71484375 l -0.1757813,0.97265625 c 0.070312,0.046875 1.0429688,0.6328125 2.3671875,0.6328125 1.8515623,0 2.2968753,-1.11328125 2.2968753,-1.95703125 0,-0.7382812 -0.445313,-1.1953125 -0.503907,-1.265625 C 11.041969,-3.6320937 10.608375,-3.714125 9.7294687,-3.8899062 9.2138437,-3.9836562 8.4872812,-4.136 8.4872812,-4.8508437 c 0,-0.890625 1.0078125,-0.890625 1.1835938,-0.890625 0.761719,0 1.371094,0.1757812 2.003906,0.5390625 z m 0,0"
       style="fill:#000000;fill-opacity:1;fill-rule:nonzero;stroke:none"
       aria-label="os"
       transform="matrix(1.3333333,0,0,1.3333333,9.168,203.51467)" />
    <path
       id="path31"
       d="M 0,0 H 4.214"
       style="fill:none;stroke:#000000;stroke-width:0.398;stroke-linecap:butt;stroke-linejoin:round;stroke-miterlimit:10;stroke-dasharray:none;stroke-opacity:1"
       transform="matrix(1.3333333,0,0,-1.3333333,26.836,203.248)" />
    <path
       id="path32"
       d="m 2.1785312,-3.1399062 c 0,-1.453125 1.0898438,-2.390625 2.3789063,-2.4140625 v -0.9609375 c -1.3007813,0.023437 -2.0625,0.7734375 -2.4492188,1.3359375 v -1.265625 H 1.112125 V 7.1875e-4 h 1.0664062 z m 8.4316408,-0.082031 c 0,-0.6210937 -0.05859,-1.5 -0.515625,-2.2617187 -0.5859376,-0.984375 -1.5937501,-1.1015625 -2.0039064,-1.1015625 -1.546875,0 -2.8476562,1.4882812 -2.8476562,3.3632812 0,1.8867188 1.3828125,3.36328125 3.046875,3.36328125 0.65625,0 1.453125,-0.1875 2.2382816,-0.76171875 0,-0.0585938 -0.04687,-0.4921875 -0.04687,-0.5273437 -0.01172,-0.011719 -0.04687,-0.328125 -0.04687,-0.3867188 -0.8437504,0.71484375 -1.6875004,0.8203125 -2.1210941,0.8203125 -1.1015625,0 -2.0507813,-0.9960937 -2.0742188,-2.5078125 z M 6.3211094,-3.995375 c 0.2460937,-0.9726562 0.9257812,-1.7226562 1.7695312,-1.7226562 0.4453125,0 1.4296875,0.1992187 1.6757813,1.7226562 z M 16.63068,-4.2063125 c 0,-1.3710937 -0.996094,-2.3789062 -2.332032,-2.3789062 -0.855468,0 -1.5,0.1992187 -2.203125,0.609375 l 0.08203,0.9375 c 0.632812,-0.4570313 1.289062,-0.7148438 2.121093,-0.7148438 0.667969,0 1.242188,0.5273438 1.242188,1.5820313 v 0.5859375 c -0.65625,0.023437 -1.511719,0.070312 -2.367188,0.3632812 -0.960937,0.328125 -1.523437,0.8554688 -1.523437,1.5703125 0,0.6328125 0.375,1.79296875 1.59375,1.79296875 0.785156,0 1.792969,-0.22265625 2.320312,-0.66796875 V 7.1875e-4 h 1.066407 z m -1.089844,2.2851563 c 0,0.28125 0,0.6328125 -0.480469,0.9140625 -0.386719,0.2460937 -0.867187,0.2929687 -1.089844,0.2929687 -0.773437,0 -1.300781,-0.421875 -1.300781,-0.9492187 0,-0.9726563 1.992188,-1.1953125 2.871094,-1.1953125 z M 23.811344,-9.9485 h -1.066407 v 4.1835938 c -0.65625,-0.5507813 -1.40625,-0.75 -2.015625,-0.75 -1.371093,0 -2.484375,1.4648437 -2.484375,3.328125 0,1.8515625 1.054688,3.32812495 2.425782,3.32812495 0.527343,0 1.335937,-0.1640625 2.050781,-0.8671875 v 0.7265625 h 1.089844 z M 22.7215,-1.6867812 c -0.351563,0.609375 -0.84375,0.9726562 -1.476563,0.9726562 -0.878906,0 -1.910156,-0.6796875 -1.910156,-2.4609375 0,-1.8984375 1.21875,-2.4726562 2.050781,-2.4726562 0.5625,0 1.019532,0.28125 1.335938,0.7617187 z m 8.4375,-4.6757813 h -1.078125 c -0.65625,1.6875 -1.757813,4.5 -1.816406,5.53125 H 28.25275 C 28.170719,-1.6750625 27.420719,-3.5735 27.303531,-3.85475 L 26.284,-6.3625625 H 25.147281 L 27.819156,7.1875e-4 27.31525,1.3015 c -0.316406,0.7265625 -0.527344,0.796875 -0.785156,0.796875 -0.199219,0 -0.667969,-0.046875 -1.113282,-0.2226562 l 0.09375,0.9375 c 0.08203,0.011719 0.550782,0.1171875 1.019532,0.1171875 0.339843,0 1.019531,0 1.628906,-1.5820313 z m 0,0"
       style="fill:#000000;fill-opacity:1;fill-rule:nonzero;stroke:none"
       aria-label="ready"
       transform="matrix(1.3333333,0,0,1.3333333,32.454667,203.51467)" />
    <path
       id="path33"
       d="m 0,-122.456 h 25.50465 l 2.55046,15.30282 H 188.7345 l 2.55047,-15.30282 h 38.25699 l 2.55046,15.30282 h 73.96353"
       style="fill:none;stroke:#000000;stroke-width:0.95636;stroke-linecap:round;stroke-linejoin:round;stroke-miterlimit:10;stroke-dasharray:none;stroke-opacity:1"
       transform="matrix(1.3333333,0,0,-1.3333333,87.889333,40.241333)" />
    <path
       id="path34"
       d="M 20.40372,22.9542 V -130.15219 M 40.80745,22.9542 V -130.15219 M 61.21118,22.9542 V -130.15219 M 81.61491,22.9542 V -130.15219 M 102.01865,22.9542 V -130.15219 M 122.42238,22.9542 V -130.15219 M 142.82611,22.9542 V -130.15219 M 163.22984,22.9542 V -130.15219 M 183.63356,22.9542 V -130.15219 M 204.0373,22.9542 V -130.15219 M 224.44102,22.9542 V -130.15219 M 244.84476,22.9542 V -130.15219 M 265.24849,22.9542 V -130.15219 M 285.65222,22.9542 V -130.15219 M 306.05595,22.9542 v -153.10639"
       style="fill:none;stroke:#808080;stroke-width:0.59776;stroke-linecap:round;stroke-linejoin:round;stroke-miterlimit:10;stroke-dasharray:none;stroke-opacity:0.5"
       transform="matrix(1.3333333,0,0,-1.3333333,87.889333,40.241333)" />
    <path
       id="path35"
       d="M 61.21118,22.9542 V -130.15219 M 102.01865,22.9542 V -130.15219 M 142.82611,22.9542 V -130.15219 M 183.63356,22.9542 V -130.15219 M 224.44102,22.9542 V -130.15219 M 265.24849,22.9542 v -153.10639"
       style="fill:none;stroke:#ff0000;stroke-width:0.7024;stroke-linecap:round;stroke-linejoin:round;stroke-miterlimit:10;stroke-dasharray:2.98883, 2.98883;stroke-dashoffset:0;stroke-opacity:0.75"
       transform="matrix(1.3333333,0,0,-1.3333333,87.889333,40.241333)" />
  </g>
</svg>
