<?xml version="1.0" encoding="UTF-8" standalone="no"?>
<!-- Created with Inkscape (http://www.inkscape.org/) -->

<svg
   version="1.1"
   id="svg1"
   width="406.90668"
   height="308.62933"
   viewBox="0 0 406.90668 308.62933"
   sodipodi:docname="main.pdf"
   xmlns:inkscape="http://www.inkscape.org/namespaces/inkscape"
   xmlns:sodipodi="http://sodipodi.sourceforge.net/DTD/sodipodi-0.dtd"
   xmlns="http://www.w3.org/2000/svg"
   xmlns:svg="http://www.w3.org/2000/svg">
  <defs
     id="defs1" />
  <sodipodi:namedview
     id="namedview1"
     pagecolor="#ffffff"
     bordercolor="#000000"
     borderopacity="0.25"
     inkscape:showpageshadow="2"
     inkscape:pageopacity="0.0"
     inkscape:pagecheckerboard="0"
     inkscape:deskcolor="#d1d1d1">
    <inkscape:page
       x="0"
       y="0"
       inkscape:label="1"
       id="page1"
       width="406.90668"
       height="308.62933"
       margin="0"
       bleed="0" />
  </sodipodi:namedview>
  <g
     id="g1"
     inkscape:groupmode="layer"
     inkscape:label="1">
    <path
       id="path1"
       d="M 0,0 H 305.18 V 231.472 H 0 Z"
       style="fill:#ffffff;fill-opacity:1;fill-rule:nonzero;stroke:none"
       transform="matrix(1.3333333,0,0,-1.3333333,0,308.62933)" />
    <path
       id="path2"
       d="M -121.94116,-170.79604 V 59.67937 h 304.18381 v -230.47541 z"
       style="fill:#ffffff;fill-opacity:1;fill-rule:nonzero;stroke:none"
       transform="matrix(1.3333333,0,0,-1.3333333,163.25333,80.237333)" />
    <path
       id="path3"
       d="M -44.8325,-19.92555 H 44.83252 V 19.92557 H -44.8325 Z"
       style="fill:none;stroke:#000000;stroke-width:0.3985;stroke-linecap:butt;stroke-linejoin:miter;stroke-miterlimit:10;stroke-dasharray:none;stroke-opacity:1"
       transform="matrix(1.3333333,0,0,-1.3333333,163.25333,80.237333)" />
    <path
       id="path4"
       d="m 4.171125,-3.2473516 c 1.03125,-0.3046875 1.6992187,-1.0078125 1.6992187,-1.8164062 0,-0.984375 -1.0898437,-1.8515625 -2.5195312,-1.8515625 h -2.390625 v 6.91406249 H 1.8156562 V -3.1536016 h 1.5703125 l 1.875,3.15234379 H 6.139875 Z m -2.3554688,-0.515625 v -2.5898437 h 1.4296875 c 1.1601563,0 1.8164063,0.5859375 1.8164063,1.2890625 0,0.7148437 -0.6445313,1.3007812 -1.8164063,1.3007812 z m 8.2968748,0.1171875 2.402344,-3.2695312 H 11.553937 L 9.6789375,-4.3137578 7.7453437,-6.9153203 h -1.03125 l 2.5429688,3.2695312 -2.6835938,3.64453129 h 0.9609375 l 2.1445313,-3.04687499 2.2148435,3.04687499 h 1.03125 z m 12.082031,2.5078125 c -0.585937,0.38671879 -0.925781,0.59765629 -1.910156,0.59765629 -1.441406,0 -2.332031,-1.48828129 -2.332031,-2.92968749 0,-1.3476563 0.820312,-2.9179688 2.34375,-2.9179688 0.714844,0 1.160156,0.1757813 1.710937,0.515625 l 0.128907,-0.8085937 c -0.421875,-0.2109375 -1.195313,-0.3398438 -1.828125,-0.3398438 -1.839844,0 -3.257813,1.546875 -3.257813,3.6445313 0,1.5703125 1.183594,3.48046874 3.257813,3.48046874 0.914062,0 1.300781,-0.15234375 1.945312,-0.55078125 z m 5.241211,-1.0546875 c 0,-1.3359375 -0.996093,-2.4023437 -2.179687,-2.4023437 -1.230469,0 -2.191406,1.1015625 -2.191406,2.4023437 0,1.31250004 1.007812,2.29687504 2.179687,2.29687504 1.195313,0 2.191406,-1.0078125 2.191406,-2.29687504 z m -2.191406,1.66406254 c -0.691406,0 -1.40625,-0.56250004 -1.40625,-1.76953124 0,-1.1953125 0.75,-1.6875 1.40625,-1.6875 0.691406,0 1.40625,0.515625 1.40625,1.6875 0,1.1835937 -0.667969,1.76953124 -1.40625,1.76953124 z m 4.054688,-6.38671874 h -0.75 v 6.91406249 h 0.75 z m 2.378906,0 h -0.75 v 6.91406249 h 0.75 z m 4.948242,4.734375 c 0,-0.3398438 -0.01172,-1.0898438 -0.398437,-1.6875 -0.410157,-0.6210938 -1.019532,-0.7265625 -1.371094,-0.7265625 -1.113281,0 -2.003906,1.0546875 -2.003906,2.34375 0,1.31249999 0.949218,2.35546874 2.144531,2.35546874 0.632812,0 1.195312,-0.234375 1.59375,-0.515625 l -0.07031,-0.64453124 c -0.621093,0.51562499 -1.277343,0.55078124 -1.511718,0.55078124 -0.796875,0 -1.429688,-0.70312504 -1.464844,-1.67578124 z m -3.023437,-0.5507813 c 0.152343,-0.7617187 0.679687,-1.2539062 1.253906,-1.2539062 0.515625,0 1.066406,0.3398437 1.195312,1.2539062 z m 7.415039,-1.4296875 c -0.597657,-0.3398437 -0.9375,-0.4335937 -1.535157,-0.4335937 -1.394531,0 -2.191406,1.2070312 -2.191406,2.3789062 0,1.24218754 0.902344,2.32031254 2.144531,2.32031254 0.539063,0 1.089844,-0.140625 1.628907,-0.50390625 L 41.00609,-1.0676641 c -0.515625,0.39843754 -1.054688,0.53906254 -1.558594,0.53906254 -0.820312,0 -1.382812,-0.71484374 -1.382812,-1.69921874 0,-0.7734375 0.363281,-1.7226563 1.417968,-1.7226563 0.527344,0 0.867188,0.070312 1.40625,0.4335938 z m 2.083007,0.3164063 h 1.40625 v -0.5742188 h -1.40625 v -1.265625 h -0.691406 v 1.265625 h -0.867187 v 0.5742188 h 0.84375 v 2.6601562 c 0,0.59765629 0.128906,1.28906254 0.820312,1.28906254 0.703125,0 1.207031,-0.24609375 1.453125,-0.375 l -0.152344,-0.5859375 c -0.257812,0.2109375 -0.585937,0.328125 -0.902343,0.328125 -0.363282,0 -0.503907,-0.3046875 -0.503907,-0.83203124 z m 6.527344,1.6523437 c 0,-1.3359375 -0.996094,-2.4023437 -2.179687,-2.4023437 -1.230469,0 -2.191407,1.1015625 -2.191407,2.4023437 0,1.31250004 1.007813,2.29687504 2.179688,2.29687504 1.195312,0 2.191406,-1.0078125 2.191406,-2.29687504 z m -2.191406,1.66406254 c -0.691406,0 -1.40625,-0.56250004 -1.40625,-1.76953124 0,-1.1953125 0.75,-1.6875 1.40625,-1.6875 0.691406,0 1.40625,0.515625 1.40625,1.6875 0,1.1835937 -0.667969,1.76953124 -1.40625,1.76953124 z m 3.785156,-1.60546874 c 0,-0.9960938 0.726563,-1.7109375 1.699219,-1.734375 v -0.6679688 c -0.890625,0.011719 -1.429688,0.5039063 -1.746094,0.9609375 v -0.9140625 h -0.691406 v 4.48828129 h 0.738281 z m 0,0"
       style="fill:#000000;fill-opacity:1;fill-rule:nonzero;stroke:none"
       aria-label="RXCollector"
       transform="matrix(1.3333333,0,0,1.3333333,127.876,84.849333)" />
    <path
       id="path5"
       d="m 73.57782,-19.92555 h 89.66502 V 19.92557 H 73.57782 Z"
       style="fill:none;stroke:#000000;stroke-width:0.3985;stroke-linecap:butt;stroke-linejoin:miter;stroke-miterlimit:10;stroke-dasharray:none;stroke-opacity:1"
       transform="matrix(1.3333333,0,0,-1.3333333,163.25333,80.237333)" />
    <path
       id="path6"
       d="m 3.8322188,-6.2109922 h 0.890625 c 0.1171875,0 0.234375,0 0.3632812,0 H 6.4103438 V -6.8555234 H 0.36346875 v 0.6445312 H 1.6994063 c 0.1171875,0 0.234375,0 0.3515625,0 H 2.9533125 V -5.46875e-5 h 0.8789063 z m 6.6269532,2.5664063 2.402344,-3.2695313 h -0.960938 l -1.875,2.6015625 -1.9335936,-2.6015625 h -1.03125 L 9.6037031,-3.6445859 6.9201094,-5.46875e-5 H 7.8810469 L 10.025578,-3.0469297 12.240422,-5.46875e-5 h 1.03125 z m 10.910156,-2.9882813 c -0.539062,-0.328125 -1.089844,-0.5039062 -1.816406,-0.5039062 -1.382813,0 -2.25,0.984375 -2.25,1.96875 0,0.421875 0.140625,0.84375 0.539062,1.265625 0.410157,0.4453125 0.855469,0.5625 1.441407,0.703125 0.84375,0.2109375 0.949218,0.2460937 1.21875,0.4921875 0.199218,0.1640625 0.421875,0.4921875 0.421875,0.9257812 0,0.65625 -0.550782,1.31250001 -1.453125,1.31250001 -0.410157,0 -1.300782,-0.09375 -2.144532,-0.80859371 l -0.152343,0.80859371 c 0.878906,0.55078125 1.675781,0.69140625 2.308593,0.69140625 1.3125,0 2.226563,-1.0078125 2.226563,-2.10937496 0,-0.6445313 -0.304688,-1.125 -0.527344,-1.359375 -0.46875,-0.5039063 -0.796875,-0.5859375 -1.710937,-0.8203125 -0.574219,-0.140625 -0.738282,-0.1757813 -1.03125,-0.4335938 -0.07031,-0.058594 -0.351563,-0.3515625 -0.351563,-0.7851562 0,-0.5976563 0.539063,-1.1953125 1.453125,-1.1953125 0.832031,0 1.3125,0.3398437 1.6875,0.6445312 z m 2.499024,6.17578126 c 0.304687,0.29296875 0.75,0.5625 1.347656,0.5625 0.960937,0 1.839844,-0.97265625 1.839844,-2.33203126 0,-1.1953125 -0.632813,-2.3085937 -1.582032,-2.3085937 -0.597656,0 -1.171875,0.2109375 -1.640625,0.5976562 v -0.4804687 h -0.738281 v 6.3515625 h 0.773438 z m 0,-2.85937496 c 0.234375,-0.3515625 0.632812,-0.5742188 1.054687,-0.5742188 0.761719,0 1.359375,0.75 1.359375,1.6640625 0,1.03125 -0.714844,1.72265626 -1.453125,1.72265626 -0.398437,0 -0.65625,-0.19921875 -0.855469,-0.45703125 C 23.868352,-1.1133359 23.868352,-1.1367734 23.868352,-1.3125547 Z m 5.112304,-3.5976563 h -0.75 V -5.46875e-5 h 0.75 z m 2.452149,0.140625 H 30.54218 v 0.890625 h 0.890625 z m -0.07031,2.3554688 h -0.75 V -5.46875e-5 h 0.75 z m 2.566406,0.5742187 h 1.40625 v -0.5742187 h -1.40625 v -1.265625 h -0.691406 v 1.265625 h -0.867187 v 0.5742187 h 0.84375 v 2.6601563 c 0,0.59765621 0.128906,1.28906246 0.820312,1.28906246 0.703125,0 1.207031,-0.24609375 1.453125,-0.375 l -0.152344,-0.5859375 c -0.257812,0.2109375 -0.585937,0.328125 -0.902343,0.328125 -0.363282,0 -0.503907,-0.3046875 -0.503907,-0.83203126 z m 3.597657,0 h 1.40625 v -0.5742187 h -1.40625 v -1.265625 h -0.691407 v 1.265625 h -0.867187 v 0.5742187 h 0.84375 v 2.6601563 c 0,0.59765621 0.128906,1.28906246 0.820312,1.28906246 0.703125,0 1.207032,-0.24609375 1.453125,-0.375 l -0.152343,-0.5859375 c -0.257813,0.2109375 -0.585938,0.328125 -0.902344,0.328125 -0.363281,0 -0.503906,-0.3046875 -0.503906,-0.83203126 z m 5.976562,1.6640625 c 0,-0.3398437 -0.01172,-1.0898437 -0.398437,-1.6875 -0.410157,-0.6210937 -1.019532,-0.7265625 -1.371094,-0.7265625 -1.113281,0 -2.003906,1.0546875 -2.003906,2.34375 0,1.31250001 0.949218,2.35546876 2.144531,2.35546876 0.632812,0 1.195312,-0.234375 1.59375,-0.515625 l -0.07031,-0.64453126 c -0.621093,0.51562501 -1.277343,0.55078126 -1.511718,0.55078126 -0.796875,0 -1.429688,-0.70312496 -1.464844,-1.67578126 z m -3.02344,-0.5507812 c 0.152343,-0.7617188 0.679687,-1.2539063 1.253906,-1.2539063 0.515625,0 1.066406,0.3398438 1.195312,1.2539063 z m 4.883789,0.5976562 c 0,-0.9960937 0.726562,-1.7109375 1.699219,-1.734375 v -0.6679687 c -0.890625,0.011719 -1.429688,0.5039062 -1.746094,0.9609375 V -4.4883359 H 44.625188 V -5.46875e-5 h 0.738281 z m 0,0"
       style="fill:#000000;fill-opacity:1;fill-rule:nonzero;stroke:none"
       aria-label="TXSplitter"
       transform="matrix(1.3333333,0,0,1.3333333,289.656,83.558667)" />
    <path
       id="path7"
       d="m -44.8325,-88.522 h 89.66502 v 39.85112 H -44.8325 Z"
       style="fill:none;stroke:#000000;stroke-width:0.3985;stroke-linecap:butt;stroke-linejoin:miter;stroke-miterlimit:10;stroke-dasharray:none;stroke-opacity:1"
       transform="matrix(1.3333333,0,0,-1.3333333,163.25333,80.237333)" />
    <path
       id="path8"
       d="m 4.1711484,-3.2447187 c 1.03125,-0.3046875 1.6992188,-1.0078125 1.6992188,-1.8164063 0,-0.984375 -1.0898438,-1.8515625 -2.5195313,-1.8515625 H 0.96021094 V 0.001375 H 1.8156797 v -3.1523437 h 1.5703125 l 1.875,3.1523437 h 0.8789062 z m -2.3554687,-0.515625 v -2.5898438 h 1.4296875 c 1.1601562,0 1.8164062,0.5859375 1.8164062,1.2890625 0,0.7148438 -0.6445312,1.3007813 -1.8164062,1.3007813 z m 8.2968753,0.1171875 2.402343,-3.2695313 H 11.553961 L 9.6789609,-4.311125 7.7453672,-6.9126875 h -1.03125 L 9.2570859,-3.6431562 6.5734922,0.001375 H 7.5344297 L 9.6789609,-3.0455 11.893805,0.001375 h 1.03125 z M 21.22193,-3.13925 v -0.609375 h -3 v -2.4960937 h 1.300781 c 0.117187,0 0.234375,0.011719 0.363281,0.011719 h 1.746094 V -6.8775312 H 17.331305 V 0.001375 H 18.22193 V -3.13925 Z m 2.671875,-3.7734375 H 23.00318 V 0.001375 h 0.890625 z m 5.768554,3.7734375 v -0.609375 h -3 v -2.4960937 h 1.300782 c 0.117187,0 0.234375,0.011719 0.363281,0.011719 h 1.746094 V -6.8775312 H 25.771734 V 0.001375 h 0.890625 V -3.13925 Z m 7.335938,-0.2929687 c 0,-2.0976563 -1.441406,-3.703125 -3.09375,-3.703125 -1.699219,0 -3.105469,1.6289062 -3.105469,3.703125 0,2.109375 1.464844,3.65624995 3.09375,3.65624995 1.664063,0 3.105469,-1.57031245 3.105469,-3.65624995 z m -3.09375,2.99999995 c -1.171875,0 -2.226563,-1.24218745 -2.226563,-3.15234375 0,-1.828125 1.101563,-2.90625 2.214844,-2.90625 1.160156,0 2.226563,1.125 2.226563,2.90625 0,1.9453125 -1.078125,3.15234375 -2.214844,3.15234375 z m 0,0"
       style="fill:#000000;fill-opacity:1;fill-rule:nonzero;stroke:none"
       aria-label="RXFIFO"
       transform="matrix(1.3333333,0,0,1.3333333,138.208,176.31067)" />
    <path
       id="path9"
       d="m 73.57782,-88.522 h 89.66502 v 39.85112 H 73.57782 Z"
       style="fill:none;stroke:#000000;stroke-width:0.3985;stroke-linecap:butt;stroke-linejoin:miter;stroke-miterlimit:10;stroke-dasharray:none;stroke-opacity:1"
       transform="matrix(1.3333333,0,0,-1.3333333,163.25333,80.237333)" />
    <path
       id="path10"
       d="m 3.8316328,-6.2095625 h 0.890625 c 0.1171875,0 0.234375,0 0.3632813,0 H 6.4097578 V -6.8540937 H 0.36288281 v 0.6445312 H 1.6988203 c 0.1171875,0 0.234375,0 0.3515625,0 H 2.9527266 V 0.001375 h 0.8789062 z m 6.6298832,2.5664063 2.402343,-3.2695313 h -0.960937 l -1.875,2.6015625 -1.9335939,-2.6015625 h -1.03125 L 9.6060469,-3.6431562 6.9224531,0.001375 H 7.8833906 L 10.027922,-3.0455 12.242766,0.001375 h 1.03125 z M 21.567961,-3.13925 v -0.609375 h -3 v -2.4960937 h 1.300781 c 0.117188,0 0.234375,0.011719 0.363281,0.011719 h 1.746094 V -6.8775312 H 17.677336 V 0.001375 h 0.890625 V -3.13925 Z m 2.671875,-3.7734375 H 23.349211 V 0.001375 h 0.890625 z m 5.768555,3.7734375 v -0.609375 h -3 v -2.4960937 h 1.300781 c 0.117187,0 0.234375,0.011719 0.363281,0.011719 h 1.746094 V -6.8775312 H 26.117766 V 0.001375 h 0.890625 V -3.13925 Z m 7.338867,-0.2929687 c 0,-2.0976563 -1.441406,-3.703125 -3.09375,-3.703125 -1.699219,0 -3.105469,1.6289062 -3.105469,3.703125 0,2.109375 1.464844,3.65624995 3.09375,3.65624995 1.664063,0 3.105469,-1.57031245 3.105469,-3.65624995 z m -3.09375,2.99999995 c -1.171875,0 -2.226563,-1.24218745 -2.226563,-3.15234375 0,-1.828125 1.101563,-2.90625 2.214844,-2.90625 1.160156,0 2.226563,1.125 2.226563,2.90625 0,1.9453125 -1.078125,3.15234375 -2.214844,3.15234375 z m 0,0"
       style="fill:#000000;fill-opacity:1;fill-rule:nonzero;stroke:none"
       aria-label="TXFIFO"
       transform="matrix(1.3333333,0,0,1.3333333,295.856,176.31067)" />
    <path
       id="path11"
       d="M 0,22.26685 V 48.47162"
       style="fill:none;stroke:#000000;stroke-width:0.49815;stroke-linecap:butt;stroke-linejoin:miter;stroke-miterlimit:10;stroke-dasharray:none;stroke-opacity:1"
       transform="matrix(1.3333333,0,0,-1.3333333,163.25333,80.237333)" />
    <path
       id="path12"
       d="M 2.14203,0 -1.28522,1.71362 0,0 -1.28522,-1.71362"
       style="fill:#000000;fill-opacity:1;fill-rule:nonzero;stroke:none"
       transform="matrix(0,1.3333333,1.3333333,0,163.25333,50.5482)" />
    <path
       id="path13"
       d="m 4.1718203,-3.2451016 c 1.03125,-0.3046875 1.6992188,-1.0078125 1.6992188,-1.8164062 0,-0.984375 -1.0898438,-1.8515625 -2.5195313,-1.8515625 H 0.96088281 V 9.921875e-4 H 1.8163516 V -3.1513516 h 1.5703125 l 1.875,3.1523437875 h 0.8789062 z m -2.3554687,-0.515625 v -2.5898437 h 1.4296875 c 1.1601562,0 1.8164062,0.5859375 1.8164062,1.2890625 0,0.7148437 -0.6445312,1.3007812 -1.8164062,1.3007812 z m 8.2968754,0.1171875 2.402343,-3.2695312 H 11.554633 L 9.6796328,-4.3115078 7.7460391,-6.9130703 h -1.03125 L 9.2577578,-3.6435391 6.5741641,9.921875e-4 H 7.5351016 L 9.6796328,-3.0458828 11.894477,9.921875e-4 h 1.03125 z m 0,0"
       style="fill:#000000;fill-opacity:1;fill-rule:nonzero;stroke:none"
       aria-label="RX"
       transform="matrix(1.3333333,0,0,1.3333333,141.05867,20.221333)" />
    <path
       id="path14"
       d="m 1.6990078,-1.7592656 c 0.328125,-0.1054688 0.6445313,-0.375 0.6445313,-0.7382813 0,-0.4570312 -0.4335938,-0.8789062 -1.0195313,-0.8789062 -0.59765624,0 -1.03124999,0.421875 -1.03124999,0.8789062 0,0.375 0.328125,0.6328125 0.64453125,0.7382813 -0.43359375,0.1289062 -0.71484375,0.46875 -0.71484375,0.85546873 0,0.52734375 0.46875,1.0078125 1.10156249,1.0078125 0.6210938,0 1.1015625,-0.48046875 1.1015625,-1.0078125 0,-0.38671873 -0.2929687,-0.72656253 -0.7265625,-0.85546873 z m -0.375,-0.1640625 c -0.36328124,0 -0.64453124,-0.2109375 -0.64453124,-0.5742188 0,-0.3164062 0.22265625,-0.5625 0.64453124,-0.5625 0.4101563,0 0.6328125,0.2460938 0.6328125,0.5625 0,0.3515625 -0.2695312,0.5742188 -0.6328125,0.5742188 z m 0,1.69921873 c -0.35156249,0 -0.65624999,-0.22265625 -0.65624999,-0.69140625 0,-0.44531248 0.29296875,-0.67968748 0.65624999,-0.67968748 0.3515625,0 0.6445313,0.234375 0.6445313,0.67968748 0,0.46875 -0.3046875,0.69140625 -0.6445313,0.69140625 z M 3.8171719,-3.4584844 H 3.1492031 v 3.45703128 H 3.5593594 V -3.0600469 h 0.011719 l 1.6289063,3.05859378 H 5.8796719 V -3.4584844 h -0.421875 v 3.05859378 z m 4.1601562,0.082031 H 7.8718594 c -0.328125,0.3046875 -0.7265625,0.3164062 -1.03125,0.328125 v 0.3164062 c 0.1992187,0 0.4453125,-0.011719 0.6914062,-0.1171875 v 2.53125003 h -0.65625 v 0.31640625 H 8.6452969 V -0.31785937 H 7.9773281 Z m 0,0"
       style="fill:#000000;fill-opacity:1;fill-rule:nonzero;stroke:none"
       aria-label="8N1"
       transform="matrix(1.3333333,0,0,1.3333333,168.012,17.916)" />
    <path
       id="path15"
       d="M 118.41034,20.12482 V 46.32959"
       style="fill:none;stroke:#000000;stroke-width:0.49815;stroke-linecap:butt;stroke-linejoin:miter;stroke-miterlimit:10;stroke-dasharray:none;stroke-opacity:1"
       transform="matrix(1.3333333,0,0,-1.3333333,163.25333,80.237333)" />
    <path
       id="path16"
       d="M 2.14203,0 -1.28522,1.71362 0,0 -1.28522,-1.71362"
       style="fill:#000000;fill-opacity:1;fill-rule:nonzero;stroke:none"
       transform="matrix(0,-1.3333333,-1.3333333,0,321.13379,18.464547)" />
    <path
       id="path17"
       d="m 3.832,-6.2099453 h 0.890625 c 0.1171875,0 0.234375,0 0.3632812,0 H 6.410125 V -6.8544766 H 0.36325 v 0.6445313 h 1.3359375 c 0.1171875,0 0.234375,0 0.3515625,0 H 2.9530937 V 9.921875e-4 H 3.832 Z m 6.626953,2.5664062 2.402344,-3.2695312 h -0.960938 l -1.875,2.6015625 -1.9335934,-2.6015625 h -1.03125 L 9.6034844,-3.6435391 6.9198906,9.921875e-4 H 7.8808281 L 10.025359,-3.0458828 12.240203,9.921875e-4 h 1.03125 z m 0,0"
       style="fill:#000000;fill-opacity:1;fill-rule:nonzero;stroke:none"
       aria-label="TX"
       transform="matrix(1.3333333,0,0,1.3333333,325.89067,20.221333)" />
    <path
       id="path18"
       d="m 1.6982422,-1.7592656 c 0.328125,-0.1054688 0.6445312,-0.375 0.6445312,-0.7382813 0,-0.4570312 -0.4335937,-0.8789062 -1.0195312,-0.8789062 -0.59765626,0 -1.03125001,0.421875 -1.03125001,0.8789062 0,0.375 0.328125,0.6328125 0.64453125,0.7382813 -0.43359375,0.1289062 -0.71484375,0.46875 -0.71484375,0.85546873 0,0.52734375 0.46875,1.0078125 1.10156251,1.0078125 0.6210937,0 1.1015625,-0.48046875 1.1015625,-1.0078125 0,-0.38671873 -0.2929688,-0.72656253 -0.7265625,-0.85546873 z m -0.375,-0.1640625 c -0.36328126,0 -0.64453126,-0.2109375 -0.64453126,-0.5742188 0,-0.3164062 0.22265625,-0.5625 0.64453126,-0.5625 0.4101562,0 0.6328125,0.2460938 0.6328125,0.5625 0,0.3515625 -0.2695313,0.5742188 -0.6328125,0.5742188 z m 0,1.69921873 c -0.35156251,0 -0.65625001,-0.22265625 -0.65625001,-0.69140625 0,-0.44531248 0.29296875,-0.67968748 0.65625001,-0.67968748 0.3515625,0 0.6445312,0.234375 0.6445312,0.67968748 0,0.46875 -0.3046875,0.69140625 -0.6445312,0.69140625 z M 3.8193359,-3.4584844 H 3.1513672 v 3.45703128 H 3.5615234 V -3.0600469 h 0.011719 l 1.6289062,3.05859378 H 5.8818359 V -3.4584844 h -0.421875 v 3.05859378 z m 4.1572266,0.082031 H 7.8710937 c -0.328125,0.3046875 -0.7265625,0.3164062 -1.03125,0.328125 v 0.3164062 c 0.1992188,0 0.4453125,-0.011719 0.6914063,-0.1171875 v 2.53125003 H 6.875 v 0.31640625 H 8.6445313 V -0.31785937 H 7.9765625 Z m 0,0"
       style="fill:#000000;fill-opacity:1;fill-rule:nonzero;stroke:none"
       aria-label="8N1"
       transform="matrix(1.3333333,0,0,1.3333333,304.33333,17.916)" />
    <path
       id="path19"
       d="M 0,-20.12482 V -44.83531"
       style="fill:none;stroke:#000000;stroke-width:1.49435;stroke-linecap:butt;stroke-linejoin:miter;stroke-miterlimit:10;stroke-dasharray:none;stroke-opacity:1"
       transform="matrix(1.3333333,0,0,-1.3333333,163.25333,80.237333)" />
    <path
       id="path20"
       d="M 3.6363,0 -2.18178,2.90904 0,0 -2.18178,-2.90904"
       style="fill:#000000;fill-opacity:1;fill-rule:nonzero;stroke:none"
       transform="matrix(0,1.3333333,1.3333333,0,163.25333,140.01775)" />
    <path
       id="path21"
       d="m 4.1717734,-3.2475 c 1.03125,-0.3046875 1.6992188,-1.0078125 1.6992188,-1.8164062 0,-0.984375 -1.0898438,-1.8515625 -2.5195313,-1.8515625 H 0.96083594 v 6.91406245 H 1.8163047 V -3.15375 h 1.5703125 l 1.875,3.15234375 H 6.1405234 Z M 1.8163047,-3.763125 v -2.5898437 h 1.4296875 c 1.1601562,0 1.8164062,0.5859375 1.8164062,1.2890625 0,0.7148437 -0.6445312,1.3007812 -1.8164062,1.3007812 z m 8.2968753,0.1171875 2.402343,-3.2695312 H 11.554586 L 9.6795859,-4.3139062 7.7459922,-6.9154687 h -1.03125 l 2.5429687,3.2695312 -2.6835937,3.64453125 H 7.5350547 L 9.6795859,-3.0482812 11.89443,-0.00140625 h 1.03125 z m 0,0"
       style="fill:#000000;fill-opacity:1;fill-rule:nonzero;stroke:none"
       aria-label="RX"
       transform="matrix(1.3333333,0,0,1.3333333,140.39467,130.58)" />
    <path
       id="path22"
       d="m 1.4881172,-1.36 0.890625,-0.8554687 H 1.8982734 l -1.06640621,1.03125 V -3.4576562 H 0.43342969 V -6.25e-4 h 0.375 V -0.70375 L 1.2303047,-1.1021875 2.0506172,-6.25e-4 h 0.4453125 z m 4.3271484,-1.0195312 0.515625,0.3515625 c 0.046875,0.035156 0.082031,0.046875 0.1289063,0.046875 0.082031,0 0.1875,-0.070313 0.1875,-0.1992188 0,-0.1054687 -0.070312,-0.140625 -0.1289063,-0.1757812 L 5.9676094,-2.625625 6.5183906,-2.906875 c 0.058594,-0.035156 0.1289063,-0.070312 0.1289063,-0.1757812 0,-0.1289063 -0.1054688,-0.1992188 -0.1875,-0.1992188 -0.046875,0 -0.082031,0.023437 -0.1289063,0.058594 l -0.515625,0.3398437 0.046875,-0.6679687 c 0,-0.140625 -0.1171875,-0.1875 -0.1875,-0.1875 -0.082031,0 -0.1992187,0.046875 -0.1992187,0.1875 l 0.046875,0.6679687 -0.515625,-0.3398437 c -0.046875,-0.035156 -0.082031,-0.058594 -0.1289063,-0.058594 -0.082031,0 -0.1875,0.070312 -0.1875,0.1992188 0,0.1054687 0.070312,0.140625 0.1289063,0.1757812 l 0.5625,0.28125 -0.5625,0.2695313 c -0.058594,0.035156 -0.1289063,0.070312 -0.1289063,0.1757812 0,0.1289063 0.1054688,0.1992188 0.1875,0.1992188 0.046875,0 0.058594,0 0.1640625,-0.082031 0.140625,-0.082031 0.1875,-0.1171875 0.4804688,-0.3164062 l -0.046875,0.6679687 c 0,0.140625 0.1171875,0.1875 0.1992187,0.1875 0.070312,0 0.1875,-0.046875 0.1875,-0.1875 l -0.011719,-0.046875 z m 3.788086,-1.078125 H 9.1814766 V -6.25e-4 H 9.6150703 V -0.235 c 0.1054688,0.09375 0.3515625,0.28125 0.7148437,0.28125 0.539063,0 0.984375,-0.50390625 0.984375,-1.1601562 0,-0.5976563 -0.351562,-1.1484375 -0.84375,-1.1484375 -0.316406,0 -0.6210937,0.1054687 -0.8671874,0.28125 z m 0.011719,1.8867187 c 0,-0.082031 0,-0.140625 0.1757813,-0.2578125 0.070312,-0.035156 0.2109371,-0.1054687 0.3750001,-0.1054687 0.339843,0 0.714843,0.2226562 0.714843,0.8203125 0,0.60937495 -0.421875,0.8320312 -0.761718,0.8320312 -0.1875001,0 -0.3632814,-0.0820313 -0.5039064,-0.3046875 z m 4.0869134,-0.6445312 h -0.398437 c -0.398438,0.9492187 -0.679688,1.59374995 -0.703125,1.89843745 -0.01172,-0.140625 -0.09375,-0.38671875 -0.1875,-0.62109375 -0.08203,-0.1992187 -0.164063,-0.3984375 -0.246094,-0.5859375 l -0.316406,-0.6914062 h -0.433594 l 1.03125,2.2148437 c -0.05859,0.140625 -0.152344,0.375 -0.1875,0.43359375 -0.105469,0.2109375 -0.175781,0.28125 -0.304687,0.28125 -0.02344,0 -0.210938,0 -0.421875,-0.0820313 l 0.03516,0.33984375 c 0.04687,0.0117188 0.222656,0.0468751 0.375,0.0468751 0.199219,0 0.386719,-0.0820313 0.597656,-0.5507813 z m 1.022461,0.3164062 h 0.738282 v -0.3164062 h -0.738282 v -0.6328125 h -0.386718 v 0.6328125 h -0.445313 v 0.3164062 h 0.433594 v 1.265625 c 0,0.328125 0.08203,0.6796875 0.445312,0.6796875 0.351563,0 0.632813,-0.1171875 0.773438,-0.17578125 l -0.08203,-0.328125 c -0.164063,0.12890625 -0.339844,0.1640625 -0.480469,0.1640625 -0.199219,0 -0.257813,-0.2109375 -0.257813,-0.43359375 z m 3.117188,1.359375 c -0.28125,0.19921875 -0.597656,0.2578125 -0.808594,0.2578125 -0.433594,0 -0.761719,-0.3515625 -0.773437,-0.8085937 h 1.628906 c 0,-0.234375 -0.02344,-0.5625 -0.222656,-0.84375 -0.175782,-0.2578125 -0.46875,-0.3515625 -0.714844,-0.3515625 -0.609375,0 -1.078125,0.5273437 -1.078125,1.1601562 0,0.64453125 0.492187,1.171875 1.148437,1.171875 0.292969,0 0.597657,-0.08203125 0.84375,-0.234375 z m -1.546875,-0.8554687 c 0.105469,-0.3984375 0.398437,-0.5625 0.65625,-0.5625 0.210937,0 0.539062,0.1054687 0.632812,0.5625 z m 3.571289,-0.7382813 c -0.339844,-0.140625 -0.585938,-0.1523437 -0.761719,-0.1523437 -0.128906,0 -0.878906,0 -0.878906,0.65625 0,0.234375 0.128906,0.3632812 0.1875,0.4335937 0.175781,0.1640625 0.386719,0.2109375 0.65625,0.2578125 0.234375,0.046875 0.503906,0.09375 0.503906,0.33984375 0,0.3046875 -0.421875,0.3046875 -0.492187,0.3046875 -0.316407,0 -0.609375,-0.10546875 -0.808594,-0.24609375 l -0.07031,0.375 c 0.164063,0.08203125 0.46875,0.2109375 0.878907,0.2109375 0.234375,0 0.445312,-0.03515625 0.632812,-0.1640625 0.1875,-0.140625 0.246094,-0.36328125 0.246094,-0.52734375 0,-0.09375 -0.01172,-0.28125 -0.222656,-0.48046875 -0.1875,-0.1640625 -0.363282,-0.1992187 -0.597657,-0.234375 -0.292968,-0.058594 -0.527343,-0.1054687 -0.527343,-0.328125 0,-0.28125 0.363281,-0.28125 0.433593,-0.28125 0.292969,0 0.503907,0.058594 0.761719,0.1875 z m 0,0"
       style="fill:#000000;fill-opacity:1;fill-rule:nonzero;stroke:none"
       aria-label="k*bytes"
       transform="matrix(1.3333333,0,0,1.3333333,168.676,127.81333)" />
    <path
       id="path23"
       d="m 118.41034,-23.76112 v -24.7105"
       style="fill:none;stroke:#000000;stroke-width:1.49435;stroke-linecap:butt;stroke-linejoin:miter;stroke-miterlimit:10;stroke-dasharray:none;stroke-opacity:1"
       transform="matrix(1.3333333,0,0,-1.3333333,163.25333,80.237333)" />
    <path
       id="path24"
       d="M 3.6363,0 -2.18178,2.90904 0,0 -2.18178,-2.90904"
       style="fill:#000000;fill-opacity:1;fill-rule:nonzero;stroke:none"
       transform="matrix(0,-1.3333333,-1.3333333,0,321.13379,111.91883)" />
    <path
       id="path25"
       d="m 4.1719531,-3.2475 c 1.03125,-0.3046875 1.6992188,-1.0078125 1.6992188,-1.8164062 0,-0.984375 -1.0898438,-1.8515625 -2.5195313,-1.8515625 H 0.96101563 v 6.91406245 H 1.8164844 V -3.15375 h 1.5703125 l 1.875,3.15234375 H 6.1407031 Z M 1.8164844,-3.763125 v -2.5898437 h 1.4296875 c 1.1601562,0 1.8164062,0.5859375 1.8164062,1.2890625 0,0.7148437 -0.6445312,1.3007812 -1.8164062,1.3007812 z m 8.2968746,0.1171875 2.402344,-3.2695312 H 11.554766 L 9.6797656,-4.3139062 7.7461719,-6.9154687 h -1.03125 l 2.5429687,3.2695312 -2.6835937,3.64453125 h 0.9609375 l 2.1445312,-3.04687495 2.2148434,3.04687495 h 1.03125 z m 0,0"
       style="fill:#000000;fill-opacity:1;fill-rule:nonzero;stroke:none"
       aria-label="RX"
       transform="matrix(1.3333333,0,0,1.3333333,298.27333,130.58)" />
    <path
       id="path26"
       d="m 1.4882969,-1.36 0.890625,-0.8554687 H 1.8984531 l -1.06640622,1.03125 V -3.4576562 H 0.43360938 V -6.25e-4 h 0.375 V -0.70375 L 1.2304844,-1.1021875 2.0507969,-6.25e-4 h 0.4453125 z m 4.3271484,-1.0195312 0.515625,0.3515625 c 0.046875,0.035156 0.082031,0.046875 0.1289063,0.046875 0.082031,0 0.1875,-0.070313 0.1875,-0.1992188 0,-0.1054687 -0.070312,-0.140625 -0.1289063,-0.1757812 L 5.9677891,-2.625625 6.5185703,-2.906875 c 0.058594,-0.035156 0.1289063,-0.070312 0.1289063,-0.1757812 0,-0.1289063 -0.1054688,-0.1992188 -0.1875,-0.1992188 -0.046875,0 -0.082031,0.023437 -0.1289063,0.058594 l -0.515625,0.3398437 0.046875,-0.6679687 c 0,-0.140625 -0.1171875,-0.1875 -0.1875,-0.1875 -0.082031,0 -0.1992187,0.046875 -0.1992187,0.1875 l 0.046875,0.6679687 -0.515625,-0.3398437 c -0.046875,-0.035156 -0.082031,-0.058594 -0.1289063,-0.058594 -0.082031,0 -0.1875,0.070312 -0.1875,0.1992188 0,0.1054687 0.070312,0.140625 0.1289063,0.1757812 l 0.5625,0.28125 -0.5625,0.2695313 c -0.058594,0.035156 -0.1289063,0.070312 -0.1289063,0.1757812 0,0.1289063 0.1054688,0.1992188 0.1875,0.1992188 0.046875,0 0.058594,0 0.1640625,-0.082031 0.140625,-0.082031 0.1875,-0.1171875 0.4804688,-0.3164062 l -0.046875,0.6679687 c 0,0.140625 0.1171875,0.1875 0.1992187,0.1875 0.070312,0 0.1875,-0.046875 0.1875,-0.1875 l -0.011719,-0.046875 z m 3.788086,-1.078125 H 9.1816563 V -6.25e-4 H 9.61525 V -0.235 c 0.1054688,0.09375 0.3515625,0.28125 0.714844,0.28125 0.539062,0 0.984375,-0.50390625 0.984375,-1.1601562 0,-0.5976563 -0.351563,-1.1484375 -0.84375,-1.1484375 -0.316406,0 -0.621094,0.1054687 -0.8671877,0.28125 z m 0.011719,1.8867187 c 0,-0.082031 0,-0.140625 0.1757813,-0.2578125 0.070312,-0.035156 0.2109374,-0.1054687 0.3749994,-0.1054687 0.339844,0 0.714844,0.2226562 0.714844,0.8203125 0,0.60937495 -0.421875,0.8320312 -0.761719,0.8320312 -0.1874994,0 -0.3632807,-0.0820313 -0.5039057,-0.3046875 z m 4.0869137,-0.6445312 h -0.398437 c -0.398438,0.9492187 -0.679688,1.59374995 -0.703125,1.89843745 -0.01172,-0.140625 -0.09375,-0.38671875 -0.1875,-0.62109375 -0.08203,-0.1992187 -0.164063,-0.3984375 -0.246094,-0.5859375 l -0.316406,-0.6914062 h -0.433594 l 1.03125,2.2148437 c -0.05859,0.140625 -0.152344,0.375 -0.1875,0.43359375 -0.105469,0.2109375 -0.175781,0.28125 -0.304688,0.28125 -0.02344,0 -0.210937,0 -0.421875,-0.0820313 l 0.03516,0.33984375 c 0.04687,0.0117188 0.222656,0.0468751 0.375,0.0468751 0.199218,0 0.386718,-0.0820313 0.597656,-0.5507813 z m 1.022461,0.3164062 h 0.738281 v -0.3164062 h -0.738281 v -0.6328125 h -0.386719 v 0.6328125 h -0.445312 v 0.3164062 h 0.433594 v 1.265625 c 0,0.328125 0.08203,0.6796875 0.445312,0.6796875 0.351563,0 0.632813,-0.1171875 0.773438,-0.17578125 l -0.08203,-0.328125 c -0.164062,0.12890625 -0.339843,0.1640625 -0.480468,0.1640625 -0.199219,0 -0.257813,-0.2109375 -0.257813,-0.43359375 z m 3.117188,1.359375 c -0.28125,0.19921875 -0.597657,0.2578125 -0.808594,0.2578125 -0.433594,0 -0.761719,-0.3515625 -0.773438,-0.8085937 h 1.628907 c 0,-0.234375 -0.02344,-0.5625 -0.222657,-0.84375 -0.175781,-0.2578125 -0.46875,-0.3515625 -0.714843,-0.3515625 -0.609375,0 -1.078125,0.5273437 -1.078125,1.1601562 0,0.64453125 0.492187,1.171875 1.148437,1.171875 0.292969,0 0.597656,-0.08203125 0.84375,-0.234375 z m -1.546875,-0.8554687 c 0.105468,-0.3984375 0.398437,-0.5625 0.65625,-0.5625 0.210937,0 0.539062,0.1054687 0.632812,0.5625 z m 3.571289,-0.7382813 c -0.339844,-0.140625 -0.585938,-0.1523437 -0.761719,-0.1523437 -0.128906,0 -0.878906,0 -0.878906,0.65625 0,0.234375 0.128906,0.3632812 0.1875,0.4335937 0.175781,0.1640625 0.386718,0.2109375 0.65625,0.2578125 0.234375,0.046875 0.503906,0.09375 0.503906,0.33984375 0,0.3046875 -0.421875,0.3046875 -0.492188,0.3046875 -0.316406,0 -0.609375,-0.10546875 -0.808593,-0.24609375 l -0.07031,0.375 c 0.164063,0.08203125 0.46875,0.2109375 0.878906,0.2109375 0.234375,0 0.445313,-0.03515625 0.632813,-0.1640625 0.1875,-0.140625 0.246094,-0.36328125 0.246094,-0.52734375 0,-0.09375 -0.01172,-0.28125 -0.222657,-0.48046875 -0.1875,-0.1640625 -0.363281,-0.1992187 -0.597656,-0.234375 -0.292969,-0.058594 -0.527344,-0.1054687 -0.527344,-0.328125 0,-0.28125 0.363282,-0.28125 0.433594,-0.28125 0.292969,0 0.503906,0.058594 0.761719,0.1875 z m 0,0"
       style="fill:#000000;fill-opacity:1;fill-rule:nonzero;stroke:none"
       aria-label="k*bytes"
       transform="matrix(1.3333333,0,0,1.3333333,326.55467,127.81333)" />
    <path
       id="path27"
       d="m -14.94415,-88.72127 v -40.37817"
       style="fill:none;stroke:#000000;stroke-width:0.49815;stroke-linecap:butt;stroke-linejoin:miter;stroke-miterlimit:10;stroke-dasharray:none;stroke-opacity:1"
       transform="matrix(1.3333333,0,0,-1.3333333,163.25333,80.237333)" />
    <path
       id="path28"
       d="M 2.14203,0 -1.28522,1.71362 0,0 -1.28522,-1.71362"
       style="fill:#000000;fill-opacity:1;fill-rule:nonzero;stroke:none"
       transform="matrix(0,1.3333333,1.3333333,0,143.3278,252.36992)" />
    <path
       id="path29"
       d="m 4.6748047,-2.1914531 c 0,-1.3359375 -0.9960938,-2.4023438 -2.1796875,-2.4023438 -1.2304688,0 -2.19140626,1.1015625 -2.19140626,2.4023438 0,1.31249997 1.00781246,2.29687497 2.17968746,2.29687497 1.1953125,0 2.1914063,-1.0078125 2.1914063,-2.29687497 z m -2.1914063,1.66406247 c -0.6914062,0 -1.40625,-0.56249997 -1.40625,-1.76953127 0,-1.1953125 0.75,-1.6875 1.40625,-1.6875 0.6914063,0 1.40625,0.515625 1.40625,1.6875 0,1.1835938 -0.6679687,1.76953127 -1.40625,1.76953127 z M 8.4042969,-4.2773906 c -0.5273438,-0.234375 -0.9257813,-0.3164063 -1.4414063,-0.3164063 -0.2460937,0 -1.6523437,0 -1.6523437,1.3007813 0,0.4921875 0.2929687,0.8085937 0.5390625,0.9960937 0.3046875,0.2226563 0.5273437,0.2695313 1.078125,0.375 0.3515625,0.070312 0.9375,0.1875 0.9375,0.7148438 0,0.69140622 -0.7851563,0.69140622 -0.9375,0.69140622 -0.8085938,0 -1.3710938,-0.375 -1.546875,-0.49218752 l -0.1171875,0.67968752 c 0.3164062,0.1640625 0.8671875,0.43359375 1.6757812,0.43359375 0.1757813,0 0.7265625,0 1.1484375,-0.31640625 0.3164063,-0.234375 0.4804688,-0.6328125 0.4804688,-1.06640622 0,-0.5507813 -0.3632813,-0.8789063 -0.3867188,-0.9140625 -0.3867187,-0.3515625 -0.65625,-0.4101563 -1.1601562,-0.5039063 -0.5390625,-0.1054687 -1.0078125,-0.1992187 -1.0078125,-0.6914062 0,-0.6210938 0.7265625,-0.6210938 0.8554687,-0.6210938 0.3164063,0 0.84375,0.046875 1.40625,0.3867188 z m 0,0"
       style="fill:#000000;fill-opacity:1;fill-rule:nonzero;stroke:none"
       aria-label="os"
       transform="matrix(1.3333333,0,0,1.3333333,96.333333,259.836)" />
    <path
       id="path30"
       d="M 0,0 H 2.989"
       style="fill:none;stroke:#000000;stroke-width:0.398;stroke-linecap:butt;stroke-linejoin:miter;stroke-miterlimit:10;stroke-dasharray:none;stroke-opacity:1"
       transform="matrix(1.3333333,0,0,-1.3333333,108.864,259.57067)" />
    <path
       id="path31"
       d="m 4.4401484,-4.4180156 h -0.75 l -0.7851562,2.0625 c -0.2109375,0.5507812 -0.515625,1.35937497 -0.5976563,1.82812497 H 2.2956172 C 2.2370234,-0.89067188 1.9792109,-1.5703594 1.8854609,-1.8398906 L 0.91280469,-4.4180156 H 0.13936719 L 1.8503047,-4.6875e-5 h 0.8789062 z m 4.125,1.5351562 c 0,-1.0078125 -0.7265625,-1.7109375 -1.640625,-1.7109375 -0.6445312,0 -1.1015625,0.1640625 -1.5703125,0.4335938 l 0.070312,0.65625 c 0.515625,-0.375 1.0078125,-0.5039063 1.5,-0.5039063 0.46875,0 0.8671875,0.3984375 0.8671875,1.1367188 v 0.4335937 c -1.5,0.011719 -2.765625,0.4335938 -2.765625,1.3125 0,0.42187502 0.2695313,1.23046877 1.1367188,1.23046877 0.140625,0 1.078125,-0.01171875 1.6523437,-0.46875 V -4.6875e-5 h 0.75 z m -0.7734375,1.5703125 c 0,0.1875 0,0.43359377 -0.3398437,0.62109377 -0.2929688,0.1875 -0.6679688,0.1875 -0.7734375,0.1875 -0.4804688,0 -0.9257813,-0.22265625 -0.9257813,-0.64453127 0,-0.6914062 1.6054688,-0.7617187 2.0390625,-0.7851562 z m 3.1494141,-5.6015625 h -0.75 V -4.6875e-5 h 0.75 z m 2.449219,0.140625 h -0.890625 v 0.890625 h 0.890625 z m -0.07031,2.3554688 h -0.75 V -4.6875e-5 h 0.75 z m 5.147461,-2.4960938 h -0.75 v 2.9296875 c -0.527344,-0.4335937 -1.078125,-0.5507812 -1.453125,-0.5507812 -0.984375,0 -1.757812,1.0429687 -1.757812,2.3203125 0,1.31249997 0.761718,2.32031247 1.710937,2.32031247 0.328125,0 0.914063,-0.08203125 1.476563,-0.62109375 V -4.6875e-5 h 0.773437 z m -0.773437,5.53125 c 0,0.140625 -0.01172,0.3164063 -0.328125,0.60937502 -0.234375,0.19921875 -0.480469,0.26953125 -0.738282,0.26953125 -0.621093,0 -1.347656,-0.45703125 -1.347656,-1.69921877 0,-1.3125 0.855469,-1.7226562 1.441406,-1.7226562 0.445313,0 0.75,0.234375 0.972657,0.5507812 z m 0,0"
       style="fill:#000000;fill-opacity:1;fill-rule:nonzero;stroke:none"
       aria-label="valid"
       transform="matrix(1.3333333,0,0,1.3333333,112.84933,259.836)" />
    <path
       id="path32"
       d="m 0,-88.72127 v -67.2307"
       style="fill:none;stroke:#000000;stroke-width:1.49435;stroke-linecap:butt;stroke-linejoin:miter;stroke-miterlimit:10;stroke-dasharray:none;stroke-opacity:1"
       transform="matrix(1.3333333,0,0,-1.3333333,163.25333,80.237333)" />
    <path
       id="path33"
       d="M 3.6363,0 -2.18178,2.90904 0,0 -2.18178,-2.90904"
       style="fill:#000000;fill-opacity:1;fill-rule:nonzero;stroke:none"
       transform="matrix(0,1.3333333,1.3333333,0,163.25333,288.17329)" />
    <path
       id="path34"
       d="m 4.6756172,-2.1907969 c 0,-1.3359375 -0.9960938,-2.4023437 -2.1796875,-2.4023437 -1.2304688,0 -2.19140626,1.1015625 -2.19140626,2.4023437 0,1.31250003 1.00781246,2.29687503 2.17968746,2.29687503 1.1953125,0 2.1914063,-1.0078125 2.1914063,-2.29687503 z m -2.1914063,1.66406253 c -0.6914062,0 -1.40625,-0.56250003 -1.40625,-1.76953123 0,-1.1953125 0.75,-1.6875 1.40625,-1.6875 0.6914063,0 1.40625,0.515625 1.40625,1.6875 0,1.1835937 -0.6679687,1.76953123 -1.40625,1.76953123 z M 8.4021797,-4.2767344 c -0.5273438,-0.234375 -0.9257813,-0.3164062 -1.4414063,-0.3164062 -0.2460937,0 -1.6523437,0 -1.6523437,1.3007812 0,0.4921875 0.2929687,0.8085938 0.5390625,0.9960938 0.3046875,0.2226562 0.5273437,0.2695312 1.078125,0.375 0.3515625,0.070312 0.9375,0.1875 0.9375,0.7148437 0,0.69140628 -0.7851563,0.69140628 -0.9375,0.69140628 -0.8085938,0 -1.3710938,-0.375 -1.546875,-0.49218748 l -0.1171875,0.67968748 c 0.3164062,0.1640625 0.8671875,0.43359375 1.6757812,0.43359375 0.1757813,0 0.7265625,0 1.1484375,-0.31640625 0.3164063,-0.234375 0.4804688,-0.6328125 0.4804688,-1.06640628 0,-0.5507812 -0.3632813,-0.8789062 -0.3867188,-0.9140625 -0.3867187,-0.3515625 -0.65625,-0.4101562 -1.1601562,-0.5039062 -0.5390625,-0.1054688 -1.0078125,-0.1992188 -1.0078125,-0.6914063 0,-0.6210937 0.7265625,-0.6210937 0.8554687,-0.6210937 0.3164063,0 0.84375,0.046875 1.40625,0.3867187 z m 0,0"
       style="fill:#000000;fill-opacity:1;fill-rule:nonzero;stroke:none"
       aria-label="os"
       transform="matrix(1.3333333,0,0,1.3333333,168.676,297.632)" />
    <path
       id="path35"
       d="M 0,0 H 2.989"
       style="fill:none;stroke:#000000;stroke-width:0.398;stroke-linecap:butt;stroke-linejoin:miter;stroke-miterlimit:10;stroke-dasharray:none;stroke-opacity:1"
       transform="matrix(1.3333333,0,0,-1.3333333,181.20667,297.36533)" />
    <path
       id="path36"
       d="m 4.3237734,-6.9134531 h -0.75 v 2.9296875 c -0.5273437,-0.4335938 -1.078125,-0.5507813 -1.453125,-0.5507813 -0.984375,0 -1.75781246,1.0429688 -1.75781246,2.3203125 0,1.31250003 0.76171876,2.32031253 1.71093746,2.32031253 0.328125,0 0.9140625,-0.08203125 1.4765625,-0.62109375 V 6.09375e-4 h 0.7734375 z m -0.7734375,5.53125 c 0,0.140625 -0.011719,0.3164062 -0.328125,0.60937498 -0.234375,0.19921875 -0.4804687,0.26953125 -0.7382812,0.26953125 -0.6210938,0 -1.3476563,-0.45703125 -1.3476563,-1.69921873 0,-1.3125 0.8554688,-1.7226563 1.4414063,-1.7226563 0.4453125,0 0.75,0.234375 0.9726562,0.5507813 z m 5.569336,-1.5 c 0,-1.0078125 -0.7265625,-1.7109375 -1.640625,-1.7109375 -0.6445313,0 -1.1015625,0.1640625 -1.5703125,0.4335937 l 0.070312,0.65625 c 0.515625,-0.375 1.0078125,-0.5039062 1.5,-0.5039062 0.46875,0 0.8671875,0.3984375 0.8671875,1.1367187 v 0.4335938 c -1.5,0.011719 -2.765625,0.4335937 -2.765625,1.3125 0,0.42187498 0.2695312,1.23046873 1.1367187,1.23046873 0.140625,0 1.078125,-0.01171875 1.6523438,-0.46875 V 6.09375e-4 h 0.75 z m -0.7734375,1.5703125 c 0,0.1875 0,0.43359373 -0.3398438,0.62109373 -0.2929687,0.1875 -0.6679687,0.1875 -0.7734375,0.1875 -0.4804687,0 -0.9257812,-0.22265625 -0.9257812,-0.64453123 0,-0.6914063 1.6054687,-0.7617188 2.0390625,-0.7851563 z m 3.3369136,-2.53125 h 1.40625 v -0.5742188 h -1.40625 v -1.265625 h -0.691406 v 1.265625 h -0.867187 v 0.5742188 h 0.84375 v 2.6601562 c 0,0.59765628 0.128906,1.28906253 0.820312,1.28906253 0.703125,0 1.207031,-0.24609375 1.453125,-0.375 l -0.152344,-0.5859375 c -0.257812,0.2109375 -0.585937,0.328125 -0.902343,0.328125 -0.363282,0 -0.503907,-0.3046875 -0.503907,-0.83203123 z m 5.821289,0.9609375 c 0,-1.0078125 -0.726562,-1.7109375 -1.640625,-1.7109375 -0.644531,0 -1.101562,0.1640625 -1.570312,0.4335937 l 0.07031,0.65625 c 0.515625,-0.375 1.007813,-0.5039062 1.5,-0.5039062 0.46875,0 0.867188,0.3984375 0.867188,1.1367187 v 0.4335938 c -1.5,0.011719 -2.765625,0.4335937 -2.765625,1.3125 0,0.42187498 0.269531,1.23046873 1.136719,1.23046873 0.140625,0 1.078125,-0.01171875 1.652343,-0.46875 V 6.09375e-4 h 0.75 z M 16.731,-1.3118906 c 0,0.1875 0,0.43359373 -0.339844,0.62109373 -0.292969,0.1875 -0.667969,0.1875 -0.773437,0.1875 -0.480469,0 -0.925782,-0.22265625 -0.925782,-0.64453123 0,-0.6914063 1.605469,-0.7617188 2.039063,-0.7851563 z m 0,0"
       style="fill:#000000;fill-opacity:1;fill-rule:nonzero;stroke:none"
       aria-label="data"
       transform="matrix(1.3333333,0,0,1.3333333,185.192,297.632)" />
    <path
       id="path37"
       d="m 14.94415,-90.8633 v -40.37817"
       style="fill:none;stroke:#000000;stroke-width:0.49815;stroke-linecap:butt;stroke-linejoin:miter;stroke-miterlimit:10;stroke-dasharray:none;stroke-opacity:1"
       transform="matrix(1.3333333,0,0,-1.3333333,163.25333,80.237333)" />
    <path
       id="path38"
       d="M 2.14203,0 -1.28522,1.71362 0,0 -1.28522,-1.71362"
       style="fill:#000000;fill-opacity:1;fill-rule:nonzero;stroke:none"
       transform="matrix(0,-1.3333333,-1.3333333,0,183.17887,201.3884)" />
    <path
       id="path39"
       d="m 4.6759062,-2.19025 c 0,-1.3359375 -0.9960937,-2.4023438 -2.1796875,-2.4023438 -1.2304687,0 -2.1914062,1.1015625 -2.1914062,2.4023438 0,1.3125 1.0078125,2.296875 2.1796875,2.296875 1.1953125,0 2.1914062,-1.0078125 2.1914062,-2.296875 z M 2.4845,-0.5261875 c -0.6914063,0 -1.40625,-0.5625 -1.40625,-1.7695313 0,-1.1953125 0.75,-1.6875 1.40625,-1.6875 0.6914062,0 1.40625,0.515625 1.40625,1.6875 0,1.1835938 -0.6679688,1.7695313 -1.40625,1.7695313 z m 5.9179687,-3.75 C 7.875125,-4.5105625 7.4766875,-4.5925938 6.9610625,-4.5925938 c -0.2460938,0 -1.6523438,0 -1.6523438,1.3007813 0,0.4921875 0.2929688,0.8085937 0.5390625,0.9960937 0.3046875,0.2226563 0.5273438,0.2695313 1.078125,0.375 0.3515625,0.070312 0.9375,0.1875 0.9375,0.7148438 0,0.69140625 -0.7851562,0.69140625 -0.9375,0.69140625 -0.8085937,0 -1.3710937,-0.375 -1.546875,-0.49218755 L 5.2618437,-0.32696875 C 5.57825,-0.16290625 6.1290312,0.106625 6.937625,0.106625 c 0.1757812,0 0.7265625,0 1.1484375,-0.31640625 0.3164062,-0.234375 0.4804687,-0.6328125 0.4804687,-1.06640625 0,-0.5507813 -0.3632812,-0.8789063 -0.3867187,-0.9140625 C 7.7930937,-2.5418125 7.5235625,-2.6004063 7.0196562,-2.6941563 6.4805937,-2.799625 6.0118437,-2.893375 6.0118437,-3.3855625 c 0,-0.6210938 0.7265625,-0.6210938 0.8554688,-0.6210938 0.3164062,0 0.84375,0.046875 1.40625,0.3867188 z m 0,0"
       style="fill:#000000;fill-opacity:1;fill-rule:nonzero;stroke:none"
       aria-label="os"
       transform="matrix(1.3333333,0,0,1.3333333,187.93733,258.54533)" />
    <path
       id="path40"
       d="M 0,0 H 2.989"
       style="fill:none;stroke:#000000;stroke-width:0.398;stroke-linecap:butt;stroke-linejoin:miter;stroke-miterlimit:10;stroke-dasharray:none;stroke-opacity:1"
       transform="matrix(1.3333333,0,0,-1.3333333,200.468,258.27867)" />
    <path
       id="path41"
       d="m 1.5584375,-2.1316563 c 0,-0.9960937 0.7265625,-1.7109375 1.6992188,-1.734375 V -4.534 c -0.890625,0.011719 -1.4296875,0.5039062 -1.7460938,0.9609375 V -4.487125 H 0.82015625 V 0.00115625 H 1.5584375 Z m 5.9707031,-0.046875 c 0,-0.3398437 -0.011719,-1.0898437 -0.3984375,-1.6875 -0.4101562,-0.6210937 -1.0195312,-0.7265625 -1.3710937,-0.7265625 -1.1132813,0 -2.0039063,1.0546875 -2.0039063,2.34375 0,1.31250005 0.9492188,2.3554688 2.1445313,2.3554688 0.6328125,0 1.1953125,-0.234375 1.59375,-0.515625 L 7.4236719,-1.0535313 C 6.8025781,-0.53790625 6.1463281,-0.50275 5.9119531,-0.50275 c -0.796875,0 -1.4296875,-0.703125 -1.4648437,-1.6757813 z M 4.5057031,-2.7293125 c 0.1523438,-0.7617188 0.6796875,-1.2539063 1.2539063,-1.2539063 0.515625,0 1.0664062,0.3398438 1.1953125,1.2539063 z m 7.2978519,-0.1523438 c 0,-1.0078125 -0.726563,-1.7109375 -1.640625,-1.7109375 -0.6445316,0 -1.1015628,0.1640625 -1.5703128,0.4335938 l 0.070312,0.65625 c 0.515625,-0.375 1.0078125,-0.5039063 1.4999998,-0.5039063 0.46875,0 0.867187,0.3984375 0.867187,1.1367188 v 0.4335937 c -1.4999993,0.011719 -2.7656243,0.4335938 -2.7656243,1.3125 0,0.42187505 0.2695312,1.2304688 1.1367187,1.2304688 0.140625,0 1.0781246,-0.01171875 1.6523436,-0.46875 v 0.36328125 h 0.75 z m -0.773438,1.5703125 c 0,0.1875 0,0.4335938 -0.339844,0.6210938 -0.292968,0.1875 -0.667968,0.1875 -0.7734371,0.1875 -0.4804687,0 -0.9257812,-0.22265625 -0.9257812,-0.6445313 0,-0.6914062 1.6054683,-0.7617187 2.0390623,-0.7851562 z m 5.915039,-5.6015625 h -0.75 v 2.9296875 C 15.667813,-4.4168125 15.117031,-4.534 14.742031,-4.534 c -0.984375,0 -1.757812,1.0429687 -1.757812,2.3203125 0,1.3125 0.761719,2.3203125 1.710937,2.3203125 0.328125,0 0.914063,-0.08203125 1.476563,-0.62109375 v 0.515625 h 0.773437 z m -0.773437,5.53125 c 0,0.140625 -0.01172,0.3164063 -0.328125,0.60937505 -0.234375,0.19921875 -0.480469,0.26953125 -0.738281,0.26953125 -0.621094,0 -1.347657,-0.45703125 -1.347657,-1.6992188 0,-1.3125 0.855469,-1.7226562 1.441407,-1.7226562 0.445312,0 0.75,0.234375 0.972656,0.5507812 z m 6.038086,-3.0351562 h -0.75 c -1.289063,3.1640625 -1.3125,3.62109375 -1.324219,3.85546875 h -0.01172 C 20.065273,-1.2293125 19.268398,-3.0925938 19.233242,-3.174625 L 18.69418,-4.4168125 h -0.785157 l 1.933594,4.41796875 C 19.72543,0.30584375 19.526211,0.80975 19.479336,0.9035 c -0.257813,0.5742187 -0.421875,0.5742187 -0.5625,0.5742187 -0.164063,0 -0.480469,-0.046875 -0.785156,-0.1640625 l 0.07031,0.6445313 c 0.210938,0.058594 0.492188,0.082031 0.714844,0.082031 0.351562,0 0.714844,-0.1171875 1.125,-1.1367187 z m 0,0"
       style="fill:#000000;fill-opacity:1;fill-rule:nonzero;stroke:none"
       aria-label="ready"
       transform="matrix(1.3333333,0,0,1.3333333,204.45333,258.54533)" />
    <path
       id="path42"
       d="m 103.46617,-90.8633 v -40.37817"
       style="fill:none;stroke:#000000;stroke-width:0.49815;stroke-linecap:butt;stroke-linejoin:miter;stroke-miterlimit:10;stroke-dasharray:none;stroke-opacity:1"
       transform="matrix(1.3333333,0,0,-1.3333333,163.25333,80.237333)" />
    <path
       id="path43"
       d="M 2.14203,0 -1.28522,1.71362 0,0 -1.28522,-1.71362"
       style="fill:#000000;fill-opacity:1;fill-rule:nonzero;stroke:none"
       transform="matrix(0,-1.3333333,-1.3333333,0,301.20823,201.3884)" />
    <path
       id="path44"
       d="M 1.6276719,-6.7734844 H 0.73704688 v 0.890625 H 1.6276719 Z m -0.070312,2.3554688 H 0.80735938 V -4.6875e-5 H 1.5573594 Z m 4.2451172,0.140625 c -0.5273438,-0.234375 -0.9257813,-0.3164063 -1.4414063,-0.3164063 -0.2460937,0 -1.6523437,0 -1.6523437,1.3007813 0,0.4921875 0.2929687,0.8085937 0.5390625,0.9960937 0.3046875,0.2226563 0.5273437,0.2695313 1.078125,0.375 0.3515625,0.070312 0.9375,0.1875 0.9375,0.7148438 0,0.69140622 -0.7851563,0.69140622 -0.9375,0.69140622 -0.8085938,0 -1.3710938,-0.375 -1.546875,-0.49218752 l -0.1171875,0.67968752 c 0.3164062,0.1640625 0.8671875,0.43359375 1.6757812,0.43359375 0.1757813,0 0.7265625,0 1.1484375,-0.31640625 0.3164063,-0.234375 0.4804688,-0.6328125 0.4804688,-1.06640622 0,-0.5507813 -0.3632813,-0.8789063 -0.3867188,-0.9140625 -0.3867187,-0.3515625 -0.65625,-0.4101563 -1.1601562,-0.5039063 -0.5390625,-0.1054687 -1.0078125,-0.1992187 -1.0078125,-0.6914062 0,-0.6210938 0.7265625,-0.6210938 0.8554687,-0.6210938 0.3164063,0 0.84375,0.046875 1.40625,0.3867188 z m 0,0"
       style="fill:#000000;fill-opacity:1;fill-rule:nonzero;stroke:none"
       aria-label="is"
       transform="matrix(1.3333333,0,0,1.3333333,257.68133,259.836)" />
    <path
       id="path45"
       d="M 0,0 H 2.989"
       style="fill:none;stroke:#000000;stroke-width:0.398;stroke-linecap:butt;stroke-linejoin:miter;stroke-miterlimit:10;stroke-dasharray:none;stroke-opacity:1"
       transform="matrix(1.3333333,0,0,-1.3333333,266.74267,259.57067)" />
    <path
       id="path46"
       d="m 4.4403281,-4.4180156 h -0.75 l -0.7851562,2.0625 c -0.2109375,0.5507812 -0.515625,1.35937497 -0.5976563,1.82812497 H 2.2957969 C 2.2372031,-0.89067188 1.9793906,-1.5703594 1.8856406,-1.8398906 L 0.91298438,-4.4180156 H 0.13954688 L 1.8504844,-4.6875e-5 h 0.8789062 z m 4.125,1.5351562 c 0,-1.0078125 -0.7265625,-1.7109375 -1.640625,-1.7109375 -0.6445312,0 -1.1015625,0.1640625 -1.5703125,0.4335938 l 0.070312,0.65625 c 0.515625,-0.375 1.0078125,-0.5039063 1.5,-0.5039063 0.46875,0 0.8671875,0.3984375 0.8671875,1.1367188 v 0.4335937 c -1.5,0.011719 -2.765625,0.4335938 -2.765625,1.3125 0,0.42187502 0.2695313,1.23046877 1.1367188,1.23046877 0.140625,0 1.078125,-0.01171875 1.6523437,-0.46875 V -4.6875e-5 h 0.75 z m -0.7734375,1.5703125 c 0,0.1875 0,0.43359377 -0.3398437,0.62109377 -0.2929688,0.1875 -0.6679688,0.1875 -0.7734375,0.1875 -0.4804688,0 -0.9257813,-0.22265625 -0.9257813,-0.64453127 0,-0.6914062 1.6054688,-0.7617187 2.0390625,-0.7851562 z m 3.1494144,-5.6015625 h -0.75 V -4.6875e-5 h 0.75 z m 2.449218,0.140625 h -0.890625 v 0.890625 h 0.890625 z m -0.07031,2.3554688 h -0.75 V -4.6875e-5 h 0.75 z m 5.144531,-2.4960938 h -0.75 v 2.9296875 c -0.527344,-0.4335937 -1.078125,-0.5507812 -1.453125,-0.5507812 -0.984375,0 -1.757812,1.0429687 -1.757812,2.3203125 0,1.31249997 0.761718,2.32031247 1.710937,2.32031247 0.328125,0 0.914063,-0.08203125 1.476563,-0.62109375 V -4.6875e-5 h 0.773437 z m -0.773437,5.53125 c 0,0.140625 -0.01172,0.3164063 -0.328125,0.60937502 -0.234375,0.19921875 -0.480469,0.26953125 -0.738282,0.26953125 -0.621093,0 -1.347656,-0.45703125 -1.347656,-1.69921877 0,-1.3125 0.855469,-1.7226562 1.441406,-1.7226562 0.445313,0 0.75,0.234375 0.972657,0.5507812 z m 0,0"
       style="fill:#000000;fill-opacity:1;fill-rule:nonzero;stroke:none"
       aria-label="valid"
       transform="matrix(1.3333333,0,0,1.3333333,270.728,259.836)" />
    <path
       id="path47"
       d="m 118.41034,-92.35757 v -67.2307"
       style="fill:none;stroke:#000000;stroke-width:1.49435;stroke-linecap:butt;stroke-linejoin:miter;stroke-miterlimit:10;stroke-dasharray:none;stroke-opacity:1"
       transform="matrix(1.3333333,0,0,-1.3333333,163.25333,80.237333)" />
    <path
       id="path48"
       d="M 3.6363,0 -2.18178,2.90904 0,0 -2.18178,-2.90904"
       style="fill:#000000;fill-opacity:1;fill-rule:nonzero;stroke:none"
       transform="matrix(0,-1.3333333,-1.3333333,0,321.13379,203.38076)" />
    <path
       id="path49"
       d="M 1.6289219,-6.7728281 H 0.73829688 v 0.890625 H 1.6289219 Z m -0.070312,2.3554687 H 0.80860938 V 6.09375e-4 H 1.5586094 Z m 4.2421875,0.140625 c -0.5273438,-0.234375 -0.9257813,-0.3164062 -1.4414063,-0.3164062 -0.2460937,0 -1.6523437,0 -1.6523437,1.3007812 0,0.4921875 0.2929687,0.8085938 0.5390625,0.9960938 0.3046875,0.2226562 0.5273437,0.2695312 1.078125,0.375 0.3515625,0.070312 0.9375,0.1875 0.9375,0.7148437 0,0.69140628 -0.7851563,0.69140628 -0.9375,0.69140628 -0.8085938,0 -1.3710938,-0.375 -1.546875,-0.49218748 l -0.1171875,0.67968748 c 0.3164062,0.1640625 0.8671875,0.43359375 1.6757812,0.43359375 0.1757813,0 0.7265625,0 1.1484375,-0.31640625 0.3164063,-0.234375 0.4804688,-0.6328125 0.4804688,-1.06640628 0,-0.5507812 -0.3632813,-0.8789062 -0.3867188,-0.9140625 -0.3867187,-0.3515625 -0.65625,-0.4101562 -1.1601562,-0.5039062 -0.5390625,-0.1054688 -1.0078125,-0.1992188 -1.0078125,-0.6914063 0,-0.6210937 0.7265625,-0.6210937 0.8554687,-0.6210937 0.3164063,0 0.84375,0.046875 1.40625,0.3867187 z m 0,0"
       style="fill:#000000;fill-opacity:1;fill-rule:nonzero;stroke:none"
       aria-label="is"
       transform="matrix(1.3333333,0,0,1.3333333,326.55467,297.632)" />
    <path
       id="path50"
       d="M 0,0 H 2.989"
       style="fill:none;stroke:#000000;stroke-width:0.398;stroke-linecap:butt;stroke-linejoin:miter;stroke-miterlimit:10;stroke-dasharray:none;stroke-opacity:1"
       transform="matrix(1.3333333,0,0,-1.3333333,335.61733,297.36533)" />
    <path
       id="path51"
       d="m 4.3233906,-6.9134531 h -0.75 v 2.9296875 c -0.5273437,-0.4335938 -1.078125,-0.5507813 -1.453125,-0.5507813 -0.984375,0 -1.75781247,1.0429688 -1.75781247,2.3203125 0,1.31250003 0.76171877,2.32031253 1.71093747,2.32031253 0.328125,0 0.9140625,-0.08203125 1.4765625,-0.62109375 V 6.09375e-4 h 0.7734375 z m -0.7734375,5.53125 c 0,0.140625 -0.011719,0.3164062 -0.328125,0.60937498 -0.234375,0.19921875 -0.4804687,0.26953125 -0.7382812,0.26953125 -0.6210938,0 -1.3476563,-0.45703125 -1.3476563,-1.69921873 0,-1.3125 0.8554688,-1.7226563 1.4414063,-1.7226563 0.4453125,0 0.75,0.234375 0.9726562,0.5507813 z m 5.569336,-1.5 c 0,-1.0078125 -0.7265625,-1.7109375 -1.640625,-1.7109375 -0.6445313,0 -1.1015625,0.1640625 -1.5703125,0.4335937 l 0.070312,0.65625 c 0.515625,-0.375 1.0078125,-0.5039062 1.5,-0.5039062 0.46875,0 0.8671875,0.3984375 0.8671875,1.1367187 v 0.4335938 c -1.5,0.011719 -2.765625,0.4335937 -2.765625,1.3125 0,0.42187498 0.2695312,1.23046873 1.1367187,1.23046873 0.140625,0 1.078125,-0.01171875 1.6523438,-0.46875 V 6.09375e-4 h 0.75 z m -0.7734375,1.5703125 c 0,0.1875 0,0.43359373 -0.3398438,0.62109373 -0.2929687,0.1875 -0.6679687,0.1875 -0.7734375,0.1875 -0.4804687,0 -0.9257812,-0.22265625 -0.9257812,-0.64453123 0,-0.6914063 1.6054687,-0.7617188 2.0390625,-0.7851563 z m 3.3369144,-2.53125 h 1.40625 v -0.5742188 h -1.40625 v -1.265625 h -0.691407 v 1.265625 h -0.867187 v 0.5742188 h 0.84375 v 2.6601562 c 0,0.59765628 0.128906,1.28906253 0.820312,1.28906253 0.703125,0 1.207032,-0.24609375 1.453125,-0.375 l -0.152343,-0.5859375 c -0.257813,0.2109375 -0.585938,0.328125 -0.902344,0.328125 -0.363281,0 -0.503906,-0.3046875 -0.503906,-0.83203123 z m 5.824218,0.9609375 c 0,-1.0078125 -0.726562,-1.7109375 -1.640625,-1.7109375 -0.644531,0 -1.101562,0.1640625 -1.570312,0.4335937 l 0.07031,0.65625 c 0.515625,-0.375 1.007813,-0.5039062 1.5,-0.5039062 0.46875,0 0.867188,0.3984375 0.867188,1.1367187 v 0.4335938 c -1.5,0.011719 -2.765625,0.4335937 -2.765625,1.3125 0,0.42187498 0.269531,1.23046873 1.136719,1.23046873 0.140625,0 1.078125,-0.01171875 1.652343,-0.46875 V 6.09375e-4 h 0.75 z m -0.773437,1.5703125 c 0,0.1875 0,0.43359373 -0.339844,0.62109373 -0.292969,0.1875 -0.667969,0.1875 -0.773437,0.1875 -0.480469,0 -0.925782,-0.22265625 -0.925782,-0.64453123 0,-0.6914063 1.605469,-0.7617188 2.039063,-0.7851563 z m 0,0"
       style="fill:#000000;fill-opacity:1;fill-rule:nonzero;stroke:none"
       aria-label="data"
       transform="matrix(1.3333333,0,0,1.3333333,339.60267,297.632)" />
    <path
       id="path52"
       d="m 133.3545,-88.72127 v -40.37817"
       style="fill:none;stroke:#000000;stroke-width:0.49815;stroke-linecap:butt;stroke-linejoin:miter;stroke-miterlimit:10;stroke-dasharray:none;stroke-opacity:1"
       transform="matrix(1.3333333,0,0,-1.3333333,163.25333,80.237333)" />
    <path
       id="path53"
       d="M 2.14203,0 -1.28522,1.71362 0,0 -1.28522,-1.71362"
       style="fill:#000000;fill-opacity:1;fill-rule:nonzero;stroke:none"
       transform="matrix(0,1.3333333,1.3333333,0,341.05933,252.36992)" />
    <path
       id="path54"
       d="M 1.6292109,-6.7722813 H 0.73858594 v 0.890625 H 1.6292109 Z m -0.070312,2.3554688 H 0.80889844 V 0.00115625 H 1.5588984 Z m 4.2421875,0.140625 c -0.5273437,-0.234375 -0.9257812,-0.3164063 -1.4414062,-0.3164063 -0.2460938,0 -1.6523438,0 -1.6523438,1.3007813 0,0.4921875 0.2929688,0.8085937 0.5390625,0.9960937 0.3046875,0.2226563 0.5273438,0.2695313 1.078125,0.375 0.3515625,0.070312 0.9375,0.1875 0.9375,0.7148438 0,0.69140625 -0.7851562,0.69140625 -0.9375,0.69140625 -0.8085937,0 -1.3710937,-0.375 -1.546875,-0.49218755 l -0.1171875,0.67968755 c 0.3164063,0.1640625 0.8671875,0.43359375 1.6757813,0.43359375 0.1757812,0 0.7265625,0 1.1484375,-0.31640625 0.3164062,-0.234375 0.4804687,-0.6328125 0.4804687,-1.06640625 0,-0.5507813 -0.3632812,-0.8789063 -0.3867187,-0.9140625 C 5.1917109,-2.5418125 4.9221797,-2.6004063 4.4182734,-2.6941563 3.8792109,-2.799625 3.4104609,-2.893375 3.4104609,-3.3855625 c 0,-0.6210938 0.7265625,-0.6210938 0.8554688,-0.6210938 0.3164062,0 0.84375,0.046875 1.40625,0.3867188 z m 0,0"
       style="fill:#000000;fill-opacity:1;fill-rule:nonzero;stroke:none"
       aria-label="is"
       transform="matrix(1.3333333,0,0,1.3333333,345.816,258.54533)" />
    <path
       id="path55"
       d="M 0,0 H 2.989"
       style="fill:none;stroke:#000000;stroke-width:0.398;stroke-linecap:butt;stroke-linejoin:miter;stroke-miterlimit:10;stroke-dasharray:none;stroke-opacity:1"
       transform="matrix(1.3333333,0,0,-1.3333333,354.87867,258.27867)" />
    <path
       id="path56"
       d="m 1.5580547,-2.1316563 c 0,-0.9960937 0.7265625,-1.7109375 1.6992187,-1.734375 V -4.534 c -0.890625,0.011719 -1.4296875,0.5039062 -1.7460937,0.9609375 V -4.487125 H 0.81977344 V 0.00115625 H 1.5580547 Z m 5.9707031,-0.046875 c 0,-0.3398437 -0.011719,-1.0898437 -0.3984375,-1.6875 -0.4101562,-0.6210937 -1.0195312,-0.7265625 -1.3710937,-0.7265625 -1.1132813,0 -2.0039063,1.0546875 -2.0039063,2.34375 0,1.31250005 0.9492188,2.3554688 2.1445313,2.3554688 0.6328125,0 1.1953125,-0.234375 1.59375,-0.515625 L 7.4232891,-1.0535313 C 6.8021953,-0.53790625 6.1459453,-0.50275 5.9115703,-0.50275 c -0.796875,0 -1.4296875,-0.703125 -1.4648437,-1.6757813 z M 4.5053203,-2.7293125 c 0.1523438,-0.7617188 0.6796875,-1.2539063 1.2539063,-1.2539063 0.515625,0 1.0664062,0.3398438 1.1953125,1.2539063 z m 7.2978517,-0.1523438 c 0,-1.0078125 -0.726563,-1.7109375 -1.640625,-1.7109375 -0.6445314,0 -1.1015626,0.1640625 -1.5703126,0.4335938 l 0.070312,0.65625 c 0.515625,-0.375 1.0078125,-0.5039063 1.4999996,-0.5039063 0.46875,0 0.867187,0.3984375 0.867187,1.1367188 v 0.4335937 c -1.4999991,0.011719 -2.7656241,0.4335938 -2.7656241,1.3125 0,0.42187505 0.2695312,1.2304688 1.1367187,1.2304688 0.140625,0 1.0781244,-0.01171875 1.6523434,-0.46875 v 0.36328125 h 0.75 z m -0.773438,1.5703125 c 0,0.1875 0,0.4335938 -0.339843,0.6210938 -0.292969,0.1875 -0.667969,0.1875 -0.7734379,0.1875 -0.4804687,0 -0.9257812,-0.22265625 -0.9257812,-0.6445313 0,-0.6914062 1.6054691,-0.7617187 2.0390621,-0.7851562 z m 5.915039,-5.6015625 h -0.75 v 2.9296875 C 15.66743,-4.4168125 15.116648,-4.534 14.741648,-4.534 c -0.984375,0 -1.757812,1.0429687 -1.757812,2.3203125 0,1.3125 0.761719,2.3203125 1.710937,2.3203125 0.328125,0 0.914063,-0.08203125 1.476563,-0.62109375 v 0.515625 h 0.773437 z m -0.773437,5.53125 c 0,0.140625 -0.01172,0.3164063 -0.328125,0.60937505 C 15.608836,-0.5730625 15.362742,-0.50275 15.10493,-0.50275 c -0.621094,0 -1.347657,-0.45703125 -1.347657,-1.6992188 0,-1.3125 0.855469,-1.7226562 1.441407,-1.7226562 0.445312,0 0.75,0.234375 0.972656,0.5507812 z m 6.038086,-3.0351562 h -0.75 c -1.289063,3.1640625 -1.3125,3.62109375 -1.324219,3.85546875 h -0.01172 C 20.064891,-1.2293125 19.268016,-3.0925938 19.232859,-3.174625 l -0.539062,-1.2421875 h -0.785156 l 1.933593,4.41796875 C 19.725047,0.30584375 19.525828,0.80975 19.478953,0.9035 c -0.257812,0.5742187 -0.421875,0.5742187 -0.5625,0.5742187 -0.164062,0 -0.480469,-0.046875 -0.785156,-0.1640625 l 0.07031,0.6445313 c 0.210938,0.058594 0.492188,0.082031 0.714844,0.082031 0.351563,0 0.714844,-0.1171875 1.125,-1.1367187 z m 0,0"
       style="fill:#000000;fill-opacity:1;fill-rule:nonzero;stroke:none"
       aria-label="ready"
       transform="matrix(1.3333333,0,0,1.3333333,358.864,258.54533)" />
    <path
       id="path57"
       d="M -59.20515,-102.89465 H 177.61551 V 34.29821 H -59.20515 Z"
       style="fill:none;stroke:#000000;stroke-width:0.3985;stroke-linecap:butt;stroke-linejoin:miter;stroke-miterlimit:10;stroke-dasharray:none;stroke-opacity:1"
       transform="matrix(1.3333333,0,0,-1.3333333,163.25333,80.237333)" />
    <path
       id="path58"
       d="m -61.54645,-24.33543 h -40.37817"
       style="fill:none;stroke:#000000;stroke-width:0.49815;stroke-linecap:butt;stroke-linejoin:miter;stroke-miterlimit:10;stroke-dasharray:none;stroke-opacity:1"
       transform="matrix(1.3333333,0,0,-1.3333333,163.25333,80.237333)" />
    <path
       id="path59"
       d="M 2.14203,0 -1.28522,1.71362 0,0 -1.28522,-1.71362"
       style="fill:#000000;fill-opacity:1;fill-rule:nonzero;stroke:none"
       transform="matrix(1.3333333,0,0,-1.3333333,81.1914,112.68457)" />
    <path
       id="path60"
       d="m 4.3355078,-2.9645078 c 0,-0.65625 -0.1523437,-1.5703125 -1.3710937,-1.5703125 -0.609375,0 -1.0898438,0.3164062 -1.40625,0.7148437 v -3.09375 H 0.80816406 V 3.359375e-4 H 1.5816016 V -2.4371641 c 0,-0.65625 0.2460937,-1.4882812 1.0078125,-1.4882812 0.9609375,0 0.9609375,0.703125 0.9609375,1.03125 V 3.359375e-4 h 0.7851562 z m 4.7841797,0.082031 c 0,-1.0078125 -0.7265625,-1.7109375 -1.640625,-1.7109375 -0.6445313,0 -1.1015625,0.1640625 -1.5703125,0.4335938 l 0.070312,0.65625 c 0.515625,-0.375 1.0078125,-0.5039063 1.5,-0.5039063 0.46875,0 0.8671875,0.3984375 0.8671875,1.1367188 v 0.4335937 c -1.5,0.011719 -2.765625,0.4335938 -2.765625,1.3125 0,0.42187504 0.2695312,1.23046879 1.1367187,1.23046879 0.140625,0 1.078125,-0.01171875 1.6523438,-0.46875 V 3.359375e-4 h 0.75 z M 8.34625,-1.3121641 c 0,0.1875 0,0.43359379 -0.3398438,0.62109379 -0.2929687,0.1875 -0.6679687,0.1875 -0.7734375,0.1875 -0.4804687,0 -0.9257812,-0.22265625 -0.9257812,-0.64453129 0,-0.6914062 1.6054687,-0.7617187 2.0390625,-0.7851562 z m 3.149414,-5.6015625 h -0.75 V 3.359375e-4 h 0.75 z m 2.566406,3.0703125 h 1.40625 v -0.5742187 h -1.40625 v -1.265625 h -0.691406 v 1.265625 h -0.867187 v 0.5742187 h 0.84375 v 2.6601563 c 0,0.59765624 0.128906,1.28906249 0.820312,1.28906249 0.703125,0 1.207031,-0.24609375 1.453125,-0.375 l -0.152344,-0.5859375 c -0.257812,0.2109375 -0.585937,0.328125 -0.902343,0.328125 -0.363282,0 -0.503907,-0.3046875 -0.503907,-0.83203129 z m 0,0"
       style="fill:#000000;fill-opacity:1;fill-rule:nonzero;stroke:none"
       aria-label="halt"
       transform="matrix(1.3333333,0,0,1.3333333,16.746667,107.92533)" />
    <path
       id="path61"
       d="M -59.40442,-44.261 H -99.7826"
       style="fill:none;stroke:#000000;stroke-width:0.49815;stroke-linecap:butt;stroke-linejoin:miter;stroke-miterlimit:10;stroke-dasharray:none;stroke-opacity:1"
       transform="matrix(1.3333333,0,0,-1.3333333,163.25333,80.237333)" />
    <path
       id="path62"
       d="M 2.14203,0 -1.28522,1.71362 0,0 -1.28522,-1.71362"
       style="fill:#000000;fill-opacity:1;fill-rule:nonzero;stroke:none"
       transform="matrix(-1.3333333,0,0,1.3333333,30.209867,139.252)" />
    <path
       id="path63"
       d="m 1.5576641,-2.1326719 c 0,-0.9960937 0.7265625,-1.7109375 1.6992187,-1.734375 v -0.6679687 c -0.890625,0.011719 -1.4296875,0.5039062 -1.7460937,0.9609375 V -4.4881406 H 0.81938281 V 1.40625e-4 H 1.5576641 Z m 4.4355468,-0.1523437 1.828125,-2.1328125 H 7.0010234 l -1.3359375,1.640625 -1.3710937,-1.640625 H 3.4619609 l 1.875,2.1328125 L 3.4033672,1.40625e-4 H 4.2236797 L 5.6650859,-1.8748594 7.1533672,1.40625e-4 h 0.8320312 z m 0,0"
       style="fill:#000000;fill-opacity:1;fill-rule:nonzero;stroke:none"
       aria-label="rx"
       transform="matrix(1.3333333,0,0,1.3333333,10.997333,134.492)" />
    <path
       id="path64"
       d="M 0,0 H 2.989"
       style="fill:none;stroke:#000000;stroke-width:0.398;stroke-linecap:butt;stroke-linejoin:miter;stroke-miterlimit:10;stroke-dasharray:none;stroke-opacity:1"
       transform="matrix(1.3333333,0,0,-1.3333333,22.458667,134.22667)" />
    <path
       id="path65"
       d="m 1.7587969,-3.8436094 h 1.0898437 v -0.5742187 h -1.125 v -1.1953125 c 0,-0.7265625 0.6679688,-0.796875 0.9257813,-0.796875 0.1992187,0 0.46875,0.011719 0.8085937,0.1640625 v -0.6679688 c -0.1171875,-0.023437 -0.4335937,-0.1054687 -0.796875,-0.1054687 -0.9375,0 -1.6523437,0.703125 -1.6523437,1.6992187 v 0.9023438 H 0.27051562 v 0.5742187 H 1.0087969 V 1.40625e-4 h 0.75 z M 7.3808672,-4.4178281 H 6.5957109 v 2.8828125 c 0,0.74999997 -0.5507812,1.10156247 -1.1953125,1.10156247 -0.703125,0 -0.7734375,-0.26953125 -0.7734375,-0.69140627 V -4.4178281 H 3.8535234 v 3.328125 c 0,0.72656247 0.2226563,1.19531247 1.0546875,1.19531247 0.5273438,0 1.2304688,-0.15234375 1.7226563,-0.5859375 V 1.40625e-4 h 0.75 z m 2.3701172,-2.4960938 h -0.75 V 1.40625e-4 h 0.75 z m 2.3789066,0 h -0.75 V 1.40625e-4 h 0.75 z m 0,0"
       style="fill:#000000;fill-opacity:1;fill-rule:nonzero;stroke:none"
       aria-label="full"
       transform="matrix(1.3333333,0,0,1.3333333,26.444,134.492)" />
  </g>
</svg>
